<?xml version="1.0" encoding="UTF-8"?><svg xmlns="http://www.w3.org/2000/svg" viewBox="0 0 353.77 431.94"><defs><style>.d{fill:none;stroke:#231f20;stroke-miterlimit:10;stroke-width:.34px;}.e{fill:#231f20;}.f{fill:#010101;}</style></defs><g id="a"/><g id="b"><g id="c"><path class="e" d="M201.81,421.16c.51,.83,1.2,1.47,2.09,1.92s1.92,.67,3.12,.67c2.21,0,3.96-.71,5.23-2.14,1.27-1.43,1.91-3.35,1.91-5.76,0-2.71-.68-4.77-2.04-6.18-1.36-1.41-3.34-2.12-5.95-2.12-3.08,0-5.28,1.38-6.6,4.15h8.84v6.29h-16.43v-8.48c.69-1.67,1.7-3.23,3.03-4.69,1.33-1.46,3.01-2.66,5.05-3.59s4.35-1.41,6.96-1.41c3.17,0,5.98,.68,8.42,2.03,2.44,1.35,4.32,3.24,5.66,5.67,1.33,2.42,2,5.2,2,8.32s-.67,5.85-2,8.28c-1.33,2.42-3.21,4.31-5.63,5.67-2.42,1.35-5.22,2.03-8.39,2.03-3.98,0-7.27-.95-9.88-2.86s-4.22-4.51-4.85-7.81h9.47Z"/><path class="e" d="M172,400.05l6.28,11.6h.94v-11.6h8.8v31.46h-13.87c-2.54,0-4.7-.44-6.46-1.32s-3.1-2.08-4-3.62c-.9-1.53-1.35-3.25-1.35-5.15,0-2.14,.59-4.02,1.77-5.65,1.18-1.62,2.91-2.78,5.18-3.46l-7.14-12.27h9.83Zm7.23,17.58h-4.35c-1.2,0-2.09,.28-2.69,.85-.6,.56-.9,1.38-.9,2.45,0,1.01,.31,1.81,.92,2.39,.61,.58,1.5,.87,2.67,.87h4.35v-6.56Z"/><path class="e" d="M149.56,431.51v-31.46h8.8v31.46h-8.8Z"/><path class="e" d="M123.27,429.53c-2.5-1.32-4.42-3.18-5.77-5.56-1.35-2.38-2.02-5.1-2.02-8.17s.68-5.74,2.04-8.12c1.36-2.38,3.29-4.25,5.79-5.6,2.5-1.35,5.39-2.03,8.69-2.03h12.52v31.46h-12.52c-3.32,0-6.23-.66-8.73-1.99Zm3.34-19.66c-1.47,1.4-2.2,3.38-2.2,5.94s.73,4.59,2.2,6c1.47,1.41,3.49,2.12,6.06,2.12h3.05v-16.16h-3.05c-2.57,0-4.59,.7-6.06,2.1Z"/><path class="e" d="M218.96,393.28c-.41,.22-.88,.33-1.42,.33-.62,0-1.18-.15-1.68-.46s-.9-.74-1.19-1.3c-.29-.56-.44-1.21-.44-1.95s.15-1.39,.44-1.96c.29-.57,.69-1.01,1.19-1.32,.5-.31,1.06-.47,1.68-.47,.54,0,1.01,.11,1.42,.32s.73,.49,.97,.83v-1.03h1.83v9.65h-1.83v-3.48c-.23,.35-.56,.63-.97,.85Zm-2.58-2.25c.18,.32,.41,.56,.7,.72,.29,.17,.61,.25,.95,.25s.64-.08,.93-.25c.29-.17,.53-.42,.71-.74,.18-.32,.27-.7,.27-1.13s-.09-.81-.27-1.13c-.18-.32-.41-.57-.71-.74-.29-.17-.6-.25-.93-.25s-.65,.09-.95,.26c-.29,.17-.53,.42-.7,.74-.18,.32-.27,.7-.27,1.15s.09,.81,.27,1.13Z"/><path class="e" d="M206,393.49l4.47-10.64h1.94l-1.57,3.6,2.9,7.04h-2.05l-1.87-5.05-1.89,5.05h-1.94Z"/><path class="e" d="M201.79,394.66c.21,.2,.32,.46,.32,.76s-.11,.56-.32,.76c-.21,.2-.48,.31-.8,.31s-.59-.1-.8-.31c-.21-.21-.32-.46-.32-.76s.11-.56,.32-.76,.48-.31,.8-.31,.59,.1,.8,.31Zm-1.7-1.17v-7.23h1.83v7.23h-1.83Z"/><path class="e" d="M192.2,392.78c-.53-.54-.8-1.3-.8-2.28v-4.24h1.83v3.99c0,.57,.14,1.02,.43,1.32s.68,.46,1.17,.46,.9-.15,1.19-.46,.44-.75,.44-1.32v-3.99h1.83v7.23h-1.83v-.9c-.24,.31-.55,.56-.93,.74-.38,.18-.79,.27-1.25,.27-.86,0-1.56-.27-2.09-.81Z"/><path class="e" d="M187.54,391.99v-3.5c0-.24-.06-.42-.18-.53s-.32-.16-.59-.16h-.85v-1.54h1.15c1.54,0,2.31,.75,2.31,2.24v3.48h.86v1.5h-.86v1.79h-1.84v-1.79h-1.62v-1.5h1.62Z"/><path class="e" d="M177.94,389.33h5.28c-.04-.52-.23-.93-.55-1.23-.32-.3-.72-.44-1.19-.44-.68,0-1.16,.29-1.45,.87h-1.97c.21-.7,.61-1.27,1.2-1.71,.59-.45,1.32-.67,2.18-.67,.7,0,1.32,.15,1.87,.46,.55,.31,.98,.75,1.29,1.31s.46,1.22,.46,1.96-.15,1.4-.46,1.97c-.3,.56-.73,1-1.28,1.3s-1.18,.46-1.89,.46-1.3-.15-1.85-.44c-.54-.3-.96-.72-1.26-1.26-.3-.54-.45-1.17-.45-1.87,0-.26,.02-.5,.05-.7Zm1.84,1.23c0,.47,.18,.85,.51,1.13,.33,.28,.74,.42,1.21,.42,.45,0,.83-.14,1.14-.41s.5-.65,.57-1.14h-3.43Z"/><path class="e" d="M176.57,391.84c-.3,.56-.73,1-1.27,1.3-.54,.31-1.16,.46-1.85,.46-.9,0-1.64-.22-2.22-.67-.59-.45-.98-1.08-1.18-1.88h1.97c.1,.31,.28,.56,.53,.74,.25,.18,.55,.27,.92,.27,.52,0,.93-.19,1.24-.57,.3-.38,.46-.92,.46-1.61s-.15-1.22-.46-1.6c-.3-.38-.72-.57-1.24-.57-.74,0-1.22,.33-1.45,.99h-1.97c.2-.78,.6-1.4,1.19-1.87s1.33-.69,2.22-.69c.7,0,1.31,.15,1.85,.46s.96,.74,1.27,1.3c.3,.56,.46,1.21,.46,1.96s-.15,1.4-.46,1.96Z"/><path class="e" d="M163.18,393.24c-.43-.24-.76-.59-1-1.06-.24-.46-.36-1.02-.36-1.68v-4.24h1.83v3.99c0,.57,.14,1.02,.43,1.32s.68,.46,1.17,.46,.9-.15,1.19-.46,.44-.75,.44-1.32v-3.99h1.83v9.65h-1.83v-3.33c-.23,.31-.55,.56-.94,.74-.39,.18-.83,.27-1.3,.27-.55,0-1.03-.12-1.46-.36Z"/><path class="e" d="M155.81,386.47c.47,.21,.84,.5,1.12,.87,.27,.37,.42,.77,.45,1.21h-1.84c-.04-.28-.17-.51-.41-.69-.24-.18-.54-.27-.89-.27s-.62,.07-.82,.21c-.2,.14-.29,.32-.29,.53,0,.24,.12,.41,.36,.53s.62,.25,1.14,.38c.54,.13,.98,.27,1.32,.4,.34,.14,.64,.35,.89,.64s.37,.67,.37,1.16c0,.4-.11,.76-.34,1.1-.23,.33-.56,.59-.99,.78-.43,.19-.94,.29-1.52,.29-.86,0-1.55-.22-2.06-.65-.51-.43-.8-1.01-.85-1.74h1.75c.03,.29,.15,.52,.36,.69,.21,.17,.5,.25,.85,.25,.33,0,.58-.06,.76-.18,.18-.12,.27-.29,.27-.51,0-.24-.12-.43-.37-.55-.24-.13-.62-.25-1.13-.38-.52-.13-.95-.27-1.29-.4-.34-.14-.63-.35-.88-.65-.25-.29-.38-.68-.38-1.15,0-.42,.12-.79,.35-1.12,.23-.33,.56-.59,.99-.78s.93-.28,1.51-.28,1.12,.11,1.59,.32Z"/><path class="e" d="M147.75,391.99v-3.5c0-.24-.06-.42-.18-.53s-.32-.16-.59-.16h-.85v-1.54h1.15c1.54,0,2.31,.75,2.31,2.24v3.48h.86v1.5h-.86v1.79h-1.84v-1.79h-1.62v-1.5h1.62Z"/><path class="e" d="M137.99,393.49v-7.23h1.84v.91c.24-.31,.54-.56,.92-.74,.38-.18,.79-.27,1.23-.27,.57,0,1.07,.12,1.5,.36s.78,.59,1.02,1.06c.25,.46,.37,1.02,.37,1.66v4.24h-1.83v-3.98c0-.57-.14-1.02-.43-1.32-.29-.31-.68-.46-1.17-.46s-.9,.15-1.19,.46-.43,.75-.43,1.32v3.98h-1.84Z"/><path class="e" d="M136.22,391.85c-.29,.56-.69,1-1.19,1.3-.5,.3-1.07,.46-1.68,.46-.47,0-.92-.1-1.34-.31s-.77-.48-1.02-.82v3.43h-1.85v-9.65h1.85v1.07c.23-.36,.54-.64,.95-.86,.41-.22,.88-.33,1.42-.33,.61,0,1.17,.16,1.67,.47,.5,.31,.9,.75,1.19,1.32s.44,1.22,.44,1.96-.15,1.38-.44,1.94Zm-4.99-.83c.17,.32,.41,.56,.7,.73,.3,.17,.61,.25,.95,.25s.65-.08,.94-.25,.52-.41,.7-.72c.18-.32,.27-.69,.27-1.13s-.09-.81-.27-1.14c-.18-.33-.41-.58-.7-.75-.29-.17-.6-.26-.93-.26s-.66,.08-.95,.25c-.29,.17-.53,.41-.7,.73s-.26,.7-.26,1.14,.09,.82,.26,1.14Z"/><path class="e" d="M127.22,394.66c.21,.2,.32,.46,.32,.76s-.11,.56-.32,.76c-.21,.2-.48,.31-.8,.31s-.59-.1-.8-.31c-.21-.21-.32-.46-.32-.76s.11-.56,.32-.76,.48-.31,.8-.31,.59,.1,.8,.31Zm-1.7-1.17v-7.23h1.83v7.23h-1.83Z"/><path class="e" d="M122.39,386.61c.56,.31,.99,.75,1.31,1.31,.32,.57,.48,1.22,.48,1.96s-.16,1.39-.49,1.96-.77,1-1.34,1.31c-.57,.31-1.2,.46-1.89,.46s-1.33-.15-1.89-.46c-.57-.31-1.01-.75-1.34-1.31-.33-.57-.49-1.22-.49-1.96s.17-1.39,.5-1.96,.79-1,1.36-1.31,1.21-.46,1.91-.46,1.32,.15,1.88,.46Zm-2.81,1.37c-.29,.16-.52,.4-.7,.72-.17,.32-.26,.71-.26,1.17,0,.69,.18,1.21,.54,1.58,.36,.37,.8,.55,1.32,.55s.96-.18,1.31-.55c.35-.37,.53-.9,.53-1.58s-.17-1.22-.51-1.58c-.34-.37-.78-.55-1.3-.55-.33,0-.64,.08-.93,.24Z"/><path d="M258.32,415.91v11.77c0,3.28-3.55,5.33-6.39,3.69l-10.19-5.89-10.19-5.89c-2.84-1.64-2.84-5.74,0-7.37l10.19-5.89,10.19-5.89c2.84-1.64,6.39,.41,6.39,3.69v11.77Z"/><path class="f" d="M17.57,197.94c-4.35,0-8.71-1.53-12.2-4.64-1.8-1.61-3.61-3.38-5.37-5.27l.87-.81c1.73,1.87,3.51,3.61,5.29,5.2,7.06,6.3,17.93,5.67,24.23-1.39,3.05-3.42,4.58-7.83,4.32-12.4-.26-4.58-2.29-8.78-5.71-11.83-18.15-16.18-19.75-44.1-3.58-62.25,16.17-18.15,44.1-19.75,62.25-3.58,3.42,3.05,7.83,4.59,12.4,4.32,4.58-.26,8.78-2.29,11.83-5.71,6.3-7.06,5.67-17.93-1.39-24.23C78.87,47.15,29.69,49.49,.87,80.56l-.87-.81c14.21-15.32,33.57-24.32,54.52-25.33,20.98-1.01,41.14,6.1,56.78,20.04,3.66,3.26,5.83,7.75,6.11,12.64,.28,4.89-1.36,9.6-4.62,13.26-3.26,3.66-7.75,5.83-12.64,6.11-4.88,.28-9.6-1.36-13.26-4.62-17.66-15.74-44.83-14.18-60.57,3.48-15.74,17.66-14.18,44.83,3.48,60.57,3.66,3.26,5.83,7.75,6.11,12.64s-1.36,9.6-4.62,13.26c-3.62,4.06-8.65,6.13-13.71,6.13Z"/><polygon class="f" points="319.82 353.62 305.66 339.46 305.66 353.2 304.47 353.2 304.47 336.59 320.66 352.78 319.82 353.62"/><path class="f" d="M280.07,353.2h-1.19v-32.67h-50.58c-3.58,0-6.94-1.39-9.47-3.92-2.53-2.53-3.92-5.89-3.92-9.47,0-7.38,6.01-13.38,13.39-13.38h31.64l-22.37-22.38c-2.53-2.53-3.92-5.89-3.92-9.47s1.39-6.94,3.92-9.46c5.22-5.22,13.71-5.22,18.93,0l22.38,22.38v-31.65c0-3.58,1.39-6.94,3.92-9.46,2.52-2.53,5.88-3.92,9.46-3.92,7.38,0,13.38,6,13.38,13.38v31.65l22.38-22.38c2.53-2.53,5.89-3.92,9.46-3.92s6.94,1.39,9.46,3.92c2.53,2.52,3.92,5.88,3.92,9.46s-1.39,6.94-3.92,9.47l-22.37,22.38h28.92v1.19h-31.78l24.4-24.4c2.3-2.3,3.57-5.37,3.57-8.63s-1.27-6.33-3.57-8.62c-2.31-2.31-5.37-3.57-8.63-3.57s-6.32,1.27-8.62,3.57l-24.4,24.4v-34.51c0-6.73-5.47-12.2-12.2-12.2-3.26,0-6.33,1.27-8.62,3.57-2.3,2.3-3.57,5.37-3.57,8.62v34.51l-24.4-24.4c-2.31-2.3-5.37-3.57-8.63-3.57s-6.32,1.27-8.63,3.57c-2.3,2.3-3.57,5.36-3.57,8.63s1.27,6.33,3.57,8.63l24.4,24.4h-34.5c-6.73,0-12.2,5.47-12.2,12.2,0,3.26,1.27,6.33,3.57,8.63,2.3,2.3,5.37,3.57,8.63,3.57h51.76v33.86Z"/><path class="f" d="M350.84,353.24l-1.18-.07v-.15c.02-.21,.04-.43,.04-.65,0-3.26-1.27-6.32-3.57-8.62l-24.4-24.4h31.78v1.19h-28.92l22.37,22.38c2.53,2.52,3.92,5.88,3.92,9.46,0,.24-.02,.48-.03,.72v.15Z"/><path class="f" d="M332.05,173.62c-7.54,0-13.03-2.84-16.61-5.63-4.77-3.73-10.46-10.75-10.47-23.03,0-6.19,1.37-12.19,2.69-17.99,.55-2.42,1.35-5.92,1.74-8.67-2.56,1.04-5.75,2.66-7.95,3.77-5.34,2.71-10.83,5.5-16.84,7-11.92,2.98-20.11-.84-24.88-4.57-4.77-3.73-10.46-10.75-10.47-23.03,0-6.19,1.37-12.2,2.7-18.01,.55-2.43,1.35-5.93,1.74-8.66-2.56,1.04-5.77,2.66-7.97,3.78-5.33,2.7-10.82,5.49-16.83,6.99-11.91,2.98-20.11-.84-24.88-4.57-4.77-3.73-10.46-10.75-10.47-23.03,0-6.2,1.37-12.2,2.7-18.01,.55-2.41,1.35-5.91,1.74-8.66-2.56,1.04-5.76,2.66-7.96,3.78-5.33,2.71-10.82,5.49-16.83,6.99-11.91,2.98-20.11-.84-24.88-4.57-4.77-3.73-10.46-10.75-10.47-23.03,0-5.06,.91-9.95,1.9-14.48l1.16,.25c-.98,4.46-1.88,9.28-1.88,14.22,0,11.8,5.45,18.53,10.01,22.09,4.56,3.56,12.41,7.21,23.86,4.35,5.88-1.47,11.31-4.23,16.56-6.89,2.52-1.28,6.29-3.19,9.03-4.2l.9-.33-.1,.95c-.32,2.92-1.26,7.04-1.88,9.77-1.31,5.74-2.67,11.68-2.67,17.74,0,11.8,5.45,18.53,10.01,22.09s12.41,7.21,23.86,4.35c5.88-1.47,11.31-4.23,16.57-6.89,2.51-1.27,6.29-3.19,9.02-4.2l.9-.33-.1,.95c-.31,2.9-1.25,7.02-1.88,9.75-1.32,5.77-2.67,11.71-2.67,17.77,0,11.8,5.45,18.53,10.01,22.09,4.57,3.56,12.41,7.21,23.86,4.35,5.88-1.47,11.31-4.23,16.56-6.89,2.52-1.28,6.29-3.19,9.02-4.2l.9-.33-.1,.95c-.32,2.92-1.26,7.04-1.88,9.77-1.31,5.75-2.67,11.69-2.67,17.74,0,11.8,5.45,18.53,10.01,22.09,4.56,3.56,12.41,7.21,23.86,4.35,4.77-1.19,9.17-3.21,13.21-5.21l.53,1.06c-4.1,2.03-8.57,4.08-13.45,5.29-2.99,.75-5.75,1.07-8.27,1.07Z"/><path class="f" d="M334.05,144.15l.1-.95c.31-2.9,1.25-7.02,1.88-9.74,1.32-5.78,2.68-11.71,2.67-17.77,0-11.8-5.45-18.53-10.01-22.09-4.57-3.57-12.41-7.21-23.86-4.35-5.88,1.47-11.31,4.23-16.56,6.89-2.5,1.27-6.28,3.19-9.02,4.2l-.9,.33,.1-.95c.32-2.92,1.26-7.04,1.88-9.77,1.31-5.74,2.67-11.68,2.67-17.74,0-11.8-5.45-18.53-10.01-22.09-4.56-3.56-12.41-7.21-23.86-4.35-5.88,1.47-11.31,4.22-16.56,6.89-2.51,1.27-6.29,3.19-9.03,4.2l-.9,.33,.1-.95c.31-2.9,1.25-7.02,1.88-9.75,1.32-5.77,2.67-11.7,2.67-17.77,0-11.8-5.45-18.53-10.01-22.09-4.56-3.57-12.41-7.21-23.86-4.35-5.88,1.47-11.31,4.23-16.57,6.89-2.51,1.27-6.29,3.19-9.03,4.2l-.9,.33,.1-.95c.31-2.91,1.26-7.04,1.88-9.78,.22-.98,.44-1.96,.66-2.95l1.16,.26c-.22,.99-.44,1.98-.67,2.96-.55,2.41-1.35,5.92-1.74,8.66,2.56-1.04,5.77-2.66,7.97-3.78,5.32-2.7,10.81-5.49,16.82-6.99,11.92-2.98,20.11,.84,24.88,4.57,4.77,3.73,10.46,10.75,10.47,23.03,0,6.2-1.37,12.2-2.7,18.01-.55,2.43-1.35,5.93-1.74,8.66,2.57-1.04,5.78-2.67,7.98-3.79,5.32-2.7,10.81-5.48,16.82-6.98,11.92-2.98,20.11,.84,24.88,4.57,4.77,3.73,10.46,10.75,10.47,23.03,0,6.2-1.37,12.2-2.7,18.01-.55,2.41-1.35,5.91-1.74,8.66,2.57-1.04,5.77-2.67,7.98-3.79,5.31-2.7,10.81-5.48,16.81-6.98,11.91-2.98,20.11,.84,24.88,4.57,4.77,3.73,10.46,10.75,10.47,23.03,0,6.19-1.37,12.2-2.7,18-.55,2.43-1.35,5.93-1.74,8.66,2.57-1.04,5.78-2.67,7.98-3.79,3-1.52,6.39-3.24,9.85-4.66l.45,1.1c-3.42,1.4-6.79,3.11-9.76,4.62-2.5,1.27-6.28,3.19-9.02,4.2l-.9,.33Z"/><path class="f" d="M30.75,353.38c-2.59-8.38-6.55-17.9-10.04-26.29-3.32-7.99-6.76-16.25-8.97-23.17-.74-2.32-1.33-4.44-1.73-6.28l-.29-1.33,1.17,.69c1.62,.96,3.45,2.16,5.44,3.59,5.9,4.24,12.7,10.06,19.27,15.69,8.73,7.48,17.75,15.21,25.97,20.41,5.15,3.26,9.69,5.33,13.87,6.34,8.44,2.04,14.29-.5,17.72-2.99,3.43-2.49,7.65-7.28,8.32-15.93,.33-4.29-.24-9.24-1.75-15.15-2.4-9.41-6.97-20.39-11.39-31-3.32-7.99-6.76-16.25-8.97-23.17-.74-2.32-1.32-4.43-1.73-6.28l-.29-1.33,1.17,.69c1.62,.95,3.45,2.16,5.44,3.59,5.91,4.25,12.7,10.07,19.27,15.69,8.74,7.49,17.77,15.22,25.97,20.41,5.15,3.26,9.69,5.33,13.87,6.34,8.44,2.04,14.29-.5,17.72-2.99,2.6-1.89,4.31-4.68,4.81-7.85,.5-3.17-.26-6.35-2.15-8.95-3.42-4.7-9.69-6.29-14.91-3.79l-.21,.1-.23-.07c-1.31-.43-4.35-1.75-9.95-5.78-5.89-4.24-12.68-10.05-19.25-15.67-8.75-7.5-17.78-15.24-25.99-20.43-5.15-3.26-9.69-5.33-13.87-6.34-8.43-2.04-14.29,.5-17.72,2.99-3.43,2.49-7.65,7.27-8.32,15.93-.33,4.29,.24,9.24,1.75,15.15,2.4,9.4,6.96,20.36,11.37,30.97,3.34,8.02,6.78,16.28,8.99,23.21,.74,2.32,1.33,4.44,1.73,6.28l.29,1.33-1.17-.69c-1.62-.95-3.45-2.16-5.44-3.59-5.91-4.25-12.7-10.06-19.27-15.69-8.73-7.48-17.76-15.22-25.97-20.41-5.15-3.26-9.69-5.33-13.87-6.34-3.83-.92-7.48-.99-10.83-.18l-.28-1.15c3.54-.85,7.38-.79,11.39,.18,4.31,1.04,8.96,3.16,14.22,6.49,8.28,5.24,17.34,13,26.11,20.51,6.55,5.61,13.32,11.41,19.19,15.63,1.48,1.06,2.87,2,4.14,2.8-.37-1.46-.83-3.07-1.38-4.8-2.2-6.88-5.62-15.11-8.94-23.08-4.44-10.68-9.02-21.69-11.44-31.17-1.54-6.03-2.13-11.11-1.78-15.53,.7-9.11,5.18-14.16,8.81-16.8,3.63-2.64,9.82-5.33,18.7-3.19,4.31,1.04,8.96,3.17,14.22,6.5,8.28,5.24,17.34,13,26.11,20.51,6.57,5.62,13.34,11.42,19.19,15.63,5.17,3.72,8.05,5.06,9.4,5.54,5.7-2.6,12.46-.83,16.16,4.26,2.08,2.86,2.91,6.35,2.36,9.84-.55,3.49-2.43,6.55-5.29,8.62-3.63,2.64-9.82,5.33-18.7,3.19-4.31-1.04-8.96-3.17-14.22-6.5-8.27-5.23-17.33-13-26.1-20.5-6.56-5.62-13.33-11.42-19.2-15.64-1.48-1.06-2.87-2-4.14-2.8,.37,1.46,.83,3.07,1.38,4.8,2.2,6.87,5.62,15.11,8.94,23.08,4.43,10.66,9.02,21.67,11.44,31.17,1.54,6.03,2.12,11.12,1.78,15.53-.7,9.11-5.18,14.16-8.81,16.8-3.63,2.64-9.82,5.34-18.7,3.19-4.31-1.04-8.96-3.17-14.22-6.5-8.29-5.24-17.34-13-26.11-20.51-6.55-5.61-13.33-11.42-19.19-15.63-1.48-1.06-2.87-2-4.14-2.8,.37,1.46,.83,3.07,1.38,4.8,2.2,6.88,5.62,15.11,8.94,23.08,3.5,8.42,7.47,17.96,10.08,26.39l-1.13,.35Z"/><path class="e" d="M206.13,201.7c.49-.88,1.23-1.58,2.23-2.1,.99-.53,2.21-.79,3.64-.79h2.43v-5.95h4.9v17.64h-7.33c-1.42,0-2.62-.25-3.62-.75-.99-.5-1.74-1.19-2.24-2.08-.5-.88-.75-1.9-.75-3.05,0-1.07,.25-2.04,.74-2.91Zm4.27,2.91c0,1.28,.69,1.93,2.08,1.93h1.95v-3.83h-1.95c-1.38,0-2.08,.63-2.08,1.9Z"/><path class="e" d="M198.51,211.37v-18.51h4.9v18.51h-4.9Z"/><path class="e" d="M181.35,206.89v-14.03h4.93v2c.42-.63,.99-1.15,1.73-1.54,.73-.39,1.58-.59,2.53-.59,1.63,0,2.92,.54,3.87,1.61,.94,1.08,1.41,2.54,1.41,4.39v8.16h-4.88v-7.53c0-.8-.21-1.43-.64-1.89-.43-.46-.99-.69-1.69-.69s-1.28,.23-1.7,.69c-.42,.46-.63,1.09-.63,1.89v7.53h-4.93Z"/><path class="e" d="M170.88,206.49c-.71-.38-1.25-.9-1.64-1.55v1.95h-4.9v-13.88c0-1.32,.25-2.51,.75-3.56,.5-1.06,1.28-1.91,2.34-2.54,1.06-.63,2.4-.95,4.02-.95,2.17,0,3.9,.51,5.2,1.53,1.3,1.02,2.04,2.4,2.23,4.15h-4.83c-.1-.45-.35-.8-.75-1.05-.4-.25-.92-.38-1.55-.38-1.67,0-2.5,.93-2.5,2.8v1.8c.38-.65,.93-1.17,1.64-1.55,.71-.38,1.54-.58,2.49-.58,1.12,0,2.13,.29,3.04,.88,.91,.58,1.63,1.42,2.15,2.51,.53,1.09,.79,2.36,.79,3.82s-.26,2.72-.79,3.8-1.24,1.92-2.15,2.5c-.91,.58-1.92,.88-3.04,.88-.95,0-1.78-.19-2.49-.58Zm-.9-4.48c.49,.52,1.1,.78,1.81,.78s1.34-.25,1.83-.76c.48-.51,.73-1.22,.73-2.14s-.24-1.61-.73-2.14c-.48-.53-1.09-.79-1.83-.79s-1.32,.26-1.81,.78c-.49,.52-.74,1.23-.74,2.15s.25,1.61,.74,2.13Z"/><path class="e" d="M156.37,208.9c.53,.48,.79,1.07,.79,1.79s-.26,1.34-.79,1.83c-.53,.48-1.22,.73-2.09,.73s-1.54-.24-2.06-.73c-.53-.48-.79-1.09-.79-1.83s.26-1.31,.79-1.79c.53-.48,1.21-.71,2.06-.71s1.56,.24,2.09,.71Zm-4.52-2.01v-14.03h4.9v14.03h-4.9Z"/><path class="e" d="M136.02,205.4c-.95-1.08-1.43-2.53-1.43-4.37v-8.18h4.9v7.53c0,.8,.21,1.43,.63,1.89,.42,.46,.98,.69,1.68,.69s1.31-.23,1.73-.69c.42-.46,.63-1.09,.63-1.89v-7.53h4.9v14.03h-4.9v-2c-.43,.63-1.02,1.15-1.75,1.54s-1.58,.59-2.53,.59c-1.62,0-2.9-.54-3.85-1.61Z"/><path class="e" d="M126.61,197.06l2.68-7.3h3.1l-1.3,7.3h-4.48Z"/><path class="e" d="M217.72,164.12c1.32,.98,2.03,2.37,2.13,4.19h-5.23c-.05-.62-.23-1.07-.55-1.35-.32-.28-.73-.43-1.23-.43-.45,0-.82,.11-1.11,.34-.29,.23-.44,.54-.44,.94,0,.52,.24,.92,.73,1.2,.48,.28,1.27,.6,2.35,.95,1.15,.38,2.08,.75,2.79,1.11s1.33,.88,1.85,1.58c.53,.69,.79,1.6,.79,2.71s-.28,2.11-.85,2.91c-.57,.81-1.35,1.42-2.35,1.84-1,.42-2.13,.63-3.4,.63-2.05,0-3.69-.48-4.92-1.44-1.23-.96-1.88-2.31-1.96-4.04h5.33c.02,.53,.18,.93,.49,1.2,.31,.27,.7,.4,1.19,.4,.37,0,.67-.11,.9-.33,.23-.22,.35-.53,.35-.93,0-.33-.13-.62-.39-.86-.26-.24-.58-.45-.96-.63s-.95-.4-1.7-.66c-1.12-.38-2.04-.76-2.76-1.14s-1.35-.9-1.88-1.58c-.53-.68-.79-1.53-.79-2.56s.26-1.99,.79-2.83c.53-.83,1.28-1.49,2.28-1.98,.99-.48,2.16-.73,3.52-.73,2.05,0,3.74,.49,5.05,1.46Z"/><path class="e" d="M190.78,175.38c-.95-1.08-1.43-2.53-1.43-4.37v-8.18h4.9v7.53c0,.8,.21,1.43,.63,1.89,.42,.46,.98,.69,1.68,.69s1.31-.23,1.73-.69c.42-.46,.63-1.09,.63-1.89v-7.53h4.9v14.03h-4.9v-2c-.43,.63-1.02,1.15-1.75,1.54s-1.58,.59-2.53,.59c-1.62,0-2.9-.54-3.85-1.61Z"/><path class="e" d="M186.66,173.67c-.53,1.08-1.24,1.92-2.15,2.5-.91,.58-1.92,.88-3.04,.88-.97,0-1.8-.19-2.5-.58-.7-.38-1.24-.9-1.63-1.55v1.95h-4.9v-14.03h4.9v1.95c.38-.65,.93-1.17,1.64-1.55,.71-.38,1.54-.58,2.49-.58,1.12,0,2.13,.29,3.04,.88,.91,.58,1.63,1.42,2.15,2.51,.53,1.09,.79,2.36,.79,3.82s-.26,2.72-.79,3.8Zm-8.58-1.68c.49,.52,1.1,.78,1.81,.78s1.34-.25,1.83-.76c.48-.51,.73-1.22,.73-2.14s-.24-1.61-.73-2.14c-.48-.53-1.09-.79-1.83-.79s-1.32,.26-1.81,.78c-.49,.52-.74,1.23-.74,2.15s.25,1.61,.74,2.13Z"/><path class="e" d="M163.11,176.47c-.7,.38-1.53,.58-2.48,.58-1.12,0-2.13-.29-3.04-.88-.91-.58-1.63-1.42-2.15-2.5-.53-1.08-.79-2.35-.79-3.8s.26-2.72,.79-3.82c.53-1.09,1.24-1.93,2.15-2.51,.91-.58,1.92-.88,3.04-.88,.95,0,1.77,.19,2.46,.58,.69,.38,1.24,.9,1.64,1.55v-8.66h4.9v20.74h-4.9v-1.95c-.38,.65-.93,1.17-1.63,1.55Zm-2.74-4.47c.49,.51,1.1,.76,1.81,.76s1.32-.26,1.81-.78c.49-.52,.74-1.23,.74-2.13s-.25-1.63-.74-2.15c-.49-.52-1.1-.78-1.81-.78s-1.32,.26-1.81,.79c-.49,.53-.74,1.24-.74,2.14s.25,1.63,.74,2.14Z"/><path class="e" d="M147.46,178.88c.53,.48,.79,1.07,.79,1.79s-.26,1.34-.79,1.83c-.53,.48-1.22,.73-2.09,.73s-1.54-.24-2.06-.73c-.53-.48-.79-1.09-.79-1.83s.26-1.31,.79-1.79c.53-.48,1.21-.71,2.06-.71s1.56,.24,2.09,.71Zm-4.52-2.01v-14.03h4.9v14.03h-4.9Z"/><path class="e" d="M131.86,167.01v-4.18h2.13c3.59,0,5.38,1.78,5.38,5.33v4.63h1.73v4.08h-1.73v3.4h-4.93v-3.4h-2.55v-4.08h2.55v-4.7c0-.38-.09-.66-.26-.83-.18-.17-.47-.25-.89-.25h-1.43Z"/><path class="e" d="M205.89,132.81l1.43,1.35c1.58-1.08,3.48-1.63,5.68-1.63,1.38,0,2.59,.23,3.62,.68s1.82,1.08,2.38,1.9c.56,.82,.84,1.76,.84,2.83,0,1.07-.28,2.04-.84,2.91-.56,.88-1.4,1.59-2.51,2.14,.42,.53,.72,1.04,.9,1.53,.18,.48,.28,1,.28,1.55,0,.87-.22,1.66-.68,2.38-.45,.72-1.11,1.29-1.99,1.71-.88,.43-1.91,.64-3.11,.64s-2.25-.22-3.1-.66c-.85-.44-1.49-1.03-1.91-1.75-.43-.73-.63-1.51-.61-2.36h4.53c0,.38,.11,.68,.33,.88,.22,.2,.48,.3,.8,.3,.33,0,.61-.1,.84-.29,.22-.19,.34-.45,.34-.79,0-.58-.42-1.29-1.25-2.13l-4.13-4.03c-.15,.3-.31,.66-.48,1.08l-.5,.9h-4.85l.73-1.4c.6-1.43,1.26-2.64,1.98-3.63l-4.2-4.1h5.53Zm4.43,4.23l3.48,3.33c.43-.27,.76-.58,.98-.93,.22-.35,.33-.71,.33-1.08,0-.53-.22-.98-.65-1.35-.43-.37-1.03-.55-1.78-.55-.88,0-1.67,.19-2.35,.58Z"/><path class="e" d="M180.98,141.66c.49-.88,1.23-1.58,2.23-2.1,.99-.53,2.21-.79,3.64-.79h2.43v-5.95h4.9v17.64h-7.33c-1.42,0-2.62-.25-3.62-.75-.99-.5-1.74-1.19-2.24-2.08-.5-.88-.75-1.9-.75-3.05,0-1.07,.25-2.04,.74-2.91Zm4.27,2.91c0,1.28,.69,1.93,2.08,1.93h1.95v-3.83h-1.95c-1.38,0-2.08,.63-2.08,1.9Z"/><path class="e" d="M173.37,151.33v-18.51h4.9v18.51h-4.9Z"/><path class="e" d="M170.58,143.65c-.53,1.08-1.24,1.92-2.15,2.5-.91,.58-1.92,.88-3.04,.88-.97,0-1.8-.19-2.5-.58-.7-.38-1.24-.9-1.63-1.55v1.95h-4.9v-14.03h4.9v1.95c.38-.65,.93-1.17,1.64-1.55,.71-.38,1.54-.58,2.49-.58,1.12,0,2.13,.29,3.04,.88,.91,.58,1.63,1.42,2.15,2.51,.53,1.09,.79,2.36,.79,3.82,0,1.45-.26,2.72-.79,3.8Zm-8.58-1.68c.49,.52,1.1,.78,1.81,.78s1.34-.25,1.83-.76c.48-.51,.73-1.22,.73-2.14s-.24-1.61-.73-2.14c-.48-.53-1.09-.79-1.83-.79s-1.32,.26-1.81,.78c-.49,.52-.74,1.23-.74,2.15s.25,1.61,.74,2.13Z"/><path class="e" d="M138.44,146.85l8.91-20.71h5.33l-3.35,7.28,5.75,13.43h-5.45l-2.95-7.96-2.85,7.96h-5.38Z"/><circle class="d" cx="177" cy="409.1" r="3.49"/><circle class="d" cx="177" cy="176.66" r="3.49"/></g></g></svg>