<?xml version="1.0" encoding="UTF-8"?><svg xmlns="http://www.w3.org/2000/svg" viewBox="0 0 340.21 367.41"><defs><style>.d{fill:none;stroke:#231f20;stroke-miterlimit:10;stroke-width:.34px;}.e{fill:#231f20;}.f{fill:#010101;}</style></defs><g id="a"/><g id="b"><g id="c"><path class="e" d="M202.98,215.17c.49-.88,1.23-1.58,2.23-2.1,.99-.53,2.21-.79,3.64-.79h2.43v-5.95h4.9v17.64h-7.33c-1.42,0-2.62-.25-3.62-.75-.99-.5-1.74-1.19-2.24-2.08-.5-.88-.75-1.9-.75-3.05,0-1.07,.25-2.04,.74-2.91Zm4.27,2.91c0,1.28,.69,1.93,2.08,1.93h1.95v-3.83h-1.95c-1.38,0-2.08,.63-2.08,1.9Z"/><path class="e" d="M195.36,224.84v-18.51h4.9v18.51h-4.9Z"/><path class="e" d="M178.2,220.36v-14.03h4.93v2c.42-.63,.99-1.15,1.73-1.54,.73-.39,1.58-.59,2.53-.59,1.63,0,2.92,.54,3.87,1.61,.94,1.08,1.41,2.54,1.41,4.39v8.16h-4.88v-7.53c0-.8-.21-1.43-.64-1.89-.43-.46-.99-.69-1.69-.69s-1.28,.23-1.7,.69c-.42,.46-.63,1.09-.63,1.89v7.53h-4.93Z"/><path class="e" d="M167.73,219.96c-.71-.38-1.25-.9-1.64-1.55v1.95h-4.9v-13.88c0-1.32,.25-2.51,.75-3.56,.5-1.06,1.28-1.91,2.34-2.54,1.06-.63,2.4-.95,4.02-.95,2.17,0,3.9,.51,5.2,1.53,1.3,1.02,2.04,2.4,2.23,4.15h-4.83c-.1-.45-.35-.8-.75-1.05-.4-.25-.92-.38-1.55-.38-1.67,0-2.5,.93-2.5,2.8v1.8c.38-.65,.93-1.17,1.64-1.55,.71-.38,1.54-.58,2.49-.58,1.12,0,2.13,.29,3.04,.88,.91,.58,1.63,1.42,2.15,2.51,.53,1.09,.79,2.36,.79,3.82s-.26,2.72-.79,3.8-1.24,1.92-2.15,2.5c-.91,.58-1.92,.88-3.04,.88-.95,0-1.78-.19-2.49-.58Zm-.9-4.48c.49,.52,1.1,.78,1.81,.78,.73,0,1.34-.25,1.83-.76,.48-.51,.73-1.22,.73-2.14s-.24-1.61-.73-2.14c-.48-.53-1.09-.79-1.83-.79s-1.32,.26-1.81,.78c-.49,.52-.74,1.23-.74,2.15s.25,1.61,.74,2.13Z"/><path class="e" d="M153.22,222.37c.53,.48,.79,1.07,.79,1.79s-.26,1.34-.79,1.83c-.53,.48-1.22,.73-2.09,.73-.85,0-1.54-.24-2.06-.73-.53-.48-.79-1.09-.79-1.83s.26-1.31,.79-1.79c.53-.48,1.21-.71,2.06-.71s1.56,.24,2.09,.71Zm-4.52-2.01v-14.03h4.9v14.03h-4.9Z"/><path class="e" d="M132.87,218.87c-.95-1.08-1.43-2.53-1.43-4.37v-8.18h4.9v7.53c0,.8,.21,1.43,.63,1.89,.42,.46,.98,.69,1.68,.69s1.31-.23,1.73-.69c.42-.46,.63-1.09,.63-1.89v-7.53h4.9v14.03h-4.9v-2c-.43,.63-1.02,1.15-1.75,1.54s-1.58,.59-2.53,.59c-1.62,0-2.9-.54-3.85-1.61Z"/><path class="e" d="M123.46,210.53l2.68-7.3h3.1l-1.3,7.3h-4.48Z"/><path class="e" d="M214.57,177.59c1.32,.98,2.03,2.37,2.13,4.19h-5.23c-.05-.62-.23-1.07-.55-1.35-.32-.28-.73-.43-1.23-.43-.45,0-.82,.11-1.11,.34-.29,.23-.44,.54-.44,.94,0,.52,.24,.92,.73,1.2,.48,.28,1.27,.6,2.35,.95,1.15,.38,2.08,.75,2.79,1.11s1.33,.88,1.85,1.58c.53,.69,.79,1.6,.79,2.71s-.28,2.11-.85,2.91c-.57,.81-1.35,1.42-2.35,1.84-1,.42-2.13,.63-3.4,.63-2.05,0-3.69-.48-4.92-1.44-1.23-.96-1.88-2.31-1.96-4.04h5.33c.02,.53,.18,.93,.49,1.2,.31,.27,.7,.4,1.19,.4,.37,0,.67-.11,.9-.33,.23-.22,.35-.53,.35-.93,0-.33-.13-.62-.39-.86-.26-.24-.58-.45-.96-.63s-.95-.4-1.7-.66c-1.12-.38-2.04-.76-2.76-1.14s-1.35-.9-1.88-1.58c-.53-.68-.79-1.53-.79-2.56s.26-1.99,.79-2.83c.53-.83,1.28-1.49,2.28-1.98,.99-.48,2.16-.73,3.52-.73,2.05,0,3.74,.49,5.05,1.46Z"/><path class="e" d="M187.63,188.85c-.95-1.08-1.43-2.53-1.43-4.37v-8.18h4.9v7.53c0,.8,.21,1.43,.63,1.89,.42,.46,.98,.69,1.68,.69s1.31-.23,1.73-.69c.42-.46,.63-1.09,.63-1.89v-7.53h4.9v14.03h-4.9v-2c-.43,.63-1.02,1.15-1.75,1.54s-1.58,.59-2.53,.59c-1.62,0-2.9-.54-3.85-1.61Z"/><path class="e" d="M183.51,187.13c-.53,1.08-1.24,1.92-2.15,2.5-.91,.58-1.92,.88-3.04,.88-.97,0-1.8-.19-2.5-.58-.7-.38-1.24-.9-1.63-1.55v1.95h-4.9v-14.03h4.9v1.95c.38-.65,.93-1.17,1.64-1.55,.71-.38,1.54-.58,2.49-.58,1.12,0,2.13,.29,3.04,.88,.91,.58,1.63,1.42,2.15,2.51,.53,1.09,.79,2.36,.79,3.82s-.26,2.72-.79,3.8Zm-8.58-1.68c.49,.52,1.1,.78,1.81,.78s1.34-.25,1.83-.76c.48-.51,.73-1.22,.73-2.14s-.24-1.61-.73-2.14c-.48-.53-1.09-.79-1.83-.79s-1.32,.26-1.81,.78c-.49,.52-.74,1.23-.74,2.15s.25,1.61,.74,2.13Z"/><path class="e" d="M159.96,189.94c-.7,.38-1.53,.58-2.48,.58-1.12,0-2.13-.29-3.04-.88-.91-.58-1.63-1.42-2.15-2.5-.53-1.08-.79-2.35-.79-3.8s.26-2.72,.79-3.82c.53-1.09,1.24-1.93,2.15-2.51,.91-.58,1.92-.88,3.04-.88,.95,0,1.77,.19,2.46,.58,.69,.38,1.24,.9,1.64,1.55v-8.66h4.9v20.74h-4.9v-1.95c-.38,.65-.93,1.17-1.63,1.55Zm-2.74-4.47c.49,.51,1.1,.76,1.81,.76s1.32-.26,1.81-.78c.49-.52,.74-1.23,.74-2.13s-.25-1.63-.74-2.15c-.49-.52-1.1-.78-1.81-.78s-1.32,.26-1.81,.79c-.49,.53-.74,1.24-.74,2.14s.25,1.63,.74,2.14Z"/><path class="e" d="M144.31,192.35c.53,.48,.79,1.07,.79,1.79s-.26,1.34-.79,1.83c-.53,.48-1.22,.73-2.09,.73s-1.54-.24-2.06-.73c-.53-.48-.79-1.09-.79-1.83s.26-1.31,.79-1.79c.53-.48,1.21-.71,2.06-.71s1.56,.24,2.09,.71Zm-4.52-2.01v-14.03h4.9v14.03h-4.9Z"/><path class="e" d="M128.71,180.48v-4.18h2.13c3.59,0,5.38,1.78,5.38,5.33v4.63h1.73v4.08h-1.73v3.4h-4.93v-3.4h-2.55v-4.08h2.55v-4.7c0-.38-.09-.66-.26-.83-.18-.17-.47-.25-.89-.25h-1.43Z"/><path class="e" d="M202.74,146.28l1.43,1.35c1.58-1.08,3.48-1.63,5.68-1.63,1.38,0,2.59,.23,3.62,.68s1.82,1.08,2.38,1.9c.56,.82,.84,1.76,.84,2.83,0,1.07-.28,2.04-.84,2.91-.56,.88-1.4,1.59-2.51,2.14,.42,.53,.72,1.04,.9,1.53,.18,.48,.28,1,.28,1.55,0,.87-.22,1.66-.68,2.38-.45,.72-1.11,1.29-1.99,1.71-.88,.43-1.91,.64-3.11,.64s-2.25-.22-3.1-.66c-.85-.44-1.49-1.03-1.91-1.75-.43-.73-.63-1.51-.61-2.36h4.53c0,.38,.11,.68,.33,.88,.22,.2,.48,.3,.8,.3,.33,0,.61-.1,.84-.29,.22-.19,.34-.45,.34-.79,0-.58-.42-1.29-1.25-2.13l-4.13-4.03c-.15,.3-.31,.66-.48,1.08l-.5,.9h-4.85l.73-1.4c.6-1.43,1.26-2.64,1.98-3.63l-4.2-4.1h5.53Zm4.43,4.23l3.48,3.33c.43-.27,.76-.58,.98-.93,.22-.35,.33-.71,.33-1.08,0-.53-.22-.98-.65-1.35-.43-.37-1.03-.55-1.78-.55-.88,0-1.67,.19-2.35,.58Z"/><path class="e" d="M177.83,155.12c.49-.88,1.23-1.58,2.23-2.1,.99-.53,2.21-.79,3.64-.79h2.43v-5.95h4.9v17.64h-7.33c-1.42,0-2.62-.25-3.62-.75-.99-.5-1.74-1.19-2.24-2.08-.5-.88-.75-1.9-.75-3.05,0-1.07,.25-2.04,.74-2.91Zm4.27,2.91c0,1.28,.69,1.93,2.08,1.93h1.95v-3.83h-1.95c-1.38,0-2.08,.63-2.08,1.9Z"/><path class="e" d="M170.22,164.79v-18.51h4.9v18.51h-4.9Z"/><path class="e" d="M167.43,157.11c-.53,1.08-1.24,1.92-2.15,2.5-.91,.58-1.92,.88-3.04,.88-.97,0-1.8-.19-2.5-.58-.7-.38-1.24-.9-1.63-1.55v1.95h-4.9v-14.03h4.9v1.95c.38-.65,.93-1.17,1.64-1.55,.71-.38,1.54-.58,2.49-.58,1.12,0,2.13,.29,3.04,.88,.91,.58,1.63,1.42,2.15,2.51,.53,1.09,.79,2.36,.79,3.82,0,1.45-.26,2.72-.79,3.8Zm-8.58-1.68c.49,.52,1.1,.78,1.81,.78s1.34-.25,1.83-.76c.48-.51,.73-1.22,.73-2.14s-.24-1.61-.73-2.14c-.48-.53-1.09-.79-1.83-.79s-1.32,.26-1.81,.78c-.49,.52-.74,1.23-.74,2.15s.25,1.61,.74,2.13Z"/><path class="e" d="M135.29,160.32l8.91-20.71h5.33l-3.35,7.28,5.75,13.43h-5.45l-2.95-7.96-2.85,7.96h-5.38Z"/><circle class="d" cx="173.85" cy="190.13" r="3.49"/><path class="f" d="M15.72,179.1c-3.89,0-7.79-1.37-10.92-4.16-1.61-1.44-3.23-3.02-4.8-4.72l.78-.72c1.55,1.67,3.14,3.23,4.73,4.65,6.32,5.63,16.05,5.07,21.69-1.25,2.73-3.06,4.1-7,3.87-11.1-.24-4.1-2.05-7.85-5.11-10.59-16.24-14.48-17.68-39.47-3.2-55.71,14.48-16.24,39.47-17.68,55.71-3.2,3.06,2.73,7.01,4.11,11.1,3.87,4.1-.24,7.85-2.05,10.58-5.11,5.63-6.32,5.08-16.05-1.25-21.69C70.59,44.14,26.57,46.24,.78,74.05l-.78-.72c12.72-13.71,30.05-21.77,48.79-22.67,18.78-.9,36.82,5.46,50.81,17.93,3.27,2.92,5.22,6.94,5.47,11.32,.25,4.38-1.22,8.59-4.14,11.87-2.92,3.27-6.94,5.22-11.32,5.47-4.36,.25-8.59-1.22-11.87-4.14-15.81-14.09-40.13-12.69-54.21,3.11-14.09,15.81-12.69,40.13,3.12,54.21,3.27,2.92,5.22,6.94,5.47,11.32,.25,4.38-1.22,8.59-4.14,11.87-3.24,3.63-7.74,5.49-12.27,5.49Z"/><polygon class="f" points="310.06 367.41 297.38 354.73 297.38 367.03 296.32 367.03 296.32 352.17 310.81 366.66 310.06 367.41"/><path class="f" d="M274.48,367.03h-1.06v-29.24h-45.27c-3.2,0-6.21-1.25-8.47-3.51-2.26-2.26-3.51-5.27-3.51-8.47,0-6.6,5.38-11.98,11.98-11.98h28.32l-20.02-20.03c-2.26-2.26-3.5-5.27-3.5-8.47s1.24-6.21,3.5-8.47c4.67-4.67,12.27-4.67,16.94,0l20.03,20.03v-28.33c0-3.2,1.25-6.21,3.51-8.47,2.26-2.26,5.27-3.51,8.47-3.51,6.61,0,11.98,5.37,11.98,11.98v28.33l20.03-20.03c2.26-2.26,5.27-3.51,8.47-3.51s6.21,1.25,8.47,3.51c2.26,2.26,3.51,5.27,3.51,8.47s-1.25,6.21-3.51,8.47l-20.02,20.03h25.88v1.06h-28.45l21.84-21.84c2.06-2.06,3.2-4.81,3.2-7.72s-1.14-5.66-3.2-7.72c-2.06-2.06-4.81-3.2-7.72-3.2s-5.66,1.14-7.72,3.2l-21.84,21.84v-30.89c0-6.02-4.9-10.92-10.92-10.92-2.92,0-5.66,1.14-7.72,3.2-2.06,2.06-3.2,4.8-3.2,7.72v30.89l-21.84-21.84c-2.06-2.06-4.81-3.2-7.72-3.2s-5.66,1.14-7.72,3.2c-2.06,2.06-3.19,4.8-3.19,7.72s1.13,5.66,3.19,7.72l21.84,21.84h-30.88c-6.02,0-10.92,4.9-10.92,10.92,0,2.92,1.14,5.66,3.2,7.72,2.06,2.06,4.8,3.2,7.72,3.2h46.33v30.3Z"/><path class="f" d="M337.82,367.07l-1.06-.07v-.13c.02-.19,.03-.38,.03-.58,0-2.92-1.14-5.66-3.2-7.72l-21.84-21.84h28.45v1.06h-25.88l20.02,20.03c2.26,2.26,3.51,5.27,3.51,8.47,0,.22-.01,.43-.03,.65v.13Z"/><path class="f" d="M319.72,155.39c-6.75,0-11.66-2.55-14.87-5.04-4.27-3.34-9.37-9.62-9.37-20.61,0-5.54,1.22-10.91,2.41-16.1,.49-2.17,1.21-5.3,1.56-7.76-2.29,.93-5.15,2.38-7.11,3.38-4.78,2.43-9.7,4.92-15.07,6.26-10.67,2.66-18-.75-22.27-4.09-4.27-3.34-9.37-9.62-9.37-20.61,0-5.54,1.23-10.92,2.41-16.12,.5-2.17,1.21-5.3,1.55-7.75-2.29,.93-5.16,2.38-7.13,3.38-4.77,2.42-9.68,4.91-15.06,6.26-10.66,2.66-17.99-.75-22.27-4.09-4.27-3.34-9.37-9.62-9.37-20.61,0-5.55,1.23-10.92,2.41-16.12,.49-2.15,1.21-5.29,1.55-7.75-2.29,.93-5.16,2.38-7.13,3.38-4.77,2.42-9.69,4.92-15.07,6.26-10.66,2.67-17.99-.75-22.27-4.09-4.27-3.34-9.37-9.62-9.37-20.61,0-4.53,.82-8.9,1.7-12.96l1.04,.23c-.87,4-1.68,8.3-1.68,12.73,0,10.56,4.88,16.58,8.96,19.77,4.09,3.19,11.11,6.45,21.36,3.9,5.26-1.32,10.12-3.78,14.83-6.17,2.25-1.14,5.63-2.86,8.08-3.76l.8-.3-.09,.85c-.28,2.61-1.13,6.3-1.69,8.75-1.17,5.14-2.39,10.45-2.39,15.88,0,10.56,4.88,16.58,8.96,19.77s11.11,6.45,21.36,3.9c5.26-1.31,10.12-3.78,14.83-6.17,2.25-1.14,5.63-2.85,8.08-3.76l.8-.3-.09,.85c-.28,2.59-1.12,6.28-1.68,8.73-1.18,5.16-2.39,10.48-2.39,15.9,0,10.56,4.88,16.58,8.96,19.77,4.09,3.19,11.11,6.46,21.36,3.89,5.26-1.31,10.12-3.78,14.83-6.17,2.26-1.14,5.63-2.86,8.07-3.76l.8-.3-.09,.85c-.28,2.61-1.13,6.3-1.69,8.75-1.17,5.15-2.39,10.46-2.39,15.88,0,10.56,4.88,16.58,8.96,19.77,4.09,3.19,11.11,6.45,21.36,3.9,4.27-1.07,8.21-2.87,11.83-4.66l.47,.95c-3.67,1.82-7.67,3.65-12.04,4.74-2.68,.67-5.14,.95-7.4,.95Z"/><path class="f" d="M321.51,129.02l.09-.85c.28-2.59,1.12-6.28,1.68-8.72,1.18-5.17,2.39-10.48,2.39-15.91,0-10.56-4.88-16.58-8.96-19.77-4.09-3.19-11.11-6.46-21.36-3.9-5.26,1.32-10.12,3.78-14.82,6.17-2.24,1.14-5.62,2.85-8.08,3.76l-.8,.3,.09-.85c.28-2.61,1.13-6.3,1.69-8.75,1.17-5.14,2.39-10.45,2.39-15.88,0-10.56-4.88-16.58-8.96-19.77-4.09-3.19-11.1-6.45-21.36-3.9-5.26,1.31-10.12,3.78-14.82,6.16-2.24,1.14-5.63,2.86-8.08,3.76l-.8,.3,.09-.85c.28-2.59,1.12-6.28,1.68-8.73,1.18-5.16,2.39-10.47,2.39-15.9,0-10.56-4.88-16.58-8.96-19.77-4.09-3.19-11.11-6.45-21.36-3.9-5.27,1.32-10.13,3.78-14.83,6.17-2.25,1.14-5.63,2.85-8.08,3.76l-.8,.3,.09-.85c.28-2.61,1.13-6.3,1.69-8.75,.2-.87,.4-1.76,.59-2.64l1.04,.23c-.2,.89-.4,1.77-.6,2.64-.49,2.16-1.21,5.3-1.55,7.75,2.29-.93,5.16-2.38,7.14-3.39,4.76-2.42,9.67-4.91,15.06-6.25,10.66-2.66,18,.75,22.27,4.09,4.27,3.34,9.37,9.62,9.37,20.61,0,5.55-1.23,10.92-2.41,16.12-.5,2.17-1.21,5.3-1.55,7.75,2.3-.93,5.17-2.39,7.14-3.39,4.76-2.41,9.67-4.91,15.05-6.25,10.66-2.66,17.99,.75,22.27,4.09,4.27,3.34,9.37,9.62,9.37,20.61,0,5.55-1.23,10.92-2.41,16.12-.49,2.15-1.21,5.29-1.55,7.75,2.3-.93,5.17-2.39,7.14-3.39,4.75-2.41,9.67-4.91,15.05-6.25,10.66-2.66,18,.75,22.27,4.09,4.27,3.34,9.37,9.62,9.37,20.61,0,5.54-1.23,10.92-2.41,16.11-.5,2.18-1.21,5.31-1.55,7.75,2.3-.93,5.17-2.39,7.14-3.39,2.68-1.36,5.72-2.9,8.82-4.17l.4,.98c-3.06,1.25-6.08,2.78-8.74,4.13-2.24,1.14-5.62,2.85-8.08,3.76l-.8,.3Z"/><path class="f" d="M27.26,367.41c-2.32-7.5-5.86-16.02-8.98-23.53-2.97-7.15-6.05-14.54-8.03-20.74-.66-2.08-1.19-3.97-1.55-5.62l-.26-1.19,1.05,.62c1.45,.85,3.09,1.94,4.87,3.21,5.28,3.8,11.36,9.01,17.24,14.04,7.81,6.69,15.89,13.61,23.24,18.27,4.61,2.92,8.67,4.77,12.41,5.68,7.55,1.82,12.79-.45,15.86-2.68,3.07-2.23,6.85-6.51,7.45-14.26,.3-3.84-.22-8.27-1.57-13.56-2.15-8.42-6.24-18.25-10.19-27.75-2.98-7.15-6.05-14.54-8.03-20.74-.66-2.08-1.19-3.97-1.55-5.62l-.26-1.19,1.05,.62c1.45,.85,3.09,1.93,4.87,3.21,5.29,3.8,11.37,9.01,17.24,14.04,7.82,6.7,15.9,13.62,23.24,18.27,4.61,2.92,8.67,4.77,12.41,5.68,7.55,1.82,12.79-.45,15.86-2.68,2.33-1.69,3.86-4.19,4.31-7.03,.45-2.84-.23-5.69-1.92-8.01-3.06-4.21-8.67-5.63-13.35-3.39l-.19,.09-.2-.07c-1.17-.39-3.89-1.57-8.9-5.17-5.27-3.79-11.35-9-17.23-14.03-7.83-6.71-15.92-13.64-23.26-18.28-4.61-2.92-8.67-4.77-12.41-5.68-7.55-1.82-12.79,.45-15.86,2.68-3.07,2.23-6.85,6.51-7.45,14.26-.3,3.84,.22,8.27,1.57,13.56,2.15,8.41,6.23,18.23,10.18,27.72,2.99,7.18,6.06,14.57,8.04,20.77,.66,2.08,1.19,3.97,1.55,5.62l.26,1.19-1.05-.62c-1.45-.85-3.09-1.93-4.87-3.21-5.29-3.8-11.36-9.01-17.24-14.04-7.82-6.7-15.9-13.62-23.24-18.27-4.61-2.92-8.67-4.77-12.41-5.68-3.43-.83-6.69-.88-9.7-.16l-.25-1.03c3.17-.76,6.6-.71,10.19,.16,3.86,.93,8.02,2.83,12.73,5.81,7.41,4.69,15.52,11.64,23.37,18.36,5.86,5.02,11.92,10.21,17.17,13.99,1.32,.95,2.57,1.79,3.71,2.5-.33-1.31-.74-2.75-1.24-4.3-1.97-6.15-5.03-13.53-8-20.65-3.98-9.56-8.07-19.41-10.24-27.89-1.38-5.4-1.9-9.95-1.6-13.9,.63-8.15,4.63-12.68,7.88-15.03,3.25-2.36,8.79-4.77,16.73-2.85,3.86,.93,8.02,2.83,12.73,5.81,7.41,4.69,15.52,11.64,23.36,18.36,5.88,5.03,11.94,10.22,17.17,13.99,4.63,3.33,7.21,4.53,8.42,4.96,5.1-2.33,11.15-.74,14.47,3.82,1.86,2.56,2.61,5.68,2.11,8.8-.49,3.12-2.17,5.86-4.73,7.72-3.25,2.36-8.79,4.77-16.73,2.85-3.86-.93-8.02-2.83-12.73-5.81-7.41-4.68-15.51-11.63-23.36-18.35-5.87-5.03-11.93-10.22-17.18-14-1.32-.95-2.56-1.79-3.71-2.5,.33,1.31,.74,2.75,1.24,4.3,1.97,6.15,5.03,13.52,8,20.65,3.97,9.54,8.07,19.4,10.24,27.89,1.38,5.4,1.9,9.95,1.6,13.9-.63,8.15-4.63,12.67-7.88,15.03-3.25,2.36-8.79,4.78-16.73,2.85-3.86-.93-8.02-2.83-12.73-5.81-7.42-4.69-15.52-11.64-23.36-18.36-5.86-5.02-11.93-10.22-17.17-13.99-1.32-.95-2.56-1.79-3.71-2.5,.33,1.31,.74,2.75,1.24,4.3,1.97,6.16,5.03,13.53,8,20.66,3.13,7.53,6.69,16.07,9.02,23.62l-1.01,.31Z"/></g></g></svg>