<?xml version="1.0" encoding="UTF-8"?><svg xmlns="http://www.w3.org/2000/svg" viewBox="0 0 333.38 429.61"><defs><style>.ak{fill:none;stroke:#231f20;stroke-miterlimit:10;stroke-width:.34px;}.al{fill:#010101;}.am{fill-rule:evenodd;}</style></defs><g id="a"/><g id="b"><g id="c"><path class="al" d="M43.74,374.48c-.48-.43-.72-.98-.72-1.63s.24-1.23,.72-1.67c.48-.44,1.12-.66,1.91-.66s1.41,.22,1.89,.66c.48,.44,.72,1,.72,1.67s-.24,1.2-.72,1.63c-.48,.43-1.11,.65-1.89,.65s-1.43-.22-1.91-.65Zm4.13,1.84v12.82h-4.48v-12.82h4.48Z"/><path class="al" d="M62.33,377.68c.87,.98,1.3,2.31,1.3,3.99v7.47h-4.48v-6.88c0-.73-.19-1.31-.57-1.73-.38-.42-.89-.63-1.53-.63-.67,0-1.2,.21-1.58,.63-.38,.42-.57,.99-.57,1.73v6.88h-4.48v-12.82h4.48v1.83c.4-.58,.93-1.05,1.6-1.41,.67-.36,1.44-.54,2.31-.54,1.48,0,2.65,.49,3.52,1.47Z"/><path class="al" d="M73.67,385.32v3.82h-1.94c-3.28,0-4.91-1.62-4.91-4.87v-4.23h-1.58v-3.73h1.58v-3.11h4.5v3.11h2.33v3.73h-2.33v4.3c0,.35,.08,.6,.24,.75,.16,.15,.43,.23,.81,.23h1.3Z"/><path class="al" d="M87.9,383.63h-8.48c.05,.7,.24,1.22,.58,1.57s.78,.51,1.31,.51c.75,0,1.28-.33,1.6-1h4.78c-.2,.88-.58,1.67-1.15,2.37s-1.29,1.24-2.16,1.63c-.87,.4-1.83,.59-2.88,.59-1.27,0-2.39-.27-3.37-.8-.98-.53-1.75-1.29-2.31-2.29-.56-.99-.83-2.16-.83-3.5s.27-2.5,.82-3.49c.55-.98,1.31-1.74,2.3-2.27,.98-.53,2.11-.8,3.39-.8s2.38,.26,3.36,.78c.97,.52,1.74,1.26,2.29,2.23,.55,.97,.82,2.11,.82,3.42,0,.35-.02,.7-.07,1.05Zm-4.5-2.17c0-.55-.18-.98-.55-1.29s-.82-.47-1.37-.47-1,.15-1.35,.45c-.35,.3-.58,.74-.69,1.31h3.95Z"/><path class="al" d="M89.89,379.24c.55-.99,1.31-1.75,2.3-2.29,.98-.53,2.11-.8,3.37-.8,1.63,0,3,.45,4.11,1.34,1.11,.89,1.83,2.14,2.15,3.74h-4.75c-.27-.84-.81-1.26-1.6-1.26-.56,0-1.01,.23-1.34,.7s-.49,1.15-.49,2.04,.16,1.58,.49,2.06,.77,.71,1.34,.71c.81,0,1.34-.42,1.6-1.26h4.75c-.32,1.58-1.04,2.83-2.15,3.73-1.11,.9-2.48,1.35-4.11,1.35-1.27,0-2.39-.27-3.37-.8-.98-.53-1.75-1.29-2.3-2.29-.55-.99-.82-2.16-.82-3.5s.27-2.48,.82-3.47Z"/><path class="al" d="M115.59,377.68c.86,.98,1.29,2.31,1.29,3.99v7.47h-4.48v-6.88c0-.73-.19-1.31-.57-1.73-.38-.42-.89-.63-1.53-.63-.67,0-1.2,.21-1.58,.63-.38,.42-.57,.99-.57,1.73v6.88h-4.48v-16.91h4.48v5.92c.4-.58,.93-1.05,1.61-1.41,.68-.36,1.46-.54,2.34-.54,1.46,0,2.62,.49,3.49,1.47Z"/><path class="al" d="M45.71,407.13c-.76-.33-1.36-.78-1.81-1.37-.44-.59-.69-1.26-.73-2.02h2.15c.06,.62,.35,1.13,.88,1.53s1.21,.59,2.07,.59c.79,0,1.42-.18,1.87-.53,.46-.35,.69-.79,.69-1.33s-.24-.96-.73-1.22c-.49-.27-1.24-.53-2.26-.79-.93-.24-1.69-.49-2.27-.74-.59-.25-1.09-.62-1.51-1.12-.42-.5-.63-1.15-.63-1.95,0-.64,.19-1.23,.57-1.76s.92-.96,1.62-1.27,1.5-.47,2.4-.47c1.39,0,2.51,.35,3.36,1.05,.85,.7,1.31,1.66,1.37,2.88h-2.08c-.05-.65-.31-1.18-.79-1.58-.48-.4-1.12-.59-1.93-.59-.75,0-1.34,.16-1.78,.48-.44,.32-.66,.74-.66,1.26,0,.41,.13,.75,.4,1.02,.27,.27,.6,.48,1.01,.64,.4,.16,.96,.34,1.68,.54,.9,.24,1.63,.48,2.19,.72,.56,.24,1.05,.59,1.45,1.06,.4,.47,.61,1.09,.63,1.85,0,.69-.19,1.3-.57,1.85-.38,.55-.92,.98-1.61,1.29-.69,.31-1.49,.47-2.39,.47-.96,0-1.82-.16-2.58-.49Z"/><path class="al" d="M58.33,396.61v7.38c0,.61,.13,1.04,.39,1.29,.26,.25,.71,.38,1.35,.38h1.53v1.76h-1.87c-1.16,0-2.03-.27-2.61-.8s-.87-1.41-.87-2.63v-7.38h-1.62v-1.71h1.62v-3.15h2.08v3.15h3.27v1.71h-3.27Z"/><path class="al" d="M75.22,394.9v12.52h-2.08v-1.85c-.4,.64-.95,1.14-1.66,1.5-.71,.36-1.49,.54-2.34,.54-.98,0-1.85-.2-2.63-.61-.78-.4-1.39-1.01-1.84-1.82-.45-.81-.67-1.79-.67-2.95v-7.34h2.06v7.06c0,1.23,.31,2.18,.94,2.85,.62,.66,1.48,.99,2.56,.99s1.99-.34,2.63-1.03c.64-.69,.96-1.68,.96-2.99v-6.88h2.08Z"/><path class="al" d="M78.74,397.74c.52-.97,1.23-1.72,2.14-2.25,.91-.53,1.92-.8,3.05-.8,.97,0,1.88,.22,2.72,.67,.84,.45,1.48,1.04,1.92,1.77v-6.63h2.1v16.91h-2.1v-2.35c-.41,.75-1.02,1.36-1.83,1.84-.81,.48-1.75,.72-2.83,.72s-2.12-.27-3.03-.82c-.91-.55-1.62-1.32-2.14-2.31-.52-.99-.78-2.12-.78-3.38s.26-2.4,.78-3.37Zm9.26,.93c-.38-.7-.9-1.24-1.54-1.61-.65-.37-1.36-.56-2.14-.56s-1.49,.18-2.13,.55c-.64,.37-1.15,.9-1.53,1.6s-.57,1.52-.57,2.47,.19,1.79,.57,2.5c.38,.71,.89,1.25,1.53,1.62,.64,.37,1.35,.56,2.13,.56s1.49-.19,2.14-.56c.65-.37,1.16-.91,1.54-1.62,.38-.71,.57-1.54,.57-2.48s-.19-1.77-.57-2.47Z"/><path class="al" d="M94.26,392.45c-.27-.27-.41-.61-.41-1s.14-.73,.41-1.01c.27-.27,.61-.41,1.01-.41s.7,.14,.97,.41c.27,.27,.4,.61,.4,1.01s-.13,.73-.4,1c-.27,.27-.59,.41-.97,.41s-.73-.14-1.01-.41Zm2.01,2.45v12.52h-2.08v-12.52h2.08Z"/><path class="al" d="M102.09,406.83c-.95-.53-1.7-1.29-2.24-2.27-.54-.98-.81-2.12-.81-3.42s.28-2.41,.83-3.39c.56-.98,1.31-1.74,2.27-2.26,.96-.53,2.03-.79,3.22-.79s2.26,.26,3.22,.79c.96,.53,1.72,1.28,2.27,2.25,.56,.97,.83,2.11,.83,3.41s-.29,2.43-.86,3.42c-.57,.98-1.34,1.74-2.32,2.27-.98,.53-2.06,.8-3.25,.8s-2.24-.27-3.19-.8Zm5.29-1.55c.65-.35,1.18-.88,1.59-1.58,.4-.7,.61-1.55,.61-2.56s-.2-1.86-.59-2.56c-.4-.7-.91-1.22-1.55-1.57-.64-.34-1.33-.51-2.08-.51s-1.46,.17-2.09,.51c-.63,.34-1.14,.87-1.52,1.57-.38,.7-.57,1.55-.57,2.56s.19,1.88,.56,2.58c.37,.7,.87,1.22,1.5,1.57,.62,.34,1.31,.51,2.06,.51s1.45-.17,2.1-.53Z"/><path class="al" d="M33.31,370.78H3.26c-1.8,0-3.26,1.46-3.26,3.26v30.04c0,1.8,1.46,3.26,3.26,3.26h30.04c1.8,0,3.26-1.46,3.26-3.26v-30.04c0-1.8-1.46-3.26-3.26-3.26Zm1.08,15.62l-4.02,6c-.35,.53-1,.76-1.61,.58-.61-.18-1.02-.73-1.03-1.37l-.03-2.48-2.72,3.45c-.38,.48-1.02,.67-1.6,.47-.51-.18-.87-.62-.95-1.15l-2.57,6.41c-.22,.55-.76,.91-1.34,.91-.09,0-.18,0-.27-.03-.68-.13-1.17-.72-1.17-1.41v-12.5l-2.55,6.37c-.26,.64-.93,1.01-1.61,.88-.68-.13-1.17-.72-1.17-1.41v-1.98l-2.76,3.45c-.38,.48-1.02,.66-1.6,.46-.58-.2-.96-.75-.96-1.36v-2.03l-2.27,3.39c-.37,.55-1.11,.7-1.66,.33-.55-.37-.7-1.11-.33-1.66l4.01-5.99c.36-.53,1-.76,1.62-.58,.61,.19,1.02,.74,1.02,1.38v2.45l2.76-3.45c.38-.48,1.02-.66,1.6-.46,.51,.18,.87,.63,.95,1.15l2.56-6.41c.26-.64,.93-1.01,1.61-.88,.68,.13,1.17,.72,1.17,1.41v12.5l2.55-6.37c.26-.64,.93-1.01,1.61-.88,.68,.13,1.17,.72,1.17,1.41v1.95l2.7-3.41c.38-.48,1.02-.67,1.6-.47,.58,.2,.97,.74,.97,1.35l.02,2.1,2.31-3.45c.37-.55,1.11-.7,1.66-.33,.55,.37,.7,1.11,.33,1.66Z"/><path d="M320.34,365.26c-1.14-.61-2.06-1.57-2.78-2.9-.71-1.33-1.07-3.04-1.07-5.12v-4.57h-10.24v-4.14h25.23v8.71c0,1.94-.33,3.58-1,4.92-.67,1.34-1.57,2.35-2.7,3.01-1.14,.67-2.41,1-3.81,1-1.28,0-2.49-.3-3.63-.91Zm.6-4.5c.71,.77,1.72,1.16,3.03,1.16,2.76,0,4.14-1.56,4.14-4.68v-4.57h-8.24v4.57c0,1.57,.36,2.75,1.07,3.52Z"/><path d="M307.66,375.15c1.1-1.97,2.64-3.53,4.61-4.68,1.97-1.15,4.19-1.72,6.66-1.72s4.68,.57,6.64,1.72c1.96,1.15,3.49,2.71,4.59,4.68,1.1,1.97,1.65,4.13,1.65,6.48s-.55,4.54-1.65,6.52c-1.1,1.97-2.63,3.53-4.59,4.66-1.96,1.14-4.17,1.71-6.64,1.71-2.47,0-4.69-.57-6.66-1.71-1.97-1.14-3.51-2.69-4.61-4.66-1.1-1.97-1.65-4.14-1.65-6.52s.55-4.51,1.65-6.48Zm3.09,10.94c.76,1.31,1.85,2.33,3.27,3.07,1.42,.74,3.06,1.11,4.92,1.11,1.86,0,3.5-.37,4.9-1.11,1.4-.74,2.48-1.76,3.23-3.07,.75-1.31,1.13-2.79,1.13-4.46s-.38-3.16-1.13-4.46c-.75-1.31-1.83-2.33-3.23-3.07-1.4-.74-3.04-1.11-4.9-1.11s-3.5,.37-4.92,1.11c-1.42,.74-2.5,1.76-3.27,3.07-.76,1.31-1.14,2.79-1.14,4.46s.38,3.16,1.14,4.46Z"/><path d="M328.95,397.49h3.78v7.55h-26.46v-4.17h22.69v-3.38Z"/><path d="M329.09,423.51c.56-.7,.84-1.68,.84-2.94,0-1.91-.73-3.34-2.2-4.28-1.46-.94-3.89-1.44-7.28-1.49,1.06,.63,1.89,1.55,2.47,2.76,.58,1.21,.87,2.52,.87,3.92,0,1.6-.34,3.01-1.03,4.23-.69,1.22-1.69,2.18-2.99,2.87-1.31,.69-2.87,1.03-4.68,1.03-1.69,0-3.21-.33-4.54-1-1.33-.67-2.38-1.65-3.14-2.96-.76-1.31-1.14-2.88-1.14-4.72,0-2.49,.55-4.45,1.65-5.86,1.1-1.42,2.66-2.41,4.66-2.98,2.01-.57,4.51-.85,7.51-.85,8.86,0,13.28,3.12,13.28,9.36,0,2.42-.65,4.32-1.96,5.72-1.31,1.39-2.92,2.21-4.83,2.45v-3.81c1.11-.27,1.95-.75,2.5-1.45Zm-10.11-6.7c-.88-1.03-2.16-1.54-3.83-1.54s-2.99,.48-3.97,1.43c-.98,.96-1.47,2.29-1.47,4.01,0,1.52,.47,2.73,1.42,3.61,.94,.88,2.2,1.32,3.78,1.32,1.65,0,2.96-.43,3.94-1.29,.98-.86,1.47-2.12,1.47-3.79,0-1.48-.44-2.73-1.33-3.76Z"/><g><path id="d" d="M22.29,0c-5.1,0-9.1,4.6-9.1,10V294.6c0,5.5,4,10,9.1,10H308.69c5.1,0,9.1-4.6,9.1-10V10c0-5.5-4-10-9.1-10H22.29Zm0,2.8H308.69c3.4,0,6.3,3.1,6.3,7.2V294.6c0,4.1-2.9,7.2-6.3,7.2H22.29c-3.4,0-6.3-3.1-6.3-7.2V10c-.1-4,2.8-7.2,6.3-7.2Z"/><path id="e" class="am" d="M47.79,12c0,2.3,1.9,4.3,4.3,4.3s4.3-1.9,4.3-4.3-1.9-4.3-4.3-4.3-4.3,2-4.3,4.3"/><path id="f" class="am" d="M47.79,87.6c0,2.3,1.9,4.3,4.3,4.3s4.3-1.9,4.3-4.3-1.9-4.3-4.3-4.3-4.3,2-4.3,4.3"/><path id="g" class="am" d="M123.39,12c0,2.3,1.9,4.3,4.3,4.3s4.3-1.9,4.3-4.3-1.9-4.3-4.3-4.3-4.3,2-4.3,4.3"/><path id="h" class="am" d="M198.99,87.6c0,2.3,1.9,4.3,4.3,4.3s4.3-1.9,4.3-4.3-1.9-4.3-4.3-4.3-4.3,2-4.3,4.3"/><path id="i" class="am" d="M123.39,87.6c0,2.3,1.9,4.3,4.3,4.3s4.3-1.9,4.3-4.3-1.9-4.3-4.3-4.3-4.3,2-4.3,4.3"/><path id="j" class="am" d="M198.99,12c0,2.3,1.9,4.3,4.3,4.3s4.3-1.9,4.3-4.3-1.9-4.3-4.3-4.3-4.3,2-4.3,4.3"/><path id="k" class="am" d="M47.79,163.2c0,2.3,1.9,4.3,4.3,4.3s4.3-1.9,4.3-4.3-1.9-4.3-4.3-4.3-4.3,2-4.3,4.3"/><path id="l" class="am" d="M123.39,163.2c0,2.3,1.9,4.3,4.3,4.3s4.3-1.9,4.3-4.3-1.9-4.3-4.3-4.3-4.3,2-4.3,4.3"/><path id="m" class="am" d="M198.99,163.2c0,2.3,1.9,4.3,4.3,4.3s4.3-1.9,4.3-4.3-1.9-4.3-4.3-4.3-4.3,2-4.3,4.3"/><path id="n" class="am" d="M123.39,238.8c0,2.3,1.9,4.3,4.3,4.3s4.3-1.9,4.3-4.3-1.9-4.3-4.3-4.3-4.3,2-4.3,4.3"/><path id="o" class="am" d="M47.79,238.8c0,2.3,1.9,4.3,4.3,4.3s4.3-1.9,4.3-4.3-1.9-4.3-4.3-4.3-4.3,2-4.3,4.3"/><path id="p" class="am" d="M198.99,238.8c0,2.3,1.9,4.3,4.3,4.3s4.3-1.9,4.3-4.3-1.9-4.3-4.3-4.3-4.3,2-4.3,4.3"/><path id="q" class="am" d="M274.59,238.8c0,2.3,1.9,4.3,4.3,4.3s4.3-1.9,4.3-4.3-1.9-4.3-4.3-4.3-4.3,2-4.3,4.3"/><path id="r" class="am" d="M274.59,163.2c0,2.3,1.9,4.3,4.3,4.3s4.3-1.9,4.3-4.3-1.9-4.3-4.3-4.3-4.3,2-4.3,4.3"/><path id="s" class="am" d="M274.59,12c0,2.3,1.9,4.3,4.3,4.3s4.3-1.9,4.3-4.3-1.9-4.3-4.3-4.3-4.3,2-4.3,4.3"/><path id="t" class="am" d="M274.59,87.6c0,2.3,1.9,4.3,4.3,4.3s4.3-1.9,4.3-4.3-1.9-4.3-4.3-4.3-4.3,2-4.3,4.3"/><path id="u" class="am" d="M261.89,39c0,9.4,7.6,17,17,17s17-7.6,17-17-7.6-17-17-17-17,7.6-17,17m11.7,4.1l-4.9,5.8c-2.6-2.6-4-6.2-4-9.9,0-6.5,4.4-12.2,10.8-13.8s12.9,1.4,15.9,7.1c3,5.8,1.8,12.8-3.1,17.2-4.9,4.3-12,4.8-17.4,1.1l4.9-5.8c.3-.4,.3-.9-.1-1.2l-.9-.7c-.4-.2-.9-.2-1.2,.2"/><path id="v" class="am" d="M186.29,39c0,9.4,7.6,17,17,17s17-7.6,17-17-7.6-17-17-17-17,7.6-17,17m11.7,4.1l-4.9,5.8c-2.6-2.6-4-6.2-4-9.9,0-6.5,4.4-12.2,10.8-13.8s12.9,1.4,15.9,7.1c3,5.8,1.8,12.8-3.1,17.2-4.9,4.3-12,4.8-17.4,1.1l4.9-5.8c.3-.4,.3-.9-.1-1.2l-.9-.7c-.4-.2-.9-.2-1.2,.2"/><path id="w" class="am" d="M110.69,39c0,9.4,7.6,17,17,17s17-7.6,17-17-7.6-17-17-17-17,7.6-17,17m11.7,4.1l-4.9,5.8c-2.6-2.6-4-6.2-4-9.9,0-6.5,4.4-12.2,10.8-13.8,6.3-1.6,12.9,1.4,15.9,7.1,3,5.8,1.8,12.8-3.1,17.2-4.9,4.3-12,4.8-17.4,1.1l4.9-5.8c.3-.4,.3-.9-.1-1.2l-.9-.7c-.4-.2-.9-.2-1.2,.2"/><path id="x" class="am" d="M35.09,39c0,9.4,7.6,17,17,17s17-7.6,17-17-7.6-17-17-17-17,7.6-17,17m11.7,4.1l-4.9,5.8c-2.6-2.6-4-6.2-4-9.9,0-6.5,4.4-12.2,10.8-13.8,6.3-1.6,12.9,1.4,15.9,7.1,3,5.8,1.8,12.8-3.1,17.2-4.9,4.3-12,4.8-17.4,1.1l4.9-5.8c.3-.4,.3-.9-.1-1.2l-.9-.7c-.4-.2-.9-.2-1.2,.2"/><path id="y" class="am" d="M261.89,114.6c0,9.4,7.6,17,17,17s17-7.6,17-17-7.6-17-17-17-17,7.6-17,17m11.7,4.1l-4.9,5.8c-2.6-2.6-4-6.2-4-9.9,0-6.5,4.4-12.2,10.8-13.8,6.3-1.6,12.9,1.4,15.9,7.1,3,5.8,1.8,12.8-3.1,17.2-4.9,4.3-12,4.8-17.4,1.1l4.9-5.8c.3-.4,.3-.9-.1-1.2l-.9-.7c-.4-.2-.9-.2-1.2,.2"/><path id="a`" class="am" d="M186.29,114.6c0,9.4,7.6,17,17,17s17-7.6,17-17-7.6-17-17-17-17,7.6-17,17m11.7,4.1l-4.9,5.8c-2.6-2.6-4-6.2-4-9.9,0-6.5,4.4-12.2,10.8-13.8,6.3-1.6,12.9,1.4,15.9,7.1,3,5.8,1.8,12.8-3.1,17.2-4.9,4.3-12,4.8-17.4,1.1l4.9-5.8c.3-.4,.3-.9-.1-1.2l-.9-.7c-.4-.2-.9-.2-1.2,.2"/><path id="aa" class="am" d="M110.69,114.6c0,9.4,7.6,17,17,17s17-7.6,17-17-7.6-17-17-17-17,7.6-17,17m11.7,4.1l-4.9,5.8c-2.6-2.6-4-6.2-4-9.9,0-6.5,4.4-12.2,10.8-13.8,6.3-1.6,12.9,1.4,15.9,7.1,3,5.8,1.8,12.8-3.1,17.2-4.9,4.3-12,4.8-17.4,1.1l4.9-5.8c.3-.4,.3-.9-.1-1.2l-.9-.7c-.4-.2-.9-.2-1.2,.2"/><path id="ab" class="am" d="M35.09,114.6c0,9.4,7.6,17,17,17s17-7.6,17-17-7.6-17-17-17-17,7.6-17,17m11.7,4.1l-4.9,5.8c-2.6-2.6-4-6.2-4-9.9,0-6.5,4.4-12.2,10.8-13.8,6.3-1.6,12.9,1.4,15.9,7.1,3,5.8,1.8,12.8-3.1,17.2-4.9,4.3-12,4.8-17.4,1.1l4.9-5.8c.3-.4,.3-.9-.1-1.2l-.9-.7c-.4-.2-.9-.2-1.2,.2"/><path id="ac" class="am" d="M261.89,190.2c0,9.4,7.6,17,17,17s17-7.6,17-17-7.6-17-17-17-17,7.6-17,17m11.7,4.1l-4.9,5.8c-2.6-2.6-4-6.2-4-9.9,0-6.5,4.4-12.2,10.8-13.8,6.3-1.6,12.9,1.4,15.9,7.1,3,5.8,1.8,12.8-3.1,17.2-4.9,4.3-12,4.8-17.4,1.1l4.9-5.8c.3-.4,.3-.9-.1-1.2l-.9-.7c-.4-.2-.9-.2-1.2,.2"/><path id="ad" class="am" d="M186.29,190.2c0,9.4,7.6,17,17,17s17-7.6,17-17-7.6-17-17-17-17,7.6-17,17m11.7,4.1l-4.9,5.8c-2.6-2.6-4-6.2-4-9.9,0-6.5,4.4-12.2,10.8-13.8,6.3-1.6,12.9,1.4,15.9,7.1,3,5.8,1.8,12.8-3.1,17.2-4.9,4.3-12,4.8-17.4,1.1l4.9-5.8c.3-.4,.3-.9-.1-1.2l-.9-.7c-.4-.2-.9-.2-1.2,.2"/><path id="ae" class="am" d="M110.69,190.2c0,9.4,7.6,17,17,17s17-7.6,17-17-7.6-17-17-17-17,7.6-17,17m11.7,4.1l-4.9,5.8c-2.6-2.6-4-6.2-4-9.9,0-6.5,4.4-12.2,10.8-13.8,6.3-1.6,12.9,1.4,15.9,7.1,3,5.8,1.8,12.8-3.1,17.2-4.9,4.3-12,4.8-17.4,1.1l4.9-5.8c.3-.4,.3-.9-.1-1.2l-.9-.7c-.4-.2-.9-.2-1.2,.2"/><path id="af" class="am" d="M35.09,190.2c0,9.4,7.6,17,17,17s17-7.6,17-17-7.6-17-17-17-17,7.6-17,17m11.7,4.1l-4.9,5.8c-2.6-2.6-4-6.2-4-9.9,0-6.5,4.4-12.2,10.8-13.8,6.3-1.6,12.9,1.4,15.9,7.1,3,5.8,1.8,12.8-3.1,17.2-4.9,4.3-12,4.8-17.4,1.1l4.9-5.8c.3-.4,.3-.9-.1-1.2l-.9-.7c-.4-.2-.9-.2-1.2,.2"/><path id="ag" class="am" d="M261.89,265.8c0,9.4,7.6,17,17,17s17-7.6,17-17-7.6-17-17-17-17,7.6-17,17m11.7,4.1l-4.9,5.8c-2.6-2.6-4-6.2-4-9.9,0-6.5,4.4-12.2,10.8-13.8,6.3-1.6,12.9,1.4,15.9,7.1,3,5.8,1.8,12.8-3.1,17.2-4.9,4.3-12,4.8-17.4,1.1l4.9-5.8c.3-.4,.3-.9-.1-1.2l-.9-.7c-.4-.2-.9-.2-1.2,.2"/><path id="ah" class="am" d="M186.29,265.8c0,9.4,7.6,17,17,17s17-7.6,17-17-7.6-17-17-17-17,7.6-17,17m11.7,4.1l-4.9,5.8c-2.6-2.6-4-6.2-4-9.9,0-6.5,4.4-12.2,10.8-13.8,6.3-1.6,12.9,1.4,15.9,7.1,3,5.8,1.8,12.8-3.1,17.2-4.9,4.3-12,4.8-17.4,1.1l4.9-5.8c.3-.4,.3-.9-.1-1.2l-.9-.7c-.4-.2-.9-.2-1.2,.2"/><path id="ai" class="am" d="M110.69,265.8c0,9.4,7.6,17,17,17s17-7.6,17-17-7.6-17-17-17-17,7.6-17,17m11.7,4.1l-4.9,5.8c-2.6-2.6-4-6.2-4-9.9,0-6.5,4.4-12.2,10.8-13.8,6.3-1.6,12.9,1.4,15.9,7.1,3,5.8,1.8,12.8-3.1,17.2-4.9,4.3-12,4.8-17.4,1.1l4.9-5.8c.3-.4,.3-.9-.1-1.2l-.9-.7c-.4-.2-.9-.2-1.2,.2"/><path id="aj" class="am" d="M35.09,265.8c0,9.4,7.6,17,17,17s17-7.6,17-17-7.6-17-17-17-17,7.6-17,17m11.7,4.1l-4.9,5.8c-2.6-2.6-4-6.2-4-9.9,0-6.5,4.4-12.2,10.8-13.8,6.3-1.6,12.9,1.4,15.9,7.1,3,5.8,1.8,12.8-3.1,17.2-4.9,4.3-12,4.8-17.4,1.1l4.9-5.8c.3-.4,.3-.9-.1-1.2l-.9-.7c-.4-.2-.9-.2-1.2,.2"/></g><circle class="ak" cx="165.51" cy="384.74" r="3.49"/><circle class="ak" cx="165.51" cy="152.3" r="3.49"/></g></g></svg>