M48
; DRILL file {KiCad 5.1.5+dfsg1-2build2} date 2020. dec. 10., csütörtök, 17:15:51 CET
; FORMAT={-:-/ absolute / inch / decimal}
; #@! TF.CreationDate,2020-12-10T17:15:51+01:00
; #@! TF.GenerationSoftware,Kicad,Pcbnew,5.1.5+dfsg1-2build2
FMAT,2
INCH
T1C0.0157
T2C0.0197
T3C0.0394
T4C0.0256
%
G90
G05
T1
X2.4028Y-2.2362
X2.4409Y-2.5984
X2.5028Y-2.2362
X2.5394Y-1.752
X2.5394Y-1.8701
X2.5591Y-1.2008
X2.5984Y-2.0472
X2.6028Y-2.2362
X2.6289Y-2.6378
X2.6772Y-1.6339
X2.6969Y-2.5984
X2.7165Y-1.8701
X2.7559Y-1.4961
X2.7559Y-1.5748
X2.7953Y-1.2992
X2.7953Y-2.0472
X2.7953Y-2.5787
X2.815Y-1.5748
X2.8351Y-1.2997
X2.8543Y-2.5787
X2.9528Y-1.437
X2.9528Y-1.9685
X2.9916Y-1.3391
X2.9921Y-1.1599
X2.9921Y-2.5787
X3.0202Y-1.378
X3.0512Y-1.5748
X3.0704Y-1.2997
X3.0906Y-2.5787
X3.1102Y-1.2992
X3.2283Y-1.7323
X3.2677Y-1.437
X3.2677Y-1.6339
X3.3465Y-1.2008
T2
X2.6575Y-1.3386
X2.4409Y-1.3386
T3
X2.4028Y-3.2677
X2.5028Y-3.2677
X2.6028Y-3.2677
X2.7028Y-3.2677
X2.8028Y-3.2677
X2.9028Y-3.2677
X3.0028Y-3.2677
X3.1028Y-3.2677
X3.2028Y-3.2677
X3.3028Y-3.2677
X3.4028Y-3.2677
X3.5028Y-3.2677
T4
X2.839Y-1.1673
X3.0665Y-1.1673
T2
G00X2.7827Y-1.0315
M15
G01X2.7827Y-1.0157
M16
G05
G00X2.7827Y-1.202
M15
G01X2.7827Y-1.1744
M16
G05
G00X3.1228Y-1.0315
M15
G01X3.1228Y-1.0157
M16
G05
G00X3.1228Y-1.202
M15
G01X3.1228Y-1.1744
M16
G05
T0
M30
