G04 #@! TF.GenerationSoftware,KiCad,Pcbnew,5.1.5+dfsg1-2build2*
G04 #@! TF.CreationDate,2020-12-10T17:15:45+01:00*
G04 #@! TF.ProjectId,USBC_INTERFACE_TEST,55534243-5f49-44e5-9445-52464143455f,rev?*
G04 #@! TF.SameCoordinates,Original*
G04 #@! TF.FileFunction,Soldermask,Bot*
G04 #@! TF.FilePolarity,Negative*
%FSLAX46Y46*%
G04 Gerber Fmt 4.6, Leading zero omitted, Abs format (unit mm)*
G04 Created by KiCad (PCBNEW 5.1.5+dfsg1-2build2) date 2020-12-10 17:15:45*
%MOMM*%
%LPD*%
G04 APERTURE LIST*
%ADD10C,0.100000*%
G04 APERTURE END LIST*
D10*
G36*
X84003512Y-82103927D02*
G01*
X84152812Y-82133624D01*
X84316784Y-82201544D01*
X84464354Y-82300147D01*
X84589853Y-82425646D01*
X84688456Y-82573216D01*
X84756376Y-82737188D01*
X84791000Y-82911259D01*
X84791000Y-83088741D01*
X84756376Y-83262812D01*
X84688456Y-83426784D01*
X84589853Y-83574354D01*
X84464354Y-83699853D01*
X84316784Y-83798456D01*
X84152812Y-83866376D01*
X84003512Y-83896073D01*
X83978742Y-83901000D01*
X83801258Y-83901000D01*
X83776488Y-83896073D01*
X83627188Y-83866376D01*
X83463216Y-83798456D01*
X83315646Y-83699853D01*
X83190147Y-83574354D01*
X83091544Y-83426784D01*
X83023624Y-83262812D01*
X82989000Y-83088741D01*
X82989000Y-82911259D01*
X83023624Y-82737188D01*
X83091544Y-82573216D01*
X83190147Y-82425646D01*
X83315646Y-82300147D01*
X83463216Y-82201544D01*
X83627188Y-82133624D01*
X83776488Y-82103927D01*
X83801258Y-82099000D01*
X83978742Y-82099000D01*
X84003512Y-82103927D01*
G37*
G36*
X63683512Y-82103927D02*
G01*
X63832812Y-82133624D01*
X63996784Y-82201544D01*
X64144354Y-82300147D01*
X64269853Y-82425646D01*
X64368456Y-82573216D01*
X64436376Y-82737188D01*
X64471000Y-82911259D01*
X64471000Y-83088741D01*
X64436376Y-83262812D01*
X64368456Y-83426784D01*
X64269853Y-83574354D01*
X64144354Y-83699853D01*
X63996784Y-83798456D01*
X63832812Y-83866376D01*
X63683512Y-83896073D01*
X63658742Y-83901000D01*
X63481258Y-83901000D01*
X63456488Y-83896073D01*
X63307188Y-83866376D01*
X63143216Y-83798456D01*
X62995646Y-83699853D01*
X62870147Y-83574354D01*
X62771544Y-83426784D01*
X62703624Y-83262812D01*
X62669000Y-83088741D01*
X62669000Y-82911259D01*
X62703624Y-82737188D01*
X62771544Y-82573216D01*
X62870147Y-82425646D01*
X62995646Y-82300147D01*
X63143216Y-82201544D01*
X63307188Y-82133624D01*
X63456488Y-82103927D01*
X63481258Y-82099000D01*
X63658742Y-82099000D01*
X63683512Y-82103927D01*
G37*
G36*
X66223512Y-82103927D02*
G01*
X66372812Y-82133624D01*
X66536784Y-82201544D01*
X66684354Y-82300147D01*
X66809853Y-82425646D01*
X66908456Y-82573216D01*
X66976376Y-82737188D01*
X67011000Y-82911259D01*
X67011000Y-83088741D01*
X66976376Y-83262812D01*
X66908456Y-83426784D01*
X66809853Y-83574354D01*
X66684354Y-83699853D01*
X66536784Y-83798456D01*
X66372812Y-83866376D01*
X66223512Y-83896073D01*
X66198742Y-83901000D01*
X66021258Y-83901000D01*
X65996488Y-83896073D01*
X65847188Y-83866376D01*
X65683216Y-83798456D01*
X65535646Y-83699853D01*
X65410147Y-83574354D01*
X65311544Y-83426784D01*
X65243624Y-83262812D01*
X65209000Y-83088741D01*
X65209000Y-82911259D01*
X65243624Y-82737188D01*
X65311544Y-82573216D01*
X65410147Y-82425646D01*
X65535646Y-82300147D01*
X65683216Y-82201544D01*
X65847188Y-82133624D01*
X65996488Y-82103927D01*
X66021258Y-82099000D01*
X66198742Y-82099000D01*
X66223512Y-82103927D01*
G37*
G36*
X68763512Y-82103927D02*
G01*
X68912812Y-82133624D01*
X69076784Y-82201544D01*
X69224354Y-82300147D01*
X69349853Y-82425646D01*
X69448456Y-82573216D01*
X69516376Y-82737188D01*
X69551000Y-82911259D01*
X69551000Y-83088741D01*
X69516376Y-83262812D01*
X69448456Y-83426784D01*
X69349853Y-83574354D01*
X69224354Y-83699853D01*
X69076784Y-83798456D01*
X68912812Y-83866376D01*
X68763512Y-83896073D01*
X68738742Y-83901000D01*
X68561258Y-83901000D01*
X68536488Y-83896073D01*
X68387188Y-83866376D01*
X68223216Y-83798456D01*
X68075646Y-83699853D01*
X67950147Y-83574354D01*
X67851544Y-83426784D01*
X67783624Y-83262812D01*
X67749000Y-83088741D01*
X67749000Y-82911259D01*
X67783624Y-82737188D01*
X67851544Y-82573216D01*
X67950147Y-82425646D01*
X68075646Y-82300147D01*
X68223216Y-82201544D01*
X68387188Y-82133624D01*
X68536488Y-82103927D01*
X68561258Y-82099000D01*
X68738742Y-82099000D01*
X68763512Y-82103927D01*
G37*
G36*
X71303512Y-82103927D02*
G01*
X71452812Y-82133624D01*
X71616784Y-82201544D01*
X71764354Y-82300147D01*
X71889853Y-82425646D01*
X71988456Y-82573216D01*
X72056376Y-82737188D01*
X72091000Y-82911259D01*
X72091000Y-83088741D01*
X72056376Y-83262812D01*
X71988456Y-83426784D01*
X71889853Y-83574354D01*
X71764354Y-83699853D01*
X71616784Y-83798456D01*
X71452812Y-83866376D01*
X71303512Y-83896073D01*
X71278742Y-83901000D01*
X71101258Y-83901000D01*
X71076488Y-83896073D01*
X70927188Y-83866376D01*
X70763216Y-83798456D01*
X70615646Y-83699853D01*
X70490147Y-83574354D01*
X70391544Y-83426784D01*
X70323624Y-83262812D01*
X70289000Y-83088741D01*
X70289000Y-82911259D01*
X70323624Y-82737188D01*
X70391544Y-82573216D01*
X70490147Y-82425646D01*
X70615646Y-82300147D01*
X70763216Y-82201544D01*
X70927188Y-82133624D01*
X71076488Y-82103927D01*
X71101258Y-82099000D01*
X71278742Y-82099000D01*
X71303512Y-82103927D01*
G37*
G36*
X73843512Y-82103927D02*
G01*
X73992812Y-82133624D01*
X74156784Y-82201544D01*
X74304354Y-82300147D01*
X74429853Y-82425646D01*
X74528456Y-82573216D01*
X74596376Y-82737188D01*
X74631000Y-82911259D01*
X74631000Y-83088741D01*
X74596376Y-83262812D01*
X74528456Y-83426784D01*
X74429853Y-83574354D01*
X74304354Y-83699853D01*
X74156784Y-83798456D01*
X73992812Y-83866376D01*
X73843512Y-83896073D01*
X73818742Y-83901000D01*
X73641258Y-83901000D01*
X73616488Y-83896073D01*
X73467188Y-83866376D01*
X73303216Y-83798456D01*
X73155646Y-83699853D01*
X73030147Y-83574354D01*
X72931544Y-83426784D01*
X72863624Y-83262812D01*
X72829000Y-83088741D01*
X72829000Y-82911259D01*
X72863624Y-82737188D01*
X72931544Y-82573216D01*
X73030147Y-82425646D01*
X73155646Y-82300147D01*
X73303216Y-82201544D01*
X73467188Y-82133624D01*
X73616488Y-82103927D01*
X73641258Y-82099000D01*
X73818742Y-82099000D01*
X73843512Y-82103927D01*
G37*
G36*
X76383512Y-82103927D02*
G01*
X76532812Y-82133624D01*
X76696784Y-82201544D01*
X76844354Y-82300147D01*
X76969853Y-82425646D01*
X77068456Y-82573216D01*
X77136376Y-82737188D01*
X77171000Y-82911259D01*
X77171000Y-83088741D01*
X77136376Y-83262812D01*
X77068456Y-83426784D01*
X76969853Y-83574354D01*
X76844354Y-83699853D01*
X76696784Y-83798456D01*
X76532812Y-83866376D01*
X76383512Y-83896073D01*
X76358742Y-83901000D01*
X76181258Y-83901000D01*
X76156488Y-83896073D01*
X76007188Y-83866376D01*
X75843216Y-83798456D01*
X75695646Y-83699853D01*
X75570147Y-83574354D01*
X75471544Y-83426784D01*
X75403624Y-83262812D01*
X75369000Y-83088741D01*
X75369000Y-82911259D01*
X75403624Y-82737188D01*
X75471544Y-82573216D01*
X75570147Y-82425646D01*
X75695646Y-82300147D01*
X75843216Y-82201544D01*
X76007188Y-82133624D01*
X76156488Y-82103927D01*
X76181258Y-82099000D01*
X76358742Y-82099000D01*
X76383512Y-82103927D01*
G37*
G36*
X78923512Y-82103927D02*
G01*
X79072812Y-82133624D01*
X79236784Y-82201544D01*
X79384354Y-82300147D01*
X79509853Y-82425646D01*
X79608456Y-82573216D01*
X79676376Y-82737188D01*
X79711000Y-82911259D01*
X79711000Y-83088741D01*
X79676376Y-83262812D01*
X79608456Y-83426784D01*
X79509853Y-83574354D01*
X79384354Y-83699853D01*
X79236784Y-83798456D01*
X79072812Y-83866376D01*
X78923512Y-83896073D01*
X78898742Y-83901000D01*
X78721258Y-83901000D01*
X78696488Y-83896073D01*
X78547188Y-83866376D01*
X78383216Y-83798456D01*
X78235646Y-83699853D01*
X78110147Y-83574354D01*
X78011544Y-83426784D01*
X77943624Y-83262812D01*
X77909000Y-83088741D01*
X77909000Y-82911259D01*
X77943624Y-82737188D01*
X78011544Y-82573216D01*
X78110147Y-82425646D01*
X78235646Y-82300147D01*
X78383216Y-82201544D01*
X78547188Y-82133624D01*
X78696488Y-82103927D01*
X78721258Y-82099000D01*
X78898742Y-82099000D01*
X78923512Y-82103927D01*
G37*
G36*
X81463512Y-82103927D02*
G01*
X81612812Y-82133624D01*
X81776784Y-82201544D01*
X81924354Y-82300147D01*
X82049853Y-82425646D01*
X82148456Y-82573216D01*
X82216376Y-82737188D01*
X82251000Y-82911259D01*
X82251000Y-83088741D01*
X82216376Y-83262812D01*
X82148456Y-83426784D01*
X82049853Y-83574354D01*
X81924354Y-83699853D01*
X81776784Y-83798456D01*
X81612812Y-83866376D01*
X81463512Y-83896073D01*
X81438742Y-83901000D01*
X81261258Y-83901000D01*
X81236488Y-83896073D01*
X81087188Y-83866376D01*
X80923216Y-83798456D01*
X80775646Y-83699853D01*
X80650147Y-83574354D01*
X80551544Y-83426784D01*
X80483624Y-83262812D01*
X80449000Y-83088741D01*
X80449000Y-82911259D01*
X80483624Y-82737188D01*
X80551544Y-82573216D01*
X80650147Y-82425646D01*
X80775646Y-82300147D01*
X80923216Y-82201544D01*
X81087188Y-82133624D01*
X81236488Y-82103927D01*
X81261258Y-82099000D01*
X81438742Y-82099000D01*
X81463512Y-82103927D01*
G37*
G36*
X89083512Y-82103927D02*
G01*
X89232812Y-82133624D01*
X89396784Y-82201544D01*
X89544354Y-82300147D01*
X89669853Y-82425646D01*
X89768456Y-82573216D01*
X89836376Y-82737188D01*
X89871000Y-82911259D01*
X89871000Y-83088741D01*
X89836376Y-83262812D01*
X89768456Y-83426784D01*
X89669853Y-83574354D01*
X89544354Y-83699853D01*
X89396784Y-83798456D01*
X89232812Y-83866376D01*
X89083512Y-83896073D01*
X89058742Y-83901000D01*
X88881258Y-83901000D01*
X88856488Y-83896073D01*
X88707188Y-83866376D01*
X88543216Y-83798456D01*
X88395646Y-83699853D01*
X88270147Y-83574354D01*
X88171544Y-83426784D01*
X88103624Y-83262812D01*
X88069000Y-83088741D01*
X88069000Y-82911259D01*
X88103624Y-82737188D01*
X88171544Y-82573216D01*
X88270147Y-82425646D01*
X88395646Y-82300147D01*
X88543216Y-82201544D01*
X88707188Y-82133624D01*
X88856488Y-82103927D01*
X88881258Y-82099000D01*
X89058742Y-82099000D01*
X89083512Y-82103927D01*
G37*
G36*
X86543512Y-82103927D02*
G01*
X86692812Y-82133624D01*
X86856784Y-82201544D01*
X87004354Y-82300147D01*
X87129853Y-82425646D01*
X87228456Y-82573216D01*
X87296376Y-82737188D01*
X87331000Y-82911259D01*
X87331000Y-83088741D01*
X87296376Y-83262812D01*
X87228456Y-83426784D01*
X87129853Y-83574354D01*
X87004354Y-83699853D01*
X86856784Y-83798456D01*
X86692812Y-83866376D01*
X86543512Y-83896073D01*
X86518742Y-83901000D01*
X86341258Y-83901000D01*
X86316488Y-83896073D01*
X86167188Y-83866376D01*
X86003216Y-83798456D01*
X85855646Y-83699853D01*
X85730147Y-83574354D01*
X85631544Y-83426784D01*
X85563624Y-83262812D01*
X85529000Y-83088741D01*
X85529000Y-82911259D01*
X85563624Y-82737188D01*
X85631544Y-82573216D01*
X85730147Y-82425646D01*
X85855646Y-82300147D01*
X86003216Y-82201544D01*
X86167188Y-82133624D01*
X86316488Y-82103927D01*
X86341258Y-82099000D01*
X86518742Y-82099000D01*
X86543512Y-82103927D01*
G37*
G36*
X61931000Y-83901000D02*
G01*
X60129000Y-83901000D01*
X60129000Y-82099000D01*
X61931000Y-82099000D01*
X61931000Y-83901000D01*
G37*
G36*
X67660721Y-33470174D02*
G01*
X67760995Y-33511709D01*
X67760996Y-33511710D01*
X67851242Y-33572010D01*
X67927990Y-33648758D01*
X67927991Y-33648760D01*
X67988291Y-33739005D01*
X68029826Y-33839279D01*
X68051000Y-33945730D01*
X68051000Y-34054270D01*
X68029826Y-34160721D01*
X67988291Y-34260995D01*
X67988290Y-34260996D01*
X67927990Y-34351242D01*
X67851242Y-34427990D01*
X67805812Y-34458345D01*
X67760995Y-34488291D01*
X67660721Y-34529826D01*
X67554270Y-34551000D01*
X67445730Y-34551000D01*
X67339279Y-34529826D01*
X67239005Y-34488291D01*
X67194188Y-34458345D01*
X67148758Y-34427990D01*
X67072010Y-34351242D01*
X67011710Y-34260996D01*
X67011709Y-34260995D01*
X66970174Y-34160721D01*
X66949000Y-34054270D01*
X66949000Y-33945730D01*
X66970174Y-33839279D01*
X67011709Y-33739005D01*
X67072009Y-33648760D01*
X67072010Y-33648758D01*
X67148758Y-33572010D01*
X67239004Y-33511710D01*
X67239005Y-33511709D01*
X67339279Y-33470174D01*
X67445730Y-33449000D01*
X67554270Y-33449000D01*
X67660721Y-33470174D01*
G37*
G36*
X62160721Y-33470174D02*
G01*
X62260995Y-33511709D01*
X62260996Y-33511710D01*
X62351242Y-33572010D01*
X62427990Y-33648758D01*
X62427991Y-33648760D01*
X62488291Y-33739005D01*
X62529826Y-33839279D01*
X62551000Y-33945730D01*
X62551000Y-34054270D01*
X62529826Y-34160721D01*
X62488291Y-34260995D01*
X62488290Y-34260996D01*
X62427990Y-34351242D01*
X62351242Y-34427990D01*
X62305812Y-34458345D01*
X62260995Y-34488291D01*
X62160721Y-34529826D01*
X62054270Y-34551000D01*
X61945730Y-34551000D01*
X61839279Y-34529826D01*
X61739005Y-34488291D01*
X61694188Y-34458345D01*
X61648758Y-34427990D01*
X61572010Y-34351242D01*
X61511710Y-34260996D01*
X61511709Y-34260995D01*
X61470174Y-34160721D01*
X61449000Y-34054270D01*
X61449000Y-33945730D01*
X61470174Y-33839279D01*
X61511709Y-33739005D01*
X61572009Y-33648760D01*
X61572010Y-33648758D01*
X61648758Y-33572010D01*
X61739004Y-33511710D01*
X61739005Y-33511709D01*
X61839279Y-33470174D01*
X61945730Y-33449000D01*
X62054270Y-33449000D01*
X62160721Y-33470174D01*
G37*
G36*
X79408410Y-29185525D02*
G01*
X79493426Y-29211314D01*
X79571775Y-29253193D01*
X79640449Y-29309551D01*
X79696807Y-29378225D01*
X79738686Y-29456574D01*
X79764475Y-29541590D01*
X79771000Y-29607842D01*
X79771000Y-30752158D01*
X79764475Y-30818410D01*
X79738686Y-30903426D01*
X79696807Y-30981775D01*
X79640449Y-31050448D01*
X79571774Y-31106807D01*
X79493425Y-31148686D01*
X79408409Y-31174475D01*
X79320000Y-31183182D01*
X79231590Y-31174475D01*
X79146574Y-31148686D01*
X79068225Y-31106807D01*
X78999552Y-31050449D01*
X78943193Y-30981774D01*
X78901314Y-30903425D01*
X78875525Y-30818409D01*
X78869000Y-30752157D01*
X78869001Y-29607842D01*
X78875526Y-29541590D01*
X78901315Y-29456574D01*
X78943194Y-29378225D01*
X78999552Y-29309551D01*
X79068226Y-29253193D01*
X79146575Y-29211314D01*
X79231591Y-29185525D01*
X79320000Y-29176818D01*
X79408410Y-29185525D01*
G37*
G36*
X70768410Y-29185525D02*
G01*
X70853426Y-29211314D01*
X70931775Y-29253193D01*
X71000449Y-29309551D01*
X71056807Y-29378225D01*
X71098686Y-29456574D01*
X71124475Y-29541590D01*
X71131000Y-29607842D01*
X71131000Y-30752158D01*
X71124475Y-30818410D01*
X71098686Y-30903426D01*
X71056807Y-30981775D01*
X71000449Y-31050448D01*
X70931774Y-31106807D01*
X70853425Y-31148686D01*
X70768409Y-31174475D01*
X70680000Y-31183182D01*
X70591590Y-31174475D01*
X70506574Y-31148686D01*
X70428225Y-31106807D01*
X70359552Y-31050449D01*
X70303193Y-30981774D01*
X70261314Y-30903425D01*
X70235525Y-30818409D01*
X70229000Y-30752157D01*
X70229001Y-29607842D01*
X70235526Y-29541590D01*
X70261315Y-29456574D01*
X70303194Y-29378225D01*
X70359552Y-29309551D01*
X70428226Y-29253193D01*
X70506575Y-29211314D01*
X70591591Y-29185525D01*
X70680000Y-29176818D01*
X70768410Y-29185525D01*
G37*
G36*
X72219672Y-29288449D02*
G01*
X72219674Y-29288450D01*
X72219675Y-29288450D01*
X72288103Y-29316793D01*
X72349686Y-29357942D01*
X72402058Y-29410314D01*
X72443207Y-29471897D01*
X72471550Y-29540325D01*
X72471551Y-29540328D01*
X72486000Y-29612966D01*
X72486000Y-29687033D01*
X72471550Y-29759675D01*
X72443207Y-29828103D01*
X72402058Y-29889686D01*
X72349686Y-29942058D01*
X72288103Y-29983207D01*
X72219675Y-30011550D01*
X72219674Y-30011550D01*
X72219672Y-30011551D01*
X72147034Y-30026000D01*
X72072966Y-30026000D01*
X72000328Y-30011551D01*
X72000326Y-30011550D01*
X72000325Y-30011550D01*
X71931897Y-29983207D01*
X71870314Y-29942058D01*
X71817942Y-29889686D01*
X71776793Y-29828103D01*
X71748450Y-29759675D01*
X71734000Y-29687033D01*
X71734000Y-29612966D01*
X71748449Y-29540328D01*
X71748450Y-29540325D01*
X71776793Y-29471897D01*
X71817942Y-29410314D01*
X71870314Y-29357942D01*
X71931897Y-29316793D01*
X72000325Y-29288450D01*
X72000326Y-29288450D01*
X72000328Y-29288449D01*
X72072966Y-29274000D01*
X72147034Y-29274000D01*
X72219672Y-29288449D01*
G37*
G36*
X77999672Y-29288449D02*
G01*
X77999674Y-29288450D01*
X77999675Y-29288450D01*
X78068103Y-29316793D01*
X78129686Y-29357942D01*
X78182058Y-29410314D01*
X78223207Y-29471897D01*
X78251550Y-29540325D01*
X78251551Y-29540328D01*
X78266000Y-29612966D01*
X78266000Y-29687033D01*
X78251550Y-29759675D01*
X78223207Y-29828103D01*
X78182058Y-29889686D01*
X78129686Y-29942058D01*
X78068103Y-29983207D01*
X77999675Y-30011550D01*
X77999674Y-30011550D01*
X77999672Y-30011551D01*
X77927034Y-30026000D01*
X77852966Y-30026000D01*
X77780328Y-30011551D01*
X77780326Y-30011550D01*
X77780325Y-30011550D01*
X77711897Y-29983207D01*
X77650314Y-29942058D01*
X77597942Y-29889686D01*
X77556793Y-29828103D01*
X77528450Y-29759675D01*
X77514000Y-29687033D01*
X77514000Y-29612966D01*
X77528449Y-29540328D01*
X77528450Y-29540325D01*
X77556793Y-29471897D01*
X77597942Y-29410314D01*
X77650314Y-29357942D01*
X77711897Y-29316793D01*
X77780325Y-29288450D01*
X77780326Y-29288450D01*
X77780328Y-29288449D01*
X77852966Y-29274000D01*
X77927034Y-29274000D01*
X77999672Y-29288449D01*
G37*
G36*
X79408410Y-25205525D02*
G01*
X79493426Y-25231314D01*
X79571775Y-25273193D01*
X79640449Y-25329551D01*
X79696807Y-25398225D01*
X79738686Y-25476574D01*
X79764475Y-25561590D01*
X79771000Y-25627842D01*
X79771000Y-26872158D01*
X79764475Y-26938410D01*
X79738686Y-27023426D01*
X79696807Y-27101775D01*
X79640449Y-27170448D01*
X79571774Y-27226807D01*
X79493425Y-27268686D01*
X79408409Y-27294475D01*
X79320000Y-27303182D01*
X79231590Y-27294475D01*
X79146574Y-27268686D01*
X79068225Y-27226807D01*
X78999552Y-27170449D01*
X78943193Y-27101774D01*
X78901314Y-27023425D01*
X78875525Y-26938409D01*
X78869000Y-26872157D01*
X78869001Y-25627842D01*
X78875526Y-25561590D01*
X78901315Y-25476574D01*
X78943194Y-25398225D01*
X78999552Y-25329551D01*
X79068226Y-25273193D01*
X79146575Y-25231314D01*
X79231591Y-25205525D01*
X79320000Y-25196818D01*
X79408410Y-25205525D01*
G37*
G36*
X70768410Y-25205525D02*
G01*
X70853426Y-25231314D01*
X70931775Y-25273193D01*
X71000449Y-25329551D01*
X71056807Y-25398225D01*
X71098686Y-25476574D01*
X71124475Y-25561590D01*
X71131000Y-25627842D01*
X71131000Y-26872158D01*
X71124475Y-26938410D01*
X71098686Y-27023426D01*
X71056807Y-27101775D01*
X71000449Y-27170448D01*
X70931774Y-27226807D01*
X70853425Y-27268686D01*
X70768409Y-27294475D01*
X70680000Y-27303182D01*
X70591590Y-27294475D01*
X70506574Y-27268686D01*
X70428225Y-27226807D01*
X70359552Y-27170449D01*
X70303193Y-27101774D01*
X70261314Y-27023425D01*
X70235525Y-26938409D01*
X70229000Y-26872157D01*
X70229001Y-25627842D01*
X70235526Y-25561590D01*
X70261315Y-25476574D01*
X70303194Y-25398225D01*
X70359552Y-25329551D01*
X70428226Y-25273193D01*
X70506575Y-25231314D01*
X70591591Y-25205525D01*
X70680000Y-25196818D01*
X70768410Y-25205525D01*
G37*
M02*
