%TF.GenerationSoftware,KiCad,Pcbnew,6.0.7-f9a2dced07~116~ubuntu22.04.1*%
%TF.CreationDate,2022-11-10T15:46:19+01:00*%
%TF.ProjectId,edge_plating_test,65646765-5f70-46c6-9174-696e675f7465,rev?*%
%TF.SameCoordinates,Original*%
%TF.FileFunction,Legend,Top*%
%TF.FilePolarity,Positive*%
%FSLAX46Y46*%
G04 Gerber Fmt 4.6, Leading zero omitted, Abs format (unit mm)*
G04 Created by KiCad (PCBNEW 6.0.7-f9a2dced07~116~ubuntu22.04.1) date 2022-11-10 15:46:19*
%MOMM*%
%LPD*%
G01*
G04 APERTURE LIST*
%ADD10C,0.175000*%
%ADD11C,0.150000*%
%ADD12C,0.120000*%
%ADD13C,0.240000*%
%ADD14C,0.250000*%
%ADD15C,0.500000*%
G04 APERTURE END LIST*
D10*
X96650000Y-134626166D02*
X96650000Y-133926166D01*
X96983333Y-134159500D02*
X96983333Y-134626166D01*
X96983333Y-134226166D02*
X97016666Y-134192833D01*
X97083333Y-134159500D01*
X97183333Y-134159500D01*
X97250000Y-134192833D01*
X97283333Y-134259500D01*
X97283333Y-134626166D01*
X97516666Y-134159500D02*
X97783333Y-134159500D01*
X97616666Y-133926166D02*
X97616666Y-134526166D01*
X97650000Y-134592833D01*
X97716666Y-134626166D01*
X97783333Y-134626166D01*
X98283333Y-134592833D02*
X98216666Y-134626166D01*
X98083333Y-134626166D01*
X98016666Y-134592833D01*
X97983333Y-134526166D01*
X97983333Y-134259500D01*
X98016666Y-134192833D01*
X98083333Y-134159500D01*
X98216666Y-134159500D01*
X98283333Y-134192833D01*
X98316666Y-134259500D01*
X98316666Y-134326166D01*
X97983333Y-134392833D01*
X98916666Y-134592833D02*
X98850000Y-134626166D01*
X98716666Y-134626166D01*
X98650000Y-134592833D01*
X98616666Y-134559500D01*
X98583333Y-134492833D01*
X98583333Y-134292833D01*
X98616666Y-134226166D01*
X98650000Y-134192833D01*
X98716666Y-134159500D01*
X98850000Y-134159500D01*
X98916666Y-134192833D01*
X99216666Y-134626166D02*
X99216666Y-133926166D01*
X99516666Y-134626166D02*
X99516666Y-134259500D01*
X99483333Y-134192833D01*
X99416666Y-134159500D01*
X99316666Y-134159500D01*
X99250000Y-134192833D01*
X99216666Y-134226166D01*
X100350000Y-134592833D02*
X100450000Y-134626166D01*
X100616666Y-134626166D01*
X100683333Y-134592833D01*
X100716666Y-134559500D01*
X100750000Y-134492833D01*
X100750000Y-134426166D01*
X100716666Y-134359500D01*
X100683333Y-134326166D01*
X100616666Y-134292833D01*
X100483333Y-134259500D01*
X100416666Y-134226166D01*
X100383333Y-134192833D01*
X100350000Y-134126166D01*
X100350000Y-134059500D01*
X100383333Y-133992833D01*
X100416666Y-133959500D01*
X100483333Y-133926166D01*
X100650000Y-133926166D01*
X100750000Y-133959500D01*
X100950000Y-134159500D02*
X101216666Y-134159500D01*
X101050000Y-133926166D02*
X101050000Y-134526166D01*
X101083333Y-134592833D01*
X101150000Y-134626166D01*
X101216666Y-134626166D01*
X101750000Y-134159500D02*
X101750000Y-134626166D01*
X101450000Y-134159500D02*
X101450000Y-134526166D01*
X101483333Y-134592833D01*
X101550000Y-134626166D01*
X101650000Y-134626166D01*
X101716666Y-134592833D01*
X101750000Y-134559500D01*
X102383333Y-134626166D02*
X102383333Y-133926166D01*
X102383333Y-134592833D02*
X102316666Y-134626166D01*
X102183333Y-134626166D01*
X102116666Y-134592833D01*
X102083333Y-134559500D01*
X102050000Y-134492833D01*
X102050000Y-134292833D01*
X102083333Y-134226166D01*
X102116666Y-134192833D01*
X102183333Y-134159500D01*
X102316666Y-134159500D01*
X102383333Y-134192833D01*
X102716666Y-134626166D02*
X102716666Y-134159500D01*
X102716666Y-133926166D02*
X102683333Y-133959500D01*
X102716666Y-133992833D01*
X102750000Y-133959500D01*
X102716666Y-133926166D01*
X102716666Y-133992833D01*
X103150000Y-134626166D02*
X103083333Y-134592833D01*
X103050000Y-134559500D01*
X103016666Y-134492833D01*
X103016666Y-134292833D01*
X103050000Y-134226166D01*
X103083333Y-134192833D01*
X103150000Y-134159500D01*
X103250000Y-134159500D01*
X103316666Y-134192833D01*
X103350000Y-134226166D01*
X103383333Y-134292833D01*
X103383333Y-134492833D01*
X103350000Y-134559500D01*
X103316666Y-134592833D01*
X103250000Y-134626166D01*
X103150000Y-134626166D01*
X97883333Y-135086500D02*
X97816666Y-135053166D01*
X97716666Y-135053166D01*
X97616666Y-135086500D01*
X97550000Y-135153166D01*
X97516666Y-135219833D01*
X97483333Y-135353166D01*
X97483333Y-135453166D01*
X97516666Y-135586500D01*
X97550000Y-135653166D01*
X97616666Y-135719833D01*
X97716666Y-135753166D01*
X97783333Y-135753166D01*
X97883333Y-135719833D01*
X97916666Y-135686500D01*
X97916666Y-135453166D01*
X97783333Y-135453166D01*
X98216666Y-135753166D02*
X98216666Y-135286500D01*
X98216666Y-135419833D02*
X98250000Y-135353166D01*
X98283333Y-135319833D01*
X98350000Y-135286500D01*
X98416666Y-135286500D01*
X98650000Y-135753166D02*
X98650000Y-135286500D01*
X98650000Y-135053166D02*
X98616666Y-135086500D01*
X98650000Y-135119833D01*
X98683333Y-135086500D01*
X98650000Y-135053166D01*
X98650000Y-135119833D01*
X99283333Y-135753166D02*
X99283333Y-135053166D01*
X99283333Y-135719833D02*
X99216666Y-135753166D01*
X99083333Y-135753166D01*
X99016666Y-135719833D01*
X98983333Y-135686500D01*
X98950000Y-135619833D01*
X98950000Y-135419833D01*
X98983333Y-135353166D01*
X99016666Y-135319833D01*
X99083333Y-135286500D01*
X99216666Y-135286500D01*
X99283333Y-135319833D01*
X100150000Y-135753166D02*
X100150000Y-135053166D01*
X100416666Y-135053166D01*
X100483333Y-135086500D01*
X100516666Y-135119833D01*
X100550000Y-135186500D01*
X100550000Y-135286500D01*
X100516666Y-135353166D01*
X100483333Y-135386500D01*
X100416666Y-135419833D01*
X100150000Y-135419833D01*
X101083333Y-135386500D02*
X101183333Y-135419833D01*
X101216666Y-135453166D01*
X101250000Y-135519833D01*
X101250000Y-135619833D01*
X101216666Y-135686500D01*
X101183333Y-135719833D01*
X101116666Y-135753166D01*
X100850000Y-135753166D01*
X100850000Y-135053166D01*
X101083333Y-135053166D01*
X101150000Y-135086500D01*
X101183333Y-135119833D01*
X101216666Y-135186500D01*
X101216666Y-135253166D01*
X101183333Y-135319833D01*
X101150000Y-135353166D01*
X101083333Y-135386500D01*
X100850000Y-135386500D01*
X101783333Y-135386500D02*
X101550000Y-135386500D01*
X101550000Y-135753166D02*
X101550000Y-135053166D01*
X101883333Y-135053166D01*
X102450000Y-135286500D02*
X102450000Y-135753166D01*
X102283333Y-135019833D02*
X102116666Y-135519833D01*
X102550000Y-135519833D01*
X96666666Y-136880166D02*
X96433333Y-136546833D01*
X96266666Y-136880166D02*
X96266666Y-136180166D01*
X96533333Y-136180166D01*
X96600000Y-136213500D01*
X96633333Y-136246833D01*
X96666666Y-136313500D01*
X96666666Y-136413500D01*
X96633333Y-136480166D01*
X96600000Y-136513500D01*
X96533333Y-136546833D01*
X96266666Y-136546833D01*
X97233333Y-136846833D02*
X97166666Y-136880166D01*
X97033333Y-136880166D01*
X96966666Y-136846833D01*
X96933333Y-136780166D01*
X96933333Y-136513500D01*
X96966666Y-136446833D01*
X97033333Y-136413500D01*
X97166666Y-136413500D01*
X97233333Y-136446833D01*
X97266666Y-136513500D01*
X97266666Y-136580166D01*
X96933333Y-136646833D01*
X97500000Y-136413500D02*
X97666666Y-136880166D01*
X97833333Y-136413500D01*
X98100000Y-136880166D02*
X98100000Y-136180166D01*
X98266666Y-136180166D01*
X98366666Y-136213500D01*
X98433333Y-136280166D01*
X98466666Y-136346833D01*
X98500000Y-136480166D01*
X98500000Y-136580166D01*
X98466666Y-136713500D01*
X98433333Y-136780166D01*
X98366666Y-136846833D01*
X98266666Y-136880166D01*
X98100000Y-136880166D01*
X99300000Y-136246833D02*
X99333333Y-136213500D01*
X99400000Y-136180166D01*
X99566666Y-136180166D01*
X99633333Y-136213500D01*
X99666666Y-136246833D01*
X99700000Y-136313500D01*
X99700000Y-136380166D01*
X99666666Y-136480166D01*
X99266666Y-136880166D01*
X99700000Y-136880166D01*
X100133333Y-136180166D02*
X100200000Y-136180166D01*
X100266666Y-136213500D01*
X100300000Y-136246833D01*
X100333333Y-136313500D01*
X100366666Y-136446833D01*
X100366666Y-136613500D01*
X100333333Y-136746833D01*
X100300000Y-136813500D01*
X100266666Y-136846833D01*
X100200000Y-136880166D01*
X100133333Y-136880166D01*
X100066666Y-136846833D01*
X100033333Y-136813500D01*
X100000000Y-136746833D01*
X99966666Y-136613500D01*
X99966666Y-136446833D01*
X100000000Y-136313500D01*
X100033333Y-136246833D01*
X100066666Y-136213500D01*
X100133333Y-136180166D01*
X100633333Y-136246833D02*
X100666666Y-136213500D01*
X100733333Y-136180166D01*
X100900000Y-136180166D01*
X100966666Y-136213500D01*
X101000000Y-136246833D01*
X101033333Y-136313500D01*
X101033333Y-136380166D01*
X101000000Y-136480166D01*
X100600000Y-136880166D01*
X101033333Y-136880166D01*
X101300000Y-136246833D02*
X101333333Y-136213500D01*
X101400000Y-136180166D01*
X101566666Y-136180166D01*
X101633333Y-136213500D01*
X101666666Y-136246833D01*
X101700000Y-136313500D01*
X101700000Y-136380166D01*
X101666666Y-136480166D01*
X101266666Y-136880166D01*
X101700000Y-136880166D01*
X102500000Y-136146833D02*
X101900000Y-137046833D01*
X103100000Y-136880166D02*
X102700000Y-136880166D01*
X102900000Y-136880166D02*
X102900000Y-136180166D01*
X102833333Y-136280166D01*
X102766666Y-136346833D01*
X102700000Y-136380166D01*
X103533333Y-136180166D02*
X103600000Y-136180166D01*
X103666666Y-136213500D01*
X103700000Y-136246833D01*
X103733333Y-136313500D01*
X103766666Y-136446833D01*
X103766666Y-136613500D01*
X103733333Y-136746833D01*
X103700000Y-136813500D01*
X103666666Y-136846833D01*
X103600000Y-136880166D01*
X103533333Y-136880166D01*
X103466666Y-136846833D01*
X103433333Y-136813500D01*
X103400000Y-136746833D01*
X103366666Y-136613500D01*
X103366666Y-136446833D01*
X103400000Y-136313500D01*
X103433333Y-136246833D01*
X103466666Y-136213500D01*
X103533333Y-136180166D01*
X97850000Y-137640500D02*
X98083333Y-137640500D01*
X98183333Y-138007166D02*
X97850000Y-138007166D01*
X97850000Y-137307166D01*
X98183333Y-137307166D01*
X98483333Y-137640500D02*
X98716666Y-137640500D01*
X98816666Y-138007166D02*
X98483333Y-138007166D01*
X98483333Y-137307166D01*
X98816666Y-137307166D01*
X99116666Y-137940500D02*
X99150000Y-137973833D01*
X99116666Y-138007166D01*
X99083333Y-137973833D01*
X99116666Y-137940500D01*
X99116666Y-138007166D01*
X99116666Y-137573833D02*
X99150000Y-137607166D01*
X99116666Y-137640500D01*
X99083333Y-137607166D01*
X99116666Y-137573833D01*
X99116666Y-137640500D01*
X99950000Y-137973833D02*
X100050000Y-138007166D01*
X100216666Y-138007166D01*
X100283333Y-137973833D01*
X100316666Y-137940500D01*
X100350000Y-137873833D01*
X100350000Y-137807166D01*
X100316666Y-137740500D01*
X100283333Y-137707166D01*
X100216666Y-137673833D01*
X100083333Y-137640500D01*
X100016666Y-137607166D01*
X99983333Y-137573833D01*
X99950000Y-137507166D01*
X99950000Y-137440500D01*
X99983333Y-137373833D01*
X100016666Y-137340500D01*
X100083333Y-137307166D01*
X100250000Y-137307166D01*
X100350000Y-137340500D01*
X100950000Y-137540500D02*
X100950000Y-138007166D01*
X100650000Y-137540500D02*
X100650000Y-137907166D01*
X100683333Y-137973833D01*
X100750000Y-138007166D01*
X100850000Y-138007166D01*
X100916666Y-137973833D01*
X100950000Y-137940500D01*
X101283333Y-138007166D02*
X101283333Y-137307166D01*
X101350000Y-137740500D02*
X101550000Y-138007166D01*
X101550000Y-137540500D02*
X101283333Y-137807166D01*
X102150000Y-137540500D02*
X102150000Y-138007166D01*
X101850000Y-137540500D02*
X101850000Y-137907166D01*
X101883333Y-137973833D01*
X101950000Y-138007166D01*
X102050000Y-138007166D01*
X102116666Y-137973833D01*
X102150000Y-137940500D01*
D11*
X67335595Y-66952380D02*
X67335595Y-65952380D01*
X67335595Y-66333333D02*
X67430833Y-66285714D01*
X67621309Y-66285714D01*
X67716547Y-66333333D01*
X67764166Y-66380952D01*
X67811785Y-66476190D01*
X67811785Y-66761904D01*
X67764166Y-66857142D01*
X67716547Y-66904761D01*
X67621309Y-66952380D01*
X67430833Y-66952380D01*
X67335595Y-66904761D01*
X68383214Y-66952380D02*
X68287976Y-66904761D01*
X68240357Y-66857142D01*
X68192738Y-66761904D01*
X68192738Y-66476190D01*
X68240357Y-66380952D01*
X68287976Y-66333333D01*
X68383214Y-66285714D01*
X68526071Y-66285714D01*
X68621309Y-66333333D01*
X68668928Y-66380952D01*
X68716547Y-66476190D01*
X68716547Y-66761904D01*
X68668928Y-66857142D01*
X68621309Y-66904761D01*
X68526071Y-66952380D01*
X68383214Y-66952380D01*
X69287976Y-66952380D02*
X69192738Y-66904761D01*
X69145119Y-66857142D01*
X69097500Y-66761904D01*
X69097500Y-66476190D01*
X69145119Y-66380952D01*
X69192738Y-66333333D01*
X69287976Y-66285714D01*
X69430833Y-66285714D01*
X69526071Y-66333333D01*
X69573690Y-66380952D01*
X69621309Y-66476190D01*
X69621309Y-66761904D01*
X69573690Y-66857142D01*
X69526071Y-66904761D01*
X69430833Y-66952380D01*
X69287976Y-66952380D01*
X69907023Y-66285714D02*
X70287976Y-66285714D01*
X70049880Y-65952380D02*
X70049880Y-66809523D01*
X70097500Y-66904761D01*
X70192738Y-66952380D01*
X70287976Y-66952380D01*
X109642857Y-88202380D02*
X109642857Y-87202380D01*
X109976190Y-87916666D01*
X110309523Y-87202380D01*
X110309523Y-88202380D01*
X111357142Y-88107142D02*
X111309523Y-88154761D01*
X111166666Y-88202380D01*
X111071428Y-88202380D01*
X110928571Y-88154761D01*
X110833333Y-88059523D01*
X110785714Y-87964285D01*
X110738095Y-87773809D01*
X110738095Y-87630952D01*
X110785714Y-87440476D01*
X110833333Y-87345238D01*
X110928571Y-87250000D01*
X111071428Y-87202380D01*
X111166666Y-87202380D01*
X111309523Y-87250000D01*
X111357142Y-87297619D01*
X111785714Y-87202380D02*
X111785714Y-88011904D01*
X111833333Y-88107142D01*
X111880952Y-88154761D01*
X111976190Y-88202380D01*
X112166666Y-88202380D01*
X112261904Y-88154761D01*
X112309523Y-88107142D01*
X112357142Y-88011904D01*
X112357142Y-87202380D01*
X121764166Y-70285714D02*
X121764166Y-71285714D01*
X121764166Y-70904761D02*
X121668928Y-70952380D01*
X121478452Y-70952380D01*
X121383214Y-70904761D01*
X121335595Y-70857142D01*
X121287976Y-70761904D01*
X121287976Y-70476190D01*
X121335595Y-70380952D01*
X121383214Y-70333333D01*
X121478452Y-70285714D01*
X121668928Y-70285714D01*
X121764166Y-70333333D01*
X122668928Y-70285714D02*
X122668928Y-70952380D01*
X122240357Y-70285714D02*
X122240357Y-70809523D01*
X122287976Y-70904761D01*
X122383214Y-70952380D01*
X122526071Y-70952380D01*
X122621309Y-70904761D01*
X122668928Y-70857142D01*
X123573690Y-70952380D02*
X123573690Y-70428571D01*
X123526071Y-70333333D01*
X123430833Y-70285714D01*
X123240357Y-70285714D01*
X123145119Y-70333333D01*
X123573690Y-70904761D02*
X123478452Y-70952380D01*
X123240357Y-70952380D01*
X123145119Y-70904761D01*
X123097500Y-70809523D01*
X123097500Y-70714285D01*
X123145119Y-70619047D01*
X123240357Y-70571428D01*
X123478452Y-70571428D01*
X123573690Y-70523809D01*
X124192738Y-70952380D02*
X124097500Y-70904761D01*
X124049880Y-70809523D01*
X124049880Y-69952380D01*
X124573690Y-70952380D02*
X124573690Y-70285714D01*
X124573690Y-69952380D02*
X124526071Y-70000000D01*
X124573690Y-70047619D01*
X124621309Y-70000000D01*
X124573690Y-69952380D01*
X124573690Y-70047619D01*
X124907023Y-70285714D02*
X125287976Y-70285714D01*
X125049880Y-69952380D02*
X125049880Y-70809523D01*
X125097500Y-70904761D01*
X125192738Y-70952380D01*
X125287976Y-70952380D01*
X125526071Y-70285714D02*
X125764166Y-70952380D01*
X126002261Y-70285714D02*
X125764166Y-70952380D01*
X125668928Y-71190476D01*
X125621309Y-71238095D01*
X125526071Y-71285714D01*
X121335595Y-68952380D02*
X121335595Y-67952380D01*
X121335595Y-68333333D02*
X121430833Y-68285714D01*
X121621309Y-68285714D01*
X121716547Y-68333333D01*
X121764166Y-68380952D01*
X121811785Y-68476190D01*
X121811785Y-68761904D01*
X121764166Y-68857142D01*
X121716547Y-68904761D01*
X121621309Y-68952380D01*
X121430833Y-68952380D01*
X121335595Y-68904761D01*
X122668928Y-68952380D02*
X122668928Y-68428571D01*
X122621309Y-68333333D01*
X122526071Y-68285714D01*
X122335595Y-68285714D01*
X122240357Y-68333333D01*
X122668928Y-68904761D02*
X122573690Y-68952380D01*
X122335595Y-68952380D01*
X122240357Y-68904761D01*
X122192738Y-68809523D01*
X122192738Y-68714285D01*
X122240357Y-68619047D01*
X122335595Y-68571428D01*
X122573690Y-68571428D01*
X122668928Y-68523809D01*
X123002261Y-68285714D02*
X123383214Y-68285714D01*
X123145119Y-67952380D02*
X123145119Y-68809523D01*
X123192738Y-68904761D01*
X123287976Y-68952380D01*
X123383214Y-68952380D01*
X124145119Y-68904761D02*
X124049880Y-68952380D01*
X123859404Y-68952380D01*
X123764166Y-68904761D01*
X123716547Y-68857142D01*
X123668928Y-68761904D01*
X123668928Y-68476190D01*
X123716547Y-68380952D01*
X123764166Y-68333333D01*
X123859404Y-68285714D01*
X124049880Y-68285714D01*
X124145119Y-68333333D01*
X124573690Y-68952380D02*
X124573690Y-67952380D01*
X125002261Y-68952380D02*
X125002261Y-68428571D01*
X124954642Y-68333333D01*
X124859404Y-68285714D01*
X124716547Y-68285714D01*
X124621309Y-68333333D01*
X124573690Y-68380952D01*
X124833333Y-62952380D02*
X124833333Y-61952380D01*
X125214285Y-61952380D01*
X125309523Y-62000000D01*
X125357142Y-62047619D01*
X125404761Y-62142857D01*
X125404761Y-62285714D01*
X125357142Y-62380952D01*
X125309523Y-62428571D01*
X125214285Y-62476190D01*
X124833333Y-62476190D01*
X126166666Y-62428571D02*
X126309523Y-62476190D01*
X126357142Y-62523809D01*
X126404761Y-62619047D01*
X126404761Y-62761904D01*
X126357142Y-62857142D01*
X126309523Y-62904761D01*
X126214285Y-62952380D01*
X125833333Y-62952380D01*
X125833333Y-61952380D01*
X126166666Y-61952380D01*
X126261904Y-62000000D01*
X126309523Y-62047619D01*
X126357142Y-62142857D01*
X126357142Y-62238095D01*
X126309523Y-62333333D01*
X126261904Y-62380952D01*
X126166666Y-62428571D01*
X125833333Y-62428571D01*
X127166666Y-62428571D02*
X126833333Y-62428571D01*
X126833333Y-62952380D02*
X126833333Y-61952380D01*
X127309523Y-61952380D01*
X128119047Y-62285714D02*
X128119047Y-62952380D01*
X127880952Y-61904761D02*
X127642857Y-62619047D01*
X128261904Y-62619047D01*
X121192738Y-64285714D02*
X121573690Y-64285714D01*
X121335595Y-63952380D02*
X121335595Y-64809523D01*
X121383214Y-64904761D01*
X121478452Y-64952380D01*
X121573690Y-64952380D01*
X121811785Y-64285714D02*
X122049880Y-64952380D01*
X122287976Y-64285714D02*
X122049880Y-64952380D01*
X121954642Y-65190476D01*
X121907023Y-65238095D01*
X121811785Y-65285714D01*
X122668928Y-64285714D02*
X122668928Y-65285714D01*
X122668928Y-64333333D02*
X122764166Y-64285714D01*
X122954642Y-64285714D01*
X123049880Y-64333333D01*
X123097500Y-64380952D01*
X123145119Y-64476190D01*
X123145119Y-64761904D01*
X123097500Y-64857142D01*
X123049880Y-64904761D01*
X122954642Y-64952380D01*
X122764166Y-64952380D01*
X122668928Y-64904761D01*
X123954642Y-64904761D02*
X123859404Y-64952380D01*
X123668928Y-64952380D01*
X123573690Y-64904761D01*
X123526071Y-64809523D01*
X123526071Y-64428571D01*
X123573690Y-64333333D01*
X123668928Y-64285714D01*
X123859404Y-64285714D01*
X123954642Y-64333333D01*
X124002261Y-64428571D01*
X124002261Y-64523809D01*
X123526071Y-64619047D01*
X121287976Y-66904761D02*
X121383214Y-66952380D01*
X121573690Y-66952380D01*
X121668928Y-66904761D01*
X121716547Y-66809523D01*
X121716547Y-66761904D01*
X121668928Y-66666666D01*
X121573690Y-66619047D01*
X121430833Y-66619047D01*
X121335595Y-66571428D01*
X121287976Y-66476190D01*
X121287976Y-66428571D01*
X121335595Y-66333333D01*
X121430833Y-66285714D01*
X121573690Y-66285714D01*
X121668928Y-66333333D01*
X122859404Y-65904761D02*
X122002261Y-67190476D01*
X123192738Y-66285714D02*
X123192738Y-66952380D01*
X123192738Y-66380952D02*
X123240357Y-66333333D01*
X123335595Y-66285714D01*
X123478452Y-66285714D01*
X123573690Y-66333333D01*
X123621309Y-66428571D01*
X123621309Y-66952380D01*
X78309523Y-62952380D02*
X77976190Y-62476190D01*
X77738095Y-62952380D02*
X77738095Y-61952380D01*
X78119047Y-61952380D01*
X78214285Y-62000000D01*
X78261904Y-62047619D01*
X78309523Y-62142857D01*
X78309523Y-62285714D01*
X78261904Y-62380952D01*
X78214285Y-62428571D01*
X78119047Y-62476190D01*
X77738095Y-62476190D01*
X67764166Y-70285714D02*
X67764166Y-70952380D01*
X67335595Y-70285714D02*
X67335595Y-70809523D01*
X67383214Y-70904761D01*
X67478452Y-70952380D01*
X67621309Y-70952380D01*
X67716547Y-70904761D01*
X67764166Y-70857142D01*
X68192738Y-70904761D02*
X68287976Y-70952380D01*
X68478452Y-70952380D01*
X68573690Y-70904761D01*
X68621309Y-70809523D01*
X68621309Y-70761904D01*
X68573690Y-70666666D01*
X68478452Y-70619047D01*
X68335595Y-70619047D01*
X68240357Y-70571428D01*
X68192738Y-70476190D01*
X68192738Y-70428571D01*
X68240357Y-70333333D01*
X68335595Y-70285714D01*
X68478452Y-70285714D01*
X68573690Y-70333333D01*
X69430833Y-70904761D02*
X69335595Y-70952380D01*
X69145119Y-70952380D01*
X69049880Y-70904761D01*
X69002261Y-70809523D01*
X69002261Y-70428571D01*
X69049880Y-70333333D01*
X69145119Y-70285714D01*
X69335595Y-70285714D01*
X69430833Y-70333333D01*
X69478452Y-70428571D01*
X69478452Y-70523809D01*
X69002261Y-70619047D01*
X69907023Y-70952380D02*
X69907023Y-70285714D01*
X69907023Y-70476190D02*
X69954642Y-70380952D01*
X70002261Y-70333333D01*
X70097500Y-70285714D01*
X70192738Y-70285714D01*
X74142857Y-62428571D02*
X73809523Y-62428571D01*
X73809523Y-62952380D02*
X73809523Y-61952380D01*
X74285714Y-61952380D01*
X71738095Y-62952380D02*
X71738095Y-61952380D01*
X72119047Y-61952380D01*
X72214285Y-62000000D01*
X72261904Y-62047619D01*
X72309523Y-62142857D01*
X72309523Y-62285714D01*
X72261904Y-62380952D01*
X72214285Y-62428571D01*
X72119047Y-62476190D01*
X71738095Y-62476190D01*
X67287976Y-64904761D02*
X67383214Y-64952380D01*
X67573690Y-64952380D01*
X67668928Y-64904761D01*
X67716547Y-64809523D01*
X67716547Y-64761904D01*
X67668928Y-64666666D01*
X67573690Y-64619047D01*
X67430833Y-64619047D01*
X67335595Y-64571428D01*
X67287976Y-64476190D01*
X67287976Y-64428571D01*
X67335595Y-64333333D01*
X67430833Y-64285714D01*
X67573690Y-64285714D01*
X67668928Y-64333333D01*
X68145119Y-64952380D02*
X68145119Y-64285714D01*
X68145119Y-64380952D02*
X68192738Y-64333333D01*
X68287976Y-64285714D01*
X68430833Y-64285714D01*
X68526071Y-64333333D01*
X68573690Y-64428571D01*
X68573690Y-64952380D01*
X68573690Y-64428571D02*
X68621309Y-64333333D01*
X68716547Y-64285714D01*
X68859404Y-64285714D01*
X68954642Y-64333333D01*
X69002261Y-64428571D01*
X69002261Y-64952380D01*
X69335595Y-64285714D02*
X69716547Y-64285714D01*
X69478452Y-63952380D02*
X69478452Y-64809523D01*
X69526071Y-64904761D01*
X69621309Y-64952380D01*
X69716547Y-64952380D01*
X70478452Y-64952380D02*
X70478452Y-64428571D01*
X70430833Y-64333333D01*
X70335595Y-64285714D01*
X70145119Y-64285714D01*
X70049880Y-64333333D01*
X70478452Y-64904761D02*
X70383214Y-64952380D01*
X70145119Y-64952380D01*
X70049880Y-64904761D01*
X70002261Y-64809523D01*
X70002261Y-64714285D01*
X70049880Y-64619047D01*
X70145119Y-64571428D01*
X70383214Y-64571428D01*
X70478452Y-64523809D01*
X67335595Y-68285714D02*
X67335595Y-69285714D01*
X67335595Y-68333333D02*
X67430833Y-68285714D01*
X67621309Y-68285714D01*
X67716547Y-68333333D01*
X67764166Y-68380952D01*
X67811785Y-68476190D01*
X67811785Y-68761904D01*
X67764166Y-68857142D01*
X67716547Y-68904761D01*
X67621309Y-68952380D01*
X67430833Y-68952380D01*
X67335595Y-68904761D01*
X68383214Y-68952380D02*
X68287976Y-68904761D01*
X68240357Y-68857142D01*
X68192738Y-68761904D01*
X68192738Y-68476190D01*
X68240357Y-68380952D01*
X68287976Y-68333333D01*
X68383214Y-68285714D01*
X68526071Y-68285714D01*
X68621309Y-68333333D01*
X68668928Y-68380952D01*
X68716547Y-68476190D01*
X68716547Y-68761904D01*
X68668928Y-68857142D01*
X68621309Y-68904761D01*
X68526071Y-68952380D01*
X68383214Y-68952380D01*
X69145119Y-68952380D02*
X69145119Y-68285714D01*
X69145119Y-68476190D02*
X69192738Y-68380952D01*
X69240357Y-68333333D01*
X69335595Y-68285714D01*
X69430833Y-68285714D01*
X69621309Y-68285714D02*
X70002261Y-68285714D01*
X69764166Y-67952380D02*
X69764166Y-68809523D01*
X69811785Y-68904761D01*
X69907023Y-68952380D01*
X70002261Y-68952380D01*
D12*
X77000000Y-67500000D02*
X77000000Y-69500000D01*
X79000000Y-67500000D02*
X79000000Y-65500000D01*
D13*
X117835000Y-119335000D02*
X108835000Y-119335000D01*
X107335000Y-117835000D01*
X107335000Y-108835000D01*
X108835000Y-107335000D01*
X108835000Y-92665000D01*
X107335000Y-91165000D01*
X107335000Y-82165000D01*
X108835000Y-80665000D01*
X117835000Y-80665000D01*
X117835000Y-119335000D01*
D12*
X79000000Y-67500000D02*
X77000000Y-67500000D01*
X79000000Y-65500000D02*
X77000000Y-65500000D01*
X77000000Y-65500000D02*
X77000000Y-67500000D01*
X79000000Y-69500000D02*
X79000000Y-67500000D01*
D13*
X92665000Y-82165000D02*
X92665000Y-91165000D01*
X91165000Y-92665000D01*
X91165000Y-107335000D01*
X92665000Y-108835000D01*
X92665000Y-117835000D01*
X91165000Y-119335000D01*
X82165000Y-119335000D01*
X82165000Y-80665000D01*
X91165000Y-80665000D01*
X92665000Y-82165000D01*
D12*
X77000000Y-69500000D02*
X79000000Y-69500000D01*
X126500000Y-71500000D02*
X126500000Y-69500000D01*
X126500000Y-69500000D02*
X130500000Y-69500000D01*
X132500000Y-69500000D02*
X132500000Y-71500000D01*
X128500000Y-71500000D02*
X126500000Y-71500000D01*
X132500000Y-71500000D02*
X128500000Y-71500000D01*
X130500000Y-71500000D02*
X128500000Y-71500000D01*
X128500000Y-71500000D02*
X126500000Y-71500000D01*
X71000000Y-65500000D02*
X73000000Y-65500000D01*
X73000000Y-65500000D02*
X75000000Y-65500000D01*
X77000000Y-65500000D02*
X79000000Y-65500000D01*
X75000000Y-65500000D02*
X75000000Y-67500000D01*
X75000000Y-67500000D02*
X75000000Y-65500000D01*
X73000000Y-65500000D02*
X71000000Y-65500000D01*
X71000000Y-65500000D02*
X71000000Y-67500000D01*
X71000000Y-67500000D02*
X73000000Y-67500000D01*
X73000000Y-67500000D02*
X73000000Y-65500000D01*
X75000000Y-65500000D02*
X73000000Y-65500000D01*
X73000000Y-67500000D02*
X71000000Y-67500000D01*
X75000000Y-67500000D02*
X73000000Y-67500000D01*
X73000000Y-67500000D02*
X75000000Y-67500000D01*
X73000000Y-65500000D02*
X73000000Y-67500000D01*
X126500000Y-65500000D02*
X124500000Y-65500000D01*
X128500000Y-65500000D02*
X126500000Y-65500000D01*
X126500000Y-67500000D02*
X126500000Y-65500000D01*
X124500000Y-67500000D02*
X126500000Y-67500000D01*
X124500000Y-65500000D02*
X124500000Y-67500000D01*
X126500000Y-65500000D02*
X126500000Y-67500000D01*
X130500000Y-67500000D02*
X130500000Y-69500000D01*
X126500000Y-67500000D02*
X128500000Y-67500000D01*
X128500000Y-67500000D02*
X128500000Y-65500000D01*
X130500000Y-65500000D02*
X128500000Y-65500000D01*
X128500000Y-65500000D02*
X128500000Y-67500000D01*
X128500000Y-67500000D02*
X130500000Y-67500000D01*
X130500000Y-67500000D02*
X130500000Y-65500000D01*
X130500000Y-67500000D02*
X128500000Y-67500000D01*
X126500000Y-67500000D02*
X124500000Y-67500000D01*
X130500000Y-69500000D02*
X132500000Y-69500000D01*
X132500000Y-69500000D02*
X132500000Y-67500000D01*
X128500000Y-67500000D02*
X126500000Y-67500000D01*
X132500000Y-69500000D02*
X130500000Y-69500000D01*
X132500000Y-67500000D02*
X132500000Y-69500000D01*
X132500000Y-65500000D02*
X130500000Y-65500000D01*
X130500000Y-67500000D02*
X130500000Y-65500000D01*
X132500000Y-67500000D02*
X130500000Y-67500000D01*
X132500000Y-67500000D02*
X132500000Y-65500000D01*
X130500000Y-65500000D02*
X130500000Y-67500000D01*
X130500000Y-65500000D02*
X132500000Y-65500000D01*
X130500000Y-67500000D02*
X132500000Y-67500000D01*
X126500000Y-67500000D02*
X126500000Y-69500000D01*
X126500000Y-69500000D02*
X128500000Y-69500000D01*
X130500000Y-67500000D02*
X130500000Y-69500000D01*
X130500000Y-69500000D02*
X128500000Y-69500000D01*
X128500000Y-69500000D02*
X128500000Y-67500000D01*
X128500000Y-67500000D02*
X128500000Y-69500000D01*
X128500000Y-69500000D02*
X126500000Y-69500000D01*
X127000000Y-68500000D02*
X128000000Y-68500000D01*
X130500000Y-69500000D02*
X130500000Y-67500000D01*
X128500000Y-67500000D02*
X128500000Y-69500000D01*
X128500000Y-69500000D02*
X130500000Y-69500000D01*
X128500000Y-65500000D02*
X126500000Y-65500000D01*
X126500000Y-65500000D02*
X124500000Y-65500000D01*
X128500000Y-63500000D02*
X128500000Y-65500000D01*
X124500000Y-63500000D02*
X128500000Y-63500000D01*
X124500000Y-65500000D02*
X124500000Y-63500000D01*
X75000000Y-71500000D02*
X73000000Y-71500000D01*
X73000000Y-71500000D02*
X71000000Y-71500000D01*
X73000000Y-71500000D02*
X73000000Y-69500000D01*
X73000000Y-67500000D02*
X73000000Y-69500000D01*
X73000000Y-69500000D02*
X75000000Y-69500000D01*
X75000000Y-69500000D02*
X73000000Y-69500000D01*
X71000000Y-71500000D02*
X73000000Y-71500000D01*
X71000000Y-69500000D02*
X71000000Y-71500000D01*
X73000000Y-69500000D02*
X71000000Y-69500000D01*
X73000000Y-69500000D02*
X73000000Y-71500000D01*
X73000000Y-71500000D02*
X75000000Y-71500000D01*
X75000000Y-71500000D02*
X75000000Y-69500000D01*
X75000000Y-69500000D02*
X75000000Y-71500000D01*
X75000000Y-67500000D02*
X73000000Y-67500000D01*
X73000000Y-69500000D02*
X73000000Y-67500000D01*
X71000000Y-69500000D02*
X73000000Y-69500000D01*
X71000000Y-67500000D02*
X71000000Y-69500000D01*
X73000000Y-67500000D02*
X71000000Y-67500000D01*
X75000000Y-69500000D02*
X75000000Y-67500000D01*
X75000000Y-67500000D02*
X75000000Y-69500000D01*
X79000000Y-65500000D02*
X79000000Y-63500000D01*
X77000000Y-63500000D02*
X77000000Y-65500000D01*
X79000000Y-63500000D02*
X77000000Y-63500000D01*
X75000000Y-65500000D02*
X75000000Y-63500000D01*
X73000000Y-67500000D02*
X75000000Y-67500000D01*
X73000000Y-63500000D02*
X73000000Y-65500000D01*
X73000000Y-63500000D02*
X71000000Y-63500000D01*
X71000000Y-63500000D02*
X71000000Y-65500000D01*
X71000000Y-67500000D02*
X73000000Y-67500000D01*
X73000000Y-65500000D02*
X73000000Y-63500000D01*
X77000000Y-67500000D02*
X79000000Y-67500000D01*
X77000000Y-71500000D02*
X79000000Y-71500000D01*
X79000000Y-69500000D02*
X77000000Y-69500000D01*
X77000000Y-69500000D02*
X77000000Y-71500000D01*
X79000000Y-71500000D02*
X79000000Y-69500000D01*
X75000000Y-63500000D02*
X73000000Y-63500000D01*
D11*
%TO.C,REF\u002A\u002A*%
X125336666Y-49202380D02*
X125003333Y-48726190D01*
X124765238Y-49202380D02*
X124765238Y-48202380D01*
X125146190Y-48202380D01*
X125241428Y-48250000D01*
X125289047Y-48297619D01*
X125336666Y-48392857D01*
X125336666Y-48535714D01*
X125289047Y-48630952D01*
X125241428Y-48678571D01*
X125146190Y-48726190D01*
X124765238Y-48726190D01*
X125765238Y-48678571D02*
X126098571Y-48678571D01*
X126241428Y-49202380D02*
X125765238Y-49202380D01*
X125765238Y-48202380D01*
X126241428Y-48202380D01*
X127003333Y-48678571D02*
X126670000Y-48678571D01*
X126670000Y-49202380D02*
X126670000Y-48202380D01*
X127146190Y-48202380D01*
X127670000Y-48202380D02*
X127670000Y-48440476D01*
X127431904Y-48345238D02*
X127670000Y-48440476D01*
X127908095Y-48345238D01*
X127527142Y-48630952D02*
X127670000Y-48440476D01*
X127812857Y-48630952D01*
X128431904Y-48202380D02*
X128431904Y-48440476D01*
X128193809Y-48345238D02*
X128431904Y-48440476D01*
X128670000Y-48345238D01*
X128289047Y-48630952D02*
X128431904Y-48440476D01*
X128574761Y-48630952D01*
X71996666Y-49202380D02*
X71663333Y-48726190D01*
X71425238Y-49202380D02*
X71425238Y-48202380D01*
X71806190Y-48202380D01*
X71901428Y-48250000D01*
X71949047Y-48297619D01*
X71996666Y-48392857D01*
X71996666Y-48535714D01*
X71949047Y-48630952D01*
X71901428Y-48678571D01*
X71806190Y-48726190D01*
X71425238Y-48726190D01*
X72425238Y-48678571D02*
X72758571Y-48678571D01*
X72901428Y-49202380D02*
X72425238Y-49202380D01*
X72425238Y-48202380D01*
X72901428Y-48202380D01*
X73663333Y-48678571D02*
X73330000Y-48678571D01*
X73330000Y-49202380D02*
X73330000Y-48202380D01*
X73806190Y-48202380D01*
X74330000Y-48202380D02*
X74330000Y-48440476D01*
X74091904Y-48345238D02*
X74330000Y-48440476D01*
X74568095Y-48345238D01*
X74187142Y-48630952D02*
X74330000Y-48440476D01*
X74472857Y-48630952D01*
X75091904Y-48202380D02*
X75091904Y-48440476D01*
X74853809Y-48345238D02*
X75091904Y-48440476D01*
X75330000Y-48345238D01*
X74949047Y-48630952D02*
X75091904Y-48440476D01*
X75234761Y-48630952D01*
X151702380Y-128003333D02*
X151226190Y-128336666D01*
X151702380Y-128574761D02*
X150702380Y-128574761D01*
X150702380Y-128193809D01*
X150750000Y-128098571D01*
X150797619Y-128050952D01*
X150892857Y-128003333D01*
X151035714Y-128003333D01*
X151130952Y-128050952D01*
X151178571Y-128098571D01*
X151226190Y-128193809D01*
X151226190Y-128574761D01*
X151178571Y-127574761D02*
X151178571Y-127241428D01*
X151702380Y-127098571D02*
X151702380Y-127574761D01*
X150702380Y-127574761D01*
X150702380Y-127098571D01*
X151178571Y-126336666D02*
X151178571Y-126670000D01*
X151702380Y-126670000D02*
X150702380Y-126670000D01*
X150702380Y-126193809D01*
X150702380Y-125670000D02*
X150940476Y-125670000D01*
X150845238Y-125908095D02*
X150940476Y-125670000D01*
X150845238Y-125431904D01*
X151130952Y-125812857D02*
X150940476Y-125670000D01*
X151130952Y-125527142D01*
X150702380Y-124908095D02*
X150940476Y-124908095D01*
X150845238Y-125146190D02*
X150940476Y-124908095D01*
X150845238Y-124670000D01*
X151130952Y-125050952D02*
X150940476Y-124908095D01*
X151130952Y-124765238D01*
X151702380Y-74663333D02*
X151226190Y-74996666D01*
X151702380Y-75234761D02*
X150702380Y-75234761D01*
X150702380Y-74853809D01*
X150750000Y-74758571D01*
X150797619Y-74710952D01*
X150892857Y-74663333D01*
X151035714Y-74663333D01*
X151130952Y-74710952D01*
X151178571Y-74758571D01*
X151226190Y-74853809D01*
X151226190Y-75234761D01*
X151178571Y-74234761D02*
X151178571Y-73901428D01*
X151702380Y-73758571D02*
X151702380Y-74234761D01*
X150702380Y-74234761D01*
X150702380Y-73758571D01*
X151178571Y-72996666D02*
X151178571Y-73330000D01*
X151702380Y-73330000D02*
X150702380Y-73330000D01*
X150702380Y-72853809D01*
X150702380Y-72330000D02*
X150940476Y-72330000D01*
X150845238Y-72568095D02*
X150940476Y-72330000D01*
X150845238Y-72091904D01*
X151130952Y-72472857D02*
X150940476Y-72330000D01*
X151130952Y-72187142D01*
X150702380Y-71568095D02*
X150940476Y-71568095D01*
X150845238Y-71806190D02*
X150940476Y-71568095D01*
X150845238Y-71330000D01*
X151130952Y-71710952D02*
X150940476Y-71568095D01*
X151130952Y-71425238D01*
X71996666Y-151702380D02*
X71663333Y-151226190D01*
X71425238Y-151702380D02*
X71425238Y-150702380D01*
X71806190Y-150702380D01*
X71901428Y-150750000D01*
X71949047Y-150797619D01*
X71996666Y-150892857D01*
X71996666Y-151035714D01*
X71949047Y-151130952D01*
X71901428Y-151178571D01*
X71806190Y-151226190D01*
X71425238Y-151226190D01*
X72425238Y-151178571D02*
X72758571Y-151178571D01*
X72901428Y-151702380D02*
X72425238Y-151702380D01*
X72425238Y-150702380D01*
X72901428Y-150702380D01*
X73663333Y-151178571D02*
X73330000Y-151178571D01*
X73330000Y-151702380D02*
X73330000Y-150702380D01*
X73806190Y-150702380D01*
X74330000Y-150702380D02*
X74330000Y-150940476D01*
X74091904Y-150845238D02*
X74330000Y-150940476D01*
X74568095Y-150845238D01*
X74187142Y-151130952D02*
X74330000Y-150940476D01*
X74472857Y-151130952D01*
X75091904Y-150702380D02*
X75091904Y-150940476D01*
X74853809Y-150845238D02*
X75091904Y-150940476D01*
X75330000Y-150845238D01*
X74949047Y-151130952D02*
X75091904Y-150940476D01*
X75234761Y-151130952D01*
X125336666Y-151702380D02*
X125003333Y-151226190D01*
X124765238Y-151702380D02*
X124765238Y-150702380D01*
X125146190Y-150702380D01*
X125241428Y-150750000D01*
X125289047Y-150797619D01*
X125336666Y-150892857D01*
X125336666Y-151035714D01*
X125289047Y-151130952D01*
X125241428Y-151178571D01*
X125146190Y-151226190D01*
X124765238Y-151226190D01*
X125765238Y-151178571D02*
X126098571Y-151178571D01*
X126241428Y-151702380D02*
X125765238Y-151702380D01*
X125765238Y-150702380D01*
X126241428Y-150702380D01*
X127003333Y-151178571D02*
X126670000Y-151178571D01*
X126670000Y-151702380D02*
X126670000Y-150702380D01*
X127146190Y-150702380D01*
X127670000Y-150702380D02*
X127670000Y-150940476D01*
X127431904Y-150845238D02*
X127670000Y-150940476D01*
X127908095Y-150845238D01*
X127527142Y-151130952D02*
X127670000Y-150940476D01*
X127812857Y-151130952D01*
X128431904Y-150702380D02*
X128431904Y-150940476D01*
X128193809Y-150845238D02*
X128431904Y-150940476D01*
X128670000Y-150845238D01*
X128289047Y-151130952D02*
X128431904Y-150940476D01*
X128574761Y-151130952D01*
X49202380Y-128003333D02*
X48726190Y-128336666D01*
X49202380Y-128574761D02*
X48202380Y-128574761D01*
X48202380Y-128193809D01*
X48250000Y-128098571D01*
X48297619Y-128050952D01*
X48392857Y-128003333D01*
X48535714Y-128003333D01*
X48630952Y-128050952D01*
X48678571Y-128098571D01*
X48726190Y-128193809D01*
X48726190Y-128574761D01*
X48678571Y-127574761D02*
X48678571Y-127241428D01*
X49202380Y-127098571D02*
X49202380Y-127574761D01*
X48202380Y-127574761D01*
X48202380Y-127098571D01*
X48678571Y-126336666D02*
X48678571Y-126670000D01*
X49202380Y-126670000D02*
X48202380Y-126670000D01*
X48202380Y-126193809D01*
X48202380Y-125670000D02*
X48440476Y-125670000D01*
X48345238Y-125908095D02*
X48440476Y-125670000D01*
X48345238Y-125431904D01*
X48630952Y-125812857D02*
X48440476Y-125670000D01*
X48630952Y-125527142D01*
X48202380Y-124908095D02*
X48440476Y-124908095D01*
X48345238Y-125146190D02*
X48440476Y-124908095D01*
X48345238Y-124670000D01*
X48630952Y-125050952D02*
X48440476Y-124908095D01*
X48630952Y-124765238D01*
X49202380Y-74663333D02*
X48726190Y-74996666D01*
X49202380Y-75234761D02*
X48202380Y-75234761D01*
X48202380Y-74853809D01*
X48250000Y-74758571D01*
X48297619Y-74710952D01*
X48392857Y-74663333D01*
X48535714Y-74663333D01*
X48630952Y-74710952D01*
X48678571Y-74758571D01*
X48726190Y-74853809D01*
X48726190Y-75234761D01*
X48678571Y-74234761D02*
X48678571Y-73901428D01*
X49202380Y-73758571D02*
X49202380Y-74234761D01*
X48202380Y-74234761D01*
X48202380Y-73758571D01*
X48678571Y-72996666D02*
X48678571Y-73330000D01*
X49202380Y-73330000D02*
X48202380Y-73330000D01*
X48202380Y-72853809D01*
X48202380Y-72330000D02*
X48440476Y-72330000D01*
X48345238Y-72568095D02*
X48440476Y-72330000D01*
X48345238Y-72091904D01*
X48630952Y-72472857D02*
X48440476Y-72330000D01*
X48630952Y-72187142D01*
X48202380Y-71568095D02*
X48440476Y-71568095D01*
X48345238Y-71806190D02*
X48440476Y-71568095D01*
X48345238Y-71330000D01*
X48630952Y-71710952D02*
X48440476Y-71568095D01*
X48630952Y-71425238D01*
D12*
%TO.C,M501*%
X148500000Y-100000000D02*
X148500000Y-100250000D01*
X148500000Y-141000000D02*
X148500000Y-141250000D01*
X148500000Y-61000000D02*
X148500000Y-61250000D01*
X50750000Y-142750000D02*
X50500000Y-143000000D01*
X51500000Y-102000000D02*
X51250000Y-102250000D01*
X148500000Y-99000000D02*
X148500000Y-98750000D01*
X148500000Y-100000000D02*
X148500000Y-99750000D01*
X148500000Y-58000000D02*
X148750000Y-57750000D01*
X51500000Y-101000000D02*
X51500000Y-101250000D01*
X51500000Y-100000000D02*
X51500000Y-99750000D01*
X50750000Y-57250000D02*
X50500000Y-57000000D01*
X148500000Y-59000000D02*
X148500000Y-58750000D01*
X51500000Y-99000000D02*
X51500000Y-98750000D01*
X51500000Y-140000000D02*
X51250000Y-140000000D01*
X148500000Y-142000000D02*
X148750000Y-142250000D01*
X51500000Y-60000000D02*
X51500000Y-59750000D01*
X149250000Y-102750000D02*
X149500000Y-103000000D01*
X51500000Y-59000000D02*
X51500000Y-58750000D01*
X148500000Y-138000000D02*
X148750000Y-137750000D01*
X51500000Y-140000000D02*
X51500000Y-139750000D01*
X51500000Y-100000000D02*
X51500000Y-100250000D01*
X51500000Y-62000000D02*
X51250000Y-62250000D01*
X50750000Y-97250000D02*
X50500000Y-97000000D01*
X148500000Y-140000000D02*
X148750000Y-140000000D01*
X51500000Y-138000000D02*
X51250000Y-137750000D01*
X148500000Y-98000000D02*
X148750000Y-97750000D01*
X148500000Y-140000000D02*
X148500000Y-140250000D01*
X148500000Y-102000000D02*
X148750000Y-102250000D01*
X51500000Y-60000000D02*
X51500000Y-60250000D01*
X148500000Y-60000000D02*
X148750000Y-60000000D01*
X148500000Y-60000000D02*
X148500000Y-60250000D01*
X51500000Y-142000000D02*
X51250000Y-142250000D01*
X148500000Y-62000000D02*
X148750000Y-62250000D01*
X50750000Y-62750000D02*
X50500000Y-63000000D01*
X51500000Y-140000000D02*
X51500000Y-140250000D01*
X50750000Y-102750000D02*
X50500000Y-103000000D01*
X51500000Y-58000000D02*
X51250000Y-57750000D01*
X148500000Y-139000000D02*
X148500000Y-138750000D01*
X51500000Y-141000000D02*
X51500000Y-141250000D01*
X51500000Y-98000000D02*
X51250000Y-97750000D01*
X148500000Y-100000000D02*
X148750000Y-100000000D01*
X51500000Y-100000000D02*
X51250000Y-100000000D01*
X149250000Y-137250000D02*
X149500000Y-137000000D01*
X50750000Y-137250000D02*
X50500000Y-137000000D01*
X149250000Y-62750000D02*
X149500000Y-63000000D01*
X148500000Y-60000000D02*
X148500000Y-59750000D01*
X51500000Y-60000000D02*
X51250000Y-60000000D01*
X148500000Y-140000000D02*
X148500000Y-139750000D01*
X149250000Y-57250000D02*
X149500000Y-57000000D01*
X51500000Y-139000000D02*
X51500000Y-138750000D01*
X51500000Y-61000000D02*
X51500000Y-61250000D01*
X149250000Y-142750000D02*
X149500000Y-143000000D01*
X149250000Y-97250000D02*
X149500000Y-97000000D01*
X148500000Y-101000000D02*
X148500000Y-101250000D01*
%TO.C,J601*%
X104750000Y-56570000D02*
X104750000Y-48600000D01*
X96190000Y-56570000D02*
X95250000Y-56570000D01*
X104750000Y-48600000D02*
X95250000Y-48600000D01*
X104750000Y-56570000D02*
X103810000Y-56570000D01*
X95250000Y-56570000D02*
X95250000Y-48600000D01*
%TO.C,REF\u002A\u002A*%
X122170000Y-50000000D02*
X122170000Y-52000000D01*
X131170000Y-50000000D02*
X131170000Y-52000000D01*
X122170000Y-52000000D02*
G75*
G03*
X122670000Y-52500000I500000J0D01*
G01*
X130670000Y-52500000D02*
G75*
G03*
X131170000Y-52000000I-1J500001D01*
G01*
X68830000Y-50000000D02*
X68830000Y-52000000D01*
X77830000Y-50000000D02*
X77830000Y-52000000D01*
X68830000Y-52000000D02*
G75*
G03*
X69330000Y-52500000I500000J0D01*
G01*
X77330000Y-52500000D02*
G75*
G03*
X77830000Y-52000000I-1J500001D01*
G01*
X150000000Y-122170000D02*
X148000000Y-122170000D01*
X150000000Y-131170000D02*
X148000000Y-131170000D01*
X148000000Y-122170000D02*
G75*
G03*
X147500000Y-122670000I0J-500000D01*
G01*
X147500000Y-130670000D02*
G75*
G03*
X148000000Y-131170000I500001J1D01*
G01*
X150000000Y-68830000D02*
X148000000Y-68830000D01*
X150000000Y-77830000D02*
X148000000Y-77830000D01*
X148000000Y-68830000D02*
G75*
G03*
X147500000Y-69330000I0J-500000D01*
G01*
X147500000Y-77330000D02*
G75*
G03*
X148000000Y-77830000I500001J1D01*
G01*
X77830000Y-150000000D02*
X77830000Y-148000000D01*
X68830000Y-150000000D02*
X68830000Y-148000000D01*
X77830000Y-148000000D02*
G75*
G03*
X77330000Y-147500000I-500000J0D01*
G01*
X69330000Y-147500000D02*
G75*
G03*
X68830000Y-148000000I1J-500001D01*
G01*
X131170000Y-150000000D02*
X131170000Y-148000000D01*
X122170000Y-150000000D02*
X122170000Y-148000000D01*
X131170000Y-148000000D02*
G75*
G03*
X130670000Y-147500000I-500000J0D01*
G01*
X122670000Y-147500000D02*
G75*
G03*
X122170000Y-148000000I1J-500001D01*
G01*
X50000000Y-131170000D02*
X52000000Y-131170000D01*
X50000000Y-122170000D02*
X52000000Y-122170000D01*
X52000000Y-131170000D02*
G75*
G03*
X52500000Y-130670000I0J500000D01*
G01*
X52500000Y-122670000D02*
G75*
G03*
X52000000Y-122170000I-500001J-1D01*
G01*
X50000000Y-77830000D02*
X52000000Y-77830000D01*
X50000000Y-68830000D02*
X52000000Y-68830000D01*
X52000000Y-77830000D02*
G75*
G03*
X52500000Y-77330000I0J500000D01*
G01*
X52500000Y-69330000D02*
G75*
G03*
X52000000Y-68830000I-500001J-1D01*
G01*
%TO.C,LOGO701*%
G36*
X103439193Y-130626293D02*
G01*
X103676810Y-130626293D01*
X103676810Y-130763861D01*
X103037689Y-130763861D01*
X103041469Y-130698203D01*
X103045249Y-130632546D01*
X103167184Y-130628966D01*
X103289119Y-130625387D01*
X103289119Y-130194378D01*
X103288777Y-130074495D01*
X103287778Y-129971946D01*
X103286163Y-129888188D01*
X103283972Y-129824679D01*
X103281247Y-129782877D01*
X103278027Y-129764240D01*
X103277097Y-129763368D01*
X103260168Y-129766055D01*
X103225245Y-129773232D01*
X103178662Y-129783570D01*
X103157804Y-129788380D01*
X103108191Y-129799632D01*
X103067562Y-129808258D01*
X103042296Y-129812930D01*
X103037888Y-129813393D01*
X103031169Y-129801857D01*
X103028386Y-129770697D01*
X103028992Y-129742407D01*
X103032743Y-129671421D01*
X103157804Y-129642959D01*
X103221273Y-129630301D01*
X103285815Y-129620393D01*
X103341191Y-129614699D01*
X103361029Y-129613896D01*
X103439193Y-129613294D01*
X103439193Y-130626293D01*
G37*
G36*
X102423363Y-130099022D02*
G01*
X102455397Y-130126380D01*
X102472875Y-130164417D01*
X102473375Y-130206947D01*
X102454476Y-130247785D01*
X102445522Y-130257930D01*
X102405042Y-130283341D01*
X102360014Y-130288196D01*
X102318075Y-130272398D01*
X102303313Y-130259682D01*
X102278977Y-130218539D01*
X102275667Y-130175058D01*
X102290781Y-130135108D01*
X102321718Y-130104558D01*
X102365875Y-130089276D01*
X102379195Y-130088528D01*
X102423363Y-130099022D01*
G37*
G36*
X97118273Y-127133552D02*
G01*
X97121813Y-127087322D01*
X97140881Y-126927627D01*
X97169836Y-126789864D01*
X97209316Y-126672728D01*
X97259954Y-126574912D01*
X97322388Y-126495112D01*
X97397251Y-126432022D01*
X97457864Y-126396869D01*
X97497905Y-126378412D01*
X97533224Y-126366273D01*
X97571710Y-126358794D01*
X97621255Y-126354313D01*
X97671781Y-126351867D01*
X97737416Y-126350115D01*
X97786314Y-126351584D01*
X97826639Y-126357117D01*
X97866552Y-126367556D01*
X97886350Y-126374010D01*
X97982865Y-126417723D01*
X98065103Y-126479169D01*
X98133876Y-126559425D01*
X98189997Y-126659567D01*
X98234279Y-126780674D01*
X98255319Y-126863015D01*
X98265077Y-126922150D01*
X98273080Y-127000189D01*
X98279145Y-127091072D01*
X98283089Y-127188741D01*
X98284730Y-127287137D01*
X98283885Y-127380200D01*
X98280373Y-127461871D01*
X98275056Y-127518555D01*
X98248483Y-127668856D01*
X98210759Y-127797539D01*
X98161285Y-127905664D01*
X98099463Y-127994292D01*
X98024695Y-128064480D01*
X97937238Y-128116889D01*
X97896475Y-128134659D01*
X97860098Y-128146220D01*
X97820051Y-128153159D01*
X97768277Y-128157061D01*
X97724634Y-128158715D01*
X97654137Y-128159585D01*
X97600649Y-128156676D01*
X97556355Y-128149242D01*
X97521735Y-128139354D01*
X97428489Y-128098856D01*
X97348708Y-128042823D01*
X97281705Y-127970032D01*
X97226793Y-127879261D01*
X97183283Y-127769286D01*
X97150488Y-127638886D01*
X97127721Y-127486837D01*
X97122011Y-127428477D01*
X97115136Y-127325372D01*
X97114214Y-127255884D01*
X97370103Y-127255884D01*
X97372805Y-127405591D01*
X97381199Y-127532911D01*
X97395721Y-127639911D01*
X97416804Y-127728660D01*
X97444884Y-127801222D01*
X97480395Y-127859667D01*
X97502537Y-127885792D01*
X97536032Y-127915990D01*
X97570840Y-127939988D01*
X97580059Y-127944707D01*
X97628026Y-127957391D01*
X97689325Y-127961663D01*
X97753830Y-127957786D01*
X97811413Y-127946024D01*
X97832537Y-127938152D01*
X97889676Y-127899760D01*
X97937182Y-127840597D01*
X97975162Y-127760253D01*
X98003724Y-127658315D01*
X98022975Y-127534372D01*
X98033022Y-127388013D01*
X98033970Y-127218827D01*
X98032654Y-127168341D01*
X98025504Y-127028238D01*
X98013358Y-126910604D01*
X97995480Y-126813263D01*
X97971130Y-126734038D01*
X97939570Y-126670751D01*
X97900064Y-126621225D01*
X97851873Y-126583282D01*
X97830183Y-126570956D01*
X97765475Y-126549649D01*
X97691292Y-126544547D01*
X97617165Y-126555599D01*
X97571489Y-126572394D01*
X97518266Y-126607218D01*
X97473958Y-126656693D01*
X97438127Y-126722298D01*
X97410337Y-126805514D01*
X97390152Y-126907821D01*
X97377137Y-127030697D01*
X97370856Y-127175624D01*
X97370103Y-127255884D01*
X97114214Y-127255884D01*
X97113893Y-127231718D01*
X97118273Y-127133552D01*
G37*
G36*
X98221173Y-130053224D02*
G01*
X98228898Y-129974440D01*
X98240490Y-129913442D01*
X98270298Y-129823267D01*
X98306894Y-129751266D01*
X98353709Y-129690827D01*
X98358946Y-129685308D01*
X98410351Y-129642072D01*
X98467896Y-129615278D01*
X98537330Y-129603020D01*
X98608728Y-129602551D01*
X98689902Y-129612912D01*
X98754901Y-129637705D01*
X98809804Y-129679949D01*
X98843783Y-129719274D01*
X98884961Y-129789770D01*
X98917479Y-129879346D01*
X98940807Y-129983428D01*
X98954413Y-130097440D01*
X98957766Y-130216809D01*
X98950334Y-130336958D01*
X98931586Y-130453315D01*
X98929914Y-130460853D01*
X98896419Y-130566283D01*
X98848089Y-130652461D01*
X98785339Y-130718771D01*
X98730993Y-130754112D01*
X98672636Y-130774198D01*
X98602272Y-130783817D01*
X98530941Y-130782224D01*
X98477023Y-130771248D01*
X98400704Y-130734152D01*
X98337396Y-130676662D01*
X98286675Y-130598241D01*
X98248116Y-130498348D01*
X98240571Y-130470910D01*
X98228958Y-130407332D01*
X98221211Y-130326836D01*
X98217330Y-130236360D01*
X98217317Y-130144806D01*
X98377817Y-130144806D01*
X98378065Y-130284750D01*
X98388356Y-130402029D01*
X98408764Y-130496918D01*
X98439363Y-130569692D01*
X98480227Y-130620626D01*
X98511835Y-130641906D01*
X98564882Y-130660840D01*
X98614049Y-130659264D01*
X98657252Y-130643425D01*
X98694715Y-130616016D01*
X98727262Y-130575561D01*
X98729651Y-130571514D01*
X98752883Y-130524490D01*
X98770040Y-130473242D01*
X98781845Y-130413306D01*
X98789021Y-130340213D01*
X98792292Y-130249498D01*
X98792675Y-130182324D01*
X98790619Y-130074424D01*
X98784459Y-129987609D01*
X98773344Y-129918165D01*
X98756423Y-129862378D01*
X98732845Y-129816533D01*
X98701759Y-129776917D01*
X98699169Y-129774164D01*
X98669260Y-129745356D01*
X98643607Y-129731030D01*
X98610727Y-129726228D01*
X98587270Y-129725850D01*
X98545789Y-129727808D01*
X98517091Y-129736951D01*
X98489434Y-129758180D01*
X98474089Y-129773092D01*
X98443299Y-129809168D01*
X98419766Y-129850513D01*
X98402465Y-129901075D01*
X98390374Y-129964803D01*
X98382471Y-130045647D01*
X98377817Y-130144806D01*
X98217317Y-130144806D01*
X98217317Y-130142843D01*
X98221173Y-130053224D01*
G37*
G36*
X99203237Y-126351659D02*
G01*
X99314477Y-126361998D01*
X99425420Y-126381238D01*
X99528560Y-126408517D01*
X99577918Y-126426110D01*
X99593939Y-126433365D01*
X99604004Y-126443191D01*
X99609497Y-126460860D01*
X99611802Y-126491642D01*
X99612304Y-126540810D01*
X99612310Y-126557057D01*
X99611847Y-126607755D01*
X99610605Y-126647427D01*
X99608802Y-126670608D01*
X99607632Y-126674348D01*
X99595001Y-126668773D01*
X99567777Y-126654505D01*
X99546942Y-126643042D01*
X99445268Y-126595413D01*
X99340926Y-126563322D01*
X99237380Y-126546655D01*
X99138090Y-126545300D01*
X99046520Y-126559143D01*
X98966131Y-126588070D01*
X98900385Y-126631968D01*
X98869558Y-126665247D01*
X98833028Y-126732970D01*
X98816895Y-126810111D01*
X98822573Y-126889799D01*
X98822967Y-126891591D01*
X98836012Y-126936117D01*
X98855198Y-126973273D01*
X98883365Y-127004815D01*
X98923354Y-127032500D01*
X98978003Y-127058087D01*
X99050152Y-127083333D01*
X99142642Y-127109994D01*
X99200443Y-127125188D01*
X99270931Y-127144408D01*
X99338488Y-127164798D01*
X99396666Y-127184277D01*
X99439019Y-127200767D01*
X99448216Y-127205092D01*
X99542601Y-127264816D01*
X99615882Y-127337755D01*
X99668194Y-127424161D01*
X99699673Y-127524285D01*
X99710455Y-127638379D01*
X99709042Y-127687346D01*
X99692157Y-127803906D01*
X99656506Y-127904006D01*
X99602057Y-127987670D01*
X99528780Y-128054921D01*
X99436645Y-128105784D01*
X99325621Y-128140282D01*
X99195677Y-128158439D01*
X99099557Y-128161483D01*
X99015297Y-128158051D01*
X98929976Y-128149441D01*
X98861940Y-128138049D01*
X98801662Y-128123653D01*
X98740221Y-128106575D01*
X98689604Y-128090181D01*
X98683728Y-128088005D01*
X98611817Y-128060734D01*
X98611817Y-127936571D01*
X98612313Y-127884277D01*
X98613648Y-127842855D01*
X98615596Y-127817618D01*
X98617110Y-127812408D01*
X98629828Y-127817871D01*
X98659061Y-127832413D01*
X98699295Y-127853268D01*
X98714033Y-127861057D01*
X98807932Y-127906257D01*
X98894072Y-127936676D01*
X98982157Y-127955436D01*
X99024122Y-127960811D01*
X99130710Y-127964771D01*
X99227893Y-127953746D01*
X99312444Y-127928701D01*
X99381135Y-127890603D01*
X99430740Y-127840422D01*
X99432030Y-127838548D01*
X99466203Y-127768563D01*
X99481670Y-127691136D01*
X99478699Y-127612494D01*
X99457557Y-127538865D01*
X99418513Y-127476479D01*
X99416351Y-127474049D01*
X99390305Y-127448925D01*
X99359077Y-127427190D01*
X99318979Y-127407342D01*
X99266326Y-127387876D01*
X99197430Y-127367287D01*
X99108605Y-127344071D01*
X99081087Y-127337245D01*
X98949613Y-127300029D01*
X98841327Y-127258086D01*
X98754625Y-127209989D01*
X98687902Y-127154317D01*
X98639554Y-127089644D01*
X98607977Y-127014545D01*
X98591565Y-126927598D01*
X98589465Y-126900880D01*
X98593900Y-126783241D01*
X98620453Y-126675976D01*
X98667766Y-126580829D01*
X98734482Y-126499543D01*
X98819243Y-126433861D01*
X98920691Y-126385526D01*
X99009894Y-126361113D01*
X99099207Y-126351077D01*
X99203237Y-126351659D01*
G37*
G36*
X96473265Y-130088528D02*
G01*
X96898474Y-130088528D01*
X96898474Y-129613294D01*
X97048548Y-129613294D01*
X97048548Y-130763861D01*
X96898962Y-130763861D01*
X96895591Y-130491852D01*
X96892221Y-130219843D01*
X96473265Y-130212985D01*
X96473265Y-130763861D01*
X96310685Y-130763861D01*
X96310685Y-129613294D01*
X96473265Y-129613294D01*
X96473265Y-130088528D01*
G37*
G36*
X99159134Y-130053224D02*
G01*
X99166859Y-129974440D01*
X99178452Y-129913442D01*
X99208260Y-129823267D01*
X99244855Y-129751266D01*
X99291671Y-129690827D01*
X99296908Y-129685308D01*
X99348312Y-129642072D01*
X99405858Y-129615278D01*
X99475292Y-129603020D01*
X99546689Y-129602551D01*
X99627864Y-129612912D01*
X99692862Y-129637705D01*
X99747766Y-129679949D01*
X99781745Y-129719274D01*
X99822922Y-129789770D01*
X99855441Y-129879346D01*
X99878769Y-129983428D01*
X99892374Y-130097440D01*
X99895727Y-130216809D01*
X99888295Y-130336958D01*
X99869547Y-130453315D01*
X99867876Y-130460853D01*
X99834381Y-130566283D01*
X99786050Y-130652461D01*
X99723301Y-130718771D01*
X99668955Y-130754112D01*
X99610598Y-130774198D01*
X99540234Y-130783817D01*
X99468902Y-130782224D01*
X99414985Y-130771248D01*
X99338665Y-130734152D01*
X99275357Y-130676662D01*
X99224636Y-130598241D01*
X99186078Y-130498348D01*
X99178533Y-130470910D01*
X99166920Y-130407332D01*
X99159173Y-130326836D01*
X99155292Y-130236360D01*
X99155279Y-130144806D01*
X99315779Y-130144806D01*
X99316027Y-130284750D01*
X99326318Y-130402029D01*
X99346725Y-130496918D01*
X99377324Y-130569692D01*
X99418189Y-130620626D01*
X99449797Y-130641906D01*
X99502843Y-130660840D01*
X99552010Y-130659264D01*
X99595213Y-130643425D01*
X99632676Y-130616016D01*
X99665224Y-130575561D01*
X99667613Y-130571514D01*
X99690845Y-130524490D01*
X99708002Y-130473242D01*
X99719807Y-130413306D01*
X99726983Y-130340213D01*
X99730254Y-130249498D01*
X99730637Y-130182324D01*
X99728581Y-130074424D01*
X99722420Y-129987609D01*
X99711305Y-129918165D01*
X99694384Y-129862378D01*
X99670806Y-129816533D01*
X99639720Y-129776917D01*
X99637130Y-129774164D01*
X99607221Y-129745356D01*
X99581568Y-129731030D01*
X99548689Y-129726228D01*
X99525232Y-129725850D01*
X99483750Y-129727808D01*
X99455053Y-129736951D01*
X99427395Y-129758180D01*
X99412050Y-129773092D01*
X99381261Y-129809168D01*
X99357727Y-129850513D01*
X99340426Y-129901075D01*
X99328336Y-129964803D01*
X99320432Y-130045647D01*
X99315779Y-130144806D01*
X99155279Y-130144806D01*
X99155279Y-130142843D01*
X99159134Y-130053224D01*
G37*
G36*
X98633998Y-130099022D02*
G01*
X98666032Y-130126380D01*
X98683510Y-130164417D01*
X98684010Y-130206947D01*
X98665111Y-130247785D01*
X98656157Y-130257930D01*
X98615678Y-130283341D01*
X98570649Y-130288196D01*
X98528710Y-130272398D01*
X98513948Y-130259682D01*
X98489612Y-130218539D01*
X98486302Y-130175058D01*
X98501416Y-130135108D01*
X98532353Y-130104558D01*
X98576510Y-130089276D01*
X98589830Y-130088528D01*
X98633998Y-130099022D01*
G37*
G36*
X100109602Y-130053224D02*
G01*
X100117327Y-129974440D01*
X100128920Y-129913442D01*
X100158728Y-129823267D01*
X100195323Y-129751266D01*
X100242139Y-129690827D01*
X100247376Y-129685308D01*
X100298780Y-129642072D01*
X100356326Y-129615278D01*
X100425760Y-129603020D01*
X100497157Y-129602551D01*
X100578332Y-129612912D01*
X100643330Y-129637705D01*
X100698234Y-129679949D01*
X100732212Y-129719274D01*
X100773390Y-129789770D01*
X100805908Y-129879346D01*
X100829236Y-129983428D01*
X100842842Y-130097440D01*
X100846195Y-130216809D01*
X100838763Y-130336958D01*
X100820015Y-130453315D01*
X100818343Y-130460853D01*
X100784848Y-130566283D01*
X100736518Y-130652461D01*
X100673769Y-130718771D01*
X100619423Y-130754112D01*
X100561066Y-130774198D01*
X100490702Y-130783817D01*
X100419370Y-130782224D01*
X100365453Y-130771248D01*
X100289133Y-130734152D01*
X100225825Y-130676662D01*
X100175104Y-130598241D01*
X100136546Y-130498348D01*
X100129001Y-130470910D01*
X100117388Y-130407332D01*
X100109640Y-130326836D01*
X100105760Y-130236360D01*
X100105746Y-130144806D01*
X100266246Y-130144806D01*
X100266494Y-130284750D01*
X100276785Y-130402029D01*
X100297193Y-130496918D01*
X100327792Y-130569692D01*
X100368656Y-130620626D01*
X100400264Y-130641906D01*
X100453311Y-130660840D01*
X100502478Y-130659264D01*
X100545681Y-130643425D01*
X100583144Y-130616016D01*
X100615692Y-130575561D01*
X100618080Y-130571514D01*
X100641313Y-130524490D01*
X100658470Y-130473242D01*
X100670275Y-130413306D01*
X100677451Y-130340213D01*
X100680721Y-130249498D01*
X100681105Y-130182324D01*
X100679048Y-130074424D01*
X100672888Y-129987609D01*
X100661773Y-129918165D01*
X100644852Y-129862378D01*
X100621274Y-129816533D01*
X100590188Y-129776917D01*
X100587598Y-129774164D01*
X100557689Y-129745356D01*
X100532036Y-129731030D01*
X100499156Y-129726228D01*
X100475699Y-129725850D01*
X100434218Y-129727808D01*
X100405520Y-129736951D01*
X100377863Y-129758180D01*
X100362518Y-129773092D01*
X100331729Y-129809168D01*
X100308195Y-129850513D01*
X100290894Y-129901075D01*
X100278803Y-129964803D01*
X100270900Y-130045647D01*
X100266246Y-130144806D01*
X100105746Y-130144806D01*
X100105746Y-130142843D01*
X100109602Y-130053224D01*
G37*
G36*
X101060070Y-130053224D02*
G01*
X101067795Y-129974440D01*
X101079387Y-129913442D01*
X101109196Y-129823267D01*
X101145791Y-129751266D01*
X101192606Y-129690827D01*
X101197843Y-129685308D01*
X101249248Y-129642072D01*
X101306793Y-129615278D01*
X101376227Y-129603020D01*
X101447625Y-129602551D01*
X101528799Y-129612912D01*
X101593798Y-129637705D01*
X101648701Y-129679949D01*
X101682680Y-129719274D01*
X101723858Y-129789770D01*
X101756376Y-129879346D01*
X101779704Y-129983428D01*
X101793310Y-130097440D01*
X101796663Y-130216809D01*
X101789231Y-130336958D01*
X101770483Y-130453315D01*
X101768811Y-130460853D01*
X101735316Y-130566283D01*
X101686986Y-130652461D01*
X101624236Y-130718771D01*
X101569891Y-130754112D01*
X101511533Y-130774198D01*
X101441170Y-130783817D01*
X101369838Y-130782224D01*
X101315920Y-130771248D01*
X101239601Y-130734152D01*
X101176293Y-130676662D01*
X101125572Y-130598241D01*
X101087013Y-130498348D01*
X101079469Y-130470910D01*
X101067856Y-130407332D01*
X101060108Y-130326836D01*
X101056227Y-130236360D01*
X101056214Y-130144806D01*
X101216714Y-130144806D01*
X101216962Y-130284750D01*
X101227253Y-130402029D01*
X101247661Y-130496918D01*
X101278260Y-130569692D01*
X101319124Y-130620626D01*
X101350732Y-130641906D01*
X101403779Y-130660840D01*
X101452946Y-130659264D01*
X101496149Y-130643425D01*
X101533612Y-130616016D01*
X101566159Y-130575561D01*
X101568548Y-130571514D01*
X101591780Y-130524490D01*
X101608937Y-130473242D01*
X101620742Y-130413306D01*
X101627918Y-130340213D01*
X101631189Y-130249498D01*
X101631572Y-130182324D01*
X101629516Y-130074424D01*
X101623356Y-129987609D01*
X101612241Y-129918165D01*
X101595320Y-129862378D01*
X101571742Y-129816533D01*
X101540656Y-129776917D01*
X101538066Y-129774164D01*
X101508157Y-129745356D01*
X101482504Y-129731030D01*
X101449624Y-129726228D01*
X101426167Y-129725850D01*
X101384686Y-129727808D01*
X101355988Y-129736951D01*
X101328331Y-129758180D01*
X101312986Y-129773092D01*
X101282196Y-129809168D01*
X101258663Y-129850513D01*
X101241362Y-129901075D01*
X101229271Y-129964803D01*
X101221368Y-130045647D01*
X101216714Y-130144806D01*
X101056214Y-130144806D01*
X101056214Y-130142843D01*
X101060070Y-130053224D01*
G37*
G36*
X101472895Y-130099022D02*
G01*
X101504929Y-130126380D01*
X101522407Y-130164417D01*
X101522907Y-130206947D01*
X101504008Y-130247785D01*
X101495054Y-130257930D01*
X101454575Y-130283341D01*
X101409546Y-130288196D01*
X101367607Y-130272398D01*
X101352845Y-130259682D01*
X101328509Y-130218539D01*
X101325199Y-130175058D01*
X101340313Y-130135108D01*
X101371250Y-130104558D01*
X101415407Y-130089276D01*
X101428727Y-130088528D01*
X101472895Y-130099022D01*
G37*
G36*
X97438935Y-130088300D02*
G01*
X97442492Y-130563306D01*
X97480052Y-130600854D01*
X97528734Y-130633373D01*
X97590538Y-130651483D01*
X97657774Y-130654652D01*
X97722751Y-130642346D01*
X97768186Y-130620840D01*
X97785095Y-130608756D01*
X97798959Y-130595150D01*
X97810078Y-130577563D01*
X97818754Y-130553532D01*
X97825290Y-130520598D01*
X97829985Y-130476300D01*
X97833143Y-130418177D01*
X97835064Y-130343768D01*
X97836050Y-130250614D01*
X97836402Y-130136253D01*
X97836436Y-130063918D01*
X97836436Y-129613294D01*
X98001136Y-129613294D01*
X97995778Y-130072895D01*
X97993968Y-130205355D01*
X97991855Y-130314667D01*
X97989360Y-130402695D01*
X97986400Y-130471303D01*
X97982896Y-130522353D01*
X97978765Y-130557709D01*
X97973928Y-130579236D01*
X97973765Y-130579707D01*
X97938039Y-130646483D01*
X97883630Y-130704712D01*
X97816780Y-130747890D01*
X97808841Y-130751482D01*
X97751385Y-130769590D01*
X97682597Y-130781305D01*
X97612517Y-130785695D01*
X97551187Y-130781827D01*
X97530035Y-130777400D01*
X97440136Y-130741802D01*
X97368916Y-130690092D01*
X97316910Y-130622692D01*
X97305965Y-130601280D01*
X97299205Y-130585557D01*
X97293689Y-130568715D01*
X97289263Y-130548089D01*
X97285773Y-130521010D01*
X97283066Y-130484812D01*
X97280989Y-130436829D01*
X97279389Y-130374392D01*
X97278113Y-130294836D01*
X97277007Y-130195492D01*
X97275964Y-130079149D01*
X97272017Y-129613294D01*
X97435379Y-129613294D01*
X97438935Y-130088300D01*
G37*
G36*
X103689316Y-128925456D02*
G01*
X96310685Y-128925456D01*
X96310685Y-125511276D01*
X102376170Y-125511276D01*
X102376170Y-125823929D01*
X96610832Y-125823929D01*
X96610832Y-128625308D01*
X103389071Y-128625308D01*
X103392246Y-127071418D01*
X103395421Y-125517529D01*
X103542369Y-125514005D01*
X103689316Y-125510482D01*
X103689316Y-128925456D01*
G37*
G36*
X99571959Y-130099022D02*
G01*
X99603993Y-130126380D01*
X99621471Y-130164417D01*
X99621972Y-130206947D01*
X99603073Y-130247785D01*
X99594119Y-130257930D01*
X99553639Y-130283341D01*
X99508611Y-130288196D01*
X99466672Y-130272398D01*
X99451910Y-130259682D01*
X99427574Y-130218539D01*
X99424264Y-130175058D01*
X99439378Y-130135108D01*
X99470314Y-130104558D01*
X99514471Y-130089276D01*
X99527791Y-130088528D01*
X99571959Y-130099022D01*
G37*
G36*
X100146948Y-126376874D02*
G01*
X100268883Y-126380453D01*
X100275519Y-127099557D01*
X100912950Y-127099557D01*
X100912950Y-126374200D01*
X101150567Y-126374200D01*
X101150567Y-128125062D01*
X100912950Y-128125062D01*
X100912950Y-127299656D01*
X100275136Y-127299656D01*
X100275136Y-128125062D01*
X100025013Y-128125062D01*
X100025013Y-126373294D01*
X100146948Y-126376874D01*
G37*
G36*
X100522427Y-130099022D02*
G01*
X100554461Y-130126380D01*
X100571939Y-130164417D01*
X100572440Y-130206947D01*
X100553540Y-130247785D01*
X100544587Y-130257930D01*
X100504107Y-130283341D01*
X100459078Y-130288196D01*
X100417139Y-130272398D01*
X100402377Y-130259682D01*
X100378041Y-130218539D01*
X100374731Y-130175058D01*
X100389846Y-130135108D01*
X100420782Y-130104558D01*
X100464939Y-130089276D01*
X100478259Y-130088528D01*
X100522427Y-130099022D01*
G37*
G36*
X103102426Y-125073975D02*
G01*
X103136692Y-125075780D01*
X103154538Y-125079818D01*
X103160258Y-125086932D01*
X103158976Y-125095446D01*
X103155510Y-125110249D01*
X103147085Y-125147980D01*
X103134032Y-125207120D01*
X103116683Y-125286149D01*
X103095368Y-125383549D01*
X103070419Y-125497800D01*
X103042167Y-125627385D01*
X103010944Y-125770783D01*
X102977080Y-125926476D01*
X102940907Y-126092946D01*
X102902756Y-126268673D01*
X102862958Y-126452137D01*
X102832410Y-126593058D01*
X102791579Y-126781439D01*
X102752145Y-126963306D01*
X102714440Y-127137130D01*
X102678796Y-127301385D01*
X102645545Y-127454543D01*
X102615018Y-127595077D01*
X102587548Y-127721460D01*
X102563467Y-127832163D01*
X102543106Y-127925660D01*
X102526798Y-128000424D01*
X102514875Y-128054927D01*
X102507668Y-128087641D01*
X102505566Y-128096923D01*
X102500685Y-128110204D01*
X102490761Y-128118479D01*
X102470723Y-128122922D01*
X102435501Y-128124706D01*
X102384194Y-128125006D01*
X102269867Y-128124951D01*
X102158632Y-127634140D01*
X102134167Y-127526657D01*
X102111178Y-127426556D01*
X102090296Y-127336520D01*
X102072154Y-127259232D01*
X102057382Y-127197377D01*
X102046613Y-127153637D01*
X102040477Y-127130696D01*
X102039552Y-127128098D01*
X102035200Y-127136496D01*
X102026061Y-127166840D01*
X102012753Y-127216659D01*
X101995895Y-127283477D01*
X101976107Y-127364822D01*
X101954007Y-127458220D01*
X101930215Y-127561197D01*
X101920631Y-127603332D01*
X101896245Y-127710786D01*
X101873430Y-127810876D01*
X101852808Y-127900915D01*
X101834997Y-127978217D01*
X101820618Y-128040094D01*
X101810290Y-128083861D01*
X101804634Y-128106831D01*
X101803883Y-128109429D01*
X101790649Y-128117883D01*
X101757015Y-128122985D01*
X101700958Y-128125004D01*
X101686601Y-128125062D01*
X101626286Y-128123691D01*
X101588660Y-128119383D01*
X101571536Y-128111845D01*
X101570206Y-128109429D01*
X101567599Y-128094670D01*
X101561661Y-128057254D01*
X101552709Y-127999269D01*
X101541057Y-127922801D01*
X101527020Y-127829941D01*
X101510913Y-127722774D01*
X101493053Y-127603389D01*
X101473753Y-127473875D01*
X101453329Y-127336318D01*
X101444195Y-127274643D01*
X101423286Y-127133410D01*
X101403322Y-126998668D01*
X101384628Y-126872588D01*
X101367524Y-126757345D01*
X101352335Y-126655109D01*
X101339382Y-126568053D01*
X101328990Y-126498350D01*
X101321480Y-126448172D01*
X101317176Y-126419691D01*
X101316421Y-126414845D01*
X101309874Y-126374200D01*
X101423328Y-126374200D01*
X101473932Y-126375168D01*
X101514231Y-126377758D01*
X101538299Y-126381505D01*
X101542347Y-126383580D01*
X101544815Y-126397436D01*
X101549870Y-126433831D01*
X101557226Y-126490454D01*
X101566598Y-126564997D01*
X101577701Y-126655150D01*
X101590248Y-126758606D01*
X101603954Y-126873055D01*
X101618534Y-126996188D01*
X101626268Y-127062039D01*
X101641232Y-127188740D01*
X101655556Y-127307942D01*
X101668946Y-127417336D01*
X101681106Y-127514613D01*
X101691743Y-127597463D01*
X101700562Y-127663576D01*
X101707269Y-127710644D01*
X101711570Y-127736357D01*
X101712746Y-127740510D01*
X101717087Y-127730922D01*
X101725857Y-127699493D01*
X101738432Y-127648881D01*
X101754188Y-127581740D01*
X101772503Y-127500727D01*
X101792752Y-127408498D01*
X101814030Y-127309047D01*
X101907189Y-126868193D01*
X102033915Y-126864645D01*
X102091233Y-126863300D01*
X102128330Y-126863727D01*
X102149983Y-126866821D01*
X102160967Y-126873477D01*
X102166060Y-126884592D01*
X102167325Y-126889658D01*
X102171428Y-126908285D01*
X102180080Y-126948365D01*
X102192635Y-127006883D01*
X102208451Y-127080824D01*
X102226880Y-127167174D01*
X102247278Y-127262919D01*
X102265319Y-127347719D01*
X102291375Y-127468473D01*
X102313930Y-127569247D01*
X102332770Y-127649172D01*
X102347679Y-127707381D01*
X102358443Y-127743003D01*
X102364847Y-127755169D01*
X102365865Y-127754169D01*
X102369616Y-127739011D01*
X102378089Y-127700988D01*
X102390942Y-127641728D01*
X102407829Y-127562862D01*
X102428409Y-127466016D01*
X102452336Y-127352822D01*
X102479268Y-127224906D01*
X102508860Y-127083899D01*
X102540770Y-126931428D01*
X102574654Y-126769124D01*
X102610167Y-126598614D01*
X102645109Y-126430478D01*
X102681846Y-126253567D01*
X102717239Y-126083230D01*
X102750948Y-125921103D01*
X102782629Y-125768823D01*
X102811944Y-125628027D01*
X102838549Y-125500353D01*
X102862104Y-125387437D01*
X102882267Y-125290916D01*
X102898698Y-125212427D01*
X102911055Y-125153608D01*
X102918996Y-125116094D01*
X102922135Y-125101699D01*
X102926897Y-125088601D01*
X102936571Y-125080356D01*
X102956132Y-125075845D01*
X102990556Y-125073953D01*
X103044818Y-125073560D01*
X103047448Y-125073560D01*
X103102426Y-125073975D01*
G37*
G36*
X102010537Y-130053224D02*
G01*
X102018263Y-129974440D01*
X102029855Y-129913442D01*
X102059663Y-129823267D01*
X102096259Y-129751266D01*
X102143074Y-129690827D01*
X102148311Y-129685308D01*
X102199716Y-129642072D01*
X102257261Y-129615278D01*
X102326695Y-129603020D01*
X102398093Y-129602551D01*
X102479267Y-129612912D01*
X102544266Y-129637705D01*
X102599169Y-129679949D01*
X102633148Y-129719274D01*
X102674326Y-129789770D01*
X102706844Y-129879346D01*
X102730172Y-129983428D01*
X102743778Y-130097440D01*
X102747130Y-130216809D01*
X102739698Y-130336958D01*
X102720951Y-130453315D01*
X102719279Y-130460853D01*
X102685784Y-130566283D01*
X102637453Y-130652461D01*
X102574704Y-130718771D01*
X102520358Y-130754112D01*
X102462001Y-130774198D01*
X102391637Y-130783817D01*
X102320306Y-130782224D01*
X102266388Y-130771248D01*
X102190068Y-130734152D01*
X102126760Y-130676662D01*
X102076040Y-130598241D01*
X102037481Y-130498348D01*
X102029936Y-130470910D01*
X102018323Y-130407332D01*
X102010576Y-130326836D01*
X102006695Y-130236360D01*
X102006682Y-130144806D01*
X102167182Y-130144806D01*
X102167430Y-130284750D01*
X102177721Y-130402029D01*
X102198129Y-130496918D01*
X102228728Y-130569692D01*
X102269592Y-130620626D01*
X102301200Y-130641906D01*
X102354246Y-130660840D01*
X102403413Y-130659264D01*
X102446617Y-130643425D01*
X102484080Y-130616016D01*
X102516627Y-130575561D01*
X102519016Y-130571514D01*
X102542248Y-130524490D01*
X102559405Y-130473242D01*
X102571210Y-130413306D01*
X102578386Y-130340213D01*
X102581657Y-130249498D01*
X102582040Y-130182324D01*
X102579984Y-130074424D01*
X102573824Y-129987609D01*
X102562709Y-129918165D01*
X102545787Y-129862378D01*
X102522209Y-129816533D01*
X102491124Y-129776917D01*
X102488534Y-129774164D01*
X102458625Y-129745356D01*
X102432972Y-129731030D01*
X102400092Y-129726228D01*
X102376635Y-129725850D01*
X102335154Y-129727808D01*
X102306456Y-129736951D01*
X102278799Y-129758180D01*
X102263454Y-129773092D01*
X102232664Y-129809168D01*
X102209130Y-129850513D01*
X102191830Y-129901075D01*
X102179739Y-129964803D01*
X102171835Y-130045647D01*
X102167182Y-130144806D01*
X102006682Y-130144806D01*
X102006682Y-130142843D01*
X102010537Y-130053224D01*
G37*
%TO.C,R707*%
X96096359Y-111370000D02*
X96403641Y-111370000D01*
X96096359Y-112130000D02*
X96403641Y-112130000D01*
%TO.C,C716*%
X103360000Y-105142164D02*
X103360000Y-105357836D01*
X102640000Y-105142164D02*
X102640000Y-105357836D01*
%TO.C,R705*%
X105630000Y-111346359D02*
X105630000Y-111653641D01*
X104870000Y-111346359D02*
X104870000Y-111653641D01*
%TO.C,C703*%
X101992164Y-108360000D02*
X102207836Y-108360000D01*
X101992164Y-107640000D02*
X102207836Y-107640000D01*
%TO.C,J701*%
X103500000Y-105750000D02*
X104300000Y-105750000D01*
X106500000Y-108550000D02*
X106500000Y-108750000D01*
X106300000Y-105750000D02*
X106500000Y-105950000D01*
X106500000Y-108750000D02*
X105700000Y-108750000D01*
X103500000Y-108750000D02*
X103500000Y-108550000D01*
X104300000Y-108750000D02*
X103500000Y-108750000D01*
X104300000Y-105750000D02*
X104300000Y-105250000D01*
X105700000Y-105750000D02*
X105700000Y-105250000D01*
X105700000Y-105750000D02*
X106300000Y-105750000D01*
X103500000Y-105950000D02*
X103500000Y-105750000D01*
%TO.C,R601*%
X94370000Y-57346359D02*
X94370000Y-57653641D01*
X95130000Y-57346359D02*
X95130000Y-57653641D01*
%TO.C,R33*%
X86511359Y-76125000D02*
X86818641Y-76125000D01*
X86511359Y-76885000D02*
X86818641Y-76885000D01*
%TO.C,SW701*%
X101150000Y-121060000D02*
X101150000Y-114940000D01*
X104850000Y-121060000D02*
X101150000Y-121060000D01*
X101150000Y-114940000D02*
X104850000Y-114940000D01*
X104850000Y-114940000D02*
X104850000Y-121060000D01*
%TO.C,U602*%
X103900000Y-61140000D02*
X101450000Y-61140000D01*
X102100000Y-64360000D02*
X103900000Y-64360000D01*
D14*
X101093000Y-60972000D02*
G75*
G03*
X101093000Y-60972000I-125000J0D01*
G01*
D12*
%TO.C,J702*%
X97202530Y-111025000D02*
X98025000Y-111025000D01*
X96188471Y-106010000D02*
X96331529Y-106010000D01*
X95932530Y-111025000D02*
X96587470Y-111025000D01*
X96385000Y-105956529D02*
X96385000Y-105813471D01*
X94495000Y-105250000D02*
X94495000Y-104490000D01*
X98025000Y-104555000D02*
X98025000Y-111025000D01*
X94495000Y-104490000D02*
X95625000Y-104490000D01*
X94495000Y-111025000D02*
X95317470Y-111025000D01*
X96385000Y-104686529D02*
X96385000Y-104555000D01*
X94495000Y-106010000D02*
X95061529Y-106010000D01*
X94495000Y-106010000D02*
X94495000Y-111025000D01*
X97202530Y-104555000D02*
X98025000Y-104555000D01*
X96385000Y-104555000D02*
X96587470Y-104555000D01*
%TO.C,R603*%
X98880000Y-58096359D02*
X98880000Y-58403641D01*
X98120000Y-58096359D02*
X98120000Y-58403641D01*
%TO.C,R602*%
X101880000Y-58096359D02*
X101880000Y-58403641D01*
X101120000Y-58096359D02*
X101120000Y-58403641D01*
%TO.C,U701*%
X102960000Y-96390000D02*
X103610000Y-96390000D01*
X96390000Y-96390000D02*
X96390000Y-97040000D01*
X97040000Y-96390000D02*
X96390000Y-96390000D01*
X96390000Y-103610000D02*
X96390000Y-102960000D01*
X97040000Y-103610000D02*
X96390000Y-103610000D01*
X102960000Y-103610000D02*
X103610000Y-103610000D01*
X103610000Y-96390000D02*
X103610000Y-97040000D01*
%TO.C,C712*%
X105142164Y-101140000D02*
X105357836Y-101140000D01*
X105142164Y-101860000D02*
X105357836Y-101860000D01*
%TO.C,C602*%
X101892164Y-60860000D02*
X102107836Y-60860000D01*
X101892164Y-60140000D02*
X102107836Y-60140000D01*
%TO.C,R36*%
X137085000Y-69673641D02*
X137085000Y-69366359D01*
X137845000Y-69673641D02*
X137845000Y-69366359D01*
%TO.C,C705*%
X101392164Y-90360000D02*
X101607836Y-90360000D01*
X101392164Y-89640000D02*
X101607836Y-89640000D01*
%TO.C,R34*%
X110415000Y-69673641D02*
X110415000Y-69366359D01*
X111175000Y-69673641D02*
X111175000Y-69366359D01*
%TO.C,C701*%
X105390000Y-104107836D02*
X105390000Y-103892164D01*
X106110000Y-104107836D02*
X106110000Y-103892164D01*
%TO.C,R702*%
X101653641Y-86380000D02*
X101346359Y-86380000D01*
X101653641Y-85620000D02*
X101346359Y-85620000D01*
%TO.C,R8*%
X59841359Y-76885000D02*
X60148641Y-76885000D01*
X59841359Y-76125000D02*
X60148641Y-76125000D01*
%TO.C,R37*%
X139851359Y-76885000D02*
X140158641Y-76885000D01*
X139851359Y-76125000D02*
X140158641Y-76125000D01*
%TO.C,C601*%
X105610000Y-57392164D02*
X105610000Y-57607836D01*
X104890000Y-57392164D02*
X104890000Y-57607836D01*
%TO.C,C713*%
X100390000Y-94857836D02*
X100390000Y-94642164D01*
X101110000Y-94857836D02*
X101110000Y-94642164D01*
%TO.C,R10*%
X84505000Y-69673641D02*
X84505000Y-69366359D01*
X83745000Y-69673641D02*
X83745000Y-69366359D01*
%TO.C,C702*%
X105142164Y-102140000D02*
X105357836Y-102140000D01*
X105142164Y-102860000D02*
X105357836Y-102860000D01*
%TO.C,C603*%
X103892164Y-60860000D02*
X104107836Y-60860000D01*
X103892164Y-60140000D02*
X104107836Y-60140000D01*
%TO.C,C714*%
X99110000Y-105142164D02*
X99110000Y-105357836D01*
X98390000Y-105142164D02*
X98390000Y-105357836D01*
%TO.C,C704*%
X100457836Y-108360000D02*
X100242164Y-108360000D01*
X100457836Y-107640000D02*
X100242164Y-107640000D01*
%TO.C,Y701*%
X103250000Y-111900000D02*
X103250000Y-108600000D01*
X103250000Y-108600000D02*
X99250000Y-108600000D01*
%TO.C,R703*%
X101346359Y-88620000D02*
X101653641Y-88620000D01*
X101346359Y-89380000D02*
X101653641Y-89380000D01*
%TO.C,R701*%
X101653641Y-87380000D02*
X101346359Y-87380000D01*
X101653641Y-86620000D02*
X101346359Y-86620000D01*
%TO.C,SW702*%
X98850000Y-121060000D02*
X95150000Y-121060000D01*
X98850000Y-114940000D02*
X98850000Y-121060000D01*
X95150000Y-114940000D02*
X98850000Y-114940000D01*
X95150000Y-121060000D02*
X95150000Y-114940000D01*
%TO.C,C715*%
X101640000Y-105142164D02*
X101640000Y-105357836D01*
X102360000Y-105142164D02*
X102360000Y-105357836D01*
%TO.C,C707*%
X105890000Y-111607836D02*
X105890000Y-111392164D01*
X106610000Y-111607836D02*
X106610000Y-111392164D01*
%TO.C,R4*%
X57075000Y-69673641D02*
X57075000Y-69366359D01*
X57835000Y-69673641D02*
X57835000Y-69366359D01*
%TO.C,L601*%
X100000000Y-62546800D02*
X100000000Y-62826200D01*
X99593600Y-62546800D02*
X100406400Y-62546800D01*
X100710000Y-62491422D02*
X100710000Y-63008578D01*
X100406400Y-62546800D02*
X100406400Y-62826200D01*
X99290000Y-62491422D02*
X99290000Y-63008578D01*
X99593600Y-62546800D02*
X99593600Y-62775400D01*
X100000000Y-62546800D02*
X100000000Y-62775400D01*
X99593600Y-62775400D02*
G75*
G03*
X100000000Y-62775400I203200J0D01*
G01*
X100000000Y-62775400D02*
G75*
G03*
X100406400Y-62775400I203200J0D01*
G01*
%TO.C,R35*%
X113181359Y-76885000D02*
X113488641Y-76885000D01*
X113181359Y-76125000D02*
X113488641Y-76125000D01*
%TO.C,U601*%
X97900000Y-61140000D02*
X95450000Y-61140000D01*
X96100000Y-64360000D02*
X97900000Y-64360000D01*
D14*
X95347000Y-60972000D02*
G75*
G03*
X95347000Y-60972000I-125000J0D01*
G01*
D12*
%TO.C,UI7*%
X108835000Y-122500000D02*
X108835000Y-77500000D01*
X112335000Y-118000000D02*
X112335000Y-82000000D01*
X114335000Y-118000000D02*
X112335000Y-118000000D01*
X108835000Y-77500000D02*
X117835000Y-77500000D01*
X117835000Y-122500000D02*
X108835000Y-122500000D01*
X117835000Y-77500000D02*
X117835000Y-122500000D01*
X112335000Y-82000000D02*
X114335000Y-82000000D01*
X112835000Y-99500000D02*
X113835000Y-100500000D01*
X112835000Y-100500000D02*
X113835000Y-99500000D01*
X114335000Y-82000000D02*
X114335000Y-118000000D01*
X114335000Y-120500000D02*
G75*
G03*
X114335000Y-120500000I-1000000J0D01*
G01*
X114335000Y-79500000D02*
G75*
G03*
X114335000Y-79500000I-1000000J0D01*
G01*
%TO.C,C7*%
X111409000Y-74492164D02*
X111409000Y-74707836D01*
X110689000Y-74492164D02*
X110689000Y-74707836D01*
%TO.C,D7*%
X115035000Y-76000000D02*
X115035000Y-75100000D01*
X114785000Y-75150000D02*
X114785000Y-75750000D01*
X111885000Y-73450000D02*
X114785000Y-73450000D01*
X111885000Y-75750000D02*
X114785000Y-75750000D01*
X114135000Y-76000000D02*
X115035000Y-76000000D01*
%TO.C,C5*%
X57349000Y-74492164D02*
X57349000Y-74707836D01*
X58069000Y-74492164D02*
X58069000Y-74707836D01*
%TO.C,D5*%
X61445000Y-75150000D02*
X61445000Y-75750000D01*
X60795000Y-76000000D02*
X61695000Y-76000000D01*
X58545000Y-75750000D02*
X61445000Y-75750000D01*
X61695000Y-76000000D02*
X61695000Y-75100000D01*
X58545000Y-73450000D02*
X61445000Y-73450000D01*
%TO.C,UI5*%
X59495000Y-100500000D02*
X60495000Y-99500000D01*
X59495000Y-99500000D02*
X60495000Y-100500000D01*
X64495000Y-122500000D02*
X55495000Y-122500000D01*
X55495000Y-122500000D02*
X55495000Y-77500000D01*
X64495000Y-77500000D02*
X64495000Y-122500000D01*
X58995000Y-118000000D02*
X58995000Y-82000000D01*
X58995000Y-82000000D02*
X60995000Y-82000000D01*
X60995000Y-118000000D02*
X58995000Y-118000000D01*
X55495000Y-77500000D02*
X64495000Y-77500000D01*
X60995000Y-82000000D02*
X60995000Y-118000000D01*
X60995000Y-120500000D02*
G75*
G03*
X60995000Y-120500000I-1000000J0D01*
G01*
X60995000Y-79500000D02*
G75*
G03*
X60995000Y-79500000I-1000000J0D01*
G01*
%TO.C,UI8*%
X141005000Y-82000000D02*
X141005000Y-118000000D01*
X135505000Y-77500000D02*
X144505000Y-77500000D01*
X139005000Y-118000000D02*
X139005000Y-82000000D01*
X139505000Y-100500000D02*
X140505000Y-99500000D01*
X144505000Y-122500000D02*
X135505000Y-122500000D01*
X135505000Y-122500000D02*
X135505000Y-77500000D01*
X139505000Y-99500000D02*
X140505000Y-100500000D01*
X139005000Y-82000000D02*
X141005000Y-82000000D01*
X144505000Y-77500000D02*
X144505000Y-122500000D01*
X141005000Y-118000000D02*
X139005000Y-118000000D01*
X141005000Y-79500000D02*
G75*
G03*
X141005000Y-79500000I-1000000J0D01*
G01*
X141005000Y-120500000D02*
G75*
G03*
X141005000Y-120500000I-1000000J0D01*
G01*
%TO.C,UI6*%
X82165000Y-122500000D02*
X82165000Y-77500000D01*
X91165000Y-122500000D02*
X82165000Y-122500000D01*
X85665000Y-82000000D02*
X87665000Y-82000000D01*
X87665000Y-118000000D02*
X85665000Y-118000000D01*
X86165000Y-100500000D02*
X87165000Y-99500000D01*
X86165000Y-99500000D02*
X87165000Y-100500000D01*
X85665000Y-118000000D02*
X85665000Y-82000000D01*
X82165000Y-77500000D02*
X91165000Y-77500000D01*
X87665000Y-82000000D02*
X87665000Y-118000000D01*
X91165000Y-77500000D02*
X91165000Y-122500000D01*
X87665000Y-79500000D02*
G75*
G03*
X87665000Y-79500000I-1000000J0D01*
G01*
X87665000Y-120500000D02*
G75*
G03*
X87665000Y-120500000I-1000000J0D01*
G01*
%TO.C,C706*%
X101392164Y-91360000D02*
X101607836Y-91360000D01*
X101392164Y-90640000D02*
X101607836Y-90640000D01*
%TO.C,U3*%
X101500000Y-78060000D02*
X99550000Y-78060000D01*
X101500000Y-78060000D02*
X104950000Y-78060000D01*
X101500000Y-67940000D02*
X99550000Y-67940000D01*
X101500000Y-67940000D02*
X103450000Y-67940000D01*
X102000000Y-78000000D02*
G75*
G03*
X101000000Y-78000000I-500000J0D01*
G01*
D15*
X104750000Y-79500000D02*
G75*
G03*
X104750000Y-79500000I-250000J0D01*
G01*
D12*
%TO.C,C35*%
X67128000Y-97098164D02*
X67128000Y-97313836D01*
X67848000Y-97098164D02*
X67848000Y-97313836D01*
%TO.C,C52*%
X121188000Y-97098164D02*
X121188000Y-97313836D01*
X120468000Y-97098164D02*
X120468000Y-97313836D01*
%TO.C,C33*%
X99107836Y-78527500D02*
X98892164Y-78527500D01*
X99107836Y-79247500D02*
X98892164Y-79247500D01*
%TO.C,C1*%
X58069000Y-52267164D02*
X58069000Y-52482836D01*
X57349000Y-52267164D02*
X57349000Y-52482836D01*
%TO.C,U702*%
X99965000Y-85525000D02*
X99965000Y-83850000D01*
X94775000Y-85525000D02*
X95035000Y-85525000D01*
X94775000Y-88250000D02*
X94775000Y-85525000D01*
X100225000Y-85525000D02*
X99965000Y-85525000D01*
X100225000Y-90975000D02*
X99965000Y-90975000D01*
X94775000Y-90975000D02*
X95035000Y-90975000D01*
X100225000Y-88250000D02*
X100225000Y-90975000D01*
X94775000Y-88250000D02*
X94775000Y-90975000D01*
X100225000Y-88250000D02*
X100225000Y-85525000D01*
D15*
X100798000Y-83170000D02*
G75*
G03*
X100798000Y-83170000I-250000J0D01*
G01*
D12*
%TO.C,R32*%
X126415000Y-107364759D02*
X126415000Y-107672041D01*
X125655000Y-107364759D02*
X125655000Y-107672041D01*
%TO.C,R30*%
X126925000Y-107364759D02*
X126925000Y-107672041D01*
X127685000Y-107364759D02*
X127685000Y-107672041D01*
%TO.C,R31*%
X123115000Y-107313959D02*
X123115000Y-107621241D01*
X123875000Y-107313959D02*
X123875000Y-107621241D01*
%TO.C,R29*%
X121845000Y-107339359D02*
X121845000Y-107646641D01*
X122605000Y-107339359D02*
X122605000Y-107646641D01*
%TO.C,C32*%
X125675000Y-104845164D02*
X125675000Y-105060836D01*
X126395000Y-104845164D02*
X126395000Y-105060836D01*
%TO.C,C30*%
X127665000Y-104845164D02*
X127665000Y-105060836D01*
X126945000Y-104845164D02*
X126945000Y-105060836D01*
%TO.C,C31*%
X123855000Y-104845164D02*
X123855000Y-105060836D01*
X123135000Y-104845164D02*
X123135000Y-105060836D01*
%TO.C,R704*%
X103870000Y-111346359D02*
X103870000Y-111653641D01*
X104630000Y-111346359D02*
X104630000Y-111653641D01*
%TO.C,R26*%
X125655000Y-92660641D02*
X125655000Y-92353359D01*
X126415000Y-92660641D02*
X126415000Y-92353359D01*
%TO.C,C24*%
X72335000Y-104845164D02*
X72335000Y-105060836D01*
X73055000Y-104845164D02*
X73055000Y-105060836D01*
%TO.C,C22*%
X73605000Y-104845164D02*
X73605000Y-105060836D01*
X74325000Y-104845164D02*
X74325000Y-105060836D01*
%TO.C,C23*%
X70515000Y-104845164D02*
X70515000Y-105060836D01*
X69795000Y-104845164D02*
X69795000Y-105060836D01*
%TO.C,C21*%
X69245000Y-104845164D02*
X69245000Y-105060836D01*
X68525000Y-104845164D02*
X68525000Y-105060836D01*
%TO.C,R24*%
X73075000Y-107466359D02*
X73075000Y-107773641D01*
X72315000Y-107466359D02*
X72315000Y-107773641D01*
%TO.C,R22*%
X74345000Y-107466359D02*
X74345000Y-107773641D01*
X73585000Y-107466359D02*
X73585000Y-107773641D01*
%TO.C,R23*%
X70535000Y-107339359D02*
X70535000Y-107646641D01*
X69775000Y-107339359D02*
X69775000Y-107646641D01*
%TO.C,R21*%
X68505000Y-107339359D02*
X68505000Y-107646641D01*
X69265000Y-107339359D02*
X69265000Y-107646641D01*
%TO.C,UI1*%
X55995000Y-61995000D02*
X55995000Y-64995000D01*
X55995000Y-54995000D02*
X55995000Y-57995000D01*
X57495000Y-61495000D02*
X62495000Y-61495000D01*
X56995000Y-53995000D02*
X62995000Y-53995000D01*
X63995000Y-64995000D02*
X63995000Y-61995000D01*
X59495000Y-59495000D02*
X60495000Y-60495000D01*
X56995000Y-65995000D02*
X62995000Y-65995000D01*
X63995000Y-57995000D02*
X63995000Y-54995000D01*
X59495000Y-60495000D02*
X60495000Y-59495000D01*
X63995000Y-54995000D02*
G75*
G03*
X62995000Y-53995000I-1000000J0D01*
G01*
X55995000Y-64995000D02*
G75*
G03*
X56995000Y-65995000I999999J-1D01*
G01*
X56995000Y-53995000D02*
G75*
G03*
X55995000Y-54995000I-1J-999999D01*
G01*
X62995000Y-65995000D02*
G75*
G03*
X63995000Y-64995000I0J1000000D01*
G01*
X62995000Y-59995000D02*
G75*
G03*
X62995000Y-59995000I-3000000J0D01*
G01*
%TO.C,U1*%
X78390000Y-100000000D02*
X78390000Y-101950000D01*
X68270000Y-100000000D02*
X68270000Y-98050000D01*
X68270000Y-100000000D02*
X68270000Y-103450000D01*
X78390000Y-100000000D02*
X78390000Y-98050000D01*
X68330000Y-100500000D02*
G75*
G03*
X68330000Y-99500000I0J500000D01*
G01*
D15*
X67080000Y-103000000D02*
G75*
G03*
X67080000Y-103000000I-250000J0D01*
G01*
D12*
%TO.C,C28*%
X126945000Y-95154836D02*
X126945000Y-94939164D01*
X127665000Y-95154836D02*
X127665000Y-94939164D01*
%TO.C,C26*%
X124405000Y-95154836D02*
X124405000Y-94939164D01*
X125125000Y-95154836D02*
X125125000Y-94939164D01*
%TO.C,C27*%
X123135000Y-95154836D02*
X123135000Y-94939164D01*
X123855000Y-95154836D02*
X123855000Y-94939164D01*
%TO.C,C25*%
X125675000Y-95154836D02*
X125675000Y-94939164D01*
X126395000Y-95154836D02*
X126395000Y-94939164D01*
%TO.C,U2*%
X121610000Y-100000000D02*
X121610000Y-98050000D01*
X131730000Y-100000000D02*
X131730000Y-98050000D01*
X131730000Y-100000000D02*
X131730000Y-101950000D01*
X121610000Y-100000000D02*
X121610000Y-103450000D01*
X121670000Y-100500000D02*
G75*
G03*
X121670000Y-99500000I0J500000D01*
G01*
D15*
X120420000Y-103000000D02*
G75*
G03*
X120420000Y-103000000I-250000J0D01*
G01*
D12*
%TO.C,R28*%
X126925000Y-92660641D02*
X126925000Y-92353359D01*
X127685000Y-92660641D02*
X127685000Y-92353359D01*
%TO.C,R27*%
X123875000Y-92660641D02*
X123875000Y-92353359D01*
X123115000Y-92660641D02*
X123115000Y-92353359D01*
%TO.C,R25*%
X124385000Y-92660641D02*
X124385000Y-92353359D01*
X125145000Y-92660641D02*
X125145000Y-92353359D01*
%TO.C,UI29*%
X55495000Y-134005000D02*
X64495000Y-134005000D01*
X64495000Y-134005000D02*
X65995000Y-135505000D01*
X54995000Y-137505000D02*
X55995000Y-137505000D01*
X55495000Y-146005000D02*
X53995000Y-144505000D01*
X64495000Y-146005000D02*
X55495000Y-146005000D01*
X65995000Y-144505000D02*
X64495000Y-146005000D01*
X53995000Y-135505000D02*
X55495000Y-134005000D01*
X64995000Y-142505000D02*
X63995000Y-142505000D01*
X64995000Y-137505000D02*
X63995000Y-137505000D01*
X53995000Y-144505000D02*
X53995000Y-135505000D01*
X65995000Y-135505000D02*
X65995000Y-144505000D01*
X59495000Y-139505000D02*
X60495000Y-140505000D01*
X59495000Y-140505000D02*
X60495000Y-139505000D01*
X54995000Y-142505000D02*
X55995000Y-142505000D01*
%TO.C,C16*%
X137359000Y-132277164D02*
X137359000Y-132492836D01*
X138079000Y-132277164D02*
X138079000Y-132492836D01*
%TO.C,C14*%
X84019000Y-132277164D02*
X84019000Y-132492836D01*
X84739000Y-132277164D02*
X84739000Y-132492836D01*
%TO.C,C6*%
X84739000Y-74492164D02*
X84739000Y-74707836D01*
X84019000Y-74492164D02*
X84019000Y-74707836D01*
%TO.C,C13*%
X57349000Y-132277164D02*
X57349000Y-132492836D01*
X58069000Y-132277164D02*
X58069000Y-132492836D01*
%TO.C,UI32*%
X144505000Y-146005000D02*
X135505000Y-146005000D01*
X135505000Y-134005000D02*
X144505000Y-134005000D01*
X139505000Y-139505000D02*
X140505000Y-140505000D01*
X146005000Y-144505000D02*
X144505000Y-146005000D01*
X134005000Y-135505000D02*
X135505000Y-134005000D01*
X135005000Y-142505000D02*
X136005000Y-142505000D01*
X144505000Y-134005000D02*
X146005000Y-135505000D01*
X145005000Y-137505000D02*
X144005000Y-137505000D01*
X135505000Y-146005000D02*
X134005000Y-144505000D01*
X145005000Y-142505000D02*
X144005000Y-142505000D01*
X146005000Y-135505000D02*
X146005000Y-144505000D01*
X139505000Y-140505000D02*
X140505000Y-139505000D01*
X135005000Y-137505000D02*
X136005000Y-137505000D01*
X134005000Y-144505000D02*
X134005000Y-135505000D01*
%TO.C,UI31*%
X119335000Y-144505000D02*
X117835000Y-146005000D01*
X112835000Y-140505000D02*
X113835000Y-139505000D01*
X117835000Y-146005000D02*
X108835000Y-146005000D01*
X112835000Y-139505000D02*
X113835000Y-140505000D01*
X107335000Y-135505000D02*
X108835000Y-134005000D01*
X108335000Y-142505000D02*
X109335000Y-142505000D01*
X117835000Y-134005000D02*
X119335000Y-135505000D01*
X118335000Y-142505000D02*
X117335000Y-142505000D01*
X108835000Y-146005000D02*
X107335000Y-144505000D01*
X108835000Y-134005000D02*
X117835000Y-134005000D01*
X119335000Y-135505000D02*
X119335000Y-144505000D01*
X108335000Y-137505000D02*
X109335000Y-137505000D01*
X118335000Y-137505000D02*
X117335000Y-137505000D01*
X107335000Y-144505000D02*
X107335000Y-135505000D01*
%TO.C,UI30*%
X91165000Y-146005000D02*
X82165000Y-146005000D01*
X91665000Y-142505000D02*
X90665000Y-142505000D01*
X92665000Y-135505000D02*
X92665000Y-144505000D01*
X82165000Y-134005000D02*
X91165000Y-134005000D01*
X81665000Y-137505000D02*
X82665000Y-137505000D01*
X86165000Y-140505000D02*
X87165000Y-139505000D01*
X82165000Y-146005000D02*
X80665000Y-144505000D01*
X91165000Y-134005000D02*
X92665000Y-135505000D01*
X91665000Y-137505000D02*
X90665000Y-137505000D01*
X92665000Y-144505000D02*
X91165000Y-146005000D01*
X86165000Y-139505000D02*
X87165000Y-140505000D01*
X80665000Y-135505000D02*
X82165000Y-134005000D01*
X81665000Y-142505000D02*
X82665000Y-142505000D01*
X80665000Y-144505000D02*
X80665000Y-135505000D01*
%TO.C,UI4*%
X136005000Y-61995000D02*
X136005000Y-64995000D01*
X144005000Y-57995000D02*
X144005000Y-54995000D01*
X139505000Y-60495000D02*
X140505000Y-59495000D01*
X144005000Y-64995000D02*
X144005000Y-61995000D01*
X137005000Y-65995000D02*
X143005000Y-65995000D01*
X137005000Y-53995000D02*
X143005000Y-53995000D01*
X139505000Y-59495000D02*
X140505000Y-60495000D01*
X137505000Y-61495000D02*
X142505000Y-61495000D01*
X136005000Y-54995000D02*
X136005000Y-57995000D01*
X137005000Y-53995000D02*
G75*
G03*
X136005000Y-54995000I-1J-999999D01*
G01*
X143005000Y-65995000D02*
G75*
G03*
X144005000Y-64995000I0J1000000D01*
G01*
X136005000Y-64995000D02*
G75*
G03*
X137005000Y-65995000I999999J-1D01*
G01*
X144005000Y-54995000D02*
G75*
G03*
X143005000Y-53995000I-1000000J0D01*
G01*
X143005000Y-59995000D02*
G75*
G03*
X143005000Y-59995000I-3000000J0D01*
G01*
%TO.C,UI3*%
X112835000Y-59495000D02*
X113835000Y-60495000D01*
X110335000Y-65995000D02*
X116335000Y-65995000D01*
X112835000Y-60495000D02*
X113835000Y-59495000D01*
X117335000Y-64995000D02*
X117335000Y-61995000D01*
X109335000Y-54995000D02*
X109335000Y-57995000D01*
X110835000Y-61495000D02*
X115835000Y-61495000D01*
X117335000Y-57995000D02*
X117335000Y-54995000D01*
X109335000Y-61995000D02*
X109335000Y-64995000D01*
X110335000Y-53995000D02*
X116335000Y-53995000D01*
X109335000Y-64995000D02*
G75*
G03*
X110335000Y-65995000I999999J-1D01*
G01*
X116335000Y-65995000D02*
G75*
G03*
X117335000Y-64995000I0J1000000D01*
G01*
X110335000Y-53995000D02*
G75*
G03*
X109335000Y-54995000I-1J-999999D01*
G01*
X117335000Y-54995000D02*
G75*
G03*
X116335000Y-53995000I-1000000J0D01*
G01*
X116335000Y-59995000D02*
G75*
G03*
X116335000Y-59995000I-3000000J0D01*
G01*
%TO.C,UI2*%
X86165000Y-59495000D02*
X87165000Y-60495000D01*
X84165000Y-61495000D02*
X89165000Y-61495000D01*
X82665000Y-61995000D02*
X82665000Y-64995000D01*
X83665000Y-53995000D02*
X89665000Y-53995000D01*
X90665000Y-57995000D02*
X90665000Y-54995000D01*
X83665000Y-65995000D02*
X89665000Y-65995000D01*
X82665000Y-54995000D02*
X82665000Y-57995000D01*
X90665000Y-64995000D02*
X90665000Y-61995000D01*
X86165000Y-60495000D02*
X87165000Y-59495000D01*
X82665000Y-64995000D02*
G75*
G03*
X83665000Y-65995000I999999J-1D01*
G01*
X90665000Y-54995000D02*
G75*
G03*
X89665000Y-53995000I-1000000J0D01*
G01*
X89665000Y-65995000D02*
G75*
G03*
X90665000Y-64995000I0J1000000D01*
G01*
X83665000Y-53995000D02*
G75*
G03*
X82665000Y-54995000I-1J-999999D01*
G01*
X89665000Y-59995000D02*
G75*
G03*
X89665000Y-59995000I-3000000J0D01*
G01*
%TO.C,R706*%
X100620000Y-142653641D02*
X100620000Y-142346359D01*
X101380000Y-142653641D02*
X101380000Y-142346359D01*
%TO.C,R20*%
X73585000Y-92660641D02*
X73585000Y-92353359D01*
X74345000Y-92660641D02*
X74345000Y-92353359D01*
%TO.C,R18*%
X72315000Y-92660641D02*
X72315000Y-92353359D01*
X73075000Y-92660641D02*
X73075000Y-92353359D01*
%TO.C,C29*%
X122585000Y-104845164D02*
X122585000Y-105060836D01*
X121865000Y-104845164D02*
X121865000Y-105060836D01*
%TO.C,R19*%
X69775000Y-92660641D02*
X69775000Y-92353359D01*
X70535000Y-92660641D02*
X70535000Y-92353359D01*
%TO.C,R17*%
X71805000Y-92660641D02*
X71805000Y-92353359D01*
X71045000Y-92660641D02*
X71045000Y-92353359D01*
%TO.C,R16*%
X146356000Y-139851359D02*
X146356000Y-140158641D01*
X147116000Y-139851359D02*
X147116000Y-140158641D01*
%TO.C,R15*%
X106224000Y-139851359D02*
X106224000Y-140158641D01*
X106984000Y-139851359D02*
X106984000Y-140158641D01*
%TO.C,R14*%
X93016000Y-139851359D02*
X93016000Y-140158641D01*
X93776000Y-139851359D02*
X93776000Y-140158641D01*
%TO.C,R13*%
X53644000Y-139851359D02*
X53644000Y-140158641D01*
X52884000Y-139851359D02*
X52884000Y-140158641D01*
%TO.C,D4*%
X141455000Y-52925000D02*
X141455000Y-53525000D01*
X138555000Y-51225000D02*
X141455000Y-51225000D01*
X138555000Y-53525000D02*
X141455000Y-53525000D01*
X141705000Y-53775000D02*
X141705000Y-52875000D01*
X140805000Y-53775000D02*
X141705000Y-53775000D01*
%TO.C,D6*%
X85215000Y-75750000D02*
X88115000Y-75750000D01*
X88115000Y-75150000D02*
X88115000Y-75750000D01*
X87465000Y-76000000D02*
X88365000Y-76000000D01*
X85215000Y-73450000D02*
X88115000Y-73450000D01*
X88365000Y-76000000D02*
X88365000Y-75100000D01*
%TO.C,D1*%
X58545000Y-51225000D02*
X61445000Y-51225000D01*
X58545000Y-53525000D02*
X61445000Y-53525000D01*
X61695000Y-53775000D02*
X61695000Y-52875000D01*
X61445000Y-52925000D02*
X61445000Y-53525000D01*
X60795000Y-53775000D02*
X61695000Y-53775000D01*
%TO.C,C20*%
X73605000Y-95154836D02*
X73605000Y-94939164D01*
X74325000Y-95154836D02*
X74325000Y-94939164D01*
%TO.C,C18*%
X71065000Y-95154836D02*
X71065000Y-94939164D01*
X71785000Y-95154836D02*
X71785000Y-94939164D01*
%TO.C,C19*%
X69795000Y-95154836D02*
X69795000Y-94939164D01*
X70515000Y-95154836D02*
X70515000Y-94939164D01*
%TO.C,C17*%
X73055000Y-95154836D02*
X73055000Y-94939164D01*
X72335000Y-95154836D02*
X72335000Y-94939164D01*
%TO.C,C8*%
X137359000Y-74492164D02*
X137359000Y-74707836D01*
X138079000Y-74492164D02*
X138079000Y-74707836D01*
%TO.C,C4*%
X138079000Y-52267164D02*
X138079000Y-52482836D01*
X137359000Y-52267164D02*
X137359000Y-52482836D01*
%TO.C,C15*%
X110689000Y-132277164D02*
X110689000Y-132492836D01*
X111409000Y-132277164D02*
X111409000Y-132492836D01*
%TO.C,C3*%
X110689000Y-52267164D02*
X110689000Y-52482836D01*
X111409000Y-52267164D02*
X111409000Y-52482836D01*
%TO.C,C2*%
X84019000Y-52267164D02*
X84019000Y-52482836D01*
X84739000Y-52267164D02*
X84739000Y-52482836D01*
%TO.C,C708*%
X98640000Y-142392164D02*
X98640000Y-142607836D01*
X99360000Y-142392164D02*
X99360000Y-142607836D01*
%TO.C,D8*%
X140805000Y-76000000D02*
X141705000Y-76000000D01*
X138555000Y-75750000D02*
X141455000Y-75750000D01*
X141705000Y-76000000D02*
X141705000Y-75100000D01*
X138555000Y-73450000D02*
X141455000Y-73450000D01*
X141455000Y-75150000D02*
X141455000Y-75750000D01*
%TO.C,D3*%
X115035000Y-53775000D02*
X115035000Y-52875000D01*
X111885000Y-51225000D02*
X114785000Y-51225000D01*
X114135000Y-53775000D02*
X115035000Y-53775000D01*
X111885000Y-53525000D02*
X114785000Y-53525000D01*
X114785000Y-52925000D02*
X114785000Y-53525000D01*
%TO.C,D2*%
X87465000Y-53775000D02*
X88365000Y-53775000D01*
X85215000Y-53525000D02*
X88115000Y-53525000D01*
X88115000Y-52925000D02*
X88115000Y-53525000D01*
X88365000Y-53775000D02*
X88365000Y-52875000D01*
X85215000Y-51225000D02*
X88115000Y-51225000D01*
%TO.C,D16*%
X138555000Y-131235000D02*
X141455000Y-131235000D01*
X141455000Y-132935000D02*
X141455000Y-133535000D01*
X141705000Y-133785000D02*
X141705000Y-132885000D01*
X138555000Y-133535000D02*
X141455000Y-133535000D01*
X140805000Y-133785000D02*
X141705000Y-133785000D01*
%TO.C,D14*%
X88365000Y-133785000D02*
X88365000Y-132885000D01*
X85215000Y-131235000D02*
X88115000Y-131235000D01*
X85215000Y-133535000D02*
X88115000Y-133535000D01*
X88115000Y-132935000D02*
X88115000Y-133535000D01*
X87465000Y-133785000D02*
X88365000Y-133785000D01*
%TO.C,D15*%
X114785000Y-132935000D02*
X114785000Y-133535000D01*
X111885000Y-133535000D02*
X114785000Y-133535000D01*
X111885000Y-131235000D02*
X114785000Y-131235000D01*
X115035000Y-133785000D02*
X115035000Y-132885000D01*
X114135000Y-133785000D02*
X115035000Y-133785000D01*
%TO.C,D13*%
X58545000Y-133535000D02*
X61445000Y-133535000D01*
X58545000Y-131235000D02*
X61445000Y-131235000D01*
X61445000Y-132935000D02*
X61445000Y-133535000D01*
X61695000Y-133785000D02*
X61695000Y-132885000D01*
X60795000Y-133785000D02*
X61695000Y-133785000D01*
%TD*%
M02*
