%TF.GenerationSoftware,KiCad,Pcbnew,6.0.7-f9a2dced07~116~ubuntu22.04.1*%
%TF.CreationDate,2022-11-10T15:46:19+01:00*%
%TF.ProjectId,edge_plating_test,65646765-5f70-46c6-9174-696e675f7465,rev?*%
%TF.SameCoordinates,Original*%
%TF.FileFunction,Paste,Top*%
%TF.FilePolarity,Positive*%
%FSLAX46Y46*%
G04 Gerber Fmt 4.6, Leading zero omitted, Abs format (unit mm)*
G04 Created by KiCad (PCBNEW 6.0.7-f9a2dced07~116~ubuntu22.04.1) date 2022-11-10 15:46:19*
%MOMM*%
%LPD*%
G01*
G04 APERTURE LIST*
G04 Aperture macros list*
%AMRoundRect*
0 Rectangle with rounded corners*
0 $1 Rounding radius*
0 $2 $3 $4 $5 $6 $7 $8 $9 X,Y pos of 4 corners*
0 Add a 4 corners polygon primitive as box body*
4,1,4,$2,$3,$4,$5,$6,$7,$8,$9,$2,$3,0*
0 Add four circle primitives for the rounded corners*
1,1,$1+$1,$2,$3*
1,1,$1+$1,$4,$5*
1,1,$1+$1,$6,$7*
1,1,$1+$1,$8,$9*
0 Add four rect primitives between the rounded corners*
20,1,$1+$1,$2,$3,$4,$5,0*
20,1,$1+$1,$4,$5,$6,$7,0*
20,1,$1+$1,$6,$7,$8,$9,0*
20,1,$1+$1,$8,$9,$2,$3,0*%
G04 Aperture macros list end*
%ADD10RoundRect,0.150000X0.150000X0.575000X-0.150000X0.575000X-0.150000X-0.575000X0.150000X-0.575000X0*%
%ADD11RoundRect,0.170000X0.000000X0.555000X0.000000X0.555000X0.000000X-0.555000X0.000000X-0.555000X0*%
%ADD12O,0.800000X1.900000*%
%ADD13O,0.800000X2.000000*%
%ADD14RoundRect,0.135000X-0.135000X-0.185000X0.135000X-0.185000X0.135000X0.185000X-0.135000X0.185000X0*%
%ADD15RoundRect,0.140000X-0.170000X0.140000X-0.170000X-0.140000X0.170000X-0.140000X0.170000X0.140000X0*%
%ADD16RoundRect,0.135000X-0.185000X0.135000X-0.185000X-0.135000X0.185000X-0.135000X0.185000X0.135000X0*%
%ADD17RoundRect,0.140000X-0.140000X-0.170000X0.140000X-0.170000X0.140000X0.170000X-0.140000X0.170000X0*%
%ADD18RoundRect,0.147500X0.172500X-0.147500X0.172500X0.147500X-0.172500X0.147500X-0.172500X-0.147500X0*%
%ADD19R,1.000000X1.000000*%
%ADD20R,1.050000X2.200000*%
%ADD21R,1.500000X1.500000*%
%ADD22RoundRect,0.162500X-0.367500X-0.162500X0.367500X-0.162500X0.367500X0.162500X-0.367500X0.162500X0*%
%ADD23RoundRect,0.249999X0.395001X0.395001X-0.395001X0.395001X-0.395001X-0.395001X0.395001X-0.395001X0*%
%ADD24RoundRect,0.050000X0.387500X0.050000X-0.387500X0.050000X-0.387500X-0.050000X0.387500X-0.050000X0*%
%ADD25RoundRect,0.050000X0.050000X0.387500X-0.050000X0.387500X-0.050000X-0.387500X0.050000X-0.387500X0*%
%ADD26RoundRect,0.135000X0.185000X-0.135000X0.185000X0.135000X-0.185000X0.135000X-0.185000X-0.135000X0*%
%ADD27RoundRect,0.140000X0.170000X-0.140000X0.170000X0.140000X-0.170000X0.140000X-0.170000X-0.140000X0*%
%ADD28RoundRect,0.135000X0.135000X0.185000X-0.135000X0.185000X-0.135000X-0.185000X0.135000X-0.185000X0*%
%ADD29RoundRect,0.140000X0.140000X0.170000X-0.140000X0.170000X-0.140000X-0.170000X0.140000X-0.170000X0*%
%ADD30R,1.400000X1.200000*%
%ADD31RoundRect,0.243750X-0.456250X0.243750X-0.456250X-0.243750X0.456250X-0.243750X0.456250X0.243750X0*%
%ADD32RoundRect,0.225000X-0.375000X-0.225000X0.375000X-0.225000X0.375000X0.225000X-0.375000X0.225000X0*%
%ADD33RoundRect,0.150000X0.825000X0.150000X-0.825000X0.150000X-0.825000X-0.150000X0.825000X-0.150000X0*%
%ADD34RoundRect,0.250000X0.250000X-0.450000X0.250000X0.450000X-0.250000X0.450000X-0.250000X-0.450000X0*%
%ADD35R,1.700000X1.200000*%
%ADD36R,0.700000X1.400000*%
%ADD37RoundRect,0.150000X-0.150000X0.650000X-0.150000X-0.650000X0.150000X-0.650000X0.150000X0.650000X0*%
%ADD38RoundRect,0.150000X0.150000X-0.825000X0.150000X0.825000X-0.150000X0.825000X-0.150000X-0.825000X0*%
G04 APERTURE END LIST*
D10*
%TO.C,J601*%
X103250000Y-56295000D03*
X102450000Y-56295000D03*
D11*
X101250000Y-56295000D03*
X100250000Y-56295000D03*
X99750000Y-56295000D03*
X98750000Y-56295000D03*
D10*
X97550000Y-56295000D03*
X96750000Y-56295000D03*
D11*
X98250000Y-56295000D03*
X99250000Y-56295000D03*
X100750000Y-56295000D03*
X101750000Y-56295000D03*
D12*
X104320000Y-55380000D03*
X95680000Y-55380000D03*
D13*
X104320000Y-51450000D03*
X95680000Y-51450000D03*
%TD*%
D14*
%TO.C,R707*%
X95740000Y-111750000D03*
X96760000Y-111750000D03*
%TD*%
D15*
%TO.C,C716*%
X103000000Y-104770000D03*
X103000000Y-105730000D03*
%TD*%
D16*
%TO.C,R705*%
X105250000Y-110990000D03*
X105250000Y-112010000D03*
%TD*%
D17*
%TO.C,C703*%
X101620000Y-108000000D03*
X102580000Y-108000000D03*
%TD*%
D18*
%TO.C,L701*%
X104750000Y-104470000D03*
X104750000Y-103500000D03*
%TD*%
D19*
%TO.C,J701*%
X105000000Y-105750000D03*
D20*
X106475000Y-107250000D03*
X103525000Y-107250000D03*
D19*
X105000000Y-108750000D03*
%TD*%
D16*
%TO.C,R601*%
X94750000Y-56990000D03*
X94750000Y-58010000D03*
%TD*%
D14*
%TO.C,R33*%
X86155000Y-76505000D03*
X87175000Y-76505000D03*
%TD*%
D21*
%TO.C,SW701*%
X103000000Y-121900000D03*
X103000000Y-114100000D03*
%TD*%
D22*
%TO.C,U602*%
X101900000Y-61800000D03*
X101900000Y-62750000D03*
X101900000Y-63700000D03*
X104100000Y-63700000D03*
X104100000Y-61800000D03*
%TD*%
D16*
%TO.C,R603*%
X98500000Y-57740000D03*
X98500000Y-58760000D03*
%TD*%
%TO.C,R602*%
X101500000Y-57740000D03*
X101500000Y-58760000D03*
%TD*%
D23*
%TO.C,U701*%
X100800000Y-100800000D03*
X99200000Y-100800000D03*
X99200000Y-99200000D03*
X100800000Y-99200000D03*
D24*
X103437500Y-102600000D03*
X103437500Y-102200000D03*
X103437500Y-101800000D03*
X103437500Y-101400000D03*
X103437500Y-101000000D03*
X103437500Y-100600000D03*
X103437500Y-100200000D03*
X103437500Y-99800000D03*
X103437500Y-99400000D03*
X103437500Y-99000000D03*
X103437500Y-98600000D03*
X103437500Y-98200000D03*
X103437500Y-97800000D03*
X103437500Y-97400000D03*
D25*
X102600000Y-96562500D03*
X102200000Y-96562500D03*
X101800000Y-96562500D03*
X101400000Y-96562500D03*
X101000000Y-96562500D03*
X100600000Y-96562500D03*
X100200000Y-96562500D03*
X99800000Y-96562500D03*
X99400000Y-96562500D03*
X99000000Y-96562500D03*
X98600000Y-96562500D03*
X98200000Y-96562500D03*
X97800000Y-96562500D03*
X97400000Y-96562500D03*
D24*
X96562500Y-97400000D03*
X96562500Y-97800000D03*
X96562500Y-98200000D03*
X96562500Y-98600000D03*
X96562500Y-99000000D03*
X96562500Y-99400000D03*
X96562500Y-99800000D03*
X96562500Y-100200000D03*
X96562500Y-100600000D03*
X96562500Y-101000000D03*
X96562500Y-101400000D03*
X96562500Y-101800000D03*
X96562500Y-102200000D03*
X96562500Y-102600000D03*
D25*
X97400000Y-103437500D03*
X97800000Y-103437500D03*
X98200000Y-103437500D03*
X98600000Y-103437500D03*
X99000000Y-103437500D03*
X99400000Y-103437500D03*
X99800000Y-103437500D03*
X100200000Y-103437500D03*
X100600000Y-103437500D03*
X101000000Y-103437500D03*
X101400000Y-103437500D03*
X101800000Y-103437500D03*
X102200000Y-103437500D03*
X102600000Y-103437500D03*
%TD*%
D17*
%TO.C,C712*%
X104770000Y-101500000D03*
X105730000Y-101500000D03*
%TD*%
%TO.C,C602*%
X101520000Y-60500000D03*
X102480000Y-60500000D03*
%TD*%
D26*
%TO.C,R36*%
X137465000Y-70030000D03*
X137465000Y-69010000D03*
%TD*%
D17*
%TO.C,C705*%
X101020000Y-90000000D03*
X101980000Y-90000000D03*
%TD*%
D26*
%TO.C,R34*%
X110795000Y-70030000D03*
X110795000Y-69010000D03*
%TD*%
D27*
%TO.C,C701*%
X105750000Y-104480000D03*
X105750000Y-103520000D03*
%TD*%
D28*
%TO.C,R702*%
X102010000Y-86000000D03*
X100990000Y-86000000D03*
%TD*%
D14*
%TO.C,R8*%
X59485000Y-76505000D03*
X60505000Y-76505000D03*
%TD*%
%TO.C,R37*%
X139495000Y-76505000D03*
X140515000Y-76505000D03*
%TD*%
D15*
%TO.C,C601*%
X105250000Y-57020000D03*
X105250000Y-57980000D03*
%TD*%
D27*
%TO.C,C713*%
X100750000Y-95230000D03*
X100750000Y-94270000D03*
%TD*%
D26*
%TO.C,R10*%
X84125000Y-70030000D03*
X84125000Y-69010000D03*
%TD*%
D17*
%TO.C,C702*%
X104770000Y-102500000D03*
X105730000Y-102500000D03*
%TD*%
%TO.C,C603*%
X103520000Y-60500000D03*
X104480000Y-60500000D03*
%TD*%
D15*
%TO.C,C714*%
X98750000Y-104770000D03*
X98750000Y-105730000D03*
%TD*%
D29*
%TO.C,C704*%
X100830000Y-108000000D03*
X99870000Y-108000000D03*
%TD*%
D30*
%TO.C,Y701*%
X102350000Y-109400000D03*
X100150000Y-109400000D03*
X100150000Y-111100000D03*
X102350000Y-111100000D03*
%TD*%
D14*
%TO.C,R703*%
X100990000Y-89000000D03*
X102010000Y-89000000D03*
%TD*%
D28*
%TO.C,R701*%
X102010000Y-87000000D03*
X100990000Y-87000000D03*
%TD*%
D21*
%TO.C,SW702*%
X97000000Y-121900000D03*
X97000000Y-114100000D03*
%TD*%
D15*
%TO.C,C715*%
X102000000Y-104770000D03*
X102000000Y-105730000D03*
%TD*%
D27*
%TO.C,C707*%
X106250000Y-111980000D03*
X106250000Y-111020000D03*
%TD*%
D26*
%TO.C,R4*%
X57455000Y-70030000D03*
X57455000Y-69010000D03*
%TD*%
D31*
%TO.C,L601*%
X100000000Y-61812500D03*
X100000000Y-63687500D03*
%TD*%
D14*
%TO.C,R35*%
X112825000Y-76505000D03*
X113845000Y-76505000D03*
%TD*%
D22*
%TO.C,U601*%
X95900000Y-61800000D03*
X95900000Y-62750000D03*
X95900000Y-63700000D03*
X98100000Y-63700000D03*
X98100000Y-62750000D03*
X98100000Y-61800000D03*
%TD*%
D15*
%TO.C,C7*%
X111049000Y-74120000D03*
X111049000Y-75080000D03*
%TD*%
D32*
%TO.C,D7*%
X114235000Y-75150000D03*
X114235000Y-74050000D03*
X112435000Y-74050000D03*
X112435000Y-75150000D03*
%TD*%
D15*
%TO.C,C5*%
X57709000Y-74120000D03*
X57709000Y-75080000D03*
%TD*%
D32*
%TO.C,D5*%
X60895000Y-75150000D03*
X60895000Y-74050000D03*
X59095000Y-74050000D03*
X59095000Y-75150000D03*
%TD*%
D17*
%TO.C,C706*%
X101020000Y-91000000D03*
X101980000Y-91000000D03*
%TD*%
D33*
%TO.C,U3*%
X103975000Y-77445000D03*
X103975000Y-76175000D03*
X103975000Y-74905000D03*
X103975000Y-73635000D03*
X103975000Y-72365000D03*
X103975000Y-71095000D03*
X103975000Y-69825000D03*
X103975000Y-68555000D03*
X99025000Y-68555000D03*
X99025000Y-69825000D03*
X99025000Y-71095000D03*
X99025000Y-72365000D03*
X99025000Y-73635000D03*
X99025000Y-74905000D03*
X99025000Y-76175000D03*
X99025000Y-77445000D03*
%TD*%
D34*
%TO.C,SW703*%
X102150000Y-146700000D03*
D35*
X100000000Y-144800000D03*
D34*
X97850000Y-146700000D03*
D36*
X101700000Y-145100000D03*
X98300000Y-145100000D03*
%TD*%
D15*
%TO.C,C35*%
X67488000Y-96726000D03*
X67488000Y-97686000D03*
%TD*%
%TO.C,C52*%
X120828000Y-96726000D03*
X120828000Y-97686000D03*
%TD*%
D29*
%TO.C,C33*%
X99480000Y-78887500D03*
X98520000Y-78887500D03*
%TD*%
D15*
%TO.C,C1*%
X57709000Y-51895000D03*
X57709000Y-52855000D03*
%TD*%
D37*
%TO.C,U702*%
X99405000Y-84650000D03*
X98135000Y-84650000D03*
X96865000Y-84650000D03*
X95595000Y-84650000D03*
X95595000Y-91850000D03*
X96865000Y-91850000D03*
X98135000Y-91850000D03*
X99405000Y-91850000D03*
%TD*%
D16*
%TO.C,R32*%
X126035000Y-107008400D03*
X126035000Y-108028400D03*
%TD*%
%TO.C,R30*%
X127305000Y-107008400D03*
X127305000Y-108028400D03*
%TD*%
%TO.C,R31*%
X123495000Y-106957600D03*
X123495000Y-107977600D03*
%TD*%
%TO.C,R29*%
X122225000Y-106983000D03*
X122225000Y-108003000D03*
%TD*%
D15*
%TO.C,C32*%
X126035000Y-104473000D03*
X126035000Y-105433000D03*
%TD*%
%TO.C,C30*%
X127305000Y-104473000D03*
X127305000Y-105433000D03*
%TD*%
%TO.C,C31*%
X123495000Y-104473000D03*
X123495000Y-105433000D03*
%TD*%
D16*
%TO.C,R704*%
X104250000Y-110990000D03*
X104250000Y-112010000D03*
%TD*%
D26*
%TO.C,R26*%
X126035000Y-93017000D03*
X126035000Y-91997000D03*
%TD*%
D15*
%TO.C,C24*%
X72695000Y-104473000D03*
X72695000Y-105433000D03*
%TD*%
%TO.C,C22*%
X73965000Y-104473000D03*
X73965000Y-105433000D03*
%TD*%
%TO.C,C23*%
X70155000Y-104473000D03*
X70155000Y-105433000D03*
%TD*%
%TO.C,C21*%
X68885000Y-104473000D03*
X68885000Y-105433000D03*
%TD*%
D16*
%TO.C,R24*%
X72695000Y-107110000D03*
X72695000Y-108130000D03*
%TD*%
%TO.C,R22*%
X73965000Y-107110000D03*
X73965000Y-108130000D03*
%TD*%
%TO.C,R23*%
X70155000Y-106983000D03*
X70155000Y-108003000D03*
%TD*%
%TO.C,R21*%
X68885000Y-106983000D03*
X68885000Y-108003000D03*
%TD*%
D38*
%TO.C,U1*%
X68885000Y-102475000D03*
X70155000Y-102475000D03*
X71425000Y-102475000D03*
X72695000Y-102475000D03*
X73965000Y-102475000D03*
X75235000Y-102475000D03*
X76505000Y-102475000D03*
X77775000Y-102475000D03*
X77775000Y-97525000D03*
X76505000Y-97525000D03*
X75235000Y-97525000D03*
X73965000Y-97525000D03*
X72695000Y-97525000D03*
X71425000Y-97525000D03*
X70155000Y-97525000D03*
X68885000Y-97525000D03*
%TD*%
D27*
%TO.C,C28*%
X127305000Y-95527000D03*
X127305000Y-94567000D03*
%TD*%
%TO.C,C26*%
X124765000Y-95527000D03*
X124765000Y-94567000D03*
%TD*%
%TO.C,C27*%
X123495000Y-95527000D03*
X123495000Y-94567000D03*
%TD*%
%TO.C,C25*%
X126035000Y-95527000D03*
X126035000Y-94567000D03*
%TD*%
D38*
%TO.C,U2*%
X122225000Y-102475000D03*
X123495000Y-102475000D03*
X124765000Y-102475000D03*
X126035000Y-102475000D03*
X127305000Y-102475000D03*
X128575000Y-102475000D03*
X129845000Y-102475000D03*
X131115000Y-102475000D03*
X131115000Y-97525000D03*
X129845000Y-97525000D03*
X128575000Y-97525000D03*
X127305000Y-97525000D03*
X126035000Y-97525000D03*
X124765000Y-97525000D03*
X123495000Y-97525000D03*
X122225000Y-97525000D03*
%TD*%
D26*
%TO.C,R28*%
X127305000Y-93017000D03*
X127305000Y-91997000D03*
%TD*%
%TO.C,R27*%
X123495000Y-93017000D03*
X123495000Y-91997000D03*
%TD*%
%TO.C,R25*%
X124765000Y-93017000D03*
X124765000Y-91997000D03*
%TD*%
D15*
%TO.C,C16*%
X137719000Y-131905000D03*
X137719000Y-132865000D03*
%TD*%
%TO.C,C14*%
X84379000Y-131905000D03*
X84379000Y-132865000D03*
%TD*%
%TO.C,C6*%
X84379000Y-74120000D03*
X84379000Y-75080000D03*
%TD*%
%TO.C,C13*%
X57709000Y-131905000D03*
X57709000Y-132865000D03*
%TD*%
D26*
%TO.C,R706*%
X101000000Y-143010000D03*
X101000000Y-141990000D03*
%TD*%
%TO.C,R20*%
X73965000Y-93017000D03*
X73965000Y-91997000D03*
%TD*%
%TO.C,R18*%
X72695000Y-93017000D03*
X72695000Y-91997000D03*
%TD*%
D15*
%TO.C,C29*%
X122225000Y-104473000D03*
X122225000Y-105433000D03*
%TD*%
D26*
%TO.C,R19*%
X70155000Y-93017000D03*
X70155000Y-91997000D03*
%TD*%
%TO.C,R17*%
X71425000Y-93017000D03*
X71425000Y-91997000D03*
%TD*%
D16*
%TO.C,R16*%
X146736000Y-139495000D03*
X146736000Y-140515000D03*
%TD*%
%TO.C,R15*%
X106604000Y-139495000D03*
X106604000Y-140515000D03*
%TD*%
%TO.C,R14*%
X93396000Y-139495000D03*
X93396000Y-140515000D03*
%TD*%
%TO.C,R13*%
X53264000Y-139495000D03*
X53264000Y-140515000D03*
%TD*%
D32*
%TO.C,D4*%
X140905000Y-52925000D03*
X140905000Y-51825000D03*
X139105000Y-51825000D03*
X139105000Y-52925000D03*
%TD*%
%TO.C,D6*%
X87565000Y-75150000D03*
X87565000Y-74050000D03*
X85765000Y-74050000D03*
X85765000Y-75150000D03*
%TD*%
%TO.C,D1*%
X60895000Y-52925000D03*
X60895000Y-51825000D03*
X59095000Y-51825000D03*
X59095000Y-52925000D03*
%TD*%
D27*
%TO.C,C20*%
X73965000Y-95527000D03*
X73965000Y-94567000D03*
%TD*%
%TO.C,C18*%
X71425000Y-95527000D03*
X71425000Y-94567000D03*
%TD*%
%TO.C,C19*%
X70155000Y-95527000D03*
X70155000Y-94567000D03*
%TD*%
%TO.C,C17*%
X72695000Y-95527000D03*
X72695000Y-94567000D03*
%TD*%
D15*
%TO.C,C8*%
X137719000Y-74120000D03*
X137719000Y-75080000D03*
%TD*%
%TO.C,C4*%
X137719000Y-51895000D03*
X137719000Y-52855000D03*
%TD*%
%TO.C,C15*%
X111049000Y-131905000D03*
X111049000Y-132865000D03*
%TD*%
%TO.C,C3*%
X111049000Y-51895000D03*
X111049000Y-52855000D03*
%TD*%
%TO.C,C2*%
X84379000Y-51895000D03*
X84379000Y-52855000D03*
%TD*%
%TO.C,C708*%
X99000000Y-142020000D03*
X99000000Y-142980000D03*
%TD*%
D32*
%TO.C,D8*%
X140905000Y-75150000D03*
X140905000Y-74050000D03*
X139105000Y-74050000D03*
X139105000Y-75150000D03*
%TD*%
%TO.C,D3*%
X114235000Y-52925000D03*
X114235000Y-51825000D03*
X112435000Y-51825000D03*
X112435000Y-52925000D03*
%TD*%
%TO.C,D2*%
X87565000Y-52925000D03*
X87565000Y-51825000D03*
X85765000Y-51825000D03*
X85765000Y-52925000D03*
%TD*%
%TO.C,D16*%
X140905000Y-132935000D03*
X140905000Y-131835000D03*
X139105000Y-131835000D03*
X139105000Y-132935000D03*
%TD*%
%TO.C,D14*%
X87565000Y-132935000D03*
X87565000Y-131835000D03*
X85765000Y-131835000D03*
X85765000Y-132935000D03*
%TD*%
%TO.C,D15*%
X114235000Y-132935000D03*
X114235000Y-131835000D03*
X112435000Y-131835000D03*
X112435000Y-132935000D03*
%TD*%
%TO.C,D13*%
X60895000Y-132935000D03*
X60895000Y-131835000D03*
X59095000Y-131835000D03*
X59095000Y-132935000D03*
%TD*%
M02*
