%TF.GenerationSoftware,KiCad,Pcbnew,6.0.7-f9a2dced07~116~ubuntu22.04.1*%
%TF.CreationDate,2022-11-10T15:46:19+01:00*%
%TF.ProjectId,edge_plating_test,65646765-5f70-46c6-9174-696e675f7465,rev?*%
%TF.SameCoordinates,Original*%
%TF.FileFunction,Paste,Bot*%
%TF.FilePolarity,Positive*%
%FSLAX46Y46*%
G04 Gerber Fmt 4.6, Leading zero omitted, Abs format (unit mm)*
G04 Created by KiCad (PCBNEW 6.0.7-f9a2dced07~116~ubuntu22.04.1) date 2022-11-10 15:46:19*
%MOMM*%
%LPD*%
G01*
G04 APERTURE LIST*
G04 Aperture macros list*
%AMRoundRect*
0 Rectangle with rounded corners*
0 $1 Rounding radius*
0 $2 $3 $4 $5 $6 $7 $8 $9 X,Y pos of 4 corners*
0 Add a 4 corners polygon primitive as box body*
4,1,4,$2,$3,$4,$5,$6,$7,$8,$9,$2,$3,0*
0 Add four circle primitives for the rounded corners*
1,1,$1+$1,$2,$3*
1,1,$1+$1,$4,$5*
1,1,$1+$1,$6,$7*
1,1,$1+$1,$8,$9*
0 Add four rect primitives between the rounded corners*
20,1,$1+$1,$2,$3,$4,$5,0*
20,1,$1+$1,$4,$5,$6,$7,0*
20,1,$1+$1,$6,$7,$8,$9,0*
20,1,$1+$1,$8,$9,$2,$3,0*%
G04 Aperture macros list end*
%ADD10RoundRect,0.140000X0.140000X0.170000X-0.140000X0.170000X-0.140000X-0.170000X0.140000X-0.170000X0*%
%ADD11RoundRect,0.140000X0.170000X-0.140000X0.170000X0.140000X-0.170000X0.140000X-0.170000X-0.140000X0*%
%ADD12RoundRect,0.140000X-0.170000X0.140000X-0.170000X-0.140000X0.170000X-0.140000X0.170000X0.140000X0*%
%ADD13RoundRect,0.135000X-0.185000X0.135000X-0.185000X-0.135000X0.185000X-0.135000X0.185000X0.135000X0*%
%ADD14RoundRect,0.140000X-0.140000X-0.170000X0.140000X-0.170000X0.140000X0.170000X-0.140000X0.170000X0*%
%ADD15RoundRect,0.249999X-0.395001X-0.395001X0.395001X-0.395001X0.395001X0.395001X-0.395001X0.395001X0*%
%ADD16RoundRect,0.050000X-0.387500X-0.050000X0.387500X-0.050000X0.387500X0.050000X-0.387500X0.050000X0*%
%ADD17RoundRect,0.050000X-0.050000X-0.387500X0.050000X-0.387500X0.050000X0.387500X-0.050000X0.387500X0*%
%ADD18RoundRect,0.243750X0.243750X0.456250X-0.243750X0.456250X-0.243750X-0.456250X0.243750X-0.456250X0*%
G04 APERTURE END LIST*
D10*
%TO.C,C721*%
X95230000Y-102500000D03*
X94270000Y-102500000D03*
%TD*%
D11*
%TO.C,C711*%
X101000000Y-107730000D03*
X101000000Y-106770000D03*
%TD*%
D12*
%TO.C,C718*%
X99000000Y-104770000D03*
X99000000Y-105730000D03*
%TD*%
D13*
%TO.C,R708*%
X101750000Y-94240000D03*
X101750000Y-95260000D03*
%TD*%
D11*
%TO.C,C717*%
X100750000Y-95230000D03*
X100750000Y-94270000D03*
%TD*%
D12*
%TO.C,C720*%
X103000000Y-104770000D03*
X103000000Y-105730000D03*
%TD*%
D14*
%TO.C,C723*%
X104770000Y-99000000D03*
X105730000Y-99000000D03*
%TD*%
%TO.C,C724*%
X104770000Y-102500000D03*
X105730000Y-102500000D03*
%TD*%
D11*
%TO.C,C728*%
X99750000Y-95230000D03*
X99750000Y-94270000D03*
%TD*%
D12*
%TO.C,C719*%
X102000000Y-104770000D03*
X102000000Y-105730000D03*
%TD*%
D11*
%TO.C,C709*%
X99000000Y-107730000D03*
X99000000Y-106770000D03*
%TD*%
%TO.C,C710*%
X100000000Y-107730000D03*
X100000000Y-106770000D03*
%TD*%
D12*
%TO.C,C726*%
X100000000Y-104770000D03*
X100000000Y-105730000D03*
%TD*%
D10*
%TO.C,C722*%
X95230000Y-99000000D03*
X94270000Y-99000000D03*
%TD*%
D15*
%TO.C,U703*%
X100800000Y-99200000D03*
X99200000Y-99200000D03*
X100800000Y-100800000D03*
X99200000Y-100800000D03*
D16*
X96562500Y-102600000D03*
X96562500Y-102200000D03*
X96562500Y-101800000D03*
X96562500Y-101400000D03*
X96562500Y-101000000D03*
X96562500Y-100600000D03*
X96562500Y-100200000D03*
X96562500Y-99800000D03*
X96562500Y-99400000D03*
X96562500Y-99000000D03*
X96562500Y-98600000D03*
X96562500Y-98200000D03*
X96562500Y-97800000D03*
X96562500Y-97400000D03*
D17*
X97400000Y-96562500D03*
X97800000Y-96562500D03*
X98200000Y-96562500D03*
X98600000Y-96562500D03*
X99000000Y-96562500D03*
X99400000Y-96562500D03*
X99800000Y-96562500D03*
X100200000Y-96562500D03*
X100600000Y-96562500D03*
X101000000Y-96562500D03*
X101400000Y-96562500D03*
X101800000Y-96562500D03*
X102200000Y-96562500D03*
X102600000Y-96562500D03*
D16*
X103437500Y-97400000D03*
X103437500Y-97800000D03*
X103437500Y-98200000D03*
X103437500Y-98600000D03*
X103437500Y-99000000D03*
X103437500Y-99400000D03*
X103437500Y-99800000D03*
X103437500Y-100200000D03*
X103437500Y-100600000D03*
X103437500Y-101000000D03*
X103437500Y-101400000D03*
X103437500Y-101800000D03*
X103437500Y-102200000D03*
X103437500Y-102600000D03*
D17*
X102600000Y-103437500D03*
X102200000Y-103437500D03*
X101800000Y-103437500D03*
X101400000Y-103437500D03*
X101000000Y-103437500D03*
X100600000Y-103437500D03*
X100200000Y-103437500D03*
X99800000Y-103437500D03*
X99400000Y-103437500D03*
X99000000Y-103437500D03*
X98600000Y-103437500D03*
X98200000Y-103437500D03*
X97800000Y-103437500D03*
X97400000Y-103437500D03*
%TD*%
D12*
%TO.C,C727*%
X101000000Y-104770000D03*
X101000000Y-105730000D03*
%TD*%
D14*
%TO.C,C725*%
X104770000Y-103500000D03*
X105730000Y-103500000D03*
%TD*%
D18*
%TO.C,L702*%
X104187500Y-107200000D03*
X102312500Y-107200000D03*
%TD*%
M02*
