M48
; DRILL file {KiCad 6.0.7-f9a2dced07~116~ubuntu22.04.1} date 2022. nov. 10., csütörtök, 15:46:24 CET
; FORMAT={-:-/ absolute / inch / decimal}
; #@! TF.CreationDate,2022-11-10T15:46:24+01:00
; #@! TF.GenerationSoftware,Kicad,Pcbnew,6.0.7-f9a2dced07~116~ubuntu22.04.1
; #@! TF.FileFunction,MixedPlating,1,2
FMAT,2
INCH
; #@! TA.AperFunction,Plated,PTH,ViaDrill
T1C0.0079
; #@! TA.AperFunction,Plated,PTH,ComponentDrill
T2C0.0157
; #@! TA.AperFunction,Plated,PTH,ComponentDrill
T3C0.0197
; #@! TA.AperFunction,Plated,PTH,ComponentDrill
T4C0.0236
; #@! TA.AperFunction,Plated,PTH,ComponentDrill
T5C0.0256
; #@! TA.AperFunction,Plated,PTH,ComponentDrill
T6C0.0295
; #@! TA.AperFunction,Plated,PTH,ComponentDrill
T7C0.0394
; #@! TA.AperFunction,Plated,PTH,ComponentDrill
T8C0.0472
; #@! TA.AperFunction,Plated,PTH,ComponentDrill
T9C0.0512
; #@! TA.AperFunction,Plated,PTH,ComponentDrill
T10C0.0591
; #@! TA.AperFunction,Plated,PTH,ComponentDrill
T11C0.0709
; #@! TA.AperFunction,Plated,PTH,ComponentDrill
T12C0.0945
; #@! TA.AperFunction,NonPlated,NPTH,ComponentDrill
T13C0.0256
%
G90
G05
T1
X2.157Y-5.532
X2.2047Y-3.8189
X2.2047Y-4.0551
X2.237Y-2.0541
X2.237Y-2.082
X2.237Y-2.917
X2.237Y-2.957
X2.237Y-5.192
X2.237Y-5.232
X2.2441Y-3.8189
X2.2441Y-4.0551
X2.262Y-2.792
X2.2835Y-3.8189
X2.2835Y-4.0551
X2.3228Y-3.8189
X2.3228Y-4.0551
X2.362Y-3.047
X2.4508Y-2.0571
X2.452Y-2.912
X2.452Y-5.187
X2.6181Y-3.8484
X2.657Y-3.777
X2.712Y-4.182
X2.712Y-4.282
X2.762Y-3.692
X2.762Y-4.182
X2.812Y-3.692
X2.862Y-3.692
X2.862Y-4.182
X2.912Y-3.692
X2.912Y-4.182
X2.912Y-4.287
X2.962Y-4.092
X3.012Y-4.092
X3.062Y-4.092
X3.287Y-2.042
X3.287Y-2.082
X3.287Y-2.917
X3.287Y-2.957
X3.287Y-5.192
X3.287Y-5.232
X3.312Y-2.792
X3.412Y-3.047
X3.497Y-2.037
X3.502Y-2.907
X3.502Y-5.187
X3.6811Y-3.8976
X3.6811Y-4.0354
X3.707Y-5.532
X3.7106Y-5.128
X3.7106Y-5.2953
X3.7303Y-2.4705
X3.7598Y-2.2835
X3.7598Y-3.3858
X3.7697Y-2.2343
X3.7795Y-2.5984
X3.7894Y-2.2638
X3.8189Y-4.7539
X3.8287Y-2.2638
X3.8386Y-2.313
X3.8386Y-3.1058
X3.8386Y-3.8976
X3.8386Y-4.0256
X3.8583Y-2.5984
X3.8583Y-5.6398
X3.8681Y-2.1555
X3.8712Y-4.1922
X3.8769Y-4.0365
X3.8878Y-3.8878
X3.8878Y-3.9862
X3.8878Y-4.4291
X3.8978Y-3.701
X3.9041Y-3.7688
X3.9075Y-2.4705
X3.9075Y-2.5492
X3.9075Y-4.0354
X3.9075Y-4.3406
X3.9075Y-4.4291
X3.9079Y-4.2638
X3.9272Y-4.4291
X3.937Y-2.5492
X3.937Y-2.5984
X3.937Y-4.0354
X3.937Y-5.6299
X3.9395Y-3.8371
X3.9469Y-3.7303
X3.9469Y-4.4291
X3.9561Y-2.749
X3.9561Y-2.799
X3.9561Y-2.849
X3.9561Y-2.899
X3.9561Y-2.949
X3.9561Y-2.999
X3.9561Y-3.049
X3.9567Y-4.1831
X3.9665Y-2.5492
X3.9665Y-4.0354
X3.9665Y-4.4291
X3.9818Y-3.8371
X3.9862Y-3.7303
X3.9862Y-3.8878
X3.9862Y-3.9862
X3.9862Y-4.4291
X3.9961Y-3.6122
X4.0059Y-2.1555
X4.0099Y-3.8375
X4.0157Y-2.3524
X4.0157Y-2.5984
X4.0157Y-3.3465
X4.0256Y-3.8681
X4.0256Y-4.0354
X4.0354Y-2.313
X4.0354Y-3.7106
X4.0354Y-3.8976
X4.0354Y-4.1437
X4.0361Y-2.699
X4.0361Y-2.799
X4.0361Y-2.849
X4.0361Y-2.899
X4.0361Y-2.949
X4.0446Y-3.8584
X4.0453Y-2.2638
X4.0551Y-2.3524
X4.0551Y-2.4213
X4.0551Y-2.4508
X4.0551Y-2.4902
X4.0551Y-4.7539
X4.065Y-4.1929
X4.065Y-4.2224
X4.065Y-4.252
X4.065Y-4.3406
X4.0748Y-4.0846
X4.0846Y-2.2638
X4.0846Y-2.4705
X4.0846Y-4.1142
X4.0846Y-4.1437
X4.0846Y-4.1732
X4.0846Y-4.2717
X4.0945Y-2.3524
X4.0945Y-2.5984
X4.1043Y-2.2343
X4.1043Y-3.8189
X4.1043Y-4.2913
X4.1043Y-4.3406
X4.1103Y-3.8462
X4.1142Y-2.2835
X4.124Y-3.8681
X4.1339Y-4.3012
X4.1437Y-2.3819
X4.1437Y-4.0157
X4.1634Y-3.8681
X4.1634Y-4.2913
X4.167Y-5.532
X4.1831Y-4.2717
X4.1831Y-4.3406
X4.1929Y-4.0157
X4.2028Y-4.0453
X4.2028Y-4.0748
X4.2028Y-4.1043
X4.2028Y-4.1339
X4.2028Y-4.1634
X4.2028Y-4.1929
X4.2028Y-4.2224
X4.2028Y-4.252
X4.337Y-2.042
X4.337Y-2.082
X4.337Y-2.917
X4.337Y-2.957
X4.337Y-5.192
X4.337Y-5.232
X4.362Y-2.792
X4.462Y-3.042
X4.552Y-2.037
X4.552Y-2.912
X4.552Y-5.187
X4.7244Y-3.8484
X4.757Y-3.777
X4.812Y-4.182
X4.812Y-4.282
X4.862Y-3.692
X4.862Y-4.182
X4.912Y-3.692
X4.962Y-3.692
X4.962Y-4.182
X5.012Y-3.692
X5.012Y-4.182
X5.012Y-4.287
X5.062Y-4.092
X5.112Y-4.092
X5.162Y-4.092
X5.387Y-2.0541
X5.387Y-2.082
X5.387Y-2.917
X5.387Y-2.957
X5.387Y-5.192
X5.387Y-5.232
X5.412Y-2.792
X5.512Y-3.042
X5.5512Y-3.8189
X5.5512Y-4.0551
X5.5906Y-3.8189
X5.5906Y-4.0551
X5.597Y-2.0556
X5.597Y-2.912
X5.597Y-5.187
X5.6299Y-3.8189
X5.6299Y-4.0551
X5.6693Y-3.8189
X5.6693Y-4.0551
X5.717Y-5.532
T5
X3.7648Y-4.1437
X3.7648Y-4.1937
X3.7648Y-4.2437
X3.7648Y-4.2937
X3.7648Y-4.3437
X3.8148Y-4.1437
X3.8148Y-4.1937
X3.8148Y-4.2437
X3.8148Y-4.2937
X3.8148Y-4.3437
T6
X3.8524Y-5.7677
X4.0217Y-5.7677
T7
X2.262Y-2.6376
X2.362Y-2.6376
X2.462Y-2.6376
X3.312Y-2.6376
X3.412Y-2.6376
X3.512Y-2.6376
X4.362Y-2.6376
X4.462Y-2.6376
X4.562Y-2.6376
X5.412Y-2.6376
X5.512Y-2.6376
X5.612Y-2.6376
T8
X2.1159Y-5.4136
X2.1159Y-5.6104
X2.6081Y-5.4136
X2.6081Y-5.6104
X3.1659Y-5.4136
X3.1659Y-5.6104
X3.6581Y-5.4136
X3.6581Y-5.6104
X4.2159Y-5.4136
X4.2159Y-5.6104
X4.7081Y-5.4136
X4.7081Y-5.6104
X5.2659Y-5.4136
X5.2659Y-5.6104
X5.7581Y-5.4136
X5.7581Y-5.6104
T9
X2.2931Y-3.0748
X2.4309Y-3.0748
X2.4309Y-4.7992
X3.3431Y-3.0748
X3.4809Y-3.0748
X3.4809Y-4.7992
X4.3931Y-3.0748
X4.5309Y-3.0748
X4.5309Y-4.7992
X5.4431Y-3.0748
X5.5809Y-3.0748
X5.5809Y-4.7992
T10
X2.0866Y-2.0866
X2.0866Y-5.7874
X2.887Y-2.887
X2.887Y-4.987
X4.987Y-2.887
X4.987Y-4.987
X5.7874Y-2.0866
X5.7874Y-5.7874
T11
X2.362Y-5.3348
X2.362Y-5.6892
X3.412Y-5.3348
X3.412Y-5.6892
X4.462Y-5.3348
X4.462Y-5.6892
X5.512Y-5.3348
X5.512Y-5.6892
T12
X2.1848Y-2.362
X2.5392Y-2.362
X3.2348Y-2.362
X3.5892Y-2.362
X4.2848Y-2.362
X4.6392Y-2.362
X5.3348Y-2.362
X5.6892Y-2.362
T13
X3.8232Y-2.1594
X4.0508Y-2.1594
T2
G00X2.0669Y-2.7472
M15
G01X2.0669Y-2.7906
M16
G05
G00X2.0669Y-2.826
M15
G01X2.0669Y-2.8693
M16
G05
G00X2.0669Y-2.9047
M15
G01X2.0669Y-2.948
M16
G05
G00X2.0669Y-2.9835
M15
G01X2.0669Y-3.0268
M16
G05
G00X2.0669Y-4.8472
M15
G01X2.0669Y-4.8906
M16
G05
G00X2.0669Y-4.926
M15
G01X2.0669Y-4.9693
M16
G05
G00X2.0669Y-5.0047
M15
G01X2.0669Y-5.048
M16
G05
G00X2.0669Y-5.0835
M15
G01X2.0669Y-5.1268
M16
G05
G00X2.7906Y-2.0669
M15
G01X2.7472Y-2.0669
M16
G05
G00X2.7472Y-5.8071
M15
G01X2.7906Y-5.8071
M16
G05
G00X2.8693Y-2.0669
M15
G01X2.826Y-2.0669
M16
G05
G00X2.826Y-5.8071
M15
G01X2.8693Y-5.8071
M16
G05
G00X2.948Y-2.0669
M15
G01X2.9047Y-2.0669
M16
G05
G00X2.9047Y-5.8071
M15
G01X2.948Y-5.8071
M16
G05
G00X3.0268Y-2.0669
M15
G01X2.9835Y-2.0669
M16
G05
G00X2.9835Y-5.8071
M15
G01X3.0268Y-5.8071
M16
G05
G00X4.8906Y-2.0669
M15
G01X4.8472Y-2.0669
M16
G05
G00X4.8472Y-5.8071
M15
G01X4.8906Y-5.8071
M16
G05
G00X4.9693Y-2.0669
M15
G01X4.926Y-2.0669
M16
G05
G00X4.926Y-5.8071
M15
G01X4.9693Y-5.8071
M16
G05
G00X5.048Y-2.0669
M15
G01X5.0047Y-2.0669
M16
G05
G00X5.0047Y-5.8071
M15
G01X5.048Y-5.8071
M16
G05
G00X5.1268Y-2.0669
M15
G01X5.0835Y-2.0669
M16
G05
G00X5.0835Y-5.8071
M15
G01X5.1268Y-5.8071
M16
G05
G00X5.8071Y-2.7906
M15
G01X5.8071Y-2.7472
M16
G05
G00X5.8071Y-2.8693
M15
G01X5.8071Y-2.826
M16
G05
G00X5.8071Y-2.948
M15
G01X5.8071Y-2.9047
M16
G05
G00X5.8071Y-3.0268
M15
G01X5.8071Y-2.9835
M16
G05
G00X5.8071Y-4.8906
M15
G01X5.8071Y-4.8472
M16
G05
G00X5.8071Y-4.9693
M15
G01X5.8071Y-4.926
M16
G05
G00X5.8071Y-5.048
M15
G01X5.8071Y-5.0047
M16
G05
G00X5.8071Y-5.1268
M15
G01X5.8071Y-5.0835
M16
G05
T3
G00X3.7669Y-2.0236
M15
G01X3.7669Y-2.0079
M16
G05
G00X3.7669Y-2.1941
M15
G01X3.7669Y-2.1665
M16
G05
G00X4.1071Y-2.0236
M15
G01X4.1071Y-2.0079
M16
G05
G00X4.1071Y-2.1941
M15
G01X4.1071Y-2.1665
M16
G05
T4
G00X2.1947Y-3.2264
M15
G01X2.1947Y-3.2618
M16
G05
G00X2.1947Y-4.6122
M15
G01X2.1947Y-4.6476
M16
G05
G00X2.5293Y-3.2736
M15
G01X2.5293Y-3.3091
M16
G05
G00X2.5293Y-4.565
M15
G01X2.5293Y-4.6004
M16
G05
G00X3.2447Y-3.2264
M15
G01X3.2447Y-3.2618
M16
G05
G00X3.2447Y-4.6122
M15
G01X3.2447Y-4.6476
M16
G05
G00X3.5793Y-3.2736
M15
G01X3.5793Y-3.3091
M16
G05
G00X3.5793Y-4.565
M15
G01X3.5793Y-4.6004
M16
G05
G00X4.2947Y-3.2264
M15
G01X4.2947Y-3.2618
M16
G05
G00X4.2947Y-4.6122
M15
G01X4.2947Y-4.6476
M16
G05
G00X4.6293Y-3.2736
M15
G01X4.6293Y-3.3091
M16
G05
G00X4.6293Y-4.565
M15
G01X4.6293Y-4.6004
M16
G05
G00X5.3447Y-3.2264
M15
G01X5.3447Y-3.2618
M16
G05
G00X5.3447Y-4.6122
M15
G01X5.3447Y-4.6476
M16
G05
G00X5.6793Y-3.2736
M15
G01X5.6793Y-3.3091
M16
G05
G00X5.6793Y-4.565
M15
G01X5.6793Y-4.6004
M16
G05
T0
M30
