M48
; DRILL file {KiCad 5.1.5+dfsg1-2build2} date 2021. jan. 4., hétfő, 12:44:28 CET
; FORMAT={-:-/ absolute / inch / decimal}
; #@! TF.CreationDate,2021-01-04T12:44:28+01:00
; #@! TF.GenerationSoftware,Kicad,Pcbnew,5.1.5+dfsg1-2build2
FMAT,2
INCH
T1C0.0079
T2C0.0197
%
G90
G05
T1
X2.4016Y-2.5295
X2.4016Y-2.7854
X2.4016Y-3.0413
X2.4016Y-3.2972
X2.4016Y-3.5531
X2.4016Y-3.8091
X2.4016Y-4.065
X2.4016Y-4.3209
X2.4016Y-4.5768
X2.4016Y-4.8327
X2.4016Y-5.0886
X2.4016Y-5.3445
X2.5295Y-4.1929
X2.5295Y-5.2165
X2.6575Y-2.5295
X2.6575Y-2.7854
X2.6575Y-3.0413
X2.6575Y-3.2972
X2.6575Y-3.5531
X2.6575Y-3.8091
X2.6575Y-4.065
X2.6575Y-4.3209
X2.6575Y-4.5768
X2.6575Y-4.8327
X2.6575Y-5.0886
X2.6575Y-5.3445
X2.7854Y-4.1929
X2.7854Y-5.2165
X2.9134Y-5.0886
X2.9134Y-2.7854
X2.9134Y-3.0413
X2.9134Y-3.2972
X2.9134Y-3.5531
X2.9134Y-3.8091
X2.9134Y-4.065
X2.9134Y-4.3209
X2.9134Y-4.5768
X2.9134Y-4.8327
X2.9134Y-5.3445
X2.9134Y-2.5295
X3.0413Y-4.1929
X3.0413Y-5.2165
X3.1693Y-2.5295
X3.1693Y-2.7854
X3.1693Y-3.0413
X3.1693Y-3.2972
X3.1693Y-3.5531
X3.1693Y-3.8091
X3.1693Y-4.065
X3.1693Y-4.3209
X3.1693Y-4.5768
X3.1693Y-4.8327
X3.1693Y-5.0886
X3.1693Y-5.3445
X3.2972Y-5.2165
X3.2972Y-4.1929
X3.4252Y-2.5295
X3.4252Y-2.7854
X3.4252Y-3.0413
X3.4252Y-3.2972
X3.4252Y-3.5531
X3.4252Y-3.8091
X3.4252Y-4.065
X3.4252Y-4.3209
X3.4252Y-4.5768
X3.4252Y-4.8327
X3.4252Y-5.0886
X3.4252Y-5.3445
X3.5531Y-4.1929
X3.5531Y-5.2165
X3.6811Y-2.5295
X3.6811Y-2.7854
X3.6811Y-3.0413
X3.6811Y-3.2972
X3.6811Y-3.5531
X3.6811Y-3.6811
X3.6811Y-3.8091
X3.6811Y-4.065
X3.6811Y-4.3209
X3.6811Y-4.5768
X3.6811Y-4.8327
X3.6811Y-5.0886
X3.6811Y-5.3445
X3.8091Y-4.1929
X3.8091Y-5.2165
X3.937Y-2.5295
X3.937Y-2.7854
X3.937Y-3.0413
X3.937Y-3.2972
X3.937Y-3.5531
X3.937Y-3.8091
X3.937Y-4.0846
X3.937Y-4.3209
X3.937Y-4.5768
X3.937Y-4.8327
X3.937Y-5.0886
X3.937Y-5.3445
X4.065Y-4.7047
X4.065Y-5.2165
X4.1929Y-2.5295
X4.1929Y-2.7854
X4.1929Y-3.0413
X4.1929Y-3.2972
X4.1929Y-3.5531
X4.1929Y-3.8091
X4.1929Y-4.065
X4.1929Y-4.3209
X4.1929Y-4.5768
X4.1929Y-4.8327
X4.1929Y-5.0886
X4.1929Y-5.3445
X4.3209Y-4.7047
X4.3209Y-5.2165
X4.4488Y-2.5295
X4.4488Y-2.7854
X4.4488Y-3.0413
X4.4488Y-3.2972
X4.4488Y-3.5531
X4.4488Y-3.8091
X4.4488Y-4.065
X4.4488Y-4.3209
X4.4488Y-4.5768
X4.4488Y-4.8327
X4.4488Y-5.0886
X4.4488Y-5.3445
X4.5768Y-4.9606
X4.5768Y-5.2165
X4.7047Y-2.5295
X4.7047Y-2.7854
X4.7047Y-3.0413
X4.7047Y-3.2972
X4.7047Y-3.5531
X4.7047Y-3.8091
X4.7047Y-4.065
X4.7047Y-4.3209
X4.7047Y-4.5768
X4.7047Y-4.8327
X4.7047Y-5.0886
X4.7047Y-5.3445
X4.8327Y-4.9606
X4.8327Y-5.2165
X4.9606Y-3.2972
X4.9606Y-2.5295
X4.9606Y-2.7854
X4.9606Y-3.0413
X4.9606Y-3.5531
X4.9606Y-3.8091
X4.9606Y-4.065
X4.9606Y-4.3209
X4.9606Y-4.5768
X4.9606Y-4.8327
X4.9606Y-5.0886
X4.9606Y-5.3445
X5.0886Y-5.2165
X5.2165Y-2.5295
X5.2165Y-2.7854
X5.2165Y-3.0413
X5.2165Y-3.2972
X5.2165Y-3.5531
X5.2165Y-3.8091
X5.2165Y-4.065
X5.2165Y-4.3209
X5.2165Y-4.5768
X5.2165Y-4.8327
X5.2165Y-5.0886
X5.2165Y-5.3445
X5.3445Y-5.2165
X5.3445Y-5.4724
X5.4724Y-2.5295
X5.4724Y-2.7854
X5.4724Y-3.0413
X5.4724Y-3.2972
X5.4724Y-3.5531
X5.4724Y-3.8091
X5.4724Y-4.3209
X5.4724Y-4.5768
X5.4724Y-4.8327
X5.4724Y-5.0886
X5.4724Y-5.3445
X5.4724Y-4.065
T2
X5.6299Y-2.2441
X2.2441Y-5.6299
X5.6299Y-5.6299
X2.2441Y-2.2441
T0
M30
