G04 #@! TF.GenerationSoftware,KiCad,Pcbnew,(5.1.6)-1*
G04 #@! TF.CreationDate,2020-12-27T15:17:30+01:00*
G04 #@! TF.ProjectId,XY_TOUCH,58595f54-4f55-4434-982e-6b696361645f,rev?*
G04 #@! TF.SameCoordinates,Original*
G04 #@! TF.FileFunction,Paste,Bot*
G04 #@! TF.FilePolarity,Positive*
%FSLAX46Y46*%
G04 Gerber Fmt 4.6, Leading zero omitted, Abs format (unit mm)*
G04 Created by KiCad (PCBNEW (5.1.6)-1) date 2020-12-27 15:17:30*
%MOMM*%
%LPD*%
G01*
G04 APERTURE LIST*
%ADD10O,0.200000X0.750000*%
%ADD11O,0.750000X0.200000*%
%ADD12R,0.400000X1.000000*%
%ADD13R,2.000000X1.300000*%
G04 APERTURE END LIST*
D10*
X101750000Y-102025000D03*
X101400000Y-102025000D03*
X101050000Y-102025000D03*
X100700000Y-102025000D03*
X100350000Y-102025000D03*
X100000000Y-102025000D03*
X99650000Y-102025000D03*
X99300000Y-102025000D03*
X98950000Y-102025000D03*
X98600000Y-102025000D03*
X98250000Y-102025000D03*
D11*
X97975000Y-101225000D03*
X97975000Y-100875000D03*
X97975000Y-100525000D03*
X97975000Y-100175000D03*
X97975000Y-99825000D03*
X97975000Y-99475000D03*
X97975000Y-99125000D03*
X97975000Y-98775000D03*
D10*
X98275000Y-97975000D03*
X98625000Y-97975000D03*
X98975000Y-97975000D03*
X99325000Y-97975000D03*
X99675000Y-97975000D03*
X100025000Y-97975000D03*
X100375000Y-97975000D03*
X100725000Y-97975000D03*
X101075000Y-97975000D03*
X101425000Y-97975000D03*
X101775000Y-97975000D03*
D11*
X102025000Y-98775000D03*
X102025000Y-99125000D03*
X102025000Y-99475000D03*
X102025000Y-99825000D03*
X102025000Y-100175000D03*
X102025000Y-100525000D03*
X102025000Y-100875000D03*
X102025000Y-101225000D03*
G36*
G01*
X96550000Y-94793750D02*
X96550000Y-95706250D01*
G75*
G02*
X96306250Y-95950000I-243750J0D01*
G01*
X95818750Y-95950000D01*
G75*
G02*
X95575000Y-95706250I0J243750D01*
G01*
X95575000Y-94793750D01*
G75*
G02*
X95818750Y-94550000I243750J0D01*
G01*
X96306250Y-94550000D01*
G75*
G02*
X96550000Y-94793750I0J-243750D01*
G01*
G37*
G36*
G01*
X98425000Y-94793750D02*
X98425000Y-95706250D01*
G75*
G02*
X98181250Y-95950000I-243750J0D01*
G01*
X97693750Y-95950000D01*
G75*
G02*
X97450000Y-95706250I0J243750D01*
G01*
X97450000Y-94793750D01*
G75*
G02*
X97693750Y-94550000I243750J0D01*
G01*
X98181250Y-94550000D01*
G75*
G02*
X98425000Y-94793750I0J-243750D01*
G01*
G37*
G36*
G01*
X96550000Y-93043750D02*
X96550000Y-93956250D01*
G75*
G02*
X96306250Y-94200000I-243750J0D01*
G01*
X95818750Y-94200000D01*
G75*
G02*
X95575000Y-93956250I0J243750D01*
G01*
X95575000Y-93043750D01*
G75*
G02*
X95818750Y-92800000I243750J0D01*
G01*
X96306250Y-92800000D01*
G75*
G02*
X96550000Y-93043750I0J-243750D01*
G01*
G37*
G36*
G01*
X98425000Y-93043750D02*
X98425000Y-93956250D01*
G75*
G02*
X98181250Y-94200000I-243750J0D01*
G01*
X97693750Y-94200000D01*
G75*
G02*
X97450000Y-93956250I0J243750D01*
G01*
X97450000Y-93043750D01*
G75*
G02*
X97693750Y-92800000I243750J0D01*
G01*
X98181250Y-92800000D01*
G75*
G02*
X98425000Y-93043750I0J-243750D01*
G01*
G37*
D12*
X104500000Y-91410000D03*
X103500000Y-91410000D03*
X102500000Y-91410000D03*
X101500000Y-91410000D03*
X100500000Y-91410000D03*
X99500000Y-91410000D03*
X98500000Y-91410000D03*
X97500000Y-91410000D03*
X96500000Y-91410000D03*
X95500000Y-91410000D03*
D13*
X107300000Y-88710000D03*
X92700000Y-88710000D03*
D12*
X102500000Y-88910000D03*
X101500000Y-88910000D03*
X100500000Y-88910000D03*
X99500000Y-88910000D03*
X98500000Y-88910000D03*
X97500000Y-88910000D03*
D13*
X105300000Y-86210000D03*
X94700000Y-86210000D03*
M02*
