G04 #@! TF.GenerationSoftware,KiCad,Pcbnew,5.1.5+dfsg1-2build2*
G04 #@! TF.CreationDate,2021-01-04T12:44:22+01:00*
G04 #@! TF.ProjectId,XY_TOUCH,58595f54-4f55-4434-982e-6b696361645f,rev?*
G04 #@! TF.SameCoordinates,Original*
G04 #@! TF.FileFunction,Legend,Bot*
G04 #@! TF.FilePolarity,Positive*
%FSLAX46Y46*%
G04 Gerber Fmt 4.6, Leading zero omitted, Abs format (unit mm)*
G04 Created by KiCad (PCBNEW 5.1.5+dfsg1-2build2) date 2021-01-04 12:44:22*
%MOMM*%
%LPD*%
G04 APERTURE LIST*
%ADD10C,0.150000*%
%ADD11C,0.120000*%
G04 APERTURE END LIST*
D10*
X103595238Y-120552380D02*
X102928571Y-121552380D01*
X102928571Y-120552380D02*
X103595238Y-121552380D01*
X102357142Y-121076190D02*
X102357142Y-121552380D01*
X102690476Y-120552380D02*
X102357142Y-121076190D01*
X102023809Y-120552380D01*
X101928571Y-121647619D02*
X101166666Y-121647619D01*
X101071428Y-120552380D02*
X100500000Y-120552380D01*
X100785714Y-121552380D02*
X100785714Y-120552380D01*
X99976190Y-120552380D02*
X99785714Y-120552380D01*
X99690476Y-120600000D01*
X99595238Y-120695238D01*
X99547619Y-120885714D01*
X99547619Y-121219047D01*
X99595238Y-121409523D01*
X99690476Y-121504761D01*
X99785714Y-121552380D01*
X99976190Y-121552380D01*
X100071428Y-121504761D01*
X100166666Y-121409523D01*
X100214285Y-121219047D01*
X100214285Y-120885714D01*
X100166666Y-120695238D01*
X100071428Y-120600000D01*
X99976190Y-120552380D01*
X99119047Y-120552380D02*
X99119047Y-121361904D01*
X99071428Y-121457142D01*
X99023809Y-121504761D01*
X98928571Y-121552380D01*
X98738095Y-121552380D01*
X98642857Y-121504761D01*
X98595238Y-121457142D01*
X98547619Y-121361904D01*
X98547619Y-120552380D01*
X97500000Y-121457142D02*
X97547619Y-121504761D01*
X97690476Y-121552380D01*
X97785714Y-121552380D01*
X97928571Y-121504761D01*
X98023809Y-121409523D01*
X98071428Y-121314285D01*
X98119047Y-121123809D01*
X98119047Y-120980952D01*
X98071428Y-120790476D01*
X98023809Y-120695238D01*
X97928571Y-120600000D01*
X97785714Y-120552380D01*
X97690476Y-120552380D01*
X97547619Y-120600000D01*
X97500000Y-120647619D01*
X97071428Y-121552380D02*
X97071428Y-120552380D01*
X97071428Y-121028571D02*
X96500000Y-121028571D01*
X96500000Y-121552380D02*
X96500000Y-120552380D01*
X107071428Y-122678571D02*
X106738095Y-122678571D01*
X106595238Y-123202380D02*
X107071428Y-123202380D01*
X107071428Y-122202380D01*
X106595238Y-122202380D01*
X106166666Y-122678571D02*
X105833333Y-122678571D01*
X105690476Y-123202380D02*
X106166666Y-123202380D01*
X106166666Y-122202380D01*
X105690476Y-122202380D01*
X105261904Y-123107142D02*
X105214285Y-123154761D01*
X105261904Y-123202380D01*
X105309523Y-123154761D01*
X105261904Y-123107142D01*
X105261904Y-123202380D01*
X105261904Y-122583333D02*
X105214285Y-122630952D01*
X105261904Y-122678571D01*
X105309523Y-122630952D01*
X105261904Y-122583333D01*
X105261904Y-122678571D01*
X104071428Y-123154761D02*
X103928571Y-123202380D01*
X103690476Y-123202380D01*
X103595238Y-123154761D01*
X103547619Y-123107142D01*
X103500000Y-123011904D01*
X103500000Y-122916666D01*
X103547619Y-122821428D01*
X103595238Y-122773809D01*
X103690476Y-122726190D01*
X103880952Y-122678571D01*
X103976190Y-122630952D01*
X104023809Y-122583333D01*
X104071428Y-122488095D01*
X104071428Y-122392857D01*
X104023809Y-122297619D01*
X103976190Y-122250000D01*
X103880952Y-122202380D01*
X103642857Y-122202380D01*
X103500000Y-122250000D01*
X103071428Y-122202380D02*
X103071428Y-123011904D01*
X103023809Y-123107142D01*
X102976190Y-123154761D01*
X102880952Y-123202380D01*
X102690476Y-123202380D01*
X102595238Y-123154761D01*
X102547619Y-123107142D01*
X102500000Y-123011904D01*
X102500000Y-122202380D01*
X102023809Y-123202380D02*
X102023809Y-122202380D01*
X101452380Y-123202380D02*
X101880952Y-122630952D01*
X101452380Y-122202380D02*
X102023809Y-122773809D01*
X101023809Y-122202380D02*
X101023809Y-123011904D01*
X100976190Y-123107142D01*
X100928571Y-123154761D01*
X100833333Y-123202380D01*
X100642857Y-123202380D01*
X100547619Y-123154761D01*
X100500000Y-123107142D01*
X100452380Y-123011904D01*
X100452380Y-122202380D01*
X99261904Y-122297619D02*
X99214285Y-122250000D01*
X99119047Y-122202380D01*
X98880952Y-122202380D01*
X98785714Y-122250000D01*
X98738095Y-122297619D01*
X98690476Y-122392857D01*
X98690476Y-122488095D01*
X98738095Y-122630952D01*
X99309523Y-123202380D01*
X98690476Y-123202380D01*
X98071428Y-122202380D02*
X97976190Y-122202380D01*
X97880952Y-122250000D01*
X97833333Y-122297619D01*
X97785714Y-122392857D01*
X97738095Y-122583333D01*
X97738095Y-122821428D01*
X97785714Y-123011904D01*
X97833333Y-123107142D01*
X97880952Y-123154761D01*
X97976190Y-123202380D01*
X98071428Y-123202380D01*
X98166666Y-123154761D01*
X98214285Y-123107142D01*
X98261904Y-123011904D01*
X98309523Y-122821428D01*
X98309523Y-122583333D01*
X98261904Y-122392857D01*
X98214285Y-122297619D01*
X98166666Y-122250000D01*
X98071428Y-122202380D01*
X97357142Y-122297619D02*
X97309523Y-122250000D01*
X97214285Y-122202380D01*
X96976190Y-122202380D01*
X96880952Y-122250000D01*
X96833333Y-122297619D01*
X96785714Y-122392857D01*
X96785714Y-122488095D01*
X96833333Y-122630952D01*
X97404761Y-123202380D01*
X96785714Y-123202380D01*
X96166666Y-122202380D02*
X96071428Y-122202380D01*
X95976190Y-122250000D01*
X95928571Y-122297619D01*
X95880952Y-122392857D01*
X95833333Y-122583333D01*
X95833333Y-122821428D01*
X95880952Y-123011904D01*
X95928571Y-123107142D01*
X95976190Y-123154761D01*
X96071428Y-123202380D01*
X96166666Y-123202380D01*
X96261904Y-123154761D01*
X96309523Y-123107142D01*
X96357142Y-123011904D01*
X96404761Y-122821428D01*
X96404761Y-122583333D01*
X96357142Y-122392857D01*
X96309523Y-122297619D01*
X96261904Y-122250000D01*
X96166666Y-122202380D01*
X94690476Y-122154761D02*
X95547619Y-123440476D01*
X93833333Y-123202380D02*
X94404761Y-123202380D01*
X94119047Y-123202380D02*
X94119047Y-122202380D01*
X94214285Y-122345238D01*
X94309523Y-122440476D01*
X94404761Y-122488095D01*
X93452380Y-122297619D02*
X93404761Y-122250000D01*
X93309523Y-122202380D01*
X93071428Y-122202380D01*
X92976190Y-122250000D01*
X92928571Y-122297619D01*
X92880952Y-122392857D01*
X92880952Y-122488095D01*
X92928571Y-122630952D01*
X93500000Y-123202380D01*
X92880952Y-123202380D01*
X103333333Y-123852380D02*
X103333333Y-124566666D01*
X103380952Y-124709523D01*
X103476190Y-124804761D01*
X103619047Y-124852380D01*
X103714285Y-124852380D01*
X102380952Y-124852380D02*
X102857142Y-124852380D01*
X102857142Y-123852380D01*
X101476190Y-124757142D02*
X101523809Y-124804761D01*
X101666666Y-124852380D01*
X101761904Y-124852380D01*
X101904761Y-124804761D01*
X102000000Y-124709523D01*
X102047619Y-124614285D01*
X102095238Y-124423809D01*
X102095238Y-124280952D01*
X102047619Y-124090476D01*
X102000000Y-123995238D01*
X101904761Y-123900000D01*
X101761904Y-123852380D01*
X101666666Y-123852380D01*
X101523809Y-123900000D01*
X101476190Y-123947619D01*
X100761904Y-123852380D02*
X100761904Y-124566666D01*
X100809523Y-124709523D01*
X100904761Y-124804761D01*
X101047619Y-124852380D01*
X101142857Y-124852380D01*
X99809523Y-124852380D02*
X100285714Y-124852380D01*
X100285714Y-123852380D01*
X98904761Y-124757142D02*
X98952380Y-124804761D01*
X99095238Y-124852380D01*
X99190476Y-124852380D01*
X99333333Y-124804761D01*
X99428571Y-124709523D01*
X99476190Y-124614285D01*
X99523809Y-124423809D01*
X99523809Y-124280952D01*
X99476190Y-124090476D01*
X99428571Y-123995238D01*
X99333333Y-123900000D01*
X99190476Y-123852380D01*
X99095238Y-123852380D01*
X98952380Y-123900000D01*
X98904761Y-123947619D01*
X98190476Y-123852380D02*
X98190476Y-124566666D01*
X98238095Y-124709523D01*
X98333333Y-124804761D01*
X98476190Y-124852380D01*
X98571428Y-124852380D01*
X97238095Y-124852380D02*
X97714285Y-124852380D01*
X97714285Y-123852380D01*
X96333333Y-124757142D02*
X96380952Y-124804761D01*
X96523809Y-124852380D01*
X96619047Y-124852380D01*
X96761904Y-124804761D01*
X96857142Y-124709523D01*
X96904761Y-124614285D01*
X96952380Y-124423809D01*
X96952380Y-124280952D01*
X96904761Y-124090476D01*
X96857142Y-123995238D01*
X96761904Y-123900000D01*
X96619047Y-123852380D01*
X96523809Y-123852380D01*
X96380952Y-123900000D01*
X96333333Y-123947619D01*
D11*
X102400000Y-102800000D02*
G75*
G03X102400000Y-102800000I-200000J0D01*
G01*
X102150000Y-101925000D02*
X102150000Y-102375000D01*
X97850000Y-102150000D02*
X98075000Y-102150000D01*
X97850000Y-101925000D02*
X97850000Y-102150000D01*
X97850000Y-97850000D02*
X98075000Y-97850000D01*
X97850000Y-98075000D02*
X97850000Y-97850000D01*
X102150000Y-97850000D02*
X101925000Y-97850000D01*
X102150000Y-98075000D02*
X102150000Y-97850000D01*
X97258578Y-94540000D02*
X96741422Y-94540000D01*
X97258578Y-95960000D02*
X96741422Y-95960000D01*
X96771400Y-94919800D02*
X96898400Y-94843600D01*
X96898400Y-94843600D02*
X97050800Y-94843600D01*
X97050800Y-94843600D02*
X97177800Y-94945200D01*
X97177800Y-94945200D02*
X97228600Y-95097600D01*
X97228600Y-95097600D02*
X97254000Y-95224600D01*
X96771400Y-95554800D02*
X96898400Y-95631000D01*
X96898400Y-95631000D02*
X97050800Y-95631000D01*
X97050800Y-95631000D02*
X97177800Y-95529400D01*
X97177800Y-95529400D02*
X97228600Y-95377000D01*
X97228600Y-95377000D02*
X97254000Y-95250000D01*
X97258578Y-92790000D02*
X96741422Y-92790000D01*
X97258578Y-94210000D02*
X96741422Y-94210000D01*
X96771400Y-93169800D02*
X96898400Y-93093600D01*
X96898400Y-93093600D02*
X97050800Y-93093600D01*
X97050800Y-93093600D02*
X97177800Y-93195200D01*
X97177800Y-93195200D02*
X97228600Y-93347600D01*
X97228600Y-93347600D02*
X97254000Y-93474600D01*
X96771400Y-93804800D02*
X96898400Y-93881000D01*
X96898400Y-93881000D02*
X97050800Y-93881000D01*
X97050800Y-93881000D02*
X97177800Y-93779400D01*
X97177800Y-93779400D02*
X97228600Y-93627000D01*
X97228600Y-93627000D02*
X97254000Y-93500000D01*
X95040000Y-91910000D02*
X95040000Y-91320000D01*
X95040000Y-91320000D02*
X93060000Y-91320000D01*
X93060000Y-91320000D02*
X93060000Y-91670000D01*
X93060000Y-91670000D02*
X92290000Y-91670000D01*
X92290000Y-91670000D02*
X92290000Y-89620000D01*
X92290000Y-87800000D02*
X92290000Y-87500000D01*
X92290000Y-87500000D02*
X93090000Y-87500000D01*
X93090000Y-87500000D02*
X93090000Y-86200000D01*
X93090000Y-86200000D02*
X106910000Y-86200000D01*
X106910000Y-86200000D02*
X106910000Y-87500000D01*
X106910000Y-87500000D02*
X107710000Y-87500000D01*
X107710000Y-87500000D02*
X107710000Y-87800000D01*
X107710000Y-89620000D02*
X107710000Y-91670000D01*
X107710000Y-91670000D02*
X106940000Y-91670000D01*
X106940000Y-91670000D02*
X106940000Y-91320000D01*
X106940000Y-91320000D02*
X104960000Y-91320000D01*
X97040000Y-89410000D02*
X97040000Y-88820000D01*
X97040000Y-88820000D02*
X95060000Y-88820000D01*
X95060000Y-88820000D02*
X95060000Y-89170000D01*
X95060000Y-89170000D02*
X94290000Y-89170000D01*
X94290000Y-89170000D02*
X94290000Y-87120000D01*
X94290000Y-85300000D02*
X94290000Y-85000000D01*
X94290000Y-85000000D02*
X95090000Y-85000000D01*
X95090000Y-85000000D02*
X95090000Y-83700000D01*
X95090000Y-83700000D02*
X104910000Y-83700000D01*
X104910000Y-83700000D02*
X104910000Y-85000000D01*
X104910000Y-85000000D02*
X105710000Y-85000000D01*
X105710000Y-85000000D02*
X105710000Y-85300000D01*
X105710000Y-87120000D02*
X105710000Y-89170000D01*
X105710000Y-89170000D02*
X104940000Y-89170000D01*
X104940000Y-89170000D02*
X104940000Y-88820000D01*
X104940000Y-88820000D02*
X102960000Y-88820000D01*
X94150000Y-93800000D02*
X94150000Y-93200000D01*
X92050000Y-94500000D02*
X93450000Y-94500000D01*
X91350000Y-93200000D02*
X91350000Y-93800000D01*
X93450000Y-92500000D02*
X92050000Y-92500000D01*
X94150000Y-93200000D02*
G75*
G03X93450000Y-92500000I-700000J0D01*
G01*
X93450000Y-94500000D02*
G75*
G03X94150000Y-93800000I0J700000D01*
G01*
X91350000Y-93800000D02*
G75*
G03X92050000Y-94500000I700000J0D01*
G01*
X92050000Y-92500000D02*
G75*
G03X91350000Y-93200000I0J-700000D01*
G01*
X68200000Y-135750000D02*
G75*
G03X68200000Y-135750000I-700000J0D01*
G01*
X68200000Y-129250000D02*
G75*
G03X68200000Y-129250000I-700000J0D01*
G01*
X68200000Y-122750000D02*
G75*
G03X68200000Y-122750000I-700000J0D01*
G01*
X68200000Y-116250000D02*
G75*
G03X68200000Y-116250000I-700000J0D01*
G01*
X68200000Y-109750000D02*
G75*
G03X68200000Y-109750000I-700000J0D01*
G01*
X68200000Y-103250000D02*
G75*
G03X68200000Y-103250000I-700000J0D01*
G01*
X68200000Y-96750000D02*
G75*
G03X68200000Y-96750000I-700000J0D01*
G01*
X68200000Y-90250000D02*
G75*
G03X68200000Y-90250000I-700000J0D01*
G01*
X68200000Y-83750000D02*
G75*
G03X68200000Y-83750000I-700000J0D01*
G01*
X68200000Y-77250000D02*
G75*
G03X68200000Y-77250000I-700000J0D01*
G01*
X68200000Y-70750000D02*
G75*
G03X68200000Y-70750000I-700000J0D01*
G01*
X136450000Y-132500000D02*
G75*
G03X136450000Y-132500000I-700000J0D01*
G01*
X129950000Y-132500000D02*
G75*
G03X129950000Y-132500000I-700000J0D01*
G01*
X123450000Y-132500000D02*
G75*
G03X123450000Y-132500000I-700000J0D01*
G01*
X116950000Y-132500000D02*
G75*
G03X116950000Y-132500000I-700000J0D01*
G01*
X110450000Y-132500000D02*
G75*
G03X110450000Y-132500000I-700000J0D01*
G01*
X103950000Y-132500000D02*
G75*
G03X103950000Y-132500000I-700000J0D01*
G01*
X97450000Y-132500000D02*
G75*
G03X97450000Y-132500000I-700000J0D01*
G01*
X90950000Y-132500000D02*
G75*
G03X90950000Y-132500000I-700000J0D01*
G01*
X84450000Y-132500000D02*
G75*
G03X84450000Y-132500000I-700000J0D01*
G01*
X77950000Y-132500000D02*
G75*
G03X77950000Y-132500000I-700000J0D01*
G01*
X71450000Y-132500000D02*
G75*
G03X71450000Y-132500000I-700000J0D01*
G01*
X64950000Y-132500000D02*
G75*
G03X64950000Y-132500000I-700000J0D01*
G01*
X68200000Y-64250000D02*
G75*
G03X68200000Y-64250000I-700000J0D01*
G01*
D10*
X67976190Y-134176190D02*
X67976190Y-134652380D01*
X68309523Y-133652380D02*
X67976190Y-134176190D01*
X67642857Y-133652380D01*
X67119047Y-133652380D02*
X67023809Y-133652380D01*
X66928571Y-133700000D01*
X66880952Y-133747619D01*
X66833333Y-133842857D01*
X66785714Y-134033333D01*
X66785714Y-134271428D01*
X66833333Y-134461904D01*
X66880952Y-134557142D01*
X66928571Y-134604761D01*
X67023809Y-134652380D01*
X67119047Y-134652380D01*
X67214285Y-134604761D01*
X67261904Y-134557142D01*
X67309523Y-134461904D01*
X67357142Y-134271428D01*
X67357142Y-134033333D01*
X67309523Y-133842857D01*
X67261904Y-133747619D01*
X67214285Y-133700000D01*
X67119047Y-133652380D01*
X67976190Y-127676190D02*
X67976190Y-128152380D01*
X68309523Y-127152380D02*
X67976190Y-127676190D01*
X67642857Y-127152380D01*
X66785714Y-128152380D02*
X67357142Y-128152380D01*
X67071428Y-128152380D02*
X67071428Y-127152380D01*
X67166666Y-127295238D01*
X67261904Y-127390476D01*
X67357142Y-127438095D01*
X67976190Y-121176190D02*
X67976190Y-121652380D01*
X68309523Y-120652380D02*
X67976190Y-121176190D01*
X67642857Y-120652380D01*
X67357142Y-120747619D02*
X67309523Y-120700000D01*
X67214285Y-120652380D01*
X66976190Y-120652380D01*
X66880952Y-120700000D01*
X66833333Y-120747619D01*
X66785714Y-120842857D01*
X66785714Y-120938095D01*
X66833333Y-121080952D01*
X67404761Y-121652380D01*
X66785714Y-121652380D01*
X67976190Y-114676190D02*
X67976190Y-115152380D01*
X68309523Y-114152380D02*
X67976190Y-114676190D01*
X67642857Y-114152380D01*
X67404761Y-114152380D02*
X66785714Y-114152380D01*
X67119047Y-114533333D01*
X66976190Y-114533333D01*
X66880952Y-114580952D01*
X66833333Y-114628571D01*
X66785714Y-114723809D01*
X66785714Y-114961904D01*
X66833333Y-115057142D01*
X66880952Y-115104761D01*
X66976190Y-115152380D01*
X67261904Y-115152380D01*
X67357142Y-115104761D01*
X67404761Y-115057142D01*
X67976190Y-108176190D02*
X67976190Y-108652380D01*
X68309523Y-107652380D02*
X67976190Y-108176190D01*
X67642857Y-107652380D01*
X66880952Y-107985714D02*
X66880952Y-108652380D01*
X67119047Y-107604761D02*
X67357142Y-108319047D01*
X66738095Y-108319047D01*
X67976190Y-101676190D02*
X67976190Y-102152380D01*
X68309523Y-101152380D02*
X67976190Y-101676190D01*
X67642857Y-101152380D01*
X66833333Y-101152380D02*
X67309523Y-101152380D01*
X67357142Y-101628571D01*
X67309523Y-101580952D01*
X67214285Y-101533333D01*
X66976190Y-101533333D01*
X66880952Y-101580952D01*
X66833333Y-101628571D01*
X66785714Y-101723809D01*
X66785714Y-101961904D01*
X66833333Y-102057142D01*
X66880952Y-102104761D01*
X66976190Y-102152380D01*
X67214285Y-102152380D01*
X67309523Y-102104761D01*
X67357142Y-102057142D01*
X67976190Y-95176190D02*
X67976190Y-95652380D01*
X68309523Y-94652380D02*
X67976190Y-95176190D01*
X67642857Y-94652380D01*
X66880952Y-94652380D02*
X67071428Y-94652380D01*
X67166666Y-94700000D01*
X67214285Y-94747619D01*
X67309523Y-94890476D01*
X67357142Y-95080952D01*
X67357142Y-95461904D01*
X67309523Y-95557142D01*
X67261904Y-95604761D01*
X67166666Y-95652380D01*
X66976190Y-95652380D01*
X66880952Y-95604761D01*
X66833333Y-95557142D01*
X66785714Y-95461904D01*
X66785714Y-95223809D01*
X66833333Y-95128571D01*
X66880952Y-95080952D01*
X66976190Y-95033333D01*
X67166666Y-95033333D01*
X67261904Y-95080952D01*
X67309523Y-95128571D01*
X67357142Y-95223809D01*
X67976190Y-88676190D02*
X67976190Y-89152380D01*
X68309523Y-88152380D02*
X67976190Y-88676190D01*
X67642857Y-88152380D01*
X67404761Y-88152380D02*
X66738095Y-88152380D01*
X67166666Y-89152380D01*
X67976190Y-82176190D02*
X67976190Y-82652380D01*
X68309523Y-81652380D02*
X67976190Y-82176190D01*
X67642857Y-81652380D01*
X67166666Y-82080952D02*
X67261904Y-82033333D01*
X67309523Y-81985714D01*
X67357142Y-81890476D01*
X67357142Y-81842857D01*
X67309523Y-81747619D01*
X67261904Y-81700000D01*
X67166666Y-81652380D01*
X66976190Y-81652380D01*
X66880952Y-81700000D01*
X66833333Y-81747619D01*
X66785714Y-81842857D01*
X66785714Y-81890476D01*
X66833333Y-81985714D01*
X66880952Y-82033333D01*
X66976190Y-82080952D01*
X67166666Y-82080952D01*
X67261904Y-82128571D01*
X67309523Y-82176190D01*
X67357142Y-82271428D01*
X67357142Y-82461904D01*
X67309523Y-82557142D01*
X67261904Y-82604761D01*
X67166666Y-82652380D01*
X66976190Y-82652380D01*
X66880952Y-82604761D01*
X66833333Y-82557142D01*
X66785714Y-82461904D01*
X66785714Y-82271428D01*
X66833333Y-82176190D01*
X66880952Y-82128571D01*
X66976190Y-82080952D01*
X67976190Y-75676190D02*
X67976190Y-76152380D01*
X68309523Y-75152380D02*
X67976190Y-75676190D01*
X67642857Y-75152380D01*
X67261904Y-76152380D02*
X67071428Y-76152380D01*
X66976190Y-76104761D01*
X66928571Y-76057142D01*
X66833333Y-75914285D01*
X66785714Y-75723809D01*
X66785714Y-75342857D01*
X66833333Y-75247619D01*
X66880952Y-75200000D01*
X66976190Y-75152380D01*
X67166666Y-75152380D01*
X67261904Y-75200000D01*
X67309523Y-75247619D01*
X67357142Y-75342857D01*
X67357142Y-75580952D01*
X67309523Y-75676190D01*
X67261904Y-75723809D01*
X67166666Y-75771428D01*
X66976190Y-75771428D01*
X66880952Y-75723809D01*
X66833333Y-75676190D01*
X66785714Y-75580952D01*
X68452380Y-69176190D02*
X68452380Y-69652380D01*
X68785714Y-68652380D02*
X68452380Y-69176190D01*
X68119047Y-68652380D01*
X67261904Y-69652380D02*
X67833333Y-69652380D01*
X67547619Y-69652380D02*
X67547619Y-68652380D01*
X67642857Y-68795238D01*
X67738095Y-68890476D01*
X67833333Y-68938095D01*
X66642857Y-68652380D02*
X66547619Y-68652380D01*
X66452380Y-68700000D01*
X66404761Y-68747619D01*
X66357142Y-68842857D01*
X66309523Y-69033333D01*
X66309523Y-69271428D01*
X66357142Y-69461904D01*
X66404761Y-69557142D01*
X66452380Y-69604761D01*
X66547619Y-69652380D01*
X66642857Y-69652380D01*
X66738095Y-69604761D01*
X66785714Y-69557142D01*
X66833333Y-69461904D01*
X66880952Y-69271428D01*
X66880952Y-69033333D01*
X66833333Y-68842857D01*
X66785714Y-68747619D01*
X66738095Y-68700000D01*
X66642857Y-68652380D01*
X136559523Y-130402380D02*
X135892857Y-131402380D01*
X135892857Y-130402380D02*
X136559523Y-131402380D01*
X135321428Y-130402380D02*
X135226190Y-130402380D01*
X135130952Y-130450000D01*
X135083333Y-130497619D01*
X135035714Y-130592857D01*
X134988095Y-130783333D01*
X134988095Y-131021428D01*
X135035714Y-131211904D01*
X135083333Y-131307142D01*
X135130952Y-131354761D01*
X135226190Y-131402380D01*
X135321428Y-131402380D01*
X135416666Y-131354761D01*
X135464285Y-131307142D01*
X135511904Y-131211904D01*
X135559523Y-131021428D01*
X135559523Y-130783333D01*
X135511904Y-130592857D01*
X135464285Y-130497619D01*
X135416666Y-130450000D01*
X135321428Y-130402380D01*
X130059523Y-130402380D02*
X129392857Y-131402380D01*
X129392857Y-130402380D02*
X130059523Y-131402380D01*
X128488095Y-131402380D02*
X129059523Y-131402380D01*
X128773809Y-131402380D02*
X128773809Y-130402380D01*
X128869047Y-130545238D01*
X128964285Y-130640476D01*
X129059523Y-130688095D01*
X123559523Y-130402380D02*
X122892857Y-131402380D01*
X122892857Y-130402380D02*
X123559523Y-131402380D01*
X122559523Y-130497619D02*
X122511904Y-130450000D01*
X122416666Y-130402380D01*
X122178571Y-130402380D01*
X122083333Y-130450000D01*
X122035714Y-130497619D01*
X121988095Y-130592857D01*
X121988095Y-130688095D01*
X122035714Y-130830952D01*
X122607142Y-131402380D01*
X121988095Y-131402380D01*
X117059523Y-130402380D02*
X116392857Y-131402380D01*
X116392857Y-130402380D02*
X117059523Y-131402380D01*
X116107142Y-130402380D02*
X115488095Y-130402380D01*
X115821428Y-130783333D01*
X115678571Y-130783333D01*
X115583333Y-130830952D01*
X115535714Y-130878571D01*
X115488095Y-130973809D01*
X115488095Y-131211904D01*
X115535714Y-131307142D01*
X115583333Y-131354761D01*
X115678571Y-131402380D01*
X115964285Y-131402380D01*
X116059523Y-131354761D01*
X116107142Y-131307142D01*
X110559523Y-130402380D02*
X109892857Y-131402380D01*
X109892857Y-130402380D02*
X110559523Y-131402380D01*
X109083333Y-130735714D02*
X109083333Y-131402380D01*
X109321428Y-130354761D02*
X109559523Y-131069047D01*
X108940476Y-131069047D01*
X104059523Y-130402380D02*
X103392857Y-131402380D01*
X103392857Y-130402380D02*
X104059523Y-131402380D01*
X102535714Y-130402380D02*
X103011904Y-130402380D01*
X103059523Y-130878571D01*
X103011904Y-130830952D01*
X102916666Y-130783333D01*
X102678571Y-130783333D01*
X102583333Y-130830952D01*
X102535714Y-130878571D01*
X102488095Y-130973809D01*
X102488095Y-131211904D01*
X102535714Y-131307142D01*
X102583333Y-131354761D01*
X102678571Y-131402380D01*
X102916666Y-131402380D01*
X103011904Y-131354761D01*
X103059523Y-131307142D01*
X97559523Y-130402380D02*
X96892857Y-131402380D01*
X96892857Y-130402380D02*
X97559523Y-131402380D01*
X96083333Y-130402380D02*
X96273809Y-130402380D01*
X96369047Y-130450000D01*
X96416666Y-130497619D01*
X96511904Y-130640476D01*
X96559523Y-130830952D01*
X96559523Y-131211904D01*
X96511904Y-131307142D01*
X96464285Y-131354761D01*
X96369047Y-131402380D01*
X96178571Y-131402380D01*
X96083333Y-131354761D01*
X96035714Y-131307142D01*
X95988095Y-131211904D01*
X95988095Y-130973809D01*
X96035714Y-130878571D01*
X96083333Y-130830952D01*
X96178571Y-130783333D01*
X96369047Y-130783333D01*
X96464285Y-130830952D01*
X96511904Y-130878571D01*
X96559523Y-130973809D01*
X91059523Y-130402380D02*
X90392857Y-131402380D01*
X90392857Y-130402380D02*
X91059523Y-131402380D01*
X90107142Y-130402380D02*
X89440476Y-130402380D01*
X89869047Y-131402380D01*
X84559523Y-130402380D02*
X83892857Y-131402380D01*
X83892857Y-130402380D02*
X84559523Y-131402380D01*
X83369047Y-130830952D02*
X83464285Y-130783333D01*
X83511904Y-130735714D01*
X83559523Y-130640476D01*
X83559523Y-130592857D01*
X83511904Y-130497619D01*
X83464285Y-130450000D01*
X83369047Y-130402380D01*
X83178571Y-130402380D01*
X83083333Y-130450000D01*
X83035714Y-130497619D01*
X82988095Y-130592857D01*
X82988095Y-130640476D01*
X83035714Y-130735714D01*
X83083333Y-130783333D01*
X83178571Y-130830952D01*
X83369047Y-130830952D01*
X83464285Y-130878571D01*
X83511904Y-130926190D01*
X83559523Y-131021428D01*
X83559523Y-131211904D01*
X83511904Y-131307142D01*
X83464285Y-131354761D01*
X83369047Y-131402380D01*
X83178571Y-131402380D01*
X83083333Y-131354761D01*
X83035714Y-131307142D01*
X82988095Y-131211904D01*
X82988095Y-131021428D01*
X83035714Y-130926190D01*
X83083333Y-130878571D01*
X83178571Y-130830952D01*
X78059523Y-130402380D02*
X77392857Y-131402380D01*
X77392857Y-130402380D02*
X78059523Y-131402380D01*
X76964285Y-131402380D02*
X76773809Y-131402380D01*
X76678571Y-131354761D01*
X76630952Y-131307142D01*
X76535714Y-131164285D01*
X76488095Y-130973809D01*
X76488095Y-130592857D01*
X76535714Y-130497619D01*
X76583333Y-130450000D01*
X76678571Y-130402380D01*
X76869047Y-130402380D01*
X76964285Y-130450000D01*
X77011904Y-130497619D01*
X77059523Y-130592857D01*
X77059523Y-130830952D01*
X77011904Y-130926190D01*
X76964285Y-130973809D01*
X76869047Y-131021428D01*
X76678571Y-131021428D01*
X76583333Y-130973809D01*
X76535714Y-130926190D01*
X76488095Y-130830952D01*
X72035714Y-130402380D02*
X71369047Y-131402380D01*
X71369047Y-130402380D02*
X72035714Y-131402380D01*
X70464285Y-131402380D02*
X71035714Y-131402380D01*
X70750000Y-131402380D02*
X70750000Y-130402380D01*
X70845238Y-130545238D01*
X70940476Y-130640476D01*
X71035714Y-130688095D01*
X69845238Y-130402380D02*
X69750000Y-130402380D01*
X69654761Y-130450000D01*
X69607142Y-130497619D01*
X69559523Y-130592857D01*
X69511904Y-130783333D01*
X69511904Y-131021428D01*
X69559523Y-131211904D01*
X69607142Y-131307142D01*
X69654761Y-131354761D01*
X69750000Y-131402380D01*
X69845238Y-131402380D01*
X69940476Y-131354761D01*
X69988095Y-131307142D01*
X70035714Y-131211904D01*
X70083333Y-131021428D01*
X70083333Y-130783333D01*
X70035714Y-130592857D01*
X69988095Y-130497619D01*
X69940476Y-130450000D01*
X69845238Y-130402380D01*
X65535714Y-130402380D02*
X64869047Y-131402380D01*
X64869047Y-130402380D02*
X65535714Y-131402380D01*
X63964285Y-131402380D02*
X64535714Y-131402380D01*
X64250000Y-131402380D02*
X64250000Y-130402380D01*
X64345238Y-130545238D01*
X64440476Y-130640476D01*
X64535714Y-130688095D01*
X63011904Y-131402380D02*
X63583333Y-131402380D01*
X63297619Y-131402380D02*
X63297619Y-130402380D01*
X63392857Y-130545238D01*
X63488095Y-130640476D01*
X63583333Y-130688095D01*
X68452380Y-62676190D02*
X68452380Y-63152380D01*
X68785714Y-62152380D02*
X68452380Y-62676190D01*
X68119047Y-62152380D01*
X67261904Y-63152380D02*
X67833333Y-63152380D01*
X67547619Y-63152380D02*
X67547619Y-62152380D01*
X67642857Y-62295238D01*
X67738095Y-62390476D01*
X67833333Y-62438095D01*
X66309523Y-63152380D02*
X66880952Y-63152380D01*
X66595238Y-63152380D02*
X66595238Y-62152380D01*
X66690476Y-62295238D01*
X66785714Y-62390476D01*
X66880952Y-62438095D01*
X144214285Y-145002380D02*
X144214285Y-144002380D01*
X143976190Y-144002380D01*
X143833333Y-144050000D01*
X143738095Y-144145238D01*
X143690476Y-144240476D01*
X143642857Y-144430952D01*
X143642857Y-144573809D01*
X143690476Y-144764285D01*
X143738095Y-144859523D01*
X143833333Y-144954761D01*
X143976190Y-145002380D01*
X144214285Y-145002380D01*
X143261904Y-144954761D02*
X143119047Y-145002380D01*
X142880952Y-145002380D01*
X142785714Y-144954761D01*
X142738095Y-144907142D01*
X142690476Y-144811904D01*
X142690476Y-144716666D01*
X142738095Y-144621428D01*
X142785714Y-144573809D01*
X142880952Y-144526190D01*
X143071428Y-144478571D01*
X143166666Y-144430952D01*
X143214285Y-144383333D01*
X143261904Y-144288095D01*
X143261904Y-144192857D01*
X143214285Y-144097619D01*
X143166666Y-144050000D01*
X143071428Y-144002380D01*
X142833333Y-144002380D01*
X142690476Y-144050000D01*
X142071428Y-144002380D02*
X141976190Y-144002380D01*
X141880952Y-144050000D01*
X141833333Y-144097619D01*
X141785714Y-144192857D01*
X141738095Y-144383333D01*
X141738095Y-144621428D01*
X141785714Y-144811904D01*
X141833333Y-144907142D01*
X141880952Y-144954761D01*
X141976190Y-145002380D01*
X142071428Y-145002380D01*
X142166666Y-144954761D01*
X142214285Y-144907142D01*
X142261904Y-144811904D01*
X142309523Y-144621428D01*
X142309523Y-144383333D01*
X142261904Y-144192857D01*
X142214285Y-144097619D01*
X142166666Y-144050000D01*
X142071428Y-144002380D01*
X144214285Y-59002380D02*
X144214285Y-58002380D01*
X143976190Y-58002380D01*
X143833333Y-58050000D01*
X143738095Y-58145238D01*
X143690476Y-58240476D01*
X143642857Y-58430952D01*
X143642857Y-58573809D01*
X143690476Y-58764285D01*
X143738095Y-58859523D01*
X143833333Y-58954761D01*
X143976190Y-59002380D01*
X144214285Y-59002380D01*
X143261904Y-58954761D02*
X143119047Y-59002380D01*
X142880952Y-59002380D01*
X142785714Y-58954761D01*
X142738095Y-58907142D01*
X142690476Y-58811904D01*
X142690476Y-58716666D01*
X142738095Y-58621428D01*
X142785714Y-58573809D01*
X142880952Y-58526190D01*
X143071428Y-58478571D01*
X143166666Y-58430952D01*
X143214285Y-58383333D01*
X143261904Y-58288095D01*
X143261904Y-58192857D01*
X143214285Y-58097619D01*
X143166666Y-58050000D01*
X143071428Y-58002380D01*
X142833333Y-58002380D01*
X142690476Y-58050000D01*
X142071428Y-58002380D02*
X141976190Y-58002380D01*
X141880952Y-58050000D01*
X141833333Y-58097619D01*
X141785714Y-58192857D01*
X141738095Y-58383333D01*
X141738095Y-58621428D01*
X141785714Y-58811904D01*
X141833333Y-58907142D01*
X141880952Y-58954761D01*
X141976190Y-59002380D01*
X142071428Y-59002380D01*
X142166666Y-58954761D01*
X142214285Y-58907142D01*
X142261904Y-58811904D01*
X142309523Y-58621428D01*
X142309523Y-58383333D01*
X142261904Y-58192857D01*
X142214285Y-58097619D01*
X142166666Y-58050000D01*
X142071428Y-58002380D01*
X58214285Y-145002380D02*
X58214285Y-144002380D01*
X57976190Y-144002380D01*
X57833333Y-144050000D01*
X57738095Y-144145238D01*
X57690476Y-144240476D01*
X57642857Y-144430952D01*
X57642857Y-144573809D01*
X57690476Y-144764285D01*
X57738095Y-144859523D01*
X57833333Y-144954761D01*
X57976190Y-145002380D01*
X58214285Y-145002380D01*
X57261904Y-144954761D02*
X57119047Y-145002380D01*
X56880952Y-145002380D01*
X56785714Y-144954761D01*
X56738095Y-144907142D01*
X56690476Y-144811904D01*
X56690476Y-144716666D01*
X56738095Y-144621428D01*
X56785714Y-144573809D01*
X56880952Y-144526190D01*
X57071428Y-144478571D01*
X57166666Y-144430952D01*
X57214285Y-144383333D01*
X57261904Y-144288095D01*
X57261904Y-144192857D01*
X57214285Y-144097619D01*
X57166666Y-144050000D01*
X57071428Y-144002380D01*
X56833333Y-144002380D01*
X56690476Y-144050000D01*
X56071428Y-144002380D02*
X55976190Y-144002380D01*
X55880952Y-144050000D01*
X55833333Y-144097619D01*
X55785714Y-144192857D01*
X55738095Y-144383333D01*
X55738095Y-144621428D01*
X55785714Y-144811904D01*
X55833333Y-144907142D01*
X55880952Y-144954761D01*
X55976190Y-145002380D01*
X56071428Y-145002380D01*
X56166666Y-144954761D01*
X56214285Y-144907142D01*
X56261904Y-144811904D01*
X56309523Y-144621428D01*
X56309523Y-144383333D01*
X56261904Y-144192857D01*
X56214285Y-144097619D01*
X56166666Y-144050000D01*
X56071428Y-144002380D01*
X58214285Y-59002380D02*
X58214285Y-58002380D01*
X57976190Y-58002380D01*
X57833333Y-58050000D01*
X57738095Y-58145238D01*
X57690476Y-58240476D01*
X57642857Y-58430952D01*
X57642857Y-58573809D01*
X57690476Y-58764285D01*
X57738095Y-58859523D01*
X57833333Y-58954761D01*
X57976190Y-59002380D01*
X58214285Y-59002380D01*
X57261904Y-58954761D02*
X57119047Y-59002380D01*
X56880952Y-59002380D01*
X56785714Y-58954761D01*
X56738095Y-58907142D01*
X56690476Y-58811904D01*
X56690476Y-58716666D01*
X56738095Y-58621428D01*
X56785714Y-58573809D01*
X56880952Y-58526190D01*
X57071428Y-58478571D01*
X57166666Y-58430952D01*
X57214285Y-58383333D01*
X57261904Y-58288095D01*
X57261904Y-58192857D01*
X57214285Y-58097619D01*
X57166666Y-58050000D01*
X57071428Y-58002380D01*
X56833333Y-58002380D01*
X56690476Y-58050000D01*
X56071428Y-58002380D02*
X55976190Y-58002380D01*
X55880952Y-58050000D01*
X55833333Y-58097619D01*
X55785714Y-58192857D01*
X55738095Y-58383333D01*
X55738095Y-58621428D01*
X55785714Y-58811904D01*
X55833333Y-58907142D01*
X55880952Y-58954761D01*
X55976190Y-59002380D01*
X56071428Y-59002380D01*
X56166666Y-58954761D01*
X56214285Y-58907142D01*
X56261904Y-58811904D01*
X56309523Y-58621428D01*
X56309523Y-58383333D01*
X56261904Y-58192857D01*
X56214285Y-58097619D01*
X56166666Y-58050000D01*
X56071428Y-58002380D01*
M02*
