G04 #@! TF.GenerationSoftware,KiCad,Pcbnew,5.1.5+dfsg1-2build2*
G04 #@! TF.CreationDate,2021-01-04T12:44:22+01:00*
G04 #@! TF.ProjectId,XY_TOUCH,58595f54-4f55-4434-982e-6b696361645f,rev?*
G04 #@! TF.SameCoordinates,Original*
G04 #@! TF.FileFunction,Profile,NP*
%FSLAX46Y46*%
G04 Gerber Fmt 4.6, Leading zero omitted, Abs format (unit mm)*
G04 Created by KiCad (PCBNEW 5.1.5+dfsg1-2build2) date 2021-01-04 12:44:22*
%MOMM*%
%LPD*%
G04 APERTURE LIST*
%ADD10C,0.050000*%
G04 APERTURE END LIST*
D10*
X59000000Y-138500000D02*
X59000000Y-61500000D01*
X55000000Y-61500000D02*
X55000000Y-138500000D01*
X145000000Y-138500000D02*
X145000000Y-61500000D01*
X141000000Y-61500000D02*
X141000000Y-138500000D01*
X58500000Y-61000000D02*
G75*
G02X59000000Y-61500000I0J-500000D01*
G01*
X58500000Y-61000000D02*
X55500000Y-61000000D01*
X55000000Y-61500000D02*
G75*
G02X55500000Y-61000000I500000J0D01*
G01*
X55500000Y-139000000D02*
X58500000Y-139000000D01*
X55500000Y-139000000D02*
G75*
G02X55000000Y-138500000I0J500000D01*
G01*
X59000000Y-138500000D02*
G75*
G02X58500000Y-139000000I-500000J0D01*
G01*
X138500000Y-141000000D02*
X61500000Y-141000000D01*
X61500000Y-145000000D02*
X138500000Y-145000000D01*
X61000000Y-141500000D02*
X61000000Y-144500000D01*
X61500000Y-145000000D02*
G75*
G02X61000000Y-144500000I0J500000D01*
G01*
X61000000Y-141500000D02*
G75*
G02X61500000Y-141000000I500000J0D01*
G01*
X138500000Y-141000000D02*
G75*
G02X139000000Y-141500000I0J-500000D01*
G01*
X139000000Y-144500000D02*
X139000000Y-141500000D01*
X139000000Y-144500000D02*
G75*
G02X138500000Y-145000000I-500000J0D01*
G01*
X141500000Y-139000000D02*
X144500000Y-139000000D01*
X141500000Y-139000000D02*
G75*
G02X141000000Y-138500000I0J500000D01*
G01*
X145000000Y-138500000D02*
G75*
G02X144500000Y-139000000I-500000J0D01*
G01*
X144500000Y-61000000D02*
G75*
G02X145000000Y-61500000I0J-500000D01*
G01*
X144500000Y-61000000D02*
X141500000Y-61000000D01*
X141000000Y-61500000D02*
G75*
G02X141500000Y-61000000I500000J0D01*
G01*
X138500000Y-55000000D02*
G75*
G02X139000000Y-55500000I0J-500000D01*
G01*
X139000000Y-58500000D02*
X139000000Y-55500000D01*
X139000000Y-58500000D02*
G75*
G02X138500000Y-59000000I-500000J0D01*
G01*
X61500000Y-59000000D02*
G75*
G02X61000000Y-58500000I0J500000D01*
G01*
X61000000Y-55500000D02*
G75*
G02X61500000Y-55000000I500000J0D01*
G01*
X138500000Y-55000000D02*
X61500000Y-55000000D01*
X61500000Y-59000000D02*
X138500000Y-59000000D01*
X61000000Y-55500000D02*
X61000000Y-58500000D01*
X52500000Y-57500000D02*
X57500000Y-52500000D01*
X52500000Y-142500000D02*
X52500000Y-57500000D01*
X57500000Y-147500000D02*
X52500000Y-142500000D01*
X142500000Y-147500000D02*
X57500000Y-147500000D01*
X147500000Y-142500000D02*
X142500000Y-147500000D01*
X147500000Y-57500000D02*
X147500000Y-142500000D01*
X142500000Y-52500000D02*
X147500000Y-57500000D01*
X57500000Y-52500000D02*
X142500000Y-52500000D01*
M02*
