G04 #@! TF.GenerationSoftware,KiCad,Pcbnew,5.1.5+dfsg1-2build2*
G04 #@! TF.CreationDate,2021-01-04T12:44:22+01:00*
G04 #@! TF.ProjectId,XY_TOUCH,58595f54-4f55-4434-982e-6b696361645f,rev?*
G04 #@! TF.SameCoordinates,Original*
G04 #@! TF.FileFunction,Paste,Bot*
G04 #@! TF.FilePolarity,Positive*
%FSLAX46Y46*%
G04 Gerber Fmt 4.6, Leading zero omitted, Abs format (unit mm)*
G04 Created by KiCad (PCBNEW 5.1.5+dfsg1-2build2) date 2021-01-04 12:44:22*
%MOMM*%
%LPD*%
G04 APERTURE LIST*
%ADD10O,0.200000X0.750000*%
%ADD11O,0.750000X0.200000*%
%ADD12C,0.100000*%
%ADD13R,0.400000X1.000000*%
%ADD14R,2.000000X1.300000*%
G04 APERTURE END LIST*
D10*
X101750000Y-102025000D03*
X101400000Y-102025000D03*
X101050000Y-102025000D03*
X100700000Y-102025000D03*
X100350000Y-102025000D03*
X100000000Y-102025000D03*
X99650000Y-102025000D03*
X99300000Y-102025000D03*
X98950000Y-102025000D03*
X98600000Y-102025000D03*
X98250000Y-102025000D03*
D11*
X97975000Y-101225000D03*
X97975000Y-100875000D03*
X97975000Y-100525000D03*
X97975000Y-100175000D03*
X97975000Y-99825000D03*
X97975000Y-99475000D03*
X97975000Y-99125000D03*
X97975000Y-98775000D03*
D10*
X98275000Y-97975000D03*
X98625000Y-97975000D03*
X98975000Y-97975000D03*
X99325000Y-97975000D03*
X99675000Y-97975000D03*
X100025000Y-97975000D03*
X100375000Y-97975000D03*
X100725000Y-97975000D03*
X101075000Y-97975000D03*
X101425000Y-97975000D03*
X101775000Y-97975000D03*
D11*
X102025000Y-98775000D03*
X102025000Y-99125000D03*
X102025000Y-99475000D03*
X102025000Y-99825000D03*
X102025000Y-100175000D03*
X102025000Y-100525000D03*
X102025000Y-100875000D03*
X102025000Y-101225000D03*
D12*
G36*
X96330142Y-94551174D02*
G01*
X96353803Y-94554684D01*
X96377007Y-94560496D01*
X96399529Y-94568554D01*
X96421153Y-94578782D01*
X96441670Y-94591079D01*
X96460883Y-94605329D01*
X96478607Y-94621393D01*
X96494671Y-94639117D01*
X96508921Y-94658330D01*
X96521218Y-94678847D01*
X96531446Y-94700471D01*
X96539504Y-94722993D01*
X96545316Y-94746197D01*
X96548826Y-94769858D01*
X96550000Y-94793750D01*
X96550000Y-95706250D01*
X96548826Y-95730142D01*
X96545316Y-95753803D01*
X96539504Y-95777007D01*
X96531446Y-95799529D01*
X96521218Y-95821153D01*
X96508921Y-95841670D01*
X96494671Y-95860883D01*
X96478607Y-95878607D01*
X96460883Y-95894671D01*
X96441670Y-95908921D01*
X96421153Y-95921218D01*
X96399529Y-95931446D01*
X96377007Y-95939504D01*
X96353803Y-95945316D01*
X96330142Y-95948826D01*
X96306250Y-95950000D01*
X95818750Y-95950000D01*
X95794858Y-95948826D01*
X95771197Y-95945316D01*
X95747993Y-95939504D01*
X95725471Y-95931446D01*
X95703847Y-95921218D01*
X95683330Y-95908921D01*
X95664117Y-95894671D01*
X95646393Y-95878607D01*
X95630329Y-95860883D01*
X95616079Y-95841670D01*
X95603782Y-95821153D01*
X95593554Y-95799529D01*
X95585496Y-95777007D01*
X95579684Y-95753803D01*
X95576174Y-95730142D01*
X95575000Y-95706250D01*
X95575000Y-94793750D01*
X95576174Y-94769858D01*
X95579684Y-94746197D01*
X95585496Y-94722993D01*
X95593554Y-94700471D01*
X95603782Y-94678847D01*
X95616079Y-94658330D01*
X95630329Y-94639117D01*
X95646393Y-94621393D01*
X95664117Y-94605329D01*
X95683330Y-94591079D01*
X95703847Y-94578782D01*
X95725471Y-94568554D01*
X95747993Y-94560496D01*
X95771197Y-94554684D01*
X95794858Y-94551174D01*
X95818750Y-94550000D01*
X96306250Y-94550000D01*
X96330142Y-94551174D01*
G37*
G36*
X98205142Y-94551174D02*
G01*
X98228803Y-94554684D01*
X98252007Y-94560496D01*
X98274529Y-94568554D01*
X98296153Y-94578782D01*
X98316670Y-94591079D01*
X98335883Y-94605329D01*
X98353607Y-94621393D01*
X98369671Y-94639117D01*
X98383921Y-94658330D01*
X98396218Y-94678847D01*
X98406446Y-94700471D01*
X98414504Y-94722993D01*
X98420316Y-94746197D01*
X98423826Y-94769858D01*
X98425000Y-94793750D01*
X98425000Y-95706250D01*
X98423826Y-95730142D01*
X98420316Y-95753803D01*
X98414504Y-95777007D01*
X98406446Y-95799529D01*
X98396218Y-95821153D01*
X98383921Y-95841670D01*
X98369671Y-95860883D01*
X98353607Y-95878607D01*
X98335883Y-95894671D01*
X98316670Y-95908921D01*
X98296153Y-95921218D01*
X98274529Y-95931446D01*
X98252007Y-95939504D01*
X98228803Y-95945316D01*
X98205142Y-95948826D01*
X98181250Y-95950000D01*
X97693750Y-95950000D01*
X97669858Y-95948826D01*
X97646197Y-95945316D01*
X97622993Y-95939504D01*
X97600471Y-95931446D01*
X97578847Y-95921218D01*
X97558330Y-95908921D01*
X97539117Y-95894671D01*
X97521393Y-95878607D01*
X97505329Y-95860883D01*
X97491079Y-95841670D01*
X97478782Y-95821153D01*
X97468554Y-95799529D01*
X97460496Y-95777007D01*
X97454684Y-95753803D01*
X97451174Y-95730142D01*
X97450000Y-95706250D01*
X97450000Y-94793750D01*
X97451174Y-94769858D01*
X97454684Y-94746197D01*
X97460496Y-94722993D01*
X97468554Y-94700471D01*
X97478782Y-94678847D01*
X97491079Y-94658330D01*
X97505329Y-94639117D01*
X97521393Y-94621393D01*
X97539117Y-94605329D01*
X97558330Y-94591079D01*
X97578847Y-94578782D01*
X97600471Y-94568554D01*
X97622993Y-94560496D01*
X97646197Y-94554684D01*
X97669858Y-94551174D01*
X97693750Y-94550000D01*
X98181250Y-94550000D01*
X98205142Y-94551174D01*
G37*
G36*
X96330142Y-92801174D02*
G01*
X96353803Y-92804684D01*
X96377007Y-92810496D01*
X96399529Y-92818554D01*
X96421153Y-92828782D01*
X96441670Y-92841079D01*
X96460883Y-92855329D01*
X96478607Y-92871393D01*
X96494671Y-92889117D01*
X96508921Y-92908330D01*
X96521218Y-92928847D01*
X96531446Y-92950471D01*
X96539504Y-92972993D01*
X96545316Y-92996197D01*
X96548826Y-93019858D01*
X96550000Y-93043750D01*
X96550000Y-93956250D01*
X96548826Y-93980142D01*
X96545316Y-94003803D01*
X96539504Y-94027007D01*
X96531446Y-94049529D01*
X96521218Y-94071153D01*
X96508921Y-94091670D01*
X96494671Y-94110883D01*
X96478607Y-94128607D01*
X96460883Y-94144671D01*
X96441670Y-94158921D01*
X96421153Y-94171218D01*
X96399529Y-94181446D01*
X96377007Y-94189504D01*
X96353803Y-94195316D01*
X96330142Y-94198826D01*
X96306250Y-94200000D01*
X95818750Y-94200000D01*
X95794858Y-94198826D01*
X95771197Y-94195316D01*
X95747993Y-94189504D01*
X95725471Y-94181446D01*
X95703847Y-94171218D01*
X95683330Y-94158921D01*
X95664117Y-94144671D01*
X95646393Y-94128607D01*
X95630329Y-94110883D01*
X95616079Y-94091670D01*
X95603782Y-94071153D01*
X95593554Y-94049529D01*
X95585496Y-94027007D01*
X95579684Y-94003803D01*
X95576174Y-93980142D01*
X95575000Y-93956250D01*
X95575000Y-93043750D01*
X95576174Y-93019858D01*
X95579684Y-92996197D01*
X95585496Y-92972993D01*
X95593554Y-92950471D01*
X95603782Y-92928847D01*
X95616079Y-92908330D01*
X95630329Y-92889117D01*
X95646393Y-92871393D01*
X95664117Y-92855329D01*
X95683330Y-92841079D01*
X95703847Y-92828782D01*
X95725471Y-92818554D01*
X95747993Y-92810496D01*
X95771197Y-92804684D01*
X95794858Y-92801174D01*
X95818750Y-92800000D01*
X96306250Y-92800000D01*
X96330142Y-92801174D01*
G37*
G36*
X98205142Y-92801174D02*
G01*
X98228803Y-92804684D01*
X98252007Y-92810496D01*
X98274529Y-92818554D01*
X98296153Y-92828782D01*
X98316670Y-92841079D01*
X98335883Y-92855329D01*
X98353607Y-92871393D01*
X98369671Y-92889117D01*
X98383921Y-92908330D01*
X98396218Y-92928847D01*
X98406446Y-92950471D01*
X98414504Y-92972993D01*
X98420316Y-92996197D01*
X98423826Y-93019858D01*
X98425000Y-93043750D01*
X98425000Y-93956250D01*
X98423826Y-93980142D01*
X98420316Y-94003803D01*
X98414504Y-94027007D01*
X98406446Y-94049529D01*
X98396218Y-94071153D01*
X98383921Y-94091670D01*
X98369671Y-94110883D01*
X98353607Y-94128607D01*
X98335883Y-94144671D01*
X98316670Y-94158921D01*
X98296153Y-94171218D01*
X98274529Y-94181446D01*
X98252007Y-94189504D01*
X98228803Y-94195316D01*
X98205142Y-94198826D01*
X98181250Y-94200000D01*
X97693750Y-94200000D01*
X97669858Y-94198826D01*
X97646197Y-94195316D01*
X97622993Y-94189504D01*
X97600471Y-94181446D01*
X97578847Y-94171218D01*
X97558330Y-94158921D01*
X97539117Y-94144671D01*
X97521393Y-94128607D01*
X97505329Y-94110883D01*
X97491079Y-94091670D01*
X97478782Y-94071153D01*
X97468554Y-94049529D01*
X97460496Y-94027007D01*
X97454684Y-94003803D01*
X97451174Y-93980142D01*
X97450000Y-93956250D01*
X97450000Y-93043750D01*
X97451174Y-93019858D01*
X97454684Y-92996197D01*
X97460496Y-92972993D01*
X97468554Y-92950471D01*
X97478782Y-92928847D01*
X97491079Y-92908330D01*
X97505329Y-92889117D01*
X97521393Y-92871393D01*
X97539117Y-92855329D01*
X97558330Y-92841079D01*
X97578847Y-92828782D01*
X97600471Y-92818554D01*
X97622993Y-92810496D01*
X97646197Y-92804684D01*
X97669858Y-92801174D01*
X97693750Y-92800000D01*
X98181250Y-92800000D01*
X98205142Y-92801174D01*
G37*
D13*
X104500000Y-91410000D03*
X103500000Y-91410000D03*
X102500000Y-91410000D03*
X101500000Y-91410000D03*
X100500000Y-91410000D03*
X99500000Y-91410000D03*
X98500000Y-91410000D03*
X97500000Y-91410000D03*
X96500000Y-91410000D03*
X95500000Y-91410000D03*
D14*
X107300000Y-88710000D03*
X92700000Y-88710000D03*
D13*
X102500000Y-88910000D03*
X101500000Y-88910000D03*
X100500000Y-88910000D03*
X99500000Y-88910000D03*
X98500000Y-88910000D03*
X97500000Y-88910000D03*
D14*
X105300000Y-86210000D03*
X94700000Y-86210000D03*
M02*
