G04 #@! TF.GenerationSoftware,KiCad,Pcbnew,(5.1.6)-1*
G04 #@! TF.CreationDate,2020-12-27T15:17:30+01:00*
G04 #@! TF.ProjectId,XY_TOUCH,58595f54-4f55-4434-982e-6b696361645f,rev?*
G04 #@! TF.SameCoordinates,Original*
G04 #@! TF.FileFunction,Profile,NP*
%FSLAX46Y46*%
G04 Gerber Fmt 4.6, Leading zero omitted, Abs format (unit mm)*
G04 Created by KiCad (PCBNEW (5.1.6)-1) date 2020-12-27 15:17:30*
%MOMM*%
%LPD*%
G01*
G04 APERTURE LIST*
G04 #@! TA.AperFunction,Profile*
%ADD10C,0.050000*%
G04 #@! TD*
G04 APERTURE END LIST*
D10*
X84500000Y-144500000D02*
X84500000Y-141500000D01*
X58500000Y-60500000D02*
G75*
G02*
X59000000Y-61000000I0J-500000D01*
G01*
X59000000Y-64000000D02*
X59000000Y-61000000D01*
X58500000Y-60500000D02*
X55500000Y-60500000D01*
X55500000Y-64500000D02*
X58500000Y-64500000D01*
X55000000Y-61000000D02*
X55000000Y-64000000D01*
X55500000Y-64500000D02*
G75*
G02*
X55000000Y-64000000I0J500000D01*
G01*
X59000000Y-64000000D02*
G75*
G02*
X58500000Y-64500000I-500000J0D01*
G01*
X55000000Y-61000000D02*
G75*
G02*
X55500000Y-60500000I500000J0D01*
G01*
X58500000Y-65500000D02*
G75*
G02*
X59000000Y-66000000I0J-500000D01*
G01*
X59000000Y-69000000D02*
X59000000Y-66000000D01*
X58500000Y-65500000D02*
X55500000Y-65500000D01*
X55500000Y-69500000D02*
X58500000Y-69500000D01*
X55000000Y-66000000D02*
X55000000Y-69000000D01*
X55500000Y-69500000D02*
G75*
G02*
X55000000Y-69000000I0J500000D01*
G01*
X59000000Y-69000000D02*
G75*
G02*
X58500000Y-69500000I-500000J0D01*
G01*
X55000000Y-66000000D02*
G75*
G02*
X55500000Y-65500000I500000J0D01*
G01*
X58500000Y-70500000D02*
G75*
G02*
X59000000Y-71000000I0J-500000D01*
G01*
X59000000Y-74000000D02*
X59000000Y-71000000D01*
X58500000Y-70500000D02*
X55500000Y-70500000D01*
X55500000Y-74500000D02*
X58500000Y-74500000D01*
X55000000Y-71000000D02*
X55000000Y-74000000D01*
X55500000Y-74500000D02*
G75*
G02*
X55000000Y-74000000I0J500000D01*
G01*
X59000000Y-74000000D02*
G75*
G02*
X58500000Y-74500000I-500000J0D01*
G01*
X55000000Y-71000000D02*
G75*
G02*
X55500000Y-70500000I500000J0D01*
G01*
X58500000Y-75500000D02*
G75*
G02*
X59000000Y-76000000I0J-500000D01*
G01*
X59000000Y-79000000D02*
X59000000Y-76000000D01*
X58500000Y-75500000D02*
X55500000Y-75500000D01*
X55500000Y-79500000D02*
X58500000Y-79500000D01*
X55000000Y-76000000D02*
X55000000Y-79000000D01*
X55500000Y-79500000D02*
G75*
G02*
X55000000Y-79000000I0J500000D01*
G01*
X59000000Y-79000000D02*
G75*
G02*
X58500000Y-79500000I-500000J0D01*
G01*
X55000000Y-76000000D02*
G75*
G02*
X55500000Y-75500000I500000J0D01*
G01*
X58500000Y-80500000D02*
G75*
G02*
X59000000Y-81000000I0J-500000D01*
G01*
X59000000Y-84000000D02*
X59000000Y-81000000D01*
X58500000Y-80500000D02*
X55500000Y-80500000D01*
X55500000Y-84500000D02*
X58500000Y-84500000D01*
X55000000Y-81000000D02*
X55000000Y-84000000D01*
X55500000Y-84500000D02*
G75*
G02*
X55000000Y-84000000I0J500000D01*
G01*
X59000000Y-84000000D02*
G75*
G02*
X58500000Y-84500000I-500000J0D01*
G01*
X55000000Y-81000000D02*
G75*
G02*
X55500000Y-80500000I500000J0D01*
G01*
X58500000Y-85500000D02*
G75*
G02*
X59000000Y-86000000I0J-500000D01*
G01*
X59000000Y-89000000D02*
X59000000Y-86000000D01*
X58500000Y-85500000D02*
X55500000Y-85500000D01*
X55500000Y-89500000D02*
X58500000Y-89500000D01*
X55000000Y-86000000D02*
X55000000Y-89000000D01*
X55500000Y-89500000D02*
G75*
G02*
X55000000Y-89000000I0J500000D01*
G01*
X59000000Y-89000000D02*
G75*
G02*
X58500000Y-89500000I-500000J0D01*
G01*
X55000000Y-86000000D02*
G75*
G02*
X55500000Y-85500000I500000J0D01*
G01*
X58500000Y-90500000D02*
G75*
G02*
X59000000Y-91000000I0J-500000D01*
G01*
X59000000Y-94000000D02*
X59000000Y-91000000D01*
X58500000Y-90500000D02*
X55500000Y-90500000D01*
X55500000Y-94500000D02*
X58500000Y-94500000D01*
X55000000Y-91000000D02*
X55000000Y-94000000D01*
X55500000Y-94500000D02*
G75*
G02*
X55000000Y-94000000I0J500000D01*
G01*
X59000000Y-94000000D02*
G75*
G02*
X58500000Y-94500000I-500000J0D01*
G01*
X55000000Y-91000000D02*
G75*
G02*
X55500000Y-90500000I500000J0D01*
G01*
X58500000Y-95500000D02*
G75*
G02*
X59000000Y-96000000I0J-500000D01*
G01*
X59000000Y-99000000D02*
X59000000Y-96000000D01*
X58500000Y-95500000D02*
X55500000Y-95500000D01*
X55500000Y-99500000D02*
X58500000Y-99500000D01*
X55000000Y-96000000D02*
X55000000Y-99000000D01*
X55500000Y-99500000D02*
G75*
G02*
X55000000Y-99000000I0J500000D01*
G01*
X59000000Y-99000000D02*
G75*
G02*
X58500000Y-99500000I-500000J0D01*
G01*
X55000000Y-96000000D02*
G75*
G02*
X55500000Y-95500000I500000J0D01*
G01*
X58500000Y-100500000D02*
G75*
G02*
X59000000Y-101000000I0J-500000D01*
G01*
X59000000Y-104000000D02*
X59000000Y-101000000D01*
X58500000Y-100500000D02*
X55500000Y-100500000D01*
X55500000Y-104500000D02*
X58500000Y-104500000D01*
X55000000Y-101000000D02*
X55000000Y-104000000D01*
X55500000Y-104500000D02*
G75*
G02*
X55000000Y-104000000I0J500000D01*
G01*
X59000000Y-104000000D02*
G75*
G02*
X58500000Y-104500000I-500000J0D01*
G01*
X55000000Y-101000000D02*
G75*
G02*
X55500000Y-100500000I500000J0D01*
G01*
X58500000Y-105500000D02*
G75*
G02*
X59000000Y-106000000I0J-500000D01*
G01*
X59000000Y-109000000D02*
X59000000Y-106000000D01*
X58500000Y-105500000D02*
X55500000Y-105500000D01*
X55500000Y-109500000D02*
X58500000Y-109500000D01*
X55000000Y-106000000D02*
X55000000Y-109000000D01*
X55500000Y-109500000D02*
G75*
G02*
X55000000Y-109000000I0J500000D01*
G01*
X59000000Y-109000000D02*
G75*
G02*
X58500000Y-109500000I-500000J0D01*
G01*
X55000000Y-106000000D02*
G75*
G02*
X55500000Y-105500000I500000J0D01*
G01*
X58500000Y-110500000D02*
G75*
G02*
X59000000Y-111000000I0J-500000D01*
G01*
X59000000Y-114000000D02*
X59000000Y-111000000D01*
X58500000Y-110500000D02*
X55500000Y-110500000D01*
X55500000Y-114500000D02*
X58500000Y-114500000D01*
X55000000Y-111000000D02*
X55000000Y-114000000D01*
X55500000Y-114500000D02*
G75*
G02*
X55000000Y-114000000I0J500000D01*
G01*
X59000000Y-114000000D02*
G75*
G02*
X58500000Y-114500000I-500000J0D01*
G01*
X55000000Y-111000000D02*
G75*
G02*
X55500000Y-110500000I500000J0D01*
G01*
X58500000Y-115500000D02*
G75*
G02*
X59000000Y-116000000I0J-500000D01*
G01*
X59000000Y-119000000D02*
X59000000Y-116000000D01*
X58500000Y-115500000D02*
X55500000Y-115500000D01*
X55500000Y-119500000D02*
X58500000Y-119500000D01*
X55000000Y-116000000D02*
X55000000Y-119000000D01*
X55500000Y-119500000D02*
G75*
G02*
X55000000Y-119000000I0J500000D01*
G01*
X59000000Y-119000000D02*
G75*
G02*
X58500000Y-119500000I-500000J0D01*
G01*
X55000000Y-116000000D02*
G75*
G02*
X55500000Y-115500000I500000J0D01*
G01*
X58500000Y-120500000D02*
G75*
G02*
X59000000Y-121000000I0J-500000D01*
G01*
X59000000Y-124000000D02*
X59000000Y-121000000D01*
X58500000Y-120500000D02*
X55500000Y-120500000D01*
X55500000Y-124500000D02*
X58500000Y-124500000D01*
X55000000Y-121000000D02*
X55000000Y-124000000D01*
X55500000Y-124500000D02*
G75*
G02*
X55000000Y-124000000I0J500000D01*
G01*
X59000000Y-124000000D02*
G75*
G02*
X58500000Y-124500000I-500000J0D01*
G01*
X55000000Y-121000000D02*
G75*
G02*
X55500000Y-120500000I500000J0D01*
G01*
X58500000Y-125500000D02*
G75*
G02*
X59000000Y-126000000I0J-500000D01*
G01*
X59000000Y-129000000D02*
X59000000Y-126000000D01*
X58500000Y-125500000D02*
X55500000Y-125500000D01*
X55500000Y-129500000D02*
X58500000Y-129500000D01*
X55000000Y-126000000D02*
X55000000Y-129000000D01*
X55500000Y-129500000D02*
G75*
G02*
X55000000Y-129000000I0J500000D01*
G01*
X59000000Y-129000000D02*
G75*
G02*
X58500000Y-129500000I-500000J0D01*
G01*
X55000000Y-126000000D02*
G75*
G02*
X55500000Y-125500000I500000J0D01*
G01*
X58500000Y-130500000D02*
G75*
G02*
X59000000Y-131000000I0J-500000D01*
G01*
X59000000Y-134000000D02*
X59000000Y-131000000D01*
X58500000Y-130500000D02*
X55500000Y-130500000D01*
X55500000Y-134500000D02*
X58500000Y-134500000D01*
X55000000Y-131000000D02*
X55000000Y-134000000D01*
X55500000Y-134500000D02*
G75*
G02*
X55000000Y-134000000I0J500000D01*
G01*
X59000000Y-134000000D02*
G75*
G02*
X58500000Y-134500000I-500000J0D01*
G01*
X55000000Y-131000000D02*
G75*
G02*
X55500000Y-130500000I500000J0D01*
G01*
X58500000Y-135500000D02*
G75*
G02*
X59000000Y-136000000I0J-500000D01*
G01*
X59000000Y-139000000D02*
X59000000Y-136000000D01*
X58500000Y-135500000D02*
X55500000Y-135500000D01*
X55500000Y-139500000D02*
X58500000Y-139500000D01*
X55000000Y-136000000D02*
X55000000Y-139000000D01*
X55500000Y-139500000D02*
G75*
G02*
X55000000Y-139000000I0J500000D01*
G01*
X59000000Y-139000000D02*
G75*
G02*
X58500000Y-139500000I-500000J0D01*
G01*
X55000000Y-136000000D02*
G75*
G02*
X55500000Y-135500000I500000J0D01*
G01*
X64000000Y-141000000D02*
G75*
G02*
X64500000Y-141500000I0J-500000D01*
G01*
X64500000Y-144500000D02*
X64500000Y-141500000D01*
X64000000Y-141000000D02*
X61000000Y-141000000D01*
X61000000Y-145000000D02*
X64000000Y-145000000D01*
X60500000Y-141500000D02*
X60500000Y-144500000D01*
X61000000Y-145000000D02*
G75*
G02*
X60500000Y-144500000I0J500000D01*
G01*
X64500000Y-144500000D02*
G75*
G02*
X64000000Y-145000000I-500000J0D01*
G01*
X60500000Y-141500000D02*
G75*
G02*
X61000000Y-141000000I500000J0D01*
G01*
X69000000Y-141000000D02*
G75*
G02*
X69500000Y-141500000I0J-500000D01*
G01*
X69500000Y-144500000D02*
X69500000Y-141500000D01*
X69000000Y-141000000D02*
X66000000Y-141000000D01*
X66000000Y-145000000D02*
X69000000Y-145000000D01*
X65500000Y-141500000D02*
X65500000Y-144500000D01*
X66000000Y-145000000D02*
G75*
G02*
X65500000Y-144500000I0J500000D01*
G01*
X69500000Y-144500000D02*
G75*
G02*
X69000000Y-145000000I-500000J0D01*
G01*
X65500000Y-141500000D02*
G75*
G02*
X66000000Y-141000000I500000J0D01*
G01*
X74000000Y-141000000D02*
G75*
G02*
X74500000Y-141500000I0J-500000D01*
G01*
X74500000Y-144500000D02*
X74500000Y-141500000D01*
X74000000Y-141000000D02*
X71000000Y-141000000D01*
X71000000Y-145000000D02*
X74000000Y-145000000D01*
X70500000Y-141500000D02*
X70500000Y-144500000D01*
X71000000Y-145000000D02*
G75*
G02*
X70500000Y-144500000I0J500000D01*
G01*
X74500000Y-144500000D02*
G75*
G02*
X74000000Y-145000000I-500000J0D01*
G01*
X70500000Y-141500000D02*
G75*
G02*
X71000000Y-141000000I500000J0D01*
G01*
X79000000Y-141000000D02*
G75*
G02*
X79500000Y-141500000I0J-500000D01*
G01*
X79500000Y-144500000D02*
X79500000Y-141500000D01*
X79000000Y-141000000D02*
X76000000Y-141000000D01*
X76000000Y-145000000D02*
X79000000Y-145000000D01*
X75500000Y-141500000D02*
X75500000Y-144500000D01*
X76000000Y-145000000D02*
G75*
G02*
X75500000Y-144500000I0J500000D01*
G01*
X79500000Y-144500000D02*
G75*
G02*
X79000000Y-145000000I-500000J0D01*
G01*
X75500000Y-141500000D02*
G75*
G02*
X76000000Y-141000000I500000J0D01*
G01*
X84000000Y-141000000D02*
G75*
G02*
X84500000Y-141500000I0J-500000D01*
G01*
X84000000Y-141000000D02*
X81000000Y-141000000D01*
X81000000Y-145000000D02*
X84000000Y-145000000D01*
X80500000Y-141500000D02*
X80500000Y-144500000D01*
X81000000Y-145000000D02*
G75*
G02*
X80500000Y-144500000I0J500000D01*
G01*
X84500000Y-144500000D02*
G75*
G02*
X84000000Y-145000000I-500000J0D01*
G01*
X80500000Y-141500000D02*
G75*
G02*
X81000000Y-141000000I500000J0D01*
G01*
X89000000Y-141000000D02*
G75*
G02*
X89500000Y-141500000I0J-500000D01*
G01*
X89500000Y-144500000D02*
X89500000Y-141500000D01*
X89000000Y-141000000D02*
X86000000Y-141000000D01*
X86000000Y-145000000D02*
X89000000Y-145000000D01*
X85500000Y-141500000D02*
X85500000Y-144500000D01*
X86000000Y-145000000D02*
G75*
G02*
X85500000Y-144500000I0J500000D01*
G01*
X89500000Y-144500000D02*
G75*
G02*
X89000000Y-145000000I-500000J0D01*
G01*
X85500000Y-141500000D02*
G75*
G02*
X86000000Y-141000000I500000J0D01*
G01*
X94000000Y-141000000D02*
G75*
G02*
X94500000Y-141500000I0J-500000D01*
G01*
X94500000Y-144500000D02*
X94500000Y-141500000D01*
X94000000Y-141000000D02*
X91000000Y-141000000D01*
X91000000Y-145000000D02*
X94000000Y-145000000D01*
X90500000Y-141500000D02*
X90500000Y-144500000D01*
X91000000Y-145000000D02*
G75*
G02*
X90500000Y-144500000I0J500000D01*
G01*
X94500000Y-144500000D02*
G75*
G02*
X94000000Y-145000000I-500000J0D01*
G01*
X90500000Y-141500000D02*
G75*
G02*
X91000000Y-141000000I500000J0D01*
G01*
X99000000Y-141000000D02*
G75*
G02*
X99500000Y-141500000I0J-500000D01*
G01*
X99500000Y-144500000D02*
X99500000Y-141500000D01*
X99000000Y-141000000D02*
X96000000Y-141000000D01*
X96000000Y-145000000D02*
X99000000Y-145000000D01*
X95500000Y-141500000D02*
X95500000Y-144500000D01*
X96000000Y-145000000D02*
G75*
G02*
X95500000Y-144500000I0J500000D01*
G01*
X99500000Y-144500000D02*
G75*
G02*
X99000000Y-145000000I-500000J0D01*
G01*
X95500000Y-141500000D02*
G75*
G02*
X96000000Y-141000000I500000J0D01*
G01*
X104000000Y-141000000D02*
G75*
G02*
X104500000Y-141500000I0J-500000D01*
G01*
X104500000Y-144500000D02*
X104500000Y-141500000D01*
X104000000Y-141000000D02*
X101000000Y-141000000D01*
X101000000Y-145000000D02*
X104000000Y-145000000D01*
X100500000Y-141500000D02*
X100500000Y-144500000D01*
X101000000Y-145000000D02*
G75*
G02*
X100500000Y-144500000I0J500000D01*
G01*
X104500000Y-144500000D02*
G75*
G02*
X104000000Y-145000000I-500000J0D01*
G01*
X100500000Y-141500000D02*
G75*
G02*
X101000000Y-141000000I500000J0D01*
G01*
X109000000Y-141000000D02*
G75*
G02*
X109500000Y-141500000I0J-500000D01*
G01*
X109500000Y-144500000D02*
X109500000Y-141500000D01*
X109000000Y-141000000D02*
X106000000Y-141000000D01*
X106000000Y-145000000D02*
X109000000Y-145000000D01*
X105500000Y-141500000D02*
X105500000Y-144500000D01*
X106000000Y-145000000D02*
G75*
G02*
X105500000Y-144500000I0J500000D01*
G01*
X109500000Y-144500000D02*
G75*
G02*
X109000000Y-145000000I-500000J0D01*
G01*
X105500000Y-141500000D02*
G75*
G02*
X106000000Y-141000000I500000J0D01*
G01*
X114000000Y-141000000D02*
G75*
G02*
X114500000Y-141500000I0J-500000D01*
G01*
X114500000Y-144500000D02*
X114500000Y-141500000D01*
X114000000Y-141000000D02*
X111000000Y-141000000D01*
X111000000Y-145000000D02*
X114000000Y-145000000D01*
X110500000Y-141500000D02*
X110500000Y-144500000D01*
X111000000Y-145000000D02*
G75*
G02*
X110500000Y-144500000I0J500000D01*
G01*
X114500000Y-144500000D02*
G75*
G02*
X114000000Y-145000000I-500000J0D01*
G01*
X110500000Y-141500000D02*
G75*
G02*
X111000000Y-141000000I500000J0D01*
G01*
X119000000Y-141000000D02*
G75*
G02*
X119500000Y-141500000I0J-500000D01*
G01*
X119500000Y-144500000D02*
X119500000Y-141500000D01*
X119000000Y-141000000D02*
X116000000Y-141000000D01*
X116000000Y-145000000D02*
X119000000Y-145000000D01*
X115500000Y-141500000D02*
X115500000Y-144500000D01*
X116000000Y-145000000D02*
G75*
G02*
X115500000Y-144500000I0J500000D01*
G01*
X119500000Y-144500000D02*
G75*
G02*
X119000000Y-145000000I-500000J0D01*
G01*
X115500000Y-141500000D02*
G75*
G02*
X116000000Y-141000000I500000J0D01*
G01*
X124000000Y-141000000D02*
G75*
G02*
X124500000Y-141500000I0J-500000D01*
G01*
X124500000Y-144500000D02*
X124500000Y-141500000D01*
X124000000Y-141000000D02*
X121000000Y-141000000D01*
X121000000Y-145000000D02*
X124000000Y-145000000D01*
X120500000Y-141500000D02*
X120500000Y-144500000D01*
X121000000Y-145000000D02*
G75*
G02*
X120500000Y-144500000I0J500000D01*
G01*
X124500000Y-144500000D02*
G75*
G02*
X124000000Y-145000000I-500000J0D01*
G01*
X120500000Y-141500000D02*
G75*
G02*
X121000000Y-141000000I500000J0D01*
G01*
X129000000Y-141000000D02*
G75*
G02*
X129500000Y-141500000I0J-500000D01*
G01*
X129500000Y-144500000D02*
X129500000Y-141500000D01*
X129000000Y-141000000D02*
X126000000Y-141000000D01*
X126000000Y-145000000D02*
X129000000Y-145000000D01*
X125500000Y-141500000D02*
X125500000Y-144500000D01*
X126000000Y-145000000D02*
G75*
G02*
X125500000Y-144500000I0J500000D01*
G01*
X129500000Y-144500000D02*
G75*
G02*
X129000000Y-145000000I-500000J0D01*
G01*
X125500000Y-141500000D02*
G75*
G02*
X126000000Y-141000000I500000J0D01*
G01*
X134000000Y-141000000D02*
G75*
G02*
X134500000Y-141500000I0J-500000D01*
G01*
X134500000Y-144500000D02*
X134500000Y-141500000D01*
X134000000Y-141000000D02*
X131000000Y-141000000D01*
X131000000Y-145000000D02*
X134000000Y-145000000D01*
X130500000Y-141500000D02*
X130500000Y-144500000D01*
X131000000Y-145000000D02*
G75*
G02*
X130500000Y-144500000I0J500000D01*
G01*
X134500000Y-144500000D02*
G75*
G02*
X134000000Y-145000000I-500000J0D01*
G01*
X130500000Y-141500000D02*
G75*
G02*
X131000000Y-141000000I500000J0D01*
G01*
X139000000Y-141000000D02*
G75*
G02*
X139500000Y-141500000I0J-500000D01*
G01*
X139500000Y-144500000D02*
X139500000Y-141500000D01*
X139000000Y-141000000D02*
X136000000Y-141000000D01*
X136000000Y-145000000D02*
X139000000Y-145000000D01*
X135500000Y-141500000D02*
X135500000Y-144500000D01*
X136000000Y-145000000D02*
G75*
G02*
X135500000Y-144500000I0J500000D01*
G01*
X139500000Y-144500000D02*
G75*
G02*
X139000000Y-145000000I-500000J0D01*
G01*
X135500000Y-141500000D02*
G75*
G02*
X136000000Y-141000000I500000J0D01*
G01*
X144500000Y-135500000D02*
G75*
G02*
X145000000Y-136000000I0J-500000D01*
G01*
X145000000Y-139000000D02*
X145000000Y-136000000D01*
X144500000Y-135500000D02*
X141500000Y-135500000D01*
X141500000Y-139500000D02*
X144500000Y-139500000D01*
X141000000Y-136000000D02*
X141000000Y-139000000D01*
X141500000Y-139500000D02*
G75*
G02*
X141000000Y-139000000I0J500000D01*
G01*
X145000000Y-139000000D02*
G75*
G02*
X144500000Y-139500000I-500000J0D01*
G01*
X141000000Y-136000000D02*
G75*
G02*
X141500000Y-135500000I500000J0D01*
G01*
X144500000Y-130500000D02*
G75*
G02*
X145000000Y-131000000I0J-500000D01*
G01*
X145000000Y-134000000D02*
X145000000Y-131000000D01*
X144500000Y-130500000D02*
X141500000Y-130500000D01*
X141500000Y-134500000D02*
X144500000Y-134500000D01*
X141000000Y-131000000D02*
X141000000Y-134000000D01*
X141500000Y-134500000D02*
G75*
G02*
X141000000Y-134000000I0J500000D01*
G01*
X145000000Y-134000000D02*
G75*
G02*
X144500000Y-134500000I-500000J0D01*
G01*
X141000000Y-131000000D02*
G75*
G02*
X141500000Y-130500000I500000J0D01*
G01*
X144500000Y-125500000D02*
G75*
G02*
X145000000Y-126000000I0J-500000D01*
G01*
X145000000Y-129000000D02*
X145000000Y-126000000D01*
X144500000Y-125500000D02*
X141500000Y-125500000D01*
X141500000Y-129500000D02*
X144500000Y-129500000D01*
X141000000Y-126000000D02*
X141000000Y-129000000D01*
X141500000Y-129500000D02*
G75*
G02*
X141000000Y-129000000I0J500000D01*
G01*
X145000000Y-129000000D02*
G75*
G02*
X144500000Y-129500000I-500000J0D01*
G01*
X141000000Y-126000000D02*
G75*
G02*
X141500000Y-125500000I500000J0D01*
G01*
X144500000Y-120500000D02*
G75*
G02*
X145000000Y-121000000I0J-500000D01*
G01*
X145000000Y-124000000D02*
X145000000Y-121000000D01*
X144500000Y-120500000D02*
X141500000Y-120500000D01*
X141500000Y-124500000D02*
X144500000Y-124500000D01*
X141000000Y-121000000D02*
X141000000Y-124000000D01*
X141500000Y-124500000D02*
G75*
G02*
X141000000Y-124000000I0J500000D01*
G01*
X145000000Y-124000000D02*
G75*
G02*
X144500000Y-124500000I-500000J0D01*
G01*
X141000000Y-121000000D02*
G75*
G02*
X141500000Y-120500000I500000J0D01*
G01*
X144500000Y-115500000D02*
G75*
G02*
X145000000Y-116000000I0J-500000D01*
G01*
X145000000Y-119000000D02*
X145000000Y-116000000D01*
X144500000Y-115500000D02*
X141500000Y-115500000D01*
X141500000Y-119500000D02*
X144500000Y-119500000D01*
X141000000Y-116000000D02*
X141000000Y-119000000D01*
X141500000Y-119500000D02*
G75*
G02*
X141000000Y-119000000I0J500000D01*
G01*
X145000000Y-119000000D02*
G75*
G02*
X144500000Y-119500000I-500000J0D01*
G01*
X141000000Y-116000000D02*
G75*
G02*
X141500000Y-115500000I500000J0D01*
G01*
X144500000Y-110500000D02*
G75*
G02*
X145000000Y-111000000I0J-500000D01*
G01*
X145000000Y-114000000D02*
X145000000Y-111000000D01*
X144500000Y-110500000D02*
X141500000Y-110500000D01*
X141500000Y-114500000D02*
X144500000Y-114500000D01*
X141000000Y-111000000D02*
X141000000Y-114000000D01*
X141500000Y-114500000D02*
G75*
G02*
X141000000Y-114000000I0J500000D01*
G01*
X145000000Y-114000000D02*
G75*
G02*
X144500000Y-114500000I-500000J0D01*
G01*
X141000000Y-111000000D02*
G75*
G02*
X141500000Y-110500000I500000J0D01*
G01*
X144500000Y-105500000D02*
G75*
G02*
X145000000Y-106000000I0J-500000D01*
G01*
X145000000Y-109000000D02*
X145000000Y-106000000D01*
X144500000Y-105500000D02*
X141500000Y-105500000D01*
X141500000Y-109500000D02*
X144500000Y-109500000D01*
X141000000Y-106000000D02*
X141000000Y-109000000D01*
X141500000Y-109500000D02*
G75*
G02*
X141000000Y-109000000I0J500000D01*
G01*
X145000000Y-109000000D02*
G75*
G02*
X144500000Y-109500000I-500000J0D01*
G01*
X141000000Y-106000000D02*
G75*
G02*
X141500000Y-105500000I500000J0D01*
G01*
X144500000Y-100500000D02*
G75*
G02*
X145000000Y-101000000I0J-500000D01*
G01*
X145000000Y-104000000D02*
X145000000Y-101000000D01*
X144500000Y-100500000D02*
X141500000Y-100500000D01*
X141500000Y-104500000D02*
X144500000Y-104500000D01*
X141000000Y-101000000D02*
X141000000Y-104000000D01*
X141500000Y-104500000D02*
G75*
G02*
X141000000Y-104000000I0J500000D01*
G01*
X145000000Y-104000000D02*
G75*
G02*
X144500000Y-104500000I-500000J0D01*
G01*
X141000000Y-101000000D02*
G75*
G02*
X141500000Y-100500000I500000J0D01*
G01*
X144500000Y-95500000D02*
G75*
G02*
X145000000Y-96000000I0J-500000D01*
G01*
X145000000Y-99000000D02*
X145000000Y-96000000D01*
X144500000Y-95500000D02*
X141500000Y-95500000D01*
X141500000Y-99500000D02*
X144500000Y-99500000D01*
X141000000Y-96000000D02*
X141000000Y-99000000D01*
X141500000Y-99500000D02*
G75*
G02*
X141000000Y-99000000I0J500000D01*
G01*
X145000000Y-99000000D02*
G75*
G02*
X144500000Y-99500000I-500000J0D01*
G01*
X141000000Y-96000000D02*
G75*
G02*
X141500000Y-95500000I500000J0D01*
G01*
X144500000Y-90500000D02*
G75*
G02*
X145000000Y-91000000I0J-500000D01*
G01*
X145000000Y-94000000D02*
X145000000Y-91000000D01*
X144500000Y-90500000D02*
X141500000Y-90500000D01*
X141500000Y-94500000D02*
X144500000Y-94500000D01*
X141000000Y-91000000D02*
X141000000Y-94000000D01*
X141500000Y-94500000D02*
G75*
G02*
X141000000Y-94000000I0J500000D01*
G01*
X145000000Y-94000000D02*
G75*
G02*
X144500000Y-94500000I-500000J0D01*
G01*
X141000000Y-91000000D02*
G75*
G02*
X141500000Y-90500000I500000J0D01*
G01*
X144500000Y-85500000D02*
G75*
G02*
X145000000Y-86000000I0J-500000D01*
G01*
X145000000Y-89000000D02*
X145000000Y-86000000D01*
X144500000Y-85500000D02*
X141500000Y-85500000D01*
X141500000Y-89500000D02*
X144500000Y-89500000D01*
X141000000Y-86000000D02*
X141000000Y-89000000D01*
X141500000Y-89500000D02*
G75*
G02*
X141000000Y-89000000I0J500000D01*
G01*
X145000000Y-89000000D02*
G75*
G02*
X144500000Y-89500000I-500000J0D01*
G01*
X141000000Y-86000000D02*
G75*
G02*
X141500000Y-85500000I500000J0D01*
G01*
X144500000Y-80500000D02*
G75*
G02*
X145000000Y-81000000I0J-500000D01*
G01*
X145000000Y-84000000D02*
X145000000Y-81000000D01*
X144500000Y-80500000D02*
X141500000Y-80500000D01*
X141500000Y-84500000D02*
X144500000Y-84500000D01*
X141000000Y-81000000D02*
X141000000Y-84000000D01*
X141500000Y-84500000D02*
G75*
G02*
X141000000Y-84000000I0J500000D01*
G01*
X145000000Y-84000000D02*
G75*
G02*
X144500000Y-84500000I-500000J0D01*
G01*
X141000000Y-81000000D02*
G75*
G02*
X141500000Y-80500000I500000J0D01*
G01*
X144500000Y-75500000D02*
G75*
G02*
X145000000Y-76000000I0J-500000D01*
G01*
X145000000Y-79000000D02*
X145000000Y-76000000D01*
X144500000Y-75500000D02*
X141500000Y-75500000D01*
X141500000Y-79500000D02*
X144500000Y-79500000D01*
X141000000Y-76000000D02*
X141000000Y-79000000D01*
X141500000Y-79500000D02*
G75*
G02*
X141000000Y-79000000I0J500000D01*
G01*
X145000000Y-79000000D02*
G75*
G02*
X144500000Y-79500000I-500000J0D01*
G01*
X141000000Y-76000000D02*
G75*
G02*
X141500000Y-75500000I500000J0D01*
G01*
X144500000Y-70500000D02*
G75*
G02*
X145000000Y-71000000I0J-500000D01*
G01*
X145000000Y-74000000D02*
X145000000Y-71000000D01*
X144500000Y-70500000D02*
X141500000Y-70500000D01*
X141500000Y-74500000D02*
X144500000Y-74500000D01*
X141000000Y-71000000D02*
X141000000Y-74000000D01*
X141500000Y-74500000D02*
G75*
G02*
X141000000Y-74000000I0J500000D01*
G01*
X145000000Y-74000000D02*
G75*
G02*
X144500000Y-74500000I-500000J0D01*
G01*
X141000000Y-71000000D02*
G75*
G02*
X141500000Y-70500000I500000J0D01*
G01*
X144500000Y-65500000D02*
G75*
G02*
X145000000Y-66000000I0J-500000D01*
G01*
X145000000Y-69000000D02*
X145000000Y-66000000D01*
X144500000Y-65500000D02*
X141500000Y-65500000D01*
X141500000Y-69500000D02*
X144500000Y-69500000D01*
X141000000Y-66000000D02*
X141000000Y-69000000D01*
X141500000Y-69500000D02*
G75*
G02*
X141000000Y-69000000I0J500000D01*
G01*
X145000000Y-69000000D02*
G75*
G02*
X144500000Y-69500000I-500000J0D01*
G01*
X141000000Y-66000000D02*
G75*
G02*
X141500000Y-65500000I500000J0D01*
G01*
X144500000Y-60500000D02*
G75*
G02*
X145000000Y-61000000I0J-500000D01*
G01*
X145000000Y-64000000D02*
X145000000Y-61000000D01*
X144500000Y-60500000D02*
X141500000Y-60500000D01*
X141500000Y-64500000D02*
X144500000Y-64500000D01*
X141000000Y-61000000D02*
X141000000Y-64000000D01*
X141500000Y-64500000D02*
G75*
G02*
X141000000Y-64000000I0J500000D01*
G01*
X145000000Y-64000000D02*
G75*
G02*
X144500000Y-64500000I-500000J0D01*
G01*
X141000000Y-61000000D02*
G75*
G02*
X141500000Y-60500000I500000J0D01*
G01*
X139000000Y-55000000D02*
G75*
G02*
X139500000Y-55500000I0J-500000D01*
G01*
X139500000Y-58500000D02*
X139500000Y-55500000D01*
X139000000Y-55000000D02*
X136000000Y-55000000D01*
X136000000Y-59000000D02*
X139000000Y-59000000D01*
X135500000Y-55500000D02*
X135500000Y-58500000D01*
X136000000Y-59000000D02*
G75*
G02*
X135500000Y-58500000I0J500000D01*
G01*
X139500000Y-58500000D02*
G75*
G02*
X139000000Y-59000000I-500000J0D01*
G01*
X135500000Y-55500000D02*
G75*
G02*
X136000000Y-55000000I500000J0D01*
G01*
X134000000Y-55000000D02*
G75*
G02*
X134500000Y-55500000I0J-500000D01*
G01*
X134500000Y-58500000D02*
X134500000Y-55500000D01*
X134000000Y-55000000D02*
X131000000Y-55000000D01*
X131000000Y-59000000D02*
X134000000Y-59000000D01*
X130500000Y-55500000D02*
X130500000Y-58500000D01*
X131000000Y-59000000D02*
G75*
G02*
X130500000Y-58500000I0J500000D01*
G01*
X134500000Y-58500000D02*
G75*
G02*
X134000000Y-59000000I-500000J0D01*
G01*
X130500000Y-55500000D02*
G75*
G02*
X131000000Y-55000000I500000J0D01*
G01*
X129000000Y-55000000D02*
G75*
G02*
X129500000Y-55500000I0J-500000D01*
G01*
X129500000Y-58500000D02*
X129500000Y-55500000D01*
X129000000Y-55000000D02*
X126000000Y-55000000D01*
X126000000Y-59000000D02*
X129000000Y-59000000D01*
X125500000Y-55500000D02*
X125500000Y-58500000D01*
X126000000Y-59000000D02*
G75*
G02*
X125500000Y-58500000I0J500000D01*
G01*
X129500000Y-58500000D02*
G75*
G02*
X129000000Y-59000000I-500000J0D01*
G01*
X125500000Y-55500000D02*
G75*
G02*
X126000000Y-55000000I500000J0D01*
G01*
X124000000Y-55000000D02*
G75*
G02*
X124500000Y-55500000I0J-500000D01*
G01*
X124500000Y-58500000D02*
X124500000Y-55500000D01*
X124000000Y-55000000D02*
X121000000Y-55000000D01*
X121000000Y-59000000D02*
X124000000Y-59000000D01*
X120500000Y-55500000D02*
X120500000Y-58500000D01*
X121000000Y-59000000D02*
G75*
G02*
X120500000Y-58500000I0J500000D01*
G01*
X124500000Y-58500000D02*
G75*
G02*
X124000000Y-59000000I-500000J0D01*
G01*
X120500000Y-55500000D02*
G75*
G02*
X121000000Y-55000000I500000J0D01*
G01*
X119000000Y-55000000D02*
G75*
G02*
X119500000Y-55500000I0J-500000D01*
G01*
X119500000Y-58500000D02*
X119500000Y-55500000D01*
X119000000Y-55000000D02*
X116000000Y-55000000D01*
X116000000Y-59000000D02*
X119000000Y-59000000D01*
X115500000Y-55500000D02*
X115500000Y-58500000D01*
X116000000Y-59000000D02*
G75*
G02*
X115500000Y-58500000I0J500000D01*
G01*
X119500000Y-58500000D02*
G75*
G02*
X119000000Y-59000000I-500000J0D01*
G01*
X115500000Y-55500000D02*
G75*
G02*
X116000000Y-55000000I500000J0D01*
G01*
X114000000Y-55000000D02*
G75*
G02*
X114500000Y-55500000I0J-500000D01*
G01*
X114500000Y-58500000D02*
X114500000Y-55500000D01*
X114000000Y-55000000D02*
X111000000Y-55000000D01*
X111000000Y-59000000D02*
X114000000Y-59000000D01*
X110500000Y-55500000D02*
X110500000Y-58500000D01*
X111000000Y-59000000D02*
G75*
G02*
X110500000Y-58500000I0J500000D01*
G01*
X114500000Y-58500000D02*
G75*
G02*
X114000000Y-59000000I-500000J0D01*
G01*
X110500000Y-55500000D02*
G75*
G02*
X111000000Y-55000000I500000J0D01*
G01*
X109000000Y-55000000D02*
G75*
G02*
X109500000Y-55500000I0J-500000D01*
G01*
X109500000Y-58500000D02*
X109500000Y-55500000D01*
X109000000Y-55000000D02*
X106000000Y-55000000D01*
X106000000Y-59000000D02*
X109000000Y-59000000D01*
X105500000Y-55500000D02*
X105500000Y-58500000D01*
X106000000Y-59000000D02*
G75*
G02*
X105500000Y-58500000I0J500000D01*
G01*
X109500000Y-58500000D02*
G75*
G02*
X109000000Y-59000000I-500000J0D01*
G01*
X105500000Y-55500000D02*
G75*
G02*
X106000000Y-55000000I500000J0D01*
G01*
X104000000Y-55000000D02*
G75*
G02*
X104500000Y-55500000I0J-500000D01*
G01*
X104500000Y-58500000D02*
X104500000Y-55500000D01*
X104000000Y-55000000D02*
X101000000Y-55000000D01*
X101000000Y-59000000D02*
X104000000Y-59000000D01*
X100500000Y-55500000D02*
X100500000Y-58500000D01*
X101000000Y-59000000D02*
G75*
G02*
X100500000Y-58500000I0J500000D01*
G01*
X104500000Y-58500000D02*
G75*
G02*
X104000000Y-59000000I-500000J0D01*
G01*
X100500000Y-55500000D02*
G75*
G02*
X101000000Y-55000000I500000J0D01*
G01*
X99000000Y-55000000D02*
G75*
G02*
X99500000Y-55500000I0J-500000D01*
G01*
X99500000Y-58500000D02*
X99500000Y-55500000D01*
X99000000Y-55000000D02*
X96000000Y-55000000D01*
X96000000Y-59000000D02*
X99000000Y-59000000D01*
X95500000Y-55500000D02*
X95500000Y-58500000D01*
X96000000Y-59000000D02*
G75*
G02*
X95500000Y-58500000I0J500000D01*
G01*
X99500000Y-58500000D02*
G75*
G02*
X99000000Y-59000000I-500000J0D01*
G01*
X95500000Y-55500000D02*
G75*
G02*
X96000000Y-55000000I500000J0D01*
G01*
X94000000Y-55000000D02*
G75*
G02*
X94500000Y-55500000I0J-500000D01*
G01*
X94500000Y-58500000D02*
X94500000Y-55500000D01*
X94000000Y-55000000D02*
X91000000Y-55000000D01*
X91000000Y-59000000D02*
X94000000Y-59000000D01*
X90500000Y-55500000D02*
X90500000Y-58500000D01*
X91000000Y-59000000D02*
G75*
G02*
X90500000Y-58500000I0J500000D01*
G01*
X94500000Y-58500000D02*
G75*
G02*
X94000000Y-59000000I-500000J0D01*
G01*
X90500000Y-55500000D02*
G75*
G02*
X91000000Y-55000000I500000J0D01*
G01*
X89000000Y-55000000D02*
G75*
G02*
X89500000Y-55500000I0J-500000D01*
G01*
X89500000Y-58500000D02*
X89500000Y-55500000D01*
X89000000Y-55000000D02*
X86000000Y-55000000D01*
X86000000Y-59000000D02*
X89000000Y-59000000D01*
X85500000Y-55500000D02*
X85500000Y-58500000D01*
X86000000Y-59000000D02*
G75*
G02*
X85500000Y-58500000I0J500000D01*
G01*
X89500000Y-58500000D02*
G75*
G02*
X89000000Y-59000000I-500000J0D01*
G01*
X85500000Y-55500000D02*
G75*
G02*
X86000000Y-55000000I500000J0D01*
G01*
X84000000Y-55000000D02*
G75*
G02*
X84500000Y-55500000I0J-500000D01*
G01*
X84500000Y-58500000D02*
X84500000Y-55500000D01*
X84000000Y-55000000D02*
X81000000Y-55000000D01*
X81000000Y-59000000D02*
X84000000Y-59000000D01*
X80500000Y-55500000D02*
X80500000Y-58500000D01*
X81000000Y-59000000D02*
G75*
G02*
X80500000Y-58500000I0J500000D01*
G01*
X84500000Y-58500000D02*
G75*
G02*
X84000000Y-59000000I-500000J0D01*
G01*
X80500000Y-55500000D02*
G75*
G02*
X81000000Y-55000000I500000J0D01*
G01*
X79000000Y-55000000D02*
G75*
G02*
X79500000Y-55500000I0J-500000D01*
G01*
X79500000Y-58500000D02*
X79500000Y-55500000D01*
X79000000Y-55000000D02*
X76000000Y-55000000D01*
X76000000Y-59000000D02*
X79000000Y-59000000D01*
X75500000Y-55500000D02*
X75500000Y-58500000D01*
X76000000Y-59000000D02*
G75*
G02*
X75500000Y-58500000I0J500000D01*
G01*
X79500000Y-58500000D02*
G75*
G02*
X79000000Y-59000000I-500000J0D01*
G01*
X75500000Y-55500000D02*
G75*
G02*
X76000000Y-55000000I500000J0D01*
G01*
X74000000Y-55000000D02*
G75*
G02*
X74500000Y-55500000I0J-500000D01*
G01*
X74500000Y-58500000D02*
X74500000Y-55500000D01*
X74000000Y-55000000D02*
X71000000Y-55000000D01*
X71000000Y-59000000D02*
X74000000Y-59000000D01*
X70500000Y-55500000D02*
X70500000Y-58500000D01*
X71000000Y-59000000D02*
G75*
G02*
X70500000Y-58500000I0J500000D01*
G01*
X74500000Y-58500000D02*
G75*
G02*
X74000000Y-59000000I-500000J0D01*
G01*
X70500000Y-55500000D02*
G75*
G02*
X71000000Y-55000000I500000J0D01*
G01*
X69000000Y-55000000D02*
G75*
G02*
X69500000Y-55500000I0J-500000D01*
G01*
X69500000Y-58500000D02*
X69500000Y-55500000D01*
X69000000Y-55000000D02*
X66000000Y-55000000D01*
X66000000Y-59000000D02*
X69000000Y-59000000D01*
X65500000Y-55500000D02*
X65500000Y-58500000D01*
X66000000Y-59000000D02*
G75*
G02*
X65500000Y-58500000I0J500000D01*
G01*
X69500000Y-58500000D02*
G75*
G02*
X69000000Y-59000000I-500000J0D01*
G01*
X65500000Y-55500000D02*
G75*
G02*
X66000000Y-55000000I500000J0D01*
G01*
X64500000Y-58500000D02*
G75*
G02*
X64000000Y-59000000I-500000J0D01*
G01*
X61000000Y-59000000D02*
G75*
G02*
X60500000Y-58500000I0J500000D01*
G01*
X60500000Y-55500000D02*
G75*
G02*
X61000000Y-55000000I500000J0D01*
G01*
X64000000Y-55000000D02*
G75*
G02*
X64500000Y-55500000I0J-500000D01*
G01*
X64000000Y-55000000D02*
X61000000Y-55000000D01*
X64500000Y-58500000D02*
X64500000Y-55500000D01*
X61000000Y-59000000D02*
X64000000Y-59000000D01*
X60500000Y-55500000D02*
X60500000Y-58500000D01*
X52500000Y-57500000D02*
X57500000Y-52500000D01*
X52500000Y-142500000D02*
X52500000Y-57500000D01*
X57500000Y-147500000D02*
X52500000Y-142500000D01*
X142500000Y-147500000D02*
X57500000Y-147500000D01*
X147500000Y-142500000D02*
X142500000Y-147500000D01*
X147500000Y-57500000D02*
X147500000Y-142500000D01*
X142500000Y-52500000D02*
X147500000Y-57500000D01*
X57500000Y-52500000D02*
X142500000Y-52500000D01*
M02*
