<?xml version="1.0" encoding="utf-8"?>
<!-- Generator: Adobe Illustrator 16.0.0, SVG Export Plug-In . SVG Version: 6.00 Build 0)  -->
<!DOCTYPE svg PUBLIC "-//W3C//DTD SVG 1.1//EN" "http://www.w3.org/Graphics/SVG/1.1/DTD/svg11.dtd">
<svg version="1.1" id="Logo" xmlns="http://www.w3.org/2000/svg" xmlns:xlink="http://www.w3.org/1999/xlink" x="0px" y="0px"
	 width="566.93px" height="566.93px" viewBox="0 0 566.93 566.93" enable-background="new 0 0 566.93 566.93" xml:space="preserve">
<path id="EN16" fill="#231F20" d="M150.479,223.214c-3.12-7.149-3.641-17.16-3.641-29.251c0-12.09,0.521-22.101,3.641-29.251
	c4.42-10.011,13.91-17.551,27.041-17.551c17.42,0,28.341,11.57,28.341,26.521c0,1.43-1.17,2.6-2.601,2.6h-3.51
	c-1.43,0-2.6-1.17-2.6-2.6c0-10.4-7.15-18.201-19.631-18.201c-7.801,0-15.341,4.03-18.981,12.741
	c-2.47,5.979-2.859,16.12-2.859,25.74c0,9.621,0.39,19.761,2.859,25.741c3.641,8.71,11.181,12.74,18.981,12.74
	c12.48,0,19.631-7.54,19.631-20.931v-12.09c0-0.78-0.521-1.301-1.301-1.301h-15.471c-1.43,0-2.6-1.17-2.6-2.6v-3.12
	c0-1.431,1.17-2.601,2.6-2.601h22.881c1.431,0,2.601,1.17,2.601,2.601v19.11c0,18.201-10.921,29.251-28.341,29.251
	C164.389,240.765,154.898,233.225,150.479,223.214z M224.057,236.865v-85.804c0-1.43,1.17-2.601,2.6-2.601h22.101
	c15.081,0,27.302,10.921,27.302,27.302c0,11.7-6.371,21.061-15.471,24.7c-0.65,0.261-1.69,0.78-1.69,1.69
	c0,0.78,0.26,1.431,0.65,2.21l16.38,30.682c0.261,0.52,0.521,1.04,0.521,1.82c0,1.43-1.17,2.6-2.601,2.6h-3.119
	c-2.08,0-2.99-1.04-3.771-2.6l-16.641-32.242c-0.39-0.779-1.04-1.56-2.47-1.56h-14.171c-0.78,0-1.3,0.521-1.3,1.3v32.502
	c0,1.43-1.17,2.6-2.601,2.6h-3.12C225.227,239.465,224.057,238.295,224.057,236.865z M267.478,175.763
	c0-11.7-8.45-18.981-18.721-18.981h-15.08c-0.78,0-1.3,0.521-1.3,1.301v35.361c0,0.779,0.52,1.3,1.3,1.3h15.08
	C259.027,194.743,267.478,186.163,267.478,175.763z M313.755,156.262h-17.551c-1.43,0-2.6-1.17-2.6-2.6v-2.601
	c0-1.43,1.17-2.601,2.6-2.601h46.152c1.43,0,2.6,1.171,2.6,2.601v2.601c0,1.43-1.17,2.6-2.6,2.6h-17.551c-0.78,0-1.3,0.52-1.3,1.3
	v72.673c0,0.78,0.52,1.3,1.3,1.3h18.851c1.43,0,2.6,1.171,2.6,2.601v2.73c0,1.43-1.17,2.6-2.6,2.6h-48.752c-1.43,0-2.6-1.17-2.6-2.6
	v-2.73c0-1.43,1.17-2.601,2.6-2.601h18.851c0.78,0,1.3-0.52,1.3-1.3v-72.673C315.055,156.781,314.535,156.262,313.755,156.262z
	 M364.063,236.865v-85.804c0-1.43,1.17-2.601,2.6-2.601h23.401c12.87,0,21.971,7.021,26.391,16.251
	c3.38,7.021,3.641,17.161,3.641,29.251c0,12.091-0.391,22.231-3.641,29.251c-4.29,9.23-13.521,16.251-26.391,16.251h-23.401
	C365.232,239.465,364.063,238.295,364.063,236.865z M408.394,219.704c2.471-5.98,2.86-16.12,2.86-25.741
	c0-9.62-0.26-19.761-2.86-25.74c-3.51-7.931-10.79-11.441-18.33-11.441h-16.381c-0.78,0-1.3,0.521-1.3,1.301v71.763
	c0,0.78,0.52,1.3,1.3,1.3h16.381C397.604,231.145,405.144,227.635,408.394,219.704z M153.078,415.87v-85.805
	c0-1.43,1.17-2.6,2.601-2.6h44.592c1.43,0,2.6,1.17,2.6,2.6v3.121c0,1.43-1.17,2.6-2.6,2.6h-37.572c-0.779,0-1.3,0.52-1.3,1.301
	v29.51c0,0.781,0.521,1.301,1.3,1.301h36.142c1.431,0,2.601,1.17,2.601,2.6v2.99c0,1.43-1.17,2.6-2.601,2.6h-36.142
	c-0.779,0-1.3,0.521-1.3,1.301v31.461c0,0.781,0.521,1.301,1.3,1.301h37.832c1.43,0,2.6,1.17,2.6,2.6v3.121c0,1.43-1.17,2.6-2.6,2.6
	h-44.852C154.248,418.469,153.078,417.299,153.078,415.87z M221.066,415.87v-85.805c0-1.43,1.17-2.6,2.6-2.6h6.761
	c1.43,0,1.95,0.391,2.729,2.211l32.372,73.973c0.26,0.52,1.039,0.389,1.039-0.26v-73.324c0-1.43,1.171-2.6,2.601-2.6h2.601
	c1.43,0,2.6,1.17,2.6,2.6v85.805c0,1.43-1.17,2.6-2.6,2.6h-6.761c-1.43,0-1.95-0.391-2.73-2.211l-32.371-74.623
	c-0.26-0.52-1.04-0.389-1.04,0.26v73.975c0,1.43-1.17,2.6-2.6,2.6h-2.601C222.236,418.469,221.066,417.299,221.066,415.87z
	 M296.984,415.87v-2.73c0-1.43,1.17-2.602,2.601-2.602h19.5c0.78,0,1.301-0.52,1.301-1.299v-69.162c0-0.781-0.78-0.91-1.171-0.521
	l-22.62,21.191c-1.17,1.041-2.86,0.391-2.86-1.039v-3.252c0-2.209,0.13-2.988,1.17-4.029l24.311-23.791
	c0.65-0.65,1.69-1.17,2.601-1.17h3.77c1.431,0,2.601,1.17,2.601,2.6v79.174c0,0.779,0.521,1.299,1.3,1.299h15.73
	c1.431,0,2.601,1.172,2.601,2.602v2.73c0,1.43-1.17,2.6-2.601,2.6h-45.631C298.154,418.469,296.984,417.299,296.984,415.87z
	 M367.313,401.309c-2.34-7.281-3.25-15.211-3.25-28.342c0-13.391,1.04-21.061,3.899-29.771c3.381-10.4,13.651-17.031,24.961-17.031
	c14.821,0,24.831,10.141,24.831,25.092c0,1.43-1.17,2.6-2.6,2.6h-2.86c-1.3,0-2.47-1.17-2.6-2.6
	c-1.04-11.57-6.631-17.291-16.771-17.291c-8.58,0-14.43,4.291-17.42,12.611c-1.82,5.07-2.471,11.439-2.471,18.85
	c0,1.17,1.17,1.691,2.08,0.91c5.2-4.42,11.311-6.629,18.201-6.629c14.69,0,25.221,12.48,25.221,29.9
	c0,18.33-10.4,30.16-26.521,30.16C380.183,419.768,371.083,412.879,367.313,401.309z M410.084,389.608
	c0-13.131-7.28-21.842-18.07-21.842c-10.791,0-18.071,8.711-18.071,21.842c0,13,7.41,22.102,18.071,22.102
	C402.544,411.709,410.084,402.479,410.084,389.608z M424.727,283.465c0-2.209-1.791-4-4-4H146.203c-2.209,0-4,1.791-4,4
	c0,2.209,1.791,4,4,4h274.523C422.936,287.465,424.727,285.674,424.727,283.465z M462.464,466.469H104.466c-2.209,0-4-1.791-4-4
	V104.461c0-2.209,1.791-4,4-4h357.998c2.209,0,4,1.791,4,4v358.008C466.464,464.678,464.673,466.469,462.464,466.469z
	 M108.466,458.469h349.998V108.461H108.466V458.469z"/>
</svg>
