<?xml version="1.0" encoding="utf-8"?>
<!-- Generator: Adobe Illustrator 16.0.0, SVG Export Plug-In . SVG Version: 6.00 Build 0)  -->
<!DOCTYPE svg PUBLIC "-//W3C//DTD SVG 1.1//EN" "http://www.w3.org/Graphics/SVG/1.1/DTD/svg11.dtd">
<svg version="1.1" id="Logo" xmlns="http://www.w3.org/2000/svg" xmlns:xlink="http://www.w3.org/1999/xlink" x="0px" y="0px"
	 width="566.93px" height="566.93px" viewBox="0 0 566.93 566.93" enable-background="new 0 0 566.93 566.93" xml:space="preserve">
<path id="PBF4" fill="#231F20" d="M153.988,415.87v-85.805c0-1.43,1.17-2.6,2.6-2.6h22.102c15.08,0,27.301,12.221,27.301,27.301
	s-12.221,27.301-27.301,27.301h-15.081c-0.78,0-1.3,0.521-1.3,1.301v32.502c0,1.43-1.17,2.6-2.6,2.6h-3.121
	C155.158,418.469,153.988,417.299,153.988,415.87z M197.41,354.766c0-10.4-8.45-18.98-18.721-18.98h-15.081
	c-0.78,0-1.3,0.52-1.3,1.301v35.361c0,0.779,0.52,1.299,1.3,1.299h15.081C188.96,373.747,197.41,365.167,197.41,354.766z
	 M224.316,415.87v-85.805c0-1.43,1.17-2.6,2.6-2.6h24.182c13.26,0,24.051,10.141,24.051,24.182c0,5.98-2.471,13.26-7.41,17.551
	c-1.04,0.91-1.04,2.08,0,2.859c5.46,4.16,9.23,12.48,9.23,19.891c0,15.08-11.701,26.521-25.871,26.521h-24.182
	C225.486,418.469,224.316,417.299,224.316,415.87z M266.698,351.387c0-8.582-6.631-15.602-15.081-15.602h-17.94
	c-0.78,0-1.3,0.52-1.3,1.301v28.471c0,0.779,0.52,1.301,1.3,1.301h17.94C260.067,366.858,266.698,359.967,266.698,351.387z
	 M268.648,392.338c0-9.881-7.801-17.811-17.551-17.811h-17.421c-0.78,0-1.3,0.52-1.3,1.299v33.021c0,0.781,0.52,1.301,1.3,1.301
	h17.421C260.848,410.149,268.648,402.219,268.648,392.338z M297.765,415.87v-85.805c0-1.43,1.17-2.6,2.6-2.6h44.592
	c1.431,0,2.601,1.17,2.601,2.6v3.121c0,1.43-1.17,2.6-2.601,2.6h-37.571c-0.78,0-1.3,0.52-1.3,1.301v29.381
	c0,0.779,0.52,1.299,1.3,1.299h36.142c1.43,0,2.6,1.172,2.6,2.602v3.119c0,1.43-1.17,2.6-2.6,2.6h-36.142
	c-0.78,0-1.3,0.521-1.3,1.301v38.482c0,1.43-1.17,2.6-2.601,2.6h-3.12C298.935,418.469,297.765,417.299,297.765,415.87z
	 M399.033,415.87v-14.301c0-0.781-0.52-1.301-1.3-1.301h-34.191c-1.43,0-2.6-1.17-2.6-2.6v-2.211c0-1.82,1.17-4.16,2.08-5.85
	l33.021-60.322c0.78-1.43,1.301-1.82,2.73-1.82h5.33c1.431,0,2.601,1.17,2.601,2.6v61.232c0,0.781,0.52,1.301,1.3,1.301h7.28
	c1.43,0,2.601,1.17,2.601,2.6v2.471c0,1.43-1.171,2.6-2.601,2.6h-7.28c-0.78,0-1.3,0.52-1.3,1.301v14.301c0,1.43-1.17,2.6-2.601,2.6
	h-2.47C400.203,418.469,399.033,417.299,399.033,415.87z M399.033,391.297v-50.701c0-0.779-0.779-0.779-1.04-0.26l-27.69,51.221
	c-0.391,0.781-0.26,1.041,0.52,1.041h26.911C398.514,392.598,399.033,392.079,399.033,391.297z M462.464,466.469H104.466
	c-2.209,0-4-1.791-4-4V104.461c0-2.209,1.791-4,4-4h357.998c2.209,0,4,1.791,4,4v358.008
	C466.464,464.678,464.673,466.469,462.464,466.469z M108.466,458.469h349.998V108.461H108.466V458.469z M424.727,283.465
	c0-2.209-1.791-4-4-4H146.203c-2.209,0-4,1.791-4,4c0,2.209,1.791,4,4,4h274.523C422.936,287.465,424.727,285.674,424.727,283.465z
	 M150.479,223.214c-3.12-7.15-3.641-17.161-3.641-29.251c0-12.09,0.521-22.101,3.641-29.251c4.42-10.01,13.91-17.551,27.041-17.551
	c17.42,0,28.341,11.571,28.341,26.521c0,1.43-1.17,2.6-2.601,2.6h-3.51c-1.43,0-2.6-1.17-2.6-2.6c0-10.4-7.15-18.201-19.631-18.201
	c-7.801,0-15.341,4.03-18.981,12.741c-2.47,5.98-2.859,16.121-2.859,25.741c0,9.621,0.39,19.761,2.859,25.741
	c3.641,8.71,11.181,12.74,18.981,12.74c12.48,0,19.631-7.54,19.631-20.931v-12.09c0-0.78-0.521-1.3-1.301-1.3h-15.471
	c-1.43,0-2.6-1.17-2.6-2.6v-3.12c0-1.43,1.17-2.601,2.6-2.601h22.881c1.431,0,2.601,1.17,2.601,2.601v19.11
	c0,18.201-10.921,29.251-28.341,29.251C164.389,240.765,154.898,233.225,150.479,223.214z M224.057,236.865v-85.803
	c0-1.43,1.17-2.6,2.6-2.6h22.101c15.081,0,27.302,10.92,27.302,27.301c0,11.7-6.371,21.061-15.471,24.701
	c-0.65,0.26-1.69,0.78-1.69,1.69c0,0.78,0.26,1.43,0.65,2.21l16.38,30.682c0.261,0.52,0.521,1.04,0.521,1.82
	c0,1.43-1.17,2.6-2.601,2.6h-3.119c-2.08,0-2.99-1.04-3.771-2.6l-16.641-32.241c-0.39-0.78-1.04-1.56-2.47-1.56h-14.171
	c-0.78,0-1.3,0.52-1.3,1.3v32.501c0,1.43-1.17,2.6-2.601,2.6h-3.12C225.227,239.465,224.057,238.295,224.057,236.865z
	 M267.478,175.763c0-11.701-8.45-18.981-18.721-18.981h-15.08c-0.78,0-1.3,0.52-1.3,1.3v35.361c0,0.78,0.52,1.3,1.3,1.3h15.08
	C259.027,194.743,267.478,186.163,267.478,175.763z M313.755,156.262h-17.551c-1.43,0-2.6-1.17-2.6-2.6v-2.6
	c0-1.43,1.17-2.6,2.6-2.6h46.152c1.43,0,2.6,1.17,2.6,2.6v2.6c0,1.43-1.17,2.6-2.6,2.6h-17.551c-0.78,0-1.3,0.52-1.3,1.3v72.673
	c0,0.78,0.52,1.3,1.3,1.3h18.851c1.43,0,2.6,1.17,2.6,2.6v2.73c0,1.43-1.17,2.6-2.6,2.6h-48.752c-1.43,0-2.6-1.17-2.6-2.6v-2.73
	c0-1.43,1.17-2.6,2.6-2.6h18.851c0.78,0,1.3-0.52,1.3-1.3v-72.673C315.055,156.782,314.535,156.262,313.755,156.262z
	 M364.063,236.865v-85.803c0-1.43,1.17-2.6,2.6-2.6h23.401c12.87,0,21.971,7.02,26.391,16.25c3.38,7.021,3.641,17.161,3.641,29.251
	c0,12.091-0.391,22.231-3.641,29.251c-4.29,9.23-13.521,16.25-26.391,16.25h-23.401
	C365.232,239.465,364.063,238.295,364.063,236.865z M408.394,219.704c2.471-5.98,2.86-16.121,2.86-25.741
	c0-9.62-0.26-19.761-2.86-25.741c-3.51-7.93-10.79-11.44-18.33-11.44h-16.381c-0.78,0-1.3,0.52-1.3,1.3v71.763
	c0,0.78,0.52,1.3,1.3,1.3h16.381C397.604,231.145,405.144,227.634,408.394,219.704z"/>
</svg>
