M48
;Layer_Color=9474304
;FILE_FORMAT=4:3
METRIC,TZ
;TYPE=PLATED
T3F00S00C0.200
T4F00S00C0.250
T5F00S00C0.350
T6F00S00C0.650
T9F00S00C0.889
T10F00S00C1.000
T11F00S00C1.016
T12F00S00C1.600
T13F00S00C2.700
;TYPE=NON_PLATED
T1F00S00C1.500
T2F00S00C3.251
%
T03
X-26325Y-22725
X-25675Y-22075
X-25675Y-21425
X-25675Y-20125
X-26325
X-26975Y-18825
X-25675Y-18175
X-25025
X-25025Y-19475
Y-20125
X-24375
X-23725Y-20775
X-23075Y-21425
Y-22075
X-24375Y-22725
X-25025Y-22725
X-25025Y-22075
X-25025Y-21425
X-23725Y-19475
Y-18825
X-23075Y-18175
T04
X-79165Y-98340
X-78030Y-99140
X-75490
X-72950
X-70410
X-67870
X-70050Y-93125
X-69875Y-88800
X-79165Y-88180
Y-90720
Y-93260
Y-95800
Y-85640
X-59625Y-90250
X-59975Y-91600
Y-92550
X-56800Y-92575
X-56800Y-90750
X-56850Y-88800
X-55525Y-91575
X-55170Y-99140
X-52630
X-50090
X-47550
X-45010
X-42470
X-39930
X-37390
X-34850
X-32310
X-29770
X-27230
X-29450Y-88600
X-28730Y-87100
X-60250Y-99140
X-62790
X-65330
X-24690
X-22150
X-19610
X-17070
X-14530
X-11990
X-9450
X-6910
X-4370
X-830Y-94530
Y-91990
Y-89450
Y-86910
Y-84370
Y-81830
Y-79290
Y-76750
Y-74210
Y-71670
Y-69130
Y-66590
Y-64050
Y-61510
Y-58970
Y-56430
Y-53890
Y-51350
Y-48810
Y-46270
X-10800Y-46150
X-11825
X-9813Y-44500
X-24750Y-45200
X-25640Y-45200
X-24726Y-46202
X-20925Y-51600
X-20950Y-53375
X-21150Y-54425
X-22125Y-53800
X-21750Y-52700
X-20075Y-52725
X-18700Y-53350
X-17750Y-52725
X-19525Y-54850
X-20600Y-56200
X-20301Y-58203
X-19625Y-57675
X-18625Y-57775
X-16476Y-56203
X-15825Y-55864
X-17475Y-61500
X-16400Y-63975
X-21251Y-65078
X-22800Y-65400
X-22775Y-68075
X-25450Y-68975
X-22677Y-61425
X-22475Y-57275
X-11250Y-60855
X-9250Y-61525
X-9025Y-80800
X-13675
X-29880Y-80590
X-31150
X-34960Y-80845
X-36230
X-37500
X-38770
X-40040
Y-76734
X-38770
X-37500
X-34960Y-76600
X-30330Y-76575
X-29700Y-75900
X-31000
X-28625Y-75550
X-27818Y-75050
X-27950Y-71700
X-27900Y-70900
X-30650Y-69075
X-30300Y-66175
X-30376Y-64628
X-30301Y-63528
X-30375Y-62250
X-31125
X-31175Y-61450
X-30725Y-60600
X-29525Y-59550
X-28925Y-58850
X-28163
X-28326Y-61053
X-27225Y-60600
X-26525Y-61275
X-25650
X-25876Y-58325
X-25875Y-57400
X-28083Y-53757
X-31650Y-54025
Y-54875
X-33400Y-56700
X-33925Y-57250
X-34400Y-57875
X-33600Y-59275
X-32775
X-34250Y-60600
X-34250Y-61450
X-31775Y-62950
X-37627Y-62753
X-37325Y-65100
X-37325Y-66125
X-36375Y-69250
X-34900Y-70025
X-38400Y-69825
X-39700Y-68000
X-42375Y-66290
Y-65540
X-43425Y-64050
X-40925
X-40900Y-59400
X-43425
X-43225Y-58150
X-43025Y-53450
X-46825Y-52750
X-47725Y-52750
X-47725Y-53525
X-48800Y-53525
X-46475Y-52050
X-39488Y-52300
X-36915Y-53757
X-37600Y-54500
X-37575Y-55850
X-37800Y-57575
X-37625Y-58625
X-37525Y-59700
X-35950Y-55275
X-34241Y-53850
X-34200Y-51150
X-32350Y-50271
X-32452Y-48877
X-31625Y-48775
X-31000Y-51050
X-29434Y-47325
X-29000Y-44600
X-29925Y-44590
X-27575Y-45626
X-26276Y-46101
X-27550Y-49150
X-35700Y-49400
X-49816Y-46145
X-50659
X-53453Y-45627
X-54206Y-46176
X-53625Y-48075
X-54925
X-56588Y-45888
X-57650Y-45855
X-48509Y-43775
X-47759
X-52050Y-61400
Y-63400
Y-65100
Y-67530
X-56650Y-68275
X-55700Y-70775
X-61050Y-71575
X-61050Y-74900
X-58100Y-74900
X-56725Y-76175
Y-77325
X-56150Y-76800
X-59550Y-78075
X-62000Y-77300
X-64200Y-69950
X-64200Y-69000
X-63825Y-58650
X-65175Y-55050
Y-53950
X-56800Y-58650
X-46175Y-68756
X-45075Y-68610
X-43925Y-68625
X-38975Y-73300
X-48825Y-76375
X-52050Y-77530
Y-80030
Y-82530
X-27900Y-65550
X-26575Y-65900
Y-65125
X-70050Y-59150
X-71710Y-54525
X-69925Y-51100
X-68825
X-68625Y-47527
X-69127Y-46800
X-70450Y-46250
X-79165Y-45000
Y-47540
Y-50080
Y-52620
Y-55160
Y-57700
Y-60240
Y-62780
Y-65320
Y-67860
Y-70400
Y-72940
Y-75480
Y-78020
Y-80560
Y-83100
X-68800Y-76600
X-69000Y-37166
X-67850Y-37176
X-67871Y-35541
X-68450Y-35025
X-68453Y-36077
X-70603Y-35377
X-73600Y-35216
X-73525Y-38117
X-79165Y-37380
Y-39920
Y-42460
Y-34840
Y-32300
Y-29760
Y-27220
Y-24680
X-75127Y-23577
X-72075Y-24250
X-69991Y-26434
X-69475Y-26950
X-69162Y-25737
X-65901Y-26050
X-65861Y-27000
X-65976Y-24875
X-65976Y-23500
X-67454Y-27975
X-66385Y-30113
X-66950Y-31355
X-66275Y-32475
X-67840Y-32490
X-71525Y-32700
X-72675Y-29880
X-74450Y-31175
X-75675Y-32200
X-73725Y-27350
X-64725Y-27980
X-64700Y-28880
X-63200Y-29375
X-63075Y-33924
X-64350Y-33924
X-65225Y-32200
X-65325Y-35650
X-62900Y-37475
X-60775Y-38875
X-58650
X-60925Y-35600
X-58575Y-31875
X-57600Y-30900
X-56475Y-31875
X-52750Y-32799
Y-37775
X-49150Y-40400
X-46950Y-43075
X-43225Y-41777
X-41400Y-40375
X-41000Y-38325
X-39725Y-37900
X-38650Y-37075
X-38675Y-35300
Y-34350
X-37800Y-32075
X-37000Y-30825
X-38130Y-30095
X-39327Y-29500
X-40525Y-28950
X-39700Y-26675
X-39225Y-24975
X-37200Y-24250
X-35925Y-24250
X-36275Y-21825
X-38700Y-20775
X-40550Y-22675
X-43024Y-22700
X-46359Y-22775
X-45600Y-25675
X-43725Y-26675
X-42800
X-43800Y-30525
Y-31850
Y-32650
Y-33450
X-44050Y-34675
X-45225Y-33225
X-46000Y-33475
X-46149Y-31512
X-49200Y-35051
X-51325Y-28450
X-51650Y-26250
X-49925Y-26675
X-50050Y-24025
X-50125Y-21100
X-50400Y-18625
X-52025Y-15975
X-50750Y-14300
X-49675Y-10850
X-49961Y-9908
X-48884Y-8725
X-49910Y-7075
X-49952Y-5625
X-49100Y-5500
X-47134Y-5491
X-45150Y-5375
X-45500Y-9300
X-44050Y-10375
X-37787Y-8312
X-36625Y-11450
X-34575Y-13350
X-33600Y-14500
X-31200Y-15275
X-31025Y-17175
X-30500Y-17800
X-32427Y-18201
X-30000Y-20600
X-29250Y-22050
X-30875Y-23175
X-30790Y-26800
X-28417Y-26839
X-28075Y-25750
X-26075Y-24675
X-26375Y-27400
X-26328Y-32325
X-26500Y-33425
X-28150Y-33375
X-28841Y-37200
X-30111Y-36700
X-30625Y-37450
X-34575Y-36800
X-35200Y-35675
X-36075Y-36300
X-36175Y-32650
X-36179Y-28600
X-33930Y-28825
X-32655
X-37825Y-27475
X-39577Y-31477
X-38450Y-41475
X-44200Y-20225
X-51625Y-22500
X-56500Y-21775
X-55550Y-17925
X-56106Y-13748
X-55625Y-12125
X-58075Y-14250
X-58575Y-8600
X-59450Y-6725
X-60400
X-51625Y-7800
X-33725Y-5483
X-32975Y-5475
X-32500Y-8925
X-26725Y-8150
Y-7350
X-25876Y-6424
X-25676Y-8975
X-26200Y-13125
X-26775Y-13700
X-25975Y-14425
X-27950Y-16625
X-28575Y-5825
X-27276Y-4975
X-58250Y-28925
X-23300Y-28825
X-22000Y-28825
X-20700
X-19400
X-18100
X-16800
X-15500
X-14225
X-12950
X-11674Y-28825
X-10500Y-28075
X-9850Y-26550
X-9350Y-25400
X-11900Y-23500
X-13050Y-22875
X-13751Y-23126
X-17530Y-20750
X-18525Y-21400
X-21100Y-21425
X-20950Y-25675
X-20625Y-26500
X-24075Y-26075
X-24101Y-25226
X-24725Y-33425
X-25635Y-33425
X-22971Y-33225
X-20700Y-32600
X-19400
X-18100
X-16800
X-15500
X-14225
X-12950
X-10819Y-34673
X-9850Y-37750
X-16371Y-36575
X-830Y-36110
Y-38650
Y-41190
Y-43730
Y-33570
Y-31030
Y-28490
Y-25950
Y-23410
Y-20870
Y-18330
X-1250Y-12800
X-775Y-11100
X-1250Y-6825
X-830Y-5630
X-3875Y-7025
X-4550Y-9800
X-6800Y-9825
Y-11100
X-7750Y-9100
X-10100Y-9025
Y-12075
X-11700Y-12225
X-12425
X-14725Y-13000
X-17625Y-12975
X-19263Y-13200
X-19927Y-12675
X-19825Y-10600
X-18875Y-8650
X-17875Y-7775
X-17076Y-7075
X-16900Y-5500
X-16076Y-5575
X-14300Y-5600
X-13900Y-8725
X-13275
X-13426Y-9626
X-16050Y-8775
X-12025Y-7075
X-19625Y-6125
X-22650Y-5675
X-23325Y-5681
X-24988Y-5700
X-24925Y-10675
X-22275Y-9675
X-22675Y-12761
X-22925Y-14425
X-23875
X-23400Y-16950
X-19035Y-17400
X-19600Y-18200
X-17800Y-16700
X-16725Y-16050
X-12975Y-16175
X-11775Y-16450
X-10950
X-10225
X-10750Y-15250
X-8725Y-12850
X-7600Y-1993
X-6910Y-820
X-4370
X-9450
X-22150
X-22814Y-2750
X-24925Y-1500
X-29125Y-1525
X-30075
X-29770Y-820
X-29101Y-2751
X-32800Y-3879
X-33717
X-34125Y-2150
X-37390Y-820
X-39930
X-40500Y-1500
X-55170Y-820
X-60250
T05
X-70300Y-30730
Y-29530
X-69100
Y-30730
T06
X-24325Y-50275
X-33025Y-45525
X-42025Y-56375
X-48325Y-59400
Y-61400
Y-63400
Y-65100
Y-70030
Y-72530
Y-75030
Y-77530
Y-80030
Y-82530
X-62325Y-56405
Y-55135
Y-53865
X-71225Y-47025
X-68538Y-38055
X-70088Y-36225
X-59625Y-34925
X-33930Y-37780
X-32660
X-31655Y-36325
X-31425Y-39895
Y-41165
Y-42435
Y-43705
X-20725
Y-42435
Y-41165
Y-39895
X-20800Y-37777
X-8240Y-23010
Y-21740
X-6970
Y-23010
X-5700
X-4430
X-3160
Y-21740
X-4430
X-5700
T09
X-74770Y-20465
X-72230
X-69690
X-67150
X-65880Y-17925
X-68420
X-70960
X-73500
T10
X-41430Y-95570
Y-93030
X-38890
Y-95570
X-36350
Y-93030
X-33810
Y-95570
X-31270
X-28730
X-26190
Y-93030
X-28730
X-31270
X-23650
X-21110
Y-95570
X-18570
Y-93030
X-23650Y-95570
X-6970Y-87150
X-4430
Y-84610
X-6970
Y-82070
Y-79530
Y-76990
X-4430
Y-79530
Y-82070
Y-74450
X-6970
Y-71910
X-4430
Y-69370
X-6970
Y-66830
Y-64290
X-4430
Y-66830
Y-59210
Y-56670
Y-51590
Y-49050
Y-46510
Y-43970
X-6970
Y-46510
Y-49050
Y-51590
X-23575Y-73160
Y-75700
Y-78240
X-36915Y-44245
X-39455
X-41995
X-44535
X-54570
X-57110
X-59650
X-62190
X-64730
X-67270
X-69810
X-72350
X-74890
X-77430
X-77700Y-53243
Y-55783
X-77430Y-41705
X-74890
X-72350
X-69810
X-67270
X-64730
X-62190
X-59650
X-57110
X-54570
X-41776Y-19840
Y-17300
Y-14760
X-41270Y-10950
X-38730
X-36696Y-14760
Y-17300
Y-19840
X-6970Y-16030
Y-13490
X-4430
Y-16030
Y-28730
X-6970
Y-31270
Y-33810
Y-36350
Y-38890
Y-41430
X-4430
Y-38890
Y-36350
Y-33810
Y-31270
T11
X-76954Y-7511
X-74414
X-66236
X-63696
T12
X-78072Y-14623
X-62578
T13
X-57650Y-97650
X-2350
Y-2350
X-57650
T01
X-74925Y-85750
Y-61150
T02
X-76040Y-11575
X-64610
M30
