M48
INCH,TZ
T1C0.0118
T2C0.0197
T3C0.0236
T4C0.0256
T5C0.0295
T6C0.0394
T7C0.0512
T8C0.0866
%
G90
G05
T1
X2028Y-3937
X2028Y-4016
X2106Y-3858
X2106Y-5709
X2106Y-5630
X2327Y-2040
X2327Y-2084
X2362Y-2212
X2362Y-2512
X2397Y-2040
X2562Y-2050
X2562Y-2124
X2587Y-3862
X2587Y-4012
X2712Y-2487
X2712Y-3762
X2712Y-4112
X2762Y-3762
X2762Y-4112
X2812Y-4112
X2837Y-3687
X2854Y-2244
X2862Y-2287
X2900Y-2737
X2925Y-2762
X2937Y-3687
X2987Y-2600
X2987Y-2674
X3025Y-2762
X3050Y-2737
X3062Y-2412
X3062Y-3762
X3212Y-2050
X3212Y-2124
X3312Y-2212
X3362Y-2325
X3377Y-2084
X3412Y-2512
X3447Y-2040
X3465Y-3917
X3512Y-2212
X3524Y-4035
X3652Y-3652
X3673Y-4894
X3677Y-4839
X3712Y-4387
X3720Y-3819
X3720Y-3898
X3720Y-4134
X3740Y-4732
X3750Y-3563
X3762Y-4537
X3768Y-2232
X3770Y-2107
X3780Y-3533
X3780Y-3563
X3780Y-4744
X3789Y-2264
X3789Y-3976
X3789Y-4134
X3799Y-3740
X3819Y-4437
X3819Y-5531
X3829Y-2264
X3839Y-2579
X3848Y-4646
X3858Y-3543
X3858Y-3898
X3858Y-4134
X3858Y-4387
X3859Y-2323
X3859Y-2352
X3862Y-4437
X3868Y-2156
X3868Y-2274
X3868Y-2411
X3868Y-2500
X3870Y-5717
X3878Y-2077
X3906Y-2156
X3912Y-4437
X3912Y-4487
X3916Y-4387
X3925Y-5110
X3927Y-2579
X3929Y-5063
X3935Y-2075
X3937Y-2618
X3937Y-2648
X3937Y-3524
X3937Y-3563
X3937Y-3701
X3937Y-3740
X3937Y-3780
X3937Y-4173
X3957Y-4724
X3986Y-2274
X3998Y-2072
X4004Y-5717
X4006Y-2411
X4008Y-2154
X4016Y-3563
X4016Y-2313
X4016Y-3740
X4016Y-3898
X4016Y-4094
X4017Y-3524
X4026Y-2677
X4026Y-4646
X4045Y-2264
X4055Y-2480
X4057Y-4337
X4079Y-4537
X4083Y-3902
X4085Y-2264
X4085Y-3740
X4094Y-5669
X4104Y-4813
X4106Y-2232
X4114Y-4862
X4114Y-4911
X4133Y-3542
X4134Y-4350
X4134Y-5000
X4134Y-5167
X4134Y-5748
X4154Y-3701
X4154Y-3740
X4154Y-3819
X4154Y-3898
X4154Y-3937
X4154Y-3976
X4154Y-4055
X4154Y-4134
X4163Y-3563
X4173Y-3307
X4311Y-3957
X4427Y-2084
X4462Y-2212
X4462Y-2512
X4497Y-2040
X4662Y-2050
X4662Y-2124
X4812Y-3762
X4812Y-4112
X4862Y-3762
X4862Y-4112
X4887Y-2600
X4887Y-2637
X4887Y-2687
X4890Y-2237
X4890Y-2287
X4912Y-4112
X4937Y-3687
X4961Y-2244
X4975Y-2600
X5000Y-2637
X5025Y-2687
X5037Y-3687
X5084Y-2437
X5084Y-2537
X5087Y-2600
X5087Y-2674
X5162Y-3762
X5287Y-3862
X5287Y-4012
X5312Y-2050
X5312Y-2124
X5412Y-2212
X5462Y-2325
X5477Y-2084
X5512Y-2512
X5547Y-2040
X5547Y-2084
X5612Y-2212
X5709Y-5807
X5709Y-5689
X5728Y-3996
X5787Y-3937
X5827Y-3937
X5866Y-3976
T2
X2362Y-3858
X2362Y-4016
X5512Y-3858
X5512Y-4016
T4
X3837Y-3331
X3837Y-3381
X3887Y-3331
X3887Y-3381
X3937Y-3331
X3937Y-3381
X3987Y-3331
X3987Y-3381
X4037Y-3331
X4037Y-3381
T5
X3852Y-5768
X4022Y-5768
T6
X2107Y-2670
X2107Y-3104
X2107Y-4770
X2107Y-5204
X2262Y-2086
X2262Y-2657
X2362Y-2657
X2462Y-2086
X2462Y-2657
X2670Y-2107
X2670Y-5767
X3104Y-2107
X3104Y-5767
X3312Y-2086
X3312Y-2657
X3412Y-2657
X3512Y-2086
X3512Y-2657
X4362Y-2086
X4362Y-2657
X4462Y-2657
X4562Y-2086
X4562Y-2657
X4770Y-2107
X4770Y-5767
X5204Y-2107
X5204Y-5767
X5412Y-2086
X5412Y-2657
X5512Y-2657
X5612Y-2086
X5612Y-2657
X5767Y-2670
X5767Y-3104
X5767Y-4770
X5767Y-5204
T7
X2293Y-2878
X2431Y-2878
X2431Y-5783
X3343Y-2878
X3481Y-2878
X3481Y-5783
X4393Y-2878
X4531Y-2878
X4531Y-5783
X5443Y-2878
X5581Y-2878
X5581Y-5783
T8
X2106Y-2362
X2618Y-2362
X3156Y-2362
X3668Y-2362
X4206Y-2362
X4718Y-2362
X5256Y-2362
X5768Y-2362
T2
G00X2071Y-2749
M15
G01X2103Y-2749
M16
G05
G00X2071Y-2789
M15
G01X2103Y-2789
M16
G05
G00X2071Y-2828
M15
G01X2103Y-2828
M16
G05
G00X2071Y-2867
M15
G01X2103Y-2867
M16
G05
G00X2071Y-2907
M15
G01X2103Y-2907
M16
G05
G00X2071Y-2946
M15
G01X2103Y-2946
M16
G05
G00X2071Y-2985
M15
G01X2103Y-2985
M16
G05
G00X2071Y-3025
M15
G01X2103Y-3025
M16
G05
G00X2071Y-4849
M15
G01X2103Y-4849
M16
G05
G00X2071Y-4889
M15
G01X2103Y-4889
M16
G05
G00X2071Y-4928
M15
G01X2103Y-4928
M16
G05
G00X2071Y-4967
M15
G01X2103Y-4967
M16
G05
G00X2071Y-5007
M15
G01X2103Y-5007
M16
G05
G00X2071Y-5046
M15
G01X2103Y-5046
M16
G05
G00X2071Y-5085
M15
G01X2103Y-5085
M16
G05
G00X2071Y-5125
M15
G01X2103Y-5125
M16
G05
G00X2749Y-2071
M15
G01X2749Y-2103
M16
G05
G00X2749Y-5803
M15
G01X2749Y-5771
M16
G05
G00X2789Y-2071
M15
G01X2789Y-2103
M16
G05
G00X2789Y-5803
M15
G01X2789Y-5771
M16
G05
G00X2828Y-2071
M15
G01X2828Y-2103
M16
G05
G00X2828Y-5803
M15
G01X2828Y-5771
M16
G05
G00X2867Y-2071
M15
G01X2867Y-2103
M16
G05
G00X2867Y-5803
M15
G01X2867Y-5771
M16
G05
G00X2907Y-2071
M15
G01X2907Y-2103
M16
G05
G00X2907Y-5803
M15
G01X2907Y-5771
M16
G05
G00X2946Y-2071
M15
G01X2946Y-2103
M16
G05
G00X2946Y-5803
M15
G01X2946Y-5771
M16
G05
G00X2985Y-2071
M15
G01X2985Y-2103
M16
G05
G00X2985Y-5803
M15
G01X2985Y-5771
M16
G05
G00X3025Y-2071
M15
G01X3025Y-2103
M16
G05
G00X3025Y-5803
M15
G01X3025Y-5771
M16
G05
G00X3767Y-2016
M15
G01X3767Y-2000
M16
G05
G00X3767Y-2186
M15
G01X3767Y-2159
M16
G05
G00X4107Y-2016
M15
G01X4107Y-2000
M16
G05
G00X4107Y-2186
M15
G01X4107Y-2159
M16
G05
G00X4849Y-2071
M15
G01X4849Y-2103
M16
G05
G00X4849Y-5803
M15
G01X4849Y-5771
M16
G05
G00X4889Y-2071
M15
G01X4889Y-2103
M16
G05
G00X4889Y-5803
M15
G01X4889Y-5771
M16
G05
G00X4928Y-2071
M15
G01X4928Y-2103
M16
G05
G00X4928Y-5803
M15
G01X4928Y-5771
M16
G05
G00X4967Y-2071
M15
G01X4967Y-2103
M16
G05
G00X4967Y-5803
M15
G01X4967Y-5771
M16
G05
G00X5007Y-2071
M15
G01X5007Y-2103
M16
G05
G00X5007Y-5803
M15
G01X5007Y-5771
M16
G05
G00X5046Y-2071
M15
G01X5046Y-2103
M16
G05
G00X5046Y-5803
M15
G01X5046Y-5771
M16
G05
G00X5085Y-2071
M15
G01X5085Y-2103
M16
G05
G00X5085Y-5803
M15
G01X5085Y-5771
M16
G05
G00X5125Y-2071
M15
G01X5125Y-2103
M16
G05
G00X5125Y-5803
M15
G01X5125Y-5771
M16
G05
G00X5803Y-2749
M15
G01X5771Y-2749
M16
G05
G00X5803Y-2789
M15
G01X5771Y-2789
M16
G05
G00X5803Y-2828
M15
G01X5771Y-2828
M16
G05
G00X5803Y-2867
M15
G01X5771Y-2867
M16
G05
G00X5803Y-2907
M15
G01X5771Y-2907
M16
G05
G00X5803Y-2946
M15
G01X5771Y-2946
M16
G05
G00X5803Y-2985
M15
G01X5771Y-2985
M16
G05
G00X5803Y-3025
M15
G01X5771Y-3025
M16
G05
G00X5803Y-4849
M15
G01X5771Y-4849
M16
G05
G00X5803Y-4889
M15
G01X5771Y-4889
M16
G05
G00X5803Y-4928
M15
G01X5771Y-4928
M16
G05
G00X5803Y-4967
M15
G01X5771Y-4967
M16
G05
G00X5803Y-5007
M15
G01X5771Y-5007
M16
G05
G00X5803Y-5046
M15
G01X5771Y-5046
M16
G05
G00X5803Y-5085
M15
G01X5771Y-5085
M16
G05
G00X5803Y-5125
M15
G01X5771Y-5125
M16
G05
T3
G00X2195Y-3030
M15
G01X2195Y-3065
M16
G05
G00X2195Y-5596
M15
G01X2195Y-5632
M16
G05
G00X2529Y-3077
M15
G01X2529Y-3112
M16
G05
G00X2529Y-5549
M15
G01X2529Y-5585
M16
G05
G00X3245Y-3030
M15
G01X3245Y-3065
M16
G05
G00X3245Y-5596
M15
G01X3245Y-5632
M16
G05
G00X3579Y-3077
M15
G01X3579Y-3112
M16
G05
G00X3579Y-5549
M15
G01X3579Y-5585
M16
G05
G00X4295Y-3030
M15
G01X4295Y-3065
M16
G05
G00X4295Y-5596
M15
G01X4295Y-5632
M16
G05
G00X4629Y-3077
M15
G01X4629Y-3112
M16
G05
G00X4629Y-5549
M15
G01X4629Y-5585
M16
G05
G00X5345Y-3030
M15
G01X5345Y-3065
M16
G05
G00X5345Y-5596
M15
G01X5345Y-5632
M16
G05
G00X5679Y-3077
M15
G01X5679Y-3112
M16
G05
G00X5679Y-5549
M15
G01X5679Y-5585
M16
G05
T0
M30
