G04 #@! TF.GenerationSoftware,KiCad,Pcbnew,5.1.9+dfsg1-1*
G04 #@! TF.CreationDate,2021-10-27T13:30:11+02:00*
G04 #@! TF.ProjectId,EF44,45463434-2e6b-4696-9361-645f70636258,rev?*
G04 #@! TF.SameCoordinates,Original*
G04 #@! TF.FileFunction,Soldermask,Top*
G04 #@! TF.FilePolarity,Negative*
%FSLAX46Y46*%
G04 Gerber Fmt 4.6, Leading zero omitted, Abs format (unit mm)*
G04 Created by KiCad (PCBNEW 5.1.9+dfsg1-1) date 2021-10-27 13:30:11*
%MOMM*%
%LPD*%
G01*
G04 APERTURE LIST*
%ADD10O,2.000000X3.000000*%
%ADD11O,1.000000X1.000000*%
%ADD12R,1.000000X1.000000*%
%ADD13C,0.100000*%
%ADD14R,1.450000X1.450000*%
%ADD15C,0.650000*%
%ADD16O,0.800000X2.000000*%
%ADD17O,0.800000X1.900000*%
%ADD18R,2.500000X2.500000*%
%ADD19R,1.700000X1.200000*%
%ADD20R,0.700000X1.400000*%
%ADD21O,2.000000X0.800000*%
%ADD22O,1.500000X2.000000*%
%ADD23O,3.200000X2.800000*%
G04 APERTURE END LIST*
G36*
G01*
X108585000Y-143000000D02*
X108585000Y-142200000D01*
G75*
G02*
X109585000Y-141200000I1000000J0D01*
G01*
X109585000Y-141200000D01*
G75*
G02*
X110585000Y-142200000I0J-1000000D01*
G01*
X110585000Y-143000000D01*
G75*
G02*
X109585000Y-144000000I-1000000J0D01*
G01*
X109585000Y-144000000D01*
G75*
G02*
X108585000Y-143000000I0J1000000D01*
G01*
G37*
G36*
G01*
X116085000Y-141800000D02*
X116085000Y-141000000D01*
G75*
G02*
X117085000Y-140000000I1000000J0D01*
G01*
X117085000Y-140000000D01*
G75*
G02*
X118085000Y-141000000I0J-1000000D01*
G01*
X118085000Y-141800000D01*
G75*
G02*
X117085000Y-142800000I-1000000J0D01*
G01*
X117085000Y-142800000D01*
G75*
G02*
X116085000Y-141800000I0J1000000D01*
G01*
G37*
G36*
G01*
X108585000Y-77800000D02*
X108585000Y-77000000D01*
G75*
G02*
X109585000Y-76000000I1000000J0D01*
G01*
X109585000Y-76000000D01*
G75*
G02*
X110585000Y-77000000I0J-1000000D01*
G01*
X110585000Y-77800000D01*
G75*
G02*
X109585000Y-78800000I-1000000J0D01*
G01*
X109585000Y-78800000D01*
G75*
G02*
X108585000Y-77800000I0J1000000D01*
G01*
G37*
G36*
G01*
X116085000Y-79000000D02*
X116085000Y-78200000D01*
G75*
G02*
X117085000Y-77200000I1000000J0D01*
G01*
X117085000Y-77200000D01*
G75*
G02*
X118085000Y-78200000I0J-1000000D01*
G01*
X118085000Y-79000000D01*
G75*
G02*
X117085000Y-80000000I-1000000J0D01*
G01*
X117085000Y-80000000D01*
G75*
G02*
X116085000Y-79000000I0J1000000D01*
G01*
G37*
D10*
X115085000Y-146400000D03*
X111585000Y-73600000D03*
X115085000Y-73600000D03*
G36*
G01*
X135255000Y-143000000D02*
X135255000Y-142200000D01*
G75*
G02*
X136255000Y-141200000I1000000J0D01*
G01*
X136255000Y-141200000D01*
G75*
G02*
X137255000Y-142200000I0J-1000000D01*
G01*
X137255000Y-143000000D01*
G75*
G02*
X136255000Y-144000000I-1000000J0D01*
G01*
X136255000Y-144000000D01*
G75*
G02*
X135255000Y-143000000I0J1000000D01*
G01*
G37*
G36*
G01*
X142755000Y-141800000D02*
X142755000Y-141000000D01*
G75*
G02*
X143755000Y-140000000I1000000J0D01*
G01*
X143755000Y-140000000D01*
G75*
G02*
X144755000Y-141000000I0J-1000000D01*
G01*
X144755000Y-141800000D01*
G75*
G02*
X143755000Y-142800000I-1000000J0D01*
G01*
X143755000Y-142800000D01*
G75*
G02*
X142755000Y-141800000I0J1000000D01*
G01*
G37*
G36*
G01*
X135255000Y-77800000D02*
X135255000Y-77000000D01*
G75*
G02*
X136255000Y-76000000I1000000J0D01*
G01*
X136255000Y-76000000D01*
G75*
G02*
X137255000Y-77000000I0J-1000000D01*
G01*
X137255000Y-77800000D01*
G75*
G02*
X136255000Y-78800000I-1000000J0D01*
G01*
X136255000Y-78800000D01*
G75*
G02*
X135255000Y-77800000I0J1000000D01*
G01*
G37*
G36*
G01*
X142755000Y-79000000D02*
X142755000Y-78200000D01*
G75*
G02*
X143755000Y-77200000I1000000J0D01*
G01*
X143755000Y-77200000D01*
G75*
G02*
X144755000Y-78200000I0J-1000000D01*
G01*
X144755000Y-79000000D01*
G75*
G02*
X143755000Y-80000000I-1000000J0D01*
G01*
X143755000Y-80000000D01*
G75*
G02*
X142755000Y-79000000I0J1000000D01*
G01*
G37*
X141755000Y-146400000D03*
X138255000Y-73600000D03*
X141755000Y-73600000D03*
G36*
G01*
X81915000Y-143000000D02*
X81915000Y-142200000D01*
G75*
G02*
X82915000Y-141200000I1000000J0D01*
G01*
X82915000Y-141200000D01*
G75*
G02*
X83915000Y-142200000I0J-1000000D01*
G01*
X83915000Y-143000000D01*
G75*
G02*
X82915000Y-144000000I-1000000J0D01*
G01*
X82915000Y-144000000D01*
G75*
G02*
X81915000Y-143000000I0J1000000D01*
G01*
G37*
G36*
G01*
X89415000Y-141800000D02*
X89415000Y-141000000D01*
G75*
G02*
X90415000Y-140000000I1000000J0D01*
G01*
X90415000Y-140000000D01*
G75*
G02*
X91415000Y-141000000I0J-1000000D01*
G01*
X91415000Y-141800000D01*
G75*
G02*
X90415000Y-142800000I-1000000J0D01*
G01*
X90415000Y-142800000D01*
G75*
G02*
X89415000Y-141800000I0J1000000D01*
G01*
G37*
G36*
G01*
X81915000Y-77800000D02*
X81915000Y-77000000D01*
G75*
G02*
X82915000Y-76000000I1000000J0D01*
G01*
X82915000Y-76000000D01*
G75*
G02*
X83915000Y-77000000I0J-1000000D01*
G01*
X83915000Y-77800000D01*
G75*
G02*
X82915000Y-78800000I-1000000J0D01*
G01*
X82915000Y-78800000D01*
G75*
G02*
X81915000Y-77800000I0J1000000D01*
G01*
G37*
G36*
G01*
X89415000Y-79000000D02*
X89415000Y-78200000D01*
G75*
G02*
X90415000Y-77200000I1000000J0D01*
G01*
X90415000Y-77200000D01*
G75*
G02*
X91415000Y-78200000I0J-1000000D01*
G01*
X91415000Y-79000000D01*
G75*
G02*
X90415000Y-80000000I-1000000J0D01*
G01*
X90415000Y-80000000D01*
G75*
G02*
X89415000Y-79000000I0J1000000D01*
G01*
G37*
X88415000Y-146400000D03*
X84915000Y-73600000D03*
X88415000Y-73600000D03*
G36*
G01*
X55245000Y-143000000D02*
X55245000Y-142200000D01*
G75*
G02*
X56245000Y-141200000I1000000J0D01*
G01*
X56245000Y-141200000D01*
G75*
G02*
X57245000Y-142200000I0J-1000000D01*
G01*
X57245000Y-143000000D01*
G75*
G02*
X56245000Y-144000000I-1000000J0D01*
G01*
X56245000Y-144000000D01*
G75*
G02*
X55245000Y-143000000I0J1000000D01*
G01*
G37*
G36*
G01*
X62745000Y-141800000D02*
X62745000Y-141000000D01*
G75*
G02*
X63745000Y-140000000I1000000J0D01*
G01*
X63745000Y-140000000D01*
G75*
G02*
X64745000Y-141000000I0J-1000000D01*
G01*
X64745000Y-141800000D01*
G75*
G02*
X63745000Y-142800000I-1000000J0D01*
G01*
X63745000Y-142800000D01*
G75*
G02*
X62745000Y-141800000I0J1000000D01*
G01*
G37*
G36*
G01*
X55245000Y-77800000D02*
X55245000Y-77000000D01*
G75*
G02*
X56245000Y-76000000I1000000J0D01*
G01*
X56245000Y-76000000D01*
G75*
G02*
X57245000Y-77000000I0J-1000000D01*
G01*
X57245000Y-77800000D01*
G75*
G02*
X56245000Y-78800000I-1000000J0D01*
G01*
X56245000Y-78800000D01*
G75*
G02*
X55245000Y-77800000I0J1000000D01*
G01*
G37*
G36*
G01*
X62745000Y-79000000D02*
X62745000Y-78200000D01*
G75*
G02*
X63745000Y-77200000I1000000J0D01*
G01*
X63745000Y-77200000D01*
G75*
G02*
X64745000Y-78200000I0J-1000000D01*
G01*
X64745000Y-79000000D01*
G75*
G02*
X63745000Y-80000000I-1000000J0D01*
G01*
X63745000Y-80000000D01*
G75*
G02*
X62745000Y-79000000I0J1000000D01*
G01*
G37*
X61745000Y-146400000D03*
X58245000Y-73600000D03*
X61745000Y-73600000D03*
D11*
X97460000Y-85870000D03*
X97460000Y-84600000D03*
X98730000Y-85870000D03*
X98730000Y-84600000D03*
X100000000Y-85870000D03*
X100000000Y-84600000D03*
X101270000Y-85870000D03*
X101270000Y-84600000D03*
X102540000Y-85870000D03*
D12*
X102540000Y-84600000D03*
D13*
G36*
X95000000Y-123225000D02*
G01*
X95750000Y-123725000D01*
X95750000Y-124725000D01*
X94250000Y-124725000D01*
X94250000Y-123725000D01*
X95000000Y-123225000D01*
G37*
G36*
X95750000Y-122275000D02*
G01*
X95750000Y-123425000D01*
X95000000Y-122925000D01*
X94250000Y-123425000D01*
X94250000Y-122275000D01*
X95750000Y-122275000D01*
G37*
D14*
X100000000Y-62500000D03*
G36*
G01*
X99125000Y-61512500D02*
X99125000Y-60962500D01*
G75*
G02*
X99187500Y-60900000I62500J0D01*
G01*
X99312500Y-60900000D01*
G75*
G02*
X99375000Y-60962500I0J-62500D01*
G01*
X99375000Y-61512500D01*
G75*
G02*
X99312500Y-61575000I-62500J0D01*
G01*
X99187500Y-61575000D01*
G75*
G02*
X99125000Y-61512500I0J62500D01*
G01*
G37*
G36*
G01*
X99625000Y-61512500D02*
X99625000Y-60962500D01*
G75*
G02*
X99687500Y-60900000I62500J0D01*
G01*
X99812500Y-60900000D01*
G75*
G02*
X99875000Y-60962500I0J-62500D01*
G01*
X99875000Y-61512500D01*
G75*
G02*
X99812500Y-61575000I-62500J0D01*
G01*
X99687500Y-61575000D01*
G75*
G02*
X99625000Y-61512500I0J62500D01*
G01*
G37*
G36*
G01*
X100125000Y-61512500D02*
X100125000Y-60962500D01*
G75*
G02*
X100187500Y-60900000I62500J0D01*
G01*
X100312500Y-60900000D01*
G75*
G02*
X100375000Y-60962500I0J-62500D01*
G01*
X100375000Y-61512500D01*
G75*
G02*
X100312500Y-61575000I-62500J0D01*
G01*
X100187500Y-61575000D01*
G75*
G02*
X100125000Y-61512500I0J62500D01*
G01*
G37*
G36*
G01*
X100625000Y-61512500D02*
X100625000Y-60962500D01*
G75*
G02*
X100687500Y-60900000I62500J0D01*
G01*
X100812500Y-60900000D01*
G75*
G02*
X100875000Y-60962500I0J-62500D01*
G01*
X100875000Y-61512500D01*
G75*
G02*
X100812500Y-61575000I-62500J0D01*
G01*
X100687500Y-61575000D01*
G75*
G02*
X100625000Y-61512500I0J62500D01*
G01*
G37*
G36*
G01*
X100925000Y-62062500D02*
X100925000Y-61937500D01*
G75*
G02*
X100987500Y-61875000I62500J0D01*
G01*
X101537500Y-61875000D01*
G75*
G02*
X101600000Y-61937500I0J-62500D01*
G01*
X101600000Y-62062500D01*
G75*
G02*
X101537500Y-62125000I-62500J0D01*
G01*
X100987500Y-62125000D01*
G75*
G02*
X100925000Y-62062500I0J62500D01*
G01*
G37*
G36*
G01*
X100925000Y-62562500D02*
X100925000Y-62437500D01*
G75*
G02*
X100987500Y-62375000I62500J0D01*
G01*
X101537500Y-62375000D01*
G75*
G02*
X101600000Y-62437500I0J-62500D01*
G01*
X101600000Y-62562500D01*
G75*
G02*
X101537500Y-62625000I-62500J0D01*
G01*
X100987500Y-62625000D01*
G75*
G02*
X100925000Y-62562500I0J62500D01*
G01*
G37*
G36*
G01*
X100925000Y-63062500D02*
X100925000Y-62937500D01*
G75*
G02*
X100987500Y-62875000I62500J0D01*
G01*
X101537500Y-62875000D01*
G75*
G02*
X101600000Y-62937500I0J-62500D01*
G01*
X101600000Y-63062500D01*
G75*
G02*
X101537500Y-63125000I-62500J0D01*
G01*
X100987500Y-63125000D01*
G75*
G02*
X100925000Y-63062500I0J62500D01*
G01*
G37*
G36*
G01*
X100625000Y-64037500D02*
X100625000Y-63487500D01*
G75*
G02*
X100687500Y-63425000I62500J0D01*
G01*
X100812500Y-63425000D01*
G75*
G02*
X100875000Y-63487500I0J-62500D01*
G01*
X100875000Y-64037500D01*
G75*
G02*
X100812500Y-64100000I-62500J0D01*
G01*
X100687500Y-64100000D01*
G75*
G02*
X100625000Y-64037500I0J62500D01*
G01*
G37*
G36*
G01*
X100125000Y-64037500D02*
X100125000Y-63487500D01*
G75*
G02*
X100187500Y-63425000I62500J0D01*
G01*
X100312500Y-63425000D01*
G75*
G02*
X100375000Y-63487500I0J-62500D01*
G01*
X100375000Y-64037500D01*
G75*
G02*
X100312500Y-64100000I-62500J0D01*
G01*
X100187500Y-64100000D01*
G75*
G02*
X100125000Y-64037500I0J62500D01*
G01*
G37*
G36*
G01*
X99625000Y-64037500D02*
X99625000Y-63487500D01*
G75*
G02*
X99687500Y-63425000I62500J0D01*
G01*
X99812500Y-63425000D01*
G75*
G02*
X99875000Y-63487500I0J-62500D01*
G01*
X99875000Y-64037500D01*
G75*
G02*
X99812500Y-64100000I-62500J0D01*
G01*
X99687500Y-64100000D01*
G75*
G02*
X99625000Y-64037500I0J62500D01*
G01*
G37*
G36*
G01*
X99125000Y-64037500D02*
X99125000Y-63487500D01*
G75*
G02*
X99187500Y-63425000I62500J0D01*
G01*
X99312500Y-63425000D01*
G75*
G02*
X99375000Y-63487500I0J-62500D01*
G01*
X99375000Y-64037500D01*
G75*
G02*
X99312500Y-64100000I-62500J0D01*
G01*
X99187500Y-64100000D01*
G75*
G02*
X99125000Y-64037500I0J62500D01*
G01*
G37*
G36*
G01*
X98400000Y-63062500D02*
X98400000Y-62937500D01*
G75*
G02*
X98462500Y-62875000I62500J0D01*
G01*
X99012500Y-62875000D01*
G75*
G02*
X99075000Y-62937500I0J-62500D01*
G01*
X99075000Y-63062500D01*
G75*
G02*
X99012500Y-63125000I-62500J0D01*
G01*
X98462500Y-63125000D01*
G75*
G02*
X98400000Y-63062500I0J62500D01*
G01*
G37*
G36*
G01*
X98400000Y-62562500D02*
X98400000Y-62437500D01*
G75*
G02*
X98462500Y-62375000I62500J0D01*
G01*
X99012500Y-62375000D01*
G75*
G02*
X99075000Y-62437500I0J-62500D01*
G01*
X99075000Y-62562500D01*
G75*
G02*
X99012500Y-62625000I-62500J0D01*
G01*
X98462500Y-62625000D01*
G75*
G02*
X98400000Y-62562500I0J62500D01*
G01*
G37*
G36*
G01*
X98400000Y-62062500D02*
X98400000Y-61937500D01*
G75*
G02*
X98462500Y-61875000I62500J0D01*
G01*
X99012500Y-61875000D01*
G75*
G02*
X99075000Y-61937500I0J-62500D01*
G01*
X99075000Y-62062500D01*
G75*
G02*
X99012500Y-62125000I-62500J0D01*
G01*
X98462500Y-62125000D01*
G75*
G02*
X98400000Y-62062500I0J62500D01*
G01*
G37*
G36*
G01*
X96543750Y-63450000D02*
X97456250Y-63450000D01*
G75*
G02*
X97700000Y-63693750I0J-243750D01*
G01*
X97700000Y-64181250D01*
G75*
G02*
X97456250Y-64425000I-243750J0D01*
G01*
X96543750Y-64425000D01*
G75*
G02*
X96300000Y-64181250I0J243750D01*
G01*
X96300000Y-63693750D01*
G75*
G02*
X96543750Y-63450000I243750J0D01*
G01*
G37*
G36*
G01*
X96543750Y-61575000D02*
X97456250Y-61575000D01*
G75*
G02*
X97700000Y-61818750I0J-243750D01*
G01*
X97700000Y-62306250D01*
G75*
G02*
X97456250Y-62550000I-243750J0D01*
G01*
X96543750Y-62550000D01*
G75*
G02*
X96300000Y-62306250I0J243750D01*
G01*
X96300000Y-61818750D01*
G75*
G02*
X96543750Y-61575000I243750J0D01*
G01*
G37*
G36*
G01*
X102543750Y-63450000D02*
X103456250Y-63450000D01*
G75*
G02*
X103700000Y-63693750I0J-243750D01*
G01*
X103700000Y-64181250D01*
G75*
G02*
X103456250Y-64425000I-243750J0D01*
G01*
X102543750Y-64425000D01*
G75*
G02*
X102300000Y-64181250I0J243750D01*
G01*
X102300000Y-63693750D01*
G75*
G02*
X102543750Y-63450000I243750J0D01*
G01*
G37*
G36*
G01*
X102543750Y-61575000D02*
X103456250Y-61575000D01*
G75*
G02*
X103700000Y-61818750I0J-243750D01*
G01*
X103700000Y-62306250D01*
G75*
G02*
X103456250Y-62550000I-243750J0D01*
G01*
X102543750Y-62550000D01*
G75*
G02*
X102300000Y-62306250I0J243750D01*
G01*
X102300000Y-61818750D01*
G75*
G02*
X102543750Y-61575000I243750J0D01*
G01*
G37*
D15*
X97110000Y-54650000D03*
X102890000Y-54650000D03*
D16*
X104320000Y-51250000D03*
X95680000Y-51250000D03*
D17*
X95680000Y-55180000D03*
G36*
G01*
X97850000Y-55520000D02*
X97850000Y-56670000D01*
G75*
G02*
X97700000Y-56820000I-150000J0D01*
G01*
X97400000Y-56820000D01*
G75*
G02*
X97250000Y-56670000I0J150000D01*
G01*
X97250000Y-55520000D01*
G75*
G02*
X97400000Y-55370000I150000J0D01*
G01*
X97700000Y-55370000D01*
G75*
G02*
X97850000Y-55520000I0J-150000D01*
G01*
G37*
G36*
G01*
X99400000Y-55520000D02*
X99400000Y-56670000D01*
G75*
G02*
X99250000Y-56820000I-150000J0D01*
G01*
X99250000Y-56820000D01*
G75*
G02*
X99100000Y-56670000I0J150000D01*
G01*
X99100000Y-55520000D01*
G75*
G02*
X99250000Y-55370000I150000J0D01*
G01*
X99250000Y-55370000D01*
G75*
G02*
X99400000Y-55520000I0J-150000D01*
G01*
G37*
G36*
G01*
X98900000Y-55520000D02*
X98900000Y-56670000D01*
G75*
G02*
X98750000Y-56820000I-150000J0D01*
G01*
X98750000Y-56820000D01*
G75*
G02*
X98600000Y-56670000I0J150000D01*
G01*
X98600000Y-55520000D01*
G75*
G02*
X98750000Y-55370000I150000J0D01*
G01*
X98750000Y-55370000D01*
G75*
G02*
X98900000Y-55520000I0J-150000D01*
G01*
G37*
G36*
G01*
X98400000Y-55520000D02*
X98400000Y-56670000D01*
G75*
G02*
X98250000Y-56820000I-150000J0D01*
G01*
X98250000Y-56820000D01*
G75*
G02*
X98100000Y-56670000I0J150000D01*
G01*
X98100000Y-55520000D01*
G75*
G02*
X98250000Y-55370000I150000J0D01*
G01*
X98250000Y-55370000D01*
G75*
G02*
X98400000Y-55520000I0J-150000D01*
G01*
G37*
G36*
G01*
X97050000Y-55520000D02*
X97050000Y-56670000D01*
G75*
G02*
X96900000Y-56820000I-150000J0D01*
G01*
X96600000Y-56820000D01*
G75*
G02*
X96450000Y-56670000I0J150000D01*
G01*
X96450000Y-55520000D01*
G75*
G02*
X96600000Y-55370000I150000J0D01*
G01*
X96900000Y-55370000D01*
G75*
G02*
X97050000Y-55520000I0J-150000D01*
G01*
G37*
G36*
G01*
X99900000Y-55520000D02*
X99900000Y-56670000D01*
G75*
G02*
X99750000Y-56820000I-150000J0D01*
G01*
X99750000Y-56820000D01*
G75*
G02*
X99600000Y-56670000I0J150000D01*
G01*
X99600000Y-55520000D01*
G75*
G02*
X99750000Y-55370000I150000J0D01*
G01*
X99750000Y-55370000D01*
G75*
G02*
X99900000Y-55520000I0J-150000D01*
G01*
G37*
G36*
G01*
X100400000Y-55520000D02*
X100400000Y-56670000D01*
G75*
G02*
X100250000Y-56820000I-150000J0D01*
G01*
X100250000Y-56820000D01*
G75*
G02*
X100100000Y-56670000I0J150000D01*
G01*
X100100000Y-55520000D01*
G75*
G02*
X100250000Y-55370000I150000J0D01*
G01*
X100250000Y-55370000D01*
G75*
G02*
X100400000Y-55520000I0J-150000D01*
G01*
G37*
G36*
G01*
X100900000Y-55520000D02*
X100900000Y-56670000D01*
G75*
G02*
X100750000Y-56820000I-150000J0D01*
G01*
X100750000Y-56820000D01*
G75*
G02*
X100600000Y-56670000I0J150000D01*
G01*
X100600000Y-55520000D01*
G75*
G02*
X100750000Y-55370000I150000J0D01*
G01*
X100750000Y-55370000D01*
G75*
G02*
X100900000Y-55520000I0J-150000D01*
G01*
G37*
G36*
G01*
X101400000Y-55520000D02*
X101400000Y-56670000D01*
G75*
G02*
X101250000Y-56820000I-150000J0D01*
G01*
X101250000Y-56820000D01*
G75*
G02*
X101100000Y-56670000I0J150000D01*
G01*
X101100000Y-55520000D01*
G75*
G02*
X101250000Y-55370000I150000J0D01*
G01*
X101250000Y-55370000D01*
G75*
G02*
X101400000Y-55520000I0J-150000D01*
G01*
G37*
G36*
G01*
X101900000Y-55520000D02*
X101900000Y-56670000D01*
G75*
G02*
X101750000Y-56820000I-150000J0D01*
G01*
X101750000Y-56820000D01*
G75*
G02*
X101600000Y-56670000I0J150000D01*
G01*
X101600000Y-55520000D01*
G75*
G02*
X101750000Y-55370000I150000J0D01*
G01*
X101750000Y-55370000D01*
G75*
G02*
X101900000Y-55520000I0J-150000D01*
G01*
G37*
G36*
G01*
X102750000Y-55520000D02*
X102750000Y-56670000D01*
G75*
G02*
X102600000Y-56820000I-150000J0D01*
G01*
X102300000Y-56820000D01*
G75*
G02*
X102150000Y-56670000I0J150000D01*
G01*
X102150000Y-55520000D01*
G75*
G02*
X102300000Y-55370000I150000J0D01*
G01*
X102600000Y-55370000D01*
G75*
G02*
X102750000Y-55520000I0J-150000D01*
G01*
G37*
G36*
G01*
X103550000Y-55520000D02*
X103550000Y-56670000D01*
G75*
G02*
X103400000Y-56820000I-150000J0D01*
G01*
X103100000Y-56820000D01*
G75*
G02*
X102950000Y-56670000I0J150000D01*
G01*
X102950000Y-55520000D01*
G75*
G02*
X103100000Y-55370000I150000J0D01*
G01*
X103400000Y-55370000D01*
G75*
G02*
X103550000Y-55520000I0J-150000D01*
G01*
G37*
X104320000Y-55180000D03*
G36*
G01*
X138505000Y-53150000D02*
X138505000Y-52700000D01*
G75*
G02*
X138730000Y-52475000I225000J0D01*
G01*
X139480000Y-52475000D01*
G75*
G02*
X139705000Y-52700000I0J-225000D01*
G01*
X139705000Y-53150000D01*
G75*
G02*
X139480000Y-53375000I-225000J0D01*
G01*
X138730000Y-53375000D01*
G75*
G02*
X138505000Y-53150000I0J225000D01*
G01*
G37*
G36*
G01*
X140305000Y-53150000D02*
X140305000Y-52700000D01*
G75*
G02*
X140530000Y-52475000I225000J0D01*
G01*
X141280000Y-52475000D01*
G75*
G02*
X141505000Y-52700000I0J-225000D01*
G01*
X141505000Y-53150000D01*
G75*
G02*
X141280000Y-53375000I-225000J0D01*
G01*
X140530000Y-53375000D01*
G75*
G02*
X140305000Y-53150000I0J225000D01*
G01*
G37*
G36*
G01*
X140305000Y-52050000D02*
X140305000Y-51600000D01*
G75*
G02*
X140530000Y-51375000I225000J0D01*
G01*
X141280000Y-51375000D01*
G75*
G02*
X141505000Y-51600000I0J-225000D01*
G01*
X141505000Y-52050000D01*
G75*
G02*
X141280000Y-52275000I-225000J0D01*
G01*
X140530000Y-52275000D01*
G75*
G02*
X140305000Y-52050000I0J225000D01*
G01*
G37*
G36*
G01*
X138505000Y-52050000D02*
X138505000Y-51600000D01*
G75*
G02*
X138730000Y-51375000I225000J0D01*
G01*
X139480000Y-51375000D01*
G75*
G02*
X139705000Y-51600000I0J-225000D01*
G01*
X139705000Y-52050000D01*
G75*
G02*
X139480000Y-52275000I-225000J0D01*
G01*
X138730000Y-52275000D01*
G75*
G02*
X138505000Y-52050000I0J225000D01*
G01*
G37*
D18*
X67830000Y-53510000D03*
X78830000Y-53510000D03*
D16*
X76830000Y-53010000D03*
X75830000Y-53010000D03*
X74830000Y-53010000D03*
X73830000Y-53010000D03*
X72830000Y-53010000D03*
X71830000Y-53010000D03*
X70830000Y-53010000D03*
X69830000Y-53010000D03*
G36*
G01*
X85165000Y-71320000D02*
X85165000Y-70870000D01*
G75*
G02*
X85390000Y-70645000I225000J0D01*
G01*
X86140000Y-70645000D01*
G75*
G02*
X86365000Y-70870000I0J-225000D01*
G01*
X86365000Y-71320000D01*
G75*
G02*
X86140000Y-71545000I-225000J0D01*
G01*
X85390000Y-71545000D01*
G75*
G02*
X85165000Y-71320000I0J225000D01*
G01*
G37*
G36*
G01*
X86965000Y-71320000D02*
X86965000Y-70870000D01*
G75*
G02*
X87190000Y-70645000I225000J0D01*
G01*
X87940000Y-70645000D01*
G75*
G02*
X88165000Y-70870000I0J-225000D01*
G01*
X88165000Y-71320000D01*
G75*
G02*
X87940000Y-71545000I-225000J0D01*
G01*
X87190000Y-71545000D01*
G75*
G02*
X86965000Y-71320000I0J225000D01*
G01*
G37*
G36*
G01*
X86965000Y-70220000D02*
X86965000Y-69770000D01*
G75*
G02*
X87190000Y-69545000I225000J0D01*
G01*
X87940000Y-69545000D01*
G75*
G02*
X88165000Y-69770000I0J-225000D01*
G01*
X88165000Y-70220000D01*
G75*
G02*
X87940000Y-70445000I-225000J0D01*
G01*
X87190000Y-70445000D01*
G75*
G02*
X86965000Y-70220000I0J225000D01*
G01*
G37*
G36*
G01*
X85165000Y-70220000D02*
X85165000Y-69770000D01*
G75*
G02*
X85390000Y-69545000I225000J0D01*
G01*
X86140000Y-69545000D01*
G75*
G02*
X86365000Y-69770000I0J-225000D01*
G01*
X86365000Y-70220000D01*
G75*
G02*
X86140000Y-70445000I-225000J0D01*
G01*
X85390000Y-70445000D01*
G75*
G02*
X85165000Y-70220000I0J225000D01*
G01*
G37*
G36*
G01*
X98100000Y-147800000D02*
X97600000Y-147800000D01*
G75*
G02*
X97350000Y-147550000I0J250000D01*
G01*
X97350000Y-146250000D01*
G75*
G02*
X97600000Y-146000000I250000J0D01*
G01*
X98100000Y-146000000D01*
G75*
G02*
X98350000Y-146250000I0J-250000D01*
G01*
X98350000Y-147550000D01*
G75*
G02*
X98100000Y-147800000I-250000J0D01*
G01*
G37*
G36*
G01*
X102400000Y-147800000D02*
X101900000Y-147800000D01*
G75*
G02*
X101650000Y-147550000I0J250000D01*
G01*
X101650000Y-146250000D01*
G75*
G02*
X101900000Y-146000000I250000J0D01*
G01*
X102400000Y-146000000D01*
G75*
G02*
X102650000Y-146250000I0J-250000D01*
G01*
X102650000Y-147550000D01*
G75*
G02*
X102400000Y-147800000I-250000J0D01*
G01*
G37*
D19*
X100000000Y-144800000D03*
D20*
X98300000Y-145100000D03*
X101700000Y-145100000D03*
G36*
G01*
X93850000Y-93000000D02*
X93850000Y-91675000D01*
G75*
G02*
X93925000Y-91600000I75000J0D01*
G01*
X94075000Y-91600000D01*
G75*
G02*
X94150000Y-91675000I0J-75000D01*
G01*
X94150000Y-93000000D01*
G75*
G02*
X94075000Y-93075000I-75000J0D01*
G01*
X93925000Y-93075000D01*
G75*
G02*
X93850000Y-93000000I0J75000D01*
G01*
G37*
G36*
G01*
X94350000Y-93000000D02*
X94350000Y-91675000D01*
G75*
G02*
X94425000Y-91600000I75000J0D01*
G01*
X94575000Y-91600000D01*
G75*
G02*
X94650000Y-91675000I0J-75000D01*
G01*
X94650000Y-93000000D01*
G75*
G02*
X94575000Y-93075000I-75000J0D01*
G01*
X94425000Y-93075000D01*
G75*
G02*
X94350000Y-93000000I0J75000D01*
G01*
G37*
G36*
G01*
X94850000Y-93000000D02*
X94850000Y-91675000D01*
G75*
G02*
X94925000Y-91600000I75000J0D01*
G01*
X95075000Y-91600000D01*
G75*
G02*
X95150000Y-91675000I0J-75000D01*
G01*
X95150000Y-93000000D01*
G75*
G02*
X95075000Y-93075000I-75000J0D01*
G01*
X94925000Y-93075000D01*
G75*
G02*
X94850000Y-93000000I0J75000D01*
G01*
G37*
G36*
G01*
X95350000Y-93000000D02*
X95350000Y-91675000D01*
G75*
G02*
X95425000Y-91600000I75000J0D01*
G01*
X95575000Y-91600000D01*
G75*
G02*
X95650000Y-91675000I0J-75000D01*
G01*
X95650000Y-93000000D01*
G75*
G02*
X95575000Y-93075000I-75000J0D01*
G01*
X95425000Y-93075000D01*
G75*
G02*
X95350000Y-93000000I0J75000D01*
G01*
G37*
G36*
G01*
X95850000Y-93000000D02*
X95850000Y-91675000D01*
G75*
G02*
X95925000Y-91600000I75000J0D01*
G01*
X96075000Y-91600000D01*
G75*
G02*
X96150000Y-91675000I0J-75000D01*
G01*
X96150000Y-93000000D01*
G75*
G02*
X96075000Y-93075000I-75000J0D01*
G01*
X95925000Y-93075000D01*
G75*
G02*
X95850000Y-93000000I0J75000D01*
G01*
G37*
G36*
G01*
X96350000Y-93000000D02*
X96350000Y-91675000D01*
G75*
G02*
X96425000Y-91600000I75000J0D01*
G01*
X96575000Y-91600000D01*
G75*
G02*
X96650000Y-91675000I0J-75000D01*
G01*
X96650000Y-93000000D01*
G75*
G02*
X96575000Y-93075000I-75000J0D01*
G01*
X96425000Y-93075000D01*
G75*
G02*
X96350000Y-93000000I0J75000D01*
G01*
G37*
G36*
G01*
X96850000Y-93000000D02*
X96850000Y-91675000D01*
G75*
G02*
X96925000Y-91600000I75000J0D01*
G01*
X97075000Y-91600000D01*
G75*
G02*
X97150000Y-91675000I0J-75000D01*
G01*
X97150000Y-93000000D01*
G75*
G02*
X97075000Y-93075000I-75000J0D01*
G01*
X96925000Y-93075000D01*
G75*
G02*
X96850000Y-93000000I0J75000D01*
G01*
G37*
G36*
G01*
X97350000Y-93000000D02*
X97350000Y-91675000D01*
G75*
G02*
X97425000Y-91600000I75000J0D01*
G01*
X97575000Y-91600000D01*
G75*
G02*
X97650000Y-91675000I0J-75000D01*
G01*
X97650000Y-93000000D01*
G75*
G02*
X97575000Y-93075000I-75000J0D01*
G01*
X97425000Y-93075000D01*
G75*
G02*
X97350000Y-93000000I0J75000D01*
G01*
G37*
G36*
G01*
X97850000Y-93000000D02*
X97850000Y-91675000D01*
G75*
G02*
X97925000Y-91600000I75000J0D01*
G01*
X98075000Y-91600000D01*
G75*
G02*
X98150000Y-91675000I0J-75000D01*
G01*
X98150000Y-93000000D01*
G75*
G02*
X98075000Y-93075000I-75000J0D01*
G01*
X97925000Y-93075000D01*
G75*
G02*
X97850000Y-93000000I0J75000D01*
G01*
G37*
G36*
G01*
X98350000Y-93000000D02*
X98350000Y-91675000D01*
G75*
G02*
X98425000Y-91600000I75000J0D01*
G01*
X98575000Y-91600000D01*
G75*
G02*
X98650000Y-91675000I0J-75000D01*
G01*
X98650000Y-93000000D01*
G75*
G02*
X98575000Y-93075000I-75000J0D01*
G01*
X98425000Y-93075000D01*
G75*
G02*
X98350000Y-93000000I0J75000D01*
G01*
G37*
G36*
G01*
X98850000Y-93000000D02*
X98850000Y-91675000D01*
G75*
G02*
X98925000Y-91600000I75000J0D01*
G01*
X99075000Y-91600000D01*
G75*
G02*
X99150000Y-91675000I0J-75000D01*
G01*
X99150000Y-93000000D01*
G75*
G02*
X99075000Y-93075000I-75000J0D01*
G01*
X98925000Y-93075000D01*
G75*
G02*
X98850000Y-93000000I0J75000D01*
G01*
G37*
G36*
G01*
X99350000Y-93000000D02*
X99350000Y-91675000D01*
G75*
G02*
X99425000Y-91600000I75000J0D01*
G01*
X99575000Y-91600000D01*
G75*
G02*
X99650000Y-91675000I0J-75000D01*
G01*
X99650000Y-93000000D01*
G75*
G02*
X99575000Y-93075000I-75000J0D01*
G01*
X99425000Y-93075000D01*
G75*
G02*
X99350000Y-93000000I0J75000D01*
G01*
G37*
G36*
G01*
X99850000Y-93000000D02*
X99850000Y-91675000D01*
G75*
G02*
X99925000Y-91600000I75000J0D01*
G01*
X100075000Y-91600000D01*
G75*
G02*
X100150000Y-91675000I0J-75000D01*
G01*
X100150000Y-93000000D01*
G75*
G02*
X100075000Y-93075000I-75000J0D01*
G01*
X99925000Y-93075000D01*
G75*
G02*
X99850000Y-93000000I0J75000D01*
G01*
G37*
G36*
G01*
X100350000Y-93000000D02*
X100350000Y-91675000D01*
G75*
G02*
X100425000Y-91600000I75000J0D01*
G01*
X100575000Y-91600000D01*
G75*
G02*
X100650000Y-91675000I0J-75000D01*
G01*
X100650000Y-93000000D01*
G75*
G02*
X100575000Y-93075000I-75000J0D01*
G01*
X100425000Y-93075000D01*
G75*
G02*
X100350000Y-93000000I0J75000D01*
G01*
G37*
G36*
G01*
X100850000Y-93000000D02*
X100850000Y-91675000D01*
G75*
G02*
X100925000Y-91600000I75000J0D01*
G01*
X101075000Y-91600000D01*
G75*
G02*
X101150000Y-91675000I0J-75000D01*
G01*
X101150000Y-93000000D01*
G75*
G02*
X101075000Y-93075000I-75000J0D01*
G01*
X100925000Y-93075000D01*
G75*
G02*
X100850000Y-93000000I0J75000D01*
G01*
G37*
G36*
G01*
X101350000Y-93000000D02*
X101350000Y-91675000D01*
G75*
G02*
X101425000Y-91600000I75000J0D01*
G01*
X101575000Y-91600000D01*
G75*
G02*
X101650000Y-91675000I0J-75000D01*
G01*
X101650000Y-93000000D01*
G75*
G02*
X101575000Y-93075000I-75000J0D01*
G01*
X101425000Y-93075000D01*
G75*
G02*
X101350000Y-93000000I0J75000D01*
G01*
G37*
G36*
G01*
X101850000Y-93000000D02*
X101850000Y-91675000D01*
G75*
G02*
X101925000Y-91600000I75000J0D01*
G01*
X102075000Y-91600000D01*
G75*
G02*
X102150000Y-91675000I0J-75000D01*
G01*
X102150000Y-93000000D01*
G75*
G02*
X102075000Y-93075000I-75000J0D01*
G01*
X101925000Y-93075000D01*
G75*
G02*
X101850000Y-93000000I0J75000D01*
G01*
G37*
G36*
G01*
X102350000Y-93000000D02*
X102350000Y-91675000D01*
G75*
G02*
X102425000Y-91600000I75000J0D01*
G01*
X102575000Y-91600000D01*
G75*
G02*
X102650000Y-91675000I0J-75000D01*
G01*
X102650000Y-93000000D01*
G75*
G02*
X102575000Y-93075000I-75000J0D01*
G01*
X102425000Y-93075000D01*
G75*
G02*
X102350000Y-93000000I0J75000D01*
G01*
G37*
G36*
G01*
X102850000Y-93000000D02*
X102850000Y-91675000D01*
G75*
G02*
X102925000Y-91600000I75000J0D01*
G01*
X103075000Y-91600000D01*
G75*
G02*
X103150000Y-91675000I0J-75000D01*
G01*
X103150000Y-93000000D01*
G75*
G02*
X103075000Y-93075000I-75000J0D01*
G01*
X102925000Y-93075000D01*
G75*
G02*
X102850000Y-93000000I0J75000D01*
G01*
G37*
G36*
G01*
X103350000Y-93000000D02*
X103350000Y-91675000D01*
G75*
G02*
X103425000Y-91600000I75000J0D01*
G01*
X103575000Y-91600000D01*
G75*
G02*
X103650000Y-91675000I0J-75000D01*
G01*
X103650000Y-93000000D01*
G75*
G02*
X103575000Y-93075000I-75000J0D01*
G01*
X103425000Y-93075000D01*
G75*
G02*
X103350000Y-93000000I0J75000D01*
G01*
G37*
G36*
G01*
X103850000Y-93000000D02*
X103850000Y-91675000D01*
G75*
G02*
X103925000Y-91600000I75000J0D01*
G01*
X104075000Y-91600000D01*
G75*
G02*
X104150000Y-91675000I0J-75000D01*
G01*
X104150000Y-93000000D01*
G75*
G02*
X104075000Y-93075000I-75000J0D01*
G01*
X103925000Y-93075000D01*
G75*
G02*
X103850000Y-93000000I0J75000D01*
G01*
G37*
G36*
G01*
X104350000Y-93000000D02*
X104350000Y-91675000D01*
G75*
G02*
X104425000Y-91600000I75000J0D01*
G01*
X104575000Y-91600000D01*
G75*
G02*
X104650000Y-91675000I0J-75000D01*
G01*
X104650000Y-93000000D01*
G75*
G02*
X104575000Y-93075000I-75000J0D01*
G01*
X104425000Y-93075000D01*
G75*
G02*
X104350000Y-93000000I0J75000D01*
G01*
G37*
G36*
G01*
X104850000Y-93000000D02*
X104850000Y-91675000D01*
G75*
G02*
X104925000Y-91600000I75000J0D01*
G01*
X105075000Y-91600000D01*
G75*
G02*
X105150000Y-91675000I0J-75000D01*
G01*
X105150000Y-93000000D01*
G75*
G02*
X105075000Y-93075000I-75000J0D01*
G01*
X104925000Y-93075000D01*
G75*
G02*
X104850000Y-93000000I0J75000D01*
G01*
G37*
G36*
G01*
X105350000Y-93000000D02*
X105350000Y-91675000D01*
G75*
G02*
X105425000Y-91600000I75000J0D01*
G01*
X105575000Y-91600000D01*
G75*
G02*
X105650000Y-91675000I0J-75000D01*
G01*
X105650000Y-93000000D01*
G75*
G02*
X105575000Y-93075000I-75000J0D01*
G01*
X105425000Y-93075000D01*
G75*
G02*
X105350000Y-93000000I0J75000D01*
G01*
G37*
G36*
G01*
X105850000Y-93000000D02*
X105850000Y-91675000D01*
G75*
G02*
X105925000Y-91600000I75000J0D01*
G01*
X106075000Y-91600000D01*
G75*
G02*
X106150000Y-91675000I0J-75000D01*
G01*
X106150000Y-93000000D01*
G75*
G02*
X106075000Y-93075000I-75000J0D01*
G01*
X105925000Y-93075000D01*
G75*
G02*
X105850000Y-93000000I0J75000D01*
G01*
G37*
G36*
G01*
X106925000Y-94075000D02*
X106925000Y-93925000D01*
G75*
G02*
X107000000Y-93850000I75000J0D01*
G01*
X108325000Y-93850000D01*
G75*
G02*
X108400000Y-93925000I0J-75000D01*
G01*
X108400000Y-94075000D01*
G75*
G02*
X108325000Y-94150000I-75000J0D01*
G01*
X107000000Y-94150000D01*
G75*
G02*
X106925000Y-94075000I0J75000D01*
G01*
G37*
G36*
G01*
X106925000Y-94575000D02*
X106925000Y-94425000D01*
G75*
G02*
X107000000Y-94350000I75000J0D01*
G01*
X108325000Y-94350000D01*
G75*
G02*
X108400000Y-94425000I0J-75000D01*
G01*
X108400000Y-94575000D01*
G75*
G02*
X108325000Y-94650000I-75000J0D01*
G01*
X107000000Y-94650000D01*
G75*
G02*
X106925000Y-94575000I0J75000D01*
G01*
G37*
G36*
G01*
X106925000Y-95075000D02*
X106925000Y-94925000D01*
G75*
G02*
X107000000Y-94850000I75000J0D01*
G01*
X108325000Y-94850000D01*
G75*
G02*
X108400000Y-94925000I0J-75000D01*
G01*
X108400000Y-95075000D01*
G75*
G02*
X108325000Y-95150000I-75000J0D01*
G01*
X107000000Y-95150000D01*
G75*
G02*
X106925000Y-95075000I0J75000D01*
G01*
G37*
G36*
G01*
X106925000Y-95575000D02*
X106925000Y-95425000D01*
G75*
G02*
X107000000Y-95350000I75000J0D01*
G01*
X108325000Y-95350000D01*
G75*
G02*
X108400000Y-95425000I0J-75000D01*
G01*
X108400000Y-95575000D01*
G75*
G02*
X108325000Y-95650000I-75000J0D01*
G01*
X107000000Y-95650000D01*
G75*
G02*
X106925000Y-95575000I0J75000D01*
G01*
G37*
G36*
G01*
X106925000Y-96075000D02*
X106925000Y-95925000D01*
G75*
G02*
X107000000Y-95850000I75000J0D01*
G01*
X108325000Y-95850000D01*
G75*
G02*
X108400000Y-95925000I0J-75000D01*
G01*
X108400000Y-96075000D01*
G75*
G02*
X108325000Y-96150000I-75000J0D01*
G01*
X107000000Y-96150000D01*
G75*
G02*
X106925000Y-96075000I0J75000D01*
G01*
G37*
G36*
G01*
X106925000Y-96575000D02*
X106925000Y-96425000D01*
G75*
G02*
X107000000Y-96350000I75000J0D01*
G01*
X108325000Y-96350000D01*
G75*
G02*
X108400000Y-96425000I0J-75000D01*
G01*
X108400000Y-96575000D01*
G75*
G02*
X108325000Y-96650000I-75000J0D01*
G01*
X107000000Y-96650000D01*
G75*
G02*
X106925000Y-96575000I0J75000D01*
G01*
G37*
G36*
G01*
X106925000Y-97075000D02*
X106925000Y-96925000D01*
G75*
G02*
X107000000Y-96850000I75000J0D01*
G01*
X108325000Y-96850000D01*
G75*
G02*
X108400000Y-96925000I0J-75000D01*
G01*
X108400000Y-97075000D01*
G75*
G02*
X108325000Y-97150000I-75000J0D01*
G01*
X107000000Y-97150000D01*
G75*
G02*
X106925000Y-97075000I0J75000D01*
G01*
G37*
G36*
G01*
X106925000Y-97575000D02*
X106925000Y-97425000D01*
G75*
G02*
X107000000Y-97350000I75000J0D01*
G01*
X108325000Y-97350000D01*
G75*
G02*
X108400000Y-97425000I0J-75000D01*
G01*
X108400000Y-97575000D01*
G75*
G02*
X108325000Y-97650000I-75000J0D01*
G01*
X107000000Y-97650000D01*
G75*
G02*
X106925000Y-97575000I0J75000D01*
G01*
G37*
G36*
G01*
X106925000Y-98075000D02*
X106925000Y-97925000D01*
G75*
G02*
X107000000Y-97850000I75000J0D01*
G01*
X108325000Y-97850000D01*
G75*
G02*
X108400000Y-97925000I0J-75000D01*
G01*
X108400000Y-98075000D01*
G75*
G02*
X108325000Y-98150000I-75000J0D01*
G01*
X107000000Y-98150000D01*
G75*
G02*
X106925000Y-98075000I0J75000D01*
G01*
G37*
G36*
G01*
X106925000Y-98575000D02*
X106925000Y-98425000D01*
G75*
G02*
X107000000Y-98350000I75000J0D01*
G01*
X108325000Y-98350000D01*
G75*
G02*
X108400000Y-98425000I0J-75000D01*
G01*
X108400000Y-98575000D01*
G75*
G02*
X108325000Y-98650000I-75000J0D01*
G01*
X107000000Y-98650000D01*
G75*
G02*
X106925000Y-98575000I0J75000D01*
G01*
G37*
G36*
G01*
X106925000Y-99075000D02*
X106925000Y-98925000D01*
G75*
G02*
X107000000Y-98850000I75000J0D01*
G01*
X108325000Y-98850000D01*
G75*
G02*
X108400000Y-98925000I0J-75000D01*
G01*
X108400000Y-99075000D01*
G75*
G02*
X108325000Y-99150000I-75000J0D01*
G01*
X107000000Y-99150000D01*
G75*
G02*
X106925000Y-99075000I0J75000D01*
G01*
G37*
G36*
G01*
X106925000Y-99575000D02*
X106925000Y-99425000D01*
G75*
G02*
X107000000Y-99350000I75000J0D01*
G01*
X108325000Y-99350000D01*
G75*
G02*
X108400000Y-99425000I0J-75000D01*
G01*
X108400000Y-99575000D01*
G75*
G02*
X108325000Y-99650000I-75000J0D01*
G01*
X107000000Y-99650000D01*
G75*
G02*
X106925000Y-99575000I0J75000D01*
G01*
G37*
G36*
G01*
X106925000Y-100075000D02*
X106925000Y-99925000D01*
G75*
G02*
X107000000Y-99850000I75000J0D01*
G01*
X108325000Y-99850000D01*
G75*
G02*
X108400000Y-99925000I0J-75000D01*
G01*
X108400000Y-100075000D01*
G75*
G02*
X108325000Y-100150000I-75000J0D01*
G01*
X107000000Y-100150000D01*
G75*
G02*
X106925000Y-100075000I0J75000D01*
G01*
G37*
G36*
G01*
X106925000Y-100575000D02*
X106925000Y-100425000D01*
G75*
G02*
X107000000Y-100350000I75000J0D01*
G01*
X108325000Y-100350000D01*
G75*
G02*
X108400000Y-100425000I0J-75000D01*
G01*
X108400000Y-100575000D01*
G75*
G02*
X108325000Y-100650000I-75000J0D01*
G01*
X107000000Y-100650000D01*
G75*
G02*
X106925000Y-100575000I0J75000D01*
G01*
G37*
G36*
G01*
X106925000Y-101075000D02*
X106925000Y-100925000D01*
G75*
G02*
X107000000Y-100850000I75000J0D01*
G01*
X108325000Y-100850000D01*
G75*
G02*
X108400000Y-100925000I0J-75000D01*
G01*
X108400000Y-101075000D01*
G75*
G02*
X108325000Y-101150000I-75000J0D01*
G01*
X107000000Y-101150000D01*
G75*
G02*
X106925000Y-101075000I0J75000D01*
G01*
G37*
G36*
G01*
X106925000Y-101575000D02*
X106925000Y-101425000D01*
G75*
G02*
X107000000Y-101350000I75000J0D01*
G01*
X108325000Y-101350000D01*
G75*
G02*
X108400000Y-101425000I0J-75000D01*
G01*
X108400000Y-101575000D01*
G75*
G02*
X108325000Y-101650000I-75000J0D01*
G01*
X107000000Y-101650000D01*
G75*
G02*
X106925000Y-101575000I0J75000D01*
G01*
G37*
G36*
G01*
X106925000Y-102075000D02*
X106925000Y-101925000D01*
G75*
G02*
X107000000Y-101850000I75000J0D01*
G01*
X108325000Y-101850000D01*
G75*
G02*
X108400000Y-101925000I0J-75000D01*
G01*
X108400000Y-102075000D01*
G75*
G02*
X108325000Y-102150000I-75000J0D01*
G01*
X107000000Y-102150000D01*
G75*
G02*
X106925000Y-102075000I0J75000D01*
G01*
G37*
G36*
G01*
X106925000Y-102575000D02*
X106925000Y-102425000D01*
G75*
G02*
X107000000Y-102350000I75000J0D01*
G01*
X108325000Y-102350000D01*
G75*
G02*
X108400000Y-102425000I0J-75000D01*
G01*
X108400000Y-102575000D01*
G75*
G02*
X108325000Y-102650000I-75000J0D01*
G01*
X107000000Y-102650000D01*
G75*
G02*
X106925000Y-102575000I0J75000D01*
G01*
G37*
G36*
G01*
X106925000Y-103075000D02*
X106925000Y-102925000D01*
G75*
G02*
X107000000Y-102850000I75000J0D01*
G01*
X108325000Y-102850000D01*
G75*
G02*
X108400000Y-102925000I0J-75000D01*
G01*
X108400000Y-103075000D01*
G75*
G02*
X108325000Y-103150000I-75000J0D01*
G01*
X107000000Y-103150000D01*
G75*
G02*
X106925000Y-103075000I0J75000D01*
G01*
G37*
G36*
G01*
X106925000Y-103575000D02*
X106925000Y-103425000D01*
G75*
G02*
X107000000Y-103350000I75000J0D01*
G01*
X108325000Y-103350000D01*
G75*
G02*
X108400000Y-103425000I0J-75000D01*
G01*
X108400000Y-103575000D01*
G75*
G02*
X108325000Y-103650000I-75000J0D01*
G01*
X107000000Y-103650000D01*
G75*
G02*
X106925000Y-103575000I0J75000D01*
G01*
G37*
G36*
G01*
X106925000Y-104075000D02*
X106925000Y-103925000D01*
G75*
G02*
X107000000Y-103850000I75000J0D01*
G01*
X108325000Y-103850000D01*
G75*
G02*
X108400000Y-103925000I0J-75000D01*
G01*
X108400000Y-104075000D01*
G75*
G02*
X108325000Y-104150000I-75000J0D01*
G01*
X107000000Y-104150000D01*
G75*
G02*
X106925000Y-104075000I0J75000D01*
G01*
G37*
G36*
G01*
X106925000Y-104575000D02*
X106925000Y-104425000D01*
G75*
G02*
X107000000Y-104350000I75000J0D01*
G01*
X108325000Y-104350000D01*
G75*
G02*
X108400000Y-104425000I0J-75000D01*
G01*
X108400000Y-104575000D01*
G75*
G02*
X108325000Y-104650000I-75000J0D01*
G01*
X107000000Y-104650000D01*
G75*
G02*
X106925000Y-104575000I0J75000D01*
G01*
G37*
G36*
G01*
X106925000Y-105075000D02*
X106925000Y-104925000D01*
G75*
G02*
X107000000Y-104850000I75000J0D01*
G01*
X108325000Y-104850000D01*
G75*
G02*
X108400000Y-104925000I0J-75000D01*
G01*
X108400000Y-105075000D01*
G75*
G02*
X108325000Y-105150000I-75000J0D01*
G01*
X107000000Y-105150000D01*
G75*
G02*
X106925000Y-105075000I0J75000D01*
G01*
G37*
G36*
G01*
X106925000Y-105575000D02*
X106925000Y-105425000D01*
G75*
G02*
X107000000Y-105350000I75000J0D01*
G01*
X108325000Y-105350000D01*
G75*
G02*
X108400000Y-105425000I0J-75000D01*
G01*
X108400000Y-105575000D01*
G75*
G02*
X108325000Y-105650000I-75000J0D01*
G01*
X107000000Y-105650000D01*
G75*
G02*
X106925000Y-105575000I0J75000D01*
G01*
G37*
G36*
G01*
X106925000Y-106075000D02*
X106925000Y-105925000D01*
G75*
G02*
X107000000Y-105850000I75000J0D01*
G01*
X108325000Y-105850000D01*
G75*
G02*
X108400000Y-105925000I0J-75000D01*
G01*
X108400000Y-106075000D01*
G75*
G02*
X108325000Y-106150000I-75000J0D01*
G01*
X107000000Y-106150000D01*
G75*
G02*
X106925000Y-106075000I0J75000D01*
G01*
G37*
G36*
G01*
X105850000Y-108325000D02*
X105850000Y-107000000D01*
G75*
G02*
X105925000Y-106925000I75000J0D01*
G01*
X106075000Y-106925000D01*
G75*
G02*
X106150000Y-107000000I0J-75000D01*
G01*
X106150000Y-108325000D01*
G75*
G02*
X106075000Y-108400000I-75000J0D01*
G01*
X105925000Y-108400000D01*
G75*
G02*
X105850000Y-108325000I0J75000D01*
G01*
G37*
G36*
G01*
X105350000Y-108325000D02*
X105350000Y-107000000D01*
G75*
G02*
X105425000Y-106925000I75000J0D01*
G01*
X105575000Y-106925000D01*
G75*
G02*
X105650000Y-107000000I0J-75000D01*
G01*
X105650000Y-108325000D01*
G75*
G02*
X105575000Y-108400000I-75000J0D01*
G01*
X105425000Y-108400000D01*
G75*
G02*
X105350000Y-108325000I0J75000D01*
G01*
G37*
G36*
G01*
X104850000Y-108325000D02*
X104850000Y-107000000D01*
G75*
G02*
X104925000Y-106925000I75000J0D01*
G01*
X105075000Y-106925000D01*
G75*
G02*
X105150000Y-107000000I0J-75000D01*
G01*
X105150000Y-108325000D01*
G75*
G02*
X105075000Y-108400000I-75000J0D01*
G01*
X104925000Y-108400000D01*
G75*
G02*
X104850000Y-108325000I0J75000D01*
G01*
G37*
G36*
G01*
X104350000Y-108325000D02*
X104350000Y-107000000D01*
G75*
G02*
X104425000Y-106925000I75000J0D01*
G01*
X104575000Y-106925000D01*
G75*
G02*
X104650000Y-107000000I0J-75000D01*
G01*
X104650000Y-108325000D01*
G75*
G02*
X104575000Y-108400000I-75000J0D01*
G01*
X104425000Y-108400000D01*
G75*
G02*
X104350000Y-108325000I0J75000D01*
G01*
G37*
G36*
G01*
X103850000Y-108325000D02*
X103850000Y-107000000D01*
G75*
G02*
X103925000Y-106925000I75000J0D01*
G01*
X104075000Y-106925000D01*
G75*
G02*
X104150000Y-107000000I0J-75000D01*
G01*
X104150000Y-108325000D01*
G75*
G02*
X104075000Y-108400000I-75000J0D01*
G01*
X103925000Y-108400000D01*
G75*
G02*
X103850000Y-108325000I0J75000D01*
G01*
G37*
G36*
G01*
X103350000Y-108325000D02*
X103350000Y-107000000D01*
G75*
G02*
X103425000Y-106925000I75000J0D01*
G01*
X103575000Y-106925000D01*
G75*
G02*
X103650000Y-107000000I0J-75000D01*
G01*
X103650000Y-108325000D01*
G75*
G02*
X103575000Y-108400000I-75000J0D01*
G01*
X103425000Y-108400000D01*
G75*
G02*
X103350000Y-108325000I0J75000D01*
G01*
G37*
G36*
G01*
X102850000Y-108325000D02*
X102850000Y-107000000D01*
G75*
G02*
X102925000Y-106925000I75000J0D01*
G01*
X103075000Y-106925000D01*
G75*
G02*
X103150000Y-107000000I0J-75000D01*
G01*
X103150000Y-108325000D01*
G75*
G02*
X103075000Y-108400000I-75000J0D01*
G01*
X102925000Y-108400000D01*
G75*
G02*
X102850000Y-108325000I0J75000D01*
G01*
G37*
G36*
G01*
X102350000Y-108325000D02*
X102350000Y-107000000D01*
G75*
G02*
X102425000Y-106925000I75000J0D01*
G01*
X102575000Y-106925000D01*
G75*
G02*
X102650000Y-107000000I0J-75000D01*
G01*
X102650000Y-108325000D01*
G75*
G02*
X102575000Y-108400000I-75000J0D01*
G01*
X102425000Y-108400000D01*
G75*
G02*
X102350000Y-108325000I0J75000D01*
G01*
G37*
G36*
G01*
X101850000Y-108325000D02*
X101850000Y-107000000D01*
G75*
G02*
X101925000Y-106925000I75000J0D01*
G01*
X102075000Y-106925000D01*
G75*
G02*
X102150000Y-107000000I0J-75000D01*
G01*
X102150000Y-108325000D01*
G75*
G02*
X102075000Y-108400000I-75000J0D01*
G01*
X101925000Y-108400000D01*
G75*
G02*
X101850000Y-108325000I0J75000D01*
G01*
G37*
G36*
G01*
X101350000Y-108325000D02*
X101350000Y-107000000D01*
G75*
G02*
X101425000Y-106925000I75000J0D01*
G01*
X101575000Y-106925000D01*
G75*
G02*
X101650000Y-107000000I0J-75000D01*
G01*
X101650000Y-108325000D01*
G75*
G02*
X101575000Y-108400000I-75000J0D01*
G01*
X101425000Y-108400000D01*
G75*
G02*
X101350000Y-108325000I0J75000D01*
G01*
G37*
G36*
G01*
X100850000Y-108325000D02*
X100850000Y-107000000D01*
G75*
G02*
X100925000Y-106925000I75000J0D01*
G01*
X101075000Y-106925000D01*
G75*
G02*
X101150000Y-107000000I0J-75000D01*
G01*
X101150000Y-108325000D01*
G75*
G02*
X101075000Y-108400000I-75000J0D01*
G01*
X100925000Y-108400000D01*
G75*
G02*
X100850000Y-108325000I0J75000D01*
G01*
G37*
G36*
G01*
X100350000Y-108325000D02*
X100350000Y-107000000D01*
G75*
G02*
X100425000Y-106925000I75000J0D01*
G01*
X100575000Y-106925000D01*
G75*
G02*
X100650000Y-107000000I0J-75000D01*
G01*
X100650000Y-108325000D01*
G75*
G02*
X100575000Y-108400000I-75000J0D01*
G01*
X100425000Y-108400000D01*
G75*
G02*
X100350000Y-108325000I0J75000D01*
G01*
G37*
G36*
G01*
X99850000Y-108325000D02*
X99850000Y-107000000D01*
G75*
G02*
X99925000Y-106925000I75000J0D01*
G01*
X100075000Y-106925000D01*
G75*
G02*
X100150000Y-107000000I0J-75000D01*
G01*
X100150000Y-108325000D01*
G75*
G02*
X100075000Y-108400000I-75000J0D01*
G01*
X99925000Y-108400000D01*
G75*
G02*
X99850000Y-108325000I0J75000D01*
G01*
G37*
G36*
G01*
X99350000Y-108325000D02*
X99350000Y-107000000D01*
G75*
G02*
X99425000Y-106925000I75000J0D01*
G01*
X99575000Y-106925000D01*
G75*
G02*
X99650000Y-107000000I0J-75000D01*
G01*
X99650000Y-108325000D01*
G75*
G02*
X99575000Y-108400000I-75000J0D01*
G01*
X99425000Y-108400000D01*
G75*
G02*
X99350000Y-108325000I0J75000D01*
G01*
G37*
G36*
G01*
X98850000Y-108325000D02*
X98850000Y-107000000D01*
G75*
G02*
X98925000Y-106925000I75000J0D01*
G01*
X99075000Y-106925000D01*
G75*
G02*
X99150000Y-107000000I0J-75000D01*
G01*
X99150000Y-108325000D01*
G75*
G02*
X99075000Y-108400000I-75000J0D01*
G01*
X98925000Y-108400000D01*
G75*
G02*
X98850000Y-108325000I0J75000D01*
G01*
G37*
G36*
G01*
X98350000Y-108325000D02*
X98350000Y-107000000D01*
G75*
G02*
X98425000Y-106925000I75000J0D01*
G01*
X98575000Y-106925000D01*
G75*
G02*
X98650000Y-107000000I0J-75000D01*
G01*
X98650000Y-108325000D01*
G75*
G02*
X98575000Y-108400000I-75000J0D01*
G01*
X98425000Y-108400000D01*
G75*
G02*
X98350000Y-108325000I0J75000D01*
G01*
G37*
G36*
G01*
X97850000Y-108325000D02*
X97850000Y-107000000D01*
G75*
G02*
X97925000Y-106925000I75000J0D01*
G01*
X98075000Y-106925000D01*
G75*
G02*
X98150000Y-107000000I0J-75000D01*
G01*
X98150000Y-108325000D01*
G75*
G02*
X98075000Y-108400000I-75000J0D01*
G01*
X97925000Y-108400000D01*
G75*
G02*
X97850000Y-108325000I0J75000D01*
G01*
G37*
G36*
G01*
X97350000Y-108325000D02*
X97350000Y-107000000D01*
G75*
G02*
X97425000Y-106925000I75000J0D01*
G01*
X97575000Y-106925000D01*
G75*
G02*
X97650000Y-107000000I0J-75000D01*
G01*
X97650000Y-108325000D01*
G75*
G02*
X97575000Y-108400000I-75000J0D01*
G01*
X97425000Y-108400000D01*
G75*
G02*
X97350000Y-108325000I0J75000D01*
G01*
G37*
G36*
G01*
X96850000Y-108325000D02*
X96850000Y-107000000D01*
G75*
G02*
X96925000Y-106925000I75000J0D01*
G01*
X97075000Y-106925000D01*
G75*
G02*
X97150000Y-107000000I0J-75000D01*
G01*
X97150000Y-108325000D01*
G75*
G02*
X97075000Y-108400000I-75000J0D01*
G01*
X96925000Y-108400000D01*
G75*
G02*
X96850000Y-108325000I0J75000D01*
G01*
G37*
G36*
G01*
X96350000Y-108325000D02*
X96350000Y-107000000D01*
G75*
G02*
X96425000Y-106925000I75000J0D01*
G01*
X96575000Y-106925000D01*
G75*
G02*
X96650000Y-107000000I0J-75000D01*
G01*
X96650000Y-108325000D01*
G75*
G02*
X96575000Y-108400000I-75000J0D01*
G01*
X96425000Y-108400000D01*
G75*
G02*
X96350000Y-108325000I0J75000D01*
G01*
G37*
G36*
G01*
X95850000Y-108325000D02*
X95850000Y-107000000D01*
G75*
G02*
X95925000Y-106925000I75000J0D01*
G01*
X96075000Y-106925000D01*
G75*
G02*
X96150000Y-107000000I0J-75000D01*
G01*
X96150000Y-108325000D01*
G75*
G02*
X96075000Y-108400000I-75000J0D01*
G01*
X95925000Y-108400000D01*
G75*
G02*
X95850000Y-108325000I0J75000D01*
G01*
G37*
G36*
G01*
X95350000Y-108325000D02*
X95350000Y-107000000D01*
G75*
G02*
X95425000Y-106925000I75000J0D01*
G01*
X95575000Y-106925000D01*
G75*
G02*
X95650000Y-107000000I0J-75000D01*
G01*
X95650000Y-108325000D01*
G75*
G02*
X95575000Y-108400000I-75000J0D01*
G01*
X95425000Y-108400000D01*
G75*
G02*
X95350000Y-108325000I0J75000D01*
G01*
G37*
G36*
G01*
X94850000Y-108325000D02*
X94850000Y-107000000D01*
G75*
G02*
X94925000Y-106925000I75000J0D01*
G01*
X95075000Y-106925000D01*
G75*
G02*
X95150000Y-107000000I0J-75000D01*
G01*
X95150000Y-108325000D01*
G75*
G02*
X95075000Y-108400000I-75000J0D01*
G01*
X94925000Y-108400000D01*
G75*
G02*
X94850000Y-108325000I0J75000D01*
G01*
G37*
G36*
G01*
X94350000Y-108325000D02*
X94350000Y-107000000D01*
G75*
G02*
X94425000Y-106925000I75000J0D01*
G01*
X94575000Y-106925000D01*
G75*
G02*
X94650000Y-107000000I0J-75000D01*
G01*
X94650000Y-108325000D01*
G75*
G02*
X94575000Y-108400000I-75000J0D01*
G01*
X94425000Y-108400000D01*
G75*
G02*
X94350000Y-108325000I0J75000D01*
G01*
G37*
G36*
G01*
X93850000Y-108325000D02*
X93850000Y-107000000D01*
G75*
G02*
X93925000Y-106925000I75000J0D01*
G01*
X94075000Y-106925000D01*
G75*
G02*
X94150000Y-107000000I0J-75000D01*
G01*
X94150000Y-108325000D01*
G75*
G02*
X94075000Y-108400000I-75000J0D01*
G01*
X93925000Y-108400000D01*
G75*
G02*
X93850000Y-108325000I0J75000D01*
G01*
G37*
G36*
G01*
X91600000Y-106075000D02*
X91600000Y-105925000D01*
G75*
G02*
X91675000Y-105850000I75000J0D01*
G01*
X93000000Y-105850000D01*
G75*
G02*
X93075000Y-105925000I0J-75000D01*
G01*
X93075000Y-106075000D01*
G75*
G02*
X93000000Y-106150000I-75000J0D01*
G01*
X91675000Y-106150000D01*
G75*
G02*
X91600000Y-106075000I0J75000D01*
G01*
G37*
G36*
G01*
X91600000Y-105575000D02*
X91600000Y-105425000D01*
G75*
G02*
X91675000Y-105350000I75000J0D01*
G01*
X93000000Y-105350000D01*
G75*
G02*
X93075000Y-105425000I0J-75000D01*
G01*
X93075000Y-105575000D01*
G75*
G02*
X93000000Y-105650000I-75000J0D01*
G01*
X91675000Y-105650000D01*
G75*
G02*
X91600000Y-105575000I0J75000D01*
G01*
G37*
G36*
G01*
X91600000Y-105075000D02*
X91600000Y-104925000D01*
G75*
G02*
X91675000Y-104850000I75000J0D01*
G01*
X93000000Y-104850000D01*
G75*
G02*
X93075000Y-104925000I0J-75000D01*
G01*
X93075000Y-105075000D01*
G75*
G02*
X93000000Y-105150000I-75000J0D01*
G01*
X91675000Y-105150000D01*
G75*
G02*
X91600000Y-105075000I0J75000D01*
G01*
G37*
G36*
G01*
X91600000Y-104575000D02*
X91600000Y-104425000D01*
G75*
G02*
X91675000Y-104350000I75000J0D01*
G01*
X93000000Y-104350000D01*
G75*
G02*
X93075000Y-104425000I0J-75000D01*
G01*
X93075000Y-104575000D01*
G75*
G02*
X93000000Y-104650000I-75000J0D01*
G01*
X91675000Y-104650000D01*
G75*
G02*
X91600000Y-104575000I0J75000D01*
G01*
G37*
G36*
G01*
X91600000Y-104075000D02*
X91600000Y-103925000D01*
G75*
G02*
X91675000Y-103850000I75000J0D01*
G01*
X93000000Y-103850000D01*
G75*
G02*
X93075000Y-103925000I0J-75000D01*
G01*
X93075000Y-104075000D01*
G75*
G02*
X93000000Y-104150000I-75000J0D01*
G01*
X91675000Y-104150000D01*
G75*
G02*
X91600000Y-104075000I0J75000D01*
G01*
G37*
G36*
G01*
X91600000Y-103575000D02*
X91600000Y-103425000D01*
G75*
G02*
X91675000Y-103350000I75000J0D01*
G01*
X93000000Y-103350000D01*
G75*
G02*
X93075000Y-103425000I0J-75000D01*
G01*
X93075000Y-103575000D01*
G75*
G02*
X93000000Y-103650000I-75000J0D01*
G01*
X91675000Y-103650000D01*
G75*
G02*
X91600000Y-103575000I0J75000D01*
G01*
G37*
G36*
G01*
X91600000Y-103075000D02*
X91600000Y-102925000D01*
G75*
G02*
X91675000Y-102850000I75000J0D01*
G01*
X93000000Y-102850000D01*
G75*
G02*
X93075000Y-102925000I0J-75000D01*
G01*
X93075000Y-103075000D01*
G75*
G02*
X93000000Y-103150000I-75000J0D01*
G01*
X91675000Y-103150000D01*
G75*
G02*
X91600000Y-103075000I0J75000D01*
G01*
G37*
G36*
G01*
X91600000Y-102575000D02*
X91600000Y-102425000D01*
G75*
G02*
X91675000Y-102350000I75000J0D01*
G01*
X93000000Y-102350000D01*
G75*
G02*
X93075000Y-102425000I0J-75000D01*
G01*
X93075000Y-102575000D01*
G75*
G02*
X93000000Y-102650000I-75000J0D01*
G01*
X91675000Y-102650000D01*
G75*
G02*
X91600000Y-102575000I0J75000D01*
G01*
G37*
G36*
G01*
X91600000Y-102075000D02*
X91600000Y-101925000D01*
G75*
G02*
X91675000Y-101850000I75000J0D01*
G01*
X93000000Y-101850000D01*
G75*
G02*
X93075000Y-101925000I0J-75000D01*
G01*
X93075000Y-102075000D01*
G75*
G02*
X93000000Y-102150000I-75000J0D01*
G01*
X91675000Y-102150000D01*
G75*
G02*
X91600000Y-102075000I0J75000D01*
G01*
G37*
G36*
G01*
X91600000Y-101575000D02*
X91600000Y-101425000D01*
G75*
G02*
X91675000Y-101350000I75000J0D01*
G01*
X93000000Y-101350000D01*
G75*
G02*
X93075000Y-101425000I0J-75000D01*
G01*
X93075000Y-101575000D01*
G75*
G02*
X93000000Y-101650000I-75000J0D01*
G01*
X91675000Y-101650000D01*
G75*
G02*
X91600000Y-101575000I0J75000D01*
G01*
G37*
G36*
G01*
X91600000Y-101075000D02*
X91600000Y-100925000D01*
G75*
G02*
X91675000Y-100850000I75000J0D01*
G01*
X93000000Y-100850000D01*
G75*
G02*
X93075000Y-100925000I0J-75000D01*
G01*
X93075000Y-101075000D01*
G75*
G02*
X93000000Y-101150000I-75000J0D01*
G01*
X91675000Y-101150000D01*
G75*
G02*
X91600000Y-101075000I0J75000D01*
G01*
G37*
G36*
G01*
X91600000Y-100575000D02*
X91600000Y-100425000D01*
G75*
G02*
X91675000Y-100350000I75000J0D01*
G01*
X93000000Y-100350000D01*
G75*
G02*
X93075000Y-100425000I0J-75000D01*
G01*
X93075000Y-100575000D01*
G75*
G02*
X93000000Y-100650000I-75000J0D01*
G01*
X91675000Y-100650000D01*
G75*
G02*
X91600000Y-100575000I0J75000D01*
G01*
G37*
G36*
G01*
X91600000Y-100075000D02*
X91600000Y-99925000D01*
G75*
G02*
X91675000Y-99850000I75000J0D01*
G01*
X93000000Y-99850000D01*
G75*
G02*
X93075000Y-99925000I0J-75000D01*
G01*
X93075000Y-100075000D01*
G75*
G02*
X93000000Y-100150000I-75000J0D01*
G01*
X91675000Y-100150000D01*
G75*
G02*
X91600000Y-100075000I0J75000D01*
G01*
G37*
G36*
G01*
X91600000Y-99575000D02*
X91600000Y-99425000D01*
G75*
G02*
X91675000Y-99350000I75000J0D01*
G01*
X93000000Y-99350000D01*
G75*
G02*
X93075000Y-99425000I0J-75000D01*
G01*
X93075000Y-99575000D01*
G75*
G02*
X93000000Y-99650000I-75000J0D01*
G01*
X91675000Y-99650000D01*
G75*
G02*
X91600000Y-99575000I0J75000D01*
G01*
G37*
G36*
G01*
X91600000Y-99075000D02*
X91600000Y-98925000D01*
G75*
G02*
X91675000Y-98850000I75000J0D01*
G01*
X93000000Y-98850000D01*
G75*
G02*
X93075000Y-98925000I0J-75000D01*
G01*
X93075000Y-99075000D01*
G75*
G02*
X93000000Y-99150000I-75000J0D01*
G01*
X91675000Y-99150000D01*
G75*
G02*
X91600000Y-99075000I0J75000D01*
G01*
G37*
G36*
G01*
X91600000Y-98575000D02*
X91600000Y-98425000D01*
G75*
G02*
X91675000Y-98350000I75000J0D01*
G01*
X93000000Y-98350000D01*
G75*
G02*
X93075000Y-98425000I0J-75000D01*
G01*
X93075000Y-98575000D01*
G75*
G02*
X93000000Y-98650000I-75000J0D01*
G01*
X91675000Y-98650000D01*
G75*
G02*
X91600000Y-98575000I0J75000D01*
G01*
G37*
G36*
G01*
X91600000Y-98075000D02*
X91600000Y-97925000D01*
G75*
G02*
X91675000Y-97850000I75000J0D01*
G01*
X93000000Y-97850000D01*
G75*
G02*
X93075000Y-97925000I0J-75000D01*
G01*
X93075000Y-98075000D01*
G75*
G02*
X93000000Y-98150000I-75000J0D01*
G01*
X91675000Y-98150000D01*
G75*
G02*
X91600000Y-98075000I0J75000D01*
G01*
G37*
G36*
G01*
X91600000Y-97575000D02*
X91600000Y-97425000D01*
G75*
G02*
X91675000Y-97350000I75000J0D01*
G01*
X93000000Y-97350000D01*
G75*
G02*
X93075000Y-97425000I0J-75000D01*
G01*
X93075000Y-97575000D01*
G75*
G02*
X93000000Y-97650000I-75000J0D01*
G01*
X91675000Y-97650000D01*
G75*
G02*
X91600000Y-97575000I0J75000D01*
G01*
G37*
G36*
G01*
X91600000Y-97075000D02*
X91600000Y-96925000D01*
G75*
G02*
X91675000Y-96850000I75000J0D01*
G01*
X93000000Y-96850000D01*
G75*
G02*
X93075000Y-96925000I0J-75000D01*
G01*
X93075000Y-97075000D01*
G75*
G02*
X93000000Y-97150000I-75000J0D01*
G01*
X91675000Y-97150000D01*
G75*
G02*
X91600000Y-97075000I0J75000D01*
G01*
G37*
G36*
G01*
X91600000Y-96575000D02*
X91600000Y-96425000D01*
G75*
G02*
X91675000Y-96350000I75000J0D01*
G01*
X93000000Y-96350000D01*
G75*
G02*
X93075000Y-96425000I0J-75000D01*
G01*
X93075000Y-96575000D01*
G75*
G02*
X93000000Y-96650000I-75000J0D01*
G01*
X91675000Y-96650000D01*
G75*
G02*
X91600000Y-96575000I0J75000D01*
G01*
G37*
G36*
G01*
X91600000Y-96075000D02*
X91600000Y-95925000D01*
G75*
G02*
X91675000Y-95850000I75000J0D01*
G01*
X93000000Y-95850000D01*
G75*
G02*
X93075000Y-95925000I0J-75000D01*
G01*
X93075000Y-96075000D01*
G75*
G02*
X93000000Y-96150000I-75000J0D01*
G01*
X91675000Y-96150000D01*
G75*
G02*
X91600000Y-96075000I0J75000D01*
G01*
G37*
G36*
G01*
X91600000Y-95575000D02*
X91600000Y-95425000D01*
G75*
G02*
X91675000Y-95350000I75000J0D01*
G01*
X93000000Y-95350000D01*
G75*
G02*
X93075000Y-95425000I0J-75000D01*
G01*
X93075000Y-95575000D01*
G75*
G02*
X93000000Y-95650000I-75000J0D01*
G01*
X91675000Y-95650000D01*
G75*
G02*
X91600000Y-95575000I0J75000D01*
G01*
G37*
G36*
G01*
X91600000Y-95075000D02*
X91600000Y-94925000D01*
G75*
G02*
X91675000Y-94850000I75000J0D01*
G01*
X93000000Y-94850000D01*
G75*
G02*
X93075000Y-94925000I0J-75000D01*
G01*
X93075000Y-95075000D01*
G75*
G02*
X93000000Y-95150000I-75000J0D01*
G01*
X91675000Y-95150000D01*
G75*
G02*
X91600000Y-95075000I0J75000D01*
G01*
G37*
G36*
G01*
X91600000Y-94575000D02*
X91600000Y-94425000D01*
G75*
G02*
X91675000Y-94350000I75000J0D01*
G01*
X93000000Y-94350000D01*
G75*
G02*
X93075000Y-94425000I0J-75000D01*
G01*
X93075000Y-94575000D01*
G75*
G02*
X93000000Y-94650000I-75000J0D01*
G01*
X91675000Y-94650000D01*
G75*
G02*
X91600000Y-94575000I0J75000D01*
G01*
G37*
G36*
G01*
X91600000Y-94075000D02*
X91600000Y-93925000D01*
G75*
G02*
X91675000Y-93850000I75000J0D01*
G01*
X93000000Y-93850000D01*
G75*
G02*
X93075000Y-93925000I0J-75000D01*
G01*
X93075000Y-94075000D01*
G75*
G02*
X93000000Y-94150000I-75000J0D01*
G01*
X91675000Y-94150000D01*
G75*
G02*
X91600000Y-94075000I0J75000D01*
G01*
G37*
D12*
X140000000Y-102000000D03*
X60000000Y-102000000D03*
X140000000Y-98000000D03*
X60000000Y-98000000D03*
D18*
X132170000Y-146490000D03*
X121170000Y-146490000D03*
D16*
X123170000Y-146990000D03*
X124170000Y-146990000D03*
X125170000Y-146990000D03*
X126170000Y-146990000D03*
X127170000Y-146990000D03*
X128170000Y-146990000D03*
X129170000Y-146990000D03*
X130170000Y-146990000D03*
D18*
X78830000Y-146490000D03*
X67830000Y-146490000D03*
D16*
X69830000Y-146990000D03*
X70830000Y-146990000D03*
X71830000Y-146990000D03*
X72830000Y-146990000D03*
X73830000Y-146990000D03*
X74830000Y-146990000D03*
X75830000Y-146990000D03*
X76830000Y-146990000D03*
D18*
X146490000Y-121170000D03*
X146490000Y-132170000D03*
D21*
X146990000Y-130170000D03*
X146990000Y-129170000D03*
X146990000Y-128170000D03*
X146990000Y-127170000D03*
X146990000Y-126170000D03*
X146990000Y-125170000D03*
X146990000Y-124170000D03*
X146990000Y-123170000D03*
D18*
X146490000Y-67830000D03*
X146490000Y-78830000D03*
D21*
X146990000Y-76830000D03*
X146990000Y-75830000D03*
X146990000Y-74830000D03*
X146990000Y-73830000D03*
X146990000Y-72830000D03*
X146990000Y-71830000D03*
X146990000Y-70830000D03*
X146990000Y-69830000D03*
D18*
X121170000Y-53510000D03*
X132170000Y-53510000D03*
D16*
X130170000Y-53010000D03*
X129170000Y-53010000D03*
X128170000Y-53010000D03*
X127170000Y-53010000D03*
X126170000Y-53010000D03*
X125170000Y-53010000D03*
X124170000Y-53010000D03*
X123170000Y-53010000D03*
D18*
X53510000Y-132170000D03*
X53510000Y-121170000D03*
D21*
X53010000Y-123170000D03*
X53010000Y-124170000D03*
X53010000Y-125170000D03*
X53010000Y-126170000D03*
X53010000Y-127170000D03*
X53010000Y-128170000D03*
X53010000Y-129170000D03*
X53010000Y-130170000D03*
D18*
X53510000Y-78830000D03*
X53510000Y-67830000D03*
D21*
X53010000Y-69830000D03*
X53010000Y-70830000D03*
X53010000Y-71830000D03*
X53010000Y-72830000D03*
X53010000Y-73830000D03*
X53010000Y-74830000D03*
X53010000Y-75830000D03*
X53010000Y-76830000D03*
G36*
G01*
X138505000Y-71320000D02*
X138505000Y-70870000D01*
G75*
G02*
X138730000Y-70645000I225000J0D01*
G01*
X139480000Y-70645000D01*
G75*
G02*
X139705000Y-70870000I0J-225000D01*
G01*
X139705000Y-71320000D01*
G75*
G02*
X139480000Y-71545000I-225000J0D01*
G01*
X138730000Y-71545000D01*
G75*
G02*
X138505000Y-71320000I0J225000D01*
G01*
G37*
G36*
G01*
X140305000Y-71320000D02*
X140305000Y-70870000D01*
G75*
G02*
X140530000Y-70645000I225000J0D01*
G01*
X141280000Y-70645000D01*
G75*
G02*
X141505000Y-70870000I0J-225000D01*
G01*
X141505000Y-71320000D01*
G75*
G02*
X141280000Y-71545000I-225000J0D01*
G01*
X140530000Y-71545000D01*
G75*
G02*
X140305000Y-71320000I0J225000D01*
G01*
G37*
G36*
G01*
X140305000Y-70220000D02*
X140305000Y-69770000D01*
G75*
G02*
X140530000Y-69545000I225000J0D01*
G01*
X141280000Y-69545000D01*
G75*
G02*
X141505000Y-69770000I0J-225000D01*
G01*
X141505000Y-70220000D01*
G75*
G02*
X141280000Y-70445000I-225000J0D01*
G01*
X140530000Y-70445000D01*
G75*
G02*
X140305000Y-70220000I0J225000D01*
G01*
G37*
G36*
G01*
X138505000Y-70220000D02*
X138505000Y-69770000D01*
G75*
G02*
X138730000Y-69545000I225000J0D01*
G01*
X139480000Y-69545000D01*
G75*
G02*
X139705000Y-69770000I0J-225000D01*
G01*
X139705000Y-70220000D01*
G75*
G02*
X139480000Y-70445000I-225000J0D01*
G01*
X138730000Y-70445000D01*
G75*
G02*
X138505000Y-70220000I0J225000D01*
G01*
G37*
G36*
G01*
X111835000Y-71320000D02*
X111835000Y-70870000D01*
G75*
G02*
X112060000Y-70645000I225000J0D01*
G01*
X112810000Y-70645000D01*
G75*
G02*
X113035000Y-70870000I0J-225000D01*
G01*
X113035000Y-71320000D01*
G75*
G02*
X112810000Y-71545000I-225000J0D01*
G01*
X112060000Y-71545000D01*
G75*
G02*
X111835000Y-71320000I0J225000D01*
G01*
G37*
G36*
G01*
X113635000Y-71320000D02*
X113635000Y-70870000D01*
G75*
G02*
X113860000Y-70645000I225000J0D01*
G01*
X114610000Y-70645000D01*
G75*
G02*
X114835000Y-70870000I0J-225000D01*
G01*
X114835000Y-71320000D01*
G75*
G02*
X114610000Y-71545000I-225000J0D01*
G01*
X113860000Y-71545000D01*
G75*
G02*
X113635000Y-71320000I0J225000D01*
G01*
G37*
G36*
G01*
X113635000Y-70220000D02*
X113635000Y-69770000D01*
G75*
G02*
X113860000Y-69545000I225000J0D01*
G01*
X114610000Y-69545000D01*
G75*
G02*
X114835000Y-69770000I0J-225000D01*
G01*
X114835000Y-70220000D01*
G75*
G02*
X114610000Y-70445000I-225000J0D01*
G01*
X113860000Y-70445000D01*
G75*
G02*
X113635000Y-70220000I0J225000D01*
G01*
G37*
G36*
G01*
X111835000Y-70220000D02*
X111835000Y-69770000D01*
G75*
G02*
X112060000Y-69545000I225000J0D01*
G01*
X112810000Y-69545000D01*
G75*
G02*
X113035000Y-69770000I0J-225000D01*
G01*
X113035000Y-70220000D01*
G75*
G02*
X112810000Y-70445000I-225000J0D01*
G01*
X112060000Y-70445000D01*
G75*
G02*
X111835000Y-70220000I0J225000D01*
G01*
G37*
G36*
G01*
X111835000Y-53150000D02*
X111835000Y-52700000D01*
G75*
G02*
X112060000Y-52475000I225000J0D01*
G01*
X112810000Y-52475000D01*
G75*
G02*
X113035000Y-52700000I0J-225000D01*
G01*
X113035000Y-53150000D01*
G75*
G02*
X112810000Y-53375000I-225000J0D01*
G01*
X112060000Y-53375000D01*
G75*
G02*
X111835000Y-53150000I0J225000D01*
G01*
G37*
G36*
G01*
X113635000Y-53150000D02*
X113635000Y-52700000D01*
G75*
G02*
X113860000Y-52475000I225000J0D01*
G01*
X114610000Y-52475000D01*
G75*
G02*
X114835000Y-52700000I0J-225000D01*
G01*
X114835000Y-53150000D01*
G75*
G02*
X114610000Y-53375000I-225000J0D01*
G01*
X113860000Y-53375000D01*
G75*
G02*
X113635000Y-53150000I0J225000D01*
G01*
G37*
G36*
G01*
X113635000Y-52050000D02*
X113635000Y-51600000D01*
G75*
G02*
X113860000Y-51375000I225000J0D01*
G01*
X114610000Y-51375000D01*
G75*
G02*
X114835000Y-51600000I0J-225000D01*
G01*
X114835000Y-52050000D01*
G75*
G02*
X114610000Y-52275000I-225000J0D01*
G01*
X113860000Y-52275000D01*
G75*
G02*
X113635000Y-52050000I0J225000D01*
G01*
G37*
G36*
G01*
X111835000Y-52050000D02*
X111835000Y-51600000D01*
G75*
G02*
X112060000Y-51375000I225000J0D01*
G01*
X112810000Y-51375000D01*
G75*
G02*
X113035000Y-51600000I0J-225000D01*
G01*
X113035000Y-52050000D01*
G75*
G02*
X112810000Y-52275000I-225000J0D01*
G01*
X112060000Y-52275000D01*
G75*
G02*
X111835000Y-52050000I0J225000D01*
G01*
G37*
G36*
G01*
X85165000Y-53150000D02*
X85165000Y-52700000D01*
G75*
G02*
X85390000Y-52475000I225000J0D01*
G01*
X86140000Y-52475000D01*
G75*
G02*
X86365000Y-52700000I0J-225000D01*
G01*
X86365000Y-53150000D01*
G75*
G02*
X86140000Y-53375000I-225000J0D01*
G01*
X85390000Y-53375000D01*
G75*
G02*
X85165000Y-53150000I0J225000D01*
G01*
G37*
G36*
G01*
X86965000Y-53150000D02*
X86965000Y-52700000D01*
G75*
G02*
X87190000Y-52475000I225000J0D01*
G01*
X87940000Y-52475000D01*
G75*
G02*
X88165000Y-52700000I0J-225000D01*
G01*
X88165000Y-53150000D01*
G75*
G02*
X87940000Y-53375000I-225000J0D01*
G01*
X87190000Y-53375000D01*
G75*
G02*
X86965000Y-53150000I0J225000D01*
G01*
G37*
G36*
G01*
X86965000Y-52050000D02*
X86965000Y-51600000D01*
G75*
G02*
X87190000Y-51375000I225000J0D01*
G01*
X87940000Y-51375000D01*
G75*
G02*
X88165000Y-51600000I0J-225000D01*
G01*
X88165000Y-52050000D01*
G75*
G02*
X87940000Y-52275000I-225000J0D01*
G01*
X87190000Y-52275000D01*
G75*
G02*
X86965000Y-52050000I0J225000D01*
G01*
G37*
G36*
G01*
X85165000Y-52050000D02*
X85165000Y-51600000D01*
G75*
G02*
X85390000Y-51375000I225000J0D01*
G01*
X86140000Y-51375000D01*
G75*
G02*
X86365000Y-51600000I0J-225000D01*
G01*
X86365000Y-52050000D01*
G75*
G02*
X86140000Y-52275000I-225000J0D01*
G01*
X85390000Y-52275000D01*
G75*
G02*
X85165000Y-52050000I0J225000D01*
G01*
G37*
G36*
G01*
X58495000Y-71320000D02*
X58495000Y-70870000D01*
G75*
G02*
X58720000Y-70645000I225000J0D01*
G01*
X59470000Y-70645000D01*
G75*
G02*
X59695000Y-70870000I0J-225000D01*
G01*
X59695000Y-71320000D01*
G75*
G02*
X59470000Y-71545000I-225000J0D01*
G01*
X58720000Y-71545000D01*
G75*
G02*
X58495000Y-71320000I0J225000D01*
G01*
G37*
G36*
G01*
X60295000Y-71320000D02*
X60295000Y-70870000D01*
G75*
G02*
X60520000Y-70645000I225000J0D01*
G01*
X61270000Y-70645000D01*
G75*
G02*
X61495000Y-70870000I0J-225000D01*
G01*
X61495000Y-71320000D01*
G75*
G02*
X61270000Y-71545000I-225000J0D01*
G01*
X60520000Y-71545000D01*
G75*
G02*
X60295000Y-71320000I0J225000D01*
G01*
G37*
G36*
G01*
X60295000Y-70220000D02*
X60295000Y-69770000D01*
G75*
G02*
X60520000Y-69545000I225000J0D01*
G01*
X61270000Y-69545000D01*
G75*
G02*
X61495000Y-69770000I0J-225000D01*
G01*
X61495000Y-70220000D01*
G75*
G02*
X61270000Y-70445000I-225000J0D01*
G01*
X60520000Y-70445000D01*
G75*
G02*
X60295000Y-70220000I0J225000D01*
G01*
G37*
G36*
G01*
X58495000Y-70220000D02*
X58495000Y-69770000D01*
G75*
G02*
X58720000Y-69545000I225000J0D01*
G01*
X59470000Y-69545000D01*
G75*
G02*
X59695000Y-69770000I0J-225000D01*
G01*
X59695000Y-70220000D01*
G75*
G02*
X59470000Y-70445000I-225000J0D01*
G01*
X58720000Y-70445000D01*
G75*
G02*
X58495000Y-70220000I0J225000D01*
G01*
G37*
G36*
G01*
X58495000Y-53150000D02*
X58495000Y-52700000D01*
G75*
G02*
X58720000Y-52475000I225000J0D01*
G01*
X59470000Y-52475000D01*
G75*
G02*
X59695000Y-52700000I0J-225000D01*
G01*
X59695000Y-53150000D01*
G75*
G02*
X59470000Y-53375000I-225000J0D01*
G01*
X58720000Y-53375000D01*
G75*
G02*
X58495000Y-53150000I0J225000D01*
G01*
G37*
G36*
G01*
X60295000Y-53150000D02*
X60295000Y-52700000D01*
G75*
G02*
X60520000Y-52475000I225000J0D01*
G01*
X61270000Y-52475000D01*
G75*
G02*
X61495000Y-52700000I0J-225000D01*
G01*
X61495000Y-53150000D01*
G75*
G02*
X61270000Y-53375000I-225000J0D01*
G01*
X60520000Y-53375000D01*
G75*
G02*
X60295000Y-53150000I0J225000D01*
G01*
G37*
G36*
G01*
X60295000Y-52050000D02*
X60295000Y-51600000D01*
G75*
G02*
X60520000Y-51375000I225000J0D01*
G01*
X61270000Y-51375000D01*
G75*
G02*
X61495000Y-51600000I0J-225000D01*
G01*
X61495000Y-52050000D01*
G75*
G02*
X61270000Y-52275000I-225000J0D01*
G01*
X60520000Y-52275000D01*
G75*
G02*
X60295000Y-52050000I0J225000D01*
G01*
G37*
G36*
G01*
X58495000Y-52050000D02*
X58495000Y-51600000D01*
G75*
G02*
X58720000Y-51375000I225000J0D01*
G01*
X59470000Y-51375000D01*
G75*
G02*
X59695000Y-51600000I0J-225000D01*
G01*
X59695000Y-52050000D01*
G75*
G02*
X59470000Y-52275000I-225000J0D01*
G01*
X58720000Y-52275000D01*
G75*
G02*
X58495000Y-52050000I0J225000D01*
G01*
G37*
D22*
X142545000Y-52795000D03*
X137465000Y-52795000D03*
D23*
X146305000Y-59995000D03*
X133705000Y-59995000D03*
D22*
X142545000Y-67695000D03*
X140005000Y-67695000D03*
X137465000Y-67695000D03*
X115875000Y-52795000D03*
X110795000Y-52795000D03*
D23*
X119635000Y-59995000D03*
X107035000Y-59995000D03*
D22*
X115875000Y-67695000D03*
X113335000Y-67695000D03*
X110795000Y-67695000D03*
X89205000Y-52795000D03*
X84125000Y-52795000D03*
D23*
X92965000Y-59995000D03*
X80365000Y-59995000D03*
D22*
X89205000Y-67695000D03*
X86665000Y-67695000D03*
X84125000Y-67695000D03*
X62535000Y-52795000D03*
X57455000Y-52795000D03*
D23*
X66295000Y-59995000D03*
X53695000Y-59995000D03*
D22*
X62535000Y-67695000D03*
X59995000Y-67695000D03*
X57455000Y-67695000D03*
M02*
