M48
; DRILL file {KiCad 5.1.9+dfsg1-1} date Wed Oct 27 13:30:12 2021
; FORMAT={-:-/ absolute / inch / decimal}
; #@! TF.CreationDate,2021-10-27T13:30:12+02:00
; #@! TF.GenerationSoftware,Kicad,Pcbnew,5.1.9+dfsg1-1
; #@! TF.FileFunction,Plated,1,4,PTH
FMAT,2
INCH
T1C0.0118
T2C0.0197
T3C0.0236
T4C0.0256
T5C0.0295
T6C0.0394
T7C0.0512
T8C0.0866
%
G90
G05
T1
X2.0276Y-3.937
X2.0276Y-4.0157
X2.1063Y-3.8583
X2.1063Y-5.7087
X2.1063Y-5.6299
X2.3266Y-2.0404
X2.3266Y-2.0837
X2.362Y-2.212
X2.362Y-2.512
X2.3974Y-2.0404
X2.562Y-2.0501
X2.562Y-2.1239
X2.587Y-3.862
X2.587Y-4.012
X2.712Y-2.487
X2.712Y-3.762
X2.712Y-4.112
X2.762Y-3.762
X2.762Y-4.112
X2.812Y-4.112
X2.837Y-3.687
X2.8543Y-2.2441
X2.862Y-2.287
X2.8995Y-2.737
X2.9245Y-2.762
X2.937Y-3.687
X2.987Y-2.6001
X2.987Y-2.6739
X3.0245Y-2.762
X3.0495Y-2.737
X3.062Y-2.412
X3.062Y-3.762
X3.212Y-2.0501
X3.212Y-2.1239
X3.312Y-2.212
X3.362Y-2.3251
X3.3766Y-2.0837
X3.412Y-2.512
X3.4474Y-2.0404
X3.4646Y-3.9173
X3.512Y-2.212
X3.5236Y-4.0354
X3.6516Y-3.6516
X3.6732Y-4.8937
X3.6772Y-4.8386
X3.712Y-4.387
X3.7205Y-3.8189
X3.7205Y-3.8976
X3.7205Y-4.1339
X3.7402Y-4.7323
X3.75Y-3.563
X3.762Y-4.537
X3.7677Y-2.2323
X3.7697Y-2.1074
X3.7795Y-3.5335
X3.7795Y-3.563
X3.7795Y-4.7441
X3.7894Y-2.2638
X3.7894Y-3.9764
X3.7894Y-4.1339
X3.7992Y-3.7402
X3.8189Y-4.437
X3.8189Y-5.5315
X3.8287Y-2.2638
X3.8386Y-2.5787
X3.8484Y-4.6457
X3.8583Y-3.5433
X3.8583Y-3.8976
X3.8583Y-4.1339
X3.8585Y-4.387
X3.8593Y-2.3228
X3.8593Y-2.3524
X3.862Y-4.437
X3.8681Y-2.1555
X3.8681Y-2.2736
X3.8681Y-2.4114
X3.8681Y-2.5
X3.8701Y-5.7165
X3.878Y-2.0768
X3.9064Y-2.1555
X3.912Y-4.437
X3.912Y-4.487
X3.9156Y-4.387
X3.9252Y-5.1102
X3.927Y-2.5787
X3.9291Y-5.063
X3.9349Y-2.0747
X3.937Y-2.6181
X3.937Y-2.6476
X3.937Y-3.5236
X3.937Y-3.563
X3.937Y-3.7008
X3.937Y-3.7402
X3.937Y-3.7795
X3.937Y-4.1732
X3.9567Y-4.7244
X3.9862Y-2.2736
X3.9977Y-2.0723
X4.0039Y-5.7165
X4.0059Y-2.4114
X4.0079Y-2.1535
X4.0157Y-3.563
X4.0157Y-2.313
X4.0157Y-3.7402
X4.0157Y-3.8976
X4.0157Y-4.0945
X4.0168Y-3.5236
X4.0256Y-2.6772
X4.0256Y-4.6457
X4.0453Y-2.2638
X4.0551Y-2.4803
X4.0571Y-4.337
X4.0787Y-4.537
X4.0827Y-3.9016
X4.0846Y-2.2638
X4.0846Y-3.7402
X4.0945Y-5.6693
X4.1043Y-4.813
X4.1063Y-2.2323
X4.114Y-4.862
X4.1142Y-4.9114
X4.1328Y-3.5422
X4.1339Y-4.3504
X4.1339Y-5.0
X4.1339Y-5.1673
X4.1339Y-5.748
X4.1535Y-3.7008
X4.1535Y-3.7402
X4.1535Y-3.8189
X4.1535Y-3.8976
X4.1535Y-3.937
X4.1535Y-3.9764
X4.1535Y-4.0551
X4.1535Y-4.1339
X4.1634Y-3.563
X4.1732Y-3.3071
X4.311Y-3.9567
X4.4266Y-2.0837
X4.462Y-2.212
X4.462Y-2.512
X4.4974Y-2.0404
X4.662Y-2.0501
X4.662Y-2.1239
X4.812Y-3.762
X4.812Y-4.112
X4.862Y-3.762
X4.862Y-4.112
X4.887Y-2.5995
X4.887Y-2.637
X4.887Y-2.687
X4.8896Y-2.237
X4.8896Y-2.287
X4.912Y-4.112
X4.937Y-3.687
X4.9606Y-2.2441
X4.9745Y-2.5995
X4.9995Y-2.637
X5.0245Y-2.687
X5.037Y-3.687
X5.0844Y-2.437
X5.0844Y-2.537
X5.087Y-2.6001
X5.087Y-2.6739
X5.162Y-3.762
X5.287Y-3.862
X5.287Y-4.012
X5.312Y-2.0501
X5.312Y-2.1239
X5.412Y-2.212
X5.462Y-2.3251
X5.4766Y-2.0837
X5.512Y-2.512
X5.5474Y-2.0404
X5.5474Y-2.0837
X5.612Y-2.212
X5.7087Y-5.8071
X5.7087Y-5.689
X5.7283Y-3.9961
X5.7874Y-3.937
X5.8268Y-3.937
X5.8661Y-3.9764
T2
X2.3622Y-3.8583
X2.3622Y-4.0157
X5.5118Y-3.8583
X5.5118Y-4.0157
T4
X3.837Y-3.3307
X3.837Y-3.3807
X3.887Y-3.3307
X3.887Y-3.3807
X3.937Y-3.3307
X3.937Y-3.3807
X3.987Y-3.3307
X3.987Y-3.3807
X4.037Y-3.3307
X4.037Y-3.3807
T5
X3.8524Y-5.7677
X4.0217Y-5.7677
T6
X2.1067Y-2.6705
X2.1067Y-3.1035
X2.1067Y-4.7705
X2.1067Y-5.2035
X2.262Y-2.0864
X2.262Y-2.6573
X2.362Y-2.6573
X2.462Y-2.0864
X2.462Y-2.6573
X2.6705Y-2.1067
X2.6705Y-5.7673
X3.1035Y-2.1067
X3.1035Y-5.7673
X3.312Y-2.0864
X3.312Y-2.6573
X3.412Y-2.6573
X3.512Y-2.0864
X3.512Y-2.6573
X4.362Y-2.0864
X4.362Y-2.6573
X4.462Y-2.6573
X4.562Y-2.0864
X4.562Y-2.6573
X4.7705Y-2.1067
X4.7705Y-5.7673
X5.2035Y-2.1067
X5.2035Y-5.7673
X5.412Y-2.0864
X5.412Y-2.6573
X5.512Y-2.6573
X5.612Y-2.0864
X5.612Y-2.6573
X5.7673Y-2.6705
X5.7673Y-3.1035
X5.7673Y-4.7705
X5.7673Y-5.2035
T7
X2.2931Y-2.878
X2.4309Y-2.878
X2.4309Y-5.7835
X3.3431Y-2.878
X3.4809Y-2.878
X3.4809Y-5.7835
X4.3931Y-2.878
X4.5309Y-2.878
X4.5309Y-5.7835
X5.4431Y-2.878
X5.5809Y-2.878
X5.5809Y-5.7835
T8
X2.1061Y-2.362
X2.6179Y-2.362
X3.1561Y-2.362
X3.6679Y-2.362
X4.2061Y-2.362
X4.7179Y-2.362
X5.2561Y-2.362
X5.7679Y-2.362
T2
G00X2.0713Y-2.7492
M15
G01X2.1028Y-2.7492
M16
G05
G00X2.0713Y-2.7886
M15
G01X2.1028Y-2.7886
M16
G05
G00X2.0713Y-2.828
M15
G01X2.1028Y-2.828
M16
G05
G00X2.0713Y-2.8673
M15
G01X2.1028Y-2.8673
M16
G05
G00X2.0713Y-2.9067
M15
G01X2.1028Y-2.9067
M16
G05
G00X2.0713Y-2.9461
M15
G01X2.1028Y-2.9461
M16
G05
G00X2.0713Y-2.9854
M15
G01X2.1028Y-2.9854
M16
G05
G00X2.0713Y-3.0248
M15
G01X2.1028Y-3.0248
M16
G05
G00X2.0713Y-4.8492
M15
G01X2.1028Y-4.8492
M16
G05
G00X2.0713Y-4.8886
M15
G01X2.1028Y-4.8886
M16
G05
G00X2.0713Y-4.928
M15
G01X2.1028Y-4.928
M16
G05
G00X2.0713Y-4.9673
M15
G01X2.1028Y-4.9673
M16
G05
G00X2.0713Y-5.0067
M15
G01X2.1028Y-5.0067
M16
G05
G00X2.0713Y-5.0461
M15
G01X2.1028Y-5.0461
M16
G05
G00X2.0713Y-5.0854
M15
G01X2.1028Y-5.0854
M16
G05
G00X2.0713Y-5.1248
M15
G01X2.1028Y-5.1248
M16
G05
G00X2.7492Y-2.0713
M15
G01X2.7492Y-2.1028
M16
G05
G00X2.7492Y-5.8028
M15
G01X2.7492Y-5.7713
M16
G05
G00X2.7886Y-2.0713
M15
G01X2.7886Y-2.1028
M16
G05
G00X2.7886Y-5.8028
M15
G01X2.7886Y-5.7713
M16
G05
G00X2.828Y-2.0713
M15
G01X2.828Y-2.1028
M16
G05
G00X2.828Y-5.8028
M15
G01X2.828Y-5.7713
M16
G05
G00X2.8673Y-2.0713
M15
G01X2.8673Y-2.1028
M16
G05
G00X2.8673Y-5.8028
M15
G01X2.8673Y-5.7713
M16
G05
G00X2.9067Y-2.0713
M15
G01X2.9067Y-2.1028
M16
G05
G00X2.9067Y-5.8028
M15
G01X2.9067Y-5.7713
M16
G05
G00X2.9461Y-2.0713
M15
G01X2.9461Y-2.1028
M16
G05
G00X2.9461Y-5.8028
M15
G01X2.9461Y-5.7713
M16
G05
G00X2.9854Y-2.0713
M15
G01X2.9854Y-2.1028
M16
G05
G00X2.9854Y-5.8028
M15
G01X2.9854Y-5.7713
M16
G05
G00X3.0248Y-2.0713
M15
G01X3.0248Y-2.1028
M16
G05
G00X3.0248Y-5.8028
M15
G01X3.0248Y-5.7713
M16
G05
G00X3.7669Y-2.0157
M15
G01X3.7669Y-2.0
M16
G05
G00X3.7669Y-2.1862
M15
G01X3.7669Y-2.1587
M16
G05
G00X4.1071Y-2.0157
M15
G01X4.1071Y-2.0
M16
G05
G00X4.1071Y-2.1862
M15
G01X4.1071Y-2.1587
M16
G05
G00X4.8492Y-2.0713
M15
G01X4.8492Y-2.1028
M16
G05
G00X4.8492Y-5.8028
M15
G01X4.8492Y-5.7713
M16
G05
G00X4.8886Y-2.0713
M15
G01X4.8886Y-2.1028
M16
G05
G00X4.8886Y-5.8028
M15
G01X4.8886Y-5.7713
M16
G05
G00X4.928Y-2.0713
M15
G01X4.928Y-2.1028
M16
G05
G00X4.928Y-5.8028
M15
G01X4.928Y-5.7713
M16
G05
G00X4.9673Y-2.0713
M15
G01X4.9673Y-2.1028
M16
G05
G00X4.9673Y-5.8028
M15
G01X4.9673Y-5.7713
M16
G05
G00X5.0067Y-2.0713
M15
G01X5.0067Y-2.1028
M16
G05
G00X5.0067Y-5.8028
M15
G01X5.0067Y-5.7713
M16
G05
G00X5.0461Y-2.0713
M15
G01X5.0461Y-2.1028
M16
G05
G00X5.0461Y-5.8028
M15
G01X5.0461Y-5.7713
M16
G05
G00X5.0854Y-2.0713
M15
G01X5.0854Y-2.1028
M16
G05
G00X5.0854Y-5.8028
M15
G01X5.0854Y-5.7713
M16
G05
G00X5.1248Y-2.0713
M15
G01X5.1248Y-2.1028
M16
G05
G00X5.1248Y-5.8028
M15
G01X5.1248Y-5.7713
M16
G05
G00X5.8028Y-2.7492
M15
G01X5.7713Y-2.7492
M16
G05
G00X5.8028Y-2.7886
M15
G01X5.7713Y-2.7886
M16
G05
G00X5.8028Y-2.828
M15
G01X5.7713Y-2.828
M16
G05
G00X5.8028Y-2.8673
M15
G01X5.7713Y-2.8673
M16
G05
G00X5.8028Y-2.9067
M15
G01X5.7713Y-2.9067
M16
G05
G00X5.8028Y-2.9461
M15
G01X5.7713Y-2.9461
M16
G05
G00X5.8028Y-2.9854
M15
G01X5.7713Y-2.9854
M16
G05
G00X5.8028Y-3.0248
M15
G01X5.7713Y-3.0248
M16
G05
G00X5.8028Y-4.8492
M15
G01X5.7713Y-4.8492
M16
G05
G00X5.8028Y-4.8886
M15
G01X5.7713Y-4.8886
M16
G05
G00X5.8028Y-4.928
M15
G01X5.7713Y-4.928
M16
G05
G00X5.8028Y-4.9673
M15
G01X5.7713Y-4.9673
M16
G05
G00X5.8028Y-5.0067
M15
G01X5.7713Y-5.0067
M16
G05
G00X5.8028Y-5.0461
M15
G01X5.7713Y-5.0461
M16
G05
G00X5.8028Y-5.0854
M15
G01X5.7713Y-5.0854
M16
G05
G00X5.8028Y-5.1248
M15
G01X5.7713Y-5.1248
M16
G05
T3
G00X2.1947Y-3.0295
M15
G01X2.1947Y-3.065
M16
G05
G00X2.1947Y-5.5965
M15
G01X2.1947Y-5.6319
M16
G05
G00X2.5293Y-3.0768
M15
G01X2.5293Y-3.1122
M16
G05
G00X2.5293Y-5.5492
M15
G01X2.5293Y-5.5846
M16
G05
G00X3.2447Y-3.0295
M15
G01X3.2447Y-3.065
M16
G05
G00X3.2447Y-5.5965
M15
G01X3.2447Y-5.6319
M16
G05
G00X3.5793Y-3.0768
M15
G01X3.5793Y-3.1122
M16
G05
G00X3.5793Y-5.5492
M15
G01X3.5793Y-5.5846
M16
G05
G00X4.2947Y-3.0295
M15
G01X4.2947Y-3.065
M16
G05
G00X4.2947Y-5.5965
M15
G01X4.2947Y-5.6319
M16
G05
G00X4.6293Y-3.0768
M15
G01X4.6293Y-3.1122
M16
G05
G00X4.6293Y-5.5492
M15
G01X4.6293Y-5.5846
M16
G05
G00X5.3447Y-3.0295
M15
G01X5.3447Y-3.065
M16
G05
G00X5.3447Y-5.5965
M15
G01X5.3447Y-5.6319
M16
G05
G00X5.6793Y-3.0768
M15
G01X5.6793Y-3.1122
M16
G05
G00X5.6793Y-5.5492
M15
G01X5.6793Y-5.5846
M16
G05
T0
M30
