%TF.GenerationSoftware,KiCad,Pcbnew,6.0.9-8da3e8f707~117~ubuntu22.04.1*%
%TF.CreationDate,2022-12-19T13:03:23+01:00*%
%TF.ProjectId,grid_service_tool,67726964-5f73-4657-9276-6963655f746f,rev?*%
%TF.SameCoordinates,Original*%
%TF.FileFunction,Legend,Bot*%
%TF.FilePolarity,Positive*%
%FSLAX46Y46*%
G04 Gerber Fmt 4.6, Leading zero omitted, Abs format (unit mm)*
G04 Created by KiCad (PCBNEW 6.0.9-8da3e8f707~117~ubuntu22.04.1) date 2022-12-19 13:03:23*
%MOMM*%
%LPD*%
G01*
G04 APERTURE LIST*
%ADD10C,0.150000*%
G04 APERTURE END LIST*
D10*
X106547619Y-74904761D02*
X106404761Y-74952380D01*
X106166666Y-74952380D01*
X106071428Y-74904761D01*
X106023809Y-74857142D01*
X105976190Y-74761904D01*
X105976190Y-74666666D01*
X106023809Y-74571428D01*
X106071428Y-74523809D01*
X106166666Y-74476190D01*
X106357142Y-74428571D01*
X106452380Y-74380952D01*
X106500000Y-74333333D01*
X106547619Y-74238095D01*
X106547619Y-74142857D01*
X106500000Y-74047619D01*
X106452380Y-74000000D01*
X106357142Y-73952380D01*
X106119047Y-73952380D01*
X105976190Y-74000000D01*
X105166666Y-74904761D02*
X105261904Y-74952380D01*
X105452380Y-74952380D01*
X105547619Y-74904761D01*
X105595238Y-74809523D01*
X105595238Y-74428571D01*
X105547619Y-74333333D01*
X105452380Y-74285714D01*
X105261904Y-74285714D01*
X105166666Y-74333333D01*
X105119047Y-74428571D01*
X105119047Y-74523809D01*
X105595238Y-74619047D01*
X104690476Y-74952380D02*
X104690476Y-74285714D01*
X104690476Y-74476190D02*
X104642857Y-74380952D01*
X104595238Y-74333333D01*
X104500000Y-74285714D01*
X104404761Y-74285714D01*
X104166666Y-74285714D02*
X103928571Y-74952380D01*
X103690476Y-74285714D01*
X103309523Y-74952380D02*
X103309523Y-74285714D01*
X103309523Y-73952380D02*
X103357142Y-74000000D01*
X103309523Y-74047619D01*
X103261904Y-74000000D01*
X103309523Y-73952380D01*
X103309523Y-74047619D01*
X102404761Y-74904761D02*
X102500000Y-74952380D01*
X102690476Y-74952380D01*
X102785714Y-74904761D01*
X102833333Y-74857142D01*
X102880952Y-74761904D01*
X102880952Y-74476190D01*
X102833333Y-74380952D01*
X102785714Y-74333333D01*
X102690476Y-74285714D01*
X102500000Y-74285714D01*
X102404761Y-74333333D01*
X101595238Y-74904761D02*
X101690476Y-74952380D01*
X101880952Y-74952380D01*
X101976190Y-74904761D01*
X102023809Y-74809523D01*
X102023809Y-74428571D01*
X101976190Y-74333333D01*
X101880952Y-74285714D01*
X101690476Y-74285714D01*
X101595238Y-74333333D01*
X101547619Y-74428571D01*
X101547619Y-74523809D01*
X102023809Y-74619047D01*
X100500000Y-73952380D02*
X99928571Y-73952380D01*
X100214285Y-74952380D02*
X100214285Y-73952380D01*
X99452380Y-74952380D02*
X99547619Y-74904761D01*
X99595238Y-74857142D01*
X99642857Y-74761904D01*
X99642857Y-74476190D01*
X99595238Y-74380952D01*
X99547619Y-74333333D01*
X99452380Y-74285714D01*
X99309523Y-74285714D01*
X99214285Y-74333333D01*
X99166666Y-74380952D01*
X99119047Y-74476190D01*
X99119047Y-74761904D01*
X99166666Y-74857142D01*
X99214285Y-74904761D01*
X99309523Y-74952380D01*
X99452380Y-74952380D01*
X98547619Y-74952380D02*
X98642857Y-74904761D01*
X98690476Y-74857142D01*
X98738095Y-74761904D01*
X98738095Y-74476190D01*
X98690476Y-74380952D01*
X98642857Y-74333333D01*
X98547619Y-74285714D01*
X98404761Y-74285714D01*
X98309523Y-74333333D01*
X98261904Y-74380952D01*
X98214285Y-74476190D01*
X98214285Y-74761904D01*
X98261904Y-74857142D01*
X98309523Y-74904761D01*
X98404761Y-74952380D01*
X98547619Y-74952380D01*
X97642857Y-74952380D02*
X97738095Y-74904761D01*
X97785714Y-74809523D01*
X97785714Y-73952380D01*
X95928571Y-74952380D02*
X96261904Y-74476190D01*
X96500000Y-74952380D02*
X96500000Y-73952380D01*
X96119047Y-73952380D01*
X96023809Y-74000000D01*
X95976190Y-74047619D01*
X95928571Y-74142857D01*
X95928571Y-74285714D01*
X95976190Y-74380952D01*
X96023809Y-74428571D01*
X96119047Y-74476190D01*
X96500000Y-74476190D01*
X95119047Y-74904761D02*
X95214285Y-74952380D01*
X95404761Y-74952380D01*
X95500000Y-74904761D01*
X95547619Y-74809523D01*
X95547619Y-74428571D01*
X95500000Y-74333333D01*
X95404761Y-74285714D01*
X95214285Y-74285714D01*
X95119047Y-74333333D01*
X95071428Y-74428571D01*
X95071428Y-74523809D01*
X95547619Y-74619047D01*
X94738095Y-74285714D02*
X94500000Y-74952380D01*
X94261904Y-74285714D01*
X93928571Y-74666666D02*
X93452380Y-74666666D01*
X94023809Y-74952380D02*
X93690476Y-73952380D01*
X93357142Y-74952380D01*
M02*
