<?xml version="1.0" encoding="UTF-8" standalone="no"?>
<svg
   height="200"
   width="200"
   version="1.1"
   id="svg128"
   sodipodi:docname="grid_oshwa.svg"
   inkscape:version="1.2.1 (2ed6d7ae0b, 2022-08-22, custom)"
   xmlns:inkscape="http://www.inkscape.org/namespaces/inkscape"
   xmlns:sodipodi="http://sodipodi.sourceforge.net/DTD/sodipodi-0.dtd"
   xmlns="http://www.w3.org/2000/svg"
   xmlns:svg="http://www.w3.org/2000/svg">
  <defs
     id="defs132" />
  <sodipodi:namedview
     id="namedview130"
     pagecolor="#ffffff"
     bordercolor="#666666"
     borderopacity="1.0"
     inkscape:pageshadow="2"
     inkscape:pageopacity="0.0"
     inkscape:pagecheckerboard="0"
     showgrid="false"
     inkscape:zoom="3.705"
     inkscape:cx="92.037787"
     inkscape:cy="154.11606"
     inkscape:window-width="1024"
     inkscape:window-height="1231"
     inkscape:window-x="1024"
     inkscape:window-y="0"
     inkscape:window-maximized="1"
     inkscape:current-layer="g120"
     inkscape:showpageshadow="2"
     inkscape:deskcolor="#d1d1d1" />
  <g
     fill="#333333"
     id="g120"
     transform="translate(-614.09,-142.78)">
    <path
       style="color:#000000;text-indent:0;text-decoration-line:none;text-transform:none"
       d="m 713.09,278.5 v 3 62.062 3 h 3 141.56 3 v -3 -65.062 h -5.8712 l -0.12879,62.062 h -135.56 V 284.5 h 115.34 v -6 h -118.34 z"
       transform="translate(-72.786,-85.361)"
       id="path112" />
    <path
       d="m 747.71,313.26 c -2e-5,-5.1406 -0.53127,-8.8125 -1.5938,-11.016 -1.0469,-2.2031 -2.7735,-3.3047 -5.1797,-3.3047 -2.3906,3e-5 -4.1172,1.1016 -5.1797,3.3047 -1.0469,2.2032 -1.5703,5.875 -1.5703,11.016 -10e-6,5.125 0.52343,8.7891 1.5703,10.992 1.0625,2.2031 2.789,3.3047 5.1797,3.3047 2.4062,0 4.1328,-1.0938 5.1797,-3.2812 1.0625,-2.2031 1.5937,-5.875 1.5938,-11.016 m 4.9453,0 c -3e-5,6.0938 -0.96878,10.641 -2.9062,13.641 -1.9219,3 -4.8594,4.5 -8.8125,4.5 -3.9531,0 -6.8906,-1.4922 -8.8125,-4.4766 -1.9219,-2.9844 -2.8828,-7.539 -2.8828,-13.664 0,-6.1094 0.96093,-10.664 2.8828,-13.664 1.9375,-3 4.875,-4.5 8.8125,-4.5 3.9531,4e-5 6.8906,1.5 8.8125,4.5 1.9375,3 2.9062,7.5547 2.9062,13.664"
       transform="translate(-72.786,-85.361)"
       id="path114" />
    <path
       d="m 779.1,296.93 v 4.8047 c -1.4375,-0.92184 -2.8828,-1.6172 -4.3359,-2.0859 -1.4375,-0.46871 -2.8906,-0.70309 -4.3594,-0.70312 -2.2344,3e-5 -4,0.52347 -5.2969,1.5703 -1.2969,1.0313 -1.9453,2.4297 -1.9453,4.1953 -10e-6,1.5469 0.42187,2.7266 1.2656,3.5391 0.85936,0.81252 2.4531,1.4922 4.7812,2.0391 l 2.4844,0.5625 c 3.2812,0.76564 5.6718,1.9688 7.1719,3.6094 1.5,1.6406 2.25,3.875 2.25,6.7031 -3e-5,3.3281 -1.0313,5.8672 -3.0938,7.6172 -2.0625,1.75 -5.0625,2.625 -9,2.625 -1.6406,0 -3.2891,-0.17969 -4.9453,-0.53907 -1.6562,-0.34375 -3.3203,-0.86718 -4.9922,-1.5703 v -5.0391 c 1.7969,1.1406 3.4922,1.9766 5.0859,2.5078 1.6094,0.53126 3.2266,0.79688 4.8516,0.79688 2.3906,0 4.25,-0.53125 5.5781,-1.5938 1.3281,-1.0781 1.9922,-2.5781 1.9922,-4.5 -2e-5,-1.75 -0.46096,-3.0859 -1.3828,-4.0078 -0.90627,-0.92186 -2.4922,-1.6328 -4.7578,-2.1328 l -2.5312,-0.58594 c -3.25,-0.73435 -5.6094,-1.8437 -7.0781,-3.3281 -1.4688,-1.4844 -2.2031,-3.4765 -2.2031,-5.9766 0,-3.125 1.0469,-5.625 3.1406,-7.5 2.1094,-1.8906 4.9062,-2.8359 8.3906,-2.8359 1.3437,4e-5 2.7578,0.15629 4.2422,0.46875 1.4844,0.29691 3.0468,0.75003 4.6875,1.3594"
       transform="translate(-72.786,-85.361)"
       id="path116" />
    <path
       d="m 787.46,295.73 h 4.7578 v 14.344 h 12.961 V 295.73 h 4.7578 v 34.992 h -4.7578 v -16.664 h -12.961 v 16.664 H 787.46 V 295.73"
       transform="translate(-72.786,-85.361)"
       id="path118" />
  </g>
  <path
     d="m 126.254,67.589 h 4.6172 l 3.3516,28.406 3.9844,-18.797 h 4.9453 l 4.0312,18.844 11.352,-54.453 h 4.6172 l -13.227,60.992 h -4.4766 l -4.7578,-20.789 -4.7344,20.789 h -4.4766 l -5.2266,-34.992"
     fill="#ff4444"
     id="path122" />
  <g
     aria-label="HU000001"
     id="text124"
     style="font-size:31.4506px;font-family:'DejaVu Sans Mono', 'Andale Mono', monospace;fill:#333333;stroke-width:0.931871">
    <path
       d="m 26.379798,132.37544 h 3.117418 v 9.39833 h 8.492276 v -9.39833 h 3.117418 v 22.92761 h -3.117418 v -10.91864 h -8.492276 v 10.91864 h -3.117418 z"
       id="path811" />
    <path
       d="m 45.468224,146.50364 v -14.1282 h 3.117417 v 15.54102 q 0,1.67389 0.09214,2.39565 0.09214,0.70641 0.322491,1.09033 0.491416,0.90605 1.41282,1.36675 0.936761,0.46071 2.257441,0.46071 1.336036,0 2.25744,-0.46071 0.921404,-0.4607 1.428177,-1.36675 0.230351,-0.38392 0.322491,-1.09033 0.09214,-0.70641 0.09214,-2.36493 v -15.57174 h 3.102061 v 14.1282 q 0,3.5167 -0.445346,5.0063 -0.429988,1.47425 -1.50496,2.44172 -1.013545,0.90605 -2.318867,1.35139 -1.305323,0.44535 -2.933137,0.44535 -1.612458,0 -2.917781,-0.44535 -1.305322,-0.44534 -2.334224,-1.35139 -1.059615,-0.95212 -1.50496,-2.45708 -0.445345,-1.52031 -0.445345,-4.99094 z"
       id="path813" />
    <path
       d="m 69.562946,143.7855 q 0,-0.84462 0.583556,-1.45889 0.598913,-0.61427 1.428177,-0.61427 0.859977,0 1.474246,0.61427 0.61427,0.61427 0.61427,1.45889 0,0.85998 -0.61427,1.45889 -0.598912,0.59891 -1.474246,0.59891 -0.859978,0 -1.443534,-0.58355 -0.568199,-0.58356 -0.568199,-1.47425 z m 2.042446,-9.36761 q -2.1653,0 -3.240272,2.33423 -1.059615,2.33422 -1.059615,7.11016 0,4.76059 1.059615,7.09482 1.074972,2.33422 3.240272,2.33422 2.180657,0 3.240272,-2.33422 1.074971,-2.33423 1.074971,-7.09482 0,-4.77594 -1.074971,-7.11016 -1.059615,-2.33423 -3.240272,-2.33423 z m 0,-2.45708 q 3.67026,0 5.543782,3.00992 1.888879,3.00992 1.888879,8.89155 0,5.86628 -1.888879,8.8762 -1.873522,3.00992 -5.543782,3.00992 -3.67026,0 -5.543782,-3.00992 -1.873523,-3.00992 -1.873523,-8.8762 0,-5.88163 1.873523,-8.89155 1.873522,-3.00992 5.543782,-3.00992 z"
       id="path815" />
    <path
       d="m 88.497802,143.7855 q 0,-0.84462 0.583556,-1.45889 0.598913,-0.61427 1.428177,-0.61427 0.859977,0 1.474247,0.61427 0.614269,0.61427 0.614269,1.45889 0,0.85998 -0.614269,1.45889 -0.598913,0.59891 -1.474247,0.59891 -0.859977,0 -1.443533,-0.58355 -0.5682,-0.58356 -0.5682,-1.47425 z m 2.042446,-9.36761 q -2.1653,0 -3.240271,2.33423 -1.059615,2.33422 -1.059615,7.11016 0,4.76059 1.059615,7.09482 1.074971,2.33422 3.240271,2.33422 2.180657,0 3.240272,-2.33422 1.074972,-2.33423 1.074972,-7.09482 0,-4.77594 -1.074972,-7.11016 -1.059615,-2.33423 -3.240272,-2.33423 z m 0,-2.45708 q 3.670261,0 5.543783,3.00992 1.888879,3.00992 1.888879,8.89155 0,5.86628 -1.888879,8.8762 -1.873522,3.00992 -5.543783,3.00992 -3.67026,0 -5.543782,-3.00992 -1.873522,-3.00992 -1.873522,-8.8762 0,-5.88163 1.873522,-8.89155 1.873522,-3.00992 5.543782,-3.00992 z"
       id="path817" />
    <path
       d="m 107.43266,143.7855 q 0,-0.84462 0.58356,-1.45889 0.59891,-0.61427 1.42818,-0.61427 0.85997,0 1.47424,0.61427 0.61427,0.61427 0.61427,1.45889 0,0.85998 -0.61427,1.45889 -0.59891,0.59891 -1.47424,0.59891 -0.85998,0 -1.44354,-0.58355 -0.5682,-0.58356 -0.5682,-1.47425 z m 2.04245,-9.36761 q -2.1653,0 -3.24027,2.33423 -1.05962,2.33422 -1.05962,7.11016 0,4.76059 1.05962,7.09482 1.07497,2.33422 3.24027,2.33422 2.18066,0 3.24027,-2.33422 1.07497,-2.33423 1.07497,-7.09482 0,-4.77594 -1.07497,-7.11016 -1.05961,-2.33423 -3.24027,-2.33423 z m 0,-2.45708 q 3.67026,0 5.54378,3.00992 1.88888,3.00992 1.88888,8.89155 0,5.86628 -1.88888,8.8762 -1.87352,3.00992 -5.54378,3.00992 -3.67026,0 -5.54378,-3.00992 -1.87353,-3.00992 -1.87353,-8.8762 0,-5.88163 1.87353,-8.89155 1.87352,-3.00992 5.54378,-3.00992 z"
       id="path819" />
    <path
       d="m 126.36752,143.7855 q 0,-0.84462 0.58356,-1.45889 0.59891,-0.61427 1.42818,-0.61427 0.85997,0 1.47424,0.61427 0.61427,0.61427 0.61427,1.45889 0,0.85998 -0.61427,1.45889 -0.59891,0.59891 -1.47424,0.59891 -0.85998,0 -1.44354,-0.58355 -0.5682,-0.58356 -0.5682,-1.47425 z m 2.04245,-9.36761 q -2.1653,0 -3.24027,2.33423 -1.05962,2.33422 -1.05962,7.11016 0,4.76059 1.05962,7.09482 1.07497,2.33422 3.24027,2.33422 2.18066,0 3.24027,-2.33422 1.07497,-2.33423 1.07497,-7.09482 0,-4.77594 -1.07497,-7.11016 -1.05961,-2.33423 -3.24027,-2.33423 z m 0,-2.45708 q 3.67026,0 5.54378,3.00992 1.88888,3.00992 1.88888,8.89155 0,5.86628 -1.88888,8.8762 -1.87352,3.00992 -5.54378,3.00992 -3.67026,0 -5.54378,-3.00992 -1.87353,-3.00992 -1.87353,-8.8762 0,-5.88163 1.87353,-8.89155 1.87352,-3.00992 5.54378,-3.00992 z"
       id="path821" />
    <path
       d="m 145.30238,143.7855 q 0,-0.84462 0.58355,-1.45889 0.59891,-0.61427 1.42818,-0.61427 0.85998,0 1.47424,0.61427 0.61427,0.61427 0.61427,1.45889 0,0.85998 -0.61427,1.45889 -0.59891,0.59891 -1.47424,0.59891 -0.85998,0 -1.44354,-0.58355 -0.56819,-0.58356 -0.56819,-1.47425 z m 2.04244,-9.36761 q -2.1653,0 -3.24027,2.33423 -1.05962,2.33422 -1.05962,7.11016 0,4.76059 1.05962,7.09482 1.07497,2.33422 3.24027,2.33422 2.18066,0 3.24027,-2.33422 1.07497,-2.33423 1.07497,-7.09482 0,-4.77594 -1.07497,-7.11016 -1.05961,-2.33423 -3.24027,-2.33423 z m 0,-2.45708 q 3.67026,0 5.54378,3.00992 1.88888,3.00992 1.88888,8.89155 0,5.86628 -1.88888,8.8762 -1.87352,3.00992 -5.54378,3.00992 -3.67026,0 -5.54378,-3.00992 -1.87352,-3.00992 -1.87352,-8.8762 0,-5.88163 1.87352,-8.89155 1.87352,-3.00992 5.54378,-3.00992 z"
       id="path823" />
    <path
       d="m 160.96625,152.69241 h 4.82202 v -17.52204 l -5.19058,1.16711 v -2.82564 l 5.15986,-1.1364 h 3.10206 v 20.31697 h 4.76059 v 2.61064 h -12.65395 z"
       id="path825" />
  </g>
</svg>
