G04 #@! TF.GenerationSoftware,KiCad,Pcbnew,(5.1.2)-2*
G04 #@! TF.CreationDate,2020-06-09T17:36:26+02:00*
G04 #@! TF.ProjectId,INTERFACE,494e5445-5246-4414-9345-2e6b69636164,rev?*
G04 #@! TF.SameCoordinates,Original*
G04 #@! TF.FileFunction,Profile,NP*
%FSLAX46Y46*%
G04 Gerber Fmt 4.6, Leading zero omitted, Abs format (unit mm)*
G04 Created by KiCad (PCBNEW (5.1.2)-2) date 2020-06-09 17:36:26*
%MOMM*%
%LPD*%
G04 APERTURE LIST*
%ADD10C,0.050000*%
G04 APERTURE END LIST*
D10*
X146000000Y4500000D02*
X150000000Y4500000D01*
X50000000Y4500000D02*
X54000000Y4500000D01*
X114335000Y-4395000D02*
X118415000Y-4395000D01*
X118415000Y-4395000D02*
X118415000Y-8000000D01*
X93000000Y500000D02*
G75*
G02X94000000Y1500000I1000000J0D01*
G01*
X107000000Y-3600000D02*
G75*
G02X106000000Y-4600000I-1000000J0D01*
G01*
X94000000Y-4600000D02*
G75*
G02X93000000Y-3600000I0J1000000D01*
G01*
X100000000Y4500000D02*
X80330000Y4500000D01*
X57000000Y4500000D02*
X66330000Y4500000D01*
X67330000Y3500000D02*
X79330000Y3500000D01*
X143000000Y-8000000D02*
X143000000Y-1500000D01*
X57000000Y-1500000D02*
X57000000Y-8000000D01*
X120670000Y3500000D02*
X119670000Y4500000D01*
X133670000Y4500000D02*
X132670000Y3500000D01*
X132670000Y3500000D02*
X120670000Y3500000D01*
X79330000Y3500000D02*
X80330000Y4500000D01*
X66330000Y4500000D02*
X67330000Y3500000D01*
X114335000Y-3000000D02*
X114335000Y-4395000D01*
X112335000Y-3000000D02*
X112335000Y-8000000D01*
X112335000Y-3000000D02*
G75*
G02X114335000Y-3000000I1000000J0D01*
G01*
X100000000Y4500000D02*
X119670000Y4500000D01*
X143000000Y4500000D02*
X133670000Y4500000D01*
X139005000Y-3000000D02*
G75*
G02X141005000Y-3000000I1000000J0D01*
G01*
X87665000Y-8000000D02*
X112335000Y-8000000D01*
X85665000Y-3000000D02*
X85665000Y-8000000D01*
X87665000Y-3000000D02*
X87665000Y-8000000D01*
X87665000Y-3000000D02*
G75*
G03X85665000Y-3000000I-1000000J0D01*
G01*
X106000000Y1500000D02*
G75*
G02X107000000Y500000I0J-1000000D01*
G01*
X106000000Y-4600000D02*
X94000000Y-4600000D01*
X107000000Y500000D02*
X107000000Y-3600000D01*
X93000000Y500000D02*
X93000000Y-3600000D01*
X94000000Y1500000D02*
X106000000Y1500000D01*
X139005000Y-8000000D02*
X118415000Y-8000000D01*
X141005000Y-8000000D02*
X143000000Y-8000000D01*
X60995000Y-8000000D02*
X85665000Y-8000000D01*
X57000000Y-8000000D02*
X58995000Y-8000000D01*
X60995000Y-3000000D02*
X60995000Y-8000000D01*
X58995000Y-3000000D02*
X58995000Y-8000000D01*
X58995000Y-3000000D02*
G75*
G02X60995000Y-3000000I1000000J0D01*
G01*
X141005000Y-3000000D02*
X141005000Y-8000000D01*
X139005000Y-3000000D02*
X139005000Y-8000000D01*
X54000000Y-10500000D02*
X54000000Y-1500000D01*
X54000000Y-1500000D02*
G75*
G02X57000000Y-1500000I1500000J0D01*
G01*
X57000000Y4500000D02*
G75*
G02X54000000Y4500000I-1500000J0D01*
G01*
X146000000Y-10500000D02*
X146000000Y-1500000D01*
X143000000Y-1500000D02*
G75*
G02X146000000Y-1500000I1500000J0D01*
G01*
X146000000Y4500000D02*
G75*
G02X143000000Y4500000I-1500000J0D01*
G01*
X114335000Y-19395000D02*
X118415000Y-19395000D01*
X118415000Y-19395000D02*
X118415000Y-23000000D01*
X93000000Y-14500000D02*
G75*
G02X94000000Y-13500000I1000000J0D01*
G01*
X107000000Y-18600000D02*
G75*
G02X106000000Y-19600000I-1000000J0D01*
G01*
X94000000Y-19600000D02*
G75*
G02X93000000Y-18600000I0J1000000D01*
G01*
X100000000Y-10500000D02*
X80330000Y-10500000D01*
X57000000Y-10500000D02*
X66330000Y-10500000D01*
X67330000Y-11500000D02*
X79330000Y-11500000D01*
X143000000Y-23000000D02*
X143000000Y-16500000D01*
X57000000Y-16500000D02*
X57000000Y-23000000D01*
X120670000Y-11500000D02*
X119670000Y-10500000D01*
X133670000Y-10500000D02*
X132670000Y-11500000D01*
X132670000Y-11500000D02*
X120670000Y-11500000D01*
X79330000Y-11500000D02*
X80330000Y-10500000D01*
X66330000Y-10500000D02*
X67330000Y-11500000D01*
X114335000Y-18000000D02*
X114335000Y-19395000D01*
X112335000Y-18000000D02*
X112335000Y-23000000D01*
X112335000Y-18000000D02*
G75*
G02X114335000Y-18000000I1000000J0D01*
G01*
X100000000Y-10500000D02*
X119670000Y-10500000D01*
X143000000Y-10500000D02*
X133670000Y-10500000D01*
X139005000Y-18000000D02*
G75*
G02X141005000Y-18000000I1000000J0D01*
G01*
X87665000Y-23000000D02*
X112335000Y-23000000D01*
X85665000Y-18000000D02*
X85665000Y-23000000D01*
X87665000Y-18000000D02*
X87665000Y-23000000D01*
X87665000Y-18000000D02*
G75*
G03X85665000Y-18000000I-1000000J0D01*
G01*
X106000000Y-13500000D02*
G75*
G02X107000000Y-14500000I0J-1000000D01*
G01*
X106000000Y-19600000D02*
X94000000Y-19600000D01*
X107000000Y-14500000D02*
X107000000Y-18600000D01*
X93000000Y-14500000D02*
X93000000Y-18600000D01*
X94000000Y-13500000D02*
X106000000Y-13500000D01*
X139005000Y-23000000D02*
X118415000Y-23000000D01*
X141005000Y-23000000D02*
X143000000Y-23000000D01*
X60995000Y-23000000D02*
X85665000Y-23000000D01*
X57000000Y-23000000D02*
X58995000Y-23000000D01*
X60995000Y-18000000D02*
X60995000Y-23000000D01*
X58995000Y-18000000D02*
X58995000Y-23000000D01*
X58995000Y-18000000D02*
G75*
G02X60995000Y-18000000I1000000J0D01*
G01*
X141005000Y-18000000D02*
X141005000Y-23000000D01*
X139005000Y-18000000D02*
X139005000Y-23000000D01*
X54000000Y-25500000D02*
X54000000Y-16500000D01*
X54000000Y-16500000D02*
G75*
G02X57000000Y-16500000I1500000J0D01*
G01*
X57000000Y-10500000D02*
G75*
G02X54000000Y-10500000I-1500000J0D01*
G01*
X146000000Y-25500000D02*
X146000000Y-16500000D01*
X143000000Y-16500000D02*
G75*
G02X146000000Y-16500000I1500000J0D01*
G01*
X146000000Y-10500000D02*
G75*
G02X143000000Y-10500000I-1500000J0D01*
G01*
X114335000Y-34395000D02*
X118415000Y-34395000D01*
X118415000Y-34395000D02*
X118415000Y-38000000D01*
X93000000Y-29500000D02*
G75*
G02X94000000Y-28500000I1000000J0D01*
G01*
X107000000Y-33600000D02*
G75*
G02X106000000Y-34600000I-1000000J0D01*
G01*
X94000000Y-34600000D02*
G75*
G02X93000000Y-33600000I0J1000000D01*
G01*
X100000000Y-25500000D02*
X80330000Y-25500000D01*
X57000000Y-25500000D02*
X66330000Y-25500000D01*
X67330000Y-26500000D02*
X79330000Y-26500000D01*
X143000000Y-38000000D02*
X143000000Y-31500000D01*
X57000000Y-31500000D02*
X57000000Y-38000000D01*
X120670000Y-26500000D02*
X119670000Y-25500000D01*
X133670000Y-25500000D02*
X132670000Y-26500000D01*
X132670000Y-26500000D02*
X120670000Y-26500000D01*
X79330000Y-26500000D02*
X80330000Y-25500000D01*
X66330000Y-25500000D02*
X67330000Y-26500000D01*
X114335000Y-33000000D02*
X114335000Y-34395000D01*
X112335000Y-33000000D02*
X112335000Y-38000000D01*
X112335000Y-33000000D02*
G75*
G02X114335000Y-33000000I1000000J0D01*
G01*
X100000000Y-25500000D02*
X119670000Y-25500000D01*
X143000000Y-25500000D02*
X133670000Y-25500000D01*
X139005000Y-33000000D02*
G75*
G02X141005000Y-33000000I1000000J0D01*
G01*
X87665000Y-38000000D02*
X112335000Y-38000000D01*
X85665000Y-33000000D02*
X85665000Y-38000000D01*
X87665000Y-33000000D02*
X87665000Y-38000000D01*
X87665000Y-33000000D02*
G75*
G03X85665000Y-33000000I-1000000J0D01*
G01*
X106000000Y-28500000D02*
G75*
G02X107000000Y-29500000I0J-1000000D01*
G01*
X106000000Y-34600000D02*
X94000000Y-34600000D01*
X107000000Y-29500000D02*
X107000000Y-33600000D01*
X93000000Y-29500000D02*
X93000000Y-33600000D01*
X94000000Y-28500000D02*
X106000000Y-28500000D01*
X139005000Y-38000000D02*
X118415000Y-38000000D01*
X141005000Y-38000000D02*
X143000000Y-38000000D01*
X60995000Y-38000000D02*
X85665000Y-38000000D01*
X57000000Y-38000000D02*
X58995000Y-38000000D01*
X60995000Y-33000000D02*
X60995000Y-38000000D01*
X58995000Y-33000000D02*
X58995000Y-38000000D01*
X58995000Y-33000000D02*
G75*
G02X60995000Y-33000000I1000000J0D01*
G01*
X141005000Y-33000000D02*
X141005000Y-38000000D01*
X139005000Y-33000000D02*
X139005000Y-38000000D01*
X54000000Y-40500000D02*
X54000000Y-31500000D01*
X54000000Y-31500000D02*
G75*
G02X57000000Y-31500000I1500000J0D01*
G01*
X57000000Y-25500000D02*
G75*
G02X54000000Y-25500000I-1500000J0D01*
G01*
X146000000Y-40500000D02*
X146000000Y-31500000D01*
X143000000Y-31500000D02*
G75*
G02X146000000Y-31500000I1500000J0D01*
G01*
X146000000Y-25500000D02*
G75*
G02X143000000Y-25500000I-1500000J0D01*
G01*
X114335000Y-49395000D02*
X118415000Y-49395000D01*
X118415000Y-49395000D02*
X118415000Y-53000000D01*
X93000000Y-44500000D02*
G75*
G02X94000000Y-43500000I1000000J0D01*
G01*
X107000000Y-48600000D02*
G75*
G02X106000000Y-49600000I-1000000J0D01*
G01*
X94000000Y-49600000D02*
G75*
G02X93000000Y-48600000I0J1000000D01*
G01*
X100000000Y-40500000D02*
X80330000Y-40500000D01*
X57000000Y-40500000D02*
X66330000Y-40500000D01*
X67330000Y-41500000D02*
X79330000Y-41500000D01*
X143000000Y-53000000D02*
X143000000Y-46500000D01*
X57000000Y-46500000D02*
X57000000Y-53000000D01*
X120670000Y-41500000D02*
X119670000Y-40500000D01*
X133670000Y-40500000D02*
X132670000Y-41500000D01*
X132670000Y-41500000D02*
X120670000Y-41500000D01*
X79330000Y-41500000D02*
X80330000Y-40500000D01*
X66330000Y-40500000D02*
X67330000Y-41500000D01*
X114335000Y-48000000D02*
X114335000Y-49395000D01*
X112335000Y-48000000D02*
X112335000Y-53000000D01*
X112335000Y-48000000D02*
G75*
G02X114335000Y-48000000I1000000J0D01*
G01*
X100000000Y-40500000D02*
X119670000Y-40500000D01*
X143000000Y-40500000D02*
X133670000Y-40500000D01*
X139005000Y-48000000D02*
G75*
G02X141005000Y-48000000I1000000J0D01*
G01*
X87665000Y-53000000D02*
X112335000Y-53000000D01*
X85665000Y-48000000D02*
X85665000Y-53000000D01*
X87665000Y-48000000D02*
X87665000Y-53000000D01*
X87665000Y-48000000D02*
G75*
G03X85665000Y-48000000I-1000000J0D01*
G01*
X106000000Y-43500000D02*
G75*
G02X107000000Y-44500000I0J-1000000D01*
G01*
X106000000Y-49600000D02*
X94000000Y-49600000D01*
X107000000Y-44500000D02*
X107000000Y-48600000D01*
X93000000Y-44500000D02*
X93000000Y-48600000D01*
X94000000Y-43500000D02*
X106000000Y-43500000D01*
X139005000Y-53000000D02*
X118415000Y-53000000D01*
X141005000Y-53000000D02*
X143000000Y-53000000D01*
X60995000Y-53000000D02*
X85665000Y-53000000D01*
X57000000Y-53000000D02*
X58995000Y-53000000D01*
X60995000Y-48000000D02*
X60995000Y-53000000D01*
X58995000Y-48000000D02*
X58995000Y-53000000D01*
X58995000Y-48000000D02*
G75*
G02X60995000Y-48000000I1000000J0D01*
G01*
X141005000Y-48000000D02*
X141005000Y-53000000D01*
X139005000Y-48000000D02*
X139005000Y-53000000D01*
X54000000Y-55500000D02*
X54000000Y-46500000D01*
X54000000Y-46500000D02*
G75*
G02X57000000Y-46500000I1500000J0D01*
G01*
X57000000Y-40500000D02*
G75*
G02X54000000Y-40500000I-1500000J0D01*
G01*
X146000000Y-55500000D02*
X146000000Y-46500000D01*
X143000000Y-46500000D02*
G75*
G02X146000000Y-46500000I1500000J0D01*
G01*
X146000000Y-40500000D02*
G75*
G02X143000000Y-40500000I-1500000J0D01*
G01*
X114335000Y-64395000D02*
X118415000Y-64395000D01*
X118415000Y-64395000D02*
X118415000Y-68000000D01*
X93000000Y-59500000D02*
G75*
G02X94000000Y-58500000I1000000J0D01*
G01*
X107000000Y-63600000D02*
G75*
G02X106000000Y-64600000I-1000000J0D01*
G01*
X94000000Y-64600000D02*
G75*
G02X93000000Y-63600000I0J1000000D01*
G01*
X100000000Y-55500000D02*
X80330000Y-55500000D01*
X57000000Y-55500000D02*
X66330000Y-55500000D01*
X67330000Y-56500000D02*
X79330000Y-56500000D01*
X143000000Y-68000000D02*
X143000000Y-61500000D01*
X57000000Y-61500000D02*
X57000000Y-68000000D01*
X120670000Y-56500000D02*
X119670000Y-55500000D01*
X133670000Y-55500000D02*
X132670000Y-56500000D01*
X132670000Y-56500000D02*
X120670000Y-56500000D01*
X79330000Y-56500000D02*
X80330000Y-55500000D01*
X66330000Y-55500000D02*
X67330000Y-56500000D01*
X114335000Y-63000000D02*
X114335000Y-64395000D01*
X112335000Y-63000000D02*
X112335000Y-68000000D01*
X112335000Y-63000000D02*
G75*
G02X114335000Y-63000000I1000000J0D01*
G01*
X100000000Y-55500000D02*
X119670000Y-55500000D01*
X143000000Y-55500000D02*
X133670000Y-55500000D01*
X139005000Y-63000000D02*
G75*
G02X141005000Y-63000000I1000000J0D01*
G01*
X87665000Y-68000000D02*
X112335000Y-68000000D01*
X85665000Y-63000000D02*
X85665000Y-68000000D01*
X87665000Y-63000000D02*
X87665000Y-68000000D01*
X87665000Y-63000000D02*
G75*
G03X85665000Y-63000000I-1000000J0D01*
G01*
X106000000Y-58500000D02*
G75*
G02X107000000Y-59500000I0J-1000000D01*
G01*
X106000000Y-64600000D02*
X94000000Y-64600000D01*
X107000000Y-59500000D02*
X107000000Y-63600000D01*
X93000000Y-59500000D02*
X93000000Y-63600000D01*
X94000000Y-58500000D02*
X106000000Y-58500000D01*
X139005000Y-68000000D02*
X118415000Y-68000000D01*
X141005000Y-68000000D02*
X143000000Y-68000000D01*
X60995000Y-68000000D02*
X85665000Y-68000000D01*
X57000000Y-68000000D02*
X58995000Y-68000000D01*
X60995000Y-63000000D02*
X60995000Y-68000000D01*
X58995000Y-63000000D02*
X58995000Y-68000000D01*
X58995000Y-63000000D02*
G75*
G02X60995000Y-63000000I1000000J0D01*
G01*
X141005000Y-63000000D02*
X141005000Y-68000000D01*
X139005000Y-63000000D02*
X139005000Y-68000000D01*
X54000000Y-70500000D02*
X54000000Y-61500000D01*
X54000000Y-61500000D02*
G75*
G02X57000000Y-61500000I1500000J0D01*
G01*
X57000000Y-55500000D02*
G75*
G02X54000000Y-55500000I-1500000J0D01*
G01*
X146000000Y-70500000D02*
X146000000Y-61500000D01*
X143000000Y-61500000D02*
G75*
G02X146000000Y-61500000I1500000J0D01*
G01*
X146000000Y-55500000D02*
G75*
G02X143000000Y-55500000I-1500000J0D01*
G01*
X114335000Y-79395000D02*
X118415000Y-79395000D01*
X118415000Y-79395000D02*
X118415000Y-83000000D01*
X93000000Y-74500000D02*
G75*
G02X94000000Y-73500000I1000000J0D01*
G01*
X107000000Y-78600000D02*
G75*
G02X106000000Y-79600000I-1000000J0D01*
G01*
X94000000Y-79600000D02*
G75*
G02X93000000Y-78600000I0J1000000D01*
G01*
X100000000Y-70500000D02*
X80330000Y-70500000D01*
X57000000Y-70500000D02*
X66330000Y-70500000D01*
X67330000Y-71500000D02*
X79330000Y-71500000D01*
X143000000Y-83000000D02*
X143000000Y-76500000D01*
X57000000Y-76500000D02*
X57000000Y-83000000D01*
X120670000Y-71500000D02*
X119670000Y-70500000D01*
X133670000Y-70500000D02*
X132670000Y-71500000D01*
X132670000Y-71500000D02*
X120670000Y-71500000D01*
X79330000Y-71500000D02*
X80330000Y-70500000D01*
X66330000Y-70500000D02*
X67330000Y-71500000D01*
X114335000Y-78000000D02*
X114335000Y-79395000D01*
X112335000Y-78000000D02*
X112335000Y-83000000D01*
X112335000Y-78000000D02*
G75*
G02X114335000Y-78000000I1000000J0D01*
G01*
X100000000Y-70500000D02*
X119670000Y-70500000D01*
X143000000Y-70500000D02*
X133670000Y-70500000D01*
X139005000Y-78000000D02*
G75*
G02X141005000Y-78000000I1000000J0D01*
G01*
X87665000Y-83000000D02*
X112335000Y-83000000D01*
X85665000Y-78000000D02*
X85665000Y-83000000D01*
X87665000Y-78000000D02*
X87665000Y-83000000D01*
X87665000Y-78000000D02*
G75*
G03X85665000Y-78000000I-1000000J0D01*
G01*
X106000000Y-73500000D02*
G75*
G02X107000000Y-74500000I0J-1000000D01*
G01*
X106000000Y-79600000D02*
X94000000Y-79600000D01*
X107000000Y-74500000D02*
X107000000Y-78600000D01*
X93000000Y-74500000D02*
X93000000Y-78600000D01*
X94000000Y-73500000D02*
X106000000Y-73500000D01*
X139005000Y-83000000D02*
X118415000Y-83000000D01*
X141005000Y-83000000D02*
X143000000Y-83000000D01*
X60995000Y-83000000D02*
X85665000Y-83000000D01*
X57000000Y-83000000D02*
X58995000Y-83000000D01*
X60995000Y-78000000D02*
X60995000Y-83000000D01*
X58995000Y-78000000D02*
X58995000Y-83000000D01*
X58995000Y-78000000D02*
G75*
G02X60995000Y-78000000I1000000J0D01*
G01*
X141005000Y-78000000D02*
X141005000Y-83000000D01*
X139005000Y-78000000D02*
X139005000Y-83000000D01*
X54000000Y-85500000D02*
X54000000Y-76500000D01*
X54000000Y-76500000D02*
G75*
G02X57000000Y-76500000I1500000J0D01*
G01*
X57000000Y-70500000D02*
G75*
G02X54000000Y-70500000I-1500000J0D01*
G01*
X146000000Y-85500000D02*
X146000000Y-76500000D01*
X143000000Y-76500000D02*
G75*
G02X146000000Y-76500000I1500000J0D01*
G01*
X146000000Y-70500000D02*
G75*
G02X143000000Y-70500000I-1500000J0D01*
G01*
X146000000Y-85500000D02*
G75*
G02X143000000Y-85500000I-1500000J0D01*
G01*
X143000000Y-91500000D02*
G75*
G02X146000000Y-91500000I1500000J0D01*
G01*
X146000000Y-100500000D02*
X146000000Y-91500000D01*
X146000000Y-100500000D02*
G75*
G02X143000000Y-100500000I-1500000J0D01*
G01*
X57000000Y-85500000D02*
G75*
G02X54000000Y-85500000I-1500000J0D01*
G01*
X54000000Y-91500000D02*
G75*
G02X57000000Y-91500000I1500000J0D01*
G01*
X54000000Y-100500000D02*
X54000000Y-91500000D01*
X57000000Y-100500000D02*
G75*
G02X54000000Y-100500000I-1500000J0D01*
G01*
X143000000Y-106500000D02*
G75*
G02X146000000Y-106500000I1500000J0D01*
G01*
X54000000Y-106500000D02*
G75*
G02X57000000Y-106500000I1500000J0D01*
G01*
X54000000Y-113000000D02*
X54000000Y-106500000D01*
X146000000Y-113000000D02*
X146000000Y-106500000D01*
X150000000Y-113000000D02*
X146000000Y-113000000D01*
X150000000Y4500000D02*
X150000000Y-113000000D01*
X50000000Y-113000000D02*
X50000000Y4500000D01*
X54000000Y-113000000D02*
X50000000Y-113000000D01*
X139005000Y-93000000D02*
X139005000Y-98000000D01*
X141005000Y-93000000D02*
X141005000Y-98000000D01*
X58995000Y-93000000D02*
G75*
G02X60995000Y-93000000I1000000J0D01*
G01*
X58995000Y-93000000D02*
X58995000Y-98000000D01*
X60995000Y-93000000D02*
X60995000Y-98000000D01*
X57000000Y-98000000D02*
X58995000Y-98000000D01*
X60995000Y-98000000D02*
X85665000Y-98000000D01*
X141005000Y-98000000D02*
X143000000Y-98000000D01*
X139005000Y-98000000D02*
X118415000Y-98000000D01*
X94000000Y-88500000D02*
X106000000Y-88500000D01*
X93000000Y-89500000D02*
X93000000Y-93600000D01*
X107000000Y-89500000D02*
X107000000Y-93600000D01*
X106000000Y-94600000D02*
X94000000Y-94600000D01*
X106000000Y-88500000D02*
G75*
G02X107000000Y-89500000I0J-1000000D01*
G01*
X87665000Y-93000000D02*
G75*
G03X85665000Y-93000000I-1000000J0D01*
G01*
X87665000Y-93000000D02*
X87665000Y-98000000D01*
X85665000Y-93000000D02*
X85665000Y-98000000D01*
X87665000Y-98000000D02*
X112335000Y-98000000D01*
X139005000Y-93000000D02*
G75*
G02X141005000Y-93000000I1000000J0D01*
G01*
X143000000Y-85500000D02*
X133670000Y-85500000D01*
X100000000Y-85500000D02*
X119670000Y-85500000D01*
X112335000Y-93000000D02*
G75*
G02X114335000Y-93000000I1000000J0D01*
G01*
X112335000Y-93000000D02*
X112335000Y-98000000D01*
X114335000Y-93000000D02*
X114335000Y-94395000D01*
X66330000Y-85500000D02*
X67330000Y-86500000D01*
X79330000Y-86500000D02*
X80330000Y-85500000D01*
X132670000Y-86500000D02*
X120670000Y-86500000D01*
X133670000Y-85500000D02*
X132670000Y-86500000D01*
X120670000Y-86500000D02*
X119670000Y-85500000D01*
X57000000Y-91500000D02*
X57000000Y-98000000D01*
X143000000Y-98000000D02*
X143000000Y-91500000D01*
X67330000Y-86500000D02*
X79330000Y-86500000D01*
X57000000Y-85500000D02*
X66330000Y-85500000D01*
X100000000Y-85500000D02*
X80330000Y-85500000D01*
X94000000Y-94600000D02*
G75*
G02X93000000Y-93600000I0J1000000D01*
G01*
X107000000Y-93600000D02*
G75*
G02X106000000Y-94600000I-1000000J0D01*
G01*
X93000000Y-89500000D02*
G75*
G02X94000000Y-88500000I1000000J0D01*
G01*
X118415000Y-94395000D02*
X118415000Y-98000000D01*
X114335000Y-94395000D02*
X118415000Y-94395000D01*
X114335000Y-109395000D02*
X118415000Y-109395000D01*
X118415000Y-109395000D02*
X118415000Y-113000000D01*
X93000000Y-104500000D02*
G75*
G02X94000000Y-103500000I1000000J0D01*
G01*
X107000000Y-108600000D02*
G75*
G02X106000000Y-109600000I-1000000J0D01*
G01*
X94000000Y-109600000D02*
G75*
G02X93000000Y-108600000I0J1000000D01*
G01*
X106000000Y-103500000D02*
G75*
G02X107000000Y-104500000I0J-1000000D01*
G01*
X106000000Y-109600000D02*
X94000000Y-109600000D01*
X107000000Y-104500000D02*
X107000000Y-108600000D01*
X93000000Y-104500000D02*
X93000000Y-108600000D01*
X94000000Y-103500000D02*
X106000000Y-103500000D01*
X139005000Y-113000000D02*
X118415000Y-113000000D01*
X141005000Y-113000000D02*
X143000000Y-113000000D01*
X60995000Y-113000000D02*
X85665000Y-113000000D01*
X57000000Y-113000000D02*
X58995000Y-113000000D01*
X60995000Y-108000000D02*
X60995000Y-113000000D01*
X58995000Y-108000000D02*
X58995000Y-113000000D01*
X58995000Y-108000000D02*
G75*
G02X60995000Y-108000000I1000000J0D01*
G01*
X141005000Y-108000000D02*
X141005000Y-113000000D01*
X139005000Y-108000000D02*
X139005000Y-113000000D01*
X139005000Y-108000000D02*
G75*
G02X141005000Y-108000000I1000000J0D01*
G01*
X87665000Y-113000000D02*
X112335000Y-113000000D01*
X85665000Y-108000000D02*
X85665000Y-113000000D01*
X87665000Y-108000000D02*
X87665000Y-113000000D01*
X87665000Y-108000000D02*
G75*
G03X85665000Y-108000000I-1000000J0D01*
G01*
X114335000Y-108000000D02*
X114335000Y-109395000D01*
X112335000Y-108000000D02*
X112335000Y-113000000D01*
X112335000Y-108000000D02*
G75*
G02X114335000Y-108000000I1000000J0D01*
G01*
X100000000Y-100500000D02*
X119670000Y-100500000D01*
X143000000Y-100500000D02*
X133670000Y-100500000D01*
X120574000Y-101397000D02*
X119670000Y-100500000D01*
X133670000Y-100500000D02*
X132766000Y-101397000D01*
X132766000Y-101397000D02*
X120574000Y-101397000D01*
X79426000Y-101397000D02*
X80330000Y-100500000D01*
X66330000Y-100500000D02*
X67234000Y-101397000D01*
X100000000Y-100500000D02*
X80330000Y-100500000D01*
X57000000Y-100500000D02*
X66330000Y-100500000D01*
X67234000Y-101397000D02*
X79426000Y-101397000D01*
X143000000Y-113000000D02*
X143000000Y-106500000D01*
X57000000Y-106500000D02*
X57000000Y-113000000D01*
M02*
