%TF.GenerationSoftware,KiCad,Pcbnew,5.1.9+dfsg1-1*%
%TF.CreationDate,2021-10-27T13:30:13+02:00*%
%TF.ProjectId,EF44,45463434-2e6b-4696-9361-645f70636258,rev?*%
%TF.SameCoordinates,Original*%
%TF.FileFunction,Legend,Top*%
%TF.FilePolarity,Positive*%
%FSLAX46Y46*%
G04 Gerber Fmt 4.6, Leading zero omitted, Abs format (unit mm)*
G04 Created by KiCad (PCBNEW 5.1.9+dfsg1-1) date 2021-10-27 13:30:13*
%MOMM*%
%LPD*%
G01*
G04 APERTURE LIST*
%ADD10C,0.120000*%
%ADD11C,0.250000*%
%ADD12C,0.150000*%
%ADD13C,0.500000*%
%ADD14C,0.100000*%
G04 APERTURE END LIST*
D10*
X71000000Y-71500000D02*
X75000000Y-71500000D01*
X103750000Y-83000000D02*
X103750000Y-85250000D01*
X101750000Y-83000000D02*
X103750000Y-83000000D01*
X97700000Y-127600000D02*
X96600000Y-127600000D01*
X96900000Y-127900000D02*
X96600000Y-127600000D01*
X96900000Y-127300000D02*
X96900000Y-127900000D01*
X96600000Y-127600000D02*
X96900000Y-127300000D01*
X96800000Y-123400000D02*
X96500000Y-123100000D01*
X96800000Y-122800000D02*
X96800000Y-123400000D01*
X96500000Y-123100000D02*
X96800000Y-122800000D01*
X97600000Y-123100000D02*
X96500000Y-123100000D01*
D11*
X98438095Y-122277380D02*
X98438095Y-123086904D01*
X98485714Y-123182142D01*
X98533333Y-123229761D01*
X98628571Y-123277380D01*
X98819047Y-123277380D01*
X98914285Y-123229761D01*
X98961904Y-123182142D01*
X99009523Y-123086904D01*
X99009523Y-122277380D01*
X99438095Y-123229761D02*
X99580952Y-123277380D01*
X99819047Y-123277380D01*
X99914285Y-123229761D01*
X99961904Y-123182142D01*
X100009523Y-123086904D01*
X100009523Y-122991666D01*
X99961904Y-122896428D01*
X99914285Y-122848809D01*
X99819047Y-122801190D01*
X99628571Y-122753571D01*
X99533333Y-122705952D01*
X99485714Y-122658333D01*
X99438095Y-122563095D01*
X99438095Y-122467857D01*
X99485714Y-122372619D01*
X99533333Y-122325000D01*
X99628571Y-122277380D01*
X99866666Y-122277380D01*
X100009523Y-122325000D01*
X100771428Y-122753571D02*
X100914285Y-122801190D01*
X100961904Y-122848809D01*
X101009523Y-122944047D01*
X101009523Y-123086904D01*
X100961904Y-123182142D01*
X100914285Y-123229761D01*
X100819047Y-123277380D01*
X100438095Y-123277380D01*
X100438095Y-122277380D01*
X100771428Y-122277380D01*
X100866666Y-122325000D01*
X100914285Y-122372619D01*
X100961904Y-122467857D01*
X100961904Y-122563095D01*
X100914285Y-122658333D01*
X100866666Y-122705952D01*
X100771428Y-122753571D01*
X100438095Y-122753571D01*
X99080952Y-125027380D02*
X98747619Y-124551190D01*
X98509523Y-125027380D02*
X98509523Y-124027380D01*
X98890476Y-124027380D01*
X98985714Y-124075000D01*
X99033333Y-124122619D01*
X99080952Y-124217857D01*
X99080952Y-124360714D01*
X99033333Y-124455952D01*
X98985714Y-124503571D01*
X98890476Y-124551190D01*
X98509523Y-124551190D01*
X99509523Y-124503571D02*
X99842857Y-124503571D01*
X99985714Y-125027380D02*
X99509523Y-125027380D01*
X99509523Y-124027380D01*
X99985714Y-124027380D01*
X100366666Y-124979761D02*
X100509523Y-125027380D01*
X100747619Y-125027380D01*
X100842857Y-124979761D01*
X100890476Y-124932142D01*
X100938095Y-124836904D01*
X100938095Y-124741666D01*
X100890476Y-124646428D01*
X100842857Y-124598809D01*
X100747619Y-124551190D01*
X100557142Y-124503571D01*
X100461904Y-124455952D01*
X100414285Y-124408333D01*
X100366666Y-124313095D01*
X100366666Y-124217857D01*
X100414285Y-124122619D01*
X100461904Y-124075000D01*
X100557142Y-124027380D01*
X100795238Y-124027380D01*
X100938095Y-124075000D01*
X98690476Y-128177380D02*
X98690476Y-127177380D01*
X99261904Y-128177380D01*
X99261904Y-127177380D01*
X99928571Y-127177380D02*
X100119047Y-127177380D01*
X100214285Y-127225000D01*
X100309523Y-127320238D01*
X100357142Y-127510714D01*
X100357142Y-127844047D01*
X100309523Y-128034523D01*
X100214285Y-128129761D01*
X100119047Y-128177380D01*
X99928571Y-128177380D01*
X99833333Y-128129761D01*
X99738095Y-128034523D01*
X99690476Y-127844047D01*
X99690476Y-127510714D01*
X99738095Y-127320238D01*
X99833333Y-127225000D01*
X99928571Y-127177380D01*
X98404761Y-129927380D02*
X98404761Y-128927380D01*
X98642857Y-128927380D01*
X98785714Y-128975000D01*
X98880952Y-129070238D01*
X98928571Y-129165476D01*
X98976190Y-129355952D01*
X98976190Y-129498809D01*
X98928571Y-129689285D01*
X98880952Y-129784523D01*
X98785714Y-129879761D01*
X98642857Y-129927380D01*
X98404761Y-129927380D01*
X99404761Y-129403571D02*
X99738095Y-129403571D01*
X99880952Y-129927380D02*
X99404761Y-129927380D01*
X99404761Y-128927380D01*
X99880952Y-128927380D01*
X100166666Y-128927380D02*
X100738095Y-128927380D01*
X100452380Y-129927380D02*
X100452380Y-128927380D01*
D12*
X67287976Y-64904761D02*
X67383214Y-64952380D01*
X67573690Y-64952380D01*
X67668928Y-64904761D01*
X67716547Y-64809523D01*
X67716547Y-64761904D01*
X67668928Y-64666666D01*
X67573690Y-64619047D01*
X67430833Y-64619047D01*
X67335595Y-64571428D01*
X67287976Y-64476190D01*
X67287976Y-64428571D01*
X67335595Y-64333333D01*
X67430833Y-64285714D01*
X67573690Y-64285714D01*
X67668928Y-64333333D01*
X68145119Y-64952380D02*
X68145119Y-64285714D01*
X68145119Y-64380952D02*
X68192738Y-64333333D01*
X68287976Y-64285714D01*
X68430833Y-64285714D01*
X68526071Y-64333333D01*
X68573690Y-64428571D01*
X68573690Y-64952380D01*
X68573690Y-64428571D02*
X68621309Y-64333333D01*
X68716547Y-64285714D01*
X68859404Y-64285714D01*
X68954642Y-64333333D01*
X69002261Y-64428571D01*
X69002261Y-64952380D01*
X69335595Y-64285714D02*
X69716547Y-64285714D01*
X69478452Y-63952380D02*
X69478452Y-64809523D01*
X69526071Y-64904761D01*
X69621309Y-64952380D01*
X69716547Y-64952380D01*
X70478452Y-64952380D02*
X70478452Y-64428571D01*
X70430833Y-64333333D01*
X70335595Y-64285714D01*
X70145119Y-64285714D01*
X70049880Y-64333333D01*
X70478452Y-64904761D02*
X70383214Y-64952380D01*
X70145119Y-64952380D01*
X70049880Y-64904761D01*
X70002261Y-64809523D01*
X70002261Y-64714285D01*
X70049880Y-64619047D01*
X70145119Y-64571428D01*
X70383214Y-64571428D01*
X70478452Y-64523809D01*
X67764166Y-70285714D02*
X67764166Y-70952380D01*
X67335595Y-70285714D02*
X67335595Y-70809523D01*
X67383214Y-70904761D01*
X67478452Y-70952380D01*
X67621309Y-70952380D01*
X67716547Y-70904761D01*
X67764166Y-70857142D01*
X68192738Y-70904761D02*
X68287976Y-70952380D01*
X68478452Y-70952380D01*
X68573690Y-70904761D01*
X68621309Y-70809523D01*
X68621309Y-70761904D01*
X68573690Y-70666666D01*
X68478452Y-70619047D01*
X68335595Y-70619047D01*
X68240357Y-70571428D01*
X68192738Y-70476190D01*
X68192738Y-70428571D01*
X68240357Y-70333333D01*
X68335595Y-70285714D01*
X68478452Y-70285714D01*
X68573690Y-70333333D01*
X69430833Y-70904761D02*
X69335595Y-70952380D01*
X69145119Y-70952380D01*
X69049880Y-70904761D01*
X69002261Y-70809523D01*
X69002261Y-70428571D01*
X69049880Y-70333333D01*
X69145119Y-70285714D01*
X69335595Y-70285714D01*
X69430833Y-70333333D01*
X69478452Y-70428571D01*
X69478452Y-70523809D01*
X69002261Y-70619047D01*
X69907023Y-70952380D02*
X69907023Y-70285714D01*
X69907023Y-70476190D02*
X69954642Y-70380952D01*
X70002261Y-70333333D01*
X70097500Y-70285714D01*
X70192738Y-70285714D01*
X67335595Y-68285714D02*
X67335595Y-69285714D01*
X67335595Y-68333333D02*
X67430833Y-68285714D01*
X67621309Y-68285714D01*
X67716547Y-68333333D01*
X67764166Y-68380952D01*
X67811785Y-68476190D01*
X67811785Y-68761904D01*
X67764166Y-68857142D01*
X67716547Y-68904761D01*
X67621309Y-68952380D01*
X67430833Y-68952380D01*
X67335595Y-68904761D01*
X68383214Y-68952380D02*
X68287976Y-68904761D01*
X68240357Y-68857142D01*
X68192738Y-68761904D01*
X68192738Y-68476190D01*
X68240357Y-68380952D01*
X68287976Y-68333333D01*
X68383214Y-68285714D01*
X68526071Y-68285714D01*
X68621309Y-68333333D01*
X68668928Y-68380952D01*
X68716547Y-68476190D01*
X68716547Y-68761904D01*
X68668928Y-68857142D01*
X68621309Y-68904761D01*
X68526071Y-68952380D01*
X68383214Y-68952380D01*
X69145119Y-68952380D02*
X69145119Y-68285714D01*
X69145119Y-68476190D02*
X69192738Y-68380952D01*
X69240357Y-68333333D01*
X69335595Y-68285714D01*
X69430833Y-68285714D01*
X69621309Y-68285714D02*
X70002261Y-68285714D01*
X69764166Y-67952380D02*
X69764166Y-68809523D01*
X69811785Y-68904761D01*
X69907023Y-68952380D01*
X70002261Y-68952380D01*
X74142857Y-62428571D02*
X73809523Y-62428571D01*
X73809523Y-62952380D02*
X73809523Y-61952380D01*
X74285714Y-61952380D01*
X78309523Y-62952380D02*
X77976190Y-62476190D01*
X77738095Y-62952380D02*
X77738095Y-61952380D01*
X78119047Y-61952380D01*
X78214285Y-62000000D01*
X78261904Y-62047619D01*
X78309523Y-62142857D01*
X78309523Y-62285714D01*
X78261904Y-62380952D01*
X78214285Y-62428571D01*
X78119047Y-62476190D01*
X77738095Y-62476190D01*
X71738095Y-62952380D02*
X71738095Y-61952380D01*
X72119047Y-61952380D01*
X72214285Y-62000000D01*
X72261904Y-62047619D01*
X72309523Y-62142857D01*
X72309523Y-62285714D01*
X72261904Y-62380952D01*
X72214285Y-62428571D01*
X72119047Y-62476190D01*
X71738095Y-62476190D01*
X67335595Y-66952380D02*
X67335595Y-65952380D01*
X67335595Y-66333333D02*
X67430833Y-66285714D01*
X67621309Y-66285714D01*
X67716547Y-66333333D01*
X67764166Y-66380952D01*
X67811785Y-66476190D01*
X67811785Y-66761904D01*
X67764166Y-66857142D01*
X67716547Y-66904761D01*
X67621309Y-66952380D01*
X67430833Y-66952380D01*
X67335595Y-66904761D01*
X68383214Y-66952380D02*
X68287976Y-66904761D01*
X68240357Y-66857142D01*
X68192738Y-66761904D01*
X68192738Y-66476190D01*
X68240357Y-66380952D01*
X68287976Y-66333333D01*
X68383214Y-66285714D01*
X68526071Y-66285714D01*
X68621309Y-66333333D01*
X68668928Y-66380952D01*
X68716547Y-66476190D01*
X68716547Y-66761904D01*
X68668928Y-66857142D01*
X68621309Y-66904761D01*
X68526071Y-66952380D01*
X68383214Y-66952380D01*
X69287976Y-66952380D02*
X69192738Y-66904761D01*
X69145119Y-66857142D01*
X69097500Y-66761904D01*
X69097500Y-66476190D01*
X69145119Y-66380952D01*
X69192738Y-66333333D01*
X69287976Y-66285714D01*
X69430833Y-66285714D01*
X69526071Y-66333333D01*
X69573690Y-66380952D01*
X69621309Y-66476190D01*
X69621309Y-66761904D01*
X69573690Y-66857142D01*
X69526071Y-66904761D01*
X69430833Y-66952380D01*
X69287976Y-66952380D01*
X69907023Y-66285714D02*
X70287976Y-66285714D01*
X70049880Y-65952380D02*
X70049880Y-66809523D01*
X70097500Y-66904761D01*
X70192738Y-66952380D01*
X70287976Y-66952380D01*
X121287976Y-66904761D02*
X121383214Y-66952380D01*
X121573690Y-66952380D01*
X121668928Y-66904761D01*
X121716547Y-66809523D01*
X121716547Y-66761904D01*
X121668928Y-66666666D01*
X121573690Y-66619047D01*
X121430833Y-66619047D01*
X121335595Y-66571428D01*
X121287976Y-66476190D01*
X121287976Y-66428571D01*
X121335595Y-66333333D01*
X121430833Y-66285714D01*
X121573690Y-66285714D01*
X121668928Y-66333333D01*
X122859404Y-65904761D02*
X122002261Y-67190476D01*
X123192738Y-66285714D02*
X123192738Y-66952380D01*
X123192738Y-66380952D02*
X123240357Y-66333333D01*
X123335595Y-66285714D01*
X123478452Y-66285714D01*
X123573690Y-66333333D01*
X123621309Y-66428571D01*
X123621309Y-66952380D01*
X121192738Y-64285714D02*
X121573690Y-64285714D01*
X121335595Y-63952380D02*
X121335595Y-64809523D01*
X121383214Y-64904761D01*
X121478452Y-64952380D01*
X121573690Y-64952380D01*
X121811785Y-64285714D02*
X122049880Y-64952380D01*
X122287976Y-64285714D02*
X122049880Y-64952380D01*
X121954642Y-65190476D01*
X121907023Y-65238095D01*
X121811785Y-65285714D01*
X122668928Y-64285714D02*
X122668928Y-65285714D01*
X122668928Y-64333333D02*
X122764166Y-64285714D01*
X122954642Y-64285714D01*
X123049880Y-64333333D01*
X123097500Y-64380952D01*
X123145119Y-64476190D01*
X123145119Y-64761904D01*
X123097500Y-64857142D01*
X123049880Y-64904761D01*
X122954642Y-64952380D01*
X122764166Y-64952380D01*
X122668928Y-64904761D01*
X123954642Y-64904761D02*
X123859404Y-64952380D01*
X123668928Y-64952380D01*
X123573690Y-64904761D01*
X123526071Y-64809523D01*
X123526071Y-64428571D01*
X123573690Y-64333333D01*
X123668928Y-64285714D01*
X123859404Y-64285714D01*
X123954642Y-64333333D01*
X124002261Y-64428571D01*
X124002261Y-64523809D01*
X123526071Y-64619047D01*
X124904761Y-62428571D02*
X125238095Y-62428571D01*
X125380952Y-62952380D02*
X124904761Y-62952380D01*
X124904761Y-61952380D01*
X125380952Y-61952380D01*
X126142857Y-62428571D02*
X125809523Y-62428571D01*
X125809523Y-62952380D02*
X125809523Y-61952380D01*
X126285714Y-61952380D01*
X127095238Y-62285714D02*
X127095238Y-62952380D01*
X126857142Y-61904761D02*
X126619047Y-62619047D01*
X127238095Y-62619047D01*
X128047619Y-62285714D02*
X128047619Y-62952380D01*
X127809523Y-61904761D02*
X127571428Y-62619047D01*
X128190476Y-62619047D01*
X121335595Y-68952380D02*
X121335595Y-67952380D01*
X121335595Y-68333333D02*
X121430833Y-68285714D01*
X121621309Y-68285714D01*
X121716547Y-68333333D01*
X121764166Y-68380952D01*
X121811785Y-68476190D01*
X121811785Y-68761904D01*
X121764166Y-68857142D01*
X121716547Y-68904761D01*
X121621309Y-68952380D01*
X121430833Y-68952380D01*
X121335595Y-68904761D01*
X122668928Y-68952380D02*
X122668928Y-68428571D01*
X122621309Y-68333333D01*
X122526071Y-68285714D01*
X122335595Y-68285714D01*
X122240357Y-68333333D01*
X122668928Y-68904761D02*
X122573690Y-68952380D01*
X122335595Y-68952380D01*
X122240357Y-68904761D01*
X122192738Y-68809523D01*
X122192738Y-68714285D01*
X122240357Y-68619047D01*
X122335595Y-68571428D01*
X122573690Y-68571428D01*
X122668928Y-68523809D01*
X123002261Y-68285714D02*
X123383214Y-68285714D01*
X123145119Y-67952380D02*
X123145119Y-68809523D01*
X123192738Y-68904761D01*
X123287976Y-68952380D01*
X123383214Y-68952380D01*
X124145119Y-68904761D02*
X124049880Y-68952380D01*
X123859404Y-68952380D01*
X123764166Y-68904761D01*
X123716547Y-68857142D01*
X123668928Y-68761904D01*
X123668928Y-68476190D01*
X123716547Y-68380952D01*
X123764166Y-68333333D01*
X123859404Y-68285714D01*
X124049880Y-68285714D01*
X124145119Y-68333333D01*
X124573690Y-68952380D02*
X124573690Y-67952380D01*
X125002261Y-68952380D02*
X125002261Y-68428571D01*
X124954642Y-68333333D01*
X124859404Y-68285714D01*
X124716547Y-68285714D01*
X124621309Y-68333333D01*
X124573690Y-68380952D01*
X121764166Y-70285714D02*
X121764166Y-71285714D01*
X121764166Y-70904761D02*
X121668928Y-70952380D01*
X121478452Y-70952380D01*
X121383214Y-70904761D01*
X121335595Y-70857142D01*
X121287976Y-70761904D01*
X121287976Y-70476190D01*
X121335595Y-70380952D01*
X121383214Y-70333333D01*
X121478452Y-70285714D01*
X121668928Y-70285714D01*
X121764166Y-70333333D01*
X122668928Y-70285714D02*
X122668928Y-70952380D01*
X122240357Y-70285714D02*
X122240357Y-70809523D01*
X122287976Y-70904761D01*
X122383214Y-70952380D01*
X122526071Y-70952380D01*
X122621309Y-70904761D01*
X122668928Y-70857142D01*
X123573690Y-70952380D02*
X123573690Y-70428571D01*
X123526071Y-70333333D01*
X123430833Y-70285714D01*
X123240357Y-70285714D01*
X123145119Y-70333333D01*
X123573690Y-70904761D02*
X123478452Y-70952380D01*
X123240357Y-70952380D01*
X123145119Y-70904761D01*
X123097500Y-70809523D01*
X123097500Y-70714285D01*
X123145119Y-70619047D01*
X123240357Y-70571428D01*
X123478452Y-70571428D01*
X123573690Y-70523809D01*
X124192738Y-70952380D02*
X124097500Y-70904761D01*
X124049880Y-70809523D01*
X124049880Y-69952380D01*
X124573690Y-70952380D02*
X124573690Y-70285714D01*
X124573690Y-69952380D02*
X124526071Y-70000000D01*
X124573690Y-70047619D01*
X124621309Y-70000000D01*
X124573690Y-69952380D01*
X124573690Y-70047619D01*
X124907023Y-70285714D02*
X125287976Y-70285714D01*
X125049880Y-69952380D02*
X125049880Y-70809523D01*
X125097500Y-70904761D01*
X125192738Y-70952380D01*
X125287976Y-70952380D01*
X125526071Y-70285714D02*
X125764166Y-70952380D01*
X126002261Y-70285714D02*
X125764166Y-70952380D01*
X125668928Y-71190476D01*
X125621309Y-71238095D01*
X125526071Y-71285714D01*
D10*
X71000000Y-63500000D02*
X71000000Y-65500000D01*
X71000000Y-67500000D02*
X73000000Y-67500000D01*
X73000000Y-65500000D02*
X73000000Y-63500000D01*
X73000000Y-63500000D02*
X71000000Y-63500000D01*
X75000000Y-63500000D02*
X73000000Y-63500000D01*
X73000000Y-63500000D02*
X73000000Y-65500000D01*
X73000000Y-67500000D02*
X75000000Y-67500000D01*
X75000000Y-65500000D02*
X75000000Y-63500000D01*
X79000000Y-63500000D02*
X77000000Y-63500000D01*
X77000000Y-63500000D02*
X77000000Y-65500000D01*
X79000000Y-65500000D02*
X79000000Y-63500000D01*
X75000000Y-67500000D02*
X75000000Y-69500000D01*
X75000000Y-69500000D02*
X75000000Y-67500000D01*
X73000000Y-69500000D02*
X75000000Y-69500000D01*
X73000000Y-67500000D02*
X73000000Y-69500000D01*
X73000000Y-67500000D02*
X71000000Y-67500000D01*
X71000000Y-67500000D02*
X71000000Y-69500000D01*
X71000000Y-69500000D02*
X73000000Y-69500000D01*
X73000000Y-69500000D02*
X73000000Y-67500000D01*
X75000000Y-67500000D02*
X73000000Y-67500000D01*
X75000000Y-69500000D02*
X75000000Y-71500000D01*
X75000000Y-71500000D02*
X75000000Y-69500000D01*
X73000000Y-69500000D02*
X73000000Y-71500000D01*
X73000000Y-69500000D02*
X71000000Y-69500000D01*
X71000000Y-69500000D02*
X71000000Y-71500000D01*
X73000000Y-71500000D02*
X73000000Y-69500000D01*
X75000000Y-69500000D02*
X73000000Y-69500000D01*
X73000000Y-65500000D02*
X73000000Y-67500000D01*
X73000000Y-67500000D02*
X75000000Y-67500000D01*
X75000000Y-67500000D02*
X73000000Y-67500000D01*
X73000000Y-67500000D02*
X71000000Y-67500000D01*
X75000000Y-65500000D02*
X73000000Y-65500000D01*
X73000000Y-67500000D02*
X73000000Y-65500000D01*
X71000000Y-67500000D02*
X73000000Y-67500000D01*
X71000000Y-65500000D02*
X71000000Y-67500000D01*
X73000000Y-65500000D02*
X71000000Y-65500000D01*
X75000000Y-67500000D02*
X75000000Y-65500000D01*
X75000000Y-65500000D02*
X75000000Y-67500000D01*
X77000000Y-65500000D02*
X79000000Y-65500000D01*
X73000000Y-65500000D02*
X75000000Y-65500000D01*
X71000000Y-65500000D02*
X73000000Y-65500000D01*
X124500000Y-65500000D02*
X124500000Y-63500000D01*
X124500000Y-63500000D02*
X128500000Y-63500000D01*
X128500000Y-63500000D02*
X128500000Y-65500000D01*
X126500000Y-65500000D02*
X124500000Y-65500000D01*
X128500000Y-65500000D02*
X126500000Y-65500000D01*
X128500000Y-69500000D02*
X130500000Y-69500000D01*
X128500000Y-67500000D02*
X128500000Y-69500000D01*
X130500000Y-69500000D02*
X130500000Y-67500000D01*
X127000000Y-68500000D02*
X128000000Y-68500000D01*
X128500000Y-69500000D02*
X126500000Y-69500000D01*
X128500000Y-67500000D02*
X128500000Y-69500000D01*
X128500000Y-69500000D02*
X128500000Y-67500000D01*
X130500000Y-69500000D02*
X128500000Y-69500000D01*
X130500000Y-67500000D02*
X130500000Y-69500000D01*
X126500000Y-69500000D02*
X128500000Y-69500000D01*
X126500000Y-67500000D02*
X126500000Y-69500000D01*
X130500000Y-67500000D02*
X132500000Y-67500000D01*
X130500000Y-65500000D02*
X132500000Y-65500000D01*
X130500000Y-65500000D02*
X130500000Y-67500000D01*
X132500000Y-67500000D02*
X132500000Y-65500000D01*
X132500000Y-67500000D02*
X130500000Y-67500000D01*
X130500000Y-67500000D02*
X130500000Y-65500000D01*
X132500000Y-65500000D02*
X130500000Y-65500000D01*
X132500000Y-67500000D02*
X132500000Y-69500000D01*
X132500000Y-69500000D02*
X130500000Y-69500000D01*
X128500000Y-67500000D02*
X126500000Y-67500000D01*
X132500000Y-69500000D02*
X132500000Y-67500000D01*
X130500000Y-69500000D02*
X132500000Y-69500000D01*
X126500000Y-67500000D02*
X124500000Y-67500000D01*
X130500000Y-67500000D02*
X128500000Y-67500000D01*
X130500000Y-67500000D02*
X130500000Y-65500000D01*
X128500000Y-67500000D02*
X130500000Y-67500000D01*
X128500000Y-65500000D02*
X128500000Y-67500000D01*
X130500000Y-65500000D02*
X128500000Y-65500000D01*
X128500000Y-67500000D02*
X128500000Y-65500000D01*
X126500000Y-67500000D02*
X128500000Y-67500000D01*
X130500000Y-67500000D02*
X130500000Y-69500000D01*
X126500000Y-65500000D02*
X126500000Y-67500000D01*
X124500000Y-65500000D02*
X124500000Y-67500000D01*
X124500000Y-67500000D02*
X126500000Y-67500000D01*
X126500000Y-67500000D02*
X126500000Y-65500000D01*
X128500000Y-65500000D02*
X126500000Y-65500000D01*
X126500000Y-65500000D02*
X124500000Y-65500000D01*
X128500000Y-71500000D02*
X126500000Y-71500000D01*
X130500000Y-71500000D02*
X128500000Y-71500000D01*
X132500000Y-71500000D02*
X128500000Y-71500000D01*
X77000000Y-71500000D02*
X79000000Y-71500000D01*
X132500000Y-69500000D02*
X132500000Y-71500000D01*
X126500000Y-69500000D02*
X130500000Y-69500000D01*
X126500000Y-71500000D02*
X126500000Y-69500000D01*
X79000000Y-67500000D02*
X79000000Y-65500000D01*
X77000000Y-65500000D02*
X77000000Y-67500000D01*
X79000000Y-65500000D02*
X77000000Y-65500000D01*
X77000000Y-67500000D02*
X79000000Y-67500000D01*
X79000000Y-69500000D02*
X79000000Y-67500000D01*
X77000000Y-67500000D02*
X77000000Y-69500000D01*
X79000000Y-67500000D02*
X77000000Y-67500000D01*
X77000000Y-69500000D02*
X79000000Y-69500000D01*
X79000000Y-71500000D02*
X79000000Y-69500000D01*
X77000000Y-69500000D02*
X77000000Y-71500000D01*
X79000000Y-69500000D02*
X77000000Y-69500000D01*
X128500000Y-71500000D02*
X126500000Y-71500000D01*
D12*
X98738095Y-59574380D02*
X98738095Y-60383904D01*
X98785714Y-60479142D01*
X98833333Y-60526761D01*
X98928571Y-60574380D01*
X99119047Y-60574380D01*
X99214285Y-60526761D01*
X99261904Y-60479142D01*
X99309523Y-60383904D01*
X99309523Y-59574380D01*
X99738095Y-60526761D02*
X99880952Y-60574380D01*
X100119047Y-60574380D01*
X100214285Y-60526761D01*
X100261904Y-60479142D01*
X100309523Y-60383904D01*
X100309523Y-60288666D01*
X100261904Y-60193428D01*
X100214285Y-60145809D01*
X100119047Y-60098190D01*
X99928571Y-60050571D01*
X99833333Y-60002952D01*
X99785714Y-59955333D01*
X99738095Y-59860095D01*
X99738095Y-59764857D01*
X99785714Y-59669619D01*
X99833333Y-59622000D01*
X99928571Y-59574380D01*
X100166666Y-59574380D01*
X100309523Y-59622000D01*
X101071428Y-60050571D02*
X101214285Y-60098190D01*
X101261904Y-60145809D01*
X101309523Y-60241047D01*
X101309523Y-60383904D01*
X101261904Y-60479142D01*
X101214285Y-60526761D01*
X101119047Y-60574380D01*
X100738095Y-60574380D01*
X100738095Y-59574380D01*
X101071428Y-59574380D01*
X101166666Y-59622000D01*
X101214285Y-59669619D01*
X101261904Y-59764857D01*
X101261904Y-59860095D01*
X101214285Y-59955333D01*
X101166666Y-60002952D01*
X101071428Y-60050571D01*
X100738095Y-60050571D01*
X97761904Y-82452380D02*
X97761904Y-81452380D01*
X98000000Y-81452380D01*
X98142857Y-81500000D01*
X98238095Y-81595238D01*
X98285714Y-81690476D01*
X98333333Y-81880952D01*
X98333333Y-82023809D01*
X98285714Y-82214285D01*
X98238095Y-82309523D01*
X98142857Y-82404761D01*
X98000000Y-82452380D01*
X97761904Y-82452380D01*
X98761904Y-81928571D02*
X99095238Y-81928571D01*
X99238095Y-82452380D02*
X98761904Y-82452380D01*
X98761904Y-81452380D01*
X99238095Y-81452380D01*
X100000000Y-81928571D02*
X100142857Y-81976190D01*
X100190476Y-82023809D01*
X100238095Y-82119047D01*
X100238095Y-82261904D01*
X100190476Y-82357142D01*
X100142857Y-82404761D01*
X100047619Y-82452380D01*
X99666666Y-82452380D01*
X99666666Y-81452380D01*
X100000000Y-81452380D01*
X100095238Y-81500000D01*
X100142857Y-81547619D01*
X100190476Y-81642857D01*
X100190476Y-81738095D01*
X100142857Y-81833333D01*
X100095238Y-81880952D01*
X100000000Y-81928571D01*
X99666666Y-81928571D01*
X100666666Y-81452380D02*
X100666666Y-82261904D01*
X100714285Y-82357142D01*
X100761904Y-82404761D01*
X100857142Y-82452380D01*
X101047619Y-82452380D01*
X101142857Y-82404761D01*
X101190476Y-82357142D01*
X101238095Y-82261904D01*
X101238095Y-81452380D01*
X102238095Y-81500000D02*
X102142857Y-81452380D01*
X102000000Y-81452380D01*
X101857142Y-81500000D01*
X101761904Y-81595238D01*
X101714285Y-81690476D01*
X101666666Y-81880952D01*
X101666666Y-82023809D01*
X101714285Y-82214285D01*
X101761904Y-82309523D01*
X101857142Y-82404761D01*
X102000000Y-82452380D01*
X102095238Y-82452380D01*
X102238095Y-82404761D01*
X102285714Y-82357142D01*
X102285714Y-82023809D01*
X102095238Y-82023809D01*
X98738095Y-143632380D02*
X98738095Y-142632380D01*
X99071428Y-143346666D01*
X99404761Y-142632380D01*
X99404761Y-143632380D01*
X99833333Y-143346666D02*
X100309523Y-143346666D01*
X99738095Y-143632380D02*
X100071428Y-142632380D01*
X100404761Y-143632380D01*
X100738095Y-143632380D02*
X100738095Y-142632380D01*
X101119047Y-142632380D01*
X101214285Y-142680000D01*
X101261904Y-142727619D01*
X101309523Y-142822857D01*
X101309523Y-142965714D01*
X101261904Y-143060952D01*
X101214285Y-143108571D01*
X101119047Y-143156190D01*
X100738095Y-143156190D01*
X98642857Y-90800380D02*
X98642857Y-89800380D01*
X98976190Y-90514666D01*
X99309523Y-89800380D01*
X99309523Y-90800380D01*
X100357142Y-90705142D02*
X100309523Y-90752761D01*
X100166666Y-90800380D01*
X100071428Y-90800380D01*
X99928571Y-90752761D01*
X99833333Y-90657523D01*
X99785714Y-90562285D01*
X99738095Y-90371809D01*
X99738095Y-90228952D01*
X99785714Y-90038476D01*
X99833333Y-89943238D01*
X99928571Y-89848000D01*
X100071428Y-89800380D01*
X100166666Y-89800380D01*
X100309523Y-89848000D01*
X100357142Y-89895619D01*
X100785714Y-89800380D02*
X100785714Y-90609904D01*
X100833333Y-90705142D01*
X100880952Y-90752761D01*
X100976190Y-90800380D01*
X101166666Y-90800380D01*
X101261904Y-90752761D01*
X101309523Y-90705142D01*
X101357142Y-90609904D01*
X101357142Y-89800380D01*
D11*
X95214285Y-133327380D02*
X95214285Y-132327380D01*
X95690476Y-132660714D02*
X95690476Y-133327380D01*
X95690476Y-132755952D02*
X95738095Y-132708333D01*
X95833333Y-132660714D01*
X95976190Y-132660714D01*
X96071428Y-132708333D01*
X96119047Y-132803571D01*
X96119047Y-133327380D01*
X96452380Y-132660714D02*
X96833333Y-132660714D01*
X96595238Y-132327380D02*
X96595238Y-133184523D01*
X96642857Y-133279761D01*
X96738095Y-133327380D01*
X96833333Y-133327380D01*
X97547619Y-133279761D02*
X97452380Y-133327380D01*
X97261904Y-133327380D01*
X97166666Y-133279761D01*
X97119047Y-133184523D01*
X97119047Y-132803571D01*
X97166666Y-132708333D01*
X97261904Y-132660714D01*
X97452380Y-132660714D01*
X97547619Y-132708333D01*
X97595238Y-132803571D01*
X97595238Y-132898809D01*
X97119047Y-132994047D01*
X98452380Y-133279761D02*
X98357142Y-133327380D01*
X98166666Y-133327380D01*
X98071428Y-133279761D01*
X98023809Y-133232142D01*
X97976190Y-133136904D01*
X97976190Y-132851190D01*
X98023809Y-132755952D01*
X98071428Y-132708333D01*
X98166666Y-132660714D01*
X98357142Y-132660714D01*
X98452380Y-132708333D01*
X98880952Y-133327380D02*
X98880952Y-132327380D01*
X99309523Y-133327380D02*
X99309523Y-132803571D01*
X99261904Y-132708333D01*
X99166666Y-132660714D01*
X99023809Y-132660714D01*
X98928571Y-132708333D01*
X98880952Y-132755952D01*
X100500000Y-133279761D02*
X100642857Y-133327380D01*
X100880952Y-133327380D01*
X100976190Y-133279761D01*
X101023809Y-133232142D01*
X101071428Y-133136904D01*
X101071428Y-133041666D01*
X101023809Y-132946428D01*
X100976190Y-132898809D01*
X100880952Y-132851190D01*
X100690476Y-132803571D01*
X100595238Y-132755952D01*
X100547619Y-132708333D01*
X100500000Y-132613095D01*
X100500000Y-132517857D01*
X100547619Y-132422619D01*
X100595238Y-132375000D01*
X100690476Y-132327380D01*
X100928571Y-132327380D01*
X101071428Y-132375000D01*
X101357142Y-132660714D02*
X101738095Y-132660714D01*
X101500000Y-132327380D02*
X101500000Y-133184523D01*
X101547619Y-133279761D01*
X101642857Y-133327380D01*
X101738095Y-133327380D01*
X102500000Y-132660714D02*
X102500000Y-133327380D01*
X102071428Y-132660714D02*
X102071428Y-133184523D01*
X102119047Y-133279761D01*
X102214285Y-133327380D01*
X102357142Y-133327380D01*
X102452380Y-133279761D01*
X102500000Y-133232142D01*
X103404761Y-133327380D02*
X103404761Y-132327380D01*
X103404761Y-133279761D02*
X103309523Y-133327380D01*
X103119047Y-133327380D01*
X103023809Y-133279761D01*
X102976190Y-133232142D01*
X102928571Y-133136904D01*
X102928571Y-132851190D01*
X102976190Y-132755952D01*
X103023809Y-132708333D01*
X103119047Y-132660714D01*
X103309523Y-132660714D01*
X103404761Y-132708333D01*
X103880952Y-133327380D02*
X103880952Y-132660714D01*
X103880952Y-132327380D02*
X103833333Y-132375000D01*
X103880952Y-132422619D01*
X103928571Y-132375000D01*
X103880952Y-132327380D01*
X103880952Y-132422619D01*
X104500000Y-133327380D02*
X104404761Y-133279761D01*
X104357142Y-133232142D01*
X104309523Y-133136904D01*
X104309523Y-132851190D01*
X104357142Y-132755952D01*
X104404761Y-132708333D01*
X104500000Y-132660714D01*
X104642857Y-132660714D01*
X104738095Y-132708333D01*
X104785714Y-132755952D01*
X104833333Y-132851190D01*
X104833333Y-133136904D01*
X104785714Y-133232142D01*
X104738095Y-133279761D01*
X104642857Y-133327380D01*
X104500000Y-133327380D01*
X97047619Y-134125000D02*
X96952380Y-134077380D01*
X96809523Y-134077380D01*
X96666666Y-134125000D01*
X96571428Y-134220238D01*
X96523809Y-134315476D01*
X96476190Y-134505952D01*
X96476190Y-134648809D01*
X96523809Y-134839285D01*
X96571428Y-134934523D01*
X96666666Y-135029761D01*
X96809523Y-135077380D01*
X96904761Y-135077380D01*
X97047619Y-135029761D01*
X97095238Y-134982142D01*
X97095238Y-134648809D01*
X96904761Y-134648809D01*
X97523809Y-135077380D02*
X97523809Y-134410714D01*
X97523809Y-134601190D02*
X97571428Y-134505952D01*
X97619047Y-134458333D01*
X97714285Y-134410714D01*
X97809523Y-134410714D01*
X98142857Y-135077380D02*
X98142857Y-134410714D01*
X98142857Y-134077380D02*
X98095238Y-134125000D01*
X98142857Y-134172619D01*
X98190476Y-134125000D01*
X98142857Y-134077380D01*
X98142857Y-134172619D01*
X99047619Y-135077380D02*
X99047619Y-134077380D01*
X99047619Y-135029761D02*
X98952380Y-135077380D01*
X98761904Y-135077380D01*
X98666666Y-135029761D01*
X98619047Y-134982142D01*
X98571428Y-134886904D01*
X98571428Y-134601190D01*
X98619047Y-134505952D01*
X98666666Y-134458333D01*
X98761904Y-134410714D01*
X98952380Y-134410714D01*
X99047619Y-134458333D01*
X100285714Y-134553571D02*
X100619047Y-134553571D01*
X100761904Y-135077380D02*
X100285714Y-135077380D01*
X100285714Y-134077380D01*
X100761904Y-134077380D01*
X101523809Y-134553571D02*
X101190476Y-134553571D01*
X101190476Y-135077380D02*
X101190476Y-134077380D01*
X101666666Y-134077380D01*
X102476190Y-134410714D02*
X102476190Y-135077380D01*
X102238095Y-134029761D02*
X102000000Y-134744047D01*
X102619047Y-134744047D01*
X103428571Y-134410714D02*
X103428571Y-135077380D01*
X103190476Y-134029761D02*
X102952380Y-134744047D01*
X103571428Y-134744047D01*
X95285714Y-136827380D02*
X94952380Y-136351190D01*
X94714285Y-136827380D02*
X94714285Y-135827380D01*
X95095238Y-135827380D01*
X95190476Y-135875000D01*
X95238095Y-135922619D01*
X95285714Y-136017857D01*
X95285714Y-136160714D01*
X95238095Y-136255952D01*
X95190476Y-136303571D01*
X95095238Y-136351190D01*
X94714285Y-136351190D01*
X96095238Y-136779761D02*
X96000000Y-136827380D01*
X95809523Y-136827380D01*
X95714285Y-136779761D01*
X95666666Y-136684523D01*
X95666666Y-136303571D01*
X95714285Y-136208333D01*
X95809523Y-136160714D01*
X96000000Y-136160714D01*
X96095238Y-136208333D01*
X96142857Y-136303571D01*
X96142857Y-136398809D01*
X95666666Y-136494047D01*
X96476190Y-136160714D02*
X96714285Y-136827380D01*
X96952380Y-136160714D01*
X97333333Y-136303571D02*
X97666666Y-136303571D01*
X97809523Y-136827380D02*
X97333333Y-136827380D01*
X97333333Y-135827380D01*
X97809523Y-135827380D01*
X98952380Y-135922619D02*
X99000000Y-135875000D01*
X99095238Y-135827380D01*
X99333333Y-135827380D01*
X99428571Y-135875000D01*
X99476190Y-135922619D01*
X99523809Y-136017857D01*
X99523809Y-136113095D01*
X99476190Y-136255952D01*
X98904761Y-136827380D01*
X99523809Y-136827380D01*
X100142857Y-135827380D02*
X100238095Y-135827380D01*
X100333333Y-135875000D01*
X100380952Y-135922619D01*
X100428571Y-136017857D01*
X100476190Y-136208333D01*
X100476190Y-136446428D01*
X100428571Y-136636904D01*
X100380952Y-136732142D01*
X100333333Y-136779761D01*
X100238095Y-136827380D01*
X100142857Y-136827380D01*
X100047619Y-136779761D01*
X100000000Y-136732142D01*
X99952380Y-136636904D01*
X99904761Y-136446428D01*
X99904761Y-136208333D01*
X99952380Y-136017857D01*
X100000000Y-135922619D01*
X100047619Y-135875000D01*
X100142857Y-135827380D01*
X100857142Y-135922619D02*
X100904761Y-135875000D01*
X101000000Y-135827380D01*
X101238095Y-135827380D01*
X101333333Y-135875000D01*
X101380952Y-135922619D01*
X101428571Y-136017857D01*
X101428571Y-136113095D01*
X101380952Y-136255952D01*
X100809523Y-136827380D01*
X101428571Y-136827380D01*
X102380952Y-136827380D02*
X101809523Y-136827380D01*
X102095238Y-136827380D02*
X102095238Y-135827380D01*
X102000000Y-135970238D01*
X101904761Y-136065476D01*
X101809523Y-136113095D01*
X103523809Y-135779761D02*
X102666666Y-137065476D01*
X104380952Y-136827380D02*
X103809523Y-136827380D01*
X104095238Y-136827380D02*
X104095238Y-135827380D01*
X104000000Y-135970238D01*
X103904761Y-136065476D01*
X103809523Y-136113095D01*
X105000000Y-135827380D02*
X105095238Y-135827380D01*
X105190476Y-135875000D01*
X105238095Y-135922619D01*
X105285714Y-136017857D01*
X105333333Y-136208333D01*
X105333333Y-136446428D01*
X105285714Y-136636904D01*
X105238095Y-136732142D01*
X105190476Y-136779761D01*
X105095238Y-136827380D01*
X105000000Y-136827380D01*
X104904761Y-136779761D01*
X104857142Y-136732142D01*
X104809523Y-136636904D01*
X104761904Y-136446428D01*
X104761904Y-136208333D01*
X104809523Y-136017857D01*
X104857142Y-135922619D01*
X104904761Y-135875000D01*
X105000000Y-135827380D01*
X96928571Y-138053571D02*
X97261904Y-138053571D01*
X97404761Y-138577380D02*
X96928571Y-138577380D01*
X96928571Y-137577380D01*
X97404761Y-137577380D01*
X97833333Y-138053571D02*
X98166666Y-138053571D01*
X98309523Y-138577380D02*
X97833333Y-138577380D01*
X97833333Y-137577380D01*
X98309523Y-137577380D01*
X98738095Y-138482142D02*
X98785714Y-138529761D01*
X98738095Y-138577380D01*
X98690476Y-138529761D01*
X98738095Y-138482142D01*
X98738095Y-138577380D01*
X98738095Y-137958333D02*
X98785714Y-138005952D01*
X98738095Y-138053571D01*
X98690476Y-138005952D01*
X98738095Y-137958333D01*
X98738095Y-138053571D01*
X99928571Y-138529761D02*
X100071428Y-138577380D01*
X100309523Y-138577380D01*
X100404761Y-138529761D01*
X100452380Y-138482142D01*
X100500000Y-138386904D01*
X100500000Y-138291666D01*
X100452380Y-138196428D01*
X100404761Y-138148809D01*
X100309523Y-138101190D01*
X100119047Y-138053571D01*
X100023809Y-138005952D01*
X99976190Y-137958333D01*
X99928571Y-137863095D01*
X99928571Y-137767857D01*
X99976190Y-137672619D01*
X100023809Y-137625000D01*
X100119047Y-137577380D01*
X100357142Y-137577380D01*
X100500000Y-137625000D01*
X101357142Y-137910714D02*
X101357142Y-138577380D01*
X100928571Y-137910714D02*
X100928571Y-138434523D01*
X100976190Y-138529761D01*
X101071428Y-138577380D01*
X101214285Y-138577380D01*
X101309523Y-138529761D01*
X101357142Y-138482142D01*
X101833333Y-138577380D02*
X101833333Y-137577380D01*
X101928571Y-138196428D02*
X102214285Y-138577380D01*
X102214285Y-137910714D02*
X101833333Y-138291666D01*
X103071428Y-137910714D02*
X103071428Y-138577380D01*
X102642857Y-137910714D02*
X102642857Y-138434523D01*
X102690476Y-138529761D01*
X102785714Y-138577380D01*
X102928571Y-138577380D01*
X103023809Y-138529761D01*
X103071428Y-138482142D01*
D10*
X108835000Y-72500000D02*
X117835000Y-72500000D01*
X117835000Y-72500000D02*
X117835000Y-147500000D01*
X117835000Y-147500000D02*
X108835000Y-147500000D01*
X108835000Y-147500000D02*
X108835000Y-72500000D01*
X114335000Y-74500000D02*
G75*
G03*
X114335000Y-74500000I-1000000J0D01*
G01*
X114335000Y-145500000D02*
G75*
G03*
X114335000Y-145500000I-1000000J0D01*
G01*
X112835000Y-110500000D02*
X113835000Y-109500000D01*
X112835000Y-109500000D02*
X113835000Y-110500000D01*
X112335000Y-77000000D02*
X114335000Y-77000000D01*
X114335000Y-77000000D02*
X114335000Y-143000000D01*
X114335000Y-143000000D02*
X112335000Y-143000000D01*
X112335000Y-143000000D02*
X112335000Y-77000000D01*
X135505000Y-72500000D02*
X144505000Y-72500000D01*
X144505000Y-72500000D02*
X144505000Y-147500000D01*
X144505000Y-147500000D02*
X135505000Y-147500000D01*
X135505000Y-147500000D02*
X135505000Y-72500000D01*
X141005000Y-74500000D02*
G75*
G03*
X141005000Y-74500000I-1000000J0D01*
G01*
X141005000Y-145500000D02*
G75*
G03*
X141005000Y-145500000I-1000000J0D01*
G01*
X139505000Y-110500000D02*
X140505000Y-109500000D01*
X139505000Y-109500000D02*
X140505000Y-110500000D01*
X139005000Y-77000000D02*
X141005000Y-77000000D01*
X141005000Y-77000000D02*
X141005000Y-143000000D01*
X141005000Y-143000000D02*
X139005000Y-143000000D01*
X139005000Y-143000000D02*
X139005000Y-77000000D01*
X82165000Y-72500000D02*
X91165000Y-72500000D01*
X91165000Y-72500000D02*
X91165000Y-147500000D01*
X91165000Y-147500000D02*
X82165000Y-147500000D01*
X82165000Y-147500000D02*
X82165000Y-72500000D01*
X87665000Y-74500000D02*
G75*
G03*
X87665000Y-74500000I-1000000J0D01*
G01*
X87665000Y-145500000D02*
G75*
G03*
X87665000Y-145500000I-1000000J0D01*
G01*
X86165000Y-110500000D02*
X87165000Y-109500000D01*
X86165000Y-109500000D02*
X87165000Y-110500000D01*
X85665000Y-77000000D02*
X87665000Y-77000000D01*
X87665000Y-77000000D02*
X87665000Y-143000000D01*
X87665000Y-143000000D02*
X85665000Y-143000000D01*
X85665000Y-143000000D02*
X85665000Y-77000000D01*
X55495000Y-72500000D02*
X64495000Y-72500000D01*
X64495000Y-72500000D02*
X64495000Y-147500000D01*
X64495000Y-147500000D02*
X55495000Y-147500000D01*
X55495000Y-147500000D02*
X55495000Y-72500000D01*
X60995000Y-74500000D02*
G75*
G03*
X60995000Y-74500000I-1000000J0D01*
G01*
X60995000Y-145500000D02*
G75*
G03*
X60995000Y-145500000I-1000000J0D01*
G01*
X59495000Y-110500000D02*
X60495000Y-109500000D01*
X59495000Y-109500000D02*
X60495000Y-110500000D01*
X58995000Y-77000000D02*
X60995000Y-77000000D01*
X60995000Y-77000000D02*
X60995000Y-143000000D01*
X60995000Y-143000000D02*
X58995000Y-143000000D01*
X58995000Y-143000000D02*
X58995000Y-77000000D01*
X96765000Y-83470000D02*
X96765000Y-84292470D01*
X96765000Y-86177530D02*
X96765000Y-87000000D01*
X96765000Y-84907530D02*
X96765000Y-85562470D01*
X101780000Y-83470000D02*
X96765000Y-83470000D01*
X103235000Y-87000000D02*
X96765000Y-87000000D01*
X101780000Y-83470000D02*
X101780000Y-84036529D01*
X101780000Y-85163471D02*
X101780000Y-85306529D01*
X101833471Y-85360000D02*
X101976529Y-85360000D01*
X103103471Y-85360000D02*
X103235000Y-85360000D01*
X103235000Y-85360000D02*
X103235000Y-85562470D01*
X103235000Y-86177530D02*
X103235000Y-87000000D01*
X102540000Y-83470000D02*
X103300000Y-83470000D01*
X103300000Y-83470000D02*
X103300000Y-84600000D01*
X96000000Y-124900000D02*
X94000000Y-124900000D01*
X96000000Y-122100000D02*
X96000000Y-124900000D01*
X94000000Y-122100000D02*
X96000000Y-122100000D01*
X94000000Y-124900000D02*
X94000000Y-122100000D01*
X101135000Y-61140000D02*
X101360000Y-61140000D01*
X101360000Y-61140000D02*
X101360000Y-61615000D01*
X98865000Y-63860000D02*
X98640000Y-63860000D01*
X98640000Y-63860000D02*
X98640000Y-63385000D01*
X101135000Y-63860000D02*
X101360000Y-63860000D01*
X101360000Y-63860000D02*
X101360000Y-63385000D01*
X98865000Y-61140000D02*
X98640000Y-61140000D01*
X97710000Y-62741422D02*
X97710000Y-63258578D01*
X96290000Y-62741422D02*
X96290000Y-63258578D01*
X96669800Y-62796800D02*
X97406400Y-62796800D01*
X97406400Y-62796800D02*
X97406400Y-63076200D01*
X97000000Y-62796800D02*
X97000000Y-63025400D01*
X96669800Y-63228600D02*
X97000000Y-63000000D01*
X97406400Y-63025400D02*
G75*
G02*
X97000000Y-63025400I-203200J0D01*
G01*
X103710000Y-62741422D02*
X103710000Y-63258578D01*
X102290000Y-62741422D02*
X102290000Y-63258578D01*
X102669800Y-62796800D02*
X103406400Y-62796800D01*
X103406400Y-62796800D02*
X103406400Y-63076200D01*
X103000000Y-62796800D02*
X103000000Y-63025400D01*
X102669800Y-63228600D02*
X103000000Y-63000000D01*
X103406400Y-63025400D02*
G75*
G02*
X103000000Y-63025400I-203200J0D01*
G01*
X96190000Y-56370000D02*
X95250000Y-56370000D01*
X95250000Y-56370000D02*
X95250000Y-48400000D01*
X104750000Y-56370000D02*
X104750000Y-48400000D01*
X104750000Y-56370000D02*
X103810000Y-56370000D01*
X104750000Y-48400000D02*
X95250000Y-48400000D01*
X141455000Y-52925000D02*
X141455000Y-53525000D01*
X138555000Y-51225000D02*
X141455000Y-51225000D01*
X138555000Y-53525000D02*
X141455000Y-53525000D01*
X140805000Y-53775000D02*
X141705000Y-53775000D01*
X141705000Y-53775000D02*
X141705000Y-52875000D01*
X80330000Y-50510000D02*
X80330000Y-53510000D01*
X66330000Y-50510000D02*
X80330000Y-50510000D01*
X66330000Y-53510000D02*
X66330000Y-50510000D01*
X88115000Y-71095000D02*
X88115000Y-71695000D01*
X85215000Y-69395000D02*
X88115000Y-69395000D01*
X85215000Y-71695000D02*
X88115000Y-71695000D01*
X87465000Y-71945000D02*
X88365000Y-71945000D01*
X88365000Y-71945000D02*
X88365000Y-71045000D01*
X93590000Y-92890000D02*
X92890000Y-92890000D01*
X92890000Y-92890000D02*
X92890000Y-93590000D01*
X106410000Y-92890000D02*
X107110000Y-92890000D01*
X107110000Y-92890000D02*
X107110000Y-93590000D01*
X93590000Y-107110000D02*
X92890000Y-107110000D01*
X92890000Y-107110000D02*
X92890000Y-106410000D01*
X106410000Y-107110000D02*
X107110000Y-107110000D01*
X107110000Y-107110000D02*
X107110000Y-106410000D01*
X92890000Y-93590000D02*
X91600000Y-93590000D01*
D13*
X92250000Y-92000000D02*
G75*
G03*
X92250000Y-92000000I-250000J0D01*
G01*
X94750000Y-94500000D02*
G75*
G03*
X94750000Y-94500000I-250000J0D01*
G01*
D14*
G36*
X90000000Y-93500000D02*
G01*
X91000000Y-94000000D01*
X90000000Y-94500000D01*
X90000000Y-93500000D01*
G37*
X90000000Y-93500000D02*
X91000000Y-94000000D01*
X90000000Y-94500000D01*
X90000000Y-93500000D01*
D10*
X106000000Y-105000000D02*
G75*
G03*
X106000000Y-105000000I-1000000J0D01*
G01*
X139300000Y-101300000D02*
X140700000Y-101300000D01*
X140700000Y-101300000D02*
X140700000Y-102700000D01*
X140700000Y-102700000D02*
X139300000Y-102700000D01*
X139300000Y-102700000D02*
X139300000Y-101300000D01*
X59300000Y-101300000D02*
X60700000Y-101300000D01*
X60700000Y-101300000D02*
X60700000Y-102700000D01*
X60700000Y-102700000D02*
X59300000Y-102700000D01*
X59300000Y-102700000D02*
X59300000Y-101300000D01*
X139300000Y-97300000D02*
X140700000Y-97300000D01*
X140700000Y-97300000D02*
X140700000Y-98700000D01*
X140700000Y-98700000D02*
X139300000Y-98700000D01*
X139300000Y-98700000D02*
X139300000Y-97300000D01*
X59300000Y-97300000D02*
X60700000Y-97300000D01*
X60700000Y-97300000D02*
X60700000Y-98700000D01*
X60700000Y-98700000D02*
X59300000Y-98700000D01*
X59300000Y-98700000D02*
X59300000Y-97300000D01*
X119670000Y-149490000D02*
X119670000Y-146490000D01*
X133670000Y-149490000D02*
X119670000Y-149490000D01*
X133670000Y-146490000D02*
X133670000Y-149490000D01*
X66330000Y-149490000D02*
X66330000Y-146490000D01*
X80330000Y-149490000D02*
X66330000Y-149490000D01*
X80330000Y-146490000D02*
X80330000Y-149490000D01*
X149490000Y-133670000D02*
X146490000Y-133670000D01*
X149490000Y-119670000D02*
X149490000Y-133670000D01*
X146490000Y-119670000D02*
X149490000Y-119670000D01*
X149490000Y-80330000D02*
X146490000Y-80330000D01*
X149490000Y-66330000D02*
X149490000Y-80330000D01*
X146490000Y-66330000D02*
X149490000Y-66330000D01*
X133670000Y-50510000D02*
X133670000Y-53510000D01*
X119670000Y-50510000D02*
X133670000Y-50510000D01*
X119670000Y-53510000D02*
X119670000Y-50510000D01*
X50510000Y-119670000D02*
X53510000Y-119670000D01*
X50510000Y-133670000D02*
X50510000Y-119670000D01*
X53510000Y-133670000D02*
X50510000Y-133670000D01*
X50510000Y-66330000D02*
X53510000Y-66330000D01*
X50510000Y-80330000D02*
X50510000Y-66330000D01*
X53510000Y-80330000D02*
X50510000Y-80330000D01*
X141455000Y-71095000D02*
X141455000Y-71695000D01*
X138555000Y-69395000D02*
X141455000Y-69395000D01*
X138555000Y-71695000D02*
X141455000Y-71695000D01*
X140805000Y-71945000D02*
X141705000Y-71945000D01*
X141705000Y-71945000D02*
X141705000Y-71045000D01*
X114785000Y-71095000D02*
X114785000Y-71695000D01*
X111885000Y-69395000D02*
X114785000Y-69395000D01*
X111885000Y-71695000D02*
X114785000Y-71695000D01*
X114135000Y-71945000D02*
X115035000Y-71945000D01*
X115035000Y-71945000D02*
X115035000Y-71045000D01*
X114785000Y-52925000D02*
X114785000Y-53525000D01*
X111885000Y-51225000D02*
X114785000Y-51225000D01*
X111885000Y-53525000D02*
X114785000Y-53525000D01*
X114135000Y-53775000D02*
X115035000Y-53775000D01*
X115035000Y-53775000D02*
X115035000Y-52875000D01*
X88115000Y-52925000D02*
X88115000Y-53525000D01*
X85215000Y-51225000D02*
X88115000Y-51225000D01*
X85215000Y-53525000D02*
X88115000Y-53525000D01*
X87465000Y-53775000D02*
X88365000Y-53775000D01*
X88365000Y-53775000D02*
X88365000Y-52875000D01*
X61445000Y-71095000D02*
X61445000Y-71695000D01*
X58545000Y-69395000D02*
X61445000Y-69395000D01*
X58545000Y-71695000D02*
X61445000Y-71695000D01*
X60795000Y-71945000D02*
X61695000Y-71945000D01*
X61695000Y-71945000D02*
X61695000Y-71045000D01*
X61445000Y-52925000D02*
X61445000Y-53525000D01*
X58545000Y-51225000D02*
X61445000Y-51225000D01*
X58545000Y-53525000D02*
X61445000Y-53525000D01*
X60795000Y-53775000D02*
X61695000Y-53775000D01*
X61695000Y-53775000D02*
X61695000Y-52875000D01*
X137505000Y-61495000D02*
X142505000Y-61495000D01*
X139505000Y-59495000D02*
X140505000Y-60495000D01*
X139505000Y-60495000D02*
X140505000Y-59495000D01*
X143005000Y-59995000D02*
G75*
G03*
X143005000Y-59995000I-3000000J0D01*
G01*
X146005000Y-65495000D02*
X146005000Y-54495000D01*
X144005000Y-64995000D02*
X144005000Y-61995000D01*
X135005000Y-66495000D02*
X145005000Y-66495000D01*
X136005000Y-61995000D02*
X136005000Y-64995000D01*
X134005000Y-54495000D02*
X134005000Y-65495000D01*
X135005000Y-53495000D02*
X145005000Y-53495000D01*
X135005000Y-66495000D02*
G75*
G02*
X134005000Y-65495000I0J1000000D01*
G01*
X146005000Y-65495000D02*
G75*
G02*
X145005000Y-66495000I-1000000J0D01*
G01*
X145005000Y-53495000D02*
G75*
G02*
X146005000Y-54495000I0J-1000000D01*
G01*
X134005000Y-54495000D02*
G75*
G02*
X135005000Y-53495000I1000000J0D01*
G01*
X110835000Y-61495000D02*
X115835000Y-61495000D01*
X112835000Y-59495000D02*
X113835000Y-60495000D01*
X112835000Y-60495000D02*
X113835000Y-59495000D01*
X116335000Y-59995000D02*
G75*
G03*
X116335000Y-59995000I-3000000J0D01*
G01*
X119335000Y-65495000D02*
X119335000Y-54495000D01*
X117335000Y-64995000D02*
X117335000Y-61995000D01*
X108335000Y-66495000D02*
X118335000Y-66495000D01*
X109335000Y-61995000D02*
X109335000Y-64995000D01*
X107335000Y-54495000D02*
X107335000Y-65495000D01*
X108335000Y-53495000D02*
X118335000Y-53495000D01*
X108335000Y-66495000D02*
G75*
G02*
X107335000Y-65495000I0J1000000D01*
G01*
X119335000Y-65495000D02*
G75*
G02*
X118335000Y-66495000I-1000000J0D01*
G01*
X118335000Y-53495000D02*
G75*
G02*
X119335000Y-54495000I0J-1000000D01*
G01*
X107335000Y-54495000D02*
G75*
G02*
X108335000Y-53495000I1000000J0D01*
G01*
X84165000Y-61495000D02*
X89165000Y-61495000D01*
X86165000Y-59495000D02*
X87165000Y-60495000D01*
X86165000Y-60495000D02*
X87165000Y-59495000D01*
X89665000Y-59995000D02*
G75*
G03*
X89665000Y-59995000I-3000000J0D01*
G01*
X92665000Y-65495000D02*
X92665000Y-54495000D01*
X90665000Y-64995000D02*
X90665000Y-61995000D01*
X81665000Y-66495000D02*
X91665000Y-66495000D01*
X82665000Y-61995000D02*
X82665000Y-64995000D01*
X80665000Y-54495000D02*
X80665000Y-65495000D01*
X81665000Y-53495000D02*
X91665000Y-53495000D01*
X81665000Y-66495000D02*
G75*
G02*
X80665000Y-65495000I0J1000000D01*
G01*
X92665000Y-65495000D02*
G75*
G02*
X91665000Y-66495000I-1000000J0D01*
G01*
X91665000Y-53495000D02*
G75*
G02*
X92665000Y-54495000I0J-1000000D01*
G01*
X80665000Y-54495000D02*
G75*
G02*
X81665000Y-53495000I1000000J0D01*
G01*
X57495000Y-61495000D02*
X62495000Y-61495000D01*
X59495000Y-59495000D02*
X60495000Y-60495000D01*
X59495000Y-60495000D02*
X60495000Y-59495000D01*
X62995000Y-59995000D02*
G75*
G03*
X62995000Y-59995000I-3000000J0D01*
G01*
X65995000Y-65495000D02*
X65995000Y-54495000D01*
X63995000Y-64995000D02*
X63995000Y-61995000D01*
X54995000Y-66495000D02*
X64995000Y-66495000D01*
X55995000Y-61995000D02*
X55995000Y-64995000D01*
X53995000Y-54495000D02*
X53995000Y-65495000D01*
X54995000Y-53495000D02*
X64995000Y-53495000D01*
X54995000Y-66495000D02*
G75*
G02*
X53995000Y-65495000I0J1000000D01*
G01*
X65995000Y-65495000D02*
G75*
G02*
X64995000Y-66495000I-1000000J0D01*
G01*
X64995000Y-53495000D02*
G75*
G02*
X65995000Y-54495000I0J-1000000D01*
G01*
X53995000Y-54495000D02*
G75*
G02*
X54995000Y-53495000I1000000J0D01*
G01*
D12*
X112335000Y-70452380D02*
X112335000Y-71261904D01*
X112382619Y-71357142D01*
X112430238Y-71404761D01*
X112525476Y-71452380D01*
X112715952Y-71452380D01*
X112811190Y-71404761D01*
X112858809Y-71357142D01*
X112906428Y-71261904D01*
X112906428Y-70452380D01*
X113382619Y-71452380D02*
X113382619Y-70452380D01*
X113763571Y-70452380D02*
X114430238Y-70452380D01*
X114001666Y-71452380D01*
X139005000Y-70452380D02*
X139005000Y-71261904D01*
X139052619Y-71357142D01*
X139100238Y-71404761D01*
X139195476Y-71452380D01*
X139385952Y-71452380D01*
X139481190Y-71404761D01*
X139528809Y-71357142D01*
X139576428Y-71261904D01*
X139576428Y-70452380D01*
X140052619Y-71452380D02*
X140052619Y-70452380D01*
X140671666Y-70880952D02*
X140576428Y-70833333D01*
X140528809Y-70785714D01*
X140481190Y-70690476D01*
X140481190Y-70642857D01*
X140528809Y-70547619D01*
X140576428Y-70500000D01*
X140671666Y-70452380D01*
X140862142Y-70452380D01*
X140957380Y-70500000D01*
X141005000Y-70547619D01*
X141052619Y-70642857D01*
X141052619Y-70690476D01*
X141005000Y-70785714D01*
X140957380Y-70833333D01*
X140862142Y-70880952D01*
X140671666Y-70880952D01*
X140576428Y-70928571D01*
X140528809Y-70976190D01*
X140481190Y-71071428D01*
X140481190Y-71261904D01*
X140528809Y-71357142D01*
X140576428Y-71404761D01*
X140671666Y-71452380D01*
X140862142Y-71452380D01*
X140957380Y-71404761D01*
X141005000Y-71357142D01*
X141052619Y-71261904D01*
X141052619Y-71071428D01*
X141005000Y-70976190D01*
X140957380Y-70928571D01*
X140862142Y-70880952D01*
X85665000Y-70452380D02*
X85665000Y-71261904D01*
X85712619Y-71357142D01*
X85760238Y-71404761D01*
X85855476Y-71452380D01*
X86045952Y-71452380D01*
X86141190Y-71404761D01*
X86188809Y-71357142D01*
X86236428Y-71261904D01*
X86236428Y-70452380D01*
X86712619Y-71452380D02*
X86712619Y-70452380D01*
X87617380Y-70452380D02*
X87426904Y-70452380D01*
X87331666Y-70500000D01*
X87284047Y-70547619D01*
X87188809Y-70690476D01*
X87141190Y-70880952D01*
X87141190Y-71261904D01*
X87188809Y-71357142D01*
X87236428Y-71404761D01*
X87331666Y-71452380D01*
X87522142Y-71452380D01*
X87617380Y-71404761D01*
X87665000Y-71357142D01*
X87712619Y-71261904D01*
X87712619Y-71023809D01*
X87665000Y-70928571D01*
X87617380Y-70880952D01*
X87522142Y-70833333D01*
X87331666Y-70833333D01*
X87236428Y-70880952D01*
X87188809Y-70928571D01*
X87141190Y-71023809D01*
X58995000Y-70452380D02*
X58995000Y-71261904D01*
X59042619Y-71357142D01*
X59090238Y-71404761D01*
X59185476Y-71452380D01*
X59375952Y-71452380D01*
X59471190Y-71404761D01*
X59518809Y-71357142D01*
X59566428Y-71261904D01*
X59566428Y-70452380D01*
X60042619Y-71452380D02*
X60042619Y-70452380D01*
X60995000Y-70452380D02*
X60518809Y-70452380D01*
X60471190Y-70928571D01*
X60518809Y-70880952D01*
X60614047Y-70833333D01*
X60852142Y-70833333D01*
X60947380Y-70880952D01*
X60995000Y-70928571D01*
X61042619Y-71023809D01*
X61042619Y-71261904D01*
X60995000Y-71357142D01*
X60947380Y-71404761D01*
X60852142Y-71452380D01*
X60614047Y-71452380D01*
X60518809Y-71404761D01*
X60471190Y-71357142D01*
M02*
