%TF.GenerationSoftware,KiCad,Pcbnew,5.1.9+dfsg1-1*%
%TF.CreationDate,2021-10-27T13:30:13+02:00*%
%TF.ProjectId,EF44,45463434-2e6b-4696-9361-645f70636258,rev?*%
%TF.SameCoordinates,Original*%
%TF.FileFunction,Legend,Bot*%
%TF.FilePolarity,Positive*%
%FSLAX46Y46*%
G04 Gerber Fmt 4.6, Leading zero omitted, Abs format (unit mm)*
G04 Created by KiCad (PCBNEW 5.1.9+dfsg1-1) date 2021-10-27 13:30:13*
%MOMM*%
%LPD*%
G01*
G04 APERTURE LIST*
%ADD10C,0.120000*%
%ADD11C,0.150000*%
%ADD12C,0.500000*%
%ADD13C,0.250000*%
G04 APERTURE END LIST*
D10*
X96500000Y-87000000D02*
X96500000Y-83500000D01*
X103500000Y-87000000D02*
X96500000Y-87000000D01*
X103500000Y-83500000D02*
X103500000Y-87000000D01*
X96500000Y-83500000D02*
X103500000Y-83500000D01*
X96250000Y-89000000D02*
X103750000Y-89000000D01*
X92750000Y-91000000D02*
X96250000Y-89000000D01*
X136195000Y-65710000D02*
X136195000Y-54280000D01*
X143815000Y-54280000D02*
X143815000Y-65710000D01*
X136195000Y-54280000D02*
X143815000Y-54280000D01*
X143815000Y-65710000D02*
X136195000Y-65710000D01*
X109525000Y-65710000D02*
X109525000Y-54280000D01*
X117145000Y-54280000D02*
X117145000Y-65710000D01*
X109525000Y-54280000D02*
X117145000Y-54280000D01*
X117145000Y-65710000D02*
X109525000Y-65710000D01*
X82855000Y-65710000D02*
X82855000Y-54280000D01*
X90475000Y-54280000D02*
X90475000Y-65710000D01*
X82855000Y-54280000D02*
X90475000Y-54280000D01*
X90475000Y-65710000D02*
X82855000Y-65710000D01*
X56185000Y-65710000D02*
X56185000Y-54280000D01*
X63805000Y-54280000D02*
X63805000Y-65710000D01*
X56185000Y-54280000D02*
X63805000Y-54280000D01*
X63805000Y-65710000D02*
X56185000Y-65710000D01*
D11*
X102238095Y-82452380D02*
X102238095Y-81452380D01*
X102000000Y-81452380D01*
X101857142Y-81500000D01*
X101761904Y-81595238D01*
X101714285Y-81690476D01*
X101666666Y-81880952D01*
X101666666Y-82023809D01*
X101714285Y-82214285D01*
X101761904Y-82309523D01*
X101857142Y-82404761D01*
X102000000Y-82452380D01*
X102238095Y-82452380D01*
X101238095Y-81928571D02*
X100904761Y-81928571D01*
X100761904Y-82452380D02*
X101238095Y-82452380D01*
X101238095Y-81452380D01*
X100761904Y-81452380D01*
X100000000Y-81928571D02*
X99857142Y-81976190D01*
X99809523Y-82023809D01*
X99761904Y-82119047D01*
X99761904Y-82261904D01*
X99809523Y-82357142D01*
X99857142Y-82404761D01*
X99952380Y-82452380D01*
X100333333Y-82452380D01*
X100333333Y-81452380D01*
X100000000Y-81452380D01*
X99904761Y-81500000D01*
X99857142Y-81547619D01*
X99809523Y-81642857D01*
X99809523Y-81738095D01*
X99857142Y-81833333D01*
X99904761Y-81880952D01*
X100000000Y-81928571D01*
X100333333Y-81928571D01*
X99333333Y-81452380D02*
X99333333Y-82261904D01*
X99285714Y-82357142D01*
X99238095Y-82404761D01*
X99142857Y-82452380D01*
X98952380Y-82452380D01*
X98857142Y-82404761D01*
X98809523Y-82357142D01*
X98761904Y-82261904D01*
X98761904Y-81452380D01*
X97761904Y-81500000D02*
X97857142Y-81452380D01*
X98000000Y-81452380D01*
X98142857Y-81500000D01*
X98238095Y-81595238D01*
X98285714Y-81690476D01*
X98333333Y-81880952D01*
X98333333Y-82023809D01*
X98285714Y-82214285D01*
X98238095Y-82309523D01*
X98142857Y-82404761D01*
X98000000Y-82452380D01*
X97904761Y-82452380D01*
X97761904Y-82404761D01*
X97714285Y-82357142D01*
X97714285Y-82023809D01*
X97904761Y-82023809D01*
X101690476Y-109580571D02*
X102023809Y-109580571D01*
X102023809Y-110104380D02*
X102023809Y-109104380D01*
X101547619Y-109104380D01*
X100690476Y-110104380D02*
X101166666Y-110104380D01*
X101166666Y-109104380D01*
X100404761Y-109818666D02*
X99928571Y-109818666D01*
X100500000Y-110104380D02*
X100166666Y-109104380D01*
X99833333Y-110104380D01*
X99547619Y-110056761D02*
X99404761Y-110104380D01*
X99166666Y-110104380D01*
X99071428Y-110056761D01*
X99023809Y-110009142D01*
X98976190Y-109913904D01*
X98976190Y-109818666D01*
X99023809Y-109723428D01*
X99071428Y-109675809D01*
X99166666Y-109628190D01*
X99357142Y-109580571D01*
X99452380Y-109532952D01*
X99500000Y-109485333D01*
X99547619Y-109390095D01*
X99547619Y-109294857D01*
X99500000Y-109199619D01*
X99452380Y-109152000D01*
X99357142Y-109104380D01*
X99119047Y-109104380D01*
X98976190Y-109152000D01*
X98547619Y-110104380D02*
X98547619Y-109104380D01*
X98547619Y-109580571D02*
X97976190Y-109580571D01*
X97976190Y-110104380D02*
X97976190Y-109104380D01*
X103047714Y-132456380D02*
X103047714Y-131456380D01*
X103047714Y-131932571D02*
X102476285Y-131932571D01*
X102476285Y-132456380D02*
X102476285Y-131456380D01*
X102095333Y-131456380D02*
X101857238Y-132456380D01*
X101666761Y-131742095D01*
X101476285Y-132456380D01*
X101238190Y-131456380D01*
X100285809Y-132361142D02*
X100333428Y-132408761D01*
X100476285Y-132456380D01*
X100571523Y-132456380D01*
X100714380Y-132408761D01*
X100809619Y-132313523D01*
X100857238Y-132218285D01*
X100904857Y-132027809D01*
X100904857Y-131884952D01*
X100857238Y-131694476D01*
X100809619Y-131599238D01*
X100714380Y-131504000D01*
X100571523Y-131456380D01*
X100476285Y-131456380D01*
X100333428Y-131504000D01*
X100285809Y-131551619D01*
X99523904Y-131932571D02*
X99857238Y-131932571D01*
X99857238Y-132456380D02*
X99857238Y-131456380D01*
X99381047Y-131456380D01*
X98476285Y-131504000D02*
X98571523Y-131456380D01*
X98714380Y-131456380D01*
X98857238Y-131504000D01*
X98952476Y-131599238D01*
X99000095Y-131694476D01*
X99047714Y-131884952D01*
X99047714Y-132027809D01*
X99000095Y-132218285D01*
X98952476Y-132313523D01*
X98857238Y-132408761D01*
X98714380Y-132456380D01*
X98619142Y-132456380D01*
X98476285Y-132408761D01*
X98428666Y-132361142D01*
X98428666Y-132027809D01*
X98619142Y-132027809D01*
X101357142Y-88702380D02*
X101357142Y-87702380D01*
X101023809Y-88416666D01*
X100690476Y-87702380D01*
X100690476Y-88702380D01*
X99642857Y-88607142D02*
X99690476Y-88654761D01*
X99833333Y-88702380D01*
X99928571Y-88702380D01*
X100071428Y-88654761D01*
X100166666Y-88559523D01*
X100214285Y-88464285D01*
X100261904Y-88273809D01*
X100261904Y-88130952D01*
X100214285Y-87940476D01*
X100166666Y-87845238D01*
X100071428Y-87750000D01*
X99928571Y-87702380D01*
X99833333Y-87702380D01*
X99690476Y-87750000D01*
X99642857Y-87797619D01*
X99214285Y-87702380D02*
X99214285Y-88511904D01*
X99166666Y-88607142D01*
X99119047Y-88654761D01*
X99023809Y-88702380D01*
X98833333Y-88702380D01*
X98738095Y-88654761D01*
X98690476Y-88607142D01*
X98642857Y-88511904D01*
X98642857Y-87702380D01*
D10*
X92750000Y-107000000D02*
X92750000Y-91000000D01*
X107250000Y-107000000D02*
X92750000Y-107000000D01*
X107250000Y-93000000D02*
X107250000Y-107000000D01*
X103750000Y-89000000D02*
X107250000Y-93000000D01*
X136755000Y-59736422D02*
X136755000Y-60253578D01*
X138175000Y-59736422D02*
X138175000Y-60253578D01*
X137795200Y-59791800D02*
X137058600Y-59791800D01*
X137058600Y-59791800D02*
X137058600Y-60071200D01*
X137465000Y-59791800D02*
X137465000Y-60020400D01*
X137795200Y-60223600D02*
X137465000Y-59995000D01*
X137058600Y-60020400D02*
G75*
G03*
X137465000Y-60020400I203200J0D01*
G01*
X72770000Y-93908578D02*
X72770000Y-93391422D01*
X71350000Y-93908578D02*
X71350000Y-93391422D01*
X72390200Y-93421400D02*
X72466400Y-93548400D01*
X72466400Y-93548400D02*
X72466400Y-93700800D01*
X72466400Y-93700800D02*
X72364800Y-93827800D01*
X72364800Y-93827800D02*
X72212400Y-93878600D01*
X72212400Y-93878600D02*
X72085400Y-93904000D01*
X71755200Y-93421400D02*
X71679000Y-93548400D01*
X71679000Y-93548400D02*
X71679000Y-93700800D01*
X71679000Y-93700800D02*
X71780600Y-93827800D01*
X71780600Y-93827800D02*
X71933000Y-93878600D01*
X71933000Y-93878600D02*
X72060000Y-93904000D01*
D12*
X133420000Y-103000000D02*
G75*
G03*
X133420000Y-103000000I-250000J0D01*
G01*
D10*
X131730000Y-100000000D02*
X131730000Y-103450000D01*
X131730000Y-100000000D02*
X131730000Y-98050000D01*
X121610000Y-100000000D02*
X121610000Y-101950000D01*
X121610000Y-100000000D02*
X121610000Y-98050000D01*
X131670000Y-99500000D02*
G75*
G03*
X131670000Y-100500000I0J-500000D01*
G01*
D12*
X80080000Y-103000000D02*
G75*
G03*
X80080000Y-103000000I-250000J0D01*
G01*
D10*
X78390000Y-100000000D02*
X78390000Y-103450000D01*
X78390000Y-100000000D02*
X78390000Y-98050000D01*
X68270000Y-100000000D02*
X68270000Y-101950000D01*
X68270000Y-100000000D02*
X68270000Y-98050000D01*
X78330000Y-99500000D02*
G75*
G03*
X78330000Y-100500000I0J-500000D01*
G01*
X128650000Y-90098578D02*
X128650000Y-89581422D01*
X127230000Y-90098578D02*
X127230000Y-89581422D01*
X127609800Y-90043200D02*
X128346400Y-90043200D01*
X128346400Y-90043200D02*
X128346400Y-89763800D01*
X127940000Y-90043200D02*
X127940000Y-89814600D01*
X127609800Y-89611400D02*
X127940000Y-89840000D01*
X128346400Y-89814600D02*
G75*
G03*
X127940000Y-89814600I-203200J0D01*
G01*
X75310000Y-90098578D02*
X75310000Y-89581422D01*
X73890000Y-90098578D02*
X73890000Y-89581422D01*
X74269800Y-90043200D02*
X75006400Y-90043200D01*
X75006400Y-90043200D02*
X75006400Y-89763800D01*
X74600000Y-90043200D02*
X74600000Y-89814600D01*
X74269800Y-89611400D02*
X74600000Y-89840000D01*
X75006400Y-89814600D02*
G75*
G03*
X74600000Y-89814600I-203200J0D01*
G01*
X126110000Y-90098578D02*
X126110000Y-89581422D01*
X124690000Y-90098578D02*
X124690000Y-89581422D01*
X125069800Y-90043200D02*
X125806400Y-90043200D01*
X125806400Y-90043200D02*
X125806400Y-89763800D01*
X125400000Y-90043200D02*
X125400000Y-89814600D01*
X125069800Y-89611400D02*
X125400000Y-89840000D01*
X125806400Y-89814600D02*
G75*
G03*
X125400000Y-89814600I-203200J0D01*
G01*
X72770000Y-90098578D02*
X72770000Y-89581422D01*
X71350000Y-90098578D02*
X71350000Y-89581422D01*
X71729800Y-90043200D02*
X72466400Y-90043200D01*
X72466400Y-90043200D02*
X72466400Y-89763800D01*
X72060000Y-90043200D02*
X72060000Y-89814600D01*
X71729800Y-89611400D02*
X72060000Y-89840000D01*
X72466400Y-89814600D02*
G75*
G03*
X72060000Y-89814600I-203200J0D01*
G01*
X133580000Y-99741422D02*
X133580000Y-100258578D01*
X135000000Y-99741422D02*
X135000000Y-100258578D01*
X133959800Y-100228600D02*
X133883600Y-100101600D01*
X133883600Y-100101600D02*
X133883600Y-99949200D01*
X133883600Y-99949200D02*
X133985200Y-99822200D01*
X133985200Y-99822200D02*
X134137600Y-99771400D01*
X134137600Y-99771400D02*
X134264600Y-99746000D01*
X134594800Y-100228600D02*
X134671000Y-100101600D01*
X134671000Y-100101600D02*
X134671000Y-99949200D01*
X134671000Y-99949200D02*
X134569400Y-99822200D01*
X134569400Y-99822200D02*
X134417000Y-99771400D01*
X134417000Y-99771400D02*
X134290000Y-99746000D01*
X65000000Y-99741422D02*
X65000000Y-100258578D01*
X66420000Y-99741422D02*
X66420000Y-100258578D01*
X65379800Y-100228600D02*
X65303600Y-100101600D01*
X65303600Y-100101600D02*
X65303600Y-99949200D01*
X65303600Y-99949200D02*
X65405200Y-99822200D01*
X65405200Y-99822200D02*
X65557600Y-99771400D01*
X65557600Y-99771400D02*
X65684600Y-99746000D01*
X66014800Y-100228600D02*
X66091000Y-100101600D01*
X66091000Y-100101600D02*
X66091000Y-99949200D01*
X66091000Y-99949200D02*
X65989400Y-99822200D01*
X65989400Y-99822200D02*
X65837000Y-99771400D01*
X65837000Y-99771400D02*
X65710000Y-99746000D01*
X128650000Y-93908578D02*
X128650000Y-93391422D01*
X127230000Y-93908578D02*
X127230000Y-93391422D01*
X128270200Y-93421400D02*
X128346400Y-93548400D01*
X128346400Y-93548400D02*
X128346400Y-93700800D01*
X128346400Y-93700800D02*
X128244800Y-93827800D01*
X128244800Y-93827800D02*
X128092400Y-93878600D01*
X128092400Y-93878600D02*
X127965400Y-93904000D01*
X127635200Y-93421400D02*
X127559000Y-93548400D01*
X127559000Y-93548400D02*
X127559000Y-93700800D01*
X127559000Y-93700800D02*
X127660600Y-93827800D01*
X127660600Y-93827800D02*
X127813000Y-93878600D01*
X127813000Y-93878600D02*
X127940000Y-93904000D01*
X75310000Y-93908578D02*
X75310000Y-93391422D01*
X73890000Y-93908578D02*
X73890000Y-93391422D01*
X74930200Y-93421400D02*
X75006400Y-93548400D01*
X75006400Y-93548400D02*
X75006400Y-93700800D01*
X75006400Y-93700800D02*
X74904800Y-93827800D01*
X74904800Y-93827800D02*
X74752400Y-93878600D01*
X74752400Y-93878600D02*
X74625400Y-93904000D01*
X74295200Y-93421400D02*
X74219000Y-93548400D01*
X74219000Y-93548400D02*
X74219000Y-93700800D01*
X74219000Y-93700800D02*
X74320600Y-93827800D01*
X74320600Y-93827800D02*
X74473000Y-93878600D01*
X74473000Y-93878600D02*
X74600000Y-93904000D01*
X126110000Y-93908578D02*
X126110000Y-93391422D01*
X124690000Y-93908578D02*
X124690000Y-93391422D01*
X125730200Y-93421400D02*
X125806400Y-93548400D01*
X125806400Y-93548400D02*
X125806400Y-93700800D01*
X125806400Y-93700800D02*
X125704800Y-93827800D01*
X125704800Y-93827800D02*
X125552400Y-93878600D01*
X125552400Y-93878600D02*
X125425400Y-93904000D01*
X125095200Y-93421400D02*
X125019000Y-93548400D01*
X125019000Y-93548400D02*
X125019000Y-93700800D01*
X125019000Y-93700800D02*
X125120600Y-93827800D01*
X125120600Y-93827800D02*
X125273000Y-93878600D01*
X125273000Y-93878600D02*
X125400000Y-93904000D01*
X98200000Y-60500000D02*
G75*
G03*
X98200000Y-60500000I-700000J0D01*
G01*
X103200000Y-60500000D02*
G75*
G03*
X103200000Y-60500000I-700000J0D01*
G01*
X105241422Y-96710000D02*
X105758578Y-96710000D01*
X105241422Y-95290000D02*
X105758578Y-95290000D01*
X105728600Y-96330200D02*
X105601600Y-96406400D01*
X105601600Y-96406400D02*
X105449200Y-96406400D01*
X105449200Y-96406400D02*
X105322200Y-96304800D01*
X105322200Y-96304800D02*
X105271400Y-96152400D01*
X105271400Y-96152400D02*
X105246000Y-96025400D01*
X105728600Y-95695200D02*
X105601600Y-95619000D01*
X105601600Y-95619000D02*
X105449200Y-95619000D01*
X105449200Y-95619000D02*
X105322200Y-95720600D01*
X105322200Y-95720600D02*
X105271400Y-95873000D01*
X105271400Y-95873000D02*
X105246000Y-96000000D01*
X105758578Y-101290000D02*
X105241422Y-101290000D01*
X105758578Y-102710000D02*
X105241422Y-102710000D01*
X105271400Y-101669800D02*
X105398400Y-101593600D01*
X105398400Y-101593600D02*
X105550800Y-101593600D01*
X105550800Y-101593600D02*
X105677800Y-101695200D01*
X105677800Y-101695200D02*
X105728600Y-101847600D01*
X105728600Y-101847600D02*
X105754000Y-101974600D01*
X105271400Y-102304800D02*
X105398400Y-102381000D01*
X105398400Y-102381000D02*
X105550800Y-102381000D01*
X105550800Y-102381000D02*
X105677800Y-102279400D01*
X105677800Y-102279400D02*
X105728600Y-102127000D01*
X105728600Y-102127000D02*
X105754000Y-102000000D01*
X98200000Y-66500000D02*
G75*
G03*
X98200000Y-66500000I-700000J0D01*
G01*
X98200000Y-64500000D02*
G75*
G03*
X98200000Y-64500000I-700000J0D01*
G01*
X98200000Y-62500000D02*
G75*
G03*
X98200000Y-62500000I-700000J0D01*
G01*
D12*
X97250000Y-131900000D02*
G75*
G03*
X97250000Y-131900000I-250000J0D01*
G01*
D10*
X100000000Y-130460000D02*
X96550000Y-130460000D01*
X100000000Y-130460000D02*
X101950000Y-130460000D01*
X100000000Y-120340000D02*
X98050000Y-120340000D01*
X100000000Y-120340000D02*
X101950000Y-120340000D01*
X100500000Y-130400000D02*
G75*
G03*
X99500000Y-130400000I-500000J0D01*
G01*
X94290000Y-122741422D02*
X94290000Y-123258578D01*
X95710000Y-122741422D02*
X95710000Y-123258578D01*
X95330200Y-122796800D02*
X94593600Y-122796800D01*
X94593600Y-122796800D02*
X94593600Y-123076200D01*
X95000000Y-122796800D02*
X95000000Y-123025400D01*
X95330200Y-123228600D02*
X95000000Y-123000000D01*
X94593600Y-123025400D02*
G75*
G03*
X95000000Y-123025400I203200J0D01*
G01*
X98700000Y-96600000D02*
G75*
G03*
X98700000Y-96600000I-700000J0D01*
G01*
X102700000Y-102600000D02*
G75*
G03*
X102700000Y-102600000I-700000J0D01*
G01*
X98700000Y-102600000D02*
G75*
G03*
X98700000Y-102600000I-700000J0D01*
G01*
X102950000Y-52000000D02*
G75*
G03*
X102950000Y-52000000I-700000J0D01*
G01*
X98450000Y-52000000D02*
G75*
G03*
X98450000Y-52000000I-700000J0D01*
G01*
X101450000Y-52000000D02*
G75*
G03*
X101450000Y-52000000I-700000J0D01*
G01*
X99950000Y-52000000D02*
G75*
G03*
X99950000Y-52000000I-700000J0D01*
G01*
X102290000Y-62741422D02*
X102290000Y-63258578D01*
X103710000Y-62741422D02*
X103710000Y-63258578D01*
X102669800Y-63228600D02*
X102593600Y-63101600D01*
X102593600Y-63101600D02*
X102593600Y-62949200D01*
X102593600Y-62949200D02*
X102695200Y-62822200D01*
X102695200Y-62822200D02*
X102847600Y-62771400D01*
X102847600Y-62771400D02*
X102974600Y-62746000D01*
X103304800Y-63228600D02*
X103381000Y-63101600D01*
X103381000Y-63101600D02*
X103381000Y-62949200D01*
X103381000Y-62949200D02*
X103279400Y-62822200D01*
X103279400Y-62822200D02*
X103127000Y-62771400D01*
X103127000Y-62771400D02*
X103000000Y-62746000D01*
X100258578Y-63790000D02*
X99741422Y-63790000D01*
X100258578Y-65210000D02*
X99741422Y-65210000D01*
X100203200Y-64830200D02*
X100203200Y-64093600D01*
X100203200Y-64093600D02*
X99923800Y-64093600D01*
X100203200Y-64500000D02*
X99974600Y-64500000D01*
X99771400Y-64830200D02*
X100000000Y-64500000D01*
X99974600Y-64093600D02*
G75*
G03*
X99974600Y-64500000I0J-203200D01*
G01*
X99610000Y-94100000D02*
X99610000Y-95900000D01*
X96390000Y-95900000D02*
X96390000Y-93450000D01*
D13*
X96347000Y-92968000D02*
G75*
G03*
X96347000Y-92968000I-125000J0D01*
G01*
D10*
X98865000Y-58140000D02*
X98640000Y-58140000D01*
X98640000Y-58140000D02*
X98640000Y-58615000D01*
X101135000Y-60860000D02*
X101360000Y-60860000D01*
X101360000Y-60860000D02*
X101360000Y-60385000D01*
X98865000Y-60860000D02*
X98640000Y-60860000D01*
X98640000Y-60860000D02*
X98640000Y-60385000D01*
X101135000Y-58140000D02*
X101360000Y-58140000D01*
X103610000Y-100100000D02*
X103610000Y-101900000D01*
X100390000Y-101900000D02*
X100390000Y-99450000D01*
D13*
X100347000Y-98968000D02*
G75*
G03*
X100347000Y-98968000I-125000J0D01*
G01*
D10*
X99610000Y-100100000D02*
X99610000Y-101900000D01*
X96390000Y-101900000D02*
X96390000Y-99450000D01*
D13*
X96347000Y-98968000D02*
G75*
G03*
X96347000Y-98968000I-125000J0D01*
G01*
D10*
X101610000Y-53850000D02*
X101610000Y-55650000D01*
X98390000Y-55650000D02*
X98390000Y-53200000D01*
D13*
X98347000Y-52972000D02*
G75*
G03*
X98347000Y-52972000I-125000J0D01*
G01*
D10*
X94758578Y-93290000D02*
X94241422Y-93290000D01*
X94758578Y-94710000D02*
X94241422Y-94710000D01*
X94703200Y-94330200D02*
X94703200Y-93593600D01*
X94703200Y-93593600D02*
X94423800Y-93593600D01*
X94703200Y-94000000D02*
X94474600Y-94000000D01*
X94271400Y-94330200D02*
X94500000Y-94000000D01*
X94474600Y-93593600D02*
G75*
G03*
X94474600Y-94000000I0J-203200D01*
G01*
X100258578Y-65790000D02*
X99741422Y-65790000D01*
X100258578Y-67210000D02*
X99741422Y-67210000D01*
X100203200Y-66830200D02*
X100203200Y-66093600D01*
X100203200Y-66093600D02*
X99923800Y-66093600D01*
X100203200Y-66500000D02*
X99974600Y-66500000D01*
X99771400Y-66830200D02*
X100000000Y-66500000D01*
X99974600Y-66093600D02*
G75*
G03*
X99974600Y-66500000I0J-203200D01*
G01*
X100258578Y-61790000D02*
X99741422Y-61790000D01*
X100258578Y-63210000D02*
X99741422Y-63210000D01*
X100203200Y-62830200D02*
X100203200Y-62093600D01*
X100203200Y-62093600D02*
X99923800Y-62093600D01*
X100203200Y-62500000D02*
X99974600Y-62500000D01*
X99771400Y-62830200D02*
X100000000Y-62500000D01*
X99974600Y-62093600D02*
G75*
G03*
X99974600Y-62500000I0J-203200D01*
G01*
X102258578Y-95290000D02*
X101741422Y-95290000D01*
X102258578Y-96710000D02*
X101741422Y-96710000D01*
X102203200Y-96330200D02*
X102203200Y-95593600D01*
X102203200Y-95593600D02*
X101923800Y-95593600D01*
X102203200Y-96000000D02*
X101974600Y-96000000D01*
X101771400Y-96330200D02*
X102000000Y-96000000D01*
X101974600Y-95593600D02*
G75*
G03*
X101974600Y-96000000I0J-203200D01*
G01*
X103460000Y-54908578D02*
X103460000Y-54391422D01*
X102040000Y-54908578D02*
X102040000Y-54391422D01*
X102419800Y-54853200D02*
X103156400Y-54853200D01*
X103156400Y-54853200D02*
X103156400Y-54573800D01*
X102750000Y-54853200D02*
X102750000Y-54624600D01*
X102419800Y-54421400D02*
X102750000Y-54650000D01*
X103156400Y-54624600D02*
G75*
G03*
X102750000Y-54624600I-203200J0D01*
G01*
X94241422Y-92710000D02*
X94758578Y-92710000D01*
X94241422Y-91290000D02*
X94758578Y-91290000D01*
X94296800Y-91669800D02*
X94296800Y-92406400D01*
X94296800Y-92406400D02*
X94576200Y-92406400D01*
X94296800Y-92000000D02*
X94525400Y-92000000D01*
X94728600Y-91669800D02*
X94500000Y-92000000D01*
X94525400Y-92406400D02*
G75*
G03*
X94525400Y-92000000I0J203200D01*
G01*
X105241422Y-100710000D02*
X105758578Y-100710000D01*
X105241422Y-99290000D02*
X105758578Y-99290000D01*
X105296800Y-99593600D02*
X105296800Y-100406400D01*
X105296800Y-100406400D02*
X105576200Y-100406400D01*
X105296800Y-100000000D02*
X105525400Y-100000000D01*
X105296800Y-100000000D02*
X105576200Y-100000000D01*
X105296800Y-99593600D02*
X105525400Y-99593600D01*
X105525400Y-100000000D02*
G75*
G03*
X105525400Y-99593600I0J203200D01*
G01*
X105525400Y-100406400D02*
G75*
G03*
X105525400Y-100000000I0J203200D01*
G01*
X101741422Y-98710000D02*
X102258578Y-98710000D01*
X101741422Y-97290000D02*
X102258578Y-97290000D01*
X102228600Y-98330200D02*
X102101600Y-98406400D01*
X102101600Y-98406400D02*
X101949200Y-98406400D01*
X101949200Y-98406400D02*
X101822200Y-98304800D01*
X101822200Y-98304800D02*
X101771400Y-98152400D01*
X101771400Y-98152400D02*
X101746000Y-98025400D01*
X102228600Y-97695200D02*
X102101600Y-97619000D01*
X102101600Y-97619000D02*
X101949200Y-97619000D01*
X101949200Y-97619000D02*
X101822200Y-97720600D01*
X101822200Y-97720600D02*
X101771400Y-97873000D01*
X101771400Y-97873000D02*
X101746000Y-98000000D01*
X94758578Y-95290000D02*
X94241422Y-95290000D01*
X94758578Y-96710000D02*
X94241422Y-96710000D01*
X94271400Y-95669800D02*
X94398400Y-95593600D01*
X94398400Y-95593600D02*
X94550800Y-95593600D01*
X94550800Y-95593600D02*
X94677800Y-95695200D01*
X94677800Y-95695200D02*
X94728600Y-95847600D01*
X94728600Y-95847600D02*
X94754000Y-95974600D01*
X94271400Y-96304800D02*
X94398400Y-96381000D01*
X94398400Y-96381000D02*
X94550800Y-96381000D01*
X94550800Y-96381000D02*
X94677800Y-96279400D01*
X94677800Y-96279400D02*
X94728600Y-96127000D01*
X94728600Y-96127000D02*
X94754000Y-96000000D01*
X97960000Y-54908578D02*
X97960000Y-54391422D01*
X96540000Y-54908578D02*
X96540000Y-54391422D01*
X97580200Y-54421400D02*
X97656400Y-54548400D01*
X97656400Y-54548400D02*
X97656400Y-54700800D01*
X97656400Y-54700800D02*
X97554800Y-54827800D01*
X97554800Y-54827800D02*
X97402400Y-54878600D01*
X97402400Y-54878600D02*
X97275400Y-54904000D01*
X96945200Y-54421400D02*
X96869000Y-54548400D01*
X96869000Y-54548400D02*
X96869000Y-54700800D01*
X96869000Y-54700800D02*
X96970600Y-54827800D01*
X96970600Y-54827800D02*
X97123000Y-54878600D01*
X97123000Y-54878600D02*
X97250000Y-54904000D01*
X101741422Y-104710000D02*
X102258578Y-104710000D01*
X101741422Y-103290000D02*
X102258578Y-103290000D01*
X102228600Y-104330200D02*
X102101600Y-104406400D01*
X102101600Y-104406400D02*
X101949200Y-104406400D01*
X101949200Y-104406400D02*
X101822200Y-104304800D01*
X101822200Y-104304800D02*
X101771400Y-104152400D01*
X101771400Y-104152400D02*
X101746000Y-104025400D01*
X102228600Y-103695200D02*
X102101600Y-103619000D01*
X102101600Y-103619000D02*
X101949200Y-103619000D01*
X101949200Y-103619000D02*
X101822200Y-103720600D01*
X101822200Y-103720600D02*
X101771400Y-103873000D01*
X101771400Y-103873000D02*
X101746000Y-104000000D01*
X98258578Y-97290000D02*
X97741422Y-97290000D01*
X98258578Y-98710000D02*
X97741422Y-98710000D01*
X97771400Y-97669800D02*
X97898400Y-97593600D01*
X97898400Y-97593600D02*
X98050800Y-97593600D01*
X98050800Y-97593600D02*
X98177800Y-97695200D01*
X98177800Y-97695200D02*
X98228600Y-97847600D01*
X98228600Y-97847600D02*
X98254000Y-97974600D01*
X97771400Y-98304800D02*
X97898400Y-98381000D01*
X97898400Y-98381000D02*
X98050800Y-98381000D01*
X98050800Y-98381000D02*
X98177800Y-98279400D01*
X98177800Y-98279400D02*
X98228600Y-98127000D01*
X98228600Y-98127000D02*
X98254000Y-98000000D01*
D12*
X105330000Y-110287000D02*
G75*
G03*
X105330000Y-110287000I-250000J0D01*
G01*
D10*
X102725000Y-110870000D02*
X104400000Y-110870000D01*
X102725000Y-110610000D02*
X102725000Y-110870000D01*
X100000000Y-110610000D02*
X102725000Y-110610000D01*
X97275000Y-110610000D02*
X97275000Y-110870000D01*
X100000000Y-110610000D02*
X97275000Y-110610000D01*
X102725000Y-116060000D02*
X102725000Y-115800000D01*
X100000000Y-116060000D02*
X102725000Y-116060000D01*
X97275000Y-116060000D02*
X97275000Y-115800000D01*
X100000000Y-116060000D02*
X97275000Y-116060000D01*
D12*
X129920000Y-53495000D02*
G75*
G03*
X129920000Y-53495000I-250000J0D01*
G01*
D10*
X126670000Y-54935000D02*
X130120000Y-54935000D01*
X126670000Y-54935000D02*
X124720000Y-54935000D01*
X126670000Y-65055000D02*
X128620000Y-65055000D01*
X126670000Y-65055000D02*
X124720000Y-65055000D01*
X126170000Y-54995000D02*
G75*
G03*
X127170000Y-54995000I500000J0D01*
G01*
D12*
X76580000Y-53495000D02*
G75*
G03*
X76580000Y-53495000I-250000J0D01*
G01*
D10*
X73330000Y-54935000D02*
X76780000Y-54935000D01*
X73330000Y-54935000D02*
X71380000Y-54935000D01*
X73330000Y-65055000D02*
X75280000Y-65055000D01*
X73330000Y-65055000D02*
X71380000Y-65055000D01*
X72830000Y-54995000D02*
G75*
G03*
X73830000Y-54995000I500000J0D01*
G01*
X129920000Y-67238578D02*
X129920000Y-66721422D01*
X128500000Y-67238578D02*
X128500000Y-66721422D01*
X129540200Y-66751400D02*
X129616400Y-66878400D01*
X129616400Y-66878400D02*
X129616400Y-67030800D01*
X129616400Y-67030800D02*
X129514800Y-67157800D01*
X129514800Y-67157800D02*
X129362400Y-67208600D01*
X129362400Y-67208600D02*
X129235400Y-67234000D01*
X128905200Y-66751400D02*
X128829000Y-66878400D01*
X128829000Y-66878400D02*
X128829000Y-67030800D01*
X128829000Y-67030800D02*
X128930600Y-67157800D01*
X128930600Y-67157800D02*
X129083000Y-67208600D01*
X129083000Y-67208600D02*
X129210000Y-67234000D01*
X76580000Y-67238578D02*
X76580000Y-66721422D01*
X75160000Y-67238578D02*
X75160000Y-66721422D01*
X76200200Y-66751400D02*
X76276400Y-66878400D01*
X76276400Y-66878400D02*
X76276400Y-67030800D01*
X76276400Y-67030800D02*
X76174800Y-67157800D01*
X76174800Y-67157800D02*
X76022400Y-67208600D01*
X76022400Y-67208600D02*
X75895400Y-67234000D01*
X75565200Y-66751400D02*
X75489000Y-66878400D01*
X75489000Y-66878400D02*
X75489000Y-67030800D01*
X75489000Y-67030800D02*
X75590600Y-67157800D01*
X75590600Y-67157800D02*
X75743000Y-67208600D01*
X75743000Y-67208600D02*
X75870000Y-67234000D01*
X141835000Y-59736422D02*
X141835000Y-60253578D01*
X143255000Y-59736422D02*
X143255000Y-60253578D01*
X142875200Y-59791800D02*
X142138600Y-59791800D01*
X142138600Y-59791800D02*
X142138600Y-60071200D01*
X142545000Y-59791800D02*
X142545000Y-60020400D01*
X142875200Y-60223600D02*
X142545000Y-59995000D01*
X142138600Y-60020400D02*
G75*
G03*
X142545000Y-60020400I203200J0D01*
G01*
X140715000Y-60253578D02*
X140715000Y-59736422D01*
X139295000Y-60253578D02*
X139295000Y-59736422D01*
X139674800Y-60198200D02*
X140411400Y-60198200D01*
X140411400Y-60198200D02*
X140411400Y-59918800D01*
X140005000Y-60198200D02*
X140005000Y-59969600D01*
X139674800Y-59766400D02*
X140005000Y-59995000D01*
X140411400Y-59969600D02*
G75*
G03*
X140005000Y-59969600I-203200J0D01*
G01*
X138175000Y-64063578D02*
X138175000Y-63546422D01*
X136755000Y-64063578D02*
X136755000Y-63546422D01*
X137134800Y-64008200D02*
X137871400Y-64008200D01*
X137871400Y-64008200D02*
X137871400Y-63728800D01*
X137465000Y-64008200D02*
X137465000Y-63779600D01*
X137134800Y-63576400D02*
X137465000Y-63805000D01*
X137871400Y-63779600D02*
G75*
G03*
X137465000Y-63779600I-203200J0D01*
G01*
X143255000Y-64063578D02*
X143255000Y-63546422D01*
X141835000Y-64063578D02*
X141835000Y-63546422D01*
X142214800Y-64008200D02*
X142951400Y-64008200D01*
X142951400Y-64008200D02*
X142951400Y-63728800D01*
X142545000Y-64008200D02*
X142545000Y-63779600D01*
X142214800Y-63576400D02*
X142545000Y-63805000D01*
X142951400Y-63779600D02*
G75*
G03*
X142545000Y-63779600I-203200J0D01*
G01*
X140715000Y-64063578D02*
X140715000Y-63546422D01*
X139295000Y-64063578D02*
X139295000Y-63546422D01*
X139674800Y-64008200D02*
X140411400Y-64008200D01*
X140411400Y-64008200D02*
X140411400Y-63728800D01*
X140005000Y-64008200D02*
X140005000Y-63779600D01*
X139674800Y-63576400D02*
X140005000Y-63805000D01*
X140411400Y-63779600D02*
G75*
G03*
X140005000Y-63779600I-203200J0D01*
G01*
X110085000Y-59736422D02*
X110085000Y-60253578D01*
X111505000Y-59736422D02*
X111505000Y-60253578D01*
X111125200Y-59791800D02*
X110388600Y-59791800D01*
X110388600Y-59791800D02*
X110388600Y-60071200D01*
X110795000Y-59791800D02*
X110795000Y-60020400D01*
X111125200Y-60223600D02*
X110795000Y-59995000D01*
X110388600Y-60020400D02*
G75*
G03*
X110795000Y-60020400I203200J0D01*
G01*
X115165000Y-59736422D02*
X115165000Y-60253578D01*
X116585000Y-59736422D02*
X116585000Y-60253578D01*
X116205200Y-59791800D02*
X115468600Y-59791800D01*
X115468600Y-59791800D02*
X115468600Y-60071200D01*
X115875000Y-59791800D02*
X115875000Y-60020400D01*
X116205200Y-60223600D02*
X115875000Y-59995000D01*
X115468600Y-60020400D02*
G75*
G03*
X115875000Y-60020400I203200J0D01*
G01*
X114045000Y-60253578D02*
X114045000Y-59736422D01*
X112625000Y-60253578D02*
X112625000Y-59736422D01*
X113004800Y-60198200D02*
X113741400Y-60198200D01*
X113741400Y-60198200D02*
X113741400Y-59918800D01*
X113335000Y-60198200D02*
X113335000Y-59969600D01*
X113004800Y-59766400D02*
X113335000Y-59995000D01*
X113741400Y-59969600D02*
G75*
G03*
X113335000Y-59969600I-203200J0D01*
G01*
X111505000Y-64063578D02*
X111505000Y-63546422D01*
X110085000Y-64063578D02*
X110085000Y-63546422D01*
X110464800Y-64008200D02*
X111201400Y-64008200D01*
X111201400Y-64008200D02*
X111201400Y-63728800D01*
X110795000Y-64008200D02*
X110795000Y-63779600D01*
X110464800Y-63576400D02*
X110795000Y-63805000D01*
X111201400Y-63779600D02*
G75*
G03*
X110795000Y-63779600I-203200J0D01*
G01*
X116585000Y-64063578D02*
X116585000Y-63546422D01*
X115165000Y-64063578D02*
X115165000Y-63546422D01*
X115544800Y-64008200D02*
X116281400Y-64008200D01*
X116281400Y-64008200D02*
X116281400Y-63728800D01*
X115875000Y-64008200D02*
X115875000Y-63779600D01*
X115544800Y-63576400D02*
X115875000Y-63805000D01*
X116281400Y-63779600D02*
G75*
G03*
X115875000Y-63779600I-203200J0D01*
G01*
X114045000Y-64063578D02*
X114045000Y-63546422D01*
X112625000Y-64063578D02*
X112625000Y-63546422D01*
X113004800Y-64008200D02*
X113741400Y-64008200D01*
X113741400Y-64008200D02*
X113741400Y-63728800D01*
X113335000Y-64008200D02*
X113335000Y-63779600D01*
X113004800Y-63576400D02*
X113335000Y-63805000D01*
X113741400Y-63779600D02*
G75*
G03*
X113335000Y-63779600I-203200J0D01*
G01*
X83415000Y-59736422D02*
X83415000Y-60253578D01*
X84835000Y-59736422D02*
X84835000Y-60253578D01*
X84455200Y-59791800D02*
X83718600Y-59791800D01*
X83718600Y-59791800D02*
X83718600Y-60071200D01*
X84125000Y-59791800D02*
X84125000Y-60020400D01*
X84455200Y-60223600D02*
X84125000Y-59995000D01*
X83718600Y-60020400D02*
G75*
G03*
X84125000Y-60020400I203200J0D01*
G01*
X88495000Y-59736422D02*
X88495000Y-60253578D01*
X89915000Y-59736422D02*
X89915000Y-60253578D01*
X89535200Y-59791800D02*
X88798600Y-59791800D01*
X88798600Y-59791800D02*
X88798600Y-60071200D01*
X89205000Y-59791800D02*
X89205000Y-60020400D01*
X89535200Y-60223600D02*
X89205000Y-59995000D01*
X88798600Y-60020400D02*
G75*
G03*
X89205000Y-60020400I203200J0D01*
G01*
X87375000Y-60253578D02*
X87375000Y-59736422D01*
X85955000Y-60253578D02*
X85955000Y-59736422D01*
X86334800Y-60198200D02*
X87071400Y-60198200D01*
X87071400Y-60198200D02*
X87071400Y-59918800D01*
X86665000Y-60198200D02*
X86665000Y-59969600D01*
X86334800Y-59766400D02*
X86665000Y-59995000D01*
X87071400Y-59969600D02*
G75*
G03*
X86665000Y-59969600I-203200J0D01*
G01*
X84835000Y-64063578D02*
X84835000Y-63546422D01*
X83415000Y-64063578D02*
X83415000Y-63546422D01*
X83794800Y-64008200D02*
X84531400Y-64008200D01*
X84531400Y-64008200D02*
X84531400Y-63728800D01*
X84125000Y-64008200D02*
X84125000Y-63779600D01*
X83794800Y-63576400D02*
X84125000Y-63805000D01*
X84531400Y-63779600D02*
G75*
G03*
X84125000Y-63779600I-203200J0D01*
G01*
X89915000Y-64063578D02*
X89915000Y-63546422D01*
X88495000Y-64063578D02*
X88495000Y-63546422D01*
X88874800Y-64008200D02*
X89611400Y-64008200D01*
X89611400Y-64008200D02*
X89611400Y-63728800D01*
X89205000Y-64008200D02*
X89205000Y-63779600D01*
X88874800Y-63576400D02*
X89205000Y-63805000D01*
X89611400Y-63779600D02*
G75*
G03*
X89205000Y-63779600I-203200J0D01*
G01*
X87375000Y-64063578D02*
X87375000Y-63546422D01*
X85955000Y-64063578D02*
X85955000Y-63546422D01*
X86334800Y-64008200D02*
X87071400Y-64008200D01*
X87071400Y-64008200D02*
X87071400Y-63728800D01*
X86665000Y-64008200D02*
X86665000Y-63779600D01*
X86334800Y-63576400D02*
X86665000Y-63805000D01*
X87071400Y-63779600D02*
G75*
G03*
X86665000Y-63779600I-203200J0D01*
G01*
X56745000Y-59736422D02*
X56745000Y-60253578D01*
X58165000Y-59736422D02*
X58165000Y-60253578D01*
X57785200Y-59791800D02*
X57048600Y-59791800D01*
X57048600Y-59791800D02*
X57048600Y-60071200D01*
X57455000Y-59791800D02*
X57455000Y-60020400D01*
X57785200Y-60223600D02*
X57455000Y-59995000D01*
X57048600Y-60020400D02*
G75*
G03*
X57455000Y-60020400I203200J0D01*
G01*
X61825000Y-59736422D02*
X61825000Y-60253578D01*
X63245000Y-59736422D02*
X63245000Y-60253578D01*
X62865200Y-59791800D02*
X62128600Y-59791800D01*
X62128600Y-59791800D02*
X62128600Y-60071200D01*
X62535000Y-59791800D02*
X62535000Y-60020400D01*
X62865200Y-60223600D02*
X62535000Y-59995000D01*
X62128600Y-60020400D02*
G75*
G03*
X62535000Y-60020400I203200J0D01*
G01*
X60705000Y-60253578D02*
X60705000Y-59736422D01*
X59285000Y-60253578D02*
X59285000Y-59736422D01*
X59664800Y-60198200D02*
X60401400Y-60198200D01*
X60401400Y-60198200D02*
X60401400Y-59918800D01*
X59995000Y-60198200D02*
X59995000Y-59969600D01*
X59664800Y-59766400D02*
X59995000Y-59995000D01*
X60401400Y-59969600D02*
G75*
G03*
X59995000Y-59969600I-203200J0D01*
G01*
X58165000Y-64063578D02*
X58165000Y-63546422D01*
X56745000Y-64063578D02*
X56745000Y-63546422D01*
X57124800Y-64008200D02*
X57861400Y-64008200D01*
X57861400Y-64008200D02*
X57861400Y-63728800D01*
X57455000Y-64008200D02*
X57455000Y-63779600D01*
X57124800Y-63576400D02*
X57455000Y-63805000D01*
X57861400Y-63779600D02*
G75*
G03*
X57455000Y-63779600I-203200J0D01*
G01*
X63245000Y-64063578D02*
X63245000Y-63546422D01*
X61825000Y-64063578D02*
X61825000Y-63546422D01*
X62204800Y-64008200D02*
X62941400Y-64008200D01*
X62941400Y-64008200D02*
X62941400Y-63728800D01*
X62535000Y-64008200D02*
X62535000Y-63779600D01*
X62204800Y-63576400D02*
X62535000Y-63805000D01*
X62941400Y-63779600D02*
G75*
G03*
X62535000Y-63779600I-203200J0D01*
G01*
X60705000Y-64063578D02*
X60705000Y-63546422D01*
X59285000Y-64063578D02*
X59285000Y-63546422D01*
X59664800Y-64008200D02*
X60401400Y-64008200D01*
X60401400Y-64008200D02*
X60401400Y-63728800D01*
X59995000Y-64008200D02*
X59995000Y-63779600D01*
X59664800Y-63576400D02*
X59995000Y-63805000D01*
X60401400Y-63779600D02*
G75*
G03*
X59995000Y-63779600I-203200J0D01*
G01*
X138175000Y-56443578D02*
X138175000Y-55926422D01*
X136755000Y-56443578D02*
X136755000Y-55926422D01*
X137795200Y-55956400D02*
X137871400Y-56083400D01*
X137871400Y-56083400D02*
X137871400Y-56235800D01*
X137871400Y-56235800D02*
X137769800Y-56362800D01*
X137769800Y-56362800D02*
X137617400Y-56413600D01*
X137617400Y-56413600D02*
X137490400Y-56439000D01*
X137160200Y-55956400D02*
X137084000Y-56083400D01*
X137084000Y-56083400D02*
X137084000Y-56235800D01*
X137084000Y-56235800D02*
X137185600Y-56362800D01*
X137185600Y-56362800D02*
X137338000Y-56413600D01*
X137338000Y-56413600D02*
X137465000Y-56439000D01*
X143255000Y-56443578D02*
X143255000Y-55926422D01*
X141835000Y-56443578D02*
X141835000Y-55926422D01*
X142875200Y-55956400D02*
X142951400Y-56083400D01*
X142951400Y-56083400D02*
X142951400Y-56235800D01*
X142951400Y-56235800D02*
X142849800Y-56362800D01*
X142849800Y-56362800D02*
X142697400Y-56413600D01*
X142697400Y-56413600D02*
X142570400Y-56439000D01*
X142240200Y-55956400D02*
X142164000Y-56083400D01*
X142164000Y-56083400D02*
X142164000Y-56235800D01*
X142164000Y-56235800D02*
X142265600Y-56362800D01*
X142265600Y-56362800D02*
X142418000Y-56413600D01*
X142418000Y-56413600D02*
X142545000Y-56439000D01*
X140715000Y-56443578D02*
X140715000Y-55926422D01*
X139295000Y-56443578D02*
X139295000Y-55926422D01*
X140335200Y-55956400D02*
X140411400Y-56083400D01*
X140411400Y-56083400D02*
X140411400Y-56235800D01*
X140411400Y-56235800D02*
X140309800Y-56362800D01*
X140309800Y-56362800D02*
X140157400Y-56413600D01*
X140157400Y-56413600D02*
X140030400Y-56439000D01*
X139700200Y-55956400D02*
X139624000Y-56083400D01*
X139624000Y-56083400D02*
X139624000Y-56235800D01*
X139624000Y-56235800D02*
X139725600Y-56362800D01*
X139725600Y-56362800D02*
X139878000Y-56413600D01*
X139878000Y-56413600D02*
X140005000Y-56439000D01*
X111505000Y-56443578D02*
X111505000Y-55926422D01*
X110085000Y-56443578D02*
X110085000Y-55926422D01*
X111125200Y-55956400D02*
X111201400Y-56083400D01*
X111201400Y-56083400D02*
X111201400Y-56235800D01*
X111201400Y-56235800D02*
X111099800Y-56362800D01*
X111099800Y-56362800D02*
X110947400Y-56413600D01*
X110947400Y-56413600D02*
X110820400Y-56439000D01*
X110490200Y-55956400D02*
X110414000Y-56083400D01*
X110414000Y-56083400D02*
X110414000Y-56235800D01*
X110414000Y-56235800D02*
X110515600Y-56362800D01*
X110515600Y-56362800D02*
X110668000Y-56413600D01*
X110668000Y-56413600D02*
X110795000Y-56439000D01*
X116585000Y-56443578D02*
X116585000Y-55926422D01*
X115165000Y-56443578D02*
X115165000Y-55926422D01*
X116205200Y-55956400D02*
X116281400Y-56083400D01*
X116281400Y-56083400D02*
X116281400Y-56235800D01*
X116281400Y-56235800D02*
X116179800Y-56362800D01*
X116179800Y-56362800D02*
X116027400Y-56413600D01*
X116027400Y-56413600D02*
X115900400Y-56439000D01*
X115570200Y-55956400D02*
X115494000Y-56083400D01*
X115494000Y-56083400D02*
X115494000Y-56235800D01*
X115494000Y-56235800D02*
X115595600Y-56362800D01*
X115595600Y-56362800D02*
X115748000Y-56413600D01*
X115748000Y-56413600D02*
X115875000Y-56439000D01*
X114045000Y-56443578D02*
X114045000Y-55926422D01*
X112625000Y-56443578D02*
X112625000Y-55926422D01*
X113665200Y-55956400D02*
X113741400Y-56083400D01*
X113741400Y-56083400D02*
X113741400Y-56235800D01*
X113741400Y-56235800D02*
X113639800Y-56362800D01*
X113639800Y-56362800D02*
X113487400Y-56413600D01*
X113487400Y-56413600D02*
X113360400Y-56439000D01*
X113030200Y-55956400D02*
X112954000Y-56083400D01*
X112954000Y-56083400D02*
X112954000Y-56235800D01*
X112954000Y-56235800D02*
X113055600Y-56362800D01*
X113055600Y-56362800D02*
X113208000Y-56413600D01*
X113208000Y-56413600D02*
X113335000Y-56439000D01*
X84835000Y-56443578D02*
X84835000Y-55926422D01*
X83415000Y-56443578D02*
X83415000Y-55926422D01*
X84455200Y-55956400D02*
X84531400Y-56083400D01*
X84531400Y-56083400D02*
X84531400Y-56235800D01*
X84531400Y-56235800D02*
X84429800Y-56362800D01*
X84429800Y-56362800D02*
X84277400Y-56413600D01*
X84277400Y-56413600D02*
X84150400Y-56439000D01*
X83820200Y-55956400D02*
X83744000Y-56083400D01*
X83744000Y-56083400D02*
X83744000Y-56235800D01*
X83744000Y-56235800D02*
X83845600Y-56362800D01*
X83845600Y-56362800D02*
X83998000Y-56413600D01*
X83998000Y-56413600D02*
X84125000Y-56439000D01*
X89915000Y-56443578D02*
X89915000Y-55926422D01*
X88495000Y-56443578D02*
X88495000Y-55926422D01*
X89535200Y-55956400D02*
X89611400Y-56083400D01*
X89611400Y-56083400D02*
X89611400Y-56235800D01*
X89611400Y-56235800D02*
X89509800Y-56362800D01*
X89509800Y-56362800D02*
X89357400Y-56413600D01*
X89357400Y-56413600D02*
X89230400Y-56439000D01*
X88900200Y-55956400D02*
X88824000Y-56083400D01*
X88824000Y-56083400D02*
X88824000Y-56235800D01*
X88824000Y-56235800D02*
X88925600Y-56362800D01*
X88925600Y-56362800D02*
X89078000Y-56413600D01*
X89078000Y-56413600D02*
X89205000Y-56439000D01*
X87375000Y-56443578D02*
X87375000Y-55926422D01*
X85955000Y-56443578D02*
X85955000Y-55926422D01*
X86995200Y-55956400D02*
X87071400Y-56083400D01*
X87071400Y-56083400D02*
X87071400Y-56235800D01*
X87071400Y-56235800D02*
X86969800Y-56362800D01*
X86969800Y-56362800D02*
X86817400Y-56413600D01*
X86817400Y-56413600D02*
X86690400Y-56439000D01*
X86360200Y-55956400D02*
X86284000Y-56083400D01*
X86284000Y-56083400D02*
X86284000Y-56235800D01*
X86284000Y-56235800D02*
X86385600Y-56362800D01*
X86385600Y-56362800D02*
X86538000Y-56413600D01*
X86538000Y-56413600D02*
X86665000Y-56439000D01*
X58165000Y-56443578D02*
X58165000Y-55926422D01*
X56745000Y-56443578D02*
X56745000Y-55926422D01*
X57785200Y-55956400D02*
X57861400Y-56083400D01*
X57861400Y-56083400D02*
X57861400Y-56235800D01*
X57861400Y-56235800D02*
X57759800Y-56362800D01*
X57759800Y-56362800D02*
X57607400Y-56413600D01*
X57607400Y-56413600D02*
X57480400Y-56439000D01*
X57150200Y-55956400D02*
X57074000Y-56083400D01*
X57074000Y-56083400D02*
X57074000Y-56235800D01*
X57074000Y-56235800D02*
X57175600Y-56362800D01*
X57175600Y-56362800D02*
X57328000Y-56413600D01*
X57328000Y-56413600D02*
X57455000Y-56439000D01*
X63245000Y-56443578D02*
X63245000Y-55926422D01*
X61825000Y-56443578D02*
X61825000Y-55926422D01*
X62865200Y-55956400D02*
X62941400Y-56083400D01*
X62941400Y-56083400D02*
X62941400Y-56235800D01*
X62941400Y-56235800D02*
X62839800Y-56362800D01*
X62839800Y-56362800D02*
X62687400Y-56413600D01*
X62687400Y-56413600D02*
X62560400Y-56439000D01*
X62230200Y-55956400D02*
X62154000Y-56083400D01*
X62154000Y-56083400D02*
X62154000Y-56235800D01*
X62154000Y-56235800D02*
X62255600Y-56362800D01*
X62255600Y-56362800D02*
X62408000Y-56413600D01*
X62408000Y-56413600D02*
X62535000Y-56439000D01*
X60705000Y-56443578D02*
X60705000Y-55926422D01*
X59285000Y-56443578D02*
X59285000Y-55926422D01*
X60325200Y-55956400D02*
X60401400Y-56083400D01*
X60401400Y-56083400D02*
X60401400Y-56235800D01*
X60401400Y-56235800D02*
X60299800Y-56362800D01*
X60299800Y-56362800D02*
X60147400Y-56413600D01*
X60147400Y-56413600D02*
X60020400Y-56439000D01*
X59690200Y-55956400D02*
X59614000Y-56083400D01*
X59614000Y-56083400D02*
X59614000Y-56235800D01*
X59614000Y-56235800D02*
X59715600Y-56362800D01*
X59715600Y-56362800D02*
X59868000Y-56413600D01*
X59868000Y-56413600D02*
X59995000Y-56439000D01*
X105241422Y-94710000D02*
X105758578Y-94710000D01*
X105241422Y-93290000D02*
X105758578Y-93290000D01*
X105728600Y-94330200D02*
X105601600Y-94406400D01*
X105601600Y-94406400D02*
X105449200Y-94406400D01*
X105449200Y-94406400D02*
X105322200Y-94304800D01*
X105322200Y-94304800D02*
X105271400Y-94152400D01*
X105271400Y-94152400D02*
X105246000Y-94025400D01*
X105728600Y-93695200D02*
X105601600Y-93619000D01*
X105601600Y-93619000D02*
X105449200Y-93619000D01*
X105449200Y-93619000D02*
X105322200Y-93720600D01*
X105322200Y-93720600D02*
X105271400Y-93873000D01*
X105271400Y-93873000D02*
X105246000Y-94000000D01*
X105241422Y-98710000D02*
X105758578Y-98710000D01*
X105241422Y-97290000D02*
X105758578Y-97290000D01*
X105728600Y-98330200D02*
X105601600Y-98406400D01*
X105601600Y-98406400D02*
X105449200Y-98406400D01*
X105449200Y-98406400D02*
X105322200Y-98304800D01*
X105322200Y-98304800D02*
X105271400Y-98152400D01*
X105271400Y-98152400D02*
X105246000Y-98025400D01*
X105728600Y-97695200D02*
X105601600Y-97619000D01*
X105601600Y-97619000D02*
X105449200Y-97619000D01*
X105449200Y-97619000D02*
X105322200Y-97720600D01*
X105322200Y-97720600D02*
X105271400Y-97873000D01*
X105271400Y-97873000D02*
X105246000Y-98000000D01*
X101741422Y-106710000D02*
X102258578Y-106710000D01*
X101741422Y-105290000D02*
X102258578Y-105290000D01*
X102228600Y-106330200D02*
X102101600Y-106406400D01*
X102101600Y-106406400D02*
X101949200Y-106406400D01*
X101949200Y-106406400D02*
X101822200Y-106304800D01*
X101822200Y-106304800D02*
X101771400Y-106152400D01*
X101771400Y-106152400D02*
X101746000Y-106025400D01*
X102228600Y-105695200D02*
X102101600Y-105619000D01*
X102101600Y-105619000D02*
X101949200Y-105619000D01*
X101949200Y-105619000D02*
X101822200Y-105720600D01*
X101822200Y-105720600D02*
X101771400Y-105873000D01*
X101771400Y-105873000D02*
X101746000Y-106000000D01*
X94241422Y-100710000D02*
X94758578Y-100710000D01*
X94241422Y-99290000D02*
X94758578Y-99290000D01*
X94296800Y-99593600D02*
X94296800Y-100406400D01*
X94296800Y-100406400D02*
X94576200Y-100406400D01*
X94296800Y-100000000D02*
X94525400Y-100000000D01*
X94296800Y-100000000D02*
X94576200Y-100000000D01*
X94296800Y-99593600D02*
X94525400Y-99593600D01*
X94525400Y-100000000D02*
G75*
G03*
X94525400Y-99593600I0J203200D01*
G01*
X94525400Y-100406400D02*
G75*
G03*
X94525400Y-100000000I0J203200D01*
G01*
X101741422Y-94710000D02*
X102258578Y-94710000D01*
X101741422Y-93290000D02*
X102258578Y-93290000D01*
X102228600Y-94330200D02*
X102101600Y-94406400D01*
X102101600Y-94406400D02*
X101949200Y-94406400D01*
X101949200Y-94406400D02*
X101822200Y-94304800D01*
X101822200Y-94304800D02*
X101771400Y-94152400D01*
X101771400Y-94152400D02*
X101746000Y-94025400D01*
X102228600Y-93695200D02*
X102101600Y-93619000D01*
X102101600Y-93619000D02*
X101949200Y-93619000D01*
X101949200Y-93619000D02*
X101822200Y-93720600D01*
X101822200Y-93720600D02*
X101771400Y-93873000D01*
X101771400Y-93873000D02*
X101746000Y-94000000D01*
X105758578Y-103290000D02*
X105241422Y-103290000D01*
X105758578Y-104710000D02*
X105241422Y-104710000D01*
X105271400Y-103669800D02*
X105398400Y-103593600D01*
X105398400Y-103593600D02*
X105550800Y-103593600D01*
X105550800Y-103593600D02*
X105677800Y-103695200D01*
X105677800Y-103695200D02*
X105728600Y-103847600D01*
X105728600Y-103847600D02*
X105754000Y-103974600D01*
X105271400Y-104304800D02*
X105398400Y-104381000D01*
X105398400Y-104381000D02*
X105550800Y-104381000D01*
X105550800Y-104381000D02*
X105677800Y-104279400D01*
X105677800Y-104279400D02*
X105728600Y-104127000D01*
X105728600Y-104127000D02*
X105754000Y-104000000D01*
X94758578Y-105290000D02*
X94241422Y-105290000D01*
X94758578Y-106710000D02*
X94241422Y-106710000D01*
X94271400Y-105669800D02*
X94398400Y-105593600D01*
X94398400Y-105593600D02*
X94550800Y-105593600D01*
X94550800Y-105593600D02*
X94677800Y-105695200D01*
X94677800Y-105695200D02*
X94728600Y-105847600D01*
X94728600Y-105847600D02*
X94754000Y-105974600D01*
X94271400Y-106304800D02*
X94398400Y-106381000D01*
X94398400Y-106381000D02*
X94550800Y-106381000D01*
X94550800Y-106381000D02*
X94677800Y-106279400D01*
X94677800Y-106279400D02*
X94728600Y-106127000D01*
X94728600Y-106127000D02*
X94754000Y-106000000D01*
X105758578Y-105290000D02*
X105241422Y-105290000D01*
X105758578Y-106710000D02*
X105241422Y-106710000D01*
X105271400Y-105669800D02*
X105398400Y-105593600D01*
X105398400Y-105593600D02*
X105550800Y-105593600D01*
X105550800Y-105593600D02*
X105677800Y-105695200D01*
X105677800Y-105695200D02*
X105728600Y-105847600D01*
X105728600Y-105847600D02*
X105754000Y-105974600D01*
X105271400Y-106304800D02*
X105398400Y-106381000D01*
X105398400Y-106381000D02*
X105550800Y-106381000D01*
X105550800Y-106381000D02*
X105677800Y-106279400D01*
X105677800Y-106279400D02*
X105728600Y-106127000D01*
X105728600Y-106127000D02*
X105754000Y-106000000D01*
X94758578Y-103290000D02*
X94241422Y-103290000D01*
X94758578Y-104710000D02*
X94241422Y-104710000D01*
X94271400Y-103669800D02*
X94398400Y-103593600D01*
X94398400Y-103593600D02*
X94550800Y-103593600D01*
X94550800Y-103593600D02*
X94677800Y-103695200D01*
X94677800Y-103695200D02*
X94728600Y-103847600D01*
X94728600Y-103847600D02*
X94754000Y-103974600D01*
X94271400Y-104304800D02*
X94398400Y-104381000D01*
X94398400Y-104381000D02*
X94550800Y-104381000D01*
X94550800Y-104381000D02*
X94677800Y-104279400D01*
X94677800Y-104279400D02*
X94728600Y-104127000D01*
X94728600Y-104127000D02*
X94754000Y-104000000D01*
X97741422Y-106710000D02*
X98258578Y-106710000D01*
X97741422Y-105290000D02*
X98258578Y-105290000D01*
X98228600Y-106330200D02*
X98101600Y-106406400D01*
X98101600Y-106406400D02*
X97949200Y-106406400D01*
X97949200Y-106406400D02*
X97822200Y-106304800D01*
X97822200Y-106304800D02*
X97771400Y-106152400D01*
X97771400Y-106152400D02*
X97746000Y-106025400D01*
X98228600Y-105695200D02*
X98101600Y-105619000D01*
X98101600Y-105619000D02*
X97949200Y-105619000D01*
X97949200Y-105619000D02*
X97822200Y-105720600D01*
X97822200Y-105720600D02*
X97771400Y-105873000D01*
X97771400Y-105873000D02*
X97746000Y-106000000D01*
X97741422Y-104710000D02*
X98258578Y-104710000D01*
X97741422Y-103290000D02*
X98258578Y-103290000D01*
X98228600Y-104330200D02*
X98101600Y-104406400D01*
X98101600Y-104406400D02*
X97949200Y-104406400D01*
X97949200Y-104406400D02*
X97822200Y-104304800D01*
X97822200Y-104304800D02*
X97771400Y-104152400D01*
X97771400Y-104152400D02*
X97746000Y-104025400D01*
X98228600Y-103695200D02*
X98101600Y-103619000D01*
X98101600Y-103619000D02*
X97949200Y-103619000D01*
X97949200Y-103619000D02*
X97822200Y-103720600D01*
X97822200Y-103720600D02*
X97771400Y-103873000D01*
X97771400Y-103873000D02*
X97746000Y-104000000D01*
X94241422Y-102710000D02*
X94758578Y-102710000D01*
X94241422Y-101290000D02*
X94758578Y-101290000D01*
X94728600Y-102330200D02*
X94601600Y-102406400D01*
X94601600Y-102406400D02*
X94449200Y-102406400D01*
X94449200Y-102406400D02*
X94322200Y-102304800D01*
X94322200Y-102304800D02*
X94271400Y-102152400D01*
X94271400Y-102152400D02*
X94246000Y-102025400D01*
X94728600Y-101695200D02*
X94601600Y-101619000D01*
X94601600Y-101619000D02*
X94449200Y-101619000D01*
X94449200Y-101619000D02*
X94322200Y-101720600D01*
X94322200Y-101720600D02*
X94271400Y-101873000D01*
X94271400Y-101873000D02*
X94246000Y-102000000D01*
X94241422Y-98710000D02*
X94758578Y-98710000D01*
X94241422Y-97290000D02*
X94758578Y-97290000D01*
X94728600Y-98330200D02*
X94601600Y-98406400D01*
X94601600Y-98406400D02*
X94449200Y-98406400D01*
X94449200Y-98406400D02*
X94322200Y-98304800D01*
X94322200Y-98304800D02*
X94271400Y-98152400D01*
X94271400Y-98152400D02*
X94246000Y-98025400D01*
X94728600Y-97695200D02*
X94601600Y-97619000D01*
X94601600Y-97619000D02*
X94449200Y-97619000D01*
X94449200Y-97619000D02*
X94322200Y-97720600D01*
X94322200Y-97720600D02*
X94271400Y-97873000D01*
X94271400Y-97873000D02*
X94246000Y-98000000D01*
X65785000Y-53268578D02*
X65785000Y-52751422D01*
X64365000Y-53268578D02*
X64365000Y-52751422D01*
X65405200Y-52781400D02*
X65481400Y-52908400D01*
X65481400Y-52908400D02*
X65481400Y-53060800D01*
X65481400Y-53060800D02*
X65379800Y-53187800D01*
X65379800Y-53187800D02*
X65227400Y-53238600D01*
X65227400Y-53238600D02*
X65100400Y-53264000D01*
X64770200Y-52781400D02*
X64694000Y-52908400D01*
X64694000Y-52908400D02*
X64694000Y-53060800D01*
X64694000Y-53060800D02*
X64795600Y-53187800D01*
X64795600Y-53187800D02*
X64948000Y-53238600D01*
X64948000Y-53238600D02*
X65075000Y-53264000D01*
X99741422Y-118710000D02*
X100258578Y-118710000D01*
X99741422Y-117290000D02*
X100258578Y-117290000D01*
X100228600Y-118330200D02*
X100101600Y-118406400D01*
X100101600Y-118406400D02*
X99949200Y-118406400D01*
X99949200Y-118406400D02*
X99822200Y-118304800D01*
X99822200Y-118304800D02*
X99771400Y-118152400D01*
X99771400Y-118152400D02*
X99746000Y-118025400D01*
X100228600Y-117695200D02*
X100101600Y-117619000D01*
X100101600Y-117619000D02*
X99949200Y-117619000D01*
X99949200Y-117619000D02*
X99822200Y-117720600D01*
X99822200Y-117720600D02*
X99771400Y-117873000D01*
X99771400Y-117873000D02*
X99746000Y-118000000D01*
X101741422Y-90710000D02*
X102258578Y-90710000D01*
X101741422Y-89290000D02*
X102258578Y-89290000D01*
X101796800Y-89669800D02*
X101796800Y-90406400D01*
X101796800Y-90406400D02*
X102076200Y-90406400D01*
X101796800Y-90000000D02*
X102025400Y-90000000D01*
X102228600Y-89669800D02*
X102000000Y-90000000D01*
X102025400Y-90406400D02*
G75*
G03*
X102025400Y-90000000I0J203200D01*
G01*
X98258578Y-89290000D02*
X97741422Y-89290000D01*
X98258578Y-90710000D02*
X97741422Y-90710000D01*
X98203200Y-90330200D02*
X98203200Y-89593600D01*
X98203200Y-89593600D02*
X97923800Y-89593600D01*
X98203200Y-90000000D02*
X97974600Y-90000000D01*
X97771400Y-90330200D02*
X98000000Y-90000000D01*
X97974600Y-89593600D02*
G75*
G03*
X97974600Y-90000000I0J-203200D01*
G01*
X101710000Y-142758578D02*
X101710000Y-142241422D01*
X100290000Y-142758578D02*
X100290000Y-142241422D01*
X100669800Y-142703200D02*
X101406400Y-142703200D01*
X101406400Y-142703200D02*
X101406400Y-142423800D01*
X101000000Y-142703200D02*
X101000000Y-142474600D01*
X100669800Y-142271400D02*
X101000000Y-142500000D01*
X101406400Y-142474600D02*
G75*
G03*
X101000000Y-142474600I-203200J0D01*
G01*
X98258578Y-91290000D02*
X97741422Y-91290000D01*
X98258578Y-92710000D02*
X97741422Y-92710000D01*
X98203200Y-92330200D02*
X98203200Y-91593600D01*
X98203200Y-91593600D02*
X97923800Y-91593600D01*
X98203200Y-92000000D02*
X97974600Y-92000000D01*
X97771400Y-92330200D02*
X98000000Y-92000000D01*
X97974600Y-91593600D02*
G75*
G03*
X97974600Y-92000000I0J-203200D01*
G01*
X101741422Y-92710000D02*
X102258578Y-92710000D01*
X101741422Y-91290000D02*
X102258578Y-91290000D01*
X101796800Y-91669800D02*
X101796800Y-92406400D01*
X101796800Y-92406400D02*
X102076200Y-92406400D01*
X101796800Y-92000000D02*
X102025400Y-92000000D01*
X102228600Y-91669800D02*
X102000000Y-92000000D01*
X102025400Y-92406400D02*
G75*
G03*
X102025400Y-92000000I0J203200D01*
G01*
X105790000Y-129468578D02*
X105790000Y-128951422D01*
X104370000Y-129468578D02*
X104370000Y-128951422D01*
X105410200Y-128981400D02*
X105486400Y-129108400D01*
X105486400Y-129108400D02*
X105486400Y-129260800D01*
X105486400Y-129260800D02*
X105384800Y-129387800D01*
X105384800Y-129387800D02*
X105232400Y-129438600D01*
X105232400Y-129438600D02*
X105105400Y-129464000D01*
X104775200Y-128981400D02*
X104699000Y-129108400D01*
X104699000Y-129108400D02*
X104699000Y-129260800D01*
X104699000Y-129260800D02*
X104800600Y-129387800D01*
X104800600Y-129387800D02*
X104953000Y-129438600D01*
X104953000Y-129438600D02*
X105080000Y-129464000D01*
X140263578Y-69835000D02*
X139746422Y-69835000D01*
X140263578Y-71255000D02*
X139746422Y-71255000D01*
X139776400Y-70214800D02*
X139903400Y-70138600D01*
X139903400Y-70138600D02*
X140055800Y-70138600D01*
X140055800Y-70138600D02*
X140182800Y-70240200D01*
X140182800Y-70240200D02*
X140233600Y-70392600D01*
X140233600Y-70392600D02*
X140259000Y-70519600D01*
X139776400Y-70849800D02*
X139903400Y-70926000D01*
X139903400Y-70926000D02*
X140055800Y-70926000D01*
X140055800Y-70926000D02*
X140182800Y-70824400D01*
X140182800Y-70824400D02*
X140233600Y-70672000D01*
X140233600Y-70672000D02*
X140259000Y-70545000D01*
X135635000Y-53268578D02*
X135635000Y-52751422D01*
X134215000Y-53268578D02*
X134215000Y-52751422D01*
X135255200Y-52781400D02*
X135331400Y-52908400D01*
X135331400Y-52908400D02*
X135331400Y-53060800D01*
X135331400Y-53060800D02*
X135229800Y-53187800D01*
X135229800Y-53187800D02*
X135077400Y-53238600D01*
X135077400Y-53238600D02*
X134950400Y-53264000D01*
X134620200Y-52781400D02*
X134544000Y-52908400D01*
X134544000Y-52908400D02*
X134544000Y-53060800D01*
X134544000Y-53060800D02*
X134645600Y-53187800D01*
X134645600Y-53187800D02*
X134798000Y-53238600D01*
X134798000Y-53238600D02*
X134925000Y-53264000D01*
X113593578Y-69835000D02*
X113076422Y-69835000D01*
X113593578Y-71255000D02*
X113076422Y-71255000D01*
X113106400Y-70214800D02*
X113233400Y-70138600D01*
X113233400Y-70138600D02*
X113385800Y-70138600D01*
X113385800Y-70138600D02*
X113512800Y-70240200D01*
X113512800Y-70240200D02*
X113563600Y-70392600D01*
X113563600Y-70392600D02*
X113589000Y-70519600D01*
X113106400Y-70849800D02*
X113233400Y-70926000D01*
X113233400Y-70926000D02*
X113385800Y-70926000D01*
X113385800Y-70926000D02*
X113512800Y-70824400D01*
X113512800Y-70824400D02*
X113563600Y-70672000D01*
X113563600Y-70672000D02*
X113589000Y-70545000D01*
X119125000Y-53268578D02*
X119125000Y-52751422D01*
X117705000Y-53268578D02*
X117705000Y-52751422D01*
X118745200Y-52781400D02*
X118821400Y-52908400D01*
X118821400Y-52908400D02*
X118821400Y-53060800D01*
X118821400Y-53060800D02*
X118719800Y-53187800D01*
X118719800Y-53187800D02*
X118567400Y-53238600D01*
X118567400Y-53238600D02*
X118440400Y-53264000D01*
X118110200Y-52781400D02*
X118034000Y-52908400D01*
X118034000Y-52908400D02*
X118034000Y-53060800D01*
X118034000Y-53060800D02*
X118135600Y-53187800D01*
X118135600Y-53187800D02*
X118288000Y-53238600D01*
X118288000Y-53238600D02*
X118415000Y-53264000D01*
X86923578Y-69835000D02*
X86406422Y-69835000D01*
X86923578Y-71255000D02*
X86406422Y-71255000D01*
X86436400Y-70214800D02*
X86563400Y-70138600D01*
X86563400Y-70138600D02*
X86715800Y-70138600D01*
X86715800Y-70138600D02*
X86842800Y-70240200D01*
X86842800Y-70240200D02*
X86893600Y-70392600D01*
X86893600Y-70392600D02*
X86919000Y-70519600D01*
X86436400Y-70849800D02*
X86563400Y-70926000D01*
X86563400Y-70926000D02*
X86715800Y-70926000D01*
X86715800Y-70926000D02*
X86842800Y-70824400D01*
X86842800Y-70824400D02*
X86893600Y-70672000D01*
X86893600Y-70672000D02*
X86919000Y-70545000D01*
X82295000Y-53268578D02*
X82295000Y-52751422D01*
X80875000Y-53268578D02*
X80875000Y-52751422D01*
X81915200Y-52781400D02*
X81991400Y-52908400D01*
X81991400Y-52908400D02*
X81991400Y-53060800D01*
X81991400Y-53060800D02*
X81889800Y-53187800D01*
X81889800Y-53187800D02*
X81737400Y-53238600D01*
X81737400Y-53238600D02*
X81610400Y-53264000D01*
X81280200Y-52781400D02*
X81204000Y-52908400D01*
X81204000Y-52908400D02*
X81204000Y-53060800D01*
X81204000Y-53060800D02*
X81305600Y-53187800D01*
X81305600Y-53187800D02*
X81458000Y-53238600D01*
X81458000Y-53238600D02*
X81585000Y-53264000D01*
X60253578Y-69835000D02*
X59736422Y-69835000D01*
X60253578Y-71255000D02*
X59736422Y-71255000D01*
X59766400Y-70214800D02*
X59893400Y-70138600D01*
X59893400Y-70138600D02*
X60045800Y-70138600D01*
X60045800Y-70138600D02*
X60172800Y-70240200D01*
X60172800Y-70240200D02*
X60223600Y-70392600D01*
X60223600Y-70392600D02*
X60249000Y-70519600D01*
X59766400Y-70849800D02*
X59893400Y-70926000D01*
X59893400Y-70926000D02*
X60045800Y-70926000D01*
X60045800Y-70926000D02*
X60172800Y-70824400D01*
X60172800Y-70824400D02*
X60223600Y-70672000D01*
X60223600Y-70672000D02*
X60249000Y-70545000D01*
X98290000Y-142241422D02*
X98290000Y-142758578D01*
X99710000Y-142241422D02*
X99710000Y-142758578D01*
X98669800Y-142728600D02*
X98593600Y-142601600D01*
X98593600Y-142601600D02*
X98593600Y-142449200D01*
X98593600Y-142449200D02*
X98695200Y-142322200D01*
X98695200Y-142322200D02*
X98847600Y-142271400D01*
X98847600Y-142271400D02*
X98974600Y-142246000D01*
X99304800Y-142728600D02*
X99381000Y-142601600D01*
X99381000Y-142601600D02*
X99381000Y-142449200D01*
X99381000Y-142449200D02*
X99279400Y-142322200D01*
X99279400Y-142322200D02*
X99127000Y-142271400D01*
X99127000Y-142271400D02*
X99000000Y-142246000D01*
D11*
X74067142Y-93483333D02*
X74114761Y-93435714D01*
X74162380Y-93292857D01*
X74162380Y-93197619D01*
X74114761Y-93054761D01*
X74019523Y-92959523D01*
X73924285Y-92911904D01*
X73733809Y-92864285D01*
X73590952Y-92864285D01*
X73400476Y-92911904D01*
X73305238Y-92959523D01*
X73210000Y-93054761D01*
X73162380Y-93197619D01*
X73162380Y-93292857D01*
X73210000Y-93435714D01*
X73257619Y-93483333D01*
X74162380Y-93959523D02*
X74162380Y-94150000D01*
X74114761Y-94245238D01*
X74067142Y-94292857D01*
X73924285Y-94388095D01*
X73733809Y-94435714D01*
X73352857Y-94435714D01*
X73257619Y-94388095D01*
X73210000Y-94340476D01*
X73162380Y-94245238D01*
X73162380Y-94054761D01*
X73210000Y-93959523D01*
X73257619Y-93911904D01*
X73352857Y-93864285D01*
X73590952Y-93864285D01*
X73686190Y-93911904D01*
X73733809Y-93959523D01*
X73781428Y-94054761D01*
X73781428Y-94245238D01*
X73733809Y-94340476D01*
X73686190Y-94388095D01*
X73590952Y-94435714D01*
X132022380Y-98761904D02*
X132831904Y-98761904D01*
X132927142Y-98809523D01*
X132974761Y-98857142D01*
X133022380Y-98952380D01*
X133022380Y-99142857D01*
X132974761Y-99238095D01*
X132927142Y-99285714D01*
X132831904Y-99333333D01*
X132022380Y-99333333D01*
X133022380Y-100333333D02*
X133022380Y-99761904D01*
X133022380Y-100047619D02*
X132022380Y-100047619D01*
X132165238Y-99952380D01*
X132260476Y-99857142D01*
X132308095Y-99761904D01*
X132022380Y-100952380D02*
X132022380Y-101047619D01*
X132070000Y-101142857D01*
X132117619Y-101190476D01*
X132212857Y-101238095D01*
X132403333Y-101285714D01*
X132641428Y-101285714D01*
X132831904Y-101238095D01*
X132927142Y-101190476D01*
X132974761Y-101142857D01*
X133022380Y-101047619D01*
X133022380Y-100952380D01*
X132974761Y-100857142D01*
X132927142Y-100809523D01*
X132831904Y-100761904D01*
X132641428Y-100714285D01*
X132403333Y-100714285D01*
X132212857Y-100761904D01*
X132117619Y-100809523D01*
X132070000Y-100857142D01*
X132022380Y-100952380D01*
X78682380Y-99238095D02*
X79491904Y-99238095D01*
X79587142Y-99285714D01*
X79634761Y-99333333D01*
X79682380Y-99428571D01*
X79682380Y-99619047D01*
X79634761Y-99714285D01*
X79587142Y-99761904D01*
X79491904Y-99809523D01*
X78682380Y-99809523D01*
X79682380Y-100333333D02*
X79682380Y-100523809D01*
X79634761Y-100619047D01*
X79587142Y-100666666D01*
X79444285Y-100761904D01*
X79253809Y-100809523D01*
X78872857Y-100809523D01*
X78777619Y-100761904D01*
X78730000Y-100714285D01*
X78682380Y-100619047D01*
X78682380Y-100428571D01*
X78730000Y-100333333D01*
X78777619Y-100285714D01*
X78872857Y-100238095D01*
X79110952Y-100238095D01*
X79206190Y-100285714D01*
X79253809Y-100333333D01*
X79301428Y-100428571D01*
X79301428Y-100619047D01*
X79253809Y-100714285D01*
X79206190Y-100761904D01*
X79110952Y-100809523D01*
X130042380Y-89197142D02*
X129566190Y-88863809D01*
X130042380Y-88625714D02*
X129042380Y-88625714D01*
X129042380Y-89006666D01*
X129090000Y-89101904D01*
X129137619Y-89149523D01*
X129232857Y-89197142D01*
X129375714Y-89197142D01*
X129470952Y-89149523D01*
X129518571Y-89101904D01*
X129566190Y-89006666D01*
X129566190Y-88625714D01*
X129137619Y-89578095D02*
X129090000Y-89625714D01*
X129042380Y-89720952D01*
X129042380Y-89959047D01*
X129090000Y-90054285D01*
X129137619Y-90101904D01*
X129232857Y-90149523D01*
X129328095Y-90149523D01*
X129470952Y-90101904D01*
X130042380Y-89530476D01*
X130042380Y-90149523D01*
X129470952Y-90720952D02*
X129423333Y-90625714D01*
X129375714Y-90578095D01*
X129280476Y-90530476D01*
X129232857Y-90530476D01*
X129137619Y-90578095D01*
X129090000Y-90625714D01*
X129042380Y-90720952D01*
X129042380Y-90911428D01*
X129090000Y-91006666D01*
X129137619Y-91054285D01*
X129232857Y-91101904D01*
X129280476Y-91101904D01*
X129375714Y-91054285D01*
X129423333Y-91006666D01*
X129470952Y-90911428D01*
X129470952Y-90720952D01*
X129518571Y-90625714D01*
X129566190Y-90578095D01*
X129661428Y-90530476D01*
X129851904Y-90530476D01*
X129947142Y-90578095D01*
X129994761Y-90625714D01*
X130042380Y-90720952D01*
X130042380Y-90911428D01*
X129994761Y-91006666D01*
X129947142Y-91054285D01*
X129851904Y-91101904D01*
X129661428Y-91101904D01*
X129566190Y-91054285D01*
X129518571Y-91006666D01*
X129470952Y-90911428D01*
X76702380Y-89197142D02*
X76226190Y-88863809D01*
X76702380Y-88625714D02*
X75702380Y-88625714D01*
X75702380Y-89006666D01*
X75750000Y-89101904D01*
X75797619Y-89149523D01*
X75892857Y-89197142D01*
X76035714Y-89197142D01*
X76130952Y-89149523D01*
X76178571Y-89101904D01*
X76226190Y-89006666D01*
X76226190Y-88625714D01*
X75797619Y-89578095D02*
X75750000Y-89625714D01*
X75702380Y-89720952D01*
X75702380Y-89959047D01*
X75750000Y-90054285D01*
X75797619Y-90101904D01*
X75892857Y-90149523D01*
X75988095Y-90149523D01*
X76130952Y-90101904D01*
X76702380Y-89530476D01*
X76702380Y-90149523D01*
X75702380Y-90482857D02*
X75702380Y-91149523D01*
X76702380Y-90720952D01*
X127502380Y-89197142D02*
X127026190Y-88863809D01*
X127502380Y-88625714D02*
X126502380Y-88625714D01*
X126502380Y-89006666D01*
X126550000Y-89101904D01*
X126597619Y-89149523D01*
X126692857Y-89197142D01*
X126835714Y-89197142D01*
X126930952Y-89149523D01*
X126978571Y-89101904D01*
X127026190Y-89006666D01*
X127026190Y-88625714D01*
X126597619Y-89578095D02*
X126550000Y-89625714D01*
X126502380Y-89720952D01*
X126502380Y-89959047D01*
X126550000Y-90054285D01*
X126597619Y-90101904D01*
X126692857Y-90149523D01*
X126788095Y-90149523D01*
X126930952Y-90101904D01*
X127502380Y-89530476D01*
X127502380Y-90149523D01*
X126502380Y-91006666D02*
X126502380Y-90816190D01*
X126550000Y-90720952D01*
X126597619Y-90673333D01*
X126740476Y-90578095D01*
X126930952Y-90530476D01*
X127311904Y-90530476D01*
X127407142Y-90578095D01*
X127454761Y-90625714D01*
X127502380Y-90720952D01*
X127502380Y-90911428D01*
X127454761Y-91006666D01*
X127407142Y-91054285D01*
X127311904Y-91101904D01*
X127073809Y-91101904D01*
X126978571Y-91054285D01*
X126930952Y-91006666D01*
X126883333Y-90911428D01*
X126883333Y-90720952D01*
X126930952Y-90625714D01*
X126978571Y-90578095D01*
X127073809Y-90530476D01*
X74162380Y-89197142D02*
X73686190Y-88863809D01*
X74162380Y-88625714D02*
X73162380Y-88625714D01*
X73162380Y-89006666D01*
X73210000Y-89101904D01*
X73257619Y-89149523D01*
X73352857Y-89197142D01*
X73495714Y-89197142D01*
X73590952Y-89149523D01*
X73638571Y-89101904D01*
X73686190Y-89006666D01*
X73686190Y-88625714D01*
X73257619Y-89578095D02*
X73210000Y-89625714D01*
X73162380Y-89720952D01*
X73162380Y-89959047D01*
X73210000Y-90054285D01*
X73257619Y-90101904D01*
X73352857Y-90149523D01*
X73448095Y-90149523D01*
X73590952Y-90101904D01*
X74162380Y-89530476D01*
X74162380Y-90149523D01*
X73162380Y-91054285D02*
X73162380Y-90578095D01*
X73638571Y-90530476D01*
X73590952Y-90578095D01*
X73543333Y-90673333D01*
X73543333Y-90911428D01*
X73590952Y-91006666D01*
X73638571Y-91054285D01*
X73733809Y-91101904D01*
X73971904Y-91101904D01*
X74067142Y-91054285D01*
X74114761Y-91006666D01*
X74162380Y-90911428D01*
X74162380Y-90673333D01*
X74114761Y-90578095D01*
X74067142Y-90530476D01*
X132997142Y-99357142D02*
X133044761Y-99309523D01*
X133092380Y-99166666D01*
X133092380Y-99071428D01*
X133044761Y-98928571D01*
X132949523Y-98833333D01*
X132854285Y-98785714D01*
X132663809Y-98738095D01*
X132520952Y-98738095D01*
X132330476Y-98785714D01*
X132235238Y-98833333D01*
X132140000Y-98928571D01*
X132092380Y-99071428D01*
X132092380Y-99166666D01*
X132140000Y-99309523D01*
X132187619Y-99357142D01*
X133092380Y-100309523D02*
X133092380Y-99738095D01*
X133092380Y-100023809D02*
X132092380Y-100023809D01*
X132235238Y-99928571D01*
X132330476Y-99833333D01*
X132378095Y-99738095D01*
X132425714Y-101166666D02*
X133092380Y-101166666D01*
X132044761Y-100928571D02*
X132759047Y-100690476D01*
X132759047Y-101309523D01*
X64417142Y-99357142D02*
X64464761Y-99309523D01*
X64512380Y-99166666D01*
X64512380Y-99071428D01*
X64464761Y-98928571D01*
X64369523Y-98833333D01*
X64274285Y-98785714D01*
X64083809Y-98738095D01*
X63940952Y-98738095D01*
X63750476Y-98785714D01*
X63655238Y-98833333D01*
X63560000Y-98928571D01*
X63512380Y-99071428D01*
X63512380Y-99166666D01*
X63560000Y-99309523D01*
X63607619Y-99357142D01*
X64512380Y-100309523D02*
X64512380Y-99738095D01*
X64512380Y-100023809D02*
X63512380Y-100023809D01*
X63655238Y-99928571D01*
X63750476Y-99833333D01*
X63798095Y-99738095D01*
X63512380Y-100642857D02*
X63512380Y-101261904D01*
X63893333Y-100928571D01*
X63893333Y-101071428D01*
X63940952Y-101166666D01*
X63988571Y-101214285D01*
X64083809Y-101261904D01*
X64321904Y-101261904D01*
X64417142Y-101214285D01*
X64464761Y-101166666D01*
X64512380Y-101071428D01*
X64512380Y-100785714D01*
X64464761Y-100690476D01*
X64417142Y-100642857D01*
X129947142Y-93007142D02*
X129994761Y-92959523D01*
X130042380Y-92816666D01*
X130042380Y-92721428D01*
X129994761Y-92578571D01*
X129899523Y-92483333D01*
X129804285Y-92435714D01*
X129613809Y-92388095D01*
X129470952Y-92388095D01*
X129280476Y-92435714D01*
X129185238Y-92483333D01*
X129090000Y-92578571D01*
X129042380Y-92721428D01*
X129042380Y-92816666D01*
X129090000Y-92959523D01*
X129137619Y-93007142D01*
X130042380Y-93959523D02*
X130042380Y-93388095D01*
X130042380Y-93673809D02*
X129042380Y-93673809D01*
X129185238Y-93578571D01*
X129280476Y-93483333D01*
X129328095Y-93388095D01*
X129137619Y-94340476D02*
X129090000Y-94388095D01*
X129042380Y-94483333D01*
X129042380Y-94721428D01*
X129090000Y-94816666D01*
X129137619Y-94864285D01*
X129232857Y-94911904D01*
X129328095Y-94911904D01*
X129470952Y-94864285D01*
X130042380Y-94292857D01*
X130042380Y-94911904D01*
X76607142Y-93007142D02*
X76654761Y-92959523D01*
X76702380Y-92816666D01*
X76702380Y-92721428D01*
X76654761Y-92578571D01*
X76559523Y-92483333D01*
X76464285Y-92435714D01*
X76273809Y-92388095D01*
X76130952Y-92388095D01*
X75940476Y-92435714D01*
X75845238Y-92483333D01*
X75750000Y-92578571D01*
X75702380Y-92721428D01*
X75702380Y-92816666D01*
X75750000Y-92959523D01*
X75797619Y-93007142D01*
X76702380Y-93959523D02*
X76702380Y-93388095D01*
X76702380Y-93673809D02*
X75702380Y-93673809D01*
X75845238Y-93578571D01*
X75940476Y-93483333D01*
X75988095Y-93388095D01*
X76702380Y-94911904D02*
X76702380Y-94340476D01*
X76702380Y-94626190D02*
X75702380Y-94626190D01*
X75845238Y-94530952D01*
X75940476Y-94435714D01*
X75988095Y-94340476D01*
X127407142Y-93007142D02*
X127454761Y-92959523D01*
X127502380Y-92816666D01*
X127502380Y-92721428D01*
X127454761Y-92578571D01*
X127359523Y-92483333D01*
X127264285Y-92435714D01*
X127073809Y-92388095D01*
X126930952Y-92388095D01*
X126740476Y-92435714D01*
X126645238Y-92483333D01*
X126550000Y-92578571D01*
X126502380Y-92721428D01*
X126502380Y-92816666D01*
X126550000Y-92959523D01*
X126597619Y-93007142D01*
X127502380Y-93959523D02*
X127502380Y-93388095D01*
X127502380Y-93673809D02*
X126502380Y-93673809D01*
X126645238Y-93578571D01*
X126740476Y-93483333D01*
X126788095Y-93388095D01*
X126502380Y-94578571D02*
X126502380Y-94673809D01*
X126550000Y-94769047D01*
X126597619Y-94816666D01*
X126692857Y-94864285D01*
X126883333Y-94911904D01*
X127121428Y-94911904D01*
X127311904Y-94864285D01*
X127407142Y-94816666D01*
X127454761Y-94769047D01*
X127502380Y-94673809D01*
X127502380Y-94578571D01*
X127454761Y-94483333D01*
X127407142Y-94435714D01*
X127311904Y-94388095D01*
X127121428Y-94340476D01*
X126883333Y-94340476D01*
X126692857Y-94388095D01*
X126597619Y-94435714D01*
X126550000Y-94483333D01*
X126502380Y-94578571D01*
M02*
