M48
; DRILL file {KiCad 5.1.9+dfsg1-1} date Wed Oct 27 13:30:14 2021
; FORMAT={3:3/ absolute / metric / suppress leading zeros}
; #@! TF.CreationDate,2021-10-27T13:30:14+02:00
; #@! TF.GenerationSoftware,Kicad,Pcbnew,5.1.9+dfsg1-1
FMAT,2
METRIC,TZ
T1C0.300
T2C0.500
T3C0.600
T4C0.650
T5C0.750
T6C1.000
T7C1.300
T8C2.200
T9C0.650
%
G90
G05
T1
X51500Y-100000
X51500Y-102000
X53500Y-98000
X53500Y-145000
X53500Y-143000
X59095Y-51825
X59095Y-52925
X59995Y-56185
X59995Y-63805
X60895Y-51825
X65075Y-52073
X65075Y-53948
X65710Y-98095
X65710Y-101905
X68885Y-63170
X68885Y-95555
X68885Y-104445
X70155Y-95555
X70155Y-104445
X71425Y-104445
X72060Y-93650
X72500Y-57000
X72695Y-58090
X73647Y-69520
X74283Y-70155
X74600Y-93650
X75870Y-66043
X75870Y-67918
X76822Y-70155
X77457Y-69520
X77775Y-61265
X77775Y-95555
X81585Y-52073
X81585Y-53948
X84125Y-56185
X85395Y-59058
X85765Y-52925
X86665Y-63805
X87565Y-51825
X88000Y-99500
X89205Y-56185
X89500Y-102500
X92750Y-92750
X93300Y-124300
X93400Y-122900
X94285Y-111430
X94500Y-97000
X94500Y-99000
X94500Y-105000
X95000Y-120200
X95250Y-90500
X95555Y-115240
X95700Y-56700
X95750Y-53527
X96000Y-89750
X96000Y-90500
X96000Y-120500
X96250Y-57500
X96250Y-101000
X96250Y-105000
X96500Y-95000
X97000Y-112700
X97000Y-140500
X97250Y-57500
X97500Y-65500
X97750Y-118000
X98000Y-90000
X98000Y-99000
X98000Y-105000
X98005Y-111430
X98027Y-59000
X98027Y-59750
X98095Y-112700
X98250Y-54750
X98250Y-57750
X98250Y-61250
X98250Y-63500
X98300Y-145200
X98500Y-52750
X99221Y-54750
X99365Y-112700
X99365Y-113970
X99455Y-111430
X99700Y-129800
X99745Y-65500
X99800Y-128600
X99948Y-52698
X100000Y-66500
X100000Y-67250
X100000Y-89500
X100000Y-90500
X100000Y-94000
X100000Y-95000
X100000Y-96000
X100000Y-106000
X100500Y-120000
X101250Y-57750
X101542Y-52638
X101700Y-145200
X101750Y-61250
X101800Y-54700
X102000Y-90500
X102000Y-58750
X102000Y-95000
X102000Y-99000
X102000Y-104000
X102027Y-89500
X102250Y-68000
X102250Y-118000
X102750Y-57500
X103000Y-63000
X103050Y-110160
X103600Y-115240
X103700Y-99100
X103750Y-57500
X103750Y-95000
X104000Y-144000
X104250Y-122250
X104300Y-56700
X104495Y-123495
X104500Y-124750
X104973Y-89973
X105000Y-110500
X105000Y-127000
X105000Y-131250
X105000Y-146000
X105500Y-94000
X105500Y-95000
X105500Y-97000
X105500Y-99000
X105500Y-100000
X105500Y-101000
X105500Y-103000
X105500Y-105000
X105750Y-90500
X106000Y-84000
X109500Y-100500
X112435Y-52925
X113335Y-56185
X113335Y-63805
X114235Y-51825
X118415Y-52073
X118415Y-53948
X122225Y-95555
X122225Y-104445
X123495Y-95555
X123495Y-104445
X124130Y-66028
X124130Y-66980
X124130Y-68250
X124195Y-56820
X124195Y-58090
X124765Y-104445
X125400Y-93650
X126000Y-57000
X126352Y-66028
X126988Y-66980
X127622Y-68250
X127940Y-93650
X129145Y-61900
X129145Y-64440
X129210Y-66043
X129210Y-67918
X131115Y-95555
X134290Y-98095
X134290Y-101905
X134925Y-52073
X134925Y-53948
X137465Y-56185
X138735Y-59057
X139105Y-52925
X140005Y-63805
X140905Y-51825
X140905Y-52925
X142545Y-56185
X145000Y-147500
X145000Y-144500
X145500Y-101500
X147000Y-100000
X148000Y-100000
X149000Y-101000
T2
X60000Y-98000
X60000Y-102000
X140000Y-98000
X140000Y-102000
T4
X97460Y-84600
X97460Y-85870
X98730Y-84600
X98730Y-85870
X100000Y-84600
X100000Y-85870
X101270Y-84600
X101270Y-85870
X102540Y-84600
X102540Y-85870
T5
X97850Y-146500
X102150Y-146500
T6
X53510Y-67830
X53510Y-78830
X53510Y-121170
X53510Y-132170
X57455Y-52995
X57455Y-67495
X59995Y-67495
X62535Y-52995
X62535Y-67495
X67830Y-53510
X67830Y-146490
X78830Y-53510
X78830Y-146490
X84125Y-52995
X84125Y-67495
X86665Y-67495
X89205Y-52995
X89205Y-67495
X110795Y-52995
X110795Y-67495
X113335Y-67495
X115875Y-52995
X115875Y-67495
X121170Y-53510
X121170Y-146490
X132170Y-53510
X132170Y-146490
X137465Y-52995
X137465Y-67495
X140005Y-67495
X142545Y-52995
X142545Y-67495
X146490Y-67830
X146490Y-78830
X146490Y-121170
X146490Y-132170
T7
X58245Y-73100
X61745Y-73100
X61745Y-146900
X84915Y-73100
X88415Y-73100
X88415Y-146900
X111585Y-73100
X115085Y-73100
X115085Y-146900
X138255Y-73100
X141755Y-73100
X141755Y-146900
T8
X53495Y-59995
X66495Y-59995
X80165Y-59995
X93165Y-59995
X106835Y-59995
X119835Y-59995
X133505Y-59995
X146505Y-59995
T9
X97110Y-54650
X102890Y-54650
T2
G00X52610Y-69830
M15
G01X53410Y-69830
M16
G05
G00X52610Y-70830
M15
G01X53410Y-70830
M16
G05
G00X52610Y-71830
M15
G01X53410Y-71830
M16
G05
G00X52610Y-72830
M15
G01X53410Y-72830
M16
G05
G00X52610Y-73830
M15
G01X53410Y-73830
M16
G05
G00X52610Y-74830
M15
G01X53410Y-74830
M16
G05
G00X52610Y-75830
M15
G01X53410Y-75830
M16
G05
G00X52610Y-76830
M15
G01X53410Y-76830
M16
G05
G00X52610Y-123170
M15
G01X53410Y-123170
M16
G05
G00X52610Y-124170
M15
G01X53410Y-124170
M16
G05
G00X52610Y-125170
M15
G01X53410Y-125170
M16
G05
G00X52610Y-126170
M15
G01X53410Y-126170
M16
G05
G00X52610Y-127170
M15
G01X53410Y-127170
M16
G05
G00X52610Y-128170
M15
G01X53410Y-128170
M16
G05
G00X52610Y-129170
M15
G01X53410Y-129170
M16
G05
G00X52610Y-130170
M15
G01X53410Y-130170
M16
G05
G00X69830Y-52610
M15
G01X69830Y-53410
M16
G05
G00X69830Y-147390
M15
G01X69830Y-146590
M16
G05
G00X70830Y-52610
M15
G01X70830Y-53410
M16
G05
G00X70830Y-147390
M15
G01X70830Y-146590
M16
G05
G00X71830Y-52610
M15
G01X71830Y-53410
M16
G05
G00X71830Y-147390
M15
G01X71830Y-146590
M16
G05
G00X72830Y-52610
M15
G01X72830Y-53410
M16
G05
G00X72830Y-147390
M15
G01X72830Y-146590
M16
G05
G00X73830Y-52610
M15
G01X73830Y-53410
M16
G05
G00X73830Y-147390
M15
G01X73830Y-146590
M16
G05
G00X74830Y-52610
M15
G01X74830Y-53410
M16
G05
G00X74830Y-147390
M15
G01X74830Y-146590
M16
G05
G00X75830Y-52610
M15
G01X75830Y-53410
M16
G05
G00X75830Y-147390
M15
G01X75830Y-146590
M16
G05
G00X76830Y-52610
M15
G01X76830Y-53410
M16
G05
G00X76830Y-147390
M15
G01X76830Y-146590
M16
G05
G00X95680Y-51200
M15
G01X95680Y-50800
M16
G05
G00X95680Y-55530
M15
G01X95680Y-54830
M16
G05
G00X104320Y-51200
M15
G01X104320Y-50800
M16
G05
G00X104320Y-55530
M15
G01X104320Y-54830
M16
G05
G00X123170Y-52610
M15
G01X123170Y-53410
M16
G05
G00X123170Y-147390
M15
G01X123170Y-146590
M16
G05
G00X124170Y-52610
M15
G01X124170Y-53410
M16
G05
G00X124170Y-147390
M15
G01X124170Y-146590
M16
G05
G00X125170Y-52610
M15
G01X125170Y-53410
M16
G05
G00X125170Y-147390
M15
G01X125170Y-146590
M16
G05
G00X126170Y-52610
M15
G01X126170Y-53410
M16
G05
G00X126170Y-147390
M15
G01X126170Y-146590
M16
G05
G00X127170Y-52610
M15
G01X127170Y-53410
M16
G05
G00X127170Y-147390
M15
G01X127170Y-146590
M16
G05
G00X128170Y-52610
M15
G01X128170Y-53410
M16
G05
G00X128170Y-147390
M15
G01X128170Y-146590
M16
G05
G00X129170Y-52610
M15
G01X129170Y-53410
M16
G05
G00X129170Y-147390
M15
G01X129170Y-146590
M16
G05
G00X130170Y-52610
M15
G01X130170Y-53410
M16
G05
G00X130170Y-147390
M15
G01X130170Y-146590
M16
G05
G00X147390Y-69830
M15
G01X146590Y-69830
M16
G05
G00X147390Y-70830
M15
G01X146590Y-70830
M16
G05
G00X147390Y-71830
M15
G01X146590Y-71830
M16
G05
G00X147390Y-72830
M15
G01X146590Y-72830
M16
G05
G00X147390Y-73830
M15
G01X146590Y-73830
M16
G05
G00X147390Y-74830
M15
G01X146590Y-74830
M16
G05
G00X147390Y-75830
M15
G01X146590Y-75830
M16
G05
G00X147390Y-76830
M15
G01X146590Y-76830
M16
G05
G00X147390Y-123170
M15
G01X146590Y-123170
M16
G05
G00X147390Y-124170
M15
G01X146590Y-124170
M16
G05
G00X147390Y-125170
M15
G01X146590Y-125170
M16
G05
G00X147390Y-126170
M15
G01X146590Y-126170
M16
G05
G00X147390Y-127170
M15
G01X146590Y-127170
M16
G05
G00X147390Y-128170
M15
G01X146590Y-128170
M16
G05
G00X147390Y-129170
M15
G01X146590Y-129170
M16
G05
G00X147390Y-130170
M15
G01X146590Y-130170
M16
G05
T3
G00X55745Y-76950
M15
G01X55745Y-77850
M16
G05
G00X55745Y-142150
M15
G01X55745Y-143050
M16
G05
G00X64245Y-78150
M15
G01X64245Y-79050
M16
G05
G00X64245Y-140950
M15
G01X64245Y-141850
M16
G05
G00X82415Y-76950
M15
G01X82415Y-77850
M16
G05
G00X82415Y-142150
M15
G01X82415Y-143050
M16
G05
G00X90915Y-78150
M15
G01X90915Y-79050
M16
G05
G00X90915Y-140950
M15
G01X90915Y-141850
M16
G05
G00X109085Y-76950
M15
G01X109085Y-77850
M16
G05
G00X109085Y-142150
M15
G01X109085Y-143050
M16
G05
G00X117585Y-78150
M15
G01X117585Y-79050
M16
G05
G00X117585Y-140950
M15
G01X117585Y-141850
M16
G05
G00X135755Y-76950
M15
G01X135755Y-77850
M16
G05
G00X135755Y-142150
M15
G01X135755Y-143050
M16
G05
G00X144255Y-78150
M15
G01X144255Y-79050
M16
G05
G00X144255Y-140950
M15
G01X144255Y-141850
M16
G05
T0
M30
