M48
; DRILL file {KiCad (5.1.5)-3} date 4/6/2020 4:32:07 PM
; FORMAT={-:-/ absolute / inch / decimal}
; #@! TF.CreationDate,2020-04-06T16:32:07+02:00
; #@! TF.GenerationSoftware,Kicad,Pcbnew,(5.1.5)-3
FMAT,2
INCH
T1C0.0118
T2C0.0157
T3C0.0197
T4C0.0256
T5C0.0295
T6C0.0394
T7C0.0591
T8C0.0866
T9C0.0256
%
G90
G05
T1
X2.0276Y-3.937
X2.0276Y-4.0157
X2.1063Y-3.8583
X2.1063Y-5.7087
X2.1063Y-5.6299
X2.3266Y-5.2337
X2.3266Y-2.0404
X2.3266Y-2.0837
X2.3266Y-3.1337
X2.3266Y-4.1837
X2.3495Y-2.9995
X2.362Y-2.1751
X2.362Y-2.5489
X2.362Y-3.2251
X2.362Y-3.5989
X2.362Y-4.2751
X2.362Y-4.6489
X2.362Y-5.3251
X2.362Y-5.6989
X2.3974Y-2.0404
X2.3974Y-3.0904
X2.3974Y-4.1404
X2.3974Y-5.1904
X2.562Y-2.0501
X2.562Y-2.1239
X2.787Y-3.1001
X2.787Y-3.1739
X2.787Y-4.1501
X2.787Y-4.2239
X2.787Y-5.2001
X2.787Y-5.2739
X2.7896Y-2.187
X2.7896Y-2.237
X2.7896Y-2.287
X2.7896Y-2.487
X2.7896Y-3.237
X2.7896Y-3.287
X2.7896Y-3.337
X2.7896Y-4.287
X2.7896Y-4.337
X2.7896Y-4.387
X2.7896Y-5.337
X2.7896Y-5.387
X2.7896Y-5.437
X2.8745Y-2.712
X2.8995Y-2.737
X2.9245Y-2.762
X2.9844Y-2.437
X2.9844Y-2.537
X2.9844Y-3.487
X2.9844Y-3.587
X2.9844Y-4.537
X2.9844Y-4.637
X2.9844Y-5.587
X2.9844Y-5.687
X2.987Y-2.6001
X2.987Y-2.6739
X3.0245Y-2.762
X3.0495Y-2.737
X3.0745Y-2.712
X3.212Y-2.0501
X3.212Y-2.1239
X3.312Y-2.2489
X3.312Y-2.3251
X3.312Y-3.2989
X3.312Y-3.3751
X3.312Y-4.3489
X3.312Y-4.4251
X3.312Y-5.3989
X3.312Y-5.4751
X3.3766Y-3.1337
X3.3766Y-4.1837
X3.3766Y-5.2337
X3.3766Y-2.0837
X3.412Y-2.1751
X3.412Y-2.5489
X3.412Y-3.2251
X3.412Y-3.5989
X3.412Y-4.2751
X3.412Y-4.6489
X3.412Y-5.3251
X3.412Y-5.6989
X3.4474Y-3.0904
X3.4474Y-4.1404
X3.4474Y-5.1904
X3.4474Y-2.0404
X3.462Y-3.0245
X3.462Y-4.0745
X3.462Y-5.1245
X3.487Y-3.0495
X3.487Y-4.0995
X3.487Y-5.1495
X3.637Y-3.112
X3.7008Y-3.7402
X3.7008Y-3.937
X3.7008Y-4.0945
X3.712Y-4.387
X3.7574Y-3.8583
X3.7574Y-4.0157
X3.7574Y-4.1732
X3.762Y-4.537
X3.7992Y-3.7795
X3.7992Y-3.7008
X3.7995Y-2.3495
X3.8189Y-4.437
X3.8189Y-5.5315
X3.8214Y-3.8583
X3.837Y-2.3495
X3.837Y-4.762
X3.837Y-4.862
X3.8396Y-4.912
X3.8396Y-4.962
X3.8396Y-5.012
X3.8421Y-5.062
X3.8421Y-5.112
X3.8583Y-3.9331
X3.8585Y-4.387
X3.862Y-3.362
X3.862Y-4.437
X3.8701Y-5.7165
X3.8952Y-4.0945
X3.8952Y-4.1732
X3.8989Y-3.087
X3.8996Y-2.3583
X3.9001Y-4.637
X3.912Y-3.412
X3.912Y-4.437
X3.912Y-4.487
X3.9156Y-4.387
X3.937Y-3.487
X3.937Y-3.387
X3.9739Y-4.637
X3.9744Y-2.3583
X3.9751Y-3.087
X3.9788Y-3.7008
X3.9788Y-3.7795
X3.9788Y-4.0945
X3.9788Y-4.1732
X4.0039Y-5.7165
X4.0344Y-4.862
X4.0344Y-4.912
X4.0344Y-5.112
X4.0354Y-4.626
X4.037Y-4.812
X4.037Y-4.962
X4.037Y-5.012
X4.037Y-5.062
X4.0527Y-3.7008
X4.0527Y-3.8583
X4.0551Y-3.9331
X4.0571Y-4.337
X4.062Y-2.3647
X4.062Y-2.437
X4.0787Y-4.537
X4.0945Y-2.2835
X4.0945Y-2.3228
X4.0945Y-5.6693
X4.1142Y-4.3307
X4.1166Y-3.7008
X4.1166Y-3.7795
X4.1166Y-3.8583
X4.1166Y-4.0157
X4.1166Y-4.1732
X4.1339Y-5.748
X4.137Y-5.1239
X4.1732Y-3.7795
X4.1732Y-3.8583
X4.1732Y-4.0157
X4.1732Y-4.0945
X4.387Y-3.0495
X4.387Y-4.0995
X4.387Y-5.1495
X4.412Y-3.0245
X4.412Y-4.0745
X4.412Y-5.1245
X4.4266Y-3.1337
X4.4266Y-4.1837
X4.4266Y-5.2337
X4.4266Y-2.0837
X4.462Y-2.1751
X4.462Y-2.5489
X4.462Y-3.2251
X4.462Y-3.5989
X4.462Y-4.2751
X4.462Y-4.6489
X4.462Y-5.3251
X4.462Y-5.6989
X4.4974Y-2.0404
X4.4974Y-3.0904
X4.4974Y-4.1404
X4.4974Y-5.1904
X4.662Y-2.0501
X4.662Y-2.1239
X4.887Y-2.5995
X4.887Y-2.637
X4.887Y-2.687
X4.887Y-3.1001
X4.887Y-3.1739
X4.887Y-4.1501
X4.887Y-4.2239
X4.887Y-5.2001
X4.887Y-5.2739
X4.8896Y-2.187
X4.8896Y-2.237
X4.8896Y-2.287
X4.8896Y-3.237
X4.8896Y-3.287
X4.8896Y-3.337
X4.8896Y-4.287
X4.8896Y-4.337
X4.8896Y-4.387
X4.8896Y-5.337
X4.8896Y-5.387
X4.8896Y-5.437
X4.9745Y-2.5995
X4.9745Y-3.8245
X4.9995Y-2.637
X4.9995Y-3.7995
X5.0245Y-2.687
X5.0245Y-3.8245
X5.0844Y-2.437
X5.0844Y-2.537
X5.0844Y-3.487
X5.0844Y-3.587
X5.0844Y-4.537
X5.0844Y-4.637
X5.0844Y-5.587
X5.0844Y-5.687
X5.087Y-2.6001
X5.087Y-2.6739
X5.312Y-2.0501
X5.312Y-2.1239
X5.412Y-2.2489
X5.412Y-2.3251
X5.412Y-3.2989
X5.412Y-3.3751
X5.412Y-4.3489
X5.412Y-4.4251
X5.412Y-5.3989
X5.412Y-5.4751
X5.4766Y-3.1337
X5.4766Y-4.1837
X5.4766Y-5.2337
X5.4766Y-2.0837
X5.512Y-2.1751
X5.512Y-2.5489
X5.512Y-3.012
X5.512Y-3.2251
X5.512Y-3.5989
X5.512Y-4.062
X5.512Y-4.2751
X5.512Y-4.6489
X5.512Y-5.3251
X5.512Y-5.6989
X5.5474Y-2.0404
X5.5474Y-2.0837
X5.5474Y-3.0904
X5.5474Y-4.1404
X5.5474Y-5.1904
X5.562Y-3.0495
X5.7087Y-5.8071
X5.7087Y-5.689
X5.7283Y-3.9961
X5.7874Y-3.937
X5.8268Y-3.937
X5.8661Y-3.9764
T2
X3.8268Y-2.213
X3.8425Y-2.1854
X3.874Y-2.1854
X3.8898Y-2.213
X3.9055Y-2.1854
X3.9213Y-2.213
X3.9528Y-2.213
X3.9685Y-2.1854
X3.9843Y-2.213
X4.0Y-2.1854
X4.0315Y-2.1854
X4.0472Y-2.213
T3
X5.5118Y-3.8583
X5.5118Y-4.0157
X2.3622Y-3.8583
X2.3622Y-4.0157
T4
X3.837Y-2.937
X3.837Y-2.987
X3.887Y-2.937
X3.887Y-2.987
X3.937Y-2.937
X3.937Y-2.987
X3.987Y-2.937
X3.987Y-2.987
X4.037Y-2.937
X4.037Y-2.987
T5
X3.8524Y-5.7677
X4.0217Y-5.7677
T6
X3.312Y-2.0864
X3.312Y-2.6573
X3.412Y-2.6573
X3.512Y-2.0864
X3.512Y-2.6573
X4.362Y-5.2364
X4.362Y-5.8073
X4.462Y-5.8073
X4.562Y-5.2364
X4.562Y-5.8073
X5.7673Y-2.6705
X5.7673Y-3.1035
X2.262Y-3.1364
X2.262Y-3.7073
X2.362Y-3.7073
X2.462Y-3.1364
X2.462Y-3.7073
X5.412Y-3.1364
X5.412Y-3.7073
X5.512Y-3.7073
X5.612Y-3.1364
X5.612Y-3.7073
X4.362Y-3.1364
X4.362Y-3.7073
X4.462Y-3.7073
X4.562Y-3.1364
X4.562Y-3.7073
X3.837Y-2.637
X3.937Y-2.637
X4.037Y-2.637
X2.262Y-5.2364
X2.262Y-5.8073
X2.362Y-5.8073
X2.462Y-5.2364
X2.462Y-5.8073
X5.412Y-4.1864
X5.412Y-4.7573
X5.512Y-4.7573
X5.612Y-4.1864
X5.612Y-4.7573
X4.362Y-4.1864
X4.362Y-4.7573
X4.462Y-4.7573
X4.562Y-4.1864
X4.562Y-4.7573
X2.1067Y-2.6705
X2.1067Y-3.1035
X2.262Y-2.0864
X2.262Y-2.6573
X2.362Y-2.6573
X2.462Y-2.0864
X2.462Y-2.6573
X4.7705Y-5.7673
X5.2035Y-5.7673
X4.7705Y-2.1067
X5.2035Y-2.1067
X4.362Y-2.0864
X4.362Y-2.6573
X4.462Y-2.6573
X4.562Y-2.0864
X4.562Y-2.6573
X2.6705Y-2.1067
X3.1035Y-2.1067
X5.412Y-5.2364
X5.412Y-5.8073
X5.512Y-5.8073
X5.612Y-5.2364
X5.612Y-5.8073
X5.7673Y-4.7705
X5.7673Y-5.2035
X3.312Y-3.1364
X3.312Y-3.7073
X3.412Y-3.7073
X3.512Y-3.1364
X3.512Y-3.7073
X5.412Y-2.0864
X5.412Y-2.6573
X5.512Y-2.6573
X5.612Y-2.0864
X5.612Y-2.6573
X2.262Y-4.1864
X2.262Y-4.7573
X2.362Y-4.7573
X2.462Y-4.1864
X2.462Y-4.7573
X2.6705Y-5.7673
X3.1035Y-5.7673
X3.312Y-4.1864
X3.312Y-4.7573
X3.412Y-4.7573
X3.512Y-4.1864
X3.512Y-4.7573
X3.312Y-5.2364
X3.312Y-5.8073
X3.412Y-5.8073
X3.512Y-5.2364
X3.512Y-5.8073
X2.1067Y-4.7705
X2.1067Y-5.2035
T7
X2.0866Y-2.0866
X2.0866Y-5.7874
X2.887Y-2.887
X2.887Y-4.987
X4.987Y-2.887
X4.987Y-4.987
X5.7874Y-2.0866
X5.7874Y-5.7874
T8
X5.2561Y-4.462
X5.7679Y-4.462
X4.2061Y-4.462
X4.7179Y-4.462
X2.1061Y-2.362
X2.6179Y-2.362
X4.2061Y-2.362
X4.7179Y-2.362
X5.2561Y-5.512
X5.7679Y-5.512
X3.1561Y-3.412
X3.6679Y-3.412
X5.2561Y-2.362
X5.7679Y-2.362
X2.1061Y-4.462
X2.6179Y-4.462
X3.1561Y-4.462
X3.6679Y-4.462
X3.1561Y-5.512
X3.6679Y-5.512
X3.1561Y-2.362
X3.6679Y-2.362
X4.2061Y-5.512
X4.7179Y-5.512
X2.1061Y-3.412
X2.6179Y-3.412
X5.2561Y-3.412
X5.7679Y-3.412
X4.2061Y-3.412
X4.7179Y-3.412
X2.1061Y-5.512
X2.6179Y-5.512
T9
X4.0787Y-2.2386
T3
G00X5.8028Y-2.7492
M15
G01X5.7713Y-2.7492
M16
G05
G00X5.8028Y-2.7886
M15
G01X5.7713Y-2.7886
M16
G05
G00X5.8028Y-2.828
M15
G01X5.7713Y-2.828
M16
G05
G00X5.8028Y-2.8673
M15
G01X5.7713Y-2.8673
M16
G05
G00X5.8028Y-2.9067
M15
G01X5.7713Y-2.9067
M16
G05
G00X5.8028Y-2.9461
M15
G01X5.7713Y-2.9461
M16
G05
G00X5.8028Y-2.9854
M15
G01X5.7713Y-2.9854
M16
G05
G00X5.8028Y-3.0248
M15
G01X5.7713Y-3.0248
M16
G05
G00X3.7602Y-2.026
M15
G01X3.7602Y-2.0024
M16
G05
G00X3.7744Y-2.2012
M15
G01X3.7744Y-2.1776
M16
G05
G00X4.0996Y-2.2012
M15
G01X4.0996Y-2.1776
M16
G05
G00X4.1138Y-2.026
M15
G01X4.1138Y-2.0024
M16
G05
G00X2.0713Y-2.7492
M15
G01X2.1028Y-2.7492
M16
G05
G00X2.0713Y-2.7886
M15
G01X2.1028Y-2.7886
M16
G05
G00X2.0713Y-2.828
M15
G01X2.1028Y-2.828
M16
G05
G00X2.0713Y-2.8673
M15
G01X2.1028Y-2.8673
M16
G05
G00X2.0713Y-2.9067
M15
G01X2.1028Y-2.9067
M16
G05
G00X2.0713Y-2.9461
M15
G01X2.1028Y-2.9461
M16
G05
G00X2.0713Y-2.9854
M15
G01X2.1028Y-2.9854
M16
G05
G00X2.0713Y-3.0248
M15
G01X2.1028Y-3.0248
M16
G05
G00X4.8492Y-5.8028
M15
G01X4.8492Y-5.7713
M16
G05
G00X4.8886Y-5.8028
M15
G01X4.8886Y-5.7713
M16
G05
G00X4.928Y-5.8028
M15
G01X4.928Y-5.7713
M16
G05
G00X4.9673Y-5.8028
M15
G01X4.9673Y-5.7713
M16
G05
G00X5.0067Y-5.8028
M15
G01X5.0067Y-5.7713
M16
G05
G00X5.0461Y-5.8028
M15
G01X5.0461Y-5.7713
M16
G05
G00X5.0854Y-5.8028
M15
G01X5.0854Y-5.7713
M16
G05
G00X5.1248Y-5.8028
M15
G01X5.1248Y-5.7713
M16
G05
G00X4.8492Y-2.0713
M15
G01X4.8492Y-2.1028
M16
G05
G00X4.8886Y-2.0713
M15
G01X4.8886Y-2.1028
M16
G05
G00X4.928Y-2.0713
M15
G01X4.928Y-2.1028
M16
G05
G00X4.9673Y-2.0713
M15
G01X4.9673Y-2.1028
M16
G05
G00X5.0067Y-2.0713
M15
G01X5.0067Y-2.1028
M16
G05
G00X5.0461Y-2.0713
M15
G01X5.0461Y-2.1028
M16
G05
G00X5.0854Y-2.0713
M15
G01X5.0854Y-2.1028
M16
G05
G00X5.1248Y-2.0713
M15
G01X5.1248Y-2.1028
M16
G05
G00X2.7492Y-2.0713
M15
G01X2.7492Y-2.1028
M16
G05
G00X2.7886Y-2.0713
M15
G01X2.7886Y-2.1028
M16
G05
G00X2.828Y-2.0713
M15
G01X2.828Y-2.1028
M16
G05
G00X2.8673Y-2.0713
M15
G01X2.8673Y-2.1028
M16
G05
G00X2.9067Y-2.0713
M15
G01X2.9067Y-2.1028
M16
G05
G00X2.9461Y-2.0713
M15
G01X2.9461Y-2.1028
M16
G05
G00X2.9854Y-2.0713
M15
G01X2.9854Y-2.1028
M16
G05
G00X3.0248Y-2.0713
M15
G01X3.0248Y-2.1028
M16
G05
G00X5.8028Y-4.8492
M15
G01X5.7713Y-4.8492
M16
G05
G00X5.8028Y-4.8886
M15
G01X5.7713Y-4.8886
M16
G05
G00X5.8028Y-4.928
M15
G01X5.7713Y-4.928
M16
G05
G00X5.8028Y-4.9673
M15
G01X5.7713Y-4.9673
M16
G05
G00X5.8028Y-5.0067
M15
G01X5.7713Y-5.0067
M16
G05
G00X5.8028Y-5.0461
M15
G01X5.7713Y-5.0461
M16
G05
G00X5.8028Y-5.0854
M15
G01X5.7713Y-5.0854
M16
G05
G00X5.8028Y-5.1248
M15
G01X5.7713Y-5.1248
M16
G05
G00X2.7492Y-5.8028
M15
G01X2.7492Y-5.7713
M16
G05
G00X2.7886Y-5.8028
M15
G01X2.7886Y-5.7713
M16
G05
G00X2.828Y-5.8028
M15
G01X2.828Y-5.7713
M16
G05
G00X2.8673Y-5.8028
M15
G01X2.8673Y-5.7713
M16
G05
G00X2.9067Y-5.8028
M15
G01X2.9067Y-5.7713
M16
G05
G00X2.9461Y-5.8028
M15
G01X2.9461Y-5.7713
M16
G05
G00X2.9854Y-5.8028
M15
G01X2.9854Y-5.7713
M16
G05
G00X3.0248Y-5.8028
M15
G01X3.0248Y-5.7713
M16
G05
G00X2.0713Y-4.8492
M15
G01X2.1028Y-4.8492
M16
G05
G00X2.0713Y-4.8886
M15
G01X2.1028Y-4.8886
M16
G05
G00X2.0713Y-4.928
M15
G01X2.1028Y-4.928
M16
G05
G00X2.0713Y-4.9673
M15
G01X2.1028Y-4.9673
M16
G05
G00X2.0713Y-5.0067
M15
G01X2.1028Y-5.0067
M16
G05
G00X2.0713Y-5.0461
M15
G01X2.1028Y-5.0461
M16
G05
G00X2.0713Y-5.0854
M15
G01X2.1028Y-5.0854
M16
G05
G00X2.0713Y-5.1248
M15
G01X2.1028Y-5.1248
M16
G05
T9
G00X3.8012Y-2.2386
M15
G01X3.7894Y-2.2386
M16
G05
T0
M30
