%TF.GenerationSoftware,KiCad,Pcbnew,(5.1.6)-1*%
%TF.CreationDate,2020-12-27T15:21:12+01:00*%
%TF.ProjectId,XY_ADAPTER_FPC50,58595f41-4441-4505-9445-525f46504335,rev?*%
%TF.SameCoordinates,Original*%
%TF.FileFunction,Soldermask,Top*%
%TF.FilePolarity,Negative*%
%FSLAX46Y46*%
G04 Gerber Fmt 4.6, Leading zero omitted, Abs format (unit mm)*
G04 Created by KiCad (PCBNEW (5.1.6)-1) date 2020-12-27 15:21:12*
%MOMM*%
%LPD*%
G01*
G04 APERTURE LIST*
%ADD10R,1.400000X0.400000*%
%ADD11R,2.300000X1.900000*%
%ADD12O,1.800000X1.800000*%
%ADD13R,1.800000X1.800000*%
G04 APERTURE END LIST*
D10*
%TO.C,J1*%
X71810000Y-112210000D03*
X71810000Y-111710000D03*
X71810000Y-111210000D03*
X71810000Y-110710000D03*
X71810000Y-110210000D03*
X71810000Y-109710000D03*
X71810000Y-109210000D03*
X71810000Y-108710000D03*
X71810000Y-108210000D03*
X71810000Y-107710000D03*
X71810000Y-107210000D03*
X71810000Y-106710000D03*
X71810000Y-106210000D03*
X71810000Y-105710000D03*
X71810000Y-105210000D03*
X71810000Y-104710000D03*
X71810000Y-104210000D03*
X71810000Y-103710000D03*
X71810000Y-103210000D03*
X71810000Y-102710000D03*
X71810000Y-102210000D03*
X71810000Y-101710000D03*
X71810000Y-101210000D03*
X71810000Y-100710000D03*
X71810000Y-100210000D03*
X71810000Y-99710000D03*
X71810000Y-99210000D03*
X71810000Y-98710000D03*
X71810000Y-98210000D03*
X71810000Y-97710000D03*
X71810000Y-97210000D03*
X71810000Y-96710000D03*
X71810000Y-96210000D03*
X71810000Y-95710000D03*
X71810000Y-95210000D03*
X71810000Y-94710000D03*
X71810000Y-94210000D03*
X71810000Y-93710000D03*
X71810000Y-93210000D03*
X71810000Y-92710000D03*
X71810000Y-92210000D03*
X71810000Y-91710000D03*
X71810000Y-91210000D03*
X71810000Y-90710000D03*
X71810000Y-90210000D03*
X71810000Y-89710000D03*
X71810000Y-89210000D03*
X71810000Y-88710000D03*
X71810000Y-88210000D03*
X71810000Y-87710000D03*
D11*
X68560000Y-85810000D03*
X68560000Y-114110000D03*
%TD*%
D12*
%TO.C,J6*%
X74600000Y-120320000D03*
X77140000Y-120320000D03*
X79680000Y-120320000D03*
X82220000Y-120320000D03*
X84760000Y-120320000D03*
X87300000Y-120320000D03*
X89840000Y-120320000D03*
X92380000Y-120320000D03*
X94920000Y-120320000D03*
D13*
X97460000Y-120320000D03*
%TD*%
D12*
%TO.C,J5*%
X102540000Y-120320000D03*
X105080000Y-120320000D03*
X107620000Y-120320000D03*
X110160000Y-120320000D03*
X112700000Y-120320000D03*
X115240000Y-120320000D03*
X117780000Y-120320000D03*
X120320000Y-120320000D03*
X122860000Y-120320000D03*
D13*
X125400000Y-120320000D03*
%TD*%
D12*
%TO.C,J4*%
X130480000Y-111430000D03*
X130480000Y-108890000D03*
X130480000Y-106350000D03*
X130480000Y-103810000D03*
X130480000Y-101270000D03*
X130480000Y-98730000D03*
X130480000Y-96190000D03*
X130480000Y-93650000D03*
X130480000Y-91110000D03*
D13*
X130480000Y-88570000D03*
%TD*%
D12*
%TO.C,J3*%
X125400000Y-79960000D03*
X122860000Y-79960000D03*
X120320000Y-79960000D03*
X117780000Y-79960000D03*
X115240000Y-79960000D03*
X112700000Y-79960000D03*
X110160000Y-79960000D03*
X107620000Y-79960000D03*
X105080000Y-79960000D03*
D13*
X102540000Y-79960000D03*
%TD*%
D12*
%TO.C,J2*%
X97460000Y-79960000D03*
X94920000Y-79960000D03*
X92380000Y-79960000D03*
X89840000Y-79960000D03*
X87300000Y-79960000D03*
X84760000Y-79960000D03*
X82220000Y-79960000D03*
X79680000Y-79960000D03*
X77140000Y-79960000D03*
D13*
X74600000Y-79960000D03*
%TD*%
M02*
