G04 #@! TF.GenerationSoftware,KiCad,Pcbnew,(5.1.2)-2*
G04 #@! TF.CreationDate,2020-03-23T14:04:02+01:00*
G04 #@! TF.ProjectId,PBF4,50424634-2e6b-4696-9361-645f70636258,rev?*
G04 #@! TF.SameCoordinates,Original*
G04 #@! TF.FileFunction,Legend,Top*
G04 #@! TF.FilePolarity,Positive*
%FSLAX46Y46*%
G04 Gerber Fmt 4.6, Leading zero omitted, Abs format (unit mm)*
G04 Created by KiCad (PCBNEW (5.1.2)-2) date 2020-03-23 14:04:02*
%MOMM*%
%LPD*%
G04 APERTURE LIST*
%ADD10C,0.120000*%
%ADD11C,0.150000*%
%ADD12C,0.250000*%
%ADD13C,0.500000*%
%ADD14C,0.100000*%
G04 APERTURE END LIST*
D10*
X77000000Y-71500000D02*
X79000000Y-71500000D01*
X79000000Y-69500000D02*
X77000000Y-69500000D01*
X77000000Y-69500000D02*
X77000000Y-71500000D01*
X79000000Y-71500000D02*
X79000000Y-69500000D01*
X77000000Y-69500000D02*
X79000000Y-69500000D01*
X79000000Y-67500000D02*
X77000000Y-67500000D01*
X77000000Y-67500000D02*
X77000000Y-69500000D01*
X79000000Y-69500000D02*
X79000000Y-67500000D01*
X77000000Y-67500000D02*
X79000000Y-67500000D01*
X79000000Y-65500000D02*
X77000000Y-65500000D01*
X77000000Y-65500000D02*
X77000000Y-67500000D01*
X79000000Y-67500000D02*
X79000000Y-65500000D01*
X126500000Y-71500000D02*
X126500000Y-69500000D01*
X126500000Y-69500000D02*
X130500000Y-69500000D01*
X132500000Y-69500000D02*
X132500000Y-71500000D01*
X128500000Y-71500000D02*
X126500000Y-71500000D01*
X132500000Y-71500000D02*
X128500000Y-71500000D01*
X130500000Y-71500000D02*
X128500000Y-71500000D01*
X128500000Y-71500000D02*
X126500000Y-71500000D01*
D11*
X121764166Y-70285714D02*
X121764166Y-71285714D01*
X121764166Y-70904761D02*
X121668928Y-70952380D01*
X121478452Y-70952380D01*
X121383214Y-70904761D01*
X121335595Y-70857142D01*
X121287976Y-70761904D01*
X121287976Y-70476190D01*
X121335595Y-70380952D01*
X121383214Y-70333333D01*
X121478452Y-70285714D01*
X121668928Y-70285714D01*
X121764166Y-70333333D01*
X122668928Y-70285714D02*
X122668928Y-70952380D01*
X122240357Y-70285714D02*
X122240357Y-70809523D01*
X122287976Y-70904761D01*
X122383214Y-70952380D01*
X122526071Y-70952380D01*
X122621309Y-70904761D01*
X122668928Y-70857142D01*
X123573690Y-70952380D02*
X123573690Y-70428571D01*
X123526071Y-70333333D01*
X123430833Y-70285714D01*
X123240357Y-70285714D01*
X123145119Y-70333333D01*
X123573690Y-70904761D02*
X123478452Y-70952380D01*
X123240357Y-70952380D01*
X123145119Y-70904761D01*
X123097500Y-70809523D01*
X123097500Y-70714285D01*
X123145119Y-70619047D01*
X123240357Y-70571428D01*
X123478452Y-70571428D01*
X123573690Y-70523809D01*
X124192738Y-70952380D02*
X124097500Y-70904761D01*
X124049880Y-70809523D01*
X124049880Y-69952380D01*
X124573690Y-70952380D02*
X124573690Y-70285714D01*
X124573690Y-69952380D02*
X124526071Y-70000000D01*
X124573690Y-70047619D01*
X124621309Y-70000000D01*
X124573690Y-69952380D01*
X124573690Y-70047619D01*
X124907023Y-70285714D02*
X125287976Y-70285714D01*
X125049880Y-69952380D02*
X125049880Y-70809523D01*
X125097500Y-70904761D01*
X125192738Y-70952380D01*
X125287976Y-70952380D01*
X125526071Y-70285714D02*
X125764166Y-70952380D01*
X126002261Y-70285714D02*
X125764166Y-70952380D01*
X125668928Y-71190476D01*
X125621309Y-71238095D01*
X125526071Y-71285714D01*
D10*
X126500000Y-65500000D02*
X124500000Y-65500000D01*
X128500000Y-65500000D02*
X126500000Y-65500000D01*
X126500000Y-67500000D02*
X126500000Y-65500000D01*
X124500000Y-67500000D02*
X126500000Y-67500000D01*
X124500000Y-65500000D02*
X124500000Y-67500000D01*
X126500000Y-65500000D02*
X126500000Y-67500000D01*
X130500000Y-67500000D02*
X130500000Y-69500000D01*
X126500000Y-67500000D02*
X128500000Y-67500000D01*
X128500000Y-67500000D02*
X128500000Y-65500000D01*
X130500000Y-65500000D02*
X128500000Y-65500000D01*
X128500000Y-65500000D02*
X128500000Y-67500000D01*
X128500000Y-67500000D02*
X130500000Y-67500000D01*
X130500000Y-67500000D02*
X130500000Y-65500000D01*
X130500000Y-67500000D02*
X128500000Y-67500000D01*
X126500000Y-67500000D02*
X124500000Y-67500000D01*
X130500000Y-69500000D02*
X132500000Y-69500000D01*
X132500000Y-69500000D02*
X132500000Y-67500000D01*
X128500000Y-67500000D02*
X126500000Y-67500000D01*
X132500000Y-69500000D02*
X130500000Y-69500000D01*
X132500000Y-67500000D02*
X132500000Y-69500000D01*
X132500000Y-65500000D02*
X130500000Y-65500000D01*
X130500000Y-67500000D02*
X130500000Y-65500000D01*
X132500000Y-67500000D02*
X130500000Y-67500000D01*
X132500000Y-67500000D02*
X132500000Y-65500000D01*
X130500000Y-65500000D02*
X130500000Y-67500000D01*
X130500000Y-65500000D02*
X132500000Y-65500000D01*
X130500000Y-67500000D02*
X132500000Y-67500000D01*
X126500000Y-67500000D02*
X126500000Y-69500000D01*
X126500000Y-69500000D02*
X128500000Y-69500000D01*
X130500000Y-67500000D02*
X130500000Y-69500000D01*
X130500000Y-69500000D02*
X128500000Y-69500000D01*
X128500000Y-69500000D02*
X128500000Y-67500000D01*
X128500000Y-67500000D02*
X128500000Y-69500000D01*
X128500000Y-69500000D02*
X126500000Y-69500000D01*
X127000000Y-68500000D02*
X128000000Y-68500000D01*
X130500000Y-69500000D02*
X130500000Y-67500000D01*
X128500000Y-67500000D02*
X128500000Y-69500000D01*
X128500000Y-69500000D02*
X130500000Y-69500000D01*
X128500000Y-65500000D02*
X126500000Y-65500000D01*
X126500000Y-65500000D02*
X124500000Y-65500000D01*
X128500000Y-63500000D02*
X128500000Y-65500000D01*
X124500000Y-63500000D02*
X128500000Y-63500000D01*
X124500000Y-65500000D02*
X124500000Y-63500000D01*
D11*
X121335595Y-68952380D02*
X121335595Y-67952380D01*
X121335595Y-68333333D02*
X121430833Y-68285714D01*
X121621309Y-68285714D01*
X121716547Y-68333333D01*
X121764166Y-68380952D01*
X121811785Y-68476190D01*
X121811785Y-68761904D01*
X121764166Y-68857142D01*
X121716547Y-68904761D01*
X121621309Y-68952380D01*
X121430833Y-68952380D01*
X121335595Y-68904761D01*
X122668928Y-68952380D02*
X122668928Y-68428571D01*
X122621309Y-68333333D01*
X122526071Y-68285714D01*
X122335595Y-68285714D01*
X122240357Y-68333333D01*
X122668928Y-68904761D02*
X122573690Y-68952380D01*
X122335595Y-68952380D01*
X122240357Y-68904761D01*
X122192738Y-68809523D01*
X122192738Y-68714285D01*
X122240357Y-68619047D01*
X122335595Y-68571428D01*
X122573690Y-68571428D01*
X122668928Y-68523809D01*
X123002261Y-68285714D02*
X123383214Y-68285714D01*
X123145119Y-67952380D02*
X123145119Y-68809523D01*
X123192738Y-68904761D01*
X123287976Y-68952380D01*
X123383214Y-68952380D01*
X124145119Y-68904761D02*
X124049880Y-68952380D01*
X123859404Y-68952380D01*
X123764166Y-68904761D01*
X123716547Y-68857142D01*
X123668928Y-68761904D01*
X123668928Y-68476190D01*
X123716547Y-68380952D01*
X123764166Y-68333333D01*
X123859404Y-68285714D01*
X124049880Y-68285714D01*
X124145119Y-68333333D01*
X124573690Y-68952380D02*
X124573690Y-67952380D01*
X125002261Y-68952380D02*
X125002261Y-68428571D01*
X124954642Y-68333333D01*
X124859404Y-68285714D01*
X124716547Y-68285714D01*
X124621309Y-68333333D01*
X124573690Y-68380952D01*
X124833333Y-62952380D02*
X124833333Y-61952380D01*
X125214285Y-61952380D01*
X125309523Y-62000000D01*
X125357142Y-62047619D01*
X125404761Y-62142857D01*
X125404761Y-62285714D01*
X125357142Y-62380952D01*
X125309523Y-62428571D01*
X125214285Y-62476190D01*
X124833333Y-62476190D01*
X126166666Y-62428571D02*
X126309523Y-62476190D01*
X126357142Y-62523809D01*
X126404761Y-62619047D01*
X126404761Y-62761904D01*
X126357142Y-62857142D01*
X126309523Y-62904761D01*
X126214285Y-62952380D01*
X125833333Y-62952380D01*
X125833333Y-61952380D01*
X126166666Y-61952380D01*
X126261904Y-62000000D01*
X126309523Y-62047619D01*
X126357142Y-62142857D01*
X126357142Y-62238095D01*
X126309523Y-62333333D01*
X126261904Y-62380952D01*
X126166666Y-62428571D01*
X125833333Y-62428571D01*
X127166666Y-62428571D02*
X126833333Y-62428571D01*
X126833333Y-62952380D02*
X126833333Y-61952380D01*
X127309523Y-61952380D01*
X128119047Y-62285714D02*
X128119047Y-62952380D01*
X127880952Y-61904761D02*
X127642857Y-62619047D01*
X128261904Y-62619047D01*
X121192738Y-64285714D02*
X121573690Y-64285714D01*
X121335595Y-63952380D02*
X121335595Y-64809523D01*
X121383214Y-64904761D01*
X121478452Y-64952380D01*
X121573690Y-64952380D01*
X121811785Y-64285714D02*
X122049880Y-64952380D01*
X122287976Y-64285714D02*
X122049880Y-64952380D01*
X121954642Y-65190476D01*
X121907023Y-65238095D01*
X121811785Y-65285714D01*
X122668928Y-64285714D02*
X122668928Y-65285714D01*
X122668928Y-64333333D02*
X122764166Y-64285714D01*
X122954642Y-64285714D01*
X123049880Y-64333333D01*
X123097500Y-64380952D01*
X123145119Y-64476190D01*
X123145119Y-64761904D01*
X123097500Y-64857142D01*
X123049880Y-64904761D01*
X122954642Y-64952380D01*
X122764166Y-64952380D01*
X122668928Y-64904761D01*
X123954642Y-64904761D02*
X123859404Y-64952380D01*
X123668928Y-64952380D01*
X123573690Y-64904761D01*
X123526071Y-64809523D01*
X123526071Y-64428571D01*
X123573690Y-64333333D01*
X123668928Y-64285714D01*
X123859404Y-64285714D01*
X123954642Y-64333333D01*
X124002261Y-64428571D01*
X124002261Y-64523809D01*
X123526071Y-64619047D01*
X121287976Y-66904761D02*
X121383214Y-66952380D01*
X121573690Y-66952380D01*
X121668928Y-66904761D01*
X121716547Y-66809523D01*
X121716547Y-66761904D01*
X121668928Y-66666666D01*
X121573690Y-66619047D01*
X121430833Y-66619047D01*
X121335595Y-66571428D01*
X121287976Y-66476190D01*
X121287976Y-66428571D01*
X121335595Y-66333333D01*
X121430833Y-66285714D01*
X121573690Y-66285714D01*
X121668928Y-66333333D01*
X122859404Y-65904761D02*
X122002261Y-67190476D01*
X123192738Y-66285714D02*
X123192738Y-66952380D01*
X123192738Y-66380952D02*
X123240357Y-66333333D01*
X123335595Y-66285714D01*
X123478452Y-66285714D01*
X123573690Y-66333333D01*
X123621309Y-66428571D01*
X123621309Y-66952380D01*
X67335595Y-66952380D02*
X67335595Y-65952380D01*
X67335595Y-66333333D02*
X67430833Y-66285714D01*
X67621309Y-66285714D01*
X67716547Y-66333333D01*
X67764166Y-66380952D01*
X67811785Y-66476190D01*
X67811785Y-66761904D01*
X67764166Y-66857142D01*
X67716547Y-66904761D01*
X67621309Y-66952380D01*
X67430833Y-66952380D01*
X67335595Y-66904761D01*
X68383214Y-66952380D02*
X68287976Y-66904761D01*
X68240357Y-66857142D01*
X68192738Y-66761904D01*
X68192738Y-66476190D01*
X68240357Y-66380952D01*
X68287976Y-66333333D01*
X68383214Y-66285714D01*
X68526071Y-66285714D01*
X68621309Y-66333333D01*
X68668928Y-66380952D01*
X68716547Y-66476190D01*
X68716547Y-66761904D01*
X68668928Y-66857142D01*
X68621309Y-66904761D01*
X68526071Y-66952380D01*
X68383214Y-66952380D01*
X69287976Y-66952380D02*
X69192738Y-66904761D01*
X69145119Y-66857142D01*
X69097500Y-66761904D01*
X69097500Y-66476190D01*
X69145119Y-66380952D01*
X69192738Y-66333333D01*
X69287976Y-66285714D01*
X69430833Y-66285714D01*
X69526071Y-66333333D01*
X69573690Y-66380952D01*
X69621309Y-66476190D01*
X69621309Y-66761904D01*
X69573690Y-66857142D01*
X69526071Y-66904761D01*
X69430833Y-66952380D01*
X69287976Y-66952380D01*
X69907023Y-66285714D02*
X70287976Y-66285714D01*
X70049880Y-65952380D02*
X70049880Y-66809523D01*
X70097500Y-66904761D01*
X70192738Y-66952380D01*
X70287976Y-66952380D01*
D10*
X71000000Y-65500000D02*
X73000000Y-65500000D01*
X73000000Y-65500000D02*
X75000000Y-65500000D01*
X77000000Y-65500000D02*
X79000000Y-65500000D01*
X75000000Y-65500000D02*
X75000000Y-67500000D01*
X75000000Y-67500000D02*
X75000000Y-65500000D01*
X73000000Y-65500000D02*
X71000000Y-65500000D01*
X71000000Y-65500000D02*
X71000000Y-67500000D01*
X71000000Y-67500000D02*
X73000000Y-67500000D01*
X73000000Y-67500000D02*
X73000000Y-65500000D01*
X75000000Y-65500000D02*
X73000000Y-65500000D01*
X73000000Y-67500000D02*
X71000000Y-67500000D01*
X75000000Y-67500000D02*
X73000000Y-67500000D01*
X73000000Y-67500000D02*
X75000000Y-67500000D01*
X73000000Y-65500000D02*
X73000000Y-67500000D01*
X75000000Y-71500000D02*
X73000000Y-71500000D01*
X73000000Y-71500000D02*
X71000000Y-71500000D01*
X75000000Y-69500000D02*
X73000000Y-69500000D01*
X73000000Y-71500000D02*
X73000000Y-69500000D01*
X71000000Y-71500000D02*
X73000000Y-71500000D01*
X71000000Y-69500000D02*
X71000000Y-71500000D01*
X73000000Y-69500000D02*
X71000000Y-69500000D01*
X73000000Y-69500000D02*
X73000000Y-71500000D01*
X73000000Y-71500000D02*
X75000000Y-71500000D01*
X75000000Y-71500000D02*
X75000000Y-69500000D01*
X75000000Y-69500000D02*
X75000000Y-71500000D01*
X75000000Y-67500000D02*
X73000000Y-67500000D01*
X73000000Y-69500000D02*
X73000000Y-67500000D01*
X71000000Y-69500000D02*
X73000000Y-69500000D01*
X71000000Y-67500000D02*
X71000000Y-69500000D01*
X73000000Y-67500000D02*
X71000000Y-67500000D01*
X73000000Y-67500000D02*
X73000000Y-69500000D01*
X73000000Y-69500000D02*
X75000000Y-69500000D01*
X75000000Y-69500000D02*
X75000000Y-67500000D01*
X75000000Y-67500000D02*
X75000000Y-69500000D01*
X79000000Y-65500000D02*
X79000000Y-63500000D01*
X77000000Y-63500000D02*
X77000000Y-65500000D01*
X79000000Y-63500000D02*
X77000000Y-63500000D01*
X75000000Y-65500000D02*
X75000000Y-63500000D01*
X73000000Y-67500000D02*
X75000000Y-67500000D01*
X73000000Y-63500000D02*
X73000000Y-65500000D01*
X75000000Y-63500000D02*
X73000000Y-63500000D01*
X73000000Y-63500000D02*
X71000000Y-63500000D01*
X73000000Y-65500000D02*
X73000000Y-63500000D01*
X71000000Y-67500000D02*
X73000000Y-67500000D01*
X71000000Y-63500000D02*
X71000000Y-65500000D01*
D11*
X71738095Y-62952380D02*
X71738095Y-61952380D01*
X72119047Y-61952380D01*
X72214285Y-62000000D01*
X72261904Y-62047619D01*
X72309523Y-62142857D01*
X72309523Y-62285714D01*
X72261904Y-62380952D01*
X72214285Y-62428571D01*
X72119047Y-62476190D01*
X71738095Y-62476190D01*
X78309523Y-62952380D02*
X77976190Y-62476190D01*
X77738095Y-62952380D02*
X77738095Y-61952380D01*
X78119047Y-61952380D01*
X78214285Y-62000000D01*
X78261904Y-62047619D01*
X78309523Y-62142857D01*
X78309523Y-62285714D01*
X78261904Y-62380952D01*
X78214285Y-62428571D01*
X78119047Y-62476190D01*
X77738095Y-62476190D01*
X74142857Y-62428571D02*
X73809523Y-62428571D01*
X73809523Y-62952380D02*
X73809523Y-61952380D01*
X74285714Y-61952380D01*
X67335595Y-68285714D02*
X67335595Y-69285714D01*
X67335595Y-68333333D02*
X67430833Y-68285714D01*
X67621309Y-68285714D01*
X67716547Y-68333333D01*
X67764166Y-68380952D01*
X67811785Y-68476190D01*
X67811785Y-68761904D01*
X67764166Y-68857142D01*
X67716547Y-68904761D01*
X67621309Y-68952380D01*
X67430833Y-68952380D01*
X67335595Y-68904761D01*
X68383214Y-68952380D02*
X68287976Y-68904761D01*
X68240357Y-68857142D01*
X68192738Y-68761904D01*
X68192738Y-68476190D01*
X68240357Y-68380952D01*
X68287976Y-68333333D01*
X68383214Y-68285714D01*
X68526071Y-68285714D01*
X68621309Y-68333333D01*
X68668928Y-68380952D01*
X68716547Y-68476190D01*
X68716547Y-68761904D01*
X68668928Y-68857142D01*
X68621309Y-68904761D01*
X68526071Y-68952380D01*
X68383214Y-68952380D01*
X69145119Y-68952380D02*
X69145119Y-68285714D01*
X69145119Y-68476190D02*
X69192738Y-68380952D01*
X69240357Y-68333333D01*
X69335595Y-68285714D01*
X69430833Y-68285714D01*
X69621309Y-68285714D02*
X70002261Y-68285714D01*
X69764166Y-67952380D02*
X69764166Y-68809523D01*
X69811785Y-68904761D01*
X69907023Y-68952380D01*
X70002261Y-68952380D01*
X67764166Y-70285714D02*
X67764166Y-70952380D01*
X67335595Y-70285714D02*
X67335595Y-70809523D01*
X67383214Y-70904761D01*
X67478452Y-70952380D01*
X67621309Y-70952380D01*
X67716547Y-70904761D01*
X67764166Y-70857142D01*
X68192738Y-70904761D02*
X68287976Y-70952380D01*
X68478452Y-70952380D01*
X68573690Y-70904761D01*
X68621309Y-70809523D01*
X68621309Y-70761904D01*
X68573690Y-70666666D01*
X68478452Y-70619047D01*
X68335595Y-70619047D01*
X68240357Y-70571428D01*
X68192738Y-70476190D01*
X68192738Y-70428571D01*
X68240357Y-70333333D01*
X68335595Y-70285714D01*
X68478452Y-70285714D01*
X68573690Y-70333333D01*
X69430833Y-70904761D02*
X69335595Y-70952380D01*
X69145119Y-70952380D01*
X69049880Y-70904761D01*
X69002261Y-70809523D01*
X69002261Y-70428571D01*
X69049880Y-70333333D01*
X69145119Y-70285714D01*
X69335595Y-70285714D01*
X69430833Y-70333333D01*
X69478452Y-70428571D01*
X69478452Y-70523809D01*
X69002261Y-70619047D01*
X69907023Y-70952380D02*
X69907023Y-70285714D01*
X69907023Y-70476190D02*
X69954642Y-70380952D01*
X70002261Y-70333333D01*
X70097500Y-70285714D01*
X70192738Y-70285714D01*
X67287976Y-64904761D02*
X67383214Y-64952380D01*
X67573690Y-64952380D01*
X67668928Y-64904761D01*
X67716547Y-64809523D01*
X67716547Y-64761904D01*
X67668928Y-64666666D01*
X67573690Y-64619047D01*
X67430833Y-64619047D01*
X67335595Y-64571428D01*
X67287976Y-64476190D01*
X67287976Y-64428571D01*
X67335595Y-64333333D01*
X67430833Y-64285714D01*
X67573690Y-64285714D01*
X67668928Y-64333333D01*
X68145119Y-64952380D02*
X68145119Y-64285714D01*
X68145119Y-64380952D02*
X68192738Y-64333333D01*
X68287976Y-64285714D01*
X68430833Y-64285714D01*
X68526071Y-64333333D01*
X68573690Y-64428571D01*
X68573690Y-64952380D01*
X68573690Y-64428571D02*
X68621309Y-64333333D01*
X68716547Y-64285714D01*
X68859404Y-64285714D01*
X68954642Y-64333333D01*
X69002261Y-64428571D01*
X69002261Y-64952380D01*
X69335595Y-64285714D02*
X69716547Y-64285714D01*
X69478452Y-63952380D02*
X69478452Y-64809523D01*
X69526071Y-64904761D01*
X69621309Y-64952380D01*
X69716547Y-64952380D01*
X70478452Y-64952380D02*
X70478452Y-64428571D01*
X70430833Y-64333333D01*
X70335595Y-64285714D01*
X70145119Y-64285714D01*
X70049880Y-64333333D01*
X70478452Y-64904761D02*
X70383214Y-64952380D01*
X70145119Y-64952380D01*
X70049880Y-64904761D01*
X70002261Y-64809523D01*
X70002261Y-64714285D01*
X70049880Y-64619047D01*
X70145119Y-64571428D01*
X70383214Y-64571428D01*
X70478452Y-64523809D01*
X98738095Y-59574380D02*
X98738095Y-60383904D01*
X98785714Y-60479142D01*
X98833333Y-60526761D01*
X98928571Y-60574380D01*
X99119047Y-60574380D01*
X99214285Y-60526761D01*
X99261904Y-60479142D01*
X99309523Y-60383904D01*
X99309523Y-59574380D01*
X99738095Y-60526761D02*
X99880952Y-60574380D01*
X100119047Y-60574380D01*
X100214285Y-60526761D01*
X100261904Y-60479142D01*
X100309523Y-60383904D01*
X100309523Y-60288666D01*
X100261904Y-60193428D01*
X100214285Y-60145809D01*
X100119047Y-60098190D01*
X99928571Y-60050571D01*
X99833333Y-60002952D01*
X99785714Y-59955333D01*
X99738095Y-59860095D01*
X99738095Y-59764857D01*
X99785714Y-59669619D01*
X99833333Y-59622000D01*
X99928571Y-59574380D01*
X100166666Y-59574380D01*
X100309523Y-59622000D01*
X101071428Y-60050571D02*
X101214285Y-60098190D01*
X101261904Y-60145809D01*
X101309523Y-60241047D01*
X101309523Y-60383904D01*
X101261904Y-60479142D01*
X101214285Y-60526761D01*
X101119047Y-60574380D01*
X100738095Y-60574380D01*
X100738095Y-59574380D01*
X101071428Y-59574380D01*
X101166666Y-59622000D01*
X101214285Y-59669619D01*
X101261904Y-59764857D01*
X101261904Y-59860095D01*
X101214285Y-59955333D01*
X101166666Y-60002952D01*
X101071428Y-60050571D01*
X100738095Y-60050571D01*
X96134857Y-68766000D02*
X96039619Y-68718380D01*
X95896761Y-68718380D01*
X95753904Y-68766000D01*
X95658666Y-68861238D01*
X95611047Y-68956476D01*
X95563428Y-69146952D01*
X95563428Y-69289809D01*
X95611047Y-69480285D01*
X95658666Y-69575523D01*
X95753904Y-69670761D01*
X95896761Y-69718380D01*
X95992000Y-69718380D01*
X96134857Y-69670761D01*
X96182476Y-69623142D01*
X96182476Y-69289809D01*
X95992000Y-69289809D01*
X96611047Y-69718380D02*
X96611047Y-68718380D01*
X97182476Y-69718380D01*
X97182476Y-68718380D01*
X97658666Y-69718380D02*
X97658666Y-68718380D01*
X97896761Y-68718380D01*
X98039619Y-68766000D01*
X98134857Y-68861238D01*
X98182476Y-68956476D01*
X98230095Y-69146952D01*
X98230095Y-69289809D01*
X98182476Y-69480285D01*
X98134857Y-69575523D01*
X98039619Y-69670761D01*
X97896761Y-69718380D01*
X97658666Y-69718380D01*
X99277714Y-68718380D02*
X99849142Y-68718380D01*
X99563428Y-69718380D02*
X99563428Y-68718380D01*
X100087238Y-68718380D02*
X100753904Y-69718380D01*
X100753904Y-68718380D02*
X100087238Y-69718380D01*
X102468190Y-69718380D02*
X102134857Y-69242190D01*
X101896761Y-69718380D02*
X101896761Y-68718380D01*
X102277714Y-68718380D01*
X102372952Y-68766000D01*
X102420571Y-68813619D01*
X102468190Y-68908857D01*
X102468190Y-69051714D01*
X102420571Y-69146952D01*
X102372952Y-69194571D01*
X102277714Y-69242190D01*
X101896761Y-69242190D01*
X102801523Y-68718380D02*
X103468190Y-69718380D01*
X103468190Y-68718380D02*
X102801523Y-69718380D01*
X97761904Y-73020380D02*
X97761904Y-72020380D01*
X98000000Y-72020380D01*
X98142857Y-72068000D01*
X98238095Y-72163238D01*
X98285714Y-72258476D01*
X98333333Y-72448952D01*
X98333333Y-72591809D01*
X98285714Y-72782285D01*
X98238095Y-72877523D01*
X98142857Y-72972761D01*
X98000000Y-73020380D01*
X97761904Y-73020380D01*
X98761904Y-72496571D02*
X99095238Y-72496571D01*
X99238095Y-73020380D02*
X98761904Y-73020380D01*
X98761904Y-72020380D01*
X99238095Y-72020380D01*
X100000000Y-72496571D02*
X100142857Y-72544190D01*
X100190476Y-72591809D01*
X100238095Y-72687047D01*
X100238095Y-72829904D01*
X100190476Y-72925142D01*
X100142857Y-72972761D01*
X100047619Y-73020380D01*
X99666666Y-73020380D01*
X99666666Y-72020380D01*
X100000000Y-72020380D01*
X100095238Y-72068000D01*
X100142857Y-72115619D01*
X100190476Y-72210857D01*
X100190476Y-72306095D01*
X100142857Y-72401333D01*
X100095238Y-72448952D01*
X100000000Y-72496571D01*
X99666666Y-72496571D01*
X100666666Y-72020380D02*
X100666666Y-72829904D01*
X100714285Y-72925142D01*
X100761904Y-72972761D01*
X100857142Y-73020380D01*
X101047619Y-73020380D01*
X101142857Y-72972761D01*
X101190476Y-72925142D01*
X101238095Y-72829904D01*
X101238095Y-72020380D01*
X102238095Y-72068000D02*
X102142857Y-72020380D01*
X102000000Y-72020380D01*
X101857142Y-72068000D01*
X101761904Y-72163238D01*
X101714285Y-72258476D01*
X101666666Y-72448952D01*
X101666666Y-72591809D01*
X101714285Y-72782285D01*
X101761904Y-72877523D01*
X101857142Y-72972761D01*
X102000000Y-73020380D01*
X102095238Y-73020380D01*
X102238095Y-72972761D01*
X102285714Y-72925142D01*
X102285714Y-72591809D01*
X102095238Y-72591809D01*
X98738095Y-143632380D02*
X98738095Y-142632380D01*
X99071428Y-143346666D01*
X99404761Y-142632380D01*
X99404761Y-143632380D01*
X99833333Y-143346666D02*
X100309523Y-143346666D01*
X99738095Y-143632380D02*
X100071428Y-142632380D01*
X100404761Y-143632380D01*
X100738095Y-143632380D02*
X100738095Y-142632380D01*
X101119047Y-142632380D01*
X101214285Y-142680000D01*
X101261904Y-142727619D01*
X101309523Y-142822857D01*
X101309523Y-142965714D01*
X101261904Y-143060952D01*
X101214285Y-143108571D01*
X101119047Y-143156190D01*
X100738095Y-143156190D01*
X98642857Y-90800380D02*
X98642857Y-89800380D01*
X98976190Y-90514666D01*
X99309523Y-89800380D01*
X99309523Y-90800380D01*
X100357142Y-90705142D02*
X100309523Y-90752761D01*
X100166666Y-90800380D01*
X100071428Y-90800380D01*
X99928571Y-90752761D01*
X99833333Y-90657523D01*
X99785714Y-90562285D01*
X99738095Y-90371809D01*
X99738095Y-90228952D01*
X99785714Y-90038476D01*
X99833333Y-89943238D01*
X99928571Y-89848000D01*
X100071428Y-89800380D01*
X100166666Y-89800380D01*
X100309523Y-89848000D01*
X100357142Y-89895619D01*
X100785714Y-89800380D02*
X100785714Y-90609904D01*
X100833333Y-90705142D01*
X100880952Y-90752761D01*
X100976190Y-90800380D01*
X101166666Y-90800380D01*
X101261904Y-90752761D01*
X101309523Y-90705142D01*
X101357142Y-90609904D01*
X101357142Y-89800380D01*
X120772380Y-101809523D02*
X119772380Y-101809523D01*
X120486666Y-101476190D01*
X119772380Y-101142857D01*
X120772380Y-101142857D01*
X119772380Y-100666666D02*
X120581904Y-100666666D01*
X120677142Y-100619047D01*
X120724761Y-100571428D01*
X120772380Y-100476190D01*
X120772380Y-100285714D01*
X120724761Y-100190476D01*
X120677142Y-100142857D01*
X120581904Y-100095238D01*
X119772380Y-100095238D01*
X119772380Y-99714285D02*
X120772380Y-99047619D01*
X119772380Y-99047619D02*
X120772380Y-99714285D01*
X119867619Y-98714285D02*
X119820000Y-98666666D01*
X119772380Y-98571428D01*
X119772380Y-98333333D01*
X119820000Y-98238095D01*
X119867619Y-98190476D01*
X119962857Y-98142857D01*
X120058095Y-98142857D01*
X120200952Y-98190476D01*
X120772380Y-98761904D01*
X120772380Y-98142857D01*
X67432380Y-101809523D02*
X66432380Y-101809523D01*
X67146666Y-101476190D01*
X66432380Y-101142857D01*
X67432380Y-101142857D01*
X66432380Y-100666666D02*
X67241904Y-100666666D01*
X67337142Y-100619047D01*
X67384761Y-100571428D01*
X67432380Y-100476190D01*
X67432380Y-100285714D01*
X67384761Y-100190476D01*
X67337142Y-100142857D01*
X67241904Y-100095238D01*
X66432380Y-100095238D01*
X66432380Y-99714285D02*
X67432380Y-99047619D01*
X66432380Y-99047619D02*
X67432380Y-99714285D01*
X67432380Y-98142857D02*
X67432380Y-98714285D01*
X67432380Y-98428571D02*
X66432380Y-98428571D01*
X66575238Y-98523809D01*
X66670476Y-98619047D01*
X66718095Y-98714285D01*
D12*
X95214285Y-133327380D02*
X95214285Y-132327380D01*
X95690476Y-132660714D02*
X95690476Y-133327380D01*
X95690476Y-132755952D02*
X95738095Y-132708333D01*
X95833333Y-132660714D01*
X95976190Y-132660714D01*
X96071428Y-132708333D01*
X96119047Y-132803571D01*
X96119047Y-133327380D01*
X96452380Y-132660714D02*
X96833333Y-132660714D01*
X96595238Y-132327380D02*
X96595238Y-133184523D01*
X96642857Y-133279761D01*
X96738095Y-133327380D01*
X96833333Y-133327380D01*
X97547619Y-133279761D02*
X97452380Y-133327380D01*
X97261904Y-133327380D01*
X97166666Y-133279761D01*
X97119047Y-133184523D01*
X97119047Y-132803571D01*
X97166666Y-132708333D01*
X97261904Y-132660714D01*
X97452380Y-132660714D01*
X97547619Y-132708333D01*
X97595238Y-132803571D01*
X97595238Y-132898809D01*
X97119047Y-132994047D01*
X98452380Y-133279761D02*
X98357142Y-133327380D01*
X98166666Y-133327380D01*
X98071428Y-133279761D01*
X98023809Y-133232142D01*
X97976190Y-133136904D01*
X97976190Y-132851190D01*
X98023809Y-132755952D01*
X98071428Y-132708333D01*
X98166666Y-132660714D01*
X98357142Y-132660714D01*
X98452380Y-132708333D01*
X98880952Y-133327380D02*
X98880952Y-132327380D01*
X99309523Y-133327380D02*
X99309523Y-132803571D01*
X99261904Y-132708333D01*
X99166666Y-132660714D01*
X99023809Y-132660714D01*
X98928571Y-132708333D01*
X98880952Y-132755952D01*
X100500000Y-133279761D02*
X100642857Y-133327380D01*
X100880952Y-133327380D01*
X100976190Y-133279761D01*
X101023809Y-133232142D01*
X101071428Y-133136904D01*
X101071428Y-133041666D01*
X101023809Y-132946428D01*
X100976190Y-132898809D01*
X100880952Y-132851190D01*
X100690476Y-132803571D01*
X100595238Y-132755952D01*
X100547619Y-132708333D01*
X100500000Y-132613095D01*
X100500000Y-132517857D01*
X100547619Y-132422619D01*
X100595238Y-132375000D01*
X100690476Y-132327380D01*
X100928571Y-132327380D01*
X101071428Y-132375000D01*
X101357142Y-132660714D02*
X101738095Y-132660714D01*
X101500000Y-132327380D02*
X101500000Y-133184523D01*
X101547619Y-133279761D01*
X101642857Y-133327380D01*
X101738095Y-133327380D01*
X102500000Y-132660714D02*
X102500000Y-133327380D01*
X102071428Y-132660714D02*
X102071428Y-133184523D01*
X102119047Y-133279761D01*
X102214285Y-133327380D01*
X102357142Y-133327380D01*
X102452380Y-133279761D01*
X102500000Y-133232142D01*
X103404761Y-133327380D02*
X103404761Y-132327380D01*
X103404761Y-133279761D02*
X103309523Y-133327380D01*
X103119047Y-133327380D01*
X103023809Y-133279761D01*
X102976190Y-133232142D01*
X102928571Y-133136904D01*
X102928571Y-132851190D01*
X102976190Y-132755952D01*
X103023809Y-132708333D01*
X103119047Y-132660714D01*
X103309523Y-132660714D01*
X103404761Y-132708333D01*
X103880952Y-133327380D02*
X103880952Y-132660714D01*
X103880952Y-132327380D02*
X103833333Y-132375000D01*
X103880952Y-132422619D01*
X103928571Y-132375000D01*
X103880952Y-132327380D01*
X103880952Y-132422619D01*
X104500000Y-133327380D02*
X104404761Y-133279761D01*
X104357142Y-133232142D01*
X104309523Y-133136904D01*
X104309523Y-132851190D01*
X104357142Y-132755952D01*
X104404761Y-132708333D01*
X104500000Y-132660714D01*
X104642857Y-132660714D01*
X104738095Y-132708333D01*
X104785714Y-132755952D01*
X104833333Y-132851190D01*
X104833333Y-133136904D01*
X104785714Y-133232142D01*
X104738095Y-133279761D01*
X104642857Y-133327380D01*
X104500000Y-133327380D01*
X96976190Y-134125000D02*
X96880952Y-134077380D01*
X96738095Y-134077380D01*
X96595238Y-134125000D01*
X96500000Y-134220238D01*
X96452380Y-134315476D01*
X96404761Y-134505952D01*
X96404761Y-134648809D01*
X96452380Y-134839285D01*
X96500000Y-134934523D01*
X96595238Y-135029761D01*
X96738095Y-135077380D01*
X96833333Y-135077380D01*
X96976190Y-135029761D01*
X97023809Y-134982142D01*
X97023809Y-134648809D01*
X96833333Y-134648809D01*
X97452380Y-135077380D02*
X97452380Y-134410714D01*
X97452380Y-134601190D02*
X97500000Y-134505952D01*
X97547619Y-134458333D01*
X97642857Y-134410714D01*
X97738095Y-134410714D01*
X98071428Y-135077380D02*
X98071428Y-134410714D01*
X98071428Y-134077380D02*
X98023809Y-134125000D01*
X98071428Y-134172619D01*
X98119047Y-134125000D01*
X98071428Y-134077380D01*
X98071428Y-134172619D01*
X98976190Y-135077380D02*
X98976190Y-134077380D01*
X98976190Y-135029761D02*
X98880952Y-135077380D01*
X98690476Y-135077380D01*
X98595238Y-135029761D01*
X98547619Y-134982142D01*
X98500000Y-134886904D01*
X98500000Y-134601190D01*
X98547619Y-134505952D01*
X98595238Y-134458333D01*
X98690476Y-134410714D01*
X98880952Y-134410714D01*
X98976190Y-134458333D01*
X100214285Y-135077380D02*
X100214285Y-134077380D01*
X100595238Y-134077380D01*
X100690476Y-134125000D01*
X100738095Y-134172619D01*
X100785714Y-134267857D01*
X100785714Y-134410714D01*
X100738095Y-134505952D01*
X100690476Y-134553571D01*
X100595238Y-134601190D01*
X100214285Y-134601190D01*
X101547619Y-134553571D02*
X101690476Y-134601190D01*
X101738095Y-134648809D01*
X101785714Y-134744047D01*
X101785714Y-134886904D01*
X101738095Y-134982142D01*
X101690476Y-135029761D01*
X101595238Y-135077380D01*
X101214285Y-135077380D01*
X101214285Y-134077380D01*
X101547619Y-134077380D01*
X101642857Y-134125000D01*
X101690476Y-134172619D01*
X101738095Y-134267857D01*
X101738095Y-134363095D01*
X101690476Y-134458333D01*
X101642857Y-134505952D01*
X101547619Y-134553571D01*
X101214285Y-134553571D01*
X102547619Y-134553571D02*
X102214285Y-134553571D01*
X102214285Y-135077380D02*
X102214285Y-134077380D01*
X102690476Y-134077380D01*
X103500000Y-134410714D02*
X103500000Y-135077380D01*
X103261904Y-134029761D02*
X103023809Y-134744047D01*
X103642857Y-134744047D01*
X95785714Y-136827380D02*
X95452380Y-136351190D01*
X95214285Y-136827380D02*
X95214285Y-135827380D01*
X95595238Y-135827380D01*
X95690476Y-135875000D01*
X95738095Y-135922619D01*
X95785714Y-136017857D01*
X95785714Y-136160714D01*
X95738095Y-136255952D01*
X95690476Y-136303571D01*
X95595238Y-136351190D01*
X95214285Y-136351190D01*
X96595238Y-136779761D02*
X96500000Y-136827380D01*
X96309523Y-136827380D01*
X96214285Y-136779761D01*
X96166666Y-136684523D01*
X96166666Y-136303571D01*
X96214285Y-136208333D01*
X96309523Y-136160714D01*
X96500000Y-136160714D01*
X96595238Y-136208333D01*
X96642857Y-136303571D01*
X96642857Y-136398809D01*
X96166666Y-136494047D01*
X96976190Y-136160714D02*
X97214285Y-136827380D01*
X97452380Y-136160714D01*
X97785714Y-136541666D02*
X98261904Y-136541666D01*
X97690476Y-136827380D02*
X98023809Y-135827380D01*
X98357142Y-136827380D01*
X99404761Y-135922619D02*
X99452380Y-135875000D01*
X99547619Y-135827380D01*
X99785714Y-135827380D01*
X99880952Y-135875000D01*
X99928571Y-135922619D01*
X99976190Y-136017857D01*
X99976190Y-136113095D01*
X99928571Y-136255952D01*
X99357142Y-136827380D01*
X99976190Y-136827380D01*
X100595238Y-135827380D02*
X100690476Y-135827380D01*
X100785714Y-135875000D01*
X100833333Y-135922619D01*
X100880952Y-136017857D01*
X100928571Y-136208333D01*
X100928571Y-136446428D01*
X100880952Y-136636904D01*
X100833333Y-136732142D01*
X100785714Y-136779761D01*
X100690476Y-136827380D01*
X100595238Y-136827380D01*
X100500000Y-136779761D01*
X100452380Y-136732142D01*
X100404761Y-136636904D01*
X100357142Y-136446428D01*
X100357142Y-136208333D01*
X100404761Y-136017857D01*
X100452380Y-135922619D01*
X100500000Y-135875000D01*
X100595238Y-135827380D01*
X101309523Y-135922619D02*
X101357142Y-135875000D01*
X101452380Y-135827380D01*
X101690476Y-135827380D01*
X101785714Y-135875000D01*
X101833333Y-135922619D01*
X101880952Y-136017857D01*
X101880952Y-136113095D01*
X101833333Y-136255952D01*
X101261904Y-136827380D01*
X101880952Y-136827380D01*
X102500000Y-135827380D02*
X102595238Y-135827380D01*
X102690476Y-135875000D01*
X102738095Y-135922619D01*
X102785714Y-136017857D01*
X102833333Y-136208333D01*
X102833333Y-136446428D01*
X102785714Y-136636904D01*
X102738095Y-136732142D01*
X102690476Y-136779761D01*
X102595238Y-136827380D01*
X102500000Y-136827380D01*
X102404761Y-136779761D01*
X102357142Y-136732142D01*
X102309523Y-136636904D01*
X102261904Y-136446428D01*
X102261904Y-136208333D01*
X102309523Y-136017857D01*
X102357142Y-135922619D01*
X102404761Y-135875000D01*
X102500000Y-135827380D01*
X103976190Y-135779761D02*
X103119047Y-137065476D01*
X104214285Y-135827380D02*
X104833333Y-135827380D01*
X104500000Y-136208333D01*
X104642857Y-136208333D01*
X104738095Y-136255952D01*
X104785714Y-136303571D01*
X104833333Y-136398809D01*
X104833333Y-136636904D01*
X104785714Y-136732142D01*
X104738095Y-136779761D01*
X104642857Y-136827380D01*
X104357142Y-136827380D01*
X104261904Y-136779761D01*
X104214285Y-136732142D01*
X96928571Y-138053571D02*
X97261904Y-138053571D01*
X97404761Y-138577380D02*
X96928571Y-138577380D01*
X96928571Y-137577380D01*
X97404761Y-137577380D01*
X97833333Y-138053571D02*
X98166666Y-138053571D01*
X98309523Y-138577380D02*
X97833333Y-138577380D01*
X97833333Y-137577380D01*
X98309523Y-137577380D01*
X98738095Y-138482142D02*
X98785714Y-138529761D01*
X98738095Y-138577380D01*
X98690476Y-138529761D01*
X98738095Y-138482142D01*
X98738095Y-138577380D01*
X98738095Y-137958333D02*
X98785714Y-138005952D01*
X98738095Y-138053571D01*
X98690476Y-138005952D01*
X98738095Y-137958333D01*
X98738095Y-138053571D01*
X99928571Y-138529761D02*
X100071428Y-138577380D01*
X100309523Y-138577380D01*
X100404761Y-138529761D01*
X100452380Y-138482142D01*
X100500000Y-138386904D01*
X100500000Y-138291666D01*
X100452380Y-138196428D01*
X100404761Y-138148809D01*
X100309523Y-138101190D01*
X100119047Y-138053571D01*
X100023809Y-138005952D01*
X99976190Y-137958333D01*
X99928571Y-137863095D01*
X99928571Y-137767857D01*
X99976190Y-137672619D01*
X100023809Y-137625000D01*
X100119047Y-137577380D01*
X100357142Y-137577380D01*
X100500000Y-137625000D01*
X101357142Y-137910714D02*
X101357142Y-138577380D01*
X100928571Y-137910714D02*
X100928571Y-138434523D01*
X100976190Y-138529761D01*
X101071428Y-138577380D01*
X101214285Y-138577380D01*
X101309523Y-138529761D01*
X101357142Y-138482142D01*
X101833333Y-138577380D02*
X101833333Y-137577380D01*
X101928571Y-138196428D02*
X102214285Y-138577380D01*
X102214285Y-137910714D02*
X101833333Y-138291666D01*
X103071428Y-137910714D02*
X103071428Y-138577380D01*
X102642857Y-137910714D02*
X102642857Y-138434523D01*
X102690476Y-138529761D01*
X102785714Y-138577380D01*
X102928571Y-138577380D01*
X103023809Y-138529761D01*
X103071428Y-138482142D01*
D10*
X58995000Y-118000000D02*
X58995000Y-82000000D01*
X60995000Y-118000000D02*
X58995000Y-118000000D01*
X60995000Y-82000000D02*
X60995000Y-118000000D01*
X58995000Y-82000000D02*
X60995000Y-82000000D01*
X59495000Y-99500000D02*
X60495000Y-100500000D01*
X59495000Y-100500000D02*
X60495000Y-99500000D01*
X60995000Y-120500000D02*
G75*
G03X60995000Y-120500000I-1000000J0D01*
G01*
X60995000Y-79500000D02*
G75*
G03X60995000Y-79500000I-1000000J0D01*
G01*
X55495000Y-122500000D02*
X55495000Y-77500000D01*
X64495000Y-122500000D02*
X55495000Y-122500000D01*
X64495000Y-77500000D02*
X64495000Y-122500000D01*
X55495000Y-77500000D02*
X64495000Y-77500000D01*
X87165000Y-60495000D02*
X86165000Y-59495000D01*
X87165000Y-59495000D02*
X86165000Y-60495000D01*
X81665000Y-57495000D02*
X82665000Y-57495000D01*
X81665000Y-62495000D02*
X82665000Y-62495000D01*
X91665000Y-57495000D02*
X90665000Y-57495000D01*
X91665000Y-62495000D02*
X90665000Y-62495000D01*
X92665000Y-55495000D02*
X92665000Y-64495000D01*
X91165000Y-53995000D02*
X92665000Y-55495000D01*
X82165000Y-53995000D02*
X91165000Y-53995000D01*
X80665000Y-55495000D02*
X82165000Y-53995000D01*
X80665000Y-64495000D02*
X80665000Y-55495000D01*
X82165000Y-65995000D02*
X80665000Y-64495000D01*
X91165000Y-65995000D02*
X82165000Y-65995000D01*
X92665000Y-64495000D02*
X91165000Y-65995000D01*
X139005000Y-118000000D02*
X139005000Y-82000000D01*
X141005000Y-118000000D02*
X139005000Y-118000000D01*
X141005000Y-82000000D02*
X141005000Y-118000000D01*
X139005000Y-82000000D02*
X141005000Y-82000000D01*
X139505000Y-99500000D02*
X140505000Y-100500000D01*
X139505000Y-100500000D02*
X140505000Y-99500000D01*
X141005000Y-120500000D02*
G75*
G03X141005000Y-120500000I-1000000J0D01*
G01*
X141005000Y-79500000D02*
G75*
G03X141005000Y-79500000I-1000000J0D01*
G01*
X135505000Y-122500000D02*
X135505000Y-77500000D01*
X144505000Y-122500000D02*
X135505000Y-122500000D01*
X144505000Y-77500000D02*
X144505000Y-122500000D01*
X135505000Y-77500000D02*
X144505000Y-77500000D01*
X112335000Y-118000000D02*
X112335000Y-82000000D01*
X114335000Y-118000000D02*
X112335000Y-118000000D01*
X114335000Y-82000000D02*
X114335000Y-118000000D01*
X112335000Y-82000000D02*
X114335000Y-82000000D01*
X112835000Y-99500000D02*
X113835000Y-100500000D01*
X112835000Y-100500000D02*
X113835000Y-99500000D01*
X114335000Y-120500000D02*
G75*
G03X114335000Y-120500000I-1000000J0D01*
G01*
X114335000Y-79500000D02*
G75*
G03X114335000Y-79500000I-1000000J0D01*
G01*
X108835000Y-122500000D02*
X108835000Y-77500000D01*
X117835000Y-122500000D02*
X108835000Y-122500000D01*
X117835000Y-77500000D02*
X117835000Y-122500000D01*
X108835000Y-77500000D02*
X117835000Y-77500000D01*
X85665000Y-118000000D02*
X85665000Y-82000000D01*
X87665000Y-118000000D02*
X85665000Y-118000000D01*
X87665000Y-82000000D02*
X87665000Y-118000000D01*
X85665000Y-82000000D02*
X87665000Y-82000000D01*
X86165000Y-99500000D02*
X87165000Y-100500000D01*
X86165000Y-100500000D02*
X87165000Y-99500000D01*
X87665000Y-120500000D02*
G75*
G03X87665000Y-120500000I-1000000J0D01*
G01*
X87665000Y-79500000D02*
G75*
G03X87665000Y-79500000I-1000000J0D01*
G01*
X82165000Y-122500000D02*
X82165000Y-77500000D01*
X91165000Y-122500000D02*
X82165000Y-122500000D01*
X91165000Y-77500000D02*
X91165000Y-122500000D01*
X82165000Y-77500000D02*
X91165000Y-77500000D01*
D13*
X141271000Y-134163000D02*
G75*
G03X141271000Y-134163000I-250000J0D01*
G01*
D10*
X138555000Y-133535000D02*
X141455000Y-133535000D01*
X138555000Y-131235000D02*
X141455000Y-131235000D01*
X141455000Y-132935000D02*
X141455000Y-133535000D01*
D13*
X141271000Y-76378000D02*
G75*
G03X141271000Y-76378000I-250000J0D01*
G01*
D10*
X138555000Y-75750000D02*
X141455000Y-75750000D01*
X138555000Y-73450000D02*
X141455000Y-73450000D01*
X141455000Y-75150000D02*
X141455000Y-75750000D01*
D13*
X141271000Y-54153000D02*
G75*
G03X141271000Y-54153000I-250000J0D01*
G01*
D10*
X138555000Y-53525000D02*
X141455000Y-53525000D01*
X138555000Y-51225000D02*
X141455000Y-51225000D01*
X141455000Y-52925000D02*
X141455000Y-53525000D01*
D13*
X114601000Y-134163000D02*
G75*
G03X114601000Y-134163000I-250000J0D01*
G01*
D10*
X111885000Y-133535000D02*
X114785000Y-133535000D01*
X111885000Y-131235000D02*
X114785000Y-131235000D01*
X114785000Y-132935000D02*
X114785000Y-133535000D01*
D13*
X114601000Y-76378000D02*
G75*
G03X114601000Y-76378000I-250000J0D01*
G01*
D10*
X111885000Y-75750000D02*
X114785000Y-75750000D01*
X111885000Y-73450000D02*
X114785000Y-73450000D01*
X114785000Y-75150000D02*
X114785000Y-75750000D01*
D13*
X114601000Y-54153000D02*
G75*
G03X114601000Y-54153000I-250000J0D01*
G01*
D10*
X111885000Y-53525000D02*
X114785000Y-53525000D01*
X111885000Y-51225000D02*
X114785000Y-51225000D01*
X114785000Y-52925000D02*
X114785000Y-53525000D01*
D13*
X87931000Y-134163000D02*
G75*
G03X87931000Y-134163000I-250000J0D01*
G01*
D10*
X85215000Y-133535000D02*
X88115000Y-133535000D01*
X85215000Y-131235000D02*
X88115000Y-131235000D01*
X88115000Y-132935000D02*
X88115000Y-133535000D01*
D13*
X87931000Y-76378000D02*
G75*
G03X87931000Y-76378000I-250000J0D01*
G01*
D10*
X85215000Y-75750000D02*
X88115000Y-75750000D01*
X85215000Y-73450000D02*
X88115000Y-73450000D01*
X88115000Y-75150000D02*
X88115000Y-75750000D01*
D13*
X87931000Y-54153000D02*
G75*
G03X87931000Y-54153000I-250000J0D01*
G01*
D10*
X85215000Y-53525000D02*
X88115000Y-53525000D01*
X85215000Y-51225000D02*
X88115000Y-51225000D01*
X88115000Y-52925000D02*
X88115000Y-53525000D01*
D13*
X61261000Y-134163000D02*
G75*
G03X61261000Y-134163000I-250000J0D01*
G01*
D10*
X58545000Y-133535000D02*
X61445000Y-133535000D01*
X58545000Y-131235000D02*
X61445000Y-131235000D01*
X61445000Y-132935000D02*
X61445000Y-133535000D01*
D13*
X61261000Y-76378000D02*
G75*
G03X61261000Y-76378000I-250000J0D01*
G01*
D10*
X58545000Y-75750000D02*
X61445000Y-75750000D01*
X58545000Y-73450000D02*
X61445000Y-73450000D01*
X61445000Y-75150000D02*
X61445000Y-75750000D01*
D13*
X61261000Y-54153000D02*
G75*
G03X61261000Y-54153000I-250000J0D01*
G01*
D10*
X58545000Y-53525000D02*
X61445000Y-53525000D01*
X58545000Y-51225000D02*
X61445000Y-51225000D01*
X61445000Y-52925000D02*
X61445000Y-53525000D01*
X50000000Y-150000000D02*
X50000000Y-50000000D01*
X150000000Y-150000000D02*
X50000000Y-150000000D01*
X150000000Y-50000000D02*
X150000000Y-150000000D01*
X50000000Y-50000000D02*
X150000000Y-50000000D01*
X104750000Y-48000000D02*
X95250000Y-48000000D01*
X95250000Y-50000000D02*
X95250000Y-48000000D01*
X104750000Y-50000000D02*
X104750000Y-48000000D01*
X104750000Y-57870000D02*
X103250000Y-57870000D01*
X104750000Y-57870000D02*
X104750000Y-52000000D01*
X95250000Y-57870000D02*
X95250000Y-52000000D01*
X96750000Y-57870000D02*
X95250000Y-57870000D01*
X121670000Y-99500000D02*
G75*
G02X121670000Y-100500000I0J-500000D01*
G01*
X131730000Y-100000000D02*
X131730000Y-98050000D01*
X131730000Y-100000000D02*
X131730000Y-101950000D01*
X121610000Y-100000000D02*
X121610000Y-98050000D01*
X121610000Y-100000000D02*
X121610000Y-103450000D01*
D13*
X120420000Y-103000000D02*
G75*
G03X120420000Y-103000000I-250000J0D01*
G01*
D10*
X68330000Y-99500000D02*
G75*
G02X68330000Y-100500000I0J-500000D01*
G01*
X78390000Y-100000000D02*
X78390000Y-98050000D01*
X78390000Y-100000000D02*
X78390000Y-101950000D01*
X68270000Y-100000000D02*
X68270000Y-98050000D01*
X68270000Y-100000000D02*
X68270000Y-103450000D01*
D13*
X67080000Y-103000000D02*
G75*
G03X67080000Y-103000000I-250000J0D01*
G01*
D10*
X106000000Y-105000000D02*
G75*
G03X106000000Y-105000000I-1000000J0D01*
G01*
D14*
G36*
X90000000Y-93500000D02*
G01*
X91000000Y-94000000D01*
X90000000Y-94500000D01*
X90000000Y-93500000D01*
G37*
X90000000Y-93500000D02*
X91000000Y-94000000D01*
X90000000Y-94500000D01*
X90000000Y-93500000D01*
D13*
X94750000Y-94500000D02*
G75*
G03X94750000Y-94500000I-250000J0D01*
G01*
X92250000Y-92000000D02*
G75*
G03X92250000Y-92000000I-250000J0D01*
G01*
D10*
X92890000Y-93590000D02*
X91600000Y-93590000D01*
X107110000Y-107110000D02*
X107110000Y-106410000D01*
X106410000Y-107110000D02*
X107110000Y-107110000D01*
X92890000Y-107110000D02*
X92890000Y-106410000D01*
X93590000Y-107110000D02*
X92890000Y-107110000D01*
X107110000Y-92890000D02*
X107110000Y-93590000D01*
X106410000Y-92890000D02*
X107110000Y-92890000D01*
X92890000Y-92890000D02*
X92890000Y-93590000D01*
X93590000Y-92890000D02*
X92890000Y-92890000D01*
X139300000Y-102700000D02*
X139300000Y-101300000D01*
X140700000Y-102700000D02*
X139300000Y-102700000D01*
X140700000Y-101300000D02*
X140700000Y-102700000D01*
X139300000Y-101300000D02*
X140700000Y-101300000D01*
X59300000Y-102700000D02*
X59300000Y-101300000D01*
X60700000Y-102700000D02*
X59300000Y-102700000D01*
X60700000Y-101300000D02*
X60700000Y-102700000D01*
X59300000Y-101300000D02*
X60700000Y-101300000D01*
X139300000Y-98700000D02*
X139300000Y-97300000D01*
X140700000Y-98700000D02*
X139300000Y-98700000D01*
X140700000Y-97300000D02*
X140700000Y-98700000D01*
X139300000Y-97300000D02*
X140700000Y-97300000D01*
X59300000Y-98700000D02*
X59300000Y-97300000D01*
X60700000Y-98700000D02*
X59300000Y-98700000D01*
X60700000Y-97300000D02*
X60700000Y-98700000D01*
X59300000Y-97300000D02*
X60700000Y-97300000D01*
X119670000Y-149490000D02*
X119670000Y-146490000D01*
X133670000Y-149490000D02*
X119670000Y-149490000D01*
X133670000Y-146490000D02*
X133670000Y-149490000D01*
X57495000Y-141505000D02*
X62495000Y-141505000D01*
X59495000Y-139505000D02*
X60495000Y-140505000D01*
X59495000Y-140505000D02*
X60495000Y-139505000D01*
X62995000Y-140005000D02*
G75*
G03X62995000Y-140005000I-3000000J0D01*
G01*
X56995000Y-146005000D02*
G75*
G02X55995000Y-145005000I0J1000000D01*
G01*
X63995000Y-145005000D02*
G75*
G02X62995000Y-146005000I-1000000J0D01*
G01*
X62995000Y-134005000D02*
G75*
G02X63995000Y-135005000I0J-1000000D01*
G01*
X55995000Y-135005000D02*
G75*
G02X56995000Y-134005000I1000000J0D01*
G01*
X63995000Y-138005000D02*
X63995000Y-135005000D01*
X63995000Y-145005000D02*
X63995000Y-142005000D01*
X56995000Y-146005000D02*
X62995000Y-146005000D01*
X55995000Y-142005000D02*
X55995000Y-145005000D01*
X55995000Y-135005000D02*
X55995000Y-138005000D01*
X56995000Y-134005000D02*
X62995000Y-134005000D01*
X66330000Y-149490000D02*
X66330000Y-146490000D01*
X80330000Y-149490000D02*
X66330000Y-149490000D01*
X80330000Y-146490000D02*
X80330000Y-149490000D01*
X140505000Y-140505000D02*
X139505000Y-139505000D01*
X140505000Y-139505000D02*
X139505000Y-140505000D01*
X135005000Y-137505000D02*
X136005000Y-137505000D01*
X135005000Y-142505000D02*
X136005000Y-142505000D01*
X145005000Y-137505000D02*
X144005000Y-137505000D01*
X145005000Y-142505000D02*
X144005000Y-142505000D01*
X146005000Y-135505000D02*
X146005000Y-144505000D01*
X144505000Y-134005000D02*
X146005000Y-135505000D01*
X135505000Y-134005000D02*
X144505000Y-134005000D01*
X134005000Y-135505000D02*
X135505000Y-134005000D01*
X134005000Y-144505000D02*
X134005000Y-135505000D01*
X135505000Y-146005000D02*
X134005000Y-144505000D01*
X144505000Y-146005000D02*
X135505000Y-146005000D01*
X146005000Y-144505000D02*
X144505000Y-146005000D01*
X140505000Y-60495000D02*
X139505000Y-59495000D01*
X140505000Y-59495000D02*
X139505000Y-60495000D01*
X135005000Y-57495000D02*
X136005000Y-57495000D01*
X135005000Y-62495000D02*
X136005000Y-62495000D01*
X145005000Y-57495000D02*
X144005000Y-57495000D01*
X145005000Y-62495000D02*
X144005000Y-62495000D01*
X146005000Y-55495000D02*
X146005000Y-64495000D01*
X144505000Y-53995000D02*
X146005000Y-55495000D01*
X135505000Y-53995000D02*
X144505000Y-53995000D01*
X134005000Y-55495000D02*
X135505000Y-53995000D01*
X134005000Y-64495000D02*
X134005000Y-55495000D01*
X135505000Y-65995000D02*
X134005000Y-64495000D01*
X144505000Y-65995000D02*
X135505000Y-65995000D01*
X146005000Y-64495000D02*
X144505000Y-65995000D01*
X113835000Y-140505000D02*
X112835000Y-139505000D01*
X113835000Y-139505000D02*
X112835000Y-140505000D01*
X108335000Y-137505000D02*
X109335000Y-137505000D01*
X108335000Y-142505000D02*
X109335000Y-142505000D01*
X118335000Y-137505000D02*
X117335000Y-137505000D01*
X118335000Y-142505000D02*
X117335000Y-142505000D01*
X119335000Y-135505000D02*
X119335000Y-144505000D01*
X117835000Y-134005000D02*
X119335000Y-135505000D01*
X108835000Y-134005000D02*
X117835000Y-134005000D01*
X107335000Y-135505000D02*
X108835000Y-134005000D01*
X107335000Y-144505000D02*
X107335000Y-135505000D01*
X108835000Y-146005000D02*
X107335000Y-144505000D01*
X117835000Y-146005000D02*
X108835000Y-146005000D01*
X119335000Y-144505000D02*
X117835000Y-146005000D01*
X113835000Y-60495000D02*
X112835000Y-59495000D01*
X113835000Y-59495000D02*
X112835000Y-60495000D01*
X108335000Y-57495000D02*
X109335000Y-57495000D01*
X108335000Y-62495000D02*
X109335000Y-62495000D01*
X118335000Y-57495000D02*
X117335000Y-57495000D01*
X118335000Y-62495000D02*
X117335000Y-62495000D01*
X119335000Y-55495000D02*
X119335000Y-64495000D01*
X117835000Y-53995000D02*
X119335000Y-55495000D01*
X108835000Y-53995000D02*
X117835000Y-53995000D01*
X107335000Y-55495000D02*
X108835000Y-53995000D01*
X107335000Y-64495000D02*
X107335000Y-55495000D01*
X108835000Y-65995000D02*
X107335000Y-64495000D01*
X117835000Y-65995000D02*
X108835000Y-65995000D01*
X119335000Y-64495000D02*
X117835000Y-65995000D01*
X87165000Y-140505000D02*
X86165000Y-139505000D01*
X87165000Y-139505000D02*
X86165000Y-140505000D01*
X81665000Y-137505000D02*
X82665000Y-137505000D01*
X81665000Y-142505000D02*
X82665000Y-142505000D01*
X91665000Y-137505000D02*
X90665000Y-137505000D01*
X91665000Y-142505000D02*
X90665000Y-142505000D01*
X92665000Y-135505000D02*
X92665000Y-144505000D01*
X91165000Y-134005000D02*
X92665000Y-135505000D01*
X82165000Y-134005000D02*
X91165000Y-134005000D01*
X80665000Y-135505000D02*
X82165000Y-134005000D01*
X80665000Y-144505000D02*
X80665000Y-135505000D01*
X82165000Y-146005000D02*
X80665000Y-144505000D01*
X91165000Y-146005000D02*
X82165000Y-146005000D01*
X92665000Y-144505000D02*
X91165000Y-146005000D01*
X60495000Y-140505000D02*
X59495000Y-139505000D01*
X60495000Y-139505000D02*
X59495000Y-140505000D01*
X54995000Y-137505000D02*
X55995000Y-137505000D01*
X54995000Y-142505000D02*
X55995000Y-142505000D01*
X64995000Y-137505000D02*
X63995000Y-137505000D01*
X64995000Y-142505000D02*
X63995000Y-142505000D01*
X65995000Y-135505000D02*
X65995000Y-144505000D01*
X64495000Y-134005000D02*
X65995000Y-135505000D01*
X55495000Y-134005000D02*
X64495000Y-134005000D01*
X53995000Y-135505000D02*
X55495000Y-134005000D01*
X53995000Y-144505000D02*
X53995000Y-135505000D01*
X55495000Y-146005000D02*
X53995000Y-144505000D01*
X64495000Y-146005000D02*
X55495000Y-146005000D01*
X65995000Y-144505000D02*
X64495000Y-146005000D01*
X60495000Y-60495000D02*
X59495000Y-59495000D01*
X60495000Y-59495000D02*
X59495000Y-60495000D01*
X54995000Y-57495000D02*
X55995000Y-57495000D01*
X54995000Y-62495000D02*
X55995000Y-62495000D01*
X64995000Y-57495000D02*
X63995000Y-57495000D01*
X64995000Y-62495000D02*
X63995000Y-62495000D01*
X65995000Y-55495000D02*
X65995000Y-64495000D01*
X64495000Y-53995000D02*
X65995000Y-55495000D01*
X55495000Y-53995000D02*
X64495000Y-53995000D01*
X53995000Y-55495000D02*
X55495000Y-53995000D01*
X53995000Y-64495000D02*
X53995000Y-55495000D01*
X55495000Y-65995000D02*
X53995000Y-64495000D01*
X64495000Y-65995000D02*
X55495000Y-65995000D01*
X65995000Y-64495000D02*
X64495000Y-65995000D01*
X137505000Y-141505000D02*
X142505000Y-141505000D01*
X139505000Y-139505000D02*
X140505000Y-140505000D01*
X139505000Y-140505000D02*
X140505000Y-139505000D01*
X143005000Y-140005000D02*
G75*
G03X143005000Y-140005000I-3000000J0D01*
G01*
X137005000Y-146005000D02*
G75*
G02X136005000Y-145005000I0J1000000D01*
G01*
X144005000Y-145005000D02*
G75*
G02X143005000Y-146005000I-1000000J0D01*
G01*
X143005000Y-134005000D02*
G75*
G02X144005000Y-135005000I0J-1000000D01*
G01*
X136005000Y-135005000D02*
G75*
G02X137005000Y-134005000I1000000J0D01*
G01*
X144005000Y-138005000D02*
X144005000Y-135005000D01*
X144005000Y-145005000D02*
X144005000Y-142005000D01*
X137005000Y-146005000D02*
X143005000Y-146005000D01*
X136005000Y-142005000D02*
X136005000Y-145005000D01*
X136005000Y-135005000D02*
X136005000Y-138005000D01*
X137005000Y-134005000D02*
X143005000Y-134005000D01*
X137505000Y-61495000D02*
X142505000Y-61495000D01*
X139505000Y-59495000D02*
X140505000Y-60495000D01*
X139505000Y-60495000D02*
X140505000Y-59495000D01*
X143005000Y-59995000D02*
G75*
G03X143005000Y-59995000I-3000000J0D01*
G01*
X137005000Y-65995000D02*
G75*
G02X136005000Y-64995000I0J1000000D01*
G01*
X144005000Y-64995000D02*
G75*
G02X143005000Y-65995000I-1000000J0D01*
G01*
X143005000Y-53995000D02*
G75*
G02X144005000Y-54995000I0J-1000000D01*
G01*
X136005000Y-54995000D02*
G75*
G02X137005000Y-53995000I1000000J0D01*
G01*
X144005000Y-57995000D02*
X144005000Y-54995000D01*
X144005000Y-64995000D02*
X144005000Y-61995000D01*
X137005000Y-65995000D02*
X143005000Y-65995000D01*
X136005000Y-61995000D02*
X136005000Y-64995000D01*
X136005000Y-54995000D02*
X136005000Y-57995000D01*
X137005000Y-53995000D02*
X143005000Y-53995000D01*
X110835000Y-141505000D02*
X115835000Y-141505000D01*
X112835000Y-139505000D02*
X113835000Y-140505000D01*
X112835000Y-140505000D02*
X113835000Y-139505000D01*
X116335000Y-140005000D02*
G75*
G03X116335000Y-140005000I-3000000J0D01*
G01*
X110335000Y-146005000D02*
G75*
G02X109335000Y-145005000I0J1000000D01*
G01*
X117335000Y-145005000D02*
G75*
G02X116335000Y-146005000I-1000000J0D01*
G01*
X116335000Y-134005000D02*
G75*
G02X117335000Y-135005000I0J-1000000D01*
G01*
X109335000Y-135005000D02*
G75*
G02X110335000Y-134005000I1000000J0D01*
G01*
X117335000Y-138005000D02*
X117335000Y-135005000D01*
X117335000Y-145005000D02*
X117335000Y-142005000D01*
X110335000Y-146005000D02*
X116335000Y-146005000D01*
X109335000Y-142005000D02*
X109335000Y-145005000D01*
X109335000Y-135005000D02*
X109335000Y-138005000D01*
X110335000Y-134005000D02*
X116335000Y-134005000D01*
X110835000Y-61495000D02*
X115835000Y-61495000D01*
X112835000Y-59495000D02*
X113835000Y-60495000D01*
X112835000Y-60495000D02*
X113835000Y-59495000D01*
X116335000Y-59995000D02*
G75*
G03X116335000Y-59995000I-3000000J0D01*
G01*
X110335000Y-65995000D02*
G75*
G02X109335000Y-64995000I0J1000000D01*
G01*
X117335000Y-64995000D02*
G75*
G02X116335000Y-65995000I-1000000J0D01*
G01*
X116335000Y-53995000D02*
G75*
G02X117335000Y-54995000I0J-1000000D01*
G01*
X109335000Y-54995000D02*
G75*
G02X110335000Y-53995000I1000000J0D01*
G01*
X117335000Y-57995000D02*
X117335000Y-54995000D01*
X117335000Y-64995000D02*
X117335000Y-61995000D01*
X110335000Y-65995000D02*
X116335000Y-65995000D01*
X109335000Y-61995000D02*
X109335000Y-64995000D01*
X109335000Y-54995000D02*
X109335000Y-57995000D01*
X110335000Y-53995000D02*
X116335000Y-53995000D01*
X84165000Y-141505000D02*
X89165000Y-141505000D01*
X86165000Y-139505000D02*
X87165000Y-140505000D01*
X86165000Y-140505000D02*
X87165000Y-139505000D01*
X89665000Y-140005000D02*
G75*
G03X89665000Y-140005000I-3000000J0D01*
G01*
X83665000Y-146005000D02*
G75*
G02X82665000Y-145005000I0J1000000D01*
G01*
X90665000Y-145005000D02*
G75*
G02X89665000Y-146005000I-1000000J0D01*
G01*
X89665000Y-134005000D02*
G75*
G02X90665000Y-135005000I0J-1000000D01*
G01*
X82665000Y-135005000D02*
G75*
G02X83665000Y-134005000I1000000J0D01*
G01*
X90665000Y-138005000D02*
X90665000Y-135005000D01*
X90665000Y-145005000D02*
X90665000Y-142005000D01*
X83665000Y-146005000D02*
X89665000Y-146005000D01*
X82665000Y-142005000D02*
X82665000Y-145005000D01*
X82665000Y-135005000D02*
X82665000Y-138005000D01*
X83665000Y-134005000D02*
X89665000Y-134005000D01*
X84165000Y-61495000D02*
X89165000Y-61495000D01*
X86165000Y-59495000D02*
X87165000Y-60495000D01*
X86165000Y-60495000D02*
X87165000Y-59495000D01*
X89665000Y-59995000D02*
G75*
G03X89665000Y-59995000I-3000000J0D01*
G01*
X83665000Y-65995000D02*
G75*
G02X82665000Y-64995000I0J1000000D01*
G01*
X90665000Y-64995000D02*
G75*
G02X89665000Y-65995000I-1000000J0D01*
G01*
X89665000Y-53995000D02*
G75*
G02X90665000Y-54995000I0J-1000000D01*
G01*
X82665000Y-54995000D02*
G75*
G02X83665000Y-53995000I1000000J0D01*
G01*
X90665000Y-57995000D02*
X90665000Y-54995000D01*
X90665000Y-64995000D02*
X90665000Y-61995000D01*
X83665000Y-65995000D02*
X89665000Y-65995000D01*
X82665000Y-61995000D02*
X82665000Y-64995000D01*
X82665000Y-54995000D02*
X82665000Y-57995000D01*
X83665000Y-53995000D02*
X89665000Y-53995000D01*
X57495000Y-61495000D02*
X62495000Y-61495000D01*
X59495000Y-59495000D02*
X60495000Y-60495000D01*
X59495000Y-60495000D02*
X60495000Y-59495000D01*
X62995000Y-59995000D02*
G75*
G03X62995000Y-59995000I-3000000J0D01*
G01*
X56995000Y-65995000D02*
G75*
G02X55995000Y-64995000I0J1000000D01*
G01*
X63995000Y-64995000D02*
G75*
G02X62995000Y-65995000I-1000000J0D01*
G01*
X62995000Y-53995000D02*
G75*
G02X63995000Y-54995000I0J-1000000D01*
G01*
X55995000Y-54995000D02*
G75*
G02X56995000Y-53995000I1000000J0D01*
G01*
X63995000Y-57995000D02*
X63995000Y-54995000D01*
X63995000Y-64995000D02*
X63995000Y-61995000D01*
X56995000Y-65995000D02*
X62995000Y-65995000D01*
X55995000Y-61995000D02*
X55995000Y-64995000D01*
X55995000Y-54995000D02*
X55995000Y-57995000D01*
X56995000Y-53995000D02*
X62995000Y-53995000D01*
X149490000Y-133670000D02*
X146490000Y-133670000D01*
X149490000Y-119670000D02*
X149490000Y-133670000D01*
X146490000Y-119670000D02*
X149490000Y-119670000D01*
X149490000Y-80330000D02*
X146490000Y-80330000D01*
X149490000Y-66330000D02*
X149490000Y-80330000D01*
X146490000Y-66330000D02*
X149490000Y-66330000D01*
X133670000Y-50510000D02*
X133670000Y-53510000D01*
X119670000Y-50510000D02*
X133670000Y-50510000D01*
X119670000Y-53510000D02*
X119670000Y-50510000D01*
X80330000Y-50510000D02*
X80330000Y-53510000D01*
X66330000Y-50510000D02*
X80330000Y-50510000D01*
X66330000Y-53510000D02*
X66330000Y-50510000D01*
X50510000Y-119670000D02*
X53510000Y-119670000D01*
X50510000Y-133670000D02*
X50510000Y-119670000D01*
X53510000Y-133670000D02*
X50510000Y-133670000D01*
X50510000Y-66330000D02*
X53510000Y-66330000D01*
X50510000Y-80330000D02*
X50510000Y-66330000D01*
X53510000Y-80330000D02*
X50510000Y-80330000D01*
X103300000Y-73470000D02*
X103300000Y-74600000D01*
X102540000Y-73470000D02*
X103300000Y-73470000D01*
X103235000Y-76177530D02*
X103235000Y-77000000D01*
X103235000Y-75360000D02*
X103235000Y-75562470D01*
X103103471Y-75360000D02*
X103235000Y-75360000D01*
X101833471Y-75360000D02*
X101976529Y-75360000D01*
X101780000Y-75163471D02*
X101780000Y-75306529D01*
X101780000Y-73470000D02*
X101780000Y-74036529D01*
X103235000Y-77000000D02*
X96765000Y-77000000D01*
X101780000Y-73470000D02*
X96765000Y-73470000D01*
X96765000Y-74907530D02*
X96765000Y-75562470D01*
X96765000Y-76177530D02*
X96765000Y-77000000D01*
X96765000Y-73470000D02*
X96765000Y-74292470D01*
X96130000Y-68310000D02*
X96130000Y-66980000D01*
X97460000Y-68310000D02*
X96130000Y-68310000D01*
X98730000Y-68310000D02*
X98730000Y-65650000D01*
X98730000Y-65650000D02*
X103870000Y-65650000D01*
X98730000Y-68310000D02*
X103870000Y-68310000D01*
X103870000Y-68310000D02*
X103870000Y-65650000D01*
M02*
