G04 #@! TF.GenerationSoftware,KiCad,Pcbnew,(5.1.2)-2*
G04 #@! TF.CreationDate,2020-03-23T14:04:03+01:00*
G04 #@! TF.ProjectId,PBF4,50424634-2e6b-4696-9361-645f70636258,rev?*
G04 #@! TF.SameCoordinates,Original*
G04 #@! TF.FileFunction,Profile,NP*
%FSLAX46Y46*%
G04 Gerber Fmt 4.6, Leading zero omitted, Abs format (unit mm)*
G04 Created by KiCad (PCBNEW (5.1.2)-2) date 2020-03-23 14:04:03*
%MOMM*%
%LPD*%
G04 APERTURE LIST*
%ADD10C,0.050000*%
G04 APERTURE END LIST*
D10*
X95000000Y-149500000D02*
X94500000Y-150000000D01*
X105000000Y-149500000D02*
X105500000Y-150000000D01*
X104500000Y-148000000D02*
X105000000Y-148500000D01*
X95000000Y-148500000D02*
X95500000Y-148000000D01*
X50000000Y-144000000D02*
X50000000Y-56000000D01*
X51500000Y-145500000D02*
X50000000Y-144000000D01*
X51500000Y-147500000D02*
X51500000Y-145500000D01*
X52500000Y-148500000D02*
X51500000Y-147500000D01*
X54500000Y-148500000D02*
X52500000Y-148500000D01*
X56000000Y-150000000D02*
X54500000Y-148500000D01*
X94500000Y-150000000D02*
X56000000Y-150000000D01*
X95000000Y-148500000D02*
X95000000Y-149500000D01*
X104500000Y-148000000D02*
X95500000Y-148000000D01*
X105000000Y-149500000D02*
X105000000Y-148500000D01*
X144000000Y-150000000D02*
X105500000Y-150000000D01*
X145500000Y-148500000D02*
X144000000Y-150000000D01*
X147500000Y-148500000D02*
X145500000Y-148500000D01*
X148500000Y-147500000D02*
X147500000Y-148500000D01*
X148500000Y-145500000D02*
X148500000Y-147500000D01*
X150000000Y-144000000D02*
X148500000Y-145500000D01*
X150000000Y-56000000D02*
X150000000Y-144000000D01*
X148500000Y-54500000D02*
X150000000Y-56000000D01*
X148500000Y-52500000D02*
X148500000Y-54500000D01*
X147500000Y-51500000D02*
X148500000Y-52500000D01*
X145500000Y-51500000D02*
X147500000Y-51500000D01*
X144000000Y-50000000D02*
X145500000Y-51500000D01*
X56000000Y-50000000D02*
X144000000Y-50000000D01*
X54500000Y-51500000D02*
X56000000Y-50000000D01*
X52500000Y-51500000D02*
X54500000Y-51500000D01*
X51500000Y-52500000D02*
X52500000Y-51500000D01*
X51500000Y-54500000D02*
X51500000Y-52500000D01*
X50000000Y-56000000D02*
X51500000Y-54500000D01*
M02*
