M48
; DRILL file {KiCad (5.1.2)-2} date 3/23/2020 2:04:05 PM
; FORMAT={-:-/ absolute / inch / decimal}
; #@! TF.CreationDate,2020-03-23T14:04:05+01:00
; #@! TF.GenerationSoftware,Kicad,Pcbnew,(5.1.2)-2
FMAT,2
INCH
T1C0.0118
T2C0.0157
T3C0.0197
T4C0.0236
T5C0.0256
T6C0.0295
T7C0.0394
T8C0.0472
T9C0.0512
T10C0.0591
T11C0.0709
T12C0.0866
T13C0.0256
%
G90
G05
T1
X2.0276Y-3.937
X2.0276Y-4.0157
X2.1063Y-3.8583
X2.112Y-5.7156
X2.212Y-5.687
X2.262Y-2.937
X2.262Y-5.212
X2.3251Y-2.362
X2.3251Y-5.512
X2.3325Y-2.0404
X2.3325Y-2.0837
X2.3325Y-2.9587
X2.3325Y-5.2337
X2.3915Y-2.9154
X2.3915Y-5.1904
X2.462Y-2.0251
X2.462Y-2.0989
X2.462Y-2.937
X2.462Y-5.212
X2.537Y-2.062
X2.612Y-3.837
X2.612Y-4.037
X2.712Y-3.8396
X2.737Y-3.5001
X2.737Y-3.6501
X2.737Y-3.7239
X2.737Y-4.1501
X2.737Y-4.2239
X2.737Y-4.3739
X2.812Y-4.0344
X2.837Y-3.5001
X2.837Y-3.6501
X2.837Y-3.7239
X2.837Y-4.1501
X2.837Y-4.2239
X2.837Y-4.3739
X2.937Y-3.5001
X2.937Y-3.6501
X2.937Y-3.7239
X2.937Y-4.1501
X2.937Y-4.2239
X2.937Y-4.3739
X2.962Y-3.8396
X2.962Y-4.0344
X3.012Y-3.8396
X3.012Y-4.0344
X3.037Y-3.5001
X3.037Y-3.6501
X3.037Y-3.7239
X3.037Y-4.1501
X3.037Y-4.2239
X3.037Y-4.3739
X3.062Y-3.8396
X3.062Y-4.0344
X3.237Y-2.062
X3.312Y-2.937
X3.312Y-5.212
X3.3751Y-2.362
X3.3751Y-5.512
X3.3825Y-2.0837
X3.3825Y-2.9587
X3.3825Y-5.2337
X3.4415Y-2.0404
X3.4415Y-2.9154
X3.4415Y-5.1904
X3.512Y-2.0989
X3.512Y-2.937
X3.512Y-4.037
X3.512Y-5.212
X3.537Y-3.912
X3.562Y-2.062
X3.7008Y-3.7402
X3.7008Y-3.937
X3.7008Y-4.0945
X3.7008Y-4.4291
X3.7574Y-3.8583
X3.7574Y-4.0157
X3.7574Y-4.1732
X3.762Y-4.537
X3.7795Y-2.3228
X3.7795Y-2.2835
X3.7992Y-3.7795
X3.7992Y-3.7008
X3.8189Y-4.437
X3.8189Y-5.5315
X3.8214Y-3.8583
X3.837Y-4.762
X3.837Y-4.862
X3.837Y-4.912
X3.837Y-4.962
X3.837Y-5.012
X3.8421Y-5.062
X3.8421Y-5.112
X3.8583Y-3.9331
X3.8585Y-4.387
X3.862Y-3.362
X3.862Y-4.437
X3.8701Y-5.712
X3.8952Y-4.0945
X3.8952Y-4.1732
X3.8989Y-3.087
X3.8996Y-2.3583
X3.9001Y-4.637
X3.912Y-3.412
X3.912Y-4.437
X3.912Y-4.487
X3.9156Y-4.387
X3.937Y-3.487
X3.962Y-3.362
X3.9739Y-4.637
X3.9744Y-2.3583
X3.9751Y-3.087
X3.9788Y-3.7008
X3.9788Y-3.7795
X3.9788Y-4.0945
X3.9788Y-4.1732
X4.0039Y-5.712
X4.0354Y-4.626
X4.037Y-4.812
X4.037Y-4.862
X4.037Y-4.912
X4.037Y-4.962
X4.037Y-5.012
X4.037Y-5.062
X4.0527Y-3.7008
X4.0527Y-3.8583
X4.0551Y-3.9331
X4.0571Y-4.337
X4.062Y-2.437
X4.062Y-2.3647
X4.0748Y-5.6693
X4.0748Y-5.748
X4.0787Y-4.537
X4.0945Y-2.2835
X4.0945Y-2.3228
X4.1142Y-4.3307
X4.1166Y-3.7008
X4.1166Y-3.7795
X4.1166Y-3.8583
X4.1166Y-4.0157
X4.1166Y-4.1732
X4.137Y-5.1239
X4.1732Y-3.7795
X4.1732Y-3.8583
X4.1732Y-4.0157
X4.1732Y-4.0945
X4.317Y-2.062
X4.362Y-2.0251
X4.362Y-2.937
X4.362Y-5.212
X4.3898Y-3.878
X4.3898Y-3.9173
X4.3898Y-3.9567
X4.4251Y-2.362
X4.4251Y-5.512
X4.4325Y-2.0837
X4.4325Y-2.9587
X4.4325Y-5.2337
X4.4915Y-2.0404
X4.4915Y-2.9154
X4.4915Y-5.1904
X4.562Y-2.112
X4.562Y-2.937
X4.562Y-5.212
X4.812Y-3.8396
X4.837Y-3.5001
X4.837Y-3.6501
X4.837Y-3.7239
X4.837Y-4.1501
X4.837Y-4.2239
X4.837Y-4.3739
X4.912Y-4.0344
X4.937Y-3.5001
X4.937Y-3.6501
X4.937Y-3.7239
X4.937Y-4.1501
X4.937Y-4.2239
X4.937Y-4.3739
X5.037Y-3.5001
X5.037Y-3.6501
X5.037Y-3.7239
X5.037Y-4.1501
X5.037Y-4.2239
X5.037Y-4.3739
X5.062Y-3.8396
X5.062Y-4.0344
X5.112Y-3.8396
X5.112Y-4.0344
X5.137Y-3.5001
X5.137Y-3.6501
X5.137Y-3.7239
X5.137Y-4.1501
X5.137Y-4.2239
X5.137Y-4.3739
X5.162Y-3.8396
X5.162Y-4.0344
X5.262Y-3.862
X5.262Y-4.012
X5.337Y-2.062
X5.412Y-2.0251
X5.412Y-2.0989
X5.412Y-2.937
X5.412Y-5.212
X5.4751Y-2.362
X5.4751Y-5.512
X5.4825Y-2.9587
X5.4825Y-5.2337
X5.5415Y-2.0404
X5.5415Y-2.9154
X5.5415Y-5.1904
X5.612Y-2.062
X5.612Y-2.937
X5.7087Y-5.8071
X5.7087Y-5.689
X5.7283Y-3.9961
X5.7874Y-3.937
X5.8268Y-3.937
X5.8661Y-3.9764
T2
X3.8268Y-2.213
X3.8425Y-2.1854
X3.874Y-2.1854
X3.8898Y-2.213
X3.9055Y-2.1854
X3.9213Y-2.213
X3.9528Y-2.213
X3.9685Y-2.1854
X3.9843Y-2.213
X4.0Y-2.1854
X4.0315Y-2.1854
X4.0472Y-2.213
T3
X5.5118Y-3.8583
X2.3622Y-4.0157
X5.5118Y-4.0157
X2.3622Y-3.8583
T5
X3.837Y-2.937
X3.837Y-2.987
X3.887Y-2.937
X3.887Y-2.987
X3.937Y-2.937
X3.937Y-2.987
X3.987Y-2.937
X3.987Y-2.987
X4.037Y-2.937
X4.037Y-2.987
T6
X3.8524Y-5.7677
X4.0217Y-5.7677
T7
X2.6705Y-2.1067
X3.1035Y-2.1067
X2.262Y-5.7876
X2.362Y-5.7876
X2.462Y-5.7876
X2.6705Y-5.7673
X3.1035Y-5.7673
X5.412Y-5.7876
X5.512Y-5.7876
X5.612Y-5.7876
X4.362Y-2.6376
X4.462Y-2.6376
X4.562Y-2.6376
X4.7705Y-2.1067
X5.2035Y-2.1067
X2.262Y-2.6376
X2.362Y-2.6376
X2.462Y-2.6376
X4.7705Y-5.7673
X5.2035Y-5.7673
X2.1067Y-2.6705
X2.1067Y-3.1035
X3.837Y-2.637
X3.937Y-2.637
X4.037Y-2.637
X4.362Y-5.7876
X4.462Y-5.7876
X4.562Y-5.7876
X5.7673Y-2.6705
X5.7673Y-3.1035
X3.312Y-2.6376
X3.412Y-2.6376
X3.512Y-2.6376
X2.1067Y-4.7705
X2.1067Y-5.2035
X5.412Y-2.6376
X5.512Y-2.6376
X5.612Y-2.6376
X5.7673Y-4.7705
X5.7673Y-5.2035
X3.312Y-5.7876
X3.412Y-5.7876
X3.512Y-5.7876
T8
X3.1659Y-5.4136
X3.1659Y-5.6104
X3.6581Y-5.4136
X3.6581Y-5.6104
X4.2159Y-5.4136
X4.2159Y-5.6104
X4.7081Y-5.4136
X4.7081Y-5.6104
X3.1659Y-2.2636
X3.1659Y-2.4604
X3.6581Y-2.2636
X3.6581Y-2.4604
X2.1159Y-2.2636
X2.1159Y-2.4604
X2.6081Y-2.2636
X2.6081Y-2.4604
X5.2659Y-2.2636
X5.2659Y-2.4604
X5.7581Y-2.2636
X5.7581Y-2.4604
X2.1159Y-5.4136
X2.1159Y-5.6104
X2.6081Y-5.4136
X2.6081Y-5.6104
X5.2659Y-5.4136
X5.2659Y-5.6104
X5.7581Y-5.4136
X5.7581Y-5.6104
X4.2159Y-2.2636
X4.2159Y-2.4604
X4.7081Y-2.2636
X4.7081Y-2.4604
T9
X4.3931Y-3.0748
X4.5309Y-3.0748
X4.5309Y-4.7992
X5.4431Y-3.0748
X5.5809Y-3.0748
X5.5809Y-4.7992
X2.2931Y-3.0748
X2.4309Y-3.0748
X2.4309Y-4.7992
X3.3431Y-3.0748
X3.4809Y-3.0748
X3.4809Y-4.7992
T10
X2.0866Y-2.0866
X2.0866Y-5.7874
X2.887Y-2.887
X2.887Y-4.987
X4.987Y-2.887
X4.987Y-4.987
X5.7874Y-2.0866
X5.7874Y-5.7874
T11
X2.362Y-2.1848
X2.362Y-2.5392
X5.512Y-2.1848
X5.512Y-2.5392
X2.362Y-5.3348
X2.362Y-5.6892
X5.512Y-5.3348
X5.512Y-5.6892
X4.462Y-2.1848
X4.462Y-2.5392
X3.412Y-5.3348
X3.412Y-5.6892
X4.462Y-5.3348
X4.462Y-5.6892
X3.412Y-2.1848
X3.412Y-2.5392
T12
X5.3348Y-5.512
X5.6892Y-5.512
X4.2848Y-2.362
X4.6392Y-2.362
X2.1848Y-2.362
X2.5392Y-2.362
X4.2848Y-5.512
X4.6392Y-5.512
X3.2348Y-2.362
X3.5892Y-2.362
X5.3348Y-2.362
X5.6892Y-2.362
X3.2348Y-5.512
X3.5892Y-5.512
X2.1848Y-5.512
X2.5392Y-5.512
T13
X4.0787Y-2.2386
T3
G00X5.8028Y-2.7492
M15
G01X5.7713Y-2.7492
M16
G05
G00X5.8028Y-2.7886
M15
G01X5.7713Y-2.7886
M16
G05
G00X5.8028Y-2.828
M15
G01X5.7713Y-2.828
M16
G05
G00X5.8028Y-2.8673
M15
G01X5.7713Y-2.8673
M16
G05
G00X5.8028Y-2.9067
M15
G01X5.7713Y-2.9067
M16
G05
G00X5.8028Y-2.9461
M15
G01X5.7713Y-2.9461
M16
G05
G00X5.8028Y-2.9854
M15
G01X5.7713Y-2.9854
M16
G05
G00X5.8028Y-3.0248
M15
G01X5.7713Y-3.0248
M16
G05
G00X2.0713Y-4.8492
M15
G01X2.1028Y-4.8492
M16
G05
G00X2.0713Y-4.8886
M15
G01X2.1028Y-4.8886
M16
G05
G00X2.0713Y-4.928
M15
G01X2.1028Y-4.928
M16
G05
G00X2.0713Y-4.9673
M15
G01X2.1028Y-4.9673
M16
G05
G00X2.0713Y-5.0067
M15
G01X2.1028Y-5.0067
M16
G05
G00X2.0713Y-5.0461
M15
G01X2.1028Y-5.0461
M16
G05
G00X2.0713Y-5.0854
M15
G01X2.1028Y-5.0854
M16
G05
G00X2.0713Y-5.1248
M15
G01X2.1028Y-5.1248
M16
G05
G00X5.8028Y-4.8492
M15
G01X5.7713Y-4.8492
M16
G05
G00X5.8028Y-4.8886
M15
G01X5.7713Y-4.8886
M16
G05
G00X5.8028Y-4.928
M15
G01X5.7713Y-4.928
M16
G05
G00X5.8028Y-4.9673
M15
G01X5.7713Y-4.9673
M16
G05
G00X5.8028Y-5.0067
M15
G01X5.7713Y-5.0067
M16
G05
G00X5.8028Y-5.0461
M15
G01X5.7713Y-5.0461
M16
G05
G00X5.8028Y-5.0854
M15
G01X5.7713Y-5.0854
M16
G05
G00X5.8028Y-5.1248
M15
G01X5.7713Y-5.1248
M16
G05
G00X2.7492Y-2.0713
M15
G01X2.7492Y-2.1028
M16
G05
G00X2.7886Y-2.0713
M15
G01X2.7886Y-2.1028
M16
G05
G00X2.828Y-2.0713
M15
G01X2.828Y-2.1028
M16
G05
G00X2.8673Y-2.0713
M15
G01X2.8673Y-2.1028
M16
G05
G00X2.9067Y-2.0713
M15
G01X2.9067Y-2.1028
M16
G05
G00X2.9461Y-2.0713
M15
G01X2.9461Y-2.1028
M16
G05
G00X2.9854Y-2.0713
M15
G01X2.9854Y-2.1028
M16
G05
G00X3.0248Y-2.0713
M15
G01X3.0248Y-2.1028
M16
G05
G00X2.7492Y-5.8028
M15
G01X2.7492Y-5.7713
M16
G05
G00X2.7886Y-5.8028
M15
G01X2.7886Y-5.7713
M16
G05
G00X2.828Y-5.8028
M15
G01X2.828Y-5.7713
M16
G05
G00X2.8673Y-5.8028
M15
G01X2.8673Y-5.7713
M16
G05
G00X2.9067Y-5.8028
M15
G01X2.9067Y-5.7713
M16
G05
G00X2.9461Y-5.8028
M15
G01X2.9461Y-5.7713
M16
G05
G00X2.9854Y-5.8028
M15
G01X2.9854Y-5.7713
M16
G05
G00X3.0248Y-5.8028
M15
G01X3.0248Y-5.7713
M16
G05
G00X4.8492Y-2.0713
M15
G01X4.8492Y-2.1028
M16
G05
G00X4.8886Y-2.0713
M15
G01X4.8886Y-2.1028
M16
G05
G00X4.928Y-2.0713
M15
G01X4.928Y-2.1028
M16
G05
G00X4.9673Y-2.0713
M15
G01X4.9673Y-2.1028
M16
G05
G00X5.0067Y-2.0713
M15
G01X5.0067Y-2.1028
M16
G05
G00X5.0461Y-2.0713
M15
G01X5.0461Y-2.1028
M16
G05
G00X5.0854Y-2.0713
M15
G01X5.0854Y-2.1028
M16
G05
G00X5.1248Y-2.0713
M15
G01X5.1248Y-2.1028
M16
G05
G00X3.7602Y-2.026
M15
G01X3.7602Y-2.0024
M16
G05
G00X3.7744Y-2.2012
M15
G01X3.7744Y-2.1776
M16
G05
G00X4.0996Y-2.2012
M15
G01X4.0996Y-2.1776
M16
G05
G00X4.1138Y-2.026
M15
G01X4.1138Y-2.0024
M16
G05
G00X4.8492Y-5.8028
M15
G01X4.8492Y-5.7713
M16
G05
G00X4.8886Y-5.8028
M15
G01X4.8886Y-5.7713
M16
G05
G00X4.928Y-5.8028
M15
G01X4.928Y-5.7713
M16
G05
G00X4.9673Y-5.8028
M15
G01X4.9673Y-5.7713
M16
G05
G00X5.0067Y-5.8028
M15
G01X5.0067Y-5.7713
M16
G05
G00X5.0461Y-5.8028
M15
G01X5.0461Y-5.7713
M16
G05
G00X5.0854Y-5.8028
M15
G01X5.0854Y-5.7713
M16
G05
G00X5.1248Y-5.8028
M15
G01X5.1248Y-5.7713
M16
G05
G00X2.0713Y-2.7492
M15
G01X2.1028Y-2.7492
M16
G05
G00X2.0713Y-2.7886
M15
G01X2.1028Y-2.7886
M16
G05
G00X2.0713Y-2.828
M15
G01X2.1028Y-2.828
M16
G05
G00X2.0713Y-2.8673
M15
G01X2.1028Y-2.8673
M16
G05
G00X2.0713Y-2.9067
M15
G01X2.1028Y-2.9067
M16
G05
G00X2.0713Y-2.9461
M15
G01X2.1028Y-2.9461
M16
G05
G00X2.0713Y-2.9854
M15
G01X2.1028Y-2.9854
M16
G05
G00X2.0713Y-3.0248
M15
G01X2.1028Y-3.0248
M16
G05
T4
G00X4.2947Y-3.2264
M15
G01X4.2947Y-3.2618
M16
G05
G00X4.2947Y-4.6122
M15
G01X4.2947Y-4.6476
M16
G05
G00X4.6293Y-3.2736
M15
G01X4.6293Y-3.3091
M16
G05
G00X4.6293Y-4.565
M15
G01X4.6293Y-4.6004
M16
G05
G00X5.3447Y-3.2264
M15
G01X5.3447Y-3.2618
M16
G05
G00X5.3447Y-4.6122
M15
G01X5.3447Y-4.6476
M16
G05
G00X5.6793Y-3.2736
M15
G01X5.6793Y-3.3091
M16
G05
G00X5.6793Y-4.565
M15
G01X5.6793Y-4.6004
M16
G05
G00X2.1947Y-3.2264
M15
G01X2.1947Y-3.2618
M16
G05
G00X2.1947Y-4.6122
M15
G01X2.1947Y-4.6476
M16
G05
G00X2.5293Y-3.2736
M15
G01X2.5293Y-3.3091
M16
G05
G00X2.5293Y-4.565
M15
G01X2.5293Y-4.6004
M16
G05
G00X3.2447Y-3.2264
M15
G01X3.2447Y-3.2618
M16
G05
G00X3.2447Y-4.6122
M15
G01X3.2447Y-4.6476
M16
G05
G00X3.5793Y-3.2736
M15
G01X3.5793Y-3.3091
M16
G05
G00X3.5793Y-4.565
M15
G01X3.5793Y-4.6004
M16
G05
T13
G00X3.8012Y-2.2386
M15
G01X3.7894Y-2.2386
M16
G05
T0
M30
