DBRep_DrawableShape

CASCADE Topology V3, (c) Open Cascade
Locations 35
1
              1           1e-16               0               0 
         -1e-16               1               0               0 
              0               0               1               0 
1
              1               0               0 -4.88498130835069e-15 
              0               1               0 -4.88498130835069e-31 
              0               0               1 -0.500000000000006 
2  1 1 2 1 0
2  2 -1 1 -1 0
1
              1               0               0 50.0000000000001 
              0               1               0 -49.9999999999991 
              0               0               1               0 
1
              1               0               0               0 
              0               1               0               0 
              0               0               1               0 
1
              1               0               0               0 
              0               1               0               0 
              0               0               1               0 
1
              1               0               0               0 
              0               1               0               0 
              0               0               1               0 
1
              1               0               0               0 
              0               1               0               0 
              0               0               1               0 
1
              1               0               0               0 
              0               1               0               0 
              0               0               1               0 
1
              1               0               0               0 
              0               1               0               0 
              0               0               1               0 
2  5 1 6 1 7 -1 8 1 9 -1 10 1 11 1 0
1
              1               0               0               0 
              0               1               0               0 
              0               0               1               0 
1
              1               0               0               0 
              0               1               0               0 
              0               0               1               0 
1
              1               0               0               0 
              0               1               0               0 
              0               0               1               0 
2  13 -1 14 1 15 -1 6 1 7 -1 8 1 9 -1 10 1 11 1 0
2  2 -1 1 -1 11 -1 10 -1 9 1 8 -1 7 1 6 -1 5 -1 0
1
              1               0               0               0 
              0               1               0               0 
              0               0               1               0 
2  18 1 13 -1 14 1 15 -1 6 1 7 -1 8 1 9 -1 10 1 11 1 0
2  2 -1 1 -1 11 -1 10 -1 9 1 8 -1 7 1 6 -1 15 1 14 -1 13 1 18 -1 0
2  13 1 18 -1 0
1
              1               0               0 49.9999999999998 
              0               1               0 50.0000000000011 
              0               0               1               0 
2  22 1 6 1 7 -1 8 1 9 -1 10 1 11 1 0
2  2 -1 1 -1 11 -1 10 -1 9 1 8 -1 7 1 6 -1 22 -1 0
2  14 1 15 -1 6 1 7 -1 8 1 9 -1 10 1 11 1 0
2  2 -1 1 -1 11 -1 10 -1 9 1 8 -1 7 1 6 -1 15 1 14 -1 0
1
              1               0               0              -0 
              0               1               0              -0 
              0               0               1              -1 
2  18 1 13 -1 27 1 14 1 15 -1 6 1 7 -1 8 1 9 -1 10 1 11 1 0
2  2 -1 1 -1 11 -1 10 -1 9 1 8 -1 7 1 6 -1 15 1 14 -1 27 -1 13 1 18 -1 0
2  13 -1 27 1 14 1 15 -1 6 1 7 -1 8 1 9 -1 10 1 11 1 0
2  6 1 7 -1 8 1 9 -1 10 1 11 1 0
2  2 -1 1 -1 11 -1 10 -1 9 1 8 -1 7 1 6 -1 0
2  27 -1 13 1 18 -1 0
2  18 1 13 -1 0
2  18 1 13 -1 27 1 0
Curve2ds 30
1 28.374999999999357 4422.5124536286157 0 -1 
1 260.87500000000006 4.9999999999999405 1 0 
8 0 2.2500000000000009
1 3.1415926535898175 0 0 1 
1 2.1249999999993596 2.7499999999999387 -0 1 
8 12.374368670764579 23.334523779156058
1 3.1415926535897931 23.334523779156079 0 -1 
1 -6.6250000000006395 11.499999999999941 0.70710678118654757 -0.70710678118654757 
1 260.87500000000006 -5.0000000000000604 1 0 
8 0 3.1415926535897931
1 0 0 1 0 
1 260.87500000000006 -5.0000000000000604 1 0 
8 8.0000000000000006e-15 1.5707963267949001
1 0 0 1 0 
8 0 6.2831853071795862
1 0 0 1 0 
8 0 10
1 1.5707963267948999 0 0 -1 
8 3.1415926535897931 6.2831853071795862
1 6.2831853071795862 2.2500000000000009 -1 0 
1 260.87500000000006 4.9999999999999405 1 0 
8 8.0000000000000006e-15 1.5707963267949001
1 0 -10 1 0 
8 0 6.2831853071795862
1 6.2831853071795862 2.2500000000000009 -1 0 
8 0 2.25
1 0 0 0 1 
1 -15.375000000000703 2.7499999999999387 6.0000000000000001e-17 1 
8 0 3.1415926535897931
1 0 0 1 0 
8 0 3.1415926535897931
1 0 10.960155108391486 1 0 
8 0 10.960155108391481
1 0 0 0 1 
1 -23.1250000000007 -5.0000000000000604 0.70710678118654757 0.70710678118654757 
1 -28.374999999999265 2208.7562268143079 0 -1 
8 0 10
1 8.3999999999999992e-15 0 0 -1 
8 0 6.2831853071795862
1 0 10.960155108391486 1 0 
8 0 6.2831853071795862
1 0 0 1 0 
8 0 10.960155108391481
1 6.2831853071795862 0 0 1 
8 0 10.960155108391481
1 0 0 0 1 
8 0 2.25
1 6.2831853071795862 0 0 1 
8 0 2.25
1 0 0 0 1 
Curves 29
1 -28.374999999999353 -8.792966355031239e-30 -4422.0124536286157 0 0 1 
1 -28.374999999999382 249.99999999999542 5.5000000000000666 -9.9999999999999998e-17 1 0 
1 -28.37499999999946 1021.7499999999909 -2208.2562268143079 0 0 -1 
1 -28.374999999999382 249.99999999999542 -4.4999999999999343 -9.9999999999999998e-17 1 0 
1 -260.87500000000006 -8.792966355031239e-30 -4.4999999999999343 -1 -9.9999999999999998e-17 0 
1 -2.1249999999993547 -8.792966355031239e-30 -2.2499999999999329 0 0 -1 
1 6.6250000000006448 2.1316282072803006e-13 -10.999999999999936 -0.70710678118654757 -7.0710678118654756e-17 0.70710678118654757 
1 -260.87500000000006 -8.792966355031239e-30 5.5000000000000666 -1 -9.9999999999999998e-17 0 
2 -43.374999999999432 49.999999999999318 5.5000000000000666 0 -0 1 1 9.9999999999999998e-17 0 -9.9999999999999998e-17 1 0 16.5
1 -260.87500000000006 -8.792966355031239e-30 5.5000000000000666 -1 -9.9999999999999998e-17 0 
1 28.374999999999165 1017.9999999999909 5.5000000000000666 9.9999999999999998e-17 -1 0 
2 24.624999999999165 1017.9999999999909 5.5000000000000666 0 -0 1 1 9.9999999999999998e-17 0 -9.9999999999999998e-17 1 0 3.75
1 -1011.3750000000007 1021.7499999999907 5.5000000000000666 1 9.9999999999999998e-17 0 
2 -43.375000000003183 950.00000000000068 5.5000000000000666 0 -0 1 1 9.9999999999999998e-17 0 -9.9999999999999998e-17 1 0 16.5
1 24.624999999999091 1021.7499999999909 5.5000000000000666 0 0 -1 
1 -1011.3750000000007 1021.7499999999907 -3.4999999999999343 1 9.9999999999999998e-17 0 
2 6.6250000000006448 2.1316282072803006e-13 -4.4999999999999343 0 0 -1 1 9.9999999999999998e-17 0 9.9999999999999998e-17 -1 0 8.75
1 -260.87500000000006 -8.792966355031239e-30 -4.4999999999999343 -1 -9.9999999999999998e-17 0 
1 28.374999999999165 1017.9999999999909 -3.4999999999999343 9.9999999999999998e-17 -1 0 
2 24.624999999999165 1017.9999999999909 -3.4999999999999343 0 -0 1 1 9.9999999999999998e-17 0 -9.9999999999999998e-17 1 0 3.75
2 6.6249999999966374 1000.0000000000017 -4.4999999999999343 0 0 -1 1 9.9999999999999998e-17 0 9.9999999999999998e-17 -1 0 8.75
1 -34.624999999999432 49.999999999999318 -2.2499999999999329 -6.0000000000000001e-17 -6.0000000000000003e-33 -1 
2 -43.374999999999432 49.999999999999318 -2.2499999999999329 0 -0 1 1 9.9999999999999998e-17 0 -9.9999999999999998e-17 1 0 8.75
1 -26.874999999999432 49.999999999999318 5.5000000000000666 -0.70710678118654757 -7.0710678118654756e-17 -0.70710678118654757 
1 28.374999999999268 -8.792966355031239e-30 -2208.2562268143079 0 0 1 
1 28.374999999999165 1017.9999999999909 5.5000000000000666 0 0 -1 
2 -43.375000000003183 950.00000000000068 -2.2499999999999329 0 -0 1 1 9.9999999999999998e-17 0 -9.9999999999999998e-17 1 0 8.75
1 -26.875000000003183 950.00000000000068 5.5000000000000666 -0.70710678118654757 -7.0710678118654756e-17 -0.70710678118654757 
1 -34.625000000003183 950.00000000000068 -2.2499999999999329 -6.0000000000000001e-17 -6.0000000000000003e-33 -1 
Polygon3D 0
PolygonOnTriangulations 0
Surfaces 13
1 -28.374999999999353 -8.792966355031239e-30 -4422.0124536286157 1 9.9999999999999998e-17 0 0 0 1 9.9999999999999998e-17 -1 0 
1 0 0 0 9.9999999999999998e-17 -1 0 -1 -9.9999999999999998e-17 0 0 -0 -1 
1 -28.374999999999353 -8.792966355031239e-30 -4422.0124536286157 -9.9999999999999998e-17 1 0 1 9.9999999999999998e-17 0 0 0 -1 
2 -43.374999999999432 49.999999999999318 -2.2499999999999329 0 0 -1 1 9.9999999999999998e-17 0 -9.9999999999999998e-17 1 0 8.75
3 -43.374999999999432 49.999999999999318 5.5000000000000666 0 0 -1 1 9.9999999999999998e-17 0 -9.9999999999999998e-17 1 0 16.5
-0.78539816339744828
1 -493.37500000000074 499.99999999999079 5.5000000000000666 0 0 -1 -1 -9.9999999999999998e-17 0 -9.9999999999999998e-17 1 0 
2 24.624999999999165 1017.9999999999909 5.5000000000000666 0 0 1 1 9.9999999999999998e-17 0 -9.9999999999999998e-17 1 0 3.75
3 -43.375000000003183 950.00000000000068 5.5000000000000666 0 0 -1 1 9.9999999999999998e-17 0 -9.9999999999999998e-17 1 0 16.5
-0.78539816339744828
1 -1011.3750000000007 1021.7499999999907 5.5000000000000666 9.9999999999999998e-17 -1 0 1 9.9999999999999998e-17 0 0 0 1 
1 -493.37500000000074 499.99999999999079 -3.4999999999999343 0 0 -1 -1 -9.9999999999999998e-17 0 -9.9999999999999998e-17 1 0 
2 -43.375000000003183 950.00000000000068 -2.2499999999999329 0 0 -1 1 9.9999999999999998e-17 0 -9.9999999999999998e-17 1 0 8.75
1 -28.374999999999353 -8.792966355031239e-30 -4422.0124536286157 -9.9999999999999998e-17 1 0 1 9.9999999999999998e-17 0 0 0 -1 
1 28.374999999999165 1017.9999999999909 5.5000000000000666 -1 -9.9999999999999998e-17 0 9.9999999999999998e-17 -1 0 0 0 1 
Triangulations 0

TShapes 77
Ve
0.000501
-28.3749999999994 -4.88498130835069e-30 -4.99999999999994
0 0

0101101
*
Ve
0.000501
-28.3749999999994 -4.88498130835069e-30 5.00000000000006
0 0

0101101
*
Ed
 1e-06 1 1 0
1  1 0 4417.51245362862 4427.51245362862
2  1 2 4 4417.51245362862 4427.51245362862
0

0101000
+77 4 -76 4 *
Ve
0.000501
-28.3749999999994 1021.74999999999 5.00000000000006
0 0

0101101
*
Ed
 0.000501 1 1 0
1  2 0 -249.999999999995 771.749999999995
0

0101000
+76 4 -74 4 *
Ve
0.000501
-28.3749999999994 1021.74999999999 -4.99999999999994
0 0

0101101
*
Ed
 0.000501 1 1 0
1  3 0 -2213.75622681431 -2203.75622681431
0

0101000
+74 4 -72 4 *
Ed
 0.000501 1 1 0
1  4 0 -249.999999999995 771.749999999995
0

0101000
+77 4 -72 4 *
Wi

0101100
-75 0 -73 0 -71 0 +70 0 *
Fa
0  1e-06 1 0

0101000
+69 0 *
Ve
0.000501
-2.12499999999936 -4.88498130835069e-30 -4.99999999999994
0 0

0101101
*
Ed
 0.000501 1 1 0
1  5 0 -258.750000000001 -232.500000000001
2  2 2 4 -258.750000000001 -232.500000000001
0

0101000
+67 4 -77 4 *
Ve
1.00000021320907e-06
-2.12499999999936 -4.88498130835069e-30 -2.74999999999994
0 0

0101101
*
Ed
 1e-06 1 1 0
1  6 0 -0 2.25
2  3 4 12 -0 2.25
2  4 2 4 -0 2.25
0

0101000
+65 4 -67 4 *
Ve
0.000501
-9.87499999999935 -4.88498130835069e-30 5.00000000000006
0 0

0101101
*
Ed
 1e-06 1 1 0
1  7 0 12.3743686707646 23.3345237791561
2  5 5 12 12.3743686707646 23.3345237791561
2  6 2 4 12.3743686707646 23.3345237791561
0

0101000
+65 4 -63 4 *
Ed
 0.000501 1 1 0
1  8 0 -251.000000000001 -232.500000000001
2  7 2 4 -251.000000000001 -232.500000000001
0

0101000
+63 4 -76 4 *
Wi

0101100
+66 0 +64 0 -62 0 -61 0 +75 0 *
Fa
0  1e-06 3 0

0101000
+60 0 *
Ve
0.000501000000213163
23.1250000000006 2.1316282072803e-13 5.00000000000006
0 0

0101101
*
Ed
 1e-06 1 1 0
1  9 0 0 3.14159265358979
2  8 5 0 0 3.14159265358979
0

0101000
+58 17 -63 17 *
Ve
0.000501000000071054
28.3749999999993 -4.88498130835069e-30 5.00000000000006
0 0

0101101
*
Ed
 0.000501 1 1 0
1  10 0 -289.249999999999 -284.000000000001
2  9 2 4 -289.249999999999 -284.000000000001
0

0101000
+56 4 -58 4 *
Ve
1e-06
28.3749999999993 1017.99999999999 5.00000000000006
0 0

0101101
*
Ed
 1e-06 1 1 0
1  11 0 0 1017.99999999999
0

0101000
+54 20 -56 20 *
Ve
1.00000004e-06
24.6249999999992 1021.74999999999 5.00000000000006
0 0

0101101
*
Ed
 1e-06 1 1 0
1  12 0 8e-15 1.5707963267949
2  10 7 21 8e-15 1.5707963267949
0

0101000
+54 20 -52 20 *
Ed
 1e-06 1 1 0
1  13 0 983.000000000001 1036
0

0101000
+74 20 -52 20 *
Wi

0101100
+73 0 +61 0 +57 12 +55 0 +53 19 -51 19 +50 19 *
Ve
1e-06
23.1249999999967 1000 5.00000000000006
0 0

0101101
*
Ed
 1e-06 1 1 0
1  14 0 0 6.28318530717959
2  11 8 0 0 6.28318530717959
0

0101000
+48 24 -48 24 *
Wi

0101100
+47 23 *
Fa
0  1e-06 6 16

0101000
+49 0 +46 0 *
Ve
1.00000004e-06
24.6249999999992 1021.74999999999 -4.99999999999994
0 0

0101101
*
Ed
 1.00000004e-06 1 1 0
1  15 0 0 10
2  12 7 0 0 10
4 G1 9 0 7 0
0

0101000
+52 26 -44 26 *
Ed
 1e-06 1 1 0
1  16 0 983.000000000001 1036
0

0101000
+72 29 -44 29 *
Wi

0101100
-50 19 -43 25 +42 28 +71 0 *
Fa
0  1e-06 9 25

0101000
+41 0 *
Ve
0.000501000000213163
15.3750000000006 2.1316282072803e-13 -4.99999999999994
0 0

0101101
*
Ed
 1e-06 1 1 0
1  17 0 3.14159265358979 6.28318530717959
2  13 4 5 3.14159265358979 6.28318530717959
0

0101000
+67 32 -39 32 *
Ve
0.000501000000071054
28.3749999999993 -4.88498130835069e-30 -4.99999999999994
0 0

0101101
*
Ed
 0.000501 1 1 0
1  18 0 -289.249999999999 -276.250000000001
2  14 2 4 -289.249999999999 -276.250000000001
0

0101000
+37 4 -39 4 *
Ve
1e-06
28.3749999999993 1017.99999999999 -4.99999999999994
0 0

0101101
*
Ed
 1e-06 1 1 0
1  19 0 0 1017.99999999999
0

0101000
+35 29 -37 29 *
Ed
 1e-06 1 1 0
1  20 0 8e-15 1.5707963267949
2  15 7 33 8e-15 1.5707963267949
0

0101000
+35 29 -44 29 *
Wi

0101100
+70 0 +66 0 -38 31 +36 0 +34 28 -33 28 +42 28 *
Ve
1e-06
15.3749999999967 1000 -4.99999999999994
0 0

0101101
*
Ed
 1e-06 1 1 0
1  21 0 0 6.28318530717959
2  16 11 22 0 6.28318530717959
0

0101100
+31 32 -31 32 *
Wi

0101100
-30 31 *
Fa
0  1e-06 10 30

0101000
+32 0 +29 0 *
Ve
1.00000021316282e-06
15.3750000000006 2.1316282072803e-13 -2.74999999999994
0 0

0101101
*
Ed
 1.00000021316282e-06 1 1 0
1  22 0 0 2.25
2  17 4 0 0 2.25
2  18 2 17 0 2.25
0

0101000
+27 17 -39 17 *
Ed
 1e-06 1 1 0
1  23 0 0 3.14159265358979
2  19 4 0 0 3.14159265358979
2  20 5 0 0 3.14159265358979
0

0101000
+27 17 -65 17 *
Wi

0101100
-26 12 +38 31 +64 0 +25 12 *
Fa
0  1e-06 4 12

0101000
+24 0 *
Ed
 1.00000021316282e-06 1 1 0
1  24 0 0 10.9601551083915
2  21 5 0 0 10.9601551083915
2  22 2 17 0 10.9601551083915
0

0101000
+58 17 -27 17 *
Wi

0101100
-22 12 -25 12 -62 0 +57 12 *
Fa
0  1e-06 5 12

0101000
+21 0 *
Ed
 0.000501 1 1 0
1  25 0 2203.75622681431 2213.75622681431
2  23 2 4 2203.75622681431 2213.75622681431
0

0101000
+37 4 -56 4 *
Wi

0101100
-22 12 -26 12 +36 0 -19 0 -55 0 *
Fa
0  1e-06 12 0

0101000
+18 0 *
Ed
 1e-06 1 1 0
1  26 0 0 10
2  24 7 0 0 10
4 G1 13 0 7 0
0

0101000
+54 26 -35 26 *
Wi

0101100
-53 19 +19 0 +34 28 +16 25 *
Fa
0  1e-06 13 25

0101000
+15 0 *
Wi

0101100
+16 0 -43 0 -51 34 +33 35 *
Fa
0  1e-06 7 0

0111000
+13 0 *
Ve
1e-06
15.3749999999967 1000 -2.74999999999994
0 0

0101101
*
Ed
 1e-06 1 1 0
1  27 0 0 6.28318530717959
2  25 8 0 0 6.28318530717959
2  26 11 0 0 6.28318530717959
0

0101000
+11 24 -11 24 *
Ed
 1e-06 1 1 0
1  28 0 0 10.9601551083915
3  27 28CN 8 0 0 10.9601551083915
0

0101000
+48 24 -11 24 *
Wi

0101100
+47 0 -10 0 -9 0 +9 0 *
Fa
0  1e-06 8 0

0111000
+8 0 *
Ed
 1e-06 1 1 0
1  29 0 0 2.25
3  29 30CN 11 0 0 2.25
0

0101000
+11 24 -31 24 *
Wi

0101100
-6 22 +30 0 +6 22 +10 22 *
Fa
0  1e-06 11 22

0111000
+5 0 *
Sh

0101100
-68 0 -59 0 -45 0 -40 0 +28 0 +23 0 +20 0 -17 0 -14 0 +12 25 
+7 23 +4 31 *
So

0100000
+3 0 *
Co

1100000
+2 0 *

+1 3 