DBRep_DrawableShape

CASCADE Topology V3, (c) Open Cascade
Locations 13
1
              1               0               0               0 
              0               1               0               0 
              0               0               1               0 
1
              1               0               0               0 
              0               1               0               0 
              0               0               1               0 
1
              1               0               0               0 
              0               1               0               0 
              0               0               1 -147.583748454287 
1
              1               0               0               0 
              0               1               0               0 
              0               0               1 -295.167496908574 
2  1 1 2 1 3 1 4 1 0
1
              1               0               0              -0 
              0               1               0              -0 
              0               0               1 590.334993817149 
2  1 1 2 1 3 1 4 1 6 1 0
1
              1               0               0               0 
              0               1               0               0 
              0               0               1 -295.167496908574 
1
              1               0               0               0 
              0               1               0               0 
              0               0               1 -147.583748454287 
1
              1               0               0               0 
              0               1               0               0 
              0               0               1               0 
2  8 -1 9 -1 10 -1 1 -1 0
1
              1               0               0              -0 
              0               1               0              -0 
              0               0               1 590.334993817149 
2  12 -1 8 -1 9 -1 10 -1 1 -1 0
Curve2ds 2
1 0 0 1 0 
1 0 -590.33499381714876 1 0 
Curves 3
1 46.500000000000142 -49.999999999999091 -442.7512453628616 -0 -0 1 
1 53.500000000000142 -49.999999999999091 -442.7512453628616 -0 -0 1 
1 46.500000000000142 -49.999999999999091 0 1 0 0 
Polygon3D 1
2 1
0.0116666666666667
46.5000000000001 -49.9999999999991 0 53.5000000000001 -49.9999999999991 0 
0 7 
PolygonOnTriangulations 0
Surfaces 2
1 46.500000000000142 -49.999999999999091 -442.7512453628616 -0 1 0 1 0 0 0 0 -1 
1 46.500000000000142 -49.999999999999091 -442.7512453628616 -0 1 0 1 0 0 0 0 -1 
Triangulations 0

TShapes 8
Ve
1e-07
46.5000000000001 -49.9999999999991 0
0 0

0101101
*
Ed
 1e-07 1 1 0
1  1 0 0 590.334993817149
0

0101000
+8 5 -8 7 *
Ve
1e-07
53.5000000000001 -49.9999999999991 0
0 0

0101101
*
Ed
 1e-07 1 1 0
1  2 0 0 590.334993817149
0

0101000
+6 5 -6 7 *
Ed
 1e-07 1 1 0
1  3 0 0 7
2  1 2 11 0 7
2  2 2 13 0 7
5  1 0
0

0101000
+8 0 -6 0 *
Wi

0101100
+7 0 -5 0 -4 5 +4 7 *
Fa
0  1e-07 1 0

0101000
+3 0 *
Sh

1101000
+2 0 *

+1 0 