DBRep_DrawableShape

CASCADE Topology V3, (c) Open Cascade
Locations 160
1
              1               0               0               0 
              0               1               0               0 
              0               0               1               0 
1
              1               0               0               0 
              0               1               0               0 
              0               0               1               0 
2  1 1 2 1 0
1
              1               0               0               0 
              0               1               0               0 
              0               0               1               0 
1
              1               0               0               0 
              0               1               0               0 
              0               0               1               0 
1
              1               0               0               0 
              0               1               0               0 
              0               0               1               0 
1
              1               0               0               0 
              0               1               0               0 
              0               0               1               0 
1
              1               0               0               0 
              0               1               0               0 
              0               0               1               0 
1
              1               0               0               0 
              0               1               0               0 
              0               0               1               0 
2  4 1 5 -1 6 1 7 -1 8 1 9 -1 0
2  2 -1 1 -1 9 1 8 -1 7 1 6 -1 5 1 4 -1 0
1
              1               0               0               0 
              0               1               0               0 
              0               0               1               0 
1
              1               0               0               0 
              0               1               0               0 
              0               0               1               0 
2  12 1 13 -1 0
2  13 1 12 -1 0
2  12 -1 0
2  2 -1 1 -1 9 1 8 -1 7 1 6 -1 5 1 4 -1 13 1 12 -1 0
1
              1               0               0              -0 
              0               1               0              -0 
              0               0               1              -1 
2  12 1 13 -1 18 1 0
2  18 -1 13 1 12 -1 0
2  2 -1 1 -1 9 1 8 -1 7 1 6 -1 5 1 4 -1 18 -1 13 1 12 -1 0
2  13 -1 4 1 5 -1 6 1 7 -1 8 1 9 -1 0
2  12 1 13 -1 4 1 5 -1 6 1 7 -1 8 1 9 -1 0
1
              1               0               0 50.0000000000001 
              0               1               0 -49.9999999999991 
              0               0               1               0 
2  24 1 6 1 7 -1 8 1 9 -1 0
2  13 -1 4 1 5 -1 24 -1 0
2  2 -1 1 -1 9 1 8 -1 7 1 6 -1 24 -1 0
1
              1               0               0          40.005 
              0               1               0         -40.005 
              0               0               1               0 
2  28 1 8 1 9 -1 0
2  13 -1 4 1 5 -1 6 1 7 -1 28 -1 0
2  2 -1 1 -1 9 1 8 -1 28 -1 0
1
              1               0               0          40.005 
              0               1               0         -31.505 
              0               0               1               0 
2  13 -1 4 1 5 -1 6 1 7 -1 8 1 9 -1 32 -1 0
2  2 -1 1 -1 32 -1 0
1
              1               0               0          13.335 
              0               1               0         -40.005 
              0               0               1               0 
2  35 1 8 1 9 -1 0
2  13 -1 4 1 5 -1 6 1 7 -1 35 -1 0
2  2 -1 1 -1 9 1 8 -1 35 -1 0
1
              1               0               0          13.335 
              0               1               0         -31.505 
              0               0               1               0 
2  13 -1 4 1 5 -1 6 1 7 -1 8 1 9 -1 39 -1 0
2  2 -1 1 -1 39 -1 0
1
              1               0               0          40.005 
              0               1               0         -13.335 
              0               0               1               0 
2  42 1 8 1 9 -1 0
2  13 -1 4 1 5 -1 6 1 7 -1 42 -1 0
2  2 -1 1 -1 9 1 8 -1 42 -1 0
1
              1               0               0          40.005 
              0               1               0          -4.835 
              0               0               1               0 
2  13 -1 4 1 5 -1 6 1 7 -1 8 1 9 -1 46 -1 0
2  2 -1 1 -1 46 -1 0
1
              1               0               0          13.335 
              0               1               0         -13.335 
              0               0               1               0 
2  49 1 8 1 9 -1 0
2  13 -1 4 1 5 -1 6 1 7 -1 49 -1 0
2  2 -1 1 -1 9 1 8 -1 49 -1 0
1
              1               0               0          13.335 
              0               1               0          -4.835 
              0               0               1               0 
2  13 -1 4 1 5 -1 6 1 7 -1 8 1 9 -1 53 -1 0
2  2 -1 1 -1 53 -1 0
1
              1               0               0         -13.335 
              0               1               0         -40.005 
              0               0               1               0 
2  56 1 8 1 9 -1 0
2  13 -1 4 1 5 -1 6 1 7 -1 56 -1 0
2  2 -1 1 -1 9 1 8 -1 56 -1 0
1
              1               0               0         -13.335 
              0               1               0         -31.505 
              0               0               1               0 
2  13 -1 4 1 5 -1 6 1 7 -1 8 1 9 -1 60 -1 0
2  2 -1 1 -1 60 -1 0
1
              1               0               0 -49.9999999999998 
              0               1               0 -49.9999999999997 
              0               0               1               0 
2  63 1 6 1 7 -1 8 1 9 -1 0
2  13 -1 4 1 5 -1 63 -1 0
2  2 -1 1 -1 9 1 8 -1 7 1 6 -1 63 -1 0
1
              1               0               0         -40.005 
              0               1               0         -40.005 
              0               0               1               0 
2  67 1 8 1 9 -1 0
2  13 -1 4 1 5 -1 6 1 7 -1 67 -1 0
2  2 -1 1 -1 9 1 8 -1 67 -1 0
1
              1               0               0         -40.005 
              0               1               0         -31.505 
              0               0               1               0 
2  13 -1 4 1 5 -1 6 1 7 -1 8 1 9 -1 71 -1 0
2  2 -1 1 -1 71 -1 0
1
              1               0               0         -13.335 
              0               1               0         -13.335 
              0               0               1               0 
2  74 1 8 1 9 -1 0
2  13 -1 4 1 5 -1 6 1 7 -1 74 -1 0
2  2 -1 1 -1 9 1 8 -1 74 -1 0
1
              1               0               0         -13.335 
              0               1               0          -4.835 
              0               0               1               0 
2  13 -1 4 1 5 -1 6 1 7 -1 8 1 9 -1 78 -1 0
2  2 -1 1 -1 78 -1 0
1
              1               0               0         -40.005 
              0               1               0         -13.335 
              0               0               1               0 
2  81 1 8 1 9 -1 0
2  13 -1 4 1 5 -1 6 1 7 -1 81 -1 0
2  2 -1 1 -1 9 1 8 -1 81 -1 0
1
              1               0               0         -40.005 
              0               1               0          -4.835 
              0               0               1               0 
2  13 -1 4 1 5 -1 6 1 7 -1 8 1 9 -1 85 -1 0
2  2 -1 1 -1 85 -1 0
1
              1               0               0          40.005 
              0               1               0          13.335 
              0               0               1               0 
2  88 1 8 1 9 -1 0
2  13 -1 4 1 5 -1 6 1 7 -1 88 -1 0
2  2 -1 1 -1 9 1 8 -1 88 -1 0
1
              1               0               0          40.005 
              0               1               0          21.835 
              0               0               1               0 
2  13 -1 4 1 5 -1 6 1 7 -1 8 1 9 -1 92 -1 0
2  2 -1 1 -1 92 -1 0
1
              1               0               0          13.335 
              0               1               0          13.335 
              0               0               1               0 
2  95 1 8 1 9 -1 0
2  13 -1 4 1 5 -1 6 1 7 -1 95 -1 0
2  2 -1 1 -1 9 1 8 -1 95 -1 0
1
              1               0               0          13.335 
              0               1               0          21.835 
              0               0               1               0 
2  13 -1 4 1 5 -1 6 1 7 -1 8 1 9 -1 99 -1 0
2  2 -1 1 -1 99 -1 0
1
              1               0               0          40.005 
              0               1               0          40.005 
              0               0               1               0 
2  102 1 8 1 9 -1 0
2  13 -1 4 1 5 -1 6 1 7 -1 102 -1 0
2  2 -1 1 -1 9 1 8 -1 102 -1 0
1
              1               0               0 49.9999999999998 
              0               1               0 50.0000000000011 
              0               0               1               0 
2  106 1 6 1 7 -1 8 1 9 -1 0
2  13 -1 4 1 5 -1 106 -1 0
2  2 -1 1 -1 9 1 8 -1 7 1 6 -1 106 -1 0
1
              1               0               0          40.005 
              0               1               0          48.505 
              0               0               1               0 
2  13 -1 4 1 5 -1 6 1 7 -1 8 1 9 -1 110 -1 0
2  2 -1 1 -1 110 -1 0
1
              1               0               0          13.335 
              0               1               0          40.005 
              0               0               1               0 
2  113 1 8 1 9 -1 0
2  13 -1 4 1 5 -1 6 1 7 -1 113 -1 0
2  2 -1 1 -1 9 1 8 -1 113 -1 0
1
              1               0               0          13.335 
              0               1               0          48.505 
              0               0               1               0 
2  13 -1 4 1 5 -1 6 1 7 -1 8 1 9 -1 117 -1 0
2  2 -1 1 -1 117 -1 0
1
              1               0               0         -13.335 
              0               1               0          13.335 
              0               0               1               0 
2  120 1 8 1 9 -1 0
2  13 -1 4 1 5 -1 6 1 7 -1 120 -1 0
2  2 -1 1 -1 9 1 8 -1 120 -1 0
1
              1               0               0         -13.335 
              0               1               0          21.835 
              0               0               1               0 
2  13 -1 4 1 5 -1 6 1 7 -1 8 1 9 -1 124 -1 0
2  2 -1 1 -1 124 -1 0
1
              1               0               0         -40.005 
              0               1               0          13.335 
              0               0               1               0 
2  127 1 8 1 9 -1 0
2  13 -1 4 1 5 -1 6 1 7 -1 127 -1 0
2  2 -1 1 -1 9 1 8 -1 127 -1 0
1
              1               0               0         -40.005 
              0               1               0          21.835 
              0               0               1               0 
2  13 -1 4 1 5 -1 6 1 7 -1 8 1 9 -1 131 -1 0
2  2 -1 1 -1 131 -1 0
1
              1               0               0         -13.335 
              0               1               0          40.005 
              0               0               1               0 
2  134 1 8 1 9 -1 0
2  13 -1 4 1 5 -1 6 1 7 -1 134 -1 0
2  2 -1 1 -1 9 1 8 -1 134 -1 0
1
              1               0               0         -13.335 
              0               1               0          48.505 
              0               0               1               0 
2  13 -1 4 1 5 -1 6 1 7 -1 8 1 9 -1 138 -1 0
2  2 -1 1 -1 138 -1 0
1
              1               0               0         -40.005 
              0               1               0          40.005 
              0               0               1               0 
2  141 1 8 1 9 -1 0
2  13 -1 4 1 5 -1 6 1 7 -1 141 -1 0
2  2 -1 1 -1 9 1 8 -1 141 -1 0
1
              1               0               0         -40.005 
              0               1               0          48.505 
              0               0               1               0 
2  13 -1 4 1 5 -1 6 1 7 -1 8 1 9 -1 145 -1 0
2  2 -1 1 -1 145 -1 0
1
              1               0               0 -50.0000000000002 
              0               1               0 50.0000000000011 
              0               0               1               0 
2  148 1 6 1 7 -1 8 1 9 -1 0
2  13 -1 4 1 5 -1 148 -1 0
2  2 -1 1 -1 9 1 8 -1 7 1 6 -1 148 -1 0
2  13 -1 18 1 4 1 5 -1 6 1 7 -1 8 1 9 -1 0
2  12 1 13 -1 18 1 4 1 5 -1 6 1 7 -1 8 1 9 -1 0
2  6 1 7 -1 8 1 9 -1 0
2  13 -1 18 1 4 1 5 -1 0
2  2 -1 1 -1 9 1 8 -1 7 1 6 -1 0
2  8 1 9 -1 0
2  13 -1 18 1 4 1 5 -1 6 1 7 -1 0
2  2 -1 1 -1 9 1 8 -1 0
2  2 -1 1 -1 0
Curve2ds 280
1 0 0 0 -1 
1 3.1415926535897918 0 0 -1 
1 103.60000000000001 0 0 -1 
1 3.1415926535897896 0 0 -1 
1 0 0 1 0 
1 52.175000000000004 -51.800000000000004 0 1 
1 0 -1 1 0 
1 52.175000000000004 -51.800000000000004 0 1 
1 4.7123889803846879 0 0 -1 
1 103.59999999999999 0 0 -1 
1 0 0 1 0 
2 51.800000000000004 -51.800000000000004 -1 0 0 1 0.375
1 0 -1 1 0 
2 51.800000000000004 -51.800000000000004 -1 0 0 1 0.375
1 1.5707963267948994 0 0 -1 
1 0 0 0 -1 
1 0 0 1 0 
2 51.800000000000004 51.800000000000004 -1 0 0 1 0.375
1 0 -1 1 0 
2 51.800000000000004 51.800000000000004 -1 0 0 1 0.375
1 -51.799999999999997 -52.175000000000004 1 0 
1 0 0 1 0 
1 51.800000000000004 52.175000000000004 -1 0 
1 0 0 1 0 
2 -51.799999999999997 -51.800000000000004 -1 0 0 1 0.375
1 0 0 1 0 
2 -51.799999999999997 51.800000000000004 -1 0 0 1 0.375
1 0 0 1 0 
1 -52.174999999999997 51.800000000000004 0 -1 
1 0 0 1 0 
2 -50.000000000000135 -49.999999999999062 -1 0 0 1 1.6499999999999986
1 0 0 1 0 
2 -40.004999999999995 -40.004999999999995 -1 0 0 1 4.8500000000000014
1 0 0 1 0 
2 -40.004999999999995 -31.504999999999995 -1 0 0 1 1.5
1 0 0 1 0 
2 -13.334999999999996 -40.004999999999995 -1 0 0 1 4.8500000000000014
1 0 0 1 0 
2 -13.334999999999996 -31.504999999999995 -1 0 0 1 1.5
1 0 0 1 0 
2 -40.004999999999995 -13.334999999999997 -1 0 0 1 4.8500000000000014
1 0 0 1 0 
2 -40.004999999999995 -4.834999999999992 -1 0 0 1 1.5
1 0 0 1 0 
2 -13.334999999999997 -13.334999999999997 -1 0 0 1 4.8499999999999996
1 0 0 1 0 
2 -13.334999999999996 -4.834999999999992 -1 0 0 1 1.5
1 0 0 1 0 
2 13.335000000000006 -40.004999999999995 -1 0 0 1 4.8499999999999996
1 0 0 1 0 
2 13.335000000000006 -31.504999999999995 -1 0 0 1 1.5
1 0 0 1 0 
2 49.999999999999851 -49.999999999999687 -1 0 0 1 1.6499999999999986
1 0 0 1 0 
2 40.00500000000001 -40.004999999999995 -1 0 0 1 4.8500000000000014
1 0 0 1 0 
2 40.00500000000001 -31.504999999999995 -1 0 0 1 1.5
1 0 0 1 0 
2 13.335000000000004 -13.334999999999997 -1 0 0 1 4.8499999999999996
1 0 0 1 0 
2 13.335000000000006 -4.8349999999999911 -1 0 0 1 1.5
1 0 0 1 0 
2 40.00500000000001 -13.334999999999996 -1 0 0 1 4.8500000000000014
1 0 0 1 0 
2 40.00500000000001 -4.8349999999999911 -1 0 0 1 1.5
1 0 0 1 0 
2 -40.004999999999995 13.335000000000004 -1 0 0 1 4.8500000000000014
1 0 0 1 0 
2 -40.004999999999995 21.835000000000008 -1 0 0 1 1.5
1 0 0 1 0 
2 -13.334999999999992 13.335000000000004 -1 0 0 1 4.8499999999999979
1 0 0 1 0 
2 -13.334999999999996 21.835000000000008 -1 0 0 1 1.5
1 0 0 1 0 
2 -40.005000000000003 40.00500000000001 -1 0 0 1 4.8500000000000014
1 0 0 1 0 
2 -49.999999999999744 50.000000000001094 -1 0 0 1 1.6499999999999986
1 0 0 1 0 
2 -40.004999999999995 48.50500000000001 -1 0 0 1 1.5
1 0 0 1 0 
2 -13.334999999999996 40.00500000000001 -1 0 0 1 4.8500000000000014
1 0 0 1 0 
2 -13.334999999999996 48.50500000000001 -1 0 0 1 1.5
1 0 0 1 0 
2 13.335000000000006 13.335000000000004 -1 0 0 1 4.8499999999999996
1 0 0 1 0 
2 13.335000000000006 21.835000000000008 -1 0 0 1 1.5
1 0 0 1 0 
2 40.00500000000001 13.335000000000006 -1 0 0 1 4.8500000000000014
1 0 0 1 0 
2 40.00500000000001 21.835000000000008 -1 0 0 1 1.5
1 0 0 1 0 
2 13.335000000000006 40.00500000000001 -1 0 0 1 4.8499999999999996
1 0 0 1 0 
2 13.335000000000006 48.50500000000001 -1 0 0 1 1.5
1 0 0 1 0 
2 40.00500000000001 40.00500000000001 -1 0 0 1 4.8500000000000014
1 0 0 1 0 
2 40.00500000000001 48.50500000000001 -1 0 0 1 1.5
1 0 0 1 0 
2 50.000000000000256 50.000000000001094 -1 0 0 1 1.6499999999999986
1 0 0 1 0 
1 -51.799999999999997 -52.175000000000004 1 0 
1 0 -1 1 0 
1 51.800000000000004 52.175000000000004 -1 0 
1 0 -1 1 0 
2 -51.799999999999997 -51.800000000000004 -1 0 0 1 0.375
1 0 -1 1 0 
2 -51.799999999999997 51.800000000000004 -1 0 0 1 0.375
1 0 -1 1 0 
1 -52.174999999999997 51.800000000000004 0 -1 
1 0 -1 1 0 
2 -50.000000000000135 -49.999999999999062 -1 0 -0 -1 0.875
1 6.2831853071795862 0.22500000000000009 -1 0 
2 -40.004999999999995 -40.004999999999995 -1 0 -0 -1 4.8500000000000014
1 6.2831853071795862 1 -1 0 
2 -40.004999999999995 -31.504999999999995 -1 0 -0 -1 1.5
1 6.2831853071795862 1 -1 0 
2 -13.334999999999996 -40.004999999999995 -1 0 -0 -1 4.8500000000000014
1 6.2831853071795862 1 -1 0 
2 -13.334999999999996 -31.504999999999995 -1 0 -0 -1 1.5
1 6.2831853071795862 1 -1 0 
2 -40.004999999999995 -13.334999999999997 -1 0 -0 -1 4.8500000000000014
1 6.2831853071795862 1 -1 0 
2 -40.004999999999995 -4.834999999999992 -1 0 -0 -1 1.5
1 6.2831853071795862 1 -1 0 
2 -13.334999999999997 -13.334999999999997 -1 0 -0 -1 4.8499999999999996
1 6.2831853071795862 1 -1 0 
2 -13.334999999999996 -4.834999999999992 -1 0 -0 -1 1.5
1 6.2831853071795862 1 -1 0 
2 13.335000000000006 -40.004999999999995 -1 0 -0 -1 4.8499999999999996
1 6.2831853071795862 1 -1 0 
2 13.335000000000006 -31.504999999999995 -1 0 -0 -1 1.5
1 6.2831853071795862 1 -1 0 
2 49.999999999999851 -49.999999999999687 -1 0 -0 -1 0.875
1 6.2831853071795862 0.22500000000000009 -1 0 
2 40.00500000000001 -40.004999999999995 -1 0 -0 -1 4.8500000000000014
1 6.2831853071795862 1 -1 0 
2 40.00500000000001 -31.504999999999995 -1 0 -0 -1 1.5
1 6.2831853071795862 1 -1 0 
2 13.335000000000004 -13.334999999999997 -1 0 -0 -1 4.8499999999999996
1 6.2831853071795862 1 -1 0 
2 13.335000000000006 -4.8349999999999911 -1 0 -0 -1 1.5
1 6.2831853071795862 1 -1 0 
2 40.00500000000001 -13.334999999999996 -1 0 -0 -1 4.8500000000000014
1 6.2831853071795862 1 -1 0 
2 40.00500000000001 -4.8349999999999911 -1 0 -0 -1 1.5
1 6.2831853071795862 1 -1 0 
2 -40.004999999999995 13.335000000000004 -1 0 -0 -1 4.8500000000000014
1 6.2831853071795862 1 -1 0 
2 -40.004999999999995 21.835000000000008 -1 0 -0 -1 1.5
1 6.2831853071795862 1 -1 0 
2 -13.334999999999992 13.335000000000004 -1 0 -0 -1 4.8499999999999979
1 6.2831853071795862 1 -1 0 
2 -13.334999999999996 21.835000000000008 -1 0 -0 -1 1.5
1 6.2831853071795862 1 -1 0 
2 -40.005000000000003 40.00500000000001 -1 0 -0 -1 4.8500000000000014
1 6.2831853071795862 1 -1 0 
2 -49.999999999999744 50.000000000001094 -1 0 -0 -1 0.875
1 6.2831853071795862 0.22500000000000009 -1 0 
2 -40.004999999999995 48.50500000000001 -1 0 -0 -1 1.5
1 6.2831853071795862 1 -1 0 
2 -13.334999999999996 40.00500000000001 -1 0 -0 -1 4.8500000000000014
1 6.2831853071795862 1 -1 0 
2 -13.334999999999996 48.50500000000001 -1 0 -0 -1 1.5
1 6.2831853071795862 1 -1 0 
2 13.335000000000006 13.335000000000004 -1 0 -0 -1 4.8499999999999996
1 6.2831853071795862 1 -1 0 
2 13.335000000000006 21.835000000000008 -1 0 -0 -1 1.5
1 6.2831853071795862 1 -1 0 
2 40.00500000000001 13.335000000000006 -1 0 -0 -1 4.8500000000000014
1 6.2831853071795862 1 -1 0 
2 40.00500000000001 21.835000000000008 -1 0 -0 -1 1.5
1 6.2831853071795862 1 -1 0 
2 13.335000000000006 40.00500000000001 -1 0 -0 -1 4.8499999999999996
1 6.2831853071795862 1 -1 0 
2 13.335000000000006 48.50500000000001 -1 0 -0 -1 1.5
1 6.2831853071795862 1 -1 0 
2 40.00500000000001 40.00500000000001 -1 0 -0 -1 4.8500000000000014
1 6.2831853071795862 1 -1 0 
2 40.00500000000001 48.50500000000001 -1 0 -0 -1 1.5
1 6.2831853071795862 1 -1 0 
2 50.000000000000256 50.000000000001094 -1 0 -0 -1 0.875
1 6.2831853071795862 0.22500000000000009 -1 0 
1 0 0 0 -1 
1 4.7123889803846959 0 0 -1 
1 103.59999999999999 0 0 -1 
1 1.5707963267948999 0 0 -1 
1 6.2831853071795871 0 0 -1 
1 103.60000000000001 0 0 -1 
1 8.3999999999999992e-15 0 0 -1 
1 0 0 0 -1 
1 0 1.0960155108391487 1 0 
1 0 0 1 0 
1 6.2831853071795862 0 0 1 
1 0 0 0 1 
1 6.2831853071795862 0 0 1 
1 0 0 0 1 
1 6.2831853071795862 0 0 1 
1 0 0 0 1 
1 6.2831853071795862 0 0 1 
1 0 0 0 1 
1 6.2831853071795862 0 0 1 
1 0 0 0 1 
1 6.2831853071795862 0 0 1 
1 0 0 0 1 
1 6.2831853071795862 0 0 1 
1 0 0 0 1 
1 6.2831853071795862 0 0 1 
1 0 0 0 1 
1 6.2831853071795862 0 0 1 
1 0 0 0 1 
1 6.2831853071795862 0 0 1 
1 0 0 0 1 
1 6.2831853071795862 0 0 1 
1 0 0 0 1 
1 0 1.0960155108391487 1 0 
1 0 0 1 0 
1 6.2831853071795862 0 0 1 
1 0 0 0 1 
1 6.2831853071795862 0 0 1 
1 0 0 0 1 
1 6.2831853071795862 0 0 1 
1 0 0 0 1 
1 6.2831853071795862 0 0 1 
1 0 0 0 1 
1 6.2831853071795862 0 0 1 
1 0 0 0 1 
1 6.2831853071795862 0 0 1 
1 0 0 0 1 
1 6.2831853071795862 0 0 1 
1 0 0 0 1 
1 6.2831853071795862 0 0 1 
1 0 0 0 1 
1 6.2831853071795862 0 0 1 
1 0 0 0 1 
1 6.2831853071795862 0 0 1 
1 0 0 0 1 
1 6.2831853071795862 0 0 1 
1 0 0 0 1 
1 6.2831853071795862 0 0 1 
1 0 0 0 1 
1 0 1.0960155108391487 1 0 
1 0 0 1 0 
1 6.2831853071795862 0 0 1 
1 0 0 0 1 
1 6.2831853071795862 0 0 1 
1 0 0 0 1 
1 6.2831853071795862 0 0 1 
1 0 0 0 1 
1 6.2831853071795862 0 0 1 
1 0 0 0 1 
1 6.2831853071795862 0 0 1 
1 0 0 0 1 
1 6.2831853071795862 0 0 1 
1 0 0 0 1 
1 6.2831853071795862 0 0 1 
1 0 0 0 1 
1 6.2831853071795862 0 0 1 
1 0 0 0 1 
1 6.2831853071795862 0 0 1 
1 0 0 0 1 
1 6.2831853071795862 0 0 1 
1 0 0 0 1 
1 6.2831853071795862 0 0 1 
1 0 0 0 1 
1 6.2831853071795862 0 0 1 
1 0 0 0 1 
1 0 1.0960155108391487 1 0 
1 0 0 1 0 
1 6.2831853071795862 0 0 1 
1 0 0 0 1 
1 6.2831853071795862 0 0 1 
1 0 0 0 1 
1 6.2831853071795862 0 0 1 
1 0 0 0 1 
1 6.2831853071795862 0 0 1 
1 0 0 0 1 
1 6.2831853071795862 0 0 1 
1 0 0 0 1 
Curves 140
1 -52.174999999999997 -51.800000000000011 0 -0 -0 -1 
1 -52.174999999999997 51.799999999999997 0 -0 -0 -1 
1 -52.174999999999997 -51.800000000000011 0 0 1 0 
1 -52.174999999999997 -51.800000000000011 0 0 1 0 
1 -51.799999999999997 -52.175000000000011 0 -0 -0 -1 
2 -51.799999999999997 -51.800000000000011 0 0 0 1 1 0 -0 -0 1 0 0.375
2 -51.799999999999997 -51.800000000000011 0 0 0 1 1 0 -0 -0 1 0 0.375
1 -51.799999999999997 52.174999999999997 0 -0 -0 -1 
2 -51.799999999999997 51.799999999999997 0 0 0 1 1 0 -0 -0 1 0 0.375
2 -51.799999999999997 51.799999999999997 0 0 0 1 1 0 -0 -0 1 0 0.375
1 51.800000000000004 -52.175000000000011 0 -1 0 0 
1 -51.799999999999997 52.174999999999997 0 1 0 0 
2 51.800000000000004 -51.800000000000011 0 0 0 1 1 0 -0 -0 1 0 0.375
2 51.800000000000004 51.799999999999997 0 0 0 1 1 0 -0 -0 1 0 0.375
1 52.175000000000004 51.799999999999997 0 0 -1 0 
2 0 0 0 0 0 1 1 0 -0 -0 1 0 1.6499999999999999
2 0 0 0 0 0 1 1 0 -0 -0 1 0 4.8499999999999996
2 0 0 0 0 0 1 1 0 -0 -0 1 0 1.5
2 0 0 0 0 0 1 1 0 -0 -0 1 0 4.8499999999999996
2 0 0 0 0 0 1 1 0 -0 -0 1 0 1.5
2 0 0 0 0 0 1 1 0 -0 -0 1 0 4.8499999999999996
2 0 0 0 0 0 1 1 0 -0 -0 1 0 1.5
2 0 0 0 0 0 1 1 0 -0 -0 1 0 4.8499999999999996
2 0 0 0 0 0 1 1 0 -0 -0 1 0 1.5
2 0 0 0 0 0 1 1 0 -0 -0 1 0 4.8499999999999996
2 0 0 0 0 0 1 1 0 -0 -0 1 0 1.5
2 0 0 0 0 0 1 1 0 -0 -0 1 0 1.6499999999999999
2 0 0 0 0 0 1 1 0 -0 -0 1 0 4.8499999999999996
2 0 0 0 0 0 1 1 0 -0 -0 1 0 1.5
2 0 0 0 0 0 1 1 0 -0 -0 1 0 4.8499999999999996
2 0 0 0 0 0 1 1 0 -0 -0 1 0 1.5
2 0 0 0 0 0 1 1 0 -0 -0 1 0 4.8499999999999996
2 0 0 0 0 0 1 1 0 -0 -0 1 0 1.5
2 0 0 0 0 0 1 1 0 -0 -0 1 0 4.8499999999999996
2 0 0 0 0 0 1 1 0 -0 -0 1 0 1.5
2 0 0 0 0 0 1 1 0 -0 -0 1 0 4.8499999999999996
2 0 0 0 0 0 1 1 0 -0 -0 1 0 1.5
2 0 0 0 0 0 1 1 0 -0 -0 1 0 4.8499999999999996
2 0 0 0 0 0 1 1 0 -0 -0 1 0 1.6499999999999999
2 0 0 0 0 0 1 1 0 -0 -0 1 0 1.5
2 0 0 0 0 0 1 1 0 -0 -0 1 0 4.8499999999999996
2 0 0 0 0 0 1 1 0 -0 -0 1 0 1.5
2 0 0 0 0 0 1 1 0 -0 -0 1 0 4.8499999999999996
2 0 0 0 0 0 1 1 0 -0 -0 1 0 1.5
2 0 0 0 0 0 1 1 0 -0 -0 1 0 4.8499999999999996
2 0 0 0 0 0 1 1 0 -0 -0 1 0 1.5
2 0 0 0 0 0 1 1 0 -0 -0 1 0 4.8499999999999996
2 0 0 0 0 0 1 1 0 -0 -0 1 0 1.5
2 0 0 0 0 0 1 1 0 -0 -0 1 0 4.8499999999999996
2 0 0 0 0 0 1 1 0 -0 -0 1 0 1.5
2 0 0 0 0 0 1 1 0 -0 -0 1 0 1.6499999999999999
1 51.800000000000004 -52.175000000000011 0 -1 0 0 
1 -51.799999999999997 52.174999999999997 0 1 0 0 
2 51.800000000000004 -51.800000000000011 0 0 0 1 1 0 -0 -0 1 0 0.375
2 51.800000000000004 51.799999999999997 0 0 0 1 1 0 -0 -0 1 0 0.375
1 52.175000000000004 51.799999999999997 0 0 -1 0 
2 50.000000000000142 -49.999999999999069 -1 0 0 -1 1 0 0 0 -1 0 0.875
2 40.005000000000003 -40.005000000000003 -1 0 0 -1 1 0 0 0 -1 0 4.8499999999999996
2 40.005000000000003 -31.505000000000003 -1 0 0 -1 1 0 0 0 -1 0 1.5
2 13.335000000000001 -40.005000000000003 -1 0 0 -1 1 0 0 0 -1 0 4.8499999999999996
2 13.335000000000001 -31.505000000000003 -1 0 0 -1 1 0 0 0 -1 0 1.5
2 40.005000000000003 -13.335000000000003 -1 0 0 -1 1 0 0 0 -1 0 4.8499999999999996
2 40.005000000000003 -4.8349999999999982 -1 0 0 -1 1 0 0 0 -1 0 1.5
2 13.335000000000003 -13.335000000000003 -1 0 0 -1 1 0 0 0 -1 0 4.8499999999999996
2 13.335000000000001 -4.8349999999999982 -1 0 0 -1 1 0 0 0 -1 0 1.5
2 -13.335000000000001 -40.005000000000003 -1 0 0 -1 1 0 0 0 -1 0 4.8499999999999996
2 -13.335000000000001 -31.505000000000003 -1 0 0 -1 1 0 0 0 -1 0 1.5
2 -49.999999999999844 -49.999999999999694 -1 0 0 -1 1 0 0 0 -1 0 0.875
2 -40.005000000000003 -40.005000000000003 -1 0 0 -1 1 0 0 0 -1 0 4.8499999999999996
2 -40.005000000000003 -31.505000000000003 -1 0 0 -1 1 0 0 0 -1 0 1.5
2 -13.334999999999999 -13.335000000000003 -1 0 0 -1 1 0 0 0 -1 0 4.8499999999999996
2 -13.335000000000001 -4.8349999999999973 -1 0 0 -1 1 0 0 0 -1 0 1.5
2 -40.005000000000003 -13.335000000000001 -1 0 0 -1 1 0 0 0 -1 0 4.8499999999999996
2 -40.005000000000003 -4.8349999999999973 -1 0 0 -1 1 0 0 0 -1 0 1.5
2 40.005000000000003 13.334999999999999 -1 0 0 -1 1 0 0 0 -1 0 4.8499999999999996
2 40.005000000000003 21.835000000000001 -1 0 0 -1 1 0 0 0 -1 0 1.5
2 13.334999999999997 13.334999999999999 -1 0 0 -1 1 0 0 0 -1 0 4.8499999999999996
2 13.335000000000001 21.835000000000001 -1 0 0 -1 1 0 0 0 -1 0 1.5
2 40.00500000000001 40.005000000000003 -1 0 0 -1 1 0 0 0 -1 0 4.8499999999999996
2 49.999999999999751 50.000000000001087 -1 0 0 -1 1 0 0 0 -1 0 0.875
2 40.005000000000003 48.505000000000003 -1 0 0 -1 1 0 0 0 -1 0 1.5
2 13.335000000000001 40.005000000000003 -1 0 0 -1 1 0 0 0 -1 0 4.8499999999999996
2 13.335000000000001 48.505000000000003 -1 0 0 -1 1 0 0 0 -1 0 1.5
2 -13.335000000000001 13.334999999999999 -1 0 0 -1 1 0 0 0 -1 0 4.8499999999999996
2 -13.335000000000001 21.835000000000001 -1 0 0 -1 1 0 0 0 -1 0 1.5
2 -40.005000000000003 13.335000000000001 -1 0 0 -1 1 0 0 0 -1 0 4.8499999999999996
2 -40.005000000000003 21.835000000000001 -1 0 0 -1 1 0 0 0 -1 0 1.5
2 -13.335000000000001 40.005000000000003 -1 0 0 -1 1 0 0 0 -1 0 4.8499999999999996
2 -13.335000000000001 48.505000000000003 -1 0 0 -1 1 0 0 0 -1 0 1.5
2 -40.005000000000003 40.005000000000003 -1 0 0 -1 1 0 0 0 -1 0 4.8499999999999996
2 -40.005000000000003 48.505000000000003 -1 0 0 -1 1 0 0 0 -1 0 1.5
2 -50.000000000000249 50.000000000001087 -1 0 0 -1 1 0 0 0 -1 0 0.875
1 51.800000000000004 -52.175000000000011 0 -0 -0 -1 
1 51.799999999999997 52.174999999999997 0 -0 -0 -1 
1 52.175000000000004 -51.800000000000011 0 -0 -0 -1 
1 52.175000000000004 51.799999999999997 0 -0 -0 -1 
2 0 0 -0.77499999999999991 0 0 1 1 0 -0 -0 1 0 0.875
1 1.6499999999999999 0 0 -0.70710678118654757 0 -0.70710678118654757 
1 4.8499999999999996 0 0 -6.0000000000000001e-17 0 -1 
1 1.5 0 0 -6.0000000000000001e-17 0 -1 
1 4.8499999999999996 0 0 -6.0000000000000001e-17 0 -1 
1 1.5 0 0 -6.0000000000000001e-17 0 -1 
1 4.8499999999999996 0 0 -6.0000000000000001e-17 0 -1 
1 1.5 0 0 -6.0000000000000001e-17 0 -1 
1 4.8499999999999996 0 0 -6.0000000000000001e-17 0 -1 
1 1.5 0 0 -6.0000000000000001e-17 0 -1 
1 4.8499999999999996 0 0 -6.0000000000000001e-17 0 -1 
1 1.5 0 0 -6.0000000000000001e-17 0 -1 
2 0 0 -0.77499999999999991 0 0 1 1 0 -0 -0 1 0 0.875
1 1.6499999999999999 0 0 -0.70710678118654757 0 -0.70710678118654757 
1 4.8499999999999996 0 0 -6.0000000000000001e-17 0 -1 
1 1.5 0 0 -6.0000000000000001e-17 0 -1 
1 4.8499999999999996 0 0 -6.0000000000000001e-17 0 -1 
1 1.5 0 0 -6.0000000000000001e-17 0 -1 
1 4.8499999999999996 0 0 -6.0000000000000001e-17 0 -1 
1 1.5 0 0 -6.0000000000000001e-17 0 -1 
1 4.8499999999999996 0 0 -6.0000000000000001e-17 0 -1 
1 1.5 0 0 -6.0000000000000001e-17 0 -1 
1 4.8499999999999996 0 0 -6.0000000000000001e-17 0 -1 
1 1.5 0 0 -6.0000000000000001e-17 0 -1 
1 4.8499999999999996 0 0 -6.0000000000000001e-17 0 -1 
2 0 0 -0.77499999999999991 0 0 1 1 0 -0 -0 1 0 0.875
1 1.6499999999999999 0 0 -0.70710678118654757 0 -0.70710678118654757 
1 1.5 0 0 -6.0000000000000001e-17 0 -1 
1 4.8499999999999996 0 0 -6.0000000000000001e-17 0 -1 
1 1.5 0 0 -6.0000000000000001e-17 0 -1 
1 4.8499999999999996 0 0 -6.0000000000000001e-17 0 -1 
1 1.5 0 0 -6.0000000000000001e-17 0 -1 
1 4.8499999999999996 0 0 -6.0000000000000001e-17 0 -1 
1 1.5 0 0 -6.0000000000000001e-17 0 -1 
1 4.8499999999999996 0 0 -6.0000000000000001e-17 0 -1 
1 1.5 0 0 -6.0000000000000001e-17 0 -1 
1 4.8499999999999996 0 0 -6.0000000000000001e-17 0 -1 
1 1.5 0 0 -6.0000000000000001e-17 0 -1 
2 0 0 -0.77499999999999991 0 0 1 1 0 -0 -0 1 0 0.875
1 1.6499999999999999 0 0 -0.70710678118654757 0 -0.70710678118654757 
1 0.875 0 -0.77499999999999991 -6.0000000000000001e-17 0 -1 
1 0.875 0 -0.77499999999999991 -6.0000000000000001e-17 0 -1 
1 0.875 0 -0.77499999999999991 -6.0000000000000001e-17 0 -1 
1 0.875 0 -0.77499999999999991 -6.0000000000000001e-17 0 -1 
Polygon3D 0
PolygonOnTriangulations 0
Surfaces 50
1 -52.174999999999997 -51.800000000000011 0 1 0 0 -0 1 0 0 -0 1 
2 -51.799999999999997 -51.800000000000011 0 0 0 1 1 0 -0 -0 1 0 0.375
2 -51.799999999999997 51.799999999999997 0 0 0 1 1 0 -0 -0 1 0 0.375
1 4.8099999999999997e-15 -6.1100000000000003e-15 0 -0 -0 -1 -1 0 0 0 1 -0 
1 4.8099999999999997e-15 -6.1100000000000003e-15 0 -0 -0 -1 -1 0 0 0 1 -0 
1 51.800000000000004 -52.175000000000011 0 0 1 0 -1 0 0 0 -0 1 
1 -51.799999999999997 52.174999999999997 0 0 -1 0 1 0 0 -0 0 1 
2 51.800000000000004 -51.800000000000011 0 0 0 1 1 0 -0 -0 1 0 0.375
2 51.800000000000004 51.799999999999997 0 0 0 1 1 0 -0 -0 1 0 0.375
1 52.175000000000004 51.799999999999997 0 -1 0 0 0 -1 0 0 0 1 
3 0 0 0 -0 -0 -1 1 0 0 -0 1 -0 1.6499999999999999
-0.78539816339744828
2 0 0 0 -0 -0 -1 1 0 0 -0 1 -0 4.8499999999999996
2 0 0 0 -0 -0 -1 1 0 0 -0 1 -0 1.5
2 0 0 0 -0 -0 -1 1 0 0 -0 1 -0 4.8499999999999996
2 0 0 0 -0 -0 -1 1 0 0 -0 1 -0 1.5
2 0 0 0 -0 -0 -1 1 0 0 -0 1 -0 4.8499999999999996
2 0 0 0 -0 -0 -1 1 0 0 -0 1 -0 1.5
2 0 0 0 -0 -0 -1 1 0 0 -0 1 -0 4.8499999999999996
2 0 0 0 -0 -0 -1 1 0 0 -0 1 -0 1.5
2 0 0 0 -0 -0 -1 1 0 0 -0 1 -0 4.8499999999999996
2 0 0 0 -0 -0 -1 1 0 0 -0 1 -0 1.5
3 0 0 0 -0 -0 -1 1 0 0 -0 1 -0 1.6499999999999999
-0.78539816339744828
2 0 0 0 -0 -0 -1 1 0 0 -0 1 -0 4.8499999999999996
2 0 0 0 -0 -0 -1 1 0 0 -0 1 -0 1.5
2 0 0 0 -0 -0 -1 1 0 0 -0 1 -0 4.8499999999999996
2 0 0 0 -0 -0 -1 1 0 0 -0 1 -0 1.5
2 0 0 0 -0 -0 -1 1 0 0 -0 1 -0 4.8499999999999996
2 0 0 0 -0 -0 -1 1 0 0 -0 1 -0 1.5
2 0 0 0 -0 -0 -1 1 0 0 -0 1 -0 4.8499999999999996
2 0 0 0 -0 -0 -1 1 0 0 -0 1 -0 1.5
2 0 0 0 -0 -0 -1 1 0 0 -0 1 -0 4.8499999999999996
2 0 0 0 -0 -0 -1 1 0 0 -0 1 -0 1.5
2 0 0 0 -0 -0 -1 1 0 0 -0 1 -0 4.8499999999999996
3 0 0 0 -0 -0 -1 1 0 0 -0 1 -0 1.6499999999999999
-0.78539816339744828
2 0 0 0 -0 -0 -1 1 0 0 -0 1 -0 1.5
2 0 0 0 -0 -0 -1 1 0 0 -0 1 -0 4.8499999999999996
2 0 0 0 -0 -0 -1 1 0 0 -0 1 -0 1.5
2 0 0 0 -0 -0 -1 1 0 0 -0 1 -0 4.8499999999999996
2 0 0 0 -0 -0 -1 1 0 0 -0 1 -0 1.5
2 0 0 0 -0 -0 -1 1 0 0 -0 1 -0 4.8499999999999996
2 0 0 0 -0 -0 -1 1 0 0 -0 1 -0 1.5
2 0 0 0 -0 -0 -1 1 0 0 -0 1 -0 4.8499999999999996
2 0 0 0 -0 -0 -1 1 0 0 -0 1 -0 1.5
2 0 0 0 -0 -0 -1 1 0 0 -0 1 -0 4.8499999999999996
2 0 0 0 -0 -0 -1 1 0 0 -0 1 -0 1.5
3 0 0 0 -0 -0 -1 1 0 0 -0 1 -0 1.6499999999999999
-0.78539816339744828
2 0 0 -0.77499999999999991 -0 -0 -1 1 0 0 -0 1 -0 0.875
2 0 0 -0.77499999999999991 -0 -0 -1 1 0 0 -0 1 -0 0.875
2 0 0 -0.77499999999999991 -0 -0 -1 1 0 0 -0 1 -0 0.875
2 0 0 -0.77499999999999991 -0 -0 -1 1 0 0 -0 1 -0 0.875
Triangulations 0

TShapes 407
Ve
1e-07
-52.175 -51.8 0
0 0

0101101
*
Ve
1e-07
-52.175 -51.8 -1
0 0

0101101
*
Ed
 1e-07 1 1 0
1  1 0 0 1
2  1 1 0 0 1
2  2 2 0 0 1
4 G1 1 0 2 0
0

0101000
+407 11 -406 11 *
Ve
1e-07
-52.175 51.8 0
0 0

0101101
*
Ve
1e-07
-52.175 51.8 -1
0 0

0101101
*
Ed
 1e-07 1 1 0
1  2 0 0 1
2  3 1 0 0 1
2  4 3 0 0 1
4 G1 1 0 3 0
0

0101000
+404 11 -403 11 *
Ed
 1e-07 1 1 0
1  3 0 0 103.6
2  5 1 15 0 103.6
2  6 4 16 0 103.6
0

0101000
+407 17 -404 17 *
Ed
 1e-07 1 1 0
1  4 0 0 103.6
2  7 1 20 0 103.6
2  8 5 16 0 103.6
0

0101000
+406 21 -403 21 *
Wi

0101100
+405 0 -402 0 -401 14 +400 19 *
Fa
0  1e-07 1 0

0111000
+399 0 *
Ve
1.00000004e-07
-51.8 -52.175 0
0 0

0101101
*
Ve
1.00000004e-07
-51.8 -52.175 -1
0 0

0101101
*
Ed
 1.00000004e-07 1 1 0
1  5 0 0 1
2  9 2 0 0 1
2  10 6 0 0 1
4 G1 2 0 6 0
0

0101000
+397 11 -396 11 *
Ed
 1e-07 1 1 0
1  6 0 3.14159265358979 4.71238898038469
2  11 2 15 3.14159265358979 4.71238898038469
2  12 4 16 3.14159265358979 4.71238898038469
0

0101000
+407 17 -397 17 *
Ed
 1e-07 1 1 0
1  7 0 3.14159265358979 4.71238898038469
2  13 2 20 3.14159265358979 4.71238898038469
2  14 5 16 3.14159265358979 4.71238898038469
0

0101000
+406 21 -396 21 *
Wi

0101100
+405 0 -395 0 -394 14 +393 19 *
Fa
0  1e-07 2 0

0111000
+392 0 *
Ve
1e-07
-51.8 52.175 0
0 0

0101101
*
Ve
1e-07
-51.8 52.175 -1
0 0

0101101
*
Ed
 1e-07 1 1 0
1  8 0 0 1
2  15 3 0 0 1
2  16 7 0 0 1
4 G1 3 0 7 0
0

0101000
+390 11 -389 11 *
Ed
 1e-07 1 1 0
1  9 0 1.5707963267949 3.14159265358979
2  17 3 15 1.5707963267949 3.14159265358979
2  18 4 16 1.5707963267949 3.14159265358979
0

0101000
+390 17 -404 17 *
Ed
 1e-07 1 1 0
1  10 0 1.5707963267949 3.14159265358979
2  19 3 20 1.5707963267949 3.14159265358979
2  20 5 16 1.5707963267949 3.14159265358979
0

0101000
+389 21 -403 21 *
Wi

0101100
+388 0 -402 0 -387 14 +386 19 *
Fa
0  1e-07 3 0

0111000
+385 0 *
Ve
1e-07
51.8 -52.175 0
0 0

0101101
*
Ed
 1e-07 1 1 0
1  11 0 0 103.6
2  21 4 16 0 103.6
2  22 6 15 0 103.6
0

0101000
+383 17 -397 17 *
Ve
1.00000004e-07
51.8 52.175 0
0 0

0101101
*
Ed
 1e-07 1 1 0
1  12 0 0 103.6
2  23 4 16 0 103.6
2  24 7 15 0 103.6
0

0101000
+390 17 -381 17 *
Ve
1e-07
52.175 -51.8 0
0 0

0101101
*
Ed
 1e-07 1 1 0
1  13 0 4.7123889803847 6.28318530717959
2  25 4 16 4.7123889803847 6.28318530717959
2  26 8 15 4.7123889803847 6.28318530717959
0

0101000
+383 17 -379 17 *
Ve
1e-07
52.175 51.8 0
0 0

0101101
*
Ed
 1e-07 1 1 0
1  14 0 8e-15 1.5707963267949
2  27 4 16 8e-15 1.5707963267949
2  28 9 15 8e-15 1.5707963267949
0

0101000
+377 17 -381 17 *
Ed
 1e-07 1 1 0
1  15 0 0 103.6
2  29 4 16 0 103.6
2  30 10 15 0 103.6
0

0101000
+377 17 -379 17 *
Wi

0101100
+401 23 -394 23 -387 23 +382 23 +380 23 -378 23 -376 23 +375 23 *
Ve
5.0100000021e-05
51.6500000000001 -49.9999999999991 0
0 0

0101101
*
Ed
 1e-07 1 1 0
1  16 0 0 6.28318530717959
2  31 4 26 0 6.28318530717959
2  32 11 0 0 6.28318530717959
0

0101000
+373 27 -373 27 *
Wi

0101100
+372 25 *
Ve
1e-07
44.855 -40.005 0
0 0

0101101
*
Ed
 1e-07 1 1 0
1  17 0 0 6.28318530717959
2  33 4 30 0 6.28318530717959
2  34 12 0 0 6.28318530717959
0

0101000
+370 31 -370 31 *
Wi

0101100
+369 29 *
Ve
1e-07
41.505 -31.505 0
0 0

0101101
*
Ed
 1e-07 1 1 0
1  18 0 0 6.28318530717959
2  35 4 33 0 6.28318530717959
2  36 13 0 0 6.28318530717959
0

0101000
+367 34 -367 34 *
Wi

0101100
+366 32 *
Ve
1e-07
18.185 -40.005 0
0 0

0101101
*
Ed
 1e-07 1 1 0
1  19 0 0 6.28318530717959
2  37 4 37 0 6.28318530717959
2  38 14 0 0 6.28318530717959
0

0101000
+364 38 -364 38 *
Wi

0101100
+363 36 *
Ve
1e-07
14.835 -31.505 0
0 0

0101101
*
Ed
 1e-07 1 1 0
1  20 0 0 6.28318530717959
2  39 4 40 0 6.28318530717959
2  40 15 0 0 6.28318530717959
0

0101000
+361 41 -361 41 *
Wi

0101100
+360 39 *
Ve
1e-07
44.855 -13.335 0
0 0

0101101
*
Ed
 1e-07 1 1 0
1  21 0 0 6.28318530717959
2  41 4 44 0 6.28318530717959
2  42 16 0 0 6.28318530717959
0

0101000
+358 45 -358 45 *
Wi

0101100
+357 43 *
Ve
1e-07
41.505 -4.835 0
0 0

0101101
*
Ed
 1e-07 1 1 0
1  22 0 0 6.28318530717959
2  43 4 47 0 6.28318530717959
2  44 17 0 0 6.28318530717959
0

0101000
+355 48 -355 48 *
Wi

0101100
+354 46 *
Ve
1e-07
18.185 -13.335 0
0 0

0101101
*
Ed
 1e-07 1 1 0
1  23 0 0 6.28318530717959
2  45 4 51 0 6.28318530717959
2  46 18 0 0 6.28318530717959
0

0101000
+352 52 -352 52 *
Wi

0101100
+351 50 *
Ve
1e-07
14.835 -4.835 0
0 0

0101101
*
Ed
 1e-07 1 1 0
1  24 0 0 6.28318530717959
2  47 4 54 0 6.28318530717959
2  48 19 0 0 6.28318530717959
0

0101000
+349 55 -349 55 *
Wi

0101100
+348 53 *
Ve
1e-07
-8.485 -40.005 0
0 0

0101101
*
Ed
 1e-07 1 1 0
1  25 0 0 6.28318530717959
2  49 4 58 0 6.28318530717959
2  50 20 0 0 6.28318530717959
0

0101000
+346 59 -346 59 *
Wi

0101100
+345 57 *
Ve
1e-07
-11.835 -31.505 0
0 0

0101101
*
Ed
 1e-07 1 1 0
1  26 0 0 6.28318530717959
2  51 4 61 0 6.28318530717959
2  52 21 0 0 6.28318530717959
0

0101000
+343 62 -343 62 *
Wi

0101100
+342 60 *
Ve
1e-07
-48.3499999999998 -49.9999999999997 0
0 0

0101101
*
Ed
 1e-07 1 1 0
1  27 0 0 6.28318530717959
2  53 4 65 0 6.28318530717959
2  54 22 0 0 6.28318530717959
0

0101000
+340 66 -340 66 *
Wi

0101100
+339 64 *
Ve
1e-07
-35.155 -40.005 0
0 0

0101101
*
Ed
 1e-07 1 1 0
1  28 0 0 6.28318530717959
2  55 4 69 0 6.28318530717959
2  56 23 0 0 6.28318530717959
0

0101000
+337 70 -337 70 *
Wi

0101100
+336 68 *
Ve
1e-07
-38.505 -31.505 0
0 0

0101101
*
Ed
 1e-07 1 1 0
1  29 0 0 6.28318530717959
2  57 4 72 0 6.28318530717959
2  58 24 0 0 6.28318530717959
0

0101000
+334 73 -334 73 *
Wi

0101100
+333 71 *
Ve
1e-07
-8.485 -13.335 0
0 0

0101101
*
Ed
 1e-07 1 1 0
1  30 0 0 6.28318530717959
2  59 4 76 0 6.28318530717959
2  60 25 0 0 6.28318530717959
0

0101000
+331 77 -331 77 *
Wi

0101100
+330 75 *
Ve
1e-07
-11.835 -4.835 0
0 0

0101101
*
Ed
 1e-07 1 1 0
1  31 0 0 6.28318530717959
2  61 4 79 0 6.28318530717959
2  62 26 0 0 6.28318530717959
0

0101000
+328 80 -328 80 *
Wi

0101100
+327 78 *
Ve
1e-07
-35.155 -13.335 0
0 0

0101101
*
Ed
 1e-07 1 1 0
1  32 0 0 6.28318530717959
2  63 4 83 0 6.28318530717959
2  64 27 0 0 6.28318530717959
0

0101000
+325 84 -325 84 *
Wi

0101100
+324 82 *
Ve
1e-07
-38.505 -4.835 0
0 0

0101101
*
Ed
 1e-07 1 1 0
1  33 0 0 6.28318530717959
2  65 4 86 0 6.28318530717959
2  66 28 0 0 6.28318530717959
0

0101000
+322 87 -322 87 *
Wi

0101100
+321 85 *
Ve
1e-07
44.855 13.335 0
0 0

0101101
*
Ed
 1e-07 1 1 0
1  34 0 0 6.28318530717959
2  67 4 90 0 6.28318530717959
2  68 29 0 0 6.28318530717959
0

0101000
+319 91 -319 91 *
Wi

0101100
+318 89 *
Ve
1e-07
41.505 21.835 0
0 0

0101101
*
Ed
 1e-07 1 1 0
1  35 0 0 6.28318530717959
2  69 4 93 0 6.28318530717959
2  70 30 0 0 6.28318530717959
0

0101000
+316 94 -316 94 *
Wi

0101100
+315 92 *
Ve
1e-07
18.185 13.335 0
0 0

0101101
*
Ed
 1e-07 1 1 0
1  36 0 0 6.28318530717959
2  71 4 97 0 6.28318530717959
2  72 31 0 0 6.28318530717959
0

0101000
+313 98 -313 98 *
Wi

0101100
+312 96 *
Ve
1e-07
14.835 21.835 0
0 0

0101101
*
Ed
 1e-07 1 1 0
1  37 0 0 6.28318530717959
2  73 4 100 0 6.28318530717959
2  74 32 0 0 6.28318530717959
0

0101000
+310 101 -310 101 *
Wi

0101100
+309 99 *
Ve
1e-07
44.855 40.005 0
0 0

0101101
*
Ed
 1e-07 1 1 0
1  38 0 0 6.28318530717959
2  75 4 104 0 6.28318530717959
2  76 33 0 0 6.28318530717959
0

0101000
+307 105 -307 105 *
Wi

0101100
+306 103 *
Ve
1e-07
51.6499999999997 50.0000000000011 0
0 0

0101101
*
Ed
 1e-07 1 1 0
1  39 0 0 6.28318530717959
2  77 4 108 0 6.28318530717959
2  78 34 0 0 6.28318530717959
0

0101000
+304 109 -304 109 *
Wi

0101100
+303 107 *
Ve
1e-07
41.505 48.505 0
0 0

0101101
*
Ed
 1e-07 1 1 0
1  40 0 0 6.28318530717959
2  79 4 111 0 6.28318530717959
2  80 35 0 0 6.28318530717959
0

0101000
+301 112 -301 112 *
Wi

0101100
+300 110 *
Ve
1e-07
18.185 40.005 0
0 0

0101101
*
Ed
 1e-07 1 1 0
1  41 0 0 6.28318530717959
2  81 4 115 0 6.28318530717959
2  82 36 0 0 6.28318530717959
0

0101000
+298 116 -298 116 *
Wi

0101100
+297 114 *
Ve
1e-07
14.835 48.505 0
0 0

0101101
*
Ed
 1e-07 1 1 0
1  42 0 0 6.28318530717959
2  83 4 118 0 6.28318530717959
2  84 37 0 0 6.28318530717959
0

0101000
+295 119 -295 119 *
Wi

0101100
+294 117 *
Ve
1e-07
-8.485 13.335 0
0 0

0101101
*
Ed
 1e-07 1 1 0
1  43 0 0 6.28318530717959
2  85 4 122 0 6.28318530717959
2  86 38 0 0 6.28318530717959
0

0101000
+292 123 -292 123 *
Wi

0101100
+291 121 *
Ve
1e-07
-11.835 21.835 0
0 0

0101101
*
Ed
 1e-07 1 1 0
1  44 0 0 6.28318530717959
2  87 4 125 0 6.28318530717959
2  88 39 0 0 6.28318530717959
0

0101000
+289 126 -289 126 *
Wi

0101100
+288 124 *
Ve
1e-07
-35.155 13.335 0
0 0

0101101
*
Ed
 1e-07 1 1 0
1  45 0 0 6.28318530717959
2  89 4 129 0 6.28318530717959
2  90 40 0 0 6.28318530717959
0

0101000
+286 130 -286 130 *
Wi

0101100
+285 128 *
Ve
1e-07
-38.505 21.835 0
0 0

0101101
*
Ed
 1e-07 1 1 0
1  46 0 0 6.28318530717959
2  91 4 132 0 6.28318530717959
2  92 41 0 0 6.28318530717959
0

0101000
+283 133 -283 133 *
Wi

0101100
+282 131 *
Ve
1e-07
-8.485 40.005 0
0 0

0101101
*
Ed
 1e-07 1 1 0
1  47 0 0 6.28318530717959
2  93 4 136 0 6.28318530717959
2  94 42 0 0 6.28318530717959
0

0101000
+280 137 -280 137 *
Wi

0101100
+279 135 *
Ve
1e-07
-11.835 48.505 0
0 0

0101101
*
Ed
 1e-07 1 1 0
1  48 0 0 6.28318530717959
2  95 4 139 0 6.28318530717959
2  96 43 0 0 6.28318530717959
0

0101000
+277 140 -277 140 *
Wi

0101100
+276 138 *
Ve
1e-07
-35.155 40.005 0
0 0

0101101
*
Ed
 1e-07 1 1 0
1  49 0 0 6.28318530717959
2  97 4 143 0 6.28318530717959
2  98 44 0 0 6.28318530717959
0

0101000
+274 144 -274 144 *
Wi

0101100
+273 142 *
Ve
1e-07
-38.505 48.505 0
0 0

0101101
*
Ed
 1e-07 1 1 0
1  50 0 0 6.28318530717959
2  99 4 146 0 6.28318530717959
2  100 45 0 0 6.28318530717959
0

0101000
+271 147 -271 147 *
Wi

0101100
+270 145 *
Ve
1e-07
-48.3500000000003 50.0000000000011 0
0 0

0101101
*
Ed
 1e-07 1 1 0
1  51 0 0 6.28318530717959
2  101 4 150 0 6.28318530717959
2  102 46 0 0 6.28318530717959
0

0101000
+268 151 -268 151 *
Wi

0101100
+267 149 *
Fa
0  1e-07 4 22

0111000
+374 0 +371 0 +368 0 +365 0 +362 0 +359 0 +356 0 +353 0 +350 0 +347 0 
+344 0 +341 0 +338 0 +335 0 +332 0 +329 0 +326 0 +323 0 +320 0 +317 0 
+314 0 +311 0 +308 0 +305 0 +302 0 +299 0 +296 0 +293 0 +290 0 +287 0 
+284 0 +281 0 +278 0 +275 0 +272 0 +269 0 +266 0 *
Ve
1e-07
51.8 -52.175 -1
0 0

0101101
*
Ed
 1e-07 1 1 0
1  52 0 0 103.6
2  103 5 16 0 103.6
2  104 6 20 0 103.6
0

0101000
+264 21 -396 21 *
Ve
1.00000004e-07
51.8 52.175 -1
0 0

0101101
*
Ed
 1e-07 1 1 0
1  53 0 0 103.6
2  105 5 16 0 103.6
2  106 7 20 0 103.6
0

0101000
+389 21 -262 21 *
Ve
1e-07
52.175 -51.8 -1
0 0

0101101
*
Ed
 1e-07 1 1 0
1  54 0 4.7123889803847 6.28318530717959
2  107 5 16 4.7123889803847 6.28318530717959
2  108 8 20 4.7123889803847 6.28318530717959
0

0101000
+264 21 -260 21 *
Ve
1e-07
52.175 51.8 -1
0 0

0101101
*
Ed
 1e-07 1 1 0
1  55 0 8e-15 1.5707963267949
2  109 5 16 8e-15 1.5707963267949
2  110 9 20 8e-15 1.5707963267949
0

0101000
+258 21 -262 21 *
Ed
 1e-07 1 1 0
1  56 0 0 103.6
2  111 5 16 0 103.6
2  112 10 20 0 103.6
0

0101000
+258 21 -260 21 *
Wi

0101100
+400 153 -393 153 -386 153 +263 153 +261 153 -259 153 -257 153 +256 153 *
Ve
5.0100000021e-05
50.8750000000001 -49.9999999999991 -1
0 0

0101101
*
Ed
 1e-07 1 1 0
1  57 0 0 6.28318530717959
2  113 5 155 0 6.28318530717959
2  114 47 24 0 6.28318530717959
0

0101100
+254 156 -254 156 *
Wi

0101100
-253 154 *
Ve
1e-07
44.855 -40.005 -1
0 0

0101101
*
Ed
 1e-07 1 1 0
1  58 0 0 6.28318530717959
2  115 5 158 0 6.28318530717959
2  116 12 28 0 6.28318530717959
0

0101100
+251 159 -251 159 *
Wi

0101100
-250 157 *
Ve
1e-07
41.505 -31.505 -1
0 0

0101101
*
Ed
 1e-07 1 1 0
1  59 0 0 6.28318530717959
2  117 5 152 0 6.28318530717959
2  118 13 32 0 6.28318530717959
0

0101100
+248 160 -248 160 *
Wi

0101100
-247 0 *
Ve
1e-07
18.185 -40.005 -1
0 0

0101101
*
Ed
 1e-07 1 1 0
1  60 0 0 6.28318530717959
2  119 5 158 0 6.28318530717959
2  120 14 35 0 6.28318530717959
0

0101100
+245 159 -245 159 *
Wi

0101100
-244 157 *
Ve
1e-07
14.835 -31.505 -1
0 0

0101101
*
Ed
 1e-07 1 1 0
1  61 0 0 6.28318530717959
2  121 5 152 0 6.28318530717959
2  122 15 39 0 6.28318530717959
0

0101100
+242 160 -242 160 *
Wi

0101100
-241 0 *
Ve
1.00000002e-07
44.855 -13.335 -1
0 0

0101101
*
Ed
 1e-07 1 1 0
1  62 0 0 6.28318530717959
2  123 5 158 0 6.28318530717959
2  124 16 42 0 6.28318530717959
0

0101100
+239 159 -239 159 *
Wi

0101100
-238 157 *
Ve
1e-07
41.505 -4.835 -1
0 0

0101101
*
Ed
 1e-07 1 1 0
1  63 0 0 6.28318530717959
2  125 5 152 0 6.28318530717959
2  126 17 46 0 6.28318530717959
0

0101100
+236 160 -236 160 *
Wi

0101100
-235 0 *
Ve
1.00000002e-07
18.185 -13.335 -1
0 0

0101101
*
Ed
 1e-07 1 1 0
1  64 0 0 6.28318530717959
2  127 5 158 0 6.28318530717959
2  128 18 49 0 6.28318530717959
0

0101100
+233 159 -233 159 *
Wi

0101100
-232 157 *
Ve
1e-07
14.835 -4.835 -1
0 0

0101101
*
Ed
 1e-07 1 1 0
1  65 0 0 6.28318530717959
2  129 5 152 0 6.28318530717959
2  130 19 53 0 6.28318530717959
0

0101100
+230 160 -230 160 *
Wi

0101100
-229 0 *
Ve
1e-07
-8.485 -40.005 -1
0 0

0101101
*
Ed
 1e-07 1 1 0
1  66 0 0 6.28318530717959
2  131 5 158 0 6.28318530717959
2  132 20 56 0 6.28318530717959
0

0101100
+227 159 -227 159 *
Wi

0101100
-226 157 *
Ve
1e-07
-11.835 -31.505 -1
0 0

0101101
*
Ed
 1e-07 1 1 0
1  67 0 0 6.28318530717959
2  133 5 152 0 6.28318530717959
2  134 21 60 0 6.28318530717959
0

0101100
+224 160 -224 160 *
Wi

0101100
-223 0 *
Ve
1e-07
-49.1249999999998 -49.9999999999997 -1
0 0

0101101
*
Ed
 1e-07 1 1 0
1  68 0 0 6.28318530717959
2  135 5 155 0 6.28318530717959
2  136 48 63 0 6.28318530717959
0

0101100
+221 156 -221 156 *
Wi

0101100
-220 154 *
Ve
1e-07
-35.155 -40.005 -1
0 0

0101101
*
Ed
 1e-07 1 1 0
1  69 0 0 6.28318530717959
2  137 5 158 0 6.28318530717959
2  138 23 67 0 6.28318530717959
0

0101100
+218 159 -218 159 *
Wi

0101100
-217 157 *
Ve
1e-07
-38.505 -31.505 -1
0 0

0101101
*
Ed
 1e-07 1 1 0
1  70 0 0 6.28318530717959
2  139 5 152 0 6.28318530717959
2  140 24 71 0 6.28318530717959
0

0101100
+215 160 -215 160 *
Wi

0101100
-214 0 *
Ve
1.00000002e-07
-8.485 -13.335 -1
0 0

0101101
*
Ed
 1e-07 1 1 0
1  71 0 0 6.28318530717959
2  141 5 158 0 6.28318530717959
2  142 25 74 0 6.28318530717959
0

0101100
+212 159 -212 159 *
Wi

0101100
-211 157 *
Ve
1e-07
-11.835 -4.835 -1
0 0

0101101
*
Ed
 1e-07 1 1 0
1  72 0 0 6.28318530717959
2  143 5 152 0 6.28318530717959
2  144 26 78 0 6.28318530717959
0

0101100
+209 160 -209 160 *
Wi

0101100
-208 0 *
Ve
1.00000002e-07
-35.155 -13.335 -1
0 0

0101101
*
Ed
 1e-07 1 1 0
1  73 0 0 6.28318530717959
2  145 5 158 0 6.28318530717959
2  146 27 81 0 6.28318530717959
0

0101100
+206 159 -206 159 *
Wi

0101100
-205 157 *
Ve
1e-07
-38.505 -4.835 -1
0 0

0101101
*
Ed
 1e-07 1 1 0
1  74 0 0 6.28318530717959
2  147 5 152 0 6.28318530717959
2  148 28 85 0 6.28318530717959
0

0101100
+203 160 -203 160 *
Wi

0101100
-202 0 *
Ve
1.00000002e-07
44.855 13.335 -1
0 0

0101101
*
Ed
 1e-07 1 1 0
1  75 0 0 6.28318530717959
2  149 5 158 0 6.28318530717959
2  150 29 88 0 6.28318530717959
0

0101100
+200 159 -200 159 *
Wi

0101100
-199 157 *
Ve
1e-07
41.505 21.835 -1
0 0

0101101
*
Ed
 1e-07 1 1 0
1  76 0 0 6.28318530717959
2  151 5 152 0 6.28318530717959
2  152 30 92 0 6.28318530717959
0

0101100
+197 160 -197 160 *
Wi

0101100
-196 0 *
Ve
1.00000002e-07
18.185 13.335 -1
0 0

0101101
*
Ed
 1e-07 1 1 0
1  77 0 0 6.28318530717959
2  153 5 158 0 6.28318530717959
2  154 31 95 0 6.28318530717959
0

0101100
+194 159 -194 159 *
Wi

0101100
-193 157 *
Ve
1e-07
14.835 21.835 -1
0 0

0101101
*
Ed
 1e-07 1 1 0
1  78 0 0 6.28318530717959
2  155 5 152 0 6.28318530717959
2  156 32 99 0 6.28318530717959
0

0101100
+191 160 -191 160 *
Wi

0101100
-190 0 *
Ve
1e-07
44.855 40.005 -1
0 0

0101101
*
Ed
 1e-07 1 1 0
1  79 0 0 6.28318530717959
2  157 5 158 0 6.28318530717959
2  158 33 102 0 6.28318530717959
0

0101100
+188 159 -188 159 *
Wi

0101100
-187 157 *
Ve
1e-07
50.8749999999998 50.0000000000011 -1
0 0

0101101
*
Ed
 1e-07 1 1 0
1  80 0 0 6.28318530717959
2  159 5 155 0 6.28318530717959
2  160 49 106 0 6.28318530717959
0

0101100
+185 156 -185 156 *
Wi

0101100
-184 154 *
Ve
1e-07
41.505 48.505 -1
0 0

0101101
*
Ed
 1e-07 1 1 0
1  81 0 0 6.28318530717959
2  161 5 152 0 6.28318530717959
2  162 35 110 0 6.28318530717959
0

0101100
+182 160 -182 160 *
Wi

0101100
-181 0 *
Ve
1e-07
18.185 40.005 -1
0 0

0101101
*
Ed
 1e-07 1 1 0
1  82 0 0 6.28318530717959
2  163 5 158 0 6.28318530717959
2  164 36 113 0 6.28318530717959
0

0101100
+179 159 -179 159 *
Wi

0101100
-178 157 *
Ve
1e-07
14.835 48.505 -1
0 0

0101101
*
Ed
 1e-07 1 1 0
1  83 0 0 6.28318530717959
2  165 5 152 0 6.28318530717959
2  166 37 117 0 6.28318530717959
0

0101100
+176 160 -176 160 *
Wi

0101100
-175 0 *
Ve
1.00000002e-07
-8.485 13.335 -1
0 0

0101101
*
Ed
 1e-07 1 1 0
1  84 0 0 6.28318530717959
2  167 5 158 0 6.28318530717959
2  168 38 120 0 6.28318530717959
0

0101100
+173 159 -173 159 *
Wi

0101100
-172 157 *
Ve
1e-07
-11.835 21.835 -1
0 0

0101101
*
Ed
 1e-07 1 1 0
1  85 0 0 6.28318530717959
2  169 5 152 0 6.28318530717959
2  170 39 124 0 6.28318530717959
0

0101100
+170 160 -170 160 *
Wi

0101100
-169 0 *
Ve
1.00000002e-07
-35.155 13.335 -1
0 0

0101101
*
Ed
 1e-07 1 1 0
1  86 0 0 6.28318530717959
2  171 5 158 0 6.28318530717959
2  172 40 127 0 6.28318530717959
0

0101100
+167 159 -167 159 *
Wi

0101100
-166 157 *
Ve
1e-07
-38.505 21.835 -1
0 0

0101101
*
Ed
 1e-07 1 1 0
1  87 0 0 6.28318530717959
2  173 5 152 0 6.28318530717959
2  174 41 131 0 6.28318530717959
0

0101100
+164 160 -164 160 *
Wi

0101100
-163 0 *
Ve
1e-07
-8.485 40.005 -1
0 0

0101101
*
Ed
 1e-07 1 1 0
1  88 0 0 6.28318530717959
2  175 5 158 0 6.28318530717959
2  176 42 134 0 6.28318530717959
0

0101100
+161 159 -161 159 *
Wi

0101100
-160 157 *
Ve
1e-07
-11.835 48.505 -1
0 0

0101101
*
Ed
 1e-07 1 1 0
1  89 0 0 6.28318530717959
2  177 5 152 0 6.28318530717959
2  178 43 138 0 6.28318530717959
0

0101100
+158 160 -158 160 *
Wi

0101100
-157 0 *
Ve
1e-07
-35.155 40.005 -1
0 0

0101101
*
Ed
 1e-07 1 1 0
1  90 0 0 6.28318530717959
2  179 5 158 0 6.28318530717959
2  180 44 141 0 6.28318530717959
0

0101100
+155 159 -155 159 *
Wi

0101100
-154 157 *
Ve
1e-07
-38.505 48.505 -1
0 0

0101101
*
Ed
 1e-07 1 1 0
1  91 0 0 6.28318530717959
2  181 5 152 0 6.28318530717959
2  182 45 145 0 6.28318530717959
0

0101100
+152 160 -152 160 *
Wi

0101100
-151 0 *
Ve
1e-07
-49.1250000000002 50.0000000000011 -1
0 0

0101101
*
Ed
 1e-07 1 1 0
1  92 0 0 6.28318530717959
2  183 5 155 0 6.28318530717959
2  184 50 148 0 6.28318530717959
0

0101100
+149 156 -149 156 *
Wi

0101100
-148 154 *
Fa
0  1e-07 5 152

0111000
+255 0 +252 0 +249 0 +246 0 +243 0 +240 0 +237 0 +234 0 +231 0 +228 0 
+225 0 +222 0 +219 0 +216 0 +213 0 +210 0 +207 0 +204 0 +201 0 +198 0 
+195 0 +192 0 +189 0 +186 0 +183 0 +180 0 +177 0 +174 0 +171 0 +168 0 
+165 0 +162 0 +159 0 +156 0 +153 0 +150 0 +147 0 *
Ed
 1e-07 1 1 0
1  93 0 0 1
2  185 6 0 0 1
2  186 8 0 0 1
4 G1 6 0 8 0
0

0101000
+383 11 -264 11 *
Wi

0101100
+145 0 -395 0 -382 14 +263 19 *
Fa
0  1e-07 6 0

0111000
+144 0 *
Ed
 1.00000004e-07 1 1 0
1  94 0 0 1
2  187 7 0 0 1
2  188 9 0 0 1
4 G1 7 0 9 0
0

0101000
+381 11 -262 11 *
Wi

0101100
+388 0 -142 0 -380 14 +261 19 *
Fa
0  1e-07 7 0

0111000
+141 0 *
Ed
 1e-07 1 1 0
1  95 0 0 1
2  189 8 0 0 1
2  190 10 0 0 1
4 G1 8 0 10 0
0

0101000
+379 11 -260 11 *
Wi

0101100
+145 0 -139 0 -378 14 +259 19 *
Fa
0  1e-07 8 0

0111000
+138 0 *
Ed
 1e-07 1 1 0
1  96 0 0 1
2  191 9 0 0 1
2  192 10 0 0 1
4 G1 9 0 10 0
0

0101000
+377 11 -258 11 *
Wi

0101100
+136 0 -142 0 -376 14 +257 19 *
Fa
0  1e-07 9 0

0111000
+135 0 *
Wi

0101100
+136 0 -139 0 -375 14 +256 19 *
Fa
0  1e-07 10 0

0111000
+133 0 *
Ve
1.00000021e-07
50.8750000000001 -49.9999999999991 -0.775
0 0

0101101
*
Ed
 1e-07 1 1 0
1  97 0 0 6.28318530717959
2  193 11 0 0 6.28318530717959
2  194 47 0 0 6.28318530717959
0

0101000
+131 27 -131 27 *
Ed
 1.00000021e-07 1 1 0
1  98 0 0 1.09601551083915
3  195 196CN 11 0 0 1.09601551083915
0

0101000
+373 27 -131 27 *
Wi

0101100
+372 0 -130 0 -129 0 +129 0 *
Fa
0  1e-07 11 0

0111000
+128 0 *
Ed
 1e-07 1 1 0
1  99 0 0 1
3  197 198CN 12 0 0 1
0

0101000
+370 31 -251 31 *
Wi

0101100
-126 28 +250 0 +126 28 +369 28 *
Fa
0  1e-07 12 28

0111000
+125 0 *
Ed
 1e-07 1 1 0
1  100 0 0 1
3  199 200CN 13 0 0 1
0

0101000
+367 34 -248 34 *
Wi

0101100
-123 32 +247 0 +123 32 +366 32 *
Fa
0  1e-07 13 32

0111000
+122 0 *
Ed
 1e-07 1 1 0
1  101 0 0 1
3  201 202CN 14 0 0 1
0

0101000
+364 38 -245 38 *
Wi

0101100
-120 35 +244 0 +120 35 +363 35 *
Fa
0  1e-07 14 35

0111000
+119 0 *
Ed
 1e-07 1 1 0
1  102 0 0 1
3  203 204CN 15 0 0 1
0

0101000
+361 41 -242 41 *
Wi

0101100
-117 39 +241 0 +117 39 +360 39 *
Fa
0  1e-07 15 39

0111000
+116 0 *
Ed
 1e-07 1 1 0
1  103 0 0 1
3  205 206CN 16 0 0 1
0

0101000
+358 45 -239 45 *
Wi

0101100
-114 42 +238 0 +114 42 +357 42 *
Fa
0  1e-07 16 42

0111000
+113 0 *
Ed
 1e-07 1 1 0
1  104 0 0 1
3  207 208CN 17 0 0 1
0

0101000
+355 48 -236 48 *
Wi

0101100
-111 46 +235 0 +111 46 +354 46 *
Fa
0  1e-07 17 46

0111000
+110 0 *
Ed
 1e-07 1 1 0
1  105 0 0 1
3  209 210CN 18 0 0 1
0

0101000
+352 52 -233 52 *
Wi

0101100
-108 49 +232 0 +108 49 +351 49 *
Fa
0  1e-07 18 49

0111000
+107 0 *
Ed
 1e-07 1 1 0
1  106 0 0 1
3  211 212CN 19 0 0 1
0

0101000
+349 55 -230 55 *
Wi

0101100
-105 53 +229 0 +105 53 +348 53 *
Fa
0  1e-07 19 53

0111000
+104 0 *
Ed
 1e-07 1 1 0
1  107 0 0 1
3  213 214CN 20 0 0 1
0

0101000
+346 59 -227 59 *
Wi

0101100
-102 56 +226 0 +102 56 +345 56 *
Fa
0  1e-07 20 56

0111000
+101 0 *
Ed
 1e-07 1 1 0
1  108 0 0 1
3  215 216CN 21 0 0 1
0

0101000
+343 62 -224 62 *
Wi

0101100
-99 60 +223 0 +99 60 +342 60 *
Fa
0  1e-07 21 60

0111000
+98 0 *
Ve
1e-07
-49.1249999999998 -49.9999999999997 -0.775
0 0

0101101
*
Ed
 1e-07 1 1 0
1  109 0 0 6.28318530717959
2  217 22 0 0 6.28318530717959
2  218 48 0 0 6.28318530717959
0

0101000
+96 66 -96 66 *
Ed
 1e-07 1 1 0
1  110 0 0 1.09601551083915
3  219 220CN 22 0 0 1.09601551083915
0

0101000
+340 66 -96 66 *
Wi

0101100
+339 0 -95 0 -94 0 +94 0 *
Fa
0  1e-07 22 0

0111000
+93 0 *
Ed
 1e-07 1 1 0
1  111 0 0 1
3  221 222CN 23 0 0 1
0

0101000
+337 70 -218 70 *
Wi

0101100
-91 67 +217 0 +91 67 +336 67 *
Fa
0  1e-07 23 67

0111000
+90 0 *
Ed
 1e-07 1 1 0
1  112 0 0 1
3  223 224CN 24 0 0 1
0

0101000
+334 73 -215 73 *
Wi

0101100
-88 71 +214 0 +88 71 +333 71 *
Fa
0  1e-07 24 71

0111000
+87 0 *
Ed
 1e-07 1 1 0
1  113 0 0 1
3  225 226CN 25 0 0 1
0

0101000
+331 77 -212 77 *
Wi

0101100
-85 74 +211 0 +85 74 +330 74 *
Fa
0  1e-07 25 74

0111000
+84 0 *
Ed
 1e-07 1 1 0
1  114 0 0 1
3  227 228CN 26 0 0 1
0

0101000
+328 80 -209 80 *
Wi

0101100
-82 78 +208 0 +82 78 +327 78 *
Fa
0  1e-07 26 78

0111000
+81 0 *
Ed
 1e-07 1 1 0
1  115 0 0 1
3  229 230CN 27 0 0 1
0

0101000
+325 84 -206 84 *
Wi

0101100
-79 81 +205 0 +79 81 +324 81 *
Fa
0  1e-07 27 81

0111000
+78 0 *
Ed
 1e-07 1 1 0
1  116 0 0 1
3  231 232CN 28 0 0 1
0

0101000
+322 87 -203 87 *
Wi

0101100
-76 85 +202 0 +76 85 +321 85 *
Fa
0  1e-07 28 85

0111000
+75 0 *
Ed
 1e-07 1 1 0
1  117 0 0 1
3  233 234CN 29 0 0 1
0

0101000
+319 91 -200 91 *
Wi

0101100
-73 88 +199 0 +73 88 +318 88 *
Fa
0  1e-07 29 88

0111000
+72 0 *
Ed
 1e-07 1 1 0
1  118 0 0 1
3  235 236CN 30 0 0 1
0

0101000
+316 94 -197 94 *
Wi

0101100
-70 92 +196 0 +70 92 +315 92 *
Fa
0  1e-07 30 92

0111000
+69 0 *
Ed
 1e-07 1 1 0
1  119 0 0 1
3  237 238CN 31 0 0 1
0

0101000
+313 98 -194 98 *
Wi

0101100
-67 95 +193 0 +67 95 +312 95 *
Fa
0  1e-07 31 95

0111000
+66 0 *
Ed
 1e-07 1 1 0
1  120 0 0 1
3  239 240CN 32 0 0 1
0

0101000
+310 101 -191 101 *
Wi

0101100
-64 99 +190 0 +64 99 +309 99 *
Fa
0  1e-07 32 99

0111000
+63 0 *
Ed
 1e-07 1 1 0
1  121 0 0 1
3  241 242CN 33 0 0 1
0

0101000
+307 105 -188 105 *
Wi

0101100
-61 102 +187 0 +61 102 +306 102 *
Fa
0  1e-07 33 102

0111000
+60 0 *
Ve
1e-07
50.8749999999998 50.0000000000011 -0.775
0 0

0101101
*
Ed
 1e-07 1 1 0
1  122 0 0 6.28318530717959
2  243 34 0 0 6.28318530717959
2  244 49 0 0 6.28318530717959
0

0101000
+58 109 -58 109 *
Ed
 1e-07 1 1 0
1  123 0 0 1.09601551083915
3  245 246CN 34 0 0 1.09601551083915
0

0101000
+304 109 -58 109 *
Wi

0101100
+303 0 -57 0 -56 0 +56 0 *
Fa
0  1e-07 34 0

0111000
+55 0 *
Ed
 1e-07 1 1 0
1  124 0 0 1
3  247 248CN 35 0 0 1
0

0101000
+301 112 -182 112 *
Wi

0101100
-53 110 +181 0 +53 110 +300 110 *
Fa
0  1e-07 35 110

0111000
+52 0 *
Ed
 1e-07 1 1 0
1  125 0 0 1
3  249 250CN 36 0 0 1
0

0101000
+298 116 -179 116 *
Wi

0101100
-50 113 +178 0 +50 113 +297 113 *
Fa
0  1e-07 36 113

0111000
+49 0 *
Ed
 1e-07 1 1 0
1  126 0 0 1
3  251 252CN 37 0 0 1
0

0101000
+295 119 -176 119 *
Wi

0101100
-47 117 +175 0 +47 117 +294 117 *
Fa
0  1e-07 37 117

0111000
+46 0 *
Ed
 1e-07 1 1 0
1  127 0 0 1
3  253 254CN 38 0 0 1
0

0101000
+292 123 -173 123 *
Wi

0101100
-44 120 +172 0 +44 120 +291 120 *
Fa
0  1e-07 38 120

0111000
+43 0 *
Ed
 1e-07 1 1 0
1  128 0 0 1
3  255 256CN 39 0 0 1
0

0101000
+289 126 -170 126 *
Wi

0101100
-41 124 +169 0 +41 124 +288 124 *
Fa
0  1e-07 39 124

0111000
+40 0 *
Ed
 1e-07 1 1 0
1  129 0 0 1
3  257 258CN 40 0 0 1
0

0101000
+286 130 -167 130 *
Wi

0101100
-38 127 +166 0 +38 127 +285 127 *
Fa
0  1e-07 40 127

0111000
+37 0 *
Ed
 1e-07 1 1 0
1  130 0 0 1
3  259 260CN 41 0 0 1
0

0101000
+283 133 -164 133 *
Wi

0101100
-35 131 +163 0 +35 131 +282 131 *
Fa
0  1e-07 41 131

0111000
+34 0 *
Ed
 1e-07 1 1 0
1  131 0 0 1
3  261 262CN 42 0 0 1
0

0101000
+280 137 -161 137 *
Wi

0101100
-32 134 +160 0 +32 134 +279 134 *
Fa
0  1e-07 42 134

0111000
+31 0 *
Ed
 1e-07 1 1 0
1  132 0 0 1
3  263 264CN 43 0 0 1
0

0101000
+277 140 -158 140 *
Wi

0101100
-29 138 +157 0 +29 138 +276 138 *
Fa
0  1e-07 43 138

0111000
+28 0 *
Ed
 1e-07 1 1 0
1  133 0 0 1
3  265 266CN 44 0 0 1
0

0101000
+274 144 -155 144 *
Wi

0101100
-26 141 +154 0 +26 141 +273 141 *
Fa
0  1e-07 44 141

0111000
+25 0 *
Ed
 1e-07 1 1 0
1  134 0 0 1
3  267 268CN 45 0 0 1
0

0101000
+271 147 -152 147 *
Wi

0101100
-23 145 +151 0 +23 145 +270 145 *
Fa
0  1e-07 45 145

0111000
+22 0 *
Ve
1e-07
-49.1250000000002 50.0000000000011 -0.775
0 0

0101101
*
Ed
 1e-07 1 1 0
1  135 0 0 6.28318530717959
2  269 46 0 0 6.28318530717959
2  270 50 0 0 6.28318530717959
0

0101000
+20 151 -20 151 *
Ed
 1e-07 1 1 0
1  136 0 0 1.09601551083915
3  271 272CN 46 0 0 1.09601551083915
0

0101000
+268 151 -20 151 *
Wi

0101100
+267 0 -19 0 -18 0 +18 0 *
Fa
0  1e-07 46 0

0111000
+17 0 *
Ed
 1.00000021e-07 1 1 0
1  137 0 0 0.225
3  273 274CN 47 0 0 0.225
0

0101000
+131 27 -254 27 *
Wi

0101100
-15 24 +253 0 +15 24 +130 24 *
Fa
0  1e-07 47 24

0111000
+14 0 *
Ed
 1e-07 1 1 0
1  138 0 0 0.225
3  275 276CN 48 0 0 0.225
0

0101000
+96 66 -221 66 *
Wi

0101100
-12 63 +220 0 +12 63 +95 63 *
Fa
0  1e-07 48 63

0111000
+11 0 *
Ed
 1e-07 1 1 0
1  139 0 0 0.225
3  277 278CN 49 0 0 0.225
0

0101000
+58 109 -185 109 *
Wi

0101100
-9 106 +184 0 +9 106 +57 106 *
Fa
0  1e-07 49 106

0111000
+8 0 *
Ed
 1e-07 1 1 0
1  140 0 0 0.225
3  279 280CN 50 0 0 0.225
0

0101000
+20 151 -149 151 *
Wi

0101100
-6 148 +148 0 +6 148 +19 148 *
Fa
0  1e-07 50 148

0111000
+5 0 *
Sh

0101100
-398 10 +391 10 +384 10 -265 0 +146 0 -143 10 -140 10 +137 10 +134 10 -132 10 
+127 25 +124 157 +121 0 +118 157 +115 0 +112 157 +109 0 +106 157 +103 0 +100 157 
+97 0 +92 64 +89 157 +86 0 +83 157 +80 0 +77 157 +74 0 +71 157 +68 0 
+65 157 +62 0 +59 157 +54 107 +51 0 +48 157 +45 0 +42 157 +39 0 +36 157 
+33 0 +30 157 +27 0 +24 157 +21 0 +16 149 +13 154 +10 154 +7 154 +4 154 
*
So

0100000
+3 0 *
Co

1100000
+2 3 *

+1 0 