DBRep_DrawableShape

CASCADE Topology V3, (c) Open Cascade
Locations 16
1
              1               0               0               0 
              0               1               0               0 
              0               0               1               0 
1
              1               0               0               0 
              0               1               0               0 
              0               0               1               0 
1
              1               0               0               0 
              0               1               0               0 
              0               0               1 -147.583748454287 
1
              1               0               0               0 
              0               1               0               0 
              0               0               1 -295.167496908574 
2  1 1 2 1 3 1 4 1 0
1
              1               0               0 1.47583748454287e-14 
              0               1               0 -147.583748454287 
              0               0               1               0 
2  1 1 2 1 3 1 4 1 6 1 0
1
              1               0               0              -0 
              0               1               0              -0 
              0               0               1 590.334993817149 
2  1 1 2 1 3 1 4 1 8 1 0
2  1 1 2 1 3 1 4 1 8 1 6 1 0
1
              1               0               0               0 
              0               1               0               0 
              0               0               1 -295.167496908574 
1
              1               0               0               0 
              0               1               0               0 
              0               0               1 -147.583748454287 
1
              1               0               0               0 
              0               1               0               0 
              0               0               1               0 
2  11 -1 12 -1 13 -1 1 -1 0
1
              1               0               0              -0 
              0               1               0              -0 
              0               0               1 590.334993817149 
2  15 -1 11 -1 12 -1 13 -1 1 -1 0
Curve2ds 2
1 0 0 1 0 
1 0 -590.33499381714876 1 0 
Curves 7
1 46.500000000000142 -49.999999999999091 -442.7512453628616 9.9999999999999986e-17 -1 0 
1 46.500000000000142 -49.999999999999091 147.58374845428719 9.9999999999999986e-17 -1 0 
1 46.500000000000142 -49.999999999999091 -442.7512453628616 -0 -0 1 
1 53.500000000000142 -49.999999999999091 -442.7512453628616 9.9999999999999986e-17 -1 0 
1 53.500000000000142 -49.999999999999091 147.58374845428719 9.9999999999999986e-17 -1 0 
1 53.500000000000142 -49.999999999999091 -442.7512453628616 -0 -0 1 
1 46.500000000000142 -49.999999999999091 0 1 0 0 
Polygon3D 1
2 1
0.0116666666666667
46.5000000000001 -49.9999999999991 0 53.5000000000001 -49.9999999999991 0 
0 7 
PolygonOnTriangulations 0
Surfaces 6
1 46.500000000000142 -49.999999999999091 -442.7512453628616 -1 -9.9999999999999986e-17 -0 -0 0 1 -9.9999999999999986e-17 1 -0 
1 53.500000000000142 -49.999999999999091 -442.7512453628616 -1 -9.9999999999999986e-17 -0 -0 0 1 -9.9999999999999986e-17 1 -0 
1 46.500000000000142 -49.999999999999091 -442.7512453628616 -0 0 1 1 0 0 0 1 -0 
1 46.500000000000142 -49.999999999999091 -442.7512453628616 -0 1 0 1 0 0 0 0 -1 
1 46.500000000000142 -49.999999999999091 147.58374845428719 -0 0 1 1 0 0 0 1 -0 
1 46.500000000000142 -49.999999999999091 -442.7512453628616 -0 1 0 1 0 0 0 0 -1 
Triangulations 0

TShapes 22
Ve
1e-07
46.5000000000001 -49.9999999999991 0
0 0

0101101
*
Ed
 1e-07 1 1 0
1  1 0 0 147.583748454287
0

0101000
+22 5 -22 7 *
Ed
 1e-07 1 1 0
1  2 0 0 147.583748454287
0

0101000
+22 9 -22 10 *
Ed
 1e-07 1 1 0
1  3 0 0 590.334993817149
0

0101000
+22 5 -22 9 *
Wi

0101100
+21 0 -20 0 -19 0 +19 6 *
Fa
0  1e-07 1 0

0101000
+18 0 *
Ve
1e-07
53.5000000000001 -49.9999999999991 0
0 0

0101101
*
Ed
 1e-07 1 1 0
1  4 0 0 147.583748454287
0

0101000
+16 5 -16 7 *
Ed
 1e-07 1 1 0
1  5 0 0 147.583748454287
0

0101000
+16 9 -16 10 *
Ed
 1e-07 1 1 0
1  6 0 0 590.334993817149
0

0101000
+16 5 -16 9 *
Wi

0101100
+15 0 -14 0 -13 0 +13 6 *
Fa
0  1e-07 2 0

0101000
+12 0 *
Ed
 1e-07 1 1 0
1  7 0 0 7
2  1 4 14 0 7
2  2 4 16 0 7
5  1 0
0

0101000
+22 0 -16 0 *
Wi

0101100
+21 0 -15 0 -10 5 +10 7 *
Fa
0  1e-07 3 0

0101000
+9 0 *
Wi

0101100
+20 0 -14 0 -10 9 +10 10 *
Fa
0  1e-07 5 0

0101000
+7 0 *
Wi

0101100
+19 0 -13 0 -10 5 +10 9 *
Fa
0  1e-07 6 0

0101000
+5 0 *
Sh

0101100
+17 0 -11 0 -8 0 +6 0 +4 0 -4 6 *
So

0100000
+3 0 *
Co

1100000
+2 0 *

+1 0 