G04 #@! TF.GenerationSoftware,KiCad,Pcbnew,5.1.5+dfsg1-2build2*
G04 #@! TF.CreationDate,2020-12-10T17:15:45+01:00*
G04 #@! TF.ProjectId,USBC_INTERFACE_TEST,55534243-5f49-44e5-9445-52464143455f,rev?*
G04 #@! TF.SameCoordinates,Original*
G04 #@! TF.FileFunction,Copper,L2,Bot*
G04 #@! TF.FilePolarity,Positive*
%FSLAX46Y46*%
G04 Gerber Fmt 4.6, Leading zero omitted, Abs format (unit mm)*
G04 Created by KiCad (PCBNEW 5.1.5+dfsg1-2build2) date 2020-12-10 17:15:45*
%MOMM*%
%LPD*%
G04 APERTURE LIST*
%ADD10C,1.000000*%
%ADD11O,1.700000X1.700000*%
%ADD12R,1.700000X1.700000*%
%ADD13O,0.800000X2.000000*%
%ADD14O,0.800000X1.900000*%
%ADD15C,0.800000*%
%ADD16C,0.500000*%
%ADD17C,0.250000*%
%ADD18C,0.254000*%
G04 APERTURE END LIST*
D10*
X67500000Y-34000000D03*
X62000000Y-34000000D03*
D11*
X88970000Y-83000000D03*
X86430000Y-83000000D03*
X83890000Y-83000000D03*
X81350000Y-83000000D03*
X78810000Y-83000000D03*
X76270000Y-83000000D03*
X73730000Y-83000000D03*
X71190000Y-83000000D03*
X68650000Y-83000000D03*
X66110000Y-83000000D03*
X63570000Y-83000000D03*
D12*
X61030000Y-83000000D03*
D13*
X79320000Y-26250000D03*
X70680000Y-26250000D03*
D14*
X70680000Y-30180000D03*
X79320000Y-30180000D03*
D15*
X71000000Y-33000000D03*
X79000000Y-33000000D03*
X61030000Y-56800000D03*
X63570000Y-56800000D03*
X66110000Y-56800000D03*
X83000000Y-36500000D03*
X65000000Y-30500000D03*
X85000000Y-30500000D03*
X64500000Y-44500000D03*
X71000000Y-52000000D03*
X66000000Y-52000000D03*
X68500000Y-66000000D03*
X75000000Y-50000000D03*
X77500000Y-40000000D03*
X66775000Y-67000000D03*
X72500008Y-65500000D03*
X76000000Y-65500000D03*
X78500000Y-65500000D03*
X62000000Y-66000000D03*
X71000000Y-65500000D03*
X75000000Y-36500000D03*
X71500000Y-40000000D03*
X72012653Y-33012653D03*
X77987347Y-33012653D03*
X83000000Y-41500000D03*
X68000000Y-41500000D03*
X81999988Y-44000000D03*
X76712347Y-35000000D03*
X75999121Y-29460649D03*
X75987347Y-34012653D03*
X70000000Y-38000000D03*
X70000000Y-40000000D03*
X64500000Y-47500000D03*
X69000000Y-47500000D03*
D16*
X72500008Y-65500000D02*
X76000000Y-65500000D01*
X76000000Y-65500000D02*
X78500000Y-65500000D01*
X70000008Y-68000000D02*
X72500008Y-65500000D01*
X67775000Y-68000000D02*
X70000008Y-68000000D01*
X66775000Y-67000000D02*
X67775000Y-68000000D01*
D17*
X62000000Y-66000000D02*
X67000000Y-66000000D01*
X67000000Y-66000000D02*
X68000000Y-67000000D01*
X69500000Y-67000000D02*
X71000000Y-65500000D01*
X68000000Y-67000000D02*
X69500000Y-67000000D01*
D16*
X71500000Y-40000000D02*
X75000000Y-36500000D01*
X71500000Y-40000000D02*
X71500000Y-37000000D01*
X68500000Y-34000000D02*
X67500000Y-34000000D01*
X71500000Y-37000000D02*
X68500000Y-34000000D01*
X83000000Y-41500000D02*
X83000000Y-42999988D01*
X83000000Y-42999988D02*
X81999988Y-44000000D01*
X72412652Y-33412652D02*
X72012653Y-33012653D01*
X74000000Y-35000000D02*
X72412652Y-33412652D01*
X76565685Y-35000000D02*
X74000000Y-35000000D01*
X77987347Y-33578338D02*
X76565685Y-35000000D01*
X77987347Y-33012653D02*
X77987347Y-33578338D01*
X76565685Y-35000000D02*
X76712347Y-35000000D01*
D17*
X75999121Y-34000879D02*
X75987347Y-34012653D01*
X75999121Y-29460649D02*
X75999121Y-34000879D01*
X70000000Y-38000000D02*
X70000000Y-40000000D01*
X64500000Y-47500000D02*
X69000000Y-47500000D01*
D18*
G36*
X69645000Y-26900837D02*
G01*
X69659976Y-27052894D01*
X69719159Y-27247992D01*
X69815266Y-27427797D01*
X69944604Y-27585396D01*
X70102203Y-27714734D01*
X70282007Y-27810841D01*
X70477105Y-27870024D01*
X70680000Y-27890007D01*
X70882894Y-27870024D01*
X71077992Y-27810841D01*
X71257797Y-27714734D01*
X71415396Y-27585396D01*
X71544734Y-27427797D01*
X71640841Y-27247993D01*
X71700024Y-27052895D01*
X71715000Y-26900838D01*
X71715000Y-25660000D01*
X78285001Y-25660000D01*
X78285000Y-26900837D01*
X78299976Y-27052894D01*
X78359159Y-27247992D01*
X78455266Y-27427797D01*
X78584604Y-27585396D01*
X78742203Y-27714734D01*
X78922007Y-27810841D01*
X79117105Y-27870024D01*
X79320000Y-27890007D01*
X79522894Y-27870024D01*
X79717992Y-27810841D01*
X79897797Y-27714734D01*
X80055396Y-27585396D01*
X80184734Y-27427797D01*
X80280841Y-27247993D01*
X80340024Y-27052895D01*
X80355000Y-26900838D01*
X80355000Y-25660000D01*
X99340000Y-25660000D01*
X99340001Y-84340000D01*
X89593402Y-84340000D01*
X89736920Y-84271641D01*
X89970269Y-84097588D01*
X90165178Y-83881355D01*
X90314157Y-83631252D01*
X90411481Y-83356891D01*
X90290814Y-83127000D01*
X89097000Y-83127000D01*
X89097000Y-83147000D01*
X88843000Y-83147000D01*
X88843000Y-83127000D01*
X88823000Y-83127000D01*
X88823000Y-82873000D01*
X88843000Y-82873000D01*
X88843000Y-81679845D01*
X89097000Y-81679845D01*
X89097000Y-82873000D01*
X90290814Y-82873000D01*
X90411481Y-82643109D01*
X90314157Y-82368748D01*
X90165178Y-82118645D01*
X89970269Y-81902412D01*
X89736920Y-81728359D01*
X89474099Y-81603175D01*
X89326890Y-81558524D01*
X89097000Y-81679845D01*
X88843000Y-81679845D01*
X88613110Y-81558524D01*
X88465901Y-81603175D01*
X88203080Y-81728359D01*
X87969731Y-81902412D01*
X87774822Y-82118645D01*
X87705195Y-82235534D01*
X87583475Y-82053368D01*
X87376632Y-81846525D01*
X87133411Y-81684010D01*
X86863158Y-81572068D01*
X86576260Y-81515000D01*
X86283740Y-81515000D01*
X85996842Y-81572068D01*
X85726589Y-81684010D01*
X85483368Y-81846525D01*
X85276525Y-82053368D01*
X85160000Y-82227760D01*
X85043475Y-82053368D01*
X84836632Y-81846525D01*
X84593411Y-81684010D01*
X84323158Y-81572068D01*
X84036260Y-81515000D01*
X83743740Y-81515000D01*
X83456842Y-81572068D01*
X83186589Y-81684010D01*
X82943368Y-81846525D01*
X82736525Y-82053368D01*
X82620000Y-82227760D01*
X82503475Y-82053368D01*
X82296632Y-81846525D01*
X82053411Y-81684010D01*
X81783158Y-81572068D01*
X81496260Y-81515000D01*
X81203740Y-81515000D01*
X80916842Y-81572068D01*
X80646589Y-81684010D01*
X80403368Y-81846525D01*
X80196525Y-82053368D01*
X80080000Y-82227760D01*
X79963475Y-82053368D01*
X79756632Y-81846525D01*
X79513411Y-81684010D01*
X79243158Y-81572068D01*
X78956260Y-81515000D01*
X78663740Y-81515000D01*
X78376842Y-81572068D01*
X78106589Y-81684010D01*
X77863368Y-81846525D01*
X77656525Y-82053368D01*
X77540000Y-82227760D01*
X77423475Y-82053368D01*
X77216632Y-81846525D01*
X76973411Y-81684010D01*
X76703158Y-81572068D01*
X76416260Y-81515000D01*
X76123740Y-81515000D01*
X75836842Y-81572068D01*
X75566589Y-81684010D01*
X75323368Y-81846525D01*
X75116525Y-82053368D01*
X75000000Y-82227760D01*
X74883475Y-82053368D01*
X74676632Y-81846525D01*
X74433411Y-81684010D01*
X74163158Y-81572068D01*
X73876260Y-81515000D01*
X73583740Y-81515000D01*
X73296842Y-81572068D01*
X73026589Y-81684010D01*
X72783368Y-81846525D01*
X72576525Y-82053368D01*
X72460000Y-82227760D01*
X72343475Y-82053368D01*
X72136632Y-81846525D01*
X71893411Y-81684010D01*
X71623158Y-81572068D01*
X71336260Y-81515000D01*
X71043740Y-81515000D01*
X70756842Y-81572068D01*
X70486589Y-81684010D01*
X70243368Y-81846525D01*
X70036525Y-82053368D01*
X69920000Y-82227760D01*
X69803475Y-82053368D01*
X69596632Y-81846525D01*
X69353411Y-81684010D01*
X69083158Y-81572068D01*
X68796260Y-81515000D01*
X68503740Y-81515000D01*
X68216842Y-81572068D01*
X67946589Y-81684010D01*
X67703368Y-81846525D01*
X67496525Y-82053368D01*
X67380000Y-82227760D01*
X67263475Y-82053368D01*
X67056632Y-81846525D01*
X66813411Y-81684010D01*
X66543158Y-81572068D01*
X66256260Y-81515000D01*
X65963740Y-81515000D01*
X65676842Y-81572068D01*
X65406589Y-81684010D01*
X65163368Y-81846525D01*
X64956525Y-82053368D01*
X64840000Y-82227760D01*
X64723475Y-82053368D01*
X64516632Y-81846525D01*
X64273411Y-81684010D01*
X64003158Y-81572068D01*
X63716260Y-81515000D01*
X63423740Y-81515000D01*
X63136842Y-81572068D01*
X62866589Y-81684010D01*
X62623368Y-81846525D01*
X62491513Y-81978380D01*
X62469502Y-81905820D01*
X62410537Y-81795506D01*
X62331185Y-81698815D01*
X62234494Y-81619463D01*
X62124180Y-81560498D01*
X62004482Y-81524188D01*
X61880000Y-81511928D01*
X60180000Y-81511928D01*
X60055518Y-81524188D01*
X59935820Y-81560498D01*
X59825506Y-81619463D01*
X59728815Y-81698815D01*
X59649463Y-81795506D01*
X59590498Y-81905820D01*
X59554188Y-82025518D01*
X59541928Y-82150000D01*
X59541928Y-83850000D01*
X59554188Y-83974482D01*
X59590498Y-84094180D01*
X59649463Y-84204494D01*
X59728815Y-84301185D01*
X59776111Y-84340000D01*
X50660000Y-84340000D01*
X50660000Y-65898061D01*
X60965000Y-65898061D01*
X60965000Y-66101939D01*
X61004774Y-66301898D01*
X61082795Y-66490256D01*
X61196063Y-66659774D01*
X61340226Y-66803937D01*
X61509744Y-66917205D01*
X61698102Y-66995226D01*
X61898061Y-67035000D01*
X62101939Y-67035000D01*
X62301898Y-66995226D01*
X62490256Y-66917205D01*
X62659774Y-66803937D01*
X62703711Y-66760000D01*
X65767462Y-66760000D01*
X65740000Y-66898061D01*
X65740000Y-67101939D01*
X65779774Y-67301898D01*
X65857795Y-67490256D01*
X65971063Y-67659774D01*
X66115226Y-67803937D01*
X66284744Y-67917205D01*
X66473102Y-67995226D01*
X66529957Y-68006535D01*
X67118470Y-68595049D01*
X67146183Y-68628817D01*
X67179951Y-68656530D01*
X67179953Y-68656532D01*
X67280941Y-68739411D01*
X67434686Y-68821589D01*
X67601510Y-68872195D01*
X67731523Y-68885000D01*
X67731531Y-68885000D01*
X67775000Y-68889281D01*
X67818469Y-68885000D01*
X69956539Y-68885000D01*
X70000008Y-68889281D01*
X70043477Y-68885000D01*
X70043485Y-68885000D01*
X70173498Y-68872195D01*
X70340321Y-68821589D01*
X70494067Y-68739411D01*
X70628825Y-68628817D01*
X70656542Y-68595044D01*
X72745052Y-66506535D01*
X72801906Y-66495226D01*
X72990264Y-66417205D01*
X73038462Y-66385000D01*
X75461546Y-66385000D01*
X75509744Y-66417205D01*
X75698102Y-66495226D01*
X75898061Y-66535000D01*
X76101939Y-66535000D01*
X76301898Y-66495226D01*
X76490256Y-66417205D01*
X76538454Y-66385000D01*
X77961546Y-66385000D01*
X78009744Y-66417205D01*
X78198102Y-66495226D01*
X78398061Y-66535000D01*
X78601939Y-66535000D01*
X78801898Y-66495226D01*
X78990256Y-66417205D01*
X79159774Y-66303937D01*
X79303937Y-66159774D01*
X79417205Y-65990256D01*
X79495226Y-65801898D01*
X79535000Y-65601939D01*
X79535000Y-65398061D01*
X79495226Y-65198102D01*
X79417205Y-65009744D01*
X79303937Y-64840226D01*
X79159774Y-64696063D01*
X78990256Y-64582795D01*
X78801898Y-64504774D01*
X78601939Y-64465000D01*
X78398061Y-64465000D01*
X78198102Y-64504774D01*
X78009744Y-64582795D01*
X77961546Y-64615000D01*
X76538454Y-64615000D01*
X76490256Y-64582795D01*
X76301898Y-64504774D01*
X76101939Y-64465000D01*
X75898061Y-64465000D01*
X75698102Y-64504774D01*
X75509744Y-64582795D01*
X75461546Y-64615000D01*
X73038462Y-64615000D01*
X72990264Y-64582795D01*
X72801906Y-64504774D01*
X72601947Y-64465000D01*
X72398069Y-64465000D01*
X72198110Y-64504774D01*
X72009752Y-64582795D01*
X71840234Y-64696063D01*
X71750004Y-64786293D01*
X71659774Y-64696063D01*
X71490256Y-64582795D01*
X71301898Y-64504774D01*
X71101939Y-64465000D01*
X70898061Y-64465000D01*
X70698102Y-64504774D01*
X70509744Y-64582795D01*
X70340226Y-64696063D01*
X70196063Y-64840226D01*
X70082795Y-65009744D01*
X70004774Y-65198102D01*
X69965000Y-65398061D01*
X69965000Y-65460198D01*
X69185199Y-66240000D01*
X68314802Y-66240000D01*
X67563804Y-65489002D01*
X67540001Y-65459999D01*
X67424276Y-65365026D01*
X67292247Y-65294454D01*
X67148986Y-65250997D01*
X67037333Y-65240000D01*
X67037322Y-65240000D01*
X67000000Y-65236324D01*
X66962678Y-65240000D01*
X62703711Y-65240000D01*
X62659774Y-65196063D01*
X62490256Y-65082795D01*
X62301898Y-65004774D01*
X62101939Y-64965000D01*
X61898061Y-64965000D01*
X61698102Y-65004774D01*
X61509744Y-65082795D01*
X61340226Y-65196063D01*
X61196063Y-65340226D01*
X61082795Y-65509744D01*
X61004774Y-65698102D01*
X60965000Y-65898061D01*
X50660000Y-65898061D01*
X50660000Y-47398061D01*
X63465000Y-47398061D01*
X63465000Y-47601939D01*
X63504774Y-47801898D01*
X63582795Y-47990256D01*
X63696063Y-48159774D01*
X63840226Y-48303937D01*
X64009744Y-48417205D01*
X64198102Y-48495226D01*
X64398061Y-48535000D01*
X64601939Y-48535000D01*
X64801898Y-48495226D01*
X64990256Y-48417205D01*
X65159774Y-48303937D01*
X65203711Y-48260000D01*
X68296289Y-48260000D01*
X68340226Y-48303937D01*
X68509744Y-48417205D01*
X68698102Y-48495226D01*
X68898061Y-48535000D01*
X69101939Y-48535000D01*
X69301898Y-48495226D01*
X69490256Y-48417205D01*
X69659774Y-48303937D01*
X69803937Y-48159774D01*
X69917205Y-47990256D01*
X69995226Y-47801898D01*
X70035000Y-47601939D01*
X70035000Y-47398061D01*
X69995226Y-47198102D01*
X69917205Y-47009744D01*
X69803937Y-46840226D01*
X69659774Y-46696063D01*
X69490256Y-46582795D01*
X69301898Y-46504774D01*
X69101939Y-46465000D01*
X68898061Y-46465000D01*
X68698102Y-46504774D01*
X68509744Y-46582795D01*
X68340226Y-46696063D01*
X68296289Y-46740000D01*
X65203711Y-46740000D01*
X65159774Y-46696063D01*
X64990256Y-46582795D01*
X64801898Y-46504774D01*
X64601939Y-46465000D01*
X64398061Y-46465000D01*
X64198102Y-46504774D01*
X64009744Y-46582795D01*
X63840226Y-46696063D01*
X63696063Y-46840226D01*
X63582795Y-47009744D01*
X63504774Y-47198102D01*
X63465000Y-47398061D01*
X50660000Y-47398061D01*
X50660000Y-43898061D01*
X80964988Y-43898061D01*
X80964988Y-44101939D01*
X81004762Y-44301898D01*
X81082783Y-44490256D01*
X81196051Y-44659774D01*
X81340214Y-44803937D01*
X81509732Y-44917205D01*
X81698090Y-44995226D01*
X81898049Y-45035000D01*
X82101927Y-45035000D01*
X82301886Y-44995226D01*
X82490244Y-44917205D01*
X82659762Y-44803937D01*
X82803925Y-44659774D01*
X82917193Y-44490256D01*
X82995214Y-44301898D01*
X83006523Y-44245043D01*
X83595049Y-43656518D01*
X83628817Y-43628805D01*
X83739411Y-43494047D01*
X83787032Y-43404954D01*
X83821589Y-43340302D01*
X83872195Y-43173478D01*
X83881126Y-43082795D01*
X83885000Y-43043465D01*
X83885000Y-43043457D01*
X83889281Y-42999988D01*
X83885000Y-42956519D01*
X83885000Y-42038454D01*
X83917205Y-41990256D01*
X83995226Y-41801898D01*
X84035000Y-41601939D01*
X84035000Y-41398061D01*
X83995226Y-41198102D01*
X83917205Y-41009744D01*
X83803937Y-40840226D01*
X83659774Y-40696063D01*
X83490256Y-40582795D01*
X83301898Y-40504774D01*
X83101939Y-40465000D01*
X82898061Y-40465000D01*
X82698102Y-40504774D01*
X82509744Y-40582795D01*
X82340226Y-40696063D01*
X82196063Y-40840226D01*
X82082795Y-41009744D01*
X82004774Y-41198102D01*
X81965000Y-41398061D01*
X81965000Y-41601939D01*
X82004774Y-41801898D01*
X82082795Y-41990256D01*
X82115000Y-42038455D01*
X82115001Y-42633409D01*
X81754945Y-42993465D01*
X81698090Y-43004774D01*
X81509732Y-43082795D01*
X81340214Y-43196063D01*
X81196051Y-43340226D01*
X81082783Y-43509744D01*
X81004762Y-43698102D01*
X80964988Y-43898061D01*
X50660000Y-43898061D01*
X50660000Y-41398061D01*
X66965000Y-41398061D01*
X66965000Y-41601939D01*
X67004774Y-41801898D01*
X67082795Y-41990256D01*
X67196063Y-42159774D01*
X67340226Y-42303937D01*
X67509744Y-42417205D01*
X67698102Y-42495226D01*
X67898061Y-42535000D01*
X68101939Y-42535000D01*
X68301898Y-42495226D01*
X68490256Y-42417205D01*
X68659774Y-42303937D01*
X68803937Y-42159774D01*
X68917205Y-41990256D01*
X68995226Y-41801898D01*
X69035000Y-41601939D01*
X69035000Y-41398061D01*
X68995226Y-41198102D01*
X68917205Y-41009744D01*
X68803937Y-40840226D01*
X68659774Y-40696063D01*
X68490256Y-40582795D01*
X68301898Y-40504774D01*
X68101939Y-40465000D01*
X67898061Y-40465000D01*
X67698102Y-40504774D01*
X67509744Y-40582795D01*
X67340226Y-40696063D01*
X67196063Y-40840226D01*
X67082795Y-41009744D01*
X67004774Y-41198102D01*
X66965000Y-41398061D01*
X50660000Y-41398061D01*
X50660000Y-34778166D01*
X61401439Y-34778166D01*
X61436550Y-34991588D01*
X61640826Y-35082458D01*
X61858905Y-35131731D01*
X62082406Y-35137511D01*
X62302740Y-35099577D01*
X62511440Y-35019387D01*
X62563450Y-34991588D01*
X62598561Y-34778166D01*
X62000000Y-34179605D01*
X61401439Y-34778166D01*
X50660000Y-34778166D01*
X50660000Y-34082406D01*
X60862489Y-34082406D01*
X60900423Y-34302740D01*
X60980613Y-34511440D01*
X61008412Y-34563450D01*
X61221834Y-34598561D01*
X61820395Y-34000000D01*
X62179605Y-34000000D01*
X62778166Y-34598561D01*
X62991588Y-34563450D01*
X63082458Y-34359174D01*
X63131731Y-34141095D01*
X63137511Y-33917594D01*
X63132453Y-33888212D01*
X66365000Y-33888212D01*
X66365000Y-34111788D01*
X66408617Y-34331067D01*
X66494176Y-34537624D01*
X66618388Y-34723520D01*
X66776480Y-34881612D01*
X66962376Y-35005824D01*
X67168933Y-35091383D01*
X67388212Y-35135000D01*
X67611788Y-35135000D01*
X67831067Y-35091383D01*
X68037624Y-35005824D01*
X68167479Y-34919057D01*
X70241102Y-36992681D01*
X70101939Y-36965000D01*
X69898061Y-36965000D01*
X69698102Y-37004774D01*
X69509744Y-37082795D01*
X69340226Y-37196063D01*
X69196063Y-37340226D01*
X69082795Y-37509744D01*
X69004774Y-37698102D01*
X68965000Y-37898061D01*
X68965000Y-38101939D01*
X69004774Y-38301898D01*
X69082795Y-38490256D01*
X69196063Y-38659774D01*
X69240000Y-38703711D01*
X69240001Y-39296288D01*
X69196063Y-39340226D01*
X69082795Y-39509744D01*
X69004774Y-39698102D01*
X68965000Y-39898061D01*
X68965000Y-40101939D01*
X69004774Y-40301898D01*
X69082795Y-40490256D01*
X69196063Y-40659774D01*
X69340226Y-40803937D01*
X69509744Y-40917205D01*
X69698102Y-40995226D01*
X69898061Y-41035000D01*
X70101939Y-41035000D01*
X70301898Y-40995226D01*
X70490256Y-40917205D01*
X70659774Y-40803937D01*
X70750000Y-40713711D01*
X70840226Y-40803937D01*
X71009744Y-40917205D01*
X71198102Y-40995226D01*
X71398061Y-41035000D01*
X71601939Y-41035000D01*
X71801898Y-40995226D01*
X71990256Y-40917205D01*
X72159774Y-40803937D01*
X72303937Y-40659774D01*
X72417205Y-40490256D01*
X72495226Y-40301898D01*
X72506535Y-40245043D01*
X75245044Y-37506535D01*
X75301898Y-37495226D01*
X75490256Y-37417205D01*
X75659774Y-37303937D01*
X75803937Y-37159774D01*
X75917205Y-36990256D01*
X75995226Y-36801898D01*
X76035000Y-36601939D01*
X76035000Y-36398061D01*
X75995226Y-36198102D01*
X75917205Y-36009744D01*
X75833854Y-35885000D01*
X76173893Y-35885000D01*
X76222091Y-35917205D01*
X76410449Y-35995226D01*
X76610408Y-36035000D01*
X76814286Y-36035000D01*
X77014245Y-35995226D01*
X77202603Y-35917205D01*
X77372121Y-35803937D01*
X77516284Y-35659774D01*
X77629552Y-35490256D01*
X77707573Y-35301898D01*
X77747347Y-35101939D01*
X77747347Y-35069916D01*
X78582396Y-34234868D01*
X78616164Y-34207155D01*
X78653520Y-34161638D01*
X78726758Y-34072397D01*
X78808936Y-33918652D01*
X78859542Y-33751828D01*
X78872347Y-33621815D01*
X78872347Y-33621807D01*
X78876628Y-33578338D01*
X78873741Y-33549021D01*
X78904552Y-33502909D01*
X78982573Y-33314551D01*
X79022347Y-33114592D01*
X79022347Y-32910714D01*
X78982573Y-32710755D01*
X78904552Y-32522397D01*
X78791284Y-32352879D01*
X78647121Y-32208716D01*
X78477603Y-32095448D01*
X78289245Y-32017427D01*
X78089286Y-31977653D01*
X77885408Y-31977653D01*
X77685449Y-32017427D01*
X77497091Y-32095448D01*
X77327573Y-32208716D01*
X77183410Y-32352879D01*
X77070142Y-32522397D01*
X76992121Y-32710755D01*
X76952347Y-32910714D01*
X76952347Y-33114592D01*
X76992121Y-33314551D01*
X76994298Y-33319808D01*
X76859354Y-33454753D01*
X76791284Y-33352879D01*
X76759121Y-33320716D01*
X76759121Y-30164360D01*
X76803058Y-30120423D01*
X76916326Y-29950905D01*
X76953294Y-29861658D01*
X76966892Y-29930022D01*
X77039259Y-30104731D01*
X77144319Y-30261964D01*
X77278036Y-30395681D01*
X77435269Y-30500741D01*
X77609978Y-30573108D01*
X77795448Y-30610000D01*
X77984552Y-30610000D01*
X78170022Y-30573108D01*
X78285000Y-30525482D01*
X78285000Y-30780837D01*
X78299976Y-30932894D01*
X78359159Y-31127992D01*
X78455266Y-31307797D01*
X78584604Y-31465396D01*
X78742203Y-31594734D01*
X78922007Y-31690841D01*
X79117105Y-31750024D01*
X79320000Y-31770007D01*
X79522894Y-31750024D01*
X79717992Y-31690841D01*
X79897797Y-31594734D01*
X80055396Y-31465396D01*
X80184734Y-31307797D01*
X80280841Y-31127993D01*
X80340024Y-30932895D01*
X80355000Y-30780838D01*
X80355000Y-29579162D01*
X80340024Y-29427105D01*
X80280841Y-29232007D01*
X80184734Y-29052203D01*
X80055396Y-28894604D01*
X79897797Y-28765266D01*
X79717993Y-28669159D01*
X79522895Y-28609976D01*
X79320000Y-28589993D01*
X79117106Y-28609976D01*
X78922008Y-28669159D01*
X78742204Y-28765266D01*
X78584605Y-28894604D01*
X78542975Y-28945330D01*
X78501964Y-28904319D01*
X78344731Y-28799259D01*
X78170022Y-28726892D01*
X77984552Y-28690000D01*
X77795448Y-28690000D01*
X77609978Y-28726892D01*
X77435269Y-28799259D01*
X77278036Y-28904319D01*
X77144319Y-29038036D01*
X77039259Y-29195269D01*
X77013825Y-29256673D01*
X76994347Y-29158751D01*
X76916326Y-28970393D01*
X76803058Y-28800875D01*
X76658895Y-28656712D01*
X76489377Y-28543444D01*
X76301019Y-28465423D01*
X76101060Y-28425649D01*
X75897182Y-28425649D01*
X75697223Y-28465423D01*
X75508865Y-28543444D01*
X75339347Y-28656712D01*
X75195184Y-28800875D01*
X75081916Y-28970393D01*
X75003895Y-29158751D01*
X74964121Y-29358710D01*
X74964121Y-29562588D01*
X75003895Y-29762547D01*
X75081916Y-29950905D01*
X75195184Y-30120423D01*
X75239121Y-30164360D01*
X75239122Y-33297167D01*
X75183410Y-33352879D01*
X75070142Y-33522397D01*
X74992121Y-33710755D01*
X74952347Y-33910714D01*
X74952347Y-34114592D01*
X74952428Y-34115000D01*
X74366579Y-34115000D01*
X73019188Y-32767610D01*
X73007879Y-32710755D01*
X72929858Y-32522397D01*
X72816590Y-32352879D01*
X72672427Y-32208716D01*
X72502909Y-32095448D01*
X72314551Y-32017427D01*
X72114592Y-31977653D01*
X71910714Y-31977653D01*
X71710755Y-32017427D01*
X71522397Y-32095448D01*
X71352879Y-32208716D01*
X71208716Y-32352879D01*
X71095448Y-32522397D01*
X71017427Y-32710755D01*
X70977653Y-32910714D01*
X70977653Y-33114592D01*
X71017427Y-33314551D01*
X71095448Y-33502909D01*
X71208716Y-33672427D01*
X71352879Y-33816590D01*
X71522397Y-33929858D01*
X71710755Y-34007879D01*
X71767610Y-34019188D01*
X73343470Y-35595049D01*
X73371183Y-35628817D01*
X73404951Y-35656530D01*
X73404953Y-35656532D01*
X73431614Y-35678412D01*
X73505941Y-35739411D01*
X73659687Y-35821589D01*
X73826510Y-35872195D01*
X73956523Y-35885000D01*
X73956533Y-35885000D01*
X73999999Y-35889281D01*
X74043466Y-35885000D01*
X74166146Y-35885000D01*
X74082795Y-36009744D01*
X74004774Y-36198102D01*
X73993465Y-36254956D01*
X72385000Y-37863422D01*
X72385000Y-37043469D01*
X72389281Y-37000000D01*
X72385000Y-36956531D01*
X72385000Y-36956523D01*
X72372195Y-36826510D01*
X72364729Y-36801898D01*
X72321589Y-36659686D01*
X72239411Y-36505941D01*
X72156532Y-36404953D01*
X72156530Y-36404951D01*
X72128817Y-36371183D01*
X72095049Y-36343470D01*
X69156534Y-33404956D01*
X69128817Y-33371183D01*
X68994059Y-33260589D01*
X68840313Y-33178411D01*
X68673490Y-33127805D01*
X68543477Y-33115000D01*
X68543469Y-33115000D01*
X68500000Y-33110719D01*
X68456531Y-33115000D01*
X68218450Y-33115000D01*
X68037624Y-32994176D01*
X67831067Y-32908617D01*
X67611788Y-32865000D01*
X67388212Y-32865000D01*
X67168933Y-32908617D01*
X66962376Y-32994176D01*
X66776480Y-33118388D01*
X66618388Y-33276480D01*
X66494176Y-33462376D01*
X66408617Y-33668933D01*
X66365000Y-33888212D01*
X63132453Y-33888212D01*
X63099577Y-33697260D01*
X63019387Y-33488560D01*
X62991588Y-33436550D01*
X62778166Y-33401439D01*
X62179605Y-34000000D01*
X61820395Y-34000000D01*
X61221834Y-33401439D01*
X61008412Y-33436550D01*
X60917542Y-33640826D01*
X60868269Y-33858905D01*
X60862489Y-34082406D01*
X50660000Y-34082406D01*
X50660000Y-33221834D01*
X61401439Y-33221834D01*
X62000000Y-33820395D01*
X62598561Y-33221834D01*
X62563450Y-33008412D01*
X62359174Y-32917542D01*
X62141095Y-32868269D01*
X61917594Y-32862489D01*
X61697260Y-32900423D01*
X61488560Y-32980613D01*
X61436550Y-33008412D01*
X61401439Y-33221834D01*
X50660000Y-33221834D01*
X50660000Y-30780837D01*
X69645000Y-30780837D01*
X69659976Y-30932894D01*
X69719159Y-31127992D01*
X69815266Y-31307797D01*
X69944604Y-31465396D01*
X70102203Y-31594734D01*
X70282007Y-31690841D01*
X70477105Y-31750024D01*
X70680000Y-31770007D01*
X70882894Y-31750024D01*
X71077992Y-31690841D01*
X71257797Y-31594734D01*
X71415396Y-31465396D01*
X71544734Y-31307797D01*
X71640841Y-31127993D01*
X71700024Y-30932895D01*
X71715000Y-30780838D01*
X71715000Y-30525482D01*
X71829978Y-30573108D01*
X72015448Y-30610000D01*
X72204552Y-30610000D01*
X72390022Y-30573108D01*
X72564731Y-30500741D01*
X72721964Y-30395681D01*
X72855681Y-30261964D01*
X72960741Y-30104731D01*
X73033108Y-29930022D01*
X73070000Y-29744552D01*
X73070000Y-29555448D01*
X73033108Y-29369978D01*
X72960741Y-29195269D01*
X72855681Y-29038036D01*
X72721964Y-28904319D01*
X72564731Y-28799259D01*
X72390022Y-28726892D01*
X72204552Y-28690000D01*
X72015448Y-28690000D01*
X71829978Y-28726892D01*
X71655269Y-28799259D01*
X71498036Y-28904319D01*
X71457025Y-28945330D01*
X71415396Y-28894604D01*
X71257797Y-28765266D01*
X71077993Y-28669159D01*
X70882895Y-28609976D01*
X70680000Y-28589993D01*
X70477106Y-28609976D01*
X70282008Y-28669159D01*
X70102204Y-28765266D01*
X69944605Y-28894604D01*
X69815267Y-29052203D01*
X69719160Y-29232007D01*
X69659977Y-29427105D01*
X69645001Y-29579162D01*
X69645000Y-30780837D01*
X50660000Y-30780837D01*
X50660000Y-25660000D01*
X69645001Y-25660000D01*
X69645000Y-26900837D01*
G37*
X69645000Y-26900837D02*
X69659976Y-27052894D01*
X69719159Y-27247992D01*
X69815266Y-27427797D01*
X69944604Y-27585396D01*
X70102203Y-27714734D01*
X70282007Y-27810841D01*
X70477105Y-27870024D01*
X70680000Y-27890007D01*
X70882894Y-27870024D01*
X71077992Y-27810841D01*
X71257797Y-27714734D01*
X71415396Y-27585396D01*
X71544734Y-27427797D01*
X71640841Y-27247993D01*
X71700024Y-27052895D01*
X71715000Y-26900838D01*
X71715000Y-25660000D01*
X78285001Y-25660000D01*
X78285000Y-26900837D01*
X78299976Y-27052894D01*
X78359159Y-27247992D01*
X78455266Y-27427797D01*
X78584604Y-27585396D01*
X78742203Y-27714734D01*
X78922007Y-27810841D01*
X79117105Y-27870024D01*
X79320000Y-27890007D01*
X79522894Y-27870024D01*
X79717992Y-27810841D01*
X79897797Y-27714734D01*
X80055396Y-27585396D01*
X80184734Y-27427797D01*
X80280841Y-27247993D01*
X80340024Y-27052895D01*
X80355000Y-26900838D01*
X80355000Y-25660000D01*
X99340000Y-25660000D01*
X99340001Y-84340000D01*
X89593402Y-84340000D01*
X89736920Y-84271641D01*
X89970269Y-84097588D01*
X90165178Y-83881355D01*
X90314157Y-83631252D01*
X90411481Y-83356891D01*
X90290814Y-83127000D01*
X89097000Y-83127000D01*
X89097000Y-83147000D01*
X88843000Y-83147000D01*
X88843000Y-83127000D01*
X88823000Y-83127000D01*
X88823000Y-82873000D01*
X88843000Y-82873000D01*
X88843000Y-81679845D01*
X89097000Y-81679845D01*
X89097000Y-82873000D01*
X90290814Y-82873000D01*
X90411481Y-82643109D01*
X90314157Y-82368748D01*
X90165178Y-82118645D01*
X89970269Y-81902412D01*
X89736920Y-81728359D01*
X89474099Y-81603175D01*
X89326890Y-81558524D01*
X89097000Y-81679845D01*
X88843000Y-81679845D01*
X88613110Y-81558524D01*
X88465901Y-81603175D01*
X88203080Y-81728359D01*
X87969731Y-81902412D01*
X87774822Y-82118645D01*
X87705195Y-82235534D01*
X87583475Y-82053368D01*
X87376632Y-81846525D01*
X87133411Y-81684010D01*
X86863158Y-81572068D01*
X86576260Y-81515000D01*
X86283740Y-81515000D01*
X85996842Y-81572068D01*
X85726589Y-81684010D01*
X85483368Y-81846525D01*
X85276525Y-82053368D01*
X85160000Y-82227760D01*
X85043475Y-82053368D01*
X84836632Y-81846525D01*
X84593411Y-81684010D01*
X84323158Y-81572068D01*
X84036260Y-81515000D01*
X83743740Y-81515000D01*
X83456842Y-81572068D01*
X83186589Y-81684010D01*
X82943368Y-81846525D01*
X82736525Y-82053368D01*
X82620000Y-82227760D01*
X82503475Y-82053368D01*
X82296632Y-81846525D01*
X82053411Y-81684010D01*
X81783158Y-81572068D01*
X81496260Y-81515000D01*
X81203740Y-81515000D01*
X80916842Y-81572068D01*
X80646589Y-81684010D01*
X80403368Y-81846525D01*
X80196525Y-82053368D01*
X80080000Y-82227760D01*
X79963475Y-82053368D01*
X79756632Y-81846525D01*
X79513411Y-81684010D01*
X79243158Y-81572068D01*
X78956260Y-81515000D01*
X78663740Y-81515000D01*
X78376842Y-81572068D01*
X78106589Y-81684010D01*
X77863368Y-81846525D01*
X77656525Y-82053368D01*
X77540000Y-82227760D01*
X77423475Y-82053368D01*
X77216632Y-81846525D01*
X76973411Y-81684010D01*
X76703158Y-81572068D01*
X76416260Y-81515000D01*
X76123740Y-81515000D01*
X75836842Y-81572068D01*
X75566589Y-81684010D01*
X75323368Y-81846525D01*
X75116525Y-82053368D01*
X75000000Y-82227760D01*
X74883475Y-82053368D01*
X74676632Y-81846525D01*
X74433411Y-81684010D01*
X74163158Y-81572068D01*
X73876260Y-81515000D01*
X73583740Y-81515000D01*
X73296842Y-81572068D01*
X73026589Y-81684010D01*
X72783368Y-81846525D01*
X72576525Y-82053368D01*
X72460000Y-82227760D01*
X72343475Y-82053368D01*
X72136632Y-81846525D01*
X71893411Y-81684010D01*
X71623158Y-81572068D01*
X71336260Y-81515000D01*
X71043740Y-81515000D01*
X70756842Y-81572068D01*
X70486589Y-81684010D01*
X70243368Y-81846525D01*
X70036525Y-82053368D01*
X69920000Y-82227760D01*
X69803475Y-82053368D01*
X69596632Y-81846525D01*
X69353411Y-81684010D01*
X69083158Y-81572068D01*
X68796260Y-81515000D01*
X68503740Y-81515000D01*
X68216842Y-81572068D01*
X67946589Y-81684010D01*
X67703368Y-81846525D01*
X67496525Y-82053368D01*
X67380000Y-82227760D01*
X67263475Y-82053368D01*
X67056632Y-81846525D01*
X66813411Y-81684010D01*
X66543158Y-81572068D01*
X66256260Y-81515000D01*
X65963740Y-81515000D01*
X65676842Y-81572068D01*
X65406589Y-81684010D01*
X65163368Y-81846525D01*
X64956525Y-82053368D01*
X64840000Y-82227760D01*
X64723475Y-82053368D01*
X64516632Y-81846525D01*
X64273411Y-81684010D01*
X64003158Y-81572068D01*
X63716260Y-81515000D01*
X63423740Y-81515000D01*
X63136842Y-81572068D01*
X62866589Y-81684010D01*
X62623368Y-81846525D01*
X62491513Y-81978380D01*
X62469502Y-81905820D01*
X62410537Y-81795506D01*
X62331185Y-81698815D01*
X62234494Y-81619463D01*
X62124180Y-81560498D01*
X62004482Y-81524188D01*
X61880000Y-81511928D01*
X60180000Y-81511928D01*
X60055518Y-81524188D01*
X59935820Y-81560498D01*
X59825506Y-81619463D01*
X59728815Y-81698815D01*
X59649463Y-81795506D01*
X59590498Y-81905820D01*
X59554188Y-82025518D01*
X59541928Y-82150000D01*
X59541928Y-83850000D01*
X59554188Y-83974482D01*
X59590498Y-84094180D01*
X59649463Y-84204494D01*
X59728815Y-84301185D01*
X59776111Y-84340000D01*
X50660000Y-84340000D01*
X50660000Y-65898061D01*
X60965000Y-65898061D01*
X60965000Y-66101939D01*
X61004774Y-66301898D01*
X61082795Y-66490256D01*
X61196063Y-66659774D01*
X61340226Y-66803937D01*
X61509744Y-66917205D01*
X61698102Y-66995226D01*
X61898061Y-67035000D01*
X62101939Y-67035000D01*
X62301898Y-66995226D01*
X62490256Y-66917205D01*
X62659774Y-66803937D01*
X62703711Y-66760000D01*
X65767462Y-66760000D01*
X65740000Y-66898061D01*
X65740000Y-67101939D01*
X65779774Y-67301898D01*
X65857795Y-67490256D01*
X65971063Y-67659774D01*
X66115226Y-67803937D01*
X66284744Y-67917205D01*
X66473102Y-67995226D01*
X66529957Y-68006535D01*
X67118470Y-68595049D01*
X67146183Y-68628817D01*
X67179951Y-68656530D01*
X67179953Y-68656532D01*
X67280941Y-68739411D01*
X67434686Y-68821589D01*
X67601510Y-68872195D01*
X67731523Y-68885000D01*
X67731531Y-68885000D01*
X67775000Y-68889281D01*
X67818469Y-68885000D01*
X69956539Y-68885000D01*
X70000008Y-68889281D01*
X70043477Y-68885000D01*
X70043485Y-68885000D01*
X70173498Y-68872195D01*
X70340321Y-68821589D01*
X70494067Y-68739411D01*
X70628825Y-68628817D01*
X70656542Y-68595044D01*
X72745052Y-66506535D01*
X72801906Y-66495226D01*
X72990264Y-66417205D01*
X73038462Y-66385000D01*
X75461546Y-66385000D01*
X75509744Y-66417205D01*
X75698102Y-66495226D01*
X75898061Y-66535000D01*
X76101939Y-66535000D01*
X76301898Y-66495226D01*
X76490256Y-66417205D01*
X76538454Y-66385000D01*
X77961546Y-66385000D01*
X78009744Y-66417205D01*
X78198102Y-66495226D01*
X78398061Y-66535000D01*
X78601939Y-66535000D01*
X78801898Y-66495226D01*
X78990256Y-66417205D01*
X79159774Y-66303937D01*
X79303937Y-66159774D01*
X79417205Y-65990256D01*
X79495226Y-65801898D01*
X79535000Y-65601939D01*
X79535000Y-65398061D01*
X79495226Y-65198102D01*
X79417205Y-65009744D01*
X79303937Y-64840226D01*
X79159774Y-64696063D01*
X78990256Y-64582795D01*
X78801898Y-64504774D01*
X78601939Y-64465000D01*
X78398061Y-64465000D01*
X78198102Y-64504774D01*
X78009744Y-64582795D01*
X77961546Y-64615000D01*
X76538454Y-64615000D01*
X76490256Y-64582795D01*
X76301898Y-64504774D01*
X76101939Y-64465000D01*
X75898061Y-64465000D01*
X75698102Y-64504774D01*
X75509744Y-64582795D01*
X75461546Y-64615000D01*
X73038462Y-64615000D01*
X72990264Y-64582795D01*
X72801906Y-64504774D01*
X72601947Y-64465000D01*
X72398069Y-64465000D01*
X72198110Y-64504774D01*
X72009752Y-64582795D01*
X71840234Y-64696063D01*
X71750004Y-64786293D01*
X71659774Y-64696063D01*
X71490256Y-64582795D01*
X71301898Y-64504774D01*
X71101939Y-64465000D01*
X70898061Y-64465000D01*
X70698102Y-64504774D01*
X70509744Y-64582795D01*
X70340226Y-64696063D01*
X70196063Y-64840226D01*
X70082795Y-65009744D01*
X70004774Y-65198102D01*
X69965000Y-65398061D01*
X69965000Y-65460198D01*
X69185199Y-66240000D01*
X68314802Y-66240000D01*
X67563804Y-65489002D01*
X67540001Y-65459999D01*
X67424276Y-65365026D01*
X67292247Y-65294454D01*
X67148986Y-65250997D01*
X67037333Y-65240000D01*
X67037322Y-65240000D01*
X67000000Y-65236324D01*
X66962678Y-65240000D01*
X62703711Y-65240000D01*
X62659774Y-65196063D01*
X62490256Y-65082795D01*
X62301898Y-65004774D01*
X62101939Y-64965000D01*
X61898061Y-64965000D01*
X61698102Y-65004774D01*
X61509744Y-65082795D01*
X61340226Y-65196063D01*
X61196063Y-65340226D01*
X61082795Y-65509744D01*
X61004774Y-65698102D01*
X60965000Y-65898061D01*
X50660000Y-65898061D01*
X50660000Y-47398061D01*
X63465000Y-47398061D01*
X63465000Y-47601939D01*
X63504774Y-47801898D01*
X63582795Y-47990256D01*
X63696063Y-48159774D01*
X63840226Y-48303937D01*
X64009744Y-48417205D01*
X64198102Y-48495226D01*
X64398061Y-48535000D01*
X64601939Y-48535000D01*
X64801898Y-48495226D01*
X64990256Y-48417205D01*
X65159774Y-48303937D01*
X65203711Y-48260000D01*
X68296289Y-48260000D01*
X68340226Y-48303937D01*
X68509744Y-48417205D01*
X68698102Y-48495226D01*
X68898061Y-48535000D01*
X69101939Y-48535000D01*
X69301898Y-48495226D01*
X69490256Y-48417205D01*
X69659774Y-48303937D01*
X69803937Y-48159774D01*
X69917205Y-47990256D01*
X69995226Y-47801898D01*
X70035000Y-47601939D01*
X70035000Y-47398061D01*
X69995226Y-47198102D01*
X69917205Y-47009744D01*
X69803937Y-46840226D01*
X69659774Y-46696063D01*
X69490256Y-46582795D01*
X69301898Y-46504774D01*
X69101939Y-46465000D01*
X68898061Y-46465000D01*
X68698102Y-46504774D01*
X68509744Y-46582795D01*
X68340226Y-46696063D01*
X68296289Y-46740000D01*
X65203711Y-46740000D01*
X65159774Y-46696063D01*
X64990256Y-46582795D01*
X64801898Y-46504774D01*
X64601939Y-46465000D01*
X64398061Y-46465000D01*
X64198102Y-46504774D01*
X64009744Y-46582795D01*
X63840226Y-46696063D01*
X63696063Y-46840226D01*
X63582795Y-47009744D01*
X63504774Y-47198102D01*
X63465000Y-47398061D01*
X50660000Y-47398061D01*
X50660000Y-43898061D01*
X80964988Y-43898061D01*
X80964988Y-44101939D01*
X81004762Y-44301898D01*
X81082783Y-44490256D01*
X81196051Y-44659774D01*
X81340214Y-44803937D01*
X81509732Y-44917205D01*
X81698090Y-44995226D01*
X81898049Y-45035000D01*
X82101927Y-45035000D01*
X82301886Y-44995226D01*
X82490244Y-44917205D01*
X82659762Y-44803937D01*
X82803925Y-44659774D01*
X82917193Y-44490256D01*
X82995214Y-44301898D01*
X83006523Y-44245043D01*
X83595049Y-43656518D01*
X83628817Y-43628805D01*
X83739411Y-43494047D01*
X83787032Y-43404954D01*
X83821589Y-43340302D01*
X83872195Y-43173478D01*
X83881126Y-43082795D01*
X83885000Y-43043465D01*
X83885000Y-43043457D01*
X83889281Y-42999988D01*
X83885000Y-42956519D01*
X83885000Y-42038454D01*
X83917205Y-41990256D01*
X83995226Y-41801898D01*
X84035000Y-41601939D01*
X84035000Y-41398061D01*
X83995226Y-41198102D01*
X83917205Y-41009744D01*
X83803937Y-40840226D01*
X83659774Y-40696063D01*
X83490256Y-40582795D01*
X83301898Y-40504774D01*
X83101939Y-40465000D01*
X82898061Y-40465000D01*
X82698102Y-40504774D01*
X82509744Y-40582795D01*
X82340226Y-40696063D01*
X82196063Y-40840226D01*
X82082795Y-41009744D01*
X82004774Y-41198102D01*
X81965000Y-41398061D01*
X81965000Y-41601939D01*
X82004774Y-41801898D01*
X82082795Y-41990256D01*
X82115000Y-42038455D01*
X82115001Y-42633409D01*
X81754945Y-42993465D01*
X81698090Y-43004774D01*
X81509732Y-43082795D01*
X81340214Y-43196063D01*
X81196051Y-43340226D01*
X81082783Y-43509744D01*
X81004762Y-43698102D01*
X80964988Y-43898061D01*
X50660000Y-43898061D01*
X50660000Y-41398061D01*
X66965000Y-41398061D01*
X66965000Y-41601939D01*
X67004774Y-41801898D01*
X67082795Y-41990256D01*
X67196063Y-42159774D01*
X67340226Y-42303937D01*
X67509744Y-42417205D01*
X67698102Y-42495226D01*
X67898061Y-42535000D01*
X68101939Y-42535000D01*
X68301898Y-42495226D01*
X68490256Y-42417205D01*
X68659774Y-42303937D01*
X68803937Y-42159774D01*
X68917205Y-41990256D01*
X68995226Y-41801898D01*
X69035000Y-41601939D01*
X69035000Y-41398061D01*
X68995226Y-41198102D01*
X68917205Y-41009744D01*
X68803937Y-40840226D01*
X68659774Y-40696063D01*
X68490256Y-40582795D01*
X68301898Y-40504774D01*
X68101939Y-40465000D01*
X67898061Y-40465000D01*
X67698102Y-40504774D01*
X67509744Y-40582795D01*
X67340226Y-40696063D01*
X67196063Y-40840226D01*
X67082795Y-41009744D01*
X67004774Y-41198102D01*
X66965000Y-41398061D01*
X50660000Y-41398061D01*
X50660000Y-34778166D01*
X61401439Y-34778166D01*
X61436550Y-34991588D01*
X61640826Y-35082458D01*
X61858905Y-35131731D01*
X62082406Y-35137511D01*
X62302740Y-35099577D01*
X62511440Y-35019387D01*
X62563450Y-34991588D01*
X62598561Y-34778166D01*
X62000000Y-34179605D01*
X61401439Y-34778166D01*
X50660000Y-34778166D01*
X50660000Y-34082406D01*
X60862489Y-34082406D01*
X60900423Y-34302740D01*
X60980613Y-34511440D01*
X61008412Y-34563450D01*
X61221834Y-34598561D01*
X61820395Y-34000000D01*
X62179605Y-34000000D01*
X62778166Y-34598561D01*
X62991588Y-34563450D01*
X63082458Y-34359174D01*
X63131731Y-34141095D01*
X63137511Y-33917594D01*
X63132453Y-33888212D01*
X66365000Y-33888212D01*
X66365000Y-34111788D01*
X66408617Y-34331067D01*
X66494176Y-34537624D01*
X66618388Y-34723520D01*
X66776480Y-34881612D01*
X66962376Y-35005824D01*
X67168933Y-35091383D01*
X67388212Y-35135000D01*
X67611788Y-35135000D01*
X67831067Y-35091383D01*
X68037624Y-35005824D01*
X68167479Y-34919057D01*
X70241102Y-36992681D01*
X70101939Y-36965000D01*
X69898061Y-36965000D01*
X69698102Y-37004774D01*
X69509744Y-37082795D01*
X69340226Y-37196063D01*
X69196063Y-37340226D01*
X69082795Y-37509744D01*
X69004774Y-37698102D01*
X68965000Y-37898061D01*
X68965000Y-38101939D01*
X69004774Y-38301898D01*
X69082795Y-38490256D01*
X69196063Y-38659774D01*
X69240000Y-38703711D01*
X69240001Y-39296288D01*
X69196063Y-39340226D01*
X69082795Y-39509744D01*
X69004774Y-39698102D01*
X68965000Y-39898061D01*
X68965000Y-40101939D01*
X69004774Y-40301898D01*
X69082795Y-40490256D01*
X69196063Y-40659774D01*
X69340226Y-40803937D01*
X69509744Y-40917205D01*
X69698102Y-40995226D01*
X69898061Y-41035000D01*
X70101939Y-41035000D01*
X70301898Y-40995226D01*
X70490256Y-40917205D01*
X70659774Y-40803937D01*
X70750000Y-40713711D01*
X70840226Y-40803937D01*
X71009744Y-40917205D01*
X71198102Y-40995226D01*
X71398061Y-41035000D01*
X71601939Y-41035000D01*
X71801898Y-40995226D01*
X71990256Y-40917205D01*
X72159774Y-40803937D01*
X72303937Y-40659774D01*
X72417205Y-40490256D01*
X72495226Y-40301898D01*
X72506535Y-40245043D01*
X75245044Y-37506535D01*
X75301898Y-37495226D01*
X75490256Y-37417205D01*
X75659774Y-37303937D01*
X75803937Y-37159774D01*
X75917205Y-36990256D01*
X75995226Y-36801898D01*
X76035000Y-36601939D01*
X76035000Y-36398061D01*
X75995226Y-36198102D01*
X75917205Y-36009744D01*
X75833854Y-35885000D01*
X76173893Y-35885000D01*
X76222091Y-35917205D01*
X76410449Y-35995226D01*
X76610408Y-36035000D01*
X76814286Y-36035000D01*
X77014245Y-35995226D01*
X77202603Y-35917205D01*
X77372121Y-35803937D01*
X77516284Y-35659774D01*
X77629552Y-35490256D01*
X77707573Y-35301898D01*
X77747347Y-35101939D01*
X77747347Y-35069916D01*
X78582396Y-34234868D01*
X78616164Y-34207155D01*
X78653520Y-34161638D01*
X78726758Y-34072397D01*
X78808936Y-33918652D01*
X78859542Y-33751828D01*
X78872347Y-33621815D01*
X78872347Y-33621807D01*
X78876628Y-33578338D01*
X78873741Y-33549021D01*
X78904552Y-33502909D01*
X78982573Y-33314551D01*
X79022347Y-33114592D01*
X79022347Y-32910714D01*
X78982573Y-32710755D01*
X78904552Y-32522397D01*
X78791284Y-32352879D01*
X78647121Y-32208716D01*
X78477603Y-32095448D01*
X78289245Y-32017427D01*
X78089286Y-31977653D01*
X77885408Y-31977653D01*
X77685449Y-32017427D01*
X77497091Y-32095448D01*
X77327573Y-32208716D01*
X77183410Y-32352879D01*
X77070142Y-32522397D01*
X76992121Y-32710755D01*
X76952347Y-32910714D01*
X76952347Y-33114592D01*
X76992121Y-33314551D01*
X76994298Y-33319808D01*
X76859354Y-33454753D01*
X76791284Y-33352879D01*
X76759121Y-33320716D01*
X76759121Y-30164360D01*
X76803058Y-30120423D01*
X76916326Y-29950905D01*
X76953294Y-29861658D01*
X76966892Y-29930022D01*
X77039259Y-30104731D01*
X77144319Y-30261964D01*
X77278036Y-30395681D01*
X77435269Y-30500741D01*
X77609978Y-30573108D01*
X77795448Y-30610000D01*
X77984552Y-30610000D01*
X78170022Y-30573108D01*
X78285000Y-30525482D01*
X78285000Y-30780837D01*
X78299976Y-30932894D01*
X78359159Y-31127992D01*
X78455266Y-31307797D01*
X78584604Y-31465396D01*
X78742203Y-31594734D01*
X78922007Y-31690841D01*
X79117105Y-31750024D01*
X79320000Y-31770007D01*
X79522894Y-31750024D01*
X79717992Y-31690841D01*
X79897797Y-31594734D01*
X80055396Y-31465396D01*
X80184734Y-31307797D01*
X80280841Y-31127993D01*
X80340024Y-30932895D01*
X80355000Y-30780838D01*
X80355000Y-29579162D01*
X80340024Y-29427105D01*
X80280841Y-29232007D01*
X80184734Y-29052203D01*
X80055396Y-28894604D01*
X79897797Y-28765266D01*
X79717993Y-28669159D01*
X79522895Y-28609976D01*
X79320000Y-28589993D01*
X79117106Y-28609976D01*
X78922008Y-28669159D01*
X78742204Y-28765266D01*
X78584605Y-28894604D01*
X78542975Y-28945330D01*
X78501964Y-28904319D01*
X78344731Y-28799259D01*
X78170022Y-28726892D01*
X77984552Y-28690000D01*
X77795448Y-28690000D01*
X77609978Y-28726892D01*
X77435269Y-28799259D01*
X77278036Y-28904319D01*
X77144319Y-29038036D01*
X77039259Y-29195269D01*
X77013825Y-29256673D01*
X76994347Y-29158751D01*
X76916326Y-28970393D01*
X76803058Y-28800875D01*
X76658895Y-28656712D01*
X76489377Y-28543444D01*
X76301019Y-28465423D01*
X76101060Y-28425649D01*
X75897182Y-28425649D01*
X75697223Y-28465423D01*
X75508865Y-28543444D01*
X75339347Y-28656712D01*
X75195184Y-28800875D01*
X75081916Y-28970393D01*
X75003895Y-29158751D01*
X74964121Y-29358710D01*
X74964121Y-29562588D01*
X75003895Y-29762547D01*
X75081916Y-29950905D01*
X75195184Y-30120423D01*
X75239121Y-30164360D01*
X75239122Y-33297167D01*
X75183410Y-33352879D01*
X75070142Y-33522397D01*
X74992121Y-33710755D01*
X74952347Y-33910714D01*
X74952347Y-34114592D01*
X74952428Y-34115000D01*
X74366579Y-34115000D01*
X73019188Y-32767610D01*
X73007879Y-32710755D01*
X72929858Y-32522397D01*
X72816590Y-32352879D01*
X72672427Y-32208716D01*
X72502909Y-32095448D01*
X72314551Y-32017427D01*
X72114592Y-31977653D01*
X71910714Y-31977653D01*
X71710755Y-32017427D01*
X71522397Y-32095448D01*
X71352879Y-32208716D01*
X71208716Y-32352879D01*
X71095448Y-32522397D01*
X71017427Y-32710755D01*
X70977653Y-32910714D01*
X70977653Y-33114592D01*
X71017427Y-33314551D01*
X71095448Y-33502909D01*
X71208716Y-33672427D01*
X71352879Y-33816590D01*
X71522397Y-33929858D01*
X71710755Y-34007879D01*
X71767610Y-34019188D01*
X73343470Y-35595049D01*
X73371183Y-35628817D01*
X73404951Y-35656530D01*
X73404953Y-35656532D01*
X73431614Y-35678412D01*
X73505941Y-35739411D01*
X73659687Y-35821589D01*
X73826510Y-35872195D01*
X73956523Y-35885000D01*
X73956533Y-35885000D01*
X73999999Y-35889281D01*
X74043466Y-35885000D01*
X74166146Y-35885000D01*
X74082795Y-36009744D01*
X74004774Y-36198102D01*
X73993465Y-36254956D01*
X72385000Y-37863422D01*
X72385000Y-37043469D01*
X72389281Y-37000000D01*
X72385000Y-36956531D01*
X72385000Y-36956523D01*
X72372195Y-36826510D01*
X72364729Y-36801898D01*
X72321589Y-36659686D01*
X72239411Y-36505941D01*
X72156532Y-36404953D01*
X72156530Y-36404951D01*
X72128817Y-36371183D01*
X72095049Y-36343470D01*
X69156534Y-33404956D01*
X69128817Y-33371183D01*
X68994059Y-33260589D01*
X68840313Y-33178411D01*
X68673490Y-33127805D01*
X68543477Y-33115000D01*
X68543469Y-33115000D01*
X68500000Y-33110719D01*
X68456531Y-33115000D01*
X68218450Y-33115000D01*
X68037624Y-32994176D01*
X67831067Y-32908617D01*
X67611788Y-32865000D01*
X67388212Y-32865000D01*
X67168933Y-32908617D01*
X66962376Y-32994176D01*
X66776480Y-33118388D01*
X66618388Y-33276480D01*
X66494176Y-33462376D01*
X66408617Y-33668933D01*
X66365000Y-33888212D01*
X63132453Y-33888212D01*
X63099577Y-33697260D01*
X63019387Y-33488560D01*
X62991588Y-33436550D01*
X62778166Y-33401439D01*
X62179605Y-34000000D01*
X61820395Y-34000000D01*
X61221834Y-33401439D01*
X61008412Y-33436550D01*
X60917542Y-33640826D01*
X60868269Y-33858905D01*
X60862489Y-34082406D01*
X50660000Y-34082406D01*
X50660000Y-33221834D01*
X61401439Y-33221834D01*
X62000000Y-33820395D01*
X62598561Y-33221834D01*
X62563450Y-33008412D01*
X62359174Y-32917542D01*
X62141095Y-32868269D01*
X61917594Y-32862489D01*
X61697260Y-32900423D01*
X61488560Y-32980613D01*
X61436550Y-33008412D01*
X61401439Y-33221834D01*
X50660000Y-33221834D01*
X50660000Y-30780837D01*
X69645000Y-30780837D01*
X69659976Y-30932894D01*
X69719159Y-31127992D01*
X69815266Y-31307797D01*
X69944604Y-31465396D01*
X70102203Y-31594734D01*
X70282007Y-31690841D01*
X70477105Y-31750024D01*
X70680000Y-31770007D01*
X70882894Y-31750024D01*
X71077992Y-31690841D01*
X71257797Y-31594734D01*
X71415396Y-31465396D01*
X71544734Y-31307797D01*
X71640841Y-31127993D01*
X71700024Y-30932895D01*
X71715000Y-30780838D01*
X71715000Y-30525482D01*
X71829978Y-30573108D01*
X72015448Y-30610000D01*
X72204552Y-30610000D01*
X72390022Y-30573108D01*
X72564731Y-30500741D01*
X72721964Y-30395681D01*
X72855681Y-30261964D01*
X72960741Y-30104731D01*
X73033108Y-29930022D01*
X73070000Y-29744552D01*
X73070000Y-29555448D01*
X73033108Y-29369978D01*
X72960741Y-29195269D01*
X72855681Y-29038036D01*
X72721964Y-28904319D01*
X72564731Y-28799259D01*
X72390022Y-28726892D01*
X72204552Y-28690000D01*
X72015448Y-28690000D01*
X71829978Y-28726892D01*
X71655269Y-28799259D01*
X71498036Y-28904319D01*
X71457025Y-28945330D01*
X71415396Y-28894604D01*
X71257797Y-28765266D01*
X71077993Y-28669159D01*
X70882895Y-28609976D01*
X70680000Y-28589993D01*
X70477106Y-28609976D01*
X70282008Y-28669159D01*
X70102204Y-28765266D01*
X69944605Y-28894604D01*
X69815267Y-29052203D01*
X69719160Y-29232007D01*
X69659977Y-29427105D01*
X69645001Y-29579162D01*
X69645000Y-30780837D01*
X50660000Y-30780837D01*
X50660000Y-25660000D01*
X69645001Y-25660000D01*
X69645000Y-26900837D01*
M02*
