M48
; DRILL file {KiCad 7.0.1-3b83917a11~172~ubuntu22.04.1} date 2023. máj. 22., hétfő, 12:58:43 CEST
; FORMAT={-:-/ absolute / inch / decimal}
; #@! TF.CreationDate,2023-05-22T12:58:43+02:00
; #@! TF.GenerationSoftware,Kicad,Pcbnew,7.0.1-3b83917a11~172~ubuntu22.04.1
; #@! TF.FileFunction,MixedPlating,1,4
FMAT,2
INCH
; #@! TA.AperFunction,Plated,PTH,ViaDrill
T1C0.0118
; #@! TA.AperFunction,Plated,PTH,ComponentDrill
T2C0.0197
; #@! TA.AperFunction,Plated,PTH,ComponentDrill
T3C0.0256
; #@! TA.AperFunction,Plated,PTH,ComponentDrill
T4C0.0295
; #@! TA.AperFunction,Plated,PTH,ComponentDrill
T5C0.0394
; #@! TA.AperFunction,Plated,PTH,ComponentDrill
T6C0.0591
; #@! TA.AperFunction,Plated,PTH,ComponentDrill
T7C0.0669
; #@! TA.AperFunction,Plated,PTH,ComponentDrill
T8C0.0866
; #@! TA.AperFunction,Plated,PTH,ComponentDrill
T9C0.1378
; #@! TA.AperFunction,NonPlated,NPTH,ComponentDrill
T10C0.0256
%
G90
G05
T1
X1.9882Y-3.937
X2.0472Y-3.8583
X2.0472Y-3.937
X2.0472Y-4.0256
X2.1161Y-4.9705
X2.1358Y-5.0295
X2.3139Y-4.022
X2.317Y-1.992
X2.317Y-3.042
X2.317Y-4.092
X2.317Y-5.142
X2.3239Y-3.8189
X2.327Y-2.117
X2.3274Y-3.167
X2.3274Y-4.217
X2.3274Y-5.267
X2.3533Y-4.022
X2.3633Y-3.8189
X2.3926Y-4.022
X2.4026Y-3.8189
X2.407Y-1.992
X2.407Y-3.007
X2.407Y-3.042
X2.407Y-4.057
X2.407Y-4.092
X2.407Y-5.107
X2.407Y-5.142
X2.427Y-2.132
X2.427Y-2.167
X2.427Y-3.182
X2.427Y-4.232
X2.427Y-5.282
X2.432Y-4.022
X2.442Y-3.8189
X2.6615Y-4.6366
X2.662Y-3.117
X2.662Y-3.157
X2.662Y-3.197
X2.662Y-3.237
X2.662Y-3.277
X2.662Y-3.317
X2.662Y-3.547
X2.662Y-3.587
X2.662Y-3.627
X2.662Y-3.667
X2.662Y-3.707
X2.662Y-3.747
X2.662Y-4.167
X2.662Y-4.207
X2.662Y-4.247
X2.662Y-4.287
X2.662Y-4.327
X2.662Y-4.367
X2.662Y-4.597
X2.662Y-4.677
X2.662Y-4.717
X2.662Y-4.757
X2.662Y-4.797
X2.682Y-3.777
X2.682Y-4.827
X2.7056Y-3.7765
X2.7067Y-4.827
X2.722Y-3.3268
X2.722Y-3.372
X2.722Y-4.3799
X2.722Y-4.422
X2.7221Y-3.7597
X2.7241Y-4.8111
X2.727Y-2.972
X2.7953Y-5.748
X2.9528Y-5.748
X3.042Y-3.452
X3.042Y-4.502
X3.052Y-2.9882
X3.052Y-4.0453
X3.0906Y-2.9882
X3.0906Y-4.0453
X3.112Y-3.077
X3.112Y-3.117
X3.112Y-3.157
X3.112Y-3.197
X3.112Y-3.237
X3.112Y-3.277
X3.112Y-3.507
X3.112Y-3.547
X3.112Y-3.587
X3.112Y-3.627
X3.112Y-3.667
X3.112Y-3.707
X3.112Y-4.167
X3.112Y-4.207
X3.112Y-4.247
X3.112Y-4.287
X3.112Y-4.327
X3.112Y-4.557
X3.112Y-4.597
X3.112Y-4.637
X3.112Y-4.677
X3.112Y-4.717
X3.112Y-4.757
X3.137Y-4.937
X3.137Y-4.962
X3.137Y-4.987
X3.137Y-5.012
X3.137Y-5.037
X3.1594Y-4.1437
X3.342Y-2.012
X3.342Y-2.147
X3.342Y-3.062
X3.342Y-4.112
X3.342Y-5.162
X3.367Y-1.992
X3.367Y-3.007
X3.367Y-3.042
X3.367Y-4.057
X3.367Y-4.092
X3.367Y-5.107
X3.367Y-5.142
X3.377Y-2.117
X3.3774Y-3.167
X3.3774Y-4.217
X3.3774Y-5.267
X3.457Y-1.992
X3.457Y-3.007
X3.457Y-3.042
X3.457Y-4.057
X3.457Y-4.092
X3.457Y-5.107
X3.457Y-5.142
X3.477Y-2.132
X3.477Y-2.172
X3.477Y-3.182
X3.477Y-4.232
X3.477Y-5.282
X3.592Y-2.172
X3.6614Y-3.6319
X3.6811Y-3.8976
X3.6811Y-4.0354
X3.7303Y-2.4705
X3.7598Y-2.2835
X3.7598Y-3.3858
X3.7697Y-2.2343
X3.7795Y-2.5984
X3.7894Y-2.2638
X3.7992Y-3.4449
X3.8189Y-4.6457
X3.8287Y-2.2638
X3.8386Y-2.313
X3.8386Y-3.8976
X3.8386Y-4.0256
X3.8583Y-2.5984
X3.8583Y-5.6102
X3.8583Y-5.6398
X3.8681Y-2.1555
X3.8712Y-4.1922
X3.877Y-3.132
X3.8839Y-4.0354
X3.8878Y-3.8878
X3.8878Y-3.9862
X3.8878Y-4.4094
X3.8976Y-4.3209
X3.8978Y-3.701
X3.9041Y-3.7688
X3.9075Y-2.4705
X3.9075Y-2.5492
X3.9075Y-4.0354
X3.9079Y-4.2717
X3.9173Y-4.4193
X3.937Y-2.5492
X3.937Y-2.5984
X3.937Y-4.0354
X3.937Y-5.3445
X3.937Y-5.502
X3.9395Y-3.8371
X3.9469Y-3.4547
X3.9469Y-3.5728
X3.9508Y-3.7308
X3.9561Y-2.849
X3.9561Y-2.899
X3.9561Y-2.949
X3.9561Y-2.982
X3.9567Y-4.1831
X3.9567Y-4.4193
X3.957Y-2.799
X3.957Y-3.037
X3.9665Y-2.5492
X3.9665Y-4.0354
X3.9818Y-3.8371
X3.9862Y-3.8878
X3.9862Y-3.9862
X3.9862Y-4.4094
X3.9961Y-3.8583
X4.002Y-3.7299
X4.0059Y-2.1555
X4.0066Y-3.8372
X4.0157Y-2.3524
X4.0157Y-2.5984
X4.0283Y-3.9048
X4.0302Y-3.8796
X4.0354Y-2.313
X4.0361Y-2.699
X4.0361Y-2.799
X4.0361Y-2.849
X4.0361Y-2.899
X4.0394Y-4.0394
X4.0412Y-3.8587
X4.0453Y-2.2638
X4.0551Y-2.3524
X4.0551Y-2.4213
X4.0551Y-2.4508
X4.0551Y-2.4902
X4.0551Y-3.6811
X4.0551Y-4.6457
X4.065Y-4.065
X4.065Y-4.0945
X4.065Y-4.1929
X4.065Y-4.2224
X4.065Y-4.252
X4.0748Y-4.3602
X4.0846Y-2.2638
X4.0846Y-2.4705
X4.0846Y-4.1142
X4.0846Y-4.1437
X4.0846Y-4.1732
X4.0945Y-2.3524
X4.0945Y-2.5984
X4.1043Y-2.2343
X4.1043Y-3.8189
X4.1043Y-4.2717
X4.1103Y-3.8462
X4.1142Y-2.2835
X4.124Y-3.8681
X4.1339Y-4.252
X4.1437Y-2.3819
X4.1437Y-4.0197
X4.1634Y-3.8681
X4.1634Y-4.2717
X4.177Y-3.032
X4.1929Y-4.0157
X4.2028Y-4.0453
X4.2028Y-4.0748
X4.2028Y-4.1043
X4.2028Y-4.1339
X4.2028Y-4.1634
X4.2028Y-4.1929
X4.2028Y-4.2224
X4.2028Y-4.252
X4.2033Y-2.815
X4.3209Y-4.937
X4.3406Y-4.962
X4.3602Y-4.987
X4.392Y-2.012
X4.392Y-3.062
X4.392Y-4.112
X4.392Y-5.162
X4.417Y-1.992
X4.417Y-3.007
X4.417Y-3.042
X4.417Y-4.057
X4.417Y-4.092
X4.417Y-5.142
X4.427Y-2.117
X4.427Y-5.107
X4.4274Y-3.167
X4.4274Y-4.217
X4.4274Y-5.267
X4.507Y-1.992
X4.507Y-3.007
X4.507Y-3.042
X4.507Y-4.057
X4.507Y-4.092
X4.507Y-5.107
X4.507Y-5.142
X4.527Y-2.132
X4.527Y-3.182
X4.527Y-4.232
X4.527Y-5.282
X4.737Y-4.937
X4.737Y-4.962
X4.737Y-4.987
X4.737Y-5.012
X4.737Y-5.037
X4.762Y-3.117
X4.762Y-3.157
X4.762Y-3.197
X4.762Y-3.237
X4.762Y-3.277
X4.762Y-3.317
X4.762Y-3.547
X4.762Y-3.587
X4.762Y-3.627
X4.762Y-3.667
X4.762Y-3.707
X4.762Y-3.747
X4.762Y-4.167
X4.762Y-4.207
X4.762Y-4.247
X4.762Y-4.287
X4.762Y-4.327
X4.762Y-4.367
X4.762Y-4.597
X4.762Y-4.637
X4.762Y-4.677
X4.762Y-4.717
X4.762Y-4.757
X4.762Y-4.797
X4.782Y-3.777
X4.782Y-4.827
X4.8056Y-3.777
X4.8056Y-4.827
X4.822Y-3.372
X4.822Y-3.7598
X4.822Y-4.3799
X4.822Y-4.422
X4.8228Y-3.3268
X4.8239Y-4.8121
X5.142Y-3.452
X5.142Y-4.502
X5.152Y-2.9882
X5.152Y-4.0453
X5.192Y-2.9882
X5.192Y-4.0453
X5.212Y-3.117
X5.212Y-3.157
X5.212Y-3.197
X5.212Y-3.237
X5.212Y-3.277
X5.212Y-3.507
X5.212Y-3.547
X5.212Y-3.587
X5.212Y-3.627
X5.212Y-3.667
X5.212Y-3.707
X5.212Y-4.167
X5.212Y-4.207
X5.212Y-4.247
X5.212Y-4.287
X5.212Y-4.327
X5.212Y-4.557
X5.212Y-4.597
X5.212Y-4.637
X5.212Y-4.677
X5.212Y-4.717
X5.212Y-4.757
X5.2657Y-3.1004
X5.2657Y-4.1437
X5.347Y-2.047
X5.442Y-3.062
X5.442Y-4.112
X5.442Y-5.162
X5.467Y-1.992
X5.467Y-3.007
X5.467Y-3.042
X5.467Y-4.057
X5.467Y-4.092
X5.467Y-5.107
X5.467Y-5.142
X5.4766Y-2.117
X5.477Y-3.167
X5.477Y-4.217
X5.477Y-5.267
X5.5512Y-3.8189
X5.5512Y-4.0551
X5.557Y-1.992
X5.557Y-3.042
X5.557Y-4.092
X5.557Y-5.107
X5.557Y-5.142
X5.5906Y-3.8189
X5.5906Y-4.0551
X5.592Y-4.102
X5.6299Y-3.8189
X5.6299Y-4.0551
X5.6693Y-3.8189
X5.6693Y-4.0551
X5.6988Y-5.0689
X5.748Y-4.9902
X5.7677Y-4.0846
X5.7972Y-3.7598
X5.7972Y-3.937
X5.8366Y-3.937
T3
X3.7648Y-4.1437
X3.7648Y-4.1937
X3.7648Y-4.2437
X3.7648Y-4.2937
X3.7648Y-4.3437
X3.8148Y-4.1437
X3.8148Y-4.1937
X3.8148Y-4.2437
X3.8148Y-4.2937
X3.8148Y-4.3437
T4
X3.8524Y-5.7677
X4.0217Y-5.7677
T5
X2.262Y-2.0864
X2.262Y-2.6573
X2.262Y-3.1364
X2.262Y-3.7073
X2.262Y-4.1864
X2.262Y-4.7573
X2.262Y-5.2364
X2.262Y-5.8073
X2.362Y-2.6573
X2.362Y-3.7073
X2.362Y-4.7573
X2.362Y-5.8073
X2.462Y-2.0864
X2.462Y-2.6573
X2.462Y-3.1364
X2.462Y-3.7073
X2.462Y-4.1864
X2.462Y-4.7573
X2.462Y-5.2364
X2.462Y-5.8073
X3.312Y-2.0864
X3.312Y-2.6573
X3.312Y-3.1364
X3.312Y-3.7073
X3.312Y-4.1864
X3.312Y-4.7573
X3.312Y-5.2364
X3.312Y-5.8073
X3.412Y-2.6573
X3.412Y-3.7073
X3.412Y-4.7573
X3.412Y-5.8073
X3.512Y-2.0864
X3.512Y-2.6573
X3.512Y-3.1364
X3.512Y-3.7073
X3.512Y-4.1864
X3.512Y-4.7573
X3.512Y-5.2364
X3.512Y-5.8073
X4.362Y-2.0864
X4.362Y-2.6573
X4.362Y-3.1364
X4.362Y-3.7073
X4.362Y-4.1864
X4.362Y-4.7573
X4.362Y-5.2364
X4.362Y-5.8073
X4.462Y-2.6573
X4.462Y-3.7073
X4.462Y-4.7573
X4.462Y-5.8073
X4.562Y-2.0864
X4.562Y-2.6573
X4.562Y-3.1364
X4.562Y-3.7073
X4.562Y-4.1864
X4.562Y-4.7573
X4.562Y-5.2364
X4.562Y-5.8073
X5.412Y-2.0864
X5.412Y-2.6573
X5.412Y-3.1364
X5.412Y-3.7073
X5.412Y-4.1864
X5.412Y-4.7573
X5.412Y-5.2364
X5.412Y-5.8073
X5.512Y-2.6573
X5.512Y-3.7073
X5.512Y-4.7573
X5.512Y-5.8073
X5.612Y-2.0864
X5.612Y-2.6573
X5.612Y-3.1364
X5.612Y-3.7073
X5.612Y-4.1864
X5.612Y-4.7573
X5.612Y-5.2364
X5.612Y-5.8073
T6
X2.0472Y-2.7689
X2.0472Y-2.8476
X2.0472Y-2.9264
X2.0472Y-3.0051
X2.0472Y-4.8689
X2.0472Y-4.9476
X2.0472Y-5.0264
X2.0472Y-5.1051
X2.7689Y-2.0472
X2.7689Y-5.8268
X2.8476Y-2.0472
X2.8476Y-5.8268
X2.9264Y-2.0472
X2.9264Y-5.8268
X3.0051Y-2.0472
X3.0051Y-5.8268
X4.8689Y-2.0472
X4.8689Y-5.8268
X4.9476Y-2.0472
X4.9476Y-5.8268
X5.0264Y-2.0472
X5.0264Y-5.8268
X5.1051Y-2.0472
X5.1051Y-5.8268
X5.8268Y-2.7689
X5.8268Y-2.8476
X5.8268Y-2.9264
X5.8268Y-3.0051
X5.8268Y-4.8689
X5.8268Y-4.9476
X5.8268Y-5.0264
X5.8268Y-5.1051
T7
X2.0866Y-2.0866
X2.0866Y-5.7874
X2.887Y-2.887
X2.887Y-4.987
X4.987Y-2.887
X4.987Y-4.987
X5.7874Y-2.0866
X5.7874Y-5.7874
T8
X2.1159Y-2.362
X2.1159Y-3.412
X2.1159Y-4.462
X2.1159Y-5.512
X2.6081Y-2.362
X2.6081Y-3.412
X2.6081Y-4.462
X2.6081Y-5.512
X3.1659Y-2.362
X3.1659Y-3.412
X3.1659Y-4.462
X3.1659Y-5.512
X3.6581Y-2.362
X3.6581Y-3.412
X3.6581Y-4.462
X3.6581Y-5.512
X4.2159Y-2.362
X4.2159Y-3.412
X4.2159Y-4.462
X4.2159Y-5.512
X4.7081Y-2.362
X4.7081Y-3.412
X4.7081Y-4.462
X4.7081Y-5.512
X5.2659Y-2.362
X5.2659Y-3.412
X5.2659Y-4.462
X5.2659Y-5.512
X5.7581Y-2.362
X5.7581Y-3.412
X5.7581Y-4.462
X5.7581Y-5.512
T10
X3.8232Y-2.1594
X4.0508Y-2.1594
T2
G00X3.7669Y-2.0236
M15
G01X3.7669Y-2.0079
M16
G05
G00X3.7669Y-2.1941
M15
G01X3.7669Y-2.1665
M16
G05
G00X4.1071Y-2.0236
M15
G01X4.1071Y-2.0079
M16
G05
G00X4.1071Y-2.1941
M15
G01X4.1071Y-2.1665
M16
G05
T9
G00X3.8484Y-4.9673
M15
G01X3.8484Y-5.0067
M16
G05
G00X4.0256Y-4.9673
M15
G01X4.0256Y-5.0067
M16
G05
T0
M30
