G04 Layer_Physical_Order=2*
G04 Layer_Color=32768*
%FSLAX43Y43*%
%MOMM*%
G71*
G01*
G75*
%ADD78C,0.500*%
%ADD79C,1.250*%
%ADD80C,2.100*%
%ADD81C,1.489*%
%ADD82C,1.616*%
%ADD83C,2.200*%
%ADD84C,3.851*%
G04:AMPARAMS|DCode=85|XSize=2.174mm|YSize=2.174mm|CornerRadius=0mm|HoleSize=0mm|Usage=FLASHONLY|Rotation=0.000|XOffset=0mm|YOffset=0mm|HoleType=Round|Shape=Relief|Width=0.254mm|Gap=0.254mm|Entries=4|*
%AMTHD85*
7,0,0,2.174,1.666,0.254,45*
%
%ADD85THD85*%
%ADD86O,1.425X2.100*%
%ADD87O,1.250X1.450*%
%ADD88C,1.600*%
G04:AMPARAMS|DCode=89|XSize=2.524mm|YSize=2.524mm|CornerRadius=0mm|HoleSize=0mm|Usage=FLASHONLY|Rotation=0.000|XOffset=0mm|YOffset=0mm|HoleType=Round|Shape=Relief|Width=0.254mm|Gap=0.254mm|Entries=4|*
%AMTHD89*
7,0,0,2.524,2.016,0.254,45*
%
%ADD89THD89*%
G04:AMPARAMS|DCode=90|XSize=1.45mm|YSize=1.45mm|CornerRadius=0mm|HoleSize=0mm|Usage=FLASHONLY|Rotation=0.000|XOffset=0mm|YOffset=0mm|HoleType=Round|Shape=Relief|Width=0.2mm|Gap=0.2mm|Entries=4|*
%AMTHD90*
7,0,0,1.450,1.050,0.200,45*
%
%ADD90THD90*%
%ADD91C,0.850*%
%ADD92C,0.800*%
G36*
X-75000Y-67100D02*
X-66300Y-67100D01*
X-66300Y-79100D01*
X-78300Y-79100D01*
X-78300Y-67100D01*
X-77050Y-67100D01*
Y-67100D01*
X-75000D01*
Y-67100D01*
D02*
G37*
%LPC*%
G36*
X-76300Y-69099D02*
Y-77100D01*
X-68300Y-77100D01*
X-68300Y-69100D01*
X-76300Y-69099D01*
D02*
G37*
G36*
D02*
X-76300D01*
X-76300D01*
D01*
D02*
G37*
%LPD*%
D78*
X-77579Y-3500D02*
G03*
X-75579Y-3500I1000J0D01*
G01*
X-65071D02*
G03*
X-63071Y-3500I1000J0D01*
G01*
X-54209Y-1D02*
G03*
X-53434Y-350I776J686D01*
G01*
X-43434Y-350D02*
G03*
X-42659Y-1I0J1036D01*
G01*
X-21375D02*
G03*
X-20600Y-350I776J686D01*
G01*
X-10600Y-350D02*
G03*
X-9825Y-1I0J1036D01*
G01*
X-75579Y-3500D02*
X-75579D01*
Y0D01*
X-65071D01*
Y-3475D02*
Y0D01*
Y-3475D02*
X-65071Y-3500D01*
X-63071D02*
X-63071D01*
Y0D01*
X-54209D01*
X-80000D02*
X-77579D01*
Y-3500D02*
Y0D01*
X-80000Y-100000D02*
X0D01*
Y0D01*
X-9825D02*
X0D01*
X-9825Y-1D02*
Y0D01*
X-10600Y-350D02*
Y-350D01*
X-20600Y-350D02*
X-10600D01*
X-21375Y-1D02*
Y0D01*
X-42659D02*
X-21375D01*
X-42659Y-1D02*
Y0D01*
X-43434Y-350D02*
Y-350D01*
X-53434Y-350D02*
X-43434D01*
X-54209Y-1D02*
Y0D01*
X-80000Y-100000D02*
Y0D01*
D79*
X-68538Y-38055D02*
D03*
X-71225Y-47025D02*
D03*
X-70088Y-36225D02*
D03*
X-31655Y-36325D02*
D03*
X-32660Y-37780D02*
D03*
X-33930D02*
D03*
X-59625Y-34925D02*
D03*
X-42025Y-56375D02*
D03*
X-20800Y-37777D02*
D03*
X-33025Y-45525D02*
D03*
X-48325Y-59400D02*
D03*
Y-72530D02*
D03*
Y-82530D02*
D03*
Y-80030D02*
D03*
Y-77530D02*
D03*
Y-70030D02*
D03*
Y-65100D02*
D03*
Y-63400D02*
D03*
Y-61400D02*
D03*
X-8240Y-23010D02*
D03*
X-3160D02*
D03*
X-4430D02*
D03*
X-5700D02*
D03*
X-6970D02*
D03*
Y-21740D02*
D03*
X-3160D02*
D03*
X-62325Y-55135D02*
D03*
Y-53865D02*
D03*
X-31425Y-43705D02*
D03*
X-62325Y-56405D02*
D03*
X-20725Y-43705D02*
D03*
Y-42435D02*
D03*
Y-41165D02*
D03*
X-31425Y-42435D02*
D03*
Y-41165D02*
D03*
Y-39895D02*
D03*
X-24325Y-50275D02*
D03*
D80*
X-74925Y-85750D02*
D03*
Y-61150D02*
D03*
D81*
X-73500Y-17925D02*
D03*
X-70960D02*
D03*
X-65880D02*
D03*
X-68420D02*
D03*
X-69690Y-20465D02*
D03*
X-67150D02*
D03*
X-72230D02*
D03*
X-74770D02*
D03*
D82*
X-76954Y-7511D02*
D03*
X-63696D02*
D03*
X-74414D02*
D03*
X-66236D02*
D03*
D83*
X-62578Y-14623D02*
D03*
X-78072D02*
D03*
D84*
X-76040Y-11575D02*
D03*
X-64610D02*
D03*
D85*
X-48325Y-75030D02*
D03*
X-20725Y-39895D02*
D03*
D86*
X-11512Y-1675D02*
D03*
X-19688D02*
D03*
X-52521D02*
D03*
X-44347D02*
D03*
D87*
X-17825Y-4800D02*
D03*
X-13375D02*
D03*
X-46209D02*
D03*
X-50659D02*
D03*
D88*
X-28730Y-95570D02*
D03*
X-21110D02*
D03*
Y-93030D02*
D03*
X-23650Y-95570D02*
D03*
Y-93030D02*
D03*
X-26190Y-95570D02*
D03*
Y-93030D02*
D03*
X-28730D02*
D03*
X-38890D02*
D03*
Y-95570D02*
D03*
X-36350Y-93030D02*
D03*
Y-95570D02*
D03*
X-33810Y-93030D02*
D03*
Y-95570D02*
D03*
X-31270D02*
D03*
Y-93030D02*
D03*
X-41430Y-95570D02*
D03*
X-18570Y-93030D02*
D03*
X-36696Y-14760D02*
D03*
Y-17300D02*
D03*
Y-19840D02*
D03*
X-41776Y-14760D02*
D03*
Y-17300D02*
D03*
Y-19840D02*
D03*
X-6970Y-64290D02*
D03*
X-4430Y-87150D02*
D03*
X-6970Y-76990D02*
D03*
X-4430D02*
D03*
Y-79530D02*
D03*
X-6970D02*
D03*
X-4430Y-82070D02*
D03*
X-6970D02*
D03*
X-4430Y-84610D02*
D03*
X-6970D02*
D03*
Y-74450D02*
D03*
Y-71910D02*
D03*
X-4430D02*
D03*
X-6970Y-69370D02*
D03*
X-4430D02*
D03*
X-6970Y-66830D02*
D03*
X-4430D02*
D03*
Y-74450D02*
D03*
X-38730Y-10950D02*
D03*
X-41270D02*
D03*
X-6970Y-28730D02*
D03*
X-4430Y-51590D02*
D03*
X-6970Y-41430D02*
D03*
X-4430D02*
D03*
Y-43970D02*
D03*
X-6970D02*
D03*
X-4430Y-46510D02*
D03*
X-6970D02*
D03*
X-4430Y-49050D02*
D03*
X-6970D02*
D03*
Y-38890D02*
D03*
Y-36350D02*
D03*
X-4430D02*
D03*
X-6970Y-33810D02*
D03*
X-4430D02*
D03*
X-6970Y-31270D02*
D03*
X-4430D02*
D03*
Y-38890D02*
D03*
X-6970Y-13490D02*
D03*
Y-16030D02*
D03*
X-4430D02*
D03*
X-77700Y-55783D02*
D03*
Y-53243D02*
D03*
X-23575Y-78240D02*
D03*
Y-75700D02*
D03*
Y-73160D02*
D03*
X-4430Y-56670D02*
D03*
X-41995Y-44245D02*
D03*
X-39455D02*
D03*
X-36915D02*
D03*
X-64730Y-41705D02*
D03*
Y-44245D02*
D03*
X-62190Y-41705D02*
D03*
Y-44245D02*
D03*
X-59650Y-41705D02*
D03*
Y-44245D02*
D03*
X-57110Y-41705D02*
D03*
Y-44245D02*
D03*
X-54570Y-41705D02*
D03*
X-67270Y-44245D02*
D03*
X-69810D02*
D03*
Y-41705D02*
D03*
X-72350Y-44245D02*
D03*
Y-41705D02*
D03*
X-74890Y-44245D02*
D03*
Y-41705D02*
D03*
X-77430Y-44245D02*
D03*
Y-41705D02*
D03*
X-67270D02*
D03*
D89*
X-18570Y-95570D02*
D03*
X-41430Y-93030D02*
D03*
X-6970Y-87150D02*
D03*
X-4430Y-64290D02*
D03*
X-6970Y-51590D02*
D03*
X-4430Y-28730D02*
D03*
Y-13490D02*
D03*
Y-59210D02*
D03*
X-44535Y-44245D02*
D03*
X-54570D02*
D03*
D90*
X-8240Y-21740D02*
D03*
X-5700D02*
D03*
X-4430D02*
D03*
D91*
X-67850Y-37176D02*
D03*
X-69000Y-37166D02*
D03*
X-68453Y-36077D02*
D03*
X-67871Y-35541D02*
D03*
X-20950Y-25675D02*
D03*
X-64350Y-33924D02*
D03*
X-33600Y-14500D02*
D03*
X-37325Y-65100D02*
D03*
X-37325Y-66125D02*
D03*
X-30625Y-37450D02*
D03*
X-31000Y-51050D02*
D03*
X-32452Y-48877D02*
D03*
X-25450Y-68975D02*
D03*
X-37575Y-55850D02*
D03*
X-37600Y-54500D02*
D03*
X-43225Y-41777D02*
D03*
X-29450Y-88600D02*
D03*
X-36915Y-53757D02*
D03*
X-43225Y-58150D02*
D03*
X-30725Y-60600D02*
D03*
X-24988Y-5700D02*
D03*
X-23325Y-5681D02*
D03*
X-12425Y-12225D02*
D03*
X-10225Y-16450D02*
D03*
X-10950D02*
D03*
X-13275Y-8725D02*
D03*
X-47725Y-52750D02*
D03*
X-68625Y-47527D02*
D03*
X-46175Y-68756D02*
D03*
X-48825Y-76375D02*
D03*
X-73600Y-35216D02*
D03*
X-34960Y-80845D02*
D03*
X-36230D02*
D03*
X-37500D02*
D03*
X-38770D02*
D03*
X-40040D02*
D03*
X-42375Y-66290D02*
D03*
X-48509Y-43775D02*
D03*
X-42375Y-65540D02*
D03*
X-47759Y-43775D02*
D03*
X-24750Y-45200D02*
D03*
X-36175Y-32650D02*
D03*
X-37800Y-32075D02*
D03*
X-38130Y-30095D02*
D03*
X-37000Y-30825D02*
D03*
X-26500Y-33425D02*
D03*
X-39327Y-29500D02*
D03*
X-40525Y-28950D02*
D03*
X-69475Y-26950D02*
D03*
X-69991Y-26434D02*
D03*
X-23875Y-14425D02*
D03*
X-45600Y-25675D02*
D03*
X-27950Y-16625D02*
D03*
X-65225Y-32200D02*
D03*
X-48800Y-53525D02*
D03*
X-37800Y-57575D02*
D03*
X-37525Y-59700D02*
D03*
X-70050Y-59150D02*
D03*
X-33400Y-56700D02*
D03*
X-33925Y-57250D02*
D03*
X-34400Y-57875D02*
D03*
X-62900Y-37475D02*
D03*
X-58650Y-38875D02*
D03*
X-60775D02*
D03*
X-17625Y-12975D02*
D03*
X-6800Y-9825D02*
D03*
X-19825Y-10600D02*
D03*
X-22675Y-12761D02*
D03*
X-19263Y-13200D02*
D03*
X-31200Y-15275D02*
D03*
X-18875Y-8650D02*
D03*
X-22650Y-5675D02*
D03*
X-11775Y-16450D02*
D03*
X-30000Y-20600D02*
D03*
X-22800Y-65400D02*
D03*
X-25650Y-61275D02*
D03*
X-12975Y-16175D02*
D03*
X-11700Y-12225D02*
D03*
X-8725Y-12850D02*
D03*
X-10100Y-12075D02*
D03*
X-10750Y-15250D02*
D03*
X-63075Y-33924D02*
D03*
X-60400Y-6725D02*
D03*
X-59450D02*
D03*
X-71525Y-32700D02*
D03*
X-75675Y-32200D02*
D03*
X-63200Y-29375D02*
D03*
X-68450Y-35025D02*
D03*
X-67454Y-27975D02*
D03*
X-47725Y-53525D02*
D03*
X-10800Y-46150D02*
D03*
X-58575Y-8600D02*
D03*
X-52050Y-82530D02*
D03*
Y-80030D02*
D03*
Y-77530D02*
D03*
Y-65100D02*
D03*
Y-63400D02*
D03*
Y-61400D02*
D03*
X-64200Y-69950D02*
D03*
X-52750Y-37775D02*
D03*
X-43800Y-30525D02*
D03*
X-35925Y-24250D02*
D03*
X-37200Y-24250D02*
D03*
X-16725Y-16050D02*
D03*
X-19600Y-18200D02*
D03*
X-19035Y-17400D02*
D03*
X-50750Y-14300D02*
D03*
X-39225Y-24975D02*
D03*
X-52750Y-32799D02*
D03*
X-51325Y-28450D02*
D03*
X-36275Y-21825D02*
D03*
X-33717Y-3879D02*
D03*
X-32800D02*
D03*
X-32975Y-5475D02*
D03*
X-33725Y-5483D02*
D03*
X-39700Y-26675D02*
D03*
X-43725D02*
D03*
X-43800Y-31850D02*
D03*
Y-32650D02*
D03*
Y-33450D02*
D03*
X-26075Y-24675D02*
D03*
X-58075Y-14250D02*
D03*
X-50050Y-24025D02*
D03*
X-51625Y-22500D02*
D03*
X-25676Y-8975D02*
D03*
X-25876Y-6424D02*
D03*
X-44200Y-20225D02*
D03*
X-49675Y-10850D02*
D03*
X-49925Y-26675D02*
D03*
X-29250Y-22050D02*
D03*
X-6800Y-11100D02*
D03*
X-30075Y-1525D02*
D03*
X-24925Y-1500D02*
D03*
X-7600Y-1993D02*
D03*
X-4550Y-9800D02*
D03*
X-30500Y-17800D02*
D03*
X-42800Y-26675D02*
D03*
X-37787Y-8312D02*
D03*
X-56106Y-13748D02*
D03*
X-33930Y-28825D02*
D03*
X-32655D02*
D03*
X-21100Y-21425D02*
D03*
X-28075Y-25750D02*
D03*
X-37825Y-27475D02*
D03*
X-1250Y-6825D02*
D03*
X-1250Y-12800D02*
D03*
X-31025Y-17175D02*
D03*
X-58575Y-31875D02*
D03*
X-56475D02*
D03*
X-14300Y-5600D02*
D03*
X-16050Y-8775D02*
D03*
X-36625Y-11450D02*
D03*
X-40925Y-64050D02*
D03*
X-10100Y-9025D02*
D03*
X-13900Y-8725D02*
D03*
X-39725Y-37900D02*
D03*
X-38650Y-37075D02*
D03*
X-23400Y-16950D02*
D03*
X-22000Y-28825D02*
D03*
X-23300Y-28825D02*
D03*
X-16800Y-28825D02*
D03*
X-15500D02*
D03*
X-14225D02*
D03*
X-12950D02*
D03*
X-11674Y-28825D02*
D03*
X-18100Y-28825D02*
D03*
X-19400D02*
D03*
X-20700D02*
D03*
X-25635Y-33425D02*
D03*
X-10500Y-28075D02*
D03*
X-24725Y-33425D02*
D03*
X-48884Y-8725D02*
D03*
X-47134Y-5491D02*
D03*
X-49100Y-5500D02*
D03*
X-58100Y-74900D02*
D03*
X-25875Y-57400D02*
D03*
X-20301Y-58203D02*
D03*
X-19625Y-57675D02*
D03*
X-28163Y-58850D02*
D03*
X-28925D02*
D03*
X-29525Y-59550D02*
D03*
X-29925Y-44590D02*
D03*
X-38400Y-69825D02*
D03*
X-35200Y-35675D02*
D03*
X-17475Y-61500D02*
D03*
X-26575Y-65900D02*
D03*
Y-65125D02*
D03*
X-27900Y-70900D02*
D03*
X-27900Y-65550D02*
D03*
X-21150Y-54425D02*
D03*
X-18700Y-53350D02*
D03*
X-20950Y-53375D02*
D03*
X-46000Y-33475D02*
D03*
X-44050Y-34675D02*
D03*
X-45225Y-33225D02*
D03*
X-59975Y-91600D02*
D03*
X-28730Y-87100D02*
D03*
X-9025Y-80800D02*
D03*
X-13675D02*
D03*
X-32350Y-50271D02*
D03*
X-31650Y-54025D02*
D03*
X-55525Y-91575D02*
D03*
X-28841Y-37200D02*
D03*
X-56150Y-76800D02*
D03*
X-56725Y-77325D02*
D03*
Y-76175D02*
D03*
X-34575Y-13350D02*
D03*
X-65175Y-53950D02*
D03*
X-69925Y-51100D02*
D03*
X-31000Y-75900D02*
D03*
X-64700Y-28880D02*
D03*
X-65976Y-23500D02*
D03*
X-15500Y-32600D02*
D03*
X-14225D02*
D03*
X-12950D02*
D03*
X-34575Y-36800D02*
D03*
X-18100Y-32600D02*
D03*
X-19400D02*
D03*
X-20700D02*
D03*
X-38450Y-41475D02*
D03*
X-56650Y-68275D02*
D03*
X-16800Y-32600D02*
D03*
X-20075Y-52725D02*
D03*
X-17750D02*
D03*
X-9350Y-25400D02*
D03*
X-13050Y-22875D02*
D03*
X-38675Y-34350D02*
D03*
X-59625Y-90250D02*
D03*
X-56800Y-90750D02*
D03*
X-56800Y-92575D02*
D03*
X-28625Y-75550D02*
D03*
X-29700Y-75900D02*
D03*
X-65861Y-27000D02*
D03*
X-69162Y-25737D02*
D03*
X-67840Y-32490D02*
D03*
X-66950Y-31355D02*
D03*
X-66275Y-32475D02*
D03*
X-25876Y-58325D02*
D03*
X-27225Y-60600D02*
D03*
X-45150Y-5375D02*
D03*
X-32500Y-8925D02*
D03*
X-35950Y-55275D02*
D03*
X-16400Y-63975D02*
D03*
X-17875Y-7775D02*
D03*
X-72675Y-29880D02*
D03*
X-41000Y-38325D02*
D03*
X-11250Y-60855D02*
D03*
X-57650Y-45855D02*
D03*
X-34960Y-76600D02*
D03*
X-70450Y-46250D02*
D03*
X-43025Y-53450D02*
D03*
X-13751Y-23126D02*
D03*
X-34200Y-51150D02*
D03*
X-53625Y-48075D02*
D03*
X-46825Y-52750D02*
D03*
X-46475Y-52050D02*
D03*
X-19525Y-54850D02*
D03*
X-37625Y-58625D02*
D03*
X-40900Y-59400D02*
D03*
X-31175Y-61450D02*
D03*
X-30376Y-64628D02*
D03*
X-16476Y-56203D02*
D03*
X-31775Y-62950D02*
D03*
X-36075Y-36300D02*
D03*
X-34250Y-60600D02*
D03*
X-32775Y-59275D02*
D03*
X-33600D02*
D03*
X-31125Y-62250D02*
D03*
X-30375D02*
D03*
X-28326Y-61053D02*
D03*
X-26328Y-32325D02*
D03*
X-24101Y-25226D02*
D03*
X-30111Y-36700D02*
D03*
X-34250Y-61450D02*
D03*
X-26200Y-13125D02*
D03*
X-26775Y-13700D02*
D03*
X-9850Y-26550D02*
D03*
X-11900Y-23500D02*
D03*
X-20925Y-51600D02*
D03*
X-22475Y-57275D02*
D03*
X-21750Y-52700D02*
D03*
X-34900Y-70025D02*
D03*
X-45075Y-68610D02*
D03*
X-43925Y-68625D02*
D03*
X-31650Y-54875D02*
D03*
X-50659Y-46145D02*
D03*
X-46149Y-31512D02*
D03*
X-27575Y-45626D02*
D03*
X-29434Y-47325D02*
D03*
X-24726Y-46202D02*
D03*
X-26276Y-46101D02*
D03*
X-25640Y-45200D02*
D03*
X-22971Y-33225D02*
D03*
X-73525Y-38117D02*
D03*
X-49816Y-46145D02*
D03*
X-26525Y-61275D02*
D03*
X-30301Y-63528D02*
D03*
X-11825Y-46150D02*
D03*
X-18625Y-57775D02*
D03*
X-9813Y-44500D02*
D03*
X-15825Y-55864D02*
D03*
X-26375Y-27400D02*
D03*
X-20625Y-26500D02*
D03*
X-54925Y-48075D02*
D03*
X-54206Y-46176D02*
D03*
X-53453Y-45627D02*
D03*
X-56588Y-45888D02*
D03*
X-69127Y-46800D02*
D03*
D92*
X-23725Y-20775D02*
D03*
Y-18825D02*
D03*
X-25025Y-19475D02*
D03*
X-25025Y-22725D02*
D03*
X-25675Y-20125D02*
D03*
X-25675Y-18175D02*
D03*
X-25025D02*
D03*
X-26325Y-20125D02*
D03*
X-25025Y-21425D02*
D03*
X-25025Y-20125D02*
D03*
X-23075Y-21425D02*
D03*
Y-18175D02*
D03*
X-25025Y-22075D02*
D03*
X-25675Y-22075D02*
D03*
M02*
