G04 Layer_Color=8388736*
%FSLAX43Y43*%
%MOMM*%
G71*
G01*
G75*
%ADD13C,0.550*%
%ADD77C,0.700*%
%ADD88C,1.600*%
%ADD134R,0.900X0.510*%
%ADD135R,0.850X1.950*%
%ADD136R,0.510X0.900*%
%ADD137R,0.700X0.650*%
%ADD138R,0.900X0.750*%
%ADD139R,0.900X0.950*%
%ADD140R,0.600X0.750*%
%ADD141R,1.450X1.600*%
%ADD142R,0.650X0.700*%
%ADD143R,1.500X2.900*%
%ADD144R,0.800X0.800*%
%ADD145R,1.100X1.050*%
%ADD146R,0.750X0.600*%
%ADD147R,0.700X1.000*%
%ADD148R,0.800X0.800*%
%ADD149R,0.740X1.000*%
%ADD150R,0.400X0.700*%
%ADD151R,0.400X1.100*%
%ADD152R,0.500X1.100*%
%ADD153R,0.500X1.450*%
%ADD154R,0.600X0.700*%
%ADD155R,1.100X2.350*%
%ADD156R,1.000X0.700*%
%ADD157R,4.700X2.600*%
%ADD158R,0.800X3.400*%
%ADD159R,1.400X0.700*%
%ADD160R,1.150X0.750*%
%ADD161R,1.400X1.500*%
%ADD162R,0.950X0.400*%
%ADD163R,0.330X0.580*%
%ADD164R,0.580X0.330*%
%ADD165R,2.700X2.700*%
%ADD166R,1.800X2.600*%
%ADD167R,0.825X0.500*%
%ADD168R,1.550X1.750*%
%ADD169R,0.850X0.450*%
%ADD170R,5.250X4.900*%
%ADD171O,1.000X0.550*%
%ADD172R,1.100X1.650*%
%ADD173R,1.050X1.100*%
%ADD174R,1.250X1.500*%
%ADD175R,1.400X1.150*%
%ADD176R,0.950X0.900*%
%ADD177R,0.840X2.890*%
%ADD178O,0.400X1.550*%
%ADD179O,1.550X0.400*%
%ADD180R,0.750X0.900*%
%ADD181R,1.900X2.000*%
%ADD182C,1.150*%
%ADD183C,1.624*%
%ADD184C,1.802*%
%ADD185C,2.386*%
%ADD186R,0.100X0.100*%
%ADD187C,3.700*%
G04:AMPARAMS|DCode=188|XSize=2.2mm|YSize=2mm|CornerRadius=0.544mm|HoleSize=0mm|Usage=FLASHONLY|Rotation=0.000|XOffset=0mm|YOffset=0mm|HoleType=Round|Shape=RoundedRectangle|*
%AMROUNDEDRECTD188*
21,1,2.200,0.912,0,0,0.0*
21,1,1.112,2.000,0,0,0.0*
1,1,1.088,0.556,-0.456*
1,1,1.088,-0.556,-0.456*
1,1,1.088,-0.556,0.456*
1,1,1.088,0.556,0.456*
%
%ADD188ROUNDEDRECTD188*%
G04:AMPARAMS|DCode=189|XSize=1.15mm|YSize=1.35mm|CornerRadius=0.575mm|HoleSize=0mm|Usage=FLASHONLY|Rotation=180.000|XOffset=0mm|YOffset=0mm|HoleType=Round|Shape=RoundedRectangle|*
%AMROUNDEDRECTD189*
21,1,1.150,0.200,0,0,180.0*
21,1,0.000,1.350,0,0,180.0*
1,1,1.150,0.000,0.100*
1,1,1.150,0.000,0.100*
1,1,1.150,0.000,-0.100*
1,1,1.150,0.000,-0.100*
%
%ADD189ROUNDEDRECTD189*%
%ADD190C,1.800*%
%ADD191R,1.800X1.800*%
%ADD192R,1.800X1.800*%
G36*
X-44232Y-675D02*
X-44230Y-675D01*
X-44182Y-679D01*
X-44181Y-679D01*
X-44179Y-679D01*
X-44126Y-686D01*
X-44123Y-687D01*
X-44119Y-688D01*
X-44066Y-703D01*
X-44064Y-703D01*
X-44062Y-704D01*
X-44019Y-720D01*
X-44017Y-721D01*
X-44015Y-722D01*
X-43973Y-742D01*
X-43971Y-743D01*
X-43968Y-745D01*
X-43924Y-773D01*
X-43922Y-774D01*
X-43921Y-775D01*
X-43883Y-804D01*
X-43881Y-805D01*
X-43880Y-806D01*
X-43841Y-840D01*
X-43838Y-843D01*
X-43835Y-846D01*
X-43806Y-882D01*
X-43805Y-883D01*
X-43805Y-884D01*
X-43777Y-921D01*
X-43775Y-923D01*
X-43774Y-926D01*
X-43750Y-967D01*
X-43749Y-969D01*
X-43748Y-970D01*
X-43728Y-1012D01*
X-43727Y-1014D01*
X-43726Y-1016D01*
X-43710Y-1058D01*
X-43709Y-1061D01*
X-43708Y-1064D01*
X-43696Y-1115D01*
X-43696Y-1117D01*
X-43695Y-1119D01*
X-43688Y-1164D01*
X-43688Y-1166D01*
X-43688Y-1168D01*
X-43684Y-1221D01*
X-43684Y-1223D01*
X-43684Y-1225D01*
Y-2125D01*
X-43684Y-2127D01*
X-43684Y-2129D01*
X-43688Y-2184D01*
X-43688Y-2186D01*
X-43689Y-2189D01*
X-43697Y-2234D01*
X-43697Y-2235D01*
X-43697Y-2237D01*
X-43709Y-2287D01*
X-43710Y-2290D01*
X-43711Y-2294D01*
X-43727Y-2334D01*
X-43740Y-2366D01*
X-43742Y-2370D01*
X-43744Y-2373D01*
X-43769Y-2416D01*
X-43770Y-2418D01*
X-43771Y-2420D01*
X-43797Y-2457D01*
X-43798Y-2458D01*
X-43799Y-2460D01*
X-43830Y-2498D01*
X-43833Y-2500D01*
X-43835Y-2503D01*
X-43880Y-2544D01*
X-43882Y-2546D01*
X-43884Y-2547D01*
X-43924Y-2577D01*
X-43926Y-2578D01*
X-43927Y-2579D01*
X-43973Y-2609D01*
X-43976Y-2610D01*
X-43979Y-2612D01*
X-44032Y-2636D01*
X-44035Y-2637D01*
X-44039Y-2638D01*
X-44126Y-2664D01*
X-44131Y-2665D01*
X-44135Y-2666D01*
X-44135Y-2666D01*
X-44135Y-2666D01*
X-44135D01*
X-44229Y-2675D01*
X-44232Y-2675D01*
X-44234Y-2675D01*
X-45834D01*
X-45844Y-2674D01*
X-45853Y-2671D01*
X-45862Y-2667D01*
X-45870Y-2661D01*
X-45876Y-2653D01*
X-45880Y-2644D01*
X-45883Y-2635D01*
X-45884Y-2625D01*
Y-725D01*
X-45883Y-715D01*
X-45880Y-706D01*
X-45876Y-697D01*
X-45870Y-689D01*
X-45862Y-683D01*
X-45853Y-679D01*
X-45844Y-676D01*
X-45834Y-675D01*
X-44234D01*
X-44232Y-675D01*
D02*
G37*
G36*
X-30640Y-71826D02*
X-30631Y-71829D01*
X-30622Y-71833D01*
X-30614Y-71839D01*
X-30608Y-71847D01*
X-30604Y-71856D01*
X-30601Y-71865D01*
X-30600Y-71875D01*
Y-75175D01*
X-30601Y-75185D01*
X-30604Y-75194D01*
X-30608Y-75203D01*
X-30614Y-75211D01*
X-30622Y-75217D01*
X-30631Y-75221D01*
X-30640Y-75224D01*
X-30650Y-75225D01*
X-31350D01*
X-31351Y-75225D01*
X-31352Y-75225D01*
X-31356Y-75225D01*
X-31360Y-75224D01*
X-31361Y-75224D01*
X-31362Y-75224D01*
X-31366Y-75222D01*
X-31369Y-75221D01*
X-31370Y-75221D01*
X-31371Y-75220D01*
X-31375Y-75219D01*
X-31378Y-75217D01*
X-31379Y-75216D01*
X-31380Y-75215D01*
X-31383Y-75213D01*
X-31386Y-75211D01*
X-31386Y-75210D01*
X-31387Y-75209D01*
X-31389Y-75206D01*
X-31392Y-75203D01*
X-31392Y-75202D01*
X-31393Y-75201D01*
X-31843Y-74451D01*
X-31845Y-74447D01*
X-31846Y-74444D01*
X-31847Y-74443D01*
X-31847Y-74442D01*
X-31848Y-74438D01*
X-31849Y-74435D01*
X-31849Y-74434D01*
X-31850Y-74432D01*
X-31850Y-74429D01*
X-31850Y-74425D01*
Y-72625D01*
X-31850Y-72621D01*
X-31850Y-72618D01*
X-31849Y-72616D01*
X-31849Y-72615D01*
X-31848Y-72612D01*
X-31847Y-72608D01*
X-31847Y-72607D01*
X-31846Y-72606D01*
X-31845Y-72603D01*
X-31843Y-72599D01*
X-31393Y-71849D01*
X-31392Y-71848D01*
X-31392Y-71847D01*
X-31389Y-71844D01*
X-31387Y-71841D01*
X-31386Y-71840D01*
X-31386Y-71839D01*
X-31383Y-71837D01*
X-31380Y-71835D01*
X-31379Y-71834D01*
X-31378Y-71833D01*
X-31375Y-71831D01*
X-31371Y-71830D01*
X-31370Y-71829D01*
X-31369Y-71829D01*
X-31366Y-71828D01*
X-31362Y-71826D01*
X-31361Y-71826D01*
X-31360Y-71826D01*
X-31356Y-71825D01*
X-31352Y-71825D01*
X-31351Y-71825D01*
X-31350Y-71825D01*
X-30650D01*
X-30640Y-71826D01*
D02*
G37*
G36*
X-28949Y-71825D02*
X-28948Y-71825D01*
X-28944Y-71825D01*
X-28940Y-71826D01*
X-28939Y-71826D01*
X-28938Y-71826D01*
X-28934Y-71828D01*
X-28931Y-71829D01*
X-28930Y-71829D01*
X-28929Y-71830D01*
X-28925Y-71831D01*
X-28922Y-71833D01*
X-28921Y-71834D01*
X-28920Y-71835D01*
X-28917Y-71837D01*
X-28914Y-71839D01*
X-28914Y-71840D01*
X-28913Y-71841D01*
X-28911Y-71844D01*
X-28908Y-71847D01*
X-28908Y-71848D01*
X-28907Y-71849D01*
X-28457Y-72599D01*
X-28455Y-72603D01*
X-28454Y-72606D01*
X-28453Y-72607D01*
X-28453Y-72608D01*
X-28452Y-72612D01*
X-28451Y-72615D01*
X-28451Y-72616D01*
X-28450Y-72618D01*
X-28450Y-72621D01*
X-28450Y-72625D01*
Y-74425D01*
X-28450Y-74429D01*
X-28450Y-74432D01*
X-28451Y-74434D01*
X-28451Y-74435D01*
X-28452Y-74438D01*
X-28453Y-74442D01*
X-28453Y-74443D01*
X-28454Y-74444D01*
X-28455Y-74447D01*
X-28457Y-74451D01*
X-28907Y-75201D01*
X-28908Y-75202D01*
X-28908Y-75203D01*
X-28911Y-75206D01*
X-28913Y-75209D01*
X-28914Y-75210D01*
X-28914Y-75211D01*
X-28917Y-75213D01*
X-28920Y-75215D01*
X-28921Y-75216D01*
X-28922Y-75217D01*
X-28925Y-75219D01*
X-28929Y-75220D01*
X-28930Y-75221D01*
X-28931Y-75221D01*
X-28934Y-75222D01*
X-28938Y-75224D01*
X-28939Y-75224D01*
X-28940Y-75224D01*
X-28944Y-75225D01*
X-28948Y-75225D01*
X-28949Y-75225D01*
X-28950Y-75225D01*
X-29650D01*
X-29660Y-75224D01*
X-29669Y-75221D01*
X-29678Y-75217D01*
X-29686Y-75211D01*
X-29692Y-75203D01*
X-29696Y-75194D01*
X-29699Y-75185D01*
X-29700Y-75175D01*
Y-71875D01*
X-29699Y-71865D01*
X-29696Y-71856D01*
X-29692Y-71847D01*
X-29686Y-71839D01*
X-29678Y-71833D01*
X-29669Y-71829D01*
X-29660Y-71826D01*
X-29650Y-71825D01*
X-28950D01*
X-28949Y-71825D01*
D02*
G37*
G36*
X-18190Y-676D02*
X-18181Y-679D01*
X-18172Y-683D01*
X-18164Y-689D01*
X-18158Y-697D01*
X-18154Y-706D01*
X-18151Y-715D01*
X-18150Y-725D01*
Y-2625D01*
X-18151Y-2635D01*
X-18154Y-2644D01*
X-18158Y-2653D01*
X-18164Y-2661D01*
X-18172Y-2667D01*
X-18181Y-2671D01*
X-18190Y-2674D01*
X-18200Y-2675D01*
X-19800D01*
X-19802Y-2675D01*
X-19804Y-2675D01*
X-19852Y-2671D01*
X-19853Y-2671D01*
X-19855Y-2671D01*
X-19908Y-2664D01*
X-19911Y-2663D01*
X-19915Y-2662D01*
X-19968Y-2647D01*
X-19970Y-2647D01*
X-19972Y-2646D01*
X-20015Y-2630D01*
X-20017Y-2629D01*
X-20019Y-2628D01*
X-20061Y-2608D01*
X-20063Y-2607D01*
X-20066Y-2605D01*
X-20110Y-2577D01*
X-20112Y-2576D01*
X-20113Y-2575D01*
X-20151Y-2546D01*
X-20153Y-2545D01*
X-20154Y-2544D01*
X-20193Y-2510D01*
X-20196Y-2507D01*
X-20199Y-2504D01*
X-20228Y-2468D01*
X-20229Y-2467D01*
X-20229Y-2466D01*
X-20257Y-2429D01*
X-20259Y-2427D01*
X-20260Y-2424D01*
X-20284Y-2383D01*
X-20285Y-2381D01*
X-20286Y-2380D01*
X-20306Y-2338D01*
X-20307Y-2336D01*
X-20308Y-2334D01*
X-20324Y-2292D01*
X-20325Y-2289D01*
X-20326Y-2286D01*
X-20338Y-2235D01*
X-20338Y-2233D01*
X-20339Y-2231D01*
X-20346Y-2186D01*
X-20346Y-2184D01*
X-20346Y-2182D01*
X-20350Y-2129D01*
X-20350Y-2127D01*
X-20350Y-2125D01*
Y-1225D01*
X-20350Y-1223D01*
X-20350Y-1221D01*
X-20346Y-1166D01*
X-20346Y-1164D01*
X-20345Y-1161D01*
X-20337Y-1116D01*
X-20337Y-1115D01*
X-20337Y-1113D01*
X-20325Y-1063D01*
X-20324Y-1060D01*
X-20323Y-1056D01*
X-20307Y-1016D01*
X-20294Y-984D01*
X-20292Y-980D01*
X-20290Y-977D01*
X-20265Y-934D01*
X-20264Y-932D01*
X-20263Y-930D01*
X-20237Y-893D01*
X-20236Y-892D01*
X-20235Y-890D01*
X-20204Y-852D01*
X-20201Y-850D01*
X-20199Y-847D01*
X-20154Y-806D01*
X-20152Y-804D01*
X-20150Y-803D01*
X-20110Y-773D01*
X-20108Y-772D01*
X-20107Y-771D01*
X-20061Y-742D01*
X-20058Y-740D01*
X-20055Y-738D01*
X-20002Y-714D01*
X-19999Y-713D01*
X-19995Y-712D01*
X-19908Y-686D01*
X-19903Y-685D01*
X-19899Y-684D01*
X-19899Y-684D01*
X-19899Y-684D01*
X-19899D01*
X-19805Y-675D01*
X-19802Y-675D01*
X-19800Y-675D01*
X-18200D01*
X-18190Y-676D01*
D02*
G37*
G36*
X-51024D02*
X-51015Y-679D01*
X-51006Y-683D01*
X-50998Y-689D01*
X-50992Y-697D01*
X-50988Y-706D01*
X-50985Y-715D01*
X-50984Y-725D01*
Y-2625D01*
X-50985Y-2635D01*
X-50988Y-2644D01*
X-50992Y-2653D01*
X-50998Y-2661D01*
X-51006Y-2667D01*
X-51015Y-2671D01*
X-51024Y-2674D01*
X-51034Y-2675D01*
X-52634D01*
X-52636Y-2675D01*
X-52638Y-2675D01*
X-52686Y-2671D01*
X-52687Y-2671D01*
X-52689Y-2671D01*
X-52742Y-2664D01*
X-52745Y-2663D01*
X-52749Y-2662D01*
X-52802Y-2647D01*
X-52804Y-2647D01*
X-52806Y-2646D01*
X-52849Y-2630D01*
X-52851Y-2629D01*
X-52853Y-2628D01*
X-52895Y-2608D01*
X-52897Y-2607D01*
X-52900Y-2605D01*
X-52944Y-2577D01*
X-52946Y-2576D01*
X-52947Y-2575D01*
X-52985Y-2546D01*
X-52987Y-2545D01*
X-52988Y-2544D01*
X-53027Y-2510D01*
X-53030Y-2507D01*
X-53033Y-2504D01*
X-53062Y-2468D01*
X-53063Y-2467D01*
X-53063Y-2466D01*
X-53091Y-2429D01*
X-53093Y-2427D01*
X-53094Y-2424D01*
X-53118Y-2383D01*
X-53119Y-2381D01*
X-53120Y-2380D01*
X-53140Y-2338D01*
X-53141Y-2336D01*
X-53142Y-2334D01*
X-53158Y-2292D01*
X-53159Y-2289D01*
X-53160Y-2286D01*
X-53172Y-2235D01*
X-53172Y-2233D01*
X-53173Y-2231D01*
X-53180Y-2186D01*
X-53180Y-2184D01*
X-53180Y-2182D01*
X-53184Y-2129D01*
X-53184Y-2127D01*
X-53184Y-2125D01*
Y-1225D01*
X-53184Y-1223D01*
X-53184Y-1221D01*
X-53180Y-1166D01*
X-53180Y-1164D01*
X-53179Y-1161D01*
X-53171Y-1116D01*
X-53171Y-1115D01*
X-53171Y-1113D01*
X-53159Y-1063D01*
X-53158Y-1060D01*
X-53157Y-1056D01*
X-53141Y-1016D01*
X-53128Y-984D01*
X-53126Y-980D01*
X-53124Y-977D01*
X-53099Y-934D01*
X-53098Y-932D01*
X-53097Y-930D01*
X-53071Y-893D01*
X-53070Y-892D01*
X-53069Y-890D01*
X-53038Y-852D01*
X-53035Y-850D01*
X-53033Y-847D01*
X-52988Y-806D01*
X-52986Y-804D01*
X-52984Y-803D01*
X-52944Y-773D01*
X-52942Y-772D01*
X-52941Y-771D01*
X-52895Y-742D01*
X-52892Y-740D01*
X-52889Y-738D01*
X-52836Y-714D01*
X-52833Y-713D01*
X-52829Y-712D01*
X-52742Y-686D01*
X-52737Y-685D01*
X-52733Y-684D01*
X-52733Y-684D01*
X-52733Y-684D01*
X-52733D01*
X-52639Y-675D01*
X-52636Y-675D01*
X-52634Y-675D01*
X-51034D01*
X-51024Y-676D01*
D02*
G37*
G36*
X-11398Y-675D02*
X-11396Y-675D01*
X-11348Y-679D01*
X-11347Y-679D01*
X-11345Y-679D01*
X-11292Y-686D01*
X-11289Y-687D01*
X-11285Y-688D01*
X-11232Y-703D01*
X-11230Y-703D01*
X-11228Y-704D01*
X-11185Y-720D01*
X-11183Y-721D01*
X-11181Y-722D01*
X-11139Y-742D01*
X-11137Y-743D01*
X-11134Y-745D01*
X-11090Y-773D01*
X-11088Y-774D01*
X-11087Y-775D01*
X-11049Y-804D01*
X-11047Y-805D01*
X-11046Y-806D01*
X-11007Y-840D01*
X-11004Y-843D01*
X-11001Y-846D01*
X-10972Y-882D01*
X-10971Y-883D01*
X-10971Y-884D01*
X-10943Y-921D01*
X-10941Y-923D01*
X-10940Y-926D01*
X-10916Y-967D01*
X-10915Y-969D01*
X-10914Y-970D01*
X-10894Y-1012D01*
X-10893Y-1014D01*
X-10892Y-1016D01*
X-10876Y-1058D01*
X-10875Y-1061D01*
X-10874Y-1064D01*
X-10862Y-1115D01*
X-10862Y-1117D01*
X-10861Y-1119D01*
X-10854Y-1164D01*
X-10854Y-1166D01*
X-10854Y-1168D01*
X-10850Y-1221D01*
X-10850Y-1223D01*
X-10850Y-1225D01*
Y-2125D01*
X-10850Y-2127D01*
X-10850Y-2129D01*
X-10854Y-2184D01*
X-10854Y-2186D01*
X-10855Y-2189D01*
X-10863Y-2234D01*
X-10863Y-2235D01*
X-10863Y-2237D01*
X-10875Y-2287D01*
X-10876Y-2290D01*
X-10877Y-2294D01*
X-10893Y-2334D01*
X-10906Y-2366D01*
X-10908Y-2370D01*
X-10910Y-2373D01*
X-10935Y-2416D01*
X-10936Y-2418D01*
X-10937Y-2420D01*
X-10963Y-2457D01*
X-10964Y-2458D01*
X-10965Y-2460D01*
X-10996Y-2498D01*
X-10999Y-2500D01*
X-11001Y-2503D01*
X-11046Y-2544D01*
X-11048Y-2546D01*
X-11050Y-2547D01*
X-11090Y-2577D01*
X-11092Y-2578D01*
X-11093Y-2579D01*
X-11139Y-2609D01*
X-11142Y-2610D01*
X-11145Y-2612D01*
X-11198Y-2636D01*
X-11201Y-2637D01*
X-11205Y-2638D01*
X-11292Y-2664D01*
X-11297Y-2665D01*
X-11301Y-2666D01*
X-11301Y-2666D01*
X-11301Y-2666D01*
X-11301D01*
X-11395Y-2675D01*
X-11398Y-2675D01*
X-11400Y-2675D01*
X-13000D01*
X-13010Y-2674D01*
X-13019Y-2671D01*
X-13028Y-2667D01*
X-13036Y-2661D01*
X-13042Y-2653D01*
X-13046Y-2644D01*
X-13049Y-2635D01*
X-13050Y-2625D01*
Y-725D01*
X-13049Y-715D01*
X-13046Y-706D01*
X-13042Y-697D01*
X-13036Y-689D01*
X-13028Y-683D01*
X-13019Y-679D01*
X-13010Y-676D01*
X-13000Y-675D01*
X-11400D01*
X-11398Y-675D01*
D02*
G37*
D13*
X-26725Y-8150D02*
D03*
Y-7350D02*
D03*
D77*
X-70300Y-30730D02*
D03*
Y-29530D02*
D03*
X-69100Y-30730D02*
D03*
Y-29530D02*
D03*
D88*
X-74925Y-85750D02*
D03*
Y-61150D02*
D03*
D134*
X-19350Y-65555D02*
D03*
D135*
X-61000Y-76550D02*
D03*
X-58100D02*
D03*
D136*
X-36055Y-72150D02*
D03*
D137*
X-41965Y-42200D02*
D03*
X-40965D02*
D03*
X-50925Y-61400D02*
D03*
X-49925D02*
D03*
X-50925Y-65100D02*
D03*
X-49925D02*
D03*
X-50925Y-63400D02*
D03*
X-49925D02*
D03*
X-50925Y-82530D02*
D03*
X-49925D02*
D03*
X-50925Y-80030D02*
D03*
X-49925D02*
D03*
X-50925Y-77530D02*
D03*
X-49925D02*
D03*
X-30500Y-46326D02*
D03*
X-29500D02*
D03*
X-56701Y-69950D02*
D03*
X-55701D02*
D03*
X-63450Y-69000D02*
D03*
X-62450D02*
D03*
X-63450Y-69950D02*
D03*
X-62450D02*
D03*
X-63450Y-70900D02*
D03*
X-62450D02*
D03*
X-65525Y-28875D02*
D03*
X-66525D02*
D03*
X-74850Y-32200D02*
D03*
X-73850D02*
D03*
X-51653Y-6125D02*
D03*
X-50653D02*
D03*
X-57300Y-90250D02*
D03*
X-58300D02*
D03*
X-54700D02*
D03*
X-55700D02*
D03*
X-31150Y-9850D02*
D03*
X-30150D02*
D03*
X-24100Y-9800D02*
D03*
X-23100D02*
D03*
X-18825Y-6125D02*
D03*
X-17825D02*
D03*
X-24100Y-11550D02*
D03*
X-23100D02*
D03*
X-12831Y-45325D02*
D03*
X-11831D02*
D03*
X-9806D02*
D03*
X-10806D02*
D03*
X-28625Y-76276D02*
D03*
X-27625D02*
D03*
X-12875Y-80825D02*
D03*
X-11875D02*
D03*
X-9850D02*
D03*
X-10850D02*
D03*
X-72825Y-39850D02*
D03*
X-71825D02*
D03*
X-69825D02*
D03*
X-68825D02*
D03*
X-67575D02*
D03*
X-66575D02*
D03*
X-57650D02*
D03*
X-58650D02*
D03*
X-59775D02*
D03*
X-60775D02*
D03*
X-64150D02*
D03*
X-65150D02*
D03*
X-77900D02*
D03*
X-76900D02*
D03*
X-75525D02*
D03*
X-74525D02*
D03*
X-61900D02*
D03*
X-62900D02*
D03*
X-50925Y-59400D02*
D03*
X-49925D02*
D03*
X-36925Y-42200D02*
D03*
X-35925D02*
D03*
X-38450Y-42200D02*
D03*
X-39450D02*
D03*
X-28575Y-46326D02*
D03*
X-27575D02*
D03*
D138*
X-48267Y-68756D02*
D03*
X-47067D02*
D03*
X-51025Y-76350D02*
D03*
X-49825D02*
D03*
X-23125Y-52000D02*
D03*
X-24325D02*
D03*
D139*
X-29925Y-70825D02*
D03*
X-31325D02*
D03*
X-68250Y-24875D02*
D03*
X-66850D02*
D03*
D140*
X-21925Y-67125D02*
D03*
Y-68075D02*
D03*
X-21927Y-66100D02*
D03*
Y-65150D02*
D03*
X-67550Y-27000D02*
D03*
Y-26050D02*
D03*
X-71288Y-23300D02*
D03*
Y-24250D02*
D03*
X-70363Y-23300D02*
D03*
Y-24250D02*
D03*
X-70450Y-33546D02*
D03*
Y-34496D02*
D03*
X-68450Y-27000D02*
D03*
Y-26050D02*
D03*
X-22900Y-53050D02*
D03*
Y-54000D02*
D03*
X-27550Y-50775D02*
D03*
Y-49825D02*
D03*
X-31000Y-50300D02*
D03*
Y-49350D02*
D03*
X-34200Y-50350D02*
D03*
Y-49400D02*
D03*
X-41075Y-53550D02*
D03*
Y-52600D02*
D03*
X-28750Y-70050D02*
D03*
Y-71000D02*
D03*
X-49365Y-73300D02*
D03*
Y-74251D02*
D03*
X-74450Y-28330D02*
D03*
Y-27380D02*
D03*
Y-29380D02*
D03*
Y-30330D02*
D03*
X-66650Y-26050D02*
D03*
Y-27000D02*
D03*
D141*
X-74750Y-54513D02*
D03*
X-73100D02*
D03*
D142*
X-61800Y-34650D02*
D03*
Y-35650D02*
D03*
X-63075Y-34650D02*
D03*
Y-35650D02*
D03*
X-64350Y-34650D02*
D03*
Y-35650D02*
D03*
X-68450Y-34271D02*
D03*
Y-33271D02*
D03*
X-63075Y-32200D02*
D03*
Y-33200D02*
D03*
X-64350Y-32200D02*
D03*
Y-33200D02*
D03*
X-61800Y-32200D02*
D03*
Y-33200D02*
D03*
X-73557Y-30980D02*
D03*
Y-29980D02*
D03*
X-60400Y-8625D02*
D03*
Y-7625D02*
D03*
X-45150Y-7275D02*
D03*
Y-6275D02*
D03*
X-46350Y-8300D02*
D03*
Y-9300D02*
D03*
Y-6275D02*
D03*
Y-7275D02*
D03*
X-35675Y-12450D02*
D03*
Y-11450D02*
D03*
X-59450Y-8625D02*
D03*
Y-7625D02*
D03*
X-28520Y-47325D02*
D03*
Y-48325D02*
D03*
X-27560Y-47325D02*
D03*
Y-48325D02*
D03*
X-26600Y-47325D02*
D03*
Y-48325D02*
D03*
X-25640Y-47325D02*
D03*
Y-48325D02*
D03*
X-24680Y-47325D02*
D03*
Y-48325D02*
D03*
X-23720Y-47325D02*
D03*
Y-48325D02*
D03*
D143*
X-71850Y-57475D02*
D03*
X-74750D02*
D03*
Y-51550D02*
D03*
X-71850D02*
D03*
D144*
X-68250Y-23500D02*
D03*
X-66850D02*
D03*
X-77501Y-23575D02*
D03*
X-76101D02*
D03*
D145*
X-20200Y-65550D02*
D03*
X-18500D02*
D03*
D146*
X-29925Y-45475D02*
D03*
X-28975D02*
D03*
X-59075Y-74900D02*
D03*
X-60025D02*
D03*
X-56650Y-68975D02*
D03*
X-55700D02*
D03*
X-66500Y-27975D02*
D03*
X-65550D02*
D03*
X-50678Y-7025D02*
D03*
X-51628D02*
D03*
X-40550Y-71075D02*
D03*
X-39600D02*
D03*
X-37400D02*
D03*
X-38350D02*
D03*
X-24075Y-10675D02*
D03*
X-23125D02*
D03*
X-11800Y-7725D02*
D03*
X-12750D02*
D03*
X-11800Y-6425D02*
D03*
X-12750D02*
D03*
X-17850Y-7025D02*
D03*
X-18800D02*
D03*
X-31375Y-69775D02*
D03*
X-30425D02*
D03*
X-22375Y-64200D02*
D03*
X-21425D02*
D03*
X-22375Y-60600D02*
D03*
X-21425D02*
D03*
X-22375Y-56200D02*
D03*
X-21425D02*
D03*
X-41675Y-59400D02*
D03*
X-42625D02*
D03*
X-41675Y-64050D02*
D03*
X-42625D02*
D03*
X-38400Y-69125D02*
D03*
X-39350D02*
D03*
X-34650Y-69250D02*
D03*
X-35600D02*
D03*
D147*
X-66025Y-53950D02*
D03*
Y-55050D02*
D03*
D148*
X-13875Y-7725D02*
D03*
Y-6325D02*
D03*
X-18750Y-61500D02*
D03*
Y-60100D02*
D03*
D149*
X-16430Y-7075D02*
D03*
X-49264D02*
D03*
D150*
X-16550Y-7925D02*
D03*
X-16050D02*
D03*
X-16550Y-6225D02*
D03*
X-16050D02*
D03*
X-48884D02*
D03*
X-49384D02*
D03*
X-48884Y-7925D02*
D03*
X-49384D02*
D03*
D151*
X-15550Y-7725D02*
D03*
X-15050D02*
D03*
X-15550Y-6425D02*
D03*
X-48384D02*
D03*
X-47884Y-7725D02*
D03*
X-48384D02*
D03*
D152*
X-15000Y-6425D02*
D03*
X-47834D02*
D03*
D153*
X-16900Y-4475D02*
D03*
X-16250D02*
D03*
X-15600D02*
D03*
X-14950D02*
D03*
X-14300D02*
D03*
X-47134D02*
D03*
X-47784D02*
D03*
X-48434D02*
D03*
X-49084D02*
D03*
X-49734D02*
D03*
D154*
X-6500Y-2000D02*
D03*
Y-3000D02*
D03*
X-8750Y-2000D02*
D03*
Y-3000D02*
D03*
X-34075Y-11450D02*
D03*
Y-12450D02*
D03*
D155*
X-28000Y-7650D02*
D03*
Y-2150D02*
D03*
X-24000D02*
D03*
Y-7650D02*
D03*
X-35000D02*
D03*
Y-2150D02*
D03*
X-31000D02*
D03*
Y-7650D02*
D03*
D156*
X-69925Y-52025D02*
D03*
X-68825D02*
D03*
D157*
X-65250Y-93150D02*
D03*
X-74850D02*
D03*
D158*
X-29300Y-73525D02*
D03*
X-31000D02*
D03*
D159*
X-54700Y-92575D02*
D03*
X-56800Y-93525D02*
D03*
Y-91625D02*
D03*
D160*
X-58750Y-93503D02*
D03*
Y-92550D02*
D03*
Y-91597D02*
D03*
X-61200D02*
D03*
Y-93503D02*
D03*
D161*
X-59575Y-69950D02*
D03*
D162*
X-61050Y-69200D02*
D03*
Y-69700D02*
D03*
Y-70700D02*
D03*
Y-70200D02*
D03*
X-58100D02*
D03*
Y-70700D02*
D03*
Y-69700D02*
D03*
Y-69200D02*
D03*
D163*
X-68450Y-28270D02*
D03*
X-68950D02*
D03*
X-69450D02*
D03*
X-69950D02*
D03*
X-70950Y-31990D02*
D03*
X-70450D02*
D03*
X-69950D02*
D03*
X-69450D02*
D03*
X-68950D02*
D03*
X-68450D02*
D03*
X-70450Y-28270D02*
D03*
X-70950D02*
D03*
D164*
X-71560Y-28880D02*
D03*
Y-29380D02*
D03*
Y-29880D02*
D03*
Y-30380D02*
D03*
Y-30880D02*
D03*
Y-31380D02*
D03*
X-67840D02*
D03*
Y-30880D02*
D03*
Y-30380D02*
D03*
Y-29880D02*
D03*
Y-29380D02*
D03*
Y-28880D02*
D03*
D165*
X-69700Y-30130D02*
D03*
D166*
X-68675Y-54500D02*
D03*
D167*
X-70088Y-55475D02*
D03*
Y-54825D02*
D03*
Y-54175D02*
D03*
Y-53525D02*
D03*
X-67263D02*
D03*
Y-54175D02*
D03*
Y-54825D02*
D03*
Y-55475D02*
D03*
D168*
X-59550Y-76550D02*
D03*
D169*
X-61000Y-75800D02*
D03*
Y-76300D02*
D03*
Y-76800D02*
D03*
Y-77300D02*
D03*
X-58100D02*
D03*
Y-76800D02*
D03*
Y-76300D02*
D03*
Y-75800D02*
D03*
D170*
X-26075Y-41800D02*
D03*
D171*
X-22225Y-43705D02*
D03*
Y-42435D02*
D03*
Y-41165D02*
D03*
Y-39895D02*
D03*
X-29925D02*
D03*
Y-41165D02*
D03*
Y-42435D02*
D03*
Y-43705D02*
D03*
D172*
X-18050Y-67450D02*
D03*
X-20650D02*
D03*
D173*
X-36050Y-71300D02*
D03*
Y-73000D02*
D03*
D174*
X-77225Y-27755D02*
D03*
Y-29955D02*
D03*
X-75625D02*
D03*
Y-27755D02*
D03*
D175*
X-37825Y-72375D02*
D03*
X-40125Y-74225D02*
D03*
X-37825D02*
D03*
X-40125Y-72375D02*
D03*
D176*
X-20250Y-60105D02*
D03*
Y-61505D02*
D03*
X-42100Y-53450D02*
D03*
Y-52050D02*
D03*
X-64231Y-53806D02*
D03*
Y-55206D02*
D03*
X-71525Y-33575D02*
D03*
Y-34975D02*
D03*
X-50475Y-73076D02*
D03*
Y-74476D02*
D03*
D177*
X-28610Y-78565D02*
D03*
Y-82635D02*
D03*
X-29880Y-78565D02*
D03*
Y-82635D02*
D03*
X-31150Y-78565D02*
D03*
Y-82635D02*
D03*
X-32420Y-78565D02*
D03*
Y-82635D02*
D03*
X-33690Y-78565D02*
D03*
Y-82635D02*
D03*
X-34960Y-78565D02*
D03*
Y-82635D02*
D03*
X-36230Y-78565D02*
D03*
Y-82635D02*
D03*
X-37500Y-78565D02*
D03*
Y-82635D02*
D03*
X-38770Y-78565D02*
D03*
Y-82635D02*
D03*
X-40040Y-78565D02*
D03*
Y-82635D02*
D03*
D178*
X-25800Y-67700D02*
D03*
X-26200D02*
D03*
X-26600D02*
D03*
X-27000D02*
D03*
X-27400D02*
D03*
X-27800D02*
D03*
X-28200D02*
D03*
X-28600D02*
D03*
X-29000D02*
D03*
X-29400D02*
D03*
X-29800D02*
D03*
X-30200D02*
D03*
X-30600D02*
D03*
X-31000D02*
D03*
X-31400D02*
D03*
X-31800D02*
D03*
X-32200D02*
D03*
X-32600D02*
D03*
X-33000D02*
D03*
X-33400D02*
D03*
X-33800D02*
D03*
X-34200D02*
D03*
X-34600D02*
D03*
X-35000D02*
D03*
X-35400D02*
D03*
X-35800D02*
D03*
X-36200D02*
D03*
X-36600D02*
D03*
X-37000D02*
D03*
X-37400D02*
D03*
X-37800D02*
D03*
X-38200D02*
D03*
Y-52300D02*
D03*
X-37800D02*
D03*
X-37400D02*
D03*
X-37000D02*
D03*
X-36600D02*
D03*
X-36200D02*
D03*
X-35800D02*
D03*
X-35400D02*
D03*
X-35000D02*
D03*
X-34600D02*
D03*
X-34200D02*
D03*
X-33800D02*
D03*
X-33400D02*
D03*
X-33000D02*
D03*
X-32600D02*
D03*
X-32200D02*
D03*
X-31800D02*
D03*
X-31400D02*
D03*
X-31000D02*
D03*
X-30600D02*
D03*
X-30200D02*
D03*
X-29800D02*
D03*
X-29400D02*
D03*
X-29000D02*
D03*
X-28600D02*
D03*
X-28200D02*
D03*
X-27800D02*
D03*
X-27400D02*
D03*
X-27000D02*
D03*
X-26600D02*
D03*
X-26200D02*
D03*
X-25800D02*
D03*
D179*
X-39700Y-66200D02*
D03*
Y-65800D02*
D03*
Y-65400D02*
D03*
Y-65000D02*
D03*
Y-64600D02*
D03*
Y-64200D02*
D03*
Y-63800D02*
D03*
Y-63400D02*
D03*
Y-63000D02*
D03*
Y-62600D02*
D03*
Y-62200D02*
D03*
Y-61800D02*
D03*
Y-61400D02*
D03*
Y-61000D02*
D03*
Y-60600D02*
D03*
Y-60200D02*
D03*
Y-59800D02*
D03*
Y-59400D02*
D03*
Y-59000D02*
D03*
Y-58600D02*
D03*
Y-58200D02*
D03*
Y-57800D02*
D03*
Y-57400D02*
D03*
Y-57000D02*
D03*
Y-56600D02*
D03*
Y-56200D02*
D03*
Y-55800D02*
D03*
Y-55400D02*
D03*
Y-55000D02*
D03*
Y-54600D02*
D03*
Y-54200D02*
D03*
Y-53800D02*
D03*
X-24300D02*
D03*
Y-54200D02*
D03*
Y-54600D02*
D03*
Y-55000D02*
D03*
Y-55400D02*
D03*
Y-55800D02*
D03*
Y-56200D02*
D03*
Y-56600D02*
D03*
Y-57000D02*
D03*
Y-57400D02*
D03*
Y-57800D02*
D03*
Y-58200D02*
D03*
Y-58600D02*
D03*
Y-59000D02*
D03*
Y-59400D02*
D03*
Y-59800D02*
D03*
Y-60200D02*
D03*
Y-60600D02*
D03*
Y-61000D02*
D03*
Y-61400D02*
D03*
Y-61800D02*
D03*
Y-62200D02*
D03*
Y-62600D02*
D03*
Y-63000D02*
D03*
Y-63400D02*
D03*
Y-63800D02*
D03*
Y-64200D02*
D03*
Y-64600D02*
D03*
Y-65000D02*
D03*
Y-65400D02*
D03*
Y-65800D02*
D03*
Y-66200D02*
D03*
D180*
X-43925Y-66440D02*
D03*
Y-67640D02*
D03*
X-45075Y-66440D02*
D03*
Y-67640D02*
D03*
D181*
X-14450Y-1675D02*
D03*
X-16750D02*
D03*
X-49584Y-1675D02*
D03*
X-47284D02*
D03*
D182*
X-68538Y-38055D02*
D03*
X-71225Y-47025D02*
D03*
X-70088Y-36225D02*
D03*
X-31655Y-36325D02*
D03*
X-32660Y-37780D02*
D03*
X-33930D02*
D03*
X-59625Y-34925D02*
D03*
X-42025Y-56375D02*
D03*
X-20800Y-37777D02*
D03*
X-33025Y-45525D02*
D03*
X-48325Y-59400D02*
D03*
Y-75030D02*
D03*
Y-72530D02*
D03*
Y-82530D02*
D03*
Y-80030D02*
D03*
Y-77530D02*
D03*
Y-70030D02*
D03*
Y-65100D02*
D03*
Y-63400D02*
D03*
Y-61400D02*
D03*
X-8240Y-21740D02*
D03*
Y-23010D02*
D03*
X-3160D02*
D03*
X-4430D02*
D03*
X-5700D02*
D03*
X-6970D02*
D03*
Y-21740D02*
D03*
X-5700D02*
D03*
X-4430D02*
D03*
X-3160D02*
D03*
X-62325Y-55135D02*
D03*
Y-53865D02*
D03*
X-31425Y-43705D02*
D03*
X-62325Y-56405D02*
D03*
X-20725Y-39895D02*
D03*
Y-43705D02*
D03*
Y-42435D02*
D03*
Y-41165D02*
D03*
X-31425Y-42435D02*
D03*
Y-41165D02*
D03*
Y-39895D02*
D03*
X-24325Y-50275D02*
D03*
D183*
X-73500Y-17925D02*
D03*
X-70960D02*
D03*
X-65880D02*
D03*
X-68420D02*
D03*
X-69690Y-20465D02*
D03*
X-67150D02*
D03*
X-72230D02*
D03*
X-74770D02*
D03*
D184*
X-76954Y-7511D02*
D03*
X-63696D02*
D03*
X-74414D02*
D03*
X-66236D02*
D03*
D185*
X-62578Y-14623D02*
D03*
X-78072D02*
D03*
D186*
X-76040Y-11575D02*
D03*
X-64610D02*
D03*
D187*
X-2350Y-2350D02*
D03*
X-57650D02*
D03*
X-2350Y-97650D02*
D03*
X-57650D02*
D03*
D188*
X-11950Y-1675D02*
D03*
X-19250D02*
D03*
X-52084D02*
D03*
X-44784D02*
D03*
D189*
X-17825Y-4800D02*
D03*
X-13375D02*
D03*
X-46209D02*
D03*
X-50659D02*
D03*
D190*
X-28730Y-95570D02*
D03*
X-18570D02*
D03*
X-21110D02*
D03*
Y-93030D02*
D03*
X-23650Y-95570D02*
D03*
Y-93030D02*
D03*
X-26190Y-95570D02*
D03*
Y-93030D02*
D03*
X-28730D02*
D03*
X-41430D02*
D03*
X-38890D02*
D03*
Y-95570D02*
D03*
X-36350Y-93030D02*
D03*
Y-95570D02*
D03*
X-33810Y-93030D02*
D03*
Y-95570D02*
D03*
X-31270D02*
D03*
Y-93030D02*
D03*
X-41430Y-95570D02*
D03*
X-36696Y-14760D02*
D03*
Y-17300D02*
D03*
X-41776Y-14760D02*
D03*
Y-17300D02*
D03*
X-4430Y-87150D02*
D03*
X-6970Y-76990D02*
D03*
X-4430D02*
D03*
Y-79530D02*
D03*
X-6970D02*
D03*
X-4430Y-82070D02*
D03*
X-6970D02*
D03*
X-4430Y-84610D02*
D03*
X-6970D02*
D03*
Y-87150D02*
D03*
Y-74450D02*
D03*
Y-71910D02*
D03*
X-4430D02*
D03*
X-6970Y-69370D02*
D03*
X-4430D02*
D03*
X-6970Y-66830D02*
D03*
X-4430D02*
D03*
Y-64290D02*
D03*
Y-74450D02*
D03*
Y-51590D02*
D03*
X-6970Y-41430D02*
D03*
X-4430D02*
D03*
Y-43970D02*
D03*
X-6970D02*
D03*
X-4430Y-46510D02*
D03*
X-6970D02*
D03*
X-4430Y-49050D02*
D03*
X-6970D02*
D03*
Y-51590D02*
D03*
Y-38890D02*
D03*
Y-36350D02*
D03*
X-4430D02*
D03*
X-6970Y-33810D02*
D03*
X-4430D02*
D03*
X-6970Y-31270D02*
D03*
X-4430D02*
D03*
Y-28730D02*
D03*
Y-38890D02*
D03*
X-6970Y-16030D02*
D03*
X-4430D02*
D03*
Y-13490D02*
D03*
X-77700Y-53243D02*
D03*
X-23575Y-75700D02*
D03*
Y-73160D02*
D03*
X-4430Y-59210D02*
D03*
X-64730Y-41705D02*
D03*
Y-44245D02*
D03*
X-62190Y-41705D02*
D03*
Y-44245D02*
D03*
X-59650Y-41705D02*
D03*
Y-44245D02*
D03*
X-57110Y-41705D02*
D03*
Y-44245D02*
D03*
X-54570D02*
D03*
X-67270D02*
D03*
X-69810D02*
D03*
Y-41705D02*
D03*
X-72350Y-44245D02*
D03*
Y-41705D02*
D03*
X-74890Y-44245D02*
D03*
Y-41705D02*
D03*
X-77430Y-44245D02*
D03*
Y-41705D02*
D03*
X-67270D02*
D03*
D191*
X-18570Y-93030D02*
D03*
X-38730Y-10950D02*
D03*
X-41270D02*
D03*
X-41995Y-44245D02*
D03*
X-44535D02*
D03*
X-39455D02*
D03*
X-36915D02*
D03*
X-54570Y-41705D02*
D03*
D192*
X-36696Y-19840D02*
D03*
X-41776D02*
D03*
X-6970Y-64290D02*
D03*
Y-28730D02*
D03*
Y-13490D02*
D03*
X-77700Y-55783D02*
D03*
X-23575Y-78240D02*
D03*
X-4430Y-56670D02*
D03*
M02*
