G04 Layer_Color=16711935*
%FSLAX43Y43*%
%MOMM*%
G71*
G01*
G75*
%ADD13C,0.550*%
%ADD77C,0.700*%
%ADD88C,1.600*%
%ADD134R,0.900X0.510*%
%ADD137R,0.700X0.650*%
%ADD138R,0.900X0.750*%
%ADD139R,0.900X0.950*%
%ADD140R,0.600X0.750*%
%ADD142R,0.650X0.700*%
%ADD144R,0.800X0.800*%
%ADD145R,1.100X1.050*%
%ADD146R,0.750X0.600*%
%ADD159R,1.400X0.700*%
%ADD176R,0.950X0.900*%
%ADD180R,0.750X0.900*%
%ADD182C,1.150*%
%ADD183C,1.624*%
%ADD184C,1.802*%
%ADD185C,2.386*%
%ADD186R,0.100X0.100*%
%ADD187C,3.700*%
G04:AMPARAMS|DCode=188|XSize=2.2mm|YSize=2mm|CornerRadius=0.544mm|HoleSize=0mm|Usage=FLASHONLY|Rotation=0.000|XOffset=0mm|YOffset=0mm|HoleType=Round|Shape=RoundedRectangle|*
%AMROUNDEDRECTD188*
21,1,2.200,0.912,0,0,0.0*
21,1,1.112,2.000,0,0,0.0*
1,1,1.088,0.556,-0.456*
1,1,1.088,-0.556,-0.456*
1,1,1.088,-0.556,0.456*
1,1,1.088,0.556,0.456*
%
%ADD188ROUNDEDRECTD188*%
G04:AMPARAMS|DCode=189|XSize=1.15mm|YSize=1.35mm|CornerRadius=0.575mm|HoleSize=0mm|Usage=FLASHONLY|Rotation=180.000|XOffset=0mm|YOffset=0mm|HoleType=Round|Shape=RoundedRectangle|*
%AMROUNDEDRECTD189*
21,1,1.150,0.200,0,0,180.0*
21,1,0.000,1.350,0,0,180.0*
1,1,1.150,0.000,0.100*
1,1,1.150,0.000,0.100*
1,1,1.150,0.000,-0.100*
1,1,1.150,0.000,-0.100*
%
%ADD189ROUNDEDRECTD189*%
%ADD190C,1.800*%
%ADD191R,1.800X1.800*%
%ADD192R,1.800X1.800*%
%ADD193R,0.820X1.150*%
%ADD194R,0.450X0.400*%
%ADD195C,1.370*%
%ADD196R,3.400X3.400*%
%ADD197R,2.400X1.200*%
%ADD198R,1.500X2.400*%
%ADD199R,1.100X1.700*%
%ADD200R,0.700X0.400*%
%ADD201R,1.150X1.400*%
%ADD202C,0.380*%
%ADD203R,0.400X0.950*%
%ADD204R,0.400X1.050*%
%ADD205R,0.450X0.950*%
%ADD206R,0.700X1.400*%
%ADD207O,1.850X0.650*%
%ADD208O,0.650X1.850*%
%ADD209R,0.550X1.700*%
%ADD210R,1.700X0.550*%
%ADD211C,0.900*%
G36*
X-11398Y-675D02*
X-11396Y-675D01*
X-11348Y-679D01*
X-11347Y-679D01*
X-11345Y-679D01*
X-11292Y-686D01*
X-11289Y-687D01*
X-11285Y-688D01*
X-11232Y-703D01*
X-11230Y-703D01*
X-11228Y-704D01*
X-11185Y-720D01*
X-11183Y-721D01*
X-11181Y-722D01*
X-11139Y-742D01*
X-11137Y-743D01*
X-11134Y-745D01*
X-11090Y-773D01*
X-11088Y-774D01*
X-11087Y-775D01*
X-11049Y-804D01*
X-11047Y-805D01*
X-11046Y-806D01*
X-11007Y-840D01*
X-11004Y-843D01*
X-11001Y-846D01*
X-10972Y-882D01*
X-10971Y-883D01*
X-10971Y-884D01*
X-10943Y-921D01*
X-10941Y-923D01*
X-10940Y-926D01*
X-10916Y-967D01*
X-10915Y-969D01*
X-10914Y-970D01*
X-10894Y-1012D01*
X-10893Y-1014D01*
X-10892Y-1016D01*
X-10876Y-1058D01*
X-10875Y-1061D01*
X-10874Y-1064D01*
X-10862Y-1115D01*
X-10862Y-1117D01*
X-10861Y-1119D01*
X-10854Y-1164D01*
X-10854Y-1166D01*
X-10854Y-1168D01*
X-10850Y-1221D01*
X-10850Y-1223D01*
X-10850Y-1225D01*
Y-2125D01*
X-10850Y-2127D01*
X-10850Y-2129D01*
X-10854Y-2184D01*
X-10854Y-2186D01*
X-10855Y-2189D01*
X-10863Y-2234D01*
X-10863Y-2235D01*
X-10863Y-2237D01*
X-10875Y-2287D01*
X-10876Y-2290D01*
X-10877Y-2294D01*
X-10893Y-2334D01*
X-10906Y-2366D01*
X-10908Y-2370D01*
X-10910Y-2373D01*
X-10935Y-2416D01*
X-10936Y-2418D01*
X-10937Y-2420D01*
X-10963Y-2457D01*
X-10964Y-2458D01*
X-10965Y-2460D01*
X-10996Y-2498D01*
X-10999Y-2500D01*
X-11001Y-2503D01*
X-11046Y-2544D01*
X-11048Y-2546D01*
X-11050Y-2547D01*
X-11090Y-2577D01*
X-11092Y-2578D01*
X-11093Y-2579D01*
X-11139Y-2609D01*
X-11142Y-2610D01*
X-11145Y-2612D01*
X-11198Y-2636D01*
X-11201Y-2637D01*
X-11205Y-2638D01*
X-11292Y-2664D01*
X-11297Y-2665D01*
X-11301Y-2666D01*
X-11301Y-2666D01*
X-11301Y-2666D01*
X-11301D01*
X-11395Y-2675D01*
X-11398Y-2675D01*
X-11400Y-2675D01*
X-13000D01*
X-13010Y-2674D01*
X-13019Y-2671D01*
X-13028Y-2667D01*
X-13036Y-2661D01*
X-13042Y-2653D01*
X-13046Y-2644D01*
X-13049Y-2635D01*
X-13050Y-2625D01*
Y-725D01*
X-13049Y-715D01*
X-13046Y-706D01*
X-13042Y-697D01*
X-13036Y-689D01*
X-13028Y-683D01*
X-13019Y-679D01*
X-13010Y-676D01*
X-13000Y-675D01*
X-11400D01*
X-11398Y-675D01*
D02*
G37*
G36*
X-44232D02*
X-44230Y-675D01*
X-44182Y-679D01*
X-44181Y-679D01*
X-44179Y-679D01*
X-44126Y-686D01*
X-44123Y-687D01*
X-44119Y-688D01*
X-44066Y-703D01*
X-44064Y-703D01*
X-44062Y-704D01*
X-44019Y-720D01*
X-44017Y-721D01*
X-44015Y-722D01*
X-43973Y-742D01*
X-43971Y-743D01*
X-43968Y-745D01*
X-43924Y-773D01*
X-43922Y-774D01*
X-43921Y-775D01*
X-43883Y-804D01*
X-43881Y-805D01*
X-43880Y-806D01*
X-43841Y-840D01*
X-43838Y-843D01*
X-43835Y-846D01*
X-43806Y-882D01*
X-43805Y-883D01*
X-43805Y-884D01*
X-43777Y-921D01*
X-43775Y-923D01*
X-43774Y-926D01*
X-43750Y-967D01*
X-43749Y-969D01*
X-43748Y-970D01*
X-43728Y-1012D01*
X-43727Y-1014D01*
X-43726Y-1016D01*
X-43710Y-1058D01*
X-43709Y-1061D01*
X-43708Y-1064D01*
X-43696Y-1115D01*
X-43696Y-1117D01*
X-43695Y-1119D01*
X-43688Y-1164D01*
X-43688Y-1166D01*
X-43688Y-1168D01*
X-43684Y-1221D01*
X-43684Y-1223D01*
X-43684Y-1225D01*
Y-2125D01*
X-43684Y-2127D01*
X-43684Y-2129D01*
X-43688Y-2184D01*
X-43688Y-2186D01*
X-43689Y-2189D01*
X-43697Y-2234D01*
X-43697Y-2235D01*
X-43697Y-2237D01*
X-43709Y-2287D01*
X-43710Y-2290D01*
X-43711Y-2294D01*
X-43727Y-2334D01*
X-43740Y-2366D01*
X-43742Y-2370D01*
X-43744Y-2373D01*
X-43769Y-2416D01*
X-43770Y-2418D01*
X-43771Y-2420D01*
X-43797Y-2457D01*
X-43798Y-2458D01*
X-43799Y-2460D01*
X-43830Y-2498D01*
X-43833Y-2500D01*
X-43835Y-2503D01*
X-43880Y-2544D01*
X-43882Y-2546D01*
X-43884Y-2547D01*
X-43924Y-2577D01*
X-43926Y-2578D01*
X-43927Y-2579D01*
X-43973Y-2609D01*
X-43976Y-2610D01*
X-43979Y-2612D01*
X-44032Y-2636D01*
X-44035Y-2637D01*
X-44039Y-2638D01*
X-44126Y-2664D01*
X-44131Y-2665D01*
X-44135Y-2666D01*
X-44135Y-2666D01*
X-44135Y-2666D01*
X-44135D01*
X-44229Y-2675D01*
X-44232Y-2675D01*
X-44234Y-2675D01*
X-45834D01*
X-45844Y-2674D01*
X-45853Y-2671D01*
X-45862Y-2667D01*
X-45870Y-2661D01*
X-45876Y-2653D01*
X-45880Y-2644D01*
X-45883Y-2635D01*
X-45884Y-2625D01*
Y-725D01*
X-45883Y-715D01*
X-45880Y-706D01*
X-45876Y-697D01*
X-45870Y-689D01*
X-45862Y-683D01*
X-45853Y-679D01*
X-45844Y-676D01*
X-45834Y-675D01*
X-44234D01*
X-44232Y-675D01*
D02*
G37*
G36*
X-18190Y-676D02*
X-18181Y-679D01*
X-18172Y-683D01*
X-18164Y-689D01*
X-18158Y-697D01*
X-18154Y-706D01*
X-18151Y-715D01*
X-18150Y-725D01*
Y-2625D01*
X-18151Y-2635D01*
X-18154Y-2644D01*
X-18158Y-2653D01*
X-18164Y-2661D01*
X-18172Y-2667D01*
X-18181Y-2671D01*
X-18190Y-2674D01*
X-18200Y-2675D01*
X-19800D01*
X-19802Y-2675D01*
X-19804Y-2675D01*
X-19852Y-2671D01*
X-19853Y-2671D01*
X-19855Y-2671D01*
X-19908Y-2664D01*
X-19911Y-2663D01*
X-19915Y-2662D01*
X-19968Y-2647D01*
X-19970Y-2647D01*
X-19972Y-2646D01*
X-20015Y-2630D01*
X-20017Y-2629D01*
X-20019Y-2628D01*
X-20061Y-2608D01*
X-20063Y-2607D01*
X-20066Y-2605D01*
X-20110Y-2577D01*
X-20112Y-2576D01*
X-20113Y-2575D01*
X-20151Y-2546D01*
X-20153Y-2545D01*
X-20154Y-2544D01*
X-20193Y-2510D01*
X-20196Y-2507D01*
X-20199Y-2504D01*
X-20228Y-2468D01*
X-20229Y-2467D01*
X-20229Y-2466D01*
X-20257Y-2429D01*
X-20259Y-2427D01*
X-20260Y-2424D01*
X-20284Y-2383D01*
X-20285Y-2381D01*
X-20286Y-2380D01*
X-20306Y-2338D01*
X-20307Y-2336D01*
X-20308Y-2334D01*
X-20324Y-2292D01*
X-20325Y-2289D01*
X-20326Y-2286D01*
X-20338Y-2235D01*
X-20338Y-2233D01*
X-20339Y-2231D01*
X-20346Y-2186D01*
X-20346Y-2184D01*
X-20346Y-2182D01*
X-20350Y-2129D01*
X-20350Y-2127D01*
X-20350Y-2125D01*
Y-1225D01*
X-20350Y-1223D01*
X-20350Y-1221D01*
X-20346Y-1166D01*
X-20346Y-1164D01*
X-20345Y-1161D01*
X-20337Y-1116D01*
X-20337Y-1115D01*
X-20337Y-1113D01*
X-20325Y-1063D01*
X-20324Y-1060D01*
X-20323Y-1056D01*
X-20307Y-1016D01*
X-20294Y-984D01*
X-20292Y-980D01*
X-20290Y-977D01*
X-20265Y-934D01*
X-20264Y-932D01*
X-20263Y-930D01*
X-20237Y-893D01*
X-20236Y-892D01*
X-20235Y-890D01*
X-20204Y-852D01*
X-20201Y-850D01*
X-20199Y-847D01*
X-20154Y-806D01*
X-20152Y-804D01*
X-20150Y-803D01*
X-20110Y-773D01*
X-20108Y-772D01*
X-20107Y-771D01*
X-20061Y-742D01*
X-20058Y-740D01*
X-20055Y-738D01*
X-20002Y-714D01*
X-19999Y-713D01*
X-19995Y-712D01*
X-19908Y-686D01*
X-19903Y-685D01*
X-19899Y-684D01*
X-19899Y-684D01*
X-19899Y-684D01*
X-19899D01*
X-19805Y-675D01*
X-19802Y-675D01*
X-19800Y-675D01*
X-18200D01*
X-18190Y-676D01*
D02*
G37*
G36*
X-51024D02*
X-51015Y-679D01*
X-51006Y-683D01*
X-50998Y-689D01*
X-50992Y-697D01*
X-50988Y-706D01*
X-50985Y-715D01*
X-50984Y-725D01*
Y-2625D01*
X-50985Y-2635D01*
X-50988Y-2644D01*
X-50992Y-2653D01*
X-50998Y-2661D01*
X-51006Y-2667D01*
X-51015Y-2671D01*
X-51024Y-2674D01*
X-51034Y-2675D01*
X-52634D01*
X-52636Y-2675D01*
X-52638Y-2675D01*
X-52686Y-2671D01*
X-52687Y-2671D01*
X-52689Y-2671D01*
X-52742Y-2664D01*
X-52745Y-2663D01*
X-52749Y-2662D01*
X-52802Y-2647D01*
X-52804Y-2647D01*
X-52806Y-2646D01*
X-52849Y-2630D01*
X-52851Y-2629D01*
X-52853Y-2628D01*
X-52895Y-2608D01*
X-52897Y-2607D01*
X-52900Y-2605D01*
X-52944Y-2577D01*
X-52946Y-2576D01*
X-52947Y-2575D01*
X-52985Y-2546D01*
X-52987Y-2545D01*
X-52988Y-2544D01*
X-53027Y-2510D01*
X-53030Y-2507D01*
X-53033Y-2504D01*
X-53062Y-2468D01*
X-53063Y-2467D01*
X-53063Y-2466D01*
X-53091Y-2429D01*
X-53093Y-2427D01*
X-53094Y-2424D01*
X-53118Y-2383D01*
X-53119Y-2381D01*
X-53120Y-2380D01*
X-53140Y-2338D01*
X-53141Y-2336D01*
X-53142Y-2334D01*
X-53158Y-2292D01*
X-53159Y-2289D01*
X-53160Y-2286D01*
X-53172Y-2235D01*
X-53172Y-2233D01*
X-53173Y-2231D01*
X-53180Y-2186D01*
X-53180Y-2184D01*
X-53180Y-2182D01*
X-53184Y-2129D01*
X-53184Y-2127D01*
X-53184Y-2125D01*
Y-1225D01*
X-53184Y-1223D01*
X-53184Y-1221D01*
X-53180Y-1166D01*
X-53180Y-1164D01*
X-53179Y-1161D01*
X-53171Y-1116D01*
X-53171Y-1115D01*
X-53171Y-1113D01*
X-53159Y-1063D01*
X-53158Y-1060D01*
X-53157Y-1056D01*
X-53141Y-1016D01*
X-53128Y-984D01*
X-53126Y-980D01*
X-53124Y-977D01*
X-53099Y-934D01*
X-53098Y-932D01*
X-53097Y-930D01*
X-53071Y-893D01*
X-53070Y-892D01*
X-53069Y-890D01*
X-53038Y-852D01*
X-53035Y-850D01*
X-53033Y-847D01*
X-52988Y-806D01*
X-52986Y-804D01*
X-52984Y-803D01*
X-52944Y-773D01*
X-52942Y-772D01*
X-52941Y-771D01*
X-52895Y-742D01*
X-52892Y-740D01*
X-52889Y-738D01*
X-52836Y-714D01*
X-52833Y-713D01*
X-52829Y-712D01*
X-52742Y-686D01*
X-52737Y-685D01*
X-52733Y-684D01*
X-52733Y-684D01*
X-52733Y-684D01*
X-52733D01*
X-52639Y-675D01*
X-52636Y-675D01*
X-52634Y-675D01*
X-51034D01*
X-51024Y-676D01*
D02*
G37*
D13*
X-26725Y-8150D02*
D03*
Y-7350D02*
D03*
D77*
X-70300Y-30730D02*
D03*
Y-29530D02*
D03*
X-69100Y-30730D02*
D03*
Y-29530D02*
D03*
D88*
X-74925Y-85750D02*
D03*
Y-61150D02*
D03*
D134*
X-27050Y-12145D02*
D03*
D137*
X-47850Y-39425D02*
D03*
X-48850D02*
D03*
X-55850Y-30900D02*
D03*
X-56850D02*
D03*
X-54950D02*
D03*
X-53950D02*
D03*
X-17875Y-9350D02*
D03*
X-18875D02*
D03*
X-12700Y-10550D02*
D03*
X-11700D02*
D03*
X-4200Y-11100D02*
D03*
X-5200D02*
D03*
X-1700D02*
D03*
X-2700D02*
D03*
X-45350Y-10375D02*
D03*
X-46350D02*
D03*
X-47900Y-10850D02*
D03*
X-48900D02*
D03*
X-45200Y-19300D02*
D03*
X-44200D02*
D03*
X-55600Y-23600D02*
D03*
X-54600D02*
D03*
X-48175Y-26675D02*
D03*
X-49175D02*
D03*
X-44600D02*
D03*
X-45600D02*
D03*
X-41050D02*
D03*
X-42050D02*
D03*
X-43000Y-21825D02*
D03*
X-42000D02*
D03*
X-46550D02*
D03*
X-45550D02*
D03*
X-50125D02*
D03*
X-49125D02*
D03*
X-30900Y-3879D02*
D03*
X-31900D02*
D03*
X-30900Y-5475D02*
D03*
X-31900D02*
D03*
X-47912Y-9908D02*
D03*
X-48912D02*
D03*
X-11700Y-9625D02*
D03*
X-12700D02*
D03*
X-11700Y-11500D02*
D03*
X-12700D02*
D03*
X-19900Y-8401D02*
D03*
X-20900D02*
D03*
X-21875Y-12775D02*
D03*
X-20875D02*
D03*
D138*
X-8175Y-26550D02*
D03*
X-6975D02*
D03*
X-8175Y-25400D02*
D03*
X-6975D02*
D03*
X-52825Y-23425D02*
D03*
X-51625D02*
D03*
X-11903Y-24300D02*
D03*
X-10703D02*
D03*
D139*
X-27275Y-5700D02*
D03*
X-25875D02*
D03*
X-26325Y-10175D02*
D03*
X-27725D02*
D03*
X-46550Y-19475D02*
D03*
X-47950D02*
D03*
X-49750D02*
D03*
X-51150D02*
D03*
D140*
X-39575Y-35300D02*
D03*
Y-34350D02*
D03*
X-40600Y-35300D02*
D03*
Y-34350D02*
D03*
X-39575Y-32400D02*
D03*
Y-33350D02*
D03*
X-40600Y-32400D02*
D03*
Y-33350D02*
D03*
X-46975Y-42300D02*
D03*
Y-41350D02*
D03*
Y-40400D02*
D03*
Y-39450D02*
D03*
X-16900Y-21225D02*
D03*
Y-22175D02*
D03*
Y-17475D02*
D03*
Y-18425D02*
D03*
X-30875Y-22375D02*
D03*
Y-21425D02*
D03*
X-30000Y-22375D02*
D03*
Y-21425D02*
D03*
X-16900Y-20275D02*
D03*
Y-19325D02*
D03*
X-28900Y-7775D02*
D03*
Y-6825D02*
D03*
X-52250Y-35050D02*
D03*
Y-36000D02*
D03*
X-53075Y-35050D02*
D03*
Y-36000D02*
D03*
X-51650Y-24500D02*
D03*
Y-25450D02*
D03*
X-55650Y-16650D02*
D03*
Y-15700D02*
D03*
D142*
X-46125Y-42325D02*
D03*
Y-41325D02*
D03*
Y-40425D02*
D03*
Y-39425D02*
D03*
X-56500Y-22575D02*
D03*
Y-23575D02*
D03*
X-37825Y-25628D02*
D03*
Y-26628D02*
D03*
X-36925Y-25628D02*
D03*
Y-26628D02*
D03*
X-38700Y-21750D02*
D03*
Y-22750D02*
D03*
X-37875Y-22750D02*
D03*
Y-21750D02*
D03*
X-17800Y-17450D02*
D03*
Y-18450D02*
D03*
X-20300Y-18200D02*
D03*
Y-19200D02*
D03*
Y-17200D02*
D03*
Y-16200D02*
D03*
X-1200Y-9700D02*
D03*
Y-8700D02*
D03*
X-5200Y-8700D02*
D03*
Y-9700D02*
D03*
X-14000Y-11925D02*
D03*
Y-10925D02*
D03*
Y-13975D02*
D03*
Y-12975D02*
D03*
X-56700Y-19375D02*
D03*
Y-18375D02*
D03*
X-39750Y-22675D02*
D03*
Y-23675D02*
D03*
X-8575Y-10775D02*
D03*
Y-9775D02*
D03*
X-48800Y-54375D02*
D03*
Y-55375D02*
D03*
D144*
X-31375Y-20000D02*
D03*
X-32775D02*
D03*
X-55600Y-36000D02*
D03*
X-54200D02*
D03*
D145*
X-27900Y-12150D02*
D03*
X-26200D02*
D03*
D146*
X-24900Y-26400D02*
D03*
X-25850D02*
D03*
X-24900Y-25500D02*
D03*
X-25850D02*
D03*
X-19325Y-21300D02*
D03*
X-20275D02*
D03*
X-22925Y-16000D02*
D03*
X-23875D02*
D03*
X-22925Y-15100D02*
D03*
X-23875D02*
D03*
X-25975Y-16000D02*
D03*
X-25025D02*
D03*
X-25975Y-15100D02*
D03*
X-25025D02*
D03*
X-32400Y-18900D02*
D03*
X-31450D02*
D03*
X-53975Y-31725D02*
D03*
X-54925D02*
D03*
X-54625Y-22775D02*
D03*
X-55575D02*
D03*
D159*
X-54300Y-14025D02*
D03*
Y-12125D02*
D03*
X-52200Y-13075D02*
D03*
X-48300Y-12125D02*
D03*
Y-14025D02*
D03*
X-50400Y-13075D02*
D03*
X-55050Y-21475D02*
D03*
Y-19575D02*
D03*
X-52950Y-20525D02*
D03*
X-44735Y-41325D02*
D03*
Y-39425D02*
D03*
X-42635Y-40375D02*
D03*
D176*
X-24500Y-2750D02*
D03*
Y-4150D02*
D03*
X-27800Y-2750D02*
D03*
Y-4150D02*
D03*
X-24075Y-7075D02*
D03*
Y-5675D02*
D03*
X-52750Y-26125D02*
D03*
Y-24725D02*
D03*
X-56750Y-15175D02*
D03*
Y-16575D02*
D03*
X-48125Y-16625D02*
D03*
Y-18025D02*
D03*
D180*
X-26280Y-30175D02*
D03*
Y-31375D02*
D03*
X-28830Y-30175D02*
D03*
Y-31375D02*
D03*
X-19400Y-31375D02*
D03*
Y-30175D02*
D03*
X-20700Y-31375D02*
D03*
Y-30175D02*
D03*
X-32655D02*
D03*
Y-31375D02*
D03*
X-11674Y-30150D02*
D03*
Y-31350D02*
D03*
X-58075Y-16450D02*
D03*
Y-15250D02*
D03*
X-14225Y-31350D02*
D03*
Y-30150D02*
D03*
X-27555Y-30175D02*
D03*
Y-31375D02*
D03*
X-30105Y-30175D02*
D03*
Y-31375D02*
D03*
X-31380Y-30175D02*
D03*
Y-31375D02*
D03*
X-23300Y-30175D02*
D03*
Y-31375D02*
D03*
X-22000Y-30175D02*
D03*
Y-31375D02*
D03*
X-33930Y-30175D02*
D03*
Y-31375D02*
D03*
X-12950Y-31350D02*
D03*
Y-30150D02*
D03*
X-18100Y-30175D02*
D03*
Y-31375D02*
D03*
X-16800Y-30175D02*
D03*
Y-31375D02*
D03*
X-15500Y-31350D02*
D03*
Y-30150D02*
D03*
D182*
X-68538Y-38055D02*
D03*
X-71225Y-47025D02*
D03*
X-70088Y-36225D02*
D03*
X-31655Y-36325D02*
D03*
X-32660Y-37780D02*
D03*
X-33930D02*
D03*
X-59625Y-34925D02*
D03*
X-42025Y-56375D02*
D03*
X-20800Y-37777D02*
D03*
X-33025Y-45525D02*
D03*
X-48325Y-59400D02*
D03*
Y-75030D02*
D03*
Y-72530D02*
D03*
Y-82530D02*
D03*
Y-80030D02*
D03*
Y-77530D02*
D03*
Y-70030D02*
D03*
Y-65100D02*
D03*
Y-63400D02*
D03*
Y-61400D02*
D03*
X-8240Y-21740D02*
D03*
Y-23010D02*
D03*
X-3160D02*
D03*
X-4430D02*
D03*
X-5700D02*
D03*
X-6970D02*
D03*
Y-21740D02*
D03*
X-5700D02*
D03*
X-4430D02*
D03*
X-3160D02*
D03*
X-62325Y-55135D02*
D03*
Y-53865D02*
D03*
X-31425Y-43705D02*
D03*
X-62325Y-56405D02*
D03*
X-20725Y-39895D02*
D03*
Y-43705D02*
D03*
Y-42435D02*
D03*
Y-41165D02*
D03*
X-31425Y-42435D02*
D03*
Y-41165D02*
D03*
Y-39895D02*
D03*
X-24325Y-50275D02*
D03*
D183*
X-73500Y-17925D02*
D03*
X-70960D02*
D03*
X-65880D02*
D03*
X-68420D02*
D03*
X-69690Y-20465D02*
D03*
X-67150D02*
D03*
X-72230D02*
D03*
X-74770D02*
D03*
D184*
X-76954Y-7511D02*
D03*
X-63696D02*
D03*
X-74414D02*
D03*
X-66236D02*
D03*
D185*
X-62578Y-14623D02*
D03*
X-78072D02*
D03*
D186*
X-76040Y-11575D02*
D03*
X-64610D02*
D03*
D187*
X-2350Y-2350D02*
D03*
X-57650D02*
D03*
X-2350Y-97650D02*
D03*
X-57650D02*
D03*
D188*
X-11950Y-1675D02*
D03*
X-19250D02*
D03*
X-52084D02*
D03*
X-44784D02*
D03*
D189*
X-17825Y-4800D02*
D03*
X-13375D02*
D03*
X-46209D02*
D03*
X-50659D02*
D03*
D190*
X-28730Y-95570D02*
D03*
X-18570D02*
D03*
X-21110D02*
D03*
Y-93030D02*
D03*
X-23650Y-95570D02*
D03*
Y-93030D02*
D03*
X-26190Y-95570D02*
D03*
Y-93030D02*
D03*
X-28730D02*
D03*
X-41430D02*
D03*
X-38890D02*
D03*
Y-95570D02*
D03*
X-36350Y-93030D02*
D03*
Y-95570D02*
D03*
X-33810Y-93030D02*
D03*
Y-95570D02*
D03*
X-31270D02*
D03*
Y-93030D02*
D03*
X-41430Y-95570D02*
D03*
X-36696Y-14760D02*
D03*
Y-17300D02*
D03*
X-41776Y-14760D02*
D03*
Y-17300D02*
D03*
X-4430Y-87150D02*
D03*
X-6970Y-76990D02*
D03*
X-4430D02*
D03*
Y-79530D02*
D03*
X-6970D02*
D03*
X-4430Y-82070D02*
D03*
X-6970D02*
D03*
X-4430Y-84610D02*
D03*
X-6970D02*
D03*
Y-87150D02*
D03*
Y-74450D02*
D03*
Y-71910D02*
D03*
X-4430D02*
D03*
X-6970Y-69370D02*
D03*
X-4430D02*
D03*
X-6970Y-66830D02*
D03*
X-4430D02*
D03*
Y-64290D02*
D03*
Y-74450D02*
D03*
X-38730Y-10950D02*
D03*
X-41270D02*
D03*
X-4430Y-51590D02*
D03*
X-6970Y-41430D02*
D03*
X-4430D02*
D03*
Y-43970D02*
D03*
X-6970D02*
D03*
X-4430Y-46510D02*
D03*
X-6970D02*
D03*
X-4430Y-49050D02*
D03*
X-6970D02*
D03*
Y-51590D02*
D03*
Y-38890D02*
D03*
Y-36350D02*
D03*
X-4430D02*
D03*
X-6970Y-33810D02*
D03*
X-4430D02*
D03*
X-6970Y-31270D02*
D03*
X-4430D02*
D03*
Y-28730D02*
D03*
Y-38890D02*
D03*
X-6970Y-16030D02*
D03*
X-4430D02*
D03*
Y-13490D02*
D03*
X-77700Y-53243D02*
D03*
X-23575Y-75700D02*
D03*
Y-73160D02*
D03*
X-4430Y-59210D02*
D03*
X-41995Y-44245D02*
D03*
X-44535D02*
D03*
X-39455D02*
D03*
X-36915D02*
D03*
X-64730Y-41705D02*
D03*
Y-44245D02*
D03*
X-62190Y-41705D02*
D03*
Y-44245D02*
D03*
X-59650Y-41705D02*
D03*
Y-44245D02*
D03*
X-57110Y-41705D02*
D03*
Y-44245D02*
D03*
X-54570D02*
D03*
X-67270D02*
D03*
X-69810D02*
D03*
Y-41705D02*
D03*
X-72350Y-44245D02*
D03*
Y-41705D02*
D03*
X-74890Y-44245D02*
D03*
Y-41705D02*
D03*
X-77430Y-44245D02*
D03*
Y-41705D02*
D03*
X-67270D02*
D03*
D191*
X-18570Y-93030D02*
D03*
X-54570Y-41705D02*
D03*
D192*
X-36696Y-19840D02*
D03*
X-41776D02*
D03*
X-6970Y-64290D02*
D03*
Y-28730D02*
D03*
Y-13490D02*
D03*
X-77700Y-55783D02*
D03*
X-23575Y-78240D02*
D03*
X-4430Y-56670D02*
D03*
D193*
X-18765Y-11075D02*
D03*
X-17785Y-11075D02*
D03*
X-12915Y-13725D02*
D03*
X-11935Y-13725D02*
D03*
X-10586Y-13725D02*
D03*
X-9606Y-13725D02*
D03*
X-10586Y-10550D02*
D03*
X-9606Y-10550D02*
D03*
D194*
X-17625Y-10200D02*
D03*
X-18275D02*
D03*
X-18925D02*
D03*
Y-11950D02*
D03*
X-18275D02*
D03*
X-17625D02*
D03*
X-13075Y-12850D02*
D03*
X-12425D02*
D03*
X-11775D02*
D03*
Y-14600D02*
D03*
X-12425D02*
D03*
X-13075D02*
D03*
X-10746Y-12850D02*
D03*
X-10096D02*
D03*
X-9446D02*
D03*
Y-14600D02*
D03*
X-10096D02*
D03*
X-10746D02*
D03*
Y-9675D02*
D03*
X-10096D02*
D03*
X-9446D02*
D03*
Y-11425D02*
D03*
X-10096D02*
D03*
X-10746D02*
D03*
D195*
X-33000Y-1500D02*
D03*
X-26000D02*
D03*
X-41600D02*
D03*
X-38600D02*
D03*
X-41600Y-3500D02*
D03*
Y-5500D02*
D03*
X-38600D02*
D03*
X-41600Y-7500D02*
D03*
X-38600Y-3500D02*
D03*
Y-7500D02*
D03*
D196*
X-67425Y-88800D02*
D03*
X-54425D02*
D03*
Y-58650D02*
D03*
X-67425D02*
D03*
D197*
X-50425Y-80030D02*
D03*
Y-77530D02*
D03*
Y-75030D02*
D03*
Y-72530D02*
D03*
Y-70030D02*
D03*
Y-67530D02*
D03*
Y-65100D02*
D03*
Y-63400D02*
D03*
Y-82530D02*
D03*
Y-61400D02*
D03*
D198*
X-61375Y-59150D02*
D03*
X-71425D02*
D03*
D199*
X-26725Y-7750D02*
D03*
D200*
X-25675Y-8400D02*
D03*
Y-7750D02*
D03*
Y-7100D02*
D03*
X-27775D02*
D03*
Y-7750D02*
D03*
Y-8400D02*
D03*
D201*
X-13775Y-21400D02*
D03*
X-15625Y-19100D02*
D03*
Y-21400D02*
D03*
X-13775Y-19100D02*
D03*
D202*
X-27950Y-17850D02*
D03*
X-27300D02*
D03*
X-26650D02*
D03*
X-26000D02*
D03*
X-25350D02*
D03*
X-24700D02*
D03*
X-24050D02*
D03*
X-23400D02*
D03*
X-22750D02*
D03*
X-22100D02*
D03*
X-27950Y-18500D02*
D03*
X-27300D02*
D03*
X-26650D02*
D03*
X-26000D02*
D03*
X-25350D02*
D03*
X-24700D02*
D03*
X-24050D02*
D03*
X-23400D02*
D03*
X-22750D02*
D03*
X-22100D02*
D03*
X-27950Y-19150D02*
D03*
X-27300D02*
D03*
X-26650D02*
D03*
X-26000D02*
D03*
X-25350D02*
D03*
X-24700D02*
D03*
X-24050D02*
D03*
X-23400D02*
D03*
X-22750D02*
D03*
X-27950Y-19800D02*
D03*
X-27300D02*
D03*
X-26650D02*
D03*
X-26000D02*
D03*
X-25350D02*
D03*
X-24700D02*
D03*
X-24050D02*
D03*
X-23400D02*
D03*
X-22750D02*
D03*
X-27950Y-20450D02*
D03*
X-27300D02*
D03*
X-26650D02*
D03*
X-26000D02*
D03*
X-25350D02*
D03*
X-24700D02*
D03*
X-24050D02*
D03*
X-23400D02*
D03*
X-22750D02*
D03*
X-27950Y-21750D02*
D03*
X-27300D02*
D03*
X-26650D02*
D03*
X-26000D02*
D03*
X-25350D02*
D03*
X-24700D02*
D03*
X-24050D02*
D03*
X-23400D02*
D03*
X-22750D02*
D03*
X-27950Y-22400D02*
D03*
X-27300D02*
D03*
X-26650D02*
D03*
X-26000D02*
D03*
X-25350D02*
D03*
X-24700D02*
D03*
X-24050D02*
D03*
X-23400D02*
D03*
X-22750D02*
D03*
X-27950Y-23050D02*
D03*
X-27300D02*
D03*
X-26650D02*
D03*
X-26000D02*
D03*
X-25350D02*
D03*
X-24700D02*
D03*
X-24050D02*
D03*
X-23400D02*
D03*
X-22750D02*
D03*
X-27950Y-23700D02*
D03*
X-27300D02*
D03*
X-26650D02*
D03*
X-26000D02*
D03*
X-25350D02*
D03*
X-24700D02*
D03*
X-24050D02*
D03*
X-23400D02*
D03*
X-22750D02*
D03*
X-27950Y-21100D02*
D03*
X-27300D02*
D03*
X-26650D02*
D03*
X-26000D02*
D03*
X-25350D02*
D03*
X-24700D02*
D03*
X-24050D02*
D03*
X-23400D02*
D03*
X-22750D02*
D03*
X-22100D02*
D03*
Y-19150D02*
D03*
Y-19800D02*
D03*
Y-20450D02*
D03*
Y-21750D02*
D03*
Y-22400D02*
D03*
Y-23050D02*
D03*
Y-23700D02*
D03*
D203*
X-26150Y-3100D02*
D03*
Y-4350D02*
D03*
X-25650Y-3100D02*
D03*
X-26650D02*
D03*
Y-4350D02*
D03*
D204*
X-25650Y-4300D02*
D03*
D205*
X-3875Y-7875D02*
D03*
X-3225D02*
D03*
X-2575D02*
D03*
Y-9725D02*
D03*
X-3225D02*
D03*
X-3875D02*
D03*
X-21544Y-9679D02*
D03*
X-20894D02*
D03*
X-20244D02*
D03*
Y-11529D02*
D03*
X-20894D02*
D03*
X-21544D02*
D03*
D206*
X-44675Y-13950D02*
D03*
X-46575D02*
D03*
X-45625Y-11850D02*
D03*
X-44675Y-17850D02*
D03*
X-46575D02*
D03*
X-45625Y-15750D02*
D03*
X-41050Y-25300D02*
D03*
X-42950D02*
D03*
X-42000Y-23200D02*
D03*
X-44600Y-25300D02*
D03*
X-46500D02*
D03*
X-45550Y-23200D02*
D03*
X-48150Y-25300D02*
D03*
X-50050D02*
D03*
X-49100Y-23200D02*
D03*
D207*
X-42399Y-35851D02*
D03*
Y-35051D02*
D03*
Y-34251D02*
D03*
Y-33451D02*
D03*
Y-32651D02*
D03*
Y-31851D02*
D03*
Y-31051D02*
D03*
Y-30251D02*
D03*
X-50649D02*
D03*
Y-31051D02*
D03*
Y-31851D02*
D03*
Y-32651D02*
D03*
Y-33451D02*
D03*
Y-34251D02*
D03*
Y-35051D02*
D03*
Y-35851D02*
D03*
D208*
X-43724Y-28926D02*
D03*
X-44524D02*
D03*
X-45324D02*
D03*
X-46124D02*
D03*
X-46924D02*
D03*
X-47724D02*
D03*
X-48524D02*
D03*
X-49324D02*
D03*
Y-37176D02*
D03*
X-48524D02*
D03*
X-47724D02*
D03*
X-46924D02*
D03*
X-46124D02*
D03*
X-45324D02*
D03*
X-44524D02*
D03*
X-43724D02*
D03*
D209*
X-54300Y-29375D02*
D03*
X-54950D02*
D03*
X-55600D02*
D03*
X-56250D02*
D03*
X-54300Y-25125D02*
D03*
X-54950D02*
D03*
X-55600D02*
D03*
X-56250D02*
D03*
D210*
X-49900Y-15975D02*
D03*
Y-16625D02*
D03*
Y-17275D02*
D03*
Y-17925D02*
D03*
X-54150Y-15975D02*
D03*
Y-16625D02*
D03*
Y-17275D02*
D03*
Y-17925D02*
D03*
D211*
X-15675Y-13975D02*
D03*
X-40300Y-39425D02*
D03*
X-44275Y-21725D02*
D03*
X-40209Y-21300D02*
D03*
X-29525Y-4424D02*
D03*
X-46830Y-15420D02*
D03*
X-30650Y-7750D02*
D03*
X-58575Y-17850D02*
D03*
X-57950Y-24175D02*
D03*
X-50649Y-27124D02*
D03*
X-51375Y-21175D02*
D03*
X-37550Y-33350D02*
D03*
X-52625Y-21725D02*
D03*
X-56150Y-32775D02*
D03*
X-48125Y-15425D02*
D03*
X-58675Y-21575D02*
D03*
X-51336Y-10500D02*
D03*
X-18757Y-19575D02*
D03*
X-2800Y-12775D02*
D03*
X-2575Y-6300D02*
D03*
X-47850Y-21700D02*
D03*
X-31380Y-28825D02*
D03*
X-30105D02*
D03*
X-28830Y-28825D02*
D03*
X-27555Y-28825D02*
D03*
X-26280D02*
D03*
X-53975Y-33500D02*
D03*
X-56548Y-20950D02*
D03*
X-24525Y-13525D02*
D03*
X-32125Y-17250D02*
D03*
X-55900Y-34300D02*
D03*
X-48575Y-41350D02*
D03*
X-20900Y-6826D02*
D03*
X-15925Y-10200D02*
D03*
X-9446Y-7779D02*
D03*
X-73600Y-35216D02*
D03*
X-34960Y-80845D02*
D03*
X-36230D02*
D03*
X-37500D02*
D03*
X-38770D02*
D03*
X-40040D02*
D03*
X-36175Y-32650D02*
D03*
X-37800Y-32075D02*
D03*
X-38130Y-30095D02*
D03*
X-37000Y-30825D02*
D03*
X-39327Y-29500D02*
D03*
X-40525Y-28950D02*
D03*
X-62900Y-37475D02*
D03*
X-58650Y-38875D02*
D03*
X-60775D02*
D03*
X-6800Y-9825D02*
D03*
X-31200Y-15275D02*
D03*
X-12975Y-16175D02*
D03*
X-63075Y-33924D02*
D03*
X-35925Y-24250D02*
D03*
X-37200Y-24250D02*
D03*
X-16725Y-16050D02*
D03*
X-39225Y-24975D02*
D03*
X-52750Y-32799D02*
D03*
X-36275Y-21825D02*
D03*
X-33717Y-3879D02*
D03*
X-39700Y-26675D02*
D03*
X-44200Y-20225D02*
D03*
X-6800Y-11100D02*
D03*
X-56106Y-13748D02*
D03*
X-33930Y-28825D02*
D03*
X-32655D02*
D03*
X-28075Y-25750D02*
D03*
X-1250Y-6825D02*
D03*
X-1250Y-12800D02*
D03*
X-16050Y-8775D02*
D03*
X-36625Y-11450D02*
D03*
X-39725Y-37900D02*
D03*
X-38650Y-37075D02*
D03*
X-22000Y-28825D02*
D03*
X-23300Y-28825D02*
D03*
X-16800Y-28825D02*
D03*
X-15500D02*
D03*
X-14225D02*
D03*
X-12950D02*
D03*
X-11674Y-28825D02*
D03*
X-18100Y-28825D02*
D03*
X-19400D02*
D03*
X-20700D02*
D03*
X-31000Y-75900D02*
D03*
X-59625Y-90250D02*
D03*
X-56800Y-90750D02*
D03*
X-56800Y-92575D02*
D03*
X-29700Y-75900D02*
D03*
X-65861Y-27000D02*
D03*
X-69162Y-25737D02*
D03*
X-67840Y-32490D02*
D03*
X-66950Y-31355D02*
D03*
X-66275Y-32475D02*
D03*
X-27225Y-60600D02*
D03*
X-32500Y-8925D02*
D03*
X-17875Y-7775D02*
D03*
X-72675Y-29880D02*
D03*
X-41000Y-38325D02*
D03*
X-73525Y-38117D02*
D03*
M02*
