G04 Layer_Color=128*
%FSLAX43Y43*%
%MOMM*%
G71*
G01*
G75*
%ADD14R,0.600X0.550*%
%ADD15R,0.800X0.650*%
%ADD16R,0.800X0.850*%
%ADD17R,0.500X0.650*%
%ADD19R,0.550X0.600*%
%ADD21R,0.700X0.700*%
%ADD23R,0.650X0.500*%
%ADD36R,1.300X0.600*%
%ADD53R,0.850X0.800*%
%ADD57R,0.650X0.800*%
%ADD97R,0.720X1.050*%
%ADD98R,0.350X0.300*%
%ADD100R,3.000X3.000*%
%ADD101R,2.000X0.800*%
%ADD102R,1.100X2.000*%
%ADD105R,1.050X1.300*%
%ADD106C,0.280*%
%ADD109R,0.350X0.850*%
%ADD110R,0.600X1.300*%
%ADD111O,1.750X0.550*%
%ADD112O,0.550X1.750*%
%ADD113R,0.450X1.600*%
%ADD114R,1.600X0.450*%
%ADD212R,0.900X1.500*%
%ADD213R,0.550X0.250*%
%ADD214R,0.250X0.800*%
%ADD215R,0.250X0.900*%
D14*
X-47850Y-39425D02*
D03*
X-48850D02*
D03*
X-55850Y-30900D02*
D03*
X-56850D02*
D03*
X-54950D02*
D03*
X-53950D02*
D03*
X-17875Y-9350D02*
D03*
X-18875D02*
D03*
X-12700Y-10550D02*
D03*
X-11700D02*
D03*
X-4200Y-11100D02*
D03*
X-5200D02*
D03*
X-1700D02*
D03*
X-2700D02*
D03*
X-45350Y-10375D02*
D03*
X-46350D02*
D03*
X-47900Y-10850D02*
D03*
X-48900D02*
D03*
X-45200Y-19300D02*
D03*
X-44200D02*
D03*
X-55600Y-23600D02*
D03*
X-54600D02*
D03*
X-48175Y-26675D02*
D03*
X-49175D02*
D03*
X-44600D02*
D03*
X-45600D02*
D03*
X-41050D02*
D03*
X-42050D02*
D03*
X-43000Y-21825D02*
D03*
X-42000D02*
D03*
X-46550D02*
D03*
X-45550D02*
D03*
X-50125D02*
D03*
X-49125D02*
D03*
X-30900Y-3879D02*
D03*
X-31900D02*
D03*
X-30900Y-5475D02*
D03*
X-31900D02*
D03*
X-47912Y-9908D02*
D03*
X-48912D02*
D03*
X-11700Y-9625D02*
D03*
X-12700D02*
D03*
X-11700Y-11500D02*
D03*
X-12700D02*
D03*
X-19900Y-8401D02*
D03*
X-20900D02*
D03*
X-21875Y-12775D02*
D03*
X-20875D02*
D03*
D15*
X-8175Y-26550D02*
D03*
X-6975D02*
D03*
X-8175Y-25400D02*
D03*
X-6975D02*
D03*
X-52825Y-23425D02*
D03*
X-51625D02*
D03*
X-11903Y-24300D02*
D03*
X-10703D02*
D03*
D16*
X-27275Y-5700D02*
D03*
X-25875D02*
D03*
X-26325Y-10175D02*
D03*
X-27725D02*
D03*
X-46550Y-19475D02*
D03*
X-47950D02*
D03*
X-49750D02*
D03*
X-51150D02*
D03*
D17*
X-39575Y-35300D02*
D03*
Y-34350D02*
D03*
X-40600Y-35300D02*
D03*
Y-34350D02*
D03*
X-39575Y-32400D02*
D03*
Y-33350D02*
D03*
X-40600Y-32400D02*
D03*
Y-33350D02*
D03*
X-46975Y-42300D02*
D03*
Y-41350D02*
D03*
Y-40400D02*
D03*
Y-39450D02*
D03*
X-16900Y-21225D02*
D03*
Y-22175D02*
D03*
Y-17475D02*
D03*
Y-18425D02*
D03*
X-30875Y-22375D02*
D03*
Y-21425D02*
D03*
X-30000Y-22375D02*
D03*
Y-21425D02*
D03*
X-16900Y-20275D02*
D03*
Y-19325D02*
D03*
X-28900Y-7775D02*
D03*
Y-6825D02*
D03*
X-52250Y-35050D02*
D03*
Y-36000D02*
D03*
X-53075Y-35050D02*
D03*
Y-36000D02*
D03*
X-51650Y-24500D02*
D03*
Y-25450D02*
D03*
X-55650Y-16650D02*
D03*
Y-15700D02*
D03*
D19*
X-46125Y-42325D02*
D03*
Y-41325D02*
D03*
Y-40425D02*
D03*
Y-39425D02*
D03*
X-56500Y-22575D02*
D03*
Y-23575D02*
D03*
X-37825Y-25628D02*
D03*
Y-26628D02*
D03*
X-36925Y-25628D02*
D03*
Y-26628D02*
D03*
X-38700Y-21750D02*
D03*
Y-22750D02*
D03*
X-37875Y-22750D02*
D03*
Y-21750D02*
D03*
X-17800Y-17450D02*
D03*
Y-18450D02*
D03*
X-20300Y-18200D02*
D03*
Y-19200D02*
D03*
Y-17200D02*
D03*
Y-16200D02*
D03*
X-1200Y-9700D02*
D03*
Y-8700D02*
D03*
X-5200Y-8700D02*
D03*
Y-9700D02*
D03*
X-14000Y-11925D02*
D03*
Y-10925D02*
D03*
Y-13975D02*
D03*
Y-12975D02*
D03*
X-56700Y-19375D02*
D03*
Y-18375D02*
D03*
X-39750Y-22675D02*
D03*
Y-23675D02*
D03*
X-8575Y-10775D02*
D03*
Y-9775D02*
D03*
X-48800Y-54375D02*
D03*
Y-55375D02*
D03*
D21*
X-31375Y-20000D02*
D03*
X-32775D02*
D03*
X-55600Y-36000D02*
D03*
X-54200D02*
D03*
D23*
X-24900Y-26400D02*
D03*
X-25850D02*
D03*
X-24900Y-25500D02*
D03*
X-25850D02*
D03*
X-19325Y-21300D02*
D03*
X-20275D02*
D03*
X-22925Y-16000D02*
D03*
X-23875D02*
D03*
X-22925Y-15100D02*
D03*
X-23875D02*
D03*
X-25975Y-16000D02*
D03*
X-25025D02*
D03*
X-25975Y-15100D02*
D03*
X-25025D02*
D03*
X-32400Y-18900D02*
D03*
X-31450D02*
D03*
X-53975Y-31725D02*
D03*
X-54925D02*
D03*
X-54625Y-22775D02*
D03*
X-55575D02*
D03*
D36*
X-54300Y-14025D02*
D03*
Y-12125D02*
D03*
X-52200Y-13075D02*
D03*
X-48300Y-12125D02*
D03*
Y-14025D02*
D03*
X-50400Y-13075D02*
D03*
X-55050Y-21475D02*
D03*
Y-19575D02*
D03*
X-52950Y-20525D02*
D03*
X-44735Y-41325D02*
D03*
Y-39425D02*
D03*
X-42635Y-40375D02*
D03*
D53*
X-24500Y-2750D02*
D03*
Y-4150D02*
D03*
X-27800Y-2750D02*
D03*
Y-4150D02*
D03*
X-24075Y-7075D02*
D03*
Y-5675D02*
D03*
X-52750Y-26125D02*
D03*
Y-24725D02*
D03*
X-56750Y-15175D02*
D03*
Y-16575D02*
D03*
X-48125Y-16625D02*
D03*
Y-18025D02*
D03*
D57*
X-26280Y-30175D02*
D03*
Y-31375D02*
D03*
X-28830Y-30175D02*
D03*
Y-31375D02*
D03*
X-19400Y-31375D02*
D03*
Y-30175D02*
D03*
X-20700Y-31375D02*
D03*
Y-30175D02*
D03*
X-32655D02*
D03*
Y-31375D02*
D03*
X-11674Y-30150D02*
D03*
Y-31350D02*
D03*
X-58075Y-16450D02*
D03*
Y-15250D02*
D03*
X-14225Y-31350D02*
D03*
Y-30150D02*
D03*
X-27555Y-30175D02*
D03*
Y-31375D02*
D03*
X-30105Y-30175D02*
D03*
Y-31375D02*
D03*
X-31380Y-30175D02*
D03*
Y-31375D02*
D03*
X-23300Y-30175D02*
D03*
Y-31375D02*
D03*
X-22000Y-30175D02*
D03*
Y-31375D02*
D03*
X-33930Y-30175D02*
D03*
Y-31375D02*
D03*
X-12950Y-31350D02*
D03*
Y-30150D02*
D03*
X-18100Y-30175D02*
D03*
Y-31375D02*
D03*
X-16800Y-30175D02*
D03*
Y-31375D02*
D03*
X-15500Y-31350D02*
D03*
Y-30150D02*
D03*
D97*
X-18765Y-11075D02*
D03*
X-17785Y-11075D02*
D03*
X-12915Y-13725D02*
D03*
X-11935Y-13725D02*
D03*
X-10586Y-13725D02*
D03*
X-9606Y-13725D02*
D03*
X-10586Y-10550D02*
D03*
X-9606Y-10550D02*
D03*
D98*
X-17625Y-10200D02*
D03*
X-18275D02*
D03*
X-18925D02*
D03*
Y-11950D02*
D03*
X-18275D02*
D03*
X-17625D02*
D03*
X-13075Y-12850D02*
D03*
X-12425D02*
D03*
X-11775D02*
D03*
Y-14600D02*
D03*
X-12425D02*
D03*
X-13075D02*
D03*
X-10746Y-12850D02*
D03*
X-10096D02*
D03*
X-9446D02*
D03*
Y-14600D02*
D03*
X-10096D02*
D03*
X-10746D02*
D03*
Y-9675D02*
D03*
X-10096D02*
D03*
X-9446D02*
D03*
Y-11425D02*
D03*
X-10096D02*
D03*
X-10746D02*
D03*
D100*
X-67425Y-88800D02*
D03*
X-54425D02*
D03*
Y-58650D02*
D03*
X-67425D02*
D03*
D101*
X-50425Y-80030D02*
D03*
Y-77530D02*
D03*
Y-75030D02*
D03*
Y-72530D02*
D03*
Y-70030D02*
D03*
Y-67530D02*
D03*
Y-65100D02*
D03*
Y-63400D02*
D03*
Y-82530D02*
D03*
Y-61400D02*
D03*
D102*
X-61375Y-59150D02*
D03*
X-71425D02*
D03*
D105*
X-13775Y-21400D02*
D03*
X-15625Y-19100D02*
D03*
Y-21400D02*
D03*
X-13775Y-19100D02*
D03*
D106*
X-27950Y-17850D02*
D03*
X-27300D02*
D03*
X-26650D02*
D03*
X-26000D02*
D03*
X-25350D02*
D03*
X-24700D02*
D03*
X-24050D02*
D03*
X-23400D02*
D03*
X-22750D02*
D03*
X-22100D02*
D03*
X-27950Y-18500D02*
D03*
X-27300D02*
D03*
X-26650D02*
D03*
X-26000D02*
D03*
X-25350D02*
D03*
X-24700D02*
D03*
X-24050D02*
D03*
X-23400D02*
D03*
X-22750D02*
D03*
X-22100D02*
D03*
X-27950Y-19150D02*
D03*
X-27300D02*
D03*
X-26650D02*
D03*
X-26000D02*
D03*
X-25350D02*
D03*
X-24700D02*
D03*
X-24050D02*
D03*
X-23400D02*
D03*
X-22750D02*
D03*
X-27950Y-19800D02*
D03*
X-27300D02*
D03*
X-26650D02*
D03*
X-26000D02*
D03*
X-25350D02*
D03*
X-24700D02*
D03*
X-24050D02*
D03*
X-23400D02*
D03*
X-22750D02*
D03*
X-27950Y-20450D02*
D03*
X-27300D02*
D03*
X-26650D02*
D03*
X-26000D02*
D03*
X-25350D02*
D03*
X-24700D02*
D03*
X-24050D02*
D03*
X-23400D02*
D03*
X-22750D02*
D03*
X-27950Y-21750D02*
D03*
X-27300D02*
D03*
X-26650D02*
D03*
X-26000D02*
D03*
X-25350D02*
D03*
X-24700D02*
D03*
X-24050D02*
D03*
X-23400D02*
D03*
X-22750D02*
D03*
X-27950Y-22400D02*
D03*
X-27300D02*
D03*
X-26650D02*
D03*
X-26000D02*
D03*
X-25350D02*
D03*
X-24700D02*
D03*
X-24050D02*
D03*
X-23400D02*
D03*
X-22750D02*
D03*
X-27950Y-23050D02*
D03*
X-27300D02*
D03*
X-26650D02*
D03*
X-26000D02*
D03*
X-25350D02*
D03*
X-24700D02*
D03*
X-24050D02*
D03*
X-23400D02*
D03*
X-22750D02*
D03*
X-27950Y-23700D02*
D03*
X-27300D02*
D03*
X-26650D02*
D03*
X-26000D02*
D03*
X-25350D02*
D03*
X-24700D02*
D03*
X-24050D02*
D03*
X-23400D02*
D03*
X-22750D02*
D03*
X-27950Y-21100D02*
D03*
X-27300D02*
D03*
X-26650D02*
D03*
X-26000D02*
D03*
X-25350D02*
D03*
X-24700D02*
D03*
X-24050D02*
D03*
X-23400D02*
D03*
X-22750D02*
D03*
X-22100D02*
D03*
Y-19150D02*
D03*
Y-19800D02*
D03*
Y-20450D02*
D03*
Y-21750D02*
D03*
Y-22400D02*
D03*
Y-23050D02*
D03*
Y-23700D02*
D03*
D109*
X-3875Y-7875D02*
D03*
X-3225D02*
D03*
X-2575D02*
D03*
Y-9725D02*
D03*
X-3225D02*
D03*
X-3875D02*
D03*
X-21544Y-9679D02*
D03*
X-20894D02*
D03*
X-20244D02*
D03*
Y-11529D02*
D03*
X-20894D02*
D03*
X-21544D02*
D03*
D110*
X-44675Y-13950D02*
D03*
X-46575D02*
D03*
X-45625Y-11850D02*
D03*
X-44675Y-17850D02*
D03*
X-46575D02*
D03*
X-45625Y-15750D02*
D03*
X-41050Y-25300D02*
D03*
X-42950D02*
D03*
X-42000Y-23200D02*
D03*
X-44600Y-25300D02*
D03*
X-46500D02*
D03*
X-45550Y-23200D02*
D03*
X-48150Y-25300D02*
D03*
X-50050D02*
D03*
X-49100Y-23200D02*
D03*
D111*
X-42399Y-35851D02*
D03*
Y-35051D02*
D03*
Y-34251D02*
D03*
Y-33451D02*
D03*
Y-32651D02*
D03*
Y-31851D02*
D03*
Y-31051D02*
D03*
Y-30251D02*
D03*
X-50649D02*
D03*
Y-31051D02*
D03*
Y-31851D02*
D03*
Y-32651D02*
D03*
Y-33451D02*
D03*
Y-34251D02*
D03*
Y-35051D02*
D03*
Y-35851D02*
D03*
D112*
X-43724Y-28926D02*
D03*
X-44524D02*
D03*
X-45324D02*
D03*
X-46124D02*
D03*
X-46924D02*
D03*
X-47724D02*
D03*
X-48524D02*
D03*
X-49324D02*
D03*
Y-37176D02*
D03*
X-48524D02*
D03*
X-47724D02*
D03*
X-46924D02*
D03*
X-46124D02*
D03*
X-45324D02*
D03*
X-44524D02*
D03*
X-43724D02*
D03*
D113*
X-54300Y-29375D02*
D03*
X-54950D02*
D03*
X-55600D02*
D03*
X-56250D02*
D03*
X-54300Y-25125D02*
D03*
X-54950D02*
D03*
X-55600D02*
D03*
X-56250D02*
D03*
D114*
X-49900Y-15975D02*
D03*
Y-16625D02*
D03*
Y-17275D02*
D03*
Y-17925D02*
D03*
X-54150Y-15975D02*
D03*
Y-16625D02*
D03*
Y-17275D02*
D03*
Y-17925D02*
D03*
D212*
X-26725Y-7750D02*
D03*
D213*
X-25675Y-8400D02*
D03*
Y-7750D02*
D03*
Y-7100D02*
D03*
X-27775D02*
D03*
Y-7750D02*
D03*
Y-8400D02*
D03*
D214*
X-26150Y-3100D02*
D03*
Y-4350D02*
D03*
X-25650Y-3100D02*
D03*
X-26650D02*
D03*
Y-4350D02*
D03*
D215*
X-25650Y-4300D02*
D03*
M02*
