<?xml version="1.0" encoding="utf-8"?>
<!-- Generator: Adobe Illustrator 16.0.0, SVG Export Plug-In . SVG Version: 6.00 Build 0)  -->
<!DOCTYPE svg PUBLIC "-//W3C//DTD SVG 1.1//EN" "http://www.w3.org/Graphics/SVG/1.1/DTD/svg11.dtd">
<svg version="1.1" id="Logo" xmlns="http://www.w3.org/2000/svg" xmlns:xlink="http://www.w3.org/1999/xlink" x="0px" y="0px"
	 width="566.93px" height="566.93px" viewBox="0 0 566.93 566.93" enable-background="new 0 0 566.93 566.93" xml:space="preserve">
<path id="PO16" fill="#231F20" d="M150.479,223.214c-3.12-7.15-3.641-17.16-3.641-29.251s0.521-22.101,3.641-29.251
	c4.42-10.011,13.91-17.551,27.041-17.551c17.42,0,28.341,11.57,28.341,26.521c0,1.43-1.17,2.6-2.601,2.6h-3.51
	c-1.43,0-2.601-1.17-2.601-2.6c0-10.4-7.149-18.201-19.63-18.201c-7.801,0-15.341,4.03-18.981,12.74
	c-2.47,5.98-2.859,16.121-2.859,25.741s0.39,19.761,2.859,25.741c3.641,8.71,11.181,12.74,18.981,12.74
	c12.48,0,19.63-7.54,19.63-20.931v-12.091c0-0.779-0.52-1.3-1.3-1.3h-15.471c-1.43,0-2.6-1.17-2.6-2.6v-3.12
	c0-1.431,1.17-2.601,2.6-2.601h22.881c1.431,0,2.601,1.17,2.601,2.601v19.11c0,18.2-10.921,29.251-28.341,29.251
	C164.389,240.765,154.898,233.225,150.479,223.214z M224.057,236.865v-85.803c0-1.431,1.17-2.601,2.6-2.601h22.101
	c15.081,0,27.302,10.921,27.302,27.302c0,11.7-6.37,21.061-15.471,24.7c-0.65,0.261-1.69,0.78-1.69,1.69c0,0.78,0.26,1.43,0.65,2.21
	l16.381,30.682c0.26,0.52,0.52,1.04,0.52,1.819c0,1.431-1.17,2.601-2.6,2.601h-3.121c-2.08,0-2.989-1.04-3.77-2.601l-16.641-32.241
	c-0.391-0.779-1.04-1.56-2.471-1.56h-14.17c-0.78,0-1.3,0.52-1.3,1.3v32.501c0,1.431-1.171,2.601-2.601,2.601h-3.12
	C225.227,239.465,224.057,238.295,224.057,236.865z M267.478,175.763c0-11.701-8.45-18.981-18.721-18.981h-15.08
	c-0.78,0-1.3,0.521-1.3,1.301v35.361c0,0.779,0.52,1.3,1.3,1.3h15.08C259.027,194.744,267.478,186.164,267.478,175.763z
	 M313.755,156.262h-17.551c-1.43,0-2.6-1.17-2.6-2.601v-2.6c0-1.431,1.17-2.601,2.6-2.601h46.152c1.43,0,2.6,1.17,2.6,2.601v2.6
	c0,1.431-1.17,2.601-2.6,2.601h-17.551c-0.78,0-1.301,0.52-1.301,1.3v72.673c0,0.78,0.521,1.3,1.301,1.3h18.851
	c1.43,0,2.6,1.17,2.6,2.601v2.729c0,1.431-1.17,2.601-2.6,2.601h-48.752c-1.43,0-2.601-1.17-2.601-2.601v-2.729
	c0-1.431,1.171-2.601,2.601-2.601h18.851c0.78,0,1.3-0.52,1.3-1.3v-72.673C315.055,156.782,314.535,156.262,313.755,156.262z
	 M364.063,236.865v-85.803c0-1.431,1.17-2.601,2.6-2.601h23.401c12.87,0,21.971,7.021,26.391,16.251
	c3.38,7.021,3.641,17.16,3.641,29.251s-0.391,22.23-3.641,29.251c-4.29,9.23-13.521,16.251-26.391,16.251h-23.401
	C365.232,239.465,364.063,238.295,364.063,236.865z M408.394,219.705c2.471-5.98,2.86-16.121,2.86-25.741s-0.26-19.761-2.86-25.741
	c-3.51-7.93-10.79-11.44-18.33-11.44h-16.381c-0.78,0-1.3,0.521-1.3,1.301v71.763c0,0.779,0.52,1.3,1.3,1.3h16.381
	C397.604,231.145,405.144,227.634,408.394,219.705z M462.464,466.469H104.466c-2.209,0-4-1.791-4-4V104.461c0-2.209,1.791-4,4-4
	h357.998c2.209,0,4,1.791,4,4v358.008C466.464,464.678,464.673,466.469,462.464,466.469z M108.466,458.469h349.998V108.461H108.466
	V458.469z M424.727,283.465c0-2.209-1.791-4-4-4H146.203c-2.209,0-4,1.791-4,4s1.791,4,4,4h274.523
	C422.936,287.465,424.727,285.674,424.727,283.465z M153.988,415.868v-85.803c0-1.43,1.17-2.6,2.6-2.6h22.102
	c15.08,0,27.301,12.221,27.301,27.301s-12.221,27.301-27.301,27.301h-15.081c-0.78,0-1.3,0.52-1.3,1.301v32.5
	c0,1.432-1.17,2.602-2.6,2.602h-3.121C155.158,418.469,153.988,417.299,153.988,415.868z M197.41,354.766
	c0-10.4-8.45-18.98-18.721-18.98h-15.081c-0.78,0-1.3,0.52-1.3,1.301v35.361c0,0.779,0.52,1.299,1.3,1.299h15.081
	C188.96,373.747,197.41,365.167,197.41,354.766z M221.326,402.217c-2.99-7.15-3.641-17.16-3.641-29.25
	c0-12.092,0.65-22.102,3.641-29.252c4.29-10.01,13.521-17.551,26.391-17.551c12.871,0,22.102,7.541,26.392,17.551
	c2.99,7.15,3.64,17.16,3.64,29.252c0,12.09-0.649,22.1-3.64,29.25c-4.29,10.012-13.521,17.551-26.392,17.551
	C234.847,419.768,225.616,412.229,221.326,402.217z M266.048,398.708c2.34-5.98,2.86-16.121,2.86-25.74
	c0-9.621-0.521-19.762-2.86-25.742c-3.51-8.709-10.79-12.74-18.331-12.74c-7.54,0-14.82,4.031-18.33,12.74
	c-2.34,5.98-2.86,16.121-2.86,25.742c0,9.619,0.521,19.76,2.86,25.74c3.51,8.711,10.79,12.74,18.33,12.74
	C255.258,411.448,262.538,407.418,266.048,398.708z M296.984,415.868v-2.729c0-1.432,1.17-2.602,2.6-2.602h19.501
	c0.78,0,1.3-0.52,1.3-1.299v-69.164c0-0.779-0.779-0.908-1.17-0.52l-22.62,21.191c-1.171,1.039-2.86,0.391-2.86-1.041v-3.25
	c0-2.209,0.13-2.99,1.17-4.029l24.311-23.791c0.65-0.65,1.69-1.17,2.601-1.17h3.771c1.43,0,2.6,1.17,2.6,2.6v79.174
	c0,0.779,0.52,1.299,1.3,1.299h15.73c1.431,0,2.601,1.17,2.601,2.602v2.729c0,1.432-1.17,2.602-2.601,2.602h-45.632
	C298.154,418.469,296.984,417.299,296.984,415.868z M367.313,401.307c-2.34-7.279-3.25-15.209-3.25-28.34
	c0-13.391,1.04-21.061,3.9-29.771c3.38-10.4,13.65-17.031,24.961-17.031c14.82,0,24.83,10.141,24.83,25.092c0,1.43-1.17,2.6-2.6,2.6
	h-2.86c-1.3,0-2.47-1.17-2.6-2.6c-1.04-11.57-6.631-17.291-16.771-17.291c-8.581,0-14.431,4.291-17.421,12.611
	c-1.82,5.07-2.471,11.439-2.471,18.85c0,1.17,1.171,1.689,2.08,0.91c5.2-4.42,11.311-6.631,18.201-6.631
	c14.69,0,25.221,12.48,25.221,29.902c0,18.33-10.4,30.16-26.521,30.16C380.183,419.768,371.082,412.877,367.313,401.307z
	 M410.084,389.608c0-13.131-7.28-21.842-18.07-21.842c-10.791,0-18.071,8.711-18.071,21.842c0,13,7.41,22.1,18.071,22.1
	C402.544,411.708,410.084,402.477,410.084,389.608z"/>
</svg>
