<?xml version="1.0" encoding="utf-8"?>
<!-- Generator: Adobe Illustrator 16.0.0, SVG Export Plug-In . SVG Version: 6.00 Build 0)  -->
<!DOCTYPE svg PUBLIC "-//W3C//DTD SVG 1.1//EN" "http://www.w3.org/Graphics/SVG/1.1/DTD/svg11.dtd">
<svg version="1.1" id="Logo" xmlns="http://www.w3.org/2000/svg" xmlns:xlink="http://www.w3.org/1999/xlink" x="0px" y="0px"
	 width="566.93px" height="566.93px" viewBox="0 0 566.93 566.93" enable-background="new 0 0 566.93 566.93" xml:space="preserve">
<path id="BU16" fill="#231F20" d="M150.479,223.214c-3.12-7.15-3.641-17.16-3.641-29.251c0-12.09,0.521-22.101,3.641-29.251
	c4.42-10.01,13.91-17.551,27.041-17.551c17.42,0,28.341,11.57,28.341,26.521c0,1.43-1.17,2.6-2.601,2.6h-3.51
	c-1.43,0-2.601-1.17-2.601-2.6c0-10.4-7.149-18.201-19.63-18.201c-7.801,0-15.341,4.03-18.981,12.74
	c-2.47,5.98-2.859,16.121-2.859,25.741s0.39,19.761,2.859,25.741c3.641,8.71,11.181,12.74,18.981,12.74
	c12.48,0,19.63-7.54,19.63-20.931v-12.091c0-0.779-0.52-1.3-1.3-1.3h-15.471c-1.43,0-2.6-1.17-2.6-2.6v-3.12
	c0-1.431,1.17-2.601,2.6-2.601h22.881c1.431,0,2.601,1.17,2.601,2.601v19.11c0,18.201-10.921,29.251-28.341,29.251
	C164.389,240.765,154.898,233.225,150.479,223.214z M224.057,236.864v-85.803c0-1.43,1.17-2.6,2.6-2.6h22.101
	c15.081,0,27.302,10.92,27.302,27.301c0,11.7-6.37,21.061-15.471,24.701c-0.65,0.26-1.69,0.779-1.69,1.689
	c0,0.78,0.26,1.43,0.65,2.21l16.381,30.682c0.26,0.52,0.52,1.04,0.52,1.819c0,1.431-1.17,2.601-2.6,2.601h-3.121
	c-2.08,0-2.989-1.04-3.77-2.601l-16.641-32.24c-0.391-0.78-1.04-1.561-2.471-1.561h-14.17c-0.78,0-1.3,0.52-1.3,1.3v32.501
	c0,1.431-1.171,2.601-2.601,2.601h-3.12C225.227,239.465,224.057,238.295,224.057,236.864z M267.478,175.763
	c0-11.701-8.45-18.98-18.721-18.98h-15.08c-0.78,0-1.3,0.52-1.3,1.3v35.361c0,0.78,0.52,1.3,1.3,1.3h15.08
	C259.027,194.743,267.478,186.163,267.478,175.763z M313.755,156.262h-17.551c-1.43,0-2.6-1.17-2.6-2.601v-2.6
	c0-1.43,1.17-2.6,2.6-2.6h46.152c1.43,0,2.6,1.17,2.6,2.6v2.6c0,1.431-1.17,2.601-2.6,2.601h-17.551c-0.78,0-1.301,0.521-1.301,1.3
	v72.673c0,0.78,0.521,1.3,1.301,1.3h18.851c1.43,0,2.6,1.17,2.6,2.601v2.729c0,1.431-1.17,2.601-2.6,2.601h-48.752
	c-1.43,0-2.601-1.17-2.601-2.601v-2.729c0-1.431,1.171-2.601,2.601-2.601h18.851c0.78,0,1.3-0.52,1.3-1.3v-72.673
	C315.055,156.782,314.535,156.262,313.755,156.262z M364.063,236.864v-85.803c0-1.43,1.17-2.6,2.6-2.6h23.401
	c12.87,0,21.971,7.02,26.391,16.25c3.38,7.021,3.641,17.161,3.641,29.251c0,12.091-0.391,22.231-3.641,29.251
	c-4.29,9.23-13.521,16.251-26.391,16.251h-23.401C365.232,239.465,364.063,238.295,364.063,236.864z M408.394,219.704
	c2.471-5.98,2.86-16.121,2.86-25.741s-0.26-19.761-2.86-25.741c-3.51-7.93-10.79-11.439-18.33-11.439h-16.381
	c-0.78,0-1.3,0.52-1.3,1.3v71.763c0,0.779,0.52,1.3,1.3,1.3h16.381C397.604,231.145,405.144,227.635,408.394,219.704z
	 M462.464,466.469H104.466c-2.209,0-4-1.791-4-4V104.461c0-2.209,1.791-4,4-4h357.998c2.209,0,4,1.791,4,4v358.008
	C466.464,464.678,464.673,466.469,462.464,466.469z M108.466,458.469h349.998V108.461H108.466V458.469z M424.727,283.465
	c0-2.209-1.791-4-4-4H146.203c-2.209,0-4,1.791-4,4c0,2.209,1.791,4,4,4h274.523C422.936,287.465,424.727,285.674,424.727,283.465z
	 M152.818,415.868v-85.803c0-1.43,1.17-2.6,2.6-2.6H179.6c13.26,0,24.051,10.141,24.051,24.182c0,5.979-2.471,13.26-7.41,17.551
	c-1.04,0.908-1.04,2.08,0,2.859c5.46,4.16,9.23,12.48,9.23,19.891c0,15.08-11.701,26.521-25.871,26.521h-24.182
	C153.988,418.469,152.818,417.299,152.818,415.868z M195.2,351.385c0-8.58-6.631-15.6-15.081-15.6h-17.94
	c-0.78,0-1.3,0.52-1.3,1.301v28.471c0,0.779,0.52,1.299,1.3,1.299h17.94C188.569,366.856,195.2,359.967,195.2,351.385z
	 M197.15,392.338c0-9.881-7.801-17.811-17.551-17.811h-17.421c-0.78,0-1.3,0.52-1.3,1.299v33.021c0,0.779,0.52,1.301,1.3,1.301
	H179.6C189.35,410.149,197.15,402.217,197.15,392.338z M219.766,391.817v-61.752c0-1.43,1.171-2.6,2.601-2.6h3.12
	c1.43,0,2.6,1.17,2.6,2.6v61.752c0,10.4,8.581,19.631,19.631,19.631c11.051,0,19.631-9.23,19.631-19.631v-61.752
	c0-1.43,1.17-2.6,2.601-2.6h3.12c1.43,0,2.6,1.17,2.6,2.6v61.752c0,15.471-12.48,27.951-27.951,27.951
	S219.766,407.288,219.766,391.817z M296.984,415.868v-2.729c0-1.432,1.17-2.602,2.6-2.602h19.501c0.78,0,1.3-0.52,1.3-1.299v-69.162
	c0-0.781-0.779-0.91-1.17-0.521l-22.62,21.191c-1.171,1.039-2.86,0.391-2.86-1.041v-3.25c0-2.209,0.13-2.99,1.17-4.029
	l24.311-23.791c0.65-0.65,1.69-1.17,2.601-1.17h3.771c1.43,0,2.6,1.17,2.6,2.6v79.174c0,0.779,0.52,1.299,1.3,1.299h15.73
	c1.431,0,2.601,1.17,2.601,2.602v2.729c0,1.432-1.17,2.602-2.601,2.602h-45.632C298.154,418.469,296.984,417.299,296.984,415.868z
	 M367.313,401.307c-2.34-7.279-3.25-15.209-3.25-28.34c0-13.391,1.04-21.061,3.9-29.771c3.38-10.4,13.65-17.031,24.961-17.031
	c14.82,0,24.83,10.141,24.83,25.092c0,1.43-1.17,2.6-2.6,2.6h-2.86c-1.3,0-2.47-1.17-2.6-2.6
	c-1.04-11.57-6.631-17.291-16.771-17.291c-8.581,0-14.431,4.291-17.421,12.611c-1.82,5.07-2.471,11.439-2.471,18.85
	c0,1.17,1.171,1.691,2.08,0.91c5.2-4.42,11.311-6.631,18.201-6.631c14.69,0,25.221,12.48,25.221,29.902
	c0,18.33-10.4,30.16-26.521,30.16C380.183,419.768,371.082,412.879,367.313,401.307z M410.084,389.608
	c0-13.131-7.28-21.842-18.07-21.842c-10.791,0-18.071,8.711-18.071,21.842c0,13,7.41,22.1,18.071,22.1
	C402.544,411.708,410.084,402.479,410.084,389.608z"/>
</svg>
