DBRep_DrawableShape

CASCADE Topology V3, (c) Open Cascade
Locations 270
1
              1               0               0               0 
              0               1               0               0 
              0               0               1               0 
1
              1               0               0               0 
              0 -2.22044604925031e-16              -1               0 
              0               1 -2.22044604925031e-16               0 
1
              1               0               0 5.52540801899309e-21 
              0               1               0 24.8842254978832 
              0               0               1 5.52540801954287e-15 
1
              1               0               0 1.10508160379862e-20 
              0               1               0 49.7684509957665 
              0               0               1 1.10508160390857e-14 
2  1 1 2 1 3 1 4 1 0
1
              1               0               0 -2.21016320759724e-20 
              0               1               0 -99.5369019915329 
              0               0               1 -2.21016320781715e-14 
2  1 1 2 1 3 1 4 1 6 1 0
1
              1               0               0 -24.8842254978708 
              0               1               0               0 
              0               0               1 2.48842254953948e-05 
2  8 -1 0
1
              1               0               0               0 
              0               1               0 49.9907285487609 
              0               0               1         1.1e-14 
1
              1               0               0               0 
              0               1               0 24.9953642743805 
              0               0               1           6e-15 
1
              1               0               0               0 
              0              -0              -1               0 
              0               1              -0               0 
1
              1               0               0               0 
              0               1               0               0 
              0               0               1               0 
2  10 -1 11 -1 12 -1 13 -1 0
1
              1               0               0              -0 
              0               1               0 -99.9814570975219 
              0               0               1        -2.2e-14 
2  15 -1 10 -1 11 -1 12 -1 13 -1 0
1
              1               0               0               0 
              0               1               0 49.9907285487609 
              0               0               1         1.1e-14 
1
              1               0               0               0 
              0               1               0 24.9953642743805 
              0               0               1           6e-15 
1
              1               0               0               0 
              0              -0              -1               0 
              0               1              -0               0 
1
              1               0               0               0 
              0               1               0               0 
              0               0               1               0 
2  17 -1 18 -1 19 -1 20 -1 0
1
              1               0               0              -0 
              0               1               0 -99.9814570975219 
              0               0               1        -2.2e-14 
2  22 -1 17 -1 18 -1 19 -1 20 -1 0
1
              1               0               0               0 
              0               1               0 49.9907285487609 
              0               0               1         1.1e-14 
1
              1               0               0               0 
              0               1               0 24.9953642743805 
              0               0               1           6e-15 
1
              1               0               0               0 
              0              -0              -1               0 
              0               1              -0               0 
1
              1               0               0               0 
              0               1               0               0 
              0               0               1               0 
2  24 -1 25 -1 26 -1 27 -1 0
1
              1               0               0              -0 
              0               1               0 -99.9814570975219 
              0               0               1        -2.2e-14 
2  29 -1 24 -1 25 -1 26 -1 27 -1 0
1
              1               0               0               0 
              0               1               0 49.9907285487609 
              0               0               1         1.1e-14 
1
              1               0               0               0 
              0               1               0 24.9953642743805 
              0               0               1           6e-15 
1
              1               0               0               0 
              0              -0              -1               0 
              0               1              -0               0 
1
              1               0               0               0 
              0               1               0               0 
              0               0               1               0 
2  31 -1 32 -1 33 -1 34 -1 0
1
              1               0               0              -0 
              0               1               0 -99.9814570975219 
              0               0               1        -2.2e-14 
2  36 -1 31 -1 32 -1 33 -1 34 -1 0
1
              1               0               0               0 
              0               1               0 49.9907285487609 
              0               0               1         1.1e-14 
1
              1               0               0               0 
              0               1               0 24.9953642743805 
              0               0               1           6e-15 
1
              1               0               0               0 
              0              -0              -1               0 
              0               1              -0               0 
1
              1               0               0               0 
              0               1               0               0 
              0               0               1               0 
2  38 -1 39 -1 40 -1 41 -1 0
1
              1               0               0              -0 
              0               1               0 -99.9814570975219 
              0               0               1        -2.2e-14 
2  43 -1 38 -1 39 -1 40 -1 41 -1 0
1
              1               0               0               0 
              0               1               0 49.9907285487609 
              0               0               1         1.1e-14 
1
              1               0               0               0 
              0               1               0 24.9953642743805 
              0               0               1           6e-15 
1
              1               0               0               0 
              0              -0              -1               0 
              0               1              -0               0 
1
              1               0               0               0 
              0               1               0               0 
              0               0               1               0 
2  45 -1 46 -1 47 -1 48 -1 0
1
              1               0               0              -0 
              0               1               0 -99.9814570975219 
              0               0               1        -2.2e-14 
2  50 -1 45 -1 46 -1 47 -1 48 -1 0
1
              1               0               0               0 
              0               1               0 49.9907285487609 
              0               0               1         1.1e-14 
1
              1               0               0               0 
              0               1               0 24.9953642743805 
              0               0               1           6e-15 
1
              1               0               0               0 
              0              -0              -1               0 
              0               1              -0               0 
1
              1               0               0               0 
              0               1               0               0 
              0               0               1               0 
2  52 -1 53 -1 54 -1 55 -1 0
1
              1               0               0              -0 
              0               1               0 -99.9814570975219 
              0               0               1        -2.2e-14 
2  57 -1 52 -1 53 -1 54 -1 55 -1 0
1
              1               0               0               0 
              0               1               0 49.9907285487609 
              0               0               1         1.1e-14 
1
              1               0               0               0 
              0               1               0 24.9953642743805 
              0               0               1           6e-15 
1
              1               0               0               0 
              0              -0              -1               0 
              0               1              -0               0 
1
              1               0               0               0 
              0               1               0               0 
              0               0               1               0 
2  59 -1 60 -1 61 -1 62 -1 0
1
              1               0               0              -0 
              0               1               0 -99.9814570975219 
              0               0               1        -2.2e-14 
2  64 -1 59 -1 60 -1 61 -1 62 -1 0
1
              1               0               0               0 
              0               1               0 49.9907285487609 
              0               0               1         1.1e-14 
1
              1               0               0               0 
              0               1               0 24.9953642743805 
              0               0               1           6e-15 
1
              1               0               0               0 
              0              -0              -1               0 
              0               1              -0               0 
1
              1               0               0               0 
              0               1               0               0 
              0               0               1               0 
2  66 -1 67 -1 68 -1 69 -1 0
1
              1               0               0              -0 
              0               1               0 -99.9814570975219 
              0               0               1        -2.2e-14 
2  71 -1 66 -1 67 -1 68 -1 69 -1 0
1
              1               0               0               0 
              0               1               0 49.9907285487609 
              0               0               1         1.1e-14 
1
              1               0               0               0 
              0               1               0 24.9953642743805 
              0               0               1           6e-15 
1
              1               0               0               0 
              0              -0              -1               0 
              0               1              -0               0 
1
              1               0               0               0 
              0               1               0               0 
              0               0               1               0 
2  73 -1 74 -1 75 -1 76 -1 0
1
              1               0               0              -0 
              0               1               0 -99.9814570975219 
              0               0               1        -2.2e-14 
2  78 -1 73 -1 74 -1 75 -1 76 -1 0
1
              1               0               0               0 
              0               1               0 49.9907285487609 
              0               0               1         1.1e-14 
1
              1               0               0               0 
              0               1               0 24.9953642743805 
              0               0               1           6e-15 
1
              1               0               0               0 
              0              -0              -1               0 
              0               1              -0               0 
1
              1               0               0               0 
              0               1               0               0 
              0               0               1               0 
2  80 -1 81 -1 82 -1 83 -1 0
1
              1               0               0              -0 
              0               1               0 -99.9814570975219 
              0               0               1        -2.2e-14 
2  85 -1 80 -1 81 -1 82 -1 83 -1 0
1
              1               0               0               0 
              0               1               0 49.9907285487609 
              0               0               1         1.1e-14 
1
              1               0               0               0 
              0               1               0 24.9953642743805 
              0               0               1           6e-15 
1
              1               0               0               0 
              0              -0              -1               0 
              0               1              -0               0 
1
              1               0               0               0 
              0               1               0               0 
              0               0               1               0 
2  87 -1 88 -1 89 -1 90 -1 0
1
              1               0               0              -0 
              0               1               0 -99.9814570975219 
              0               0               1        -2.2e-14 
2  92 -1 87 -1 88 -1 89 -1 90 -1 0
1
              1               0               0               0 
              0               1               0 49.9907285487609 
              0               0               1         1.1e-14 
1
              1               0               0               0 
              0               1               0 24.9953642743805 
              0               0               1           6e-15 
1
              1               0               0               0 
              0              -0              -1               0 
              0               1              -0               0 
1
              1               0               0               0 
              0               1               0               0 
              0               0               1               0 
2  94 -1 95 -1 96 -1 97 -1 0
1
              1               0               0              -0 
              0               1               0 -99.9814570975219 
              0               0               1        -2.2e-14 
2  99 -1 94 -1 95 -1 96 -1 97 -1 0
1
              1               0               0               0 
              0               1               0 49.9907285487609 
              0               0               1         1.1e-14 
1
              1               0               0               0 
              0               1               0 24.9953642743805 
              0               0               1           6e-15 
1
              1               0               0               0 
              0              -0              -1               0 
              0               1              -0               0 
1
              1               0               0               0 
              0               1               0               0 
              0               0               1               0 
2  101 -1 102 -1 103 -1 104 -1 0
1
              1               0               0              -0 
              0               1               0 -99.9814570975219 
              0               0               1        -2.2e-14 
2  106 -1 101 -1 102 -1 103 -1 104 -1 0
1
              1               0               0               0 
              0               1               0 49.9907285487609 
              0               0               1         1.1e-14 
1
              1               0               0               0 
              0               1               0 24.9953642743805 
              0               0               1           6e-15 
1
              1               0               0               0 
              0              -0              -1               0 
              0               1              -0               0 
1
              1               0               0               0 
              0               1               0               0 
              0               0               1               0 
2  108 -1 109 -1 110 -1 111 -1 0
1
              1               0               0              -0 
              0               1               0 -99.9814570975219 
              0               0               1        -2.2e-14 
2  113 -1 108 -1 109 -1 110 -1 111 -1 0
1
              1               0               0               0 
              0               1               0 49.9907285487609 
              0               0               1         1.1e-14 
1
              1               0               0               0 
              0               1               0 24.9953642743805 
              0               0               1           6e-15 
1
              1               0               0               0 
              0              -0              -1               0 
              0               1              -0               0 
1
              1               0               0               0 
              0               1               0               0 
              0               0               1               0 
2  115 -1 116 -1 117 -1 118 -1 0
1
              1               0               0              -0 
              0               1               0 -99.9814570975219 
              0               0               1        -2.2e-14 
2  120 -1 115 -1 116 -1 117 -1 118 -1 0
1
              1               0               0               0 
              0               1               0 49.9907285487609 
              0               0               1         1.1e-14 
1
              1               0               0               0 
              0               1               0 24.9953642743805 
              0               0               1           6e-15 
1
              1               0               0               0 
              0              -0              -1               0 
              0               1              -0               0 
1
              1               0               0               0 
              0               1               0               0 
              0               0               1               0 
2  122 -1 123 -1 124 -1 125 -1 0
1
              1               0               0              -0 
              0               1               0 -99.9814570975219 
              0               0               1        -2.2e-14 
2  127 -1 122 -1 123 -1 124 -1 125 -1 0
1
              1               0               0               0 
              0               1               0 49.9907285487609 
              0               0               1         1.1e-14 
1
              1               0               0               0 
              0               1               0 24.9953642743805 
              0               0               1           6e-15 
1
              1               0               0               0 
              0              -0              -1               0 
              0               1              -0               0 
1
              1               0               0               0 
              0               1               0               0 
              0               0               1               0 
2  129 -1 130 -1 131 -1 132 -1 0
1
              1               0               0              -0 
              0               1               0 -99.9814570975219 
              0               0               1        -2.2e-14 
2  134 -1 129 -1 130 -1 131 -1 132 -1 0
1
              1               0               0               0 
              0               1               0 49.9907285487609 
              0               0               1         1.1e-14 
1
              1               0               0               0 
              0               1               0 24.9953642743805 
              0               0               1           6e-15 
1
              1               0               0               0 
              0              -0              -1               0 
              0               1              -0               0 
1
              1               0               0               0 
              0               1               0               0 
              0               0               1               0 
2  136 -1 137 -1 138 -1 139 -1 0
1
              1               0               0              -0 
              0               1               0 -99.9814570975219 
              0               0               1        -2.2e-14 
2  141 -1 136 -1 137 -1 138 -1 139 -1 0
1
              1               0               0               0 
              0               1               0 49.9907285487609 
              0               0               1         1.1e-14 
1
              1               0               0               0 
              0               1               0 24.9953642743805 
              0               0               1           6e-15 
1
              1               0               0               0 
              0              -0              -1               0 
              0               1              -0               0 
1
              1               0               0               0 
              0               1               0               0 
              0               0               1               0 
2  143 -1 144 -1 145 -1 146 -1 0
1
              1               0               0              -0 
              0               1               0 -99.9814570975219 
              0               0               1        -2.2e-14 
2  148 -1 143 -1 144 -1 145 -1 146 -1 0
1
              1               0               0               0 
              0               1               0 49.9907285487609 
              0               0               1         1.1e-14 
1
              1               0               0               0 
              0               1               0 24.9953642743805 
              0               0               1           6e-15 
1
              1               0               0               0 
              0              -0              -1               0 
              0               1              -0               0 
1
              1               0               0               0 
              0               1               0               0 
              0               0               1               0 
2  150 -1 151 -1 152 -1 153 -1 0
1
              1               0               0              -0 
              0               1               0 -99.9814570975219 
              0               0               1        -2.2e-14 
2  155 -1 150 -1 151 -1 152 -1 153 -1 0
1
              1               0               0               0 
              0               1               0 49.9907285487609 
              0               0               1         1.1e-14 
1
              1               0               0               0 
              0               1               0 24.9953642743805 
              0               0               1           6e-15 
1
              1               0               0               0 
              0              -0              -1               0 
              0               1              -0               0 
1
              1               0               0               0 
              0               1               0               0 
              0               0               1               0 
2  157 -1 158 -1 159 -1 160 -1 0
1
              1               0               0              -0 
              0               1               0 -99.9814570975219 
              0               0               1        -2.2e-14 
2  162 -1 157 -1 158 -1 159 -1 160 -1 0
1
              1               0               0               0 
              0               1               0 49.9907285487609 
              0               0               1         1.1e-14 
1
              1               0               0               0 
              0               1               0 24.9953642743805 
              0               0               1           6e-15 
1
              1               0               0               0 
              0              -0              -1               0 
              0               1              -0               0 
1
              1               0               0               0 
              0               1               0               0 
              0               0               1               0 
2  164 -1 165 -1 166 -1 167 -1 0
1
              1               0               0              -0 
              0               1               0 -99.9814570975219 
              0               0               1        -2.2e-14 
2  169 -1 164 -1 165 -1 166 -1 167 -1 0
1
              1               0               0               0 
              0               1               0 50.1553422662735 
              0               0               1         1.1e-14 
1
              1               0               0               0 
              0               1               0 25.0776711331368 
              0               0               1           6e-15 
1
              1               0               0               0 
              0              -0              -1               0 
              0               1              -0               0 
1
              1               0               0               0 
              0               1               0               0 
              0               0               1               0 
2  171 -1 172 -1 173 -1 174 -1 0
1
              1               0               0              -0 
              0               1               0 -100.310684532547 
              0               0               1        -2.2e-14 
2  176 -1 171 -1 172 -1 173 -1 174 -1 0
1
              1               0               0               0 
              0               1               0 50.1553422662735 
              0               0               1         1.1e-14 
1
              1               0               0               0 
              0               1               0 25.0776711331368 
              0               0               1           6e-15 
1
              1               0               0               0 
              0              -0              -1               0 
              0               1              -0               0 
1
              1               0               0               0 
              0               1               0               0 
              0               0               1               0 
2  178 -1 179 -1 180 -1 181 -1 0
1
              1               0               0              -0 
              0               1               0 -100.310684532547 
              0               0               1        -2.2e-14 
2  183 -1 178 -1 179 -1 180 -1 181 -1 0
1
              1               0               0               0 
              0               1               0 49.9907285487609 
              0               0               1         1.1e-14 
1
              1               0               0               0 
              0               1               0 24.9953642743805 
              0               0               1           6e-15 
1
              1               0               0               0 
              0              -0              -1               0 
              0               1              -0               0 
1
              1               0               0               0 
              0               1               0               0 
              0               0               1               0 
2  185 -1 186 -1 187 -1 188 -1 0
1
              1               0               0              -0 
              0               1               0 -99.9814570975219 
              0               0               1        -2.2e-14 
2  190 -1 185 -1 186 -1 187 -1 188 -1 0
1
              1               0               0               0 
              0               1               0 49.9907285487609 
              0               0               1         1.1e-14 
1
              1               0               0               0 
              0               1               0 24.9953642743805 
              0               0               1           6e-15 
1
              1               0               0               0 
              0              -0              -1               0 
              0               1              -0               0 
1
              1               0               0               0 
              0               1               0               0 
              0               0               1               0 
2  192 -1 193 -1 194 -1 195 -1 0
1
              1               0               0              -0 
              0               1               0 -99.9814570975219 
              0               0               1        -2.2e-14 
2  197 -1 192 -1 193 -1 194 -1 195 -1 0
1
              1               0               0               0 
              0               1               0 49.9907285487609 
              0               0               1         1.1e-14 
1
              1               0               0               0 
              0               1               0 24.9953642743805 
              0               0               1           6e-15 
1
              1               0               0               0 
              0              -0              -1               0 
              0               1              -0               0 
1
              1               0               0               0 
              0               1               0               0 
              0               0               1               0 
2  199 -1 200 -1 201 -1 202 -1 0
1
              1               0               0              -0 
              0               1               0 -99.9814570975219 
              0               0               1        -2.2e-14 
2  204 -1 199 -1 200 -1 201 -1 202 -1 0
1
              1               0               0               0 
              0               1               0 49.9907285487609 
              0               0               1         1.1e-14 
1
              1               0               0               0 
              0               1               0 24.9953642743805 
              0               0               1           6e-15 
1
              1               0               0               0 
              0              -0              -1               0 
              0               1              -0               0 
1
              1               0               0               0 
              0               1               0               0 
              0               0               1               0 
2  206 -1 207 -1 208 -1 209 -1 0
1
              1               0               0              -0 
              0               1               0 -99.9814570975219 
              0               0               1        -2.2e-14 
2  211 -1 206 -1 207 -1 208 -1 209 -1 0
1
              1               0               0               0 
              0               1               0 49.9907285487609 
              0               0               1         1.1e-14 
1
              1               0               0               0 
              0               1               0 24.9953642743805 
              0               0               1           6e-15 
1
              1               0               0               0 
              0              -0              -1               0 
              0               1              -0               0 
1
              1               0               0               0 
              0               1               0               0 
              0               0               1               0 
2  213 -1 214 -1 215 -1 216 -1 0
1
              1               0               0              -0 
              0               1               0 -99.9814570975219 
              0               0               1        -2.2e-14 
2  218 -1 213 -1 214 -1 215 -1 216 -1 0
1
              1               0               0               0 
              0               1               0 49.9907285487609 
              0               0               1         1.1e-14 
1
              1               0               0               0 
              0               1               0 24.9953642743805 
              0               0               1           6e-15 
1
              1               0               0               0 
              0              -0              -1               0 
              0               1              -0               0 
1
              1               0               0               0 
              0               1               0               0 
              0               0               1               0 
2  220 -1 221 -1 222 -1 223 -1 0
1
              1               0               0              -0 
              0               1               0 -99.9814570975219 
              0               0               1        -2.2e-14 
2  225 -1 220 -1 221 -1 222 -1 223 -1 0
1
              1               0               0               0 
              0               1               0 65.8880854391396 
              0               0               1         1.5e-14 
1
              1               0               0               0 
              0               1               0 32.9440427195698 
              0               0               1           7e-15 
1
              1               0               0               0 
              0              -0              -1               0 
              0               1              -0               0 
1
              1               0               0               0 
              0               1               0               0 
              0               0               1               0 
2  227 -1 228 -1 229 -1 230 -1 0
1
              1               0               0              -0 
              0               1               0 -131.776170878279 
              0               0               1        -2.9e-14 
2  232 -1 227 -1 228 -1 229 -1 230 -1 0
1
              1               0               0               0 
              0               1               0 65.8880854391396 
              0               0               1         1.5e-14 
1
              1               0               0               0 
              0               1               0 32.9440427195698 
              0               0               1           7e-15 
1
              1               0               0               0 
              0              -0              -1               0 
              0               1              -0               0 
1
              1               0               0               0 
              0               1               0               0 
              0               0               1               0 
2  234 -1 235 -1 236 -1 237 -1 0
1
              1               0               0              -0 
              0               1               0 -131.776170878279 
              0               0               1        -2.9e-14 
2  239 -1 234 -1 235 -1 236 -1 237 -1 0
1
              1               0               0               0 
              0               1               0 49.9907285487609 
              0               0               1         1.1e-14 
1
              1               0               0               0 
              0               1               0 24.9953642743805 
              0               0               1           6e-15 
1
              1               0               0               0 
              0              -0              -1               0 
              0               1              -0               0 
1
              1               0               0               0 
              0               1               0               0 
              0               0               1               0 
2  241 -1 242 -1 243 -1 244 -1 0
1
              1               0               0              -0 
              0               1               0 -99.9814570975219 
              0               0               1        -2.2e-14 
2  246 -1 241 -1 242 -1 243 -1 244 -1 0
1
              1               0               0               0 
              0               1               0 49.9907285487609 
              0               0               1         1.1e-14 
1
              1               0               0               0 
              0               1               0 24.9953642743805 
              0               0               1           6e-15 
1
              1               0               0               0 
              0              -0              -1               0 
              0               1              -0               0 
1
              1               0               0               0 
              0               1               0               0 
              0               0               1               0 
2  248 -1 249 -1 250 -1 251 -1 0
1
              1               0               0              -0 
              0               1               0 -99.9814570975219 
              0               0               1        -2.2e-14 
2  253 -1 248 -1 249 -1 250 -1 251 -1 0
1
              1               0               0               0 
              0               1               0 49.7684509957665 
              0               0               1         1.1e-14 
1
              1               0               0               0 
              0               1               0 24.8842254978832 
              0               0               1           6e-15 
1
              1               0               0               0 
              0              -0              -1               0 
              0               1              -0               0 
1
              1               0               0               0 
              0               1               0               0 
              0               0               1               0 
2  255 -1 256 -1 257 -1 258 -1 0
1
              1               0               0              -0 
              0               1               0 -99.5369019915329 
              0               0               1        -2.2e-14 
2  260 -1 255 -1 256 -1 257 -1 258 -1 0
1
              1               0               0               0 
              0               1               0 49.7684509957665 
              0               0               1         1.1e-14 
1
              1               0               0               0 
              0               1               0 24.8842254978832 
              0               0               1           6e-15 
1
              1               0               0               0 
              0              -0              -1               0 
              0               1              -0               0 
1
              1               0               0               0 
              0               1               0               0 
              0               0               1               0 
2  262 -1 263 -1 264 -1 265 -1 0
1
              1               0               0              -0 
              0               1               0 -99.5369019915329 
              0               0               1        -2.2e-14 
2  267 -1 262 -1 263 -1 264 -1 265 -1 0
2  4 -1 3 -1 2 -1 1 -1 0
2  6 -1 4 -1 3 -1 2 -1 1 -1 0
Curve2ds 80
1 0 0 0 -1 
1 20 -4.4408920985006262e-15 0 -1 
1 -0 0 1 0 
1 -1.8025500573249286e-33 -24.884225497883225 1 0 
1 0 0 1 0 
1 2.67e-15 -99.981457097521854 1 0 
1 0 0 1 0 
1 2.67e-15 -99.981457097521854 1 0 
1 0 0 1 0 
1 2.67e-15 -99.981457097521854 1 0 
1 0 0 1 0 
1 2.67e-15 -99.981457097521854 1 0 
1 0 0 1 0 
1 2.67e-15 -99.981457097521854 1 0 
1 0 0 1 0 
1 2.67e-15 -99.981457097521854 1 0 
1 0 0 1 0 
1 2.67e-15 -99.981457097521854 1 0 
1 0 0 1 0 
1 2.67e-15 -99.981457097521854 1 0 
1 0 0 1 0 
1 2.67e-15 -99.981457097521854 1 0 
1 0 0 1 0 
1 2.67e-15 -99.981457097521854 1 0 
1 0 0 1 0 
1 2.67e-15 -99.981457097521854 1 0 
1 0 0 1 0 
1 2.67e-15 -99.981457097521854 1 0 
1 0 0 1 0 
1 2.67e-15 -99.981457097521854 1 0 
1 0 0 1 0 
1 2.67e-15 -99.981457097521854 1 0 
1 0 0 1 0 
1 2.67e-15 -99.981457097521854 1 0 
1 0 0 1 0 
1 2.67e-15 -99.981457097521854 1 0 
1 0 0 1 0 
1 2.67e-15 -99.981457097521854 1 0 
1 0 0 1 0 
1 2.67e-15 -99.981457097521854 1 0 
1 0 0 1 0 
1 2.67e-15 -99.981457097521854 1 0 
1 0 0 1 0 
1 2.67e-15 -99.981457097521854 1 0 
1 0 0 1 0 
1 2.67e-15 -99.981457097521854 1 0 
1 0 0 1 0 
1 2.67e-15 -99.981457097521854 1 0 
1 0 0 1 0 
1 2.67e-15 -99.981457097521854 1 0 
1 0 0 1 0 
1 2.6e-15 -100.3106845325471 1 0 
1 0 0 1 0 
1 2.6e-15 -100.3106845325471 1 0 
1 0 0 1 0 
1 2.67e-15 -99.981457097521854 1 0 
1 0 0 1 0 
1 2.67e-15 -99.981457097521854 1 0 
1 0 0 1 0 
1 2.67e-15 -99.981457097521854 1 0 
1 0 0 1 0 
1 2.67e-15 -99.981457097521854 1 0 
1 0 0 1 0 
1 2.67e-15 -99.981457097521854 1 0 
1 0 0 1 0 
1 2.67e-15 -99.981457097521854 1 0 
1 0 0 1 0 
1 -8.4000000000000004e-16 -131.77617087827929 1 0 
1 0 0 1 0 
1 -8.4000000000000004e-16 -131.77617087827929 1 0 
1 0 0 1 0 
1 2.67e-15 -99.981457097521854 1 0 
1 0 0 1 0 
1 2.67e-15 -99.981457097521854 1 0 
1 0 0 1 0 
1 2.77e-15 -99.536901991532915 1 0 
1 0 0 1 0 
1 2.77e-15 -99.536901991532915 1 0 
1 0 0 1 0 
1 2.7673636734320184e-15 -99.536901991532915 1 0 
Curves 3
1 1.657622405697928e-20 74.652676493649679 19.000000000000018 -2.2204460490293788e-22 -1 -2.2204460492503131e-16 
1 1.657622405697928e-20 74.652676493649679 -0.99999999999998346 -2.2204460490293788e-22 -1 -2.2204460492503131e-16 
1 0 19 0 0 -1 0 
Polygon3D 1
2 1
0.0333333333333333
0 19 0 0 -1 0 
0 20 
PolygonOnTriangulations 0
Surfaces 39
1 1.657622405697928e-20 74.652676493649679 19.000000000000018 1 -2.2204460490293788e-22 -4.9303806571407512e-38 0 2.2204460492503131e-16 -1 2.2204460490293788e-22 1 2.2204460492503131e-16 
1 1.657622405697928e-20 74.652676493649679 -0.99999999999998346 9.9999999990000009e-07 -2.2204460492514234e-16 0.99999999999950007 -2.2204460490293783e-22 -1 -2.2204460492503126e-16 0.99999999999950007 0 -9.9999999990000009e-07 
1 0 74.986092823141391 19.000000000000018 1 -0 -0 0 2.2e-16 -1 0 1 2.2e-16 
1 0 74.986092823141391 19.000000000000018 1 -0 -0 0 2.2e-16 -1 0 1 2.2e-16 
1 0 74.986092823141391 19.000000000000018 1 -0 -0 0 2.2e-16 -1 0 1 2.2e-16 
1 0 74.986092823141391 19.000000000000018 1 -0 -0 0 2.2e-16 -1 0 1 2.2e-16 
1 0 74.986092823141391 19.000000000000018 1 -0 -0 0 2.2e-16 -1 0 1 2.2e-16 
1 0 74.986092823141391 19.000000000000018 1 -0 -0 0 2.2e-16 -1 0 1 2.2e-16 
1 0 74.986092823141391 19.000000000000018 1 -0 -0 0 2.2e-16 -1 0 1 2.2e-16 
1 0 74.986092823141391 19.000000000000018 1 -0 -0 0 2.2e-16 -1 0 1 2.2e-16 
1 0 74.986092823141391 19.000000000000018 1 -0 -0 0 2.2e-16 -1 0 1 2.2e-16 
1 0 74.986092823141391 19.000000000000018 1 -0 -0 0 2.2e-16 -1 0 1 2.2e-16 
1 0 74.986092823141391 19.000000000000018 1 -0 -0 0 2.2e-16 -1 0 1 2.2e-16 
1 0 74.986092823141391 19.000000000000018 1 -0 -0 0 2.2e-16 -1 0 1 2.2e-16 
1 0 74.986092823141391 19.000000000000018 1 -0 -0 0 2.2e-16 -1 0 1 2.2e-16 
1 0 74.986092823141391 19.000000000000018 1 -0 -0 0 2.2e-16 -1 0 1 2.2e-16 
1 0 74.986092823141391 19.000000000000018 1 -0 -0 0 2.2e-16 -1 0 1 2.2e-16 
1 0 74.986092823141391 19.000000000000018 1 -0 -0 0 2.2e-16 -1 0 1 2.2e-16 
1 0 74.986092823141391 19.000000000000018 1 -0 -0 0 2.2e-16 -1 0 1 2.2e-16 
1 0 74.986092823141391 19.000000000000018 1 -0 -0 0 2.2e-16 -1 0 1 2.2e-16 
1 0 74.986092823141391 19.000000000000018 1 -0 -0 0 2.2e-16 -1 0 1 2.2e-16 
1 0 74.986092823141391 19.000000000000018 1 -0 -0 0 2.2e-16 -1 0 1 2.2e-16 
1 0 74.986092823141391 19.000000000000018 1 -0 -0 0 2.2e-16 -1 0 1 2.2e-16 
1 0 74.986092823141391 19.000000000000018 1 -0 -0 0 2.2e-16 -1 0 1 2.2e-16 
1 0 74.986092823141391 19.000000000000018 1 -0 -0 0 2.2e-16 -1 0 1 2.2e-16 
1 0 75.233013399410325 19.000000000000018 1 -0 -0 0 2.2e-16 -1 0 1 2.2e-16 
1 0 75.233013399410325 19.000000000000018 1 -0 -0 0 2.2e-16 -1 0 1 2.2e-16 
1 0 74.986092823141391 19.000000000000018 1 -0 -0 0 2.2e-16 -1 0 1 2.2e-16 
1 0 74.986092823141391 19.000000000000018 1 -0 -0 0 2.2e-16 -1 0 1 2.2e-16 
1 0 74.986092823141391 19.000000000000018 1 -0 -0 0 2.2e-16 -1 0 1 2.2e-16 
1 0 74.986092823141391 19.000000000000018 1 -0 -0 0 2.2e-16 -1 0 1 2.2e-16 
1 0 74.986092823141391 19.000000000000018 1 -0 -0 0 2.2e-16 -1 0 1 2.2e-16 
1 0 74.986092823141391 19.000000000000018 1 -0 -0 0 2.2e-16 -1 0 1 2.2e-16 
1 0 98.832128158709466 19.000000000000021 1 -0 -0 0 2.2e-16 -1 0 1 2.2e-16 
1 0 98.832128158709466 19.000000000000021 1 -0 -0 0 2.2e-16 -1 0 1 2.2e-16 
1 0 74.986092823141391 19.000000000000018 1 -0 -0 0 2.2e-16 -1 0 1 2.2e-16 
1 0 74.986092823141391 19.000000000000018 1 -0 -0 0 2.2e-16 -1 0 1 2.2e-16 
1 0 74.652676493649679 19.000000000000018 1 -0 -0 0 2.2e-16 -1 0 1 2.2e-16 
1 0 74.652676493649679 19.000000000000018 1 -0 -0 0 2.2e-16 -1 0 1 2.2e-16 
Triangulations 0

TShapes 8
Ve
1e-07
0 19 0
0 0

0101101
*
Ed
 1e-07 1 1 0
1  1 0 0 99.5369019915329
2  1 1 0 0 99.5369019915329
0

0101000
+8 5 -8 7 *
Ve
1e-07
0 -1 0
0 0

0101101
*
Ed
 1e-07 1 1 0
1  2 0 0 99.5369019915329
2  2 1 0 0 99.5369019915329
2  3 2 0 0 99.5369019915329
2  4 2 9 0 99.5369019915329
0

0101000
+6 5 -6 7 *
Ed
 1e-07 1 1 0
1  3 0 0 20
2  5 3 14 0 20
2  6 3 16 0 20
2  7 4 21 0 20
2  8 4 23 0 20
2  9 5 28 0 20
2  10 5 30 0 20
2  11 6 35 0 20
2  12 6 37 0 20
2  13 7 42 0 20
2  14 7 44 0 20
2  15 8 49 0 20
2  16 8 51 0 20
2  17 9 56 0 20
2  18 9 58 0 20
2  19 10 63 0 20
2  20 10 65 0 20
2  21 11 70 0 20
2  22 11 72 0 20
2  23 12 77 0 20
2  24 12 79 0 20
2  25 13 84 0 20
2  26 13 86 0 20
2  27 14 91 0 20
2  28 14 93 0 20
2  29 15 98 0 20
2  30 15 100 0 20
2  31 16 105 0 20
2  32 16 107 0 20
2  33 17 112 0 20
2  34 17 114 0 20
2  35 18 119 0 20
2  36 18 121 0 20
2  37 19 126 0 20
2  38 19 128 0 20
2  39 20 133 0 20
2  40 20 135 0 20
2  41 21 140 0 20
2  42 21 142 0 20
2  43 22 147 0 20
2  44 22 149 0 20
2  45 23 154 0 20
2  46 23 156 0 20
2  47 24 161 0 20
2  48 24 163 0 20
2  49 25 168 0 20
2  50 25 170 0 20
2  51 26 175 0 20
2  52 26 177 0 20
2  53 27 182 0 20
2  54 27 184 0 20
2  55 28 189 0 20
2  56 28 191 0 20
2  57 29 196 0 20
2  58 29 198 0 20
2  59 30 203 0 20
2  60 30 205 0 20
2  61 31 210 0 20
2  62 31 212 0 20
2  63 32 217 0 20
2  64 32 219 0 20
2  65 33 224 0 20
2  66 33 226 0 20
2  67 34 231 0 20
2  68 34 233 0 20
2  69 35 238 0 20
2  70 35 240 0 20
2  71 36 245 0 20
2  72 36 247 0 20
2  73 37 252 0 20
2  74 37 254 0 20
2  75 38 259 0 20
2  76 38 261 0 20
2  77 39 266 0 20
2  78 39 268 0 20
5  1 0
2  79 1 269 0 20
2  80 1 270 0 20
0

0101000
+8 0 -6 0 *
Wi

0101100
+7 0 -5 0 -4 5 +4 7 *
Fa
0  1e-07 1 0

0101000
+3 0 *
Sh

1101000
+2 0 *

+1 0 