DBRep_DrawableShape

CASCADE Topology V3, (c) Open Cascade
Locations 266
1
              1               0               0               0 
              0               1               0               0 
              0               0               1               0 
1
              1               0               0               0 
              0 -2.22044604925031e-16              -1               0 
              0               1 -2.22044604925031e-16               0 
1
              1               0               0 5.52540801899309e-21 
              0               1               0 24.8842254978832 
              0               0               1 5.52540801954287e-15 
1
              1               0               0 1.10508160379862e-20 
              0               1               0 49.7684509957665 
              0               0               1 1.10508160390857e-14 
2  1 1 2 1 3 1 4 1 0
1
              1               0               0 -2.21016320759724e-20 
              0               1               0 -99.5369019915329 
              0               0               1 -2.21016320781715e-14 
2  1 1 2 1 3 1 4 1 6 1 0
1
              1               0               0               0 
              0               1               0 49.9907285487609 
              0               0               1         1.1e-14 
1
              1               0               0               0 
              0               1               0 24.9953642743805 
              0               0               1           6e-15 
1
              1               0               0               0 
              0              -0              -1               0 
              0               1              -0               0 
1
              1               0               0               0 
              0               1               0               0 
              0               0               1               0 
2  8 -1 9 -1 10 -1 11 -1 0
1
              1               0               0              -0 
              0               1               0 -99.9814570975219 
              0               0               1        -2.2e-14 
2  13 -1 8 -1 9 -1 10 -1 11 -1 0
1
              1               0               0               0 
              0               1               0 49.9907285487609 
              0               0               1         1.1e-14 
1
              1               0               0               0 
              0               1               0 24.9953642743805 
              0               0               1           6e-15 
1
              1               0               0               0 
              0              -0              -1               0 
              0               1              -0               0 
1
              1               0               0               0 
              0               1               0               0 
              0               0               1               0 
2  15 -1 16 -1 17 -1 18 -1 0
1
              1               0               0              -0 
              0               1               0 -99.9814570975219 
              0               0               1        -2.2e-14 
2  20 -1 15 -1 16 -1 17 -1 18 -1 0
1
              1               0               0               0 
              0               1               0 49.9907285487609 
              0               0               1         1.1e-14 
1
              1               0               0               0 
              0               1               0 24.9953642743805 
              0               0               1           6e-15 
1
              1               0               0               0 
              0              -0              -1               0 
              0               1              -0               0 
1
              1               0               0               0 
              0               1               0               0 
              0               0               1               0 
2  22 -1 23 -1 24 -1 25 -1 0
1
              1               0               0              -0 
              0               1               0 -99.9814570975219 
              0               0               1        -2.2e-14 
2  27 -1 22 -1 23 -1 24 -1 25 -1 0
1
              1               0               0               0 
              0               1               0 49.9907285487609 
              0               0               1         1.1e-14 
1
              1               0               0               0 
              0               1               0 24.9953642743805 
              0               0               1           6e-15 
1
              1               0               0               0 
              0              -0              -1               0 
              0               1              -0               0 
1
              1               0               0               0 
              0               1               0               0 
              0               0               1               0 
2  29 -1 30 -1 31 -1 32 -1 0
1
              1               0               0              -0 
              0               1               0 -99.9814570975219 
              0               0               1        -2.2e-14 
2  34 -1 29 -1 30 -1 31 -1 32 -1 0
1
              1               0               0               0 
              0               1               0 49.9907285487609 
              0               0               1         1.1e-14 
1
              1               0               0               0 
              0               1               0 24.9953642743805 
              0               0               1           6e-15 
1
              1               0               0               0 
              0              -0              -1               0 
              0               1              -0               0 
1
              1               0               0               0 
              0               1               0               0 
              0               0               1               0 
2  36 -1 37 -1 38 -1 39 -1 0
1
              1               0               0              -0 
              0               1               0 -99.9814570975219 
              0               0               1        -2.2e-14 
2  41 -1 36 -1 37 -1 38 -1 39 -1 0
1
              1               0               0               0 
              0               1               0 49.9907285487609 
              0               0               1         1.1e-14 
1
              1               0               0               0 
              0               1               0 24.9953642743805 
              0               0               1           6e-15 
1
              1               0               0               0 
              0              -0              -1               0 
              0               1              -0               0 
1
              1               0               0               0 
              0               1               0               0 
              0               0               1               0 
2  43 -1 44 -1 45 -1 46 -1 0
1
              1               0               0              -0 
              0               1               0 -99.9814570975219 
              0               0               1        -2.2e-14 
2  48 -1 43 -1 44 -1 45 -1 46 -1 0
1
              1               0               0               0 
              0               1               0 49.9907285487609 
              0               0               1         1.1e-14 
1
              1               0               0               0 
              0               1               0 24.9953642743805 
              0               0               1           6e-15 
1
              1               0               0               0 
              0              -0              -1               0 
              0               1              -0               0 
1
              1               0               0               0 
              0               1               0               0 
              0               0               1               0 
2  50 -1 51 -1 52 -1 53 -1 0
1
              1               0               0              -0 
              0               1               0 -99.9814570975219 
              0               0               1        -2.2e-14 
2  55 -1 50 -1 51 -1 52 -1 53 -1 0
1
              1               0               0               0 
              0               1               0 49.9907285487609 
              0               0               1         1.1e-14 
1
              1               0               0               0 
              0               1               0 24.9953642743805 
              0               0               1           6e-15 
1
              1               0               0               0 
              0              -0              -1               0 
              0               1              -0               0 
1
              1               0               0               0 
              0               1               0               0 
              0               0               1               0 
2  57 -1 58 -1 59 -1 60 -1 0
1
              1               0               0              -0 
              0               1               0 -99.9814570975219 
              0               0               1        -2.2e-14 
2  62 -1 57 -1 58 -1 59 -1 60 -1 0
1
              1               0               0               0 
              0               1               0 49.9907285487609 
              0               0               1         1.1e-14 
1
              1               0               0               0 
              0               1               0 24.9953642743805 
              0               0               1           6e-15 
1
              1               0               0               0 
              0              -0              -1               0 
              0               1              -0               0 
1
              1               0               0               0 
              0               1               0               0 
              0               0               1               0 
2  64 -1 65 -1 66 -1 67 -1 0
1
              1               0               0              -0 
              0               1               0 -99.9814570975219 
              0               0               1        -2.2e-14 
2  69 -1 64 -1 65 -1 66 -1 67 -1 0
1
              1               0               0               0 
              0               1               0 49.9907285487609 
              0               0               1         1.1e-14 
1
              1               0               0               0 
              0               1               0 24.9953642743805 
              0               0               1           6e-15 
1
              1               0               0               0 
              0              -0              -1               0 
              0               1              -0               0 
1
              1               0               0               0 
              0               1               0               0 
              0               0               1               0 
2  71 -1 72 -1 73 -1 74 -1 0
1
              1               0               0              -0 
              0               1               0 -99.9814570975219 
              0               0               1        -2.2e-14 
2  76 -1 71 -1 72 -1 73 -1 74 -1 0
1
              1               0               0               0 
              0               1               0 49.9907285487609 
              0               0               1         1.1e-14 
1
              1               0               0               0 
              0               1               0 24.9953642743805 
              0               0               1           6e-15 
1
              1               0               0               0 
              0              -0              -1               0 
              0               1              -0               0 
1
              1               0               0               0 
              0               1               0               0 
              0               0               1               0 
2  78 -1 79 -1 80 -1 81 -1 0
1
              1               0               0              -0 
              0               1               0 -99.9814570975219 
              0               0               1        -2.2e-14 
2  83 -1 78 -1 79 -1 80 -1 81 -1 0
1
              1               0               0               0 
              0               1               0 49.9907285487609 
              0               0               1         1.1e-14 
1
              1               0               0               0 
              0               1               0 24.9953642743805 
              0               0               1           6e-15 
1
              1               0               0               0 
              0              -0              -1               0 
              0               1              -0               0 
1
              1               0               0               0 
              0               1               0               0 
              0               0               1               0 
2  85 -1 86 -1 87 -1 88 -1 0
1
              1               0               0              -0 
              0               1               0 -99.9814570975219 
              0               0               1        -2.2e-14 
2  90 -1 85 -1 86 -1 87 -1 88 -1 0
1
              1               0               0               0 
              0               1               0 49.9907285487609 
              0               0               1         1.1e-14 
1
              1               0               0               0 
              0               1               0 24.9953642743805 
              0               0               1           6e-15 
1
              1               0               0               0 
              0              -0              -1               0 
              0               1              -0               0 
1
              1               0               0               0 
              0               1               0               0 
              0               0               1               0 
2  92 -1 93 -1 94 -1 95 -1 0
1
              1               0               0              -0 
              0               1               0 -99.9814570975219 
              0               0               1        -2.2e-14 
2  97 -1 92 -1 93 -1 94 -1 95 -1 0
1
              1               0               0               0 
              0               1               0 49.9907285487609 
              0               0               1         1.1e-14 
1
              1               0               0               0 
              0               1               0 24.9953642743805 
              0               0               1           6e-15 
1
              1               0               0               0 
              0              -0              -1               0 
              0               1              -0               0 
1
              1               0               0               0 
              0               1               0               0 
              0               0               1               0 
2  99 -1 100 -1 101 -1 102 -1 0
1
              1               0               0              -0 
              0               1               0 -99.9814570975219 
              0               0               1        -2.2e-14 
2  104 -1 99 -1 100 -1 101 -1 102 -1 0
1
              1               0               0               0 
              0               1               0 49.9907285487609 
              0               0               1         1.1e-14 
1
              1               0               0               0 
              0               1               0 24.9953642743805 
              0               0               1           6e-15 
1
              1               0               0               0 
              0              -0              -1               0 
              0               1              -0               0 
1
              1               0               0               0 
              0               1               0               0 
              0               0               1               0 
2  106 -1 107 -1 108 -1 109 -1 0
1
              1               0               0              -0 
              0               1               0 -99.9814570975219 
              0               0               1        -2.2e-14 
2  111 -1 106 -1 107 -1 108 -1 109 -1 0
1
              1               0               0               0 
              0               1               0 49.9907285487609 
              0               0               1         1.1e-14 
1
              1               0               0               0 
              0               1               0 24.9953642743805 
              0               0               1           6e-15 
1
              1               0               0               0 
              0              -0              -1               0 
              0               1              -0               0 
1
              1               0               0               0 
              0               1               0               0 
              0               0               1               0 
2  113 -1 114 -1 115 -1 116 -1 0
1
              1               0               0              -0 
              0               1               0 -99.9814570975219 
              0               0               1        -2.2e-14 
2  118 -1 113 -1 114 -1 115 -1 116 -1 0
1
              1               0               0               0 
              0               1               0 49.9907285487609 
              0               0               1         1.1e-14 
1
              1               0               0               0 
              0               1               0 24.9953642743805 
              0               0               1           6e-15 
1
              1               0               0               0 
              0              -0              -1               0 
              0               1              -0               0 
1
              1               0               0               0 
              0               1               0               0 
              0               0               1               0 
2  120 -1 121 -1 122 -1 123 -1 0
1
              1               0               0              -0 
              0               1               0 -99.9814570975219 
              0               0               1        -2.2e-14 
2  125 -1 120 -1 121 -1 122 -1 123 -1 0
1
              1               0               0               0 
              0               1               0 49.9907285487609 
              0               0               1         1.1e-14 
1
              1               0               0               0 
              0               1               0 24.9953642743805 
              0               0               1           6e-15 
1
              1               0               0               0 
              0              -0              -1               0 
              0               1              -0               0 
1
              1               0               0               0 
              0               1               0               0 
              0               0               1               0 
2  127 -1 128 -1 129 -1 130 -1 0
1
              1               0               0              -0 
              0               1               0 -99.9814570975219 
              0               0               1        -2.2e-14 
2  132 -1 127 -1 128 -1 129 -1 130 -1 0
1
              1               0               0               0 
              0               1               0 49.9907285487609 
              0               0               1         1.1e-14 
1
              1               0               0               0 
              0               1               0 24.9953642743805 
              0               0               1           6e-15 
1
              1               0               0               0 
              0              -0              -1               0 
              0               1              -0               0 
1
              1               0               0               0 
              0               1               0               0 
              0               0               1               0 
2  134 -1 135 -1 136 -1 137 -1 0
1
              1               0               0              -0 
              0               1               0 -99.9814570975219 
              0               0               1        -2.2e-14 
2  139 -1 134 -1 135 -1 136 -1 137 -1 0
1
              1               0               0               0 
              0               1               0 49.9907285487609 
              0               0               1         1.1e-14 
1
              1               0               0               0 
              0               1               0 24.9953642743805 
              0               0               1           6e-15 
1
              1               0               0               0 
              0              -0              -1               0 
              0               1              -0               0 
1
              1               0               0               0 
              0               1               0               0 
              0               0               1               0 
2  141 -1 142 -1 143 -1 144 -1 0
1
              1               0               0              -0 
              0               1               0 -99.9814570975219 
              0               0               1        -2.2e-14 
2  146 -1 141 -1 142 -1 143 -1 144 -1 0
1
              1               0               0               0 
              0               1               0 49.9907285487609 
              0               0               1         1.1e-14 
1
              1               0               0               0 
              0               1               0 24.9953642743805 
              0               0               1           6e-15 
1
              1               0               0               0 
              0              -0              -1               0 
              0               1              -0               0 
1
              1               0               0               0 
              0               1               0               0 
              0               0               1               0 
2  148 -1 149 -1 150 -1 151 -1 0
1
              1               0               0              -0 
              0               1               0 -99.9814570975219 
              0               0               1        -2.2e-14 
2  153 -1 148 -1 149 -1 150 -1 151 -1 0
1
              1               0               0               0 
              0               1               0 49.9907285487609 
              0               0               1         1.1e-14 
1
              1               0               0               0 
              0               1               0 24.9953642743805 
              0               0               1           6e-15 
1
              1               0               0               0 
              0              -0              -1               0 
              0               1              -0               0 
1
              1               0               0               0 
              0               1               0               0 
              0               0               1               0 
2  155 -1 156 -1 157 -1 158 -1 0
1
              1               0               0              -0 
              0               1               0 -99.9814570975219 
              0               0               1        -2.2e-14 
2  160 -1 155 -1 156 -1 157 -1 158 -1 0
1
              1               0               0               0 
              0               1               0 49.9907285487609 
              0               0               1         1.1e-14 
1
              1               0               0               0 
              0               1               0 24.9953642743805 
              0               0               1           6e-15 
1
              1               0               0               0 
              0              -0              -1               0 
              0               1              -0               0 
1
              1               0               0               0 
              0               1               0               0 
              0               0               1               0 
2  162 -1 163 -1 164 -1 165 -1 0
1
              1               0               0              -0 
              0               1               0 -99.9814570975219 
              0               0               1        -2.2e-14 
2  167 -1 162 -1 163 -1 164 -1 165 -1 0
1
              1               0               0               0 
              0               1               0 50.1553422662735 
              0               0               1         1.1e-14 
1
              1               0               0               0 
              0               1               0 25.0776711331368 
              0               0               1           6e-15 
1
              1               0               0               0 
              0              -0              -1               0 
              0               1              -0               0 
1
              1               0               0               0 
              0               1               0               0 
              0               0               1               0 
2  169 -1 170 -1 171 -1 172 -1 0
1
              1               0               0              -0 
              0               1               0 -100.310684532547 
              0               0               1        -2.2e-14 
2  174 -1 169 -1 170 -1 171 -1 172 -1 0
1
              1               0               0               0 
              0               1               0 50.1553422662735 
              0               0               1         1.1e-14 
1
              1               0               0               0 
              0               1               0 25.0776711331368 
              0               0               1           6e-15 
1
              1               0               0               0 
              0              -0              -1               0 
              0               1              -0               0 
1
              1               0               0               0 
              0               1               0               0 
              0               0               1               0 
2  176 -1 177 -1 178 -1 179 -1 0
1
              1               0               0              -0 
              0               1               0 -100.310684532547 
              0               0               1        -2.2e-14 
2  181 -1 176 -1 177 -1 178 -1 179 -1 0
1
              1               0               0               0 
              0               1               0 49.9907285487609 
              0               0               1         1.1e-14 
1
              1               0               0               0 
              0               1               0 24.9953642743805 
              0               0               1           6e-15 
1
              1               0               0               0 
              0              -0              -1               0 
              0               1              -0               0 
1
              1               0               0               0 
              0               1               0               0 
              0               0               1               0 
2  183 -1 184 -1 185 -1 186 -1 0
1
              1               0               0              -0 
              0               1               0 -99.9814570975219 
              0               0               1        -2.2e-14 
2  188 -1 183 -1 184 -1 185 -1 186 -1 0
1
              1               0               0               0 
              0               1               0 49.9907285487609 
              0               0               1         1.1e-14 
1
              1               0               0               0 
              0               1               0 24.9953642743805 
              0               0               1           6e-15 
1
              1               0               0               0 
              0              -0              -1               0 
              0               1              -0               0 
1
              1               0               0               0 
              0               1               0               0 
              0               0               1               0 
2  190 -1 191 -1 192 -1 193 -1 0
1
              1               0               0              -0 
              0               1               0 -99.9814570975219 
              0               0               1        -2.2e-14 
2  195 -1 190 -1 191 -1 192 -1 193 -1 0
1
              1               0               0               0 
              0               1               0 49.9907285487609 
              0               0               1         1.1e-14 
1
              1               0               0               0 
              0               1               0 24.9953642743805 
              0               0               1           6e-15 
1
              1               0               0               0 
              0              -0              -1               0 
              0               1              -0               0 
1
              1               0               0               0 
              0               1               0               0 
              0               0               1               0 
2  197 -1 198 -1 199 -1 200 -1 0
1
              1               0               0              -0 
              0               1               0 -99.9814570975219 
              0               0               1        -2.2e-14 
2  202 -1 197 -1 198 -1 199 -1 200 -1 0
1
              1               0               0               0 
              0               1               0 49.9907285487609 
              0               0               1         1.1e-14 
1
              1               0               0               0 
              0               1               0 24.9953642743805 
              0               0               1           6e-15 
1
              1               0               0               0 
              0              -0              -1               0 
              0               1              -0               0 
1
              1               0               0               0 
              0               1               0               0 
              0               0               1               0 
2  204 -1 205 -1 206 -1 207 -1 0
1
              1               0               0              -0 
              0               1               0 -99.9814570975219 
              0               0               1        -2.2e-14 
2  209 -1 204 -1 205 -1 206 -1 207 -1 0
1
              1               0               0               0 
              0               1               0 49.9907285487609 
              0               0               1         1.1e-14 
1
              1               0               0               0 
              0               1               0 24.9953642743805 
              0               0               1           6e-15 
1
              1               0               0               0 
              0              -0              -1               0 
              0               1              -0               0 
1
              1               0               0               0 
              0               1               0               0 
              0               0               1               0 
2  211 -1 212 -1 213 -1 214 -1 0
1
              1               0               0              -0 
              0               1               0 -99.9814570975219 
              0               0               1        -2.2e-14 
2  216 -1 211 -1 212 -1 213 -1 214 -1 0
1
              1               0               0               0 
              0               1               0 49.9907285487609 
              0               0               1         1.1e-14 
1
              1               0               0               0 
              0               1               0 24.9953642743805 
              0               0               1           6e-15 
1
              1               0               0               0 
              0              -0              -1               0 
              0               1              -0               0 
1
              1               0               0               0 
              0               1               0               0 
              0               0               1               0 
2  218 -1 219 -1 220 -1 221 -1 0
1
              1               0               0              -0 
              0               1               0 -99.9814570975219 
              0               0               1        -2.2e-14 
2  223 -1 218 -1 219 -1 220 -1 221 -1 0
1
              1               0               0               0 
              0               1               0 65.8880854391396 
              0               0               1         1.5e-14 
1
              1               0               0               0 
              0               1               0 32.9440427195698 
              0               0               1           7e-15 
1
              1               0               0               0 
              0              -0              -1               0 
              0               1              -0               0 
1
              1               0               0               0 
              0               1               0               0 
              0               0               1               0 
2  225 -1 226 -1 227 -1 228 -1 0
1
              1               0               0              -0 
              0               1               0 -131.776170878279 
              0               0               1        -2.9e-14 
2  230 -1 225 -1 226 -1 227 -1 228 -1 0
1
              1               0               0               0 
              0               1               0 65.8880854391396 
              0               0               1         1.5e-14 
1
              1               0               0               0 
              0               1               0 32.9440427195698 
              0               0               1           7e-15 
1
              1               0               0               0 
              0              -0              -1               0 
              0               1              -0               0 
1
              1               0               0               0 
              0               1               0               0 
              0               0               1               0 
2  232 -1 233 -1 234 -1 235 -1 0
1
              1               0               0              -0 
              0               1               0 -131.776170878279 
              0               0               1        -2.9e-14 
2  237 -1 232 -1 233 -1 234 -1 235 -1 0
1
              1               0               0               0 
              0               1               0 49.9907285487609 
              0               0               1         1.1e-14 
1
              1               0               0               0 
              0               1               0 24.9953642743805 
              0               0               1           6e-15 
1
              1               0               0               0 
              0              -0              -1               0 
              0               1              -0               0 
1
              1               0               0               0 
              0               1               0               0 
              0               0               1               0 
2  239 -1 240 -1 241 -1 242 -1 0
1
              1               0               0              -0 
              0               1               0 -99.9814570975219 
              0               0               1        -2.2e-14 
2  244 -1 239 -1 240 -1 241 -1 242 -1 0
1
              1               0               0               0 
              0               1               0 49.9907285487609 
              0               0               1         1.1e-14 
1
              1               0               0               0 
              0               1               0 24.9953642743805 
              0               0               1           6e-15 
1
              1               0               0               0 
              0              -0              -1               0 
              0               1              -0               0 
1
              1               0               0               0 
              0               1               0               0 
              0               0               1               0 
2  246 -1 247 -1 248 -1 249 -1 0
1
              1               0               0              -0 
              0               1               0 -99.9814570975219 
              0               0               1        -2.2e-14 
2  251 -1 246 -1 247 -1 248 -1 249 -1 0
1
              1               0               0               0 
              0               1               0 49.7684509957665 
              0               0               1         1.1e-14 
1
              1               0               0               0 
              0               1               0 24.8842254978832 
              0               0               1           6e-15 
1
              1               0               0               0 
              0              -0              -1               0 
              0               1              -0               0 
1
              1               0               0               0 
              0               1               0               0 
              0               0               1               0 
2  253 -1 254 -1 255 -1 256 -1 0
1
              1               0               0              -0 
              0               1               0 -99.5369019915329 
              0               0               1        -2.2e-14 
2  258 -1 253 -1 254 -1 255 -1 256 -1 0
1
              1               0               0               0 
              0               1               0 49.7684509957665 
              0               0               1         1.1e-14 
1
              1               0               0               0 
              0               1               0 24.8842254978832 
              0               0               1           6e-15 
1
              1               0               0               0 
              0              -0              -1               0 
              0               1              -0               0 
1
              1               0               0               0 
              0               1               0               0 
              0               0               1               0 
2  260 -1 261 -1 262 -1 263 -1 0
1
              1               0               0              -0 
              0               1               0 -99.5369019915329 
              0               0               1        -2.2e-14 
2  265 -1 260 -1 261 -1 262 -1 263 -1 0
Curve2ds 74
1 0 0 1 0 
1 2.67e-15 -99.981457097521854 1 0 
1 0 0 1 0 
1 2.67e-15 -99.981457097521854 1 0 
1 0 0 1 0 
1 2.67e-15 -99.981457097521854 1 0 
1 0 0 1 0 
1 2.67e-15 -99.981457097521854 1 0 
1 0 0 1 0 
1 2.67e-15 -99.981457097521854 1 0 
1 0 0 1 0 
1 2.67e-15 -99.981457097521854 1 0 
1 0 0 1 0 
1 2.67e-15 -99.981457097521854 1 0 
1 0 0 1 0 
1 2.67e-15 -99.981457097521854 1 0 
1 0 0 1 0 
1 2.67e-15 -99.981457097521854 1 0 
1 0 0 1 0 
1 2.67e-15 -99.981457097521854 1 0 
1 0 0 1 0 
1 2.67e-15 -99.981457097521854 1 0 
1 0 0 1 0 
1 2.67e-15 -99.981457097521854 1 0 
1 0 0 1 0 
1 2.67e-15 -99.981457097521854 1 0 
1 0 0 1 0 
1 2.67e-15 -99.981457097521854 1 0 
1 0 0 1 0 
1 2.67e-15 -99.981457097521854 1 0 
1 0 0 1 0 
1 2.67e-15 -99.981457097521854 1 0 
1 0 0 1 0 
1 2.67e-15 -99.981457097521854 1 0 
1 0 0 1 0 
1 2.67e-15 -99.981457097521854 1 0 
1 0 0 1 0 
1 2.67e-15 -99.981457097521854 1 0 
1 0 0 1 0 
1 2.67e-15 -99.981457097521854 1 0 
1 0 0 1 0 
1 2.67e-15 -99.981457097521854 1 0 
1 0 0 1 0 
1 2.67e-15 -99.981457097521854 1 0 
1 0 0 1 0 
1 2.67e-15 -99.981457097521854 1 0 
1 0 0 1 0 
1 2.6e-15 -100.3106845325471 1 0 
1 0 0 1 0 
1 2.6e-15 -100.3106845325471 1 0 
1 0 0 1 0 
1 2.67e-15 -99.981457097521854 1 0 
1 0 0 1 0 
1 2.67e-15 -99.981457097521854 1 0 
1 0 0 1 0 
1 2.67e-15 -99.981457097521854 1 0 
1 0 0 1 0 
1 2.67e-15 -99.981457097521854 1 0 
1 0 0 1 0 
1 2.67e-15 -99.981457097521854 1 0 
1 0 0 1 0 
1 2.67e-15 -99.981457097521854 1 0 
1 0 0 1 0 
1 -8.4000000000000004e-16 -131.77617087827929 1 0 
1 0 0 1 0 
1 -8.4000000000000004e-16 -131.77617087827929 1 0 
1 0 0 1 0 
1 2.67e-15 -99.981457097521854 1 0 
1 0 0 1 0 
1 2.67e-15 -99.981457097521854 1 0 
1 0 0 1 0 
1 2.77e-15 -99.536901991532915 1 0 
1 0 0 1 0 
1 2.77e-15 -99.536901991532915 1 0 
Curves 3
1 1.657622405697928e-20 74.652676493649679 19.000000000000018 -2.2204460490293788e-22 -1 -2.2204460492503131e-16 
1 1.657622405697928e-20 74.652676493649679 -0.99999999999998346 -2.2204460490293788e-22 -1 -2.2204460492503131e-16 
1 0 19 0 0 -1 0 
Polygon3D 1
2 1
0.0333333333333333
0 19 0 0 -1 0 
0 20 
PolygonOnTriangulations 0
Surfaces 38
1 1.657622405697928e-20 74.652676493649679 19.000000000000018 1 -2.2204460490293788e-22 -4.9303806571407512e-38 0 2.2204460492503131e-16 -1 2.2204460490293788e-22 1 2.2204460492503131e-16 
1 0 74.986092823141391 19.000000000000018 1 -0 -0 0 2.2e-16 -1 0 1 2.2e-16 
1 0 74.986092823141391 19.000000000000018 1 -0 -0 0 2.2e-16 -1 0 1 2.2e-16 
1 0 74.986092823141391 19.000000000000018 1 -0 -0 0 2.2e-16 -1 0 1 2.2e-16 
1 0 74.986092823141391 19.000000000000018 1 -0 -0 0 2.2e-16 -1 0 1 2.2e-16 
1 0 74.986092823141391 19.000000000000018 1 -0 -0 0 2.2e-16 -1 0 1 2.2e-16 
1 0 74.986092823141391 19.000000000000018 1 -0 -0 0 2.2e-16 -1 0 1 2.2e-16 
1 0 74.986092823141391 19.000000000000018 1 -0 -0 0 2.2e-16 -1 0 1 2.2e-16 
1 0 74.986092823141391 19.000000000000018 1 -0 -0 0 2.2e-16 -1 0 1 2.2e-16 
1 0 74.986092823141391 19.000000000000018 1 -0 -0 0 2.2e-16 -1 0 1 2.2e-16 
1 0 74.986092823141391 19.000000000000018 1 -0 -0 0 2.2e-16 -1 0 1 2.2e-16 
1 0 74.986092823141391 19.000000000000018 1 -0 -0 0 2.2e-16 -1 0 1 2.2e-16 
1 0 74.986092823141391 19.000000000000018 1 -0 -0 0 2.2e-16 -1 0 1 2.2e-16 
1 0 74.986092823141391 19.000000000000018 1 -0 -0 0 2.2e-16 -1 0 1 2.2e-16 
1 0 74.986092823141391 19.000000000000018 1 -0 -0 0 2.2e-16 -1 0 1 2.2e-16 
1 0 74.986092823141391 19.000000000000018 1 -0 -0 0 2.2e-16 -1 0 1 2.2e-16 
1 0 74.986092823141391 19.000000000000018 1 -0 -0 0 2.2e-16 -1 0 1 2.2e-16 
1 0 74.986092823141391 19.000000000000018 1 -0 -0 0 2.2e-16 -1 0 1 2.2e-16 
1 0 74.986092823141391 19.000000000000018 1 -0 -0 0 2.2e-16 -1 0 1 2.2e-16 
1 0 74.986092823141391 19.000000000000018 1 -0 -0 0 2.2e-16 -1 0 1 2.2e-16 
1 0 74.986092823141391 19.000000000000018 1 -0 -0 0 2.2e-16 -1 0 1 2.2e-16 
1 0 74.986092823141391 19.000000000000018 1 -0 -0 0 2.2e-16 -1 0 1 2.2e-16 
1 0 74.986092823141391 19.000000000000018 1 -0 -0 0 2.2e-16 -1 0 1 2.2e-16 
1 0 74.986092823141391 19.000000000000018 1 -0 -0 0 2.2e-16 -1 0 1 2.2e-16 
1 0 75.233013399410325 19.000000000000018 1 -0 -0 0 2.2e-16 -1 0 1 2.2e-16 
1 0 75.233013399410325 19.000000000000018 1 -0 -0 0 2.2e-16 -1 0 1 2.2e-16 
1 0 74.986092823141391 19.000000000000018 1 -0 -0 0 2.2e-16 -1 0 1 2.2e-16 
1 0 74.986092823141391 19.000000000000018 1 -0 -0 0 2.2e-16 -1 0 1 2.2e-16 
1 0 74.986092823141391 19.000000000000018 1 -0 -0 0 2.2e-16 -1 0 1 2.2e-16 
1 0 74.986092823141391 19.000000000000018 1 -0 -0 0 2.2e-16 -1 0 1 2.2e-16 
1 0 74.986092823141391 19.000000000000018 1 -0 -0 0 2.2e-16 -1 0 1 2.2e-16 
1 0 74.986092823141391 19.000000000000018 1 -0 -0 0 2.2e-16 -1 0 1 2.2e-16 
1 0 98.832128158709466 19.000000000000021 1 -0 -0 0 2.2e-16 -1 0 1 2.2e-16 
1 0 98.832128158709466 19.000000000000021 1 -0 -0 0 2.2e-16 -1 0 1 2.2e-16 
1 0 74.986092823141391 19.000000000000018 1 -0 -0 0 2.2e-16 -1 0 1 2.2e-16 
1 0 74.986092823141391 19.000000000000018 1 -0 -0 0 2.2e-16 -1 0 1 2.2e-16 
1 0 74.652676493649679 19.000000000000018 1 -0 -0 0 2.2e-16 -1 0 1 2.2e-16 
1 0 74.652676493649679 19.000000000000018 1 -0 -0 0 2.2e-16 -1 0 1 2.2e-16 
Triangulations 0

TShapes 8
Ve
1e-07
0 19 0
0 0

0101101
*
Ed
 1e-07 1 1 0
1  1 0 0 99.5369019915329
0

0101000
+8 5 -8 7 *
Ve
1e-07
0 -1 0
0 0

0101101
*
Ed
 1e-07 1 1 0
1  2 0 0 99.5369019915329
0

0101000
+6 5 -6 7 *
Ed
 1e-07 1 1 0
1  3 0 0 20
2  1 2 12 0 20
2  2 2 14 0 20
2  3 3 19 0 20
2  4 3 21 0 20
2  5 4 26 0 20
2  6 4 28 0 20
2  7 5 33 0 20
2  8 5 35 0 20
2  9 6 40 0 20
2  10 6 42 0 20
2  11 7 47 0 20
2  12 7 49 0 20
2  13 8 54 0 20
2  14 8 56 0 20
2  15 9 61 0 20
2  16 9 63 0 20
2  17 10 68 0 20
2  18 10 70 0 20
2  19 11 75 0 20
2  20 11 77 0 20
2  21 12 82 0 20
2  22 12 84 0 20
2  23 13 89 0 20
2  24 13 91 0 20
2  25 14 96 0 20
2  26 14 98 0 20
2  27 15 103 0 20
2  28 15 105 0 20
2  29 16 110 0 20
2  30 16 112 0 20
2  31 17 117 0 20
2  32 17 119 0 20
2  33 18 124 0 20
2  34 18 126 0 20
2  35 19 131 0 20
2  36 19 133 0 20
2  37 20 138 0 20
2  38 20 140 0 20
2  39 21 145 0 20
2  40 21 147 0 20
2  41 22 152 0 20
2  42 22 154 0 20
2  43 23 159 0 20
2  44 23 161 0 20
2  45 24 166 0 20
2  46 24 168 0 20
2  47 25 173 0 20
2  48 25 175 0 20
2  49 26 180 0 20
2  50 26 182 0 20
2  51 27 187 0 20
2  52 27 189 0 20
2  53 28 194 0 20
2  54 28 196 0 20
2  55 29 201 0 20
2  56 29 203 0 20
2  57 30 208 0 20
2  58 30 210 0 20
2  59 31 215 0 20
2  60 31 217 0 20
2  61 32 222 0 20
2  62 32 224 0 20
2  63 33 229 0 20
2  64 33 231 0 20
2  65 34 236 0 20
2  66 34 238 0 20
2  67 35 243 0 20
2  68 35 245 0 20
2  69 36 250 0 20
2  70 36 252 0 20
2  71 37 257 0 20
2  72 37 259 0 20
2  73 38 264 0 20
2  74 38 266 0 20
5  1 0
0

0101000
+8 0 -6 0 *
Wi

0101100
+7 0 -5 0 -4 5 +4 7 *
Fa
0  1e-07 1 0

0101000
+3 0 *
Sh

1101000
+2 0 *

+1 0 