DBRep_DrawableShape

CASCADE Topology V3, (c) Open Cascade
Locations 269
1
              1               0               0               0 
              0               1               0               0 
              0               0               1               0 
1
              1               0               0               0 
              0 -2.22044604925031e-16              -1               0 
              0               1 -2.22044604925031e-16               0 
1
              1               0               0 5.52540801899309e-21 
              0               1               0 24.8842254978832 
              0               0               1 5.52540801954287e-15 
1
              1               0               0 1.10508160379862e-20 
              0               1               0 49.7684509957665 
              0               0               1 1.10508160390857e-14 
2  1 1 2 1 3 1 4 1 0
1
              1               0               0 -24.8842254978708 
              0               1               0               0 
              0               0               1 2.48842254953948e-05 
2  1 1 2 1 3 1 4 1 6 1 0
1
              1               0               0 -2.21016320759724e-20 
              0               1               0 -99.5369019915329 
              0               0               1 -2.21016320781715e-14 
2  1 1 2 1 3 1 4 1 8 1 0
2  1 1 2 1 3 1 4 1 8 1 6 1 0
1
              1               0               0               0 
              0               1               0 49.9907285487609 
              0               0               1         1.1e-14 
1
              1               0               0               0 
              0               1               0 24.9953642743805 
              0               0               1           6e-15 
1
              1               0               0               0 
              0              -0              -1               0 
              0               1              -0               0 
1
              1               0               0               0 
              0               1               0               0 
              0               0               1               0 
2  11 -1 12 -1 13 -1 14 -1 0
1
              1               0               0              -0 
              0               1               0 -99.9814570975219 
              0               0               1        -2.2e-14 
2  16 -1 11 -1 12 -1 13 -1 14 -1 0
1
              1               0               0               0 
              0               1               0 49.9907285487609 
              0               0               1         1.1e-14 
1
              1               0               0               0 
              0               1               0 24.9953642743805 
              0               0               1           6e-15 
1
              1               0               0               0 
              0              -0              -1               0 
              0               1              -0               0 
1
              1               0               0               0 
              0               1               0               0 
              0               0               1               0 
2  18 -1 19 -1 20 -1 21 -1 0
1
              1               0               0              -0 
              0               1               0 -99.9814570975219 
              0               0               1        -2.2e-14 
2  23 -1 18 -1 19 -1 20 -1 21 -1 0
1
              1               0               0               0 
              0               1               0 49.9907285487609 
              0               0               1         1.1e-14 
1
              1               0               0               0 
              0               1               0 24.9953642743805 
              0               0               1           6e-15 
1
              1               0               0               0 
              0              -0              -1               0 
              0               1              -0               0 
1
              1               0               0               0 
              0               1               0               0 
              0               0               1               0 
2  25 -1 26 -1 27 -1 28 -1 0
1
              1               0               0              -0 
              0               1               0 -99.9814570975219 
              0               0               1        -2.2e-14 
2  30 -1 25 -1 26 -1 27 -1 28 -1 0
1
              1               0               0               0 
              0               1               0 49.9907285487609 
              0               0               1         1.1e-14 
1
              1               0               0               0 
              0               1               0 24.9953642743805 
              0               0               1           6e-15 
1
              1               0               0               0 
              0              -0              -1               0 
              0               1              -0               0 
1
              1               0               0               0 
              0               1               0               0 
              0               0               1               0 
2  32 -1 33 -1 34 -1 35 -1 0
1
              1               0               0              -0 
              0               1               0 -99.9814570975219 
              0               0               1        -2.2e-14 
2  37 -1 32 -1 33 -1 34 -1 35 -1 0
1
              1               0               0               0 
              0               1               0 49.9907285487609 
              0               0               1         1.1e-14 
1
              1               0               0               0 
              0               1               0 24.9953642743805 
              0               0               1           6e-15 
1
              1               0               0               0 
              0              -0              -1               0 
              0               1              -0               0 
1
              1               0               0               0 
              0               1               0               0 
              0               0               1               0 
2  39 -1 40 -1 41 -1 42 -1 0
1
              1               0               0              -0 
              0               1               0 -99.9814570975219 
              0               0               1        -2.2e-14 
2  44 -1 39 -1 40 -1 41 -1 42 -1 0
1
              1               0               0               0 
              0               1               0 49.9907285487609 
              0               0               1         1.1e-14 
1
              1               0               0               0 
              0               1               0 24.9953642743805 
              0               0               1           6e-15 
1
              1               0               0               0 
              0              -0              -1               0 
              0               1              -0               0 
1
              1               0               0               0 
              0               1               0               0 
              0               0               1               0 
2  46 -1 47 -1 48 -1 49 -1 0
1
              1               0               0              -0 
              0               1               0 -99.9814570975219 
              0               0               1        -2.2e-14 
2  51 -1 46 -1 47 -1 48 -1 49 -1 0
1
              1               0               0               0 
              0               1               0 49.9907285487609 
              0               0               1         1.1e-14 
1
              1               0               0               0 
              0               1               0 24.9953642743805 
              0               0               1           6e-15 
1
              1               0               0               0 
              0              -0              -1               0 
              0               1              -0               0 
1
              1               0               0               0 
              0               1               0               0 
              0               0               1               0 
2  53 -1 54 -1 55 -1 56 -1 0
1
              1               0               0              -0 
              0               1               0 -99.9814570975219 
              0               0               1        -2.2e-14 
2  58 -1 53 -1 54 -1 55 -1 56 -1 0
1
              1               0               0               0 
              0               1               0 49.9907285487609 
              0               0               1         1.1e-14 
1
              1               0               0               0 
              0               1               0 24.9953642743805 
              0               0               1           6e-15 
1
              1               0               0               0 
              0              -0              -1               0 
              0               1              -0               0 
1
              1               0               0               0 
              0               1               0               0 
              0               0               1               0 
2  60 -1 61 -1 62 -1 63 -1 0
1
              1               0               0              -0 
              0               1               0 -99.9814570975219 
              0               0               1        -2.2e-14 
2  65 -1 60 -1 61 -1 62 -1 63 -1 0
1
              1               0               0               0 
              0               1               0 49.9907285487609 
              0               0               1         1.1e-14 
1
              1               0               0               0 
              0               1               0 24.9953642743805 
              0               0               1           6e-15 
1
              1               0               0               0 
              0              -0              -1               0 
              0               1              -0               0 
1
              1               0               0               0 
              0               1               0               0 
              0               0               1               0 
2  67 -1 68 -1 69 -1 70 -1 0
1
              1               0               0              -0 
              0               1               0 -99.9814570975219 
              0               0               1        -2.2e-14 
2  72 -1 67 -1 68 -1 69 -1 70 -1 0
1
              1               0               0               0 
              0               1               0 49.9907285487609 
              0               0               1         1.1e-14 
1
              1               0               0               0 
              0               1               0 24.9953642743805 
              0               0               1           6e-15 
1
              1               0               0               0 
              0              -0              -1               0 
              0               1              -0               0 
1
              1               0               0               0 
              0               1               0               0 
              0               0               1               0 
2  74 -1 75 -1 76 -1 77 -1 0
1
              1               0               0              -0 
              0               1               0 -99.9814570975219 
              0               0               1        -2.2e-14 
2  79 -1 74 -1 75 -1 76 -1 77 -1 0
1
              1               0               0               0 
              0               1               0 49.9907285487609 
              0               0               1         1.1e-14 
1
              1               0               0               0 
              0               1               0 24.9953642743805 
              0               0               1           6e-15 
1
              1               0               0               0 
              0              -0              -1               0 
              0               1              -0               0 
1
              1               0               0               0 
              0               1               0               0 
              0               0               1               0 
2  81 -1 82 -1 83 -1 84 -1 0
1
              1               0               0              -0 
              0               1               0 -99.9814570975219 
              0               0               1        -2.2e-14 
2  86 -1 81 -1 82 -1 83 -1 84 -1 0
1
              1               0               0               0 
              0               1               0 49.9907285487609 
              0               0               1         1.1e-14 
1
              1               0               0               0 
              0               1               0 24.9953642743805 
              0               0               1           6e-15 
1
              1               0               0               0 
              0              -0              -1               0 
              0               1              -0               0 
1
              1               0               0               0 
              0               1               0               0 
              0               0               1               0 
2  88 -1 89 -1 90 -1 91 -1 0
1
              1               0               0              -0 
              0               1               0 -99.9814570975219 
              0               0               1        -2.2e-14 
2  93 -1 88 -1 89 -1 90 -1 91 -1 0
1
              1               0               0               0 
              0               1               0 49.9907285487609 
              0               0               1         1.1e-14 
1
              1               0               0               0 
              0               1               0 24.9953642743805 
              0               0               1           6e-15 
1
              1               0               0               0 
              0              -0              -1               0 
              0               1              -0               0 
1
              1               0               0               0 
              0               1               0               0 
              0               0               1               0 
2  95 -1 96 -1 97 -1 98 -1 0
1
              1               0               0              -0 
              0               1               0 -99.9814570975219 
              0               0               1        -2.2e-14 
2  100 -1 95 -1 96 -1 97 -1 98 -1 0
1
              1               0               0               0 
              0               1               0 49.9907285487609 
              0               0               1         1.1e-14 
1
              1               0               0               0 
              0               1               0 24.9953642743805 
              0               0               1           6e-15 
1
              1               0               0               0 
              0              -0              -1               0 
              0               1              -0               0 
1
              1               0               0               0 
              0               1               0               0 
              0               0               1               0 
2  102 -1 103 -1 104 -1 105 -1 0
1
              1               0               0              -0 
              0               1               0 -99.9814570975219 
              0               0               1        -2.2e-14 
2  107 -1 102 -1 103 -1 104 -1 105 -1 0
1
              1               0               0               0 
              0               1               0 49.9907285487609 
              0               0               1         1.1e-14 
1
              1               0               0               0 
              0               1               0 24.9953642743805 
              0               0               1           6e-15 
1
              1               0               0               0 
              0              -0              -1               0 
              0               1              -0               0 
1
              1               0               0               0 
              0               1               0               0 
              0               0               1               0 
2  109 -1 110 -1 111 -1 112 -1 0
1
              1               0               0              -0 
              0               1               0 -99.9814570975219 
              0               0               1        -2.2e-14 
2  114 -1 109 -1 110 -1 111 -1 112 -1 0
1
              1               0               0               0 
              0               1               0 49.9907285487609 
              0               0               1         1.1e-14 
1
              1               0               0               0 
              0               1               0 24.9953642743805 
              0               0               1           6e-15 
1
              1               0               0               0 
              0              -0              -1               0 
              0               1              -0               0 
1
              1               0               0               0 
              0               1               0               0 
              0               0               1               0 
2  116 -1 117 -1 118 -1 119 -1 0
1
              1               0               0              -0 
              0               1               0 -99.9814570975219 
              0               0               1        -2.2e-14 
2  121 -1 116 -1 117 -1 118 -1 119 -1 0
1
              1               0               0               0 
              0               1               0 49.9907285487609 
              0               0               1         1.1e-14 
1
              1               0               0               0 
              0               1               0 24.9953642743805 
              0               0               1           6e-15 
1
              1               0               0               0 
              0              -0              -1               0 
              0               1              -0               0 
1
              1               0               0               0 
              0               1               0               0 
              0               0               1               0 
2  123 -1 124 -1 125 -1 126 -1 0
1
              1               0               0              -0 
              0               1               0 -99.9814570975219 
              0               0               1        -2.2e-14 
2  128 -1 123 -1 124 -1 125 -1 126 -1 0
1
              1               0               0               0 
              0               1               0 49.9907285487609 
              0               0               1         1.1e-14 
1
              1               0               0               0 
              0               1               0 24.9953642743805 
              0               0               1           6e-15 
1
              1               0               0               0 
              0              -0              -1               0 
              0               1              -0               0 
1
              1               0               0               0 
              0               1               0               0 
              0               0               1               0 
2  130 -1 131 -1 132 -1 133 -1 0
1
              1               0               0              -0 
              0               1               0 -99.9814570975219 
              0               0               1        -2.2e-14 
2  135 -1 130 -1 131 -1 132 -1 133 -1 0
1
              1               0               0               0 
              0               1               0 49.9907285487609 
              0               0               1         1.1e-14 
1
              1               0               0               0 
              0               1               0 24.9953642743805 
              0               0               1           6e-15 
1
              1               0               0               0 
              0              -0              -1               0 
              0               1              -0               0 
1
              1               0               0               0 
              0               1               0               0 
              0               0               1               0 
2  137 -1 138 -1 139 -1 140 -1 0
1
              1               0               0              -0 
              0               1               0 -99.9814570975219 
              0               0               1        -2.2e-14 
2  142 -1 137 -1 138 -1 139 -1 140 -1 0
1
              1               0               0               0 
              0               1               0 49.9907285487609 
              0               0               1         1.1e-14 
1
              1               0               0               0 
              0               1               0 24.9953642743805 
              0               0               1           6e-15 
1
              1               0               0               0 
              0              -0              -1               0 
              0               1              -0               0 
1
              1               0               0               0 
              0               1               0               0 
              0               0               1               0 
2  144 -1 145 -1 146 -1 147 -1 0
1
              1               0               0              -0 
              0               1               0 -99.9814570975219 
              0               0               1        -2.2e-14 
2  149 -1 144 -1 145 -1 146 -1 147 -1 0
1
              1               0               0               0 
              0               1               0 49.9907285487609 
              0               0               1         1.1e-14 
1
              1               0               0               0 
              0               1               0 24.9953642743805 
              0               0               1           6e-15 
1
              1               0               0               0 
              0              -0              -1               0 
              0               1              -0               0 
1
              1               0               0               0 
              0               1               0               0 
              0               0               1               0 
2  151 -1 152 -1 153 -1 154 -1 0
1
              1               0               0              -0 
              0               1               0 -99.9814570975219 
              0               0               1        -2.2e-14 
2  156 -1 151 -1 152 -1 153 -1 154 -1 0
1
              1               0               0               0 
              0               1               0 49.9907285487609 
              0               0               1         1.1e-14 
1
              1               0               0               0 
              0               1               0 24.9953642743805 
              0               0               1           6e-15 
1
              1               0               0               0 
              0              -0              -1               0 
              0               1              -0               0 
1
              1               0               0               0 
              0               1               0               0 
              0               0               1               0 
2  158 -1 159 -1 160 -1 161 -1 0
1
              1               0               0              -0 
              0               1               0 -99.9814570975219 
              0               0               1        -2.2e-14 
2  163 -1 158 -1 159 -1 160 -1 161 -1 0
1
              1               0               0               0 
              0               1               0 49.9907285487609 
              0               0               1         1.1e-14 
1
              1               0               0               0 
              0               1               0 24.9953642743805 
              0               0               1           6e-15 
1
              1               0               0               0 
              0              -0              -1               0 
              0               1              -0               0 
1
              1               0               0               0 
              0               1               0               0 
              0               0               1               0 
2  165 -1 166 -1 167 -1 168 -1 0
1
              1               0               0              -0 
              0               1               0 -99.9814570975219 
              0               0               1        -2.2e-14 
2  170 -1 165 -1 166 -1 167 -1 168 -1 0
1
              1               0               0               0 
              0               1               0 50.1553422662735 
              0               0               1         1.1e-14 
1
              1               0               0               0 
              0               1               0 25.0776711331368 
              0               0               1           6e-15 
1
              1               0               0               0 
              0              -0              -1               0 
              0               1              -0               0 
1
              1               0               0               0 
              0               1               0               0 
              0               0               1               0 
2  172 -1 173 -1 174 -1 175 -1 0
1
              1               0               0              -0 
              0               1               0 -100.310684532547 
              0               0               1        -2.2e-14 
2  177 -1 172 -1 173 -1 174 -1 175 -1 0
1
              1               0               0               0 
              0               1               0 50.1553422662735 
              0               0               1         1.1e-14 
1
              1               0               0               0 
              0               1               0 25.0776711331368 
              0               0               1           6e-15 
1
              1               0               0               0 
              0              -0              -1               0 
              0               1              -0               0 
1
              1               0               0               0 
              0               1               0               0 
              0               0               1               0 
2  179 -1 180 -1 181 -1 182 -1 0
1
              1               0               0              -0 
              0               1               0 -100.310684532547 
              0               0               1        -2.2e-14 
2  184 -1 179 -1 180 -1 181 -1 182 -1 0
1
              1               0               0               0 
              0               1               0 49.9907285487609 
              0               0               1         1.1e-14 
1
              1               0               0               0 
              0               1               0 24.9953642743805 
              0               0               1           6e-15 
1
              1               0               0               0 
              0              -0              -1               0 
              0               1              -0               0 
1
              1               0               0               0 
              0               1               0               0 
              0               0               1               0 
2  186 -1 187 -1 188 -1 189 -1 0
1
              1               0               0              -0 
              0               1               0 -99.9814570975219 
              0               0               1        -2.2e-14 
2  191 -1 186 -1 187 -1 188 -1 189 -1 0
1
              1               0               0               0 
              0               1               0 49.9907285487609 
              0               0               1         1.1e-14 
1
              1               0               0               0 
              0               1               0 24.9953642743805 
              0               0               1           6e-15 
1
              1               0               0               0 
              0              -0              -1               0 
              0               1              -0               0 
1
              1               0               0               0 
              0               1               0               0 
              0               0               1               0 
2  193 -1 194 -1 195 -1 196 -1 0
1
              1               0               0              -0 
              0               1               0 -99.9814570975219 
              0               0               1        -2.2e-14 
2  198 -1 193 -1 194 -1 195 -1 196 -1 0
1
              1               0               0               0 
              0               1               0 49.9907285487609 
              0               0               1         1.1e-14 
1
              1               0               0               0 
              0               1               0 24.9953642743805 
              0               0               1           6e-15 
1
              1               0               0               0 
              0              -0              -1               0 
              0               1              -0               0 
1
              1               0               0               0 
              0               1               0               0 
              0               0               1               0 
2  200 -1 201 -1 202 -1 203 -1 0
1
              1               0               0              -0 
              0               1               0 -99.9814570975219 
              0               0               1        -2.2e-14 
2  205 -1 200 -1 201 -1 202 -1 203 -1 0
1
              1               0               0               0 
              0               1               0 49.9907285487609 
              0               0               1         1.1e-14 
1
              1               0               0               0 
              0               1               0 24.9953642743805 
              0               0               1           6e-15 
1
              1               0               0               0 
              0              -0              -1               0 
              0               1              -0               0 
1
              1               0               0               0 
              0               1               0               0 
              0               0               1               0 
2  207 -1 208 -1 209 -1 210 -1 0
1
              1               0               0              -0 
              0               1               0 -99.9814570975219 
              0               0               1        -2.2e-14 
2  212 -1 207 -1 208 -1 209 -1 210 -1 0
1
              1               0               0               0 
              0               1               0 49.9907285487609 
              0               0               1         1.1e-14 
1
              1               0               0               0 
              0               1               0 24.9953642743805 
              0               0               1           6e-15 
1
              1               0               0               0 
              0              -0              -1               0 
              0               1              -0               0 
1
              1               0               0               0 
              0               1               0               0 
              0               0               1               0 
2  214 -1 215 -1 216 -1 217 -1 0
1
              1               0               0              -0 
              0               1               0 -99.9814570975219 
              0               0               1        -2.2e-14 
2  219 -1 214 -1 215 -1 216 -1 217 -1 0
1
              1               0               0               0 
              0               1               0 49.9907285487609 
              0               0               1         1.1e-14 
1
              1               0               0               0 
              0               1               0 24.9953642743805 
              0               0               1           6e-15 
1
              1               0               0               0 
              0              -0              -1               0 
              0               1              -0               0 
1
              1               0               0               0 
              0               1               0               0 
              0               0               1               0 
2  221 -1 222 -1 223 -1 224 -1 0
1
              1               0               0              -0 
              0               1               0 -99.9814570975219 
              0               0               1        -2.2e-14 
2  226 -1 221 -1 222 -1 223 -1 224 -1 0
1
              1               0               0               0 
              0               1               0 65.8880854391396 
              0               0               1         1.5e-14 
1
              1               0               0               0 
              0               1               0 32.9440427195698 
              0               0               1           7e-15 
1
              1               0               0               0 
              0              -0              -1               0 
              0               1              -0               0 
1
              1               0               0               0 
              0               1               0               0 
              0               0               1               0 
2  228 -1 229 -1 230 -1 231 -1 0
1
              1               0               0              -0 
              0               1               0 -131.776170878279 
              0               0               1        -2.9e-14 
2  233 -1 228 -1 229 -1 230 -1 231 -1 0
1
              1               0               0               0 
              0               1               0 65.8880854391396 
              0               0               1         1.5e-14 
1
              1               0               0               0 
              0               1               0 32.9440427195698 
              0               0               1           7e-15 
1
              1               0               0               0 
              0              -0              -1               0 
              0               1              -0               0 
1
              1               0               0               0 
              0               1               0               0 
              0               0               1               0 
2  235 -1 236 -1 237 -1 238 -1 0
1
              1               0               0              -0 
              0               1               0 -131.776170878279 
              0               0               1        -2.9e-14 
2  240 -1 235 -1 236 -1 237 -1 238 -1 0
1
              1               0               0               0 
              0               1               0 49.9907285487609 
              0               0               1         1.1e-14 
1
              1               0               0               0 
              0               1               0 24.9953642743805 
              0               0               1           6e-15 
1
              1               0               0               0 
              0              -0              -1               0 
              0               1              -0               0 
1
              1               0               0               0 
              0               1               0               0 
              0               0               1               0 
2  242 -1 243 -1 244 -1 245 -1 0
1
              1               0               0              -0 
              0               1               0 -99.9814570975219 
              0               0               1        -2.2e-14 
2  247 -1 242 -1 243 -1 244 -1 245 -1 0
1
              1               0               0               0 
              0               1               0 49.9907285487609 
              0               0               1         1.1e-14 
1
              1               0               0               0 
              0               1               0 24.9953642743805 
              0               0               1           6e-15 
1
              1               0               0               0 
              0              -0              -1               0 
              0               1              -0               0 
1
              1               0               0               0 
              0               1               0               0 
              0               0               1               0 
2  249 -1 250 -1 251 -1 252 -1 0
1
              1               0               0              -0 
              0               1               0 -99.9814570975219 
              0               0               1        -2.2e-14 
2  254 -1 249 -1 250 -1 251 -1 252 -1 0
1
              1               0               0               0 
              0               1               0 49.7684509957665 
              0               0               1         1.1e-14 
1
              1               0               0               0 
              0               1               0 24.8842254978832 
              0               0               1           6e-15 
1
              1               0               0               0 
              0              -0              -1               0 
              0               1              -0               0 
1
              1               0               0               0 
              0               1               0               0 
              0               0               1               0 
2  256 -1 257 -1 258 -1 259 -1 0
1
              1               0               0              -0 
              0               1               0 -99.5369019915329 
              0               0               1        -2.2e-14 
2  261 -1 256 -1 257 -1 258 -1 259 -1 0
1
              1               0               0               0 
              0               1               0 49.7684509957665 
              0               0               1         1.1e-14 
1
              1               0               0               0 
              0               1               0 24.8842254978832 
              0               0               1           6e-15 
1
              1               0               0               0 
              0              -0              -1               0 
              0               1              -0               0 
1
              1               0               0               0 
              0               1               0               0 
              0               0               1               0 
2  263 -1 264 -1 265 -1 266 -1 0
1
              1               0               0              -0 
              0               1               0 -99.5369019915329 
              0               0               1        -2.2e-14 
2  268 -1 263 -1 264 -1 265 -1 266 -1 0
Curve2ds 74
1 0 0 1 0 
1 2.67e-15 -99.981457097521854 1 0 
1 0 0 1 0 
1 2.67e-15 -99.981457097521854 1 0 
1 0 0 1 0 
1 2.67e-15 -99.981457097521854 1 0 
1 0 0 1 0 
1 2.67e-15 -99.981457097521854 1 0 
1 0 0 1 0 
1 2.67e-15 -99.981457097521854 1 0 
1 0 0 1 0 
1 2.67e-15 -99.981457097521854 1 0 
1 0 0 1 0 
1 2.67e-15 -99.981457097521854 1 0 
1 0 0 1 0 
1 2.67e-15 -99.981457097521854 1 0 
1 0 0 1 0 
1 2.67e-15 -99.981457097521854 1 0 
1 0 0 1 0 
1 2.67e-15 -99.981457097521854 1 0 
1 0 0 1 0 
1 2.67e-15 -99.981457097521854 1 0 
1 0 0 1 0 
1 2.67e-15 -99.981457097521854 1 0 
1 0 0 1 0 
1 2.67e-15 -99.981457097521854 1 0 
1 0 0 1 0 
1 2.67e-15 -99.981457097521854 1 0 
1 0 0 1 0 
1 2.67e-15 -99.981457097521854 1 0 
1 0 0 1 0 
1 2.67e-15 -99.981457097521854 1 0 
1 0 0 1 0 
1 2.67e-15 -99.981457097521854 1 0 
1 0 0 1 0 
1 2.67e-15 -99.981457097521854 1 0 
1 0 0 1 0 
1 2.67e-15 -99.981457097521854 1 0 
1 0 0 1 0 
1 2.67e-15 -99.981457097521854 1 0 
1 0 0 1 0 
1 2.67e-15 -99.981457097521854 1 0 
1 0 0 1 0 
1 2.67e-15 -99.981457097521854 1 0 
1 0 0 1 0 
1 2.67e-15 -99.981457097521854 1 0 
1 0 0 1 0 
1 2.6e-15 -100.3106845325471 1 0 
1 0 0 1 0 
1 2.6e-15 -100.3106845325471 1 0 
1 0 0 1 0 
1 2.67e-15 -99.981457097521854 1 0 
1 0 0 1 0 
1 2.67e-15 -99.981457097521854 1 0 
1 0 0 1 0 
1 2.67e-15 -99.981457097521854 1 0 
1 0 0 1 0 
1 2.67e-15 -99.981457097521854 1 0 
1 0 0 1 0 
1 2.67e-15 -99.981457097521854 1 0 
1 0 0 1 0 
1 2.67e-15 -99.981457097521854 1 0 
1 0 0 1 0 
1 -8.4000000000000004e-16 -131.77617087827929 1 0 
1 0 0 1 0 
1 -8.4000000000000004e-16 -131.77617087827929 1 0 
1 0 0 1 0 
1 2.67e-15 -99.981457097521854 1 0 
1 0 0 1 0 
1 2.67e-15 -99.981457097521854 1 0 
1 0 0 1 0 
1 2.77e-15 -99.536901991532915 1 0 
1 0 0 1 0 
1 2.77e-15 -99.536901991532915 1 0 
Curves 7
1 1.657622405697928e-20 74.652676493649679 19.000000000000018 -0.99999999999950007 0 9.9999999990000009e-07 
1 -5.5254080189930935e-21 -24.884225497883229 18.999999999999993 -0.99999999999950007 0 9.9999999990000009e-07 
1 1.657622405697928e-20 74.652676493649679 19.000000000000018 -2.2204460490293788e-22 -1 -2.2204460492503131e-16 
1 1.657622405697928e-20 74.652676493649679 -0.99999999999998346 -0.99999999999950007 0 9.9999999990000009e-07 
1 -5.5254080189930935e-21 -24.884225497883225 -1.0000000000000056 -0.99999999999950007 0 9.9999999990000009e-07 
1 1.657622405697928e-20 74.652676493649679 -0.99999999999998346 -2.2204460490293788e-22 -1 -2.2204460492503131e-16 
1 0 19 0 0 -1 0 
Polygon3D 1
2 1
0.0333333333333333
0 19 0 0 -1 0 
0 20 
PolygonOnTriangulations 0
Surfaces 42
1 1.657622405697928e-20 74.652676493649679 19.000000000000018 9.9999999990000009e-07 -2.2204460492514234e-16 0.99999999999950007 -2.2204460490293783e-22 -1 -2.2204460492503126e-16 0.99999999999950007 0 -9.9999999990000009e-07 
1 1.657622405697928e-20 74.652676493649679 -0.99999999999998346 9.9999999990000009e-07 -2.2204460492514234e-16 0.99999999999950007 -2.2204460490293783e-22 -1 -2.2204460492503126e-16 0.99999999999950007 0 -9.9999999990000009e-07 
1 1.657622405697928e-20 74.652676493649679 19.000000000000018 -2.2204460490293788e-22 -1 -2.2204460492503131e-16 0 2.2204460492503131e-16 -1 1 -2.2204460490293788e-22 -4.9303806571407512e-38 
1 0 74.986092823141391 19.000000000000018 1 -0 -0 0 2.2e-16 -1 0 1 2.2e-16 
1 0 74.986092823141391 19.000000000000018 1 -0 -0 0 2.2e-16 -1 0 1 2.2e-16 
1 0 74.986092823141391 19.000000000000018 1 -0 -0 0 2.2e-16 -1 0 1 2.2e-16 
1 0 74.986092823141391 19.000000000000018 1 -0 -0 0 2.2e-16 -1 0 1 2.2e-16 
1 0 74.986092823141391 19.000000000000018 1 -0 -0 0 2.2e-16 -1 0 1 2.2e-16 
1 0 74.986092823141391 19.000000000000018 1 -0 -0 0 2.2e-16 -1 0 1 2.2e-16 
1 0 74.986092823141391 19.000000000000018 1 -0 -0 0 2.2e-16 -1 0 1 2.2e-16 
1 0 74.986092823141391 19.000000000000018 1 -0 -0 0 2.2e-16 -1 0 1 2.2e-16 
1 0 74.986092823141391 19.000000000000018 1 -0 -0 0 2.2e-16 -1 0 1 2.2e-16 
1 0 74.986092823141391 19.000000000000018 1 -0 -0 0 2.2e-16 -1 0 1 2.2e-16 
1 0 74.986092823141391 19.000000000000018 1 -0 -0 0 2.2e-16 -1 0 1 2.2e-16 
1 0 74.986092823141391 19.000000000000018 1 -0 -0 0 2.2e-16 -1 0 1 2.2e-16 
1 0 74.986092823141391 19.000000000000018 1 -0 -0 0 2.2e-16 -1 0 1 2.2e-16 
1 0 74.986092823141391 19.000000000000018 1 -0 -0 0 2.2e-16 -1 0 1 2.2e-16 
1 0 74.986092823141391 19.000000000000018 1 -0 -0 0 2.2e-16 -1 0 1 2.2e-16 
1 0 74.986092823141391 19.000000000000018 1 -0 -0 0 2.2e-16 -1 0 1 2.2e-16 
1 0 74.986092823141391 19.000000000000018 1 -0 -0 0 2.2e-16 -1 0 1 2.2e-16 
1 0 74.986092823141391 19.000000000000018 1 -0 -0 0 2.2e-16 -1 0 1 2.2e-16 
1 0 74.986092823141391 19.000000000000018 1 -0 -0 0 2.2e-16 -1 0 1 2.2e-16 
1 0 74.986092823141391 19.000000000000018 1 -0 -0 0 2.2e-16 -1 0 1 2.2e-16 
1 0 74.986092823141391 19.000000000000018 1 -0 -0 0 2.2e-16 -1 0 1 2.2e-16 
1 0 74.986092823141391 19.000000000000018 1 -0 -0 0 2.2e-16 -1 0 1 2.2e-16 
1 0 74.986092823141391 19.000000000000018 1 -0 -0 0 2.2e-16 -1 0 1 2.2e-16 
1 0 75.233013399410325 19.000000000000018 1 -0 -0 0 2.2e-16 -1 0 1 2.2e-16 
1 0 75.233013399410325 19.000000000000018 1 -0 -0 0 2.2e-16 -1 0 1 2.2e-16 
1 0 74.986092823141391 19.000000000000018 1 -0 -0 0 2.2e-16 -1 0 1 2.2e-16 
1 0 74.986092823141391 19.000000000000018 1 -0 -0 0 2.2e-16 -1 0 1 2.2e-16 
1 0 74.986092823141391 19.000000000000018 1 -0 -0 0 2.2e-16 -1 0 1 2.2e-16 
1 0 74.986092823141391 19.000000000000018 1 -0 -0 0 2.2e-16 -1 0 1 2.2e-16 
1 0 74.986092823141391 19.000000000000018 1 -0 -0 0 2.2e-16 -1 0 1 2.2e-16 
1 0 74.986092823141391 19.000000000000018 1 -0 -0 0 2.2e-16 -1 0 1 2.2e-16 
1 0 98.832128158709466 19.000000000000021 1 -0 -0 0 2.2e-16 -1 0 1 2.2e-16 
1 0 98.832128158709466 19.000000000000021 1 -0 -0 0 2.2e-16 -1 0 1 2.2e-16 
1 0 74.986092823141391 19.000000000000018 1 -0 -0 0 2.2e-16 -1 0 1 2.2e-16 
1 0 74.986092823141391 19.000000000000018 1 -0 -0 0 2.2e-16 -1 0 1 2.2e-16 
1 0 74.652676493649679 19.000000000000018 1 -0 -0 0 2.2e-16 -1 0 1 2.2e-16 
1 0 74.652676493649679 19.000000000000018 1 -0 -0 0 2.2e-16 -1 0 1 2.2e-16 
1 -5.5254080189930935e-21 -24.884225497883229 18.999999999999993 -2.2204460490293788e-22 -1 -2.2204460492503131e-16 0 2.2204460492503131e-16 -1 1 -2.2204460490293788e-22 -4.9303806571407512e-38 
1 1.657622405697928e-20 74.652676493649679 19.000000000000018 1 -2.2204460490293788e-22 -4.9303806571407512e-38 0 2.2204460492503131e-16 -1 2.2204460490293788e-22 1 2.2204460492503131e-16 
Triangulations 0

TShapes 22
Ve
1e-07
0 19 0
0 0

0101101
*
Ed
 1e-07 1 1 0
1  1 0 0 24.8842254978832
0

0101000
+22 5 -22 7 *
Ed
 1e-07 1 1 0
1  2 0 0 24.8842254978832
0

0101000
+22 9 -22 10 *
Ed
 1e-07 1 1 0
1  3 0 0 99.5369019915329
0

0101000
+22 5 -22 9 *
Wi

0101100
+21 0 -20 0 -19 0 +19 6 *
Fa
0  1e-07 1 0

0101000
+18 0 *
Ve
1e-07
0 -1 0
0 0

0101101
*
Ed
 1e-07 1 1 0
1  4 0 0 24.8842254978832
0

0101000
+16 5 -16 7 *
Ed
 1e-07 1 1 0
1  5 0 0 24.8842254978832
0

0101000
+16 9 -16 10 *
Ed
 1e-07 1 1 0
1  6 0 0 99.5369019915329
0

0101000
+16 5 -16 9 *
Wi

0101100
+15 0 -14 0 -13 0 +13 6 *
Fa
0  1e-07 2 0

0101000
+12 0 *
Ed
 1e-07 1 1 0
1  7 0 0 20
2  1 4 15 0 20
2  2 4 17 0 20
2  3 5 22 0 20
2  4 5 24 0 20
2  5 6 29 0 20
2  6 6 31 0 20
2  7 7 36 0 20
2  8 7 38 0 20
2  9 8 43 0 20
2  10 8 45 0 20
2  11 9 50 0 20
2  12 9 52 0 20
2  13 10 57 0 20
2  14 10 59 0 20
2  15 11 64 0 20
2  16 11 66 0 20
2  17 12 71 0 20
2  18 12 73 0 20
2  19 13 78 0 20
2  20 13 80 0 20
2  21 14 85 0 20
2  22 14 87 0 20
2  23 15 92 0 20
2  24 15 94 0 20
2  25 16 99 0 20
2  26 16 101 0 20
2  27 17 106 0 20
2  28 17 108 0 20
2  29 18 113 0 20
2  30 18 115 0 20
2  31 19 120 0 20
2  32 19 122 0 20
2  33 20 127 0 20
2  34 20 129 0 20
2  35 21 134 0 20
2  36 21 136 0 20
2  37 22 141 0 20
2  38 22 143 0 20
2  39 23 148 0 20
2  40 23 150 0 20
2  41 24 155 0 20
2  42 24 157 0 20
2  43 25 162 0 20
2  44 25 164 0 20
2  45 26 169 0 20
2  46 26 171 0 20
2  47 27 176 0 20
2  48 27 178 0 20
2  49 28 183 0 20
2  50 28 185 0 20
2  51 29 190 0 20
2  52 29 192 0 20
2  53 30 197 0 20
2  54 30 199 0 20
2  55 31 204 0 20
2  56 31 206 0 20
2  57 32 211 0 20
2  58 32 213 0 20
2  59 33 218 0 20
2  60 33 220 0 20
2  61 34 225 0 20
2  62 34 227 0 20
2  63 35 232 0 20
2  64 35 234 0 20
2  65 36 239 0 20
2  66 36 241 0 20
2  67 37 246 0 20
2  68 37 248 0 20
2  69 38 253 0 20
2  70 38 255 0 20
2  71 39 260 0 20
2  72 39 262 0 20
2  73 40 267 0 20
2  74 40 269 0 20
5  1 0
0

0101000
+22 0 -16 0 *
Wi

0101100
+21 0 -15 0 -10 5 +10 7 *
Fa
0  1e-07 3 0

0101000
+9 0 *
Wi

0101100
+20 0 -14 0 -10 9 +10 10 *
Fa
0  1e-07 41 0

0101000
+7 0 *
Wi

0101100
+19 0 -13 0 -10 5 +10 9 *
Fa
0  1e-07 42 0

0101000
+5 0 *
Sh

0101100
+17 0 -11 0 -8 0 +6 0 +4 0 -4 6 *
So

0100000
+3 0 *
Co

1100000
+2 0 *

+1 0 