M48
; DRILL file {KiCad (5.1.6)-1} date 12/27/20 15:21:15
; FORMAT={-:-/ absolute / inch / decimal}
; #@! TF.CreationDate,2020-12-27T15:21:15+01:00
; #@! TF.GenerationSoftware,Kicad,Pcbnew,(5.1.6)-1
FMAT,2
INCH
T1C0.0394
%
G90
G05
T1
X5.137Y-3.487
X5.137Y-3.587
X5.137Y-3.687
X5.137Y-3.787
X5.137Y-3.887
X5.137Y-3.987
X5.137Y-4.087
X5.137Y-4.187
X5.137Y-4.287
X5.137Y-4.387
X2.937Y-4.737
X3.037Y-4.737
X3.137Y-4.737
X3.237Y-4.737
X3.337Y-4.737
X3.437Y-4.737
X3.537Y-4.737
X3.637Y-4.737
X3.737Y-4.737
X3.837Y-4.737
X2.937Y-3.148
X3.037Y-3.148
X3.137Y-3.148
X3.237Y-3.148
X3.337Y-3.148
X3.437Y-3.148
X3.537Y-3.148
X3.637Y-3.148
X3.737Y-3.148
X3.837Y-3.148
X4.037Y-4.737
X4.137Y-4.737
X4.237Y-4.737
X4.337Y-4.737
X4.437Y-4.737
X4.537Y-4.737
X4.637Y-4.737
X4.737Y-4.737
X4.837Y-4.737
X4.937Y-4.737
X4.037Y-3.148
X4.137Y-3.148
X4.237Y-3.148
X4.337Y-3.148
X4.437Y-3.148
X4.537Y-3.148
X4.637Y-3.148
X4.737Y-3.148
X4.837Y-3.148
X4.937Y-3.148
T0
M30
