  0
SECTION
  2
HEADER
  9
$ACADVER
  1
AC1014
  9
$HANDSEED
  5
FFFF
  9
$MEASUREMENT
 70
     1
  0
ENDSEC
  0
SECTION
  2
TABLES
  0
TABLE
  2
VPORT
  5
8
330
0
100
AcDbSymbolTable
 70
     4
  0
VPORT
  5
2E
330
8
100
AcDbSymbolTableRecord
100
AcDbViewportTableRecord
  2
*ACTIVE
 70
     0
 10
0.0
 20
0.0
 11
1.0
 21
1.0
 12
210.0
 22
148.5
 13
0.0
 23
0.0
 14
10.0
 24
10.0
 15
10.0
 25
10.0
 16
0.0
 26
0.0
 36
1.0
 17
0.0
 27
0.0
 37
0.0
 40
341.0
 41
1.24
 42
50.0
 43
0.0
 44
0.0
 50
0.0
 51
0.0
 71
     0
 72
   100
 73
     1
 74
     3
 75
     0
 76
     0
 77
     0
 78
     0
  0
ENDTAB
  0
TABLE
  2
LTYPE
  5
5
330
0
100
AcDbSymbolTable
 70
     1
  0
LTYPE
  5
14
330
5
100
AcDbSymbolTableRecord
100
AcDbLinetypeTableRecord
  2
BYBLOCK
 70
     0
  3

 72
    65
 73
     0
 40
0.0
  0
LTYPE
  5
15
330
5
100
AcDbSymbolTableRecord
100
AcDbLinetypeTableRecord
  2
BYLAYER
 70
     0
  3

 72
    65
 73
     0
 40
0.0
  0
LTYPE
  5
16
330
5
100
AcDbSymbolTableRecord
100
AcDbLinetypeTableRecord
  2
CONTINUOUS
 70
     0
  3
Solid line
 72
    65
 73
     0
 40
0.0
  0
ENDTAB
  0
TABLE
  2
LAYER
  5
2
100
AcDbSymbolTable
 70
4
  0
LAYER
  5
50
100
AcDbSymbolTableRecord
100
AcDbLayerTableRecord
  2
0
 70
0
  6
CONTINUOUS
  0
LAYER
  5
51
100
AcDbSymbolTableRecord
100
AcDbLayerTableRecord
  2
Contour
 70
0
  6
CONTINUOUS
  0
LAYER
  5
52
100
AcDbSymbolTableRecord
100
AcDbLayerTableRecord
  2
Bend_Top
 70
0
  6
CONTINUOUS
  0
LAYER
  5
53
100
AcDbSymbolTableRecord
100
AcDbLayerTableRecord
  2
Bend_Bottom
 70
0
  6
CONTINUOUS
  0
ENDTAB
  0
TABLE
  2
STYLE
  5
3
330
0
100
AcDbSymbolTable
 70
     1
  0
STYLE
  5
11
330
3
100
AcDbSymbolTableRecord
100
AcDbTextStyleTableRecord
  2
STANDARD
 70
     0
 40
0.0
 41
1.0
 50
0.0
 71
     0
 42
2.5
  3
txt
  4

  0
ENDTAB
  0
TABLE
  2
VIEW
  5
6
330
0
100
AcDbSymbolTable
 70
     0
  0
ENDTAB
  0
TABLE
  2
UCS
  5
7
330
0
100
AcDbSymbolTable
 70
     0
  0
ENDTAB
  0
TABLE
  2
APPID
  5
9
330
0
100
AcDbSymbolTable
 70
     2
  0
APPID
  5
12
330
9
100
AcDbSymbolTableRecord
100
AcDbRegAppTableRecord
  2
ACAD
 70
     0
  0
ENDTAB
  0
TABLE
  2
DIMSTYLE
  5
A
330
0
100
AcDbSymbolTable
 70
     1
  0
DIMSTYLE
105
27
330
A
100
AcDbSymbolTableRecord
100
AcDbDimStyleTableRecord
  2
ISO-25
 70
     0
  3

  4

  5

  6

  7

 40
1.0
 41
2.5
 42
0.625
 43
3.75
 44
1.25
 45
0.0
 46
0.0
 47
0.0
 48
0.0
140
2.5
141
2.5
142
0.0
143
0.03937007874016
144
1.0
145
0.0
146
1.0
147
0.625
 71
     0
 72
     0
 73
     0
 74
     0
 75
     0
 76
     0
 77
     1
 78
     8
170
     0
171
     3
172
     1
173
     0
174
     0
175
     0
176
     0
177
     0
178
     0
270
     2
271
     2
272
     2
273
     2
274
     3
340
11
275
     0
280
     0
281
     0
282
     0
283
     0
284
     8
285
     0
286
     0
287
     3
288
     0
  0
ENDTAB
  0
TABLE
  2
BLOCK_RECORD
  5
1
330
0
100
AcDbSymbolTable
 70
     1
  0
BLOCK_RECORD
  5
1F
330
1
100
AcDbSymbolTableRecord
100
AcDbBlockTableRecord
  2
*MODEL_SPACE
  0
BLOCK_RECORD
  5
1B
330
1
100
AcDbSymbolTableRecord
100
AcDbBlockTableRecord
  2
*PAPER_SPACE
  0
ENDTAB
  0
ENDSEC
  0
SECTION
  2
BLOCKS
  0
BLOCK
  5
20
330
1F
100
AcDbEntity
  8
0
100
AcDbBlockBegin
  2
*MODEL_SPACE
 70
     0
 10
0.0
 20
0.0
 30
0.0
  3
*MODEL_SPACE
  1

  0
ENDBLK
  5
21
330
1F
100
AcDbEntity
  8
0
100
AcDbBlockEnd
  0
BLOCK
  5
1C
330
1B
100
AcDbEntity
 67
     1
  8
0
100
AcDbBlockBegin
  2
*PAPER_SPACE
  1

  0
ENDBLK
  5
1D
330
1B
100
AcDbEntity
 67
     1
  8
0
100
AcDbBlockEnd
  0
ENDSEC
  0
SECTION
  2
ENTITIES
  0
LWPOLYLINE
  5
100
100
AcDbEntity
  8
Bend_Top
 62
1
100
AcDbPolyline
 90
2
 70
0
 10
256.370055
 20
258.006528
 30
0.0
 10
273.870050
 20
258.006528
 30
0.0
  0
LWPOLYLINE
  5
101
100
AcDbEntity
  8
Bend_Top
 62
1
100
AcDbPolyline
 90
4
 70
0
 10
256.370055
 20
138.372261
 30
0.0
 10
273.870050
 20
138.372261
 30
0.0
 10
273.870050
 20
138.372261
 30
0.0
 10
273.870050
 20
138.372261
 30
0.0
  0
LWPOLYLINE
  5
102
100
AcDbEntity
  8
Bend_Top
 62
1
100
AcDbPolyline
 90
2
 70
0
 10
273.870050
 20
139.872264
 30
0.0
 10
256.370055
 20
139.872264
 30
0.0
  0
LWPOLYLINE
  5
103
100
AcDbEntity
  8
Bend_Top
 62
1
100
AcDbPolyline
 90
2
 70
0
 10
256.370055
 20
147.222256
 30
0.0
 10
273.870050
 20
147.222256
 30
0.0
  0
LWPOLYLINE
  5
104
100
AcDbEntity
  8
Bend_Top
 62
1
100
AcDbPolyline
 90
2
 70
0
 10
211.242132
 20
93.244346
 30
0.0
 10
211.242132
 20
75.744328
 30
0.0
  0
LWPOLYLINE
  5
105
100
AcDbEntity
  8
Bend_Top
 62
1
100
AcDbPolyline
 90
2
 70
0
 10
209.742132
 20
75.744328
 30
0.0
 10
209.742132
 20
93.244346
 30
0.0
  0
LWPOLYLINE
  5
106
100
AcDbEntity
  8
Bend_Top
 62
1
100
AcDbPolyline
 90
2
 70
0
 10
200.262133
 20
93.244346
 30
0.0
 10
200.262133
 20
75.744328
 30
0.0
  0
LWPOLYLINE
  5
107
100
AcDbEntity
  8
Bend_Top
 62
1
100
AcDbPolyline
 90
2
 70
0
 10
85.757861
 20
93.244346
 30
0.0
 10
85.757861
 20
75.744328
 30
0.0
  0
LWPOLYLINE
  5
108
100
AcDbEntity
  8
Bend_Top
 62
1
100
AcDbPolyline
 90
2
 70
0
 10
87.257861
 20
75.744328
 30
0.0
 10
87.257861
 20
93.244346
 30
0.0
  0
LWPOLYLINE
  5
109
100
AcDbEntity
  8
Bend_Top
 62
1
100
AcDbPolyline
 90
2
 70
0
 10
96.737861
 20
93.244346
 30
0.0
 10
96.737861
 20
75.744328
 30
0.0
  0
LWPOLYLINE
  5
10a
100
AcDbEntity
  8
Bend_Top
 62
1
100
AcDbPolyline
 90
2
 70
0
 10
40.629938
 20
138.372261
 30
0.0
 10
23.129939
 20
138.372261
 30
0.0
  0
LWPOLYLINE
  5
10b
100
AcDbEntity
  8
Bend_Top
 62
1
100
AcDbPolyline
 90
2
 70
0
 10
23.129939
 20
139.872264
 30
0.0
 10
40.629938
 20
139.872264
 30
0.0
  0
LWPOLYLINE
  5
10c
100
AcDbEntity
  8
Bend_Top
 62
1
100
AcDbPolyline
 90
2
 70
0
 10
40.629938
 20
147.222256
 30
0.0
 10
23.129939
 20
147.222256
 30
0.0
  0
LWPOLYLINE
  5
10d
100
AcDbEntity
  8
Bend_Top
 62
1
100
AcDbPolyline
 90
6
 70
1
 10
61.129939
 20
266.856529
 30
0.0
 10
61.129939
 20
291.484451
 30
0.0
 10
61.129939
 20
291.484451
 30
0.0
 10
85.757861
 20
291.484451
 30
0.0
 10
85.757861
 20
291.484451
 30
0.0
 10
61.129939
 20
266.856529
 30
0.0
  0
LWPOLYLINE
  5
10e
100
AcDbEntity
  8
Bend_Top
 62
1
100
AcDbPolyline
 90
4
 70
1
 10
211.242132
 20
291.484451
 30
0.0
 10
235.870054
 20
291.484451
 30
0.0
 10
235.870054
 20
266.856529
 30
0.0
 10
211.242132
 20
291.484451
 30
0.0
  0
LWPOLYLINE
  5
10f
100
AcDbEntity
  8
Bend_Top
 62
1
100
AcDbPolyline
 90
4
 70
1
 10
235.870054
 20
138.372261
 30
0.0
 10
235.870054
 20
113.744342
 30
0.0
 10
211.242132
 20
113.744342
 30
0.0
 10
235.870054
 20
138.372261
 30
0.0
  0
LWPOLYLINE
  5
110
100
AcDbEntity
  8
Bend_Top
 62
1
100
AcDbPolyline
 90
4
 70
1
 10
61.129939
 20
138.372261
 30
0.0
 10
85.757861
 20
113.744342
 30
0.0
 10
61.129939
 20
113.744342
 30
0.0
 10
61.129939
 20
138.372261
 30
0.0
  0
LWPOLYLINE
  5
111
100
AcDbEntity
  8
Bend_Top
 62
1
100
AcDbPolyline
 90
4
 70
0
 10
40.629938
 20
266.856529
 30
0.0
 10
23.129939
 20
266.856529
 30
0.0
 10
23.129939
 20
266.856529
 30
0.0
 10
23.129939
 20
266.856529
 30
0.0
  0
LWPOLYLINE
  5
112
100
AcDbEntity
  8
Bend_Top
 62
1
100
AcDbPolyline
 90
2
 70
0
 10
23.129939
 20
265.356529
 30
0.0
 10
40.629938
 20
265.356529
 30
0.0
  0
LWPOLYLINE
  5
113
100
AcDbEntity
  8
Bend_Top
 62
1
100
AcDbPolyline
 90
2
 70
0
 10
23.129939
 20
258.006528
 30
0.0
 10
40.629938
 20
258.006528
 30
0.0
  0
LWPOLYLINE
  5
114
100
AcDbEntity
  8
Bend_Top
 62
1
100
AcDbPolyline
 90
2
 70
0
 10
85.757861
 20
311.984449
 30
0.0
 10
85.757861
 20
329.484449
 30
0.0
  0
LWPOLYLINE
  5
115
100
AcDbEntity
  8
Bend_Top
 62
1
100
AcDbPolyline
 90
2
 70
0
 10
87.257861
 20
329.484449
 30
0.0
 10
87.257861
 20
311.984449
 30
0.0
  0
LWPOLYLINE
  5
116
100
AcDbEntity
  8
Bend_Top
 62
1
100
AcDbPolyline
 90
2
 70
0
 10
96.737861
 20
311.984449
 30
0.0
 10
96.737861
 20
329.484449
 30
0.0
  0
LWPOLYLINE
  5
117
100
AcDbEntity
  8
Bend_Top
 62
1
100
AcDbPolyline
 90
2
 70
0
 10
211.242132
 20
311.984449
 30
0.0
 10
211.242132
 20
329.484449
 30
0.0
  0
LWPOLYLINE
  5
118
100
AcDbEntity
  8
Bend_Top
 62
1
100
AcDbPolyline
 90
2
 70
0
 10
209.742132
 20
329.484449
 30
0.0
 10
209.742132
 20
311.984449
 30
0.0
  0
LWPOLYLINE
  5
119
100
AcDbEntity
  8
Bend_Top
 62
1
100
AcDbPolyline
 90
2
 70
0
 10
200.262133
 20
329.484449
 30
0.0
 10
200.262133
 20
311.984449
 30
0.0
  0
LWPOLYLINE
  5
11a
100
AcDbEntity
  8
Bend_Top
 62
1
100
AcDbPolyline
 90
2
 70
0
 10
256.370055
 20
266.856529
 30
0.0
 10
273.870050
 20
266.856529
 30
0.0
  0
LWPOLYLINE
  5
11b
100
AcDbEntity
  8
Bend_Top
 62
1
100
AcDbPolyline
 90
2
 70
0
 10
256.370055
 20
265.356529
 30
0.0
 10
273.870050
 20
265.356529
 30
0.0
  0
LWPOLYLINE
  5
11c
100
AcDbEntity
  8
Bend_Bottom
 62
5
100
AcDbPolyline
 90
2
 70
0
 10
112.627918
 20
264.614391
 30
0.0
 10
87.999996
 20
239.986469
 30
0.0
  0
LWPOLYLINE
  5
11d
100
AcDbEntity
  8
Bend_Bottom
 62
5
100
AcDbPolyline
 90
2
 70
0
 10
184.372075
 20
264.614391
 30
0.0
 10
208.999997
 20
239.986469
 30
0.0
  0
LWPOLYLINE
  5
11e
100
AcDbEntity
  8
Bend_Bottom
 62
5
100
AcDbPolyline
 90
3
 70
0
 10
208.999997
 20
165.242310
 30
0.0
 10
184.372075
 20
140.614393
 30
0.0
 10
184.372075
 20
140.614393
 30
0.0
  0
LWPOLYLINE
  5
11f
100
AcDbEntity
  8
Bend_Bottom
 62
5
100
AcDbPolyline
 90
2
 70
0
 10
112.627918
 20
140.614393
 30
0.0
 10
87.999996
 20
165.242310
 30
0.0
  0
LWPOLYLINE
  5
120
100
AcDbEntity
  8
Bend_Bottom
 62
5
100
AcDbPolyline
 90
2
 70
0
 10
112.627918
 20
264.614391
 30
0.0
 10
87.999996
 20
239.986469
 30
0.0
  0
LWPOLYLINE
  5
121
100
AcDbEntity
  8
Bend_Bottom
 62
5
100
AcDbPolyline
 90
2
 70
0
 10
184.372075
 20
264.614391
 30
0.0
 10
208.999997
 20
239.986469
 30
0.0
  0
LWPOLYLINE
  5
122
100
AcDbEntity
  8
Bend_Bottom
 62
5
100
AcDbPolyline
 90
3
 70
0
 10
208.999997
 20
165.242310
 30
0.0
 10
184.372075
 20
140.614393
 30
0.0
 10
184.372075
 20
140.614393
 30
0.0
  0
LWPOLYLINE
  5
123
100
AcDbEntity
  8
Bend_Bottom
 62
5
100
AcDbPolyline
 90
2
 70
0
 10
112.627918
 20
140.614393
 30
0.0
 10
87.999996
 20
165.242310
 30
0.0
  0
LWPOLYLINE
  5
124
100
AcDbEntity
  8
Bend_Bottom
 62
7
100
AcDbPolyline
 90
4
 70
0
 10
96.737861
 20
93.244346
 30
0.0
 10
87.257861
 20
93.244346
 30
0.0
 10
85.757861
 20
93.244346
 30
0.0
 10
85.757861
 20
113.744342
 30
0.0
  0
LWPOLYLINE
  5
125
100
AcDbEntity
  8
Bend_Bottom
 62
7
100
AcDbPolyline
 90
2
 70
0
 10
112.627918
 20
140.614393
 30
0.0
 10
85.757861
 20
113.744342
 30
0.0
  0
LWPOLYLINE
  5
126
100
AcDbEntity
  8
Bend_Bottom
 62
7
100
AcDbPolyline
 90
15
 70
0
 10
112.627918
 20
140.614393
 30
0.0
 10
184.372075
 20
140.614393
 30
0.0
 10
211.242132
 20
113.744342
 30
0.0
 10
211.242132
 20
93.244346
 30
0.0
 10
209.742132
 20
93.244346
 30
0.0
 10
200.262133
 20
93.244346
 30
0.0
 10
186.262132
 20
93.244346
 30
0.0
 10
186.262132
 20
75.744328
 30
0.0
 10
200.262133
 20
75.744328
 30
0.0
 10
209.742132
 20
75.744328
 30
0.0
 10
211.242132
 20
75.744328
 30
0.0
 10
235.870054
 20
75.744328
 30
0.0
 10
235.870054
 20
113.744342
 30
0.0
 10
273.870055
 20
113.744342
 30
0.0
 10
273.870055
 20
138.372261
 30
0.0
  0
LWPOLYLINE
  5
127
100
AcDbEntity
  8
Bend_Bottom
 62
7
100
AcDbPolyline
 90
2
 70
0
 10
273.870055
 20
139.872264
 30
0.0
 10
273.870055
 20
138.372261
 30
0.0
  0
LWPOLYLINE
  5
128
100
AcDbEntity
  8
Bend_Bottom
 62
7
100
AcDbPolyline
 90
2
 70
0
 10
273.870055
 20
147.222256
 30
0.0
 10
273.870055
 20
139.872264
 30
0.0
  0
LWPOLYLINE
  5
129
100
AcDbEntity
  8
Bend_Bottom
 62
7
100
AcDbPolyline
 90
2
 70
0
 10
273.870055
 20
161.222260
 30
0.0
 10
273.870055
 20
147.222256
 30
0.0
  0
LWPOLYLINE
  5
12a
100
AcDbEntity
  8
Bend_Bottom
 62
7
100
AcDbPolyline
 90
2
 70
0
 10
256.370055
 20
161.222260
 30
0.0
 10
273.870055
 20
161.222260
 30
0.0
  0
LWPOLYLINE
  5
12b
100
AcDbEntity
  8
Bend_Bottom
 62
7
100
AcDbPolyline
 90
2
 70
0
 10
256.370055
 20
147.222256
 30
0.0
 10
256.370055
 20
161.222260
 30
0.0
  0
LWPOLYLINE
  5
12c
100
AcDbEntity
  8
Bend_Bottom
 62
7
100
AcDbPolyline
 90
2
 70
0
 10
256.370055
 20
139.872264
 30
0.0
 10
256.370055
 20
147.222256
 30
0.0
  0
LWPOLYLINE
  5
12d
100
AcDbEntity
  8
Bend_Bottom
 62
7
100
AcDbPolyline
 90
2
 70
0
 10
256.370055
 20
138.372261
 30
0.0
 10
256.370055
 20
139.872264
 30
0.0
  0
LWPOLYLINE
  5
12e
100
AcDbEntity
  8
Bend_Bottom
 62
7
100
AcDbPolyline
 90
2
 70
0
 10
235.870054
 20
138.372261
 30
0.0
 10
256.370055
 20
138.372261
 30
0.0
  0
LWPOLYLINE
  5
12f
100
AcDbEntity
  8
Bend_Bottom
 62
7
100
AcDbPolyline
 90
2
 70
0
 10
208.999997
 20
165.242313
 30
0.0
 10
235.870054
 20
138.372261
 30
0.0
  0
LWPOLYLINE
  5
130
100
AcDbEntity
  8
Bend_Bottom
 62
7
100
AcDbPolyline
 90
2
 70
0
 10
208.999997
 20
239.986472
 30
0.0
 10
208.999997
 20
165.242313
 30
0.0
  0
LWPOLYLINE
  5
131
100
AcDbEntity
  8
Bend_Bottom
 62
7
100
AcDbPolyline
 90
16
 70
0
 10
208.999997
 20
239.986472
 30
0.0
 10
235.870054
 20
266.856531
 30
0.0
 10
256.370055
 20
266.856531
 30
0.0
 10
256.370055
 20
265.356532
 30
0.0
 10
256.370055
 20
258.006531
 30
0.0
 10
256.370055
 20
244.006530
 30
0.0
 10
273.870055
 20
244.006530
 30
0.0
 10
273.870055
 20
258.006531
 30
0.0
 10
273.870055
 20
265.356532
 30
0.0
 10
273.870055
 20
266.856531
 30
0.0
 10
273.870055
 20
291.484454
 30
0.0
 10
235.870054
 20
291.484454
 30
0.0
 10
235.870054
 20
329.484452
 30
0.0
 10
211.242132
 20
329.484452
 30
0.0
 10
209.742132
 20
329.484452
 30
0.0
 10
200.262133
 20
329.484452
 30
0.0
  0
LWPOLYLINE
  5
132
100
AcDbEntity
  8
Bend_Bottom
 62
7
100
AcDbPolyline
 90
2
 70
0
 10
186.262132
 20
329.484452
 30
0.0
 10
200.262133
 20
329.484452
 30
0.0
  0
LWPOLYLINE
  5
133
100
AcDbEntity
  8
Bend_Bottom
 62
7
100
AcDbPolyline
 90
2
 70
0
 10
186.262132
 20
311.984452
 30
0.0
 10
186.262132
 20
329.484452
 30
0.0
  0
LWPOLYLINE
  5
134
100
AcDbEntity
  8
Bend_Bottom
 62
7
100
AcDbPolyline
 90
2
 70
0
 10
200.262133
 20
311.984452
 30
0.0
 10
186.262132
 20
311.984452
 30
0.0
  0
LWPOLYLINE
  5
135
100
AcDbEntity
  8
Bend_Bottom
 62
7
100
AcDbPolyline
 90
4
 70
0
 10
200.262133
 20
311.984452
 30
0.0
 10
209.742132
 20
311.984452
 30
0.0
 10
211.242132
 20
311.984452
 30
0.0
 10
211.242132
 20
291.484454
 30
0.0
  0
LWPOLYLINE
  5
136
100
AcDbEntity
  8
Bend_Bottom
 62
7
100
AcDbPolyline
 90
2
 70
0
 10
184.372075
 20
264.614394
 30
0.0
 10
211.242132
 20
291.484454
 30
0.0
  0
SPLINE
  5
137
100
AcDbEntity
  8
Bend_Bottom
 62
7
100
AcDbSpline
 70
8
 71
3
 72
8
 73
4
 74
0
 40
0
 40
0
 40
0
 40
0
 40
1
 40
1
 40
1
 40
1
 10
138.499997
 20
239.614396
 30
0.0
 10
138.499997
 20
236.041741
 30
0.0
 10
140.405986
 20
232.740470
 30
0.0
 10
143.499997
 20
230.954142
 30
0.0
  0
SPLINE
  5
138
100
AcDbEntity
  8
Bend_Bottom
 62
7
100
AcDbSpline
 70
8
 71
3
 72
8
 73
4
 74
0
 40
0
 40
0
 40
0
 40
0
 40
1
 40
1
 40
1
 40
1
 10
143.499997
 20
230.954142
 30
0.0
 10
146.594007
 20
229.167814
 30
0.0
 10
150.405986
 20
229.167814
 30
0.0
 10
153.499997
 20
230.954142
 30
0.0
  0
SPLINE
  5
139
100
AcDbEntity
  8
Bend_Bottom
 62
7
100
AcDbSpline
 70
8
 71
3
 72
8
 73
4
 74
0
 40
0
 40
0
 40
0
 40
0
 40
1
 40
1
 40
1
 40
1
 10
153.499997
 20
230.954142
 30
0.0
 10
156.594008
 20
232.740470
 30
0.0
 10
158.499997
 20
236.041741
 30
0.0
 10
158.499997
 20
239.614396
 30
0.0
  0
LWPOLYLINE
  5
13a
100
AcDbEntity
  8
Bend_Bottom
 62
7
100
AcDbPolyline
 90
3
 70
0
 10
184.372075
 20
264.614394
 30
0.0
 10
158.499997
 20
264.614394
 30
0.0
 10
158.499997
 20
239.614396
 30
0.0
  0
LWPOLYLINE
  5
13b
100
AcDbEntity
  8
Bend_Bottom
 62
7
100
AcDbPolyline
 90
2
 70
0
 10
138.499997
 20
264.614394
 30
0.0
 10
138.499997
 20
239.614396
 30
0.0
  0
LWPOLYLINE
  5
13c
100
AcDbEntity
  8
Bend_Bottom
 62
7
100
AcDbPolyline
 90
2
 70
0
 10
112.627918
 20
264.614394
 30
0.0
 10
138.499997
 20
264.614394
 30
0.0
  0
LWPOLYLINE
  5
13d
100
AcDbEntity
  8
Bend_Bottom
 62
7
100
AcDbPolyline
 90
2
 70
0
 10
85.757861
 20
291.484454
 30
0.0
 10
112.627918
 20
264.614394
 30
0.0
  0
LWPOLYLINE
  5
13e
100
AcDbEntity
  8
Bend_Bottom
 62
7
100
AcDbPolyline
 90
3
 70
0
 10
85.757861
 20
291.484454
 30
0.0
 10
85.757861
 20
311.984452
 30
0.0
 10
87.257861
 20
311.984452
 30
0.0
  0
LWPOLYLINE
  5
13f
100
AcDbEntity
  8
Bend_Bottom
 62
7
100
AcDbPolyline
 90
2
 70
0
 10
96.737861
 20
311.984452
 30
0.0
 10
87.257861
 20
311.984452
 30
0.0
  0
LWPOLYLINE
  5
140
100
AcDbEntity
  8
Bend_Bottom
 62
7
100
AcDbPolyline
 90
2
 70
0
 10
110.737862
 20
311.984452
 30
0.0
 10
96.737861
 20
311.984452
 30
0.0
  0
LWPOLYLINE
  5
141
100
AcDbEntity
  8
Bend_Bottom
 62
7
100
AcDbPolyline
 90
2
 70
0
 10
110.737862
 20
329.484452
 30
0.0
 10
110.737862
 20
311.984452
 30
0.0
  0
LWPOLYLINE
  5
142
100
AcDbEntity
  8
Bend_Bottom
 62
7
100
AcDbPolyline
 90
2
 70
0
 10
96.737861
 20
329.484452
 30
0.0
 10
110.737862
 20
329.484452
 30
0.0
  0
LWPOLYLINE
  5
143
100
AcDbEntity
  8
Bend_Bottom
 62
7
100
AcDbPolyline
 90
2
 70
0
 10
87.257861
 20
329.484452
 30
0.0
 10
96.737861
 20
329.484452
 30
0.0
  0
LWPOLYLINE
  5
144
100
AcDbEntity
  8
Bend_Bottom
 62
7
100
AcDbPolyline
 90
2
 70
0
 10
87.257861
 20
329.484452
 30
0.0
 10
85.757861
 20
329.484452
 30
0.0
  0
LWPOLYLINE
  5
145
100
AcDbEntity
  8
Bend_Bottom
 62
7
100
AcDbPolyline
 90
2
 70
0
 10
61.129939
 20
329.484452
 30
0.0
 10
85.757861
 20
329.484452
 30
0.0
  0
LWPOLYLINE
  5
146
100
AcDbEntity
  8
Bend_Bottom
 62
7
100
AcDbPolyline
 90
2
 70
0
 10
61.129939
 20
291.484454
 30
0.0
 10
61.129939
 20
329.484452
 30
0.0
  0
LWPOLYLINE
  5
147
100
AcDbEntity
  8
Bend_Bottom
 62
7
100
AcDbPolyline
 90
2
 70
0
 10
23.129938
 20
291.484454
 30
0.0
 10
61.129939
 20
291.484454
 30
0.0
  0
LWPOLYLINE
  5
148
100
AcDbEntity
  8
Bend_Bottom
 62
7
100
AcDbPolyline
 90
2
 70
0
 10
23.129938
 20
266.856531
 30
0.0
 10
23.129938
 20
291.484454
 30
0.0
  0
LWPOLYLINE
  5
149
100
AcDbEntity
  8
Bend_Bottom
 62
7
100
AcDbPolyline
 90
9
 70
0
 10
23.129938
 20
266.856531
 30
0.0
 10
23.129938
 20
265.356532
 30
0.0
 10
23.129938
 20
258.006531
 30
0.0
 10
23.129938
 20
244.006530
 30
0.0
 10
40.629938
 20
244.006530
 30
0.0
 10
40.629938
 20
258.006531
 30
0.0
 10
40.629938
 20
265.356532
 30
0.0
 10
40.629938
 20
266.856531
 30
0.0
 10
61.129939
 20
266.856531
 30
0.0
  0
LWPOLYLINE
  5
14a
100
AcDbEntity
  8
Bend_Bottom
 62
7
100
AcDbPolyline
 90
2
 70
0
 10
87.999996
 20
239.986472
 30
0.0
 10
61.129939
 20
266.856531
 30
0.0
  0
LWPOLYLINE
  5
14b
100
AcDbEntity
  8
Bend_Bottom
 62
7
100
AcDbPolyline
 90
2
 70
0
 10
87.999996
 20
165.242313
 30
0.0
 10
87.999996
 20
239.986472
 30
0.0
  0
LWPOLYLINE
  5
14c
100
AcDbEntity
  8
Bend_Bottom
 62
7
100
AcDbPolyline
 90
2
 70
0
 10
87.999996
 20
165.242313
 30
0.0
 10
61.129939
 20
138.372261
 30
0.0
  0
LWPOLYLINE
  5
14d
100
AcDbEntity
  8
Bend_Bottom
 62
7
100
AcDbPolyline
 90
2
 70
0
 10
40.629938
 20
138.372261
 30
0.0
 10
61.129939
 20
138.372261
 30
0.0
  0
LWPOLYLINE
  5
14e
100
AcDbEntity
  8
Bend_Bottom
 62
7
100
AcDbPolyline
 90
2
 70
0
 10
40.629938
 20
139.872264
 30
0.0
 10
40.629938
 20
138.372261
 30
0.0
  0
LWPOLYLINE
  5
14f
100
AcDbEntity
  8
Bend_Bottom
 62
7
100
AcDbPolyline
 90
2
 70
0
 10
40.629938
 20
147.222256
 30
0.0
 10
40.629938
 20
139.872264
 30
0.0
  0
LWPOLYLINE
  5
150
100
AcDbEntity
  8
Bend_Bottom
 62
7
100
AcDbPolyline
 90
4
 70
0
 10
40.629938
 20
147.222256
 30
0.0
 10
40.629938
 20
161.222260
 30
0.0
 10
23.129938
 20
161.222260
 30
0.0
 10
23.129938
 20
147.222256
 30
0.0
  0
LWPOLYLINE
  5
151
100
AcDbEntity
  8
Bend_Bottom
 62
7
100
AcDbPolyline
 90
2
 70
0
 10
23.129938
 20
139.872264
 30
0.0
 10
23.129938
 20
147.222256
 30
0.0
  0
LWPOLYLINE
  5
152
100
AcDbEntity
  8
Bend_Bottom
 62
7
100
AcDbPolyline
 90
2
 70
0
 10
23.129938
 20
138.372261
 30
0.0
 10
23.129938
 20
139.872264
 30
0.0
  0
LWPOLYLINE
  5
153
100
AcDbEntity
  8
Bend_Bottom
 62
7
100
AcDbPolyline
 90
7
 70
0
 10
23.129938
 20
138.372261
 30
0.0
 10
23.129938
 20
113.744342
 30
0.0
 10
61.129939
 20
113.744342
 30
0.0
 10
61.129939
 20
75.744328
 30
0.0
 10
85.757861
 20
75.744328
 30
0.0
 10
87.257861
 20
75.744328
 30
0.0
 10
96.737861
 20
75.744328
 30
0.0
  0
LWPOLYLINE
  5
154
100
AcDbEntity
  8
Bend_Bottom
 62
7
100
AcDbPolyline
 90
2
 70
0
 10
110.737862
 20
75.744328
 30
0.0
 10
96.737861
 20
75.744328
 30
0.0
  0
LWPOLYLINE
  5
155
100
AcDbEntity
  8
Bend_Bottom
 62
7
100
AcDbPolyline
 90
2
 70
0
 10
110.737862
 20
93.244346
 30
0.0
 10
110.737862
 20
75.744328
 30
0.0
  0
LWPOLYLINE
  5
156
100
AcDbEntity
  8
Bend_Bottom
 62
7
100
AcDbPolyline
 90
2
 70
0
 10
96.737861
 20
93.244346
 30
0.0
 10
110.737862
 20
93.244346
 30
0.0
  0
LWPOLYLINE
  5
157
100
AcDbEntity
  8
Bend_Bottom
 62
7
100
AcDbPolyline
 90
4
 70
1
 10
191.072074
 20
257.914395
 30
0.0
 10
203.092889
 20
269.935210
 30
0.0
 10
215.820813
 20
257.207288
 30
0.0
 10
203.799996
 20
245.186474
 30
0.0
  0
LWPOLYLINE
  5
158
100
AcDbEntity
  8
Bend_Bottom
 62
7
100
AcDbPolyline
 90
4
 70
1
 10
105.927919
 20
147.314384
 30
0.0
 10
93.907105
 20
135.293570
 30
0.0
 10
81.179181
 20
148.021510
 30
0.0
 10
93.199998
 20
160.042324
 30
0.0
  0
LWPOLYLINE
  5
159
100
AcDbEntity
  8
Bend_Bottom
 62
7
100
AcDbPolyline
 90
4
 70
1
 10
93.199998
 20
245.186474
 30
0.0
 10
81.179181
 20
257.207288
 30
0.0
 10
93.907105
 20
269.935210
 30
0.0
 10
105.927919
 20
257.914395
 30
0.0
  0
LWPOLYLINE
  5
15a
100
AcDbEntity
  8
Bend_Bottom
 62
7
100
AcDbPolyline
 90
2
 70
0
 10
203.799996
 20
160.042324
 30
0.0
 10
191.072074
 20
147.314384
 30
0.0
  0
LWPOLYLINE
  5
15b
100
AcDbEntity
  8
Bend_Bottom
 62
7
100
AcDbPolyline
 90
2
 70
0
 10
215.820813
 20
148.021510
 30
0.0
 10
203.799996
 20
160.042324
 30
0.0
  0
LWPOLYLINE
  5
15c
100
AcDbEntity
  8
Bend_Bottom
 62
7
100
AcDbPolyline
 90
2
 70
0
 10
203.092889
 20
135.293570
 30
0.0
 10
215.820813
 20
148.021510
 30
0.0
  0
LWPOLYLINE
  5
15d
100
AcDbEntity
  8
Bend_Bottom
 62
7
100
AcDbPolyline
 90
2
 70
0
 10
191.072074
 20
147.314384
 30
0.0
 10
203.092889
 20
135.293570
 30
0.0
  0
ENDSEC
  0
SECTION
  2
OBJECTS
  0
DICTIONARY
  5
C
330
0
100
AcDbDictionary
  3
ACAD_GROUP
350
D
  3
ACAD_MLINESTYLE
350
17
  0
DICTIONARY
  5
D
330
C
100
AcDbDictionary
  0
DICTIONARY
  5
1A
330
C
100
AcDbDictionary
  0
DICTIONARY
  5
17
330
C
100
AcDbDictionary
  3
STANDARD
350
18
  0
DICTIONARY
  5
19
330
C
100
AcDbDictionary
  0
ENDSEC
  0
EOF
