  0
SECTION
  2
HEADER
  9
$ACADVER
  1
AC1009
  9
$INSBASE
 10
0.0
 20
0.0
 30
0.0
  9
$EXTMIN
 10
0.0
 20
0.0
 30
0.0
  9
$EXTMAX
 10
0.0
 20
0.0
 30
0.0
  0
ENDSEC
  0
SECTION
  2
TABLES
  0
TABLE
  2
VPORT
 70
0
  0
ENDTAB
  0
TABLE
  2
LTYPE
 70
1
  0
LTYPE
  2
CONTINUOUS
 70
0
  3
Solid line
 72
65
 73
0
 40
0.0
  0
ENDTAB
  0
TABLE
  2
LAYER
 70
1
  0
LAYER
  2
0
 70
64
 62
7
  6
continuous
  0
ENDTAB
  0
TABLE
  2
STYLE
 70
1
  0
STYLE
  2
STANDARD
 70
0
 40
0
 41
1.0
 50
0.0
 71
0
 42
1
 3
ARIAL.TTF
 4

  0
ENDTAB
  0
TABLE
  2
VIEW
 70
0
  0
ENDTAB
  0
ENDSEC
  0
SECTION
  2
BLOCKS
  0
BLOCK
  8
0
  2
PAD
 70
0
 10
0.0
 20
0.0
 30
0.0
  3
PAD
  0
LINE
  8
0
 62
0
 10
-125.37005768508874
 20
-64.24213562373103
 30
0.0
 11
-125.37005768508874
 21
-88.87005768508882
 31
0.0
  0
LINE
  8
0
 62
0
 10
-125.37005768508874
 20
-88.87005768508882
 30
0.0
 11
-87.37005768508874
 21
-88.87005768508882
 31
0.0
  0
LINE
  8
0
 62
0
 10
-87.37005768508874
 20
-88.87005768508882
 30
0.0
 11
-87.37005768508874
 21
-126.87005768508882
 31
0.0
  0
LINE
  8
0
 62
0
 10
-87.37005768508874
 20
-126.87005768508882
 30
0.0
 11
-62.74213562373093
 21
-126.87005768508882
 31
0.0
  0
LINE
  8
0
 62
0
 10
-62.74213562373093
 20
-126.87005768508882
 30
0.0
 11
-53.74213562373094
 21
-126.87005768508882
 31
0.0
  0
LINE
  8
0
 62
0
 10
-53.74213562373094
 20
-126.87005768508882
 30
0.0
 11
-37.74213562373094
 21
-126.87005768508882
 31
0.0
  0
LINE
  8
0
 62
0
 10
-37.74213562373094
 20
-126.87005768508882
 30
0.0
 11
-37.74213562373094
 21
-109.37005768508882
 31
0.0
  0
LINE
  8
0
 62
0
 10
-37.74213562373094
 20
-109.37005768508882
 30
0.0
 11
-53.74213562373094
 21
-109.37005768508882
 31
0.0
  0
LINE
  8
0
 62
0
 10
-53.74213562373094
 20
-109.37005768508882
 30
0.0
 11
-62.74213562373093
 21
-109.37005768508882
 31
0.0
  0
LINE
  8
0
 62
0
 10
-62.74213562373093
 20
-109.37005768508882
 30
0.0
 11
-62.74213562373093
 21
-88.87005768508882
 31
0.0
  0
LINE
  8
0
 62
0
 10
-35.87207793864216
 20
-61.999999999999986
 30
0.0
 11
-62.74213562373093
 21
-88.87005768508882
 31
0.0
  0
LINE
  8
0
 62
0
 10
-35.87207793864216
 20
-61.999999999999986
 30
0.0
 11
35.87207793864217
 21
-61.999999999999986
 31
0.0
  0
LINE
  8
0
 62
0
 10
35.87207793864217
 20
-61.999999999999986
 30
0.0
 11
62.74213562373099
 21
-88.8700576850888
 31
0.0
  0
LINE
  8
0
 62
0
 10
62.74213562373098
 20
-88.8700576850888
 30
0.0
 11
62.74213562373098
 21
-109.3700576850888
 31
0.0
  0
LINE
  8
0
 62
0
 10
62.74213562373098
 20
-109.3700576850888
 30
0.0
 11
53.74213562373098
 21
-109.3700576850888
 31
0.0
  0
LINE
  8
0
 62
0
 10
53.74213562373098
 20
-109.3700576850888
 30
0.0
 11
37.74213562373098
 21
-109.3700576850888
 31
0.0
  0
LINE
  8
0
 62
0
 10
37.74213562373098
 20
-109.3700576850888
 30
0.0
 11
37.74213562373098
 21
-126.8700576850888
 31
0.0
  0
LINE
  8
0
 62
0
 10
37.74213562373098
 20
-126.8700576850888
 30
0.0
 11
53.74213562373098
 21
-126.8700576850888
 31
0.0
  0
LINE
  8
0
 62
0
 10
53.74213562373098
 20
-126.8700576850888
 30
0.0
 11
62.74213562373098
 21
-126.8700576850888
 31
0.0
  0
LINE
  8
0
 62
0
 10
62.74213562373098
 20
-126.8700576850888
 30
0.0
 11
87.37005768508888
 21
-126.8700576850888
 31
0.0
  0
LINE
  8
0
 62
0
 10
87.37005768508888
 20
-126.8700576850888
 30
0.0
 11
87.37005768508888
 21
-88.8700576850888
 31
0.0
  0
LINE
  8
0
 62
0
 10
87.37005768508888
 20
-88.8700576850888
 30
0.0
 11
125.37005768508888
 21
-88.8700576850888
 31
0.0
  0
LINE
  8
0
 62
0
 10
125.37005768508888
 20
-88.8700576850888
 30
0.0
 11
125.37005768508888
 21
-64.24213562373089
 31
0.0
  0
LINE
  8
0
 62
0
 10
125.37005768508888
 20
-55.242135623730896
 30
0.0
 11
125.37005768508888
 21
-64.24213562373089
 31
0.0
  0
LINE
  8
0
 62
0
 10
125.37005768508888
 20
-39.242135623730896
 30
0.0
 11
125.37005768508888
 21
-55.242135623730896
 31
0.0
  0
LINE
  8
0
 62
0
 10
107.87005768508888
 20
-39.242135623730896
 30
0.0
 11
125.37005768508888
 21
-39.242135623730896
 31
0.0
  0
LINE
  8
0
 62
0
 10
107.87005768508888
 20
-55.242135623730896
 30
0.0
 11
107.87005768508888
 21
-39.242135623730896
 31
0.0
  0
LINE
  8
0
 62
0
 10
107.87005768508888
 20
-64.24213562373089
 30
0.0
 11
107.87005768508888
 21
-55.242135623730896
 31
0.0
  0
LINE
  8
0
 62
0
 10
87.37005768508888
 20
-64.24213562373089
 30
0.0
 11
107.87005768508888
 21
-64.24213562373089
 31
0.0
  0
LINE
  8
0
 62
0
 10
60.50000000000008
 20
-37.372077938642065
 30
0.0
 11
87.37005768508888
 21
-64.24213562373089
 31
0.0
  0
LINE
  8
0
 62
0
 10
60.50000000000008
 20
37.37207793864206
 30
0.0
 11
60.50000000000008
 21
-37.37207793864207
 31
0.0
  0
LINE
  8
0
 62
0
 10
60.50000000000008
 20
37.37207793864206
 30
0.0
 11
87.37005768508895
 21
64.24213562373082
 31
0.0
  0
LINE
  8
0
 62
0
 10
87.37005768508895
 20
64.24213562373082
 30
0.0
 11
107.87005768508895
 21
64.24213562373082
 31
0.0
  0
LINE
  8
0
 62
0
 10
107.87005768508895
 20
64.24213562373082
 30
0.0
 11
107.87005768508895
 21
55.24213562373082
 31
0.0
  0
LINE
  8
0
 62
0
 10
107.87005768508895
 20
55.24213562373082
 30
0.0
 11
107.87005768508895
 21
39.24213562373082
 31
0.0
  0
LINE
  8
0
 62
0
 10
107.87005768508895
 20
39.24213562373082
 30
0.0
 11
125.37005768508895
 21
39.24213562373082
 31
0.0
  0
LINE
  8
0
 62
0
 10
125.37005768508895
 20
39.24213562373082
 30
0.0
 11
125.37005768508895
 21
55.24213562373082
 31
0.0
  0
LINE
  8
0
 62
0
 10
125.37005768508895
 20
55.24213562373082
 30
0.0
 11
125.37005768508895
 21
64.24213562373082
 31
0.0
  0
LINE
  8
0
 62
0
 10
125.37005768508895
 20
64.24213562373082
 30
0.0
 11
125.37005768508895
 21
88.87005768508882
 31
0.0
  0
LINE
  8
0
 62
0
 10
125.37005768508895
 20
88.87005768508882
 30
0.0
 11
87.37005768508895
 21
88.87005768508882
 31
0.0
  0
LINE
  8
0
 62
0
 10
87.37005768508895
 20
88.87005768508882
 30
0.0
 11
87.37005768508895
 21
126.87005768508882
 31
0.0
  0
LINE
  8
0
 62
0
 10
87.37005768508895
 20
126.87005768508882
 30
0.0
 11
62.742135623730924
 21
126.87005768508882
 31
0.0
  0
LINE
  8
0
 62
0
 10
62.742135623730924
 20
126.87005768508882
 30
0.0
 11
53.742135623730924
 21
126.87005768508882
 31
0.0
  0
LINE
  8
0
 62
0
 10
53.742135623730924
 20
126.87005768508882
 30
0.0
 11
37.742135623730924
 21
126.87005768508882
 31
0.0
  0
LINE
  8
0
 62
0
 10
37.742135623730924
 20
126.87005768508882
 30
0.0
 11
37.742135623730924
 21
109.37005768508882
 31
0.0
  0
LINE
  8
0
 62
0
 10
37.742135623730924
 20
109.37005768508882
 30
0.0
 11
53.742135623730924
 21
109.37005768508882
 31
0.0
  0
LINE
  8
0
 62
0
 10
53.742135623730924
 20
109.37005768508882
 30
0.0
 11
62.742135623730924
 21
109.37005768508882
 31
0.0
  0
LINE
  8
0
 62
0
 10
62.742135623730924
 20
109.37005768508882
 30
0.0
 11
62.742135623730924
 21
88.87005768508882
 31
0.0
  0
LINE
  8
0
 62
0
 10
35.872077938642114
 20
62.000000000000014
 30
0.0
 11
62.74213562373093
 21
88.87005768508882
 31
0.0
  0
LINE
  8
0
 62
0
 10
35.872077938642114
 20
62.000000000000014
 30
0.0
 11
10.000000000000004
 21
62.00000000000002
 31
0.0
  0
LINE
  8
0
 62
0
 10
10.000000000000004
 20
62.00000000000002
 30
0.0
 11
10.000000000000004
 21
37.00000000000002
 31
0.0
  0
ARC
  8
0
 62
0
 10
1.4048563517663893e-15
 20
37.00000000000002
 30
0.0
 40
10.0
 50
-180.0
 51
-0.0
  0
LINE
  8
0
 62
0
 10
-9.999999999999998
 20
62.00000000000002
 30
0.0
 11
-9.999999999999998
 21
37.00000000000002
 31
0.0
  0
LINE
  8
0
 62
0
 10
-35.872077938642114
 20
62.000000000000014
 30
0.0
 11
-10.0
 21
62.00000000000002
 31
0.0
  0
LINE
  8
0
 62
0
 10
-62.742135623730924
 20
88.87005768508882
 30
0.0
 11
-35.87207793864211
 21
62.000000000000014
 31
0.0
  0
LINE
  8
0
 62
0
 10
-62.742135623730924
 20
88.87005768508882
 30
0.0
 11
-62.742135623730924
 21
109.37005768508882
 31
0.0
  0
LINE
  8
0
 62
0
 10
-62.742135623730924
 20
109.37005768508882
 30
0.0
 11
-53.742135623730924
 21
109.37005768508882
 31
0.0
  0
LINE
  8
0
 62
0
 10
-37.742135623730924
 20
109.37005768508882
 30
0.0
 11
-53.742135623730924
 21
109.37005768508882
 31
0.0
  0
LINE
  8
0
 62
0
 10
-37.742135623730924
 20
126.87005768508882
 30
0.0
 11
-37.742135623730924
 21
109.37005768508882
 31
0.0
  0
LINE
  8
0
 62
0
 10
-53.742135623730924
 20
126.87005768508882
 30
0.0
 11
-37.742135623730924
 21
126.87005768508882
 31
0.0
  0
LINE
  8
0
 62
0
 10
-53.742135623730924
 20
126.87005768508882
 30
0.0
 11
-62.742135623730924
 21
126.87005768508882
 31
0.0
  0
LINE
  8
0
 62
0
 10
-87.37005768508872
 20
126.87005768508882
 30
0.0
 11
-62.742135623730924
 21
126.87005768508882
 31
0.0
  0
LINE
  8
0
 62
0
 10
-87.37005768508872
 20
88.87005768508882
 30
0.0
 11
-87.37005768508872
 21
126.87005768508882
 31
0.0
  0
LINE
  8
0
 62
0
 10
-125.37005768508872
 20
88.87005768508882
 30
0.0
 11
-87.37005768508872
 21
88.87005768508882
 31
0.0
  0
LINE
  8
0
 62
0
 10
-125.37005768508872
 20
64.24213562373102
 30
0.0
 11
-125.37005768508872
 21
88.87005768508882
 31
0.0
  0
LINE
  8
0
 62
0
 10
-125.37005768508872
 20
64.24213562373102
 30
0.0
 11
-125.37005768508872
 21
55.242135623731016
 31
0.0
  0
LINE
  8
0
 62
0
 10
-125.37005768508872
 20
55.242135623731016
 30
0.0
 11
-125.37005768508872
 21
39.242135623731016
 31
0.0
  0
LINE
  8
0
 62
0
 10
-125.37005768508872
 20
39.242135623731016
 30
0.0
 11
-107.87005768508872
 21
39.242135623731016
 31
0.0
  0
LINE
  8
0
 62
0
 10
-107.87005768508872
 20
39.242135623731016
 30
0.0
 11
-107.87005768508872
 21
55.242135623731016
 31
0.0
  0
LINE
  8
0
 62
0
 10
-107.87005768508872
 20
55.242135623731016
 30
0.0
 11
-107.87005768508872
 21
64.24213562373102
 31
0.0
  0
LINE
  8
0
 62
0
 10
-107.87005768508872
 20
64.24213562373102
 30
0.0
 11
-87.37005768508872
 21
64.24213562373102
 31
0.0
  0
LINE
  8
0
 62
0
 10
-60.49999999999992
 20
37.37207793864221
 30
0.0
 11
-87.37005768508872
 21
64.24213562373102
 31
0.0
  0
LINE
  8
0
 62
0
 10
-60.49999999999992
 20
-37.372077938642214
 30
0.0
 11
-60.49999999999992
 21
37.3720779386422
 31
0.0
  0
LINE
  8
0
 62
0
 10
-60.49999999999992
 20
-37.372077938642214
 30
0.0
 11
-87.37005768508874
 21
-64.24213562373103
 31
0.0
  0
LINE
  8
0
 62
0
 10
-107.87005768508874
 20
-64.24213562373103
 30
0.0
 11
-87.37005768508874
 21
-64.24213562373103
 31
0.0
  0
LINE
  8
0
 62
0
 10
-107.87005768508874
 20
-55.24213562373103
 30
0.0
 11
-107.87005768508874
 21
-64.24213562373103
 31
0.0
  0
LINE
  8
0
 62
0
 10
-107.87005768508874
 20
-39.24213562373103
 30
0.0
 11
-107.87005768508874
 21
-55.24213562373103
 31
0.0
  0
LINE
  8
0
 62
0
 10
-125.37005768508874
 20
-39.24213562373103
 30
0.0
 11
-107.87005768508874
 21
-39.24213562373103
 31
0.0
  0
LINE
  8
0
 62
0
 10
-125.37005768508874
 20
-55.24213562373103
 30
0.0
 11
-125.37005768508874
 21
-39.24213562373103
 31
0.0
  0
LINE
  8
0
 62
0
 10
-125.37005768508874
 20
-64.24213562373103
 30
0.0
 11
-125.37005768508874
 21
-55.24213562373103
 31
0.0
  0
LINE
  8
0
 62
0
 10
42.572077938642444
 20
55.29999999999986
 30
0.0
 11
54.59289321881375
 21
67.32081528017117
 31
0.0
  0
LINE
  8
0
 62
0
 10
54.59289321881375
 20
67.32081528017117
 30
0.0
 11
67.32081528017484
 21
54.59289321880944
 31
0.0
  0
LINE
  8
0
 62
0
 10
67.32081528017484
 20
54.59289321880944
 30
0.0
 11
55.300000000003536
 21
42.57207793863813
 31
0.0
  0
LINE
  8
0
 62
0
 10
55.300000000003536
 20
42.57207793863813
 30
0.0
 11
42.572077938642444
 21
55.29999999999986
 31
0.0
  0
LINE
  8
0
 62
0
 10
-42.572077938639005
 20
-55.30000000000307
 30
0.0
 11
-54.592893218810296
 21
-67.32081528017439
 31
0.0
  0
LINE
  8
0
 62
0
 10
-54.592893218810296
 20
-67.32081528017439
 30
0.0
 11
-67.32081528017142
 21
-54.59289321881336
 31
0.0
  0
LINE
  8
0
 62
0
 10
-67.32081528017142
 20
-54.59289321881336
 30
0.0
 11
-55.300000000000125
 21
-42.57207793864204
 31
0.0
  0
LINE
  8
0
 62
0
 10
-55.300000000000125
 20
-42.57207793864204
 30
0.0
 11
-42.572077938639005
 21
-55.30000000000307
 31
0.0
  0
LINE
  8
0
 62
0
 10
55.300000000000296
 20
-42.57207793864197
 30
0.0
 11
42.57207793864133
 21
-55.3000000000007
 31
0.0
  0
LINE
  8
0
 62
0
 10
67.3208152801716
 20
-54.59289321881328
 30
0.0
 11
55.300000000000296
 21
-42.57207793864197
 31
0.0
  0
LINE
  8
0
 62
0
 10
54.592893218812634
 20
-67.32081528017201
 30
0.0
 11
67.3208152801716
 21
-54.59289321881328
 31
0.0
  0
LINE
  8
0
 62
0
 10
42.57207793864133
 20
-55.3000000000007
 30
0.0
 11
54.592893218812634
 21
-67.32081528017201
 31
0.0
  0
LINE
  8
0
 62
0
 10
-55.29999999999999
 20
42.572077938642146
 30
0.0
 11
-67.3208152801713
 21
54.59289321881345
 31
0.0
  0
LINE
  8
0
 62
0
 10
-67.3208152801713
 20
54.59289321881345
 30
0.0
 11
-54.592893218813444
 21
67.3208152801713
 31
0.0
  0
LINE
  8
0
 62
0
 10
-54.592893218813444
 20
67.3208152801713
 30
0.0
 11
-42.57207793864214
 21
55.3
 31
0.0
  0
LINE
  8
0
 62
0
 10
-42.57207793864214
 20
55.3
 30
0.0
 11
-55.29999999999999
 21
42.572077938642146
 31
0.0
  0
ENDBLK
  0
ENDSEC
  0
SECTION
  2
ENTITIES
  0
INSERT
  2
PAD
  8
0
 62
0
 10
0.0
 20
0.0
 30
0.0
  0
ENDSEC
  0
EOF
