999
FreeCAD v0.18 4 (GitTag)
  0
SECTION
  2
HEADER
  9
$ACADVER
  1
AC1014
  9
$ACADMAINTVER
 70
     9
  9
$DWGCODEPAGE
  3
ANSI_1252
  9
$TEXTSTYLE
  7
STANDARD
  9
$DIMSTYLE
  2
STANDARD
  9
$DIMTXSTY
  7
STANDARD
  9
$CMLSTYLE
  2
STANDARD
  9
$HANDSEED
  5
FFF
  0
ENDSEC
  0
SECTION
  2
CLASSES
  0
CLASS
  1
ACDBDICTIONARYWDFLT
  2
AcDbDictionaryWithDefault
  3
ObjectDBX Classes
 90
        0
280
     0
281
     0
  0
CLASS
  1
XRECORD
  2
AcDbXrecord
  3
ObjectDBX Classes
 90
        0
280
     0
281
     0
  0
CLASS
  1
LWPOLYLINE
  2
AcDbPolyline
  3
ObjectDBX Classes
 90
        0
280
     0
281
     1
  0
ENDSEC
  0
SECTION
  2
TABLES
  0
TABLE
  2
VPORT
  5
20
330
0
100
AcDbSymbolTable
 70
     1
  0
VPORT
  5
21
330
20
100
AcDbSymbolTableRecord
100
AcDbViewportTableRecord
  2
*ACTIVE
 70
     0
  0
ENDTAB
  0
TABLE
  2
LTYPE
  5
22
330
0
100
AcDbSymbolTable
 70
     1
  0
LTYPE
  5
23
330
21
100
AcDbSymbolTableRecord
100
AcDbLinetypeTableRecord
  2
BYBLOCK
 70
     0
  3

 72
    65
 73
     0
 40
0.0
  0
LTYPE
  5
24
330
21
100
AcDbSymbolTableRecord
100
AcDbLinetypeTableRecord
  2
BYLAYER
 70
     0
  3

 72
    65
 73
     0
 40
0.0
  0
LTYPE
  5
25
330
21
100
AcDbSymbolTableRecord
100
AcDbLinetypeTableRecord
  2
CONTINUOUS
 70
     0
  3
Solid line
 72
    65
 73
     0
 40
0.0
  0
ENDTAB
  0
TABLE
  2
LAYER
  5
31
330
0
100
AcDbSymbolTable
 70
2
  0
LAYER
  5
32
330
31
100
AcDbSymbolTableRecord
100
AcDbLayerTableRecord
  2
0
 70
   0
 62
   7
  6
CONTINUOUS
  0
LAYER
  5
33
330
31
100
AcDbSymbolTableRecord
100
AcDbLayerTableRecord
  2
ProjItem
 70
    0
 62
    7
  6
CONTINUOUS
  0
ENDTAB
  0
TABLE
  2
STYLE
  5
60
330
0
100
AcDbSymbolTable
 70
     2
  0
STYLE
  5
61
330
60
100
AcDbSymbolTableRecord
100
AcDbTextStyleTableRecord
  2
STANDARD
 70
     0
 40
0.0
 41
1.0
 50
0.0
 71
     0
 42
2.5
  3
arial.ttf
  4

  0
STYLE
  5
62
330
60
100
AcDbSymbolTableRecord
100
AcDbTextStyleTableRecord
  2
ANNOTATIVE
 70
     0
 40
0.0
 41
1.0
 50
0.0
 71
     0
 42
2.5
  3
arial.ttf
  4

  0
ENDTAB
  0
TABLE
  2
VIEW
  5
63
330
0
100
AcDbSymbolTable
 70
     0
  0
ENDTAB
  0
TABLE
  2
UCS
  5
64
330
0
100
AcDbSymbolTable
 70
     0
  0
ENDTAB
  0
TABLE
  2
APPID
  5
65
330
0
100
AcDbSymbolTable
 70
     2
  0
APPID
  5
66
330
65
100
AcDbSymbolTableRecord
100
AcDbRegAppTableRecord
  2
ACAD
 70
     0
  0
APPID
  5
67
330
65
100
AcDbSymbolTableRecord
100
AcDbRegAppTableRecord
  2
ACADANNOTATIVE
 70
     0
  0
ENDTAB
  0
TABLE
  2
DIMSTYLE
  5
68
330
0
100
AcDbSymbolTable
 70
     2
  0
DIMSTYLE
105
69
330
68
100
AcDbSymbolTableRecord
100
AcDbDimStyleTableRecord
  2
STANDARD
 70
     0
  3

  4

  5

  6

  7

 40
0.0
 41
2.5
 42
0.625
 43
3.75
 44
1.25
 45
0.0
 46
0.0
 47
0.0
 48
0.0
140
2.5
141
2.5
142
0.0
143
0.03937007874016
144
1.0
145
0.0
146
1.0
147
0.625
 71
     0
 72
     0
 73
     0
 74
     0
 75
     0
 76
     0
 77
     1
 78
     8
170
     0
171
     3
172
     1
173
     0
174
     0
175
     0
176
     0
177
     0
178
     0
270
     2
271
     2
272
     2
273
     2
274
     3
340
61
275
     0
280
     0
281
     0
282
     0
283
     0
284
     8
285
     0
286
     0
287
     3
288
     0
  0
ENDTAB
  0
TABLE
  2
BLOCK_RECORD
  5
111
330
0
100
AcDbSymbolTable
  70
5
  0
BLOCK_RECORD
  5
112
330
111
100
AcDbSymbolTableRecord
100
AcDbBlockTableRecord
  2
*MODEL_SPACE
  0
BLOCK_RECORD
  5
113
330
111
100
AcDbSymbolTableRecord
100
AcDbBlockTableRecord
  2
*PAPER_SPACE
  0
ENDTAB
  0
ENDSEC
  0
SECTION
  2
BLOCKS
  0
BLOCK
  5
211
330
112
100
AcDbEntity
  8
0
100
AcDbBlockBegin
  2
*MODEL_SPACE
 70
   0
 10
0
 20
0
 30
0
  3
*MODEL_SPACE
  1
 
  0
ENDBLK
  5
212
330
112
100
AcDbEntity
  8
0
100
AcDbBlockEnd
  0
BLOCK
  5
213
330
113
100
AcDbEntity
 67
1
  8
0
100
AcDbBlockBegin
  2
*PAPER_SPACE
 70
   0
 10
0
 20
0
 30
0
  3
*PAPER_SPACE
  1
 
  0
ENDBLK
  5
214
330
113
100
AcDbEntity
 67
    1
  8
0
100
AcDbBlockEnd
  0
ENDSEC
  0
SECTION
  2
ENTITIES
  0
LINE
  5
301
330
112
100
AcDbEntity
  8
ProjItem
100
AcDbLine
 10
149.764
 20
307.081
 30
0
 11
176.635
 21
280.211
 31
0
  0
LINE
  5
302
330
112
100
AcDbEntity
  8
ProjItem
100
AcDbLine
 10
176.635
 20
280.211
 30
0
 11
247.379
 21
280.211
 31
0
  0
LINE
  5
303
330
112
100
AcDbEntity
  8
ProjItem
100
AcDbLine
 10
247.379
 20
280.211
 30
0
 11
274.249
 21
307.081
 31
0
  0
LINE
  5
304
330
112
100
AcDbEntity
  8
ProjItem
100
AcDbLine
 10
274.249
 20
327.581
 30
0
 11
274.249
 21
307.081
 31
0
  0
LINE
  5
305
330
112
100
AcDbEntity
  8
ProjItem
100
AcDbLine
 10
265.249
 20
327.581
 30
0
 11
274.249
 21
327.581
 31
0
  0
LINE
  5
306
330
112
100
AcDbEntity
  8
ProjItem
100
AcDbLine
 10
249.249
 20
327.581
 30
0
 11
265.249
 21
327.581
 31
0
  0
LINE
  5
307
330
112
100
AcDbEntity
  8
ProjItem
100
AcDbLine
 10
249.249
 20
345.081
 30
0
 11
249.249
 21
327.581
 31
0
  0
LINE
  5
308
330
112
100
AcDbEntity
  8
ProjItem
100
AcDbLine
 10
265.249
 20
345.081
 30
0
 11
249.249
 21
345.081
 31
0
  0
LINE
  5
309
330
112
100
AcDbEntity
  8
ProjItem
100
AcDbLine
 10
274.249
 20
345.081
 30
0
 11
265.249
 21
345.081
 31
0
  0
LINE
  5
30A
330
112
100
AcDbEntity
  8
ProjItem
100
AcDbLine
 10
299.877
 20
345.081
 30
0
 11
274.249
 21
345.081
 31
0
  0
LINE
  5
30B
330
112
100
AcDbEntity
  8
ProjItem
100
AcDbLine
 10
299.877
 20
307.081
 30
0
 11
299.877
 21
345.081
 31
0
  0
LINE
  5
30C
330
112
100
AcDbEntity
  8
ProjItem
100
AcDbLine
 10
337.877
 20
307.081
 30
0
 11
299.877
 21
307.081
 31
0
  0
LINE
  5
30D
330
112
100
AcDbEntity
  8
ProjItem
100
AcDbLine
 10
337.877
 20
281.453
 30
0
 11
337.877
 21
307.081
 31
0
  0
LINE
  5
30E
330
112
100
AcDbEntity
  8
ProjItem
100
AcDbLine
 10
337.877
 20
272.453
 30
0
 11
337.877
 21
281.453
 31
0
  0
LINE
  5
30F
330
112
100
AcDbEntity
  8
ProjItem
100
AcDbLine
 10
337.877
 20
256.453
 30
0
 11
337.877
 21
272.453
 31
0
  0
LINE
  5
310
330
112
100
AcDbEntity
  8
ProjItem
100
AcDbLine
 10
320.377
 20
256.453
 30
0
 11
337.877
 21
256.453
 31
0
  0
LINE
  5
311
330
112
100
AcDbEntity
  8
ProjItem
100
AcDbLine
 10
320.377
 20
272.453
 30
0
 11
320.377
 21
256.453
 31
0
  0
LINE
  5
312
330
112
100
AcDbEntity
  8
ProjItem
100
AcDbLine
 10
320.377
 20
281.453
 30
0
 11
320.377
 21
272.453
 31
0
  0
LINE
  5
313
330
112
100
AcDbEntity
  8
ProjItem
100
AcDbLine
 10
299.877
 20
281.453
 30
0
 11
320.377
 21
281.453
 31
0
  0
LINE
  5
314
330
112
100
AcDbEntity
  8
ProjItem
100
AcDbLine
 10
273.007
 20
254.583
 30
0
 11
299.877
 21
281.453
 31
0
  0
LINE
  5
315
330
112
100
AcDbEntity
  8
ProjItem
100
AcDbLine
 10
273.007
 20
254.583
 30
0
 11
273.007
 21
180.839
 31
0
  0
LINE
  5
316
330
112
100
AcDbEntity
  8
ProjItem
100
AcDbLine
 10
273.007
 20
180.839
 30
0
 11
299.877
 21
153.969
 31
0
  0
LINE
  5
317
330
112
100
AcDbEntity
  8
ProjItem
100
AcDbLine
 10
299.877
 20
153.969
 30
0
 11
320.377
 21
153.969
 31
0
  0
LINE
  5
318
330
112
100
AcDbEntity
  8
ProjItem
100
AcDbLine
 10
320.377
 20
153.969
 30
0
 11
320.377
 21
162.969
 31
0
  0
LINE
  5
319
330
112
100
AcDbEntity
  8
ProjItem
100
AcDbLine
 10
320.377
 20
162.969
 30
0
 11
320.377
 21
178.969
 31
0
  0
LINE
  5
31A
330
112
100
AcDbEntity
  8
ProjItem
100
AcDbLine
 10
320.377
 20
178.969
 30
0
 11
337.877
 21
178.969
 31
0
  0
LINE
  5
31B
330
112
100
AcDbEntity
  8
ProjItem
100
AcDbLine
 10
337.877
 20
178.969
 30
0
 11
337.877
 21
162.969
 31
0
  0
LINE
  5
31C
330
112
100
AcDbEntity
  8
ProjItem
100
AcDbLine
 10
337.877
 20
162.969
 30
0
 11
337.877
 21
153.969
 31
0
  0
LINE
  5
31D
330
112
100
AcDbEntity
  8
ProjItem
100
AcDbLine
 10
337.877
 20
128.341
 30
0
 11
337.877
 21
153.969
 31
0
  0
LINE
  5
31E
330
112
100
AcDbEntity
  8
ProjItem
100
AcDbLine
 10
299.877
 20
128.341
 30
0
 11
337.877
 21
128.341
 31
0
  0
LINE
  5
31F
330
112
100
AcDbEntity
  8
ProjItem
100
AcDbLine
 10
299.877
 20
90.3407
 30
0
 11
299.877
 21
128.341
 31
0
  0
LINE
  5
320
330
112
100
AcDbEntity
  8
ProjItem
100
AcDbLine
 10
274.249
 20
90.3407
 30
0
 11
299.877
 21
90.3407
 31
0
  0
LINE
  5
321
330
112
100
AcDbEntity
  8
ProjItem
100
AcDbLine
 10
265.249
 20
90.3407
 30
0
 11
274.249
 21
90.3407
 31
0
  0
LINE
  5
322
330
112
100
AcDbEntity
  8
ProjItem
100
AcDbLine
 10
249.249
 20
90.3407
 30
0
 11
265.249
 21
90.3407
 31
0
  0
LINE
  5
323
330
112
100
AcDbEntity
  8
ProjItem
100
AcDbLine
 10
249.249
 20
107.841
 30
0
 11
249.249
 21
90.3407
 31
0
  0
LINE
  5
324
330
112
100
AcDbEntity
  8
ProjItem
100
AcDbLine
 10
265.249
 20
107.841
 30
0
 11
249.249
 21
107.841
 31
0
  0
LINE
  5
325
330
112
100
AcDbEntity
  8
ProjItem
100
AcDbLine
 10
274.249
 20
107.841
 30
0
 11
265.249
 21
107.841
 31
0
  0
LINE
  5
326
330
112
100
AcDbEntity
  8
ProjItem
100
AcDbLine
 10
274.249
 20
128.341
 30
0
 11
274.249
 21
107.841
 31
0
  0
LINE
  5
327
330
112
100
AcDbEntity
  8
ProjItem
100
AcDbLine
 10
247.379
 20
155.211
 30
0
 11
274.249
 21
128.341
 31
0
  0
LINE
  5
328
330
112
100
AcDbEntity
  8
ProjItem
100
AcDbLine
 10
176.635
 20
155.211
 30
0
 11
247.379
 21
155.211
 31
0
  0
LINE
  5
329
330
112
100
AcDbEntity
  8
ProjItem
100
AcDbLine
 10
176.635
 20
155.211
 30
0
 11
149.764
 21
128.341
 31
0
  0
LINE
  5
32A
330
112
100
AcDbEntity
  8
ProjItem
100
AcDbLine
 10
149.764
 20
107.841
 30
0
 11
149.764
 21
128.341
 31
0
  0
LINE
  5
32B
330
112
100
AcDbEntity
  8
ProjItem
100
AcDbLine
 10
158.764
 20
107.841
 30
0
 11
149.764
 21
107.841
 31
0
  0
LINE
  5
32C
330
112
100
AcDbEntity
  8
ProjItem
100
AcDbLine
 10
174.764
 20
107.841
 30
0
 11
158.764
 21
107.841
 31
0
  0
LINE
  5
32D
330
112
100
AcDbEntity
  8
ProjItem
100
AcDbLine
 10
174.764
 20
90.3407
 30
0
 11
174.764
 21
107.841
 31
0
  0
LINE
  5
32E
330
112
100
AcDbEntity
  8
ProjItem
100
AcDbLine
 10
158.764
 20
90.3407
 30
0
 11
174.764
 21
90.3407
 31
0
  0
LINE
  5
32F
330
112
100
AcDbEntity
  8
ProjItem
100
AcDbLine
 10
149.764
 20
90.3407
 30
0
 11
158.764
 21
90.3407
 31
0
  0
LINE
  5
330
330
112
100
AcDbEntity
  8
ProjItem
100
AcDbLine
 10
124.137
 20
90.3407
 30
0
 11
149.764
 21
90.3407
 31
0
  0
LINE
  5
331
330
112
100
AcDbEntity
  8
ProjItem
100
AcDbLine
 10
124.137
 20
128.341
 30
0
 11
124.137
 21
90.3407
 31
0
  0
LINE
  5
332
330
112
100
AcDbEntity
  8
ProjItem
100
AcDbLine
 10
86.1365
 20
128.341
 30
0
 11
124.137
 21
128.341
 31
0
  0
LINE
  5
333
330
112
100
AcDbEntity
  8
ProjItem
100
AcDbLine
 10
86.1365
 20
153.969
 30
0
 11
86.1365
 21
128.341
 31
0
  0
LINE
  5
334
330
112
100
AcDbEntity
  8
ProjItem
100
AcDbLine
 10
86.1365
 20
153.969
 30
0
 11
86.1365
 21
162.969
 31
0
  0
LINE
  5
335
330
112
100
AcDbEntity
  8
ProjItem
100
AcDbLine
 10
86.1365
 20
162.969
 30
0
 11
86.1365
 21
178.969
 31
0
  0
LINE
  5
336
330
112
100
AcDbEntity
  8
ProjItem
100
AcDbLine
 10
86.1365
 20
178.969
 30
0
 11
103.637
 21
178.969
 31
0
  0
LINE
  5
337
330
112
100
AcDbEntity
  8
ProjItem
100
AcDbLine
 10
103.637
 20
178.969
 30
0
 11
103.637
 21
162.969
 31
0
  0
LINE
  5
338
330
112
100
AcDbEntity
  8
ProjItem
100
AcDbLine
 10
103.637
 20
162.969
 30
0
 11
103.637
 21
153.969
 31
0
  0
LINE
  5
339
330
112
100
AcDbEntity
  8
ProjItem
100
AcDbLine
 10
103.637
 20
153.969
 30
0
 11
124.137
 21
153.969
 31
0
  0
LINE
  5
33A
330
112
100
AcDbEntity
  8
ProjItem
100
AcDbLine
 10
151.007
 20
180.839
 30
0
 11
124.137
 21
153.969
 31
0
  0
LINE
  5
33B
330
112
100
AcDbEntity
  8
ProjItem
100
AcDbLine
 10
151.007
 20
180.839
 30
0
 11
151.007
 21
254.583
 31
0
  0
LINE
  5
33C
330
112
100
AcDbEntity
  8
ProjItem
100
AcDbLine
 10
151.007
 20
254.583
 30
0
 11
124.137
 21
281.453
 31
0
  0
LINE
  5
33D
330
112
100
AcDbEntity
  8
ProjItem
100
AcDbLine
 10
103.637
 20
281.453
 30
0
 11
124.137
 21
281.453
 31
0
  0
LINE
  5
33E
330
112
100
AcDbEntity
  8
ProjItem
100
AcDbLine
 10
103.637
 20
272.453
 30
0
 11
103.637
 21
281.453
 31
0
  0
LINE
  5
33F
330
112
100
AcDbEntity
  8
ProjItem
100
AcDbLine
 10
103.637
 20
256.453
 30
0
 11
103.637
 21
272.453
 31
0
  0
LINE
  5
340
330
112
100
AcDbEntity
  8
ProjItem
100
AcDbLine
 10
86.1365
 20
256.453
 30
0
 11
103.637
 21
256.453
 31
0
  0
LINE
  5
341
330
112
100
AcDbEntity
  8
ProjItem
100
AcDbLine
 10
86.1365
 20
272.453
 30
0
 11
86.1365
 21
256.453
 31
0
  0
LINE
  5
342
330
112
100
AcDbEntity
  8
ProjItem
100
AcDbLine
 10
86.1365
 20
281.453
 30
0
 11
86.1365
 21
272.453
 31
0
  0
LINE
  5
343
330
112
100
AcDbEntity
  8
ProjItem
100
AcDbLine
 10
86.1365
 20
281.453
 30
0
 11
86.1365
 21
307.081
 31
0
  0
LINE
  5
344
330
112
100
AcDbEntity
  8
ProjItem
100
AcDbLine
 10
86.1365
 20
307.081
 30
0
 11
124.137
 21
307.081
 31
0
  0
LINE
  5
345
330
112
100
AcDbEntity
  8
ProjItem
100
AcDbLine
 10
124.137
 20
307.081
 30
0
 11
124.137
 21
345.081
 31
0
  0
LINE
  5
346
330
112
100
AcDbEntity
  8
ProjItem
100
AcDbLine
 10
124.137
 20
345.081
 30
0
 11
149.764
 21
345.081
 31
0
  0
LINE
  5
347
330
112
100
AcDbEntity
  8
ProjItem
100
AcDbLine
 10
158.764
 20
345.081
 30
0
 11
149.764
 21
345.081
 31
0
  0
LINE
  5
348
330
112
100
AcDbEntity
  8
ProjItem
100
AcDbLine
 10
158.764
 20
345.081
 30
0
 11
174.764
 21
345.081
 31
0
  0
LINE
  5
349
330
112
100
AcDbEntity
  8
ProjItem
100
AcDbLine
 10
174.764
 20
345.081
 30
0
 11
174.764
 21
327.581
 31
0
  0
LINE
  5
34A
330
112
100
AcDbEntity
  8
ProjItem
100
AcDbLine
 10
174.764
 20
327.581
 30
0
 11
158.764
 21
327.581
 31
0
  0
LINE
  5
34B
330
112
100
AcDbEntity
  8
ProjItem
100
AcDbLine
 10
149.764
 20
327.581
 30
0
 11
158.764
 21
327.581
 31
0
  0
LINE
  5
34C
330
112
100
AcDbEntity
  8
ProjItem
100
AcDbLine
 10
149.764
 20
307.081
 30
0
 11
149.764
 21
327.581
 31
0
  0
LINE
  5
34D
330
112
100
AcDbEntity
  8
ProjItem
100
AcDbLine
 10
169.435
 20
273.011
 30
0
 11
156.707
 21
260.283
 31
0
  0
LINE
  5
34E
330
112
100
AcDbEntity
  8
ProjItem
100
AcDbLine
 10
157.414
 20
285.032
 30
0
 11
169.435
 21
273.011
 31
0
  0
LINE
  5
34F
330
112
100
AcDbEntity
  8
ProjItem
100
AcDbLine
 10
144.686
 20
272.304
 30
0
 11
157.414
 21
285.032
 31
0
  0
LINE
  5
350
330
112
100
AcDbEntity
  8
ProjItem
100
AcDbLine
 10
156.707
 20
260.283
 30
0
 11
144.686
 21
272.304
 31
0
  0
LINE
  5
351
330
112
100
AcDbEntity
  8
ProjItem
100
AcDbLine
 10
156.707
 20
175.139
 30
0
 11
169.435
 21
162.411
 31
0
  0
LINE
  5
352
330
112
100
AcDbEntity
  8
ProjItem
100
AcDbLine
 10
144.686
 20
163.118
 30
0
 11
156.707
 21
175.139
 31
0
  0
LINE
  5
353
330
112
100
AcDbEntity
  8
ProjItem
100
AcDbLine
 10
157.414
 20
150.39
 30
0
 11
144.686
 21
163.118
 31
0
  0
LINE
  5
354
330
112
100
AcDbEntity
  8
ProjItem
100
AcDbLine
 10
169.435
 20
162.411
 30
0
 11
157.414
 21
150.39
 31
0
  0
LINE
  5
355
330
112
100
AcDbEntity
  8
ProjItem
100
AcDbLine
 10
254.579
 20
162.411
 30
0
 11
266.599
 21
150.39
 31
0
  0
LINE
  5
356
330
112
100
AcDbEntity
  8
ProjItem
100
AcDbLine
 10
266.599
 20
150.39
 30
0
 11
279.327
 21
163.118
 31
0
  0
LINE
  5
357
330
112
100
AcDbEntity
  8
ProjItem
100
AcDbLine
 10
279.327
 20
163.118
 30
0
 11
267.307
 21
175.139
 31
0
  0
LINE
  5
358
330
112
100
AcDbEntity
  8
ProjItem
100
AcDbLine
 10
267.307
 20
175.139
 30
0
 11
254.579
 21
162.411
 31
0
  0
LINE
  5
359
330
112
100
AcDbEntity
  8
ProjItem
100
AcDbLine
 10
267.307
 20
260.283
 30
0
 11
254.579
 21
273.011
 31
0
  0
LINE
  5
35A
330
112
100
AcDbEntity
  8
ProjItem
100
AcDbLine
 10
279.327
 20
272.304
 30
0
 11
267.307
 21
260.283
 31
0
  0
LINE
  5
35B
330
112
100
AcDbEntity
  8
ProjItem
100
AcDbLine
 10
266.599
 20
285.032
 30
0
 11
279.327
 21
272.304
 31
0
  0
LINE
  5
35C
330
112
100
AcDbEntity
  8
ProjItem
100
AcDbLine
 10
254.579
 20
273.011
 30
0
 11
266.599
 21
285.032
 31
0
  0
ENDSEC
  0
SECTION
  2
OBJECTS
  0
DICTIONARY
  5
500
330
0
100
AcDbDictionary
  3
ACAD_GROUP
350
501
  0
DICTIONARY
  5
501
330
500
100
AcDbDictionary
  0
ENDSEC
  0
EOF