G04 #@! TF.GenerationSoftware,KiCad,Pcbnew,(5.1.2)-2*
G04 #@! TF.CreationDate,2019-11-27T18:11:39+01:00*
G04 #@! TF.ProjectId,INTERFACE,494e5445-5246-4414-9345-2e6b69636164,rev?*
G04 #@! TF.SameCoordinates,Original*
G04 #@! TF.FileFunction,Copper,L2,Bot*
G04 #@! TF.FilePolarity,Positive*
%FSLAX46Y46*%
G04 Gerber Fmt 4.6, Leading zero omitted, Abs format (unit mm)*
G04 Created by KiCad (PCBNEW (5.1.2)-2) date 2019-11-27 18:11:39*
%MOMM*%
%LPD*%
G04 APERTURE LIST*
%ADD10C,0.100000*%
%ADD11C,1.500000*%
%ADD12C,0.800000*%
%ADD13C,0.600000*%
%ADD14C,0.254000*%
%ADD15C,0.152400*%
%ADD16C,0.508000*%
%ADD17C,0.127000*%
G04 APERTURE END LIST*
D10*
G36*
X130891756Y-105251806D02*
G01*
X130928159Y-105257206D01*
X130963857Y-105266147D01*
X130998506Y-105278545D01*
X131031774Y-105294280D01*
X131063339Y-105313199D01*
X131092897Y-105335121D01*
X131120165Y-105359835D01*
X131144879Y-105387103D01*
X131166801Y-105416661D01*
X131185720Y-105448226D01*
X131201455Y-105481494D01*
X131213853Y-105516143D01*
X131222794Y-105551841D01*
X131228194Y-105588244D01*
X131230000Y-105625000D01*
X131230000Y-106875000D01*
X131228194Y-106911756D01*
X131222794Y-106948159D01*
X131213853Y-106983857D01*
X131201455Y-107018506D01*
X131185720Y-107051774D01*
X131166801Y-107083339D01*
X131144879Y-107112897D01*
X131120165Y-107140165D01*
X131092897Y-107164879D01*
X131063339Y-107186801D01*
X131031774Y-107205720D01*
X130998506Y-107221455D01*
X130963857Y-107233853D01*
X130928159Y-107242794D01*
X130891756Y-107248194D01*
X130855000Y-107250000D01*
X130105000Y-107250000D01*
X130068244Y-107248194D01*
X130031841Y-107242794D01*
X129996143Y-107233853D01*
X129961494Y-107221455D01*
X129928226Y-107205720D01*
X129896661Y-107186801D01*
X129867103Y-107164879D01*
X129839835Y-107140165D01*
X129815121Y-107112897D01*
X129793199Y-107083339D01*
X129774280Y-107051774D01*
X129758545Y-107018506D01*
X129746147Y-106983857D01*
X129737206Y-106948159D01*
X129731806Y-106911756D01*
X129730000Y-106875000D01*
X129730000Y-105625000D01*
X129731806Y-105588244D01*
X129737206Y-105551841D01*
X129746147Y-105516143D01*
X129758545Y-105481494D01*
X129774280Y-105448226D01*
X129793199Y-105416661D01*
X129815121Y-105387103D01*
X129839835Y-105359835D01*
X129867103Y-105335121D01*
X129896661Y-105313199D01*
X129928226Y-105294280D01*
X129961494Y-105278545D01*
X129996143Y-105266147D01*
X130031841Y-105257206D01*
X130068244Y-105251806D01*
X130105000Y-105250000D01*
X130855000Y-105250000D01*
X130891756Y-105251806D01*
X130891756Y-105251806D01*
G37*
D11*
X130480000Y-106250000D03*
D10*
G36*
X128351756Y-105251806D02*
G01*
X128388159Y-105257206D01*
X128423857Y-105266147D01*
X128458506Y-105278545D01*
X128491774Y-105294280D01*
X128523339Y-105313199D01*
X128552897Y-105335121D01*
X128580165Y-105359835D01*
X128604879Y-105387103D01*
X128626801Y-105416661D01*
X128645720Y-105448226D01*
X128661455Y-105481494D01*
X128673853Y-105516143D01*
X128682794Y-105551841D01*
X128688194Y-105588244D01*
X128690000Y-105625000D01*
X128690000Y-106875000D01*
X128688194Y-106911756D01*
X128682794Y-106948159D01*
X128673853Y-106983857D01*
X128661455Y-107018506D01*
X128645720Y-107051774D01*
X128626801Y-107083339D01*
X128604879Y-107112897D01*
X128580165Y-107140165D01*
X128552897Y-107164879D01*
X128523339Y-107186801D01*
X128491774Y-107205720D01*
X128458506Y-107221455D01*
X128423857Y-107233853D01*
X128388159Y-107242794D01*
X128351756Y-107248194D01*
X128315000Y-107250000D01*
X127565000Y-107250000D01*
X127528244Y-107248194D01*
X127491841Y-107242794D01*
X127456143Y-107233853D01*
X127421494Y-107221455D01*
X127388226Y-107205720D01*
X127356661Y-107186801D01*
X127327103Y-107164879D01*
X127299835Y-107140165D01*
X127275121Y-107112897D01*
X127253199Y-107083339D01*
X127234280Y-107051774D01*
X127218545Y-107018506D01*
X127206147Y-106983857D01*
X127197206Y-106948159D01*
X127191806Y-106911756D01*
X127190000Y-106875000D01*
X127190000Y-105625000D01*
X127191806Y-105588244D01*
X127197206Y-105551841D01*
X127206147Y-105516143D01*
X127218545Y-105481494D01*
X127234280Y-105448226D01*
X127253199Y-105416661D01*
X127275121Y-105387103D01*
X127299835Y-105359835D01*
X127327103Y-105335121D01*
X127356661Y-105313199D01*
X127388226Y-105294280D01*
X127421494Y-105278545D01*
X127456143Y-105266147D01*
X127491841Y-105257206D01*
X127528244Y-105251806D01*
X127565000Y-105250000D01*
X128315000Y-105250000D01*
X128351756Y-105251806D01*
X128351756Y-105251806D01*
G37*
D11*
X127940000Y-106250000D03*
D10*
G36*
X125811756Y-105251806D02*
G01*
X125848159Y-105257206D01*
X125883857Y-105266147D01*
X125918506Y-105278545D01*
X125951774Y-105294280D01*
X125983339Y-105313199D01*
X126012897Y-105335121D01*
X126040165Y-105359835D01*
X126064879Y-105387103D01*
X126086801Y-105416661D01*
X126105720Y-105448226D01*
X126121455Y-105481494D01*
X126133853Y-105516143D01*
X126142794Y-105551841D01*
X126148194Y-105588244D01*
X126150000Y-105625000D01*
X126150000Y-106875000D01*
X126148194Y-106911756D01*
X126142794Y-106948159D01*
X126133853Y-106983857D01*
X126121455Y-107018506D01*
X126105720Y-107051774D01*
X126086801Y-107083339D01*
X126064879Y-107112897D01*
X126040165Y-107140165D01*
X126012897Y-107164879D01*
X125983339Y-107186801D01*
X125951774Y-107205720D01*
X125918506Y-107221455D01*
X125883857Y-107233853D01*
X125848159Y-107242794D01*
X125811756Y-107248194D01*
X125775000Y-107250000D01*
X125025000Y-107250000D01*
X124988244Y-107248194D01*
X124951841Y-107242794D01*
X124916143Y-107233853D01*
X124881494Y-107221455D01*
X124848226Y-107205720D01*
X124816661Y-107186801D01*
X124787103Y-107164879D01*
X124759835Y-107140165D01*
X124735121Y-107112897D01*
X124713199Y-107083339D01*
X124694280Y-107051774D01*
X124678545Y-107018506D01*
X124666147Y-106983857D01*
X124657206Y-106948159D01*
X124651806Y-106911756D01*
X124650000Y-106875000D01*
X124650000Y-105625000D01*
X124651806Y-105588244D01*
X124657206Y-105551841D01*
X124666147Y-105516143D01*
X124678545Y-105481494D01*
X124694280Y-105448226D01*
X124713199Y-105416661D01*
X124735121Y-105387103D01*
X124759835Y-105359835D01*
X124787103Y-105335121D01*
X124816661Y-105313199D01*
X124848226Y-105294280D01*
X124881494Y-105278545D01*
X124916143Y-105266147D01*
X124951841Y-105257206D01*
X124988244Y-105251806D01*
X125025000Y-105250000D01*
X125775000Y-105250000D01*
X125811756Y-105251806D01*
X125811756Y-105251806D01*
G37*
D11*
X125400000Y-106250000D03*
D10*
G36*
X123271756Y-105251806D02*
G01*
X123308159Y-105257206D01*
X123343857Y-105266147D01*
X123378506Y-105278545D01*
X123411774Y-105294280D01*
X123443339Y-105313199D01*
X123472897Y-105335121D01*
X123500165Y-105359835D01*
X123524879Y-105387103D01*
X123546801Y-105416661D01*
X123565720Y-105448226D01*
X123581455Y-105481494D01*
X123593853Y-105516143D01*
X123602794Y-105551841D01*
X123608194Y-105588244D01*
X123610000Y-105625000D01*
X123610000Y-106875000D01*
X123608194Y-106911756D01*
X123602794Y-106948159D01*
X123593853Y-106983857D01*
X123581455Y-107018506D01*
X123565720Y-107051774D01*
X123546801Y-107083339D01*
X123524879Y-107112897D01*
X123500165Y-107140165D01*
X123472897Y-107164879D01*
X123443339Y-107186801D01*
X123411774Y-107205720D01*
X123378506Y-107221455D01*
X123343857Y-107233853D01*
X123308159Y-107242794D01*
X123271756Y-107248194D01*
X123235000Y-107250000D01*
X122485000Y-107250000D01*
X122448244Y-107248194D01*
X122411841Y-107242794D01*
X122376143Y-107233853D01*
X122341494Y-107221455D01*
X122308226Y-107205720D01*
X122276661Y-107186801D01*
X122247103Y-107164879D01*
X122219835Y-107140165D01*
X122195121Y-107112897D01*
X122173199Y-107083339D01*
X122154280Y-107051774D01*
X122138545Y-107018506D01*
X122126147Y-106983857D01*
X122117206Y-106948159D01*
X122111806Y-106911756D01*
X122110000Y-106875000D01*
X122110000Y-105625000D01*
X122111806Y-105588244D01*
X122117206Y-105551841D01*
X122126147Y-105516143D01*
X122138545Y-105481494D01*
X122154280Y-105448226D01*
X122173199Y-105416661D01*
X122195121Y-105387103D01*
X122219835Y-105359835D01*
X122247103Y-105335121D01*
X122276661Y-105313199D01*
X122308226Y-105294280D01*
X122341494Y-105278545D01*
X122376143Y-105266147D01*
X122411841Y-105257206D01*
X122448244Y-105251806D01*
X122485000Y-105250000D01*
X123235000Y-105250000D01*
X123271756Y-105251806D01*
X123271756Y-105251806D01*
G37*
D11*
X122860000Y-106250000D03*
D10*
G36*
X130344865Y-102001202D02*
G01*
X130369095Y-102004796D01*
X130392855Y-102010748D01*
X130415918Y-102019000D01*
X130438061Y-102029472D01*
X130459070Y-102042065D01*
X130478745Y-102056657D01*
X130496894Y-102073106D01*
X130513343Y-102091255D01*
X130527935Y-102110930D01*
X130540528Y-102131939D01*
X130551000Y-102154082D01*
X130559252Y-102177145D01*
X130565204Y-102200905D01*
X130568798Y-102225135D01*
X130570000Y-102249600D01*
X130570000Y-104250400D01*
X130568798Y-104274865D01*
X130565204Y-104299095D01*
X130559252Y-104322855D01*
X130551000Y-104345918D01*
X130540528Y-104368061D01*
X130527935Y-104389070D01*
X130513343Y-104408745D01*
X130496894Y-104426894D01*
X130478745Y-104443343D01*
X130459070Y-104457935D01*
X130438061Y-104470528D01*
X130415918Y-104481000D01*
X130392855Y-104489252D01*
X130369095Y-104495204D01*
X130344865Y-104498798D01*
X130320400Y-104500000D01*
X130019600Y-104500000D01*
X129995135Y-104498798D01*
X129970905Y-104495204D01*
X129947145Y-104489252D01*
X129924082Y-104481000D01*
X129901939Y-104470528D01*
X129880930Y-104457935D01*
X129861255Y-104443343D01*
X129843106Y-104426894D01*
X129826657Y-104408745D01*
X129812065Y-104389070D01*
X129799472Y-104368061D01*
X129789000Y-104345918D01*
X129780748Y-104322855D01*
X129774796Y-104299095D01*
X129771202Y-104274865D01*
X129770000Y-104250400D01*
X129770000Y-102249600D01*
X129771202Y-102225135D01*
X129774796Y-102200905D01*
X129780748Y-102177145D01*
X129789000Y-102154082D01*
X129799472Y-102131939D01*
X129812065Y-102110930D01*
X129826657Y-102091255D01*
X129843106Y-102073106D01*
X129861255Y-102056657D01*
X129880930Y-102042065D01*
X129901939Y-102029472D01*
X129924082Y-102019000D01*
X129947145Y-102010748D01*
X129970905Y-102004796D01*
X129995135Y-102001202D01*
X130019600Y-102000000D01*
X130320400Y-102000000D01*
X130344865Y-102001202D01*
X130344865Y-102001202D01*
G37*
D12*
X130170000Y-103250000D03*
D10*
G36*
X129344865Y-102001202D02*
G01*
X129369095Y-102004796D01*
X129392855Y-102010748D01*
X129415918Y-102019000D01*
X129438061Y-102029472D01*
X129459070Y-102042065D01*
X129478745Y-102056657D01*
X129496894Y-102073106D01*
X129513343Y-102091255D01*
X129527935Y-102110930D01*
X129540528Y-102131939D01*
X129551000Y-102154082D01*
X129559252Y-102177145D01*
X129565204Y-102200905D01*
X129568798Y-102225135D01*
X129570000Y-102249600D01*
X129570000Y-104250400D01*
X129568798Y-104274865D01*
X129565204Y-104299095D01*
X129559252Y-104322855D01*
X129551000Y-104345918D01*
X129540528Y-104368061D01*
X129527935Y-104389070D01*
X129513343Y-104408745D01*
X129496894Y-104426894D01*
X129478745Y-104443343D01*
X129459070Y-104457935D01*
X129438061Y-104470528D01*
X129415918Y-104481000D01*
X129392855Y-104489252D01*
X129369095Y-104495204D01*
X129344865Y-104498798D01*
X129320400Y-104500000D01*
X129019600Y-104500000D01*
X128995135Y-104498798D01*
X128970905Y-104495204D01*
X128947145Y-104489252D01*
X128924082Y-104481000D01*
X128901939Y-104470528D01*
X128880930Y-104457935D01*
X128861255Y-104443343D01*
X128843106Y-104426894D01*
X128826657Y-104408745D01*
X128812065Y-104389070D01*
X128799472Y-104368061D01*
X128789000Y-104345918D01*
X128780748Y-104322855D01*
X128774796Y-104299095D01*
X128771202Y-104274865D01*
X128770000Y-104250400D01*
X128770000Y-102249600D01*
X128771202Y-102225135D01*
X128774796Y-102200905D01*
X128780748Y-102177145D01*
X128789000Y-102154082D01*
X128799472Y-102131939D01*
X128812065Y-102110930D01*
X128826657Y-102091255D01*
X128843106Y-102073106D01*
X128861255Y-102056657D01*
X128880930Y-102042065D01*
X128901939Y-102029472D01*
X128924082Y-102019000D01*
X128947145Y-102010748D01*
X128970905Y-102004796D01*
X128995135Y-102001202D01*
X129019600Y-102000000D01*
X129320400Y-102000000D01*
X129344865Y-102001202D01*
X129344865Y-102001202D01*
G37*
D12*
X129170000Y-103250000D03*
D10*
G36*
X128344865Y-102001202D02*
G01*
X128369095Y-102004796D01*
X128392855Y-102010748D01*
X128415918Y-102019000D01*
X128438061Y-102029472D01*
X128459070Y-102042065D01*
X128478745Y-102056657D01*
X128496894Y-102073106D01*
X128513343Y-102091255D01*
X128527935Y-102110930D01*
X128540528Y-102131939D01*
X128551000Y-102154082D01*
X128559252Y-102177145D01*
X128565204Y-102200905D01*
X128568798Y-102225135D01*
X128570000Y-102249600D01*
X128570000Y-104250400D01*
X128568798Y-104274865D01*
X128565204Y-104299095D01*
X128559252Y-104322855D01*
X128551000Y-104345918D01*
X128540528Y-104368061D01*
X128527935Y-104389070D01*
X128513343Y-104408745D01*
X128496894Y-104426894D01*
X128478745Y-104443343D01*
X128459070Y-104457935D01*
X128438061Y-104470528D01*
X128415918Y-104481000D01*
X128392855Y-104489252D01*
X128369095Y-104495204D01*
X128344865Y-104498798D01*
X128320400Y-104500000D01*
X128019600Y-104500000D01*
X127995135Y-104498798D01*
X127970905Y-104495204D01*
X127947145Y-104489252D01*
X127924082Y-104481000D01*
X127901939Y-104470528D01*
X127880930Y-104457935D01*
X127861255Y-104443343D01*
X127843106Y-104426894D01*
X127826657Y-104408745D01*
X127812065Y-104389070D01*
X127799472Y-104368061D01*
X127789000Y-104345918D01*
X127780748Y-104322855D01*
X127774796Y-104299095D01*
X127771202Y-104274865D01*
X127770000Y-104250400D01*
X127770000Y-102249600D01*
X127771202Y-102225135D01*
X127774796Y-102200905D01*
X127780748Y-102177145D01*
X127789000Y-102154082D01*
X127799472Y-102131939D01*
X127812065Y-102110930D01*
X127826657Y-102091255D01*
X127843106Y-102073106D01*
X127861255Y-102056657D01*
X127880930Y-102042065D01*
X127901939Y-102029472D01*
X127924082Y-102019000D01*
X127947145Y-102010748D01*
X127970905Y-102004796D01*
X127995135Y-102001202D01*
X128019600Y-102000000D01*
X128320400Y-102000000D01*
X128344865Y-102001202D01*
X128344865Y-102001202D01*
G37*
D12*
X128170000Y-103250000D03*
D10*
G36*
X127344865Y-102001202D02*
G01*
X127369095Y-102004796D01*
X127392855Y-102010748D01*
X127415918Y-102019000D01*
X127438061Y-102029472D01*
X127459070Y-102042065D01*
X127478745Y-102056657D01*
X127496894Y-102073106D01*
X127513343Y-102091255D01*
X127527935Y-102110930D01*
X127540528Y-102131939D01*
X127551000Y-102154082D01*
X127559252Y-102177145D01*
X127565204Y-102200905D01*
X127568798Y-102225135D01*
X127570000Y-102249600D01*
X127570000Y-104250400D01*
X127568798Y-104274865D01*
X127565204Y-104299095D01*
X127559252Y-104322855D01*
X127551000Y-104345918D01*
X127540528Y-104368061D01*
X127527935Y-104389070D01*
X127513343Y-104408745D01*
X127496894Y-104426894D01*
X127478745Y-104443343D01*
X127459070Y-104457935D01*
X127438061Y-104470528D01*
X127415918Y-104481000D01*
X127392855Y-104489252D01*
X127369095Y-104495204D01*
X127344865Y-104498798D01*
X127320400Y-104500000D01*
X127019600Y-104500000D01*
X126995135Y-104498798D01*
X126970905Y-104495204D01*
X126947145Y-104489252D01*
X126924082Y-104481000D01*
X126901939Y-104470528D01*
X126880930Y-104457935D01*
X126861255Y-104443343D01*
X126843106Y-104426894D01*
X126826657Y-104408745D01*
X126812065Y-104389070D01*
X126799472Y-104368061D01*
X126789000Y-104345918D01*
X126780748Y-104322855D01*
X126774796Y-104299095D01*
X126771202Y-104274865D01*
X126770000Y-104250400D01*
X126770000Y-102249600D01*
X126771202Y-102225135D01*
X126774796Y-102200905D01*
X126780748Y-102177145D01*
X126789000Y-102154082D01*
X126799472Y-102131939D01*
X126812065Y-102110930D01*
X126826657Y-102091255D01*
X126843106Y-102073106D01*
X126861255Y-102056657D01*
X126880930Y-102042065D01*
X126901939Y-102029472D01*
X126924082Y-102019000D01*
X126947145Y-102010748D01*
X126970905Y-102004796D01*
X126995135Y-102001202D01*
X127019600Y-102000000D01*
X127320400Y-102000000D01*
X127344865Y-102001202D01*
X127344865Y-102001202D01*
G37*
D12*
X127170000Y-103250000D03*
D10*
G36*
X126344865Y-102001202D02*
G01*
X126369095Y-102004796D01*
X126392855Y-102010748D01*
X126415918Y-102019000D01*
X126438061Y-102029472D01*
X126459070Y-102042065D01*
X126478745Y-102056657D01*
X126496894Y-102073106D01*
X126513343Y-102091255D01*
X126527935Y-102110930D01*
X126540528Y-102131939D01*
X126551000Y-102154082D01*
X126559252Y-102177145D01*
X126565204Y-102200905D01*
X126568798Y-102225135D01*
X126570000Y-102249600D01*
X126570000Y-104250400D01*
X126568798Y-104274865D01*
X126565204Y-104299095D01*
X126559252Y-104322855D01*
X126551000Y-104345918D01*
X126540528Y-104368061D01*
X126527935Y-104389070D01*
X126513343Y-104408745D01*
X126496894Y-104426894D01*
X126478745Y-104443343D01*
X126459070Y-104457935D01*
X126438061Y-104470528D01*
X126415918Y-104481000D01*
X126392855Y-104489252D01*
X126369095Y-104495204D01*
X126344865Y-104498798D01*
X126320400Y-104500000D01*
X126019600Y-104500000D01*
X125995135Y-104498798D01*
X125970905Y-104495204D01*
X125947145Y-104489252D01*
X125924082Y-104481000D01*
X125901939Y-104470528D01*
X125880930Y-104457935D01*
X125861255Y-104443343D01*
X125843106Y-104426894D01*
X125826657Y-104408745D01*
X125812065Y-104389070D01*
X125799472Y-104368061D01*
X125789000Y-104345918D01*
X125780748Y-104322855D01*
X125774796Y-104299095D01*
X125771202Y-104274865D01*
X125770000Y-104250400D01*
X125770000Y-102249600D01*
X125771202Y-102225135D01*
X125774796Y-102200905D01*
X125780748Y-102177145D01*
X125789000Y-102154082D01*
X125799472Y-102131939D01*
X125812065Y-102110930D01*
X125826657Y-102091255D01*
X125843106Y-102073106D01*
X125861255Y-102056657D01*
X125880930Y-102042065D01*
X125901939Y-102029472D01*
X125924082Y-102019000D01*
X125947145Y-102010748D01*
X125970905Y-102004796D01*
X125995135Y-102001202D01*
X126019600Y-102000000D01*
X126320400Y-102000000D01*
X126344865Y-102001202D01*
X126344865Y-102001202D01*
G37*
D12*
X126170000Y-103250000D03*
D10*
G36*
X125344865Y-102001202D02*
G01*
X125369095Y-102004796D01*
X125392855Y-102010748D01*
X125415918Y-102019000D01*
X125438061Y-102029472D01*
X125459070Y-102042065D01*
X125478745Y-102056657D01*
X125496894Y-102073106D01*
X125513343Y-102091255D01*
X125527935Y-102110930D01*
X125540528Y-102131939D01*
X125551000Y-102154082D01*
X125559252Y-102177145D01*
X125565204Y-102200905D01*
X125568798Y-102225135D01*
X125570000Y-102249600D01*
X125570000Y-104250400D01*
X125568798Y-104274865D01*
X125565204Y-104299095D01*
X125559252Y-104322855D01*
X125551000Y-104345918D01*
X125540528Y-104368061D01*
X125527935Y-104389070D01*
X125513343Y-104408745D01*
X125496894Y-104426894D01*
X125478745Y-104443343D01*
X125459070Y-104457935D01*
X125438061Y-104470528D01*
X125415918Y-104481000D01*
X125392855Y-104489252D01*
X125369095Y-104495204D01*
X125344865Y-104498798D01*
X125320400Y-104500000D01*
X125019600Y-104500000D01*
X124995135Y-104498798D01*
X124970905Y-104495204D01*
X124947145Y-104489252D01*
X124924082Y-104481000D01*
X124901939Y-104470528D01*
X124880930Y-104457935D01*
X124861255Y-104443343D01*
X124843106Y-104426894D01*
X124826657Y-104408745D01*
X124812065Y-104389070D01*
X124799472Y-104368061D01*
X124789000Y-104345918D01*
X124780748Y-104322855D01*
X124774796Y-104299095D01*
X124771202Y-104274865D01*
X124770000Y-104250400D01*
X124770000Y-102249600D01*
X124771202Y-102225135D01*
X124774796Y-102200905D01*
X124780748Y-102177145D01*
X124789000Y-102154082D01*
X124799472Y-102131939D01*
X124812065Y-102110930D01*
X124826657Y-102091255D01*
X124843106Y-102073106D01*
X124861255Y-102056657D01*
X124880930Y-102042065D01*
X124901939Y-102029472D01*
X124924082Y-102019000D01*
X124947145Y-102010748D01*
X124970905Y-102004796D01*
X124995135Y-102001202D01*
X125019600Y-102000000D01*
X125320400Y-102000000D01*
X125344865Y-102001202D01*
X125344865Y-102001202D01*
G37*
D12*
X125170000Y-103250000D03*
D10*
G36*
X124344865Y-102001202D02*
G01*
X124369095Y-102004796D01*
X124392855Y-102010748D01*
X124415918Y-102019000D01*
X124438061Y-102029472D01*
X124459070Y-102042065D01*
X124478745Y-102056657D01*
X124496894Y-102073106D01*
X124513343Y-102091255D01*
X124527935Y-102110930D01*
X124540528Y-102131939D01*
X124551000Y-102154082D01*
X124559252Y-102177145D01*
X124565204Y-102200905D01*
X124568798Y-102225135D01*
X124570000Y-102249600D01*
X124570000Y-104250400D01*
X124568798Y-104274865D01*
X124565204Y-104299095D01*
X124559252Y-104322855D01*
X124551000Y-104345918D01*
X124540528Y-104368061D01*
X124527935Y-104389070D01*
X124513343Y-104408745D01*
X124496894Y-104426894D01*
X124478745Y-104443343D01*
X124459070Y-104457935D01*
X124438061Y-104470528D01*
X124415918Y-104481000D01*
X124392855Y-104489252D01*
X124369095Y-104495204D01*
X124344865Y-104498798D01*
X124320400Y-104500000D01*
X124019600Y-104500000D01*
X123995135Y-104498798D01*
X123970905Y-104495204D01*
X123947145Y-104489252D01*
X123924082Y-104481000D01*
X123901939Y-104470528D01*
X123880930Y-104457935D01*
X123861255Y-104443343D01*
X123843106Y-104426894D01*
X123826657Y-104408745D01*
X123812065Y-104389070D01*
X123799472Y-104368061D01*
X123789000Y-104345918D01*
X123780748Y-104322855D01*
X123774796Y-104299095D01*
X123771202Y-104274865D01*
X123770000Y-104250400D01*
X123770000Y-102249600D01*
X123771202Y-102225135D01*
X123774796Y-102200905D01*
X123780748Y-102177145D01*
X123789000Y-102154082D01*
X123799472Y-102131939D01*
X123812065Y-102110930D01*
X123826657Y-102091255D01*
X123843106Y-102073106D01*
X123861255Y-102056657D01*
X123880930Y-102042065D01*
X123901939Y-102029472D01*
X123924082Y-102019000D01*
X123947145Y-102010748D01*
X123970905Y-102004796D01*
X123995135Y-102001202D01*
X124019600Y-102000000D01*
X124320400Y-102000000D01*
X124344865Y-102001202D01*
X124344865Y-102001202D01*
G37*
D12*
X124170000Y-103250000D03*
D10*
G36*
X123344865Y-102001202D02*
G01*
X123369095Y-102004796D01*
X123392855Y-102010748D01*
X123415918Y-102019000D01*
X123438061Y-102029472D01*
X123459070Y-102042065D01*
X123478745Y-102056657D01*
X123496894Y-102073106D01*
X123513343Y-102091255D01*
X123527935Y-102110930D01*
X123540528Y-102131939D01*
X123551000Y-102154082D01*
X123559252Y-102177145D01*
X123565204Y-102200905D01*
X123568798Y-102225135D01*
X123570000Y-102249600D01*
X123570000Y-104250400D01*
X123568798Y-104274865D01*
X123565204Y-104299095D01*
X123559252Y-104322855D01*
X123551000Y-104345918D01*
X123540528Y-104368061D01*
X123527935Y-104389070D01*
X123513343Y-104408745D01*
X123496894Y-104426894D01*
X123478745Y-104443343D01*
X123459070Y-104457935D01*
X123438061Y-104470528D01*
X123415918Y-104481000D01*
X123392855Y-104489252D01*
X123369095Y-104495204D01*
X123344865Y-104498798D01*
X123320400Y-104500000D01*
X123019600Y-104500000D01*
X122995135Y-104498798D01*
X122970905Y-104495204D01*
X122947145Y-104489252D01*
X122924082Y-104481000D01*
X122901939Y-104470528D01*
X122880930Y-104457935D01*
X122861255Y-104443343D01*
X122843106Y-104426894D01*
X122826657Y-104408745D01*
X122812065Y-104389070D01*
X122799472Y-104368061D01*
X122789000Y-104345918D01*
X122780748Y-104322855D01*
X122774796Y-104299095D01*
X122771202Y-104274865D01*
X122770000Y-104250400D01*
X122770000Y-102249600D01*
X122771202Y-102225135D01*
X122774796Y-102200905D01*
X122780748Y-102177145D01*
X122789000Y-102154082D01*
X122799472Y-102131939D01*
X122812065Y-102110930D01*
X122826657Y-102091255D01*
X122843106Y-102073106D01*
X122861255Y-102056657D01*
X122880930Y-102042065D01*
X122901939Y-102029472D01*
X122924082Y-102019000D01*
X122947145Y-102010748D01*
X122970905Y-102004796D01*
X122995135Y-102001202D01*
X123019600Y-102000000D01*
X123320400Y-102000000D01*
X123344865Y-102001202D01*
X123344865Y-102001202D01*
G37*
D12*
X123170000Y-103250000D03*
D10*
G36*
X77004865Y-102001202D02*
G01*
X77029095Y-102004796D01*
X77052855Y-102010748D01*
X77075918Y-102019000D01*
X77098061Y-102029472D01*
X77119070Y-102042065D01*
X77138745Y-102056657D01*
X77156894Y-102073106D01*
X77173343Y-102091255D01*
X77187935Y-102110930D01*
X77200528Y-102131939D01*
X77211000Y-102154082D01*
X77219252Y-102177145D01*
X77225204Y-102200905D01*
X77228798Y-102225135D01*
X77230000Y-102249600D01*
X77230000Y-104250400D01*
X77228798Y-104274865D01*
X77225204Y-104299095D01*
X77219252Y-104322855D01*
X77211000Y-104345918D01*
X77200528Y-104368061D01*
X77187935Y-104389070D01*
X77173343Y-104408745D01*
X77156894Y-104426894D01*
X77138745Y-104443343D01*
X77119070Y-104457935D01*
X77098061Y-104470528D01*
X77075918Y-104481000D01*
X77052855Y-104489252D01*
X77029095Y-104495204D01*
X77004865Y-104498798D01*
X76980400Y-104500000D01*
X76679600Y-104500000D01*
X76655135Y-104498798D01*
X76630905Y-104495204D01*
X76607145Y-104489252D01*
X76584082Y-104481000D01*
X76561939Y-104470528D01*
X76540930Y-104457935D01*
X76521255Y-104443343D01*
X76503106Y-104426894D01*
X76486657Y-104408745D01*
X76472065Y-104389070D01*
X76459472Y-104368061D01*
X76449000Y-104345918D01*
X76440748Y-104322855D01*
X76434796Y-104299095D01*
X76431202Y-104274865D01*
X76430000Y-104250400D01*
X76430000Y-102249600D01*
X76431202Y-102225135D01*
X76434796Y-102200905D01*
X76440748Y-102177145D01*
X76449000Y-102154082D01*
X76459472Y-102131939D01*
X76472065Y-102110930D01*
X76486657Y-102091255D01*
X76503106Y-102073106D01*
X76521255Y-102056657D01*
X76540930Y-102042065D01*
X76561939Y-102029472D01*
X76584082Y-102019000D01*
X76607145Y-102010748D01*
X76630905Y-102004796D01*
X76655135Y-102001202D01*
X76679600Y-102000000D01*
X76980400Y-102000000D01*
X77004865Y-102001202D01*
X77004865Y-102001202D01*
G37*
D12*
X76830000Y-103250000D03*
D10*
G36*
X76004865Y-102001202D02*
G01*
X76029095Y-102004796D01*
X76052855Y-102010748D01*
X76075918Y-102019000D01*
X76098061Y-102029472D01*
X76119070Y-102042065D01*
X76138745Y-102056657D01*
X76156894Y-102073106D01*
X76173343Y-102091255D01*
X76187935Y-102110930D01*
X76200528Y-102131939D01*
X76211000Y-102154082D01*
X76219252Y-102177145D01*
X76225204Y-102200905D01*
X76228798Y-102225135D01*
X76230000Y-102249600D01*
X76230000Y-104250400D01*
X76228798Y-104274865D01*
X76225204Y-104299095D01*
X76219252Y-104322855D01*
X76211000Y-104345918D01*
X76200528Y-104368061D01*
X76187935Y-104389070D01*
X76173343Y-104408745D01*
X76156894Y-104426894D01*
X76138745Y-104443343D01*
X76119070Y-104457935D01*
X76098061Y-104470528D01*
X76075918Y-104481000D01*
X76052855Y-104489252D01*
X76029095Y-104495204D01*
X76004865Y-104498798D01*
X75980400Y-104500000D01*
X75679600Y-104500000D01*
X75655135Y-104498798D01*
X75630905Y-104495204D01*
X75607145Y-104489252D01*
X75584082Y-104481000D01*
X75561939Y-104470528D01*
X75540930Y-104457935D01*
X75521255Y-104443343D01*
X75503106Y-104426894D01*
X75486657Y-104408745D01*
X75472065Y-104389070D01*
X75459472Y-104368061D01*
X75449000Y-104345918D01*
X75440748Y-104322855D01*
X75434796Y-104299095D01*
X75431202Y-104274865D01*
X75430000Y-104250400D01*
X75430000Y-102249600D01*
X75431202Y-102225135D01*
X75434796Y-102200905D01*
X75440748Y-102177145D01*
X75449000Y-102154082D01*
X75459472Y-102131939D01*
X75472065Y-102110930D01*
X75486657Y-102091255D01*
X75503106Y-102073106D01*
X75521255Y-102056657D01*
X75540930Y-102042065D01*
X75561939Y-102029472D01*
X75584082Y-102019000D01*
X75607145Y-102010748D01*
X75630905Y-102004796D01*
X75655135Y-102001202D01*
X75679600Y-102000000D01*
X75980400Y-102000000D01*
X76004865Y-102001202D01*
X76004865Y-102001202D01*
G37*
D12*
X75830000Y-103250000D03*
D10*
G36*
X75004865Y-102001202D02*
G01*
X75029095Y-102004796D01*
X75052855Y-102010748D01*
X75075918Y-102019000D01*
X75098061Y-102029472D01*
X75119070Y-102042065D01*
X75138745Y-102056657D01*
X75156894Y-102073106D01*
X75173343Y-102091255D01*
X75187935Y-102110930D01*
X75200528Y-102131939D01*
X75211000Y-102154082D01*
X75219252Y-102177145D01*
X75225204Y-102200905D01*
X75228798Y-102225135D01*
X75230000Y-102249600D01*
X75230000Y-104250400D01*
X75228798Y-104274865D01*
X75225204Y-104299095D01*
X75219252Y-104322855D01*
X75211000Y-104345918D01*
X75200528Y-104368061D01*
X75187935Y-104389070D01*
X75173343Y-104408745D01*
X75156894Y-104426894D01*
X75138745Y-104443343D01*
X75119070Y-104457935D01*
X75098061Y-104470528D01*
X75075918Y-104481000D01*
X75052855Y-104489252D01*
X75029095Y-104495204D01*
X75004865Y-104498798D01*
X74980400Y-104500000D01*
X74679600Y-104500000D01*
X74655135Y-104498798D01*
X74630905Y-104495204D01*
X74607145Y-104489252D01*
X74584082Y-104481000D01*
X74561939Y-104470528D01*
X74540930Y-104457935D01*
X74521255Y-104443343D01*
X74503106Y-104426894D01*
X74486657Y-104408745D01*
X74472065Y-104389070D01*
X74459472Y-104368061D01*
X74449000Y-104345918D01*
X74440748Y-104322855D01*
X74434796Y-104299095D01*
X74431202Y-104274865D01*
X74430000Y-104250400D01*
X74430000Y-102249600D01*
X74431202Y-102225135D01*
X74434796Y-102200905D01*
X74440748Y-102177145D01*
X74449000Y-102154082D01*
X74459472Y-102131939D01*
X74472065Y-102110930D01*
X74486657Y-102091255D01*
X74503106Y-102073106D01*
X74521255Y-102056657D01*
X74540930Y-102042065D01*
X74561939Y-102029472D01*
X74584082Y-102019000D01*
X74607145Y-102010748D01*
X74630905Y-102004796D01*
X74655135Y-102001202D01*
X74679600Y-102000000D01*
X74980400Y-102000000D01*
X75004865Y-102001202D01*
X75004865Y-102001202D01*
G37*
D12*
X74830000Y-103250000D03*
D10*
G36*
X74004865Y-102001202D02*
G01*
X74029095Y-102004796D01*
X74052855Y-102010748D01*
X74075918Y-102019000D01*
X74098061Y-102029472D01*
X74119070Y-102042065D01*
X74138745Y-102056657D01*
X74156894Y-102073106D01*
X74173343Y-102091255D01*
X74187935Y-102110930D01*
X74200528Y-102131939D01*
X74211000Y-102154082D01*
X74219252Y-102177145D01*
X74225204Y-102200905D01*
X74228798Y-102225135D01*
X74230000Y-102249600D01*
X74230000Y-104250400D01*
X74228798Y-104274865D01*
X74225204Y-104299095D01*
X74219252Y-104322855D01*
X74211000Y-104345918D01*
X74200528Y-104368061D01*
X74187935Y-104389070D01*
X74173343Y-104408745D01*
X74156894Y-104426894D01*
X74138745Y-104443343D01*
X74119070Y-104457935D01*
X74098061Y-104470528D01*
X74075918Y-104481000D01*
X74052855Y-104489252D01*
X74029095Y-104495204D01*
X74004865Y-104498798D01*
X73980400Y-104500000D01*
X73679600Y-104500000D01*
X73655135Y-104498798D01*
X73630905Y-104495204D01*
X73607145Y-104489252D01*
X73584082Y-104481000D01*
X73561939Y-104470528D01*
X73540930Y-104457935D01*
X73521255Y-104443343D01*
X73503106Y-104426894D01*
X73486657Y-104408745D01*
X73472065Y-104389070D01*
X73459472Y-104368061D01*
X73449000Y-104345918D01*
X73440748Y-104322855D01*
X73434796Y-104299095D01*
X73431202Y-104274865D01*
X73430000Y-104250400D01*
X73430000Y-102249600D01*
X73431202Y-102225135D01*
X73434796Y-102200905D01*
X73440748Y-102177145D01*
X73449000Y-102154082D01*
X73459472Y-102131939D01*
X73472065Y-102110930D01*
X73486657Y-102091255D01*
X73503106Y-102073106D01*
X73521255Y-102056657D01*
X73540930Y-102042065D01*
X73561939Y-102029472D01*
X73584082Y-102019000D01*
X73607145Y-102010748D01*
X73630905Y-102004796D01*
X73655135Y-102001202D01*
X73679600Y-102000000D01*
X73980400Y-102000000D01*
X74004865Y-102001202D01*
X74004865Y-102001202D01*
G37*
D12*
X73830000Y-103250000D03*
D10*
G36*
X73004865Y-102001202D02*
G01*
X73029095Y-102004796D01*
X73052855Y-102010748D01*
X73075918Y-102019000D01*
X73098061Y-102029472D01*
X73119070Y-102042065D01*
X73138745Y-102056657D01*
X73156894Y-102073106D01*
X73173343Y-102091255D01*
X73187935Y-102110930D01*
X73200528Y-102131939D01*
X73211000Y-102154082D01*
X73219252Y-102177145D01*
X73225204Y-102200905D01*
X73228798Y-102225135D01*
X73230000Y-102249600D01*
X73230000Y-104250400D01*
X73228798Y-104274865D01*
X73225204Y-104299095D01*
X73219252Y-104322855D01*
X73211000Y-104345918D01*
X73200528Y-104368061D01*
X73187935Y-104389070D01*
X73173343Y-104408745D01*
X73156894Y-104426894D01*
X73138745Y-104443343D01*
X73119070Y-104457935D01*
X73098061Y-104470528D01*
X73075918Y-104481000D01*
X73052855Y-104489252D01*
X73029095Y-104495204D01*
X73004865Y-104498798D01*
X72980400Y-104500000D01*
X72679600Y-104500000D01*
X72655135Y-104498798D01*
X72630905Y-104495204D01*
X72607145Y-104489252D01*
X72584082Y-104481000D01*
X72561939Y-104470528D01*
X72540930Y-104457935D01*
X72521255Y-104443343D01*
X72503106Y-104426894D01*
X72486657Y-104408745D01*
X72472065Y-104389070D01*
X72459472Y-104368061D01*
X72449000Y-104345918D01*
X72440748Y-104322855D01*
X72434796Y-104299095D01*
X72431202Y-104274865D01*
X72430000Y-104250400D01*
X72430000Y-102249600D01*
X72431202Y-102225135D01*
X72434796Y-102200905D01*
X72440748Y-102177145D01*
X72449000Y-102154082D01*
X72459472Y-102131939D01*
X72472065Y-102110930D01*
X72486657Y-102091255D01*
X72503106Y-102073106D01*
X72521255Y-102056657D01*
X72540930Y-102042065D01*
X72561939Y-102029472D01*
X72584082Y-102019000D01*
X72607145Y-102010748D01*
X72630905Y-102004796D01*
X72655135Y-102001202D01*
X72679600Y-102000000D01*
X72980400Y-102000000D01*
X73004865Y-102001202D01*
X73004865Y-102001202D01*
G37*
D12*
X72830000Y-103250000D03*
D10*
G36*
X72004865Y-102001202D02*
G01*
X72029095Y-102004796D01*
X72052855Y-102010748D01*
X72075918Y-102019000D01*
X72098061Y-102029472D01*
X72119070Y-102042065D01*
X72138745Y-102056657D01*
X72156894Y-102073106D01*
X72173343Y-102091255D01*
X72187935Y-102110930D01*
X72200528Y-102131939D01*
X72211000Y-102154082D01*
X72219252Y-102177145D01*
X72225204Y-102200905D01*
X72228798Y-102225135D01*
X72230000Y-102249600D01*
X72230000Y-104250400D01*
X72228798Y-104274865D01*
X72225204Y-104299095D01*
X72219252Y-104322855D01*
X72211000Y-104345918D01*
X72200528Y-104368061D01*
X72187935Y-104389070D01*
X72173343Y-104408745D01*
X72156894Y-104426894D01*
X72138745Y-104443343D01*
X72119070Y-104457935D01*
X72098061Y-104470528D01*
X72075918Y-104481000D01*
X72052855Y-104489252D01*
X72029095Y-104495204D01*
X72004865Y-104498798D01*
X71980400Y-104500000D01*
X71679600Y-104500000D01*
X71655135Y-104498798D01*
X71630905Y-104495204D01*
X71607145Y-104489252D01*
X71584082Y-104481000D01*
X71561939Y-104470528D01*
X71540930Y-104457935D01*
X71521255Y-104443343D01*
X71503106Y-104426894D01*
X71486657Y-104408745D01*
X71472065Y-104389070D01*
X71459472Y-104368061D01*
X71449000Y-104345918D01*
X71440748Y-104322855D01*
X71434796Y-104299095D01*
X71431202Y-104274865D01*
X71430000Y-104250400D01*
X71430000Y-102249600D01*
X71431202Y-102225135D01*
X71434796Y-102200905D01*
X71440748Y-102177145D01*
X71449000Y-102154082D01*
X71459472Y-102131939D01*
X71472065Y-102110930D01*
X71486657Y-102091255D01*
X71503106Y-102073106D01*
X71521255Y-102056657D01*
X71540930Y-102042065D01*
X71561939Y-102029472D01*
X71584082Y-102019000D01*
X71607145Y-102010748D01*
X71630905Y-102004796D01*
X71655135Y-102001202D01*
X71679600Y-102000000D01*
X71980400Y-102000000D01*
X72004865Y-102001202D01*
X72004865Y-102001202D01*
G37*
D12*
X71830000Y-103250000D03*
D10*
G36*
X71004865Y-102001202D02*
G01*
X71029095Y-102004796D01*
X71052855Y-102010748D01*
X71075918Y-102019000D01*
X71098061Y-102029472D01*
X71119070Y-102042065D01*
X71138745Y-102056657D01*
X71156894Y-102073106D01*
X71173343Y-102091255D01*
X71187935Y-102110930D01*
X71200528Y-102131939D01*
X71211000Y-102154082D01*
X71219252Y-102177145D01*
X71225204Y-102200905D01*
X71228798Y-102225135D01*
X71230000Y-102249600D01*
X71230000Y-104250400D01*
X71228798Y-104274865D01*
X71225204Y-104299095D01*
X71219252Y-104322855D01*
X71211000Y-104345918D01*
X71200528Y-104368061D01*
X71187935Y-104389070D01*
X71173343Y-104408745D01*
X71156894Y-104426894D01*
X71138745Y-104443343D01*
X71119070Y-104457935D01*
X71098061Y-104470528D01*
X71075918Y-104481000D01*
X71052855Y-104489252D01*
X71029095Y-104495204D01*
X71004865Y-104498798D01*
X70980400Y-104500000D01*
X70679600Y-104500000D01*
X70655135Y-104498798D01*
X70630905Y-104495204D01*
X70607145Y-104489252D01*
X70584082Y-104481000D01*
X70561939Y-104470528D01*
X70540930Y-104457935D01*
X70521255Y-104443343D01*
X70503106Y-104426894D01*
X70486657Y-104408745D01*
X70472065Y-104389070D01*
X70459472Y-104368061D01*
X70449000Y-104345918D01*
X70440748Y-104322855D01*
X70434796Y-104299095D01*
X70431202Y-104274865D01*
X70430000Y-104250400D01*
X70430000Y-102249600D01*
X70431202Y-102225135D01*
X70434796Y-102200905D01*
X70440748Y-102177145D01*
X70449000Y-102154082D01*
X70459472Y-102131939D01*
X70472065Y-102110930D01*
X70486657Y-102091255D01*
X70503106Y-102073106D01*
X70521255Y-102056657D01*
X70540930Y-102042065D01*
X70561939Y-102029472D01*
X70584082Y-102019000D01*
X70607145Y-102010748D01*
X70630905Y-102004796D01*
X70655135Y-102001202D01*
X70679600Y-102000000D01*
X70980400Y-102000000D01*
X71004865Y-102001202D01*
X71004865Y-102001202D01*
G37*
D12*
X70830000Y-103250000D03*
D10*
G36*
X70004865Y-102001202D02*
G01*
X70029095Y-102004796D01*
X70052855Y-102010748D01*
X70075918Y-102019000D01*
X70098061Y-102029472D01*
X70119070Y-102042065D01*
X70138745Y-102056657D01*
X70156894Y-102073106D01*
X70173343Y-102091255D01*
X70187935Y-102110930D01*
X70200528Y-102131939D01*
X70211000Y-102154082D01*
X70219252Y-102177145D01*
X70225204Y-102200905D01*
X70228798Y-102225135D01*
X70230000Y-102249600D01*
X70230000Y-104250400D01*
X70228798Y-104274865D01*
X70225204Y-104299095D01*
X70219252Y-104322855D01*
X70211000Y-104345918D01*
X70200528Y-104368061D01*
X70187935Y-104389070D01*
X70173343Y-104408745D01*
X70156894Y-104426894D01*
X70138745Y-104443343D01*
X70119070Y-104457935D01*
X70098061Y-104470528D01*
X70075918Y-104481000D01*
X70052855Y-104489252D01*
X70029095Y-104495204D01*
X70004865Y-104498798D01*
X69980400Y-104500000D01*
X69679600Y-104500000D01*
X69655135Y-104498798D01*
X69630905Y-104495204D01*
X69607145Y-104489252D01*
X69584082Y-104481000D01*
X69561939Y-104470528D01*
X69540930Y-104457935D01*
X69521255Y-104443343D01*
X69503106Y-104426894D01*
X69486657Y-104408745D01*
X69472065Y-104389070D01*
X69459472Y-104368061D01*
X69449000Y-104345918D01*
X69440748Y-104322855D01*
X69434796Y-104299095D01*
X69431202Y-104274865D01*
X69430000Y-104250400D01*
X69430000Y-102249600D01*
X69431202Y-102225135D01*
X69434796Y-102200905D01*
X69440748Y-102177145D01*
X69449000Y-102154082D01*
X69459472Y-102131939D01*
X69472065Y-102110930D01*
X69486657Y-102091255D01*
X69503106Y-102073106D01*
X69521255Y-102056657D01*
X69540930Y-102042065D01*
X69561939Y-102029472D01*
X69584082Y-102019000D01*
X69607145Y-102010748D01*
X69630905Y-102004796D01*
X69655135Y-102001202D01*
X69679600Y-102000000D01*
X69980400Y-102000000D01*
X70004865Y-102001202D01*
X70004865Y-102001202D01*
G37*
D12*
X69830000Y-103250000D03*
D10*
G36*
X77551756Y-105251806D02*
G01*
X77588159Y-105257206D01*
X77623857Y-105266147D01*
X77658506Y-105278545D01*
X77691774Y-105294280D01*
X77723339Y-105313199D01*
X77752897Y-105335121D01*
X77780165Y-105359835D01*
X77804879Y-105387103D01*
X77826801Y-105416661D01*
X77845720Y-105448226D01*
X77861455Y-105481494D01*
X77873853Y-105516143D01*
X77882794Y-105551841D01*
X77888194Y-105588244D01*
X77890000Y-105625000D01*
X77890000Y-106875000D01*
X77888194Y-106911756D01*
X77882794Y-106948159D01*
X77873853Y-106983857D01*
X77861455Y-107018506D01*
X77845720Y-107051774D01*
X77826801Y-107083339D01*
X77804879Y-107112897D01*
X77780165Y-107140165D01*
X77752897Y-107164879D01*
X77723339Y-107186801D01*
X77691774Y-107205720D01*
X77658506Y-107221455D01*
X77623857Y-107233853D01*
X77588159Y-107242794D01*
X77551756Y-107248194D01*
X77515000Y-107250000D01*
X76765000Y-107250000D01*
X76728244Y-107248194D01*
X76691841Y-107242794D01*
X76656143Y-107233853D01*
X76621494Y-107221455D01*
X76588226Y-107205720D01*
X76556661Y-107186801D01*
X76527103Y-107164879D01*
X76499835Y-107140165D01*
X76475121Y-107112897D01*
X76453199Y-107083339D01*
X76434280Y-107051774D01*
X76418545Y-107018506D01*
X76406147Y-106983857D01*
X76397206Y-106948159D01*
X76391806Y-106911756D01*
X76390000Y-106875000D01*
X76390000Y-105625000D01*
X76391806Y-105588244D01*
X76397206Y-105551841D01*
X76406147Y-105516143D01*
X76418545Y-105481494D01*
X76434280Y-105448226D01*
X76453199Y-105416661D01*
X76475121Y-105387103D01*
X76499835Y-105359835D01*
X76527103Y-105335121D01*
X76556661Y-105313199D01*
X76588226Y-105294280D01*
X76621494Y-105278545D01*
X76656143Y-105266147D01*
X76691841Y-105257206D01*
X76728244Y-105251806D01*
X76765000Y-105250000D01*
X77515000Y-105250000D01*
X77551756Y-105251806D01*
X77551756Y-105251806D01*
G37*
D11*
X77140000Y-106250000D03*
D10*
G36*
X75011756Y-105251806D02*
G01*
X75048159Y-105257206D01*
X75083857Y-105266147D01*
X75118506Y-105278545D01*
X75151774Y-105294280D01*
X75183339Y-105313199D01*
X75212897Y-105335121D01*
X75240165Y-105359835D01*
X75264879Y-105387103D01*
X75286801Y-105416661D01*
X75305720Y-105448226D01*
X75321455Y-105481494D01*
X75333853Y-105516143D01*
X75342794Y-105551841D01*
X75348194Y-105588244D01*
X75350000Y-105625000D01*
X75350000Y-106875000D01*
X75348194Y-106911756D01*
X75342794Y-106948159D01*
X75333853Y-106983857D01*
X75321455Y-107018506D01*
X75305720Y-107051774D01*
X75286801Y-107083339D01*
X75264879Y-107112897D01*
X75240165Y-107140165D01*
X75212897Y-107164879D01*
X75183339Y-107186801D01*
X75151774Y-107205720D01*
X75118506Y-107221455D01*
X75083857Y-107233853D01*
X75048159Y-107242794D01*
X75011756Y-107248194D01*
X74975000Y-107250000D01*
X74225000Y-107250000D01*
X74188244Y-107248194D01*
X74151841Y-107242794D01*
X74116143Y-107233853D01*
X74081494Y-107221455D01*
X74048226Y-107205720D01*
X74016661Y-107186801D01*
X73987103Y-107164879D01*
X73959835Y-107140165D01*
X73935121Y-107112897D01*
X73913199Y-107083339D01*
X73894280Y-107051774D01*
X73878545Y-107018506D01*
X73866147Y-106983857D01*
X73857206Y-106948159D01*
X73851806Y-106911756D01*
X73850000Y-106875000D01*
X73850000Y-105625000D01*
X73851806Y-105588244D01*
X73857206Y-105551841D01*
X73866147Y-105516143D01*
X73878545Y-105481494D01*
X73894280Y-105448226D01*
X73913199Y-105416661D01*
X73935121Y-105387103D01*
X73959835Y-105359835D01*
X73987103Y-105335121D01*
X74016661Y-105313199D01*
X74048226Y-105294280D01*
X74081494Y-105278545D01*
X74116143Y-105266147D01*
X74151841Y-105257206D01*
X74188244Y-105251806D01*
X74225000Y-105250000D01*
X74975000Y-105250000D01*
X75011756Y-105251806D01*
X75011756Y-105251806D01*
G37*
D11*
X74600000Y-106250000D03*
D10*
G36*
X72471756Y-105251806D02*
G01*
X72508159Y-105257206D01*
X72543857Y-105266147D01*
X72578506Y-105278545D01*
X72611774Y-105294280D01*
X72643339Y-105313199D01*
X72672897Y-105335121D01*
X72700165Y-105359835D01*
X72724879Y-105387103D01*
X72746801Y-105416661D01*
X72765720Y-105448226D01*
X72781455Y-105481494D01*
X72793853Y-105516143D01*
X72802794Y-105551841D01*
X72808194Y-105588244D01*
X72810000Y-105625000D01*
X72810000Y-106875000D01*
X72808194Y-106911756D01*
X72802794Y-106948159D01*
X72793853Y-106983857D01*
X72781455Y-107018506D01*
X72765720Y-107051774D01*
X72746801Y-107083339D01*
X72724879Y-107112897D01*
X72700165Y-107140165D01*
X72672897Y-107164879D01*
X72643339Y-107186801D01*
X72611774Y-107205720D01*
X72578506Y-107221455D01*
X72543857Y-107233853D01*
X72508159Y-107242794D01*
X72471756Y-107248194D01*
X72435000Y-107250000D01*
X71685000Y-107250000D01*
X71648244Y-107248194D01*
X71611841Y-107242794D01*
X71576143Y-107233853D01*
X71541494Y-107221455D01*
X71508226Y-107205720D01*
X71476661Y-107186801D01*
X71447103Y-107164879D01*
X71419835Y-107140165D01*
X71395121Y-107112897D01*
X71373199Y-107083339D01*
X71354280Y-107051774D01*
X71338545Y-107018506D01*
X71326147Y-106983857D01*
X71317206Y-106948159D01*
X71311806Y-106911756D01*
X71310000Y-106875000D01*
X71310000Y-105625000D01*
X71311806Y-105588244D01*
X71317206Y-105551841D01*
X71326147Y-105516143D01*
X71338545Y-105481494D01*
X71354280Y-105448226D01*
X71373199Y-105416661D01*
X71395121Y-105387103D01*
X71419835Y-105359835D01*
X71447103Y-105335121D01*
X71476661Y-105313199D01*
X71508226Y-105294280D01*
X71541494Y-105278545D01*
X71576143Y-105266147D01*
X71611841Y-105257206D01*
X71648244Y-105251806D01*
X71685000Y-105250000D01*
X72435000Y-105250000D01*
X72471756Y-105251806D01*
X72471756Y-105251806D01*
G37*
D11*
X72060000Y-106250000D03*
D10*
G36*
X69931756Y-105251806D02*
G01*
X69968159Y-105257206D01*
X70003857Y-105266147D01*
X70038506Y-105278545D01*
X70071774Y-105294280D01*
X70103339Y-105313199D01*
X70132897Y-105335121D01*
X70160165Y-105359835D01*
X70184879Y-105387103D01*
X70206801Y-105416661D01*
X70225720Y-105448226D01*
X70241455Y-105481494D01*
X70253853Y-105516143D01*
X70262794Y-105551841D01*
X70268194Y-105588244D01*
X70270000Y-105625000D01*
X70270000Y-106875000D01*
X70268194Y-106911756D01*
X70262794Y-106948159D01*
X70253853Y-106983857D01*
X70241455Y-107018506D01*
X70225720Y-107051774D01*
X70206801Y-107083339D01*
X70184879Y-107112897D01*
X70160165Y-107140165D01*
X70132897Y-107164879D01*
X70103339Y-107186801D01*
X70071774Y-107205720D01*
X70038506Y-107221455D01*
X70003857Y-107233853D01*
X69968159Y-107242794D01*
X69931756Y-107248194D01*
X69895000Y-107250000D01*
X69145000Y-107250000D01*
X69108244Y-107248194D01*
X69071841Y-107242794D01*
X69036143Y-107233853D01*
X69001494Y-107221455D01*
X68968226Y-107205720D01*
X68936661Y-107186801D01*
X68907103Y-107164879D01*
X68879835Y-107140165D01*
X68855121Y-107112897D01*
X68833199Y-107083339D01*
X68814280Y-107051774D01*
X68798545Y-107018506D01*
X68786147Y-106983857D01*
X68777206Y-106948159D01*
X68771806Y-106911756D01*
X68770000Y-106875000D01*
X68770000Y-105625000D01*
X68771806Y-105588244D01*
X68777206Y-105551841D01*
X68786147Y-105516143D01*
X68798545Y-105481494D01*
X68814280Y-105448226D01*
X68833199Y-105416661D01*
X68855121Y-105387103D01*
X68879835Y-105359835D01*
X68907103Y-105335121D01*
X68936661Y-105313199D01*
X68968226Y-105294280D01*
X69001494Y-105278545D01*
X69036143Y-105266147D01*
X69071841Y-105257206D01*
X69108244Y-105251806D01*
X69145000Y-105250000D01*
X69895000Y-105250000D01*
X69931756Y-105251806D01*
X69931756Y-105251806D01*
G37*
D11*
X69520000Y-106250000D03*
D13*
X57988400Y-112237500D03*
X142011600Y-112237500D03*
X73500000Y-111300000D03*
X101397000Y-111828600D03*
X124300000Y-111300000D03*
D12*
X84125000Y-108378998D03*
D13*
X61816000Y-112275400D03*
X131920000Y-112275400D03*
X105504000Y-111325400D03*
X109314000Y-111325400D03*
X95682000Y-112237500D03*
X83109000Y-108379000D03*
X80823008Y-108379000D03*
X64016000Y-110375400D03*
X68080000Y-110375400D03*
X82120263Y-109272800D03*
X134120000Y-110375400D03*
X138184000Y-110375400D03*
X107704000Y-110375400D03*
X116764000Y-108531400D03*
X107620000Y-108785400D03*
X126500000Y-111300000D03*
X75700000Y-111300000D03*
X122054978Y-110350000D03*
X80144974Y-110350000D03*
X89586000Y-107261400D03*
X73500000Y-110350000D03*
X75700000Y-110350000D03*
X71679000Y-110362500D03*
X128448000Y-108256800D03*
X128194000Y-110362500D03*
X93777000Y-112237500D03*
X91618000Y-108277400D03*
X65880000Y-110375400D03*
X71679000Y-111833400D03*
X69774000Y-112217780D03*
X61816000Y-110375400D03*
X135984000Y-110375400D03*
X130226000Y-112237500D03*
X64016000Y-112275400D03*
X68080000Y-112275400D03*
X134120000Y-112275400D03*
X138184000Y-112275400D03*
X111514000Y-112275400D03*
X119304000Y-109039400D03*
X135814000Y-109293400D03*
X110160000Y-107853144D03*
X85776000Y-103705400D03*
X77945000Y-110350000D03*
X107704000Y-112275400D03*
X80188000Y-107515400D03*
X108889950Y-108785400D03*
D14*
X83109000Y-108379000D02*
X80823008Y-108379000D01*
D15*
X64016000Y-110375400D02*
X64661190Y-111020590D01*
X68961190Y-110626590D02*
X68961190Y-111020590D01*
X68710000Y-110375400D02*
X68961190Y-110626590D01*
X68080000Y-110375400D02*
X68710000Y-110375400D01*
X64661190Y-111020590D02*
X68961190Y-111020590D01*
X69469190Y-111020590D02*
X70810601Y-112362001D01*
X68961190Y-111020590D02*
X69469190Y-111020590D01*
X82063534Y-109272800D02*
X82120263Y-109272800D01*
X70810601Y-112362001D02*
X80929399Y-112362001D01*
X80929399Y-112362001D02*
X81204000Y-112087400D01*
X81204000Y-112087400D02*
X81204000Y-110132334D01*
X81204000Y-110132334D02*
X82063534Y-109272800D01*
X117910058Y-108531400D02*
X116764000Y-108531400D01*
X130160000Y-110375400D02*
X127940000Y-112595400D01*
X134120000Y-110375400D02*
X130160000Y-110375400D01*
X127940000Y-112595400D02*
X119304000Y-112595400D01*
X119304000Y-112595400D02*
X118796000Y-112087400D01*
X118796000Y-112087400D02*
X118796000Y-109417342D01*
X118796000Y-109417342D02*
X117910058Y-108531400D01*
X107704000Y-108869400D02*
X107620000Y-108785400D01*
X107704000Y-110375400D02*
X107704000Y-108869400D01*
D16*
X80285000Y-106250000D02*
X77140000Y-106250000D01*
X84125000Y-102410000D02*
X80285000Y-106250000D01*
X122860000Y-106250000D02*
X119715000Y-106250000D01*
X119715000Y-106250000D02*
X115875000Y-102410000D01*
X115875000Y-102410000D02*
X89205000Y-102410000D01*
X89205000Y-102410000D02*
X84125000Y-102410000D01*
D15*
X125550000Y-110350000D02*
X122054978Y-110350000D01*
X126500000Y-111300000D02*
X125550000Y-110350000D01*
X79194974Y-111300000D02*
X80144974Y-110350000D01*
X75700000Y-111300000D02*
X79194974Y-111300000D01*
X89205000Y-102410000D02*
X89205000Y-106880400D01*
X89205000Y-106880400D02*
X89286001Y-106961401D01*
X89286001Y-106961401D02*
X89586000Y-107261400D01*
X73500000Y-110350000D02*
X75700000Y-110350000D01*
X72060000Y-109981500D02*
X71679000Y-110362500D01*
X72060000Y-106250000D02*
X72060000Y-109981500D01*
X128448000Y-108256800D02*
X128448000Y-110108500D01*
X128448000Y-110108500D02*
X128194000Y-110362500D01*
X91318001Y-108577399D02*
X91618000Y-108277400D01*
X91318001Y-112142731D02*
X91318001Y-108577399D01*
X92977000Y-112237500D02*
X92771499Y-112443001D01*
X91618271Y-112443001D02*
X91318001Y-112142731D01*
X92771499Y-112443001D02*
X91618271Y-112443001D01*
X93777000Y-112237500D02*
X92977000Y-112237500D01*
X70790000Y-111833400D02*
X71679000Y-111833400D01*
X68758000Y-109801400D02*
X70790000Y-111833400D01*
X65880000Y-110375400D02*
X66454000Y-109801400D01*
X66454000Y-109801400D02*
X68758000Y-109801400D01*
X62766000Y-111325400D02*
X61816000Y-110375400D01*
X69774000Y-112217780D02*
X68881620Y-111325400D01*
X68881620Y-111325400D02*
X62766000Y-111325400D01*
X135034000Y-111325400D02*
X135984000Y-110375400D01*
X130226000Y-112237500D02*
X131138100Y-111325400D01*
X131138100Y-111325400D02*
X135034000Y-111325400D01*
X64016000Y-112275400D02*
X68080000Y-112275400D01*
X138184000Y-112275400D02*
X134120000Y-112275400D01*
X119304000Y-109039400D02*
X119304000Y-111833400D01*
X119558000Y-112087400D02*
X127686000Y-112087400D01*
X119304000Y-111833400D02*
X119558000Y-112087400D01*
X127686000Y-112087400D02*
X128448000Y-111325400D01*
X128448000Y-111325400D02*
X129972000Y-109801400D01*
X129972000Y-109801400D02*
X132258000Y-109801400D01*
X132258000Y-109801400D02*
X135052000Y-109801400D01*
X135052000Y-109801400D02*
X135306000Y-109801400D01*
X135306000Y-109801400D02*
X135814000Y-109293400D01*
X111514000Y-112275400D02*
X110160000Y-110921400D01*
X110160000Y-108277408D02*
X110160000Y-107853144D01*
X110160000Y-110921400D02*
X110160000Y-108277408D01*
X81815019Y-112746381D02*
X85268000Y-109293400D01*
X85268000Y-109293400D02*
X85268000Y-104213400D01*
X85268000Y-104213400D02*
X85476001Y-104005399D01*
X68080000Y-112275400D02*
X68550981Y-112746381D01*
X68550981Y-112746381D02*
X81815019Y-112746381D01*
X85476001Y-104005399D02*
X85776000Y-103705400D01*
X77945000Y-109758400D02*
X77945000Y-110350000D01*
X80188000Y-107515400D02*
X77945000Y-109758400D01*
X108636020Y-109039330D02*
X108889950Y-108785400D01*
X107704000Y-112275400D02*
X108636020Y-111343380D01*
X108636020Y-111343380D02*
X108636020Y-109039330D01*
D17*
G36*
X67170140Y-101644903D02*
G01*
X67176882Y-101653118D01*
X67185097Y-101659860D01*
X67185099Y-101659862D01*
X67209695Y-101680048D01*
X67247133Y-101700059D01*
X67287754Y-101712381D01*
X67291550Y-101712755D01*
X67319421Y-101715500D01*
X67319428Y-101715500D01*
X67330000Y-101716541D01*
X67340571Y-101715500D01*
X79319431Y-101715500D01*
X79330000Y-101716541D01*
X79340569Y-101715500D01*
X79340579Y-101715500D01*
X79372245Y-101712381D01*
X79412867Y-101700059D01*
X79450304Y-101680048D01*
X79483118Y-101653118D01*
X79489864Y-101644898D01*
X80419263Y-100715500D01*
X119580738Y-100715500D01*
X120510140Y-101644903D01*
X120516882Y-101653118D01*
X120525097Y-101659860D01*
X120525099Y-101659862D01*
X120549695Y-101680048D01*
X120587133Y-101700059D01*
X120627754Y-101712381D01*
X120631550Y-101712755D01*
X120659421Y-101715500D01*
X120659428Y-101715500D01*
X120670000Y-101716541D01*
X120680571Y-101715500D01*
X132659431Y-101715500D01*
X132670000Y-101716541D01*
X132680569Y-101715500D01*
X132680579Y-101715500D01*
X132712245Y-101712381D01*
X132752867Y-101700059D01*
X132790304Y-101680048D01*
X132823118Y-101653118D01*
X132829864Y-101644898D01*
X133759263Y-100715500D01*
X142805118Y-100715500D01*
X142818622Y-100835889D01*
X142822685Y-100855006D01*
X142826477Y-100874154D01*
X142827366Y-100877029D01*
X142876928Y-101033270D01*
X142205099Y-101705099D01*
X142197202Y-101714721D01*
X142191334Y-101725700D01*
X142187720Y-101737612D01*
X142186500Y-101750000D01*
X142186500Y-105250000D01*
X142187720Y-105262388D01*
X142191334Y-105274300D01*
X142197202Y-105285279D01*
X142205099Y-105294901D01*
X142876599Y-105966401D01*
X142822265Y-106146361D01*
X142818470Y-106165524D01*
X142814410Y-106184627D01*
X142814095Y-106187619D01*
X142785528Y-106478971D01*
X142785528Y-106478994D01*
X142784501Y-106489421D01*
X142784500Y-112784500D01*
X141220500Y-112784500D01*
X141220500Y-107989421D01*
X141220427Y-107988677D01*
X141220398Y-107984541D01*
X141219374Y-107974797D01*
X141219374Y-107965009D01*
X141219060Y-107962016D01*
X141197305Y-107768066D01*
X141193243Y-107748956D01*
X141189450Y-107729801D01*
X141188563Y-107726937D01*
X141188561Y-107726927D01*
X141188557Y-107726918D01*
X141129547Y-107540896D01*
X141121852Y-107522941D01*
X141114410Y-107504887D01*
X141112979Y-107502240D01*
X141112979Y-107502239D01*
X141112976Y-107502235D01*
X141018957Y-107331215D01*
X141007945Y-107315132D01*
X140997114Y-107298831D01*
X140995196Y-107296513D01*
X140869746Y-107147007D01*
X140855781Y-107133331D01*
X140842027Y-107119481D01*
X140839696Y-107117579D01*
X140687596Y-106995288D01*
X140671196Y-106984556D01*
X140655060Y-106973672D01*
X140652407Y-106972261D01*
X140652403Y-106972258D01*
X140652399Y-106972256D01*
X140479448Y-106881839D01*
X140461335Y-106874521D01*
X140443331Y-106866953D01*
X140440455Y-106866085D01*
X140440449Y-106866083D01*
X140253225Y-106810981D01*
X140234035Y-106807320D01*
X140214907Y-106803394D01*
X140211913Y-106803100D01*
X140017551Y-106785411D01*
X139998019Y-106785547D01*
X139978487Y-106785411D01*
X139975503Y-106785704D01*
X139975493Y-106785704D01*
X139975484Y-106785706D01*
X139781395Y-106806106D01*
X139762267Y-106810032D01*
X139743078Y-106813693D01*
X139740197Y-106814562D01*
X139553759Y-106872274D01*
X139535734Y-106879851D01*
X139517644Y-106887160D01*
X139514987Y-106888573D01*
X139343310Y-106981398D01*
X139327134Y-106992309D01*
X139310773Y-107003015D01*
X139308449Y-107004911D01*
X139308442Y-107004916D01*
X139308436Y-107004922D01*
X139158064Y-107129321D01*
X139144311Y-107143170D01*
X139130347Y-107156845D01*
X139128434Y-107159158D01*
X139128428Y-107159164D01*
X139128424Y-107159171D01*
X139005078Y-107310406D01*
X138994263Y-107326684D01*
X138983235Y-107342790D01*
X138981808Y-107345429D01*
X138981803Y-107345437D01*
X138981800Y-107345445D01*
X138890179Y-107517759D01*
X138882740Y-107535807D01*
X138875041Y-107553769D01*
X138874155Y-107556634D01*
X138874151Y-107556644D01*
X138874149Y-107556654D01*
X138817743Y-107743480D01*
X138813950Y-107762635D01*
X138809888Y-107781745D01*
X138809573Y-107784737D01*
X138790529Y-107978971D01*
X138789500Y-107989422D01*
X138789501Y-112784500D01*
X138268997Y-112784500D01*
X138334482Y-112771474D01*
X138428370Y-112732584D01*
X138512867Y-112676126D01*
X138584726Y-112604267D01*
X138641184Y-112519770D01*
X138680074Y-112425882D01*
X138699900Y-112326212D01*
X138699900Y-112224588D01*
X138680074Y-112124918D01*
X138641184Y-112031030D01*
X138584726Y-111946533D01*
X138512867Y-111874674D01*
X138428370Y-111818216D01*
X138334482Y-111779326D01*
X138234812Y-111759500D01*
X138133188Y-111759500D01*
X138033518Y-111779326D01*
X137939630Y-111818216D01*
X137855133Y-111874674D01*
X137783274Y-111946533D01*
X137758708Y-111983300D01*
X134545292Y-111983300D01*
X134520726Y-111946533D01*
X134448867Y-111874674D01*
X134364370Y-111818216D01*
X134270482Y-111779326D01*
X134170812Y-111759500D01*
X134069188Y-111759500D01*
X133969518Y-111779326D01*
X133875630Y-111818216D01*
X133791133Y-111874674D01*
X133719274Y-111946533D01*
X133662816Y-112031030D01*
X133623926Y-112124918D01*
X133604100Y-112224588D01*
X133604100Y-112326212D01*
X133623926Y-112425882D01*
X133662816Y-112519770D01*
X133719274Y-112604267D01*
X133791133Y-112676126D01*
X133875630Y-112732584D01*
X133969518Y-112771474D01*
X134035003Y-112784500D01*
X128163991Y-112784500D01*
X128761803Y-112186688D01*
X129710100Y-112186688D01*
X129710100Y-112288312D01*
X129729926Y-112387982D01*
X129768816Y-112481870D01*
X129825274Y-112566367D01*
X129897133Y-112638226D01*
X129981630Y-112694684D01*
X130075518Y-112733574D01*
X130175188Y-112753400D01*
X130276812Y-112753400D01*
X130376482Y-112733574D01*
X130470370Y-112694684D01*
X130554867Y-112638226D01*
X130626726Y-112566367D01*
X130683184Y-112481870D01*
X130722074Y-112387982D01*
X130741900Y-112288312D01*
X130741900Y-112186688D01*
X130733273Y-112143318D01*
X131259091Y-111617500D01*
X135019662Y-111617500D01*
X135034000Y-111618912D01*
X135048338Y-111617500D01*
X135048346Y-111617500D01*
X135091262Y-111613273D01*
X135146323Y-111596571D01*
X135197067Y-111569447D01*
X135241545Y-111532945D01*
X135250693Y-111521798D01*
X135889819Y-110882673D01*
X135933188Y-110891300D01*
X136034812Y-110891300D01*
X136134482Y-110871474D01*
X136228370Y-110832584D01*
X136312867Y-110776126D01*
X136384726Y-110704267D01*
X136441184Y-110619770D01*
X136480074Y-110525882D01*
X136499900Y-110426212D01*
X136499900Y-110324588D01*
X137668100Y-110324588D01*
X137668100Y-110426212D01*
X137687926Y-110525882D01*
X137726816Y-110619770D01*
X137783274Y-110704267D01*
X137855133Y-110776126D01*
X137939630Y-110832584D01*
X138033518Y-110871474D01*
X138133188Y-110891300D01*
X138234812Y-110891300D01*
X138334482Y-110871474D01*
X138428370Y-110832584D01*
X138512867Y-110776126D01*
X138584726Y-110704267D01*
X138641184Y-110619770D01*
X138680074Y-110525882D01*
X138699900Y-110426212D01*
X138699900Y-110324588D01*
X138680074Y-110224918D01*
X138641184Y-110131030D01*
X138584726Y-110046533D01*
X138512867Y-109974674D01*
X138428370Y-109918216D01*
X138334482Y-109879326D01*
X138234812Y-109859500D01*
X138133188Y-109859500D01*
X138033518Y-109879326D01*
X137939630Y-109918216D01*
X137855133Y-109974674D01*
X137783274Y-110046533D01*
X137726816Y-110131030D01*
X137687926Y-110224918D01*
X137668100Y-110324588D01*
X136499900Y-110324588D01*
X136480074Y-110224918D01*
X136441184Y-110131030D01*
X136384726Y-110046533D01*
X136312867Y-109974674D01*
X136228370Y-109918216D01*
X136134482Y-109879326D01*
X136034812Y-109859500D01*
X135933188Y-109859500D01*
X135833518Y-109879326D01*
X135739630Y-109918216D01*
X135655133Y-109974674D01*
X135583274Y-110046533D01*
X135526816Y-110131030D01*
X135487926Y-110224918D01*
X135468100Y-110324588D01*
X135468100Y-110426212D01*
X135476727Y-110469581D01*
X134913009Y-111033300D01*
X131152435Y-111033300D01*
X131138099Y-111031888D01*
X131123763Y-111033300D01*
X131123754Y-111033300D01*
X131080838Y-111037527D01*
X131025777Y-111054229D01*
X130975033Y-111081353D01*
X130930555Y-111117855D01*
X130921407Y-111129002D01*
X130320182Y-111730227D01*
X130276812Y-111721600D01*
X130175188Y-111721600D01*
X130075518Y-111741426D01*
X129981630Y-111780316D01*
X129897133Y-111836774D01*
X129825274Y-111908633D01*
X129768816Y-111993130D01*
X129729926Y-112087018D01*
X129710100Y-112186688D01*
X128761803Y-112186688D01*
X130280991Y-110667500D01*
X133694708Y-110667500D01*
X133719274Y-110704267D01*
X133791133Y-110776126D01*
X133875630Y-110832584D01*
X133969518Y-110871474D01*
X134069188Y-110891300D01*
X134170812Y-110891300D01*
X134270482Y-110871474D01*
X134364370Y-110832584D01*
X134448867Y-110776126D01*
X134520726Y-110704267D01*
X134577184Y-110619770D01*
X134616074Y-110525882D01*
X134635900Y-110426212D01*
X134635900Y-110324588D01*
X134616074Y-110224918D01*
X134577184Y-110131030D01*
X134552108Y-110093500D01*
X135291662Y-110093500D01*
X135306000Y-110094912D01*
X135320338Y-110093500D01*
X135320346Y-110093500D01*
X135363262Y-110089273D01*
X135418323Y-110072571D01*
X135469067Y-110045447D01*
X135513545Y-110008945D01*
X135522693Y-109997798D01*
X135719818Y-109800673D01*
X135763188Y-109809300D01*
X135864812Y-109809300D01*
X135964482Y-109789474D01*
X136058370Y-109750584D01*
X136142867Y-109694126D01*
X136214726Y-109622267D01*
X136271184Y-109537770D01*
X136310074Y-109443882D01*
X136329900Y-109344212D01*
X136329900Y-109242588D01*
X136310074Y-109142918D01*
X136271184Y-109049030D01*
X136214726Y-108964533D01*
X136142867Y-108892674D01*
X136058370Y-108836216D01*
X135964482Y-108797326D01*
X135864812Y-108777500D01*
X135763188Y-108777500D01*
X135663518Y-108797326D01*
X135569630Y-108836216D01*
X135485133Y-108892674D01*
X135413274Y-108964533D01*
X135356816Y-109049030D01*
X135317926Y-109142918D01*
X135298100Y-109242588D01*
X135298100Y-109344212D01*
X135306727Y-109387582D01*
X135185009Y-109509300D01*
X129986335Y-109509300D01*
X129971999Y-109507888D01*
X129957663Y-109509300D01*
X129957654Y-109509300D01*
X129914738Y-109513527D01*
X129859677Y-109530229D01*
X129808933Y-109557353D01*
X129764455Y-109593855D01*
X129755311Y-109604997D01*
X128251604Y-111108705D01*
X128251598Y-111108710D01*
X127565009Y-111795300D01*
X126652351Y-111795300D01*
X126744370Y-111757184D01*
X126828867Y-111700726D01*
X126900726Y-111628867D01*
X126957184Y-111544370D01*
X126996074Y-111450482D01*
X127015900Y-111350812D01*
X127015900Y-111249188D01*
X126996074Y-111149518D01*
X126957184Y-111055630D01*
X126900726Y-110971133D01*
X126828867Y-110899274D01*
X126744370Y-110842816D01*
X126650482Y-110803926D01*
X126550812Y-110784100D01*
X126449188Y-110784100D01*
X126405819Y-110792727D01*
X125924780Y-110311688D01*
X127678100Y-110311688D01*
X127678100Y-110413312D01*
X127697926Y-110512982D01*
X127736816Y-110606870D01*
X127793274Y-110691367D01*
X127865133Y-110763226D01*
X127949630Y-110819684D01*
X128043518Y-110858574D01*
X128143188Y-110878400D01*
X128244812Y-110878400D01*
X128344482Y-110858574D01*
X128438370Y-110819684D01*
X128522867Y-110763226D01*
X128594726Y-110691367D01*
X128651184Y-110606870D01*
X128690074Y-110512982D01*
X128709900Y-110413312D01*
X128709900Y-110311688D01*
X128699242Y-110258107D01*
X128719171Y-110220823D01*
X128735873Y-110165762D01*
X128740100Y-110122846D01*
X128740100Y-110122837D01*
X128741512Y-110108501D01*
X128740100Y-110094165D01*
X128740100Y-108682092D01*
X128776867Y-108657526D01*
X128848726Y-108585667D01*
X128905184Y-108501170D01*
X128944074Y-108407282D01*
X128963900Y-108307612D01*
X128963900Y-108205988D01*
X128944074Y-108106318D01*
X128905184Y-108012430D01*
X128848726Y-107927933D01*
X128776867Y-107856074D01*
X128692370Y-107799616D01*
X128598482Y-107760726D01*
X128498812Y-107740900D01*
X128397188Y-107740900D01*
X128297518Y-107760726D01*
X128203630Y-107799616D01*
X128119133Y-107856074D01*
X128047274Y-107927933D01*
X127990816Y-108012430D01*
X127951926Y-108106318D01*
X127932100Y-108205988D01*
X127932100Y-108307612D01*
X127951926Y-108407282D01*
X127990816Y-108501170D01*
X128047274Y-108585667D01*
X128119133Y-108657526D01*
X128155900Y-108682093D01*
X128155901Y-109846600D01*
X128143188Y-109846600D01*
X128043518Y-109866426D01*
X127949630Y-109905316D01*
X127865133Y-109961774D01*
X127793274Y-110033633D01*
X127736816Y-110118130D01*
X127697926Y-110212018D01*
X127678100Y-110311688D01*
X125924780Y-110311688D01*
X125766693Y-110153602D01*
X125757545Y-110142455D01*
X125713067Y-110105953D01*
X125662323Y-110078829D01*
X125607262Y-110062127D01*
X125564346Y-110057900D01*
X125564338Y-110057900D01*
X125550000Y-110056488D01*
X125535662Y-110057900D01*
X122480270Y-110057900D01*
X122455704Y-110021133D01*
X122383845Y-109949274D01*
X122299348Y-109892816D01*
X122205460Y-109853926D01*
X122105790Y-109834100D01*
X122004166Y-109834100D01*
X121904496Y-109853926D01*
X121810608Y-109892816D01*
X121726111Y-109949274D01*
X121654252Y-110021133D01*
X121597794Y-110105630D01*
X121558904Y-110199518D01*
X121539078Y-110299188D01*
X121539078Y-110400812D01*
X121558904Y-110500482D01*
X121597794Y-110594370D01*
X121654252Y-110678867D01*
X121726111Y-110750726D01*
X121810608Y-110807184D01*
X121904496Y-110846074D01*
X122004166Y-110865900D01*
X122105790Y-110865900D01*
X122205460Y-110846074D01*
X122299348Y-110807184D01*
X122383845Y-110750726D01*
X122455704Y-110678867D01*
X122480270Y-110642100D01*
X125429009Y-110642100D01*
X125992727Y-111205819D01*
X125984100Y-111249188D01*
X125984100Y-111350812D01*
X126003926Y-111450482D01*
X126042816Y-111544370D01*
X126099274Y-111628867D01*
X126171133Y-111700726D01*
X126255630Y-111757184D01*
X126347649Y-111795300D01*
X119678991Y-111795300D01*
X119596100Y-111712409D01*
X119596100Y-109464692D01*
X119632867Y-109440126D01*
X119704726Y-109368267D01*
X119761184Y-109283770D01*
X119800074Y-109189882D01*
X119819900Y-109090212D01*
X119819900Y-108988588D01*
X119800074Y-108888918D01*
X119761184Y-108795030D01*
X119704726Y-108710533D01*
X119632867Y-108638674D01*
X119548370Y-108582216D01*
X119454482Y-108543326D01*
X119354812Y-108523500D01*
X119253188Y-108523500D01*
X119153518Y-108543326D01*
X119059630Y-108582216D01*
X118975133Y-108638674D01*
X118903274Y-108710533D01*
X118846816Y-108795030D01*
X118807926Y-108888918D01*
X118788100Y-108988588D01*
X118788100Y-108996351D01*
X118126751Y-108335002D01*
X118117603Y-108323855D01*
X118073125Y-108287353D01*
X118022381Y-108260229D01*
X117967320Y-108243527D01*
X117924404Y-108239300D01*
X117924396Y-108239300D01*
X117910058Y-108237888D01*
X117895720Y-108239300D01*
X117189292Y-108239300D01*
X117164726Y-108202533D01*
X117092867Y-108130674D01*
X117008370Y-108074216D01*
X116914482Y-108035326D01*
X116814812Y-108015500D01*
X116713188Y-108015500D01*
X116613518Y-108035326D01*
X116519630Y-108074216D01*
X116435133Y-108130674D01*
X116363274Y-108202533D01*
X116306816Y-108287030D01*
X116267926Y-108380918D01*
X116248100Y-108480588D01*
X116248100Y-108582212D01*
X116267926Y-108681882D01*
X116306816Y-108775770D01*
X116363274Y-108860267D01*
X116435133Y-108932126D01*
X116519630Y-108988584D01*
X116613518Y-109027474D01*
X116713188Y-109047300D01*
X116814812Y-109047300D01*
X116914482Y-109027474D01*
X117008370Y-108988584D01*
X117092867Y-108932126D01*
X117164726Y-108860267D01*
X117189292Y-108823500D01*
X117789067Y-108823500D01*
X118145067Y-109179500D01*
X114550500Y-109179500D01*
X114550500Y-107989421D01*
X114550427Y-107988677D01*
X114550398Y-107984541D01*
X114549374Y-107974797D01*
X114549374Y-107965009D01*
X114549060Y-107962016D01*
X114527305Y-107768066D01*
X114523243Y-107748956D01*
X114519450Y-107729801D01*
X114518563Y-107726937D01*
X114518561Y-107726927D01*
X114518557Y-107726918D01*
X114459547Y-107540896D01*
X114451852Y-107522941D01*
X114444410Y-107504887D01*
X114442979Y-107502240D01*
X114442979Y-107502239D01*
X114442976Y-107502235D01*
X114348957Y-107331215D01*
X114337945Y-107315132D01*
X114327114Y-107298831D01*
X114325196Y-107296513D01*
X114199746Y-107147007D01*
X114185781Y-107133331D01*
X114172027Y-107119481D01*
X114169696Y-107117579D01*
X114017596Y-106995288D01*
X114001196Y-106984556D01*
X113985060Y-106973672D01*
X113982407Y-106972261D01*
X113982403Y-106972258D01*
X113982399Y-106972256D01*
X113809448Y-106881839D01*
X113791335Y-106874521D01*
X113773331Y-106866953D01*
X113770455Y-106866085D01*
X113770449Y-106866083D01*
X113583225Y-106810981D01*
X113564035Y-106807320D01*
X113544907Y-106803394D01*
X113541913Y-106803100D01*
X113347551Y-106785411D01*
X113328019Y-106785547D01*
X113308487Y-106785411D01*
X113305503Y-106785704D01*
X113305493Y-106785704D01*
X113305484Y-106785706D01*
X113111395Y-106806106D01*
X113092267Y-106810032D01*
X113073078Y-106813693D01*
X113070197Y-106814562D01*
X112883759Y-106872274D01*
X112865734Y-106879851D01*
X112847644Y-106887160D01*
X112844987Y-106888573D01*
X112673310Y-106981398D01*
X112657134Y-106992309D01*
X112640773Y-107003015D01*
X112638449Y-107004911D01*
X112638442Y-107004916D01*
X112638436Y-107004922D01*
X112488064Y-107129321D01*
X112474311Y-107143170D01*
X112460347Y-107156845D01*
X112458434Y-107159158D01*
X112458428Y-107159164D01*
X112458424Y-107159171D01*
X112335078Y-107310406D01*
X112324263Y-107326684D01*
X112313235Y-107342790D01*
X112311808Y-107345429D01*
X112311803Y-107345437D01*
X112311800Y-107345445D01*
X112220179Y-107517759D01*
X112212740Y-107535807D01*
X112205041Y-107553769D01*
X112204155Y-107556634D01*
X112204151Y-107556644D01*
X112204149Y-107556654D01*
X112147743Y-107743480D01*
X112143950Y-107762635D01*
X112139888Y-107781745D01*
X112139573Y-107784737D01*
X112120529Y-107978971D01*
X112119500Y-107989422D01*
X112119501Y-112784500D01*
X111598997Y-112784500D01*
X111664482Y-112771474D01*
X111758370Y-112732584D01*
X111842867Y-112676126D01*
X111914726Y-112604267D01*
X111971184Y-112519770D01*
X112010074Y-112425882D01*
X112029900Y-112326212D01*
X112029900Y-112224588D01*
X112010074Y-112124918D01*
X111971184Y-112031030D01*
X111914726Y-111946533D01*
X111842867Y-111874674D01*
X111758370Y-111818216D01*
X111664482Y-111779326D01*
X111564812Y-111759500D01*
X111463188Y-111759500D01*
X111419818Y-111768127D01*
X110452100Y-110800409D01*
X110452100Y-108278436D01*
X110488867Y-108253870D01*
X110560726Y-108182011D01*
X110617184Y-108097514D01*
X110656074Y-108003626D01*
X110675900Y-107903956D01*
X110675900Y-107802332D01*
X110656074Y-107702662D01*
X110617184Y-107608774D01*
X110560726Y-107524277D01*
X110488867Y-107452418D01*
X110404370Y-107395960D01*
X110310482Y-107357070D01*
X110210812Y-107337244D01*
X110109188Y-107337244D01*
X110009518Y-107357070D01*
X109915630Y-107395960D01*
X109831133Y-107452418D01*
X109759274Y-107524277D01*
X109702816Y-107608774D01*
X109663926Y-107702662D01*
X109644100Y-107802332D01*
X109644100Y-107903956D01*
X109663926Y-108003626D01*
X109702816Y-108097514D01*
X109759274Y-108182011D01*
X109831133Y-108253870D01*
X109867900Y-108278436D01*
X109867900Y-108291753D01*
X109867901Y-108291763D01*
X109867900Y-110907062D01*
X109866488Y-110921400D01*
X109867900Y-110935738D01*
X109867900Y-110935745D01*
X109872127Y-110978661D01*
X109888829Y-111033722D01*
X109915953Y-111084466D01*
X109952455Y-111128945D01*
X109963602Y-111138093D01*
X111006727Y-112181218D01*
X110998100Y-112224588D01*
X110998100Y-112326212D01*
X111017926Y-112425882D01*
X111056816Y-112519770D01*
X111113274Y-112604267D01*
X111185133Y-112676126D01*
X111269630Y-112732584D01*
X111363518Y-112771474D01*
X111429003Y-112784500D01*
X107788997Y-112784500D01*
X107854482Y-112771474D01*
X107948370Y-112732584D01*
X108032867Y-112676126D01*
X108104726Y-112604267D01*
X108161184Y-112519770D01*
X108200074Y-112425882D01*
X108219900Y-112326212D01*
X108219900Y-112224588D01*
X108211273Y-112181218D01*
X108832419Y-111560072D01*
X108843565Y-111550925D01*
X108880067Y-111506447D01*
X108907191Y-111455703D01*
X108923893Y-111400642D01*
X108928120Y-111357726D01*
X108928120Y-111357717D01*
X108929532Y-111343381D01*
X108928120Y-111329045D01*
X108928120Y-109301300D01*
X108940762Y-109301300D01*
X109040432Y-109281474D01*
X109134320Y-109242584D01*
X109218817Y-109186126D01*
X109290676Y-109114267D01*
X109347134Y-109029770D01*
X109386024Y-108935882D01*
X109405850Y-108836212D01*
X109405850Y-108734588D01*
X109386024Y-108634918D01*
X109347134Y-108541030D01*
X109290676Y-108456533D01*
X109218817Y-108384674D01*
X109134320Y-108328216D01*
X109040432Y-108289326D01*
X108940762Y-108269500D01*
X108839138Y-108269500D01*
X108739468Y-108289326D01*
X108645580Y-108328216D01*
X108561083Y-108384674D01*
X108489224Y-108456533D01*
X108432766Y-108541030D01*
X108393876Y-108634918D01*
X108374050Y-108734588D01*
X108374050Y-108836212D01*
X108384717Y-108889838D01*
X108364849Y-108927008D01*
X108348147Y-108982069D01*
X108342508Y-109039330D01*
X108343921Y-109053678D01*
X108343920Y-111222389D01*
X107798182Y-111768127D01*
X107754812Y-111759500D01*
X107653188Y-111759500D01*
X107553518Y-111779326D01*
X107459630Y-111818216D01*
X107375133Y-111874674D01*
X107303274Y-111946533D01*
X107246816Y-112031030D01*
X107207926Y-112124918D01*
X107188100Y-112224588D01*
X107188100Y-112326212D01*
X107207926Y-112425882D01*
X107246816Y-112519770D01*
X107303274Y-112604267D01*
X107375133Y-112676126D01*
X107459630Y-112732584D01*
X107553518Y-112771474D01*
X107619003Y-112784500D01*
X87880500Y-112784500D01*
X87880500Y-108577399D01*
X91024489Y-108577399D01*
X91025902Y-108591747D01*
X91025901Y-112128393D01*
X91024489Y-112142731D01*
X91025901Y-112157069D01*
X91025901Y-112157076D01*
X91030128Y-112199992D01*
X91046830Y-112255053D01*
X91073954Y-112305797D01*
X91110456Y-112350276D01*
X91121603Y-112359424D01*
X91401582Y-112639404D01*
X91410726Y-112650546D01*
X91421868Y-112659690D01*
X91421869Y-112659691D01*
X91455204Y-112687048D01*
X91505948Y-112714172D01*
X91561009Y-112730874D01*
X91618271Y-112736514D01*
X91632617Y-112735101D01*
X92757161Y-112735101D01*
X92771499Y-112736513D01*
X92785837Y-112735101D01*
X92785845Y-112735101D01*
X92828761Y-112730874D01*
X92883822Y-112714172D01*
X92934566Y-112687048D01*
X92979044Y-112650546D01*
X92988192Y-112639399D01*
X93097991Y-112529600D01*
X93351708Y-112529600D01*
X93376274Y-112566367D01*
X93448133Y-112638226D01*
X93532630Y-112694684D01*
X93626518Y-112733574D01*
X93726188Y-112753400D01*
X93827812Y-112753400D01*
X93927482Y-112733574D01*
X94021370Y-112694684D01*
X94105867Y-112638226D01*
X94177726Y-112566367D01*
X94234184Y-112481870D01*
X94273074Y-112387982D01*
X94292900Y-112288312D01*
X94292900Y-112186688D01*
X94273074Y-112087018D01*
X94234184Y-111993130D01*
X94177726Y-111908633D01*
X94105867Y-111836774D01*
X94021370Y-111780316D01*
X93927482Y-111741426D01*
X93827812Y-111721600D01*
X93726188Y-111721600D01*
X93626518Y-111741426D01*
X93532630Y-111780316D01*
X93448133Y-111836774D01*
X93376274Y-111908633D01*
X93351708Y-111945400D01*
X92991335Y-111945400D01*
X92976999Y-111943988D01*
X92962663Y-111945400D01*
X92962654Y-111945400D01*
X92919738Y-111949627D01*
X92864677Y-111966329D01*
X92813933Y-111993453D01*
X92769455Y-112029955D01*
X92760307Y-112041102D01*
X92650508Y-112150901D01*
X91739263Y-112150901D01*
X91610101Y-112021740D01*
X91610101Y-108793300D01*
X91668812Y-108793300D01*
X91768482Y-108773474D01*
X91862370Y-108734584D01*
X91946867Y-108678126D01*
X92018726Y-108606267D01*
X92075184Y-108521770D01*
X92114074Y-108427882D01*
X92133900Y-108328212D01*
X92133900Y-108226588D01*
X92114074Y-108126918D01*
X92075184Y-108033030D01*
X92018726Y-107948533D01*
X91946867Y-107876674D01*
X91862370Y-107820216D01*
X91768482Y-107781326D01*
X91668812Y-107761500D01*
X91567188Y-107761500D01*
X91467518Y-107781326D01*
X91373630Y-107820216D01*
X91289133Y-107876674D01*
X91217274Y-107948533D01*
X91160816Y-108033030D01*
X91121926Y-108126918D01*
X91102100Y-108226588D01*
X91102100Y-108328212D01*
X91110398Y-108369926D01*
X91101313Y-108380996D01*
X91101311Y-108380998D01*
X91073954Y-108414333D01*
X91046830Y-108465077D01*
X91030128Y-108520138D01*
X91024489Y-108577399D01*
X87880500Y-108577399D01*
X87880500Y-107989421D01*
X87880427Y-107988677D01*
X87880398Y-107984541D01*
X87879374Y-107974797D01*
X87879374Y-107965009D01*
X87879060Y-107962016D01*
X87857305Y-107768066D01*
X87853243Y-107748956D01*
X87849450Y-107729801D01*
X87848563Y-107726937D01*
X87848561Y-107726927D01*
X87848557Y-107726918D01*
X87789547Y-107540896D01*
X87781852Y-107522941D01*
X87774410Y-107504887D01*
X87772979Y-107502240D01*
X87772979Y-107502239D01*
X87772976Y-107502235D01*
X87678957Y-107331215D01*
X87667945Y-107315132D01*
X87657114Y-107298831D01*
X87655196Y-107296513D01*
X87529746Y-107147007D01*
X87515781Y-107133331D01*
X87502027Y-107119481D01*
X87499696Y-107117579D01*
X87347596Y-106995288D01*
X87331196Y-106984556D01*
X87315060Y-106973672D01*
X87312407Y-106972261D01*
X87312403Y-106972258D01*
X87312399Y-106972256D01*
X87139448Y-106881839D01*
X87121335Y-106874521D01*
X87103331Y-106866953D01*
X87100455Y-106866085D01*
X87100449Y-106866083D01*
X86913225Y-106810981D01*
X86894035Y-106807320D01*
X86874907Y-106803394D01*
X86871913Y-106803100D01*
X86677551Y-106785411D01*
X86658019Y-106785547D01*
X86638487Y-106785411D01*
X86635503Y-106785704D01*
X86635493Y-106785704D01*
X86635484Y-106785706D01*
X86441395Y-106806106D01*
X86422267Y-106810032D01*
X86403078Y-106813693D01*
X86400197Y-106814562D01*
X86213759Y-106872274D01*
X86195734Y-106879851D01*
X86177644Y-106887160D01*
X86174987Y-106888573D01*
X86003310Y-106981398D01*
X85987134Y-106992309D01*
X85970773Y-107003015D01*
X85968449Y-107004911D01*
X85968442Y-107004916D01*
X85968436Y-107004922D01*
X85818064Y-107129321D01*
X85804311Y-107143170D01*
X85790347Y-107156845D01*
X85788434Y-107159158D01*
X85788428Y-107159164D01*
X85788424Y-107159171D01*
X85665078Y-107310406D01*
X85654263Y-107326684D01*
X85643235Y-107342790D01*
X85641808Y-107345429D01*
X85641803Y-107345437D01*
X85641800Y-107345445D01*
X85560100Y-107499100D01*
X85560100Y-104334391D01*
X85681819Y-104212673D01*
X85725188Y-104221300D01*
X85826812Y-104221300D01*
X85926482Y-104201474D01*
X86020370Y-104162584D01*
X86104867Y-104106126D01*
X86176726Y-104034267D01*
X86233184Y-103949770D01*
X86272074Y-103855882D01*
X86291900Y-103756212D01*
X86291900Y-103654588D01*
X86272074Y-103554918D01*
X86233184Y-103461030D01*
X86176726Y-103376533D01*
X86104867Y-103304674D01*
X86020370Y-103248216D01*
X85926482Y-103209326D01*
X85826812Y-103189500D01*
X85725188Y-103189500D01*
X85625518Y-103209326D01*
X85531630Y-103248216D01*
X85447133Y-103304674D01*
X85375274Y-103376533D01*
X85318816Y-103461030D01*
X85279926Y-103554918D01*
X85260100Y-103654588D01*
X85260100Y-103756212D01*
X85268727Y-103799581D01*
X85071597Y-103996712D01*
X85060456Y-104005855D01*
X85051312Y-104016997D01*
X85051310Y-104016999D01*
X85023953Y-104050334D01*
X84996829Y-104101078D01*
X84980127Y-104156139D01*
X84974488Y-104213400D01*
X84975901Y-104227748D01*
X84975900Y-109172408D01*
X84308808Y-109839500D01*
X81909926Y-109839500D01*
X81978765Y-109770661D01*
X82069451Y-109788700D01*
X82171075Y-109788700D01*
X82270745Y-109768874D01*
X82364633Y-109729984D01*
X82449130Y-109673526D01*
X82520989Y-109601667D01*
X82577447Y-109517170D01*
X82616337Y-109423282D01*
X82636163Y-109323612D01*
X82636163Y-109221988D01*
X82616337Y-109122318D01*
X82577447Y-109028430D01*
X82520989Y-108943933D01*
X82449130Y-108872074D01*
X82364633Y-108815616D01*
X82270745Y-108776726D01*
X82171075Y-108756900D01*
X82069451Y-108756900D01*
X81969781Y-108776726D01*
X81875893Y-108815616D01*
X81791396Y-108872074D01*
X81719537Y-108943933D01*
X81663079Y-109028430D01*
X81624189Y-109122318D01*
X81604363Y-109221988D01*
X81604363Y-109318879D01*
X81007598Y-109915645D01*
X80996456Y-109924789D01*
X80987312Y-109935931D01*
X80987310Y-109935933D01*
X80959953Y-109969268D01*
X80932829Y-110020012D01*
X80916127Y-110075073D01*
X80910488Y-110132334D01*
X80911901Y-110146682D01*
X80911900Y-111966408D01*
X80808408Y-112069901D01*
X72139443Y-112069901D01*
X72175074Y-111983882D01*
X72194900Y-111884212D01*
X72194900Y-111782588D01*
X72175074Y-111682918D01*
X72136184Y-111589030D01*
X72079726Y-111504533D01*
X72007867Y-111432674D01*
X71923370Y-111376216D01*
X71829482Y-111337326D01*
X71729812Y-111317500D01*
X71628188Y-111317500D01*
X71528518Y-111337326D01*
X71434630Y-111376216D01*
X71350133Y-111432674D01*
X71278274Y-111504533D01*
X71253708Y-111541300D01*
X70910992Y-111541300D01*
X68974693Y-109605002D01*
X68965545Y-109593855D01*
X68921067Y-109557353D01*
X68870323Y-109530229D01*
X68815262Y-109513527D01*
X68772346Y-109509300D01*
X68772338Y-109509300D01*
X68758000Y-109507888D01*
X68743662Y-109509300D01*
X66468346Y-109509300D01*
X66454000Y-109507887D01*
X66439654Y-109509300D01*
X66396738Y-109513527D01*
X66341677Y-109530229D01*
X66290933Y-109557353D01*
X66246455Y-109593855D01*
X66237311Y-109604997D01*
X65974182Y-109868127D01*
X65930812Y-109859500D01*
X65829188Y-109859500D01*
X65729518Y-109879326D01*
X65635630Y-109918216D01*
X65551133Y-109974674D01*
X65479274Y-110046533D01*
X65422816Y-110131030D01*
X65383926Y-110224918D01*
X65364100Y-110324588D01*
X65364100Y-110426212D01*
X65383926Y-110525882D01*
X65422816Y-110619770D01*
X65479274Y-110704267D01*
X65503497Y-110728490D01*
X64782182Y-110728490D01*
X64523273Y-110469582D01*
X64531900Y-110426212D01*
X64531900Y-110324588D01*
X64512074Y-110224918D01*
X64473184Y-110131030D01*
X64416726Y-110046533D01*
X64344867Y-109974674D01*
X64260370Y-109918216D01*
X64166482Y-109879326D01*
X64066812Y-109859500D01*
X63965188Y-109859500D01*
X63865518Y-109879326D01*
X63771630Y-109918216D01*
X63687133Y-109974674D01*
X63615274Y-110046533D01*
X63558816Y-110131030D01*
X63519926Y-110224918D01*
X63500100Y-110324588D01*
X63500100Y-110426212D01*
X63519926Y-110525882D01*
X63558816Y-110619770D01*
X63615274Y-110704267D01*
X63687133Y-110776126D01*
X63771630Y-110832584D01*
X63865518Y-110871474D01*
X63965188Y-110891300D01*
X64066812Y-110891300D01*
X64110182Y-110882673D01*
X64260808Y-111033300D01*
X62886992Y-111033300D01*
X62323273Y-110469582D01*
X62331900Y-110426212D01*
X62331900Y-110324588D01*
X62312074Y-110224918D01*
X62273184Y-110131030D01*
X62216726Y-110046533D01*
X62144867Y-109974674D01*
X62060370Y-109918216D01*
X61966482Y-109879326D01*
X61866812Y-109859500D01*
X61765188Y-109859500D01*
X61665518Y-109879326D01*
X61571630Y-109918216D01*
X61487133Y-109974674D01*
X61415274Y-110046533D01*
X61358816Y-110131030D01*
X61319926Y-110224918D01*
X61300100Y-110324588D01*
X61300100Y-110426212D01*
X61319926Y-110525882D01*
X61358816Y-110619770D01*
X61415274Y-110704267D01*
X61487133Y-110776126D01*
X61571630Y-110832584D01*
X61665518Y-110871474D01*
X61765188Y-110891300D01*
X61866812Y-110891300D01*
X61910182Y-110882673D01*
X62549309Y-111521801D01*
X62558455Y-111532945D01*
X62569597Y-111542089D01*
X62569598Y-111542090D01*
X62602933Y-111569447D01*
X62653677Y-111596571D01*
X62708738Y-111613273D01*
X62766000Y-111618913D01*
X62780346Y-111617500D01*
X68760629Y-111617500D01*
X69266727Y-112123599D01*
X69258100Y-112166968D01*
X69258100Y-112268592D01*
X69277926Y-112368262D01*
X69313557Y-112454281D01*
X68671973Y-112454281D01*
X68587273Y-112369581D01*
X68595900Y-112326212D01*
X68595900Y-112224588D01*
X68576074Y-112124918D01*
X68537184Y-112031030D01*
X68480726Y-111946533D01*
X68408867Y-111874674D01*
X68324370Y-111818216D01*
X68230482Y-111779326D01*
X68130812Y-111759500D01*
X68029188Y-111759500D01*
X67929518Y-111779326D01*
X67835630Y-111818216D01*
X67751133Y-111874674D01*
X67679274Y-111946533D01*
X67654708Y-111983300D01*
X64441292Y-111983300D01*
X64416726Y-111946533D01*
X64344867Y-111874674D01*
X64260370Y-111818216D01*
X64166482Y-111779326D01*
X64066812Y-111759500D01*
X63965188Y-111759500D01*
X63865518Y-111779326D01*
X63771630Y-111818216D01*
X63687133Y-111874674D01*
X63615274Y-111946533D01*
X63558816Y-112031030D01*
X63519926Y-112124918D01*
X63500100Y-112224588D01*
X63500100Y-112326212D01*
X63519926Y-112425882D01*
X63558816Y-112519770D01*
X63615274Y-112604267D01*
X63687133Y-112676126D01*
X63771630Y-112732584D01*
X63865518Y-112771474D01*
X63931003Y-112784500D01*
X61210500Y-112784500D01*
X61210500Y-107989421D01*
X61210427Y-107988677D01*
X61210398Y-107984541D01*
X61209374Y-107974797D01*
X61209374Y-107965009D01*
X61209060Y-107962016D01*
X61187305Y-107768066D01*
X61183243Y-107748956D01*
X61179450Y-107729801D01*
X61178563Y-107726937D01*
X61178561Y-107726927D01*
X61178557Y-107726918D01*
X61119547Y-107540896D01*
X61111852Y-107522941D01*
X61104410Y-107504887D01*
X61102979Y-107502240D01*
X61102979Y-107502239D01*
X61102976Y-107502235D01*
X61008957Y-107331215D01*
X60997945Y-107315132D01*
X60987114Y-107298831D01*
X60985196Y-107296513D01*
X60946168Y-107250000D01*
X68555608Y-107250000D01*
X68559727Y-107291826D01*
X68571928Y-107332044D01*
X68591740Y-107369110D01*
X68618402Y-107401598D01*
X68650890Y-107428260D01*
X68687956Y-107448072D01*
X68728174Y-107460273D01*
X68770000Y-107464392D01*
X69453960Y-107463360D01*
X69507300Y-107410020D01*
X69507300Y-106262700D01*
X69532700Y-106262700D01*
X69532700Y-107410020D01*
X69586040Y-107463360D01*
X70270000Y-107464392D01*
X70311826Y-107460273D01*
X70352044Y-107448072D01*
X70389110Y-107428260D01*
X70421598Y-107401598D01*
X70448260Y-107369110D01*
X70468072Y-107332044D01*
X70480273Y-107291826D01*
X70484392Y-107250000D01*
X70483360Y-106316040D01*
X70430020Y-106262700D01*
X69532700Y-106262700D01*
X69507300Y-106262700D01*
X68609980Y-106262700D01*
X68556640Y-106316040D01*
X68555608Y-107250000D01*
X60946168Y-107250000D01*
X60859746Y-107147007D01*
X60845781Y-107133331D01*
X60832027Y-107119481D01*
X60829696Y-107117579D01*
X60677596Y-106995288D01*
X60661196Y-106984556D01*
X60645060Y-106973672D01*
X60642407Y-106972261D01*
X60642403Y-106972258D01*
X60642399Y-106972256D01*
X60469448Y-106881839D01*
X60451335Y-106874521D01*
X60433331Y-106866953D01*
X60430455Y-106866085D01*
X60430449Y-106866083D01*
X60243225Y-106810981D01*
X60224035Y-106807320D01*
X60204907Y-106803394D01*
X60201913Y-106803100D01*
X60007551Y-106785411D01*
X59988019Y-106785547D01*
X59968487Y-106785411D01*
X59965503Y-106785704D01*
X59965493Y-106785704D01*
X59965484Y-106785706D01*
X59771395Y-106806106D01*
X59752267Y-106810032D01*
X59733078Y-106813693D01*
X59730197Y-106814562D01*
X59543759Y-106872274D01*
X59525734Y-106879851D01*
X59507644Y-106887160D01*
X59504987Y-106888573D01*
X59333310Y-106981398D01*
X59317134Y-106992309D01*
X59300773Y-107003015D01*
X59298449Y-107004911D01*
X59298442Y-107004916D01*
X59298436Y-107004922D01*
X59148064Y-107129321D01*
X59134311Y-107143170D01*
X59120347Y-107156845D01*
X59118434Y-107159158D01*
X59118428Y-107159164D01*
X59118424Y-107159171D01*
X58995078Y-107310406D01*
X58984263Y-107326684D01*
X58973235Y-107342790D01*
X58971808Y-107345429D01*
X58971803Y-107345437D01*
X58971800Y-107345445D01*
X58880179Y-107517759D01*
X58872740Y-107535807D01*
X58865041Y-107553769D01*
X58864155Y-107556634D01*
X58864151Y-107556644D01*
X58864149Y-107556654D01*
X58807743Y-107743480D01*
X58803950Y-107762635D01*
X58799888Y-107781745D01*
X58799573Y-107784737D01*
X58780529Y-107978971D01*
X58779500Y-107989422D01*
X58779501Y-112784500D01*
X57215500Y-112784500D01*
X57215500Y-106489421D01*
X57215427Y-106488675D01*
X57215349Y-106477555D01*
X57214325Y-106467814D01*
X57214325Y-106458027D01*
X57214011Y-106455035D01*
X57181378Y-106164110D01*
X57177312Y-106144979D01*
X57173523Y-106125846D01*
X57172634Y-106122971D01*
X57123072Y-105966730D01*
X57794901Y-105294901D01*
X57802798Y-105285279D01*
X57808666Y-105274300D01*
X57812280Y-105262388D01*
X57813500Y-105250000D01*
X68555608Y-105250000D01*
X68556640Y-106183960D01*
X68609980Y-106237300D01*
X69507300Y-106237300D01*
X69507300Y-105089980D01*
X69532700Y-105089980D01*
X69532700Y-106237300D01*
X70430020Y-106237300D01*
X70483360Y-106183960D01*
X70483977Y-105625000D01*
X71093056Y-105625000D01*
X71093056Y-106875000D01*
X71104430Y-106990483D01*
X71138115Y-107101527D01*
X71192817Y-107203866D01*
X71266432Y-107293568D01*
X71356134Y-107367183D01*
X71458473Y-107421885D01*
X71569517Y-107455570D01*
X71685000Y-107466944D01*
X71767900Y-107466944D01*
X71767901Y-109854177D01*
X71729812Y-109846600D01*
X71628188Y-109846600D01*
X71528518Y-109866426D01*
X71434630Y-109905316D01*
X71350133Y-109961774D01*
X71278274Y-110033633D01*
X71221816Y-110118130D01*
X71182926Y-110212018D01*
X71163100Y-110311688D01*
X71163100Y-110413312D01*
X71182926Y-110512982D01*
X71221816Y-110606870D01*
X71278274Y-110691367D01*
X71350133Y-110763226D01*
X71434630Y-110819684D01*
X71528518Y-110858574D01*
X71628188Y-110878400D01*
X71729812Y-110878400D01*
X71829482Y-110858574D01*
X71923370Y-110819684D01*
X72007867Y-110763226D01*
X72079726Y-110691367D01*
X72136184Y-110606870D01*
X72175074Y-110512982D01*
X72194900Y-110413312D01*
X72194900Y-110311688D01*
X72192414Y-110299188D01*
X72984100Y-110299188D01*
X72984100Y-110400812D01*
X73003926Y-110500482D01*
X73042816Y-110594370D01*
X73099274Y-110678867D01*
X73171133Y-110750726D01*
X73255630Y-110807184D01*
X73349518Y-110846074D01*
X73449188Y-110865900D01*
X73550812Y-110865900D01*
X73650482Y-110846074D01*
X73744370Y-110807184D01*
X73828867Y-110750726D01*
X73900726Y-110678867D01*
X73925292Y-110642100D01*
X75274708Y-110642100D01*
X75299274Y-110678867D01*
X75371133Y-110750726D01*
X75455630Y-110807184D01*
X75498641Y-110825000D01*
X75455630Y-110842816D01*
X75371133Y-110899274D01*
X75299274Y-110971133D01*
X75242816Y-111055630D01*
X75203926Y-111149518D01*
X75184100Y-111249188D01*
X75184100Y-111350812D01*
X75203926Y-111450482D01*
X75242816Y-111544370D01*
X75299274Y-111628867D01*
X75371133Y-111700726D01*
X75455630Y-111757184D01*
X75549518Y-111796074D01*
X75649188Y-111815900D01*
X75750812Y-111815900D01*
X75850482Y-111796074D01*
X75944370Y-111757184D01*
X76028867Y-111700726D01*
X76100726Y-111628867D01*
X76125292Y-111592100D01*
X79180636Y-111592100D01*
X79194974Y-111593512D01*
X79209312Y-111592100D01*
X79209320Y-111592100D01*
X79252236Y-111587873D01*
X79307297Y-111571171D01*
X79358041Y-111544047D01*
X79402519Y-111507545D01*
X79411667Y-111496398D01*
X80050793Y-110857273D01*
X80094162Y-110865900D01*
X80195786Y-110865900D01*
X80295456Y-110846074D01*
X80389344Y-110807184D01*
X80473841Y-110750726D01*
X80545700Y-110678867D01*
X80602158Y-110594370D01*
X80641048Y-110500482D01*
X80660874Y-110400812D01*
X80660874Y-110299188D01*
X80641048Y-110199518D01*
X80602158Y-110105630D01*
X80545700Y-110021133D01*
X80473841Y-109949274D01*
X80389344Y-109892816D01*
X80295456Y-109853926D01*
X80195786Y-109834100D01*
X80094162Y-109834100D01*
X79994492Y-109853926D01*
X79900604Y-109892816D01*
X79816107Y-109949274D01*
X79744248Y-110021133D01*
X79687790Y-110105630D01*
X79648900Y-110199518D01*
X79629074Y-110299188D01*
X79629074Y-110400812D01*
X79637701Y-110444181D01*
X79073983Y-111007900D01*
X76125292Y-111007900D01*
X76100726Y-110971133D01*
X76028867Y-110899274D01*
X75944370Y-110842816D01*
X75901359Y-110825000D01*
X75944370Y-110807184D01*
X76028867Y-110750726D01*
X76100726Y-110678867D01*
X76157184Y-110594370D01*
X76196074Y-110500482D01*
X76215900Y-110400812D01*
X76215900Y-110299188D01*
X77429100Y-110299188D01*
X77429100Y-110400812D01*
X77448926Y-110500482D01*
X77487816Y-110594370D01*
X77544274Y-110678867D01*
X77616133Y-110750726D01*
X77700630Y-110807184D01*
X77794518Y-110846074D01*
X77894188Y-110865900D01*
X77995812Y-110865900D01*
X78095482Y-110846074D01*
X78189370Y-110807184D01*
X78273867Y-110750726D01*
X78345726Y-110678867D01*
X78402184Y-110594370D01*
X78441074Y-110500482D01*
X78460900Y-110400812D01*
X78460900Y-110299188D01*
X78441074Y-110199518D01*
X78402184Y-110105630D01*
X78345726Y-110021133D01*
X78273867Y-109949274D01*
X78237100Y-109924708D01*
X78237100Y-109879391D01*
X79788303Y-108328188D01*
X80307108Y-108328188D01*
X80307108Y-108429812D01*
X80326934Y-108529482D01*
X80365824Y-108623370D01*
X80422282Y-108707867D01*
X80494141Y-108779726D01*
X80578638Y-108836184D01*
X80672526Y-108875074D01*
X80772196Y-108894900D01*
X80873820Y-108894900D01*
X80973490Y-108875074D01*
X81067378Y-108836184D01*
X81151875Y-108779726D01*
X81209701Y-108721900D01*
X82722307Y-108721900D01*
X82780133Y-108779726D01*
X82864630Y-108836184D01*
X82958518Y-108875074D01*
X83058188Y-108894900D01*
X83159812Y-108894900D01*
X83259482Y-108875074D01*
X83353370Y-108836184D01*
X83437867Y-108779726D01*
X83509726Y-108707867D01*
X83566184Y-108623370D01*
X83605074Y-108529482D01*
X83624900Y-108429812D01*
X83624900Y-108328188D01*
X83605074Y-108228518D01*
X83566184Y-108134630D01*
X83509726Y-108050133D01*
X83437867Y-107978274D01*
X83353370Y-107921816D01*
X83259482Y-107882926D01*
X83159812Y-107863100D01*
X83058188Y-107863100D01*
X82958518Y-107882926D01*
X82864630Y-107921816D01*
X82780133Y-107978274D01*
X82722307Y-108036100D01*
X81209701Y-108036100D01*
X81151875Y-107978274D01*
X81067378Y-107921816D01*
X80973490Y-107882926D01*
X80873820Y-107863100D01*
X80772196Y-107863100D01*
X80672526Y-107882926D01*
X80578638Y-107921816D01*
X80494141Y-107978274D01*
X80422282Y-108050133D01*
X80365824Y-108134630D01*
X80326934Y-108228518D01*
X80307108Y-108328188D01*
X79788303Y-108328188D01*
X80093819Y-108022673D01*
X80137188Y-108031300D01*
X80238812Y-108031300D01*
X80338482Y-108011474D01*
X80432370Y-107972584D01*
X80516867Y-107916126D01*
X80588726Y-107844267D01*
X80645184Y-107759770D01*
X80684074Y-107665882D01*
X80703900Y-107566212D01*
X80703900Y-107464588D01*
X80684074Y-107364918D01*
X80645184Y-107271030D01*
X80588726Y-107186533D01*
X80516867Y-107114674D01*
X80432370Y-107058216D01*
X80338482Y-107019326D01*
X80238812Y-106999500D01*
X80137188Y-106999500D01*
X80037518Y-107019326D01*
X79943630Y-107058216D01*
X79859133Y-107114674D01*
X79787274Y-107186533D01*
X79730816Y-107271030D01*
X79691926Y-107364918D01*
X79672100Y-107464588D01*
X79672100Y-107566212D01*
X79680727Y-107609581D01*
X77748602Y-109541707D01*
X77737455Y-109550855D01*
X77700953Y-109595334D01*
X77673829Y-109646078D01*
X77657127Y-109701139D01*
X77652900Y-109744055D01*
X77652900Y-109744062D01*
X77651488Y-109758400D01*
X77652900Y-109772739D01*
X77652900Y-109924707D01*
X77616133Y-109949274D01*
X77544274Y-110021133D01*
X77487816Y-110105630D01*
X77448926Y-110199518D01*
X77429100Y-110299188D01*
X76215900Y-110299188D01*
X76196074Y-110199518D01*
X76157184Y-110105630D01*
X76100726Y-110021133D01*
X76028867Y-109949274D01*
X75944370Y-109892816D01*
X75850482Y-109853926D01*
X75750812Y-109834100D01*
X75649188Y-109834100D01*
X75549518Y-109853926D01*
X75455630Y-109892816D01*
X75371133Y-109949274D01*
X75299274Y-110021133D01*
X75274708Y-110057900D01*
X73925292Y-110057900D01*
X73900726Y-110021133D01*
X73828867Y-109949274D01*
X73744370Y-109892816D01*
X73650482Y-109853926D01*
X73550812Y-109834100D01*
X73449188Y-109834100D01*
X73349518Y-109853926D01*
X73255630Y-109892816D01*
X73171133Y-109949274D01*
X73099274Y-110021133D01*
X73042816Y-110105630D01*
X73003926Y-110199518D01*
X72984100Y-110299188D01*
X72192414Y-110299188D01*
X72186273Y-110268318D01*
X72256398Y-110198193D01*
X72267545Y-110189045D01*
X72304047Y-110144567D01*
X72331171Y-110093823D01*
X72347873Y-110038762D01*
X72352100Y-109995846D01*
X72352100Y-109995837D01*
X72353512Y-109981501D01*
X72352100Y-109967165D01*
X72352100Y-107466944D01*
X72435000Y-107466944D01*
X72550483Y-107455570D01*
X72661527Y-107421885D01*
X72763866Y-107367183D01*
X72853568Y-107293568D01*
X72927183Y-107203866D01*
X72981885Y-107101527D01*
X73015570Y-106990483D01*
X73026944Y-106875000D01*
X73026944Y-105625000D01*
X73633056Y-105625000D01*
X73633056Y-106875000D01*
X73644430Y-106990483D01*
X73678115Y-107101527D01*
X73732817Y-107203866D01*
X73806432Y-107293568D01*
X73896134Y-107367183D01*
X73998473Y-107421885D01*
X74109517Y-107455570D01*
X74225000Y-107466944D01*
X74975000Y-107466944D01*
X75090483Y-107455570D01*
X75201527Y-107421885D01*
X75303866Y-107367183D01*
X75393568Y-107293568D01*
X75467183Y-107203866D01*
X75521885Y-107101527D01*
X75555570Y-106990483D01*
X75566944Y-106875000D01*
X75566944Y-105625000D01*
X76173056Y-105625000D01*
X76173056Y-106875000D01*
X76184430Y-106990483D01*
X76218115Y-107101527D01*
X76272817Y-107203866D01*
X76346432Y-107293568D01*
X76436134Y-107367183D01*
X76538473Y-107421885D01*
X76649517Y-107455570D01*
X76765000Y-107466944D01*
X77515000Y-107466944D01*
X77630483Y-107455570D01*
X77741527Y-107421885D01*
X77843866Y-107367183D01*
X77933568Y-107293568D01*
X78007183Y-107203866D01*
X78061885Y-107101527D01*
X78095570Y-106990483D01*
X78106944Y-106875000D01*
X78106944Y-106719900D01*
X80261923Y-106719900D01*
X80285000Y-106722173D01*
X80308077Y-106719900D01*
X80377116Y-106713100D01*
X80465693Y-106686231D01*
X80547325Y-106642598D01*
X80618877Y-106583877D01*
X80633595Y-106565943D01*
X84319639Y-102879900D01*
X88912900Y-102879900D01*
X88912901Y-106866052D01*
X88911488Y-106880400D01*
X88917127Y-106937661D01*
X88933829Y-106992722D01*
X88960953Y-107043466D01*
X88983720Y-107071207D01*
X88997456Y-107087945D01*
X89008598Y-107097089D01*
X89078727Y-107167218D01*
X89070100Y-107210588D01*
X89070100Y-107312212D01*
X89089926Y-107411882D01*
X89128816Y-107505770D01*
X89185274Y-107590267D01*
X89257133Y-107662126D01*
X89341630Y-107718584D01*
X89435518Y-107757474D01*
X89535188Y-107777300D01*
X89636812Y-107777300D01*
X89736482Y-107757474D01*
X89830370Y-107718584D01*
X89914867Y-107662126D01*
X89986726Y-107590267D01*
X90043184Y-107505770D01*
X90082074Y-107411882D01*
X90101900Y-107312212D01*
X90101900Y-107210588D01*
X90082074Y-107110918D01*
X90043184Y-107017030D01*
X89986726Y-106932533D01*
X89914867Y-106860674D01*
X89830370Y-106804216D01*
X89736482Y-106765326D01*
X89636812Y-106745500D01*
X89535188Y-106745500D01*
X89497100Y-106753076D01*
X89497100Y-104489422D01*
X92784500Y-104489422D01*
X92784501Y-108610579D01*
X92785455Y-108620260D01*
X92785411Y-108626513D01*
X92785705Y-108629508D01*
X92806106Y-108823604D01*
X92810031Y-108842726D01*
X92813693Y-108861922D01*
X92814562Y-108864803D01*
X92872274Y-109051241D01*
X92879851Y-109069266D01*
X92887160Y-109087356D01*
X92888573Y-109090013D01*
X92981397Y-109261689D01*
X92992326Y-109277892D01*
X93003015Y-109294226D01*
X93004911Y-109296551D01*
X93004916Y-109296558D01*
X93004922Y-109296564D01*
X93129320Y-109446936D01*
X93143205Y-109460725D01*
X93156845Y-109474653D01*
X93159164Y-109476572D01*
X93310406Y-109599922D01*
X93326684Y-109610737D01*
X93342790Y-109621765D01*
X93345429Y-109623192D01*
X93345437Y-109623197D01*
X93345445Y-109623200D01*
X93517759Y-109714821D01*
X93535795Y-109722255D01*
X93553769Y-109729959D01*
X93556638Y-109730846D01*
X93556645Y-109730849D01*
X93556652Y-109730850D01*
X93743480Y-109787257D01*
X93762614Y-109791046D01*
X93781744Y-109795112D01*
X93784728Y-109795425D01*
X93784738Y-109795427D01*
X93784747Y-109795427D01*
X93978970Y-109814471D01*
X93978974Y-109814471D01*
X93989421Y-109815500D01*
X106010579Y-109815500D01*
X106020270Y-109814546D01*
X106026513Y-109814589D01*
X106029508Y-109814295D01*
X106223604Y-109793894D01*
X106242726Y-109789969D01*
X106261922Y-109786307D01*
X106264803Y-109785438D01*
X106451241Y-109727726D01*
X106469266Y-109720149D01*
X106487356Y-109712840D01*
X106490013Y-109711427D01*
X106661689Y-109618603D01*
X106677892Y-109607674D01*
X106694226Y-109596985D01*
X106696551Y-109595089D01*
X106696558Y-109595084D01*
X106696564Y-109595078D01*
X106846936Y-109470680D01*
X106860725Y-109456795D01*
X106874653Y-109443155D01*
X106876572Y-109440836D01*
X106999922Y-109289594D01*
X107010737Y-109273316D01*
X107021765Y-109257210D01*
X107023192Y-109254571D01*
X107023197Y-109254563D01*
X107023200Y-109254555D01*
X107114821Y-109082241D01*
X107122255Y-109064205D01*
X107129959Y-109046231D01*
X107130846Y-109043362D01*
X107130849Y-109043355D01*
X107130850Y-109043348D01*
X107146698Y-108990858D01*
X107162816Y-109029770D01*
X107219274Y-109114267D01*
X107291133Y-109186126D01*
X107375630Y-109242584D01*
X107411901Y-109257608D01*
X107411900Y-109950107D01*
X107375133Y-109974674D01*
X107303274Y-110046533D01*
X107246816Y-110131030D01*
X107207926Y-110224918D01*
X107188100Y-110324588D01*
X107188100Y-110426212D01*
X107207926Y-110525882D01*
X107246816Y-110619770D01*
X107303274Y-110704267D01*
X107375133Y-110776126D01*
X107459630Y-110832584D01*
X107553518Y-110871474D01*
X107653188Y-110891300D01*
X107754812Y-110891300D01*
X107854482Y-110871474D01*
X107948370Y-110832584D01*
X108032867Y-110776126D01*
X108104726Y-110704267D01*
X108161184Y-110619770D01*
X108200074Y-110525882D01*
X108219900Y-110426212D01*
X108219900Y-110324588D01*
X108200074Y-110224918D01*
X108161184Y-110131030D01*
X108104726Y-110046533D01*
X108032867Y-109974674D01*
X107996100Y-109950108D01*
X107996100Y-109138893D01*
X108020726Y-109114267D01*
X108077184Y-109029770D01*
X108116074Y-108935882D01*
X108135900Y-108836212D01*
X108135900Y-108734588D01*
X108116074Y-108634918D01*
X108077184Y-108541030D01*
X108020726Y-108456533D01*
X107948867Y-108384674D01*
X107864370Y-108328216D01*
X107770482Y-108289326D01*
X107670812Y-108269500D01*
X107569188Y-108269500D01*
X107469518Y-108289326D01*
X107375630Y-108328216D01*
X107291133Y-108384674D01*
X107219274Y-108456533D01*
X107215500Y-108462181D01*
X107215500Y-104489421D01*
X107214546Y-104479730D01*
X107214589Y-104473487D01*
X107214295Y-104470492D01*
X107193894Y-104276395D01*
X107189968Y-104257267D01*
X107186307Y-104238078D01*
X107185438Y-104235197D01*
X107127726Y-104048759D01*
X107120149Y-104030734D01*
X107112840Y-104012644D01*
X107111427Y-104009987D01*
X107018602Y-103838310D01*
X107007691Y-103822134D01*
X106996985Y-103805773D01*
X106995089Y-103803449D01*
X106995084Y-103803442D01*
X106995078Y-103803436D01*
X106870679Y-103653064D01*
X106856830Y-103639311D01*
X106843155Y-103625347D01*
X106840842Y-103623434D01*
X106840836Y-103623428D01*
X106840829Y-103623424D01*
X106689594Y-103500078D01*
X106673316Y-103489263D01*
X106657210Y-103478235D01*
X106654571Y-103476808D01*
X106654563Y-103476803D01*
X106654555Y-103476800D01*
X106482241Y-103385179D01*
X106464193Y-103377740D01*
X106446231Y-103370041D01*
X106443366Y-103369155D01*
X106443356Y-103369151D01*
X106443346Y-103369149D01*
X106256520Y-103312743D01*
X106237365Y-103308950D01*
X106218255Y-103304888D01*
X106215263Y-103304573D01*
X106021029Y-103285529D01*
X106021026Y-103285529D01*
X106010579Y-103284500D01*
X93989421Y-103284500D01*
X93979730Y-103285454D01*
X93973487Y-103285411D01*
X93970492Y-103285705D01*
X93776395Y-103306106D01*
X93757267Y-103310032D01*
X93738078Y-103313693D01*
X93735197Y-103314562D01*
X93548759Y-103372274D01*
X93530734Y-103379851D01*
X93512644Y-103387160D01*
X93509987Y-103388573D01*
X93338310Y-103481398D01*
X93322134Y-103492309D01*
X93305773Y-103503015D01*
X93303449Y-103504911D01*
X93303442Y-103504916D01*
X93303436Y-103504922D01*
X93153064Y-103629321D01*
X93139311Y-103643170D01*
X93125347Y-103656845D01*
X93123434Y-103659158D01*
X93123428Y-103659164D01*
X93123424Y-103659171D01*
X93000078Y-103810406D01*
X92989263Y-103826684D01*
X92978235Y-103842790D01*
X92976808Y-103845429D01*
X92976803Y-103845437D01*
X92976800Y-103845445D01*
X92885179Y-104017759D01*
X92877740Y-104035807D01*
X92870041Y-104053769D01*
X92869155Y-104056634D01*
X92869151Y-104056644D01*
X92869149Y-104056654D01*
X92812743Y-104243480D01*
X92808950Y-104262635D01*
X92804888Y-104281745D01*
X92804573Y-104284737D01*
X92785529Y-104478971D01*
X92784500Y-104489422D01*
X89497100Y-104489422D01*
X89497100Y-102879900D01*
X115680362Y-102879900D01*
X119366410Y-106565949D01*
X119381123Y-106583877D01*
X119452675Y-106642598D01*
X119521703Y-106679494D01*
X119534307Y-106686231D01*
X119622883Y-106713100D01*
X119714999Y-106722173D01*
X119738076Y-106719900D01*
X121893056Y-106719900D01*
X121893056Y-106875000D01*
X121904430Y-106990483D01*
X121938115Y-107101527D01*
X121992817Y-107203866D01*
X122066432Y-107293568D01*
X122156134Y-107367183D01*
X122258473Y-107421885D01*
X122369517Y-107455570D01*
X122485000Y-107466944D01*
X123235000Y-107466944D01*
X123350483Y-107455570D01*
X123461527Y-107421885D01*
X123563866Y-107367183D01*
X123653568Y-107293568D01*
X123727183Y-107203866D01*
X123781885Y-107101527D01*
X123815570Y-106990483D01*
X123826944Y-106875000D01*
X123826944Y-105625000D01*
X124433056Y-105625000D01*
X124433056Y-106875000D01*
X124444430Y-106990483D01*
X124478115Y-107101527D01*
X124532817Y-107203866D01*
X124606432Y-107293568D01*
X124696134Y-107367183D01*
X124798473Y-107421885D01*
X124909517Y-107455570D01*
X125025000Y-107466944D01*
X125775000Y-107466944D01*
X125890483Y-107455570D01*
X126001527Y-107421885D01*
X126103866Y-107367183D01*
X126193568Y-107293568D01*
X126267183Y-107203866D01*
X126321885Y-107101527D01*
X126355570Y-106990483D01*
X126366944Y-106875000D01*
X126366944Y-105625000D01*
X126973056Y-105625000D01*
X126973056Y-106875000D01*
X126984430Y-106990483D01*
X127018115Y-107101527D01*
X127072817Y-107203866D01*
X127146432Y-107293568D01*
X127236134Y-107367183D01*
X127338473Y-107421885D01*
X127449517Y-107455570D01*
X127565000Y-107466944D01*
X128315000Y-107466944D01*
X128430483Y-107455570D01*
X128541527Y-107421885D01*
X128643866Y-107367183D01*
X128733568Y-107293568D01*
X128769322Y-107250000D01*
X129515608Y-107250000D01*
X129519727Y-107291826D01*
X129531928Y-107332044D01*
X129551740Y-107369110D01*
X129578402Y-107401598D01*
X129610890Y-107428260D01*
X129647956Y-107448072D01*
X129688174Y-107460273D01*
X129730000Y-107464392D01*
X130413960Y-107463360D01*
X130467300Y-107410020D01*
X130467300Y-106262700D01*
X130492700Y-106262700D01*
X130492700Y-107410020D01*
X130546040Y-107463360D01*
X131230000Y-107464392D01*
X131271826Y-107460273D01*
X131312044Y-107448072D01*
X131349110Y-107428260D01*
X131381598Y-107401598D01*
X131408260Y-107369110D01*
X131428072Y-107332044D01*
X131440273Y-107291826D01*
X131444392Y-107250000D01*
X131443360Y-106316040D01*
X131390020Y-106262700D01*
X130492700Y-106262700D01*
X130467300Y-106262700D01*
X129569980Y-106262700D01*
X129516640Y-106316040D01*
X129515608Y-107250000D01*
X128769322Y-107250000D01*
X128807183Y-107203866D01*
X128861885Y-107101527D01*
X128895570Y-106990483D01*
X128906944Y-106875000D01*
X128906944Y-105625000D01*
X128895570Y-105509517D01*
X128861885Y-105398473D01*
X128807183Y-105296134D01*
X128769323Y-105250000D01*
X129515608Y-105250000D01*
X129516640Y-106183960D01*
X129569980Y-106237300D01*
X130467300Y-106237300D01*
X130467300Y-105089980D01*
X130492700Y-105089980D01*
X130492700Y-106237300D01*
X131390020Y-106237300D01*
X131443360Y-106183960D01*
X131444392Y-105250000D01*
X131440273Y-105208174D01*
X131428072Y-105167956D01*
X131408260Y-105130890D01*
X131381598Y-105098402D01*
X131349110Y-105071740D01*
X131312044Y-105051928D01*
X131271826Y-105039727D01*
X131230000Y-105035608D01*
X130546040Y-105036640D01*
X130492700Y-105089980D01*
X130467300Y-105089980D01*
X130413960Y-105036640D01*
X129730000Y-105035608D01*
X129688174Y-105039727D01*
X129647956Y-105051928D01*
X129610890Y-105071740D01*
X129578402Y-105098402D01*
X129551740Y-105130890D01*
X129531928Y-105167956D01*
X129519727Y-105208174D01*
X129515608Y-105250000D01*
X128769323Y-105250000D01*
X128733568Y-105206432D01*
X128643866Y-105132817D01*
X128541527Y-105078115D01*
X128430483Y-105044430D01*
X128315000Y-105033056D01*
X127565000Y-105033056D01*
X127449517Y-105044430D01*
X127338473Y-105078115D01*
X127236134Y-105132817D01*
X127146432Y-105206432D01*
X127072817Y-105296134D01*
X127018115Y-105398473D01*
X126984430Y-105509517D01*
X126973056Y-105625000D01*
X126366944Y-105625000D01*
X126355570Y-105509517D01*
X126321885Y-105398473D01*
X126267183Y-105296134D01*
X126193568Y-105206432D01*
X126103866Y-105132817D01*
X126001527Y-105078115D01*
X125890483Y-105044430D01*
X125775000Y-105033056D01*
X125025000Y-105033056D01*
X124909517Y-105044430D01*
X124798473Y-105078115D01*
X124696134Y-105132817D01*
X124606432Y-105206432D01*
X124532817Y-105296134D01*
X124478115Y-105398473D01*
X124444430Y-105509517D01*
X124433056Y-105625000D01*
X123826944Y-105625000D01*
X123815570Y-105509517D01*
X123781885Y-105398473D01*
X123727183Y-105296134D01*
X123653568Y-105206432D01*
X123563866Y-105132817D01*
X123461527Y-105078115D01*
X123350483Y-105044430D01*
X123235000Y-105033056D01*
X122485000Y-105033056D01*
X122369517Y-105044430D01*
X122258473Y-105078115D01*
X122156134Y-105132817D01*
X122066432Y-105206432D01*
X121992817Y-105296134D01*
X121938115Y-105398473D01*
X121904430Y-105509517D01*
X121893056Y-105625000D01*
X121893056Y-105780100D01*
X119909639Y-105780100D01*
X117284406Y-103154867D01*
X120704100Y-103154867D01*
X120704100Y-103345133D01*
X120741219Y-103531743D01*
X120814030Y-103707525D01*
X120919736Y-103865726D01*
X121054274Y-104000264D01*
X121212475Y-104105970D01*
X121388257Y-104178781D01*
X121574867Y-104215900D01*
X121765133Y-104215900D01*
X121951743Y-104178781D01*
X122127525Y-104105970D01*
X122285726Y-104000264D01*
X122420264Y-103865726D01*
X122525970Y-103707525D01*
X122553056Y-103642133D01*
X122553056Y-104250400D01*
X122562021Y-104341418D01*
X122588570Y-104428939D01*
X122631683Y-104509598D01*
X122689704Y-104580296D01*
X122760402Y-104638317D01*
X122841061Y-104681430D01*
X122928582Y-104707979D01*
X123019600Y-104716944D01*
X123320400Y-104716944D01*
X123411418Y-104707979D01*
X123498939Y-104681430D01*
X123579598Y-104638317D01*
X123650296Y-104580296D01*
X123670000Y-104556287D01*
X123689704Y-104580296D01*
X123760402Y-104638317D01*
X123841061Y-104681430D01*
X123928582Y-104707979D01*
X124019600Y-104716944D01*
X124320400Y-104716944D01*
X124411418Y-104707979D01*
X124498939Y-104681430D01*
X124579598Y-104638317D01*
X124650296Y-104580296D01*
X124670000Y-104556287D01*
X124689704Y-104580296D01*
X124760402Y-104638317D01*
X124841061Y-104681430D01*
X124928582Y-104707979D01*
X125019600Y-104716944D01*
X125320400Y-104716944D01*
X125411418Y-104707979D01*
X125498939Y-104681430D01*
X125579598Y-104638317D01*
X125650296Y-104580296D01*
X125670000Y-104556287D01*
X125689704Y-104580296D01*
X125760402Y-104638317D01*
X125841061Y-104681430D01*
X125928582Y-104707979D01*
X126019600Y-104716944D01*
X126320400Y-104716944D01*
X126411418Y-104707979D01*
X126498939Y-104681430D01*
X126579598Y-104638317D01*
X126650296Y-104580296D01*
X126670000Y-104556287D01*
X126689704Y-104580296D01*
X126760402Y-104638317D01*
X126841061Y-104681430D01*
X126928582Y-104707979D01*
X127019600Y-104716944D01*
X127320400Y-104716944D01*
X127411418Y-104707979D01*
X127498939Y-104681430D01*
X127579598Y-104638317D01*
X127596272Y-104624633D01*
X127618402Y-104651598D01*
X127650890Y-104678260D01*
X127687956Y-104698072D01*
X127728174Y-104710273D01*
X127770000Y-104714392D01*
X128103960Y-104713360D01*
X128157300Y-104660020D01*
X128157300Y-103262700D01*
X128182700Y-103262700D01*
X128182700Y-104660020D01*
X128236040Y-104713360D01*
X128570000Y-104714392D01*
X128611826Y-104710273D01*
X128652044Y-104698072D01*
X128670000Y-104688474D01*
X128687956Y-104698072D01*
X128728174Y-104710273D01*
X128770000Y-104714392D01*
X129103960Y-104713360D01*
X129157300Y-104660020D01*
X129157300Y-103262700D01*
X129182700Y-103262700D01*
X129182700Y-104660020D01*
X129236040Y-104713360D01*
X129570000Y-104714392D01*
X129611826Y-104710273D01*
X129652044Y-104698072D01*
X129670000Y-104688474D01*
X129687956Y-104698072D01*
X129728174Y-104710273D01*
X129770000Y-104714392D01*
X130103960Y-104713360D01*
X130157300Y-104660020D01*
X130157300Y-103262700D01*
X129182700Y-103262700D01*
X129157300Y-103262700D01*
X128182700Y-103262700D01*
X128157300Y-103262700D01*
X128137300Y-103262700D01*
X128137300Y-103237300D01*
X128157300Y-103237300D01*
X128157300Y-101839980D01*
X128182700Y-101839980D01*
X128182700Y-103237300D01*
X129157300Y-103237300D01*
X129157300Y-101839980D01*
X129182700Y-101839980D01*
X129182700Y-103237300D01*
X130157300Y-103237300D01*
X130157300Y-101839980D01*
X130182700Y-101839980D01*
X130182700Y-103237300D01*
X130202700Y-103237300D01*
X130202700Y-103262700D01*
X130182700Y-103262700D01*
X130182700Y-104660020D01*
X130236040Y-104713360D01*
X130570000Y-104714392D01*
X130611826Y-104710273D01*
X130652044Y-104698072D01*
X130689110Y-104678260D01*
X130721598Y-104651598D01*
X130748260Y-104619110D01*
X130768072Y-104582044D01*
X130780273Y-104541826D01*
X130784392Y-104500000D01*
X130783637Y-103634150D01*
X130814030Y-103707525D01*
X130919736Y-103865726D01*
X131054274Y-104000264D01*
X131212475Y-104105970D01*
X131388257Y-104178781D01*
X131574867Y-104215900D01*
X131765133Y-104215900D01*
X131951743Y-104178781D01*
X132127525Y-104105970D01*
X132285726Y-104000264D01*
X132420264Y-103865726D01*
X132525970Y-103707525D01*
X132598781Y-103531743D01*
X132635900Y-103345133D01*
X132635900Y-103154867D01*
X132598781Y-102968257D01*
X132525970Y-102792475D01*
X132420264Y-102634274D01*
X132285726Y-102499736D01*
X132127525Y-102394030D01*
X131951743Y-102321219D01*
X131765133Y-102284100D01*
X131574867Y-102284100D01*
X131388257Y-102321219D01*
X131212475Y-102394030D01*
X131054274Y-102499736D01*
X130919736Y-102634274D01*
X130814030Y-102792475D01*
X130783637Y-102865850D01*
X130784392Y-102000000D01*
X130780273Y-101958174D01*
X130768072Y-101917956D01*
X130748260Y-101880890D01*
X130721598Y-101848402D01*
X130689110Y-101821740D01*
X130652044Y-101801928D01*
X130611826Y-101789727D01*
X130570000Y-101785608D01*
X130236040Y-101786640D01*
X130182700Y-101839980D01*
X130157300Y-101839980D01*
X130103960Y-101786640D01*
X129770000Y-101785608D01*
X129728174Y-101789727D01*
X129687956Y-101801928D01*
X129670000Y-101811526D01*
X129652044Y-101801928D01*
X129611826Y-101789727D01*
X129570000Y-101785608D01*
X129236040Y-101786640D01*
X129182700Y-101839980D01*
X129157300Y-101839980D01*
X129103960Y-101786640D01*
X128770000Y-101785608D01*
X128728174Y-101789727D01*
X128687956Y-101801928D01*
X128670000Y-101811526D01*
X128652044Y-101801928D01*
X128611826Y-101789727D01*
X128570000Y-101785608D01*
X128236040Y-101786640D01*
X128182700Y-101839980D01*
X128157300Y-101839980D01*
X128103960Y-101786640D01*
X127770000Y-101785608D01*
X127728174Y-101789727D01*
X127687956Y-101801928D01*
X127650890Y-101821740D01*
X127618402Y-101848402D01*
X127596272Y-101875367D01*
X127579598Y-101861683D01*
X127498939Y-101818570D01*
X127411418Y-101792021D01*
X127320400Y-101783056D01*
X127019600Y-101783056D01*
X126928582Y-101792021D01*
X126841061Y-101818570D01*
X126760402Y-101861683D01*
X126689704Y-101919704D01*
X126670000Y-101943713D01*
X126650296Y-101919704D01*
X126579598Y-101861683D01*
X126498939Y-101818570D01*
X126411418Y-101792021D01*
X126320400Y-101783056D01*
X126019600Y-101783056D01*
X125928582Y-101792021D01*
X125841061Y-101818570D01*
X125760402Y-101861683D01*
X125689704Y-101919704D01*
X125670000Y-101943713D01*
X125650296Y-101919704D01*
X125579598Y-101861683D01*
X125498939Y-101818570D01*
X125411418Y-101792021D01*
X125320400Y-101783056D01*
X125019600Y-101783056D01*
X124928582Y-101792021D01*
X124841061Y-101818570D01*
X124760402Y-101861683D01*
X124689704Y-101919704D01*
X124670000Y-101943713D01*
X124650296Y-101919704D01*
X124579598Y-101861683D01*
X124498939Y-101818570D01*
X124411418Y-101792021D01*
X124320400Y-101783056D01*
X124019600Y-101783056D01*
X123928582Y-101792021D01*
X123841061Y-101818570D01*
X123760402Y-101861683D01*
X123689704Y-101919704D01*
X123670000Y-101943713D01*
X123650296Y-101919704D01*
X123579598Y-101861683D01*
X123498939Y-101818570D01*
X123411418Y-101792021D01*
X123320400Y-101783056D01*
X123019600Y-101783056D01*
X122928582Y-101792021D01*
X122841061Y-101818570D01*
X122760402Y-101861683D01*
X122689704Y-101919704D01*
X122631683Y-101990402D01*
X122588570Y-102071061D01*
X122562021Y-102158582D01*
X122553056Y-102249600D01*
X122553056Y-102857867D01*
X122525970Y-102792475D01*
X122420264Y-102634274D01*
X122285726Y-102499736D01*
X122127525Y-102394030D01*
X121951743Y-102321219D01*
X121765133Y-102284100D01*
X121574867Y-102284100D01*
X121388257Y-102321219D01*
X121212475Y-102394030D01*
X121054274Y-102499736D01*
X120919736Y-102634274D01*
X120814030Y-102792475D01*
X120741219Y-102968257D01*
X120704100Y-103154867D01*
X117284406Y-103154867D01*
X116223595Y-102094057D01*
X116208877Y-102076123D01*
X116137325Y-102017402D01*
X116055693Y-101973769D01*
X115967116Y-101946900D01*
X115898077Y-101940100D01*
X115875000Y-101937827D01*
X115851923Y-101940100D01*
X84148076Y-101940100D01*
X84124999Y-101937827D01*
X84032883Y-101946900D01*
X83958496Y-101969465D01*
X83944307Y-101973769D01*
X83862675Y-102017402D01*
X83791123Y-102076123D01*
X83776410Y-102094051D01*
X80090362Y-105780100D01*
X78106944Y-105780100D01*
X78106944Y-105625000D01*
X78095570Y-105509517D01*
X78061885Y-105398473D01*
X78007183Y-105296134D01*
X77933568Y-105206432D01*
X77843866Y-105132817D01*
X77741527Y-105078115D01*
X77630483Y-105044430D01*
X77515000Y-105033056D01*
X76765000Y-105033056D01*
X76649517Y-105044430D01*
X76538473Y-105078115D01*
X76436134Y-105132817D01*
X76346432Y-105206432D01*
X76272817Y-105296134D01*
X76218115Y-105398473D01*
X76184430Y-105509517D01*
X76173056Y-105625000D01*
X75566944Y-105625000D01*
X75555570Y-105509517D01*
X75521885Y-105398473D01*
X75467183Y-105296134D01*
X75393568Y-105206432D01*
X75303866Y-105132817D01*
X75201527Y-105078115D01*
X75090483Y-105044430D01*
X74975000Y-105033056D01*
X74225000Y-105033056D01*
X74109517Y-105044430D01*
X73998473Y-105078115D01*
X73896134Y-105132817D01*
X73806432Y-105206432D01*
X73732817Y-105296134D01*
X73678115Y-105398473D01*
X73644430Y-105509517D01*
X73633056Y-105625000D01*
X73026944Y-105625000D01*
X73015570Y-105509517D01*
X72981885Y-105398473D01*
X72927183Y-105296134D01*
X72853568Y-105206432D01*
X72763866Y-105132817D01*
X72661527Y-105078115D01*
X72550483Y-105044430D01*
X72435000Y-105033056D01*
X71685000Y-105033056D01*
X71569517Y-105044430D01*
X71458473Y-105078115D01*
X71356134Y-105132817D01*
X71266432Y-105206432D01*
X71192817Y-105296134D01*
X71138115Y-105398473D01*
X71104430Y-105509517D01*
X71093056Y-105625000D01*
X70483977Y-105625000D01*
X70484392Y-105250000D01*
X70480273Y-105208174D01*
X70468072Y-105167956D01*
X70448260Y-105130890D01*
X70421598Y-105098402D01*
X70389110Y-105071740D01*
X70352044Y-105051928D01*
X70311826Y-105039727D01*
X70270000Y-105035608D01*
X69586040Y-105036640D01*
X69532700Y-105089980D01*
X69507300Y-105089980D01*
X69453960Y-105036640D01*
X68770000Y-105035608D01*
X68728174Y-105039727D01*
X68687956Y-105051928D01*
X68650890Y-105071740D01*
X68618402Y-105098402D01*
X68591740Y-105130890D01*
X68571928Y-105167956D01*
X68559727Y-105208174D01*
X68555608Y-105250000D01*
X57813500Y-105250000D01*
X57813500Y-103154867D01*
X67364100Y-103154867D01*
X67364100Y-103345133D01*
X67401219Y-103531743D01*
X67474030Y-103707525D01*
X67579736Y-103865726D01*
X67714274Y-104000264D01*
X67872475Y-104105970D01*
X68048257Y-104178781D01*
X68234867Y-104215900D01*
X68425133Y-104215900D01*
X68611743Y-104178781D01*
X68787525Y-104105970D01*
X68945726Y-104000264D01*
X69080264Y-103865726D01*
X69185970Y-103707525D01*
X69216363Y-103634150D01*
X69215608Y-104500000D01*
X69219727Y-104541826D01*
X69231928Y-104582044D01*
X69251740Y-104619110D01*
X69278402Y-104651598D01*
X69310890Y-104678260D01*
X69347956Y-104698072D01*
X69388174Y-104710273D01*
X69430000Y-104714392D01*
X69763960Y-104713360D01*
X69817300Y-104660020D01*
X69817300Y-103262700D01*
X69842700Y-103262700D01*
X69842700Y-104660020D01*
X69896040Y-104713360D01*
X70230000Y-104714392D01*
X70271826Y-104710273D01*
X70312044Y-104698072D01*
X70330000Y-104688474D01*
X70347956Y-104698072D01*
X70388174Y-104710273D01*
X70430000Y-104714392D01*
X70763960Y-104713360D01*
X70817300Y-104660020D01*
X70817300Y-103262700D01*
X70842700Y-103262700D01*
X70842700Y-104660020D01*
X70896040Y-104713360D01*
X71230000Y-104714392D01*
X71271826Y-104710273D01*
X71312044Y-104698072D01*
X71330000Y-104688474D01*
X71347956Y-104698072D01*
X71388174Y-104710273D01*
X71430000Y-104714392D01*
X71763960Y-104713360D01*
X71817300Y-104660020D01*
X71817300Y-103262700D01*
X70842700Y-103262700D01*
X70817300Y-103262700D01*
X69842700Y-103262700D01*
X69817300Y-103262700D01*
X69797300Y-103262700D01*
X69797300Y-103237300D01*
X69817300Y-103237300D01*
X69817300Y-101839980D01*
X69842700Y-101839980D01*
X69842700Y-103237300D01*
X70817300Y-103237300D01*
X70817300Y-101839980D01*
X70842700Y-101839980D01*
X70842700Y-103237300D01*
X71817300Y-103237300D01*
X71817300Y-101839980D01*
X71842700Y-101839980D01*
X71842700Y-103237300D01*
X71862700Y-103237300D01*
X71862700Y-103262700D01*
X71842700Y-103262700D01*
X71842700Y-104660020D01*
X71896040Y-104713360D01*
X72230000Y-104714392D01*
X72271826Y-104710273D01*
X72312044Y-104698072D01*
X72349110Y-104678260D01*
X72381598Y-104651598D01*
X72403728Y-104624633D01*
X72420402Y-104638317D01*
X72501061Y-104681430D01*
X72588582Y-104707979D01*
X72679600Y-104716944D01*
X72980400Y-104716944D01*
X73071418Y-104707979D01*
X73158939Y-104681430D01*
X73239598Y-104638317D01*
X73310296Y-104580296D01*
X73330000Y-104556287D01*
X73349704Y-104580296D01*
X73420402Y-104638317D01*
X73501061Y-104681430D01*
X73588582Y-104707979D01*
X73679600Y-104716944D01*
X73980400Y-104716944D01*
X74071418Y-104707979D01*
X74158939Y-104681430D01*
X74239598Y-104638317D01*
X74310296Y-104580296D01*
X74330000Y-104556287D01*
X74349704Y-104580296D01*
X74420402Y-104638317D01*
X74501061Y-104681430D01*
X74588582Y-104707979D01*
X74679600Y-104716944D01*
X74980400Y-104716944D01*
X75071418Y-104707979D01*
X75158939Y-104681430D01*
X75239598Y-104638317D01*
X75310296Y-104580296D01*
X75330000Y-104556287D01*
X75349704Y-104580296D01*
X75420402Y-104638317D01*
X75501061Y-104681430D01*
X75588582Y-104707979D01*
X75679600Y-104716944D01*
X75980400Y-104716944D01*
X76071418Y-104707979D01*
X76158939Y-104681430D01*
X76239598Y-104638317D01*
X76310296Y-104580296D01*
X76330000Y-104556287D01*
X76349704Y-104580296D01*
X76420402Y-104638317D01*
X76501061Y-104681430D01*
X76588582Y-104707979D01*
X76679600Y-104716944D01*
X76980400Y-104716944D01*
X77071418Y-104707979D01*
X77158939Y-104681430D01*
X77239598Y-104638317D01*
X77310296Y-104580296D01*
X77368317Y-104509598D01*
X77411430Y-104428939D01*
X77437979Y-104341418D01*
X77446944Y-104250400D01*
X77446944Y-103642133D01*
X77474030Y-103707525D01*
X77579736Y-103865726D01*
X77714274Y-104000264D01*
X77872475Y-104105970D01*
X78048257Y-104178781D01*
X78234867Y-104215900D01*
X78425133Y-104215900D01*
X78611743Y-104178781D01*
X78787525Y-104105970D01*
X78945726Y-104000264D01*
X79080264Y-103865726D01*
X79185970Y-103707525D01*
X79258781Y-103531743D01*
X79295900Y-103345133D01*
X79295900Y-103154867D01*
X79258781Y-102968257D01*
X79185970Y-102792475D01*
X79080264Y-102634274D01*
X78945726Y-102499736D01*
X78787525Y-102394030D01*
X78611743Y-102321219D01*
X78425133Y-102284100D01*
X78234867Y-102284100D01*
X78048257Y-102321219D01*
X77872475Y-102394030D01*
X77714274Y-102499736D01*
X77579736Y-102634274D01*
X77474030Y-102792475D01*
X77446944Y-102857867D01*
X77446944Y-102249600D01*
X77437979Y-102158582D01*
X77411430Y-102071061D01*
X77368317Y-101990402D01*
X77310296Y-101919704D01*
X77239598Y-101861683D01*
X77158939Y-101818570D01*
X77071418Y-101792021D01*
X76980400Y-101783056D01*
X76679600Y-101783056D01*
X76588582Y-101792021D01*
X76501061Y-101818570D01*
X76420402Y-101861683D01*
X76349704Y-101919704D01*
X76330000Y-101943713D01*
X76310296Y-101919704D01*
X76239598Y-101861683D01*
X76158939Y-101818570D01*
X76071418Y-101792021D01*
X75980400Y-101783056D01*
X75679600Y-101783056D01*
X75588582Y-101792021D01*
X75501061Y-101818570D01*
X75420402Y-101861683D01*
X75349704Y-101919704D01*
X75330000Y-101943713D01*
X75310296Y-101919704D01*
X75239598Y-101861683D01*
X75158939Y-101818570D01*
X75071418Y-101792021D01*
X74980400Y-101783056D01*
X74679600Y-101783056D01*
X74588582Y-101792021D01*
X74501061Y-101818570D01*
X74420402Y-101861683D01*
X74349704Y-101919704D01*
X74330000Y-101943713D01*
X74310296Y-101919704D01*
X74239598Y-101861683D01*
X74158939Y-101818570D01*
X74071418Y-101792021D01*
X73980400Y-101783056D01*
X73679600Y-101783056D01*
X73588582Y-101792021D01*
X73501061Y-101818570D01*
X73420402Y-101861683D01*
X73349704Y-101919704D01*
X73330000Y-101943713D01*
X73310296Y-101919704D01*
X73239598Y-101861683D01*
X73158939Y-101818570D01*
X73071418Y-101792021D01*
X72980400Y-101783056D01*
X72679600Y-101783056D01*
X72588582Y-101792021D01*
X72501061Y-101818570D01*
X72420402Y-101861683D01*
X72403728Y-101875367D01*
X72381598Y-101848402D01*
X72349110Y-101821740D01*
X72312044Y-101801928D01*
X72271826Y-101789727D01*
X72230000Y-101785608D01*
X71896040Y-101786640D01*
X71842700Y-101839980D01*
X71817300Y-101839980D01*
X71763960Y-101786640D01*
X71430000Y-101785608D01*
X71388174Y-101789727D01*
X71347956Y-101801928D01*
X71330000Y-101811526D01*
X71312044Y-101801928D01*
X71271826Y-101789727D01*
X71230000Y-101785608D01*
X70896040Y-101786640D01*
X70842700Y-101839980D01*
X70817300Y-101839980D01*
X70763960Y-101786640D01*
X70430000Y-101785608D01*
X70388174Y-101789727D01*
X70347956Y-101801928D01*
X70330000Y-101811526D01*
X70312044Y-101801928D01*
X70271826Y-101789727D01*
X70230000Y-101785608D01*
X69896040Y-101786640D01*
X69842700Y-101839980D01*
X69817300Y-101839980D01*
X69763960Y-101786640D01*
X69430000Y-101785608D01*
X69388174Y-101789727D01*
X69347956Y-101801928D01*
X69310890Y-101821740D01*
X69278402Y-101848402D01*
X69251740Y-101880890D01*
X69231928Y-101917956D01*
X69219727Y-101958174D01*
X69215608Y-102000000D01*
X69216363Y-102865850D01*
X69185970Y-102792475D01*
X69080264Y-102634274D01*
X68945726Y-102499736D01*
X68787525Y-102394030D01*
X68611743Y-102321219D01*
X68425133Y-102284100D01*
X68234867Y-102284100D01*
X68048257Y-102321219D01*
X67872475Y-102394030D01*
X67714274Y-102499736D01*
X67579736Y-102634274D01*
X67474030Y-102792475D01*
X67401219Y-102968257D01*
X67364100Y-103154867D01*
X57813500Y-103154867D01*
X57813500Y-101750000D01*
X57812280Y-101737612D01*
X57808666Y-101725700D01*
X57802798Y-101714721D01*
X57794901Y-101705099D01*
X57123401Y-101033599D01*
X57177735Y-100853638D01*
X57181527Y-100834490D01*
X57185590Y-100815373D01*
X57185905Y-100812381D01*
X57195404Y-100715500D01*
X66240738Y-100715500D01*
X67170140Y-101644903D01*
X67170140Y-101644903D01*
G37*
X67170140Y-101644903D02*
X67176882Y-101653118D01*
X67185097Y-101659860D01*
X67185099Y-101659862D01*
X67209695Y-101680048D01*
X67247133Y-101700059D01*
X67287754Y-101712381D01*
X67291550Y-101712755D01*
X67319421Y-101715500D01*
X67319428Y-101715500D01*
X67330000Y-101716541D01*
X67340571Y-101715500D01*
X79319431Y-101715500D01*
X79330000Y-101716541D01*
X79340569Y-101715500D01*
X79340579Y-101715500D01*
X79372245Y-101712381D01*
X79412867Y-101700059D01*
X79450304Y-101680048D01*
X79483118Y-101653118D01*
X79489864Y-101644898D01*
X80419263Y-100715500D01*
X119580738Y-100715500D01*
X120510140Y-101644903D01*
X120516882Y-101653118D01*
X120525097Y-101659860D01*
X120525099Y-101659862D01*
X120549695Y-101680048D01*
X120587133Y-101700059D01*
X120627754Y-101712381D01*
X120631550Y-101712755D01*
X120659421Y-101715500D01*
X120659428Y-101715500D01*
X120670000Y-101716541D01*
X120680571Y-101715500D01*
X132659431Y-101715500D01*
X132670000Y-101716541D01*
X132680569Y-101715500D01*
X132680579Y-101715500D01*
X132712245Y-101712381D01*
X132752867Y-101700059D01*
X132790304Y-101680048D01*
X132823118Y-101653118D01*
X132829864Y-101644898D01*
X133759263Y-100715500D01*
X142805118Y-100715500D01*
X142818622Y-100835889D01*
X142822685Y-100855006D01*
X142826477Y-100874154D01*
X142827366Y-100877029D01*
X142876928Y-101033270D01*
X142205099Y-101705099D01*
X142197202Y-101714721D01*
X142191334Y-101725700D01*
X142187720Y-101737612D01*
X142186500Y-101750000D01*
X142186500Y-105250000D01*
X142187720Y-105262388D01*
X142191334Y-105274300D01*
X142197202Y-105285279D01*
X142205099Y-105294901D01*
X142876599Y-105966401D01*
X142822265Y-106146361D01*
X142818470Y-106165524D01*
X142814410Y-106184627D01*
X142814095Y-106187619D01*
X142785528Y-106478971D01*
X142785528Y-106478994D01*
X142784501Y-106489421D01*
X142784500Y-112784500D01*
X141220500Y-112784500D01*
X141220500Y-107989421D01*
X141220427Y-107988677D01*
X141220398Y-107984541D01*
X141219374Y-107974797D01*
X141219374Y-107965009D01*
X141219060Y-107962016D01*
X141197305Y-107768066D01*
X141193243Y-107748956D01*
X141189450Y-107729801D01*
X141188563Y-107726937D01*
X141188561Y-107726927D01*
X141188557Y-107726918D01*
X141129547Y-107540896D01*
X141121852Y-107522941D01*
X141114410Y-107504887D01*
X141112979Y-107502240D01*
X141112979Y-107502239D01*
X141112976Y-107502235D01*
X141018957Y-107331215D01*
X141007945Y-107315132D01*
X140997114Y-107298831D01*
X140995196Y-107296513D01*
X140869746Y-107147007D01*
X140855781Y-107133331D01*
X140842027Y-107119481D01*
X140839696Y-107117579D01*
X140687596Y-106995288D01*
X140671196Y-106984556D01*
X140655060Y-106973672D01*
X140652407Y-106972261D01*
X140652403Y-106972258D01*
X140652399Y-106972256D01*
X140479448Y-106881839D01*
X140461335Y-106874521D01*
X140443331Y-106866953D01*
X140440455Y-106866085D01*
X140440449Y-106866083D01*
X140253225Y-106810981D01*
X140234035Y-106807320D01*
X140214907Y-106803394D01*
X140211913Y-106803100D01*
X140017551Y-106785411D01*
X139998019Y-106785547D01*
X139978487Y-106785411D01*
X139975503Y-106785704D01*
X139975493Y-106785704D01*
X139975484Y-106785706D01*
X139781395Y-106806106D01*
X139762267Y-106810032D01*
X139743078Y-106813693D01*
X139740197Y-106814562D01*
X139553759Y-106872274D01*
X139535734Y-106879851D01*
X139517644Y-106887160D01*
X139514987Y-106888573D01*
X139343310Y-106981398D01*
X139327134Y-106992309D01*
X139310773Y-107003015D01*
X139308449Y-107004911D01*
X139308442Y-107004916D01*
X139308436Y-107004922D01*
X139158064Y-107129321D01*
X139144311Y-107143170D01*
X139130347Y-107156845D01*
X139128434Y-107159158D01*
X139128428Y-107159164D01*
X139128424Y-107159171D01*
X139005078Y-107310406D01*
X138994263Y-107326684D01*
X138983235Y-107342790D01*
X138981808Y-107345429D01*
X138981803Y-107345437D01*
X138981800Y-107345445D01*
X138890179Y-107517759D01*
X138882740Y-107535807D01*
X138875041Y-107553769D01*
X138874155Y-107556634D01*
X138874151Y-107556644D01*
X138874149Y-107556654D01*
X138817743Y-107743480D01*
X138813950Y-107762635D01*
X138809888Y-107781745D01*
X138809573Y-107784737D01*
X138790529Y-107978971D01*
X138789500Y-107989422D01*
X138789501Y-112784500D01*
X138268997Y-112784500D01*
X138334482Y-112771474D01*
X138428370Y-112732584D01*
X138512867Y-112676126D01*
X138584726Y-112604267D01*
X138641184Y-112519770D01*
X138680074Y-112425882D01*
X138699900Y-112326212D01*
X138699900Y-112224588D01*
X138680074Y-112124918D01*
X138641184Y-112031030D01*
X138584726Y-111946533D01*
X138512867Y-111874674D01*
X138428370Y-111818216D01*
X138334482Y-111779326D01*
X138234812Y-111759500D01*
X138133188Y-111759500D01*
X138033518Y-111779326D01*
X137939630Y-111818216D01*
X137855133Y-111874674D01*
X137783274Y-111946533D01*
X137758708Y-111983300D01*
X134545292Y-111983300D01*
X134520726Y-111946533D01*
X134448867Y-111874674D01*
X134364370Y-111818216D01*
X134270482Y-111779326D01*
X134170812Y-111759500D01*
X134069188Y-111759500D01*
X133969518Y-111779326D01*
X133875630Y-111818216D01*
X133791133Y-111874674D01*
X133719274Y-111946533D01*
X133662816Y-112031030D01*
X133623926Y-112124918D01*
X133604100Y-112224588D01*
X133604100Y-112326212D01*
X133623926Y-112425882D01*
X133662816Y-112519770D01*
X133719274Y-112604267D01*
X133791133Y-112676126D01*
X133875630Y-112732584D01*
X133969518Y-112771474D01*
X134035003Y-112784500D01*
X128163991Y-112784500D01*
X128761803Y-112186688D01*
X129710100Y-112186688D01*
X129710100Y-112288312D01*
X129729926Y-112387982D01*
X129768816Y-112481870D01*
X129825274Y-112566367D01*
X129897133Y-112638226D01*
X129981630Y-112694684D01*
X130075518Y-112733574D01*
X130175188Y-112753400D01*
X130276812Y-112753400D01*
X130376482Y-112733574D01*
X130470370Y-112694684D01*
X130554867Y-112638226D01*
X130626726Y-112566367D01*
X130683184Y-112481870D01*
X130722074Y-112387982D01*
X130741900Y-112288312D01*
X130741900Y-112186688D01*
X130733273Y-112143318D01*
X131259091Y-111617500D01*
X135019662Y-111617500D01*
X135034000Y-111618912D01*
X135048338Y-111617500D01*
X135048346Y-111617500D01*
X135091262Y-111613273D01*
X135146323Y-111596571D01*
X135197067Y-111569447D01*
X135241545Y-111532945D01*
X135250693Y-111521798D01*
X135889819Y-110882673D01*
X135933188Y-110891300D01*
X136034812Y-110891300D01*
X136134482Y-110871474D01*
X136228370Y-110832584D01*
X136312867Y-110776126D01*
X136384726Y-110704267D01*
X136441184Y-110619770D01*
X136480074Y-110525882D01*
X136499900Y-110426212D01*
X136499900Y-110324588D01*
X137668100Y-110324588D01*
X137668100Y-110426212D01*
X137687926Y-110525882D01*
X137726816Y-110619770D01*
X137783274Y-110704267D01*
X137855133Y-110776126D01*
X137939630Y-110832584D01*
X138033518Y-110871474D01*
X138133188Y-110891300D01*
X138234812Y-110891300D01*
X138334482Y-110871474D01*
X138428370Y-110832584D01*
X138512867Y-110776126D01*
X138584726Y-110704267D01*
X138641184Y-110619770D01*
X138680074Y-110525882D01*
X138699900Y-110426212D01*
X138699900Y-110324588D01*
X138680074Y-110224918D01*
X138641184Y-110131030D01*
X138584726Y-110046533D01*
X138512867Y-109974674D01*
X138428370Y-109918216D01*
X138334482Y-109879326D01*
X138234812Y-109859500D01*
X138133188Y-109859500D01*
X138033518Y-109879326D01*
X137939630Y-109918216D01*
X137855133Y-109974674D01*
X137783274Y-110046533D01*
X137726816Y-110131030D01*
X137687926Y-110224918D01*
X137668100Y-110324588D01*
X136499900Y-110324588D01*
X136480074Y-110224918D01*
X136441184Y-110131030D01*
X136384726Y-110046533D01*
X136312867Y-109974674D01*
X136228370Y-109918216D01*
X136134482Y-109879326D01*
X136034812Y-109859500D01*
X135933188Y-109859500D01*
X135833518Y-109879326D01*
X135739630Y-109918216D01*
X135655133Y-109974674D01*
X135583274Y-110046533D01*
X135526816Y-110131030D01*
X135487926Y-110224918D01*
X135468100Y-110324588D01*
X135468100Y-110426212D01*
X135476727Y-110469581D01*
X134913009Y-111033300D01*
X131152435Y-111033300D01*
X131138099Y-111031888D01*
X131123763Y-111033300D01*
X131123754Y-111033300D01*
X131080838Y-111037527D01*
X131025777Y-111054229D01*
X130975033Y-111081353D01*
X130930555Y-111117855D01*
X130921407Y-111129002D01*
X130320182Y-111730227D01*
X130276812Y-111721600D01*
X130175188Y-111721600D01*
X130075518Y-111741426D01*
X129981630Y-111780316D01*
X129897133Y-111836774D01*
X129825274Y-111908633D01*
X129768816Y-111993130D01*
X129729926Y-112087018D01*
X129710100Y-112186688D01*
X128761803Y-112186688D01*
X130280991Y-110667500D01*
X133694708Y-110667500D01*
X133719274Y-110704267D01*
X133791133Y-110776126D01*
X133875630Y-110832584D01*
X133969518Y-110871474D01*
X134069188Y-110891300D01*
X134170812Y-110891300D01*
X134270482Y-110871474D01*
X134364370Y-110832584D01*
X134448867Y-110776126D01*
X134520726Y-110704267D01*
X134577184Y-110619770D01*
X134616074Y-110525882D01*
X134635900Y-110426212D01*
X134635900Y-110324588D01*
X134616074Y-110224918D01*
X134577184Y-110131030D01*
X134552108Y-110093500D01*
X135291662Y-110093500D01*
X135306000Y-110094912D01*
X135320338Y-110093500D01*
X135320346Y-110093500D01*
X135363262Y-110089273D01*
X135418323Y-110072571D01*
X135469067Y-110045447D01*
X135513545Y-110008945D01*
X135522693Y-109997798D01*
X135719818Y-109800673D01*
X135763188Y-109809300D01*
X135864812Y-109809300D01*
X135964482Y-109789474D01*
X136058370Y-109750584D01*
X136142867Y-109694126D01*
X136214726Y-109622267D01*
X136271184Y-109537770D01*
X136310074Y-109443882D01*
X136329900Y-109344212D01*
X136329900Y-109242588D01*
X136310074Y-109142918D01*
X136271184Y-109049030D01*
X136214726Y-108964533D01*
X136142867Y-108892674D01*
X136058370Y-108836216D01*
X135964482Y-108797326D01*
X135864812Y-108777500D01*
X135763188Y-108777500D01*
X135663518Y-108797326D01*
X135569630Y-108836216D01*
X135485133Y-108892674D01*
X135413274Y-108964533D01*
X135356816Y-109049030D01*
X135317926Y-109142918D01*
X135298100Y-109242588D01*
X135298100Y-109344212D01*
X135306727Y-109387582D01*
X135185009Y-109509300D01*
X129986335Y-109509300D01*
X129971999Y-109507888D01*
X129957663Y-109509300D01*
X129957654Y-109509300D01*
X129914738Y-109513527D01*
X129859677Y-109530229D01*
X129808933Y-109557353D01*
X129764455Y-109593855D01*
X129755311Y-109604997D01*
X128251604Y-111108705D01*
X128251598Y-111108710D01*
X127565009Y-111795300D01*
X126652351Y-111795300D01*
X126744370Y-111757184D01*
X126828867Y-111700726D01*
X126900726Y-111628867D01*
X126957184Y-111544370D01*
X126996074Y-111450482D01*
X127015900Y-111350812D01*
X127015900Y-111249188D01*
X126996074Y-111149518D01*
X126957184Y-111055630D01*
X126900726Y-110971133D01*
X126828867Y-110899274D01*
X126744370Y-110842816D01*
X126650482Y-110803926D01*
X126550812Y-110784100D01*
X126449188Y-110784100D01*
X126405819Y-110792727D01*
X125924780Y-110311688D01*
X127678100Y-110311688D01*
X127678100Y-110413312D01*
X127697926Y-110512982D01*
X127736816Y-110606870D01*
X127793274Y-110691367D01*
X127865133Y-110763226D01*
X127949630Y-110819684D01*
X128043518Y-110858574D01*
X128143188Y-110878400D01*
X128244812Y-110878400D01*
X128344482Y-110858574D01*
X128438370Y-110819684D01*
X128522867Y-110763226D01*
X128594726Y-110691367D01*
X128651184Y-110606870D01*
X128690074Y-110512982D01*
X128709900Y-110413312D01*
X128709900Y-110311688D01*
X128699242Y-110258107D01*
X128719171Y-110220823D01*
X128735873Y-110165762D01*
X128740100Y-110122846D01*
X128740100Y-110122837D01*
X128741512Y-110108501D01*
X128740100Y-110094165D01*
X128740100Y-108682092D01*
X128776867Y-108657526D01*
X128848726Y-108585667D01*
X128905184Y-108501170D01*
X128944074Y-108407282D01*
X128963900Y-108307612D01*
X128963900Y-108205988D01*
X128944074Y-108106318D01*
X128905184Y-108012430D01*
X128848726Y-107927933D01*
X128776867Y-107856074D01*
X128692370Y-107799616D01*
X128598482Y-107760726D01*
X128498812Y-107740900D01*
X128397188Y-107740900D01*
X128297518Y-107760726D01*
X128203630Y-107799616D01*
X128119133Y-107856074D01*
X128047274Y-107927933D01*
X127990816Y-108012430D01*
X127951926Y-108106318D01*
X127932100Y-108205988D01*
X127932100Y-108307612D01*
X127951926Y-108407282D01*
X127990816Y-108501170D01*
X128047274Y-108585667D01*
X128119133Y-108657526D01*
X128155900Y-108682093D01*
X128155901Y-109846600D01*
X128143188Y-109846600D01*
X128043518Y-109866426D01*
X127949630Y-109905316D01*
X127865133Y-109961774D01*
X127793274Y-110033633D01*
X127736816Y-110118130D01*
X127697926Y-110212018D01*
X127678100Y-110311688D01*
X125924780Y-110311688D01*
X125766693Y-110153602D01*
X125757545Y-110142455D01*
X125713067Y-110105953D01*
X125662323Y-110078829D01*
X125607262Y-110062127D01*
X125564346Y-110057900D01*
X125564338Y-110057900D01*
X125550000Y-110056488D01*
X125535662Y-110057900D01*
X122480270Y-110057900D01*
X122455704Y-110021133D01*
X122383845Y-109949274D01*
X122299348Y-109892816D01*
X122205460Y-109853926D01*
X122105790Y-109834100D01*
X122004166Y-109834100D01*
X121904496Y-109853926D01*
X121810608Y-109892816D01*
X121726111Y-109949274D01*
X121654252Y-110021133D01*
X121597794Y-110105630D01*
X121558904Y-110199518D01*
X121539078Y-110299188D01*
X121539078Y-110400812D01*
X121558904Y-110500482D01*
X121597794Y-110594370D01*
X121654252Y-110678867D01*
X121726111Y-110750726D01*
X121810608Y-110807184D01*
X121904496Y-110846074D01*
X122004166Y-110865900D01*
X122105790Y-110865900D01*
X122205460Y-110846074D01*
X122299348Y-110807184D01*
X122383845Y-110750726D01*
X122455704Y-110678867D01*
X122480270Y-110642100D01*
X125429009Y-110642100D01*
X125992727Y-111205819D01*
X125984100Y-111249188D01*
X125984100Y-111350812D01*
X126003926Y-111450482D01*
X126042816Y-111544370D01*
X126099274Y-111628867D01*
X126171133Y-111700726D01*
X126255630Y-111757184D01*
X126347649Y-111795300D01*
X119678991Y-111795300D01*
X119596100Y-111712409D01*
X119596100Y-109464692D01*
X119632867Y-109440126D01*
X119704726Y-109368267D01*
X119761184Y-109283770D01*
X119800074Y-109189882D01*
X119819900Y-109090212D01*
X119819900Y-108988588D01*
X119800074Y-108888918D01*
X119761184Y-108795030D01*
X119704726Y-108710533D01*
X119632867Y-108638674D01*
X119548370Y-108582216D01*
X119454482Y-108543326D01*
X119354812Y-108523500D01*
X119253188Y-108523500D01*
X119153518Y-108543326D01*
X119059630Y-108582216D01*
X118975133Y-108638674D01*
X118903274Y-108710533D01*
X118846816Y-108795030D01*
X118807926Y-108888918D01*
X118788100Y-108988588D01*
X118788100Y-108996351D01*
X118126751Y-108335002D01*
X118117603Y-108323855D01*
X118073125Y-108287353D01*
X118022381Y-108260229D01*
X117967320Y-108243527D01*
X117924404Y-108239300D01*
X117924396Y-108239300D01*
X117910058Y-108237888D01*
X117895720Y-108239300D01*
X117189292Y-108239300D01*
X117164726Y-108202533D01*
X117092867Y-108130674D01*
X117008370Y-108074216D01*
X116914482Y-108035326D01*
X116814812Y-108015500D01*
X116713188Y-108015500D01*
X116613518Y-108035326D01*
X116519630Y-108074216D01*
X116435133Y-108130674D01*
X116363274Y-108202533D01*
X116306816Y-108287030D01*
X116267926Y-108380918D01*
X116248100Y-108480588D01*
X116248100Y-108582212D01*
X116267926Y-108681882D01*
X116306816Y-108775770D01*
X116363274Y-108860267D01*
X116435133Y-108932126D01*
X116519630Y-108988584D01*
X116613518Y-109027474D01*
X116713188Y-109047300D01*
X116814812Y-109047300D01*
X116914482Y-109027474D01*
X117008370Y-108988584D01*
X117092867Y-108932126D01*
X117164726Y-108860267D01*
X117189292Y-108823500D01*
X117789067Y-108823500D01*
X118145067Y-109179500D01*
X114550500Y-109179500D01*
X114550500Y-107989421D01*
X114550427Y-107988677D01*
X114550398Y-107984541D01*
X114549374Y-107974797D01*
X114549374Y-107965009D01*
X114549060Y-107962016D01*
X114527305Y-107768066D01*
X114523243Y-107748956D01*
X114519450Y-107729801D01*
X114518563Y-107726937D01*
X114518561Y-107726927D01*
X114518557Y-107726918D01*
X114459547Y-107540896D01*
X114451852Y-107522941D01*
X114444410Y-107504887D01*
X114442979Y-107502240D01*
X114442979Y-107502239D01*
X114442976Y-107502235D01*
X114348957Y-107331215D01*
X114337945Y-107315132D01*
X114327114Y-107298831D01*
X114325196Y-107296513D01*
X114199746Y-107147007D01*
X114185781Y-107133331D01*
X114172027Y-107119481D01*
X114169696Y-107117579D01*
X114017596Y-106995288D01*
X114001196Y-106984556D01*
X113985060Y-106973672D01*
X113982407Y-106972261D01*
X113982403Y-106972258D01*
X113982399Y-106972256D01*
X113809448Y-106881839D01*
X113791335Y-106874521D01*
X113773331Y-106866953D01*
X113770455Y-106866085D01*
X113770449Y-106866083D01*
X113583225Y-106810981D01*
X113564035Y-106807320D01*
X113544907Y-106803394D01*
X113541913Y-106803100D01*
X113347551Y-106785411D01*
X113328019Y-106785547D01*
X113308487Y-106785411D01*
X113305503Y-106785704D01*
X113305493Y-106785704D01*
X113305484Y-106785706D01*
X113111395Y-106806106D01*
X113092267Y-106810032D01*
X113073078Y-106813693D01*
X113070197Y-106814562D01*
X112883759Y-106872274D01*
X112865734Y-106879851D01*
X112847644Y-106887160D01*
X112844987Y-106888573D01*
X112673310Y-106981398D01*
X112657134Y-106992309D01*
X112640773Y-107003015D01*
X112638449Y-107004911D01*
X112638442Y-107004916D01*
X112638436Y-107004922D01*
X112488064Y-107129321D01*
X112474311Y-107143170D01*
X112460347Y-107156845D01*
X112458434Y-107159158D01*
X112458428Y-107159164D01*
X112458424Y-107159171D01*
X112335078Y-107310406D01*
X112324263Y-107326684D01*
X112313235Y-107342790D01*
X112311808Y-107345429D01*
X112311803Y-107345437D01*
X112311800Y-107345445D01*
X112220179Y-107517759D01*
X112212740Y-107535807D01*
X112205041Y-107553769D01*
X112204155Y-107556634D01*
X112204151Y-107556644D01*
X112204149Y-107556654D01*
X112147743Y-107743480D01*
X112143950Y-107762635D01*
X112139888Y-107781745D01*
X112139573Y-107784737D01*
X112120529Y-107978971D01*
X112119500Y-107989422D01*
X112119501Y-112784500D01*
X111598997Y-112784500D01*
X111664482Y-112771474D01*
X111758370Y-112732584D01*
X111842867Y-112676126D01*
X111914726Y-112604267D01*
X111971184Y-112519770D01*
X112010074Y-112425882D01*
X112029900Y-112326212D01*
X112029900Y-112224588D01*
X112010074Y-112124918D01*
X111971184Y-112031030D01*
X111914726Y-111946533D01*
X111842867Y-111874674D01*
X111758370Y-111818216D01*
X111664482Y-111779326D01*
X111564812Y-111759500D01*
X111463188Y-111759500D01*
X111419818Y-111768127D01*
X110452100Y-110800409D01*
X110452100Y-108278436D01*
X110488867Y-108253870D01*
X110560726Y-108182011D01*
X110617184Y-108097514D01*
X110656074Y-108003626D01*
X110675900Y-107903956D01*
X110675900Y-107802332D01*
X110656074Y-107702662D01*
X110617184Y-107608774D01*
X110560726Y-107524277D01*
X110488867Y-107452418D01*
X110404370Y-107395960D01*
X110310482Y-107357070D01*
X110210812Y-107337244D01*
X110109188Y-107337244D01*
X110009518Y-107357070D01*
X109915630Y-107395960D01*
X109831133Y-107452418D01*
X109759274Y-107524277D01*
X109702816Y-107608774D01*
X109663926Y-107702662D01*
X109644100Y-107802332D01*
X109644100Y-107903956D01*
X109663926Y-108003626D01*
X109702816Y-108097514D01*
X109759274Y-108182011D01*
X109831133Y-108253870D01*
X109867900Y-108278436D01*
X109867900Y-108291753D01*
X109867901Y-108291763D01*
X109867900Y-110907062D01*
X109866488Y-110921400D01*
X109867900Y-110935738D01*
X109867900Y-110935745D01*
X109872127Y-110978661D01*
X109888829Y-111033722D01*
X109915953Y-111084466D01*
X109952455Y-111128945D01*
X109963602Y-111138093D01*
X111006727Y-112181218D01*
X110998100Y-112224588D01*
X110998100Y-112326212D01*
X111017926Y-112425882D01*
X111056816Y-112519770D01*
X111113274Y-112604267D01*
X111185133Y-112676126D01*
X111269630Y-112732584D01*
X111363518Y-112771474D01*
X111429003Y-112784500D01*
X107788997Y-112784500D01*
X107854482Y-112771474D01*
X107948370Y-112732584D01*
X108032867Y-112676126D01*
X108104726Y-112604267D01*
X108161184Y-112519770D01*
X108200074Y-112425882D01*
X108219900Y-112326212D01*
X108219900Y-112224588D01*
X108211273Y-112181218D01*
X108832419Y-111560072D01*
X108843565Y-111550925D01*
X108880067Y-111506447D01*
X108907191Y-111455703D01*
X108923893Y-111400642D01*
X108928120Y-111357726D01*
X108928120Y-111357717D01*
X108929532Y-111343381D01*
X108928120Y-111329045D01*
X108928120Y-109301300D01*
X108940762Y-109301300D01*
X109040432Y-109281474D01*
X109134320Y-109242584D01*
X109218817Y-109186126D01*
X109290676Y-109114267D01*
X109347134Y-109029770D01*
X109386024Y-108935882D01*
X109405850Y-108836212D01*
X109405850Y-108734588D01*
X109386024Y-108634918D01*
X109347134Y-108541030D01*
X109290676Y-108456533D01*
X109218817Y-108384674D01*
X109134320Y-108328216D01*
X109040432Y-108289326D01*
X108940762Y-108269500D01*
X108839138Y-108269500D01*
X108739468Y-108289326D01*
X108645580Y-108328216D01*
X108561083Y-108384674D01*
X108489224Y-108456533D01*
X108432766Y-108541030D01*
X108393876Y-108634918D01*
X108374050Y-108734588D01*
X108374050Y-108836212D01*
X108384717Y-108889838D01*
X108364849Y-108927008D01*
X108348147Y-108982069D01*
X108342508Y-109039330D01*
X108343921Y-109053678D01*
X108343920Y-111222389D01*
X107798182Y-111768127D01*
X107754812Y-111759500D01*
X107653188Y-111759500D01*
X107553518Y-111779326D01*
X107459630Y-111818216D01*
X107375133Y-111874674D01*
X107303274Y-111946533D01*
X107246816Y-112031030D01*
X107207926Y-112124918D01*
X107188100Y-112224588D01*
X107188100Y-112326212D01*
X107207926Y-112425882D01*
X107246816Y-112519770D01*
X107303274Y-112604267D01*
X107375133Y-112676126D01*
X107459630Y-112732584D01*
X107553518Y-112771474D01*
X107619003Y-112784500D01*
X87880500Y-112784500D01*
X87880500Y-108577399D01*
X91024489Y-108577399D01*
X91025902Y-108591747D01*
X91025901Y-112128393D01*
X91024489Y-112142731D01*
X91025901Y-112157069D01*
X91025901Y-112157076D01*
X91030128Y-112199992D01*
X91046830Y-112255053D01*
X91073954Y-112305797D01*
X91110456Y-112350276D01*
X91121603Y-112359424D01*
X91401582Y-112639404D01*
X91410726Y-112650546D01*
X91421868Y-112659690D01*
X91421869Y-112659691D01*
X91455204Y-112687048D01*
X91505948Y-112714172D01*
X91561009Y-112730874D01*
X91618271Y-112736514D01*
X91632617Y-112735101D01*
X92757161Y-112735101D01*
X92771499Y-112736513D01*
X92785837Y-112735101D01*
X92785845Y-112735101D01*
X92828761Y-112730874D01*
X92883822Y-112714172D01*
X92934566Y-112687048D01*
X92979044Y-112650546D01*
X92988192Y-112639399D01*
X93097991Y-112529600D01*
X93351708Y-112529600D01*
X93376274Y-112566367D01*
X93448133Y-112638226D01*
X93532630Y-112694684D01*
X93626518Y-112733574D01*
X93726188Y-112753400D01*
X93827812Y-112753400D01*
X93927482Y-112733574D01*
X94021370Y-112694684D01*
X94105867Y-112638226D01*
X94177726Y-112566367D01*
X94234184Y-112481870D01*
X94273074Y-112387982D01*
X94292900Y-112288312D01*
X94292900Y-112186688D01*
X94273074Y-112087018D01*
X94234184Y-111993130D01*
X94177726Y-111908633D01*
X94105867Y-111836774D01*
X94021370Y-111780316D01*
X93927482Y-111741426D01*
X93827812Y-111721600D01*
X93726188Y-111721600D01*
X93626518Y-111741426D01*
X93532630Y-111780316D01*
X93448133Y-111836774D01*
X93376274Y-111908633D01*
X93351708Y-111945400D01*
X92991335Y-111945400D01*
X92976999Y-111943988D01*
X92962663Y-111945400D01*
X92962654Y-111945400D01*
X92919738Y-111949627D01*
X92864677Y-111966329D01*
X92813933Y-111993453D01*
X92769455Y-112029955D01*
X92760307Y-112041102D01*
X92650508Y-112150901D01*
X91739263Y-112150901D01*
X91610101Y-112021740D01*
X91610101Y-108793300D01*
X91668812Y-108793300D01*
X91768482Y-108773474D01*
X91862370Y-108734584D01*
X91946867Y-108678126D01*
X92018726Y-108606267D01*
X92075184Y-108521770D01*
X92114074Y-108427882D01*
X92133900Y-108328212D01*
X92133900Y-108226588D01*
X92114074Y-108126918D01*
X92075184Y-108033030D01*
X92018726Y-107948533D01*
X91946867Y-107876674D01*
X91862370Y-107820216D01*
X91768482Y-107781326D01*
X91668812Y-107761500D01*
X91567188Y-107761500D01*
X91467518Y-107781326D01*
X91373630Y-107820216D01*
X91289133Y-107876674D01*
X91217274Y-107948533D01*
X91160816Y-108033030D01*
X91121926Y-108126918D01*
X91102100Y-108226588D01*
X91102100Y-108328212D01*
X91110398Y-108369926D01*
X91101313Y-108380996D01*
X91101311Y-108380998D01*
X91073954Y-108414333D01*
X91046830Y-108465077D01*
X91030128Y-108520138D01*
X91024489Y-108577399D01*
X87880500Y-108577399D01*
X87880500Y-107989421D01*
X87880427Y-107988677D01*
X87880398Y-107984541D01*
X87879374Y-107974797D01*
X87879374Y-107965009D01*
X87879060Y-107962016D01*
X87857305Y-107768066D01*
X87853243Y-107748956D01*
X87849450Y-107729801D01*
X87848563Y-107726937D01*
X87848561Y-107726927D01*
X87848557Y-107726918D01*
X87789547Y-107540896D01*
X87781852Y-107522941D01*
X87774410Y-107504887D01*
X87772979Y-107502240D01*
X87772979Y-107502239D01*
X87772976Y-107502235D01*
X87678957Y-107331215D01*
X87667945Y-107315132D01*
X87657114Y-107298831D01*
X87655196Y-107296513D01*
X87529746Y-107147007D01*
X87515781Y-107133331D01*
X87502027Y-107119481D01*
X87499696Y-107117579D01*
X87347596Y-106995288D01*
X87331196Y-106984556D01*
X87315060Y-106973672D01*
X87312407Y-106972261D01*
X87312403Y-106972258D01*
X87312399Y-106972256D01*
X87139448Y-106881839D01*
X87121335Y-106874521D01*
X87103331Y-106866953D01*
X87100455Y-106866085D01*
X87100449Y-106866083D01*
X86913225Y-106810981D01*
X86894035Y-106807320D01*
X86874907Y-106803394D01*
X86871913Y-106803100D01*
X86677551Y-106785411D01*
X86658019Y-106785547D01*
X86638487Y-106785411D01*
X86635503Y-106785704D01*
X86635493Y-106785704D01*
X86635484Y-106785706D01*
X86441395Y-106806106D01*
X86422267Y-106810032D01*
X86403078Y-106813693D01*
X86400197Y-106814562D01*
X86213759Y-106872274D01*
X86195734Y-106879851D01*
X86177644Y-106887160D01*
X86174987Y-106888573D01*
X86003310Y-106981398D01*
X85987134Y-106992309D01*
X85970773Y-107003015D01*
X85968449Y-107004911D01*
X85968442Y-107004916D01*
X85968436Y-107004922D01*
X85818064Y-107129321D01*
X85804311Y-107143170D01*
X85790347Y-107156845D01*
X85788434Y-107159158D01*
X85788428Y-107159164D01*
X85788424Y-107159171D01*
X85665078Y-107310406D01*
X85654263Y-107326684D01*
X85643235Y-107342790D01*
X85641808Y-107345429D01*
X85641803Y-107345437D01*
X85641800Y-107345445D01*
X85560100Y-107499100D01*
X85560100Y-104334391D01*
X85681819Y-104212673D01*
X85725188Y-104221300D01*
X85826812Y-104221300D01*
X85926482Y-104201474D01*
X86020370Y-104162584D01*
X86104867Y-104106126D01*
X86176726Y-104034267D01*
X86233184Y-103949770D01*
X86272074Y-103855882D01*
X86291900Y-103756212D01*
X86291900Y-103654588D01*
X86272074Y-103554918D01*
X86233184Y-103461030D01*
X86176726Y-103376533D01*
X86104867Y-103304674D01*
X86020370Y-103248216D01*
X85926482Y-103209326D01*
X85826812Y-103189500D01*
X85725188Y-103189500D01*
X85625518Y-103209326D01*
X85531630Y-103248216D01*
X85447133Y-103304674D01*
X85375274Y-103376533D01*
X85318816Y-103461030D01*
X85279926Y-103554918D01*
X85260100Y-103654588D01*
X85260100Y-103756212D01*
X85268727Y-103799581D01*
X85071597Y-103996712D01*
X85060456Y-104005855D01*
X85051312Y-104016997D01*
X85051310Y-104016999D01*
X85023953Y-104050334D01*
X84996829Y-104101078D01*
X84980127Y-104156139D01*
X84974488Y-104213400D01*
X84975901Y-104227748D01*
X84975900Y-109172408D01*
X84308808Y-109839500D01*
X81909926Y-109839500D01*
X81978765Y-109770661D01*
X82069451Y-109788700D01*
X82171075Y-109788700D01*
X82270745Y-109768874D01*
X82364633Y-109729984D01*
X82449130Y-109673526D01*
X82520989Y-109601667D01*
X82577447Y-109517170D01*
X82616337Y-109423282D01*
X82636163Y-109323612D01*
X82636163Y-109221988D01*
X82616337Y-109122318D01*
X82577447Y-109028430D01*
X82520989Y-108943933D01*
X82449130Y-108872074D01*
X82364633Y-108815616D01*
X82270745Y-108776726D01*
X82171075Y-108756900D01*
X82069451Y-108756900D01*
X81969781Y-108776726D01*
X81875893Y-108815616D01*
X81791396Y-108872074D01*
X81719537Y-108943933D01*
X81663079Y-109028430D01*
X81624189Y-109122318D01*
X81604363Y-109221988D01*
X81604363Y-109318879D01*
X81007598Y-109915645D01*
X80996456Y-109924789D01*
X80987312Y-109935931D01*
X80987310Y-109935933D01*
X80959953Y-109969268D01*
X80932829Y-110020012D01*
X80916127Y-110075073D01*
X80910488Y-110132334D01*
X80911901Y-110146682D01*
X80911900Y-111966408D01*
X80808408Y-112069901D01*
X72139443Y-112069901D01*
X72175074Y-111983882D01*
X72194900Y-111884212D01*
X72194900Y-111782588D01*
X72175074Y-111682918D01*
X72136184Y-111589030D01*
X72079726Y-111504533D01*
X72007867Y-111432674D01*
X71923370Y-111376216D01*
X71829482Y-111337326D01*
X71729812Y-111317500D01*
X71628188Y-111317500D01*
X71528518Y-111337326D01*
X71434630Y-111376216D01*
X71350133Y-111432674D01*
X71278274Y-111504533D01*
X71253708Y-111541300D01*
X70910992Y-111541300D01*
X68974693Y-109605002D01*
X68965545Y-109593855D01*
X68921067Y-109557353D01*
X68870323Y-109530229D01*
X68815262Y-109513527D01*
X68772346Y-109509300D01*
X68772338Y-109509300D01*
X68758000Y-109507888D01*
X68743662Y-109509300D01*
X66468346Y-109509300D01*
X66454000Y-109507887D01*
X66439654Y-109509300D01*
X66396738Y-109513527D01*
X66341677Y-109530229D01*
X66290933Y-109557353D01*
X66246455Y-109593855D01*
X66237311Y-109604997D01*
X65974182Y-109868127D01*
X65930812Y-109859500D01*
X65829188Y-109859500D01*
X65729518Y-109879326D01*
X65635630Y-109918216D01*
X65551133Y-109974674D01*
X65479274Y-110046533D01*
X65422816Y-110131030D01*
X65383926Y-110224918D01*
X65364100Y-110324588D01*
X65364100Y-110426212D01*
X65383926Y-110525882D01*
X65422816Y-110619770D01*
X65479274Y-110704267D01*
X65503497Y-110728490D01*
X64782182Y-110728490D01*
X64523273Y-110469582D01*
X64531900Y-110426212D01*
X64531900Y-110324588D01*
X64512074Y-110224918D01*
X64473184Y-110131030D01*
X64416726Y-110046533D01*
X64344867Y-109974674D01*
X64260370Y-109918216D01*
X64166482Y-109879326D01*
X64066812Y-109859500D01*
X63965188Y-109859500D01*
X63865518Y-109879326D01*
X63771630Y-109918216D01*
X63687133Y-109974674D01*
X63615274Y-110046533D01*
X63558816Y-110131030D01*
X63519926Y-110224918D01*
X63500100Y-110324588D01*
X63500100Y-110426212D01*
X63519926Y-110525882D01*
X63558816Y-110619770D01*
X63615274Y-110704267D01*
X63687133Y-110776126D01*
X63771630Y-110832584D01*
X63865518Y-110871474D01*
X63965188Y-110891300D01*
X64066812Y-110891300D01*
X64110182Y-110882673D01*
X64260808Y-111033300D01*
X62886992Y-111033300D01*
X62323273Y-110469582D01*
X62331900Y-110426212D01*
X62331900Y-110324588D01*
X62312074Y-110224918D01*
X62273184Y-110131030D01*
X62216726Y-110046533D01*
X62144867Y-109974674D01*
X62060370Y-109918216D01*
X61966482Y-109879326D01*
X61866812Y-109859500D01*
X61765188Y-109859500D01*
X61665518Y-109879326D01*
X61571630Y-109918216D01*
X61487133Y-109974674D01*
X61415274Y-110046533D01*
X61358816Y-110131030D01*
X61319926Y-110224918D01*
X61300100Y-110324588D01*
X61300100Y-110426212D01*
X61319926Y-110525882D01*
X61358816Y-110619770D01*
X61415274Y-110704267D01*
X61487133Y-110776126D01*
X61571630Y-110832584D01*
X61665518Y-110871474D01*
X61765188Y-110891300D01*
X61866812Y-110891300D01*
X61910182Y-110882673D01*
X62549309Y-111521801D01*
X62558455Y-111532945D01*
X62569597Y-111542089D01*
X62569598Y-111542090D01*
X62602933Y-111569447D01*
X62653677Y-111596571D01*
X62708738Y-111613273D01*
X62766000Y-111618913D01*
X62780346Y-111617500D01*
X68760629Y-111617500D01*
X69266727Y-112123599D01*
X69258100Y-112166968D01*
X69258100Y-112268592D01*
X69277926Y-112368262D01*
X69313557Y-112454281D01*
X68671973Y-112454281D01*
X68587273Y-112369581D01*
X68595900Y-112326212D01*
X68595900Y-112224588D01*
X68576074Y-112124918D01*
X68537184Y-112031030D01*
X68480726Y-111946533D01*
X68408867Y-111874674D01*
X68324370Y-111818216D01*
X68230482Y-111779326D01*
X68130812Y-111759500D01*
X68029188Y-111759500D01*
X67929518Y-111779326D01*
X67835630Y-111818216D01*
X67751133Y-111874674D01*
X67679274Y-111946533D01*
X67654708Y-111983300D01*
X64441292Y-111983300D01*
X64416726Y-111946533D01*
X64344867Y-111874674D01*
X64260370Y-111818216D01*
X64166482Y-111779326D01*
X64066812Y-111759500D01*
X63965188Y-111759500D01*
X63865518Y-111779326D01*
X63771630Y-111818216D01*
X63687133Y-111874674D01*
X63615274Y-111946533D01*
X63558816Y-112031030D01*
X63519926Y-112124918D01*
X63500100Y-112224588D01*
X63500100Y-112326212D01*
X63519926Y-112425882D01*
X63558816Y-112519770D01*
X63615274Y-112604267D01*
X63687133Y-112676126D01*
X63771630Y-112732584D01*
X63865518Y-112771474D01*
X63931003Y-112784500D01*
X61210500Y-112784500D01*
X61210500Y-107989421D01*
X61210427Y-107988677D01*
X61210398Y-107984541D01*
X61209374Y-107974797D01*
X61209374Y-107965009D01*
X61209060Y-107962016D01*
X61187305Y-107768066D01*
X61183243Y-107748956D01*
X61179450Y-107729801D01*
X61178563Y-107726937D01*
X61178561Y-107726927D01*
X61178557Y-107726918D01*
X61119547Y-107540896D01*
X61111852Y-107522941D01*
X61104410Y-107504887D01*
X61102979Y-107502240D01*
X61102979Y-107502239D01*
X61102976Y-107502235D01*
X61008957Y-107331215D01*
X60997945Y-107315132D01*
X60987114Y-107298831D01*
X60985196Y-107296513D01*
X60946168Y-107250000D01*
X68555608Y-107250000D01*
X68559727Y-107291826D01*
X68571928Y-107332044D01*
X68591740Y-107369110D01*
X68618402Y-107401598D01*
X68650890Y-107428260D01*
X68687956Y-107448072D01*
X68728174Y-107460273D01*
X68770000Y-107464392D01*
X69453960Y-107463360D01*
X69507300Y-107410020D01*
X69507300Y-106262700D01*
X69532700Y-106262700D01*
X69532700Y-107410020D01*
X69586040Y-107463360D01*
X70270000Y-107464392D01*
X70311826Y-107460273D01*
X70352044Y-107448072D01*
X70389110Y-107428260D01*
X70421598Y-107401598D01*
X70448260Y-107369110D01*
X70468072Y-107332044D01*
X70480273Y-107291826D01*
X70484392Y-107250000D01*
X70483360Y-106316040D01*
X70430020Y-106262700D01*
X69532700Y-106262700D01*
X69507300Y-106262700D01*
X68609980Y-106262700D01*
X68556640Y-106316040D01*
X68555608Y-107250000D01*
X60946168Y-107250000D01*
X60859746Y-107147007D01*
X60845781Y-107133331D01*
X60832027Y-107119481D01*
X60829696Y-107117579D01*
X60677596Y-106995288D01*
X60661196Y-106984556D01*
X60645060Y-106973672D01*
X60642407Y-106972261D01*
X60642403Y-106972258D01*
X60642399Y-106972256D01*
X60469448Y-106881839D01*
X60451335Y-106874521D01*
X60433331Y-106866953D01*
X60430455Y-106866085D01*
X60430449Y-106866083D01*
X60243225Y-106810981D01*
X60224035Y-106807320D01*
X60204907Y-106803394D01*
X60201913Y-106803100D01*
X60007551Y-106785411D01*
X59988019Y-106785547D01*
X59968487Y-106785411D01*
X59965503Y-106785704D01*
X59965493Y-106785704D01*
X59965484Y-106785706D01*
X59771395Y-106806106D01*
X59752267Y-106810032D01*
X59733078Y-106813693D01*
X59730197Y-106814562D01*
X59543759Y-106872274D01*
X59525734Y-106879851D01*
X59507644Y-106887160D01*
X59504987Y-106888573D01*
X59333310Y-106981398D01*
X59317134Y-106992309D01*
X59300773Y-107003015D01*
X59298449Y-107004911D01*
X59298442Y-107004916D01*
X59298436Y-107004922D01*
X59148064Y-107129321D01*
X59134311Y-107143170D01*
X59120347Y-107156845D01*
X59118434Y-107159158D01*
X59118428Y-107159164D01*
X59118424Y-107159171D01*
X58995078Y-107310406D01*
X58984263Y-107326684D01*
X58973235Y-107342790D01*
X58971808Y-107345429D01*
X58971803Y-107345437D01*
X58971800Y-107345445D01*
X58880179Y-107517759D01*
X58872740Y-107535807D01*
X58865041Y-107553769D01*
X58864155Y-107556634D01*
X58864151Y-107556644D01*
X58864149Y-107556654D01*
X58807743Y-107743480D01*
X58803950Y-107762635D01*
X58799888Y-107781745D01*
X58799573Y-107784737D01*
X58780529Y-107978971D01*
X58779500Y-107989422D01*
X58779501Y-112784500D01*
X57215500Y-112784500D01*
X57215500Y-106489421D01*
X57215427Y-106488675D01*
X57215349Y-106477555D01*
X57214325Y-106467814D01*
X57214325Y-106458027D01*
X57214011Y-106455035D01*
X57181378Y-106164110D01*
X57177312Y-106144979D01*
X57173523Y-106125846D01*
X57172634Y-106122971D01*
X57123072Y-105966730D01*
X57794901Y-105294901D01*
X57802798Y-105285279D01*
X57808666Y-105274300D01*
X57812280Y-105262388D01*
X57813500Y-105250000D01*
X68555608Y-105250000D01*
X68556640Y-106183960D01*
X68609980Y-106237300D01*
X69507300Y-106237300D01*
X69507300Y-105089980D01*
X69532700Y-105089980D01*
X69532700Y-106237300D01*
X70430020Y-106237300D01*
X70483360Y-106183960D01*
X70483977Y-105625000D01*
X71093056Y-105625000D01*
X71093056Y-106875000D01*
X71104430Y-106990483D01*
X71138115Y-107101527D01*
X71192817Y-107203866D01*
X71266432Y-107293568D01*
X71356134Y-107367183D01*
X71458473Y-107421885D01*
X71569517Y-107455570D01*
X71685000Y-107466944D01*
X71767900Y-107466944D01*
X71767901Y-109854177D01*
X71729812Y-109846600D01*
X71628188Y-109846600D01*
X71528518Y-109866426D01*
X71434630Y-109905316D01*
X71350133Y-109961774D01*
X71278274Y-110033633D01*
X71221816Y-110118130D01*
X71182926Y-110212018D01*
X71163100Y-110311688D01*
X71163100Y-110413312D01*
X71182926Y-110512982D01*
X71221816Y-110606870D01*
X71278274Y-110691367D01*
X71350133Y-110763226D01*
X71434630Y-110819684D01*
X71528518Y-110858574D01*
X71628188Y-110878400D01*
X71729812Y-110878400D01*
X71829482Y-110858574D01*
X71923370Y-110819684D01*
X72007867Y-110763226D01*
X72079726Y-110691367D01*
X72136184Y-110606870D01*
X72175074Y-110512982D01*
X72194900Y-110413312D01*
X72194900Y-110311688D01*
X72192414Y-110299188D01*
X72984100Y-110299188D01*
X72984100Y-110400812D01*
X73003926Y-110500482D01*
X73042816Y-110594370D01*
X73099274Y-110678867D01*
X73171133Y-110750726D01*
X73255630Y-110807184D01*
X73349518Y-110846074D01*
X73449188Y-110865900D01*
X73550812Y-110865900D01*
X73650482Y-110846074D01*
X73744370Y-110807184D01*
X73828867Y-110750726D01*
X73900726Y-110678867D01*
X73925292Y-110642100D01*
X75274708Y-110642100D01*
X75299274Y-110678867D01*
X75371133Y-110750726D01*
X75455630Y-110807184D01*
X75498641Y-110825000D01*
X75455630Y-110842816D01*
X75371133Y-110899274D01*
X75299274Y-110971133D01*
X75242816Y-111055630D01*
X75203926Y-111149518D01*
X75184100Y-111249188D01*
X75184100Y-111350812D01*
X75203926Y-111450482D01*
X75242816Y-111544370D01*
X75299274Y-111628867D01*
X75371133Y-111700726D01*
X75455630Y-111757184D01*
X75549518Y-111796074D01*
X75649188Y-111815900D01*
X75750812Y-111815900D01*
X75850482Y-111796074D01*
X75944370Y-111757184D01*
X76028867Y-111700726D01*
X76100726Y-111628867D01*
X76125292Y-111592100D01*
X79180636Y-111592100D01*
X79194974Y-111593512D01*
X79209312Y-111592100D01*
X79209320Y-111592100D01*
X79252236Y-111587873D01*
X79307297Y-111571171D01*
X79358041Y-111544047D01*
X79402519Y-111507545D01*
X79411667Y-111496398D01*
X80050793Y-110857273D01*
X80094162Y-110865900D01*
X80195786Y-110865900D01*
X80295456Y-110846074D01*
X80389344Y-110807184D01*
X80473841Y-110750726D01*
X80545700Y-110678867D01*
X80602158Y-110594370D01*
X80641048Y-110500482D01*
X80660874Y-110400812D01*
X80660874Y-110299188D01*
X80641048Y-110199518D01*
X80602158Y-110105630D01*
X80545700Y-110021133D01*
X80473841Y-109949274D01*
X80389344Y-109892816D01*
X80295456Y-109853926D01*
X80195786Y-109834100D01*
X80094162Y-109834100D01*
X79994492Y-109853926D01*
X79900604Y-109892816D01*
X79816107Y-109949274D01*
X79744248Y-110021133D01*
X79687790Y-110105630D01*
X79648900Y-110199518D01*
X79629074Y-110299188D01*
X79629074Y-110400812D01*
X79637701Y-110444181D01*
X79073983Y-111007900D01*
X76125292Y-111007900D01*
X76100726Y-110971133D01*
X76028867Y-110899274D01*
X75944370Y-110842816D01*
X75901359Y-110825000D01*
X75944370Y-110807184D01*
X76028867Y-110750726D01*
X76100726Y-110678867D01*
X76157184Y-110594370D01*
X76196074Y-110500482D01*
X76215900Y-110400812D01*
X76215900Y-110299188D01*
X77429100Y-110299188D01*
X77429100Y-110400812D01*
X77448926Y-110500482D01*
X77487816Y-110594370D01*
X77544274Y-110678867D01*
X77616133Y-110750726D01*
X77700630Y-110807184D01*
X77794518Y-110846074D01*
X77894188Y-110865900D01*
X77995812Y-110865900D01*
X78095482Y-110846074D01*
X78189370Y-110807184D01*
X78273867Y-110750726D01*
X78345726Y-110678867D01*
X78402184Y-110594370D01*
X78441074Y-110500482D01*
X78460900Y-110400812D01*
X78460900Y-110299188D01*
X78441074Y-110199518D01*
X78402184Y-110105630D01*
X78345726Y-110021133D01*
X78273867Y-109949274D01*
X78237100Y-109924708D01*
X78237100Y-109879391D01*
X79788303Y-108328188D01*
X80307108Y-108328188D01*
X80307108Y-108429812D01*
X80326934Y-108529482D01*
X80365824Y-108623370D01*
X80422282Y-108707867D01*
X80494141Y-108779726D01*
X80578638Y-108836184D01*
X80672526Y-108875074D01*
X80772196Y-108894900D01*
X80873820Y-108894900D01*
X80973490Y-108875074D01*
X81067378Y-108836184D01*
X81151875Y-108779726D01*
X81209701Y-108721900D01*
X82722307Y-108721900D01*
X82780133Y-108779726D01*
X82864630Y-108836184D01*
X82958518Y-108875074D01*
X83058188Y-108894900D01*
X83159812Y-108894900D01*
X83259482Y-108875074D01*
X83353370Y-108836184D01*
X83437867Y-108779726D01*
X83509726Y-108707867D01*
X83566184Y-108623370D01*
X83605074Y-108529482D01*
X83624900Y-108429812D01*
X83624900Y-108328188D01*
X83605074Y-108228518D01*
X83566184Y-108134630D01*
X83509726Y-108050133D01*
X83437867Y-107978274D01*
X83353370Y-107921816D01*
X83259482Y-107882926D01*
X83159812Y-107863100D01*
X83058188Y-107863100D01*
X82958518Y-107882926D01*
X82864630Y-107921816D01*
X82780133Y-107978274D01*
X82722307Y-108036100D01*
X81209701Y-108036100D01*
X81151875Y-107978274D01*
X81067378Y-107921816D01*
X80973490Y-107882926D01*
X80873820Y-107863100D01*
X80772196Y-107863100D01*
X80672526Y-107882926D01*
X80578638Y-107921816D01*
X80494141Y-107978274D01*
X80422282Y-108050133D01*
X80365824Y-108134630D01*
X80326934Y-108228518D01*
X80307108Y-108328188D01*
X79788303Y-108328188D01*
X80093819Y-108022673D01*
X80137188Y-108031300D01*
X80238812Y-108031300D01*
X80338482Y-108011474D01*
X80432370Y-107972584D01*
X80516867Y-107916126D01*
X80588726Y-107844267D01*
X80645184Y-107759770D01*
X80684074Y-107665882D01*
X80703900Y-107566212D01*
X80703900Y-107464588D01*
X80684074Y-107364918D01*
X80645184Y-107271030D01*
X80588726Y-107186533D01*
X80516867Y-107114674D01*
X80432370Y-107058216D01*
X80338482Y-107019326D01*
X80238812Y-106999500D01*
X80137188Y-106999500D01*
X80037518Y-107019326D01*
X79943630Y-107058216D01*
X79859133Y-107114674D01*
X79787274Y-107186533D01*
X79730816Y-107271030D01*
X79691926Y-107364918D01*
X79672100Y-107464588D01*
X79672100Y-107566212D01*
X79680727Y-107609581D01*
X77748602Y-109541707D01*
X77737455Y-109550855D01*
X77700953Y-109595334D01*
X77673829Y-109646078D01*
X77657127Y-109701139D01*
X77652900Y-109744055D01*
X77652900Y-109744062D01*
X77651488Y-109758400D01*
X77652900Y-109772739D01*
X77652900Y-109924707D01*
X77616133Y-109949274D01*
X77544274Y-110021133D01*
X77487816Y-110105630D01*
X77448926Y-110199518D01*
X77429100Y-110299188D01*
X76215900Y-110299188D01*
X76196074Y-110199518D01*
X76157184Y-110105630D01*
X76100726Y-110021133D01*
X76028867Y-109949274D01*
X75944370Y-109892816D01*
X75850482Y-109853926D01*
X75750812Y-109834100D01*
X75649188Y-109834100D01*
X75549518Y-109853926D01*
X75455630Y-109892816D01*
X75371133Y-109949274D01*
X75299274Y-110021133D01*
X75274708Y-110057900D01*
X73925292Y-110057900D01*
X73900726Y-110021133D01*
X73828867Y-109949274D01*
X73744370Y-109892816D01*
X73650482Y-109853926D01*
X73550812Y-109834100D01*
X73449188Y-109834100D01*
X73349518Y-109853926D01*
X73255630Y-109892816D01*
X73171133Y-109949274D01*
X73099274Y-110021133D01*
X73042816Y-110105630D01*
X73003926Y-110199518D01*
X72984100Y-110299188D01*
X72192414Y-110299188D01*
X72186273Y-110268318D01*
X72256398Y-110198193D01*
X72267545Y-110189045D01*
X72304047Y-110144567D01*
X72331171Y-110093823D01*
X72347873Y-110038762D01*
X72352100Y-109995846D01*
X72352100Y-109995837D01*
X72353512Y-109981501D01*
X72352100Y-109967165D01*
X72352100Y-107466944D01*
X72435000Y-107466944D01*
X72550483Y-107455570D01*
X72661527Y-107421885D01*
X72763866Y-107367183D01*
X72853568Y-107293568D01*
X72927183Y-107203866D01*
X72981885Y-107101527D01*
X73015570Y-106990483D01*
X73026944Y-106875000D01*
X73026944Y-105625000D01*
X73633056Y-105625000D01*
X73633056Y-106875000D01*
X73644430Y-106990483D01*
X73678115Y-107101527D01*
X73732817Y-107203866D01*
X73806432Y-107293568D01*
X73896134Y-107367183D01*
X73998473Y-107421885D01*
X74109517Y-107455570D01*
X74225000Y-107466944D01*
X74975000Y-107466944D01*
X75090483Y-107455570D01*
X75201527Y-107421885D01*
X75303866Y-107367183D01*
X75393568Y-107293568D01*
X75467183Y-107203866D01*
X75521885Y-107101527D01*
X75555570Y-106990483D01*
X75566944Y-106875000D01*
X75566944Y-105625000D01*
X76173056Y-105625000D01*
X76173056Y-106875000D01*
X76184430Y-106990483D01*
X76218115Y-107101527D01*
X76272817Y-107203866D01*
X76346432Y-107293568D01*
X76436134Y-107367183D01*
X76538473Y-107421885D01*
X76649517Y-107455570D01*
X76765000Y-107466944D01*
X77515000Y-107466944D01*
X77630483Y-107455570D01*
X77741527Y-107421885D01*
X77843866Y-107367183D01*
X77933568Y-107293568D01*
X78007183Y-107203866D01*
X78061885Y-107101527D01*
X78095570Y-106990483D01*
X78106944Y-106875000D01*
X78106944Y-106719900D01*
X80261923Y-106719900D01*
X80285000Y-106722173D01*
X80308077Y-106719900D01*
X80377116Y-106713100D01*
X80465693Y-106686231D01*
X80547325Y-106642598D01*
X80618877Y-106583877D01*
X80633595Y-106565943D01*
X84319639Y-102879900D01*
X88912900Y-102879900D01*
X88912901Y-106866052D01*
X88911488Y-106880400D01*
X88917127Y-106937661D01*
X88933829Y-106992722D01*
X88960953Y-107043466D01*
X88983720Y-107071207D01*
X88997456Y-107087945D01*
X89008598Y-107097089D01*
X89078727Y-107167218D01*
X89070100Y-107210588D01*
X89070100Y-107312212D01*
X89089926Y-107411882D01*
X89128816Y-107505770D01*
X89185274Y-107590267D01*
X89257133Y-107662126D01*
X89341630Y-107718584D01*
X89435518Y-107757474D01*
X89535188Y-107777300D01*
X89636812Y-107777300D01*
X89736482Y-107757474D01*
X89830370Y-107718584D01*
X89914867Y-107662126D01*
X89986726Y-107590267D01*
X90043184Y-107505770D01*
X90082074Y-107411882D01*
X90101900Y-107312212D01*
X90101900Y-107210588D01*
X90082074Y-107110918D01*
X90043184Y-107017030D01*
X89986726Y-106932533D01*
X89914867Y-106860674D01*
X89830370Y-106804216D01*
X89736482Y-106765326D01*
X89636812Y-106745500D01*
X89535188Y-106745500D01*
X89497100Y-106753076D01*
X89497100Y-104489422D01*
X92784500Y-104489422D01*
X92784501Y-108610579D01*
X92785455Y-108620260D01*
X92785411Y-108626513D01*
X92785705Y-108629508D01*
X92806106Y-108823604D01*
X92810031Y-108842726D01*
X92813693Y-108861922D01*
X92814562Y-108864803D01*
X92872274Y-109051241D01*
X92879851Y-109069266D01*
X92887160Y-109087356D01*
X92888573Y-109090013D01*
X92981397Y-109261689D01*
X92992326Y-109277892D01*
X93003015Y-109294226D01*
X93004911Y-109296551D01*
X93004916Y-109296558D01*
X93004922Y-109296564D01*
X93129320Y-109446936D01*
X93143205Y-109460725D01*
X93156845Y-109474653D01*
X93159164Y-109476572D01*
X93310406Y-109599922D01*
X93326684Y-109610737D01*
X93342790Y-109621765D01*
X93345429Y-109623192D01*
X93345437Y-109623197D01*
X93345445Y-109623200D01*
X93517759Y-109714821D01*
X93535795Y-109722255D01*
X93553769Y-109729959D01*
X93556638Y-109730846D01*
X93556645Y-109730849D01*
X93556652Y-109730850D01*
X93743480Y-109787257D01*
X93762614Y-109791046D01*
X93781744Y-109795112D01*
X93784728Y-109795425D01*
X93784738Y-109795427D01*
X93784747Y-109795427D01*
X93978970Y-109814471D01*
X93978974Y-109814471D01*
X93989421Y-109815500D01*
X106010579Y-109815500D01*
X106020270Y-109814546D01*
X106026513Y-109814589D01*
X106029508Y-109814295D01*
X106223604Y-109793894D01*
X106242726Y-109789969D01*
X106261922Y-109786307D01*
X106264803Y-109785438D01*
X106451241Y-109727726D01*
X106469266Y-109720149D01*
X106487356Y-109712840D01*
X106490013Y-109711427D01*
X106661689Y-109618603D01*
X106677892Y-109607674D01*
X106694226Y-109596985D01*
X106696551Y-109595089D01*
X106696558Y-109595084D01*
X106696564Y-109595078D01*
X106846936Y-109470680D01*
X106860725Y-109456795D01*
X106874653Y-109443155D01*
X106876572Y-109440836D01*
X106999922Y-109289594D01*
X107010737Y-109273316D01*
X107021765Y-109257210D01*
X107023192Y-109254571D01*
X107023197Y-109254563D01*
X107023200Y-109254555D01*
X107114821Y-109082241D01*
X107122255Y-109064205D01*
X107129959Y-109046231D01*
X107130846Y-109043362D01*
X107130849Y-109043355D01*
X107130850Y-109043348D01*
X107146698Y-108990858D01*
X107162816Y-109029770D01*
X107219274Y-109114267D01*
X107291133Y-109186126D01*
X107375630Y-109242584D01*
X107411901Y-109257608D01*
X107411900Y-109950107D01*
X107375133Y-109974674D01*
X107303274Y-110046533D01*
X107246816Y-110131030D01*
X107207926Y-110224918D01*
X107188100Y-110324588D01*
X107188100Y-110426212D01*
X107207926Y-110525882D01*
X107246816Y-110619770D01*
X107303274Y-110704267D01*
X107375133Y-110776126D01*
X107459630Y-110832584D01*
X107553518Y-110871474D01*
X107653188Y-110891300D01*
X107754812Y-110891300D01*
X107854482Y-110871474D01*
X107948370Y-110832584D01*
X108032867Y-110776126D01*
X108104726Y-110704267D01*
X108161184Y-110619770D01*
X108200074Y-110525882D01*
X108219900Y-110426212D01*
X108219900Y-110324588D01*
X108200074Y-110224918D01*
X108161184Y-110131030D01*
X108104726Y-110046533D01*
X108032867Y-109974674D01*
X107996100Y-109950108D01*
X107996100Y-109138893D01*
X108020726Y-109114267D01*
X108077184Y-109029770D01*
X108116074Y-108935882D01*
X108135900Y-108836212D01*
X108135900Y-108734588D01*
X108116074Y-108634918D01*
X108077184Y-108541030D01*
X108020726Y-108456533D01*
X107948867Y-108384674D01*
X107864370Y-108328216D01*
X107770482Y-108289326D01*
X107670812Y-108269500D01*
X107569188Y-108269500D01*
X107469518Y-108289326D01*
X107375630Y-108328216D01*
X107291133Y-108384674D01*
X107219274Y-108456533D01*
X107215500Y-108462181D01*
X107215500Y-104489421D01*
X107214546Y-104479730D01*
X107214589Y-104473487D01*
X107214295Y-104470492D01*
X107193894Y-104276395D01*
X107189968Y-104257267D01*
X107186307Y-104238078D01*
X107185438Y-104235197D01*
X107127726Y-104048759D01*
X107120149Y-104030734D01*
X107112840Y-104012644D01*
X107111427Y-104009987D01*
X107018602Y-103838310D01*
X107007691Y-103822134D01*
X106996985Y-103805773D01*
X106995089Y-103803449D01*
X106995084Y-103803442D01*
X106995078Y-103803436D01*
X106870679Y-103653064D01*
X106856830Y-103639311D01*
X106843155Y-103625347D01*
X106840842Y-103623434D01*
X106840836Y-103623428D01*
X106840829Y-103623424D01*
X106689594Y-103500078D01*
X106673316Y-103489263D01*
X106657210Y-103478235D01*
X106654571Y-103476808D01*
X106654563Y-103476803D01*
X106654555Y-103476800D01*
X106482241Y-103385179D01*
X106464193Y-103377740D01*
X106446231Y-103370041D01*
X106443366Y-103369155D01*
X106443356Y-103369151D01*
X106443346Y-103369149D01*
X106256520Y-103312743D01*
X106237365Y-103308950D01*
X106218255Y-103304888D01*
X106215263Y-103304573D01*
X106021029Y-103285529D01*
X106021026Y-103285529D01*
X106010579Y-103284500D01*
X93989421Y-103284500D01*
X93979730Y-103285454D01*
X93973487Y-103285411D01*
X93970492Y-103285705D01*
X93776395Y-103306106D01*
X93757267Y-103310032D01*
X93738078Y-103313693D01*
X93735197Y-103314562D01*
X93548759Y-103372274D01*
X93530734Y-103379851D01*
X93512644Y-103387160D01*
X93509987Y-103388573D01*
X93338310Y-103481398D01*
X93322134Y-103492309D01*
X93305773Y-103503015D01*
X93303449Y-103504911D01*
X93303442Y-103504916D01*
X93303436Y-103504922D01*
X93153064Y-103629321D01*
X93139311Y-103643170D01*
X93125347Y-103656845D01*
X93123434Y-103659158D01*
X93123428Y-103659164D01*
X93123424Y-103659171D01*
X93000078Y-103810406D01*
X92989263Y-103826684D01*
X92978235Y-103842790D01*
X92976808Y-103845429D01*
X92976803Y-103845437D01*
X92976800Y-103845445D01*
X92885179Y-104017759D01*
X92877740Y-104035807D01*
X92870041Y-104053769D01*
X92869155Y-104056634D01*
X92869151Y-104056644D01*
X92869149Y-104056654D01*
X92812743Y-104243480D01*
X92808950Y-104262635D01*
X92804888Y-104281745D01*
X92804573Y-104284737D01*
X92785529Y-104478971D01*
X92784500Y-104489422D01*
X89497100Y-104489422D01*
X89497100Y-102879900D01*
X115680362Y-102879900D01*
X119366410Y-106565949D01*
X119381123Y-106583877D01*
X119452675Y-106642598D01*
X119521703Y-106679494D01*
X119534307Y-106686231D01*
X119622883Y-106713100D01*
X119714999Y-106722173D01*
X119738076Y-106719900D01*
X121893056Y-106719900D01*
X121893056Y-106875000D01*
X121904430Y-106990483D01*
X121938115Y-107101527D01*
X121992817Y-107203866D01*
X122066432Y-107293568D01*
X122156134Y-107367183D01*
X122258473Y-107421885D01*
X122369517Y-107455570D01*
X122485000Y-107466944D01*
X123235000Y-107466944D01*
X123350483Y-107455570D01*
X123461527Y-107421885D01*
X123563866Y-107367183D01*
X123653568Y-107293568D01*
X123727183Y-107203866D01*
X123781885Y-107101527D01*
X123815570Y-106990483D01*
X123826944Y-106875000D01*
X123826944Y-105625000D01*
X124433056Y-105625000D01*
X124433056Y-106875000D01*
X124444430Y-106990483D01*
X124478115Y-107101527D01*
X124532817Y-107203866D01*
X124606432Y-107293568D01*
X124696134Y-107367183D01*
X124798473Y-107421885D01*
X124909517Y-107455570D01*
X125025000Y-107466944D01*
X125775000Y-107466944D01*
X125890483Y-107455570D01*
X126001527Y-107421885D01*
X126103866Y-107367183D01*
X126193568Y-107293568D01*
X126267183Y-107203866D01*
X126321885Y-107101527D01*
X126355570Y-106990483D01*
X126366944Y-106875000D01*
X126366944Y-105625000D01*
X126973056Y-105625000D01*
X126973056Y-106875000D01*
X126984430Y-106990483D01*
X127018115Y-107101527D01*
X127072817Y-107203866D01*
X127146432Y-107293568D01*
X127236134Y-107367183D01*
X127338473Y-107421885D01*
X127449517Y-107455570D01*
X127565000Y-107466944D01*
X128315000Y-107466944D01*
X128430483Y-107455570D01*
X128541527Y-107421885D01*
X128643866Y-107367183D01*
X128733568Y-107293568D01*
X128769322Y-107250000D01*
X129515608Y-107250000D01*
X129519727Y-107291826D01*
X129531928Y-107332044D01*
X129551740Y-107369110D01*
X129578402Y-107401598D01*
X129610890Y-107428260D01*
X129647956Y-107448072D01*
X129688174Y-107460273D01*
X129730000Y-107464392D01*
X130413960Y-107463360D01*
X130467300Y-107410020D01*
X130467300Y-106262700D01*
X130492700Y-106262700D01*
X130492700Y-107410020D01*
X130546040Y-107463360D01*
X131230000Y-107464392D01*
X131271826Y-107460273D01*
X131312044Y-107448072D01*
X131349110Y-107428260D01*
X131381598Y-107401598D01*
X131408260Y-107369110D01*
X131428072Y-107332044D01*
X131440273Y-107291826D01*
X131444392Y-107250000D01*
X131443360Y-106316040D01*
X131390020Y-106262700D01*
X130492700Y-106262700D01*
X130467300Y-106262700D01*
X129569980Y-106262700D01*
X129516640Y-106316040D01*
X129515608Y-107250000D01*
X128769322Y-107250000D01*
X128807183Y-107203866D01*
X128861885Y-107101527D01*
X128895570Y-106990483D01*
X128906944Y-106875000D01*
X128906944Y-105625000D01*
X128895570Y-105509517D01*
X128861885Y-105398473D01*
X128807183Y-105296134D01*
X128769323Y-105250000D01*
X129515608Y-105250000D01*
X129516640Y-106183960D01*
X129569980Y-106237300D01*
X130467300Y-106237300D01*
X130467300Y-105089980D01*
X130492700Y-105089980D01*
X130492700Y-106237300D01*
X131390020Y-106237300D01*
X131443360Y-106183960D01*
X131444392Y-105250000D01*
X131440273Y-105208174D01*
X131428072Y-105167956D01*
X131408260Y-105130890D01*
X131381598Y-105098402D01*
X131349110Y-105071740D01*
X131312044Y-105051928D01*
X131271826Y-105039727D01*
X131230000Y-105035608D01*
X130546040Y-105036640D01*
X130492700Y-105089980D01*
X130467300Y-105089980D01*
X130413960Y-105036640D01*
X129730000Y-105035608D01*
X129688174Y-105039727D01*
X129647956Y-105051928D01*
X129610890Y-105071740D01*
X129578402Y-105098402D01*
X129551740Y-105130890D01*
X129531928Y-105167956D01*
X129519727Y-105208174D01*
X129515608Y-105250000D01*
X128769323Y-105250000D01*
X128733568Y-105206432D01*
X128643866Y-105132817D01*
X128541527Y-105078115D01*
X128430483Y-105044430D01*
X128315000Y-105033056D01*
X127565000Y-105033056D01*
X127449517Y-105044430D01*
X127338473Y-105078115D01*
X127236134Y-105132817D01*
X127146432Y-105206432D01*
X127072817Y-105296134D01*
X127018115Y-105398473D01*
X126984430Y-105509517D01*
X126973056Y-105625000D01*
X126366944Y-105625000D01*
X126355570Y-105509517D01*
X126321885Y-105398473D01*
X126267183Y-105296134D01*
X126193568Y-105206432D01*
X126103866Y-105132817D01*
X126001527Y-105078115D01*
X125890483Y-105044430D01*
X125775000Y-105033056D01*
X125025000Y-105033056D01*
X124909517Y-105044430D01*
X124798473Y-105078115D01*
X124696134Y-105132817D01*
X124606432Y-105206432D01*
X124532817Y-105296134D01*
X124478115Y-105398473D01*
X124444430Y-105509517D01*
X124433056Y-105625000D01*
X123826944Y-105625000D01*
X123815570Y-105509517D01*
X123781885Y-105398473D01*
X123727183Y-105296134D01*
X123653568Y-105206432D01*
X123563866Y-105132817D01*
X123461527Y-105078115D01*
X123350483Y-105044430D01*
X123235000Y-105033056D01*
X122485000Y-105033056D01*
X122369517Y-105044430D01*
X122258473Y-105078115D01*
X122156134Y-105132817D01*
X122066432Y-105206432D01*
X121992817Y-105296134D01*
X121938115Y-105398473D01*
X121904430Y-105509517D01*
X121893056Y-105625000D01*
X121893056Y-105780100D01*
X119909639Y-105780100D01*
X117284406Y-103154867D01*
X120704100Y-103154867D01*
X120704100Y-103345133D01*
X120741219Y-103531743D01*
X120814030Y-103707525D01*
X120919736Y-103865726D01*
X121054274Y-104000264D01*
X121212475Y-104105970D01*
X121388257Y-104178781D01*
X121574867Y-104215900D01*
X121765133Y-104215900D01*
X121951743Y-104178781D01*
X122127525Y-104105970D01*
X122285726Y-104000264D01*
X122420264Y-103865726D01*
X122525970Y-103707525D01*
X122553056Y-103642133D01*
X122553056Y-104250400D01*
X122562021Y-104341418D01*
X122588570Y-104428939D01*
X122631683Y-104509598D01*
X122689704Y-104580296D01*
X122760402Y-104638317D01*
X122841061Y-104681430D01*
X122928582Y-104707979D01*
X123019600Y-104716944D01*
X123320400Y-104716944D01*
X123411418Y-104707979D01*
X123498939Y-104681430D01*
X123579598Y-104638317D01*
X123650296Y-104580296D01*
X123670000Y-104556287D01*
X123689704Y-104580296D01*
X123760402Y-104638317D01*
X123841061Y-104681430D01*
X123928582Y-104707979D01*
X124019600Y-104716944D01*
X124320400Y-104716944D01*
X124411418Y-104707979D01*
X124498939Y-104681430D01*
X124579598Y-104638317D01*
X124650296Y-104580296D01*
X124670000Y-104556287D01*
X124689704Y-104580296D01*
X124760402Y-104638317D01*
X124841061Y-104681430D01*
X124928582Y-104707979D01*
X125019600Y-104716944D01*
X125320400Y-104716944D01*
X125411418Y-104707979D01*
X125498939Y-104681430D01*
X125579598Y-104638317D01*
X125650296Y-104580296D01*
X125670000Y-104556287D01*
X125689704Y-104580296D01*
X125760402Y-104638317D01*
X125841061Y-104681430D01*
X125928582Y-104707979D01*
X126019600Y-104716944D01*
X126320400Y-104716944D01*
X126411418Y-104707979D01*
X126498939Y-104681430D01*
X126579598Y-104638317D01*
X126650296Y-104580296D01*
X126670000Y-104556287D01*
X126689704Y-104580296D01*
X126760402Y-104638317D01*
X126841061Y-104681430D01*
X126928582Y-104707979D01*
X127019600Y-104716944D01*
X127320400Y-104716944D01*
X127411418Y-104707979D01*
X127498939Y-104681430D01*
X127579598Y-104638317D01*
X127596272Y-104624633D01*
X127618402Y-104651598D01*
X127650890Y-104678260D01*
X127687956Y-104698072D01*
X127728174Y-104710273D01*
X127770000Y-104714392D01*
X128103960Y-104713360D01*
X128157300Y-104660020D01*
X128157300Y-103262700D01*
X128182700Y-103262700D01*
X128182700Y-104660020D01*
X128236040Y-104713360D01*
X128570000Y-104714392D01*
X128611826Y-104710273D01*
X128652044Y-104698072D01*
X128670000Y-104688474D01*
X128687956Y-104698072D01*
X128728174Y-104710273D01*
X128770000Y-104714392D01*
X129103960Y-104713360D01*
X129157300Y-104660020D01*
X129157300Y-103262700D01*
X129182700Y-103262700D01*
X129182700Y-104660020D01*
X129236040Y-104713360D01*
X129570000Y-104714392D01*
X129611826Y-104710273D01*
X129652044Y-104698072D01*
X129670000Y-104688474D01*
X129687956Y-104698072D01*
X129728174Y-104710273D01*
X129770000Y-104714392D01*
X130103960Y-104713360D01*
X130157300Y-104660020D01*
X130157300Y-103262700D01*
X129182700Y-103262700D01*
X129157300Y-103262700D01*
X128182700Y-103262700D01*
X128157300Y-103262700D01*
X128137300Y-103262700D01*
X128137300Y-103237300D01*
X128157300Y-103237300D01*
X128157300Y-101839980D01*
X128182700Y-101839980D01*
X128182700Y-103237300D01*
X129157300Y-103237300D01*
X129157300Y-101839980D01*
X129182700Y-101839980D01*
X129182700Y-103237300D01*
X130157300Y-103237300D01*
X130157300Y-101839980D01*
X130182700Y-101839980D01*
X130182700Y-103237300D01*
X130202700Y-103237300D01*
X130202700Y-103262700D01*
X130182700Y-103262700D01*
X130182700Y-104660020D01*
X130236040Y-104713360D01*
X130570000Y-104714392D01*
X130611826Y-104710273D01*
X130652044Y-104698072D01*
X130689110Y-104678260D01*
X130721598Y-104651598D01*
X130748260Y-104619110D01*
X130768072Y-104582044D01*
X130780273Y-104541826D01*
X130784392Y-104500000D01*
X130783637Y-103634150D01*
X130814030Y-103707525D01*
X130919736Y-103865726D01*
X131054274Y-104000264D01*
X131212475Y-104105970D01*
X131388257Y-104178781D01*
X131574867Y-104215900D01*
X131765133Y-104215900D01*
X131951743Y-104178781D01*
X132127525Y-104105970D01*
X132285726Y-104000264D01*
X132420264Y-103865726D01*
X132525970Y-103707525D01*
X132598781Y-103531743D01*
X132635900Y-103345133D01*
X132635900Y-103154867D01*
X132598781Y-102968257D01*
X132525970Y-102792475D01*
X132420264Y-102634274D01*
X132285726Y-102499736D01*
X132127525Y-102394030D01*
X131951743Y-102321219D01*
X131765133Y-102284100D01*
X131574867Y-102284100D01*
X131388257Y-102321219D01*
X131212475Y-102394030D01*
X131054274Y-102499736D01*
X130919736Y-102634274D01*
X130814030Y-102792475D01*
X130783637Y-102865850D01*
X130784392Y-102000000D01*
X130780273Y-101958174D01*
X130768072Y-101917956D01*
X130748260Y-101880890D01*
X130721598Y-101848402D01*
X130689110Y-101821740D01*
X130652044Y-101801928D01*
X130611826Y-101789727D01*
X130570000Y-101785608D01*
X130236040Y-101786640D01*
X130182700Y-101839980D01*
X130157300Y-101839980D01*
X130103960Y-101786640D01*
X129770000Y-101785608D01*
X129728174Y-101789727D01*
X129687956Y-101801928D01*
X129670000Y-101811526D01*
X129652044Y-101801928D01*
X129611826Y-101789727D01*
X129570000Y-101785608D01*
X129236040Y-101786640D01*
X129182700Y-101839980D01*
X129157300Y-101839980D01*
X129103960Y-101786640D01*
X128770000Y-101785608D01*
X128728174Y-101789727D01*
X128687956Y-101801928D01*
X128670000Y-101811526D01*
X128652044Y-101801928D01*
X128611826Y-101789727D01*
X128570000Y-101785608D01*
X128236040Y-101786640D01*
X128182700Y-101839980D01*
X128157300Y-101839980D01*
X128103960Y-101786640D01*
X127770000Y-101785608D01*
X127728174Y-101789727D01*
X127687956Y-101801928D01*
X127650890Y-101821740D01*
X127618402Y-101848402D01*
X127596272Y-101875367D01*
X127579598Y-101861683D01*
X127498939Y-101818570D01*
X127411418Y-101792021D01*
X127320400Y-101783056D01*
X127019600Y-101783056D01*
X126928582Y-101792021D01*
X126841061Y-101818570D01*
X126760402Y-101861683D01*
X126689704Y-101919704D01*
X126670000Y-101943713D01*
X126650296Y-101919704D01*
X126579598Y-101861683D01*
X126498939Y-101818570D01*
X126411418Y-101792021D01*
X126320400Y-101783056D01*
X126019600Y-101783056D01*
X125928582Y-101792021D01*
X125841061Y-101818570D01*
X125760402Y-101861683D01*
X125689704Y-101919704D01*
X125670000Y-101943713D01*
X125650296Y-101919704D01*
X125579598Y-101861683D01*
X125498939Y-101818570D01*
X125411418Y-101792021D01*
X125320400Y-101783056D01*
X125019600Y-101783056D01*
X124928582Y-101792021D01*
X124841061Y-101818570D01*
X124760402Y-101861683D01*
X124689704Y-101919704D01*
X124670000Y-101943713D01*
X124650296Y-101919704D01*
X124579598Y-101861683D01*
X124498939Y-101818570D01*
X124411418Y-101792021D01*
X124320400Y-101783056D01*
X124019600Y-101783056D01*
X123928582Y-101792021D01*
X123841061Y-101818570D01*
X123760402Y-101861683D01*
X123689704Y-101919704D01*
X123670000Y-101943713D01*
X123650296Y-101919704D01*
X123579598Y-101861683D01*
X123498939Y-101818570D01*
X123411418Y-101792021D01*
X123320400Y-101783056D01*
X123019600Y-101783056D01*
X122928582Y-101792021D01*
X122841061Y-101818570D01*
X122760402Y-101861683D01*
X122689704Y-101919704D01*
X122631683Y-101990402D01*
X122588570Y-102071061D01*
X122562021Y-102158582D01*
X122553056Y-102249600D01*
X122553056Y-102857867D01*
X122525970Y-102792475D01*
X122420264Y-102634274D01*
X122285726Y-102499736D01*
X122127525Y-102394030D01*
X121951743Y-102321219D01*
X121765133Y-102284100D01*
X121574867Y-102284100D01*
X121388257Y-102321219D01*
X121212475Y-102394030D01*
X121054274Y-102499736D01*
X120919736Y-102634274D01*
X120814030Y-102792475D01*
X120741219Y-102968257D01*
X120704100Y-103154867D01*
X117284406Y-103154867D01*
X116223595Y-102094057D01*
X116208877Y-102076123D01*
X116137325Y-102017402D01*
X116055693Y-101973769D01*
X115967116Y-101946900D01*
X115898077Y-101940100D01*
X115875000Y-101937827D01*
X115851923Y-101940100D01*
X84148076Y-101940100D01*
X84124999Y-101937827D01*
X84032883Y-101946900D01*
X83958496Y-101969465D01*
X83944307Y-101973769D01*
X83862675Y-102017402D01*
X83791123Y-102076123D01*
X83776410Y-102094051D01*
X80090362Y-105780100D01*
X78106944Y-105780100D01*
X78106944Y-105625000D01*
X78095570Y-105509517D01*
X78061885Y-105398473D01*
X78007183Y-105296134D01*
X77933568Y-105206432D01*
X77843866Y-105132817D01*
X77741527Y-105078115D01*
X77630483Y-105044430D01*
X77515000Y-105033056D01*
X76765000Y-105033056D01*
X76649517Y-105044430D01*
X76538473Y-105078115D01*
X76436134Y-105132817D01*
X76346432Y-105206432D01*
X76272817Y-105296134D01*
X76218115Y-105398473D01*
X76184430Y-105509517D01*
X76173056Y-105625000D01*
X75566944Y-105625000D01*
X75555570Y-105509517D01*
X75521885Y-105398473D01*
X75467183Y-105296134D01*
X75393568Y-105206432D01*
X75303866Y-105132817D01*
X75201527Y-105078115D01*
X75090483Y-105044430D01*
X74975000Y-105033056D01*
X74225000Y-105033056D01*
X74109517Y-105044430D01*
X73998473Y-105078115D01*
X73896134Y-105132817D01*
X73806432Y-105206432D01*
X73732817Y-105296134D01*
X73678115Y-105398473D01*
X73644430Y-105509517D01*
X73633056Y-105625000D01*
X73026944Y-105625000D01*
X73015570Y-105509517D01*
X72981885Y-105398473D01*
X72927183Y-105296134D01*
X72853568Y-105206432D01*
X72763866Y-105132817D01*
X72661527Y-105078115D01*
X72550483Y-105044430D01*
X72435000Y-105033056D01*
X71685000Y-105033056D01*
X71569517Y-105044430D01*
X71458473Y-105078115D01*
X71356134Y-105132817D01*
X71266432Y-105206432D01*
X71192817Y-105296134D01*
X71138115Y-105398473D01*
X71104430Y-105509517D01*
X71093056Y-105625000D01*
X70483977Y-105625000D01*
X70484392Y-105250000D01*
X70480273Y-105208174D01*
X70468072Y-105167956D01*
X70448260Y-105130890D01*
X70421598Y-105098402D01*
X70389110Y-105071740D01*
X70352044Y-105051928D01*
X70311826Y-105039727D01*
X70270000Y-105035608D01*
X69586040Y-105036640D01*
X69532700Y-105089980D01*
X69507300Y-105089980D01*
X69453960Y-105036640D01*
X68770000Y-105035608D01*
X68728174Y-105039727D01*
X68687956Y-105051928D01*
X68650890Y-105071740D01*
X68618402Y-105098402D01*
X68591740Y-105130890D01*
X68571928Y-105167956D01*
X68559727Y-105208174D01*
X68555608Y-105250000D01*
X57813500Y-105250000D01*
X57813500Y-103154867D01*
X67364100Y-103154867D01*
X67364100Y-103345133D01*
X67401219Y-103531743D01*
X67474030Y-103707525D01*
X67579736Y-103865726D01*
X67714274Y-104000264D01*
X67872475Y-104105970D01*
X68048257Y-104178781D01*
X68234867Y-104215900D01*
X68425133Y-104215900D01*
X68611743Y-104178781D01*
X68787525Y-104105970D01*
X68945726Y-104000264D01*
X69080264Y-103865726D01*
X69185970Y-103707525D01*
X69216363Y-103634150D01*
X69215608Y-104500000D01*
X69219727Y-104541826D01*
X69231928Y-104582044D01*
X69251740Y-104619110D01*
X69278402Y-104651598D01*
X69310890Y-104678260D01*
X69347956Y-104698072D01*
X69388174Y-104710273D01*
X69430000Y-104714392D01*
X69763960Y-104713360D01*
X69817300Y-104660020D01*
X69817300Y-103262700D01*
X69842700Y-103262700D01*
X69842700Y-104660020D01*
X69896040Y-104713360D01*
X70230000Y-104714392D01*
X70271826Y-104710273D01*
X70312044Y-104698072D01*
X70330000Y-104688474D01*
X70347956Y-104698072D01*
X70388174Y-104710273D01*
X70430000Y-104714392D01*
X70763960Y-104713360D01*
X70817300Y-104660020D01*
X70817300Y-103262700D01*
X70842700Y-103262700D01*
X70842700Y-104660020D01*
X70896040Y-104713360D01*
X71230000Y-104714392D01*
X71271826Y-104710273D01*
X71312044Y-104698072D01*
X71330000Y-104688474D01*
X71347956Y-104698072D01*
X71388174Y-104710273D01*
X71430000Y-104714392D01*
X71763960Y-104713360D01*
X71817300Y-104660020D01*
X71817300Y-103262700D01*
X70842700Y-103262700D01*
X70817300Y-103262700D01*
X69842700Y-103262700D01*
X69817300Y-103262700D01*
X69797300Y-103262700D01*
X69797300Y-103237300D01*
X69817300Y-103237300D01*
X69817300Y-101839980D01*
X69842700Y-101839980D01*
X69842700Y-103237300D01*
X70817300Y-103237300D01*
X70817300Y-101839980D01*
X70842700Y-101839980D01*
X70842700Y-103237300D01*
X71817300Y-103237300D01*
X71817300Y-101839980D01*
X71842700Y-101839980D01*
X71842700Y-103237300D01*
X71862700Y-103237300D01*
X71862700Y-103262700D01*
X71842700Y-103262700D01*
X71842700Y-104660020D01*
X71896040Y-104713360D01*
X72230000Y-104714392D01*
X72271826Y-104710273D01*
X72312044Y-104698072D01*
X72349110Y-104678260D01*
X72381598Y-104651598D01*
X72403728Y-104624633D01*
X72420402Y-104638317D01*
X72501061Y-104681430D01*
X72588582Y-104707979D01*
X72679600Y-104716944D01*
X72980400Y-104716944D01*
X73071418Y-104707979D01*
X73158939Y-104681430D01*
X73239598Y-104638317D01*
X73310296Y-104580296D01*
X73330000Y-104556287D01*
X73349704Y-104580296D01*
X73420402Y-104638317D01*
X73501061Y-104681430D01*
X73588582Y-104707979D01*
X73679600Y-104716944D01*
X73980400Y-104716944D01*
X74071418Y-104707979D01*
X74158939Y-104681430D01*
X74239598Y-104638317D01*
X74310296Y-104580296D01*
X74330000Y-104556287D01*
X74349704Y-104580296D01*
X74420402Y-104638317D01*
X74501061Y-104681430D01*
X74588582Y-104707979D01*
X74679600Y-104716944D01*
X74980400Y-104716944D01*
X75071418Y-104707979D01*
X75158939Y-104681430D01*
X75239598Y-104638317D01*
X75310296Y-104580296D01*
X75330000Y-104556287D01*
X75349704Y-104580296D01*
X75420402Y-104638317D01*
X75501061Y-104681430D01*
X75588582Y-104707979D01*
X75679600Y-104716944D01*
X75980400Y-104716944D01*
X76071418Y-104707979D01*
X76158939Y-104681430D01*
X76239598Y-104638317D01*
X76310296Y-104580296D01*
X76330000Y-104556287D01*
X76349704Y-104580296D01*
X76420402Y-104638317D01*
X76501061Y-104681430D01*
X76588582Y-104707979D01*
X76679600Y-104716944D01*
X76980400Y-104716944D01*
X77071418Y-104707979D01*
X77158939Y-104681430D01*
X77239598Y-104638317D01*
X77310296Y-104580296D01*
X77368317Y-104509598D01*
X77411430Y-104428939D01*
X77437979Y-104341418D01*
X77446944Y-104250400D01*
X77446944Y-103642133D01*
X77474030Y-103707525D01*
X77579736Y-103865726D01*
X77714274Y-104000264D01*
X77872475Y-104105970D01*
X78048257Y-104178781D01*
X78234867Y-104215900D01*
X78425133Y-104215900D01*
X78611743Y-104178781D01*
X78787525Y-104105970D01*
X78945726Y-104000264D01*
X79080264Y-103865726D01*
X79185970Y-103707525D01*
X79258781Y-103531743D01*
X79295900Y-103345133D01*
X79295900Y-103154867D01*
X79258781Y-102968257D01*
X79185970Y-102792475D01*
X79080264Y-102634274D01*
X78945726Y-102499736D01*
X78787525Y-102394030D01*
X78611743Y-102321219D01*
X78425133Y-102284100D01*
X78234867Y-102284100D01*
X78048257Y-102321219D01*
X77872475Y-102394030D01*
X77714274Y-102499736D01*
X77579736Y-102634274D01*
X77474030Y-102792475D01*
X77446944Y-102857867D01*
X77446944Y-102249600D01*
X77437979Y-102158582D01*
X77411430Y-102071061D01*
X77368317Y-101990402D01*
X77310296Y-101919704D01*
X77239598Y-101861683D01*
X77158939Y-101818570D01*
X77071418Y-101792021D01*
X76980400Y-101783056D01*
X76679600Y-101783056D01*
X76588582Y-101792021D01*
X76501061Y-101818570D01*
X76420402Y-101861683D01*
X76349704Y-101919704D01*
X76330000Y-101943713D01*
X76310296Y-101919704D01*
X76239598Y-101861683D01*
X76158939Y-101818570D01*
X76071418Y-101792021D01*
X75980400Y-101783056D01*
X75679600Y-101783056D01*
X75588582Y-101792021D01*
X75501061Y-101818570D01*
X75420402Y-101861683D01*
X75349704Y-101919704D01*
X75330000Y-101943713D01*
X75310296Y-101919704D01*
X75239598Y-101861683D01*
X75158939Y-101818570D01*
X75071418Y-101792021D01*
X74980400Y-101783056D01*
X74679600Y-101783056D01*
X74588582Y-101792021D01*
X74501061Y-101818570D01*
X74420402Y-101861683D01*
X74349704Y-101919704D01*
X74330000Y-101943713D01*
X74310296Y-101919704D01*
X74239598Y-101861683D01*
X74158939Y-101818570D01*
X74071418Y-101792021D01*
X73980400Y-101783056D01*
X73679600Y-101783056D01*
X73588582Y-101792021D01*
X73501061Y-101818570D01*
X73420402Y-101861683D01*
X73349704Y-101919704D01*
X73330000Y-101943713D01*
X73310296Y-101919704D01*
X73239598Y-101861683D01*
X73158939Y-101818570D01*
X73071418Y-101792021D01*
X72980400Y-101783056D01*
X72679600Y-101783056D01*
X72588582Y-101792021D01*
X72501061Y-101818570D01*
X72420402Y-101861683D01*
X72403728Y-101875367D01*
X72381598Y-101848402D01*
X72349110Y-101821740D01*
X72312044Y-101801928D01*
X72271826Y-101789727D01*
X72230000Y-101785608D01*
X71896040Y-101786640D01*
X71842700Y-101839980D01*
X71817300Y-101839980D01*
X71763960Y-101786640D01*
X71430000Y-101785608D01*
X71388174Y-101789727D01*
X71347956Y-101801928D01*
X71330000Y-101811526D01*
X71312044Y-101801928D01*
X71271826Y-101789727D01*
X71230000Y-101785608D01*
X70896040Y-101786640D01*
X70842700Y-101839980D01*
X70817300Y-101839980D01*
X70763960Y-101786640D01*
X70430000Y-101785608D01*
X70388174Y-101789727D01*
X70347956Y-101801928D01*
X70330000Y-101811526D01*
X70312044Y-101801928D01*
X70271826Y-101789727D01*
X70230000Y-101785608D01*
X69896040Y-101786640D01*
X69842700Y-101839980D01*
X69817300Y-101839980D01*
X69763960Y-101786640D01*
X69430000Y-101785608D01*
X69388174Y-101789727D01*
X69347956Y-101801928D01*
X69310890Y-101821740D01*
X69278402Y-101848402D01*
X69251740Y-101880890D01*
X69231928Y-101917956D01*
X69219727Y-101958174D01*
X69215608Y-102000000D01*
X69216363Y-102865850D01*
X69185970Y-102792475D01*
X69080264Y-102634274D01*
X68945726Y-102499736D01*
X68787525Y-102394030D01*
X68611743Y-102321219D01*
X68425133Y-102284100D01*
X68234867Y-102284100D01*
X68048257Y-102321219D01*
X67872475Y-102394030D01*
X67714274Y-102499736D01*
X67579736Y-102634274D01*
X67474030Y-102792475D01*
X67401219Y-102968257D01*
X67364100Y-103154867D01*
X57813500Y-103154867D01*
X57813500Y-101750000D01*
X57812280Y-101737612D01*
X57808666Y-101725700D01*
X57802798Y-101714721D01*
X57794901Y-101705099D01*
X57123401Y-101033599D01*
X57177735Y-100853638D01*
X57181527Y-100834490D01*
X57185590Y-100815373D01*
X57185905Y-100812381D01*
X57195404Y-100715500D01*
X66240738Y-100715500D01*
X67170140Y-101644903D01*
M02*
