G04 #@! TF.GenerationSoftware,KiCad,Pcbnew,(5.1.2)-2*
G04 #@! TF.CreationDate,2019-11-14T14:10:45+01:00*
G04 #@! TF.ProjectId,INTERFACE,494e5445-5246-4414-9345-2e6b69636164,rev?*
G04 #@! TF.SameCoordinates,Original*
G04 #@! TF.FileFunction,Copper,L2,Bot*
G04 #@! TF.FilePolarity,Positive*
%FSLAX46Y46*%
G04 Gerber Fmt 4.6, Leading zero omitted, Abs format (unit mm)*
G04 Created by KiCad (PCBNEW (5.1.2)-2) date 2019-11-14 14:10:45*
%MOMM*%
%LPD*%
G04 APERTURE LIST*
%ADD10C,0.100000*%
%ADD11C,1.500000*%
%ADD12C,0.800000*%
%ADD13C,0.600000*%
%ADD14C,0.254000*%
%ADD15C,0.152400*%
%ADD16C,0.508000*%
%ADD17C,0.127000*%
G04 APERTURE END LIST*
D10*
G36*
X130891756Y-105251806D02*
G01*
X130928159Y-105257206D01*
X130963857Y-105266147D01*
X130998506Y-105278545D01*
X131031774Y-105294280D01*
X131063339Y-105313199D01*
X131092897Y-105335121D01*
X131120165Y-105359835D01*
X131144879Y-105387103D01*
X131166801Y-105416661D01*
X131185720Y-105448226D01*
X131201455Y-105481494D01*
X131213853Y-105516143D01*
X131222794Y-105551841D01*
X131228194Y-105588244D01*
X131230000Y-105625000D01*
X131230000Y-106875000D01*
X131228194Y-106911756D01*
X131222794Y-106948159D01*
X131213853Y-106983857D01*
X131201455Y-107018506D01*
X131185720Y-107051774D01*
X131166801Y-107083339D01*
X131144879Y-107112897D01*
X131120165Y-107140165D01*
X131092897Y-107164879D01*
X131063339Y-107186801D01*
X131031774Y-107205720D01*
X130998506Y-107221455D01*
X130963857Y-107233853D01*
X130928159Y-107242794D01*
X130891756Y-107248194D01*
X130855000Y-107250000D01*
X130105000Y-107250000D01*
X130068244Y-107248194D01*
X130031841Y-107242794D01*
X129996143Y-107233853D01*
X129961494Y-107221455D01*
X129928226Y-107205720D01*
X129896661Y-107186801D01*
X129867103Y-107164879D01*
X129839835Y-107140165D01*
X129815121Y-107112897D01*
X129793199Y-107083339D01*
X129774280Y-107051774D01*
X129758545Y-107018506D01*
X129746147Y-106983857D01*
X129737206Y-106948159D01*
X129731806Y-106911756D01*
X129730000Y-106875000D01*
X129730000Y-105625000D01*
X129731806Y-105588244D01*
X129737206Y-105551841D01*
X129746147Y-105516143D01*
X129758545Y-105481494D01*
X129774280Y-105448226D01*
X129793199Y-105416661D01*
X129815121Y-105387103D01*
X129839835Y-105359835D01*
X129867103Y-105335121D01*
X129896661Y-105313199D01*
X129928226Y-105294280D01*
X129961494Y-105278545D01*
X129996143Y-105266147D01*
X130031841Y-105257206D01*
X130068244Y-105251806D01*
X130105000Y-105250000D01*
X130855000Y-105250000D01*
X130891756Y-105251806D01*
X130891756Y-105251806D01*
G37*
D11*
X130480000Y-106250000D03*
D10*
G36*
X128351756Y-105251806D02*
G01*
X128388159Y-105257206D01*
X128423857Y-105266147D01*
X128458506Y-105278545D01*
X128491774Y-105294280D01*
X128523339Y-105313199D01*
X128552897Y-105335121D01*
X128580165Y-105359835D01*
X128604879Y-105387103D01*
X128626801Y-105416661D01*
X128645720Y-105448226D01*
X128661455Y-105481494D01*
X128673853Y-105516143D01*
X128682794Y-105551841D01*
X128688194Y-105588244D01*
X128690000Y-105625000D01*
X128690000Y-106875000D01*
X128688194Y-106911756D01*
X128682794Y-106948159D01*
X128673853Y-106983857D01*
X128661455Y-107018506D01*
X128645720Y-107051774D01*
X128626801Y-107083339D01*
X128604879Y-107112897D01*
X128580165Y-107140165D01*
X128552897Y-107164879D01*
X128523339Y-107186801D01*
X128491774Y-107205720D01*
X128458506Y-107221455D01*
X128423857Y-107233853D01*
X128388159Y-107242794D01*
X128351756Y-107248194D01*
X128315000Y-107250000D01*
X127565000Y-107250000D01*
X127528244Y-107248194D01*
X127491841Y-107242794D01*
X127456143Y-107233853D01*
X127421494Y-107221455D01*
X127388226Y-107205720D01*
X127356661Y-107186801D01*
X127327103Y-107164879D01*
X127299835Y-107140165D01*
X127275121Y-107112897D01*
X127253199Y-107083339D01*
X127234280Y-107051774D01*
X127218545Y-107018506D01*
X127206147Y-106983857D01*
X127197206Y-106948159D01*
X127191806Y-106911756D01*
X127190000Y-106875000D01*
X127190000Y-105625000D01*
X127191806Y-105588244D01*
X127197206Y-105551841D01*
X127206147Y-105516143D01*
X127218545Y-105481494D01*
X127234280Y-105448226D01*
X127253199Y-105416661D01*
X127275121Y-105387103D01*
X127299835Y-105359835D01*
X127327103Y-105335121D01*
X127356661Y-105313199D01*
X127388226Y-105294280D01*
X127421494Y-105278545D01*
X127456143Y-105266147D01*
X127491841Y-105257206D01*
X127528244Y-105251806D01*
X127565000Y-105250000D01*
X128315000Y-105250000D01*
X128351756Y-105251806D01*
X128351756Y-105251806D01*
G37*
D11*
X127940000Y-106250000D03*
D10*
G36*
X125811756Y-105251806D02*
G01*
X125848159Y-105257206D01*
X125883857Y-105266147D01*
X125918506Y-105278545D01*
X125951774Y-105294280D01*
X125983339Y-105313199D01*
X126012897Y-105335121D01*
X126040165Y-105359835D01*
X126064879Y-105387103D01*
X126086801Y-105416661D01*
X126105720Y-105448226D01*
X126121455Y-105481494D01*
X126133853Y-105516143D01*
X126142794Y-105551841D01*
X126148194Y-105588244D01*
X126150000Y-105625000D01*
X126150000Y-106875000D01*
X126148194Y-106911756D01*
X126142794Y-106948159D01*
X126133853Y-106983857D01*
X126121455Y-107018506D01*
X126105720Y-107051774D01*
X126086801Y-107083339D01*
X126064879Y-107112897D01*
X126040165Y-107140165D01*
X126012897Y-107164879D01*
X125983339Y-107186801D01*
X125951774Y-107205720D01*
X125918506Y-107221455D01*
X125883857Y-107233853D01*
X125848159Y-107242794D01*
X125811756Y-107248194D01*
X125775000Y-107250000D01*
X125025000Y-107250000D01*
X124988244Y-107248194D01*
X124951841Y-107242794D01*
X124916143Y-107233853D01*
X124881494Y-107221455D01*
X124848226Y-107205720D01*
X124816661Y-107186801D01*
X124787103Y-107164879D01*
X124759835Y-107140165D01*
X124735121Y-107112897D01*
X124713199Y-107083339D01*
X124694280Y-107051774D01*
X124678545Y-107018506D01*
X124666147Y-106983857D01*
X124657206Y-106948159D01*
X124651806Y-106911756D01*
X124650000Y-106875000D01*
X124650000Y-105625000D01*
X124651806Y-105588244D01*
X124657206Y-105551841D01*
X124666147Y-105516143D01*
X124678545Y-105481494D01*
X124694280Y-105448226D01*
X124713199Y-105416661D01*
X124735121Y-105387103D01*
X124759835Y-105359835D01*
X124787103Y-105335121D01*
X124816661Y-105313199D01*
X124848226Y-105294280D01*
X124881494Y-105278545D01*
X124916143Y-105266147D01*
X124951841Y-105257206D01*
X124988244Y-105251806D01*
X125025000Y-105250000D01*
X125775000Y-105250000D01*
X125811756Y-105251806D01*
X125811756Y-105251806D01*
G37*
D11*
X125400000Y-106250000D03*
D10*
G36*
X123271756Y-105251806D02*
G01*
X123308159Y-105257206D01*
X123343857Y-105266147D01*
X123378506Y-105278545D01*
X123411774Y-105294280D01*
X123443339Y-105313199D01*
X123472897Y-105335121D01*
X123500165Y-105359835D01*
X123524879Y-105387103D01*
X123546801Y-105416661D01*
X123565720Y-105448226D01*
X123581455Y-105481494D01*
X123593853Y-105516143D01*
X123602794Y-105551841D01*
X123608194Y-105588244D01*
X123610000Y-105625000D01*
X123610000Y-106875000D01*
X123608194Y-106911756D01*
X123602794Y-106948159D01*
X123593853Y-106983857D01*
X123581455Y-107018506D01*
X123565720Y-107051774D01*
X123546801Y-107083339D01*
X123524879Y-107112897D01*
X123500165Y-107140165D01*
X123472897Y-107164879D01*
X123443339Y-107186801D01*
X123411774Y-107205720D01*
X123378506Y-107221455D01*
X123343857Y-107233853D01*
X123308159Y-107242794D01*
X123271756Y-107248194D01*
X123235000Y-107250000D01*
X122485000Y-107250000D01*
X122448244Y-107248194D01*
X122411841Y-107242794D01*
X122376143Y-107233853D01*
X122341494Y-107221455D01*
X122308226Y-107205720D01*
X122276661Y-107186801D01*
X122247103Y-107164879D01*
X122219835Y-107140165D01*
X122195121Y-107112897D01*
X122173199Y-107083339D01*
X122154280Y-107051774D01*
X122138545Y-107018506D01*
X122126147Y-106983857D01*
X122117206Y-106948159D01*
X122111806Y-106911756D01*
X122110000Y-106875000D01*
X122110000Y-105625000D01*
X122111806Y-105588244D01*
X122117206Y-105551841D01*
X122126147Y-105516143D01*
X122138545Y-105481494D01*
X122154280Y-105448226D01*
X122173199Y-105416661D01*
X122195121Y-105387103D01*
X122219835Y-105359835D01*
X122247103Y-105335121D01*
X122276661Y-105313199D01*
X122308226Y-105294280D01*
X122341494Y-105278545D01*
X122376143Y-105266147D01*
X122411841Y-105257206D01*
X122448244Y-105251806D01*
X122485000Y-105250000D01*
X123235000Y-105250000D01*
X123271756Y-105251806D01*
X123271756Y-105251806D01*
G37*
D11*
X122860000Y-106250000D03*
D10*
G36*
X130344865Y-102001202D02*
G01*
X130369095Y-102004796D01*
X130392855Y-102010748D01*
X130415918Y-102019000D01*
X130438061Y-102029472D01*
X130459070Y-102042065D01*
X130478745Y-102056657D01*
X130496894Y-102073106D01*
X130513343Y-102091255D01*
X130527935Y-102110930D01*
X130540528Y-102131939D01*
X130551000Y-102154082D01*
X130559252Y-102177145D01*
X130565204Y-102200905D01*
X130568798Y-102225135D01*
X130570000Y-102249600D01*
X130570000Y-104250400D01*
X130568798Y-104274865D01*
X130565204Y-104299095D01*
X130559252Y-104322855D01*
X130551000Y-104345918D01*
X130540528Y-104368061D01*
X130527935Y-104389070D01*
X130513343Y-104408745D01*
X130496894Y-104426894D01*
X130478745Y-104443343D01*
X130459070Y-104457935D01*
X130438061Y-104470528D01*
X130415918Y-104481000D01*
X130392855Y-104489252D01*
X130369095Y-104495204D01*
X130344865Y-104498798D01*
X130320400Y-104500000D01*
X130019600Y-104500000D01*
X129995135Y-104498798D01*
X129970905Y-104495204D01*
X129947145Y-104489252D01*
X129924082Y-104481000D01*
X129901939Y-104470528D01*
X129880930Y-104457935D01*
X129861255Y-104443343D01*
X129843106Y-104426894D01*
X129826657Y-104408745D01*
X129812065Y-104389070D01*
X129799472Y-104368061D01*
X129789000Y-104345918D01*
X129780748Y-104322855D01*
X129774796Y-104299095D01*
X129771202Y-104274865D01*
X129770000Y-104250400D01*
X129770000Y-102249600D01*
X129771202Y-102225135D01*
X129774796Y-102200905D01*
X129780748Y-102177145D01*
X129789000Y-102154082D01*
X129799472Y-102131939D01*
X129812065Y-102110930D01*
X129826657Y-102091255D01*
X129843106Y-102073106D01*
X129861255Y-102056657D01*
X129880930Y-102042065D01*
X129901939Y-102029472D01*
X129924082Y-102019000D01*
X129947145Y-102010748D01*
X129970905Y-102004796D01*
X129995135Y-102001202D01*
X130019600Y-102000000D01*
X130320400Y-102000000D01*
X130344865Y-102001202D01*
X130344865Y-102001202D01*
G37*
D12*
X130170000Y-103250000D03*
D10*
G36*
X129344865Y-102001202D02*
G01*
X129369095Y-102004796D01*
X129392855Y-102010748D01*
X129415918Y-102019000D01*
X129438061Y-102029472D01*
X129459070Y-102042065D01*
X129478745Y-102056657D01*
X129496894Y-102073106D01*
X129513343Y-102091255D01*
X129527935Y-102110930D01*
X129540528Y-102131939D01*
X129551000Y-102154082D01*
X129559252Y-102177145D01*
X129565204Y-102200905D01*
X129568798Y-102225135D01*
X129570000Y-102249600D01*
X129570000Y-104250400D01*
X129568798Y-104274865D01*
X129565204Y-104299095D01*
X129559252Y-104322855D01*
X129551000Y-104345918D01*
X129540528Y-104368061D01*
X129527935Y-104389070D01*
X129513343Y-104408745D01*
X129496894Y-104426894D01*
X129478745Y-104443343D01*
X129459070Y-104457935D01*
X129438061Y-104470528D01*
X129415918Y-104481000D01*
X129392855Y-104489252D01*
X129369095Y-104495204D01*
X129344865Y-104498798D01*
X129320400Y-104500000D01*
X129019600Y-104500000D01*
X128995135Y-104498798D01*
X128970905Y-104495204D01*
X128947145Y-104489252D01*
X128924082Y-104481000D01*
X128901939Y-104470528D01*
X128880930Y-104457935D01*
X128861255Y-104443343D01*
X128843106Y-104426894D01*
X128826657Y-104408745D01*
X128812065Y-104389070D01*
X128799472Y-104368061D01*
X128789000Y-104345918D01*
X128780748Y-104322855D01*
X128774796Y-104299095D01*
X128771202Y-104274865D01*
X128770000Y-104250400D01*
X128770000Y-102249600D01*
X128771202Y-102225135D01*
X128774796Y-102200905D01*
X128780748Y-102177145D01*
X128789000Y-102154082D01*
X128799472Y-102131939D01*
X128812065Y-102110930D01*
X128826657Y-102091255D01*
X128843106Y-102073106D01*
X128861255Y-102056657D01*
X128880930Y-102042065D01*
X128901939Y-102029472D01*
X128924082Y-102019000D01*
X128947145Y-102010748D01*
X128970905Y-102004796D01*
X128995135Y-102001202D01*
X129019600Y-102000000D01*
X129320400Y-102000000D01*
X129344865Y-102001202D01*
X129344865Y-102001202D01*
G37*
D12*
X129170000Y-103250000D03*
D10*
G36*
X128344865Y-102001202D02*
G01*
X128369095Y-102004796D01*
X128392855Y-102010748D01*
X128415918Y-102019000D01*
X128438061Y-102029472D01*
X128459070Y-102042065D01*
X128478745Y-102056657D01*
X128496894Y-102073106D01*
X128513343Y-102091255D01*
X128527935Y-102110930D01*
X128540528Y-102131939D01*
X128551000Y-102154082D01*
X128559252Y-102177145D01*
X128565204Y-102200905D01*
X128568798Y-102225135D01*
X128570000Y-102249600D01*
X128570000Y-104250400D01*
X128568798Y-104274865D01*
X128565204Y-104299095D01*
X128559252Y-104322855D01*
X128551000Y-104345918D01*
X128540528Y-104368061D01*
X128527935Y-104389070D01*
X128513343Y-104408745D01*
X128496894Y-104426894D01*
X128478745Y-104443343D01*
X128459070Y-104457935D01*
X128438061Y-104470528D01*
X128415918Y-104481000D01*
X128392855Y-104489252D01*
X128369095Y-104495204D01*
X128344865Y-104498798D01*
X128320400Y-104500000D01*
X128019600Y-104500000D01*
X127995135Y-104498798D01*
X127970905Y-104495204D01*
X127947145Y-104489252D01*
X127924082Y-104481000D01*
X127901939Y-104470528D01*
X127880930Y-104457935D01*
X127861255Y-104443343D01*
X127843106Y-104426894D01*
X127826657Y-104408745D01*
X127812065Y-104389070D01*
X127799472Y-104368061D01*
X127789000Y-104345918D01*
X127780748Y-104322855D01*
X127774796Y-104299095D01*
X127771202Y-104274865D01*
X127770000Y-104250400D01*
X127770000Y-102249600D01*
X127771202Y-102225135D01*
X127774796Y-102200905D01*
X127780748Y-102177145D01*
X127789000Y-102154082D01*
X127799472Y-102131939D01*
X127812065Y-102110930D01*
X127826657Y-102091255D01*
X127843106Y-102073106D01*
X127861255Y-102056657D01*
X127880930Y-102042065D01*
X127901939Y-102029472D01*
X127924082Y-102019000D01*
X127947145Y-102010748D01*
X127970905Y-102004796D01*
X127995135Y-102001202D01*
X128019600Y-102000000D01*
X128320400Y-102000000D01*
X128344865Y-102001202D01*
X128344865Y-102001202D01*
G37*
D12*
X128170000Y-103250000D03*
D10*
G36*
X127344865Y-102001202D02*
G01*
X127369095Y-102004796D01*
X127392855Y-102010748D01*
X127415918Y-102019000D01*
X127438061Y-102029472D01*
X127459070Y-102042065D01*
X127478745Y-102056657D01*
X127496894Y-102073106D01*
X127513343Y-102091255D01*
X127527935Y-102110930D01*
X127540528Y-102131939D01*
X127551000Y-102154082D01*
X127559252Y-102177145D01*
X127565204Y-102200905D01*
X127568798Y-102225135D01*
X127570000Y-102249600D01*
X127570000Y-104250400D01*
X127568798Y-104274865D01*
X127565204Y-104299095D01*
X127559252Y-104322855D01*
X127551000Y-104345918D01*
X127540528Y-104368061D01*
X127527935Y-104389070D01*
X127513343Y-104408745D01*
X127496894Y-104426894D01*
X127478745Y-104443343D01*
X127459070Y-104457935D01*
X127438061Y-104470528D01*
X127415918Y-104481000D01*
X127392855Y-104489252D01*
X127369095Y-104495204D01*
X127344865Y-104498798D01*
X127320400Y-104500000D01*
X127019600Y-104500000D01*
X126995135Y-104498798D01*
X126970905Y-104495204D01*
X126947145Y-104489252D01*
X126924082Y-104481000D01*
X126901939Y-104470528D01*
X126880930Y-104457935D01*
X126861255Y-104443343D01*
X126843106Y-104426894D01*
X126826657Y-104408745D01*
X126812065Y-104389070D01*
X126799472Y-104368061D01*
X126789000Y-104345918D01*
X126780748Y-104322855D01*
X126774796Y-104299095D01*
X126771202Y-104274865D01*
X126770000Y-104250400D01*
X126770000Y-102249600D01*
X126771202Y-102225135D01*
X126774796Y-102200905D01*
X126780748Y-102177145D01*
X126789000Y-102154082D01*
X126799472Y-102131939D01*
X126812065Y-102110930D01*
X126826657Y-102091255D01*
X126843106Y-102073106D01*
X126861255Y-102056657D01*
X126880930Y-102042065D01*
X126901939Y-102029472D01*
X126924082Y-102019000D01*
X126947145Y-102010748D01*
X126970905Y-102004796D01*
X126995135Y-102001202D01*
X127019600Y-102000000D01*
X127320400Y-102000000D01*
X127344865Y-102001202D01*
X127344865Y-102001202D01*
G37*
D12*
X127170000Y-103250000D03*
D10*
G36*
X126344865Y-102001202D02*
G01*
X126369095Y-102004796D01*
X126392855Y-102010748D01*
X126415918Y-102019000D01*
X126438061Y-102029472D01*
X126459070Y-102042065D01*
X126478745Y-102056657D01*
X126496894Y-102073106D01*
X126513343Y-102091255D01*
X126527935Y-102110930D01*
X126540528Y-102131939D01*
X126551000Y-102154082D01*
X126559252Y-102177145D01*
X126565204Y-102200905D01*
X126568798Y-102225135D01*
X126570000Y-102249600D01*
X126570000Y-104250400D01*
X126568798Y-104274865D01*
X126565204Y-104299095D01*
X126559252Y-104322855D01*
X126551000Y-104345918D01*
X126540528Y-104368061D01*
X126527935Y-104389070D01*
X126513343Y-104408745D01*
X126496894Y-104426894D01*
X126478745Y-104443343D01*
X126459070Y-104457935D01*
X126438061Y-104470528D01*
X126415918Y-104481000D01*
X126392855Y-104489252D01*
X126369095Y-104495204D01*
X126344865Y-104498798D01*
X126320400Y-104500000D01*
X126019600Y-104500000D01*
X125995135Y-104498798D01*
X125970905Y-104495204D01*
X125947145Y-104489252D01*
X125924082Y-104481000D01*
X125901939Y-104470528D01*
X125880930Y-104457935D01*
X125861255Y-104443343D01*
X125843106Y-104426894D01*
X125826657Y-104408745D01*
X125812065Y-104389070D01*
X125799472Y-104368061D01*
X125789000Y-104345918D01*
X125780748Y-104322855D01*
X125774796Y-104299095D01*
X125771202Y-104274865D01*
X125770000Y-104250400D01*
X125770000Y-102249600D01*
X125771202Y-102225135D01*
X125774796Y-102200905D01*
X125780748Y-102177145D01*
X125789000Y-102154082D01*
X125799472Y-102131939D01*
X125812065Y-102110930D01*
X125826657Y-102091255D01*
X125843106Y-102073106D01*
X125861255Y-102056657D01*
X125880930Y-102042065D01*
X125901939Y-102029472D01*
X125924082Y-102019000D01*
X125947145Y-102010748D01*
X125970905Y-102004796D01*
X125995135Y-102001202D01*
X126019600Y-102000000D01*
X126320400Y-102000000D01*
X126344865Y-102001202D01*
X126344865Y-102001202D01*
G37*
D12*
X126170000Y-103250000D03*
D10*
G36*
X125344865Y-102001202D02*
G01*
X125369095Y-102004796D01*
X125392855Y-102010748D01*
X125415918Y-102019000D01*
X125438061Y-102029472D01*
X125459070Y-102042065D01*
X125478745Y-102056657D01*
X125496894Y-102073106D01*
X125513343Y-102091255D01*
X125527935Y-102110930D01*
X125540528Y-102131939D01*
X125551000Y-102154082D01*
X125559252Y-102177145D01*
X125565204Y-102200905D01*
X125568798Y-102225135D01*
X125570000Y-102249600D01*
X125570000Y-104250400D01*
X125568798Y-104274865D01*
X125565204Y-104299095D01*
X125559252Y-104322855D01*
X125551000Y-104345918D01*
X125540528Y-104368061D01*
X125527935Y-104389070D01*
X125513343Y-104408745D01*
X125496894Y-104426894D01*
X125478745Y-104443343D01*
X125459070Y-104457935D01*
X125438061Y-104470528D01*
X125415918Y-104481000D01*
X125392855Y-104489252D01*
X125369095Y-104495204D01*
X125344865Y-104498798D01*
X125320400Y-104500000D01*
X125019600Y-104500000D01*
X124995135Y-104498798D01*
X124970905Y-104495204D01*
X124947145Y-104489252D01*
X124924082Y-104481000D01*
X124901939Y-104470528D01*
X124880930Y-104457935D01*
X124861255Y-104443343D01*
X124843106Y-104426894D01*
X124826657Y-104408745D01*
X124812065Y-104389070D01*
X124799472Y-104368061D01*
X124789000Y-104345918D01*
X124780748Y-104322855D01*
X124774796Y-104299095D01*
X124771202Y-104274865D01*
X124770000Y-104250400D01*
X124770000Y-102249600D01*
X124771202Y-102225135D01*
X124774796Y-102200905D01*
X124780748Y-102177145D01*
X124789000Y-102154082D01*
X124799472Y-102131939D01*
X124812065Y-102110930D01*
X124826657Y-102091255D01*
X124843106Y-102073106D01*
X124861255Y-102056657D01*
X124880930Y-102042065D01*
X124901939Y-102029472D01*
X124924082Y-102019000D01*
X124947145Y-102010748D01*
X124970905Y-102004796D01*
X124995135Y-102001202D01*
X125019600Y-102000000D01*
X125320400Y-102000000D01*
X125344865Y-102001202D01*
X125344865Y-102001202D01*
G37*
D12*
X125170000Y-103250000D03*
D10*
G36*
X124344865Y-102001202D02*
G01*
X124369095Y-102004796D01*
X124392855Y-102010748D01*
X124415918Y-102019000D01*
X124438061Y-102029472D01*
X124459070Y-102042065D01*
X124478745Y-102056657D01*
X124496894Y-102073106D01*
X124513343Y-102091255D01*
X124527935Y-102110930D01*
X124540528Y-102131939D01*
X124551000Y-102154082D01*
X124559252Y-102177145D01*
X124565204Y-102200905D01*
X124568798Y-102225135D01*
X124570000Y-102249600D01*
X124570000Y-104250400D01*
X124568798Y-104274865D01*
X124565204Y-104299095D01*
X124559252Y-104322855D01*
X124551000Y-104345918D01*
X124540528Y-104368061D01*
X124527935Y-104389070D01*
X124513343Y-104408745D01*
X124496894Y-104426894D01*
X124478745Y-104443343D01*
X124459070Y-104457935D01*
X124438061Y-104470528D01*
X124415918Y-104481000D01*
X124392855Y-104489252D01*
X124369095Y-104495204D01*
X124344865Y-104498798D01*
X124320400Y-104500000D01*
X124019600Y-104500000D01*
X123995135Y-104498798D01*
X123970905Y-104495204D01*
X123947145Y-104489252D01*
X123924082Y-104481000D01*
X123901939Y-104470528D01*
X123880930Y-104457935D01*
X123861255Y-104443343D01*
X123843106Y-104426894D01*
X123826657Y-104408745D01*
X123812065Y-104389070D01*
X123799472Y-104368061D01*
X123789000Y-104345918D01*
X123780748Y-104322855D01*
X123774796Y-104299095D01*
X123771202Y-104274865D01*
X123770000Y-104250400D01*
X123770000Y-102249600D01*
X123771202Y-102225135D01*
X123774796Y-102200905D01*
X123780748Y-102177145D01*
X123789000Y-102154082D01*
X123799472Y-102131939D01*
X123812065Y-102110930D01*
X123826657Y-102091255D01*
X123843106Y-102073106D01*
X123861255Y-102056657D01*
X123880930Y-102042065D01*
X123901939Y-102029472D01*
X123924082Y-102019000D01*
X123947145Y-102010748D01*
X123970905Y-102004796D01*
X123995135Y-102001202D01*
X124019600Y-102000000D01*
X124320400Y-102000000D01*
X124344865Y-102001202D01*
X124344865Y-102001202D01*
G37*
D12*
X124170000Y-103250000D03*
D10*
G36*
X123344865Y-102001202D02*
G01*
X123369095Y-102004796D01*
X123392855Y-102010748D01*
X123415918Y-102019000D01*
X123438061Y-102029472D01*
X123459070Y-102042065D01*
X123478745Y-102056657D01*
X123496894Y-102073106D01*
X123513343Y-102091255D01*
X123527935Y-102110930D01*
X123540528Y-102131939D01*
X123551000Y-102154082D01*
X123559252Y-102177145D01*
X123565204Y-102200905D01*
X123568798Y-102225135D01*
X123570000Y-102249600D01*
X123570000Y-104250400D01*
X123568798Y-104274865D01*
X123565204Y-104299095D01*
X123559252Y-104322855D01*
X123551000Y-104345918D01*
X123540528Y-104368061D01*
X123527935Y-104389070D01*
X123513343Y-104408745D01*
X123496894Y-104426894D01*
X123478745Y-104443343D01*
X123459070Y-104457935D01*
X123438061Y-104470528D01*
X123415918Y-104481000D01*
X123392855Y-104489252D01*
X123369095Y-104495204D01*
X123344865Y-104498798D01*
X123320400Y-104500000D01*
X123019600Y-104500000D01*
X122995135Y-104498798D01*
X122970905Y-104495204D01*
X122947145Y-104489252D01*
X122924082Y-104481000D01*
X122901939Y-104470528D01*
X122880930Y-104457935D01*
X122861255Y-104443343D01*
X122843106Y-104426894D01*
X122826657Y-104408745D01*
X122812065Y-104389070D01*
X122799472Y-104368061D01*
X122789000Y-104345918D01*
X122780748Y-104322855D01*
X122774796Y-104299095D01*
X122771202Y-104274865D01*
X122770000Y-104250400D01*
X122770000Y-102249600D01*
X122771202Y-102225135D01*
X122774796Y-102200905D01*
X122780748Y-102177145D01*
X122789000Y-102154082D01*
X122799472Y-102131939D01*
X122812065Y-102110930D01*
X122826657Y-102091255D01*
X122843106Y-102073106D01*
X122861255Y-102056657D01*
X122880930Y-102042065D01*
X122901939Y-102029472D01*
X122924082Y-102019000D01*
X122947145Y-102010748D01*
X122970905Y-102004796D01*
X122995135Y-102001202D01*
X123019600Y-102000000D01*
X123320400Y-102000000D01*
X123344865Y-102001202D01*
X123344865Y-102001202D01*
G37*
D12*
X123170000Y-103250000D03*
D10*
G36*
X77004865Y-102001202D02*
G01*
X77029095Y-102004796D01*
X77052855Y-102010748D01*
X77075918Y-102019000D01*
X77098061Y-102029472D01*
X77119070Y-102042065D01*
X77138745Y-102056657D01*
X77156894Y-102073106D01*
X77173343Y-102091255D01*
X77187935Y-102110930D01*
X77200528Y-102131939D01*
X77211000Y-102154082D01*
X77219252Y-102177145D01*
X77225204Y-102200905D01*
X77228798Y-102225135D01*
X77230000Y-102249600D01*
X77230000Y-104250400D01*
X77228798Y-104274865D01*
X77225204Y-104299095D01*
X77219252Y-104322855D01*
X77211000Y-104345918D01*
X77200528Y-104368061D01*
X77187935Y-104389070D01*
X77173343Y-104408745D01*
X77156894Y-104426894D01*
X77138745Y-104443343D01*
X77119070Y-104457935D01*
X77098061Y-104470528D01*
X77075918Y-104481000D01*
X77052855Y-104489252D01*
X77029095Y-104495204D01*
X77004865Y-104498798D01*
X76980400Y-104500000D01*
X76679600Y-104500000D01*
X76655135Y-104498798D01*
X76630905Y-104495204D01*
X76607145Y-104489252D01*
X76584082Y-104481000D01*
X76561939Y-104470528D01*
X76540930Y-104457935D01*
X76521255Y-104443343D01*
X76503106Y-104426894D01*
X76486657Y-104408745D01*
X76472065Y-104389070D01*
X76459472Y-104368061D01*
X76449000Y-104345918D01*
X76440748Y-104322855D01*
X76434796Y-104299095D01*
X76431202Y-104274865D01*
X76430000Y-104250400D01*
X76430000Y-102249600D01*
X76431202Y-102225135D01*
X76434796Y-102200905D01*
X76440748Y-102177145D01*
X76449000Y-102154082D01*
X76459472Y-102131939D01*
X76472065Y-102110930D01*
X76486657Y-102091255D01*
X76503106Y-102073106D01*
X76521255Y-102056657D01*
X76540930Y-102042065D01*
X76561939Y-102029472D01*
X76584082Y-102019000D01*
X76607145Y-102010748D01*
X76630905Y-102004796D01*
X76655135Y-102001202D01*
X76679600Y-102000000D01*
X76980400Y-102000000D01*
X77004865Y-102001202D01*
X77004865Y-102001202D01*
G37*
D12*
X76830000Y-103250000D03*
D10*
G36*
X76004865Y-102001202D02*
G01*
X76029095Y-102004796D01*
X76052855Y-102010748D01*
X76075918Y-102019000D01*
X76098061Y-102029472D01*
X76119070Y-102042065D01*
X76138745Y-102056657D01*
X76156894Y-102073106D01*
X76173343Y-102091255D01*
X76187935Y-102110930D01*
X76200528Y-102131939D01*
X76211000Y-102154082D01*
X76219252Y-102177145D01*
X76225204Y-102200905D01*
X76228798Y-102225135D01*
X76230000Y-102249600D01*
X76230000Y-104250400D01*
X76228798Y-104274865D01*
X76225204Y-104299095D01*
X76219252Y-104322855D01*
X76211000Y-104345918D01*
X76200528Y-104368061D01*
X76187935Y-104389070D01*
X76173343Y-104408745D01*
X76156894Y-104426894D01*
X76138745Y-104443343D01*
X76119070Y-104457935D01*
X76098061Y-104470528D01*
X76075918Y-104481000D01*
X76052855Y-104489252D01*
X76029095Y-104495204D01*
X76004865Y-104498798D01*
X75980400Y-104500000D01*
X75679600Y-104500000D01*
X75655135Y-104498798D01*
X75630905Y-104495204D01*
X75607145Y-104489252D01*
X75584082Y-104481000D01*
X75561939Y-104470528D01*
X75540930Y-104457935D01*
X75521255Y-104443343D01*
X75503106Y-104426894D01*
X75486657Y-104408745D01*
X75472065Y-104389070D01*
X75459472Y-104368061D01*
X75449000Y-104345918D01*
X75440748Y-104322855D01*
X75434796Y-104299095D01*
X75431202Y-104274865D01*
X75430000Y-104250400D01*
X75430000Y-102249600D01*
X75431202Y-102225135D01*
X75434796Y-102200905D01*
X75440748Y-102177145D01*
X75449000Y-102154082D01*
X75459472Y-102131939D01*
X75472065Y-102110930D01*
X75486657Y-102091255D01*
X75503106Y-102073106D01*
X75521255Y-102056657D01*
X75540930Y-102042065D01*
X75561939Y-102029472D01*
X75584082Y-102019000D01*
X75607145Y-102010748D01*
X75630905Y-102004796D01*
X75655135Y-102001202D01*
X75679600Y-102000000D01*
X75980400Y-102000000D01*
X76004865Y-102001202D01*
X76004865Y-102001202D01*
G37*
D12*
X75830000Y-103250000D03*
D10*
G36*
X75004865Y-102001202D02*
G01*
X75029095Y-102004796D01*
X75052855Y-102010748D01*
X75075918Y-102019000D01*
X75098061Y-102029472D01*
X75119070Y-102042065D01*
X75138745Y-102056657D01*
X75156894Y-102073106D01*
X75173343Y-102091255D01*
X75187935Y-102110930D01*
X75200528Y-102131939D01*
X75211000Y-102154082D01*
X75219252Y-102177145D01*
X75225204Y-102200905D01*
X75228798Y-102225135D01*
X75230000Y-102249600D01*
X75230000Y-104250400D01*
X75228798Y-104274865D01*
X75225204Y-104299095D01*
X75219252Y-104322855D01*
X75211000Y-104345918D01*
X75200528Y-104368061D01*
X75187935Y-104389070D01*
X75173343Y-104408745D01*
X75156894Y-104426894D01*
X75138745Y-104443343D01*
X75119070Y-104457935D01*
X75098061Y-104470528D01*
X75075918Y-104481000D01*
X75052855Y-104489252D01*
X75029095Y-104495204D01*
X75004865Y-104498798D01*
X74980400Y-104500000D01*
X74679600Y-104500000D01*
X74655135Y-104498798D01*
X74630905Y-104495204D01*
X74607145Y-104489252D01*
X74584082Y-104481000D01*
X74561939Y-104470528D01*
X74540930Y-104457935D01*
X74521255Y-104443343D01*
X74503106Y-104426894D01*
X74486657Y-104408745D01*
X74472065Y-104389070D01*
X74459472Y-104368061D01*
X74449000Y-104345918D01*
X74440748Y-104322855D01*
X74434796Y-104299095D01*
X74431202Y-104274865D01*
X74430000Y-104250400D01*
X74430000Y-102249600D01*
X74431202Y-102225135D01*
X74434796Y-102200905D01*
X74440748Y-102177145D01*
X74449000Y-102154082D01*
X74459472Y-102131939D01*
X74472065Y-102110930D01*
X74486657Y-102091255D01*
X74503106Y-102073106D01*
X74521255Y-102056657D01*
X74540930Y-102042065D01*
X74561939Y-102029472D01*
X74584082Y-102019000D01*
X74607145Y-102010748D01*
X74630905Y-102004796D01*
X74655135Y-102001202D01*
X74679600Y-102000000D01*
X74980400Y-102000000D01*
X75004865Y-102001202D01*
X75004865Y-102001202D01*
G37*
D12*
X74830000Y-103250000D03*
D10*
G36*
X74004865Y-102001202D02*
G01*
X74029095Y-102004796D01*
X74052855Y-102010748D01*
X74075918Y-102019000D01*
X74098061Y-102029472D01*
X74119070Y-102042065D01*
X74138745Y-102056657D01*
X74156894Y-102073106D01*
X74173343Y-102091255D01*
X74187935Y-102110930D01*
X74200528Y-102131939D01*
X74211000Y-102154082D01*
X74219252Y-102177145D01*
X74225204Y-102200905D01*
X74228798Y-102225135D01*
X74230000Y-102249600D01*
X74230000Y-104250400D01*
X74228798Y-104274865D01*
X74225204Y-104299095D01*
X74219252Y-104322855D01*
X74211000Y-104345918D01*
X74200528Y-104368061D01*
X74187935Y-104389070D01*
X74173343Y-104408745D01*
X74156894Y-104426894D01*
X74138745Y-104443343D01*
X74119070Y-104457935D01*
X74098061Y-104470528D01*
X74075918Y-104481000D01*
X74052855Y-104489252D01*
X74029095Y-104495204D01*
X74004865Y-104498798D01*
X73980400Y-104500000D01*
X73679600Y-104500000D01*
X73655135Y-104498798D01*
X73630905Y-104495204D01*
X73607145Y-104489252D01*
X73584082Y-104481000D01*
X73561939Y-104470528D01*
X73540930Y-104457935D01*
X73521255Y-104443343D01*
X73503106Y-104426894D01*
X73486657Y-104408745D01*
X73472065Y-104389070D01*
X73459472Y-104368061D01*
X73449000Y-104345918D01*
X73440748Y-104322855D01*
X73434796Y-104299095D01*
X73431202Y-104274865D01*
X73430000Y-104250400D01*
X73430000Y-102249600D01*
X73431202Y-102225135D01*
X73434796Y-102200905D01*
X73440748Y-102177145D01*
X73449000Y-102154082D01*
X73459472Y-102131939D01*
X73472065Y-102110930D01*
X73486657Y-102091255D01*
X73503106Y-102073106D01*
X73521255Y-102056657D01*
X73540930Y-102042065D01*
X73561939Y-102029472D01*
X73584082Y-102019000D01*
X73607145Y-102010748D01*
X73630905Y-102004796D01*
X73655135Y-102001202D01*
X73679600Y-102000000D01*
X73980400Y-102000000D01*
X74004865Y-102001202D01*
X74004865Y-102001202D01*
G37*
D12*
X73830000Y-103250000D03*
D10*
G36*
X73004865Y-102001202D02*
G01*
X73029095Y-102004796D01*
X73052855Y-102010748D01*
X73075918Y-102019000D01*
X73098061Y-102029472D01*
X73119070Y-102042065D01*
X73138745Y-102056657D01*
X73156894Y-102073106D01*
X73173343Y-102091255D01*
X73187935Y-102110930D01*
X73200528Y-102131939D01*
X73211000Y-102154082D01*
X73219252Y-102177145D01*
X73225204Y-102200905D01*
X73228798Y-102225135D01*
X73230000Y-102249600D01*
X73230000Y-104250400D01*
X73228798Y-104274865D01*
X73225204Y-104299095D01*
X73219252Y-104322855D01*
X73211000Y-104345918D01*
X73200528Y-104368061D01*
X73187935Y-104389070D01*
X73173343Y-104408745D01*
X73156894Y-104426894D01*
X73138745Y-104443343D01*
X73119070Y-104457935D01*
X73098061Y-104470528D01*
X73075918Y-104481000D01*
X73052855Y-104489252D01*
X73029095Y-104495204D01*
X73004865Y-104498798D01*
X72980400Y-104500000D01*
X72679600Y-104500000D01*
X72655135Y-104498798D01*
X72630905Y-104495204D01*
X72607145Y-104489252D01*
X72584082Y-104481000D01*
X72561939Y-104470528D01*
X72540930Y-104457935D01*
X72521255Y-104443343D01*
X72503106Y-104426894D01*
X72486657Y-104408745D01*
X72472065Y-104389070D01*
X72459472Y-104368061D01*
X72449000Y-104345918D01*
X72440748Y-104322855D01*
X72434796Y-104299095D01*
X72431202Y-104274865D01*
X72430000Y-104250400D01*
X72430000Y-102249600D01*
X72431202Y-102225135D01*
X72434796Y-102200905D01*
X72440748Y-102177145D01*
X72449000Y-102154082D01*
X72459472Y-102131939D01*
X72472065Y-102110930D01*
X72486657Y-102091255D01*
X72503106Y-102073106D01*
X72521255Y-102056657D01*
X72540930Y-102042065D01*
X72561939Y-102029472D01*
X72584082Y-102019000D01*
X72607145Y-102010748D01*
X72630905Y-102004796D01*
X72655135Y-102001202D01*
X72679600Y-102000000D01*
X72980400Y-102000000D01*
X73004865Y-102001202D01*
X73004865Y-102001202D01*
G37*
D12*
X72830000Y-103250000D03*
D10*
G36*
X72004865Y-102001202D02*
G01*
X72029095Y-102004796D01*
X72052855Y-102010748D01*
X72075918Y-102019000D01*
X72098061Y-102029472D01*
X72119070Y-102042065D01*
X72138745Y-102056657D01*
X72156894Y-102073106D01*
X72173343Y-102091255D01*
X72187935Y-102110930D01*
X72200528Y-102131939D01*
X72211000Y-102154082D01*
X72219252Y-102177145D01*
X72225204Y-102200905D01*
X72228798Y-102225135D01*
X72230000Y-102249600D01*
X72230000Y-104250400D01*
X72228798Y-104274865D01*
X72225204Y-104299095D01*
X72219252Y-104322855D01*
X72211000Y-104345918D01*
X72200528Y-104368061D01*
X72187935Y-104389070D01*
X72173343Y-104408745D01*
X72156894Y-104426894D01*
X72138745Y-104443343D01*
X72119070Y-104457935D01*
X72098061Y-104470528D01*
X72075918Y-104481000D01*
X72052855Y-104489252D01*
X72029095Y-104495204D01*
X72004865Y-104498798D01*
X71980400Y-104500000D01*
X71679600Y-104500000D01*
X71655135Y-104498798D01*
X71630905Y-104495204D01*
X71607145Y-104489252D01*
X71584082Y-104481000D01*
X71561939Y-104470528D01*
X71540930Y-104457935D01*
X71521255Y-104443343D01*
X71503106Y-104426894D01*
X71486657Y-104408745D01*
X71472065Y-104389070D01*
X71459472Y-104368061D01*
X71449000Y-104345918D01*
X71440748Y-104322855D01*
X71434796Y-104299095D01*
X71431202Y-104274865D01*
X71430000Y-104250400D01*
X71430000Y-102249600D01*
X71431202Y-102225135D01*
X71434796Y-102200905D01*
X71440748Y-102177145D01*
X71449000Y-102154082D01*
X71459472Y-102131939D01*
X71472065Y-102110930D01*
X71486657Y-102091255D01*
X71503106Y-102073106D01*
X71521255Y-102056657D01*
X71540930Y-102042065D01*
X71561939Y-102029472D01*
X71584082Y-102019000D01*
X71607145Y-102010748D01*
X71630905Y-102004796D01*
X71655135Y-102001202D01*
X71679600Y-102000000D01*
X71980400Y-102000000D01*
X72004865Y-102001202D01*
X72004865Y-102001202D01*
G37*
D12*
X71830000Y-103250000D03*
D10*
G36*
X71004865Y-102001202D02*
G01*
X71029095Y-102004796D01*
X71052855Y-102010748D01*
X71075918Y-102019000D01*
X71098061Y-102029472D01*
X71119070Y-102042065D01*
X71138745Y-102056657D01*
X71156894Y-102073106D01*
X71173343Y-102091255D01*
X71187935Y-102110930D01*
X71200528Y-102131939D01*
X71211000Y-102154082D01*
X71219252Y-102177145D01*
X71225204Y-102200905D01*
X71228798Y-102225135D01*
X71230000Y-102249600D01*
X71230000Y-104250400D01*
X71228798Y-104274865D01*
X71225204Y-104299095D01*
X71219252Y-104322855D01*
X71211000Y-104345918D01*
X71200528Y-104368061D01*
X71187935Y-104389070D01*
X71173343Y-104408745D01*
X71156894Y-104426894D01*
X71138745Y-104443343D01*
X71119070Y-104457935D01*
X71098061Y-104470528D01*
X71075918Y-104481000D01*
X71052855Y-104489252D01*
X71029095Y-104495204D01*
X71004865Y-104498798D01*
X70980400Y-104500000D01*
X70679600Y-104500000D01*
X70655135Y-104498798D01*
X70630905Y-104495204D01*
X70607145Y-104489252D01*
X70584082Y-104481000D01*
X70561939Y-104470528D01*
X70540930Y-104457935D01*
X70521255Y-104443343D01*
X70503106Y-104426894D01*
X70486657Y-104408745D01*
X70472065Y-104389070D01*
X70459472Y-104368061D01*
X70449000Y-104345918D01*
X70440748Y-104322855D01*
X70434796Y-104299095D01*
X70431202Y-104274865D01*
X70430000Y-104250400D01*
X70430000Y-102249600D01*
X70431202Y-102225135D01*
X70434796Y-102200905D01*
X70440748Y-102177145D01*
X70449000Y-102154082D01*
X70459472Y-102131939D01*
X70472065Y-102110930D01*
X70486657Y-102091255D01*
X70503106Y-102073106D01*
X70521255Y-102056657D01*
X70540930Y-102042065D01*
X70561939Y-102029472D01*
X70584082Y-102019000D01*
X70607145Y-102010748D01*
X70630905Y-102004796D01*
X70655135Y-102001202D01*
X70679600Y-102000000D01*
X70980400Y-102000000D01*
X71004865Y-102001202D01*
X71004865Y-102001202D01*
G37*
D12*
X70830000Y-103250000D03*
D10*
G36*
X70004865Y-102001202D02*
G01*
X70029095Y-102004796D01*
X70052855Y-102010748D01*
X70075918Y-102019000D01*
X70098061Y-102029472D01*
X70119070Y-102042065D01*
X70138745Y-102056657D01*
X70156894Y-102073106D01*
X70173343Y-102091255D01*
X70187935Y-102110930D01*
X70200528Y-102131939D01*
X70211000Y-102154082D01*
X70219252Y-102177145D01*
X70225204Y-102200905D01*
X70228798Y-102225135D01*
X70230000Y-102249600D01*
X70230000Y-104250400D01*
X70228798Y-104274865D01*
X70225204Y-104299095D01*
X70219252Y-104322855D01*
X70211000Y-104345918D01*
X70200528Y-104368061D01*
X70187935Y-104389070D01*
X70173343Y-104408745D01*
X70156894Y-104426894D01*
X70138745Y-104443343D01*
X70119070Y-104457935D01*
X70098061Y-104470528D01*
X70075918Y-104481000D01*
X70052855Y-104489252D01*
X70029095Y-104495204D01*
X70004865Y-104498798D01*
X69980400Y-104500000D01*
X69679600Y-104500000D01*
X69655135Y-104498798D01*
X69630905Y-104495204D01*
X69607145Y-104489252D01*
X69584082Y-104481000D01*
X69561939Y-104470528D01*
X69540930Y-104457935D01*
X69521255Y-104443343D01*
X69503106Y-104426894D01*
X69486657Y-104408745D01*
X69472065Y-104389070D01*
X69459472Y-104368061D01*
X69449000Y-104345918D01*
X69440748Y-104322855D01*
X69434796Y-104299095D01*
X69431202Y-104274865D01*
X69430000Y-104250400D01*
X69430000Y-102249600D01*
X69431202Y-102225135D01*
X69434796Y-102200905D01*
X69440748Y-102177145D01*
X69449000Y-102154082D01*
X69459472Y-102131939D01*
X69472065Y-102110930D01*
X69486657Y-102091255D01*
X69503106Y-102073106D01*
X69521255Y-102056657D01*
X69540930Y-102042065D01*
X69561939Y-102029472D01*
X69584082Y-102019000D01*
X69607145Y-102010748D01*
X69630905Y-102004796D01*
X69655135Y-102001202D01*
X69679600Y-102000000D01*
X69980400Y-102000000D01*
X70004865Y-102001202D01*
X70004865Y-102001202D01*
G37*
D12*
X69830000Y-103250000D03*
D10*
G36*
X77551756Y-105251806D02*
G01*
X77588159Y-105257206D01*
X77623857Y-105266147D01*
X77658506Y-105278545D01*
X77691774Y-105294280D01*
X77723339Y-105313199D01*
X77752897Y-105335121D01*
X77780165Y-105359835D01*
X77804879Y-105387103D01*
X77826801Y-105416661D01*
X77845720Y-105448226D01*
X77861455Y-105481494D01*
X77873853Y-105516143D01*
X77882794Y-105551841D01*
X77888194Y-105588244D01*
X77890000Y-105625000D01*
X77890000Y-106875000D01*
X77888194Y-106911756D01*
X77882794Y-106948159D01*
X77873853Y-106983857D01*
X77861455Y-107018506D01*
X77845720Y-107051774D01*
X77826801Y-107083339D01*
X77804879Y-107112897D01*
X77780165Y-107140165D01*
X77752897Y-107164879D01*
X77723339Y-107186801D01*
X77691774Y-107205720D01*
X77658506Y-107221455D01*
X77623857Y-107233853D01*
X77588159Y-107242794D01*
X77551756Y-107248194D01*
X77515000Y-107250000D01*
X76765000Y-107250000D01*
X76728244Y-107248194D01*
X76691841Y-107242794D01*
X76656143Y-107233853D01*
X76621494Y-107221455D01*
X76588226Y-107205720D01*
X76556661Y-107186801D01*
X76527103Y-107164879D01*
X76499835Y-107140165D01*
X76475121Y-107112897D01*
X76453199Y-107083339D01*
X76434280Y-107051774D01*
X76418545Y-107018506D01*
X76406147Y-106983857D01*
X76397206Y-106948159D01*
X76391806Y-106911756D01*
X76390000Y-106875000D01*
X76390000Y-105625000D01*
X76391806Y-105588244D01*
X76397206Y-105551841D01*
X76406147Y-105516143D01*
X76418545Y-105481494D01*
X76434280Y-105448226D01*
X76453199Y-105416661D01*
X76475121Y-105387103D01*
X76499835Y-105359835D01*
X76527103Y-105335121D01*
X76556661Y-105313199D01*
X76588226Y-105294280D01*
X76621494Y-105278545D01*
X76656143Y-105266147D01*
X76691841Y-105257206D01*
X76728244Y-105251806D01*
X76765000Y-105250000D01*
X77515000Y-105250000D01*
X77551756Y-105251806D01*
X77551756Y-105251806D01*
G37*
D11*
X77140000Y-106250000D03*
D10*
G36*
X75011756Y-105251806D02*
G01*
X75048159Y-105257206D01*
X75083857Y-105266147D01*
X75118506Y-105278545D01*
X75151774Y-105294280D01*
X75183339Y-105313199D01*
X75212897Y-105335121D01*
X75240165Y-105359835D01*
X75264879Y-105387103D01*
X75286801Y-105416661D01*
X75305720Y-105448226D01*
X75321455Y-105481494D01*
X75333853Y-105516143D01*
X75342794Y-105551841D01*
X75348194Y-105588244D01*
X75350000Y-105625000D01*
X75350000Y-106875000D01*
X75348194Y-106911756D01*
X75342794Y-106948159D01*
X75333853Y-106983857D01*
X75321455Y-107018506D01*
X75305720Y-107051774D01*
X75286801Y-107083339D01*
X75264879Y-107112897D01*
X75240165Y-107140165D01*
X75212897Y-107164879D01*
X75183339Y-107186801D01*
X75151774Y-107205720D01*
X75118506Y-107221455D01*
X75083857Y-107233853D01*
X75048159Y-107242794D01*
X75011756Y-107248194D01*
X74975000Y-107250000D01*
X74225000Y-107250000D01*
X74188244Y-107248194D01*
X74151841Y-107242794D01*
X74116143Y-107233853D01*
X74081494Y-107221455D01*
X74048226Y-107205720D01*
X74016661Y-107186801D01*
X73987103Y-107164879D01*
X73959835Y-107140165D01*
X73935121Y-107112897D01*
X73913199Y-107083339D01*
X73894280Y-107051774D01*
X73878545Y-107018506D01*
X73866147Y-106983857D01*
X73857206Y-106948159D01*
X73851806Y-106911756D01*
X73850000Y-106875000D01*
X73850000Y-105625000D01*
X73851806Y-105588244D01*
X73857206Y-105551841D01*
X73866147Y-105516143D01*
X73878545Y-105481494D01*
X73894280Y-105448226D01*
X73913199Y-105416661D01*
X73935121Y-105387103D01*
X73959835Y-105359835D01*
X73987103Y-105335121D01*
X74016661Y-105313199D01*
X74048226Y-105294280D01*
X74081494Y-105278545D01*
X74116143Y-105266147D01*
X74151841Y-105257206D01*
X74188244Y-105251806D01*
X74225000Y-105250000D01*
X74975000Y-105250000D01*
X75011756Y-105251806D01*
X75011756Y-105251806D01*
G37*
D11*
X74600000Y-106250000D03*
D10*
G36*
X72471756Y-105251806D02*
G01*
X72508159Y-105257206D01*
X72543857Y-105266147D01*
X72578506Y-105278545D01*
X72611774Y-105294280D01*
X72643339Y-105313199D01*
X72672897Y-105335121D01*
X72700165Y-105359835D01*
X72724879Y-105387103D01*
X72746801Y-105416661D01*
X72765720Y-105448226D01*
X72781455Y-105481494D01*
X72793853Y-105516143D01*
X72802794Y-105551841D01*
X72808194Y-105588244D01*
X72810000Y-105625000D01*
X72810000Y-106875000D01*
X72808194Y-106911756D01*
X72802794Y-106948159D01*
X72793853Y-106983857D01*
X72781455Y-107018506D01*
X72765720Y-107051774D01*
X72746801Y-107083339D01*
X72724879Y-107112897D01*
X72700165Y-107140165D01*
X72672897Y-107164879D01*
X72643339Y-107186801D01*
X72611774Y-107205720D01*
X72578506Y-107221455D01*
X72543857Y-107233853D01*
X72508159Y-107242794D01*
X72471756Y-107248194D01*
X72435000Y-107250000D01*
X71685000Y-107250000D01*
X71648244Y-107248194D01*
X71611841Y-107242794D01*
X71576143Y-107233853D01*
X71541494Y-107221455D01*
X71508226Y-107205720D01*
X71476661Y-107186801D01*
X71447103Y-107164879D01*
X71419835Y-107140165D01*
X71395121Y-107112897D01*
X71373199Y-107083339D01*
X71354280Y-107051774D01*
X71338545Y-107018506D01*
X71326147Y-106983857D01*
X71317206Y-106948159D01*
X71311806Y-106911756D01*
X71310000Y-106875000D01*
X71310000Y-105625000D01*
X71311806Y-105588244D01*
X71317206Y-105551841D01*
X71326147Y-105516143D01*
X71338545Y-105481494D01*
X71354280Y-105448226D01*
X71373199Y-105416661D01*
X71395121Y-105387103D01*
X71419835Y-105359835D01*
X71447103Y-105335121D01*
X71476661Y-105313199D01*
X71508226Y-105294280D01*
X71541494Y-105278545D01*
X71576143Y-105266147D01*
X71611841Y-105257206D01*
X71648244Y-105251806D01*
X71685000Y-105250000D01*
X72435000Y-105250000D01*
X72471756Y-105251806D01*
X72471756Y-105251806D01*
G37*
D11*
X72060000Y-106250000D03*
D10*
G36*
X69931756Y-105251806D02*
G01*
X69968159Y-105257206D01*
X70003857Y-105266147D01*
X70038506Y-105278545D01*
X70071774Y-105294280D01*
X70103339Y-105313199D01*
X70132897Y-105335121D01*
X70160165Y-105359835D01*
X70184879Y-105387103D01*
X70206801Y-105416661D01*
X70225720Y-105448226D01*
X70241455Y-105481494D01*
X70253853Y-105516143D01*
X70262794Y-105551841D01*
X70268194Y-105588244D01*
X70270000Y-105625000D01*
X70270000Y-106875000D01*
X70268194Y-106911756D01*
X70262794Y-106948159D01*
X70253853Y-106983857D01*
X70241455Y-107018506D01*
X70225720Y-107051774D01*
X70206801Y-107083339D01*
X70184879Y-107112897D01*
X70160165Y-107140165D01*
X70132897Y-107164879D01*
X70103339Y-107186801D01*
X70071774Y-107205720D01*
X70038506Y-107221455D01*
X70003857Y-107233853D01*
X69968159Y-107242794D01*
X69931756Y-107248194D01*
X69895000Y-107250000D01*
X69145000Y-107250000D01*
X69108244Y-107248194D01*
X69071841Y-107242794D01*
X69036143Y-107233853D01*
X69001494Y-107221455D01*
X68968226Y-107205720D01*
X68936661Y-107186801D01*
X68907103Y-107164879D01*
X68879835Y-107140165D01*
X68855121Y-107112897D01*
X68833199Y-107083339D01*
X68814280Y-107051774D01*
X68798545Y-107018506D01*
X68786147Y-106983857D01*
X68777206Y-106948159D01*
X68771806Y-106911756D01*
X68770000Y-106875000D01*
X68770000Y-105625000D01*
X68771806Y-105588244D01*
X68777206Y-105551841D01*
X68786147Y-105516143D01*
X68798545Y-105481494D01*
X68814280Y-105448226D01*
X68833199Y-105416661D01*
X68855121Y-105387103D01*
X68879835Y-105359835D01*
X68907103Y-105335121D01*
X68936661Y-105313199D01*
X68968226Y-105294280D01*
X69001494Y-105278545D01*
X69036143Y-105266147D01*
X69071841Y-105257206D01*
X69108244Y-105251806D01*
X69145000Y-105250000D01*
X69895000Y-105250000D01*
X69931756Y-105251806D01*
X69931756Y-105251806D01*
G37*
D11*
X69520000Y-106250000D03*
D13*
X57988400Y-112237500D03*
X142011600Y-112237500D03*
X105885000Y-111300000D03*
X92380000Y-110362500D03*
X73500000Y-111300000D03*
X101905000Y-111828600D03*
X124300000Y-111300000D03*
D12*
X84125000Y-108378998D03*
D13*
X83109000Y-108379000D03*
X80823008Y-108379000D03*
X92380000Y-111914400D03*
X100000000Y-111914400D03*
X90332000Y-111300000D03*
X92000000Y-108500000D03*
X126500000Y-111300000D03*
X75700000Y-111300000D03*
X122054978Y-110350000D03*
X80144974Y-110350000D03*
X89205000Y-106220000D03*
X73500000Y-110350000D03*
X75700000Y-110350000D03*
X73500000Y-109352000D03*
X128194000Y-110362500D03*
X132258000Y-108760000D03*
X135730000Y-111300000D03*
X137930000Y-111300000D03*
X134120000Y-111300000D03*
X131920000Y-111300000D03*
X108085000Y-112250000D03*
X68079984Y-111300000D03*
X65880026Y-111300000D03*
X62070018Y-111300000D03*
X119854972Y-112250000D03*
X77945004Y-110350000D03*
X77945024Y-112250000D03*
X63698610Y-111300000D03*
X64270000Y-110350000D03*
X69774000Y-112217780D03*
X62070000Y-110350000D03*
X64270000Y-112250000D03*
X130193973Y-110330473D03*
X137930000Y-110350000D03*
X134120000Y-110350000D03*
X128194000Y-111935000D03*
D14*
X83109000Y-108379000D02*
X80823008Y-108379000D01*
D15*
X90332000Y-111300000D02*
X90332000Y-110168000D01*
X90332000Y-110168000D02*
X91700001Y-108799999D01*
X91700001Y-108799999D02*
X92000000Y-108500000D01*
X100000000Y-111914400D02*
X99598400Y-112316000D01*
X92781600Y-112316000D02*
X92380000Y-111914400D01*
X99598400Y-112316000D02*
X92781600Y-112316000D01*
X79844975Y-110050001D02*
X80144974Y-110350000D01*
X75700000Y-111300000D02*
X75997000Y-111300000D01*
X76378000Y-110919000D02*
X76378000Y-110157000D01*
X76378000Y-110157000D02*
X77013000Y-109522000D01*
X75997000Y-111300000D02*
X76378000Y-110919000D01*
X77013000Y-109522000D02*
X79316974Y-109522000D01*
X79316974Y-109522000D02*
X79844975Y-110050001D01*
D16*
X80285000Y-106250000D02*
X77140000Y-106250000D01*
X84125000Y-102410000D02*
X80285000Y-106250000D01*
X122860000Y-106250000D02*
X119715000Y-106250000D01*
X119715000Y-106250000D02*
X115875000Y-102410000D01*
X115875000Y-102410000D02*
X89205000Y-102410000D01*
X89205000Y-102410000D02*
X84125000Y-102410000D01*
D15*
X89205000Y-102410000D02*
X89205000Y-106220000D01*
X122054978Y-111256978D02*
X122054978Y-110350000D01*
X122987000Y-112189000D02*
X122054978Y-111256978D01*
X126500000Y-111300000D02*
X125611000Y-112189000D01*
X125611000Y-112189000D02*
X122987000Y-112189000D01*
X73500000Y-110350000D02*
X75700000Y-110350000D01*
X73500000Y-108927736D02*
X73500000Y-109352000D01*
X73500000Y-108803000D02*
X73500000Y-108927736D01*
X72060000Y-106250000D02*
X72060000Y-107363000D01*
X72060000Y-107363000D02*
X73500000Y-108803000D01*
X131750000Y-109268000D02*
X132258000Y-108760000D01*
X128194000Y-110362500D02*
X129288500Y-109268000D01*
X129288500Y-109268000D02*
X131750000Y-109268000D01*
X135730000Y-111300000D02*
X137930000Y-111300000D01*
X135730000Y-111300000D02*
X134120000Y-111300000D01*
X134120000Y-111300000D02*
X131920000Y-111300000D01*
X68079984Y-111300000D02*
X65880026Y-111300000D01*
X120174972Y-112570000D02*
X119854972Y-112250000D01*
X130650000Y-112570000D02*
X120174972Y-112570000D01*
X131920000Y-111300000D02*
X130650000Y-112570000D01*
X68079984Y-111300000D02*
X69526374Y-112746390D01*
X69526374Y-112746390D02*
X75548614Y-112746390D01*
X77455000Y-112250000D02*
X77945024Y-112250000D01*
X77140000Y-111935000D02*
X77455000Y-112250000D01*
X77382502Y-110350000D02*
X77945004Y-110350000D01*
X77140000Y-111935000D02*
X77140000Y-110592502D01*
X77140000Y-110592502D02*
X77382502Y-110350000D01*
X75548614Y-112746390D02*
X76328610Y-112746390D01*
X76328610Y-112746390D02*
X77140000Y-111935000D01*
X62070018Y-111300000D02*
X63698610Y-111300000D01*
X65880026Y-111300000D02*
X63698610Y-111300000D01*
X80950000Y-112250000D02*
X77945024Y-112250000D01*
X81585000Y-111615000D02*
X80950000Y-112250000D01*
X81585000Y-110030000D02*
X81585000Y-111615000D01*
X82093000Y-109522000D02*
X81585000Y-110030000D01*
X84633000Y-109522000D02*
X82093000Y-109522000D01*
X85395000Y-108760000D02*
X84633000Y-109522000D01*
X86157000Y-106728000D02*
X85395000Y-107490000D01*
X107689290Y-112645710D02*
X89407710Y-112645710D01*
X85395000Y-107490000D02*
X85395000Y-108760000D01*
X108085000Y-112250000D02*
X107689290Y-112645710D01*
X89407710Y-112645710D02*
X87935000Y-111173000D01*
X87935000Y-111173000D02*
X87935000Y-107490000D01*
X87935000Y-107490000D02*
X87173000Y-106728000D01*
X87173000Y-106728000D02*
X86157000Y-106728000D01*
X64270000Y-110350000D02*
X67906220Y-110350000D01*
X67906220Y-110350000D02*
X69774000Y-112217780D01*
X61541380Y-110878620D02*
X62070000Y-110350000D01*
X61541380Y-111565055D02*
X61541380Y-110878620D01*
X64270000Y-112250000D02*
X62226325Y-112250000D01*
X62226325Y-112250000D02*
X61541380Y-111565055D01*
X137356000Y-109776000D02*
X137930000Y-110350000D01*
X130193973Y-110330473D02*
X130748446Y-109776000D01*
X130748446Y-109776000D02*
X137356000Y-109776000D01*
X129337000Y-111935000D02*
X128194000Y-111935000D01*
X134120000Y-110350000D02*
X130922000Y-110350000D01*
X130922000Y-110350000D02*
X129337000Y-111935000D01*
D17*
G36*
X67170140Y-101644903D02*
G01*
X67176882Y-101653118D01*
X67185097Y-101659860D01*
X67185099Y-101659862D01*
X67209695Y-101680048D01*
X67247133Y-101700059D01*
X67287754Y-101712381D01*
X67291550Y-101712755D01*
X67319421Y-101715500D01*
X67319428Y-101715500D01*
X67330000Y-101716541D01*
X67340571Y-101715500D01*
X79319431Y-101715500D01*
X79330000Y-101716541D01*
X79340569Y-101715500D01*
X79340579Y-101715500D01*
X79372245Y-101712381D01*
X79412867Y-101700059D01*
X79450304Y-101680048D01*
X79483118Y-101653118D01*
X79489864Y-101644898D01*
X80419263Y-100715500D01*
X119580738Y-100715500D01*
X120510140Y-101644903D01*
X120516882Y-101653118D01*
X120525097Y-101659860D01*
X120525099Y-101659862D01*
X120549695Y-101680048D01*
X120587133Y-101700059D01*
X120627754Y-101712381D01*
X120631550Y-101712755D01*
X120659421Y-101715500D01*
X120659428Y-101715500D01*
X120670000Y-101716541D01*
X120680571Y-101715500D01*
X132659431Y-101715500D01*
X132670000Y-101716541D01*
X132680569Y-101715500D01*
X132680579Y-101715500D01*
X132712245Y-101712381D01*
X132752867Y-101700059D01*
X132790304Y-101680048D01*
X132823118Y-101653118D01*
X132829864Y-101644898D01*
X133759263Y-100715500D01*
X142805118Y-100715500D01*
X142818622Y-100835889D01*
X142822685Y-100855006D01*
X142826477Y-100874154D01*
X142827366Y-100877029D01*
X142876928Y-101033270D01*
X142205099Y-101705099D01*
X142197202Y-101714721D01*
X142191334Y-101725700D01*
X142187720Y-101737612D01*
X142186500Y-101750000D01*
X142186500Y-105250000D01*
X142187720Y-105262388D01*
X142191334Y-105274300D01*
X142197202Y-105285279D01*
X142205099Y-105294901D01*
X142876599Y-105966401D01*
X142822265Y-106146361D01*
X142818470Y-106165524D01*
X142814410Y-106184627D01*
X142814095Y-106187619D01*
X142785528Y-106478971D01*
X142785528Y-106478994D01*
X142784501Y-106489421D01*
X142784500Y-112784500D01*
X141220500Y-112784500D01*
X141220500Y-107989421D01*
X141220427Y-107988677D01*
X141220398Y-107984541D01*
X141219374Y-107974797D01*
X141219374Y-107965009D01*
X141219060Y-107962016D01*
X141197305Y-107768066D01*
X141193243Y-107748956D01*
X141189450Y-107729801D01*
X141188563Y-107726937D01*
X141188561Y-107726927D01*
X141188557Y-107726918D01*
X141129547Y-107540896D01*
X141121852Y-107522941D01*
X141114410Y-107504887D01*
X141112979Y-107502240D01*
X141112979Y-107502239D01*
X141112976Y-107502235D01*
X141018957Y-107331215D01*
X141007945Y-107315132D01*
X140997114Y-107298831D01*
X140995196Y-107296513D01*
X140869746Y-107147007D01*
X140855781Y-107133331D01*
X140842027Y-107119481D01*
X140839696Y-107117579D01*
X140687596Y-106995288D01*
X140671196Y-106984556D01*
X140655060Y-106973672D01*
X140652407Y-106972261D01*
X140652403Y-106972258D01*
X140652399Y-106972256D01*
X140479448Y-106881839D01*
X140461335Y-106874521D01*
X140443331Y-106866953D01*
X140440455Y-106866085D01*
X140440449Y-106866083D01*
X140253225Y-106810981D01*
X140234035Y-106807320D01*
X140214907Y-106803394D01*
X140211913Y-106803100D01*
X140017551Y-106785411D01*
X139998019Y-106785547D01*
X139978487Y-106785411D01*
X139975503Y-106785704D01*
X139975493Y-106785704D01*
X139975484Y-106785706D01*
X139781395Y-106806106D01*
X139762267Y-106810032D01*
X139743078Y-106813693D01*
X139740197Y-106814562D01*
X139553759Y-106872274D01*
X139535734Y-106879851D01*
X139517644Y-106887160D01*
X139514987Y-106888573D01*
X139343310Y-106981398D01*
X139327134Y-106992309D01*
X139310773Y-107003015D01*
X139308449Y-107004911D01*
X139308442Y-107004916D01*
X139308436Y-107004922D01*
X139158064Y-107129321D01*
X139144311Y-107143170D01*
X139130347Y-107156845D01*
X139128434Y-107159158D01*
X139128428Y-107159164D01*
X139128424Y-107159171D01*
X139005078Y-107310406D01*
X138994263Y-107326684D01*
X138983235Y-107342790D01*
X138981808Y-107345429D01*
X138981803Y-107345437D01*
X138981800Y-107345445D01*
X138890179Y-107517759D01*
X138882740Y-107535807D01*
X138875041Y-107553769D01*
X138874155Y-107556634D01*
X138874151Y-107556644D01*
X138874149Y-107556654D01*
X138817743Y-107743480D01*
X138813950Y-107762635D01*
X138809888Y-107781745D01*
X138809573Y-107784737D01*
X138790529Y-107978971D01*
X138789500Y-107989422D01*
X138789501Y-112784500D01*
X130849070Y-112784500D01*
X130857545Y-112777545D01*
X130866693Y-112766398D01*
X131825818Y-111807273D01*
X131869188Y-111815900D01*
X131970812Y-111815900D01*
X132070482Y-111796074D01*
X132164370Y-111757184D01*
X132248867Y-111700726D01*
X132320726Y-111628867D01*
X132345292Y-111592100D01*
X133694708Y-111592100D01*
X133719274Y-111628867D01*
X133791133Y-111700726D01*
X133875630Y-111757184D01*
X133969518Y-111796074D01*
X134069188Y-111815900D01*
X134170812Y-111815900D01*
X134270482Y-111796074D01*
X134364370Y-111757184D01*
X134448867Y-111700726D01*
X134520726Y-111628867D01*
X134545292Y-111592100D01*
X135304708Y-111592100D01*
X135329274Y-111628867D01*
X135401133Y-111700726D01*
X135485630Y-111757184D01*
X135579518Y-111796074D01*
X135679188Y-111815900D01*
X135780812Y-111815900D01*
X135880482Y-111796074D01*
X135974370Y-111757184D01*
X136058867Y-111700726D01*
X136130726Y-111628867D01*
X136155292Y-111592100D01*
X137504708Y-111592100D01*
X137529274Y-111628867D01*
X137601133Y-111700726D01*
X137685630Y-111757184D01*
X137779518Y-111796074D01*
X137879188Y-111815900D01*
X137980812Y-111815900D01*
X138080482Y-111796074D01*
X138174370Y-111757184D01*
X138258867Y-111700726D01*
X138330726Y-111628867D01*
X138387184Y-111544370D01*
X138426074Y-111450482D01*
X138445900Y-111350812D01*
X138445900Y-111249188D01*
X138426074Y-111149518D01*
X138387184Y-111055630D01*
X138330726Y-110971133D01*
X138258867Y-110899274D01*
X138174370Y-110842816D01*
X138131359Y-110825000D01*
X138174370Y-110807184D01*
X138258867Y-110750726D01*
X138330726Y-110678867D01*
X138387184Y-110594370D01*
X138426074Y-110500482D01*
X138445900Y-110400812D01*
X138445900Y-110299188D01*
X138426074Y-110199518D01*
X138387184Y-110105630D01*
X138330726Y-110021133D01*
X138258867Y-109949274D01*
X138174370Y-109892816D01*
X138080482Y-109853926D01*
X137980812Y-109834100D01*
X137879188Y-109834100D01*
X137835818Y-109842727D01*
X137572693Y-109579602D01*
X137563545Y-109568455D01*
X137519067Y-109531953D01*
X137468323Y-109504829D01*
X137413262Y-109488127D01*
X137370346Y-109483900D01*
X137370338Y-109483900D01*
X137356000Y-109482488D01*
X137341662Y-109483900D01*
X131947364Y-109483900D01*
X131957545Y-109475545D01*
X131966693Y-109464398D01*
X132163818Y-109267273D01*
X132207188Y-109275900D01*
X132308812Y-109275900D01*
X132408482Y-109256074D01*
X132502370Y-109217184D01*
X132586867Y-109160726D01*
X132658726Y-109088867D01*
X132715184Y-109004370D01*
X132754074Y-108910482D01*
X132773900Y-108810812D01*
X132773900Y-108709188D01*
X132754074Y-108609518D01*
X132715184Y-108515630D01*
X132658726Y-108431133D01*
X132586867Y-108359274D01*
X132502370Y-108302816D01*
X132408482Y-108263926D01*
X132308812Y-108244100D01*
X132207188Y-108244100D01*
X132107518Y-108263926D01*
X132013630Y-108302816D01*
X131929133Y-108359274D01*
X131857274Y-108431133D01*
X131800816Y-108515630D01*
X131761926Y-108609518D01*
X131742100Y-108709188D01*
X131742100Y-108810812D01*
X131750727Y-108854182D01*
X131629009Y-108975900D01*
X129302846Y-108975900D01*
X129288500Y-108974487D01*
X129231238Y-108980127D01*
X129176177Y-108996829D01*
X129125433Y-109023953D01*
X129100950Y-109044046D01*
X129080955Y-109060455D01*
X129071811Y-109071597D01*
X128288182Y-109855227D01*
X128244812Y-109846600D01*
X128143188Y-109846600D01*
X128043518Y-109866426D01*
X127949630Y-109905316D01*
X127865133Y-109961774D01*
X127793274Y-110033633D01*
X127736816Y-110118130D01*
X127697926Y-110212018D01*
X127678100Y-110311688D01*
X127678100Y-110413312D01*
X127697926Y-110512982D01*
X127736816Y-110606870D01*
X127793274Y-110691367D01*
X127865133Y-110763226D01*
X127949630Y-110819684D01*
X128043518Y-110858574D01*
X128143188Y-110878400D01*
X128244812Y-110878400D01*
X128344482Y-110858574D01*
X128438370Y-110819684D01*
X128522867Y-110763226D01*
X128594726Y-110691367D01*
X128651184Y-110606870D01*
X128690074Y-110512982D01*
X128709900Y-110413312D01*
X128709900Y-110311688D01*
X128701273Y-110268318D01*
X129409492Y-109560100D01*
X130551082Y-109560100D01*
X130540901Y-109568455D01*
X130531753Y-109579602D01*
X130288155Y-109823200D01*
X130244785Y-109814573D01*
X130143161Y-109814573D01*
X130043491Y-109834399D01*
X129949603Y-109873289D01*
X129865106Y-109929747D01*
X129793247Y-110001606D01*
X129736789Y-110086103D01*
X129697899Y-110179991D01*
X129678073Y-110279661D01*
X129678073Y-110381285D01*
X129697899Y-110480955D01*
X129736789Y-110574843D01*
X129793247Y-110659340D01*
X129865106Y-110731199D01*
X129949603Y-110787657D01*
X130035621Y-110823287D01*
X129216009Y-111642900D01*
X128619292Y-111642900D01*
X128594726Y-111606133D01*
X128522867Y-111534274D01*
X128438370Y-111477816D01*
X128344482Y-111438926D01*
X128244812Y-111419100D01*
X128143188Y-111419100D01*
X128043518Y-111438926D01*
X127949630Y-111477816D01*
X127865133Y-111534274D01*
X127793274Y-111606133D01*
X127736816Y-111690630D01*
X127697926Y-111784518D01*
X127678100Y-111884188D01*
X127678100Y-111985812D01*
X127697926Y-112085482D01*
X127736816Y-112179370D01*
X127793274Y-112263867D01*
X127807307Y-112277900D01*
X125935191Y-112277900D01*
X126405819Y-111807273D01*
X126449188Y-111815900D01*
X126550812Y-111815900D01*
X126650482Y-111796074D01*
X126744370Y-111757184D01*
X126828867Y-111700726D01*
X126900726Y-111628867D01*
X126957184Y-111544370D01*
X126996074Y-111450482D01*
X127015900Y-111350812D01*
X127015900Y-111249188D01*
X126996074Y-111149518D01*
X126957184Y-111055630D01*
X126900726Y-110971133D01*
X126828867Y-110899274D01*
X126744370Y-110842816D01*
X126650482Y-110803926D01*
X126550812Y-110784100D01*
X126449188Y-110784100D01*
X126349518Y-110803926D01*
X126255630Y-110842816D01*
X126171133Y-110899274D01*
X126099274Y-110971133D01*
X126042816Y-111055630D01*
X126003926Y-111149518D01*
X125984100Y-111249188D01*
X125984100Y-111350812D01*
X125992727Y-111394181D01*
X125490009Y-111896900D01*
X123107991Y-111896900D01*
X122347078Y-111135987D01*
X122347078Y-110775292D01*
X122383845Y-110750726D01*
X122455704Y-110678867D01*
X122512162Y-110594370D01*
X122551052Y-110500482D01*
X122570878Y-110400812D01*
X122570878Y-110299188D01*
X122551052Y-110199518D01*
X122512162Y-110105630D01*
X122455704Y-110021133D01*
X122383845Y-109949274D01*
X122299348Y-109892816D01*
X122205460Y-109853926D01*
X122105790Y-109834100D01*
X122004166Y-109834100D01*
X121904496Y-109853926D01*
X121810608Y-109892816D01*
X121726111Y-109949274D01*
X121654252Y-110021133D01*
X121597794Y-110105630D01*
X121558904Y-110199518D01*
X121539078Y-110299188D01*
X121539078Y-110400812D01*
X121558904Y-110500482D01*
X121597794Y-110594370D01*
X121654252Y-110678867D01*
X121726111Y-110750726D01*
X121762879Y-110775293D01*
X121762878Y-111242640D01*
X121761466Y-111256978D01*
X121762878Y-111271316D01*
X121762878Y-111271323D01*
X121767105Y-111314239D01*
X121783807Y-111369300D01*
X121810931Y-111420044D01*
X121847433Y-111464523D01*
X121858580Y-111473671D01*
X122662809Y-112277900D01*
X120370872Y-112277900D01*
X120370872Y-112199188D01*
X120351046Y-112099518D01*
X120312156Y-112005630D01*
X120255698Y-111921133D01*
X120183839Y-111849274D01*
X120099342Y-111792816D01*
X120005454Y-111753926D01*
X119905784Y-111734100D01*
X119804160Y-111734100D01*
X119704490Y-111753926D01*
X119610602Y-111792816D01*
X119526105Y-111849274D01*
X119454246Y-111921133D01*
X119397788Y-112005630D01*
X119358898Y-112099518D01*
X119339072Y-112199188D01*
X119339072Y-112300812D01*
X119358898Y-112400482D01*
X119397788Y-112494370D01*
X119454246Y-112578867D01*
X119526105Y-112650726D01*
X119610602Y-112707184D01*
X119704490Y-112746074D01*
X119804160Y-112765900D01*
X119905784Y-112765900D01*
X119949154Y-112757273D01*
X119958279Y-112766398D01*
X119967427Y-112777545D01*
X119975902Y-112784500D01*
X118630500Y-112784500D01*
X118630500Y-109405579D01*
X118631542Y-109395000D01*
X118627381Y-109352755D01*
X118615059Y-109312133D01*
X118595048Y-109274696D01*
X118568118Y-109241882D01*
X118535304Y-109214952D01*
X118497867Y-109194941D01*
X118457245Y-109182619D01*
X118425579Y-109179500D01*
X118415000Y-109178458D01*
X118404421Y-109179500D01*
X114550500Y-109179500D01*
X114550500Y-107989421D01*
X114550427Y-107988677D01*
X114550398Y-107984541D01*
X114549374Y-107974797D01*
X114549374Y-107965009D01*
X114549060Y-107962016D01*
X114527305Y-107768066D01*
X114523243Y-107748956D01*
X114519450Y-107729801D01*
X114518563Y-107726937D01*
X114518561Y-107726927D01*
X114518557Y-107726918D01*
X114459547Y-107540896D01*
X114451852Y-107522941D01*
X114444410Y-107504887D01*
X114442979Y-107502240D01*
X114442979Y-107502239D01*
X114442976Y-107502235D01*
X114348957Y-107331215D01*
X114337945Y-107315132D01*
X114327114Y-107298831D01*
X114325196Y-107296513D01*
X114199746Y-107147007D01*
X114185781Y-107133331D01*
X114172027Y-107119481D01*
X114169696Y-107117579D01*
X114017596Y-106995288D01*
X114001196Y-106984556D01*
X113985060Y-106973672D01*
X113982407Y-106972261D01*
X113982403Y-106972258D01*
X113982399Y-106972256D01*
X113809448Y-106881839D01*
X113791335Y-106874521D01*
X113773331Y-106866953D01*
X113770455Y-106866085D01*
X113770449Y-106866083D01*
X113583225Y-106810981D01*
X113564035Y-106807320D01*
X113544907Y-106803394D01*
X113541913Y-106803100D01*
X113347551Y-106785411D01*
X113328019Y-106785547D01*
X113308487Y-106785411D01*
X113305503Y-106785704D01*
X113305493Y-106785704D01*
X113305484Y-106785706D01*
X113111395Y-106806106D01*
X113092267Y-106810032D01*
X113073078Y-106813693D01*
X113070197Y-106814562D01*
X112883759Y-106872274D01*
X112865734Y-106879851D01*
X112847644Y-106887160D01*
X112844987Y-106888573D01*
X112673310Y-106981398D01*
X112657134Y-106992309D01*
X112640773Y-107003015D01*
X112638449Y-107004911D01*
X112638442Y-107004916D01*
X112638436Y-107004922D01*
X112488064Y-107129321D01*
X112474311Y-107143170D01*
X112460347Y-107156845D01*
X112458434Y-107159158D01*
X112458428Y-107159164D01*
X112458424Y-107159171D01*
X112335078Y-107310406D01*
X112324263Y-107326684D01*
X112313235Y-107342790D01*
X112311808Y-107345429D01*
X112311803Y-107345437D01*
X112311800Y-107345445D01*
X112220179Y-107517759D01*
X112212740Y-107535807D01*
X112205041Y-107553769D01*
X112204155Y-107556634D01*
X112204151Y-107556644D01*
X112204149Y-107556654D01*
X112147743Y-107743480D01*
X112143950Y-107762635D01*
X112139888Y-107781745D01*
X112139573Y-107784737D01*
X112120529Y-107978971D01*
X112119500Y-107989422D01*
X112119501Y-112784500D01*
X107963591Y-112784500D01*
X107990818Y-112757273D01*
X108034188Y-112765900D01*
X108135812Y-112765900D01*
X108235482Y-112746074D01*
X108329370Y-112707184D01*
X108413867Y-112650726D01*
X108485726Y-112578867D01*
X108542184Y-112494370D01*
X108581074Y-112400482D01*
X108600900Y-112300812D01*
X108600900Y-112199188D01*
X108581074Y-112099518D01*
X108542184Y-112005630D01*
X108485726Y-111921133D01*
X108413867Y-111849274D01*
X108329370Y-111792816D01*
X108235482Y-111753926D01*
X108135812Y-111734100D01*
X108034188Y-111734100D01*
X107934518Y-111753926D01*
X107840630Y-111792816D01*
X107756133Y-111849274D01*
X107684274Y-111921133D01*
X107627816Y-112005630D01*
X107588926Y-112099518D01*
X107569100Y-112199188D01*
X107569100Y-112300812D01*
X107577727Y-112344182D01*
X107568299Y-112353610D01*
X100271271Y-112353610D01*
X100328867Y-112315126D01*
X100400726Y-112243267D01*
X100457184Y-112158770D01*
X100496074Y-112064882D01*
X100515900Y-111965212D01*
X100515900Y-111863588D01*
X100496074Y-111763918D01*
X100457184Y-111670030D01*
X100400726Y-111585533D01*
X100328867Y-111513674D01*
X100244370Y-111457216D01*
X100150482Y-111418326D01*
X100050812Y-111398500D01*
X99949188Y-111398500D01*
X99849518Y-111418326D01*
X99755630Y-111457216D01*
X99671133Y-111513674D01*
X99599274Y-111585533D01*
X99542816Y-111670030D01*
X99503926Y-111763918D01*
X99484100Y-111863588D01*
X99484100Y-111965212D01*
X99492727Y-112008582D01*
X99477409Y-112023900D01*
X92902591Y-112023900D01*
X92887273Y-112008582D01*
X92895900Y-111965212D01*
X92895900Y-111863588D01*
X92876074Y-111763918D01*
X92837184Y-111670030D01*
X92780726Y-111585533D01*
X92708867Y-111513674D01*
X92624370Y-111457216D01*
X92530482Y-111418326D01*
X92430812Y-111398500D01*
X92329188Y-111398500D01*
X92229518Y-111418326D01*
X92135630Y-111457216D01*
X92051133Y-111513674D01*
X91979274Y-111585533D01*
X91922816Y-111670030D01*
X91883926Y-111763918D01*
X91864100Y-111863588D01*
X91864100Y-111965212D01*
X91883926Y-112064882D01*
X91922816Y-112158770D01*
X91979274Y-112243267D01*
X92051133Y-112315126D01*
X92108729Y-112353610D01*
X89528702Y-112353610D01*
X88424280Y-111249188D01*
X89816100Y-111249188D01*
X89816100Y-111350812D01*
X89835926Y-111450482D01*
X89874816Y-111544370D01*
X89931274Y-111628867D01*
X90003133Y-111700726D01*
X90087630Y-111757184D01*
X90181518Y-111796074D01*
X90281188Y-111815900D01*
X90382812Y-111815900D01*
X90482482Y-111796074D01*
X90576370Y-111757184D01*
X90660867Y-111700726D01*
X90732726Y-111628867D01*
X90789184Y-111544370D01*
X90828074Y-111450482D01*
X90847900Y-111350812D01*
X90847900Y-111249188D01*
X90828074Y-111149518D01*
X90789184Y-111055630D01*
X90732726Y-110971133D01*
X90660867Y-110899274D01*
X90624100Y-110874708D01*
X90624100Y-110288991D01*
X91905819Y-109007273D01*
X91949188Y-109015900D01*
X92050812Y-109015900D01*
X92150482Y-108996074D01*
X92244370Y-108957184D01*
X92328867Y-108900726D01*
X92400726Y-108828867D01*
X92457184Y-108744370D01*
X92496074Y-108650482D01*
X92515900Y-108550812D01*
X92515900Y-108449188D01*
X92496074Y-108349518D01*
X92457184Y-108255630D01*
X92400726Y-108171133D01*
X92328867Y-108099274D01*
X92244370Y-108042816D01*
X92150482Y-108003926D01*
X92050812Y-107984100D01*
X91949188Y-107984100D01*
X91849518Y-108003926D01*
X91755630Y-108042816D01*
X91671133Y-108099274D01*
X91599274Y-108171133D01*
X91542816Y-108255630D01*
X91503926Y-108349518D01*
X91484100Y-108449188D01*
X91484100Y-108550812D01*
X91492727Y-108594181D01*
X90135598Y-109951311D01*
X90124456Y-109960455D01*
X90115312Y-109971597D01*
X90115310Y-109971599D01*
X90087953Y-110004934D01*
X90060829Y-110055678D01*
X90044127Y-110110739D01*
X90038488Y-110168000D01*
X90039901Y-110182348D01*
X90039900Y-110874707D01*
X90003133Y-110899274D01*
X89931274Y-110971133D01*
X89874816Y-111055630D01*
X89835926Y-111149518D01*
X89816100Y-111249188D01*
X88424280Y-111249188D01*
X88227100Y-111052009D01*
X88227100Y-107504346D01*
X88228513Y-107490000D01*
X88222873Y-107432738D01*
X88206171Y-107377677D01*
X88179047Y-107326933D01*
X88151690Y-107293598D01*
X88151689Y-107293597D01*
X88142545Y-107282455D01*
X88131403Y-107273311D01*
X87389693Y-106531602D01*
X87380545Y-106520455D01*
X87336067Y-106483953D01*
X87285323Y-106456829D01*
X87230262Y-106440127D01*
X87187346Y-106435900D01*
X87187338Y-106435900D01*
X87173000Y-106434488D01*
X87158662Y-106435900D01*
X86171346Y-106435900D01*
X86157000Y-106434487D01*
X86142654Y-106435900D01*
X86099738Y-106440127D01*
X86044677Y-106456829D01*
X85993933Y-106483953D01*
X85949455Y-106520455D01*
X85940311Y-106531597D01*
X85198602Y-107273307D01*
X85187455Y-107282455D01*
X85150953Y-107326934D01*
X85123829Y-107377678D01*
X85107127Y-107432739D01*
X85102900Y-107475655D01*
X85102900Y-107475662D01*
X85101488Y-107490000D01*
X85102900Y-107504338D01*
X85102901Y-108639007D01*
X84512009Y-109229900D01*
X82107335Y-109229900D01*
X82092999Y-109228488D01*
X82078663Y-109229900D01*
X82078654Y-109229900D01*
X82035738Y-109234127D01*
X81980677Y-109250829D01*
X81929933Y-109277953D01*
X81885455Y-109314455D01*
X81876311Y-109325597D01*
X81388602Y-109813307D01*
X81377455Y-109822455D01*
X81340953Y-109866934D01*
X81313829Y-109917678D01*
X81297127Y-109972739D01*
X81292900Y-110015655D01*
X81292900Y-110015662D01*
X81291488Y-110030000D01*
X81292900Y-110044338D01*
X81292901Y-111494007D01*
X80829009Y-111957900D01*
X78370316Y-111957900D01*
X78345750Y-111921133D01*
X78273891Y-111849274D01*
X78189394Y-111792816D01*
X78095506Y-111753926D01*
X77995836Y-111734100D01*
X77894212Y-111734100D01*
X77794542Y-111753926D01*
X77700654Y-111792816D01*
X77616157Y-111849274D01*
X77544298Y-111921133D01*
X77542266Y-111924175D01*
X77432100Y-111814009D01*
X77432100Y-110713493D01*
X77503494Y-110642100D01*
X77519712Y-110642100D01*
X77544278Y-110678867D01*
X77616137Y-110750726D01*
X77700634Y-110807184D01*
X77794522Y-110846074D01*
X77894192Y-110865900D01*
X77995816Y-110865900D01*
X78095486Y-110846074D01*
X78189374Y-110807184D01*
X78273871Y-110750726D01*
X78345730Y-110678867D01*
X78402188Y-110594370D01*
X78441078Y-110500482D01*
X78460904Y-110400812D01*
X78460904Y-110299188D01*
X78441078Y-110199518D01*
X78402188Y-110105630D01*
X78345730Y-110021133D01*
X78273871Y-109949274D01*
X78189374Y-109892816D01*
X78095486Y-109853926D01*
X77995816Y-109834100D01*
X77894192Y-109834100D01*
X77794522Y-109853926D01*
X77700634Y-109892816D01*
X77616137Y-109949274D01*
X77544278Y-110021133D01*
X77519712Y-110057900D01*
X77396848Y-110057900D01*
X77382502Y-110056487D01*
X77368156Y-110057900D01*
X77325240Y-110062127D01*
X77270179Y-110078829D01*
X77219435Y-110105953D01*
X77174957Y-110142455D01*
X77165813Y-110153597D01*
X76943597Y-110375814D01*
X76932456Y-110384957D01*
X76923312Y-110396099D01*
X76923310Y-110396101D01*
X76895953Y-110429436D01*
X76868829Y-110480180D01*
X76852127Y-110535241D01*
X76846488Y-110592502D01*
X76847901Y-110606850D01*
X76847900Y-111814008D01*
X76207619Y-112454290D01*
X70234440Y-112454290D01*
X70270074Y-112368262D01*
X70289900Y-112268592D01*
X70289900Y-112166968D01*
X70270074Y-112067298D01*
X70231184Y-111973410D01*
X70174726Y-111888913D01*
X70102867Y-111817054D01*
X70018370Y-111760596D01*
X69924482Y-111721706D01*
X69824812Y-111701880D01*
X69723188Y-111701880D01*
X69679819Y-111710507D01*
X68122913Y-110153602D01*
X68113765Y-110142455D01*
X68069287Y-110105953D01*
X68018543Y-110078829D01*
X67963482Y-110062127D01*
X67920566Y-110057900D01*
X67920558Y-110057900D01*
X67906220Y-110056488D01*
X67891882Y-110057900D01*
X64695292Y-110057900D01*
X64670726Y-110021133D01*
X64598867Y-109949274D01*
X64514370Y-109892816D01*
X64420482Y-109853926D01*
X64320812Y-109834100D01*
X64219188Y-109834100D01*
X64119518Y-109853926D01*
X64025630Y-109892816D01*
X63941133Y-109949274D01*
X63869274Y-110021133D01*
X63812816Y-110105630D01*
X63773926Y-110199518D01*
X63754100Y-110299188D01*
X63754100Y-110400812D01*
X63773926Y-110500482D01*
X63812816Y-110594370D01*
X63869274Y-110678867D01*
X63941133Y-110750726D01*
X64025630Y-110807184D01*
X64119518Y-110846074D01*
X64219188Y-110865900D01*
X64320812Y-110865900D01*
X64420482Y-110846074D01*
X64514370Y-110807184D01*
X64598867Y-110750726D01*
X64670726Y-110678867D01*
X64695292Y-110642100D01*
X67785229Y-110642100D01*
X67944143Y-110801014D01*
X67929502Y-110803926D01*
X67835614Y-110842816D01*
X67751117Y-110899274D01*
X67679258Y-110971133D01*
X67654692Y-111007900D01*
X66305318Y-111007900D01*
X66280752Y-110971133D01*
X66208893Y-110899274D01*
X66124396Y-110842816D01*
X66030508Y-110803926D01*
X65930838Y-110784100D01*
X65829214Y-110784100D01*
X65729544Y-110803926D01*
X65635656Y-110842816D01*
X65551159Y-110899274D01*
X65479300Y-110971133D01*
X65454734Y-111007900D01*
X64123902Y-111007900D01*
X64099336Y-110971133D01*
X64027477Y-110899274D01*
X63942980Y-110842816D01*
X63849092Y-110803926D01*
X63749422Y-110784100D01*
X63647798Y-110784100D01*
X63548128Y-110803926D01*
X63454240Y-110842816D01*
X63369743Y-110899274D01*
X63297884Y-110971133D01*
X63273318Y-111007900D01*
X62495310Y-111007900D01*
X62470744Y-110971133D01*
X62398885Y-110899274D01*
X62314388Y-110842816D01*
X62271368Y-110824996D01*
X62314370Y-110807184D01*
X62398867Y-110750726D01*
X62470726Y-110678867D01*
X62527184Y-110594370D01*
X62566074Y-110500482D01*
X62585900Y-110400812D01*
X62585900Y-110299188D01*
X62566074Y-110199518D01*
X62527184Y-110105630D01*
X62470726Y-110021133D01*
X62398867Y-109949274D01*
X62314370Y-109892816D01*
X62220482Y-109853926D01*
X62120812Y-109834100D01*
X62019188Y-109834100D01*
X61919518Y-109853926D01*
X61825630Y-109892816D01*
X61741133Y-109949274D01*
X61669274Y-110021133D01*
X61612816Y-110105630D01*
X61573926Y-110199518D01*
X61554100Y-110299188D01*
X61554100Y-110400812D01*
X61562727Y-110444182D01*
X61344978Y-110661931D01*
X61333836Y-110671075D01*
X61324692Y-110682217D01*
X61324690Y-110682219D01*
X61297333Y-110715554D01*
X61270209Y-110766298D01*
X61253507Y-110821359D01*
X61247868Y-110878620D01*
X61249281Y-110892968D01*
X61249280Y-111550716D01*
X61247868Y-111565055D01*
X61249280Y-111579393D01*
X61249280Y-111579400D01*
X61253507Y-111622316D01*
X61270209Y-111677377D01*
X61297333Y-111728121D01*
X61333835Y-111772600D01*
X61344982Y-111781748D01*
X62009634Y-112446401D01*
X62018780Y-112457545D01*
X62029922Y-112466689D01*
X62029923Y-112466690D01*
X62063258Y-112494047D01*
X62114002Y-112521171D01*
X62169063Y-112537873D01*
X62226325Y-112543513D01*
X62240671Y-112542100D01*
X63844708Y-112542100D01*
X63869274Y-112578867D01*
X63941133Y-112650726D01*
X64025630Y-112707184D01*
X64119518Y-112746074D01*
X64219188Y-112765900D01*
X64320812Y-112765900D01*
X64420482Y-112746074D01*
X64514370Y-112707184D01*
X64598867Y-112650726D01*
X64670726Y-112578867D01*
X64727184Y-112494370D01*
X64766074Y-112400482D01*
X64785900Y-112300812D01*
X64785900Y-112199188D01*
X64766074Y-112099518D01*
X64727184Y-112005630D01*
X64670726Y-111921133D01*
X64598867Y-111849274D01*
X64514370Y-111792816D01*
X64420482Y-111753926D01*
X64320812Y-111734100D01*
X64219188Y-111734100D01*
X64119518Y-111753926D01*
X64025630Y-111792816D01*
X63941133Y-111849274D01*
X63869274Y-111921133D01*
X63844708Y-111957900D01*
X62347317Y-111957900D01*
X62191299Y-111801883D01*
X62220500Y-111796074D01*
X62314388Y-111757184D01*
X62398885Y-111700726D01*
X62470744Y-111628867D01*
X62495310Y-111592100D01*
X63273318Y-111592100D01*
X63297884Y-111628867D01*
X63369743Y-111700726D01*
X63454240Y-111757184D01*
X63548128Y-111796074D01*
X63647798Y-111815900D01*
X63749422Y-111815900D01*
X63849092Y-111796074D01*
X63942980Y-111757184D01*
X64027477Y-111700726D01*
X64099336Y-111628867D01*
X64123902Y-111592100D01*
X65454734Y-111592100D01*
X65479300Y-111628867D01*
X65551159Y-111700726D01*
X65635656Y-111757184D01*
X65729544Y-111796074D01*
X65829214Y-111815900D01*
X65930838Y-111815900D01*
X66030508Y-111796074D01*
X66124396Y-111757184D01*
X66208893Y-111700726D01*
X66280752Y-111628867D01*
X66305318Y-111592100D01*
X67654692Y-111592100D01*
X67679258Y-111628867D01*
X67751117Y-111700726D01*
X67835614Y-111757184D01*
X67929502Y-111796074D01*
X68029172Y-111815900D01*
X68130796Y-111815900D01*
X68174166Y-111807273D01*
X69151393Y-112784500D01*
X61210500Y-112784500D01*
X61210500Y-107989421D01*
X61210427Y-107988677D01*
X61210398Y-107984541D01*
X61209374Y-107974797D01*
X61209374Y-107965009D01*
X61209060Y-107962016D01*
X61187305Y-107768066D01*
X61183243Y-107748956D01*
X61179450Y-107729801D01*
X61178563Y-107726937D01*
X61178561Y-107726927D01*
X61178557Y-107726918D01*
X61119547Y-107540896D01*
X61111852Y-107522941D01*
X61104410Y-107504887D01*
X61102979Y-107502240D01*
X61102979Y-107502239D01*
X61102976Y-107502235D01*
X61008957Y-107331215D01*
X60997945Y-107315132D01*
X60987114Y-107298831D01*
X60985196Y-107296513D01*
X60946168Y-107250000D01*
X68555608Y-107250000D01*
X68559727Y-107291826D01*
X68571928Y-107332044D01*
X68591740Y-107369110D01*
X68618402Y-107401598D01*
X68650890Y-107428260D01*
X68687956Y-107448072D01*
X68728174Y-107460273D01*
X68770000Y-107464392D01*
X69453960Y-107463360D01*
X69507300Y-107410020D01*
X69507300Y-106262700D01*
X69532700Y-106262700D01*
X69532700Y-107410020D01*
X69586040Y-107463360D01*
X70270000Y-107464392D01*
X70311826Y-107460273D01*
X70352044Y-107448072D01*
X70389110Y-107428260D01*
X70421598Y-107401598D01*
X70448260Y-107369110D01*
X70468072Y-107332044D01*
X70480273Y-107291826D01*
X70484392Y-107250000D01*
X70483360Y-106316040D01*
X70430020Y-106262700D01*
X69532700Y-106262700D01*
X69507300Y-106262700D01*
X68609980Y-106262700D01*
X68556640Y-106316040D01*
X68555608Y-107250000D01*
X60946168Y-107250000D01*
X60859746Y-107147007D01*
X60845781Y-107133331D01*
X60832027Y-107119481D01*
X60829696Y-107117579D01*
X60677596Y-106995288D01*
X60661196Y-106984556D01*
X60645060Y-106973672D01*
X60642407Y-106972261D01*
X60642403Y-106972258D01*
X60642399Y-106972256D01*
X60469448Y-106881839D01*
X60451335Y-106874521D01*
X60433331Y-106866953D01*
X60430455Y-106866085D01*
X60430449Y-106866083D01*
X60243225Y-106810981D01*
X60224035Y-106807320D01*
X60204907Y-106803394D01*
X60201913Y-106803100D01*
X60007551Y-106785411D01*
X59988019Y-106785547D01*
X59968487Y-106785411D01*
X59965503Y-106785704D01*
X59965493Y-106785704D01*
X59965484Y-106785706D01*
X59771395Y-106806106D01*
X59752267Y-106810032D01*
X59733078Y-106813693D01*
X59730197Y-106814562D01*
X59543759Y-106872274D01*
X59525734Y-106879851D01*
X59507644Y-106887160D01*
X59504987Y-106888573D01*
X59333310Y-106981398D01*
X59317134Y-106992309D01*
X59300773Y-107003015D01*
X59298449Y-107004911D01*
X59298442Y-107004916D01*
X59298436Y-107004922D01*
X59148064Y-107129321D01*
X59134311Y-107143170D01*
X59120347Y-107156845D01*
X59118434Y-107159158D01*
X59118428Y-107159164D01*
X59118424Y-107159171D01*
X58995078Y-107310406D01*
X58984263Y-107326684D01*
X58973235Y-107342790D01*
X58971808Y-107345429D01*
X58971803Y-107345437D01*
X58971800Y-107345445D01*
X58880179Y-107517759D01*
X58872740Y-107535807D01*
X58865041Y-107553769D01*
X58864155Y-107556634D01*
X58864151Y-107556644D01*
X58864149Y-107556654D01*
X58807743Y-107743480D01*
X58803950Y-107762635D01*
X58799888Y-107781745D01*
X58799573Y-107784737D01*
X58780529Y-107978971D01*
X58779500Y-107989422D01*
X58779501Y-112784500D01*
X57215500Y-112784500D01*
X57215500Y-106489421D01*
X57215427Y-106488675D01*
X57215349Y-106477555D01*
X57214325Y-106467814D01*
X57214325Y-106458027D01*
X57214011Y-106455035D01*
X57181378Y-106164110D01*
X57177312Y-106144979D01*
X57173523Y-106125846D01*
X57172634Y-106122971D01*
X57123072Y-105966730D01*
X57794901Y-105294901D01*
X57802798Y-105285279D01*
X57808666Y-105274300D01*
X57812280Y-105262388D01*
X57813500Y-105250000D01*
X68555608Y-105250000D01*
X68556640Y-106183960D01*
X68609980Y-106237300D01*
X69507300Y-106237300D01*
X69507300Y-105089980D01*
X69532700Y-105089980D01*
X69532700Y-106237300D01*
X70430020Y-106237300D01*
X70483360Y-106183960D01*
X70483977Y-105625000D01*
X71093056Y-105625000D01*
X71093056Y-106875000D01*
X71104430Y-106990483D01*
X71138115Y-107101527D01*
X71192817Y-107203866D01*
X71266432Y-107293568D01*
X71356134Y-107367183D01*
X71458473Y-107421885D01*
X71569517Y-107455570D01*
X71685000Y-107466944D01*
X71786288Y-107466944D01*
X71788829Y-107475322D01*
X71815953Y-107526066D01*
X71841048Y-107556644D01*
X71852456Y-107570545D01*
X71863598Y-107579689D01*
X73207900Y-108923992D01*
X73207900Y-108926708D01*
X73171133Y-108951274D01*
X73099274Y-109023133D01*
X73042816Y-109107630D01*
X73003926Y-109201518D01*
X72984100Y-109301188D01*
X72984100Y-109402812D01*
X73003926Y-109502482D01*
X73042816Y-109596370D01*
X73099274Y-109680867D01*
X73171133Y-109752726D01*
X73255630Y-109809184D01*
X73349518Y-109848074D01*
X73364228Y-109851000D01*
X73349518Y-109853926D01*
X73255630Y-109892816D01*
X73171133Y-109949274D01*
X73099274Y-110021133D01*
X73042816Y-110105630D01*
X73003926Y-110199518D01*
X72984100Y-110299188D01*
X72984100Y-110400812D01*
X73003926Y-110500482D01*
X73042816Y-110594370D01*
X73099274Y-110678867D01*
X73171133Y-110750726D01*
X73255630Y-110807184D01*
X73349518Y-110846074D01*
X73449188Y-110865900D01*
X73550812Y-110865900D01*
X73650482Y-110846074D01*
X73744370Y-110807184D01*
X73828867Y-110750726D01*
X73900726Y-110678867D01*
X73925292Y-110642100D01*
X75274708Y-110642100D01*
X75299274Y-110678867D01*
X75371133Y-110750726D01*
X75455630Y-110807184D01*
X75498641Y-110825000D01*
X75455630Y-110842816D01*
X75371133Y-110899274D01*
X75299274Y-110971133D01*
X75242816Y-111055630D01*
X75203926Y-111149518D01*
X75184100Y-111249188D01*
X75184100Y-111350812D01*
X75203926Y-111450482D01*
X75242816Y-111544370D01*
X75299274Y-111628867D01*
X75371133Y-111700726D01*
X75455630Y-111757184D01*
X75549518Y-111796074D01*
X75649188Y-111815900D01*
X75750812Y-111815900D01*
X75850482Y-111796074D01*
X75944370Y-111757184D01*
X76028867Y-111700726D01*
X76100726Y-111628867D01*
X76155918Y-111546265D01*
X76160067Y-111544047D01*
X76204545Y-111507545D01*
X76213693Y-111496398D01*
X76574399Y-111135692D01*
X76585545Y-111126545D01*
X76622047Y-111082067D01*
X76649171Y-111031323D01*
X76665873Y-110976262D01*
X76670100Y-110933346D01*
X76670100Y-110933337D01*
X76671512Y-110919001D01*
X76670100Y-110904665D01*
X76670100Y-110277991D01*
X77133992Y-109814100D01*
X79195983Y-109814100D01*
X79637701Y-110255818D01*
X79629074Y-110299188D01*
X79629074Y-110400812D01*
X79648900Y-110500482D01*
X79687790Y-110594370D01*
X79744248Y-110678867D01*
X79816107Y-110750726D01*
X79900604Y-110807184D01*
X79994492Y-110846074D01*
X80094162Y-110865900D01*
X80195786Y-110865900D01*
X80295456Y-110846074D01*
X80389344Y-110807184D01*
X80473841Y-110750726D01*
X80545700Y-110678867D01*
X80602158Y-110594370D01*
X80641048Y-110500482D01*
X80660874Y-110400812D01*
X80660874Y-110299188D01*
X80641048Y-110199518D01*
X80602158Y-110105630D01*
X80545700Y-110021133D01*
X80473841Y-109949274D01*
X80389344Y-109892816D01*
X80295456Y-109853926D01*
X80195786Y-109834100D01*
X80094162Y-109834100D01*
X80050792Y-109842727D01*
X79533667Y-109325602D01*
X79524519Y-109314455D01*
X79480041Y-109277953D01*
X79429297Y-109250829D01*
X79374236Y-109234127D01*
X79331320Y-109229900D01*
X79331312Y-109229900D01*
X79316974Y-109228488D01*
X79302636Y-109229900D01*
X77027346Y-109229900D01*
X77013000Y-109228487D01*
X76955738Y-109234127D01*
X76900677Y-109250829D01*
X76849933Y-109277953D01*
X76827263Y-109296558D01*
X76805455Y-109314455D01*
X76796311Y-109325597D01*
X76181598Y-109940311D01*
X76170456Y-109949455D01*
X76161312Y-109960597D01*
X76161310Y-109960599D01*
X76133953Y-109993934D01*
X76111109Y-110036672D01*
X76100726Y-110021133D01*
X76028867Y-109949274D01*
X75944370Y-109892816D01*
X75850482Y-109853926D01*
X75750812Y-109834100D01*
X75649188Y-109834100D01*
X75549518Y-109853926D01*
X75455630Y-109892816D01*
X75371133Y-109949274D01*
X75299274Y-110021133D01*
X75274708Y-110057900D01*
X73925292Y-110057900D01*
X73900726Y-110021133D01*
X73828867Y-109949274D01*
X73744370Y-109892816D01*
X73650482Y-109853926D01*
X73635772Y-109851000D01*
X73650482Y-109848074D01*
X73744370Y-109809184D01*
X73828867Y-109752726D01*
X73900726Y-109680867D01*
X73957184Y-109596370D01*
X73996074Y-109502482D01*
X74015900Y-109402812D01*
X74015900Y-109301188D01*
X73996074Y-109201518D01*
X73957184Y-109107630D01*
X73900726Y-109023133D01*
X73828867Y-108951274D01*
X73792100Y-108926708D01*
X73792100Y-108817346D01*
X73793513Y-108803000D01*
X73787873Y-108745738D01*
X73771171Y-108690677D01*
X73744047Y-108639933D01*
X73716690Y-108606598D01*
X73716689Y-108606597D01*
X73707545Y-108595455D01*
X73696404Y-108586312D01*
X73438280Y-108328188D01*
X80307108Y-108328188D01*
X80307108Y-108429812D01*
X80326934Y-108529482D01*
X80365824Y-108623370D01*
X80422282Y-108707867D01*
X80494141Y-108779726D01*
X80578638Y-108836184D01*
X80672526Y-108875074D01*
X80772196Y-108894900D01*
X80873820Y-108894900D01*
X80973490Y-108875074D01*
X81067378Y-108836184D01*
X81151875Y-108779726D01*
X81209701Y-108721900D01*
X82722307Y-108721900D01*
X82780133Y-108779726D01*
X82864630Y-108836184D01*
X82958518Y-108875074D01*
X83058188Y-108894900D01*
X83159812Y-108894900D01*
X83259482Y-108875074D01*
X83353370Y-108836184D01*
X83437867Y-108779726D01*
X83509726Y-108707867D01*
X83566184Y-108623370D01*
X83605074Y-108529482D01*
X83624900Y-108429812D01*
X83624900Y-108328188D01*
X83605074Y-108228518D01*
X83566184Y-108134630D01*
X83509726Y-108050133D01*
X83437867Y-107978274D01*
X83353370Y-107921816D01*
X83259482Y-107882926D01*
X83159812Y-107863100D01*
X83058188Y-107863100D01*
X82958518Y-107882926D01*
X82864630Y-107921816D01*
X82780133Y-107978274D01*
X82722307Y-108036100D01*
X81209701Y-108036100D01*
X81151875Y-107978274D01*
X81067378Y-107921816D01*
X80973490Y-107882926D01*
X80873820Y-107863100D01*
X80772196Y-107863100D01*
X80672526Y-107882926D01*
X80578638Y-107921816D01*
X80494141Y-107978274D01*
X80422282Y-108050133D01*
X80365824Y-108134630D01*
X80326934Y-108228518D01*
X80307108Y-108328188D01*
X73438280Y-108328188D01*
X72562129Y-107452037D01*
X72661527Y-107421885D01*
X72763866Y-107367183D01*
X72853568Y-107293568D01*
X72927183Y-107203866D01*
X72981885Y-107101527D01*
X73015570Y-106990483D01*
X73026944Y-106875000D01*
X73026944Y-105625000D01*
X73633056Y-105625000D01*
X73633056Y-106875000D01*
X73644430Y-106990483D01*
X73678115Y-107101527D01*
X73732817Y-107203866D01*
X73806432Y-107293568D01*
X73896134Y-107367183D01*
X73998473Y-107421885D01*
X74109517Y-107455570D01*
X74225000Y-107466944D01*
X74975000Y-107466944D01*
X75090483Y-107455570D01*
X75201527Y-107421885D01*
X75303866Y-107367183D01*
X75393568Y-107293568D01*
X75467183Y-107203866D01*
X75521885Y-107101527D01*
X75555570Y-106990483D01*
X75566944Y-106875000D01*
X75566944Y-105625000D01*
X76173056Y-105625000D01*
X76173056Y-106875000D01*
X76184430Y-106990483D01*
X76218115Y-107101527D01*
X76272817Y-107203866D01*
X76346432Y-107293568D01*
X76436134Y-107367183D01*
X76538473Y-107421885D01*
X76649517Y-107455570D01*
X76765000Y-107466944D01*
X77515000Y-107466944D01*
X77630483Y-107455570D01*
X77741527Y-107421885D01*
X77843866Y-107367183D01*
X77933568Y-107293568D01*
X78007183Y-107203866D01*
X78061885Y-107101527D01*
X78095570Y-106990483D01*
X78106944Y-106875000D01*
X78106944Y-106719900D01*
X80261923Y-106719900D01*
X80285000Y-106722173D01*
X80308077Y-106719900D01*
X80377116Y-106713100D01*
X80465693Y-106686231D01*
X80547325Y-106642598D01*
X80618877Y-106583877D01*
X80633595Y-106565943D01*
X84319639Y-102879900D01*
X88912900Y-102879900D01*
X88912901Y-105794707D01*
X88876133Y-105819274D01*
X88804274Y-105891133D01*
X88747816Y-105975630D01*
X88708926Y-106069518D01*
X88689100Y-106169188D01*
X88689100Y-106270812D01*
X88708926Y-106370482D01*
X88747816Y-106464370D01*
X88804274Y-106548867D01*
X88876133Y-106620726D01*
X88960630Y-106677184D01*
X89054518Y-106716074D01*
X89154188Y-106735900D01*
X89255812Y-106735900D01*
X89355482Y-106716074D01*
X89449370Y-106677184D01*
X89533867Y-106620726D01*
X89605726Y-106548867D01*
X89662184Y-106464370D01*
X89701074Y-106370482D01*
X89720900Y-106270812D01*
X89720900Y-106169188D01*
X89701074Y-106069518D01*
X89662184Y-105975630D01*
X89605726Y-105891133D01*
X89533867Y-105819274D01*
X89497100Y-105794708D01*
X89497100Y-104489422D01*
X92784500Y-104489422D01*
X92784501Y-108610579D01*
X92785455Y-108620260D01*
X92785411Y-108626513D01*
X92785705Y-108629508D01*
X92806106Y-108823604D01*
X92810031Y-108842726D01*
X92813693Y-108861922D01*
X92814562Y-108864803D01*
X92872274Y-109051241D01*
X92879851Y-109069266D01*
X92887160Y-109087356D01*
X92888573Y-109090013D01*
X92981397Y-109261689D01*
X92992326Y-109277892D01*
X93003015Y-109294226D01*
X93004911Y-109296551D01*
X93004916Y-109296558D01*
X93004922Y-109296564D01*
X93129320Y-109446936D01*
X93143205Y-109460725D01*
X93156845Y-109474653D01*
X93159164Y-109476572D01*
X93310406Y-109599922D01*
X93326684Y-109610737D01*
X93342790Y-109621765D01*
X93345429Y-109623192D01*
X93345437Y-109623197D01*
X93345445Y-109623200D01*
X93517759Y-109714821D01*
X93535795Y-109722255D01*
X93553769Y-109729959D01*
X93556638Y-109730846D01*
X93556645Y-109730849D01*
X93556652Y-109730850D01*
X93743480Y-109787257D01*
X93762614Y-109791046D01*
X93781744Y-109795112D01*
X93784728Y-109795425D01*
X93784738Y-109795427D01*
X93784747Y-109795427D01*
X93978970Y-109814471D01*
X93978974Y-109814471D01*
X93989421Y-109815500D01*
X106010579Y-109815500D01*
X106020270Y-109814546D01*
X106026513Y-109814589D01*
X106029508Y-109814295D01*
X106223604Y-109793894D01*
X106242726Y-109789969D01*
X106261922Y-109786307D01*
X106264803Y-109785438D01*
X106451241Y-109727726D01*
X106469266Y-109720149D01*
X106487356Y-109712840D01*
X106490013Y-109711427D01*
X106661689Y-109618603D01*
X106677892Y-109607674D01*
X106694226Y-109596985D01*
X106696551Y-109595089D01*
X106696558Y-109595084D01*
X106696564Y-109595078D01*
X106846936Y-109470680D01*
X106860725Y-109456795D01*
X106874653Y-109443155D01*
X106876572Y-109440836D01*
X106999922Y-109289594D01*
X107010737Y-109273316D01*
X107021765Y-109257210D01*
X107023192Y-109254571D01*
X107023197Y-109254563D01*
X107023200Y-109254555D01*
X107114821Y-109082241D01*
X107122255Y-109064205D01*
X107129959Y-109046231D01*
X107130846Y-109043362D01*
X107130849Y-109043355D01*
X107130850Y-109043348D01*
X107187257Y-108856520D01*
X107191046Y-108837386D01*
X107195112Y-108818256D01*
X107195425Y-108815272D01*
X107195427Y-108815262D01*
X107195427Y-108815253D01*
X107214471Y-108621030D01*
X107214471Y-108621026D01*
X107215500Y-108610579D01*
X107215500Y-104489421D01*
X107214546Y-104479730D01*
X107214589Y-104473487D01*
X107214295Y-104470492D01*
X107193894Y-104276395D01*
X107189968Y-104257267D01*
X107186307Y-104238078D01*
X107185438Y-104235197D01*
X107127726Y-104048759D01*
X107120149Y-104030734D01*
X107112840Y-104012644D01*
X107111427Y-104009987D01*
X107018602Y-103838310D01*
X107007691Y-103822134D01*
X106996985Y-103805773D01*
X106995089Y-103803449D01*
X106995084Y-103803442D01*
X106995078Y-103803436D01*
X106870679Y-103653064D01*
X106856830Y-103639311D01*
X106843155Y-103625347D01*
X106840842Y-103623434D01*
X106840836Y-103623428D01*
X106840829Y-103623424D01*
X106689594Y-103500078D01*
X106673316Y-103489263D01*
X106657210Y-103478235D01*
X106654571Y-103476808D01*
X106654563Y-103476803D01*
X106654555Y-103476800D01*
X106482241Y-103385179D01*
X106464193Y-103377740D01*
X106446231Y-103370041D01*
X106443366Y-103369155D01*
X106443356Y-103369151D01*
X106443346Y-103369149D01*
X106256520Y-103312743D01*
X106237365Y-103308950D01*
X106218255Y-103304888D01*
X106215263Y-103304573D01*
X106021029Y-103285529D01*
X106021026Y-103285529D01*
X106010579Y-103284500D01*
X93989421Y-103284500D01*
X93979730Y-103285454D01*
X93973487Y-103285411D01*
X93970492Y-103285705D01*
X93776395Y-103306106D01*
X93757267Y-103310032D01*
X93738078Y-103313693D01*
X93735197Y-103314562D01*
X93548759Y-103372274D01*
X93530734Y-103379851D01*
X93512644Y-103387160D01*
X93509987Y-103388573D01*
X93338310Y-103481398D01*
X93322134Y-103492309D01*
X93305773Y-103503015D01*
X93303449Y-103504911D01*
X93303442Y-103504916D01*
X93303436Y-103504922D01*
X93153064Y-103629321D01*
X93139311Y-103643170D01*
X93125347Y-103656845D01*
X93123434Y-103659158D01*
X93123428Y-103659164D01*
X93123424Y-103659171D01*
X93000078Y-103810406D01*
X92989263Y-103826684D01*
X92978235Y-103842790D01*
X92976808Y-103845429D01*
X92976803Y-103845437D01*
X92976800Y-103845445D01*
X92885179Y-104017759D01*
X92877740Y-104035807D01*
X92870041Y-104053769D01*
X92869155Y-104056634D01*
X92869151Y-104056644D01*
X92869149Y-104056654D01*
X92812743Y-104243480D01*
X92808950Y-104262635D01*
X92804888Y-104281745D01*
X92804573Y-104284737D01*
X92785529Y-104478971D01*
X92784500Y-104489422D01*
X89497100Y-104489422D01*
X89497100Y-102879900D01*
X115680362Y-102879900D01*
X119366410Y-106565949D01*
X119381123Y-106583877D01*
X119452675Y-106642598D01*
X119521703Y-106679494D01*
X119534307Y-106686231D01*
X119622883Y-106713100D01*
X119714999Y-106722173D01*
X119738076Y-106719900D01*
X121893056Y-106719900D01*
X121893056Y-106875000D01*
X121904430Y-106990483D01*
X121938115Y-107101527D01*
X121992817Y-107203866D01*
X122066432Y-107293568D01*
X122156134Y-107367183D01*
X122258473Y-107421885D01*
X122369517Y-107455570D01*
X122485000Y-107466944D01*
X123235000Y-107466944D01*
X123350483Y-107455570D01*
X123461527Y-107421885D01*
X123563866Y-107367183D01*
X123653568Y-107293568D01*
X123727183Y-107203866D01*
X123781885Y-107101527D01*
X123815570Y-106990483D01*
X123826944Y-106875000D01*
X123826944Y-105625000D01*
X124433056Y-105625000D01*
X124433056Y-106875000D01*
X124444430Y-106990483D01*
X124478115Y-107101527D01*
X124532817Y-107203866D01*
X124606432Y-107293568D01*
X124696134Y-107367183D01*
X124798473Y-107421885D01*
X124909517Y-107455570D01*
X125025000Y-107466944D01*
X125775000Y-107466944D01*
X125890483Y-107455570D01*
X126001527Y-107421885D01*
X126103866Y-107367183D01*
X126193568Y-107293568D01*
X126267183Y-107203866D01*
X126321885Y-107101527D01*
X126355570Y-106990483D01*
X126366944Y-106875000D01*
X126366944Y-105625000D01*
X126973056Y-105625000D01*
X126973056Y-106875000D01*
X126984430Y-106990483D01*
X127018115Y-107101527D01*
X127072817Y-107203866D01*
X127146432Y-107293568D01*
X127236134Y-107367183D01*
X127338473Y-107421885D01*
X127449517Y-107455570D01*
X127565000Y-107466944D01*
X128315000Y-107466944D01*
X128430483Y-107455570D01*
X128541527Y-107421885D01*
X128643866Y-107367183D01*
X128733568Y-107293568D01*
X128769322Y-107250000D01*
X129515608Y-107250000D01*
X129519727Y-107291826D01*
X129531928Y-107332044D01*
X129551740Y-107369110D01*
X129578402Y-107401598D01*
X129610890Y-107428260D01*
X129647956Y-107448072D01*
X129688174Y-107460273D01*
X129730000Y-107464392D01*
X130413960Y-107463360D01*
X130467300Y-107410020D01*
X130467300Y-106262700D01*
X130492700Y-106262700D01*
X130492700Y-107410020D01*
X130546040Y-107463360D01*
X131230000Y-107464392D01*
X131271826Y-107460273D01*
X131312044Y-107448072D01*
X131349110Y-107428260D01*
X131381598Y-107401598D01*
X131408260Y-107369110D01*
X131428072Y-107332044D01*
X131440273Y-107291826D01*
X131444392Y-107250000D01*
X131443360Y-106316040D01*
X131390020Y-106262700D01*
X130492700Y-106262700D01*
X130467300Y-106262700D01*
X129569980Y-106262700D01*
X129516640Y-106316040D01*
X129515608Y-107250000D01*
X128769322Y-107250000D01*
X128807183Y-107203866D01*
X128861885Y-107101527D01*
X128895570Y-106990483D01*
X128906944Y-106875000D01*
X128906944Y-105625000D01*
X128895570Y-105509517D01*
X128861885Y-105398473D01*
X128807183Y-105296134D01*
X128769323Y-105250000D01*
X129515608Y-105250000D01*
X129516640Y-106183960D01*
X129569980Y-106237300D01*
X130467300Y-106237300D01*
X130467300Y-105089980D01*
X130492700Y-105089980D01*
X130492700Y-106237300D01*
X131390020Y-106237300D01*
X131443360Y-106183960D01*
X131444392Y-105250000D01*
X131440273Y-105208174D01*
X131428072Y-105167956D01*
X131408260Y-105130890D01*
X131381598Y-105098402D01*
X131349110Y-105071740D01*
X131312044Y-105051928D01*
X131271826Y-105039727D01*
X131230000Y-105035608D01*
X130546040Y-105036640D01*
X130492700Y-105089980D01*
X130467300Y-105089980D01*
X130413960Y-105036640D01*
X129730000Y-105035608D01*
X129688174Y-105039727D01*
X129647956Y-105051928D01*
X129610890Y-105071740D01*
X129578402Y-105098402D01*
X129551740Y-105130890D01*
X129531928Y-105167956D01*
X129519727Y-105208174D01*
X129515608Y-105250000D01*
X128769323Y-105250000D01*
X128733568Y-105206432D01*
X128643866Y-105132817D01*
X128541527Y-105078115D01*
X128430483Y-105044430D01*
X128315000Y-105033056D01*
X127565000Y-105033056D01*
X127449517Y-105044430D01*
X127338473Y-105078115D01*
X127236134Y-105132817D01*
X127146432Y-105206432D01*
X127072817Y-105296134D01*
X127018115Y-105398473D01*
X126984430Y-105509517D01*
X126973056Y-105625000D01*
X126366944Y-105625000D01*
X126355570Y-105509517D01*
X126321885Y-105398473D01*
X126267183Y-105296134D01*
X126193568Y-105206432D01*
X126103866Y-105132817D01*
X126001527Y-105078115D01*
X125890483Y-105044430D01*
X125775000Y-105033056D01*
X125025000Y-105033056D01*
X124909517Y-105044430D01*
X124798473Y-105078115D01*
X124696134Y-105132817D01*
X124606432Y-105206432D01*
X124532817Y-105296134D01*
X124478115Y-105398473D01*
X124444430Y-105509517D01*
X124433056Y-105625000D01*
X123826944Y-105625000D01*
X123815570Y-105509517D01*
X123781885Y-105398473D01*
X123727183Y-105296134D01*
X123653568Y-105206432D01*
X123563866Y-105132817D01*
X123461527Y-105078115D01*
X123350483Y-105044430D01*
X123235000Y-105033056D01*
X122485000Y-105033056D01*
X122369517Y-105044430D01*
X122258473Y-105078115D01*
X122156134Y-105132817D01*
X122066432Y-105206432D01*
X121992817Y-105296134D01*
X121938115Y-105398473D01*
X121904430Y-105509517D01*
X121893056Y-105625000D01*
X121893056Y-105780100D01*
X119909639Y-105780100D01*
X117284406Y-103154867D01*
X120704100Y-103154867D01*
X120704100Y-103345133D01*
X120741219Y-103531743D01*
X120814030Y-103707525D01*
X120919736Y-103865726D01*
X121054274Y-104000264D01*
X121212475Y-104105970D01*
X121388257Y-104178781D01*
X121574867Y-104215900D01*
X121765133Y-104215900D01*
X121951743Y-104178781D01*
X122127525Y-104105970D01*
X122285726Y-104000264D01*
X122420264Y-103865726D01*
X122525970Y-103707525D01*
X122553056Y-103642133D01*
X122553056Y-104250400D01*
X122562021Y-104341418D01*
X122588570Y-104428939D01*
X122631683Y-104509598D01*
X122689704Y-104580296D01*
X122760402Y-104638317D01*
X122841061Y-104681430D01*
X122928582Y-104707979D01*
X123019600Y-104716944D01*
X123320400Y-104716944D01*
X123411418Y-104707979D01*
X123498939Y-104681430D01*
X123579598Y-104638317D01*
X123650296Y-104580296D01*
X123670000Y-104556287D01*
X123689704Y-104580296D01*
X123760402Y-104638317D01*
X123841061Y-104681430D01*
X123928582Y-104707979D01*
X124019600Y-104716944D01*
X124320400Y-104716944D01*
X124411418Y-104707979D01*
X124498939Y-104681430D01*
X124579598Y-104638317D01*
X124650296Y-104580296D01*
X124670000Y-104556287D01*
X124689704Y-104580296D01*
X124760402Y-104638317D01*
X124841061Y-104681430D01*
X124928582Y-104707979D01*
X125019600Y-104716944D01*
X125320400Y-104716944D01*
X125411418Y-104707979D01*
X125498939Y-104681430D01*
X125579598Y-104638317D01*
X125650296Y-104580296D01*
X125670000Y-104556287D01*
X125689704Y-104580296D01*
X125760402Y-104638317D01*
X125841061Y-104681430D01*
X125928582Y-104707979D01*
X126019600Y-104716944D01*
X126320400Y-104716944D01*
X126411418Y-104707979D01*
X126498939Y-104681430D01*
X126579598Y-104638317D01*
X126650296Y-104580296D01*
X126670000Y-104556287D01*
X126689704Y-104580296D01*
X126760402Y-104638317D01*
X126841061Y-104681430D01*
X126928582Y-104707979D01*
X127019600Y-104716944D01*
X127320400Y-104716944D01*
X127411418Y-104707979D01*
X127498939Y-104681430D01*
X127579598Y-104638317D01*
X127596272Y-104624633D01*
X127618402Y-104651598D01*
X127650890Y-104678260D01*
X127687956Y-104698072D01*
X127728174Y-104710273D01*
X127770000Y-104714392D01*
X128103960Y-104713360D01*
X128157300Y-104660020D01*
X128157300Y-103262700D01*
X128182700Y-103262700D01*
X128182700Y-104660020D01*
X128236040Y-104713360D01*
X128570000Y-104714392D01*
X128611826Y-104710273D01*
X128652044Y-104698072D01*
X128670000Y-104688474D01*
X128687956Y-104698072D01*
X128728174Y-104710273D01*
X128770000Y-104714392D01*
X129103960Y-104713360D01*
X129157300Y-104660020D01*
X129157300Y-103262700D01*
X129182700Y-103262700D01*
X129182700Y-104660020D01*
X129236040Y-104713360D01*
X129570000Y-104714392D01*
X129611826Y-104710273D01*
X129652044Y-104698072D01*
X129670000Y-104688474D01*
X129687956Y-104698072D01*
X129728174Y-104710273D01*
X129770000Y-104714392D01*
X130103960Y-104713360D01*
X130157300Y-104660020D01*
X130157300Y-103262700D01*
X129182700Y-103262700D01*
X129157300Y-103262700D01*
X128182700Y-103262700D01*
X128157300Y-103262700D01*
X128137300Y-103262700D01*
X128137300Y-103237300D01*
X128157300Y-103237300D01*
X128157300Y-101839980D01*
X128182700Y-101839980D01*
X128182700Y-103237300D01*
X129157300Y-103237300D01*
X129157300Y-101839980D01*
X129182700Y-101839980D01*
X129182700Y-103237300D01*
X130157300Y-103237300D01*
X130157300Y-101839980D01*
X130182700Y-101839980D01*
X130182700Y-103237300D01*
X130202700Y-103237300D01*
X130202700Y-103262700D01*
X130182700Y-103262700D01*
X130182700Y-104660020D01*
X130236040Y-104713360D01*
X130570000Y-104714392D01*
X130611826Y-104710273D01*
X130652044Y-104698072D01*
X130689110Y-104678260D01*
X130721598Y-104651598D01*
X130748260Y-104619110D01*
X130768072Y-104582044D01*
X130780273Y-104541826D01*
X130784392Y-104500000D01*
X130783637Y-103634150D01*
X130814030Y-103707525D01*
X130919736Y-103865726D01*
X131054274Y-104000264D01*
X131212475Y-104105970D01*
X131388257Y-104178781D01*
X131574867Y-104215900D01*
X131765133Y-104215900D01*
X131951743Y-104178781D01*
X132127525Y-104105970D01*
X132285726Y-104000264D01*
X132420264Y-103865726D01*
X132525970Y-103707525D01*
X132598781Y-103531743D01*
X132635900Y-103345133D01*
X132635900Y-103154867D01*
X132598781Y-102968257D01*
X132525970Y-102792475D01*
X132420264Y-102634274D01*
X132285726Y-102499736D01*
X132127525Y-102394030D01*
X131951743Y-102321219D01*
X131765133Y-102284100D01*
X131574867Y-102284100D01*
X131388257Y-102321219D01*
X131212475Y-102394030D01*
X131054274Y-102499736D01*
X130919736Y-102634274D01*
X130814030Y-102792475D01*
X130783637Y-102865850D01*
X130784392Y-102000000D01*
X130780273Y-101958174D01*
X130768072Y-101917956D01*
X130748260Y-101880890D01*
X130721598Y-101848402D01*
X130689110Y-101821740D01*
X130652044Y-101801928D01*
X130611826Y-101789727D01*
X130570000Y-101785608D01*
X130236040Y-101786640D01*
X130182700Y-101839980D01*
X130157300Y-101839980D01*
X130103960Y-101786640D01*
X129770000Y-101785608D01*
X129728174Y-101789727D01*
X129687956Y-101801928D01*
X129670000Y-101811526D01*
X129652044Y-101801928D01*
X129611826Y-101789727D01*
X129570000Y-101785608D01*
X129236040Y-101786640D01*
X129182700Y-101839980D01*
X129157300Y-101839980D01*
X129103960Y-101786640D01*
X128770000Y-101785608D01*
X128728174Y-101789727D01*
X128687956Y-101801928D01*
X128670000Y-101811526D01*
X128652044Y-101801928D01*
X128611826Y-101789727D01*
X128570000Y-101785608D01*
X128236040Y-101786640D01*
X128182700Y-101839980D01*
X128157300Y-101839980D01*
X128103960Y-101786640D01*
X127770000Y-101785608D01*
X127728174Y-101789727D01*
X127687956Y-101801928D01*
X127650890Y-101821740D01*
X127618402Y-101848402D01*
X127596272Y-101875367D01*
X127579598Y-101861683D01*
X127498939Y-101818570D01*
X127411418Y-101792021D01*
X127320400Y-101783056D01*
X127019600Y-101783056D01*
X126928582Y-101792021D01*
X126841061Y-101818570D01*
X126760402Y-101861683D01*
X126689704Y-101919704D01*
X126670000Y-101943713D01*
X126650296Y-101919704D01*
X126579598Y-101861683D01*
X126498939Y-101818570D01*
X126411418Y-101792021D01*
X126320400Y-101783056D01*
X126019600Y-101783056D01*
X125928582Y-101792021D01*
X125841061Y-101818570D01*
X125760402Y-101861683D01*
X125689704Y-101919704D01*
X125670000Y-101943713D01*
X125650296Y-101919704D01*
X125579598Y-101861683D01*
X125498939Y-101818570D01*
X125411418Y-101792021D01*
X125320400Y-101783056D01*
X125019600Y-101783056D01*
X124928582Y-101792021D01*
X124841061Y-101818570D01*
X124760402Y-101861683D01*
X124689704Y-101919704D01*
X124670000Y-101943713D01*
X124650296Y-101919704D01*
X124579598Y-101861683D01*
X124498939Y-101818570D01*
X124411418Y-101792021D01*
X124320400Y-101783056D01*
X124019600Y-101783056D01*
X123928582Y-101792021D01*
X123841061Y-101818570D01*
X123760402Y-101861683D01*
X123689704Y-101919704D01*
X123670000Y-101943713D01*
X123650296Y-101919704D01*
X123579598Y-101861683D01*
X123498939Y-101818570D01*
X123411418Y-101792021D01*
X123320400Y-101783056D01*
X123019600Y-101783056D01*
X122928582Y-101792021D01*
X122841061Y-101818570D01*
X122760402Y-101861683D01*
X122689704Y-101919704D01*
X122631683Y-101990402D01*
X122588570Y-102071061D01*
X122562021Y-102158582D01*
X122553056Y-102249600D01*
X122553056Y-102857867D01*
X122525970Y-102792475D01*
X122420264Y-102634274D01*
X122285726Y-102499736D01*
X122127525Y-102394030D01*
X121951743Y-102321219D01*
X121765133Y-102284100D01*
X121574867Y-102284100D01*
X121388257Y-102321219D01*
X121212475Y-102394030D01*
X121054274Y-102499736D01*
X120919736Y-102634274D01*
X120814030Y-102792475D01*
X120741219Y-102968257D01*
X120704100Y-103154867D01*
X117284406Y-103154867D01*
X116223595Y-102094057D01*
X116208877Y-102076123D01*
X116137325Y-102017402D01*
X116055693Y-101973769D01*
X115967116Y-101946900D01*
X115898077Y-101940100D01*
X115875000Y-101937827D01*
X115851923Y-101940100D01*
X84148076Y-101940100D01*
X84124999Y-101937827D01*
X84032883Y-101946900D01*
X83958496Y-101969465D01*
X83944307Y-101973769D01*
X83862675Y-102017402D01*
X83791123Y-102076123D01*
X83776410Y-102094051D01*
X80090362Y-105780100D01*
X78106944Y-105780100D01*
X78106944Y-105625000D01*
X78095570Y-105509517D01*
X78061885Y-105398473D01*
X78007183Y-105296134D01*
X77933568Y-105206432D01*
X77843866Y-105132817D01*
X77741527Y-105078115D01*
X77630483Y-105044430D01*
X77515000Y-105033056D01*
X76765000Y-105033056D01*
X76649517Y-105044430D01*
X76538473Y-105078115D01*
X76436134Y-105132817D01*
X76346432Y-105206432D01*
X76272817Y-105296134D01*
X76218115Y-105398473D01*
X76184430Y-105509517D01*
X76173056Y-105625000D01*
X75566944Y-105625000D01*
X75555570Y-105509517D01*
X75521885Y-105398473D01*
X75467183Y-105296134D01*
X75393568Y-105206432D01*
X75303866Y-105132817D01*
X75201527Y-105078115D01*
X75090483Y-105044430D01*
X74975000Y-105033056D01*
X74225000Y-105033056D01*
X74109517Y-105044430D01*
X73998473Y-105078115D01*
X73896134Y-105132817D01*
X73806432Y-105206432D01*
X73732817Y-105296134D01*
X73678115Y-105398473D01*
X73644430Y-105509517D01*
X73633056Y-105625000D01*
X73026944Y-105625000D01*
X73015570Y-105509517D01*
X72981885Y-105398473D01*
X72927183Y-105296134D01*
X72853568Y-105206432D01*
X72763866Y-105132817D01*
X72661527Y-105078115D01*
X72550483Y-105044430D01*
X72435000Y-105033056D01*
X71685000Y-105033056D01*
X71569517Y-105044430D01*
X71458473Y-105078115D01*
X71356134Y-105132817D01*
X71266432Y-105206432D01*
X71192817Y-105296134D01*
X71138115Y-105398473D01*
X71104430Y-105509517D01*
X71093056Y-105625000D01*
X70483977Y-105625000D01*
X70484392Y-105250000D01*
X70480273Y-105208174D01*
X70468072Y-105167956D01*
X70448260Y-105130890D01*
X70421598Y-105098402D01*
X70389110Y-105071740D01*
X70352044Y-105051928D01*
X70311826Y-105039727D01*
X70270000Y-105035608D01*
X69586040Y-105036640D01*
X69532700Y-105089980D01*
X69507300Y-105089980D01*
X69453960Y-105036640D01*
X68770000Y-105035608D01*
X68728174Y-105039727D01*
X68687956Y-105051928D01*
X68650890Y-105071740D01*
X68618402Y-105098402D01*
X68591740Y-105130890D01*
X68571928Y-105167956D01*
X68559727Y-105208174D01*
X68555608Y-105250000D01*
X57813500Y-105250000D01*
X57813500Y-103154867D01*
X67364100Y-103154867D01*
X67364100Y-103345133D01*
X67401219Y-103531743D01*
X67474030Y-103707525D01*
X67579736Y-103865726D01*
X67714274Y-104000264D01*
X67872475Y-104105970D01*
X68048257Y-104178781D01*
X68234867Y-104215900D01*
X68425133Y-104215900D01*
X68611743Y-104178781D01*
X68787525Y-104105970D01*
X68945726Y-104000264D01*
X69080264Y-103865726D01*
X69185970Y-103707525D01*
X69216363Y-103634150D01*
X69215608Y-104500000D01*
X69219727Y-104541826D01*
X69231928Y-104582044D01*
X69251740Y-104619110D01*
X69278402Y-104651598D01*
X69310890Y-104678260D01*
X69347956Y-104698072D01*
X69388174Y-104710273D01*
X69430000Y-104714392D01*
X69763960Y-104713360D01*
X69817300Y-104660020D01*
X69817300Y-103262700D01*
X69842700Y-103262700D01*
X69842700Y-104660020D01*
X69896040Y-104713360D01*
X70230000Y-104714392D01*
X70271826Y-104710273D01*
X70312044Y-104698072D01*
X70330000Y-104688474D01*
X70347956Y-104698072D01*
X70388174Y-104710273D01*
X70430000Y-104714392D01*
X70763960Y-104713360D01*
X70817300Y-104660020D01*
X70817300Y-103262700D01*
X70842700Y-103262700D01*
X70842700Y-104660020D01*
X70896040Y-104713360D01*
X71230000Y-104714392D01*
X71271826Y-104710273D01*
X71312044Y-104698072D01*
X71330000Y-104688474D01*
X71347956Y-104698072D01*
X71388174Y-104710273D01*
X71430000Y-104714392D01*
X71763960Y-104713360D01*
X71817300Y-104660020D01*
X71817300Y-103262700D01*
X70842700Y-103262700D01*
X70817300Y-103262700D01*
X69842700Y-103262700D01*
X69817300Y-103262700D01*
X69797300Y-103262700D01*
X69797300Y-103237300D01*
X69817300Y-103237300D01*
X69817300Y-101839980D01*
X69842700Y-101839980D01*
X69842700Y-103237300D01*
X70817300Y-103237300D01*
X70817300Y-101839980D01*
X70842700Y-101839980D01*
X70842700Y-103237300D01*
X71817300Y-103237300D01*
X71817300Y-101839980D01*
X71842700Y-101839980D01*
X71842700Y-103237300D01*
X71862700Y-103237300D01*
X71862700Y-103262700D01*
X71842700Y-103262700D01*
X71842700Y-104660020D01*
X71896040Y-104713360D01*
X72230000Y-104714392D01*
X72271826Y-104710273D01*
X72312044Y-104698072D01*
X72349110Y-104678260D01*
X72381598Y-104651598D01*
X72403728Y-104624633D01*
X72420402Y-104638317D01*
X72501061Y-104681430D01*
X72588582Y-104707979D01*
X72679600Y-104716944D01*
X72980400Y-104716944D01*
X73071418Y-104707979D01*
X73158939Y-104681430D01*
X73239598Y-104638317D01*
X73310296Y-104580296D01*
X73330000Y-104556287D01*
X73349704Y-104580296D01*
X73420402Y-104638317D01*
X73501061Y-104681430D01*
X73588582Y-104707979D01*
X73679600Y-104716944D01*
X73980400Y-104716944D01*
X74071418Y-104707979D01*
X74158939Y-104681430D01*
X74239598Y-104638317D01*
X74310296Y-104580296D01*
X74330000Y-104556287D01*
X74349704Y-104580296D01*
X74420402Y-104638317D01*
X74501061Y-104681430D01*
X74588582Y-104707979D01*
X74679600Y-104716944D01*
X74980400Y-104716944D01*
X75071418Y-104707979D01*
X75158939Y-104681430D01*
X75239598Y-104638317D01*
X75310296Y-104580296D01*
X75330000Y-104556287D01*
X75349704Y-104580296D01*
X75420402Y-104638317D01*
X75501061Y-104681430D01*
X75588582Y-104707979D01*
X75679600Y-104716944D01*
X75980400Y-104716944D01*
X76071418Y-104707979D01*
X76158939Y-104681430D01*
X76239598Y-104638317D01*
X76310296Y-104580296D01*
X76330000Y-104556287D01*
X76349704Y-104580296D01*
X76420402Y-104638317D01*
X76501061Y-104681430D01*
X76588582Y-104707979D01*
X76679600Y-104716944D01*
X76980400Y-104716944D01*
X77071418Y-104707979D01*
X77158939Y-104681430D01*
X77239598Y-104638317D01*
X77310296Y-104580296D01*
X77368317Y-104509598D01*
X77411430Y-104428939D01*
X77437979Y-104341418D01*
X77446944Y-104250400D01*
X77446944Y-103642133D01*
X77474030Y-103707525D01*
X77579736Y-103865726D01*
X77714274Y-104000264D01*
X77872475Y-104105970D01*
X78048257Y-104178781D01*
X78234867Y-104215900D01*
X78425133Y-104215900D01*
X78611743Y-104178781D01*
X78787525Y-104105970D01*
X78945726Y-104000264D01*
X79080264Y-103865726D01*
X79185970Y-103707525D01*
X79258781Y-103531743D01*
X79295900Y-103345133D01*
X79295900Y-103154867D01*
X79258781Y-102968257D01*
X79185970Y-102792475D01*
X79080264Y-102634274D01*
X78945726Y-102499736D01*
X78787525Y-102394030D01*
X78611743Y-102321219D01*
X78425133Y-102284100D01*
X78234867Y-102284100D01*
X78048257Y-102321219D01*
X77872475Y-102394030D01*
X77714274Y-102499736D01*
X77579736Y-102634274D01*
X77474030Y-102792475D01*
X77446944Y-102857867D01*
X77446944Y-102249600D01*
X77437979Y-102158582D01*
X77411430Y-102071061D01*
X77368317Y-101990402D01*
X77310296Y-101919704D01*
X77239598Y-101861683D01*
X77158939Y-101818570D01*
X77071418Y-101792021D01*
X76980400Y-101783056D01*
X76679600Y-101783056D01*
X76588582Y-101792021D01*
X76501061Y-101818570D01*
X76420402Y-101861683D01*
X76349704Y-101919704D01*
X76330000Y-101943713D01*
X76310296Y-101919704D01*
X76239598Y-101861683D01*
X76158939Y-101818570D01*
X76071418Y-101792021D01*
X75980400Y-101783056D01*
X75679600Y-101783056D01*
X75588582Y-101792021D01*
X75501061Y-101818570D01*
X75420402Y-101861683D01*
X75349704Y-101919704D01*
X75330000Y-101943713D01*
X75310296Y-101919704D01*
X75239598Y-101861683D01*
X75158939Y-101818570D01*
X75071418Y-101792021D01*
X74980400Y-101783056D01*
X74679600Y-101783056D01*
X74588582Y-101792021D01*
X74501061Y-101818570D01*
X74420402Y-101861683D01*
X74349704Y-101919704D01*
X74330000Y-101943713D01*
X74310296Y-101919704D01*
X74239598Y-101861683D01*
X74158939Y-101818570D01*
X74071418Y-101792021D01*
X73980400Y-101783056D01*
X73679600Y-101783056D01*
X73588582Y-101792021D01*
X73501061Y-101818570D01*
X73420402Y-101861683D01*
X73349704Y-101919704D01*
X73330000Y-101943713D01*
X73310296Y-101919704D01*
X73239598Y-101861683D01*
X73158939Y-101818570D01*
X73071418Y-101792021D01*
X72980400Y-101783056D01*
X72679600Y-101783056D01*
X72588582Y-101792021D01*
X72501061Y-101818570D01*
X72420402Y-101861683D01*
X72403728Y-101875367D01*
X72381598Y-101848402D01*
X72349110Y-101821740D01*
X72312044Y-101801928D01*
X72271826Y-101789727D01*
X72230000Y-101785608D01*
X71896040Y-101786640D01*
X71842700Y-101839980D01*
X71817300Y-101839980D01*
X71763960Y-101786640D01*
X71430000Y-101785608D01*
X71388174Y-101789727D01*
X71347956Y-101801928D01*
X71330000Y-101811526D01*
X71312044Y-101801928D01*
X71271826Y-101789727D01*
X71230000Y-101785608D01*
X70896040Y-101786640D01*
X70842700Y-101839980D01*
X70817300Y-101839980D01*
X70763960Y-101786640D01*
X70430000Y-101785608D01*
X70388174Y-101789727D01*
X70347956Y-101801928D01*
X70330000Y-101811526D01*
X70312044Y-101801928D01*
X70271826Y-101789727D01*
X70230000Y-101785608D01*
X69896040Y-101786640D01*
X69842700Y-101839980D01*
X69817300Y-101839980D01*
X69763960Y-101786640D01*
X69430000Y-101785608D01*
X69388174Y-101789727D01*
X69347956Y-101801928D01*
X69310890Y-101821740D01*
X69278402Y-101848402D01*
X69251740Y-101880890D01*
X69231928Y-101917956D01*
X69219727Y-101958174D01*
X69215608Y-102000000D01*
X69216363Y-102865850D01*
X69185970Y-102792475D01*
X69080264Y-102634274D01*
X68945726Y-102499736D01*
X68787525Y-102394030D01*
X68611743Y-102321219D01*
X68425133Y-102284100D01*
X68234867Y-102284100D01*
X68048257Y-102321219D01*
X67872475Y-102394030D01*
X67714274Y-102499736D01*
X67579736Y-102634274D01*
X67474030Y-102792475D01*
X67401219Y-102968257D01*
X67364100Y-103154867D01*
X57813500Y-103154867D01*
X57813500Y-101750000D01*
X57812280Y-101737612D01*
X57808666Y-101725700D01*
X57802798Y-101714721D01*
X57794901Y-101705099D01*
X57123401Y-101033599D01*
X57177735Y-100853638D01*
X57181527Y-100834490D01*
X57185590Y-100815373D01*
X57185905Y-100812381D01*
X57195404Y-100715500D01*
X66240738Y-100715500D01*
X67170140Y-101644903D01*
X67170140Y-101644903D01*
G37*
X67170140Y-101644903D02*
X67176882Y-101653118D01*
X67185097Y-101659860D01*
X67185099Y-101659862D01*
X67209695Y-101680048D01*
X67247133Y-101700059D01*
X67287754Y-101712381D01*
X67291550Y-101712755D01*
X67319421Y-101715500D01*
X67319428Y-101715500D01*
X67330000Y-101716541D01*
X67340571Y-101715500D01*
X79319431Y-101715500D01*
X79330000Y-101716541D01*
X79340569Y-101715500D01*
X79340579Y-101715500D01*
X79372245Y-101712381D01*
X79412867Y-101700059D01*
X79450304Y-101680048D01*
X79483118Y-101653118D01*
X79489864Y-101644898D01*
X80419263Y-100715500D01*
X119580738Y-100715500D01*
X120510140Y-101644903D01*
X120516882Y-101653118D01*
X120525097Y-101659860D01*
X120525099Y-101659862D01*
X120549695Y-101680048D01*
X120587133Y-101700059D01*
X120627754Y-101712381D01*
X120631550Y-101712755D01*
X120659421Y-101715500D01*
X120659428Y-101715500D01*
X120670000Y-101716541D01*
X120680571Y-101715500D01*
X132659431Y-101715500D01*
X132670000Y-101716541D01*
X132680569Y-101715500D01*
X132680579Y-101715500D01*
X132712245Y-101712381D01*
X132752867Y-101700059D01*
X132790304Y-101680048D01*
X132823118Y-101653118D01*
X132829864Y-101644898D01*
X133759263Y-100715500D01*
X142805118Y-100715500D01*
X142818622Y-100835889D01*
X142822685Y-100855006D01*
X142826477Y-100874154D01*
X142827366Y-100877029D01*
X142876928Y-101033270D01*
X142205099Y-101705099D01*
X142197202Y-101714721D01*
X142191334Y-101725700D01*
X142187720Y-101737612D01*
X142186500Y-101750000D01*
X142186500Y-105250000D01*
X142187720Y-105262388D01*
X142191334Y-105274300D01*
X142197202Y-105285279D01*
X142205099Y-105294901D01*
X142876599Y-105966401D01*
X142822265Y-106146361D01*
X142818470Y-106165524D01*
X142814410Y-106184627D01*
X142814095Y-106187619D01*
X142785528Y-106478971D01*
X142785528Y-106478994D01*
X142784501Y-106489421D01*
X142784500Y-112784500D01*
X141220500Y-112784500D01*
X141220500Y-107989421D01*
X141220427Y-107988677D01*
X141220398Y-107984541D01*
X141219374Y-107974797D01*
X141219374Y-107965009D01*
X141219060Y-107962016D01*
X141197305Y-107768066D01*
X141193243Y-107748956D01*
X141189450Y-107729801D01*
X141188563Y-107726937D01*
X141188561Y-107726927D01*
X141188557Y-107726918D01*
X141129547Y-107540896D01*
X141121852Y-107522941D01*
X141114410Y-107504887D01*
X141112979Y-107502240D01*
X141112979Y-107502239D01*
X141112976Y-107502235D01*
X141018957Y-107331215D01*
X141007945Y-107315132D01*
X140997114Y-107298831D01*
X140995196Y-107296513D01*
X140869746Y-107147007D01*
X140855781Y-107133331D01*
X140842027Y-107119481D01*
X140839696Y-107117579D01*
X140687596Y-106995288D01*
X140671196Y-106984556D01*
X140655060Y-106973672D01*
X140652407Y-106972261D01*
X140652403Y-106972258D01*
X140652399Y-106972256D01*
X140479448Y-106881839D01*
X140461335Y-106874521D01*
X140443331Y-106866953D01*
X140440455Y-106866085D01*
X140440449Y-106866083D01*
X140253225Y-106810981D01*
X140234035Y-106807320D01*
X140214907Y-106803394D01*
X140211913Y-106803100D01*
X140017551Y-106785411D01*
X139998019Y-106785547D01*
X139978487Y-106785411D01*
X139975503Y-106785704D01*
X139975493Y-106785704D01*
X139975484Y-106785706D01*
X139781395Y-106806106D01*
X139762267Y-106810032D01*
X139743078Y-106813693D01*
X139740197Y-106814562D01*
X139553759Y-106872274D01*
X139535734Y-106879851D01*
X139517644Y-106887160D01*
X139514987Y-106888573D01*
X139343310Y-106981398D01*
X139327134Y-106992309D01*
X139310773Y-107003015D01*
X139308449Y-107004911D01*
X139308442Y-107004916D01*
X139308436Y-107004922D01*
X139158064Y-107129321D01*
X139144311Y-107143170D01*
X139130347Y-107156845D01*
X139128434Y-107159158D01*
X139128428Y-107159164D01*
X139128424Y-107159171D01*
X139005078Y-107310406D01*
X138994263Y-107326684D01*
X138983235Y-107342790D01*
X138981808Y-107345429D01*
X138981803Y-107345437D01*
X138981800Y-107345445D01*
X138890179Y-107517759D01*
X138882740Y-107535807D01*
X138875041Y-107553769D01*
X138874155Y-107556634D01*
X138874151Y-107556644D01*
X138874149Y-107556654D01*
X138817743Y-107743480D01*
X138813950Y-107762635D01*
X138809888Y-107781745D01*
X138809573Y-107784737D01*
X138790529Y-107978971D01*
X138789500Y-107989422D01*
X138789501Y-112784500D01*
X130849070Y-112784500D01*
X130857545Y-112777545D01*
X130866693Y-112766398D01*
X131825818Y-111807273D01*
X131869188Y-111815900D01*
X131970812Y-111815900D01*
X132070482Y-111796074D01*
X132164370Y-111757184D01*
X132248867Y-111700726D01*
X132320726Y-111628867D01*
X132345292Y-111592100D01*
X133694708Y-111592100D01*
X133719274Y-111628867D01*
X133791133Y-111700726D01*
X133875630Y-111757184D01*
X133969518Y-111796074D01*
X134069188Y-111815900D01*
X134170812Y-111815900D01*
X134270482Y-111796074D01*
X134364370Y-111757184D01*
X134448867Y-111700726D01*
X134520726Y-111628867D01*
X134545292Y-111592100D01*
X135304708Y-111592100D01*
X135329274Y-111628867D01*
X135401133Y-111700726D01*
X135485630Y-111757184D01*
X135579518Y-111796074D01*
X135679188Y-111815900D01*
X135780812Y-111815900D01*
X135880482Y-111796074D01*
X135974370Y-111757184D01*
X136058867Y-111700726D01*
X136130726Y-111628867D01*
X136155292Y-111592100D01*
X137504708Y-111592100D01*
X137529274Y-111628867D01*
X137601133Y-111700726D01*
X137685630Y-111757184D01*
X137779518Y-111796074D01*
X137879188Y-111815900D01*
X137980812Y-111815900D01*
X138080482Y-111796074D01*
X138174370Y-111757184D01*
X138258867Y-111700726D01*
X138330726Y-111628867D01*
X138387184Y-111544370D01*
X138426074Y-111450482D01*
X138445900Y-111350812D01*
X138445900Y-111249188D01*
X138426074Y-111149518D01*
X138387184Y-111055630D01*
X138330726Y-110971133D01*
X138258867Y-110899274D01*
X138174370Y-110842816D01*
X138131359Y-110825000D01*
X138174370Y-110807184D01*
X138258867Y-110750726D01*
X138330726Y-110678867D01*
X138387184Y-110594370D01*
X138426074Y-110500482D01*
X138445900Y-110400812D01*
X138445900Y-110299188D01*
X138426074Y-110199518D01*
X138387184Y-110105630D01*
X138330726Y-110021133D01*
X138258867Y-109949274D01*
X138174370Y-109892816D01*
X138080482Y-109853926D01*
X137980812Y-109834100D01*
X137879188Y-109834100D01*
X137835818Y-109842727D01*
X137572693Y-109579602D01*
X137563545Y-109568455D01*
X137519067Y-109531953D01*
X137468323Y-109504829D01*
X137413262Y-109488127D01*
X137370346Y-109483900D01*
X137370338Y-109483900D01*
X137356000Y-109482488D01*
X137341662Y-109483900D01*
X131947364Y-109483900D01*
X131957545Y-109475545D01*
X131966693Y-109464398D01*
X132163818Y-109267273D01*
X132207188Y-109275900D01*
X132308812Y-109275900D01*
X132408482Y-109256074D01*
X132502370Y-109217184D01*
X132586867Y-109160726D01*
X132658726Y-109088867D01*
X132715184Y-109004370D01*
X132754074Y-108910482D01*
X132773900Y-108810812D01*
X132773900Y-108709188D01*
X132754074Y-108609518D01*
X132715184Y-108515630D01*
X132658726Y-108431133D01*
X132586867Y-108359274D01*
X132502370Y-108302816D01*
X132408482Y-108263926D01*
X132308812Y-108244100D01*
X132207188Y-108244100D01*
X132107518Y-108263926D01*
X132013630Y-108302816D01*
X131929133Y-108359274D01*
X131857274Y-108431133D01*
X131800816Y-108515630D01*
X131761926Y-108609518D01*
X131742100Y-108709188D01*
X131742100Y-108810812D01*
X131750727Y-108854182D01*
X131629009Y-108975900D01*
X129302846Y-108975900D01*
X129288500Y-108974487D01*
X129231238Y-108980127D01*
X129176177Y-108996829D01*
X129125433Y-109023953D01*
X129100950Y-109044046D01*
X129080955Y-109060455D01*
X129071811Y-109071597D01*
X128288182Y-109855227D01*
X128244812Y-109846600D01*
X128143188Y-109846600D01*
X128043518Y-109866426D01*
X127949630Y-109905316D01*
X127865133Y-109961774D01*
X127793274Y-110033633D01*
X127736816Y-110118130D01*
X127697926Y-110212018D01*
X127678100Y-110311688D01*
X127678100Y-110413312D01*
X127697926Y-110512982D01*
X127736816Y-110606870D01*
X127793274Y-110691367D01*
X127865133Y-110763226D01*
X127949630Y-110819684D01*
X128043518Y-110858574D01*
X128143188Y-110878400D01*
X128244812Y-110878400D01*
X128344482Y-110858574D01*
X128438370Y-110819684D01*
X128522867Y-110763226D01*
X128594726Y-110691367D01*
X128651184Y-110606870D01*
X128690074Y-110512982D01*
X128709900Y-110413312D01*
X128709900Y-110311688D01*
X128701273Y-110268318D01*
X129409492Y-109560100D01*
X130551082Y-109560100D01*
X130540901Y-109568455D01*
X130531753Y-109579602D01*
X130288155Y-109823200D01*
X130244785Y-109814573D01*
X130143161Y-109814573D01*
X130043491Y-109834399D01*
X129949603Y-109873289D01*
X129865106Y-109929747D01*
X129793247Y-110001606D01*
X129736789Y-110086103D01*
X129697899Y-110179991D01*
X129678073Y-110279661D01*
X129678073Y-110381285D01*
X129697899Y-110480955D01*
X129736789Y-110574843D01*
X129793247Y-110659340D01*
X129865106Y-110731199D01*
X129949603Y-110787657D01*
X130035621Y-110823287D01*
X129216009Y-111642900D01*
X128619292Y-111642900D01*
X128594726Y-111606133D01*
X128522867Y-111534274D01*
X128438370Y-111477816D01*
X128344482Y-111438926D01*
X128244812Y-111419100D01*
X128143188Y-111419100D01*
X128043518Y-111438926D01*
X127949630Y-111477816D01*
X127865133Y-111534274D01*
X127793274Y-111606133D01*
X127736816Y-111690630D01*
X127697926Y-111784518D01*
X127678100Y-111884188D01*
X127678100Y-111985812D01*
X127697926Y-112085482D01*
X127736816Y-112179370D01*
X127793274Y-112263867D01*
X127807307Y-112277900D01*
X125935191Y-112277900D01*
X126405819Y-111807273D01*
X126449188Y-111815900D01*
X126550812Y-111815900D01*
X126650482Y-111796074D01*
X126744370Y-111757184D01*
X126828867Y-111700726D01*
X126900726Y-111628867D01*
X126957184Y-111544370D01*
X126996074Y-111450482D01*
X127015900Y-111350812D01*
X127015900Y-111249188D01*
X126996074Y-111149518D01*
X126957184Y-111055630D01*
X126900726Y-110971133D01*
X126828867Y-110899274D01*
X126744370Y-110842816D01*
X126650482Y-110803926D01*
X126550812Y-110784100D01*
X126449188Y-110784100D01*
X126349518Y-110803926D01*
X126255630Y-110842816D01*
X126171133Y-110899274D01*
X126099274Y-110971133D01*
X126042816Y-111055630D01*
X126003926Y-111149518D01*
X125984100Y-111249188D01*
X125984100Y-111350812D01*
X125992727Y-111394181D01*
X125490009Y-111896900D01*
X123107991Y-111896900D01*
X122347078Y-111135987D01*
X122347078Y-110775292D01*
X122383845Y-110750726D01*
X122455704Y-110678867D01*
X122512162Y-110594370D01*
X122551052Y-110500482D01*
X122570878Y-110400812D01*
X122570878Y-110299188D01*
X122551052Y-110199518D01*
X122512162Y-110105630D01*
X122455704Y-110021133D01*
X122383845Y-109949274D01*
X122299348Y-109892816D01*
X122205460Y-109853926D01*
X122105790Y-109834100D01*
X122004166Y-109834100D01*
X121904496Y-109853926D01*
X121810608Y-109892816D01*
X121726111Y-109949274D01*
X121654252Y-110021133D01*
X121597794Y-110105630D01*
X121558904Y-110199518D01*
X121539078Y-110299188D01*
X121539078Y-110400812D01*
X121558904Y-110500482D01*
X121597794Y-110594370D01*
X121654252Y-110678867D01*
X121726111Y-110750726D01*
X121762879Y-110775293D01*
X121762878Y-111242640D01*
X121761466Y-111256978D01*
X121762878Y-111271316D01*
X121762878Y-111271323D01*
X121767105Y-111314239D01*
X121783807Y-111369300D01*
X121810931Y-111420044D01*
X121847433Y-111464523D01*
X121858580Y-111473671D01*
X122662809Y-112277900D01*
X120370872Y-112277900D01*
X120370872Y-112199188D01*
X120351046Y-112099518D01*
X120312156Y-112005630D01*
X120255698Y-111921133D01*
X120183839Y-111849274D01*
X120099342Y-111792816D01*
X120005454Y-111753926D01*
X119905784Y-111734100D01*
X119804160Y-111734100D01*
X119704490Y-111753926D01*
X119610602Y-111792816D01*
X119526105Y-111849274D01*
X119454246Y-111921133D01*
X119397788Y-112005630D01*
X119358898Y-112099518D01*
X119339072Y-112199188D01*
X119339072Y-112300812D01*
X119358898Y-112400482D01*
X119397788Y-112494370D01*
X119454246Y-112578867D01*
X119526105Y-112650726D01*
X119610602Y-112707184D01*
X119704490Y-112746074D01*
X119804160Y-112765900D01*
X119905784Y-112765900D01*
X119949154Y-112757273D01*
X119958279Y-112766398D01*
X119967427Y-112777545D01*
X119975902Y-112784500D01*
X118630500Y-112784500D01*
X118630500Y-109405579D01*
X118631542Y-109395000D01*
X118627381Y-109352755D01*
X118615059Y-109312133D01*
X118595048Y-109274696D01*
X118568118Y-109241882D01*
X118535304Y-109214952D01*
X118497867Y-109194941D01*
X118457245Y-109182619D01*
X118425579Y-109179500D01*
X118415000Y-109178458D01*
X118404421Y-109179500D01*
X114550500Y-109179500D01*
X114550500Y-107989421D01*
X114550427Y-107988677D01*
X114550398Y-107984541D01*
X114549374Y-107974797D01*
X114549374Y-107965009D01*
X114549060Y-107962016D01*
X114527305Y-107768066D01*
X114523243Y-107748956D01*
X114519450Y-107729801D01*
X114518563Y-107726937D01*
X114518561Y-107726927D01*
X114518557Y-107726918D01*
X114459547Y-107540896D01*
X114451852Y-107522941D01*
X114444410Y-107504887D01*
X114442979Y-107502240D01*
X114442979Y-107502239D01*
X114442976Y-107502235D01*
X114348957Y-107331215D01*
X114337945Y-107315132D01*
X114327114Y-107298831D01*
X114325196Y-107296513D01*
X114199746Y-107147007D01*
X114185781Y-107133331D01*
X114172027Y-107119481D01*
X114169696Y-107117579D01*
X114017596Y-106995288D01*
X114001196Y-106984556D01*
X113985060Y-106973672D01*
X113982407Y-106972261D01*
X113982403Y-106972258D01*
X113982399Y-106972256D01*
X113809448Y-106881839D01*
X113791335Y-106874521D01*
X113773331Y-106866953D01*
X113770455Y-106866085D01*
X113770449Y-106866083D01*
X113583225Y-106810981D01*
X113564035Y-106807320D01*
X113544907Y-106803394D01*
X113541913Y-106803100D01*
X113347551Y-106785411D01*
X113328019Y-106785547D01*
X113308487Y-106785411D01*
X113305503Y-106785704D01*
X113305493Y-106785704D01*
X113305484Y-106785706D01*
X113111395Y-106806106D01*
X113092267Y-106810032D01*
X113073078Y-106813693D01*
X113070197Y-106814562D01*
X112883759Y-106872274D01*
X112865734Y-106879851D01*
X112847644Y-106887160D01*
X112844987Y-106888573D01*
X112673310Y-106981398D01*
X112657134Y-106992309D01*
X112640773Y-107003015D01*
X112638449Y-107004911D01*
X112638442Y-107004916D01*
X112638436Y-107004922D01*
X112488064Y-107129321D01*
X112474311Y-107143170D01*
X112460347Y-107156845D01*
X112458434Y-107159158D01*
X112458428Y-107159164D01*
X112458424Y-107159171D01*
X112335078Y-107310406D01*
X112324263Y-107326684D01*
X112313235Y-107342790D01*
X112311808Y-107345429D01*
X112311803Y-107345437D01*
X112311800Y-107345445D01*
X112220179Y-107517759D01*
X112212740Y-107535807D01*
X112205041Y-107553769D01*
X112204155Y-107556634D01*
X112204151Y-107556644D01*
X112204149Y-107556654D01*
X112147743Y-107743480D01*
X112143950Y-107762635D01*
X112139888Y-107781745D01*
X112139573Y-107784737D01*
X112120529Y-107978971D01*
X112119500Y-107989422D01*
X112119501Y-112784500D01*
X107963591Y-112784500D01*
X107990818Y-112757273D01*
X108034188Y-112765900D01*
X108135812Y-112765900D01*
X108235482Y-112746074D01*
X108329370Y-112707184D01*
X108413867Y-112650726D01*
X108485726Y-112578867D01*
X108542184Y-112494370D01*
X108581074Y-112400482D01*
X108600900Y-112300812D01*
X108600900Y-112199188D01*
X108581074Y-112099518D01*
X108542184Y-112005630D01*
X108485726Y-111921133D01*
X108413867Y-111849274D01*
X108329370Y-111792816D01*
X108235482Y-111753926D01*
X108135812Y-111734100D01*
X108034188Y-111734100D01*
X107934518Y-111753926D01*
X107840630Y-111792816D01*
X107756133Y-111849274D01*
X107684274Y-111921133D01*
X107627816Y-112005630D01*
X107588926Y-112099518D01*
X107569100Y-112199188D01*
X107569100Y-112300812D01*
X107577727Y-112344182D01*
X107568299Y-112353610D01*
X100271271Y-112353610D01*
X100328867Y-112315126D01*
X100400726Y-112243267D01*
X100457184Y-112158770D01*
X100496074Y-112064882D01*
X100515900Y-111965212D01*
X100515900Y-111863588D01*
X100496074Y-111763918D01*
X100457184Y-111670030D01*
X100400726Y-111585533D01*
X100328867Y-111513674D01*
X100244370Y-111457216D01*
X100150482Y-111418326D01*
X100050812Y-111398500D01*
X99949188Y-111398500D01*
X99849518Y-111418326D01*
X99755630Y-111457216D01*
X99671133Y-111513674D01*
X99599274Y-111585533D01*
X99542816Y-111670030D01*
X99503926Y-111763918D01*
X99484100Y-111863588D01*
X99484100Y-111965212D01*
X99492727Y-112008582D01*
X99477409Y-112023900D01*
X92902591Y-112023900D01*
X92887273Y-112008582D01*
X92895900Y-111965212D01*
X92895900Y-111863588D01*
X92876074Y-111763918D01*
X92837184Y-111670030D01*
X92780726Y-111585533D01*
X92708867Y-111513674D01*
X92624370Y-111457216D01*
X92530482Y-111418326D01*
X92430812Y-111398500D01*
X92329188Y-111398500D01*
X92229518Y-111418326D01*
X92135630Y-111457216D01*
X92051133Y-111513674D01*
X91979274Y-111585533D01*
X91922816Y-111670030D01*
X91883926Y-111763918D01*
X91864100Y-111863588D01*
X91864100Y-111965212D01*
X91883926Y-112064882D01*
X91922816Y-112158770D01*
X91979274Y-112243267D01*
X92051133Y-112315126D01*
X92108729Y-112353610D01*
X89528702Y-112353610D01*
X88424280Y-111249188D01*
X89816100Y-111249188D01*
X89816100Y-111350812D01*
X89835926Y-111450482D01*
X89874816Y-111544370D01*
X89931274Y-111628867D01*
X90003133Y-111700726D01*
X90087630Y-111757184D01*
X90181518Y-111796074D01*
X90281188Y-111815900D01*
X90382812Y-111815900D01*
X90482482Y-111796074D01*
X90576370Y-111757184D01*
X90660867Y-111700726D01*
X90732726Y-111628867D01*
X90789184Y-111544370D01*
X90828074Y-111450482D01*
X90847900Y-111350812D01*
X90847900Y-111249188D01*
X90828074Y-111149518D01*
X90789184Y-111055630D01*
X90732726Y-110971133D01*
X90660867Y-110899274D01*
X90624100Y-110874708D01*
X90624100Y-110288991D01*
X91905819Y-109007273D01*
X91949188Y-109015900D01*
X92050812Y-109015900D01*
X92150482Y-108996074D01*
X92244370Y-108957184D01*
X92328867Y-108900726D01*
X92400726Y-108828867D01*
X92457184Y-108744370D01*
X92496074Y-108650482D01*
X92515900Y-108550812D01*
X92515900Y-108449188D01*
X92496074Y-108349518D01*
X92457184Y-108255630D01*
X92400726Y-108171133D01*
X92328867Y-108099274D01*
X92244370Y-108042816D01*
X92150482Y-108003926D01*
X92050812Y-107984100D01*
X91949188Y-107984100D01*
X91849518Y-108003926D01*
X91755630Y-108042816D01*
X91671133Y-108099274D01*
X91599274Y-108171133D01*
X91542816Y-108255630D01*
X91503926Y-108349518D01*
X91484100Y-108449188D01*
X91484100Y-108550812D01*
X91492727Y-108594181D01*
X90135598Y-109951311D01*
X90124456Y-109960455D01*
X90115312Y-109971597D01*
X90115310Y-109971599D01*
X90087953Y-110004934D01*
X90060829Y-110055678D01*
X90044127Y-110110739D01*
X90038488Y-110168000D01*
X90039901Y-110182348D01*
X90039900Y-110874707D01*
X90003133Y-110899274D01*
X89931274Y-110971133D01*
X89874816Y-111055630D01*
X89835926Y-111149518D01*
X89816100Y-111249188D01*
X88424280Y-111249188D01*
X88227100Y-111052009D01*
X88227100Y-107504346D01*
X88228513Y-107490000D01*
X88222873Y-107432738D01*
X88206171Y-107377677D01*
X88179047Y-107326933D01*
X88151690Y-107293598D01*
X88151689Y-107293597D01*
X88142545Y-107282455D01*
X88131403Y-107273311D01*
X87389693Y-106531602D01*
X87380545Y-106520455D01*
X87336067Y-106483953D01*
X87285323Y-106456829D01*
X87230262Y-106440127D01*
X87187346Y-106435900D01*
X87187338Y-106435900D01*
X87173000Y-106434488D01*
X87158662Y-106435900D01*
X86171346Y-106435900D01*
X86157000Y-106434487D01*
X86142654Y-106435900D01*
X86099738Y-106440127D01*
X86044677Y-106456829D01*
X85993933Y-106483953D01*
X85949455Y-106520455D01*
X85940311Y-106531597D01*
X85198602Y-107273307D01*
X85187455Y-107282455D01*
X85150953Y-107326934D01*
X85123829Y-107377678D01*
X85107127Y-107432739D01*
X85102900Y-107475655D01*
X85102900Y-107475662D01*
X85101488Y-107490000D01*
X85102900Y-107504338D01*
X85102901Y-108639007D01*
X84512009Y-109229900D01*
X82107335Y-109229900D01*
X82092999Y-109228488D01*
X82078663Y-109229900D01*
X82078654Y-109229900D01*
X82035738Y-109234127D01*
X81980677Y-109250829D01*
X81929933Y-109277953D01*
X81885455Y-109314455D01*
X81876311Y-109325597D01*
X81388602Y-109813307D01*
X81377455Y-109822455D01*
X81340953Y-109866934D01*
X81313829Y-109917678D01*
X81297127Y-109972739D01*
X81292900Y-110015655D01*
X81292900Y-110015662D01*
X81291488Y-110030000D01*
X81292900Y-110044338D01*
X81292901Y-111494007D01*
X80829009Y-111957900D01*
X78370316Y-111957900D01*
X78345750Y-111921133D01*
X78273891Y-111849274D01*
X78189394Y-111792816D01*
X78095506Y-111753926D01*
X77995836Y-111734100D01*
X77894212Y-111734100D01*
X77794542Y-111753926D01*
X77700654Y-111792816D01*
X77616157Y-111849274D01*
X77544298Y-111921133D01*
X77542266Y-111924175D01*
X77432100Y-111814009D01*
X77432100Y-110713493D01*
X77503494Y-110642100D01*
X77519712Y-110642100D01*
X77544278Y-110678867D01*
X77616137Y-110750726D01*
X77700634Y-110807184D01*
X77794522Y-110846074D01*
X77894192Y-110865900D01*
X77995816Y-110865900D01*
X78095486Y-110846074D01*
X78189374Y-110807184D01*
X78273871Y-110750726D01*
X78345730Y-110678867D01*
X78402188Y-110594370D01*
X78441078Y-110500482D01*
X78460904Y-110400812D01*
X78460904Y-110299188D01*
X78441078Y-110199518D01*
X78402188Y-110105630D01*
X78345730Y-110021133D01*
X78273871Y-109949274D01*
X78189374Y-109892816D01*
X78095486Y-109853926D01*
X77995816Y-109834100D01*
X77894192Y-109834100D01*
X77794522Y-109853926D01*
X77700634Y-109892816D01*
X77616137Y-109949274D01*
X77544278Y-110021133D01*
X77519712Y-110057900D01*
X77396848Y-110057900D01*
X77382502Y-110056487D01*
X77368156Y-110057900D01*
X77325240Y-110062127D01*
X77270179Y-110078829D01*
X77219435Y-110105953D01*
X77174957Y-110142455D01*
X77165813Y-110153597D01*
X76943597Y-110375814D01*
X76932456Y-110384957D01*
X76923312Y-110396099D01*
X76923310Y-110396101D01*
X76895953Y-110429436D01*
X76868829Y-110480180D01*
X76852127Y-110535241D01*
X76846488Y-110592502D01*
X76847901Y-110606850D01*
X76847900Y-111814008D01*
X76207619Y-112454290D01*
X70234440Y-112454290D01*
X70270074Y-112368262D01*
X70289900Y-112268592D01*
X70289900Y-112166968D01*
X70270074Y-112067298D01*
X70231184Y-111973410D01*
X70174726Y-111888913D01*
X70102867Y-111817054D01*
X70018370Y-111760596D01*
X69924482Y-111721706D01*
X69824812Y-111701880D01*
X69723188Y-111701880D01*
X69679819Y-111710507D01*
X68122913Y-110153602D01*
X68113765Y-110142455D01*
X68069287Y-110105953D01*
X68018543Y-110078829D01*
X67963482Y-110062127D01*
X67920566Y-110057900D01*
X67920558Y-110057900D01*
X67906220Y-110056488D01*
X67891882Y-110057900D01*
X64695292Y-110057900D01*
X64670726Y-110021133D01*
X64598867Y-109949274D01*
X64514370Y-109892816D01*
X64420482Y-109853926D01*
X64320812Y-109834100D01*
X64219188Y-109834100D01*
X64119518Y-109853926D01*
X64025630Y-109892816D01*
X63941133Y-109949274D01*
X63869274Y-110021133D01*
X63812816Y-110105630D01*
X63773926Y-110199518D01*
X63754100Y-110299188D01*
X63754100Y-110400812D01*
X63773926Y-110500482D01*
X63812816Y-110594370D01*
X63869274Y-110678867D01*
X63941133Y-110750726D01*
X64025630Y-110807184D01*
X64119518Y-110846074D01*
X64219188Y-110865900D01*
X64320812Y-110865900D01*
X64420482Y-110846074D01*
X64514370Y-110807184D01*
X64598867Y-110750726D01*
X64670726Y-110678867D01*
X64695292Y-110642100D01*
X67785229Y-110642100D01*
X67944143Y-110801014D01*
X67929502Y-110803926D01*
X67835614Y-110842816D01*
X67751117Y-110899274D01*
X67679258Y-110971133D01*
X67654692Y-111007900D01*
X66305318Y-111007900D01*
X66280752Y-110971133D01*
X66208893Y-110899274D01*
X66124396Y-110842816D01*
X66030508Y-110803926D01*
X65930838Y-110784100D01*
X65829214Y-110784100D01*
X65729544Y-110803926D01*
X65635656Y-110842816D01*
X65551159Y-110899274D01*
X65479300Y-110971133D01*
X65454734Y-111007900D01*
X64123902Y-111007900D01*
X64099336Y-110971133D01*
X64027477Y-110899274D01*
X63942980Y-110842816D01*
X63849092Y-110803926D01*
X63749422Y-110784100D01*
X63647798Y-110784100D01*
X63548128Y-110803926D01*
X63454240Y-110842816D01*
X63369743Y-110899274D01*
X63297884Y-110971133D01*
X63273318Y-111007900D01*
X62495310Y-111007900D01*
X62470744Y-110971133D01*
X62398885Y-110899274D01*
X62314388Y-110842816D01*
X62271368Y-110824996D01*
X62314370Y-110807184D01*
X62398867Y-110750726D01*
X62470726Y-110678867D01*
X62527184Y-110594370D01*
X62566074Y-110500482D01*
X62585900Y-110400812D01*
X62585900Y-110299188D01*
X62566074Y-110199518D01*
X62527184Y-110105630D01*
X62470726Y-110021133D01*
X62398867Y-109949274D01*
X62314370Y-109892816D01*
X62220482Y-109853926D01*
X62120812Y-109834100D01*
X62019188Y-109834100D01*
X61919518Y-109853926D01*
X61825630Y-109892816D01*
X61741133Y-109949274D01*
X61669274Y-110021133D01*
X61612816Y-110105630D01*
X61573926Y-110199518D01*
X61554100Y-110299188D01*
X61554100Y-110400812D01*
X61562727Y-110444182D01*
X61344978Y-110661931D01*
X61333836Y-110671075D01*
X61324692Y-110682217D01*
X61324690Y-110682219D01*
X61297333Y-110715554D01*
X61270209Y-110766298D01*
X61253507Y-110821359D01*
X61247868Y-110878620D01*
X61249281Y-110892968D01*
X61249280Y-111550716D01*
X61247868Y-111565055D01*
X61249280Y-111579393D01*
X61249280Y-111579400D01*
X61253507Y-111622316D01*
X61270209Y-111677377D01*
X61297333Y-111728121D01*
X61333835Y-111772600D01*
X61344982Y-111781748D01*
X62009634Y-112446401D01*
X62018780Y-112457545D01*
X62029922Y-112466689D01*
X62029923Y-112466690D01*
X62063258Y-112494047D01*
X62114002Y-112521171D01*
X62169063Y-112537873D01*
X62226325Y-112543513D01*
X62240671Y-112542100D01*
X63844708Y-112542100D01*
X63869274Y-112578867D01*
X63941133Y-112650726D01*
X64025630Y-112707184D01*
X64119518Y-112746074D01*
X64219188Y-112765900D01*
X64320812Y-112765900D01*
X64420482Y-112746074D01*
X64514370Y-112707184D01*
X64598867Y-112650726D01*
X64670726Y-112578867D01*
X64727184Y-112494370D01*
X64766074Y-112400482D01*
X64785900Y-112300812D01*
X64785900Y-112199188D01*
X64766074Y-112099518D01*
X64727184Y-112005630D01*
X64670726Y-111921133D01*
X64598867Y-111849274D01*
X64514370Y-111792816D01*
X64420482Y-111753926D01*
X64320812Y-111734100D01*
X64219188Y-111734100D01*
X64119518Y-111753926D01*
X64025630Y-111792816D01*
X63941133Y-111849274D01*
X63869274Y-111921133D01*
X63844708Y-111957900D01*
X62347317Y-111957900D01*
X62191299Y-111801883D01*
X62220500Y-111796074D01*
X62314388Y-111757184D01*
X62398885Y-111700726D01*
X62470744Y-111628867D01*
X62495310Y-111592100D01*
X63273318Y-111592100D01*
X63297884Y-111628867D01*
X63369743Y-111700726D01*
X63454240Y-111757184D01*
X63548128Y-111796074D01*
X63647798Y-111815900D01*
X63749422Y-111815900D01*
X63849092Y-111796074D01*
X63942980Y-111757184D01*
X64027477Y-111700726D01*
X64099336Y-111628867D01*
X64123902Y-111592100D01*
X65454734Y-111592100D01*
X65479300Y-111628867D01*
X65551159Y-111700726D01*
X65635656Y-111757184D01*
X65729544Y-111796074D01*
X65829214Y-111815900D01*
X65930838Y-111815900D01*
X66030508Y-111796074D01*
X66124396Y-111757184D01*
X66208893Y-111700726D01*
X66280752Y-111628867D01*
X66305318Y-111592100D01*
X67654692Y-111592100D01*
X67679258Y-111628867D01*
X67751117Y-111700726D01*
X67835614Y-111757184D01*
X67929502Y-111796074D01*
X68029172Y-111815900D01*
X68130796Y-111815900D01*
X68174166Y-111807273D01*
X69151393Y-112784500D01*
X61210500Y-112784500D01*
X61210500Y-107989421D01*
X61210427Y-107988677D01*
X61210398Y-107984541D01*
X61209374Y-107974797D01*
X61209374Y-107965009D01*
X61209060Y-107962016D01*
X61187305Y-107768066D01*
X61183243Y-107748956D01*
X61179450Y-107729801D01*
X61178563Y-107726937D01*
X61178561Y-107726927D01*
X61178557Y-107726918D01*
X61119547Y-107540896D01*
X61111852Y-107522941D01*
X61104410Y-107504887D01*
X61102979Y-107502240D01*
X61102979Y-107502239D01*
X61102976Y-107502235D01*
X61008957Y-107331215D01*
X60997945Y-107315132D01*
X60987114Y-107298831D01*
X60985196Y-107296513D01*
X60946168Y-107250000D01*
X68555608Y-107250000D01*
X68559727Y-107291826D01*
X68571928Y-107332044D01*
X68591740Y-107369110D01*
X68618402Y-107401598D01*
X68650890Y-107428260D01*
X68687956Y-107448072D01*
X68728174Y-107460273D01*
X68770000Y-107464392D01*
X69453960Y-107463360D01*
X69507300Y-107410020D01*
X69507300Y-106262700D01*
X69532700Y-106262700D01*
X69532700Y-107410020D01*
X69586040Y-107463360D01*
X70270000Y-107464392D01*
X70311826Y-107460273D01*
X70352044Y-107448072D01*
X70389110Y-107428260D01*
X70421598Y-107401598D01*
X70448260Y-107369110D01*
X70468072Y-107332044D01*
X70480273Y-107291826D01*
X70484392Y-107250000D01*
X70483360Y-106316040D01*
X70430020Y-106262700D01*
X69532700Y-106262700D01*
X69507300Y-106262700D01*
X68609980Y-106262700D01*
X68556640Y-106316040D01*
X68555608Y-107250000D01*
X60946168Y-107250000D01*
X60859746Y-107147007D01*
X60845781Y-107133331D01*
X60832027Y-107119481D01*
X60829696Y-107117579D01*
X60677596Y-106995288D01*
X60661196Y-106984556D01*
X60645060Y-106973672D01*
X60642407Y-106972261D01*
X60642403Y-106972258D01*
X60642399Y-106972256D01*
X60469448Y-106881839D01*
X60451335Y-106874521D01*
X60433331Y-106866953D01*
X60430455Y-106866085D01*
X60430449Y-106866083D01*
X60243225Y-106810981D01*
X60224035Y-106807320D01*
X60204907Y-106803394D01*
X60201913Y-106803100D01*
X60007551Y-106785411D01*
X59988019Y-106785547D01*
X59968487Y-106785411D01*
X59965503Y-106785704D01*
X59965493Y-106785704D01*
X59965484Y-106785706D01*
X59771395Y-106806106D01*
X59752267Y-106810032D01*
X59733078Y-106813693D01*
X59730197Y-106814562D01*
X59543759Y-106872274D01*
X59525734Y-106879851D01*
X59507644Y-106887160D01*
X59504987Y-106888573D01*
X59333310Y-106981398D01*
X59317134Y-106992309D01*
X59300773Y-107003015D01*
X59298449Y-107004911D01*
X59298442Y-107004916D01*
X59298436Y-107004922D01*
X59148064Y-107129321D01*
X59134311Y-107143170D01*
X59120347Y-107156845D01*
X59118434Y-107159158D01*
X59118428Y-107159164D01*
X59118424Y-107159171D01*
X58995078Y-107310406D01*
X58984263Y-107326684D01*
X58973235Y-107342790D01*
X58971808Y-107345429D01*
X58971803Y-107345437D01*
X58971800Y-107345445D01*
X58880179Y-107517759D01*
X58872740Y-107535807D01*
X58865041Y-107553769D01*
X58864155Y-107556634D01*
X58864151Y-107556644D01*
X58864149Y-107556654D01*
X58807743Y-107743480D01*
X58803950Y-107762635D01*
X58799888Y-107781745D01*
X58799573Y-107784737D01*
X58780529Y-107978971D01*
X58779500Y-107989422D01*
X58779501Y-112784500D01*
X57215500Y-112784500D01*
X57215500Y-106489421D01*
X57215427Y-106488675D01*
X57215349Y-106477555D01*
X57214325Y-106467814D01*
X57214325Y-106458027D01*
X57214011Y-106455035D01*
X57181378Y-106164110D01*
X57177312Y-106144979D01*
X57173523Y-106125846D01*
X57172634Y-106122971D01*
X57123072Y-105966730D01*
X57794901Y-105294901D01*
X57802798Y-105285279D01*
X57808666Y-105274300D01*
X57812280Y-105262388D01*
X57813500Y-105250000D01*
X68555608Y-105250000D01*
X68556640Y-106183960D01*
X68609980Y-106237300D01*
X69507300Y-106237300D01*
X69507300Y-105089980D01*
X69532700Y-105089980D01*
X69532700Y-106237300D01*
X70430020Y-106237300D01*
X70483360Y-106183960D01*
X70483977Y-105625000D01*
X71093056Y-105625000D01*
X71093056Y-106875000D01*
X71104430Y-106990483D01*
X71138115Y-107101527D01*
X71192817Y-107203866D01*
X71266432Y-107293568D01*
X71356134Y-107367183D01*
X71458473Y-107421885D01*
X71569517Y-107455570D01*
X71685000Y-107466944D01*
X71786288Y-107466944D01*
X71788829Y-107475322D01*
X71815953Y-107526066D01*
X71841048Y-107556644D01*
X71852456Y-107570545D01*
X71863598Y-107579689D01*
X73207900Y-108923992D01*
X73207900Y-108926708D01*
X73171133Y-108951274D01*
X73099274Y-109023133D01*
X73042816Y-109107630D01*
X73003926Y-109201518D01*
X72984100Y-109301188D01*
X72984100Y-109402812D01*
X73003926Y-109502482D01*
X73042816Y-109596370D01*
X73099274Y-109680867D01*
X73171133Y-109752726D01*
X73255630Y-109809184D01*
X73349518Y-109848074D01*
X73364228Y-109851000D01*
X73349518Y-109853926D01*
X73255630Y-109892816D01*
X73171133Y-109949274D01*
X73099274Y-110021133D01*
X73042816Y-110105630D01*
X73003926Y-110199518D01*
X72984100Y-110299188D01*
X72984100Y-110400812D01*
X73003926Y-110500482D01*
X73042816Y-110594370D01*
X73099274Y-110678867D01*
X73171133Y-110750726D01*
X73255630Y-110807184D01*
X73349518Y-110846074D01*
X73449188Y-110865900D01*
X73550812Y-110865900D01*
X73650482Y-110846074D01*
X73744370Y-110807184D01*
X73828867Y-110750726D01*
X73900726Y-110678867D01*
X73925292Y-110642100D01*
X75274708Y-110642100D01*
X75299274Y-110678867D01*
X75371133Y-110750726D01*
X75455630Y-110807184D01*
X75498641Y-110825000D01*
X75455630Y-110842816D01*
X75371133Y-110899274D01*
X75299274Y-110971133D01*
X75242816Y-111055630D01*
X75203926Y-111149518D01*
X75184100Y-111249188D01*
X75184100Y-111350812D01*
X75203926Y-111450482D01*
X75242816Y-111544370D01*
X75299274Y-111628867D01*
X75371133Y-111700726D01*
X75455630Y-111757184D01*
X75549518Y-111796074D01*
X75649188Y-111815900D01*
X75750812Y-111815900D01*
X75850482Y-111796074D01*
X75944370Y-111757184D01*
X76028867Y-111700726D01*
X76100726Y-111628867D01*
X76155918Y-111546265D01*
X76160067Y-111544047D01*
X76204545Y-111507545D01*
X76213693Y-111496398D01*
X76574399Y-111135692D01*
X76585545Y-111126545D01*
X76622047Y-111082067D01*
X76649171Y-111031323D01*
X76665873Y-110976262D01*
X76670100Y-110933346D01*
X76670100Y-110933337D01*
X76671512Y-110919001D01*
X76670100Y-110904665D01*
X76670100Y-110277991D01*
X77133992Y-109814100D01*
X79195983Y-109814100D01*
X79637701Y-110255818D01*
X79629074Y-110299188D01*
X79629074Y-110400812D01*
X79648900Y-110500482D01*
X79687790Y-110594370D01*
X79744248Y-110678867D01*
X79816107Y-110750726D01*
X79900604Y-110807184D01*
X79994492Y-110846074D01*
X80094162Y-110865900D01*
X80195786Y-110865900D01*
X80295456Y-110846074D01*
X80389344Y-110807184D01*
X80473841Y-110750726D01*
X80545700Y-110678867D01*
X80602158Y-110594370D01*
X80641048Y-110500482D01*
X80660874Y-110400812D01*
X80660874Y-110299188D01*
X80641048Y-110199518D01*
X80602158Y-110105630D01*
X80545700Y-110021133D01*
X80473841Y-109949274D01*
X80389344Y-109892816D01*
X80295456Y-109853926D01*
X80195786Y-109834100D01*
X80094162Y-109834100D01*
X80050792Y-109842727D01*
X79533667Y-109325602D01*
X79524519Y-109314455D01*
X79480041Y-109277953D01*
X79429297Y-109250829D01*
X79374236Y-109234127D01*
X79331320Y-109229900D01*
X79331312Y-109229900D01*
X79316974Y-109228488D01*
X79302636Y-109229900D01*
X77027346Y-109229900D01*
X77013000Y-109228487D01*
X76955738Y-109234127D01*
X76900677Y-109250829D01*
X76849933Y-109277953D01*
X76827263Y-109296558D01*
X76805455Y-109314455D01*
X76796311Y-109325597D01*
X76181598Y-109940311D01*
X76170456Y-109949455D01*
X76161312Y-109960597D01*
X76161310Y-109960599D01*
X76133953Y-109993934D01*
X76111109Y-110036672D01*
X76100726Y-110021133D01*
X76028867Y-109949274D01*
X75944370Y-109892816D01*
X75850482Y-109853926D01*
X75750812Y-109834100D01*
X75649188Y-109834100D01*
X75549518Y-109853926D01*
X75455630Y-109892816D01*
X75371133Y-109949274D01*
X75299274Y-110021133D01*
X75274708Y-110057900D01*
X73925292Y-110057900D01*
X73900726Y-110021133D01*
X73828867Y-109949274D01*
X73744370Y-109892816D01*
X73650482Y-109853926D01*
X73635772Y-109851000D01*
X73650482Y-109848074D01*
X73744370Y-109809184D01*
X73828867Y-109752726D01*
X73900726Y-109680867D01*
X73957184Y-109596370D01*
X73996074Y-109502482D01*
X74015900Y-109402812D01*
X74015900Y-109301188D01*
X73996074Y-109201518D01*
X73957184Y-109107630D01*
X73900726Y-109023133D01*
X73828867Y-108951274D01*
X73792100Y-108926708D01*
X73792100Y-108817346D01*
X73793513Y-108803000D01*
X73787873Y-108745738D01*
X73771171Y-108690677D01*
X73744047Y-108639933D01*
X73716690Y-108606598D01*
X73716689Y-108606597D01*
X73707545Y-108595455D01*
X73696404Y-108586312D01*
X73438280Y-108328188D01*
X80307108Y-108328188D01*
X80307108Y-108429812D01*
X80326934Y-108529482D01*
X80365824Y-108623370D01*
X80422282Y-108707867D01*
X80494141Y-108779726D01*
X80578638Y-108836184D01*
X80672526Y-108875074D01*
X80772196Y-108894900D01*
X80873820Y-108894900D01*
X80973490Y-108875074D01*
X81067378Y-108836184D01*
X81151875Y-108779726D01*
X81209701Y-108721900D01*
X82722307Y-108721900D01*
X82780133Y-108779726D01*
X82864630Y-108836184D01*
X82958518Y-108875074D01*
X83058188Y-108894900D01*
X83159812Y-108894900D01*
X83259482Y-108875074D01*
X83353370Y-108836184D01*
X83437867Y-108779726D01*
X83509726Y-108707867D01*
X83566184Y-108623370D01*
X83605074Y-108529482D01*
X83624900Y-108429812D01*
X83624900Y-108328188D01*
X83605074Y-108228518D01*
X83566184Y-108134630D01*
X83509726Y-108050133D01*
X83437867Y-107978274D01*
X83353370Y-107921816D01*
X83259482Y-107882926D01*
X83159812Y-107863100D01*
X83058188Y-107863100D01*
X82958518Y-107882926D01*
X82864630Y-107921816D01*
X82780133Y-107978274D01*
X82722307Y-108036100D01*
X81209701Y-108036100D01*
X81151875Y-107978274D01*
X81067378Y-107921816D01*
X80973490Y-107882926D01*
X80873820Y-107863100D01*
X80772196Y-107863100D01*
X80672526Y-107882926D01*
X80578638Y-107921816D01*
X80494141Y-107978274D01*
X80422282Y-108050133D01*
X80365824Y-108134630D01*
X80326934Y-108228518D01*
X80307108Y-108328188D01*
X73438280Y-108328188D01*
X72562129Y-107452037D01*
X72661527Y-107421885D01*
X72763866Y-107367183D01*
X72853568Y-107293568D01*
X72927183Y-107203866D01*
X72981885Y-107101527D01*
X73015570Y-106990483D01*
X73026944Y-106875000D01*
X73026944Y-105625000D01*
X73633056Y-105625000D01*
X73633056Y-106875000D01*
X73644430Y-106990483D01*
X73678115Y-107101527D01*
X73732817Y-107203866D01*
X73806432Y-107293568D01*
X73896134Y-107367183D01*
X73998473Y-107421885D01*
X74109517Y-107455570D01*
X74225000Y-107466944D01*
X74975000Y-107466944D01*
X75090483Y-107455570D01*
X75201527Y-107421885D01*
X75303866Y-107367183D01*
X75393568Y-107293568D01*
X75467183Y-107203866D01*
X75521885Y-107101527D01*
X75555570Y-106990483D01*
X75566944Y-106875000D01*
X75566944Y-105625000D01*
X76173056Y-105625000D01*
X76173056Y-106875000D01*
X76184430Y-106990483D01*
X76218115Y-107101527D01*
X76272817Y-107203866D01*
X76346432Y-107293568D01*
X76436134Y-107367183D01*
X76538473Y-107421885D01*
X76649517Y-107455570D01*
X76765000Y-107466944D01*
X77515000Y-107466944D01*
X77630483Y-107455570D01*
X77741527Y-107421885D01*
X77843866Y-107367183D01*
X77933568Y-107293568D01*
X78007183Y-107203866D01*
X78061885Y-107101527D01*
X78095570Y-106990483D01*
X78106944Y-106875000D01*
X78106944Y-106719900D01*
X80261923Y-106719900D01*
X80285000Y-106722173D01*
X80308077Y-106719900D01*
X80377116Y-106713100D01*
X80465693Y-106686231D01*
X80547325Y-106642598D01*
X80618877Y-106583877D01*
X80633595Y-106565943D01*
X84319639Y-102879900D01*
X88912900Y-102879900D01*
X88912901Y-105794707D01*
X88876133Y-105819274D01*
X88804274Y-105891133D01*
X88747816Y-105975630D01*
X88708926Y-106069518D01*
X88689100Y-106169188D01*
X88689100Y-106270812D01*
X88708926Y-106370482D01*
X88747816Y-106464370D01*
X88804274Y-106548867D01*
X88876133Y-106620726D01*
X88960630Y-106677184D01*
X89054518Y-106716074D01*
X89154188Y-106735900D01*
X89255812Y-106735900D01*
X89355482Y-106716074D01*
X89449370Y-106677184D01*
X89533867Y-106620726D01*
X89605726Y-106548867D01*
X89662184Y-106464370D01*
X89701074Y-106370482D01*
X89720900Y-106270812D01*
X89720900Y-106169188D01*
X89701074Y-106069518D01*
X89662184Y-105975630D01*
X89605726Y-105891133D01*
X89533867Y-105819274D01*
X89497100Y-105794708D01*
X89497100Y-104489422D01*
X92784500Y-104489422D01*
X92784501Y-108610579D01*
X92785455Y-108620260D01*
X92785411Y-108626513D01*
X92785705Y-108629508D01*
X92806106Y-108823604D01*
X92810031Y-108842726D01*
X92813693Y-108861922D01*
X92814562Y-108864803D01*
X92872274Y-109051241D01*
X92879851Y-109069266D01*
X92887160Y-109087356D01*
X92888573Y-109090013D01*
X92981397Y-109261689D01*
X92992326Y-109277892D01*
X93003015Y-109294226D01*
X93004911Y-109296551D01*
X93004916Y-109296558D01*
X93004922Y-109296564D01*
X93129320Y-109446936D01*
X93143205Y-109460725D01*
X93156845Y-109474653D01*
X93159164Y-109476572D01*
X93310406Y-109599922D01*
X93326684Y-109610737D01*
X93342790Y-109621765D01*
X93345429Y-109623192D01*
X93345437Y-109623197D01*
X93345445Y-109623200D01*
X93517759Y-109714821D01*
X93535795Y-109722255D01*
X93553769Y-109729959D01*
X93556638Y-109730846D01*
X93556645Y-109730849D01*
X93556652Y-109730850D01*
X93743480Y-109787257D01*
X93762614Y-109791046D01*
X93781744Y-109795112D01*
X93784728Y-109795425D01*
X93784738Y-109795427D01*
X93784747Y-109795427D01*
X93978970Y-109814471D01*
X93978974Y-109814471D01*
X93989421Y-109815500D01*
X106010579Y-109815500D01*
X106020270Y-109814546D01*
X106026513Y-109814589D01*
X106029508Y-109814295D01*
X106223604Y-109793894D01*
X106242726Y-109789969D01*
X106261922Y-109786307D01*
X106264803Y-109785438D01*
X106451241Y-109727726D01*
X106469266Y-109720149D01*
X106487356Y-109712840D01*
X106490013Y-109711427D01*
X106661689Y-109618603D01*
X106677892Y-109607674D01*
X106694226Y-109596985D01*
X106696551Y-109595089D01*
X106696558Y-109595084D01*
X106696564Y-109595078D01*
X106846936Y-109470680D01*
X106860725Y-109456795D01*
X106874653Y-109443155D01*
X106876572Y-109440836D01*
X106999922Y-109289594D01*
X107010737Y-109273316D01*
X107021765Y-109257210D01*
X107023192Y-109254571D01*
X107023197Y-109254563D01*
X107023200Y-109254555D01*
X107114821Y-109082241D01*
X107122255Y-109064205D01*
X107129959Y-109046231D01*
X107130846Y-109043362D01*
X107130849Y-109043355D01*
X107130850Y-109043348D01*
X107187257Y-108856520D01*
X107191046Y-108837386D01*
X107195112Y-108818256D01*
X107195425Y-108815272D01*
X107195427Y-108815262D01*
X107195427Y-108815253D01*
X107214471Y-108621030D01*
X107214471Y-108621026D01*
X107215500Y-108610579D01*
X107215500Y-104489421D01*
X107214546Y-104479730D01*
X107214589Y-104473487D01*
X107214295Y-104470492D01*
X107193894Y-104276395D01*
X107189968Y-104257267D01*
X107186307Y-104238078D01*
X107185438Y-104235197D01*
X107127726Y-104048759D01*
X107120149Y-104030734D01*
X107112840Y-104012644D01*
X107111427Y-104009987D01*
X107018602Y-103838310D01*
X107007691Y-103822134D01*
X106996985Y-103805773D01*
X106995089Y-103803449D01*
X106995084Y-103803442D01*
X106995078Y-103803436D01*
X106870679Y-103653064D01*
X106856830Y-103639311D01*
X106843155Y-103625347D01*
X106840842Y-103623434D01*
X106840836Y-103623428D01*
X106840829Y-103623424D01*
X106689594Y-103500078D01*
X106673316Y-103489263D01*
X106657210Y-103478235D01*
X106654571Y-103476808D01*
X106654563Y-103476803D01*
X106654555Y-103476800D01*
X106482241Y-103385179D01*
X106464193Y-103377740D01*
X106446231Y-103370041D01*
X106443366Y-103369155D01*
X106443356Y-103369151D01*
X106443346Y-103369149D01*
X106256520Y-103312743D01*
X106237365Y-103308950D01*
X106218255Y-103304888D01*
X106215263Y-103304573D01*
X106021029Y-103285529D01*
X106021026Y-103285529D01*
X106010579Y-103284500D01*
X93989421Y-103284500D01*
X93979730Y-103285454D01*
X93973487Y-103285411D01*
X93970492Y-103285705D01*
X93776395Y-103306106D01*
X93757267Y-103310032D01*
X93738078Y-103313693D01*
X93735197Y-103314562D01*
X93548759Y-103372274D01*
X93530734Y-103379851D01*
X93512644Y-103387160D01*
X93509987Y-103388573D01*
X93338310Y-103481398D01*
X93322134Y-103492309D01*
X93305773Y-103503015D01*
X93303449Y-103504911D01*
X93303442Y-103504916D01*
X93303436Y-103504922D01*
X93153064Y-103629321D01*
X93139311Y-103643170D01*
X93125347Y-103656845D01*
X93123434Y-103659158D01*
X93123428Y-103659164D01*
X93123424Y-103659171D01*
X93000078Y-103810406D01*
X92989263Y-103826684D01*
X92978235Y-103842790D01*
X92976808Y-103845429D01*
X92976803Y-103845437D01*
X92976800Y-103845445D01*
X92885179Y-104017759D01*
X92877740Y-104035807D01*
X92870041Y-104053769D01*
X92869155Y-104056634D01*
X92869151Y-104056644D01*
X92869149Y-104056654D01*
X92812743Y-104243480D01*
X92808950Y-104262635D01*
X92804888Y-104281745D01*
X92804573Y-104284737D01*
X92785529Y-104478971D01*
X92784500Y-104489422D01*
X89497100Y-104489422D01*
X89497100Y-102879900D01*
X115680362Y-102879900D01*
X119366410Y-106565949D01*
X119381123Y-106583877D01*
X119452675Y-106642598D01*
X119521703Y-106679494D01*
X119534307Y-106686231D01*
X119622883Y-106713100D01*
X119714999Y-106722173D01*
X119738076Y-106719900D01*
X121893056Y-106719900D01*
X121893056Y-106875000D01*
X121904430Y-106990483D01*
X121938115Y-107101527D01*
X121992817Y-107203866D01*
X122066432Y-107293568D01*
X122156134Y-107367183D01*
X122258473Y-107421885D01*
X122369517Y-107455570D01*
X122485000Y-107466944D01*
X123235000Y-107466944D01*
X123350483Y-107455570D01*
X123461527Y-107421885D01*
X123563866Y-107367183D01*
X123653568Y-107293568D01*
X123727183Y-107203866D01*
X123781885Y-107101527D01*
X123815570Y-106990483D01*
X123826944Y-106875000D01*
X123826944Y-105625000D01*
X124433056Y-105625000D01*
X124433056Y-106875000D01*
X124444430Y-106990483D01*
X124478115Y-107101527D01*
X124532817Y-107203866D01*
X124606432Y-107293568D01*
X124696134Y-107367183D01*
X124798473Y-107421885D01*
X124909517Y-107455570D01*
X125025000Y-107466944D01*
X125775000Y-107466944D01*
X125890483Y-107455570D01*
X126001527Y-107421885D01*
X126103866Y-107367183D01*
X126193568Y-107293568D01*
X126267183Y-107203866D01*
X126321885Y-107101527D01*
X126355570Y-106990483D01*
X126366944Y-106875000D01*
X126366944Y-105625000D01*
X126973056Y-105625000D01*
X126973056Y-106875000D01*
X126984430Y-106990483D01*
X127018115Y-107101527D01*
X127072817Y-107203866D01*
X127146432Y-107293568D01*
X127236134Y-107367183D01*
X127338473Y-107421885D01*
X127449517Y-107455570D01*
X127565000Y-107466944D01*
X128315000Y-107466944D01*
X128430483Y-107455570D01*
X128541527Y-107421885D01*
X128643866Y-107367183D01*
X128733568Y-107293568D01*
X128769322Y-107250000D01*
X129515608Y-107250000D01*
X129519727Y-107291826D01*
X129531928Y-107332044D01*
X129551740Y-107369110D01*
X129578402Y-107401598D01*
X129610890Y-107428260D01*
X129647956Y-107448072D01*
X129688174Y-107460273D01*
X129730000Y-107464392D01*
X130413960Y-107463360D01*
X130467300Y-107410020D01*
X130467300Y-106262700D01*
X130492700Y-106262700D01*
X130492700Y-107410020D01*
X130546040Y-107463360D01*
X131230000Y-107464392D01*
X131271826Y-107460273D01*
X131312044Y-107448072D01*
X131349110Y-107428260D01*
X131381598Y-107401598D01*
X131408260Y-107369110D01*
X131428072Y-107332044D01*
X131440273Y-107291826D01*
X131444392Y-107250000D01*
X131443360Y-106316040D01*
X131390020Y-106262700D01*
X130492700Y-106262700D01*
X130467300Y-106262700D01*
X129569980Y-106262700D01*
X129516640Y-106316040D01*
X129515608Y-107250000D01*
X128769322Y-107250000D01*
X128807183Y-107203866D01*
X128861885Y-107101527D01*
X128895570Y-106990483D01*
X128906944Y-106875000D01*
X128906944Y-105625000D01*
X128895570Y-105509517D01*
X128861885Y-105398473D01*
X128807183Y-105296134D01*
X128769323Y-105250000D01*
X129515608Y-105250000D01*
X129516640Y-106183960D01*
X129569980Y-106237300D01*
X130467300Y-106237300D01*
X130467300Y-105089980D01*
X130492700Y-105089980D01*
X130492700Y-106237300D01*
X131390020Y-106237300D01*
X131443360Y-106183960D01*
X131444392Y-105250000D01*
X131440273Y-105208174D01*
X131428072Y-105167956D01*
X131408260Y-105130890D01*
X131381598Y-105098402D01*
X131349110Y-105071740D01*
X131312044Y-105051928D01*
X131271826Y-105039727D01*
X131230000Y-105035608D01*
X130546040Y-105036640D01*
X130492700Y-105089980D01*
X130467300Y-105089980D01*
X130413960Y-105036640D01*
X129730000Y-105035608D01*
X129688174Y-105039727D01*
X129647956Y-105051928D01*
X129610890Y-105071740D01*
X129578402Y-105098402D01*
X129551740Y-105130890D01*
X129531928Y-105167956D01*
X129519727Y-105208174D01*
X129515608Y-105250000D01*
X128769323Y-105250000D01*
X128733568Y-105206432D01*
X128643866Y-105132817D01*
X128541527Y-105078115D01*
X128430483Y-105044430D01*
X128315000Y-105033056D01*
X127565000Y-105033056D01*
X127449517Y-105044430D01*
X127338473Y-105078115D01*
X127236134Y-105132817D01*
X127146432Y-105206432D01*
X127072817Y-105296134D01*
X127018115Y-105398473D01*
X126984430Y-105509517D01*
X126973056Y-105625000D01*
X126366944Y-105625000D01*
X126355570Y-105509517D01*
X126321885Y-105398473D01*
X126267183Y-105296134D01*
X126193568Y-105206432D01*
X126103866Y-105132817D01*
X126001527Y-105078115D01*
X125890483Y-105044430D01*
X125775000Y-105033056D01*
X125025000Y-105033056D01*
X124909517Y-105044430D01*
X124798473Y-105078115D01*
X124696134Y-105132817D01*
X124606432Y-105206432D01*
X124532817Y-105296134D01*
X124478115Y-105398473D01*
X124444430Y-105509517D01*
X124433056Y-105625000D01*
X123826944Y-105625000D01*
X123815570Y-105509517D01*
X123781885Y-105398473D01*
X123727183Y-105296134D01*
X123653568Y-105206432D01*
X123563866Y-105132817D01*
X123461527Y-105078115D01*
X123350483Y-105044430D01*
X123235000Y-105033056D01*
X122485000Y-105033056D01*
X122369517Y-105044430D01*
X122258473Y-105078115D01*
X122156134Y-105132817D01*
X122066432Y-105206432D01*
X121992817Y-105296134D01*
X121938115Y-105398473D01*
X121904430Y-105509517D01*
X121893056Y-105625000D01*
X121893056Y-105780100D01*
X119909639Y-105780100D01*
X117284406Y-103154867D01*
X120704100Y-103154867D01*
X120704100Y-103345133D01*
X120741219Y-103531743D01*
X120814030Y-103707525D01*
X120919736Y-103865726D01*
X121054274Y-104000264D01*
X121212475Y-104105970D01*
X121388257Y-104178781D01*
X121574867Y-104215900D01*
X121765133Y-104215900D01*
X121951743Y-104178781D01*
X122127525Y-104105970D01*
X122285726Y-104000264D01*
X122420264Y-103865726D01*
X122525970Y-103707525D01*
X122553056Y-103642133D01*
X122553056Y-104250400D01*
X122562021Y-104341418D01*
X122588570Y-104428939D01*
X122631683Y-104509598D01*
X122689704Y-104580296D01*
X122760402Y-104638317D01*
X122841061Y-104681430D01*
X122928582Y-104707979D01*
X123019600Y-104716944D01*
X123320400Y-104716944D01*
X123411418Y-104707979D01*
X123498939Y-104681430D01*
X123579598Y-104638317D01*
X123650296Y-104580296D01*
X123670000Y-104556287D01*
X123689704Y-104580296D01*
X123760402Y-104638317D01*
X123841061Y-104681430D01*
X123928582Y-104707979D01*
X124019600Y-104716944D01*
X124320400Y-104716944D01*
X124411418Y-104707979D01*
X124498939Y-104681430D01*
X124579598Y-104638317D01*
X124650296Y-104580296D01*
X124670000Y-104556287D01*
X124689704Y-104580296D01*
X124760402Y-104638317D01*
X124841061Y-104681430D01*
X124928582Y-104707979D01*
X125019600Y-104716944D01*
X125320400Y-104716944D01*
X125411418Y-104707979D01*
X125498939Y-104681430D01*
X125579598Y-104638317D01*
X125650296Y-104580296D01*
X125670000Y-104556287D01*
X125689704Y-104580296D01*
X125760402Y-104638317D01*
X125841061Y-104681430D01*
X125928582Y-104707979D01*
X126019600Y-104716944D01*
X126320400Y-104716944D01*
X126411418Y-104707979D01*
X126498939Y-104681430D01*
X126579598Y-104638317D01*
X126650296Y-104580296D01*
X126670000Y-104556287D01*
X126689704Y-104580296D01*
X126760402Y-104638317D01*
X126841061Y-104681430D01*
X126928582Y-104707979D01*
X127019600Y-104716944D01*
X127320400Y-104716944D01*
X127411418Y-104707979D01*
X127498939Y-104681430D01*
X127579598Y-104638317D01*
X127596272Y-104624633D01*
X127618402Y-104651598D01*
X127650890Y-104678260D01*
X127687956Y-104698072D01*
X127728174Y-104710273D01*
X127770000Y-104714392D01*
X128103960Y-104713360D01*
X128157300Y-104660020D01*
X128157300Y-103262700D01*
X128182700Y-103262700D01*
X128182700Y-104660020D01*
X128236040Y-104713360D01*
X128570000Y-104714392D01*
X128611826Y-104710273D01*
X128652044Y-104698072D01*
X128670000Y-104688474D01*
X128687956Y-104698072D01*
X128728174Y-104710273D01*
X128770000Y-104714392D01*
X129103960Y-104713360D01*
X129157300Y-104660020D01*
X129157300Y-103262700D01*
X129182700Y-103262700D01*
X129182700Y-104660020D01*
X129236040Y-104713360D01*
X129570000Y-104714392D01*
X129611826Y-104710273D01*
X129652044Y-104698072D01*
X129670000Y-104688474D01*
X129687956Y-104698072D01*
X129728174Y-104710273D01*
X129770000Y-104714392D01*
X130103960Y-104713360D01*
X130157300Y-104660020D01*
X130157300Y-103262700D01*
X129182700Y-103262700D01*
X129157300Y-103262700D01*
X128182700Y-103262700D01*
X128157300Y-103262700D01*
X128137300Y-103262700D01*
X128137300Y-103237300D01*
X128157300Y-103237300D01*
X128157300Y-101839980D01*
X128182700Y-101839980D01*
X128182700Y-103237300D01*
X129157300Y-103237300D01*
X129157300Y-101839980D01*
X129182700Y-101839980D01*
X129182700Y-103237300D01*
X130157300Y-103237300D01*
X130157300Y-101839980D01*
X130182700Y-101839980D01*
X130182700Y-103237300D01*
X130202700Y-103237300D01*
X130202700Y-103262700D01*
X130182700Y-103262700D01*
X130182700Y-104660020D01*
X130236040Y-104713360D01*
X130570000Y-104714392D01*
X130611826Y-104710273D01*
X130652044Y-104698072D01*
X130689110Y-104678260D01*
X130721598Y-104651598D01*
X130748260Y-104619110D01*
X130768072Y-104582044D01*
X130780273Y-104541826D01*
X130784392Y-104500000D01*
X130783637Y-103634150D01*
X130814030Y-103707525D01*
X130919736Y-103865726D01*
X131054274Y-104000264D01*
X131212475Y-104105970D01*
X131388257Y-104178781D01*
X131574867Y-104215900D01*
X131765133Y-104215900D01*
X131951743Y-104178781D01*
X132127525Y-104105970D01*
X132285726Y-104000264D01*
X132420264Y-103865726D01*
X132525970Y-103707525D01*
X132598781Y-103531743D01*
X132635900Y-103345133D01*
X132635900Y-103154867D01*
X132598781Y-102968257D01*
X132525970Y-102792475D01*
X132420264Y-102634274D01*
X132285726Y-102499736D01*
X132127525Y-102394030D01*
X131951743Y-102321219D01*
X131765133Y-102284100D01*
X131574867Y-102284100D01*
X131388257Y-102321219D01*
X131212475Y-102394030D01*
X131054274Y-102499736D01*
X130919736Y-102634274D01*
X130814030Y-102792475D01*
X130783637Y-102865850D01*
X130784392Y-102000000D01*
X130780273Y-101958174D01*
X130768072Y-101917956D01*
X130748260Y-101880890D01*
X130721598Y-101848402D01*
X130689110Y-101821740D01*
X130652044Y-101801928D01*
X130611826Y-101789727D01*
X130570000Y-101785608D01*
X130236040Y-101786640D01*
X130182700Y-101839980D01*
X130157300Y-101839980D01*
X130103960Y-101786640D01*
X129770000Y-101785608D01*
X129728174Y-101789727D01*
X129687956Y-101801928D01*
X129670000Y-101811526D01*
X129652044Y-101801928D01*
X129611826Y-101789727D01*
X129570000Y-101785608D01*
X129236040Y-101786640D01*
X129182700Y-101839980D01*
X129157300Y-101839980D01*
X129103960Y-101786640D01*
X128770000Y-101785608D01*
X128728174Y-101789727D01*
X128687956Y-101801928D01*
X128670000Y-101811526D01*
X128652044Y-101801928D01*
X128611826Y-101789727D01*
X128570000Y-101785608D01*
X128236040Y-101786640D01*
X128182700Y-101839980D01*
X128157300Y-101839980D01*
X128103960Y-101786640D01*
X127770000Y-101785608D01*
X127728174Y-101789727D01*
X127687956Y-101801928D01*
X127650890Y-101821740D01*
X127618402Y-101848402D01*
X127596272Y-101875367D01*
X127579598Y-101861683D01*
X127498939Y-101818570D01*
X127411418Y-101792021D01*
X127320400Y-101783056D01*
X127019600Y-101783056D01*
X126928582Y-101792021D01*
X126841061Y-101818570D01*
X126760402Y-101861683D01*
X126689704Y-101919704D01*
X126670000Y-101943713D01*
X126650296Y-101919704D01*
X126579598Y-101861683D01*
X126498939Y-101818570D01*
X126411418Y-101792021D01*
X126320400Y-101783056D01*
X126019600Y-101783056D01*
X125928582Y-101792021D01*
X125841061Y-101818570D01*
X125760402Y-101861683D01*
X125689704Y-101919704D01*
X125670000Y-101943713D01*
X125650296Y-101919704D01*
X125579598Y-101861683D01*
X125498939Y-101818570D01*
X125411418Y-101792021D01*
X125320400Y-101783056D01*
X125019600Y-101783056D01*
X124928582Y-101792021D01*
X124841061Y-101818570D01*
X124760402Y-101861683D01*
X124689704Y-101919704D01*
X124670000Y-101943713D01*
X124650296Y-101919704D01*
X124579598Y-101861683D01*
X124498939Y-101818570D01*
X124411418Y-101792021D01*
X124320400Y-101783056D01*
X124019600Y-101783056D01*
X123928582Y-101792021D01*
X123841061Y-101818570D01*
X123760402Y-101861683D01*
X123689704Y-101919704D01*
X123670000Y-101943713D01*
X123650296Y-101919704D01*
X123579598Y-101861683D01*
X123498939Y-101818570D01*
X123411418Y-101792021D01*
X123320400Y-101783056D01*
X123019600Y-101783056D01*
X122928582Y-101792021D01*
X122841061Y-101818570D01*
X122760402Y-101861683D01*
X122689704Y-101919704D01*
X122631683Y-101990402D01*
X122588570Y-102071061D01*
X122562021Y-102158582D01*
X122553056Y-102249600D01*
X122553056Y-102857867D01*
X122525970Y-102792475D01*
X122420264Y-102634274D01*
X122285726Y-102499736D01*
X122127525Y-102394030D01*
X121951743Y-102321219D01*
X121765133Y-102284100D01*
X121574867Y-102284100D01*
X121388257Y-102321219D01*
X121212475Y-102394030D01*
X121054274Y-102499736D01*
X120919736Y-102634274D01*
X120814030Y-102792475D01*
X120741219Y-102968257D01*
X120704100Y-103154867D01*
X117284406Y-103154867D01*
X116223595Y-102094057D01*
X116208877Y-102076123D01*
X116137325Y-102017402D01*
X116055693Y-101973769D01*
X115967116Y-101946900D01*
X115898077Y-101940100D01*
X115875000Y-101937827D01*
X115851923Y-101940100D01*
X84148076Y-101940100D01*
X84124999Y-101937827D01*
X84032883Y-101946900D01*
X83958496Y-101969465D01*
X83944307Y-101973769D01*
X83862675Y-102017402D01*
X83791123Y-102076123D01*
X83776410Y-102094051D01*
X80090362Y-105780100D01*
X78106944Y-105780100D01*
X78106944Y-105625000D01*
X78095570Y-105509517D01*
X78061885Y-105398473D01*
X78007183Y-105296134D01*
X77933568Y-105206432D01*
X77843866Y-105132817D01*
X77741527Y-105078115D01*
X77630483Y-105044430D01*
X77515000Y-105033056D01*
X76765000Y-105033056D01*
X76649517Y-105044430D01*
X76538473Y-105078115D01*
X76436134Y-105132817D01*
X76346432Y-105206432D01*
X76272817Y-105296134D01*
X76218115Y-105398473D01*
X76184430Y-105509517D01*
X76173056Y-105625000D01*
X75566944Y-105625000D01*
X75555570Y-105509517D01*
X75521885Y-105398473D01*
X75467183Y-105296134D01*
X75393568Y-105206432D01*
X75303866Y-105132817D01*
X75201527Y-105078115D01*
X75090483Y-105044430D01*
X74975000Y-105033056D01*
X74225000Y-105033056D01*
X74109517Y-105044430D01*
X73998473Y-105078115D01*
X73896134Y-105132817D01*
X73806432Y-105206432D01*
X73732817Y-105296134D01*
X73678115Y-105398473D01*
X73644430Y-105509517D01*
X73633056Y-105625000D01*
X73026944Y-105625000D01*
X73015570Y-105509517D01*
X72981885Y-105398473D01*
X72927183Y-105296134D01*
X72853568Y-105206432D01*
X72763866Y-105132817D01*
X72661527Y-105078115D01*
X72550483Y-105044430D01*
X72435000Y-105033056D01*
X71685000Y-105033056D01*
X71569517Y-105044430D01*
X71458473Y-105078115D01*
X71356134Y-105132817D01*
X71266432Y-105206432D01*
X71192817Y-105296134D01*
X71138115Y-105398473D01*
X71104430Y-105509517D01*
X71093056Y-105625000D01*
X70483977Y-105625000D01*
X70484392Y-105250000D01*
X70480273Y-105208174D01*
X70468072Y-105167956D01*
X70448260Y-105130890D01*
X70421598Y-105098402D01*
X70389110Y-105071740D01*
X70352044Y-105051928D01*
X70311826Y-105039727D01*
X70270000Y-105035608D01*
X69586040Y-105036640D01*
X69532700Y-105089980D01*
X69507300Y-105089980D01*
X69453960Y-105036640D01*
X68770000Y-105035608D01*
X68728174Y-105039727D01*
X68687956Y-105051928D01*
X68650890Y-105071740D01*
X68618402Y-105098402D01*
X68591740Y-105130890D01*
X68571928Y-105167956D01*
X68559727Y-105208174D01*
X68555608Y-105250000D01*
X57813500Y-105250000D01*
X57813500Y-103154867D01*
X67364100Y-103154867D01*
X67364100Y-103345133D01*
X67401219Y-103531743D01*
X67474030Y-103707525D01*
X67579736Y-103865726D01*
X67714274Y-104000264D01*
X67872475Y-104105970D01*
X68048257Y-104178781D01*
X68234867Y-104215900D01*
X68425133Y-104215900D01*
X68611743Y-104178781D01*
X68787525Y-104105970D01*
X68945726Y-104000264D01*
X69080264Y-103865726D01*
X69185970Y-103707525D01*
X69216363Y-103634150D01*
X69215608Y-104500000D01*
X69219727Y-104541826D01*
X69231928Y-104582044D01*
X69251740Y-104619110D01*
X69278402Y-104651598D01*
X69310890Y-104678260D01*
X69347956Y-104698072D01*
X69388174Y-104710273D01*
X69430000Y-104714392D01*
X69763960Y-104713360D01*
X69817300Y-104660020D01*
X69817300Y-103262700D01*
X69842700Y-103262700D01*
X69842700Y-104660020D01*
X69896040Y-104713360D01*
X70230000Y-104714392D01*
X70271826Y-104710273D01*
X70312044Y-104698072D01*
X70330000Y-104688474D01*
X70347956Y-104698072D01*
X70388174Y-104710273D01*
X70430000Y-104714392D01*
X70763960Y-104713360D01*
X70817300Y-104660020D01*
X70817300Y-103262700D01*
X70842700Y-103262700D01*
X70842700Y-104660020D01*
X70896040Y-104713360D01*
X71230000Y-104714392D01*
X71271826Y-104710273D01*
X71312044Y-104698072D01*
X71330000Y-104688474D01*
X71347956Y-104698072D01*
X71388174Y-104710273D01*
X71430000Y-104714392D01*
X71763960Y-104713360D01*
X71817300Y-104660020D01*
X71817300Y-103262700D01*
X70842700Y-103262700D01*
X70817300Y-103262700D01*
X69842700Y-103262700D01*
X69817300Y-103262700D01*
X69797300Y-103262700D01*
X69797300Y-103237300D01*
X69817300Y-103237300D01*
X69817300Y-101839980D01*
X69842700Y-101839980D01*
X69842700Y-103237300D01*
X70817300Y-103237300D01*
X70817300Y-101839980D01*
X70842700Y-101839980D01*
X70842700Y-103237300D01*
X71817300Y-103237300D01*
X71817300Y-101839980D01*
X71842700Y-101839980D01*
X71842700Y-103237300D01*
X71862700Y-103237300D01*
X71862700Y-103262700D01*
X71842700Y-103262700D01*
X71842700Y-104660020D01*
X71896040Y-104713360D01*
X72230000Y-104714392D01*
X72271826Y-104710273D01*
X72312044Y-104698072D01*
X72349110Y-104678260D01*
X72381598Y-104651598D01*
X72403728Y-104624633D01*
X72420402Y-104638317D01*
X72501061Y-104681430D01*
X72588582Y-104707979D01*
X72679600Y-104716944D01*
X72980400Y-104716944D01*
X73071418Y-104707979D01*
X73158939Y-104681430D01*
X73239598Y-104638317D01*
X73310296Y-104580296D01*
X73330000Y-104556287D01*
X73349704Y-104580296D01*
X73420402Y-104638317D01*
X73501061Y-104681430D01*
X73588582Y-104707979D01*
X73679600Y-104716944D01*
X73980400Y-104716944D01*
X74071418Y-104707979D01*
X74158939Y-104681430D01*
X74239598Y-104638317D01*
X74310296Y-104580296D01*
X74330000Y-104556287D01*
X74349704Y-104580296D01*
X74420402Y-104638317D01*
X74501061Y-104681430D01*
X74588582Y-104707979D01*
X74679600Y-104716944D01*
X74980400Y-104716944D01*
X75071418Y-104707979D01*
X75158939Y-104681430D01*
X75239598Y-104638317D01*
X75310296Y-104580296D01*
X75330000Y-104556287D01*
X75349704Y-104580296D01*
X75420402Y-104638317D01*
X75501061Y-104681430D01*
X75588582Y-104707979D01*
X75679600Y-104716944D01*
X75980400Y-104716944D01*
X76071418Y-104707979D01*
X76158939Y-104681430D01*
X76239598Y-104638317D01*
X76310296Y-104580296D01*
X76330000Y-104556287D01*
X76349704Y-104580296D01*
X76420402Y-104638317D01*
X76501061Y-104681430D01*
X76588582Y-104707979D01*
X76679600Y-104716944D01*
X76980400Y-104716944D01*
X77071418Y-104707979D01*
X77158939Y-104681430D01*
X77239598Y-104638317D01*
X77310296Y-104580296D01*
X77368317Y-104509598D01*
X77411430Y-104428939D01*
X77437979Y-104341418D01*
X77446944Y-104250400D01*
X77446944Y-103642133D01*
X77474030Y-103707525D01*
X77579736Y-103865726D01*
X77714274Y-104000264D01*
X77872475Y-104105970D01*
X78048257Y-104178781D01*
X78234867Y-104215900D01*
X78425133Y-104215900D01*
X78611743Y-104178781D01*
X78787525Y-104105970D01*
X78945726Y-104000264D01*
X79080264Y-103865726D01*
X79185970Y-103707525D01*
X79258781Y-103531743D01*
X79295900Y-103345133D01*
X79295900Y-103154867D01*
X79258781Y-102968257D01*
X79185970Y-102792475D01*
X79080264Y-102634274D01*
X78945726Y-102499736D01*
X78787525Y-102394030D01*
X78611743Y-102321219D01*
X78425133Y-102284100D01*
X78234867Y-102284100D01*
X78048257Y-102321219D01*
X77872475Y-102394030D01*
X77714274Y-102499736D01*
X77579736Y-102634274D01*
X77474030Y-102792475D01*
X77446944Y-102857867D01*
X77446944Y-102249600D01*
X77437979Y-102158582D01*
X77411430Y-102071061D01*
X77368317Y-101990402D01*
X77310296Y-101919704D01*
X77239598Y-101861683D01*
X77158939Y-101818570D01*
X77071418Y-101792021D01*
X76980400Y-101783056D01*
X76679600Y-101783056D01*
X76588582Y-101792021D01*
X76501061Y-101818570D01*
X76420402Y-101861683D01*
X76349704Y-101919704D01*
X76330000Y-101943713D01*
X76310296Y-101919704D01*
X76239598Y-101861683D01*
X76158939Y-101818570D01*
X76071418Y-101792021D01*
X75980400Y-101783056D01*
X75679600Y-101783056D01*
X75588582Y-101792021D01*
X75501061Y-101818570D01*
X75420402Y-101861683D01*
X75349704Y-101919704D01*
X75330000Y-101943713D01*
X75310296Y-101919704D01*
X75239598Y-101861683D01*
X75158939Y-101818570D01*
X75071418Y-101792021D01*
X74980400Y-101783056D01*
X74679600Y-101783056D01*
X74588582Y-101792021D01*
X74501061Y-101818570D01*
X74420402Y-101861683D01*
X74349704Y-101919704D01*
X74330000Y-101943713D01*
X74310296Y-101919704D01*
X74239598Y-101861683D01*
X74158939Y-101818570D01*
X74071418Y-101792021D01*
X73980400Y-101783056D01*
X73679600Y-101783056D01*
X73588582Y-101792021D01*
X73501061Y-101818570D01*
X73420402Y-101861683D01*
X73349704Y-101919704D01*
X73330000Y-101943713D01*
X73310296Y-101919704D01*
X73239598Y-101861683D01*
X73158939Y-101818570D01*
X73071418Y-101792021D01*
X72980400Y-101783056D01*
X72679600Y-101783056D01*
X72588582Y-101792021D01*
X72501061Y-101818570D01*
X72420402Y-101861683D01*
X72403728Y-101875367D01*
X72381598Y-101848402D01*
X72349110Y-101821740D01*
X72312044Y-101801928D01*
X72271826Y-101789727D01*
X72230000Y-101785608D01*
X71896040Y-101786640D01*
X71842700Y-101839980D01*
X71817300Y-101839980D01*
X71763960Y-101786640D01*
X71430000Y-101785608D01*
X71388174Y-101789727D01*
X71347956Y-101801928D01*
X71330000Y-101811526D01*
X71312044Y-101801928D01*
X71271826Y-101789727D01*
X71230000Y-101785608D01*
X70896040Y-101786640D01*
X70842700Y-101839980D01*
X70817300Y-101839980D01*
X70763960Y-101786640D01*
X70430000Y-101785608D01*
X70388174Y-101789727D01*
X70347956Y-101801928D01*
X70330000Y-101811526D01*
X70312044Y-101801928D01*
X70271826Y-101789727D01*
X70230000Y-101785608D01*
X69896040Y-101786640D01*
X69842700Y-101839980D01*
X69817300Y-101839980D01*
X69763960Y-101786640D01*
X69430000Y-101785608D01*
X69388174Y-101789727D01*
X69347956Y-101801928D01*
X69310890Y-101821740D01*
X69278402Y-101848402D01*
X69251740Y-101880890D01*
X69231928Y-101917956D01*
X69219727Y-101958174D01*
X69215608Y-102000000D01*
X69216363Y-102865850D01*
X69185970Y-102792475D01*
X69080264Y-102634274D01*
X68945726Y-102499736D01*
X68787525Y-102394030D01*
X68611743Y-102321219D01*
X68425133Y-102284100D01*
X68234867Y-102284100D01*
X68048257Y-102321219D01*
X67872475Y-102394030D01*
X67714274Y-102499736D01*
X67579736Y-102634274D01*
X67474030Y-102792475D01*
X67401219Y-102968257D01*
X67364100Y-103154867D01*
X57813500Y-103154867D01*
X57813500Y-101750000D01*
X57812280Y-101737612D01*
X57808666Y-101725700D01*
X57802798Y-101714721D01*
X57794901Y-101705099D01*
X57123401Y-101033599D01*
X57177735Y-100853638D01*
X57181527Y-100834490D01*
X57185590Y-100815373D01*
X57185905Y-100812381D01*
X57195404Y-100715500D01*
X66240738Y-100715500D01*
X67170140Y-101644903D01*
M02*
