G04 #@! TF.GenerationSoftware,KiCad,Pcbnew,(5.1.2)-2*
G04 #@! TF.CreationDate,2019-11-14T14:10:45+01:00*
G04 #@! TF.ProjectId,INTERFACE,494e5445-5246-4414-9345-2e6b69636164,rev?*
G04 #@! TF.SameCoordinates,Original*
G04 #@! TF.FileFunction,Soldermask,Top*
G04 #@! TF.FilePolarity,Negative*
%FSLAX46Y46*%
G04 Gerber Fmt 4.6, Leading zero omitted, Abs format (unit mm)*
G04 Created by KiCad (PCBNEW (5.1.2)-2) date 2019-11-14 14:10:45*
%MOMM*%
%LPD*%
G04 APERTURE LIST*
%ADD10C,0.100000*%
G04 APERTURE END LIST*
D10*
G36*
X72222120Y-111706034D02*
G01*
X72270079Y-111720582D01*
X72314268Y-111744201D01*
X72353007Y-111775993D01*
X72384799Y-111814732D01*
X72408418Y-111858921D01*
X72422966Y-111906880D01*
X72428000Y-111957983D01*
X72428000Y-112517017D01*
X72422966Y-112568120D01*
X72408418Y-112616079D01*
X72384799Y-112660268D01*
X72353007Y-112699007D01*
X72314268Y-112730799D01*
X72270079Y-112754418D01*
X72222120Y-112768966D01*
X72171017Y-112774000D01*
X71186983Y-112774000D01*
X71135880Y-112768966D01*
X71087921Y-112754418D01*
X71043732Y-112730799D01*
X71004993Y-112699007D01*
X70973201Y-112660268D01*
X70949582Y-112616079D01*
X70935034Y-112568120D01*
X70930000Y-112517017D01*
X70930000Y-111957983D01*
X70935034Y-111906880D01*
X70949582Y-111858921D01*
X70973201Y-111814732D01*
X71004993Y-111775993D01*
X71043732Y-111744201D01*
X71087921Y-111720582D01*
X71135880Y-111706034D01*
X71186983Y-111701000D01*
X72171017Y-111701000D01*
X72222120Y-111706034D01*
X72222120Y-111706034D01*
G37*
G36*
X130769120Y-111706034D02*
G01*
X130817079Y-111720582D01*
X130861268Y-111744201D01*
X130900007Y-111775993D01*
X130931799Y-111814732D01*
X130955418Y-111858921D01*
X130969966Y-111906880D01*
X130975000Y-111957983D01*
X130975000Y-112517017D01*
X130969966Y-112568120D01*
X130955418Y-112616079D01*
X130931799Y-112660268D01*
X130900007Y-112699007D01*
X130861268Y-112730799D01*
X130817079Y-112754418D01*
X130769120Y-112768966D01*
X130718017Y-112774000D01*
X129733983Y-112774000D01*
X129682880Y-112768966D01*
X129634921Y-112754418D01*
X129590732Y-112730799D01*
X129551993Y-112699007D01*
X129520201Y-112660268D01*
X129496582Y-112616079D01*
X129482034Y-112568120D01*
X129477000Y-112517017D01*
X129477000Y-111957983D01*
X129482034Y-111906880D01*
X129496582Y-111858921D01*
X129520201Y-111814732D01*
X129551993Y-111775993D01*
X129590732Y-111744201D01*
X129634921Y-111720582D01*
X129682880Y-111706034D01*
X129733983Y-111701000D01*
X130718017Y-111701000D01*
X130769120Y-111706034D01*
X130769120Y-111706034D01*
G37*
G36*
X58531520Y-111706034D02*
G01*
X58579479Y-111720582D01*
X58623668Y-111744201D01*
X58662407Y-111775993D01*
X58694199Y-111814732D01*
X58717818Y-111858921D01*
X58732366Y-111906880D01*
X58737400Y-111957983D01*
X58737400Y-112517017D01*
X58732366Y-112568120D01*
X58717818Y-112616079D01*
X58694199Y-112660268D01*
X58662407Y-112699007D01*
X58623668Y-112730799D01*
X58579479Y-112754418D01*
X58531520Y-112768966D01*
X58480417Y-112774000D01*
X57496383Y-112774000D01*
X57445280Y-112768966D01*
X57397321Y-112754418D01*
X57353132Y-112730799D01*
X57314393Y-112699007D01*
X57282601Y-112660268D01*
X57258982Y-112616079D01*
X57244434Y-112568120D01*
X57239400Y-112517017D01*
X57239400Y-111957983D01*
X57244434Y-111906880D01*
X57258982Y-111858921D01*
X57282601Y-111814732D01*
X57314393Y-111775993D01*
X57353132Y-111744201D01*
X57397321Y-111720582D01*
X57445280Y-111706034D01*
X57496383Y-111701000D01*
X58480417Y-111701000D01*
X58531520Y-111706034D01*
X58531520Y-111706034D01*
G37*
G36*
X142554720Y-111706034D02*
G01*
X142602679Y-111720582D01*
X142646868Y-111744201D01*
X142685607Y-111775993D01*
X142717399Y-111814732D01*
X142741018Y-111858921D01*
X142755566Y-111906880D01*
X142760600Y-111957983D01*
X142760600Y-112517017D01*
X142755566Y-112568120D01*
X142741018Y-112616079D01*
X142717399Y-112660268D01*
X142685607Y-112699007D01*
X142646868Y-112730799D01*
X142602679Y-112754418D01*
X142554720Y-112768966D01*
X142503617Y-112774000D01*
X141519583Y-112774000D01*
X141468480Y-112768966D01*
X141420521Y-112754418D01*
X141376332Y-112730799D01*
X141337593Y-112699007D01*
X141305801Y-112660268D01*
X141282182Y-112616079D01*
X141267634Y-112568120D01*
X141262600Y-112517017D01*
X141262600Y-111957983D01*
X141267634Y-111906880D01*
X141282182Y-111858921D01*
X141305801Y-111814732D01*
X141337593Y-111775993D01*
X141376332Y-111744201D01*
X141420521Y-111720582D01*
X141468480Y-111706034D01*
X141519583Y-111701000D01*
X142503617Y-111701000D01*
X142554720Y-111706034D01*
X142554720Y-111706034D01*
G37*
G36*
X92923120Y-111706034D02*
G01*
X92971079Y-111720582D01*
X93015268Y-111744201D01*
X93054007Y-111775993D01*
X93085799Y-111814732D01*
X93109418Y-111858921D01*
X93123966Y-111906880D01*
X93129000Y-111957983D01*
X93129000Y-112517017D01*
X93123966Y-112568120D01*
X93109418Y-112616079D01*
X93085799Y-112660268D01*
X93054007Y-112699007D01*
X93015268Y-112730799D01*
X92971079Y-112754418D01*
X92923120Y-112768966D01*
X92872017Y-112774000D01*
X91887983Y-112774000D01*
X91836880Y-112768966D01*
X91788921Y-112754418D01*
X91744732Y-112730799D01*
X91705993Y-112699007D01*
X91674201Y-112660268D01*
X91650582Y-112616079D01*
X91636034Y-112568120D01*
X91631000Y-112517017D01*
X91631000Y-111957983D01*
X91636034Y-111906880D01*
X91650582Y-111858921D01*
X91674201Y-111814732D01*
X91705993Y-111775993D01*
X91744732Y-111744201D01*
X91788921Y-111720582D01*
X91836880Y-111706034D01*
X91887983Y-111701000D01*
X92872017Y-111701000D01*
X92923120Y-111706034D01*
X92923120Y-111706034D01*
G37*
G36*
X104353120Y-111706034D02*
G01*
X104401079Y-111720582D01*
X104445268Y-111744201D01*
X104484007Y-111775993D01*
X104515799Y-111814732D01*
X104539418Y-111858921D01*
X104553966Y-111906880D01*
X104559000Y-111957983D01*
X104559000Y-112517017D01*
X104553966Y-112568120D01*
X104539418Y-112616079D01*
X104515799Y-112660268D01*
X104484007Y-112699007D01*
X104445268Y-112730799D01*
X104401079Y-112754418D01*
X104353120Y-112768966D01*
X104302017Y-112774000D01*
X103317983Y-112774000D01*
X103266880Y-112768966D01*
X103218921Y-112754418D01*
X103174732Y-112730799D01*
X103135993Y-112699007D01*
X103104201Y-112660268D01*
X103080582Y-112616079D01*
X103066034Y-112568120D01*
X103061000Y-112517017D01*
X103061000Y-111957983D01*
X103066034Y-111906880D01*
X103080582Y-111858921D01*
X103104201Y-111814732D01*
X103135993Y-111775993D01*
X103174732Y-111744201D01*
X103218921Y-111720582D01*
X103266880Y-111706034D01*
X103317983Y-111701000D01*
X104302017Y-111701000D01*
X104353120Y-111706034D01*
X104353120Y-111706034D01*
G37*
G36*
X98638120Y-111706034D02*
G01*
X98686079Y-111720582D01*
X98730268Y-111744201D01*
X98769007Y-111775993D01*
X98800799Y-111814732D01*
X98824418Y-111858921D01*
X98838966Y-111906880D01*
X98844000Y-111957983D01*
X98844000Y-112517017D01*
X98838966Y-112568120D01*
X98824418Y-112616079D01*
X98800799Y-112660268D01*
X98769007Y-112699007D01*
X98730268Y-112730799D01*
X98686079Y-112754418D01*
X98638120Y-112768966D01*
X98587017Y-112774000D01*
X97602983Y-112774000D01*
X97551880Y-112768966D01*
X97503921Y-112754418D01*
X97459732Y-112730799D01*
X97420993Y-112699007D01*
X97389201Y-112660268D01*
X97365582Y-112616079D01*
X97351034Y-112568120D01*
X97346000Y-112517017D01*
X97346000Y-111957983D01*
X97351034Y-111906880D01*
X97365582Y-111858921D01*
X97389201Y-111814732D01*
X97420993Y-111775993D01*
X97459732Y-111744201D01*
X97503921Y-111720582D01*
X97551880Y-111706034D01*
X97602983Y-111701000D01*
X98587017Y-111701000D01*
X98638120Y-111706034D01*
X98638120Y-111706034D01*
G37*
G36*
X70317120Y-111706034D02*
G01*
X70365079Y-111720582D01*
X70409268Y-111744201D01*
X70448007Y-111775993D01*
X70479799Y-111814732D01*
X70503418Y-111858921D01*
X70517966Y-111906880D01*
X70523000Y-111957983D01*
X70523000Y-112517017D01*
X70517966Y-112568120D01*
X70503418Y-112616079D01*
X70479799Y-112660268D01*
X70448007Y-112699007D01*
X70409268Y-112730799D01*
X70365079Y-112754418D01*
X70317120Y-112768966D01*
X70266017Y-112774000D01*
X69281983Y-112774000D01*
X69230880Y-112768966D01*
X69182921Y-112754418D01*
X69138732Y-112730799D01*
X69099993Y-112699007D01*
X69068201Y-112660268D01*
X69044582Y-112616079D01*
X69030034Y-112568120D01*
X69025000Y-112517017D01*
X69025000Y-111957983D01*
X69030034Y-111906880D01*
X69044582Y-111858921D01*
X69068201Y-111814732D01*
X69099993Y-111775993D01*
X69138732Y-111744201D01*
X69182921Y-111720582D01*
X69230880Y-111706034D01*
X69281983Y-111701000D01*
X70266017Y-111701000D01*
X70317120Y-111706034D01*
X70317120Y-111706034D01*
G37*
G36*
X100543120Y-111706034D02*
G01*
X100591079Y-111720582D01*
X100635268Y-111744201D01*
X100674007Y-111775993D01*
X100705799Y-111814732D01*
X100729418Y-111858921D01*
X100743966Y-111906880D01*
X100749000Y-111957983D01*
X100749000Y-112517017D01*
X100743966Y-112568120D01*
X100729418Y-112616079D01*
X100705799Y-112660268D01*
X100674007Y-112699007D01*
X100635268Y-112730799D01*
X100591079Y-112754418D01*
X100543120Y-112768966D01*
X100492017Y-112774000D01*
X99507983Y-112774000D01*
X99456880Y-112768966D01*
X99408921Y-112754418D01*
X99364732Y-112730799D01*
X99325993Y-112699007D01*
X99294201Y-112660268D01*
X99270582Y-112616079D01*
X99256034Y-112568120D01*
X99251000Y-112517017D01*
X99251000Y-111957983D01*
X99256034Y-111906880D01*
X99270582Y-111858921D01*
X99294201Y-111814732D01*
X99325993Y-111775993D01*
X99364732Y-111744201D01*
X99408921Y-111720582D01*
X99456880Y-111706034D01*
X99507983Y-111701000D01*
X100492017Y-111701000D01*
X100543120Y-111706034D01*
X100543120Y-111706034D01*
G37*
G36*
X94828120Y-111706034D02*
G01*
X94876079Y-111720582D01*
X94920268Y-111744201D01*
X94959007Y-111775993D01*
X94990799Y-111814732D01*
X95014418Y-111858921D01*
X95028966Y-111906880D01*
X95034000Y-111957983D01*
X95034000Y-112517017D01*
X95028966Y-112568120D01*
X95014418Y-112616079D01*
X94990799Y-112660268D01*
X94959007Y-112699007D01*
X94920268Y-112730799D01*
X94876079Y-112754418D01*
X94828120Y-112768966D01*
X94777017Y-112774000D01*
X93792983Y-112774000D01*
X93741880Y-112768966D01*
X93693921Y-112754418D01*
X93649732Y-112730799D01*
X93610993Y-112699007D01*
X93579201Y-112660268D01*
X93555582Y-112616079D01*
X93541034Y-112568120D01*
X93536000Y-112517017D01*
X93536000Y-111957983D01*
X93541034Y-111906880D01*
X93555582Y-111858921D01*
X93579201Y-111814732D01*
X93610993Y-111775993D01*
X93649732Y-111744201D01*
X93693921Y-111720582D01*
X93741880Y-111706034D01*
X93792983Y-111701000D01*
X94777017Y-111701000D01*
X94828120Y-111706034D01*
X94828120Y-111706034D01*
G37*
G36*
X102448120Y-111706034D02*
G01*
X102496079Y-111720582D01*
X102540268Y-111744201D01*
X102579007Y-111775993D01*
X102610799Y-111814732D01*
X102634418Y-111858921D01*
X102648966Y-111906880D01*
X102654000Y-111957983D01*
X102654000Y-112517017D01*
X102648966Y-112568120D01*
X102634418Y-112616079D01*
X102610799Y-112660268D01*
X102579007Y-112699007D01*
X102540268Y-112730799D01*
X102496079Y-112754418D01*
X102448120Y-112768966D01*
X102397017Y-112774000D01*
X101412983Y-112774000D01*
X101361880Y-112768966D01*
X101313921Y-112754418D01*
X101269732Y-112730799D01*
X101230993Y-112699007D01*
X101199201Y-112660268D01*
X101175582Y-112616079D01*
X101161034Y-112568120D01*
X101156000Y-112517017D01*
X101156000Y-111957983D01*
X101161034Y-111906880D01*
X101175582Y-111858921D01*
X101199201Y-111814732D01*
X101230993Y-111775993D01*
X101269732Y-111744201D01*
X101313921Y-111720582D01*
X101361880Y-111706034D01*
X101412983Y-111701000D01*
X102397017Y-111701000D01*
X102448120Y-111706034D01*
X102448120Y-111706034D01*
G37*
G36*
X96733120Y-111706034D02*
G01*
X96781079Y-111720582D01*
X96825268Y-111744201D01*
X96864007Y-111775993D01*
X96895799Y-111814732D01*
X96919418Y-111858921D01*
X96933966Y-111906880D01*
X96939000Y-111957983D01*
X96939000Y-112517017D01*
X96933966Y-112568120D01*
X96919418Y-112616079D01*
X96895799Y-112660268D01*
X96864007Y-112699007D01*
X96825268Y-112730799D01*
X96781079Y-112754418D01*
X96733120Y-112768966D01*
X96682017Y-112774000D01*
X95697983Y-112774000D01*
X95646880Y-112768966D01*
X95598921Y-112754418D01*
X95554732Y-112730799D01*
X95515993Y-112699007D01*
X95484201Y-112660268D01*
X95460582Y-112616079D01*
X95446034Y-112568120D01*
X95441000Y-112517017D01*
X95441000Y-111957983D01*
X95446034Y-111906880D01*
X95460582Y-111858921D01*
X95484201Y-111814732D01*
X95515993Y-111775993D01*
X95554732Y-111744201D01*
X95598921Y-111720582D01*
X95646880Y-111706034D01*
X95697983Y-111701000D01*
X96682017Y-111701000D01*
X96733120Y-111706034D01*
X96733120Y-111706034D01*
G37*
G36*
X110703120Y-111706034D02*
G01*
X110751079Y-111720582D01*
X110795268Y-111744201D01*
X110834007Y-111775993D01*
X110865799Y-111814732D01*
X110889418Y-111858921D01*
X110903966Y-111906880D01*
X110909000Y-111957983D01*
X110909000Y-112517017D01*
X110903966Y-112568120D01*
X110889418Y-112616079D01*
X110865799Y-112660268D01*
X110834007Y-112699007D01*
X110795268Y-112730799D01*
X110751079Y-112754418D01*
X110703120Y-112768966D01*
X110652017Y-112774000D01*
X109667983Y-112774000D01*
X109616880Y-112768966D01*
X109568921Y-112754418D01*
X109524732Y-112730799D01*
X109485993Y-112699007D01*
X109454201Y-112660268D01*
X109430582Y-112616079D01*
X109416034Y-112568120D01*
X109411000Y-112517017D01*
X109411000Y-111957983D01*
X109416034Y-111906880D01*
X109430582Y-111858921D01*
X109454201Y-111814732D01*
X109485993Y-111775993D01*
X109524732Y-111744201D01*
X109568921Y-111720582D01*
X109616880Y-111706034D01*
X109667983Y-111701000D01*
X110652017Y-111701000D01*
X110703120Y-111706034D01*
X110703120Y-111706034D01*
G37*
G36*
X128737120Y-111706034D02*
G01*
X128785079Y-111720582D01*
X128829268Y-111744201D01*
X128868007Y-111775993D01*
X128899799Y-111814732D01*
X128923418Y-111858921D01*
X128937966Y-111906880D01*
X128943000Y-111957983D01*
X128943000Y-112517017D01*
X128937966Y-112568120D01*
X128923418Y-112616079D01*
X128899799Y-112660268D01*
X128868007Y-112699007D01*
X128829268Y-112730799D01*
X128785079Y-112754418D01*
X128737120Y-112768966D01*
X128686017Y-112774000D01*
X127701983Y-112774000D01*
X127650880Y-112768966D01*
X127602921Y-112754418D01*
X127558732Y-112730799D01*
X127519993Y-112699007D01*
X127488201Y-112660268D01*
X127464582Y-112616079D01*
X127450034Y-112568120D01*
X127445000Y-112517017D01*
X127445000Y-111957983D01*
X127450034Y-111906880D01*
X127464582Y-111858921D01*
X127488201Y-111814732D01*
X127519993Y-111775993D01*
X127558732Y-111744201D01*
X127602921Y-111720582D01*
X127650880Y-111706034D01*
X127701983Y-111701000D01*
X128686017Y-111701000D01*
X128737120Y-111706034D01*
X128737120Y-111706034D01*
G37*
G36*
X88831000Y-112699000D02*
G01*
X87833000Y-112699000D01*
X87833000Y-111801000D01*
X88831000Y-111801000D01*
X88831000Y-112699000D01*
X88831000Y-112699000D01*
G37*
G36*
X82839000Y-112649000D02*
G01*
X81741000Y-112649000D01*
X81741000Y-111851000D01*
X82839000Y-111851000D01*
X82839000Y-112649000D01*
X82839000Y-112649000D01*
G37*
G36*
X126938519Y-111879472D02*
G01*
X126971233Y-111889396D01*
X127001383Y-111905511D01*
X127027805Y-111927195D01*
X127049489Y-111953617D01*
X127065604Y-111983767D01*
X127075528Y-112016481D01*
X127079000Y-112051732D01*
X127079000Y-112448268D01*
X127075528Y-112483519D01*
X127065604Y-112516233D01*
X127049489Y-112546383D01*
X127027805Y-112572805D01*
X127001383Y-112594489D01*
X126971233Y-112610604D01*
X126938519Y-112620528D01*
X126903268Y-112624000D01*
X126096732Y-112624000D01*
X126061481Y-112620528D01*
X126028767Y-112610604D01*
X125998617Y-112594489D01*
X125972195Y-112572805D01*
X125950511Y-112546383D01*
X125934396Y-112516233D01*
X125924472Y-112483519D01*
X125921000Y-112448268D01*
X125921000Y-112051732D01*
X125924472Y-112016481D01*
X125934396Y-111983767D01*
X125950511Y-111953617D01*
X125972195Y-111927195D01*
X125998617Y-111905511D01*
X126028767Y-111889396D01*
X126061481Y-111879472D01*
X126096732Y-111876000D01*
X126903268Y-111876000D01*
X126938519Y-111879472D01*
X126938519Y-111879472D01*
G37*
G36*
X106323519Y-111879472D02*
G01*
X106356233Y-111889396D01*
X106386383Y-111905511D01*
X106412805Y-111927195D01*
X106434489Y-111953617D01*
X106450604Y-111983767D01*
X106460528Y-112016481D01*
X106464000Y-112051732D01*
X106464000Y-112448268D01*
X106460528Y-112483519D01*
X106450604Y-112516233D01*
X106434489Y-112546383D01*
X106412805Y-112572805D01*
X106386383Y-112594489D01*
X106356233Y-112610604D01*
X106323519Y-112620528D01*
X106288268Y-112624000D01*
X105481732Y-112624000D01*
X105446481Y-112620528D01*
X105413767Y-112610604D01*
X105383617Y-112594489D01*
X105357195Y-112572805D01*
X105335511Y-112546383D01*
X105319396Y-112516233D01*
X105309472Y-112483519D01*
X105306000Y-112448268D01*
X105306000Y-112051732D01*
X105309472Y-112016481D01*
X105319396Y-111983767D01*
X105335511Y-111953617D01*
X105357195Y-111927195D01*
X105383617Y-111905511D01*
X105413767Y-111889396D01*
X105446481Y-111879472D01*
X105481732Y-111876000D01*
X106288268Y-111876000D01*
X106323519Y-111879472D01*
X106323519Y-111879472D01*
G37*
G36*
X122493519Y-111879472D02*
G01*
X122526233Y-111889396D01*
X122556383Y-111905511D01*
X122582805Y-111927195D01*
X122604489Y-111953617D01*
X122620604Y-111983767D01*
X122630528Y-112016481D01*
X122634000Y-112051732D01*
X122634000Y-112448268D01*
X122630528Y-112483519D01*
X122620604Y-112516233D01*
X122604489Y-112546383D01*
X122582805Y-112572805D01*
X122556383Y-112594489D01*
X122526233Y-112610604D01*
X122493519Y-112620528D01*
X122458268Y-112624000D01*
X121651732Y-112624000D01*
X121616481Y-112620528D01*
X121583767Y-112610604D01*
X121553617Y-112594489D01*
X121527195Y-112572805D01*
X121505511Y-112546383D01*
X121489396Y-112516233D01*
X121479472Y-112483519D01*
X121476000Y-112448268D01*
X121476000Y-112051732D01*
X121479472Y-112016481D01*
X121489396Y-111983767D01*
X121505511Y-111953617D01*
X121527195Y-111927195D01*
X121553617Y-111905511D01*
X121583767Y-111889396D01*
X121616481Y-111879472D01*
X121651732Y-111876000D01*
X122458268Y-111876000D01*
X122493519Y-111879472D01*
X122493519Y-111879472D01*
G37*
G36*
X120293519Y-111879472D02*
G01*
X120326233Y-111889396D01*
X120356383Y-111905511D01*
X120382805Y-111927195D01*
X120404489Y-111953617D01*
X120420604Y-111983767D01*
X120430528Y-112016481D01*
X120434000Y-112051732D01*
X120434000Y-112448268D01*
X120430528Y-112483519D01*
X120420604Y-112516233D01*
X120404489Y-112546383D01*
X120382805Y-112572805D01*
X120356383Y-112594489D01*
X120326233Y-112610604D01*
X120293519Y-112620528D01*
X120258268Y-112624000D01*
X119451732Y-112624000D01*
X119416481Y-112620528D01*
X119383767Y-112610604D01*
X119353617Y-112594489D01*
X119327195Y-112572805D01*
X119305511Y-112546383D01*
X119289396Y-112516233D01*
X119279472Y-112483519D01*
X119276000Y-112448268D01*
X119276000Y-112051732D01*
X119279472Y-112016481D01*
X119289396Y-111983767D01*
X119305511Y-111953617D01*
X119327195Y-111927195D01*
X119353617Y-111905511D01*
X119383767Y-111889396D01*
X119416481Y-111879472D01*
X119451732Y-111876000D01*
X120258268Y-111876000D01*
X120293519Y-111879472D01*
X120293519Y-111879472D01*
G37*
G36*
X108523519Y-111879472D02*
G01*
X108556233Y-111889396D01*
X108586383Y-111905511D01*
X108612805Y-111927195D01*
X108634489Y-111953617D01*
X108650604Y-111983767D01*
X108660528Y-112016481D01*
X108664000Y-112051732D01*
X108664000Y-112448268D01*
X108660528Y-112483519D01*
X108650604Y-112516233D01*
X108634489Y-112546383D01*
X108612805Y-112572805D01*
X108586383Y-112594489D01*
X108556233Y-112610604D01*
X108523519Y-112620528D01*
X108488268Y-112624000D01*
X107681732Y-112624000D01*
X107646481Y-112620528D01*
X107613767Y-112610604D01*
X107583617Y-112594489D01*
X107557195Y-112572805D01*
X107535511Y-112546383D01*
X107519396Y-112516233D01*
X107509472Y-112483519D01*
X107506000Y-112448268D01*
X107506000Y-112051732D01*
X107509472Y-112016481D01*
X107519396Y-111983767D01*
X107535511Y-111953617D01*
X107557195Y-111927195D01*
X107583617Y-111905511D01*
X107613767Y-111889396D01*
X107646481Y-111879472D01*
X107681732Y-111876000D01*
X108488268Y-111876000D01*
X108523519Y-111879472D01*
X108523519Y-111879472D01*
G37*
G36*
X80583519Y-111879472D02*
G01*
X80616233Y-111889396D01*
X80646383Y-111905511D01*
X80672805Y-111927195D01*
X80694489Y-111953617D01*
X80710604Y-111983767D01*
X80720528Y-112016481D01*
X80724000Y-112051732D01*
X80724000Y-112448268D01*
X80720528Y-112483519D01*
X80710604Y-112516233D01*
X80694489Y-112546383D01*
X80672805Y-112572805D01*
X80646383Y-112594489D01*
X80616233Y-112610604D01*
X80583519Y-112620528D01*
X80548268Y-112624000D01*
X79741732Y-112624000D01*
X79706481Y-112620528D01*
X79673767Y-112610604D01*
X79643617Y-112594489D01*
X79617195Y-112572805D01*
X79595511Y-112546383D01*
X79579396Y-112516233D01*
X79569472Y-112483519D01*
X79566000Y-112448268D01*
X79566000Y-112051732D01*
X79569472Y-112016481D01*
X79579396Y-111983767D01*
X79595511Y-111953617D01*
X79617195Y-111927195D01*
X79643617Y-111905511D01*
X79673767Y-111889396D01*
X79706481Y-111879472D01*
X79741732Y-111876000D01*
X80548268Y-111876000D01*
X80583519Y-111879472D01*
X80583519Y-111879472D01*
G37*
G36*
X64708519Y-111879472D02*
G01*
X64741233Y-111889396D01*
X64771383Y-111905511D01*
X64797805Y-111927195D01*
X64819489Y-111953617D01*
X64835604Y-111983767D01*
X64845528Y-112016481D01*
X64849000Y-112051732D01*
X64849000Y-112448268D01*
X64845528Y-112483519D01*
X64835604Y-112516233D01*
X64819489Y-112546383D01*
X64797805Y-112572805D01*
X64771383Y-112594489D01*
X64741233Y-112610604D01*
X64708519Y-112620528D01*
X64673268Y-112624000D01*
X63866732Y-112624000D01*
X63831481Y-112620528D01*
X63798767Y-112610604D01*
X63768617Y-112594489D01*
X63742195Y-112572805D01*
X63720511Y-112546383D01*
X63704396Y-112516233D01*
X63694472Y-112483519D01*
X63691000Y-112448268D01*
X63691000Y-112051732D01*
X63694472Y-112016481D01*
X63704396Y-111983767D01*
X63720511Y-111953617D01*
X63742195Y-111927195D01*
X63768617Y-111905511D01*
X63798767Y-111889396D01*
X63831481Y-111879472D01*
X63866732Y-111876000D01*
X64673268Y-111876000D01*
X64708519Y-111879472D01*
X64708519Y-111879472D01*
G37*
G36*
X62508519Y-111879472D02*
G01*
X62541233Y-111889396D01*
X62571383Y-111905511D01*
X62597805Y-111927195D01*
X62619489Y-111953617D01*
X62635604Y-111983767D01*
X62645528Y-112016481D01*
X62649000Y-112051732D01*
X62649000Y-112448268D01*
X62645528Y-112483519D01*
X62635604Y-112516233D01*
X62619489Y-112546383D01*
X62597805Y-112572805D01*
X62571383Y-112594489D01*
X62541233Y-112610604D01*
X62508519Y-112620528D01*
X62473268Y-112624000D01*
X61666732Y-112624000D01*
X61631481Y-112620528D01*
X61598767Y-112610604D01*
X61568617Y-112594489D01*
X61542195Y-112572805D01*
X61520511Y-112546383D01*
X61504396Y-112516233D01*
X61494472Y-112483519D01*
X61491000Y-112448268D01*
X61491000Y-112051732D01*
X61494472Y-112016481D01*
X61504396Y-111983767D01*
X61520511Y-111953617D01*
X61542195Y-111927195D01*
X61568617Y-111905511D01*
X61598767Y-111889396D01*
X61631481Y-111879472D01*
X61666732Y-111876000D01*
X62473268Y-111876000D01*
X62508519Y-111879472D01*
X62508519Y-111879472D01*
G37*
G36*
X78383519Y-111879472D02*
G01*
X78416233Y-111889396D01*
X78446383Y-111905511D01*
X78472805Y-111927195D01*
X78494489Y-111953617D01*
X78510604Y-111983767D01*
X78520528Y-112016481D01*
X78524000Y-112051732D01*
X78524000Y-112448268D01*
X78520528Y-112483519D01*
X78510604Y-112516233D01*
X78494489Y-112546383D01*
X78472805Y-112572805D01*
X78446383Y-112594489D01*
X78416233Y-112610604D01*
X78383519Y-112620528D01*
X78348268Y-112624000D01*
X77541732Y-112624000D01*
X77506481Y-112620528D01*
X77473767Y-112610604D01*
X77443617Y-112594489D01*
X77417195Y-112572805D01*
X77395511Y-112546383D01*
X77379396Y-112516233D01*
X77369472Y-112483519D01*
X77366000Y-112448268D01*
X77366000Y-112051732D01*
X77369472Y-112016481D01*
X77379396Y-111983767D01*
X77395511Y-111953617D01*
X77417195Y-111927195D01*
X77443617Y-111905511D01*
X77473767Y-111889396D01*
X77506481Y-111879472D01*
X77541732Y-111876000D01*
X78348268Y-111876000D01*
X78383519Y-111879472D01*
X78383519Y-111879472D01*
G37*
G36*
X76138519Y-111879472D02*
G01*
X76171233Y-111889396D01*
X76201383Y-111905511D01*
X76227805Y-111927195D01*
X76249489Y-111953617D01*
X76265604Y-111983767D01*
X76275528Y-112016481D01*
X76279000Y-112051732D01*
X76279000Y-112448268D01*
X76275528Y-112483519D01*
X76265604Y-112516233D01*
X76249489Y-112546383D01*
X76227805Y-112572805D01*
X76201383Y-112594489D01*
X76171233Y-112610604D01*
X76138519Y-112620528D01*
X76103268Y-112624000D01*
X75296732Y-112624000D01*
X75261481Y-112620528D01*
X75228767Y-112610604D01*
X75198617Y-112594489D01*
X75172195Y-112572805D01*
X75150511Y-112546383D01*
X75134396Y-112516233D01*
X75124472Y-112483519D01*
X75121000Y-112448268D01*
X75121000Y-112051732D01*
X75124472Y-112016481D01*
X75134396Y-111983767D01*
X75150511Y-111953617D01*
X75172195Y-111927195D01*
X75198617Y-111905511D01*
X75228767Y-111889396D01*
X75261481Y-111879472D01*
X75296732Y-111876000D01*
X76103268Y-111876000D01*
X76138519Y-111879472D01*
X76138519Y-111879472D01*
G37*
G36*
X73938519Y-111879472D02*
G01*
X73971233Y-111889396D01*
X74001383Y-111905511D01*
X74027805Y-111927195D01*
X74049489Y-111953617D01*
X74065604Y-111983767D01*
X74075528Y-112016481D01*
X74079000Y-112051732D01*
X74079000Y-112448268D01*
X74075528Y-112483519D01*
X74065604Y-112516233D01*
X74049489Y-112546383D01*
X74027805Y-112572805D01*
X74001383Y-112594489D01*
X73971233Y-112610604D01*
X73938519Y-112620528D01*
X73903268Y-112624000D01*
X73096732Y-112624000D01*
X73061481Y-112620528D01*
X73028767Y-112610604D01*
X72998617Y-112594489D01*
X72972195Y-112572805D01*
X72950511Y-112546383D01*
X72934396Y-112516233D01*
X72924472Y-112483519D01*
X72921000Y-112448268D01*
X72921000Y-112051732D01*
X72924472Y-112016481D01*
X72934396Y-111983767D01*
X72950511Y-111953617D01*
X72972195Y-111927195D01*
X72998617Y-111905511D01*
X73028767Y-111889396D01*
X73061481Y-111879472D01*
X73096732Y-111876000D01*
X73903268Y-111876000D01*
X73938519Y-111879472D01*
X73938519Y-111879472D01*
G37*
G36*
X68518519Y-111879472D02*
G01*
X68551233Y-111889396D01*
X68581383Y-111905511D01*
X68607805Y-111927195D01*
X68629489Y-111953617D01*
X68645604Y-111983767D01*
X68655528Y-112016481D01*
X68659000Y-112051732D01*
X68659000Y-112448268D01*
X68655528Y-112483519D01*
X68645604Y-112516233D01*
X68629489Y-112546383D01*
X68607805Y-112572805D01*
X68581383Y-112594489D01*
X68551233Y-112610604D01*
X68518519Y-112620528D01*
X68483268Y-112624000D01*
X67676732Y-112624000D01*
X67641481Y-112620528D01*
X67608767Y-112610604D01*
X67578617Y-112594489D01*
X67552195Y-112572805D01*
X67530511Y-112546383D01*
X67514396Y-112516233D01*
X67504472Y-112483519D01*
X67501000Y-112448268D01*
X67501000Y-112051732D01*
X67504472Y-112016481D01*
X67514396Y-111983767D01*
X67530511Y-111953617D01*
X67552195Y-111927195D01*
X67578617Y-111905511D01*
X67608767Y-111889396D01*
X67641481Y-111879472D01*
X67676732Y-111876000D01*
X68483268Y-111876000D01*
X68518519Y-111879472D01*
X68518519Y-111879472D01*
G37*
G36*
X66318519Y-111879472D02*
G01*
X66351233Y-111889396D01*
X66381383Y-111905511D01*
X66407805Y-111927195D01*
X66429489Y-111953617D01*
X66445604Y-111983767D01*
X66455528Y-112016481D01*
X66459000Y-112051732D01*
X66459000Y-112448268D01*
X66455528Y-112483519D01*
X66445604Y-112516233D01*
X66429489Y-112546383D01*
X66407805Y-112572805D01*
X66381383Y-112594489D01*
X66351233Y-112610604D01*
X66318519Y-112620528D01*
X66283268Y-112624000D01*
X65476732Y-112624000D01*
X65441481Y-112620528D01*
X65408767Y-112610604D01*
X65378617Y-112594489D01*
X65352195Y-112572805D01*
X65330511Y-112546383D01*
X65314396Y-112516233D01*
X65304472Y-112483519D01*
X65301000Y-112448268D01*
X65301000Y-112051732D01*
X65304472Y-112016481D01*
X65314396Y-111983767D01*
X65330511Y-111953617D01*
X65352195Y-111927195D01*
X65378617Y-111905511D01*
X65408767Y-111889396D01*
X65441481Y-111879472D01*
X65476732Y-111876000D01*
X66283268Y-111876000D01*
X66318519Y-111879472D01*
X66318519Y-111879472D01*
G37*
G36*
X136168519Y-111879472D02*
G01*
X136201233Y-111889396D01*
X136231383Y-111905511D01*
X136257805Y-111927195D01*
X136279489Y-111953617D01*
X136295604Y-111983767D01*
X136305528Y-112016481D01*
X136309000Y-112051732D01*
X136309000Y-112448268D01*
X136305528Y-112483519D01*
X136295604Y-112516233D01*
X136279489Y-112546383D01*
X136257805Y-112572805D01*
X136231383Y-112594489D01*
X136201233Y-112610604D01*
X136168519Y-112620528D01*
X136133268Y-112624000D01*
X135326732Y-112624000D01*
X135291481Y-112620528D01*
X135258767Y-112610604D01*
X135228617Y-112594489D01*
X135202195Y-112572805D01*
X135180511Y-112546383D01*
X135164396Y-112516233D01*
X135154472Y-112483519D01*
X135151000Y-112448268D01*
X135151000Y-112051732D01*
X135154472Y-112016481D01*
X135164396Y-111983767D01*
X135180511Y-111953617D01*
X135202195Y-111927195D01*
X135228617Y-111905511D01*
X135258767Y-111889396D01*
X135291481Y-111879472D01*
X135326732Y-111876000D01*
X136133268Y-111876000D01*
X136168519Y-111879472D01*
X136168519Y-111879472D01*
G37*
G36*
X134558519Y-111879472D02*
G01*
X134591233Y-111889396D01*
X134621383Y-111905511D01*
X134647805Y-111927195D01*
X134669489Y-111953617D01*
X134685604Y-111983767D01*
X134695528Y-112016481D01*
X134699000Y-112051732D01*
X134699000Y-112448268D01*
X134695528Y-112483519D01*
X134685604Y-112516233D01*
X134669489Y-112546383D01*
X134647805Y-112572805D01*
X134621383Y-112594489D01*
X134591233Y-112610604D01*
X134558519Y-112620528D01*
X134523268Y-112624000D01*
X133716732Y-112624000D01*
X133681481Y-112620528D01*
X133648767Y-112610604D01*
X133618617Y-112594489D01*
X133592195Y-112572805D01*
X133570511Y-112546383D01*
X133554396Y-112516233D01*
X133544472Y-112483519D01*
X133541000Y-112448268D01*
X133541000Y-112051732D01*
X133544472Y-112016481D01*
X133554396Y-111983767D01*
X133570511Y-111953617D01*
X133592195Y-111927195D01*
X133618617Y-111905511D01*
X133648767Y-111889396D01*
X133681481Y-111879472D01*
X133716732Y-111876000D01*
X134523268Y-111876000D01*
X134558519Y-111879472D01*
X134558519Y-111879472D01*
G37*
G36*
X138368519Y-111879472D02*
G01*
X138401233Y-111889396D01*
X138431383Y-111905511D01*
X138457805Y-111927195D01*
X138479489Y-111953617D01*
X138495604Y-111983767D01*
X138505528Y-112016481D01*
X138509000Y-112051732D01*
X138509000Y-112448268D01*
X138505528Y-112483519D01*
X138495604Y-112516233D01*
X138479489Y-112546383D01*
X138457805Y-112572805D01*
X138431383Y-112594489D01*
X138401233Y-112610604D01*
X138368519Y-112620528D01*
X138333268Y-112624000D01*
X137526732Y-112624000D01*
X137491481Y-112620528D01*
X137458767Y-112610604D01*
X137428617Y-112594489D01*
X137402195Y-112572805D01*
X137380511Y-112546383D01*
X137364396Y-112516233D01*
X137354472Y-112483519D01*
X137351000Y-112448268D01*
X137351000Y-112051732D01*
X137354472Y-112016481D01*
X137364396Y-111983767D01*
X137380511Y-111953617D01*
X137402195Y-111927195D01*
X137428617Y-111905511D01*
X137458767Y-111889396D01*
X137491481Y-111879472D01*
X137526732Y-111876000D01*
X138333268Y-111876000D01*
X138368519Y-111879472D01*
X138368519Y-111879472D01*
G37*
G36*
X132358519Y-111879472D02*
G01*
X132391233Y-111889396D01*
X132421383Y-111905511D01*
X132447805Y-111927195D01*
X132469489Y-111953617D01*
X132485604Y-111983767D01*
X132495528Y-112016481D01*
X132499000Y-112051732D01*
X132499000Y-112448268D01*
X132495528Y-112483519D01*
X132485604Y-112516233D01*
X132469489Y-112546383D01*
X132447805Y-112572805D01*
X132421383Y-112594489D01*
X132391233Y-112610604D01*
X132358519Y-112620528D01*
X132323268Y-112624000D01*
X131516732Y-112624000D01*
X131481481Y-112620528D01*
X131448767Y-112610604D01*
X131418617Y-112594489D01*
X131392195Y-112572805D01*
X131370511Y-112546383D01*
X131354396Y-112516233D01*
X131344472Y-112483519D01*
X131341000Y-112448268D01*
X131341000Y-112051732D01*
X131344472Y-112016481D01*
X131354396Y-111983767D01*
X131370511Y-111953617D01*
X131392195Y-111927195D01*
X131418617Y-111905511D01*
X131448767Y-111889396D01*
X131481481Y-111879472D01*
X131516732Y-111876000D01*
X132323268Y-111876000D01*
X132358519Y-111879472D01*
X132358519Y-111879472D01*
G37*
G36*
X124738519Y-111879472D02*
G01*
X124771233Y-111889396D01*
X124801383Y-111905511D01*
X124827805Y-111927195D01*
X124849489Y-111953617D01*
X124865604Y-111983767D01*
X124875528Y-112016481D01*
X124879000Y-112051732D01*
X124879000Y-112448268D01*
X124875528Y-112483519D01*
X124865604Y-112516233D01*
X124849489Y-112546383D01*
X124827805Y-112572805D01*
X124801383Y-112594489D01*
X124771233Y-112610604D01*
X124738519Y-112620528D01*
X124703268Y-112624000D01*
X123896732Y-112624000D01*
X123861481Y-112620528D01*
X123828767Y-112610604D01*
X123798617Y-112594489D01*
X123772195Y-112572805D01*
X123750511Y-112546383D01*
X123734396Y-112516233D01*
X123724472Y-112483519D01*
X123721000Y-112448268D01*
X123721000Y-112051732D01*
X123724472Y-112016481D01*
X123734396Y-111983767D01*
X123750511Y-111953617D01*
X123772195Y-111927195D01*
X123798617Y-111905511D01*
X123828767Y-111889396D01*
X123861481Y-111879472D01*
X123896732Y-111876000D01*
X124703268Y-111876000D01*
X124738519Y-111879472D01*
X124738519Y-111879472D01*
G37*
G36*
X148335151Y-109895155D02*
G01*
X148544256Y-109981769D01*
X148732445Y-110107513D01*
X148892487Y-110267555D01*
X149018231Y-110455744D01*
X149104845Y-110664849D01*
X149149000Y-110886833D01*
X149149000Y-111113167D01*
X149104845Y-111335151D01*
X149018231Y-111544256D01*
X148892487Y-111732445D01*
X148732445Y-111892487D01*
X148544256Y-112018231D01*
X148335151Y-112104845D01*
X148113167Y-112149000D01*
X147886833Y-112149000D01*
X147664849Y-112104845D01*
X147455744Y-112018231D01*
X147267555Y-111892487D01*
X147107513Y-111732445D01*
X146981769Y-111544256D01*
X146895155Y-111335151D01*
X146851000Y-111113167D01*
X146851000Y-110886833D01*
X146895155Y-110664849D01*
X146981769Y-110455744D01*
X147107513Y-110267555D01*
X147267555Y-110107513D01*
X147455744Y-109981769D01*
X147664849Y-109895155D01*
X147886833Y-109851000D01*
X148113167Y-109851000D01*
X148335151Y-109895155D01*
X148335151Y-109895155D01*
G37*
G36*
X52335151Y-109895155D02*
G01*
X52544256Y-109981769D01*
X52732445Y-110107513D01*
X52892487Y-110267555D01*
X53018231Y-110455744D01*
X53104845Y-110664849D01*
X53149000Y-110886833D01*
X53149000Y-111113167D01*
X53104845Y-111335151D01*
X53018231Y-111544256D01*
X52892487Y-111732445D01*
X52732445Y-111892487D01*
X52544256Y-112018231D01*
X52335151Y-112104845D01*
X52113167Y-112149000D01*
X51886833Y-112149000D01*
X51664849Y-112104845D01*
X51455744Y-112018231D01*
X51267555Y-111892487D01*
X51107513Y-111732445D01*
X50981769Y-111544256D01*
X50895155Y-111335151D01*
X50851000Y-111113167D01*
X50851000Y-110886833D01*
X50895155Y-110664849D01*
X50981769Y-110455744D01*
X51107513Y-110267555D01*
X51267555Y-110107513D01*
X51455744Y-109981769D01*
X51664849Y-109895155D01*
X51886833Y-109851000D01*
X52113167Y-109851000D01*
X52335151Y-109895155D01*
X52335151Y-109895155D01*
G37*
G36*
X90831000Y-111749000D02*
G01*
X89833000Y-111749000D01*
X89833000Y-110851000D01*
X90831000Y-110851000D01*
X90831000Y-111749000D01*
X90831000Y-111749000D01*
G37*
G36*
X85239000Y-111699000D02*
G01*
X84141000Y-111699000D01*
X84141000Y-110901000D01*
X85239000Y-110901000D01*
X85239000Y-111699000D01*
X85239000Y-111699000D01*
G37*
G36*
X66318519Y-110929472D02*
G01*
X66351233Y-110939396D01*
X66381383Y-110955511D01*
X66407805Y-110977195D01*
X66429489Y-111003617D01*
X66445604Y-111033767D01*
X66455528Y-111066481D01*
X66459000Y-111101732D01*
X66459000Y-111498268D01*
X66455528Y-111533519D01*
X66445604Y-111566233D01*
X66429489Y-111596383D01*
X66407805Y-111622805D01*
X66381383Y-111644489D01*
X66351233Y-111660604D01*
X66318519Y-111670528D01*
X66283268Y-111674000D01*
X65476732Y-111674000D01*
X65441481Y-111670528D01*
X65408767Y-111660604D01*
X65378617Y-111644489D01*
X65352195Y-111622805D01*
X65330511Y-111596383D01*
X65314396Y-111566233D01*
X65304472Y-111533519D01*
X65301000Y-111498268D01*
X65301000Y-111101732D01*
X65304472Y-111066481D01*
X65314396Y-111033767D01*
X65330511Y-111003617D01*
X65352195Y-110977195D01*
X65378617Y-110955511D01*
X65408767Y-110939396D01*
X65441481Y-110929472D01*
X65476732Y-110926000D01*
X66283268Y-110926000D01*
X66318519Y-110929472D01*
X66318519Y-110929472D01*
G37*
G36*
X73938519Y-110929472D02*
G01*
X73971233Y-110939396D01*
X74001383Y-110955511D01*
X74027805Y-110977195D01*
X74049489Y-111003617D01*
X74065604Y-111033767D01*
X74075528Y-111066481D01*
X74079000Y-111101732D01*
X74079000Y-111498268D01*
X74075528Y-111533519D01*
X74065604Y-111566233D01*
X74049489Y-111596383D01*
X74027805Y-111622805D01*
X74001383Y-111644489D01*
X73971233Y-111660604D01*
X73938519Y-111670528D01*
X73903268Y-111674000D01*
X73096732Y-111674000D01*
X73061481Y-111670528D01*
X73028767Y-111660604D01*
X72998617Y-111644489D01*
X72972195Y-111622805D01*
X72950511Y-111596383D01*
X72934396Y-111566233D01*
X72924472Y-111533519D01*
X72921000Y-111498268D01*
X72921000Y-111101732D01*
X72924472Y-111066481D01*
X72934396Y-111033767D01*
X72950511Y-111003617D01*
X72972195Y-110977195D01*
X72998617Y-110955511D01*
X73028767Y-110939396D01*
X73061481Y-110929472D01*
X73096732Y-110926000D01*
X73903268Y-110926000D01*
X73938519Y-110929472D01*
X73938519Y-110929472D01*
G37*
G36*
X138368519Y-110929472D02*
G01*
X138401233Y-110939396D01*
X138431383Y-110955511D01*
X138457805Y-110977195D01*
X138479489Y-111003617D01*
X138495604Y-111033767D01*
X138505528Y-111066481D01*
X138509000Y-111101732D01*
X138509000Y-111498268D01*
X138505528Y-111533519D01*
X138495604Y-111566233D01*
X138479489Y-111596383D01*
X138457805Y-111622805D01*
X138431383Y-111644489D01*
X138401233Y-111660604D01*
X138368519Y-111670528D01*
X138333268Y-111674000D01*
X137526732Y-111674000D01*
X137491481Y-111670528D01*
X137458767Y-111660604D01*
X137428617Y-111644489D01*
X137402195Y-111622805D01*
X137380511Y-111596383D01*
X137364396Y-111566233D01*
X137354472Y-111533519D01*
X137351000Y-111498268D01*
X137351000Y-111101732D01*
X137354472Y-111066481D01*
X137364396Y-111033767D01*
X137380511Y-111003617D01*
X137402195Y-110977195D01*
X137428617Y-110955511D01*
X137458767Y-110939396D01*
X137491481Y-110929472D01*
X137526732Y-110926000D01*
X138333268Y-110926000D01*
X138368519Y-110929472D01*
X138368519Y-110929472D01*
G37*
G36*
X136168519Y-110929472D02*
G01*
X136201233Y-110939396D01*
X136231383Y-110955511D01*
X136257805Y-110977195D01*
X136279489Y-111003617D01*
X136295604Y-111033767D01*
X136305528Y-111066481D01*
X136309000Y-111101732D01*
X136309000Y-111498268D01*
X136305528Y-111533519D01*
X136295604Y-111566233D01*
X136279489Y-111596383D01*
X136257805Y-111622805D01*
X136231383Y-111644489D01*
X136201233Y-111660604D01*
X136168519Y-111670528D01*
X136133268Y-111674000D01*
X135326732Y-111674000D01*
X135291481Y-111670528D01*
X135258767Y-111660604D01*
X135228617Y-111644489D01*
X135202195Y-111622805D01*
X135180511Y-111596383D01*
X135164396Y-111566233D01*
X135154472Y-111533519D01*
X135151000Y-111498268D01*
X135151000Y-111101732D01*
X135154472Y-111066481D01*
X135164396Y-111033767D01*
X135180511Y-111003617D01*
X135202195Y-110977195D01*
X135228617Y-110955511D01*
X135258767Y-110939396D01*
X135291481Y-110929472D01*
X135326732Y-110926000D01*
X136133268Y-110926000D01*
X136168519Y-110929472D01*
X136168519Y-110929472D01*
G37*
G36*
X78383519Y-110929472D02*
G01*
X78416233Y-110939396D01*
X78446383Y-110955511D01*
X78472805Y-110977195D01*
X78494489Y-111003617D01*
X78510604Y-111033767D01*
X78520528Y-111066481D01*
X78524000Y-111101732D01*
X78524000Y-111498268D01*
X78520528Y-111533519D01*
X78510604Y-111566233D01*
X78494489Y-111596383D01*
X78472805Y-111622805D01*
X78446383Y-111644489D01*
X78416233Y-111660604D01*
X78383519Y-111670528D01*
X78348268Y-111674000D01*
X77541732Y-111674000D01*
X77506481Y-111670528D01*
X77473767Y-111660604D01*
X77443617Y-111644489D01*
X77417195Y-111622805D01*
X77395511Y-111596383D01*
X77379396Y-111566233D01*
X77369472Y-111533519D01*
X77366000Y-111498268D01*
X77366000Y-111101732D01*
X77369472Y-111066481D01*
X77379396Y-111033767D01*
X77395511Y-111003617D01*
X77417195Y-110977195D01*
X77443617Y-110955511D01*
X77473767Y-110939396D01*
X77506481Y-110929472D01*
X77541732Y-110926000D01*
X78348268Y-110926000D01*
X78383519Y-110929472D01*
X78383519Y-110929472D01*
G37*
G36*
X120293519Y-110929472D02*
G01*
X120326233Y-110939396D01*
X120356383Y-110955511D01*
X120382805Y-110977195D01*
X120404489Y-111003617D01*
X120420604Y-111033767D01*
X120430528Y-111066481D01*
X120434000Y-111101732D01*
X120434000Y-111498268D01*
X120430528Y-111533519D01*
X120420604Y-111566233D01*
X120404489Y-111596383D01*
X120382805Y-111622805D01*
X120356383Y-111644489D01*
X120326233Y-111660604D01*
X120293519Y-111670528D01*
X120258268Y-111674000D01*
X119451732Y-111674000D01*
X119416481Y-111670528D01*
X119383767Y-111660604D01*
X119353617Y-111644489D01*
X119327195Y-111622805D01*
X119305511Y-111596383D01*
X119289396Y-111566233D01*
X119279472Y-111533519D01*
X119276000Y-111498268D01*
X119276000Y-111101732D01*
X119279472Y-111066481D01*
X119289396Y-111033767D01*
X119305511Y-111003617D01*
X119327195Y-110977195D01*
X119353617Y-110955511D01*
X119383767Y-110939396D01*
X119416481Y-110929472D01*
X119451732Y-110926000D01*
X120258268Y-110926000D01*
X120293519Y-110929472D01*
X120293519Y-110929472D01*
G37*
G36*
X64708519Y-110929472D02*
G01*
X64741233Y-110939396D01*
X64771383Y-110955511D01*
X64797805Y-110977195D01*
X64819489Y-111003617D01*
X64835604Y-111033767D01*
X64845528Y-111066481D01*
X64849000Y-111101732D01*
X64849000Y-111498268D01*
X64845528Y-111533519D01*
X64835604Y-111566233D01*
X64819489Y-111596383D01*
X64797805Y-111622805D01*
X64771383Y-111644489D01*
X64741233Y-111660604D01*
X64708519Y-111670528D01*
X64673268Y-111674000D01*
X63866732Y-111674000D01*
X63831481Y-111670528D01*
X63798767Y-111660604D01*
X63768617Y-111644489D01*
X63742195Y-111622805D01*
X63720511Y-111596383D01*
X63704396Y-111566233D01*
X63694472Y-111533519D01*
X63691000Y-111498268D01*
X63691000Y-111101732D01*
X63694472Y-111066481D01*
X63704396Y-111033767D01*
X63720511Y-111003617D01*
X63742195Y-110977195D01*
X63768617Y-110955511D01*
X63798767Y-110939396D01*
X63831481Y-110929472D01*
X63866732Y-110926000D01*
X64673268Y-110926000D01*
X64708519Y-110929472D01*
X64708519Y-110929472D01*
G37*
G36*
X134558519Y-110929472D02*
G01*
X134591233Y-110939396D01*
X134621383Y-110955511D01*
X134647805Y-110977195D01*
X134669489Y-111003617D01*
X134685604Y-111033767D01*
X134695528Y-111066481D01*
X134699000Y-111101732D01*
X134699000Y-111498268D01*
X134695528Y-111533519D01*
X134685604Y-111566233D01*
X134669489Y-111596383D01*
X134647805Y-111622805D01*
X134621383Y-111644489D01*
X134591233Y-111660604D01*
X134558519Y-111670528D01*
X134523268Y-111674000D01*
X133716732Y-111674000D01*
X133681481Y-111670528D01*
X133648767Y-111660604D01*
X133618617Y-111644489D01*
X133592195Y-111622805D01*
X133570511Y-111596383D01*
X133554396Y-111566233D01*
X133544472Y-111533519D01*
X133541000Y-111498268D01*
X133541000Y-111101732D01*
X133544472Y-111066481D01*
X133554396Y-111033767D01*
X133570511Y-111003617D01*
X133592195Y-110977195D01*
X133618617Y-110955511D01*
X133648767Y-110939396D01*
X133681481Y-110929472D01*
X133716732Y-110926000D01*
X134523268Y-110926000D01*
X134558519Y-110929472D01*
X134558519Y-110929472D01*
G37*
G36*
X132358519Y-110929472D02*
G01*
X132391233Y-110939396D01*
X132421383Y-110955511D01*
X132447805Y-110977195D01*
X132469489Y-111003617D01*
X132485604Y-111033767D01*
X132495528Y-111066481D01*
X132499000Y-111101732D01*
X132499000Y-111498268D01*
X132495528Y-111533519D01*
X132485604Y-111566233D01*
X132469489Y-111596383D01*
X132447805Y-111622805D01*
X132421383Y-111644489D01*
X132391233Y-111660604D01*
X132358519Y-111670528D01*
X132323268Y-111674000D01*
X131516732Y-111674000D01*
X131481481Y-111670528D01*
X131448767Y-111660604D01*
X131418617Y-111644489D01*
X131392195Y-111622805D01*
X131370511Y-111596383D01*
X131354396Y-111566233D01*
X131344472Y-111533519D01*
X131341000Y-111498268D01*
X131341000Y-111101732D01*
X131344472Y-111066481D01*
X131354396Y-111033767D01*
X131370511Y-111003617D01*
X131392195Y-110977195D01*
X131418617Y-110955511D01*
X131448767Y-110939396D01*
X131481481Y-110929472D01*
X131516732Y-110926000D01*
X132323268Y-110926000D01*
X132358519Y-110929472D01*
X132358519Y-110929472D01*
G37*
G36*
X62508519Y-110929472D02*
G01*
X62541233Y-110939396D01*
X62571383Y-110955511D01*
X62597805Y-110977195D01*
X62619489Y-111003617D01*
X62635604Y-111033767D01*
X62645528Y-111066481D01*
X62649000Y-111101732D01*
X62649000Y-111498268D01*
X62645528Y-111533519D01*
X62635604Y-111566233D01*
X62619489Y-111596383D01*
X62597805Y-111622805D01*
X62571383Y-111644489D01*
X62541233Y-111660604D01*
X62508519Y-111670528D01*
X62473268Y-111674000D01*
X61666732Y-111674000D01*
X61631481Y-111670528D01*
X61598767Y-111660604D01*
X61568617Y-111644489D01*
X61542195Y-111622805D01*
X61520511Y-111596383D01*
X61504396Y-111566233D01*
X61494472Y-111533519D01*
X61491000Y-111498268D01*
X61491000Y-111101732D01*
X61494472Y-111066481D01*
X61504396Y-111033767D01*
X61520511Y-111003617D01*
X61542195Y-110977195D01*
X61568617Y-110955511D01*
X61598767Y-110939396D01*
X61631481Y-110929472D01*
X61666732Y-110926000D01*
X62473268Y-110926000D01*
X62508519Y-110929472D01*
X62508519Y-110929472D01*
G37*
G36*
X122493519Y-110929472D02*
G01*
X122526233Y-110939396D01*
X122556383Y-110955511D01*
X122582805Y-110977195D01*
X122604489Y-111003617D01*
X122620604Y-111033767D01*
X122630528Y-111066481D01*
X122634000Y-111101732D01*
X122634000Y-111498268D01*
X122630528Y-111533519D01*
X122620604Y-111566233D01*
X122604489Y-111596383D01*
X122582805Y-111622805D01*
X122556383Y-111644489D01*
X122526233Y-111660604D01*
X122493519Y-111670528D01*
X122458268Y-111674000D01*
X121651732Y-111674000D01*
X121616481Y-111670528D01*
X121583767Y-111660604D01*
X121553617Y-111644489D01*
X121527195Y-111622805D01*
X121505511Y-111596383D01*
X121489396Y-111566233D01*
X121479472Y-111533519D01*
X121476000Y-111498268D01*
X121476000Y-111101732D01*
X121479472Y-111066481D01*
X121489396Y-111033767D01*
X121505511Y-111003617D01*
X121527195Y-110977195D01*
X121553617Y-110955511D01*
X121583767Y-110939396D01*
X121616481Y-110929472D01*
X121651732Y-110926000D01*
X122458268Y-110926000D01*
X122493519Y-110929472D01*
X122493519Y-110929472D01*
G37*
G36*
X126938519Y-110929472D02*
G01*
X126971233Y-110939396D01*
X127001383Y-110955511D01*
X127027805Y-110977195D01*
X127049489Y-111003617D01*
X127065604Y-111033767D01*
X127075528Y-111066481D01*
X127079000Y-111101732D01*
X127079000Y-111498268D01*
X127075528Y-111533519D01*
X127065604Y-111566233D01*
X127049489Y-111596383D01*
X127027805Y-111622805D01*
X127001383Y-111644489D01*
X126971233Y-111660604D01*
X126938519Y-111670528D01*
X126903268Y-111674000D01*
X126096732Y-111674000D01*
X126061481Y-111670528D01*
X126028767Y-111660604D01*
X125998617Y-111644489D01*
X125972195Y-111622805D01*
X125950511Y-111596383D01*
X125934396Y-111566233D01*
X125924472Y-111533519D01*
X125921000Y-111498268D01*
X125921000Y-111101732D01*
X125924472Y-111066481D01*
X125934396Y-111033767D01*
X125950511Y-111003617D01*
X125972195Y-110977195D01*
X125998617Y-110955511D01*
X126028767Y-110939396D01*
X126061481Y-110929472D01*
X126096732Y-110926000D01*
X126903268Y-110926000D01*
X126938519Y-110929472D01*
X126938519Y-110929472D01*
G37*
G36*
X106323519Y-110929472D02*
G01*
X106356233Y-110939396D01*
X106386383Y-110955511D01*
X106412805Y-110977195D01*
X106434489Y-111003617D01*
X106450604Y-111033767D01*
X106460528Y-111066481D01*
X106464000Y-111101732D01*
X106464000Y-111498268D01*
X106460528Y-111533519D01*
X106450604Y-111566233D01*
X106434489Y-111596383D01*
X106412805Y-111622805D01*
X106386383Y-111644489D01*
X106356233Y-111660604D01*
X106323519Y-111670528D01*
X106288268Y-111674000D01*
X105481732Y-111674000D01*
X105446481Y-111670528D01*
X105413767Y-111660604D01*
X105383617Y-111644489D01*
X105357195Y-111622805D01*
X105335511Y-111596383D01*
X105319396Y-111566233D01*
X105309472Y-111533519D01*
X105306000Y-111498268D01*
X105306000Y-111101732D01*
X105309472Y-111066481D01*
X105319396Y-111033767D01*
X105335511Y-111003617D01*
X105357195Y-110977195D01*
X105383617Y-110955511D01*
X105413767Y-110939396D01*
X105446481Y-110929472D01*
X105481732Y-110926000D01*
X106288268Y-110926000D01*
X106323519Y-110929472D01*
X106323519Y-110929472D01*
G37*
G36*
X124738519Y-110929472D02*
G01*
X124771233Y-110939396D01*
X124801383Y-110955511D01*
X124827805Y-110977195D01*
X124849489Y-111003617D01*
X124865604Y-111033767D01*
X124875528Y-111066481D01*
X124879000Y-111101732D01*
X124879000Y-111498268D01*
X124875528Y-111533519D01*
X124865604Y-111566233D01*
X124849489Y-111596383D01*
X124827805Y-111622805D01*
X124801383Y-111644489D01*
X124771233Y-111660604D01*
X124738519Y-111670528D01*
X124703268Y-111674000D01*
X123896732Y-111674000D01*
X123861481Y-111670528D01*
X123828767Y-111660604D01*
X123798617Y-111644489D01*
X123772195Y-111622805D01*
X123750511Y-111596383D01*
X123734396Y-111566233D01*
X123724472Y-111533519D01*
X123721000Y-111498268D01*
X123721000Y-111101732D01*
X123724472Y-111066481D01*
X123734396Y-111033767D01*
X123750511Y-111003617D01*
X123772195Y-110977195D01*
X123798617Y-110955511D01*
X123828767Y-110939396D01*
X123861481Y-110929472D01*
X123896732Y-110926000D01*
X124703268Y-110926000D01*
X124738519Y-110929472D01*
X124738519Y-110929472D01*
G37*
G36*
X76138519Y-110929472D02*
G01*
X76171233Y-110939396D01*
X76201383Y-110955511D01*
X76227805Y-110977195D01*
X76249489Y-111003617D01*
X76265604Y-111033767D01*
X76275528Y-111066481D01*
X76279000Y-111101732D01*
X76279000Y-111498268D01*
X76275528Y-111533519D01*
X76265604Y-111566233D01*
X76249489Y-111596383D01*
X76227805Y-111622805D01*
X76201383Y-111644489D01*
X76171233Y-111660604D01*
X76138519Y-111670528D01*
X76103268Y-111674000D01*
X75296732Y-111674000D01*
X75261481Y-111670528D01*
X75228767Y-111660604D01*
X75198617Y-111644489D01*
X75172195Y-111622805D01*
X75150511Y-111596383D01*
X75134396Y-111566233D01*
X75124472Y-111533519D01*
X75121000Y-111498268D01*
X75121000Y-111101732D01*
X75124472Y-111066481D01*
X75134396Y-111033767D01*
X75150511Y-111003617D01*
X75172195Y-110977195D01*
X75198617Y-110955511D01*
X75228767Y-110939396D01*
X75261481Y-110929472D01*
X75296732Y-110926000D01*
X76103268Y-110926000D01*
X76138519Y-110929472D01*
X76138519Y-110929472D01*
G37*
G36*
X80583519Y-110929472D02*
G01*
X80616233Y-110939396D01*
X80646383Y-110955511D01*
X80672805Y-110977195D01*
X80694489Y-111003617D01*
X80710604Y-111033767D01*
X80720528Y-111066481D01*
X80724000Y-111101732D01*
X80724000Y-111498268D01*
X80720528Y-111533519D01*
X80710604Y-111566233D01*
X80694489Y-111596383D01*
X80672805Y-111622805D01*
X80646383Y-111644489D01*
X80616233Y-111660604D01*
X80583519Y-111670528D01*
X80548268Y-111674000D01*
X79741732Y-111674000D01*
X79706481Y-111670528D01*
X79673767Y-111660604D01*
X79643617Y-111644489D01*
X79617195Y-111622805D01*
X79595511Y-111596383D01*
X79579396Y-111566233D01*
X79569472Y-111533519D01*
X79566000Y-111498268D01*
X79566000Y-111101732D01*
X79569472Y-111066481D01*
X79579396Y-111033767D01*
X79595511Y-111003617D01*
X79617195Y-110977195D01*
X79643617Y-110955511D01*
X79673767Y-110939396D01*
X79706481Y-110929472D01*
X79741732Y-110926000D01*
X80548268Y-110926000D01*
X80583519Y-110929472D01*
X80583519Y-110929472D01*
G37*
G36*
X68518519Y-110929472D02*
G01*
X68551233Y-110939396D01*
X68581383Y-110955511D01*
X68607805Y-110977195D01*
X68629489Y-111003617D01*
X68645604Y-111033767D01*
X68655528Y-111066481D01*
X68659000Y-111101732D01*
X68659000Y-111498268D01*
X68655528Y-111533519D01*
X68645604Y-111566233D01*
X68629489Y-111596383D01*
X68607805Y-111622805D01*
X68581383Y-111644489D01*
X68551233Y-111660604D01*
X68518519Y-111670528D01*
X68483268Y-111674000D01*
X67676732Y-111674000D01*
X67641481Y-111670528D01*
X67608767Y-111660604D01*
X67578617Y-111644489D01*
X67552195Y-111622805D01*
X67530511Y-111596383D01*
X67514396Y-111566233D01*
X67504472Y-111533519D01*
X67501000Y-111498268D01*
X67501000Y-111101732D01*
X67504472Y-111066481D01*
X67514396Y-111033767D01*
X67530511Y-111003617D01*
X67552195Y-110977195D01*
X67578617Y-110955511D01*
X67608767Y-110939396D01*
X67641481Y-110929472D01*
X67676732Y-110926000D01*
X68483268Y-110926000D01*
X68518519Y-110929472D01*
X68518519Y-110929472D01*
G37*
G36*
X94828120Y-109831034D02*
G01*
X94876079Y-109845582D01*
X94920268Y-109869201D01*
X94959007Y-109900993D01*
X94990799Y-109939732D01*
X95014418Y-109983921D01*
X95028966Y-110031880D01*
X95034000Y-110082983D01*
X95034000Y-110642017D01*
X95028966Y-110693120D01*
X95014418Y-110741079D01*
X94990799Y-110785268D01*
X94959007Y-110824007D01*
X94920268Y-110855799D01*
X94876079Y-110879418D01*
X94828120Y-110893966D01*
X94777017Y-110899000D01*
X93792983Y-110899000D01*
X93741880Y-110893966D01*
X93693921Y-110879418D01*
X93649732Y-110855799D01*
X93610993Y-110824007D01*
X93579201Y-110785268D01*
X93555582Y-110741079D01*
X93541034Y-110693120D01*
X93536000Y-110642017D01*
X93536000Y-110082983D01*
X93541034Y-110031880D01*
X93555582Y-109983921D01*
X93579201Y-109939732D01*
X93610993Y-109900993D01*
X93649732Y-109869201D01*
X93693921Y-109845582D01*
X93741880Y-109831034D01*
X93792983Y-109826000D01*
X94777017Y-109826000D01*
X94828120Y-109831034D01*
X94828120Y-109831034D01*
G37*
G36*
X100543120Y-109831034D02*
G01*
X100591079Y-109845582D01*
X100635268Y-109869201D01*
X100674007Y-109900993D01*
X100705799Y-109939732D01*
X100729418Y-109983921D01*
X100743966Y-110031880D01*
X100749000Y-110082983D01*
X100749000Y-110642017D01*
X100743966Y-110693120D01*
X100729418Y-110741079D01*
X100705799Y-110785268D01*
X100674007Y-110824007D01*
X100635268Y-110855799D01*
X100591079Y-110879418D01*
X100543120Y-110893966D01*
X100492017Y-110899000D01*
X99507983Y-110899000D01*
X99456880Y-110893966D01*
X99408921Y-110879418D01*
X99364732Y-110855799D01*
X99325993Y-110824007D01*
X99294201Y-110785268D01*
X99270582Y-110741079D01*
X99256034Y-110693120D01*
X99251000Y-110642017D01*
X99251000Y-110082983D01*
X99256034Y-110031880D01*
X99270582Y-109983921D01*
X99294201Y-109939732D01*
X99325993Y-109900993D01*
X99364732Y-109869201D01*
X99408921Y-109845582D01*
X99456880Y-109831034D01*
X99507983Y-109826000D01*
X100492017Y-109826000D01*
X100543120Y-109831034D01*
X100543120Y-109831034D01*
G37*
G36*
X102448120Y-109831034D02*
G01*
X102496079Y-109845582D01*
X102540268Y-109869201D01*
X102579007Y-109900993D01*
X102610799Y-109939732D01*
X102634418Y-109983921D01*
X102648966Y-110031880D01*
X102654000Y-110082983D01*
X102654000Y-110642017D01*
X102648966Y-110693120D01*
X102634418Y-110741079D01*
X102610799Y-110785268D01*
X102579007Y-110824007D01*
X102540268Y-110855799D01*
X102496079Y-110879418D01*
X102448120Y-110893966D01*
X102397017Y-110899000D01*
X101412983Y-110899000D01*
X101361880Y-110893966D01*
X101313921Y-110879418D01*
X101269732Y-110855799D01*
X101230993Y-110824007D01*
X101199201Y-110785268D01*
X101175582Y-110741079D01*
X101161034Y-110693120D01*
X101156000Y-110642017D01*
X101156000Y-110082983D01*
X101161034Y-110031880D01*
X101175582Y-109983921D01*
X101199201Y-109939732D01*
X101230993Y-109900993D01*
X101269732Y-109869201D01*
X101313921Y-109845582D01*
X101361880Y-109831034D01*
X101412983Y-109826000D01*
X102397017Y-109826000D01*
X102448120Y-109831034D01*
X102448120Y-109831034D01*
G37*
G36*
X128737120Y-109831034D02*
G01*
X128785079Y-109845582D01*
X128829268Y-109869201D01*
X128868007Y-109900993D01*
X128899799Y-109939732D01*
X128923418Y-109983921D01*
X128937966Y-110031880D01*
X128943000Y-110082983D01*
X128943000Y-110642017D01*
X128937966Y-110693120D01*
X128923418Y-110741079D01*
X128899799Y-110785268D01*
X128868007Y-110824007D01*
X128829268Y-110855799D01*
X128785079Y-110879418D01*
X128737120Y-110893966D01*
X128686017Y-110899000D01*
X127701983Y-110899000D01*
X127650880Y-110893966D01*
X127602921Y-110879418D01*
X127558732Y-110855799D01*
X127519993Y-110824007D01*
X127488201Y-110785268D01*
X127464582Y-110741079D01*
X127450034Y-110693120D01*
X127445000Y-110642017D01*
X127445000Y-110082983D01*
X127450034Y-110031880D01*
X127464582Y-109983921D01*
X127488201Y-109939732D01*
X127519993Y-109900993D01*
X127558732Y-109869201D01*
X127602921Y-109845582D01*
X127650880Y-109831034D01*
X127701983Y-109826000D01*
X128686017Y-109826000D01*
X128737120Y-109831034D01*
X128737120Y-109831034D01*
G37*
G36*
X130769120Y-109831034D02*
G01*
X130817079Y-109845582D01*
X130861268Y-109869201D01*
X130900007Y-109900993D01*
X130931799Y-109939732D01*
X130955418Y-109983921D01*
X130969966Y-110031880D01*
X130975000Y-110082983D01*
X130975000Y-110642017D01*
X130969966Y-110693120D01*
X130955418Y-110741079D01*
X130931799Y-110785268D01*
X130900007Y-110824007D01*
X130861268Y-110855799D01*
X130817079Y-110879418D01*
X130769120Y-110893966D01*
X130718017Y-110899000D01*
X129733983Y-110899000D01*
X129682880Y-110893966D01*
X129634921Y-110879418D01*
X129590732Y-110855799D01*
X129551993Y-110824007D01*
X129520201Y-110785268D01*
X129496582Y-110741079D01*
X129482034Y-110693120D01*
X129477000Y-110642017D01*
X129477000Y-110082983D01*
X129482034Y-110031880D01*
X129496582Y-109983921D01*
X129520201Y-109939732D01*
X129551993Y-109900993D01*
X129590732Y-109869201D01*
X129634921Y-109845582D01*
X129682880Y-109831034D01*
X129733983Y-109826000D01*
X130718017Y-109826000D01*
X130769120Y-109831034D01*
X130769120Y-109831034D01*
G37*
G36*
X142554720Y-109831034D02*
G01*
X142602679Y-109845582D01*
X142646868Y-109869201D01*
X142685607Y-109900993D01*
X142717399Y-109939732D01*
X142741018Y-109983921D01*
X142755566Y-110031880D01*
X142760600Y-110082983D01*
X142760600Y-110642017D01*
X142755566Y-110693120D01*
X142741018Y-110741079D01*
X142717399Y-110785268D01*
X142685607Y-110824007D01*
X142646868Y-110855799D01*
X142602679Y-110879418D01*
X142554720Y-110893966D01*
X142503617Y-110899000D01*
X141519583Y-110899000D01*
X141468480Y-110893966D01*
X141420521Y-110879418D01*
X141376332Y-110855799D01*
X141337593Y-110824007D01*
X141305801Y-110785268D01*
X141282182Y-110741079D01*
X141267634Y-110693120D01*
X141262600Y-110642017D01*
X141262600Y-110082983D01*
X141267634Y-110031880D01*
X141282182Y-109983921D01*
X141305801Y-109939732D01*
X141337593Y-109900993D01*
X141376332Y-109869201D01*
X141420521Y-109845582D01*
X141468480Y-109831034D01*
X141519583Y-109826000D01*
X142503617Y-109826000D01*
X142554720Y-109831034D01*
X142554720Y-109831034D01*
G37*
G36*
X92923120Y-109831034D02*
G01*
X92971079Y-109845582D01*
X93015268Y-109869201D01*
X93054007Y-109900993D01*
X93085799Y-109939732D01*
X93109418Y-109983921D01*
X93123966Y-110031880D01*
X93129000Y-110082983D01*
X93129000Y-110642017D01*
X93123966Y-110693120D01*
X93109418Y-110741079D01*
X93085799Y-110785268D01*
X93054007Y-110824007D01*
X93015268Y-110855799D01*
X92971079Y-110879418D01*
X92923120Y-110893966D01*
X92872017Y-110899000D01*
X91887983Y-110899000D01*
X91836880Y-110893966D01*
X91788921Y-110879418D01*
X91744732Y-110855799D01*
X91705993Y-110824007D01*
X91674201Y-110785268D01*
X91650582Y-110741079D01*
X91636034Y-110693120D01*
X91631000Y-110642017D01*
X91631000Y-110082983D01*
X91636034Y-110031880D01*
X91650582Y-109983921D01*
X91674201Y-109939732D01*
X91705993Y-109900993D01*
X91744732Y-109869201D01*
X91788921Y-109845582D01*
X91836880Y-109831034D01*
X91887983Y-109826000D01*
X92872017Y-109826000D01*
X92923120Y-109831034D01*
X92923120Y-109831034D01*
G37*
G36*
X58531520Y-109831034D02*
G01*
X58579479Y-109845582D01*
X58623668Y-109869201D01*
X58662407Y-109900993D01*
X58694199Y-109939732D01*
X58717818Y-109983921D01*
X58732366Y-110031880D01*
X58737400Y-110082983D01*
X58737400Y-110642017D01*
X58732366Y-110693120D01*
X58717818Y-110741079D01*
X58694199Y-110785268D01*
X58662407Y-110824007D01*
X58623668Y-110855799D01*
X58579479Y-110879418D01*
X58531520Y-110893966D01*
X58480417Y-110899000D01*
X57496383Y-110899000D01*
X57445280Y-110893966D01*
X57397321Y-110879418D01*
X57353132Y-110855799D01*
X57314393Y-110824007D01*
X57282601Y-110785268D01*
X57258982Y-110741079D01*
X57244434Y-110693120D01*
X57239400Y-110642017D01*
X57239400Y-110082983D01*
X57244434Y-110031880D01*
X57258982Y-109983921D01*
X57282601Y-109939732D01*
X57314393Y-109900993D01*
X57353132Y-109869201D01*
X57397321Y-109845582D01*
X57445280Y-109831034D01*
X57496383Y-109826000D01*
X58480417Y-109826000D01*
X58531520Y-109831034D01*
X58531520Y-109831034D01*
G37*
G36*
X72222120Y-109831034D02*
G01*
X72270079Y-109845582D01*
X72314268Y-109869201D01*
X72353007Y-109900993D01*
X72384799Y-109939732D01*
X72408418Y-109983921D01*
X72422966Y-110031880D01*
X72428000Y-110082983D01*
X72428000Y-110642017D01*
X72422966Y-110693120D01*
X72408418Y-110741079D01*
X72384799Y-110785268D01*
X72353007Y-110824007D01*
X72314268Y-110855799D01*
X72270079Y-110879418D01*
X72222120Y-110893966D01*
X72171017Y-110899000D01*
X71186983Y-110899000D01*
X71135880Y-110893966D01*
X71087921Y-110879418D01*
X71043732Y-110855799D01*
X71004993Y-110824007D01*
X70973201Y-110785268D01*
X70949582Y-110741079D01*
X70935034Y-110693120D01*
X70930000Y-110642017D01*
X70930000Y-110082983D01*
X70935034Y-110031880D01*
X70949582Y-109983921D01*
X70973201Y-109939732D01*
X71004993Y-109900993D01*
X71043732Y-109869201D01*
X71087921Y-109845582D01*
X71135880Y-109831034D01*
X71186983Y-109826000D01*
X72171017Y-109826000D01*
X72222120Y-109831034D01*
X72222120Y-109831034D01*
G37*
G36*
X70317120Y-109831034D02*
G01*
X70365079Y-109845582D01*
X70409268Y-109869201D01*
X70448007Y-109900993D01*
X70479799Y-109939732D01*
X70503418Y-109983921D01*
X70517966Y-110031880D01*
X70523000Y-110082983D01*
X70523000Y-110642017D01*
X70517966Y-110693120D01*
X70503418Y-110741079D01*
X70479799Y-110785268D01*
X70448007Y-110824007D01*
X70409268Y-110855799D01*
X70365079Y-110879418D01*
X70317120Y-110893966D01*
X70266017Y-110899000D01*
X69281983Y-110899000D01*
X69230880Y-110893966D01*
X69182921Y-110879418D01*
X69138732Y-110855799D01*
X69099993Y-110824007D01*
X69068201Y-110785268D01*
X69044582Y-110741079D01*
X69030034Y-110693120D01*
X69025000Y-110642017D01*
X69025000Y-110082983D01*
X69030034Y-110031880D01*
X69044582Y-109983921D01*
X69068201Y-109939732D01*
X69099993Y-109900993D01*
X69138732Y-109869201D01*
X69182921Y-109845582D01*
X69230880Y-109831034D01*
X69281983Y-109826000D01*
X70266017Y-109826000D01*
X70317120Y-109831034D01*
X70317120Y-109831034D01*
G37*
G36*
X110703120Y-109831034D02*
G01*
X110751079Y-109845582D01*
X110795268Y-109869201D01*
X110834007Y-109900993D01*
X110865799Y-109939732D01*
X110889418Y-109983921D01*
X110903966Y-110031880D01*
X110909000Y-110082983D01*
X110909000Y-110642017D01*
X110903966Y-110693120D01*
X110889418Y-110741079D01*
X110865799Y-110785268D01*
X110834007Y-110824007D01*
X110795268Y-110855799D01*
X110751079Y-110879418D01*
X110703120Y-110893966D01*
X110652017Y-110899000D01*
X109667983Y-110899000D01*
X109616880Y-110893966D01*
X109568921Y-110879418D01*
X109524732Y-110855799D01*
X109485993Y-110824007D01*
X109454201Y-110785268D01*
X109430582Y-110741079D01*
X109416034Y-110693120D01*
X109411000Y-110642017D01*
X109411000Y-110082983D01*
X109416034Y-110031880D01*
X109430582Y-109983921D01*
X109454201Y-109939732D01*
X109485993Y-109900993D01*
X109524732Y-109869201D01*
X109568921Y-109845582D01*
X109616880Y-109831034D01*
X109667983Y-109826000D01*
X110652017Y-109826000D01*
X110703120Y-109831034D01*
X110703120Y-109831034D01*
G37*
G36*
X96733120Y-109831034D02*
G01*
X96781079Y-109845582D01*
X96825268Y-109869201D01*
X96864007Y-109900993D01*
X96895799Y-109939732D01*
X96919418Y-109983921D01*
X96933966Y-110031880D01*
X96939000Y-110082983D01*
X96939000Y-110642017D01*
X96933966Y-110693120D01*
X96919418Y-110741079D01*
X96895799Y-110785268D01*
X96864007Y-110824007D01*
X96825268Y-110855799D01*
X96781079Y-110879418D01*
X96733120Y-110893966D01*
X96682017Y-110899000D01*
X95697983Y-110899000D01*
X95646880Y-110893966D01*
X95598921Y-110879418D01*
X95554732Y-110855799D01*
X95515993Y-110824007D01*
X95484201Y-110785268D01*
X95460582Y-110741079D01*
X95446034Y-110693120D01*
X95441000Y-110642017D01*
X95441000Y-110082983D01*
X95446034Y-110031880D01*
X95460582Y-109983921D01*
X95484201Y-109939732D01*
X95515993Y-109900993D01*
X95554732Y-109869201D01*
X95598921Y-109845582D01*
X95646880Y-109831034D01*
X95697983Y-109826000D01*
X96682017Y-109826000D01*
X96733120Y-109831034D01*
X96733120Y-109831034D01*
G37*
G36*
X98638120Y-109831034D02*
G01*
X98686079Y-109845582D01*
X98730268Y-109869201D01*
X98769007Y-109900993D01*
X98800799Y-109939732D01*
X98824418Y-109983921D01*
X98838966Y-110031880D01*
X98844000Y-110082983D01*
X98844000Y-110642017D01*
X98838966Y-110693120D01*
X98824418Y-110741079D01*
X98800799Y-110785268D01*
X98769007Y-110824007D01*
X98730268Y-110855799D01*
X98686079Y-110879418D01*
X98638120Y-110893966D01*
X98587017Y-110899000D01*
X97602983Y-110899000D01*
X97551880Y-110893966D01*
X97503921Y-110879418D01*
X97459732Y-110855799D01*
X97420993Y-110824007D01*
X97389201Y-110785268D01*
X97365582Y-110741079D01*
X97351034Y-110693120D01*
X97346000Y-110642017D01*
X97346000Y-110082983D01*
X97351034Y-110031880D01*
X97365582Y-109983921D01*
X97389201Y-109939732D01*
X97420993Y-109900993D01*
X97459732Y-109869201D01*
X97503921Y-109845582D01*
X97551880Y-109831034D01*
X97602983Y-109826000D01*
X98587017Y-109826000D01*
X98638120Y-109831034D01*
X98638120Y-109831034D01*
G37*
G36*
X104353120Y-109831034D02*
G01*
X104401079Y-109845582D01*
X104445268Y-109869201D01*
X104484007Y-109900993D01*
X104515799Y-109939732D01*
X104539418Y-109983921D01*
X104553966Y-110031880D01*
X104559000Y-110082983D01*
X104559000Y-110642017D01*
X104553966Y-110693120D01*
X104539418Y-110741079D01*
X104515799Y-110785268D01*
X104484007Y-110824007D01*
X104445268Y-110855799D01*
X104401079Y-110879418D01*
X104353120Y-110893966D01*
X104302017Y-110899000D01*
X103317983Y-110899000D01*
X103266880Y-110893966D01*
X103218921Y-110879418D01*
X103174732Y-110855799D01*
X103135993Y-110824007D01*
X103104201Y-110785268D01*
X103080582Y-110741079D01*
X103066034Y-110693120D01*
X103061000Y-110642017D01*
X103061000Y-110082983D01*
X103066034Y-110031880D01*
X103080582Y-109983921D01*
X103104201Y-109939732D01*
X103135993Y-109900993D01*
X103174732Y-109869201D01*
X103218921Y-109845582D01*
X103266880Y-109831034D01*
X103317983Y-109826000D01*
X104302017Y-109826000D01*
X104353120Y-109831034D01*
X104353120Y-109831034D01*
G37*
G36*
X88831000Y-110799000D02*
G01*
X87833000Y-110799000D01*
X87833000Y-109901000D01*
X88831000Y-109901000D01*
X88831000Y-110799000D01*
X88831000Y-110799000D01*
G37*
G36*
X82839000Y-110749000D02*
G01*
X81741000Y-110749000D01*
X81741000Y-109951000D01*
X82839000Y-109951000D01*
X82839000Y-110749000D01*
X82839000Y-110749000D01*
G37*
G36*
X76138519Y-109979472D02*
G01*
X76171233Y-109989396D01*
X76201383Y-110005511D01*
X76227805Y-110027195D01*
X76249489Y-110053617D01*
X76265604Y-110083767D01*
X76275528Y-110116481D01*
X76279000Y-110151732D01*
X76279000Y-110548268D01*
X76275528Y-110583519D01*
X76265604Y-110616233D01*
X76249489Y-110646383D01*
X76227805Y-110672805D01*
X76201383Y-110694489D01*
X76171233Y-110710604D01*
X76138519Y-110720528D01*
X76103268Y-110724000D01*
X75296732Y-110724000D01*
X75261481Y-110720528D01*
X75228767Y-110710604D01*
X75198617Y-110694489D01*
X75172195Y-110672805D01*
X75150511Y-110646383D01*
X75134396Y-110616233D01*
X75124472Y-110583519D01*
X75121000Y-110548268D01*
X75121000Y-110151732D01*
X75124472Y-110116481D01*
X75134396Y-110083767D01*
X75150511Y-110053617D01*
X75172195Y-110027195D01*
X75198617Y-110005511D01*
X75228767Y-109989396D01*
X75261481Y-109979472D01*
X75296732Y-109976000D01*
X76103268Y-109976000D01*
X76138519Y-109979472D01*
X76138519Y-109979472D01*
G37*
G36*
X132358519Y-109979472D02*
G01*
X132391233Y-109989396D01*
X132421383Y-110005511D01*
X132447805Y-110027195D01*
X132469489Y-110053617D01*
X132485604Y-110083767D01*
X132495528Y-110116481D01*
X132499000Y-110151732D01*
X132499000Y-110548268D01*
X132495528Y-110583519D01*
X132485604Y-110616233D01*
X132469489Y-110646383D01*
X132447805Y-110672805D01*
X132421383Y-110694489D01*
X132391233Y-110710604D01*
X132358519Y-110720528D01*
X132323268Y-110724000D01*
X131516732Y-110724000D01*
X131481481Y-110720528D01*
X131448767Y-110710604D01*
X131418617Y-110694489D01*
X131392195Y-110672805D01*
X131370511Y-110646383D01*
X131354396Y-110616233D01*
X131344472Y-110583519D01*
X131341000Y-110548268D01*
X131341000Y-110151732D01*
X131344472Y-110116481D01*
X131354396Y-110083767D01*
X131370511Y-110053617D01*
X131392195Y-110027195D01*
X131418617Y-110005511D01*
X131448767Y-109989396D01*
X131481481Y-109979472D01*
X131516732Y-109976000D01*
X132323268Y-109976000D01*
X132358519Y-109979472D01*
X132358519Y-109979472D01*
G37*
G36*
X122493519Y-109979472D02*
G01*
X122526233Y-109989396D01*
X122556383Y-110005511D01*
X122582805Y-110027195D01*
X122604489Y-110053617D01*
X122620604Y-110083767D01*
X122630528Y-110116481D01*
X122634000Y-110151732D01*
X122634000Y-110548268D01*
X122630528Y-110583519D01*
X122620604Y-110616233D01*
X122604489Y-110646383D01*
X122582805Y-110672805D01*
X122556383Y-110694489D01*
X122526233Y-110710604D01*
X122493519Y-110720528D01*
X122458268Y-110724000D01*
X121651732Y-110724000D01*
X121616481Y-110720528D01*
X121583767Y-110710604D01*
X121553617Y-110694489D01*
X121527195Y-110672805D01*
X121505511Y-110646383D01*
X121489396Y-110616233D01*
X121479472Y-110583519D01*
X121476000Y-110548268D01*
X121476000Y-110151732D01*
X121479472Y-110116481D01*
X121489396Y-110083767D01*
X121505511Y-110053617D01*
X121527195Y-110027195D01*
X121553617Y-110005511D01*
X121583767Y-109989396D01*
X121616481Y-109979472D01*
X121651732Y-109976000D01*
X122458268Y-109976000D01*
X122493519Y-109979472D01*
X122493519Y-109979472D01*
G37*
G36*
X138368519Y-109979472D02*
G01*
X138401233Y-109989396D01*
X138431383Y-110005511D01*
X138457805Y-110027195D01*
X138479489Y-110053617D01*
X138495604Y-110083767D01*
X138505528Y-110116481D01*
X138509000Y-110151732D01*
X138509000Y-110548268D01*
X138505528Y-110583519D01*
X138495604Y-110616233D01*
X138479489Y-110646383D01*
X138457805Y-110672805D01*
X138431383Y-110694489D01*
X138401233Y-110710604D01*
X138368519Y-110720528D01*
X138333268Y-110724000D01*
X137526732Y-110724000D01*
X137491481Y-110720528D01*
X137458767Y-110710604D01*
X137428617Y-110694489D01*
X137402195Y-110672805D01*
X137380511Y-110646383D01*
X137364396Y-110616233D01*
X137354472Y-110583519D01*
X137351000Y-110548268D01*
X137351000Y-110151732D01*
X137354472Y-110116481D01*
X137364396Y-110083767D01*
X137380511Y-110053617D01*
X137402195Y-110027195D01*
X137428617Y-110005511D01*
X137458767Y-109989396D01*
X137491481Y-109979472D01*
X137526732Y-109976000D01*
X138333268Y-109976000D01*
X138368519Y-109979472D01*
X138368519Y-109979472D01*
G37*
G36*
X136168519Y-109979472D02*
G01*
X136201233Y-109989396D01*
X136231383Y-110005511D01*
X136257805Y-110027195D01*
X136279489Y-110053617D01*
X136295604Y-110083767D01*
X136305528Y-110116481D01*
X136309000Y-110151732D01*
X136309000Y-110548268D01*
X136305528Y-110583519D01*
X136295604Y-110616233D01*
X136279489Y-110646383D01*
X136257805Y-110672805D01*
X136231383Y-110694489D01*
X136201233Y-110710604D01*
X136168519Y-110720528D01*
X136133268Y-110724000D01*
X135326732Y-110724000D01*
X135291481Y-110720528D01*
X135258767Y-110710604D01*
X135228617Y-110694489D01*
X135202195Y-110672805D01*
X135180511Y-110646383D01*
X135164396Y-110616233D01*
X135154472Y-110583519D01*
X135151000Y-110548268D01*
X135151000Y-110151732D01*
X135154472Y-110116481D01*
X135164396Y-110083767D01*
X135180511Y-110053617D01*
X135202195Y-110027195D01*
X135228617Y-110005511D01*
X135258767Y-109989396D01*
X135291481Y-109979472D01*
X135326732Y-109976000D01*
X136133268Y-109976000D01*
X136168519Y-109979472D01*
X136168519Y-109979472D01*
G37*
G36*
X134558519Y-109979472D02*
G01*
X134591233Y-109989396D01*
X134621383Y-110005511D01*
X134647805Y-110027195D01*
X134669489Y-110053617D01*
X134685604Y-110083767D01*
X134695528Y-110116481D01*
X134699000Y-110151732D01*
X134699000Y-110548268D01*
X134695528Y-110583519D01*
X134685604Y-110616233D01*
X134669489Y-110646383D01*
X134647805Y-110672805D01*
X134621383Y-110694489D01*
X134591233Y-110710604D01*
X134558519Y-110720528D01*
X134523268Y-110724000D01*
X133716732Y-110724000D01*
X133681481Y-110720528D01*
X133648767Y-110710604D01*
X133618617Y-110694489D01*
X133592195Y-110672805D01*
X133570511Y-110646383D01*
X133554396Y-110616233D01*
X133544472Y-110583519D01*
X133541000Y-110548268D01*
X133541000Y-110151732D01*
X133544472Y-110116481D01*
X133554396Y-110083767D01*
X133570511Y-110053617D01*
X133592195Y-110027195D01*
X133618617Y-110005511D01*
X133648767Y-109989396D01*
X133681481Y-109979472D01*
X133716732Y-109976000D01*
X134523268Y-109976000D01*
X134558519Y-109979472D01*
X134558519Y-109979472D01*
G37*
G36*
X124738519Y-109979472D02*
G01*
X124771233Y-109989396D01*
X124801383Y-110005511D01*
X124827805Y-110027195D01*
X124849489Y-110053617D01*
X124865604Y-110083767D01*
X124875528Y-110116481D01*
X124879000Y-110151732D01*
X124879000Y-110548268D01*
X124875528Y-110583519D01*
X124865604Y-110616233D01*
X124849489Y-110646383D01*
X124827805Y-110672805D01*
X124801383Y-110694489D01*
X124771233Y-110710604D01*
X124738519Y-110720528D01*
X124703268Y-110724000D01*
X123896732Y-110724000D01*
X123861481Y-110720528D01*
X123828767Y-110710604D01*
X123798617Y-110694489D01*
X123772195Y-110672805D01*
X123750511Y-110646383D01*
X123734396Y-110616233D01*
X123724472Y-110583519D01*
X123721000Y-110548268D01*
X123721000Y-110151732D01*
X123724472Y-110116481D01*
X123734396Y-110083767D01*
X123750511Y-110053617D01*
X123772195Y-110027195D01*
X123798617Y-110005511D01*
X123828767Y-109989396D01*
X123861481Y-109979472D01*
X123896732Y-109976000D01*
X124703268Y-109976000D01*
X124738519Y-109979472D01*
X124738519Y-109979472D01*
G37*
G36*
X120293519Y-109979472D02*
G01*
X120326233Y-109989396D01*
X120356383Y-110005511D01*
X120382805Y-110027195D01*
X120404489Y-110053617D01*
X120420604Y-110083767D01*
X120430528Y-110116481D01*
X120434000Y-110151732D01*
X120434000Y-110548268D01*
X120430528Y-110583519D01*
X120420604Y-110616233D01*
X120404489Y-110646383D01*
X120382805Y-110672805D01*
X120356383Y-110694489D01*
X120326233Y-110710604D01*
X120293519Y-110720528D01*
X120258268Y-110724000D01*
X119451732Y-110724000D01*
X119416481Y-110720528D01*
X119383767Y-110710604D01*
X119353617Y-110694489D01*
X119327195Y-110672805D01*
X119305511Y-110646383D01*
X119289396Y-110616233D01*
X119279472Y-110583519D01*
X119276000Y-110548268D01*
X119276000Y-110151732D01*
X119279472Y-110116481D01*
X119289396Y-110083767D01*
X119305511Y-110053617D01*
X119327195Y-110027195D01*
X119353617Y-110005511D01*
X119383767Y-109989396D01*
X119416481Y-109979472D01*
X119451732Y-109976000D01*
X120258268Y-109976000D01*
X120293519Y-109979472D01*
X120293519Y-109979472D01*
G37*
G36*
X66318519Y-109979472D02*
G01*
X66351233Y-109989396D01*
X66381383Y-110005511D01*
X66407805Y-110027195D01*
X66429489Y-110053617D01*
X66445604Y-110083767D01*
X66455528Y-110116481D01*
X66459000Y-110151732D01*
X66459000Y-110548268D01*
X66455528Y-110583519D01*
X66445604Y-110616233D01*
X66429489Y-110646383D01*
X66407805Y-110672805D01*
X66381383Y-110694489D01*
X66351233Y-110710604D01*
X66318519Y-110720528D01*
X66283268Y-110724000D01*
X65476732Y-110724000D01*
X65441481Y-110720528D01*
X65408767Y-110710604D01*
X65378617Y-110694489D01*
X65352195Y-110672805D01*
X65330511Y-110646383D01*
X65314396Y-110616233D01*
X65304472Y-110583519D01*
X65301000Y-110548268D01*
X65301000Y-110151732D01*
X65304472Y-110116481D01*
X65314396Y-110083767D01*
X65330511Y-110053617D01*
X65352195Y-110027195D01*
X65378617Y-110005511D01*
X65408767Y-109989396D01*
X65441481Y-109979472D01*
X65476732Y-109976000D01*
X66283268Y-109976000D01*
X66318519Y-109979472D01*
X66318519Y-109979472D01*
G37*
G36*
X68518519Y-109979472D02*
G01*
X68551233Y-109989396D01*
X68581383Y-110005511D01*
X68607805Y-110027195D01*
X68629489Y-110053617D01*
X68645604Y-110083767D01*
X68655528Y-110116481D01*
X68659000Y-110151732D01*
X68659000Y-110548268D01*
X68655528Y-110583519D01*
X68645604Y-110616233D01*
X68629489Y-110646383D01*
X68607805Y-110672805D01*
X68581383Y-110694489D01*
X68551233Y-110710604D01*
X68518519Y-110720528D01*
X68483268Y-110724000D01*
X67676732Y-110724000D01*
X67641481Y-110720528D01*
X67608767Y-110710604D01*
X67578617Y-110694489D01*
X67552195Y-110672805D01*
X67530511Y-110646383D01*
X67514396Y-110616233D01*
X67504472Y-110583519D01*
X67501000Y-110548268D01*
X67501000Y-110151732D01*
X67504472Y-110116481D01*
X67514396Y-110083767D01*
X67530511Y-110053617D01*
X67552195Y-110027195D01*
X67578617Y-110005511D01*
X67608767Y-109989396D01*
X67641481Y-109979472D01*
X67676732Y-109976000D01*
X68483268Y-109976000D01*
X68518519Y-109979472D01*
X68518519Y-109979472D01*
G37*
G36*
X126938519Y-109979472D02*
G01*
X126971233Y-109989396D01*
X127001383Y-110005511D01*
X127027805Y-110027195D01*
X127049489Y-110053617D01*
X127065604Y-110083767D01*
X127075528Y-110116481D01*
X127079000Y-110151732D01*
X127079000Y-110548268D01*
X127075528Y-110583519D01*
X127065604Y-110616233D01*
X127049489Y-110646383D01*
X127027805Y-110672805D01*
X127001383Y-110694489D01*
X126971233Y-110710604D01*
X126938519Y-110720528D01*
X126903268Y-110724000D01*
X126096732Y-110724000D01*
X126061481Y-110720528D01*
X126028767Y-110710604D01*
X125998617Y-110694489D01*
X125972195Y-110672805D01*
X125950511Y-110646383D01*
X125934396Y-110616233D01*
X125924472Y-110583519D01*
X125921000Y-110548268D01*
X125921000Y-110151732D01*
X125924472Y-110116481D01*
X125934396Y-110083767D01*
X125950511Y-110053617D01*
X125972195Y-110027195D01*
X125998617Y-110005511D01*
X126028767Y-109989396D01*
X126061481Y-109979472D01*
X126096732Y-109976000D01*
X126903268Y-109976000D01*
X126938519Y-109979472D01*
X126938519Y-109979472D01*
G37*
G36*
X62508519Y-109979472D02*
G01*
X62541233Y-109989396D01*
X62571383Y-110005511D01*
X62597805Y-110027195D01*
X62619489Y-110053617D01*
X62635604Y-110083767D01*
X62645528Y-110116481D01*
X62649000Y-110151732D01*
X62649000Y-110548268D01*
X62645528Y-110583519D01*
X62635604Y-110616233D01*
X62619489Y-110646383D01*
X62597805Y-110672805D01*
X62571383Y-110694489D01*
X62541233Y-110710604D01*
X62508519Y-110720528D01*
X62473268Y-110724000D01*
X61666732Y-110724000D01*
X61631481Y-110720528D01*
X61598767Y-110710604D01*
X61568617Y-110694489D01*
X61542195Y-110672805D01*
X61520511Y-110646383D01*
X61504396Y-110616233D01*
X61494472Y-110583519D01*
X61491000Y-110548268D01*
X61491000Y-110151732D01*
X61494472Y-110116481D01*
X61504396Y-110083767D01*
X61520511Y-110053617D01*
X61542195Y-110027195D01*
X61568617Y-110005511D01*
X61598767Y-109989396D01*
X61631481Y-109979472D01*
X61666732Y-109976000D01*
X62473268Y-109976000D01*
X62508519Y-109979472D01*
X62508519Y-109979472D01*
G37*
G36*
X80583519Y-109979472D02*
G01*
X80616233Y-109989396D01*
X80646383Y-110005511D01*
X80672805Y-110027195D01*
X80694489Y-110053617D01*
X80710604Y-110083767D01*
X80720528Y-110116481D01*
X80724000Y-110151732D01*
X80724000Y-110548268D01*
X80720528Y-110583519D01*
X80710604Y-110616233D01*
X80694489Y-110646383D01*
X80672805Y-110672805D01*
X80646383Y-110694489D01*
X80616233Y-110710604D01*
X80583519Y-110720528D01*
X80548268Y-110724000D01*
X79741732Y-110724000D01*
X79706481Y-110720528D01*
X79673767Y-110710604D01*
X79643617Y-110694489D01*
X79617195Y-110672805D01*
X79595511Y-110646383D01*
X79579396Y-110616233D01*
X79569472Y-110583519D01*
X79566000Y-110548268D01*
X79566000Y-110151732D01*
X79569472Y-110116481D01*
X79579396Y-110083767D01*
X79595511Y-110053617D01*
X79617195Y-110027195D01*
X79643617Y-110005511D01*
X79673767Y-109989396D01*
X79706481Y-109979472D01*
X79741732Y-109976000D01*
X80548268Y-109976000D01*
X80583519Y-109979472D01*
X80583519Y-109979472D01*
G37*
G36*
X64708519Y-109979472D02*
G01*
X64741233Y-109989396D01*
X64771383Y-110005511D01*
X64797805Y-110027195D01*
X64819489Y-110053617D01*
X64835604Y-110083767D01*
X64845528Y-110116481D01*
X64849000Y-110151732D01*
X64849000Y-110548268D01*
X64845528Y-110583519D01*
X64835604Y-110616233D01*
X64819489Y-110646383D01*
X64797805Y-110672805D01*
X64771383Y-110694489D01*
X64741233Y-110710604D01*
X64708519Y-110720528D01*
X64673268Y-110724000D01*
X63866732Y-110724000D01*
X63831481Y-110720528D01*
X63798767Y-110710604D01*
X63768617Y-110694489D01*
X63742195Y-110672805D01*
X63720511Y-110646383D01*
X63704396Y-110616233D01*
X63694472Y-110583519D01*
X63691000Y-110548268D01*
X63691000Y-110151732D01*
X63694472Y-110116481D01*
X63704396Y-110083767D01*
X63720511Y-110053617D01*
X63742195Y-110027195D01*
X63768617Y-110005511D01*
X63798767Y-109989396D01*
X63831481Y-109979472D01*
X63866732Y-109976000D01*
X64673268Y-109976000D01*
X64708519Y-109979472D01*
X64708519Y-109979472D01*
G37*
G36*
X106323519Y-109979472D02*
G01*
X106356233Y-109989396D01*
X106386383Y-110005511D01*
X106412805Y-110027195D01*
X106434489Y-110053617D01*
X106450604Y-110083767D01*
X106460528Y-110116481D01*
X106464000Y-110151732D01*
X106464000Y-110548268D01*
X106460528Y-110583519D01*
X106450604Y-110616233D01*
X106434489Y-110646383D01*
X106412805Y-110672805D01*
X106386383Y-110694489D01*
X106356233Y-110710604D01*
X106323519Y-110720528D01*
X106288268Y-110724000D01*
X105481732Y-110724000D01*
X105446481Y-110720528D01*
X105413767Y-110710604D01*
X105383617Y-110694489D01*
X105357195Y-110672805D01*
X105335511Y-110646383D01*
X105319396Y-110616233D01*
X105309472Y-110583519D01*
X105306000Y-110548268D01*
X105306000Y-110151732D01*
X105309472Y-110116481D01*
X105319396Y-110083767D01*
X105335511Y-110053617D01*
X105357195Y-110027195D01*
X105383617Y-110005511D01*
X105413767Y-109989396D01*
X105446481Y-109979472D01*
X105481732Y-109976000D01*
X106288268Y-109976000D01*
X106323519Y-109979472D01*
X106323519Y-109979472D01*
G37*
G36*
X78383519Y-109979472D02*
G01*
X78416233Y-109989396D01*
X78446383Y-110005511D01*
X78472805Y-110027195D01*
X78494489Y-110053617D01*
X78510604Y-110083767D01*
X78520528Y-110116481D01*
X78524000Y-110151732D01*
X78524000Y-110548268D01*
X78520528Y-110583519D01*
X78510604Y-110616233D01*
X78494489Y-110646383D01*
X78472805Y-110672805D01*
X78446383Y-110694489D01*
X78416233Y-110710604D01*
X78383519Y-110720528D01*
X78348268Y-110724000D01*
X77541732Y-110724000D01*
X77506481Y-110720528D01*
X77473767Y-110710604D01*
X77443617Y-110694489D01*
X77417195Y-110672805D01*
X77395511Y-110646383D01*
X77379396Y-110616233D01*
X77369472Y-110583519D01*
X77366000Y-110548268D01*
X77366000Y-110151732D01*
X77369472Y-110116481D01*
X77379396Y-110083767D01*
X77395511Y-110053617D01*
X77417195Y-110027195D01*
X77443617Y-110005511D01*
X77473767Y-109989396D01*
X77506481Y-109979472D01*
X77541732Y-109976000D01*
X78348268Y-109976000D01*
X78383519Y-109979472D01*
X78383519Y-109979472D01*
G37*
G36*
X108523519Y-109979472D02*
G01*
X108556233Y-109989396D01*
X108586383Y-110005511D01*
X108612805Y-110027195D01*
X108634489Y-110053617D01*
X108650604Y-110083767D01*
X108660528Y-110116481D01*
X108664000Y-110151732D01*
X108664000Y-110548268D01*
X108660528Y-110583519D01*
X108650604Y-110616233D01*
X108634489Y-110646383D01*
X108612805Y-110672805D01*
X108586383Y-110694489D01*
X108556233Y-110710604D01*
X108523519Y-110720528D01*
X108488268Y-110724000D01*
X107681732Y-110724000D01*
X107646481Y-110720528D01*
X107613767Y-110710604D01*
X107583617Y-110694489D01*
X107557195Y-110672805D01*
X107535511Y-110646383D01*
X107519396Y-110616233D01*
X107509472Y-110583519D01*
X107506000Y-110548268D01*
X107506000Y-110151732D01*
X107509472Y-110116481D01*
X107519396Y-110083767D01*
X107535511Y-110053617D01*
X107557195Y-110027195D01*
X107583617Y-110005511D01*
X107613767Y-109989396D01*
X107646481Y-109979472D01*
X107681732Y-109976000D01*
X108488268Y-109976000D01*
X108523519Y-109979472D01*
X108523519Y-109979472D01*
G37*
G36*
X73938519Y-109979472D02*
G01*
X73971233Y-109989396D01*
X74001383Y-110005511D01*
X74027805Y-110027195D01*
X74049489Y-110053617D01*
X74065604Y-110083767D01*
X74075528Y-110116481D01*
X74079000Y-110151732D01*
X74079000Y-110548268D01*
X74075528Y-110583519D01*
X74065604Y-110616233D01*
X74049489Y-110646383D01*
X74027805Y-110672805D01*
X74001383Y-110694489D01*
X73971233Y-110710604D01*
X73938519Y-110720528D01*
X73903268Y-110724000D01*
X73096732Y-110724000D01*
X73061481Y-110720528D01*
X73028767Y-110710604D01*
X72998617Y-110694489D01*
X72972195Y-110672805D01*
X72950511Y-110646383D01*
X72934396Y-110616233D01*
X72924472Y-110583519D01*
X72921000Y-110548268D01*
X72921000Y-110151732D01*
X72924472Y-110116481D01*
X72934396Y-110083767D01*
X72950511Y-110053617D01*
X72972195Y-110027195D01*
X72998617Y-110005511D01*
X73028767Y-109989396D01*
X73061481Y-109979472D01*
X73096732Y-109976000D01*
X73903268Y-109976000D01*
X73938519Y-109979472D01*
X73938519Y-109979472D01*
G37*
G36*
X123347480Y-105208555D02*
G01*
X123420051Y-105230570D01*
X123486939Y-105266322D01*
X123545565Y-105314435D01*
X123593678Y-105373061D01*
X123629430Y-105439949D01*
X123651445Y-105512520D01*
X123659000Y-105589232D01*
X123659000Y-106910768D01*
X123651445Y-106987480D01*
X123629430Y-107060051D01*
X123593678Y-107126939D01*
X123545565Y-107185565D01*
X123486939Y-107233678D01*
X123420051Y-107269430D01*
X123347480Y-107291445D01*
X123270768Y-107299000D01*
X122449232Y-107299000D01*
X122372520Y-107291445D01*
X122299949Y-107269430D01*
X122233061Y-107233678D01*
X122174435Y-107185565D01*
X122126322Y-107126939D01*
X122090570Y-107060051D01*
X122068555Y-106987480D01*
X122061000Y-106910768D01*
X122061000Y-105589232D01*
X122068555Y-105512520D01*
X122090570Y-105439949D01*
X122126322Y-105373061D01*
X122174435Y-105314435D01*
X122233061Y-105266322D01*
X122299949Y-105230570D01*
X122372520Y-105208555D01*
X122449232Y-105201000D01*
X123270768Y-105201000D01*
X123347480Y-105208555D01*
X123347480Y-105208555D01*
G37*
G36*
X130967480Y-105208555D02*
G01*
X131040051Y-105230570D01*
X131106939Y-105266322D01*
X131165565Y-105314435D01*
X131213678Y-105373061D01*
X131249430Y-105439949D01*
X131271445Y-105512520D01*
X131279000Y-105589232D01*
X131279000Y-106910768D01*
X131271445Y-106987480D01*
X131249430Y-107060051D01*
X131213678Y-107126939D01*
X131165565Y-107185565D01*
X131106939Y-107233678D01*
X131040051Y-107269430D01*
X130967480Y-107291445D01*
X130890768Y-107299000D01*
X130069232Y-107299000D01*
X129992520Y-107291445D01*
X129919949Y-107269430D01*
X129853061Y-107233678D01*
X129794435Y-107185565D01*
X129746322Y-107126939D01*
X129710570Y-107060051D01*
X129688555Y-106987480D01*
X129681000Y-106910768D01*
X129681000Y-105589232D01*
X129688555Y-105512520D01*
X129710570Y-105439949D01*
X129746322Y-105373061D01*
X129794435Y-105314435D01*
X129853061Y-105266322D01*
X129919949Y-105230570D01*
X129992520Y-105208555D01*
X130069232Y-105201000D01*
X130890768Y-105201000D01*
X130967480Y-105208555D01*
X130967480Y-105208555D01*
G37*
G36*
X128427480Y-105208555D02*
G01*
X128500051Y-105230570D01*
X128566939Y-105266322D01*
X128625565Y-105314435D01*
X128673678Y-105373061D01*
X128709430Y-105439949D01*
X128731445Y-105512520D01*
X128739000Y-105589232D01*
X128739000Y-106910768D01*
X128731445Y-106987480D01*
X128709430Y-107060051D01*
X128673678Y-107126939D01*
X128625565Y-107185565D01*
X128566939Y-107233678D01*
X128500051Y-107269430D01*
X128427480Y-107291445D01*
X128350768Y-107299000D01*
X127529232Y-107299000D01*
X127452520Y-107291445D01*
X127379949Y-107269430D01*
X127313061Y-107233678D01*
X127254435Y-107185565D01*
X127206322Y-107126939D01*
X127170570Y-107060051D01*
X127148555Y-106987480D01*
X127141000Y-106910768D01*
X127141000Y-105589232D01*
X127148555Y-105512520D01*
X127170570Y-105439949D01*
X127206322Y-105373061D01*
X127254435Y-105314435D01*
X127313061Y-105266322D01*
X127379949Y-105230570D01*
X127452520Y-105208555D01*
X127529232Y-105201000D01*
X128350768Y-105201000D01*
X128427480Y-105208555D01*
X128427480Y-105208555D01*
G37*
G36*
X125887480Y-105208555D02*
G01*
X125960051Y-105230570D01*
X126026939Y-105266322D01*
X126085565Y-105314435D01*
X126133678Y-105373061D01*
X126169430Y-105439949D01*
X126191445Y-105512520D01*
X126199000Y-105589232D01*
X126199000Y-106910768D01*
X126191445Y-106987480D01*
X126169430Y-107060051D01*
X126133678Y-107126939D01*
X126085565Y-107185565D01*
X126026939Y-107233678D01*
X125960051Y-107269430D01*
X125887480Y-107291445D01*
X125810768Y-107299000D01*
X124989232Y-107299000D01*
X124912520Y-107291445D01*
X124839949Y-107269430D01*
X124773061Y-107233678D01*
X124714435Y-107185565D01*
X124666322Y-107126939D01*
X124630570Y-107060051D01*
X124608555Y-106987480D01*
X124601000Y-106910768D01*
X124601000Y-105589232D01*
X124608555Y-105512520D01*
X124630570Y-105439949D01*
X124666322Y-105373061D01*
X124714435Y-105314435D01*
X124773061Y-105266322D01*
X124839949Y-105230570D01*
X124912520Y-105208555D01*
X124989232Y-105201000D01*
X125810768Y-105201000D01*
X125887480Y-105208555D01*
X125887480Y-105208555D01*
G37*
G36*
X75087480Y-105208555D02*
G01*
X75160051Y-105230570D01*
X75226939Y-105266322D01*
X75285565Y-105314435D01*
X75333678Y-105373061D01*
X75369430Y-105439949D01*
X75391445Y-105512520D01*
X75399000Y-105589232D01*
X75399000Y-106910768D01*
X75391445Y-106987480D01*
X75369430Y-107060051D01*
X75333678Y-107126939D01*
X75285565Y-107185565D01*
X75226939Y-107233678D01*
X75160051Y-107269430D01*
X75087480Y-107291445D01*
X75010768Y-107299000D01*
X74189232Y-107299000D01*
X74112520Y-107291445D01*
X74039949Y-107269430D01*
X73973061Y-107233678D01*
X73914435Y-107185565D01*
X73866322Y-107126939D01*
X73830570Y-107060051D01*
X73808555Y-106987480D01*
X73801000Y-106910768D01*
X73801000Y-105589232D01*
X73808555Y-105512520D01*
X73830570Y-105439949D01*
X73866322Y-105373061D01*
X73914435Y-105314435D01*
X73973061Y-105266322D01*
X74039949Y-105230570D01*
X74112520Y-105208555D01*
X74189232Y-105201000D01*
X75010768Y-105201000D01*
X75087480Y-105208555D01*
X75087480Y-105208555D01*
G37*
G36*
X70007480Y-105208555D02*
G01*
X70080051Y-105230570D01*
X70146939Y-105266322D01*
X70205565Y-105314435D01*
X70253678Y-105373061D01*
X70289430Y-105439949D01*
X70311445Y-105512520D01*
X70319000Y-105589232D01*
X70319000Y-106910768D01*
X70311445Y-106987480D01*
X70289430Y-107060051D01*
X70253678Y-107126939D01*
X70205565Y-107185565D01*
X70146939Y-107233678D01*
X70080051Y-107269430D01*
X70007480Y-107291445D01*
X69930768Y-107299000D01*
X69109232Y-107299000D01*
X69032520Y-107291445D01*
X68959949Y-107269430D01*
X68893061Y-107233678D01*
X68834435Y-107185565D01*
X68786322Y-107126939D01*
X68750570Y-107060051D01*
X68728555Y-106987480D01*
X68721000Y-106910768D01*
X68721000Y-105589232D01*
X68728555Y-105512520D01*
X68750570Y-105439949D01*
X68786322Y-105373061D01*
X68834435Y-105314435D01*
X68893061Y-105266322D01*
X68959949Y-105230570D01*
X69032520Y-105208555D01*
X69109232Y-105201000D01*
X69930768Y-105201000D01*
X70007480Y-105208555D01*
X70007480Y-105208555D01*
G37*
G36*
X72547480Y-105208555D02*
G01*
X72620051Y-105230570D01*
X72686939Y-105266322D01*
X72745565Y-105314435D01*
X72793678Y-105373061D01*
X72829430Y-105439949D01*
X72851445Y-105512520D01*
X72859000Y-105589232D01*
X72859000Y-106910768D01*
X72851445Y-106987480D01*
X72829430Y-107060051D01*
X72793678Y-107126939D01*
X72745565Y-107185565D01*
X72686939Y-107233678D01*
X72620051Y-107269430D01*
X72547480Y-107291445D01*
X72470768Y-107299000D01*
X71649232Y-107299000D01*
X71572520Y-107291445D01*
X71499949Y-107269430D01*
X71433061Y-107233678D01*
X71374435Y-107185565D01*
X71326322Y-107126939D01*
X71290570Y-107060051D01*
X71268555Y-106987480D01*
X71261000Y-106910768D01*
X71261000Y-105589232D01*
X71268555Y-105512520D01*
X71290570Y-105439949D01*
X71326322Y-105373061D01*
X71374435Y-105314435D01*
X71433061Y-105266322D01*
X71499949Y-105230570D01*
X71572520Y-105208555D01*
X71649232Y-105201000D01*
X72470768Y-105201000D01*
X72547480Y-105208555D01*
X72547480Y-105208555D01*
G37*
G36*
X77627480Y-105208555D02*
G01*
X77700051Y-105230570D01*
X77766939Y-105266322D01*
X77825565Y-105314435D01*
X77873678Y-105373061D01*
X77909430Y-105439949D01*
X77931445Y-105512520D01*
X77939000Y-105589232D01*
X77939000Y-106910768D01*
X77931445Y-106987480D01*
X77909430Y-107060051D01*
X77873678Y-107126939D01*
X77825565Y-107185565D01*
X77766939Y-107233678D01*
X77700051Y-107269430D01*
X77627480Y-107291445D01*
X77550768Y-107299000D01*
X76729232Y-107299000D01*
X76652520Y-107291445D01*
X76579949Y-107269430D01*
X76513061Y-107233678D01*
X76454435Y-107185565D01*
X76406322Y-107126939D01*
X76370570Y-107060051D01*
X76348555Y-106987480D01*
X76341000Y-106910768D01*
X76341000Y-105589232D01*
X76348555Y-105512520D01*
X76370570Y-105439949D01*
X76406322Y-105373061D01*
X76454435Y-105314435D01*
X76513061Y-105266322D01*
X76579949Y-105230570D01*
X76652520Y-105208555D01*
X76729232Y-105201000D01*
X77550768Y-105201000D01*
X77627480Y-105208555D01*
X77627480Y-105208555D01*
G37*
G36*
X146116384Y-104116333D02*
G01*
X146188998Y-104146410D01*
X146254348Y-104190076D01*
X146309924Y-104245652D01*
X146353590Y-104311002D01*
X146383667Y-104383616D01*
X146399000Y-104460702D01*
X146399000Y-104539298D01*
X146383667Y-104616384D01*
X146353590Y-104688998D01*
X146309924Y-104754348D01*
X146254348Y-104809924D01*
X146188998Y-104853590D01*
X146116384Y-104883667D01*
X146039298Y-104899000D01*
X145960702Y-104899000D01*
X145883616Y-104883667D01*
X145811002Y-104853590D01*
X145745652Y-104809924D01*
X145690076Y-104754348D01*
X145646410Y-104688998D01*
X145616333Y-104616384D01*
X145601000Y-104539298D01*
X145601000Y-104460702D01*
X145616333Y-104383616D01*
X145646410Y-104311002D01*
X145690076Y-104245652D01*
X145745652Y-104190076D01*
X145811002Y-104146410D01*
X145883616Y-104116333D01*
X145960702Y-104101000D01*
X146039298Y-104101000D01*
X146116384Y-104116333D01*
X146116384Y-104116333D01*
G37*
G36*
X57116384Y-104116333D02*
G01*
X57188998Y-104146410D01*
X57254348Y-104190076D01*
X57309924Y-104245652D01*
X57353590Y-104311002D01*
X57383667Y-104383616D01*
X57399000Y-104460702D01*
X57399000Y-104539298D01*
X57383667Y-104616384D01*
X57353590Y-104688998D01*
X57309924Y-104754348D01*
X57254348Y-104809924D01*
X57188998Y-104853590D01*
X57116384Y-104883667D01*
X57039298Y-104899000D01*
X56960702Y-104899000D01*
X56883616Y-104883667D01*
X56811002Y-104853590D01*
X56745652Y-104809924D01*
X56690076Y-104754348D01*
X56646410Y-104688998D01*
X56616333Y-104616384D01*
X56601000Y-104539298D01*
X56601000Y-104460702D01*
X56616333Y-104383616D01*
X56646410Y-104311002D01*
X56690076Y-104245652D01*
X56745652Y-104190076D01*
X56811002Y-104146410D01*
X56883616Y-104116333D01*
X56960702Y-104101000D01*
X57039298Y-104101000D01*
X57116384Y-104116333D01*
X57116384Y-104116333D01*
G37*
G36*
X54116384Y-104116333D02*
G01*
X54188998Y-104146410D01*
X54254348Y-104190076D01*
X54309924Y-104245652D01*
X54353590Y-104311002D01*
X54383667Y-104383616D01*
X54399000Y-104460702D01*
X54399000Y-104539298D01*
X54383667Y-104616384D01*
X54353590Y-104688998D01*
X54309924Y-104754348D01*
X54254348Y-104809924D01*
X54188998Y-104853590D01*
X54116384Y-104883667D01*
X54039298Y-104899000D01*
X53960702Y-104899000D01*
X53883616Y-104883667D01*
X53811002Y-104853590D01*
X53745652Y-104809924D01*
X53690076Y-104754348D01*
X53646410Y-104688998D01*
X53616333Y-104616384D01*
X53601000Y-104539298D01*
X53601000Y-104460702D01*
X53616333Y-104383616D01*
X53646410Y-104311002D01*
X53690076Y-104245652D01*
X53745652Y-104190076D01*
X53811002Y-104146410D01*
X53883616Y-104116333D01*
X53960702Y-104101000D01*
X54039298Y-104101000D01*
X54116384Y-104116333D01*
X54116384Y-104116333D01*
G37*
G36*
X143116384Y-104116333D02*
G01*
X143188998Y-104146410D01*
X143254348Y-104190076D01*
X143309924Y-104245652D01*
X143353590Y-104311002D01*
X143383667Y-104383616D01*
X143399000Y-104460702D01*
X143399000Y-104539298D01*
X143383667Y-104616384D01*
X143353590Y-104688998D01*
X143309924Y-104754348D01*
X143254348Y-104809924D01*
X143188998Y-104853590D01*
X143116384Y-104883667D01*
X143039298Y-104899000D01*
X142960702Y-104899000D01*
X142883616Y-104883667D01*
X142811002Y-104853590D01*
X142745652Y-104809924D01*
X142690076Y-104754348D01*
X142646410Y-104688998D01*
X142616333Y-104616384D01*
X142601000Y-104539298D01*
X142601000Y-104460702D01*
X142616333Y-104383616D01*
X142646410Y-104311002D01*
X142690076Y-104245652D01*
X142745652Y-104190076D01*
X142811002Y-104146410D01*
X142883616Y-104116333D01*
X142960702Y-104101000D01*
X143039298Y-104101000D01*
X143116384Y-104116333D01*
X143116384Y-104116333D01*
G37*
G36*
X74061030Y-101956322D02*
G01*
X74111799Y-101971723D01*
X74158590Y-101996733D01*
X74199606Y-102030394D01*
X74233267Y-102071410D01*
X74258277Y-102118201D01*
X74273678Y-102168970D01*
X74279000Y-102223008D01*
X74279000Y-104276992D01*
X74273678Y-104331030D01*
X74258277Y-104381799D01*
X74233267Y-104428590D01*
X74199606Y-104469606D01*
X74158590Y-104503267D01*
X74111799Y-104528277D01*
X74061030Y-104543678D01*
X74006992Y-104549000D01*
X73653008Y-104549000D01*
X73598970Y-104543678D01*
X73548201Y-104528277D01*
X73501410Y-104503267D01*
X73460394Y-104469606D01*
X73426733Y-104428590D01*
X73401723Y-104381799D01*
X73386322Y-104331030D01*
X73381000Y-104276992D01*
X73381000Y-102223008D01*
X73386322Y-102168970D01*
X73401723Y-102118201D01*
X73426733Y-102071410D01*
X73460394Y-102030394D01*
X73501410Y-101996733D01*
X73548201Y-101971723D01*
X73598970Y-101956322D01*
X73653008Y-101951000D01*
X74006992Y-101951000D01*
X74061030Y-101956322D01*
X74061030Y-101956322D01*
G37*
G36*
X70061030Y-101956322D02*
G01*
X70111799Y-101971723D01*
X70158590Y-101996733D01*
X70199606Y-102030394D01*
X70233267Y-102071410D01*
X70258277Y-102118201D01*
X70273678Y-102168970D01*
X70279000Y-102223008D01*
X70279000Y-104276992D01*
X70273678Y-104331030D01*
X70258277Y-104381799D01*
X70233267Y-104428590D01*
X70199606Y-104469606D01*
X70158590Y-104503267D01*
X70111799Y-104528277D01*
X70061030Y-104543678D01*
X70006992Y-104549000D01*
X69653008Y-104549000D01*
X69598970Y-104543678D01*
X69548201Y-104528277D01*
X69501410Y-104503267D01*
X69460394Y-104469606D01*
X69426733Y-104428590D01*
X69401723Y-104381799D01*
X69386322Y-104331030D01*
X69381000Y-104276992D01*
X69381000Y-102223008D01*
X69386322Y-102168970D01*
X69401723Y-102118201D01*
X69426733Y-102071410D01*
X69460394Y-102030394D01*
X69501410Y-101996733D01*
X69548201Y-101971723D01*
X69598970Y-101956322D01*
X69653008Y-101951000D01*
X70006992Y-101951000D01*
X70061030Y-101956322D01*
X70061030Y-101956322D01*
G37*
G36*
X71061030Y-101956322D02*
G01*
X71111799Y-101971723D01*
X71158590Y-101996733D01*
X71199606Y-102030394D01*
X71233267Y-102071410D01*
X71258277Y-102118201D01*
X71273678Y-102168970D01*
X71279000Y-102223008D01*
X71279000Y-104276992D01*
X71273678Y-104331030D01*
X71258277Y-104381799D01*
X71233267Y-104428590D01*
X71199606Y-104469606D01*
X71158590Y-104503267D01*
X71111799Y-104528277D01*
X71061030Y-104543678D01*
X71006992Y-104549000D01*
X70653008Y-104549000D01*
X70598970Y-104543678D01*
X70548201Y-104528277D01*
X70501410Y-104503267D01*
X70460394Y-104469606D01*
X70426733Y-104428590D01*
X70401723Y-104381799D01*
X70386322Y-104331030D01*
X70381000Y-104276992D01*
X70381000Y-102223008D01*
X70386322Y-102168970D01*
X70401723Y-102118201D01*
X70426733Y-102071410D01*
X70460394Y-102030394D01*
X70501410Y-101996733D01*
X70548201Y-101971723D01*
X70598970Y-101956322D01*
X70653008Y-101951000D01*
X71006992Y-101951000D01*
X71061030Y-101956322D01*
X71061030Y-101956322D01*
G37*
G36*
X72061030Y-101956322D02*
G01*
X72111799Y-101971723D01*
X72158590Y-101996733D01*
X72199606Y-102030394D01*
X72233267Y-102071410D01*
X72258277Y-102118201D01*
X72273678Y-102168970D01*
X72279000Y-102223008D01*
X72279000Y-104276992D01*
X72273678Y-104331030D01*
X72258277Y-104381799D01*
X72233267Y-104428590D01*
X72199606Y-104469606D01*
X72158590Y-104503267D01*
X72111799Y-104528277D01*
X72061030Y-104543678D01*
X72006992Y-104549000D01*
X71653008Y-104549000D01*
X71598970Y-104543678D01*
X71548201Y-104528277D01*
X71501410Y-104503267D01*
X71460394Y-104469606D01*
X71426733Y-104428590D01*
X71401723Y-104381799D01*
X71386322Y-104331030D01*
X71381000Y-104276992D01*
X71381000Y-102223008D01*
X71386322Y-102168970D01*
X71401723Y-102118201D01*
X71426733Y-102071410D01*
X71460394Y-102030394D01*
X71501410Y-101996733D01*
X71548201Y-101971723D01*
X71598970Y-101956322D01*
X71653008Y-101951000D01*
X72006992Y-101951000D01*
X72061030Y-101956322D01*
X72061030Y-101956322D01*
G37*
G36*
X73061030Y-101956322D02*
G01*
X73111799Y-101971723D01*
X73158590Y-101996733D01*
X73199606Y-102030394D01*
X73233267Y-102071410D01*
X73258277Y-102118201D01*
X73273678Y-102168970D01*
X73279000Y-102223008D01*
X73279000Y-104276992D01*
X73273678Y-104331030D01*
X73258277Y-104381799D01*
X73233267Y-104428590D01*
X73199606Y-104469606D01*
X73158590Y-104503267D01*
X73111799Y-104528277D01*
X73061030Y-104543678D01*
X73006992Y-104549000D01*
X72653008Y-104549000D01*
X72598970Y-104543678D01*
X72548201Y-104528277D01*
X72501410Y-104503267D01*
X72460394Y-104469606D01*
X72426733Y-104428590D01*
X72401723Y-104381799D01*
X72386322Y-104331030D01*
X72381000Y-104276992D01*
X72381000Y-102223008D01*
X72386322Y-102168970D01*
X72401723Y-102118201D01*
X72426733Y-102071410D01*
X72460394Y-102030394D01*
X72501410Y-101996733D01*
X72548201Y-101971723D01*
X72598970Y-101956322D01*
X72653008Y-101951000D01*
X73006992Y-101951000D01*
X73061030Y-101956322D01*
X73061030Y-101956322D01*
G37*
G36*
X75061030Y-101956322D02*
G01*
X75111799Y-101971723D01*
X75158590Y-101996733D01*
X75199606Y-102030394D01*
X75233267Y-102071410D01*
X75258277Y-102118201D01*
X75273678Y-102168970D01*
X75279000Y-102223008D01*
X75279000Y-104276992D01*
X75273678Y-104331030D01*
X75258277Y-104381799D01*
X75233267Y-104428590D01*
X75199606Y-104469606D01*
X75158590Y-104503267D01*
X75111799Y-104528277D01*
X75061030Y-104543678D01*
X75006992Y-104549000D01*
X74653008Y-104549000D01*
X74598970Y-104543678D01*
X74548201Y-104528277D01*
X74501410Y-104503267D01*
X74460394Y-104469606D01*
X74426733Y-104428590D01*
X74401723Y-104381799D01*
X74386322Y-104331030D01*
X74381000Y-104276992D01*
X74381000Y-102223008D01*
X74386322Y-102168970D01*
X74401723Y-102118201D01*
X74426733Y-102071410D01*
X74460394Y-102030394D01*
X74501410Y-101996733D01*
X74548201Y-101971723D01*
X74598970Y-101956322D01*
X74653008Y-101951000D01*
X75006992Y-101951000D01*
X75061030Y-101956322D01*
X75061030Y-101956322D01*
G37*
G36*
X76061030Y-101956322D02*
G01*
X76111799Y-101971723D01*
X76158590Y-101996733D01*
X76199606Y-102030394D01*
X76233267Y-102071410D01*
X76258277Y-102118201D01*
X76273678Y-102168970D01*
X76279000Y-102223008D01*
X76279000Y-104276992D01*
X76273678Y-104331030D01*
X76258277Y-104381799D01*
X76233267Y-104428590D01*
X76199606Y-104469606D01*
X76158590Y-104503267D01*
X76111799Y-104528277D01*
X76061030Y-104543678D01*
X76006992Y-104549000D01*
X75653008Y-104549000D01*
X75598970Y-104543678D01*
X75548201Y-104528277D01*
X75501410Y-104503267D01*
X75460394Y-104469606D01*
X75426733Y-104428590D01*
X75401723Y-104381799D01*
X75386322Y-104331030D01*
X75381000Y-104276992D01*
X75381000Y-102223008D01*
X75386322Y-102168970D01*
X75401723Y-102118201D01*
X75426733Y-102071410D01*
X75460394Y-102030394D01*
X75501410Y-101996733D01*
X75548201Y-101971723D01*
X75598970Y-101956322D01*
X75653008Y-101951000D01*
X76006992Y-101951000D01*
X76061030Y-101956322D01*
X76061030Y-101956322D01*
G37*
G36*
X77061030Y-101956322D02*
G01*
X77111799Y-101971723D01*
X77158590Y-101996733D01*
X77199606Y-102030394D01*
X77233267Y-102071410D01*
X77258277Y-102118201D01*
X77273678Y-102168970D01*
X77279000Y-102223008D01*
X77279000Y-104276992D01*
X77273678Y-104331030D01*
X77258277Y-104381799D01*
X77233267Y-104428590D01*
X77199606Y-104469606D01*
X77158590Y-104503267D01*
X77111799Y-104528277D01*
X77061030Y-104543678D01*
X77006992Y-104549000D01*
X76653008Y-104549000D01*
X76598970Y-104543678D01*
X76548201Y-104528277D01*
X76501410Y-104503267D01*
X76460394Y-104469606D01*
X76426733Y-104428590D01*
X76401723Y-104381799D01*
X76386322Y-104331030D01*
X76381000Y-104276992D01*
X76381000Y-102223008D01*
X76386322Y-102168970D01*
X76401723Y-102118201D01*
X76426733Y-102071410D01*
X76460394Y-102030394D01*
X76501410Y-101996733D01*
X76548201Y-101971723D01*
X76598970Y-101956322D01*
X76653008Y-101951000D01*
X77006992Y-101951000D01*
X77061030Y-101956322D01*
X77061030Y-101956322D01*
G37*
G36*
X124401030Y-101956322D02*
G01*
X124451799Y-101971723D01*
X124498590Y-101996733D01*
X124539606Y-102030394D01*
X124573267Y-102071410D01*
X124598277Y-102118201D01*
X124613678Y-102168970D01*
X124619000Y-102223008D01*
X124619000Y-104276992D01*
X124613678Y-104331030D01*
X124598277Y-104381799D01*
X124573267Y-104428590D01*
X124539606Y-104469606D01*
X124498590Y-104503267D01*
X124451799Y-104528277D01*
X124401030Y-104543678D01*
X124346992Y-104549000D01*
X123993008Y-104549000D01*
X123938970Y-104543678D01*
X123888201Y-104528277D01*
X123841410Y-104503267D01*
X123800394Y-104469606D01*
X123766733Y-104428590D01*
X123741723Y-104381799D01*
X123726322Y-104331030D01*
X123721000Y-104276992D01*
X123721000Y-102223008D01*
X123726322Y-102168970D01*
X123741723Y-102118201D01*
X123766733Y-102071410D01*
X123800394Y-102030394D01*
X123841410Y-101996733D01*
X123888201Y-101971723D01*
X123938970Y-101956322D01*
X123993008Y-101951000D01*
X124346992Y-101951000D01*
X124401030Y-101956322D01*
X124401030Y-101956322D01*
G37*
G36*
X125401030Y-101956322D02*
G01*
X125451799Y-101971723D01*
X125498590Y-101996733D01*
X125539606Y-102030394D01*
X125573267Y-102071410D01*
X125598277Y-102118201D01*
X125613678Y-102168970D01*
X125619000Y-102223008D01*
X125619000Y-104276992D01*
X125613678Y-104331030D01*
X125598277Y-104381799D01*
X125573267Y-104428590D01*
X125539606Y-104469606D01*
X125498590Y-104503267D01*
X125451799Y-104528277D01*
X125401030Y-104543678D01*
X125346992Y-104549000D01*
X124993008Y-104549000D01*
X124938970Y-104543678D01*
X124888201Y-104528277D01*
X124841410Y-104503267D01*
X124800394Y-104469606D01*
X124766733Y-104428590D01*
X124741723Y-104381799D01*
X124726322Y-104331030D01*
X124721000Y-104276992D01*
X124721000Y-102223008D01*
X124726322Y-102168970D01*
X124741723Y-102118201D01*
X124766733Y-102071410D01*
X124800394Y-102030394D01*
X124841410Y-101996733D01*
X124888201Y-101971723D01*
X124938970Y-101956322D01*
X124993008Y-101951000D01*
X125346992Y-101951000D01*
X125401030Y-101956322D01*
X125401030Y-101956322D01*
G37*
G36*
X126401030Y-101956322D02*
G01*
X126451799Y-101971723D01*
X126498590Y-101996733D01*
X126539606Y-102030394D01*
X126573267Y-102071410D01*
X126598277Y-102118201D01*
X126613678Y-102168970D01*
X126619000Y-102223008D01*
X126619000Y-104276992D01*
X126613678Y-104331030D01*
X126598277Y-104381799D01*
X126573267Y-104428590D01*
X126539606Y-104469606D01*
X126498590Y-104503267D01*
X126451799Y-104528277D01*
X126401030Y-104543678D01*
X126346992Y-104549000D01*
X125993008Y-104549000D01*
X125938970Y-104543678D01*
X125888201Y-104528277D01*
X125841410Y-104503267D01*
X125800394Y-104469606D01*
X125766733Y-104428590D01*
X125741723Y-104381799D01*
X125726322Y-104331030D01*
X125721000Y-104276992D01*
X125721000Y-102223008D01*
X125726322Y-102168970D01*
X125741723Y-102118201D01*
X125766733Y-102071410D01*
X125800394Y-102030394D01*
X125841410Y-101996733D01*
X125888201Y-101971723D01*
X125938970Y-101956322D01*
X125993008Y-101951000D01*
X126346992Y-101951000D01*
X126401030Y-101956322D01*
X126401030Y-101956322D01*
G37*
G36*
X127401030Y-101956322D02*
G01*
X127451799Y-101971723D01*
X127498590Y-101996733D01*
X127539606Y-102030394D01*
X127573267Y-102071410D01*
X127598277Y-102118201D01*
X127613678Y-102168970D01*
X127619000Y-102223008D01*
X127619000Y-104276992D01*
X127613678Y-104331030D01*
X127598277Y-104381799D01*
X127573267Y-104428590D01*
X127539606Y-104469606D01*
X127498590Y-104503267D01*
X127451799Y-104528277D01*
X127401030Y-104543678D01*
X127346992Y-104549000D01*
X126993008Y-104549000D01*
X126938970Y-104543678D01*
X126888201Y-104528277D01*
X126841410Y-104503267D01*
X126800394Y-104469606D01*
X126766733Y-104428590D01*
X126741723Y-104381799D01*
X126726322Y-104331030D01*
X126721000Y-104276992D01*
X126721000Y-102223008D01*
X126726322Y-102168970D01*
X126741723Y-102118201D01*
X126766733Y-102071410D01*
X126800394Y-102030394D01*
X126841410Y-101996733D01*
X126888201Y-101971723D01*
X126938970Y-101956322D01*
X126993008Y-101951000D01*
X127346992Y-101951000D01*
X127401030Y-101956322D01*
X127401030Y-101956322D01*
G37*
G36*
X128401030Y-101956322D02*
G01*
X128451799Y-101971723D01*
X128498590Y-101996733D01*
X128539606Y-102030394D01*
X128573267Y-102071410D01*
X128598277Y-102118201D01*
X128613678Y-102168970D01*
X128619000Y-102223008D01*
X128619000Y-104276992D01*
X128613678Y-104331030D01*
X128598277Y-104381799D01*
X128573267Y-104428590D01*
X128539606Y-104469606D01*
X128498590Y-104503267D01*
X128451799Y-104528277D01*
X128401030Y-104543678D01*
X128346992Y-104549000D01*
X127993008Y-104549000D01*
X127938970Y-104543678D01*
X127888201Y-104528277D01*
X127841410Y-104503267D01*
X127800394Y-104469606D01*
X127766733Y-104428590D01*
X127741723Y-104381799D01*
X127726322Y-104331030D01*
X127721000Y-104276992D01*
X127721000Y-102223008D01*
X127726322Y-102168970D01*
X127741723Y-102118201D01*
X127766733Y-102071410D01*
X127800394Y-102030394D01*
X127841410Y-101996733D01*
X127888201Y-101971723D01*
X127938970Y-101956322D01*
X127993008Y-101951000D01*
X128346992Y-101951000D01*
X128401030Y-101956322D01*
X128401030Y-101956322D01*
G37*
G36*
X129401030Y-101956322D02*
G01*
X129451799Y-101971723D01*
X129498590Y-101996733D01*
X129539606Y-102030394D01*
X129573267Y-102071410D01*
X129598277Y-102118201D01*
X129613678Y-102168970D01*
X129619000Y-102223008D01*
X129619000Y-104276992D01*
X129613678Y-104331030D01*
X129598277Y-104381799D01*
X129573267Y-104428590D01*
X129539606Y-104469606D01*
X129498590Y-104503267D01*
X129451799Y-104528277D01*
X129401030Y-104543678D01*
X129346992Y-104549000D01*
X128993008Y-104549000D01*
X128938970Y-104543678D01*
X128888201Y-104528277D01*
X128841410Y-104503267D01*
X128800394Y-104469606D01*
X128766733Y-104428590D01*
X128741723Y-104381799D01*
X128726322Y-104331030D01*
X128721000Y-104276992D01*
X128721000Y-102223008D01*
X128726322Y-102168970D01*
X128741723Y-102118201D01*
X128766733Y-102071410D01*
X128800394Y-102030394D01*
X128841410Y-101996733D01*
X128888201Y-101971723D01*
X128938970Y-101956322D01*
X128993008Y-101951000D01*
X129346992Y-101951000D01*
X129401030Y-101956322D01*
X129401030Y-101956322D01*
G37*
G36*
X130401030Y-101956322D02*
G01*
X130451799Y-101971723D01*
X130498590Y-101996733D01*
X130539606Y-102030394D01*
X130573267Y-102071410D01*
X130598277Y-102118201D01*
X130613678Y-102168970D01*
X130619000Y-102223008D01*
X130619000Y-104276992D01*
X130613678Y-104331030D01*
X130598277Y-104381799D01*
X130573267Y-104428590D01*
X130539606Y-104469606D01*
X130498590Y-104503267D01*
X130451799Y-104528277D01*
X130401030Y-104543678D01*
X130346992Y-104549000D01*
X129993008Y-104549000D01*
X129938970Y-104543678D01*
X129888201Y-104528277D01*
X129841410Y-104503267D01*
X129800394Y-104469606D01*
X129766733Y-104428590D01*
X129741723Y-104381799D01*
X129726322Y-104331030D01*
X129721000Y-104276992D01*
X129721000Y-102223008D01*
X129726322Y-102168970D01*
X129741723Y-102118201D01*
X129766733Y-102071410D01*
X129800394Y-102030394D01*
X129841410Y-101996733D01*
X129888201Y-101971723D01*
X129938970Y-101956322D01*
X129993008Y-101951000D01*
X130346992Y-101951000D01*
X130401030Y-101956322D01*
X130401030Y-101956322D01*
G37*
G36*
X123401030Y-101956322D02*
G01*
X123451799Y-101971723D01*
X123498590Y-101996733D01*
X123539606Y-102030394D01*
X123573267Y-102071410D01*
X123598277Y-102118201D01*
X123613678Y-102168970D01*
X123619000Y-102223008D01*
X123619000Y-104276992D01*
X123613678Y-104331030D01*
X123598277Y-104381799D01*
X123573267Y-104428590D01*
X123539606Y-104469606D01*
X123498590Y-104503267D01*
X123451799Y-104528277D01*
X123401030Y-104543678D01*
X123346992Y-104549000D01*
X122993008Y-104549000D01*
X122938970Y-104543678D01*
X122888201Y-104528277D01*
X122841410Y-104503267D01*
X122800394Y-104469606D01*
X122766733Y-104428590D01*
X122741723Y-104381799D01*
X122726322Y-104331030D01*
X122721000Y-104276992D01*
X122721000Y-102223008D01*
X122726322Y-102168970D01*
X122741723Y-102118201D01*
X122766733Y-102071410D01*
X122800394Y-102030394D01*
X122841410Y-101996733D01*
X122888201Y-101971723D01*
X122938970Y-101956322D01*
X122993008Y-101951000D01*
X123346992Y-101951000D01*
X123401030Y-101956322D01*
X123401030Y-101956322D01*
G37*
G36*
X121903060Y-102481705D02*
G01*
X122048468Y-102541935D01*
X122179333Y-102629376D01*
X122290624Y-102740667D01*
X122378065Y-102871532D01*
X122438295Y-103016940D01*
X122469000Y-103171305D01*
X122469000Y-103328695D01*
X122438295Y-103483060D01*
X122378065Y-103628468D01*
X122290624Y-103759333D01*
X122179333Y-103870624D01*
X122048468Y-103958065D01*
X121903060Y-104018295D01*
X121748695Y-104049000D01*
X121591305Y-104049000D01*
X121436940Y-104018295D01*
X121291532Y-103958065D01*
X121160667Y-103870624D01*
X121049376Y-103759333D01*
X120961935Y-103628468D01*
X120901705Y-103483060D01*
X120871000Y-103328695D01*
X120871000Y-103171305D01*
X120901705Y-103016940D01*
X120961935Y-102871532D01*
X121049376Y-102740667D01*
X121160667Y-102629376D01*
X121291532Y-102541935D01*
X121436940Y-102481705D01*
X121591305Y-102451000D01*
X121748695Y-102451000D01*
X121903060Y-102481705D01*
X121903060Y-102481705D01*
G37*
G36*
X131903060Y-102481705D02*
G01*
X132048468Y-102541935D01*
X132179333Y-102629376D01*
X132290624Y-102740667D01*
X132378065Y-102871532D01*
X132438295Y-103016940D01*
X132469000Y-103171305D01*
X132469000Y-103328695D01*
X132438295Y-103483060D01*
X132378065Y-103628468D01*
X132290624Y-103759333D01*
X132179333Y-103870624D01*
X132048468Y-103958065D01*
X131903060Y-104018295D01*
X131748695Y-104049000D01*
X131591305Y-104049000D01*
X131436940Y-104018295D01*
X131291532Y-103958065D01*
X131160667Y-103870624D01*
X131049376Y-103759333D01*
X130961935Y-103628468D01*
X130901705Y-103483060D01*
X130871000Y-103328695D01*
X130871000Y-103171305D01*
X130901705Y-103016940D01*
X130961935Y-102871532D01*
X131049376Y-102740667D01*
X131160667Y-102629376D01*
X131291532Y-102541935D01*
X131436940Y-102481705D01*
X131591305Y-102451000D01*
X131748695Y-102451000D01*
X131903060Y-102481705D01*
X131903060Y-102481705D01*
G37*
G36*
X78563060Y-102481705D02*
G01*
X78708468Y-102541935D01*
X78839333Y-102629376D01*
X78950624Y-102740667D01*
X79038065Y-102871532D01*
X79098295Y-103016940D01*
X79129000Y-103171305D01*
X79129000Y-103328695D01*
X79098295Y-103483060D01*
X79038065Y-103628468D01*
X78950624Y-103759333D01*
X78839333Y-103870624D01*
X78708468Y-103958065D01*
X78563060Y-104018295D01*
X78408695Y-104049000D01*
X78251305Y-104049000D01*
X78096940Y-104018295D01*
X77951532Y-103958065D01*
X77820667Y-103870624D01*
X77709376Y-103759333D01*
X77621935Y-103628468D01*
X77561705Y-103483060D01*
X77531000Y-103328695D01*
X77531000Y-103171305D01*
X77561705Y-103016940D01*
X77621935Y-102871532D01*
X77709376Y-102740667D01*
X77820667Y-102629376D01*
X77951532Y-102541935D01*
X78096940Y-102481705D01*
X78251305Y-102451000D01*
X78408695Y-102451000D01*
X78563060Y-102481705D01*
X78563060Y-102481705D01*
G37*
G36*
X68563060Y-102481705D02*
G01*
X68708468Y-102541935D01*
X68839333Y-102629376D01*
X68950624Y-102740667D01*
X69038065Y-102871532D01*
X69098295Y-103016940D01*
X69129000Y-103171305D01*
X69129000Y-103328695D01*
X69098295Y-103483060D01*
X69038065Y-103628468D01*
X68950624Y-103759333D01*
X68839333Y-103870624D01*
X68708468Y-103958065D01*
X68563060Y-104018295D01*
X68408695Y-104049000D01*
X68251305Y-104049000D01*
X68096940Y-104018295D01*
X67951532Y-103958065D01*
X67820667Y-103870624D01*
X67709376Y-103759333D01*
X67621935Y-103628468D01*
X67561705Y-103483060D01*
X67531000Y-103328695D01*
X67531000Y-103171305D01*
X67561705Y-103016940D01*
X67621935Y-102871532D01*
X67709376Y-102740667D01*
X67820667Y-102629376D01*
X67951532Y-102541935D01*
X68096940Y-102481705D01*
X68251305Y-102451000D01*
X68408695Y-102451000D01*
X68563060Y-102481705D01*
X68563060Y-102481705D01*
G37*
G36*
X143116384Y-103116333D02*
G01*
X143188998Y-103146410D01*
X143254348Y-103190076D01*
X143309924Y-103245652D01*
X143353590Y-103311002D01*
X143383667Y-103383616D01*
X143399000Y-103460702D01*
X143399000Y-103539298D01*
X143383667Y-103616384D01*
X143353590Y-103688998D01*
X143309924Y-103754348D01*
X143254348Y-103809924D01*
X143188998Y-103853590D01*
X143116384Y-103883667D01*
X143039298Y-103899000D01*
X142960702Y-103899000D01*
X142883616Y-103883667D01*
X142811002Y-103853590D01*
X142745652Y-103809924D01*
X142690076Y-103754348D01*
X142646410Y-103688998D01*
X142616333Y-103616384D01*
X142601000Y-103539298D01*
X142601000Y-103460702D01*
X142616333Y-103383616D01*
X142646410Y-103311002D01*
X142690076Y-103245652D01*
X142745652Y-103190076D01*
X142811002Y-103146410D01*
X142883616Y-103116333D01*
X142960702Y-103101000D01*
X143039298Y-103101000D01*
X143116384Y-103116333D01*
X143116384Y-103116333D01*
G37*
G36*
X146116384Y-103116333D02*
G01*
X146188998Y-103146410D01*
X146254348Y-103190076D01*
X146309924Y-103245652D01*
X146353590Y-103311002D01*
X146383667Y-103383616D01*
X146399000Y-103460702D01*
X146399000Y-103539298D01*
X146383667Y-103616384D01*
X146353590Y-103688998D01*
X146309924Y-103754348D01*
X146254348Y-103809924D01*
X146188998Y-103853590D01*
X146116384Y-103883667D01*
X146039298Y-103899000D01*
X145960702Y-103899000D01*
X145883616Y-103883667D01*
X145811002Y-103853590D01*
X145745652Y-103809924D01*
X145690076Y-103754348D01*
X145646410Y-103688998D01*
X145616333Y-103616384D01*
X145601000Y-103539298D01*
X145601000Y-103460702D01*
X145616333Y-103383616D01*
X145646410Y-103311002D01*
X145690076Y-103245652D01*
X145745652Y-103190076D01*
X145811002Y-103146410D01*
X145883616Y-103116333D01*
X145960702Y-103101000D01*
X146039298Y-103101000D01*
X146116384Y-103116333D01*
X146116384Y-103116333D01*
G37*
G36*
X54116384Y-103116333D02*
G01*
X54188998Y-103146410D01*
X54254348Y-103190076D01*
X54309924Y-103245652D01*
X54353590Y-103311002D01*
X54383667Y-103383616D01*
X54399000Y-103460702D01*
X54399000Y-103539298D01*
X54383667Y-103616384D01*
X54353590Y-103688998D01*
X54309924Y-103754348D01*
X54254348Y-103809924D01*
X54188998Y-103853590D01*
X54116384Y-103883667D01*
X54039298Y-103899000D01*
X53960702Y-103899000D01*
X53883616Y-103883667D01*
X53811002Y-103853590D01*
X53745652Y-103809924D01*
X53690076Y-103754348D01*
X53646410Y-103688998D01*
X53616333Y-103616384D01*
X53601000Y-103539298D01*
X53601000Y-103460702D01*
X53616333Y-103383616D01*
X53646410Y-103311002D01*
X53690076Y-103245652D01*
X53745652Y-103190076D01*
X53811002Y-103146410D01*
X53883616Y-103116333D01*
X53960702Y-103101000D01*
X54039298Y-103101000D01*
X54116384Y-103116333D01*
X54116384Y-103116333D01*
G37*
G36*
X57116384Y-103116333D02*
G01*
X57188998Y-103146410D01*
X57254348Y-103190076D01*
X57309924Y-103245652D01*
X57353590Y-103311002D01*
X57383667Y-103383616D01*
X57399000Y-103460702D01*
X57399000Y-103539298D01*
X57383667Y-103616384D01*
X57353590Y-103688998D01*
X57309924Y-103754348D01*
X57254348Y-103809924D01*
X57188998Y-103853590D01*
X57116384Y-103883667D01*
X57039298Y-103899000D01*
X56960702Y-103899000D01*
X56883616Y-103883667D01*
X56811002Y-103853590D01*
X56745652Y-103809924D01*
X56690076Y-103754348D01*
X56646410Y-103688998D01*
X56616333Y-103616384D01*
X56601000Y-103539298D01*
X56601000Y-103460702D01*
X56616333Y-103383616D01*
X56646410Y-103311002D01*
X56690076Y-103245652D01*
X56745652Y-103190076D01*
X56811002Y-103146410D01*
X56883616Y-103116333D01*
X56960702Y-103101000D01*
X57039298Y-103101000D01*
X57116384Y-103116333D01*
X57116384Y-103116333D01*
G37*
G36*
X57116384Y-102116333D02*
G01*
X57188998Y-102146410D01*
X57254348Y-102190076D01*
X57309924Y-102245652D01*
X57353590Y-102311002D01*
X57383667Y-102383616D01*
X57399000Y-102460702D01*
X57399000Y-102539298D01*
X57383667Y-102616384D01*
X57353590Y-102688998D01*
X57309924Y-102754348D01*
X57254348Y-102809924D01*
X57188998Y-102853590D01*
X57116384Y-102883667D01*
X57039298Y-102899000D01*
X56960702Y-102899000D01*
X56883616Y-102883667D01*
X56811002Y-102853590D01*
X56745652Y-102809924D01*
X56690076Y-102754348D01*
X56646410Y-102688998D01*
X56616333Y-102616384D01*
X56601000Y-102539298D01*
X56601000Y-102460702D01*
X56616333Y-102383616D01*
X56646410Y-102311002D01*
X56690076Y-102245652D01*
X56745652Y-102190076D01*
X56811002Y-102146410D01*
X56883616Y-102116333D01*
X56960702Y-102101000D01*
X57039298Y-102101000D01*
X57116384Y-102116333D01*
X57116384Y-102116333D01*
G37*
G36*
X143116384Y-102116333D02*
G01*
X143188998Y-102146410D01*
X143254348Y-102190076D01*
X143309924Y-102245652D01*
X143353590Y-102311002D01*
X143383667Y-102383616D01*
X143399000Y-102460702D01*
X143399000Y-102539298D01*
X143383667Y-102616384D01*
X143353590Y-102688998D01*
X143309924Y-102754348D01*
X143254348Y-102809924D01*
X143188998Y-102853590D01*
X143116384Y-102883667D01*
X143039298Y-102899000D01*
X142960702Y-102899000D01*
X142883616Y-102883667D01*
X142811002Y-102853590D01*
X142745652Y-102809924D01*
X142690076Y-102754348D01*
X142646410Y-102688998D01*
X142616333Y-102616384D01*
X142601000Y-102539298D01*
X142601000Y-102460702D01*
X142616333Y-102383616D01*
X142646410Y-102311002D01*
X142690076Y-102245652D01*
X142745652Y-102190076D01*
X142811002Y-102146410D01*
X142883616Y-102116333D01*
X142960702Y-102101000D01*
X143039298Y-102101000D01*
X143116384Y-102116333D01*
X143116384Y-102116333D01*
G37*
G36*
X54116384Y-102116333D02*
G01*
X54188998Y-102146410D01*
X54254348Y-102190076D01*
X54309924Y-102245652D01*
X54353590Y-102311002D01*
X54383667Y-102383616D01*
X54399000Y-102460702D01*
X54399000Y-102539298D01*
X54383667Y-102616384D01*
X54353590Y-102688998D01*
X54309924Y-102754348D01*
X54254348Y-102809924D01*
X54188998Y-102853590D01*
X54116384Y-102883667D01*
X54039298Y-102899000D01*
X53960702Y-102899000D01*
X53883616Y-102883667D01*
X53811002Y-102853590D01*
X53745652Y-102809924D01*
X53690076Y-102754348D01*
X53646410Y-102688998D01*
X53616333Y-102616384D01*
X53601000Y-102539298D01*
X53601000Y-102460702D01*
X53616333Y-102383616D01*
X53646410Y-102311002D01*
X53690076Y-102245652D01*
X53745652Y-102190076D01*
X53811002Y-102146410D01*
X53883616Y-102116333D01*
X53960702Y-102101000D01*
X54039298Y-102101000D01*
X54116384Y-102116333D01*
X54116384Y-102116333D01*
G37*
G36*
X146116384Y-102116333D02*
G01*
X146188998Y-102146410D01*
X146254348Y-102190076D01*
X146309924Y-102245652D01*
X146353590Y-102311002D01*
X146383667Y-102383616D01*
X146399000Y-102460702D01*
X146399000Y-102539298D01*
X146383667Y-102616384D01*
X146353590Y-102688998D01*
X146309924Y-102754348D01*
X146254348Y-102809924D01*
X146188998Y-102853590D01*
X146116384Y-102883667D01*
X146039298Y-102899000D01*
X145960702Y-102899000D01*
X145883616Y-102883667D01*
X145811002Y-102853590D01*
X145745652Y-102809924D01*
X145690076Y-102754348D01*
X145646410Y-102688998D01*
X145616333Y-102616384D01*
X145601000Y-102539298D01*
X145601000Y-102460702D01*
X145616333Y-102383616D01*
X145646410Y-102311002D01*
X145690076Y-102245652D01*
X145745652Y-102190076D01*
X145811002Y-102146410D01*
X145883616Y-102116333D01*
X145960702Y-102101000D01*
X146039298Y-102101000D01*
X146116384Y-102116333D01*
X146116384Y-102116333D01*
G37*
G36*
X52335151Y49104845D02*
G01*
X52544256Y49018231D01*
X52732445Y48892487D01*
X52892487Y48732445D01*
X53018231Y48544256D01*
X53104845Y48335151D01*
X53149000Y48113167D01*
X53149000Y47886833D01*
X53104845Y47664849D01*
X53018231Y47455744D01*
X52892487Y47267555D01*
X52732445Y47107513D01*
X52544256Y46981769D01*
X52335151Y46895155D01*
X52113167Y46851000D01*
X51886833Y46851000D01*
X51664849Y46895155D01*
X51455744Y46981769D01*
X51267555Y47107513D01*
X51107513Y47267555D01*
X50981769Y47455744D01*
X50895155Y47664849D01*
X50851000Y47886833D01*
X50851000Y48113167D01*
X50895155Y48335151D01*
X50981769Y48544256D01*
X51107513Y48732445D01*
X51267555Y48892487D01*
X51455744Y49018231D01*
X51664849Y49104845D01*
X51886833Y49149000D01*
X52113167Y49149000D01*
X52335151Y49104845D01*
X52335151Y49104845D01*
G37*
G36*
X148335151Y49104845D02*
G01*
X148544256Y49018231D01*
X148732445Y48892487D01*
X148892487Y48732445D01*
X149018231Y48544256D01*
X149104845Y48335151D01*
X149149000Y48113167D01*
X149149000Y47886833D01*
X149104845Y47664849D01*
X149018231Y47455744D01*
X148892487Y47267555D01*
X148732445Y47107513D01*
X148544256Y46981769D01*
X148335151Y46895155D01*
X148113167Y46851000D01*
X147886833Y46851000D01*
X147664849Y46895155D01*
X147455744Y46981769D01*
X147267555Y47107513D01*
X147107513Y47267555D01*
X146981769Y47455744D01*
X146895155Y47664849D01*
X146851000Y47886833D01*
X146851000Y48113167D01*
X146895155Y48335151D01*
X146981769Y48544256D01*
X147107513Y48732445D01*
X147267555Y48892487D01*
X147455744Y49018231D01*
X147664849Y49104845D01*
X147886833Y49149000D01*
X148113167Y49149000D01*
X148335151Y49104845D01*
X148335151Y49104845D01*
G37*
M02*
