G04 #@! TF.GenerationSoftware,KiCad,Pcbnew,(5.1.2)-2*
G04 #@! TF.CreationDate,2020-04-30T13:57:26+02:00*
G04 #@! TF.ProjectId,INTERFACE,494e5445-5246-4414-9345-2e6b69636164,rev?*
G04 #@! TF.SameCoordinates,Original*
G04 #@! TF.FileFunction,Legend,Bot*
G04 #@! TF.FilePolarity,Positive*
%FSLAX46Y46*%
G04 Gerber Fmt 4.6, Leading zero omitted, Abs format (unit mm)*
G04 Created by KiCad (PCBNEW (5.1.2)-2) date 2020-04-30 13:57:26*
%MOMM*%
%LPD*%
G04 APERTURE LIST*
%ADD10C,0.120000*%
G04 APERTURE END LIST*
D10*
X121670000Y35250000D02*
X121670000Y38250000D01*
X122670000Y36750000D02*
X120670000Y36750000D01*
X131670000Y35250000D02*
X131670000Y38250000D01*
X130670000Y36750000D02*
X132670000Y36750000D01*
X121670000Y15250000D02*
X121670000Y18250000D01*
X122670000Y16750000D02*
X120670000Y16750000D01*
X131670000Y15250000D02*
X131670000Y18250000D01*
X130670000Y16750000D02*
X132670000Y16750000D01*
X121670000Y-4750000D02*
X121670000Y-1750000D01*
X122670000Y-3250000D02*
X120670000Y-3250000D01*
X131670000Y-4750000D02*
X131670000Y-1750000D01*
X130670000Y-3250000D02*
X132670000Y-3250000D01*
X121670000Y-24750000D02*
X121670000Y-21750000D01*
X122670000Y-23250000D02*
X120670000Y-23250000D01*
X131670000Y-24750000D02*
X131670000Y-21750000D01*
X130670000Y-23250000D02*
X132670000Y-23250000D01*
X121670000Y-44750000D02*
X121670000Y-41750000D01*
X122670000Y-43250000D02*
X120670000Y-43250000D01*
X131670000Y-44750000D02*
X131670000Y-41750000D01*
X130670000Y-43250000D02*
X132670000Y-43250000D01*
X121670000Y-64750000D02*
X121670000Y-61750000D01*
X122670000Y-63250000D02*
X120670000Y-63250000D01*
X131670000Y-64750000D02*
X131670000Y-61750000D01*
X130670000Y-63250000D02*
X132670000Y-63250000D01*
X121670000Y-84750000D02*
X121670000Y-81750000D01*
X122670000Y-83250000D02*
X120670000Y-83250000D01*
X131670000Y-84750000D02*
X131670000Y-81750000D01*
X130670000Y-83250000D02*
X132670000Y-83250000D01*
X68330000Y35250000D02*
X68330000Y38250000D01*
X69330000Y36750000D02*
X67330000Y36750000D01*
X78330000Y35250000D02*
X78330000Y38250000D01*
X77330000Y36750000D02*
X79330000Y36750000D01*
X68330000Y15250000D02*
X68330000Y18250000D01*
X69330000Y16750000D02*
X67330000Y16750000D01*
X78330000Y15250000D02*
X78330000Y18250000D01*
X77330000Y16750000D02*
X79330000Y16750000D01*
X68330000Y-4750000D02*
X68330000Y-1750000D01*
X69330000Y-3250000D02*
X67330000Y-3250000D01*
X78330000Y-4750000D02*
X78330000Y-1750000D01*
X77330000Y-3250000D02*
X79330000Y-3250000D01*
X68330000Y-24750000D02*
X68330000Y-21750000D01*
X69330000Y-23250000D02*
X67330000Y-23250000D01*
X78330000Y-24750000D02*
X78330000Y-21750000D01*
X77330000Y-23250000D02*
X79330000Y-23250000D01*
X68330000Y-44750000D02*
X68330000Y-41750000D01*
X69330000Y-43250000D02*
X67330000Y-43250000D01*
X78330000Y-44750000D02*
X78330000Y-41750000D01*
X77330000Y-43250000D02*
X79330000Y-43250000D01*
X68330000Y-64750000D02*
X68330000Y-61750000D01*
X69330000Y-63250000D02*
X67330000Y-63250000D01*
X78330000Y-64750000D02*
X78330000Y-61750000D01*
X77330000Y-63250000D02*
X79330000Y-63250000D01*
X68330000Y-84750000D02*
X68330000Y-81750000D01*
X69330000Y-83250000D02*
X67330000Y-83250000D01*
X78330000Y-84750000D02*
X78330000Y-81750000D01*
X77330000Y-83250000D02*
X79330000Y-83250000D01*
X130670000Y-103250000D02*
X132670000Y-103250000D01*
X131670000Y-104750000D02*
X131670000Y-101750000D01*
X122670000Y-103250000D02*
X120670000Y-103250000D01*
X121670000Y-104750000D02*
X121670000Y-101750000D01*
X77330000Y-103250000D02*
X79330000Y-103250000D01*
X78330000Y-104750000D02*
X78330000Y-101750000D01*
X69330000Y-103250000D02*
X67330000Y-103250000D01*
X68330000Y-104750000D02*
X68330000Y-101750000D01*
M02*
