G04 #@! TF.GenerationSoftware,KiCad,Pcbnew,(5.1.2)-2*
G04 #@! TF.CreationDate,2019-11-13T18:46:13+01:00*
G04 #@! TF.ProjectId,INTERFACE,494e5445-5246-4414-9345-2e6b69636164,rev?*
G04 #@! TF.SameCoordinates,Original*
G04 #@! TF.FileFunction,Paste,Top*
G04 #@! TF.FilePolarity,Positive*
%FSLAX46Y46*%
G04 Gerber Fmt 4.6, Leading zero omitted, Abs format (unit mm)*
G04 Created by KiCad (PCBNEW (5.1.2)-2) date 2019-11-13 18:46:13*
%MOMM*%
%LPD*%
G04 APERTURE LIST*
%ADD10C,0.100000*%
%ADD11C,0.650000*%
%ADD12C,0.975000*%
%ADD13R,1.000000X0.700000*%
%ADD14R,0.900000X0.800000*%
G04 APERTURE END LIST*
D10*
G36*
X122438428Y-110975782D02*
G01*
X122454202Y-110978122D01*
X122469671Y-110981997D01*
X122484686Y-110987370D01*
X122499102Y-110994188D01*
X122512780Y-111002386D01*
X122525589Y-111011886D01*
X122537405Y-111022595D01*
X122548114Y-111034411D01*
X122557614Y-111047220D01*
X122565812Y-111060898D01*
X122572630Y-111075314D01*
X122578003Y-111090329D01*
X122581878Y-111105798D01*
X122584218Y-111121572D01*
X122585000Y-111137500D01*
X122585000Y-111462500D01*
X122584218Y-111478428D01*
X122581878Y-111494202D01*
X122578003Y-111509671D01*
X122572630Y-111524686D01*
X122565812Y-111539102D01*
X122557614Y-111552780D01*
X122548114Y-111565589D01*
X122537405Y-111577405D01*
X122525589Y-111588114D01*
X122512780Y-111597614D01*
X122499102Y-111605812D01*
X122484686Y-111612630D01*
X122469671Y-111618003D01*
X122454202Y-111621878D01*
X122438428Y-111624218D01*
X122422500Y-111625000D01*
X121687500Y-111625000D01*
X121671572Y-111624218D01*
X121655798Y-111621878D01*
X121640329Y-111618003D01*
X121625314Y-111612630D01*
X121610898Y-111605812D01*
X121597220Y-111597614D01*
X121584411Y-111588114D01*
X121572595Y-111577405D01*
X121561886Y-111565589D01*
X121552386Y-111552780D01*
X121544188Y-111539102D01*
X121537370Y-111524686D01*
X121531997Y-111509671D01*
X121528122Y-111494202D01*
X121525782Y-111478428D01*
X121525000Y-111462500D01*
X121525000Y-111137500D01*
X121525782Y-111121572D01*
X121528122Y-111105798D01*
X121531997Y-111090329D01*
X121537370Y-111075314D01*
X121544188Y-111060898D01*
X121552386Y-111047220D01*
X121561886Y-111034411D01*
X121572595Y-111022595D01*
X121584411Y-111011886D01*
X121597220Y-111002386D01*
X121610898Y-110994188D01*
X121625314Y-110987370D01*
X121640329Y-110981997D01*
X121655798Y-110978122D01*
X121671572Y-110975782D01*
X121687500Y-110975000D01*
X122422500Y-110975000D01*
X122438428Y-110975782D01*
X122438428Y-110975782D01*
G37*
D11*
X122055000Y-111300000D03*
D10*
G36*
X122438428Y-110025782D02*
G01*
X122454202Y-110028122D01*
X122469671Y-110031997D01*
X122484686Y-110037370D01*
X122499102Y-110044188D01*
X122512780Y-110052386D01*
X122525589Y-110061886D01*
X122537405Y-110072595D01*
X122548114Y-110084411D01*
X122557614Y-110097220D01*
X122565812Y-110110898D01*
X122572630Y-110125314D01*
X122578003Y-110140329D01*
X122581878Y-110155798D01*
X122584218Y-110171572D01*
X122585000Y-110187500D01*
X122585000Y-110512500D01*
X122584218Y-110528428D01*
X122581878Y-110544202D01*
X122578003Y-110559671D01*
X122572630Y-110574686D01*
X122565812Y-110589102D01*
X122557614Y-110602780D01*
X122548114Y-110615589D01*
X122537405Y-110627405D01*
X122525589Y-110638114D01*
X122512780Y-110647614D01*
X122499102Y-110655812D01*
X122484686Y-110662630D01*
X122469671Y-110668003D01*
X122454202Y-110671878D01*
X122438428Y-110674218D01*
X122422500Y-110675000D01*
X121687500Y-110675000D01*
X121671572Y-110674218D01*
X121655798Y-110671878D01*
X121640329Y-110668003D01*
X121625314Y-110662630D01*
X121610898Y-110655812D01*
X121597220Y-110647614D01*
X121584411Y-110638114D01*
X121572595Y-110627405D01*
X121561886Y-110615589D01*
X121552386Y-110602780D01*
X121544188Y-110589102D01*
X121537370Y-110574686D01*
X121531997Y-110559671D01*
X121528122Y-110544202D01*
X121525782Y-110528428D01*
X121525000Y-110512500D01*
X121525000Y-110187500D01*
X121525782Y-110171572D01*
X121528122Y-110155798D01*
X121531997Y-110140329D01*
X121537370Y-110125314D01*
X121544188Y-110110898D01*
X121552386Y-110097220D01*
X121561886Y-110084411D01*
X121572595Y-110072595D01*
X121584411Y-110061886D01*
X121597220Y-110052386D01*
X121610898Y-110044188D01*
X121625314Y-110037370D01*
X121640329Y-110031997D01*
X121655798Y-110028122D01*
X121671572Y-110025782D01*
X121687500Y-110025000D01*
X122422500Y-110025000D01*
X122438428Y-110025782D01*
X122438428Y-110025782D01*
G37*
D11*
X122055000Y-110350000D03*
D10*
G36*
X122438428Y-111925782D02*
G01*
X122454202Y-111928122D01*
X122469671Y-111931997D01*
X122484686Y-111937370D01*
X122499102Y-111944188D01*
X122512780Y-111952386D01*
X122525589Y-111961886D01*
X122537405Y-111972595D01*
X122548114Y-111984411D01*
X122557614Y-111997220D01*
X122565812Y-112010898D01*
X122572630Y-112025314D01*
X122578003Y-112040329D01*
X122581878Y-112055798D01*
X122584218Y-112071572D01*
X122585000Y-112087500D01*
X122585000Y-112412500D01*
X122584218Y-112428428D01*
X122581878Y-112444202D01*
X122578003Y-112459671D01*
X122572630Y-112474686D01*
X122565812Y-112489102D01*
X122557614Y-112502780D01*
X122548114Y-112515589D01*
X122537405Y-112527405D01*
X122525589Y-112538114D01*
X122512780Y-112547614D01*
X122499102Y-112555812D01*
X122484686Y-112562630D01*
X122469671Y-112568003D01*
X122454202Y-112571878D01*
X122438428Y-112574218D01*
X122422500Y-112575000D01*
X121687500Y-112575000D01*
X121671572Y-112574218D01*
X121655798Y-112571878D01*
X121640329Y-112568003D01*
X121625314Y-112562630D01*
X121610898Y-112555812D01*
X121597220Y-112547614D01*
X121584411Y-112538114D01*
X121572595Y-112527405D01*
X121561886Y-112515589D01*
X121552386Y-112502780D01*
X121544188Y-112489102D01*
X121537370Y-112474686D01*
X121531997Y-112459671D01*
X121528122Y-112444202D01*
X121525782Y-112428428D01*
X121525000Y-112412500D01*
X121525000Y-112087500D01*
X121525782Y-112071572D01*
X121528122Y-112055798D01*
X121531997Y-112040329D01*
X121537370Y-112025314D01*
X121544188Y-112010898D01*
X121552386Y-111997220D01*
X121561886Y-111984411D01*
X121572595Y-111972595D01*
X121584411Y-111961886D01*
X121597220Y-111952386D01*
X121610898Y-111944188D01*
X121625314Y-111937370D01*
X121640329Y-111931997D01*
X121655798Y-111928122D01*
X121671572Y-111925782D01*
X121687500Y-111925000D01*
X122422500Y-111925000D01*
X122438428Y-111925782D01*
X122438428Y-111925782D01*
G37*
D11*
X122055000Y-112250000D03*
D10*
G36*
X120238428Y-111925782D02*
G01*
X120254202Y-111928122D01*
X120269671Y-111931997D01*
X120284686Y-111937370D01*
X120299102Y-111944188D01*
X120312780Y-111952386D01*
X120325589Y-111961886D01*
X120337405Y-111972595D01*
X120348114Y-111984411D01*
X120357614Y-111997220D01*
X120365812Y-112010898D01*
X120372630Y-112025314D01*
X120378003Y-112040329D01*
X120381878Y-112055798D01*
X120384218Y-112071572D01*
X120385000Y-112087500D01*
X120385000Y-112412500D01*
X120384218Y-112428428D01*
X120381878Y-112444202D01*
X120378003Y-112459671D01*
X120372630Y-112474686D01*
X120365812Y-112489102D01*
X120357614Y-112502780D01*
X120348114Y-112515589D01*
X120337405Y-112527405D01*
X120325589Y-112538114D01*
X120312780Y-112547614D01*
X120299102Y-112555812D01*
X120284686Y-112562630D01*
X120269671Y-112568003D01*
X120254202Y-112571878D01*
X120238428Y-112574218D01*
X120222500Y-112575000D01*
X119487500Y-112575000D01*
X119471572Y-112574218D01*
X119455798Y-112571878D01*
X119440329Y-112568003D01*
X119425314Y-112562630D01*
X119410898Y-112555812D01*
X119397220Y-112547614D01*
X119384411Y-112538114D01*
X119372595Y-112527405D01*
X119361886Y-112515589D01*
X119352386Y-112502780D01*
X119344188Y-112489102D01*
X119337370Y-112474686D01*
X119331997Y-112459671D01*
X119328122Y-112444202D01*
X119325782Y-112428428D01*
X119325000Y-112412500D01*
X119325000Y-112087500D01*
X119325782Y-112071572D01*
X119328122Y-112055798D01*
X119331997Y-112040329D01*
X119337370Y-112025314D01*
X119344188Y-112010898D01*
X119352386Y-111997220D01*
X119361886Y-111984411D01*
X119372595Y-111972595D01*
X119384411Y-111961886D01*
X119397220Y-111952386D01*
X119410898Y-111944188D01*
X119425314Y-111937370D01*
X119440329Y-111931997D01*
X119455798Y-111928122D01*
X119471572Y-111925782D01*
X119487500Y-111925000D01*
X120222500Y-111925000D01*
X120238428Y-111925782D01*
X120238428Y-111925782D01*
G37*
D11*
X119855000Y-112250000D03*
D10*
G36*
X120238428Y-110975782D02*
G01*
X120254202Y-110978122D01*
X120269671Y-110981997D01*
X120284686Y-110987370D01*
X120299102Y-110994188D01*
X120312780Y-111002386D01*
X120325589Y-111011886D01*
X120337405Y-111022595D01*
X120348114Y-111034411D01*
X120357614Y-111047220D01*
X120365812Y-111060898D01*
X120372630Y-111075314D01*
X120378003Y-111090329D01*
X120381878Y-111105798D01*
X120384218Y-111121572D01*
X120385000Y-111137500D01*
X120385000Y-111462500D01*
X120384218Y-111478428D01*
X120381878Y-111494202D01*
X120378003Y-111509671D01*
X120372630Y-111524686D01*
X120365812Y-111539102D01*
X120357614Y-111552780D01*
X120348114Y-111565589D01*
X120337405Y-111577405D01*
X120325589Y-111588114D01*
X120312780Y-111597614D01*
X120299102Y-111605812D01*
X120284686Y-111612630D01*
X120269671Y-111618003D01*
X120254202Y-111621878D01*
X120238428Y-111624218D01*
X120222500Y-111625000D01*
X119487500Y-111625000D01*
X119471572Y-111624218D01*
X119455798Y-111621878D01*
X119440329Y-111618003D01*
X119425314Y-111612630D01*
X119410898Y-111605812D01*
X119397220Y-111597614D01*
X119384411Y-111588114D01*
X119372595Y-111577405D01*
X119361886Y-111565589D01*
X119352386Y-111552780D01*
X119344188Y-111539102D01*
X119337370Y-111524686D01*
X119331997Y-111509671D01*
X119328122Y-111494202D01*
X119325782Y-111478428D01*
X119325000Y-111462500D01*
X119325000Y-111137500D01*
X119325782Y-111121572D01*
X119328122Y-111105798D01*
X119331997Y-111090329D01*
X119337370Y-111075314D01*
X119344188Y-111060898D01*
X119352386Y-111047220D01*
X119361886Y-111034411D01*
X119372595Y-111022595D01*
X119384411Y-111011886D01*
X119397220Y-111002386D01*
X119410898Y-110994188D01*
X119425314Y-110987370D01*
X119440329Y-110981997D01*
X119455798Y-110978122D01*
X119471572Y-110975782D01*
X119487500Y-110975000D01*
X120222500Y-110975000D01*
X120238428Y-110975782D01*
X120238428Y-110975782D01*
G37*
D11*
X119855000Y-111300000D03*
D10*
G36*
X120238428Y-110025782D02*
G01*
X120254202Y-110028122D01*
X120269671Y-110031997D01*
X120284686Y-110037370D01*
X120299102Y-110044188D01*
X120312780Y-110052386D01*
X120325589Y-110061886D01*
X120337405Y-110072595D01*
X120348114Y-110084411D01*
X120357614Y-110097220D01*
X120365812Y-110110898D01*
X120372630Y-110125314D01*
X120378003Y-110140329D01*
X120381878Y-110155798D01*
X120384218Y-110171572D01*
X120385000Y-110187500D01*
X120385000Y-110512500D01*
X120384218Y-110528428D01*
X120381878Y-110544202D01*
X120378003Y-110559671D01*
X120372630Y-110574686D01*
X120365812Y-110589102D01*
X120357614Y-110602780D01*
X120348114Y-110615589D01*
X120337405Y-110627405D01*
X120325589Y-110638114D01*
X120312780Y-110647614D01*
X120299102Y-110655812D01*
X120284686Y-110662630D01*
X120269671Y-110668003D01*
X120254202Y-110671878D01*
X120238428Y-110674218D01*
X120222500Y-110675000D01*
X119487500Y-110675000D01*
X119471572Y-110674218D01*
X119455798Y-110671878D01*
X119440329Y-110668003D01*
X119425314Y-110662630D01*
X119410898Y-110655812D01*
X119397220Y-110647614D01*
X119384411Y-110638114D01*
X119372595Y-110627405D01*
X119361886Y-110615589D01*
X119352386Y-110602780D01*
X119344188Y-110589102D01*
X119337370Y-110574686D01*
X119331997Y-110559671D01*
X119328122Y-110544202D01*
X119325782Y-110528428D01*
X119325000Y-110512500D01*
X119325000Y-110187500D01*
X119325782Y-110171572D01*
X119328122Y-110155798D01*
X119331997Y-110140329D01*
X119337370Y-110125314D01*
X119344188Y-110110898D01*
X119352386Y-110097220D01*
X119361886Y-110084411D01*
X119372595Y-110072595D01*
X119384411Y-110061886D01*
X119397220Y-110052386D01*
X119410898Y-110044188D01*
X119425314Y-110037370D01*
X119440329Y-110031997D01*
X119455798Y-110028122D01*
X119471572Y-110025782D01*
X119487500Y-110025000D01*
X120222500Y-110025000D01*
X120238428Y-110025782D01*
X120238428Y-110025782D01*
G37*
D11*
X119855000Y-110350000D03*
D10*
G36*
X72159142Y-111751174D02*
G01*
X72182803Y-111754684D01*
X72206007Y-111760496D01*
X72228529Y-111768554D01*
X72250153Y-111778782D01*
X72270670Y-111791079D01*
X72289883Y-111805329D01*
X72307607Y-111821393D01*
X72323671Y-111839117D01*
X72337921Y-111858330D01*
X72350218Y-111878847D01*
X72360446Y-111900471D01*
X72368504Y-111922993D01*
X72374316Y-111946197D01*
X72377826Y-111969858D01*
X72379000Y-111993750D01*
X72379000Y-112481250D01*
X72377826Y-112505142D01*
X72374316Y-112528803D01*
X72368504Y-112552007D01*
X72360446Y-112574529D01*
X72350218Y-112596153D01*
X72337921Y-112616670D01*
X72323671Y-112635883D01*
X72307607Y-112653607D01*
X72289883Y-112669671D01*
X72270670Y-112683921D01*
X72250153Y-112696218D01*
X72228529Y-112706446D01*
X72206007Y-112714504D01*
X72182803Y-112720316D01*
X72159142Y-112723826D01*
X72135250Y-112725000D01*
X71222750Y-112725000D01*
X71198858Y-112723826D01*
X71175197Y-112720316D01*
X71151993Y-112714504D01*
X71129471Y-112706446D01*
X71107847Y-112696218D01*
X71087330Y-112683921D01*
X71068117Y-112669671D01*
X71050393Y-112653607D01*
X71034329Y-112635883D01*
X71020079Y-112616670D01*
X71007782Y-112596153D01*
X70997554Y-112574529D01*
X70989496Y-112552007D01*
X70983684Y-112528803D01*
X70980174Y-112505142D01*
X70979000Y-112481250D01*
X70979000Y-111993750D01*
X70980174Y-111969858D01*
X70983684Y-111946197D01*
X70989496Y-111922993D01*
X70997554Y-111900471D01*
X71007782Y-111878847D01*
X71020079Y-111858330D01*
X71034329Y-111839117D01*
X71050393Y-111821393D01*
X71068117Y-111805329D01*
X71087330Y-111791079D01*
X71107847Y-111778782D01*
X71129471Y-111768554D01*
X71151993Y-111760496D01*
X71175197Y-111754684D01*
X71198858Y-111751174D01*
X71222750Y-111750000D01*
X72135250Y-111750000D01*
X72159142Y-111751174D01*
X72159142Y-111751174D01*
G37*
D12*
X71679000Y-112237500D03*
D10*
G36*
X72159142Y-109876174D02*
G01*
X72182803Y-109879684D01*
X72206007Y-109885496D01*
X72228529Y-109893554D01*
X72250153Y-109903782D01*
X72270670Y-109916079D01*
X72289883Y-109930329D01*
X72307607Y-109946393D01*
X72323671Y-109964117D01*
X72337921Y-109983330D01*
X72350218Y-110003847D01*
X72360446Y-110025471D01*
X72368504Y-110047993D01*
X72374316Y-110071197D01*
X72377826Y-110094858D01*
X72379000Y-110118750D01*
X72379000Y-110606250D01*
X72377826Y-110630142D01*
X72374316Y-110653803D01*
X72368504Y-110677007D01*
X72360446Y-110699529D01*
X72350218Y-110721153D01*
X72337921Y-110741670D01*
X72323671Y-110760883D01*
X72307607Y-110778607D01*
X72289883Y-110794671D01*
X72270670Y-110808921D01*
X72250153Y-110821218D01*
X72228529Y-110831446D01*
X72206007Y-110839504D01*
X72182803Y-110845316D01*
X72159142Y-110848826D01*
X72135250Y-110850000D01*
X71222750Y-110850000D01*
X71198858Y-110848826D01*
X71175197Y-110845316D01*
X71151993Y-110839504D01*
X71129471Y-110831446D01*
X71107847Y-110821218D01*
X71087330Y-110808921D01*
X71068117Y-110794671D01*
X71050393Y-110778607D01*
X71034329Y-110760883D01*
X71020079Y-110741670D01*
X71007782Y-110721153D01*
X70997554Y-110699529D01*
X70989496Y-110677007D01*
X70983684Y-110653803D01*
X70980174Y-110630142D01*
X70979000Y-110606250D01*
X70979000Y-110118750D01*
X70980174Y-110094858D01*
X70983684Y-110071197D01*
X70989496Y-110047993D01*
X70997554Y-110025471D01*
X71007782Y-110003847D01*
X71020079Y-109983330D01*
X71034329Y-109964117D01*
X71050393Y-109946393D01*
X71068117Y-109930329D01*
X71087330Y-109916079D01*
X71107847Y-109903782D01*
X71129471Y-109893554D01*
X71151993Y-109885496D01*
X71175197Y-109879684D01*
X71198858Y-109876174D01*
X71222750Y-109875000D01*
X72135250Y-109875000D01*
X72159142Y-109876174D01*
X72159142Y-109876174D01*
G37*
D12*
X71679000Y-110362500D03*
D10*
G36*
X80528428Y-110975782D02*
G01*
X80544202Y-110978122D01*
X80559671Y-110981997D01*
X80574686Y-110987370D01*
X80589102Y-110994188D01*
X80602780Y-111002386D01*
X80615589Y-111011886D01*
X80627405Y-111022595D01*
X80638114Y-111034411D01*
X80647614Y-111047220D01*
X80655812Y-111060898D01*
X80662630Y-111075314D01*
X80668003Y-111090329D01*
X80671878Y-111105798D01*
X80674218Y-111121572D01*
X80675000Y-111137500D01*
X80675000Y-111462500D01*
X80674218Y-111478428D01*
X80671878Y-111494202D01*
X80668003Y-111509671D01*
X80662630Y-111524686D01*
X80655812Y-111539102D01*
X80647614Y-111552780D01*
X80638114Y-111565589D01*
X80627405Y-111577405D01*
X80615589Y-111588114D01*
X80602780Y-111597614D01*
X80589102Y-111605812D01*
X80574686Y-111612630D01*
X80559671Y-111618003D01*
X80544202Y-111621878D01*
X80528428Y-111624218D01*
X80512500Y-111625000D01*
X79777500Y-111625000D01*
X79761572Y-111624218D01*
X79745798Y-111621878D01*
X79730329Y-111618003D01*
X79715314Y-111612630D01*
X79700898Y-111605812D01*
X79687220Y-111597614D01*
X79674411Y-111588114D01*
X79662595Y-111577405D01*
X79651886Y-111565589D01*
X79642386Y-111552780D01*
X79634188Y-111539102D01*
X79627370Y-111524686D01*
X79621997Y-111509671D01*
X79618122Y-111494202D01*
X79615782Y-111478428D01*
X79615000Y-111462500D01*
X79615000Y-111137500D01*
X79615782Y-111121572D01*
X79618122Y-111105798D01*
X79621997Y-111090329D01*
X79627370Y-111075314D01*
X79634188Y-111060898D01*
X79642386Y-111047220D01*
X79651886Y-111034411D01*
X79662595Y-111022595D01*
X79674411Y-111011886D01*
X79687220Y-111002386D01*
X79700898Y-110994188D01*
X79715314Y-110987370D01*
X79730329Y-110981997D01*
X79745798Y-110978122D01*
X79761572Y-110975782D01*
X79777500Y-110975000D01*
X80512500Y-110975000D01*
X80528428Y-110975782D01*
X80528428Y-110975782D01*
G37*
D11*
X80145000Y-111300000D03*
D10*
G36*
X80528428Y-110025782D02*
G01*
X80544202Y-110028122D01*
X80559671Y-110031997D01*
X80574686Y-110037370D01*
X80589102Y-110044188D01*
X80602780Y-110052386D01*
X80615589Y-110061886D01*
X80627405Y-110072595D01*
X80638114Y-110084411D01*
X80647614Y-110097220D01*
X80655812Y-110110898D01*
X80662630Y-110125314D01*
X80668003Y-110140329D01*
X80671878Y-110155798D01*
X80674218Y-110171572D01*
X80675000Y-110187500D01*
X80675000Y-110512500D01*
X80674218Y-110528428D01*
X80671878Y-110544202D01*
X80668003Y-110559671D01*
X80662630Y-110574686D01*
X80655812Y-110589102D01*
X80647614Y-110602780D01*
X80638114Y-110615589D01*
X80627405Y-110627405D01*
X80615589Y-110638114D01*
X80602780Y-110647614D01*
X80589102Y-110655812D01*
X80574686Y-110662630D01*
X80559671Y-110668003D01*
X80544202Y-110671878D01*
X80528428Y-110674218D01*
X80512500Y-110675000D01*
X79777500Y-110675000D01*
X79761572Y-110674218D01*
X79745798Y-110671878D01*
X79730329Y-110668003D01*
X79715314Y-110662630D01*
X79700898Y-110655812D01*
X79687220Y-110647614D01*
X79674411Y-110638114D01*
X79662595Y-110627405D01*
X79651886Y-110615589D01*
X79642386Y-110602780D01*
X79634188Y-110589102D01*
X79627370Y-110574686D01*
X79621997Y-110559671D01*
X79618122Y-110544202D01*
X79615782Y-110528428D01*
X79615000Y-110512500D01*
X79615000Y-110187500D01*
X79615782Y-110171572D01*
X79618122Y-110155798D01*
X79621997Y-110140329D01*
X79627370Y-110125314D01*
X79634188Y-110110898D01*
X79642386Y-110097220D01*
X79651886Y-110084411D01*
X79662595Y-110072595D01*
X79674411Y-110061886D01*
X79687220Y-110052386D01*
X79700898Y-110044188D01*
X79715314Y-110037370D01*
X79730329Y-110031997D01*
X79745798Y-110028122D01*
X79761572Y-110025782D01*
X79777500Y-110025000D01*
X80512500Y-110025000D01*
X80528428Y-110025782D01*
X80528428Y-110025782D01*
G37*
D11*
X80145000Y-110350000D03*
D10*
G36*
X80528428Y-111925782D02*
G01*
X80544202Y-111928122D01*
X80559671Y-111931997D01*
X80574686Y-111937370D01*
X80589102Y-111944188D01*
X80602780Y-111952386D01*
X80615589Y-111961886D01*
X80627405Y-111972595D01*
X80638114Y-111984411D01*
X80647614Y-111997220D01*
X80655812Y-112010898D01*
X80662630Y-112025314D01*
X80668003Y-112040329D01*
X80671878Y-112055798D01*
X80674218Y-112071572D01*
X80675000Y-112087500D01*
X80675000Y-112412500D01*
X80674218Y-112428428D01*
X80671878Y-112444202D01*
X80668003Y-112459671D01*
X80662630Y-112474686D01*
X80655812Y-112489102D01*
X80647614Y-112502780D01*
X80638114Y-112515589D01*
X80627405Y-112527405D01*
X80615589Y-112538114D01*
X80602780Y-112547614D01*
X80589102Y-112555812D01*
X80574686Y-112562630D01*
X80559671Y-112568003D01*
X80544202Y-112571878D01*
X80528428Y-112574218D01*
X80512500Y-112575000D01*
X79777500Y-112575000D01*
X79761572Y-112574218D01*
X79745798Y-112571878D01*
X79730329Y-112568003D01*
X79715314Y-112562630D01*
X79700898Y-112555812D01*
X79687220Y-112547614D01*
X79674411Y-112538114D01*
X79662595Y-112527405D01*
X79651886Y-112515589D01*
X79642386Y-112502780D01*
X79634188Y-112489102D01*
X79627370Y-112474686D01*
X79621997Y-112459671D01*
X79618122Y-112444202D01*
X79615782Y-112428428D01*
X79615000Y-112412500D01*
X79615000Y-112087500D01*
X79615782Y-112071572D01*
X79618122Y-112055798D01*
X79621997Y-112040329D01*
X79627370Y-112025314D01*
X79634188Y-112010898D01*
X79642386Y-111997220D01*
X79651886Y-111984411D01*
X79662595Y-111972595D01*
X79674411Y-111961886D01*
X79687220Y-111952386D01*
X79700898Y-111944188D01*
X79715314Y-111937370D01*
X79730329Y-111931997D01*
X79745798Y-111928122D01*
X79761572Y-111925782D01*
X79777500Y-111925000D01*
X80512500Y-111925000D01*
X80528428Y-111925782D01*
X80528428Y-111925782D01*
G37*
D11*
X80145000Y-112250000D03*
D10*
G36*
X78328428Y-111925782D02*
G01*
X78344202Y-111928122D01*
X78359671Y-111931997D01*
X78374686Y-111937370D01*
X78389102Y-111944188D01*
X78402780Y-111952386D01*
X78415589Y-111961886D01*
X78427405Y-111972595D01*
X78438114Y-111984411D01*
X78447614Y-111997220D01*
X78455812Y-112010898D01*
X78462630Y-112025314D01*
X78468003Y-112040329D01*
X78471878Y-112055798D01*
X78474218Y-112071572D01*
X78475000Y-112087500D01*
X78475000Y-112412500D01*
X78474218Y-112428428D01*
X78471878Y-112444202D01*
X78468003Y-112459671D01*
X78462630Y-112474686D01*
X78455812Y-112489102D01*
X78447614Y-112502780D01*
X78438114Y-112515589D01*
X78427405Y-112527405D01*
X78415589Y-112538114D01*
X78402780Y-112547614D01*
X78389102Y-112555812D01*
X78374686Y-112562630D01*
X78359671Y-112568003D01*
X78344202Y-112571878D01*
X78328428Y-112574218D01*
X78312500Y-112575000D01*
X77577500Y-112575000D01*
X77561572Y-112574218D01*
X77545798Y-112571878D01*
X77530329Y-112568003D01*
X77515314Y-112562630D01*
X77500898Y-112555812D01*
X77487220Y-112547614D01*
X77474411Y-112538114D01*
X77462595Y-112527405D01*
X77451886Y-112515589D01*
X77442386Y-112502780D01*
X77434188Y-112489102D01*
X77427370Y-112474686D01*
X77421997Y-112459671D01*
X77418122Y-112444202D01*
X77415782Y-112428428D01*
X77415000Y-112412500D01*
X77415000Y-112087500D01*
X77415782Y-112071572D01*
X77418122Y-112055798D01*
X77421997Y-112040329D01*
X77427370Y-112025314D01*
X77434188Y-112010898D01*
X77442386Y-111997220D01*
X77451886Y-111984411D01*
X77462595Y-111972595D01*
X77474411Y-111961886D01*
X77487220Y-111952386D01*
X77500898Y-111944188D01*
X77515314Y-111937370D01*
X77530329Y-111931997D01*
X77545798Y-111928122D01*
X77561572Y-111925782D01*
X77577500Y-111925000D01*
X78312500Y-111925000D01*
X78328428Y-111925782D01*
X78328428Y-111925782D01*
G37*
D11*
X77945000Y-112250000D03*
D10*
G36*
X78328428Y-110975782D02*
G01*
X78344202Y-110978122D01*
X78359671Y-110981997D01*
X78374686Y-110987370D01*
X78389102Y-110994188D01*
X78402780Y-111002386D01*
X78415589Y-111011886D01*
X78427405Y-111022595D01*
X78438114Y-111034411D01*
X78447614Y-111047220D01*
X78455812Y-111060898D01*
X78462630Y-111075314D01*
X78468003Y-111090329D01*
X78471878Y-111105798D01*
X78474218Y-111121572D01*
X78475000Y-111137500D01*
X78475000Y-111462500D01*
X78474218Y-111478428D01*
X78471878Y-111494202D01*
X78468003Y-111509671D01*
X78462630Y-111524686D01*
X78455812Y-111539102D01*
X78447614Y-111552780D01*
X78438114Y-111565589D01*
X78427405Y-111577405D01*
X78415589Y-111588114D01*
X78402780Y-111597614D01*
X78389102Y-111605812D01*
X78374686Y-111612630D01*
X78359671Y-111618003D01*
X78344202Y-111621878D01*
X78328428Y-111624218D01*
X78312500Y-111625000D01*
X77577500Y-111625000D01*
X77561572Y-111624218D01*
X77545798Y-111621878D01*
X77530329Y-111618003D01*
X77515314Y-111612630D01*
X77500898Y-111605812D01*
X77487220Y-111597614D01*
X77474411Y-111588114D01*
X77462595Y-111577405D01*
X77451886Y-111565589D01*
X77442386Y-111552780D01*
X77434188Y-111539102D01*
X77427370Y-111524686D01*
X77421997Y-111509671D01*
X77418122Y-111494202D01*
X77415782Y-111478428D01*
X77415000Y-111462500D01*
X77415000Y-111137500D01*
X77415782Y-111121572D01*
X77418122Y-111105798D01*
X77421997Y-111090329D01*
X77427370Y-111075314D01*
X77434188Y-111060898D01*
X77442386Y-111047220D01*
X77451886Y-111034411D01*
X77462595Y-111022595D01*
X77474411Y-111011886D01*
X77487220Y-111002386D01*
X77500898Y-110994188D01*
X77515314Y-110987370D01*
X77530329Y-110981997D01*
X77545798Y-110978122D01*
X77561572Y-110975782D01*
X77577500Y-110975000D01*
X78312500Y-110975000D01*
X78328428Y-110975782D01*
X78328428Y-110975782D01*
G37*
D11*
X77945000Y-111300000D03*
D10*
G36*
X78328428Y-110025782D02*
G01*
X78344202Y-110028122D01*
X78359671Y-110031997D01*
X78374686Y-110037370D01*
X78389102Y-110044188D01*
X78402780Y-110052386D01*
X78415589Y-110061886D01*
X78427405Y-110072595D01*
X78438114Y-110084411D01*
X78447614Y-110097220D01*
X78455812Y-110110898D01*
X78462630Y-110125314D01*
X78468003Y-110140329D01*
X78471878Y-110155798D01*
X78474218Y-110171572D01*
X78475000Y-110187500D01*
X78475000Y-110512500D01*
X78474218Y-110528428D01*
X78471878Y-110544202D01*
X78468003Y-110559671D01*
X78462630Y-110574686D01*
X78455812Y-110589102D01*
X78447614Y-110602780D01*
X78438114Y-110615589D01*
X78427405Y-110627405D01*
X78415589Y-110638114D01*
X78402780Y-110647614D01*
X78389102Y-110655812D01*
X78374686Y-110662630D01*
X78359671Y-110668003D01*
X78344202Y-110671878D01*
X78328428Y-110674218D01*
X78312500Y-110675000D01*
X77577500Y-110675000D01*
X77561572Y-110674218D01*
X77545798Y-110671878D01*
X77530329Y-110668003D01*
X77515314Y-110662630D01*
X77500898Y-110655812D01*
X77487220Y-110647614D01*
X77474411Y-110638114D01*
X77462595Y-110627405D01*
X77451886Y-110615589D01*
X77442386Y-110602780D01*
X77434188Y-110589102D01*
X77427370Y-110574686D01*
X77421997Y-110559671D01*
X77418122Y-110544202D01*
X77415782Y-110528428D01*
X77415000Y-110512500D01*
X77415000Y-110187500D01*
X77415782Y-110171572D01*
X77418122Y-110155798D01*
X77421997Y-110140329D01*
X77427370Y-110125314D01*
X77434188Y-110110898D01*
X77442386Y-110097220D01*
X77451886Y-110084411D01*
X77462595Y-110072595D01*
X77474411Y-110061886D01*
X77487220Y-110052386D01*
X77500898Y-110044188D01*
X77515314Y-110037370D01*
X77530329Y-110031997D01*
X77545798Y-110028122D01*
X77561572Y-110025782D01*
X77577500Y-110025000D01*
X78312500Y-110025000D01*
X78328428Y-110025782D01*
X78328428Y-110025782D01*
G37*
D11*
X77945000Y-110350000D03*
D10*
G36*
X64653428Y-110975782D02*
G01*
X64669202Y-110978122D01*
X64684671Y-110981997D01*
X64699686Y-110987370D01*
X64714102Y-110994188D01*
X64727780Y-111002386D01*
X64740589Y-111011886D01*
X64752405Y-111022595D01*
X64763114Y-111034411D01*
X64772614Y-111047220D01*
X64780812Y-111060898D01*
X64787630Y-111075314D01*
X64793003Y-111090329D01*
X64796878Y-111105798D01*
X64799218Y-111121572D01*
X64800000Y-111137500D01*
X64800000Y-111462500D01*
X64799218Y-111478428D01*
X64796878Y-111494202D01*
X64793003Y-111509671D01*
X64787630Y-111524686D01*
X64780812Y-111539102D01*
X64772614Y-111552780D01*
X64763114Y-111565589D01*
X64752405Y-111577405D01*
X64740589Y-111588114D01*
X64727780Y-111597614D01*
X64714102Y-111605812D01*
X64699686Y-111612630D01*
X64684671Y-111618003D01*
X64669202Y-111621878D01*
X64653428Y-111624218D01*
X64637500Y-111625000D01*
X63902500Y-111625000D01*
X63886572Y-111624218D01*
X63870798Y-111621878D01*
X63855329Y-111618003D01*
X63840314Y-111612630D01*
X63825898Y-111605812D01*
X63812220Y-111597614D01*
X63799411Y-111588114D01*
X63787595Y-111577405D01*
X63776886Y-111565589D01*
X63767386Y-111552780D01*
X63759188Y-111539102D01*
X63752370Y-111524686D01*
X63746997Y-111509671D01*
X63743122Y-111494202D01*
X63740782Y-111478428D01*
X63740000Y-111462500D01*
X63740000Y-111137500D01*
X63740782Y-111121572D01*
X63743122Y-111105798D01*
X63746997Y-111090329D01*
X63752370Y-111075314D01*
X63759188Y-111060898D01*
X63767386Y-111047220D01*
X63776886Y-111034411D01*
X63787595Y-111022595D01*
X63799411Y-111011886D01*
X63812220Y-111002386D01*
X63825898Y-110994188D01*
X63840314Y-110987370D01*
X63855329Y-110981997D01*
X63870798Y-110978122D01*
X63886572Y-110975782D01*
X63902500Y-110975000D01*
X64637500Y-110975000D01*
X64653428Y-110975782D01*
X64653428Y-110975782D01*
G37*
D11*
X64270000Y-111300000D03*
D10*
G36*
X64653428Y-110025782D02*
G01*
X64669202Y-110028122D01*
X64684671Y-110031997D01*
X64699686Y-110037370D01*
X64714102Y-110044188D01*
X64727780Y-110052386D01*
X64740589Y-110061886D01*
X64752405Y-110072595D01*
X64763114Y-110084411D01*
X64772614Y-110097220D01*
X64780812Y-110110898D01*
X64787630Y-110125314D01*
X64793003Y-110140329D01*
X64796878Y-110155798D01*
X64799218Y-110171572D01*
X64800000Y-110187500D01*
X64800000Y-110512500D01*
X64799218Y-110528428D01*
X64796878Y-110544202D01*
X64793003Y-110559671D01*
X64787630Y-110574686D01*
X64780812Y-110589102D01*
X64772614Y-110602780D01*
X64763114Y-110615589D01*
X64752405Y-110627405D01*
X64740589Y-110638114D01*
X64727780Y-110647614D01*
X64714102Y-110655812D01*
X64699686Y-110662630D01*
X64684671Y-110668003D01*
X64669202Y-110671878D01*
X64653428Y-110674218D01*
X64637500Y-110675000D01*
X63902500Y-110675000D01*
X63886572Y-110674218D01*
X63870798Y-110671878D01*
X63855329Y-110668003D01*
X63840314Y-110662630D01*
X63825898Y-110655812D01*
X63812220Y-110647614D01*
X63799411Y-110638114D01*
X63787595Y-110627405D01*
X63776886Y-110615589D01*
X63767386Y-110602780D01*
X63759188Y-110589102D01*
X63752370Y-110574686D01*
X63746997Y-110559671D01*
X63743122Y-110544202D01*
X63740782Y-110528428D01*
X63740000Y-110512500D01*
X63740000Y-110187500D01*
X63740782Y-110171572D01*
X63743122Y-110155798D01*
X63746997Y-110140329D01*
X63752370Y-110125314D01*
X63759188Y-110110898D01*
X63767386Y-110097220D01*
X63776886Y-110084411D01*
X63787595Y-110072595D01*
X63799411Y-110061886D01*
X63812220Y-110052386D01*
X63825898Y-110044188D01*
X63840314Y-110037370D01*
X63855329Y-110031997D01*
X63870798Y-110028122D01*
X63886572Y-110025782D01*
X63902500Y-110025000D01*
X64637500Y-110025000D01*
X64653428Y-110025782D01*
X64653428Y-110025782D01*
G37*
D11*
X64270000Y-110350000D03*
D10*
G36*
X64653428Y-111925782D02*
G01*
X64669202Y-111928122D01*
X64684671Y-111931997D01*
X64699686Y-111937370D01*
X64714102Y-111944188D01*
X64727780Y-111952386D01*
X64740589Y-111961886D01*
X64752405Y-111972595D01*
X64763114Y-111984411D01*
X64772614Y-111997220D01*
X64780812Y-112010898D01*
X64787630Y-112025314D01*
X64793003Y-112040329D01*
X64796878Y-112055798D01*
X64799218Y-112071572D01*
X64800000Y-112087500D01*
X64800000Y-112412500D01*
X64799218Y-112428428D01*
X64796878Y-112444202D01*
X64793003Y-112459671D01*
X64787630Y-112474686D01*
X64780812Y-112489102D01*
X64772614Y-112502780D01*
X64763114Y-112515589D01*
X64752405Y-112527405D01*
X64740589Y-112538114D01*
X64727780Y-112547614D01*
X64714102Y-112555812D01*
X64699686Y-112562630D01*
X64684671Y-112568003D01*
X64669202Y-112571878D01*
X64653428Y-112574218D01*
X64637500Y-112575000D01*
X63902500Y-112575000D01*
X63886572Y-112574218D01*
X63870798Y-112571878D01*
X63855329Y-112568003D01*
X63840314Y-112562630D01*
X63825898Y-112555812D01*
X63812220Y-112547614D01*
X63799411Y-112538114D01*
X63787595Y-112527405D01*
X63776886Y-112515589D01*
X63767386Y-112502780D01*
X63759188Y-112489102D01*
X63752370Y-112474686D01*
X63746997Y-112459671D01*
X63743122Y-112444202D01*
X63740782Y-112428428D01*
X63740000Y-112412500D01*
X63740000Y-112087500D01*
X63740782Y-112071572D01*
X63743122Y-112055798D01*
X63746997Y-112040329D01*
X63752370Y-112025314D01*
X63759188Y-112010898D01*
X63767386Y-111997220D01*
X63776886Y-111984411D01*
X63787595Y-111972595D01*
X63799411Y-111961886D01*
X63812220Y-111952386D01*
X63825898Y-111944188D01*
X63840314Y-111937370D01*
X63855329Y-111931997D01*
X63870798Y-111928122D01*
X63886572Y-111925782D01*
X63902500Y-111925000D01*
X64637500Y-111925000D01*
X64653428Y-111925782D01*
X64653428Y-111925782D01*
G37*
D11*
X64270000Y-112250000D03*
D10*
G36*
X62453428Y-111925782D02*
G01*
X62469202Y-111928122D01*
X62484671Y-111931997D01*
X62499686Y-111937370D01*
X62514102Y-111944188D01*
X62527780Y-111952386D01*
X62540589Y-111961886D01*
X62552405Y-111972595D01*
X62563114Y-111984411D01*
X62572614Y-111997220D01*
X62580812Y-112010898D01*
X62587630Y-112025314D01*
X62593003Y-112040329D01*
X62596878Y-112055798D01*
X62599218Y-112071572D01*
X62600000Y-112087500D01*
X62600000Y-112412500D01*
X62599218Y-112428428D01*
X62596878Y-112444202D01*
X62593003Y-112459671D01*
X62587630Y-112474686D01*
X62580812Y-112489102D01*
X62572614Y-112502780D01*
X62563114Y-112515589D01*
X62552405Y-112527405D01*
X62540589Y-112538114D01*
X62527780Y-112547614D01*
X62514102Y-112555812D01*
X62499686Y-112562630D01*
X62484671Y-112568003D01*
X62469202Y-112571878D01*
X62453428Y-112574218D01*
X62437500Y-112575000D01*
X61702500Y-112575000D01*
X61686572Y-112574218D01*
X61670798Y-112571878D01*
X61655329Y-112568003D01*
X61640314Y-112562630D01*
X61625898Y-112555812D01*
X61612220Y-112547614D01*
X61599411Y-112538114D01*
X61587595Y-112527405D01*
X61576886Y-112515589D01*
X61567386Y-112502780D01*
X61559188Y-112489102D01*
X61552370Y-112474686D01*
X61546997Y-112459671D01*
X61543122Y-112444202D01*
X61540782Y-112428428D01*
X61540000Y-112412500D01*
X61540000Y-112087500D01*
X61540782Y-112071572D01*
X61543122Y-112055798D01*
X61546997Y-112040329D01*
X61552370Y-112025314D01*
X61559188Y-112010898D01*
X61567386Y-111997220D01*
X61576886Y-111984411D01*
X61587595Y-111972595D01*
X61599411Y-111961886D01*
X61612220Y-111952386D01*
X61625898Y-111944188D01*
X61640314Y-111937370D01*
X61655329Y-111931997D01*
X61670798Y-111928122D01*
X61686572Y-111925782D01*
X61702500Y-111925000D01*
X62437500Y-111925000D01*
X62453428Y-111925782D01*
X62453428Y-111925782D01*
G37*
D11*
X62070000Y-112250000D03*
D10*
G36*
X62453428Y-110975782D02*
G01*
X62469202Y-110978122D01*
X62484671Y-110981997D01*
X62499686Y-110987370D01*
X62514102Y-110994188D01*
X62527780Y-111002386D01*
X62540589Y-111011886D01*
X62552405Y-111022595D01*
X62563114Y-111034411D01*
X62572614Y-111047220D01*
X62580812Y-111060898D01*
X62587630Y-111075314D01*
X62593003Y-111090329D01*
X62596878Y-111105798D01*
X62599218Y-111121572D01*
X62600000Y-111137500D01*
X62600000Y-111462500D01*
X62599218Y-111478428D01*
X62596878Y-111494202D01*
X62593003Y-111509671D01*
X62587630Y-111524686D01*
X62580812Y-111539102D01*
X62572614Y-111552780D01*
X62563114Y-111565589D01*
X62552405Y-111577405D01*
X62540589Y-111588114D01*
X62527780Y-111597614D01*
X62514102Y-111605812D01*
X62499686Y-111612630D01*
X62484671Y-111618003D01*
X62469202Y-111621878D01*
X62453428Y-111624218D01*
X62437500Y-111625000D01*
X61702500Y-111625000D01*
X61686572Y-111624218D01*
X61670798Y-111621878D01*
X61655329Y-111618003D01*
X61640314Y-111612630D01*
X61625898Y-111605812D01*
X61612220Y-111597614D01*
X61599411Y-111588114D01*
X61587595Y-111577405D01*
X61576886Y-111565589D01*
X61567386Y-111552780D01*
X61559188Y-111539102D01*
X61552370Y-111524686D01*
X61546997Y-111509671D01*
X61543122Y-111494202D01*
X61540782Y-111478428D01*
X61540000Y-111462500D01*
X61540000Y-111137500D01*
X61540782Y-111121572D01*
X61543122Y-111105798D01*
X61546997Y-111090329D01*
X61552370Y-111075314D01*
X61559188Y-111060898D01*
X61567386Y-111047220D01*
X61576886Y-111034411D01*
X61587595Y-111022595D01*
X61599411Y-111011886D01*
X61612220Y-111002386D01*
X61625898Y-110994188D01*
X61640314Y-110987370D01*
X61655329Y-110981997D01*
X61670798Y-110978122D01*
X61686572Y-110975782D01*
X61702500Y-110975000D01*
X62437500Y-110975000D01*
X62453428Y-110975782D01*
X62453428Y-110975782D01*
G37*
D11*
X62070000Y-111300000D03*
D10*
G36*
X62453428Y-110025782D02*
G01*
X62469202Y-110028122D01*
X62484671Y-110031997D01*
X62499686Y-110037370D01*
X62514102Y-110044188D01*
X62527780Y-110052386D01*
X62540589Y-110061886D01*
X62552405Y-110072595D01*
X62563114Y-110084411D01*
X62572614Y-110097220D01*
X62580812Y-110110898D01*
X62587630Y-110125314D01*
X62593003Y-110140329D01*
X62596878Y-110155798D01*
X62599218Y-110171572D01*
X62600000Y-110187500D01*
X62600000Y-110512500D01*
X62599218Y-110528428D01*
X62596878Y-110544202D01*
X62593003Y-110559671D01*
X62587630Y-110574686D01*
X62580812Y-110589102D01*
X62572614Y-110602780D01*
X62563114Y-110615589D01*
X62552405Y-110627405D01*
X62540589Y-110638114D01*
X62527780Y-110647614D01*
X62514102Y-110655812D01*
X62499686Y-110662630D01*
X62484671Y-110668003D01*
X62469202Y-110671878D01*
X62453428Y-110674218D01*
X62437500Y-110675000D01*
X61702500Y-110675000D01*
X61686572Y-110674218D01*
X61670798Y-110671878D01*
X61655329Y-110668003D01*
X61640314Y-110662630D01*
X61625898Y-110655812D01*
X61612220Y-110647614D01*
X61599411Y-110638114D01*
X61587595Y-110627405D01*
X61576886Y-110615589D01*
X61567386Y-110602780D01*
X61559188Y-110589102D01*
X61552370Y-110574686D01*
X61546997Y-110559671D01*
X61543122Y-110544202D01*
X61540782Y-110528428D01*
X61540000Y-110512500D01*
X61540000Y-110187500D01*
X61540782Y-110171572D01*
X61543122Y-110155798D01*
X61546997Y-110140329D01*
X61552370Y-110125314D01*
X61559188Y-110110898D01*
X61567386Y-110097220D01*
X61576886Y-110084411D01*
X61587595Y-110072595D01*
X61599411Y-110061886D01*
X61612220Y-110052386D01*
X61625898Y-110044188D01*
X61640314Y-110037370D01*
X61655329Y-110031997D01*
X61670798Y-110028122D01*
X61686572Y-110025782D01*
X61702500Y-110025000D01*
X62437500Y-110025000D01*
X62453428Y-110025782D01*
X62453428Y-110025782D01*
G37*
D11*
X62070000Y-110350000D03*
D10*
G36*
X108468428Y-110025782D02*
G01*
X108484202Y-110028122D01*
X108499671Y-110031997D01*
X108514686Y-110037370D01*
X108529102Y-110044188D01*
X108542780Y-110052386D01*
X108555589Y-110061886D01*
X108567405Y-110072595D01*
X108578114Y-110084411D01*
X108587614Y-110097220D01*
X108595812Y-110110898D01*
X108602630Y-110125314D01*
X108608003Y-110140329D01*
X108611878Y-110155798D01*
X108614218Y-110171572D01*
X108615000Y-110187500D01*
X108615000Y-110512500D01*
X108614218Y-110528428D01*
X108611878Y-110544202D01*
X108608003Y-110559671D01*
X108602630Y-110574686D01*
X108595812Y-110589102D01*
X108587614Y-110602780D01*
X108578114Y-110615589D01*
X108567405Y-110627405D01*
X108555589Y-110638114D01*
X108542780Y-110647614D01*
X108529102Y-110655812D01*
X108514686Y-110662630D01*
X108499671Y-110668003D01*
X108484202Y-110671878D01*
X108468428Y-110674218D01*
X108452500Y-110675000D01*
X107717500Y-110675000D01*
X107701572Y-110674218D01*
X107685798Y-110671878D01*
X107670329Y-110668003D01*
X107655314Y-110662630D01*
X107640898Y-110655812D01*
X107627220Y-110647614D01*
X107614411Y-110638114D01*
X107602595Y-110627405D01*
X107591886Y-110615589D01*
X107582386Y-110602780D01*
X107574188Y-110589102D01*
X107567370Y-110574686D01*
X107561997Y-110559671D01*
X107558122Y-110544202D01*
X107555782Y-110528428D01*
X107555000Y-110512500D01*
X107555000Y-110187500D01*
X107555782Y-110171572D01*
X107558122Y-110155798D01*
X107561997Y-110140329D01*
X107567370Y-110125314D01*
X107574188Y-110110898D01*
X107582386Y-110097220D01*
X107591886Y-110084411D01*
X107602595Y-110072595D01*
X107614411Y-110061886D01*
X107627220Y-110052386D01*
X107640898Y-110044188D01*
X107655314Y-110037370D01*
X107670329Y-110031997D01*
X107685798Y-110028122D01*
X107701572Y-110025782D01*
X107717500Y-110025000D01*
X108452500Y-110025000D01*
X108468428Y-110025782D01*
X108468428Y-110025782D01*
G37*
D11*
X108085000Y-110350000D03*
D10*
G36*
X108468428Y-111925782D02*
G01*
X108484202Y-111928122D01*
X108499671Y-111931997D01*
X108514686Y-111937370D01*
X108529102Y-111944188D01*
X108542780Y-111952386D01*
X108555589Y-111961886D01*
X108567405Y-111972595D01*
X108578114Y-111984411D01*
X108587614Y-111997220D01*
X108595812Y-112010898D01*
X108602630Y-112025314D01*
X108608003Y-112040329D01*
X108611878Y-112055798D01*
X108614218Y-112071572D01*
X108615000Y-112087500D01*
X108615000Y-112412500D01*
X108614218Y-112428428D01*
X108611878Y-112444202D01*
X108608003Y-112459671D01*
X108602630Y-112474686D01*
X108595812Y-112489102D01*
X108587614Y-112502780D01*
X108578114Y-112515589D01*
X108567405Y-112527405D01*
X108555589Y-112538114D01*
X108542780Y-112547614D01*
X108529102Y-112555812D01*
X108514686Y-112562630D01*
X108499671Y-112568003D01*
X108484202Y-112571878D01*
X108468428Y-112574218D01*
X108452500Y-112575000D01*
X107717500Y-112575000D01*
X107701572Y-112574218D01*
X107685798Y-112571878D01*
X107670329Y-112568003D01*
X107655314Y-112562630D01*
X107640898Y-112555812D01*
X107627220Y-112547614D01*
X107614411Y-112538114D01*
X107602595Y-112527405D01*
X107591886Y-112515589D01*
X107582386Y-112502780D01*
X107574188Y-112489102D01*
X107567370Y-112474686D01*
X107561997Y-112459671D01*
X107558122Y-112444202D01*
X107555782Y-112428428D01*
X107555000Y-112412500D01*
X107555000Y-112087500D01*
X107555782Y-112071572D01*
X107558122Y-112055798D01*
X107561997Y-112040329D01*
X107567370Y-112025314D01*
X107574188Y-112010898D01*
X107582386Y-111997220D01*
X107591886Y-111984411D01*
X107602595Y-111972595D01*
X107614411Y-111961886D01*
X107627220Y-111952386D01*
X107640898Y-111944188D01*
X107655314Y-111937370D01*
X107670329Y-111931997D01*
X107685798Y-111928122D01*
X107701572Y-111925782D01*
X107717500Y-111925000D01*
X108452500Y-111925000D01*
X108468428Y-111925782D01*
X108468428Y-111925782D01*
G37*
D11*
X108085000Y-112250000D03*
D10*
G36*
X106268428Y-111925782D02*
G01*
X106284202Y-111928122D01*
X106299671Y-111931997D01*
X106314686Y-111937370D01*
X106329102Y-111944188D01*
X106342780Y-111952386D01*
X106355589Y-111961886D01*
X106367405Y-111972595D01*
X106378114Y-111984411D01*
X106387614Y-111997220D01*
X106395812Y-112010898D01*
X106402630Y-112025314D01*
X106408003Y-112040329D01*
X106411878Y-112055798D01*
X106414218Y-112071572D01*
X106415000Y-112087500D01*
X106415000Y-112412500D01*
X106414218Y-112428428D01*
X106411878Y-112444202D01*
X106408003Y-112459671D01*
X106402630Y-112474686D01*
X106395812Y-112489102D01*
X106387614Y-112502780D01*
X106378114Y-112515589D01*
X106367405Y-112527405D01*
X106355589Y-112538114D01*
X106342780Y-112547614D01*
X106329102Y-112555812D01*
X106314686Y-112562630D01*
X106299671Y-112568003D01*
X106284202Y-112571878D01*
X106268428Y-112574218D01*
X106252500Y-112575000D01*
X105517500Y-112575000D01*
X105501572Y-112574218D01*
X105485798Y-112571878D01*
X105470329Y-112568003D01*
X105455314Y-112562630D01*
X105440898Y-112555812D01*
X105427220Y-112547614D01*
X105414411Y-112538114D01*
X105402595Y-112527405D01*
X105391886Y-112515589D01*
X105382386Y-112502780D01*
X105374188Y-112489102D01*
X105367370Y-112474686D01*
X105361997Y-112459671D01*
X105358122Y-112444202D01*
X105355782Y-112428428D01*
X105355000Y-112412500D01*
X105355000Y-112087500D01*
X105355782Y-112071572D01*
X105358122Y-112055798D01*
X105361997Y-112040329D01*
X105367370Y-112025314D01*
X105374188Y-112010898D01*
X105382386Y-111997220D01*
X105391886Y-111984411D01*
X105402595Y-111972595D01*
X105414411Y-111961886D01*
X105427220Y-111952386D01*
X105440898Y-111944188D01*
X105455314Y-111937370D01*
X105470329Y-111931997D01*
X105485798Y-111928122D01*
X105501572Y-111925782D01*
X105517500Y-111925000D01*
X106252500Y-111925000D01*
X106268428Y-111925782D01*
X106268428Y-111925782D01*
G37*
D11*
X105885000Y-112250000D03*
D10*
G36*
X106268428Y-110975782D02*
G01*
X106284202Y-110978122D01*
X106299671Y-110981997D01*
X106314686Y-110987370D01*
X106329102Y-110994188D01*
X106342780Y-111002386D01*
X106355589Y-111011886D01*
X106367405Y-111022595D01*
X106378114Y-111034411D01*
X106387614Y-111047220D01*
X106395812Y-111060898D01*
X106402630Y-111075314D01*
X106408003Y-111090329D01*
X106411878Y-111105798D01*
X106414218Y-111121572D01*
X106415000Y-111137500D01*
X106415000Y-111462500D01*
X106414218Y-111478428D01*
X106411878Y-111494202D01*
X106408003Y-111509671D01*
X106402630Y-111524686D01*
X106395812Y-111539102D01*
X106387614Y-111552780D01*
X106378114Y-111565589D01*
X106367405Y-111577405D01*
X106355589Y-111588114D01*
X106342780Y-111597614D01*
X106329102Y-111605812D01*
X106314686Y-111612630D01*
X106299671Y-111618003D01*
X106284202Y-111621878D01*
X106268428Y-111624218D01*
X106252500Y-111625000D01*
X105517500Y-111625000D01*
X105501572Y-111624218D01*
X105485798Y-111621878D01*
X105470329Y-111618003D01*
X105455314Y-111612630D01*
X105440898Y-111605812D01*
X105427220Y-111597614D01*
X105414411Y-111588114D01*
X105402595Y-111577405D01*
X105391886Y-111565589D01*
X105382386Y-111552780D01*
X105374188Y-111539102D01*
X105367370Y-111524686D01*
X105361997Y-111509671D01*
X105358122Y-111494202D01*
X105355782Y-111478428D01*
X105355000Y-111462500D01*
X105355000Y-111137500D01*
X105355782Y-111121572D01*
X105358122Y-111105798D01*
X105361997Y-111090329D01*
X105367370Y-111075314D01*
X105374188Y-111060898D01*
X105382386Y-111047220D01*
X105391886Y-111034411D01*
X105402595Y-111022595D01*
X105414411Y-111011886D01*
X105427220Y-111002386D01*
X105440898Y-110994188D01*
X105455314Y-110987370D01*
X105470329Y-110981997D01*
X105485798Y-110978122D01*
X105501572Y-110975782D01*
X105517500Y-110975000D01*
X106252500Y-110975000D01*
X106268428Y-110975782D01*
X106268428Y-110975782D01*
G37*
D11*
X105885000Y-111300000D03*
D10*
G36*
X106268428Y-110025782D02*
G01*
X106284202Y-110028122D01*
X106299671Y-110031997D01*
X106314686Y-110037370D01*
X106329102Y-110044188D01*
X106342780Y-110052386D01*
X106355589Y-110061886D01*
X106367405Y-110072595D01*
X106378114Y-110084411D01*
X106387614Y-110097220D01*
X106395812Y-110110898D01*
X106402630Y-110125314D01*
X106408003Y-110140329D01*
X106411878Y-110155798D01*
X106414218Y-110171572D01*
X106415000Y-110187500D01*
X106415000Y-110512500D01*
X106414218Y-110528428D01*
X106411878Y-110544202D01*
X106408003Y-110559671D01*
X106402630Y-110574686D01*
X106395812Y-110589102D01*
X106387614Y-110602780D01*
X106378114Y-110615589D01*
X106367405Y-110627405D01*
X106355589Y-110638114D01*
X106342780Y-110647614D01*
X106329102Y-110655812D01*
X106314686Y-110662630D01*
X106299671Y-110668003D01*
X106284202Y-110671878D01*
X106268428Y-110674218D01*
X106252500Y-110675000D01*
X105517500Y-110675000D01*
X105501572Y-110674218D01*
X105485798Y-110671878D01*
X105470329Y-110668003D01*
X105455314Y-110662630D01*
X105440898Y-110655812D01*
X105427220Y-110647614D01*
X105414411Y-110638114D01*
X105402595Y-110627405D01*
X105391886Y-110615589D01*
X105382386Y-110602780D01*
X105374188Y-110589102D01*
X105367370Y-110574686D01*
X105361997Y-110559671D01*
X105358122Y-110544202D01*
X105355782Y-110528428D01*
X105355000Y-110512500D01*
X105355000Y-110187500D01*
X105355782Y-110171572D01*
X105358122Y-110155798D01*
X105361997Y-110140329D01*
X105367370Y-110125314D01*
X105374188Y-110110898D01*
X105382386Y-110097220D01*
X105391886Y-110084411D01*
X105402595Y-110072595D01*
X105414411Y-110061886D01*
X105427220Y-110052386D01*
X105440898Y-110044188D01*
X105455314Y-110037370D01*
X105470329Y-110031997D01*
X105485798Y-110028122D01*
X105501572Y-110025782D01*
X105517500Y-110025000D01*
X106252500Y-110025000D01*
X106268428Y-110025782D01*
X106268428Y-110025782D01*
G37*
D11*
X105885000Y-110350000D03*
D13*
X84690000Y-111300000D03*
X82290000Y-112250000D03*
X82290000Y-110350000D03*
D10*
G36*
X126883428Y-110975782D02*
G01*
X126899202Y-110978122D01*
X126914671Y-110981997D01*
X126929686Y-110987370D01*
X126944102Y-110994188D01*
X126957780Y-111002386D01*
X126970589Y-111011886D01*
X126982405Y-111022595D01*
X126993114Y-111034411D01*
X127002614Y-111047220D01*
X127010812Y-111060898D01*
X127017630Y-111075314D01*
X127023003Y-111090329D01*
X127026878Y-111105798D01*
X127029218Y-111121572D01*
X127030000Y-111137500D01*
X127030000Y-111462500D01*
X127029218Y-111478428D01*
X127026878Y-111494202D01*
X127023003Y-111509671D01*
X127017630Y-111524686D01*
X127010812Y-111539102D01*
X127002614Y-111552780D01*
X126993114Y-111565589D01*
X126982405Y-111577405D01*
X126970589Y-111588114D01*
X126957780Y-111597614D01*
X126944102Y-111605812D01*
X126929686Y-111612630D01*
X126914671Y-111618003D01*
X126899202Y-111621878D01*
X126883428Y-111624218D01*
X126867500Y-111625000D01*
X126132500Y-111625000D01*
X126116572Y-111624218D01*
X126100798Y-111621878D01*
X126085329Y-111618003D01*
X126070314Y-111612630D01*
X126055898Y-111605812D01*
X126042220Y-111597614D01*
X126029411Y-111588114D01*
X126017595Y-111577405D01*
X126006886Y-111565589D01*
X125997386Y-111552780D01*
X125989188Y-111539102D01*
X125982370Y-111524686D01*
X125976997Y-111509671D01*
X125973122Y-111494202D01*
X125970782Y-111478428D01*
X125970000Y-111462500D01*
X125970000Y-111137500D01*
X125970782Y-111121572D01*
X125973122Y-111105798D01*
X125976997Y-111090329D01*
X125982370Y-111075314D01*
X125989188Y-111060898D01*
X125997386Y-111047220D01*
X126006886Y-111034411D01*
X126017595Y-111022595D01*
X126029411Y-111011886D01*
X126042220Y-111002386D01*
X126055898Y-110994188D01*
X126070314Y-110987370D01*
X126085329Y-110981997D01*
X126100798Y-110978122D01*
X126116572Y-110975782D01*
X126132500Y-110975000D01*
X126867500Y-110975000D01*
X126883428Y-110975782D01*
X126883428Y-110975782D01*
G37*
D11*
X126500000Y-111300000D03*
D10*
G36*
X126883428Y-110025782D02*
G01*
X126899202Y-110028122D01*
X126914671Y-110031997D01*
X126929686Y-110037370D01*
X126944102Y-110044188D01*
X126957780Y-110052386D01*
X126970589Y-110061886D01*
X126982405Y-110072595D01*
X126993114Y-110084411D01*
X127002614Y-110097220D01*
X127010812Y-110110898D01*
X127017630Y-110125314D01*
X127023003Y-110140329D01*
X127026878Y-110155798D01*
X127029218Y-110171572D01*
X127030000Y-110187500D01*
X127030000Y-110512500D01*
X127029218Y-110528428D01*
X127026878Y-110544202D01*
X127023003Y-110559671D01*
X127017630Y-110574686D01*
X127010812Y-110589102D01*
X127002614Y-110602780D01*
X126993114Y-110615589D01*
X126982405Y-110627405D01*
X126970589Y-110638114D01*
X126957780Y-110647614D01*
X126944102Y-110655812D01*
X126929686Y-110662630D01*
X126914671Y-110668003D01*
X126899202Y-110671878D01*
X126883428Y-110674218D01*
X126867500Y-110675000D01*
X126132500Y-110675000D01*
X126116572Y-110674218D01*
X126100798Y-110671878D01*
X126085329Y-110668003D01*
X126070314Y-110662630D01*
X126055898Y-110655812D01*
X126042220Y-110647614D01*
X126029411Y-110638114D01*
X126017595Y-110627405D01*
X126006886Y-110615589D01*
X125997386Y-110602780D01*
X125989188Y-110589102D01*
X125982370Y-110574686D01*
X125976997Y-110559671D01*
X125973122Y-110544202D01*
X125970782Y-110528428D01*
X125970000Y-110512500D01*
X125970000Y-110187500D01*
X125970782Y-110171572D01*
X125973122Y-110155798D01*
X125976997Y-110140329D01*
X125982370Y-110125314D01*
X125989188Y-110110898D01*
X125997386Y-110097220D01*
X126006886Y-110084411D01*
X126017595Y-110072595D01*
X126029411Y-110061886D01*
X126042220Y-110052386D01*
X126055898Y-110044188D01*
X126070314Y-110037370D01*
X126085329Y-110031997D01*
X126100798Y-110028122D01*
X126116572Y-110025782D01*
X126132500Y-110025000D01*
X126867500Y-110025000D01*
X126883428Y-110025782D01*
X126883428Y-110025782D01*
G37*
D11*
X126500000Y-110350000D03*
D10*
G36*
X126883428Y-111925782D02*
G01*
X126899202Y-111928122D01*
X126914671Y-111931997D01*
X126929686Y-111937370D01*
X126944102Y-111944188D01*
X126957780Y-111952386D01*
X126970589Y-111961886D01*
X126982405Y-111972595D01*
X126993114Y-111984411D01*
X127002614Y-111997220D01*
X127010812Y-112010898D01*
X127017630Y-112025314D01*
X127023003Y-112040329D01*
X127026878Y-112055798D01*
X127029218Y-112071572D01*
X127030000Y-112087500D01*
X127030000Y-112412500D01*
X127029218Y-112428428D01*
X127026878Y-112444202D01*
X127023003Y-112459671D01*
X127017630Y-112474686D01*
X127010812Y-112489102D01*
X127002614Y-112502780D01*
X126993114Y-112515589D01*
X126982405Y-112527405D01*
X126970589Y-112538114D01*
X126957780Y-112547614D01*
X126944102Y-112555812D01*
X126929686Y-112562630D01*
X126914671Y-112568003D01*
X126899202Y-112571878D01*
X126883428Y-112574218D01*
X126867500Y-112575000D01*
X126132500Y-112575000D01*
X126116572Y-112574218D01*
X126100798Y-112571878D01*
X126085329Y-112568003D01*
X126070314Y-112562630D01*
X126055898Y-112555812D01*
X126042220Y-112547614D01*
X126029411Y-112538114D01*
X126017595Y-112527405D01*
X126006886Y-112515589D01*
X125997386Y-112502780D01*
X125989188Y-112489102D01*
X125982370Y-112474686D01*
X125976997Y-112459671D01*
X125973122Y-112444202D01*
X125970782Y-112428428D01*
X125970000Y-112412500D01*
X125970000Y-112087500D01*
X125970782Y-112071572D01*
X125973122Y-112055798D01*
X125976997Y-112040329D01*
X125982370Y-112025314D01*
X125989188Y-112010898D01*
X125997386Y-111997220D01*
X126006886Y-111984411D01*
X126017595Y-111972595D01*
X126029411Y-111961886D01*
X126042220Y-111952386D01*
X126055898Y-111944188D01*
X126070314Y-111937370D01*
X126085329Y-111931997D01*
X126100798Y-111928122D01*
X126116572Y-111925782D01*
X126132500Y-111925000D01*
X126867500Y-111925000D01*
X126883428Y-111925782D01*
X126883428Y-111925782D01*
G37*
D11*
X126500000Y-112250000D03*
D10*
G36*
X124683428Y-111925782D02*
G01*
X124699202Y-111928122D01*
X124714671Y-111931997D01*
X124729686Y-111937370D01*
X124744102Y-111944188D01*
X124757780Y-111952386D01*
X124770589Y-111961886D01*
X124782405Y-111972595D01*
X124793114Y-111984411D01*
X124802614Y-111997220D01*
X124810812Y-112010898D01*
X124817630Y-112025314D01*
X124823003Y-112040329D01*
X124826878Y-112055798D01*
X124829218Y-112071572D01*
X124830000Y-112087500D01*
X124830000Y-112412500D01*
X124829218Y-112428428D01*
X124826878Y-112444202D01*
X124823003Y-112459671D01*
X124817630Y-112474686D01*
X124810812Y-112489102D01*
X124802614Y-112502780D01*
X124793114Y-112515589D01*
X124782405Y-112527405D01*
X124770589Y-112538114D01*
X124757780Y-112547614D01*
X124744102Y-112555812D01*
X124729686Y-112562630D01*
X124714671Y-112568003D01*
X124699202Y-112571878D01*
X124683428Y-112574218D01*
X124667500Y-112575000D01*
X123932500Y-112575000D01*
X123916572Y-112574218D01*
X123900798Y-112571878D01*
X123885329Y-112568003D01*
X123870314Y-112562630D01*
X123855898Y-112555812D01*
X123842220Y-112547614D01*
X123829411Y-112538114D01*
X123817595Y-112527405D01*
X123806886Y-112515589D01*
X123797386Y-112502780D01*
X123789188Y-112489102D01*
X123782370Y-112474686D01*
X123776997Y-112459671D01*
X123773122Y-112444202D01*
X123770782Y-112428428D01*
X123770000Y-112412500D01*
X123770000Y-112087500D01*
X123770782Y-112071572D01*
X123773122Y-112055798D01*
X123776997Y-112040329D01*
X123782370Y-112025314D01*
X123789188Y-112010898D01*
X123797386Y-111997220D01*
X123806886Y-111984411D01*
X123817595Y-111972595D01*
X123829411Y-111961886D01*
X123842220Y-111952386D01*
X123855898Y-111944188D01*
X123870314Y-111937370D01*
X123885329Y-111931997D01*
X123900798Y-111928122D01*
X123916572Y-111925782D01*
X123932500Y-111925000D01*
X124667500Y-111925000D01*
X124683428Y-111925782D01*
X124683428Y-111925782D01*
G37*
D11*
X124300000Y-112250000D03*
D10*
G36*
X124683428Y-110975782D02*
G01*
X124699202Y-110978122D01*
X124714671Y-110981997D01*
X124729686Y-110987370D01*
X124744102Y-110994188D01*
X124757780Y-111002386D01*
X124770589Y-111011886D01*
X124782405Y-111022595D01*
X124793114Y-111034411D01*
X124802614Y-111047220D01*
X124810812Y-111060898D01*
X124817630Y-111075314D01*
X124823003Y-111090329D01*
X124826878Y-111105798D01*
X124829218Y-111121572D01*
X124830000Y-111137500D01*
X124830000Y-111462500D01*
X124829218Y-111478428D01*
X124826878Y-111494202D01*
X124823003Y-111509671D01*
X124817630Y-111524686D01*
X124810812Y-111539102D01*
X124802614Y-111552780D01*
X124793114Y-111565589D01*
X124782405Y-111577405D01*
X124770589Y-111588114D01*
X124757780Y-111597614D01*
X124744102Y-111605812D01*
X124729686Y-111612630D01*
X124714671Y-111618003D01*
X124699202Y-111621878D01*
X124683428Y-111624218D01*
X124667500Y-111625000D01*
X123932500Y-111625000D01*
X123916572Y-111624218D01*
X123900798Y-111621878D01*
X123885329Y-111618003D01*
X123870314Y-111612630D01*
X123855898Y-111605812D01*
X123842220Y-111597614D01*
X123829411Y-111588114D01*
X123817595Y-111577405D01*
X123806886Y-111565589D01*
X123797386Y-111552780D01*
X123789188Y-111539102D01*
X123782370Y-111524686D01*
X123776997Y-111509671D01*
X123773122Y-111494202D01*
X123770782Y-111478428D01*
X123770000Y-111462500D01*
X123770000Y-111137500D01*
X123770782Y-111121572D01*
X123773122Y-111105798D01*
X123776997Y-111090329D01*
X123782370Y-111075314D01*
X123789188Y-111060898D01*
X123797386Y-111047220D01*
X123806886Y-111034411D01*
X123817595Y-111022595D01*
X123829411Y-111011886D01*
X123842220Y-111002386D01*
X123855898Y-110994188D01*
X123870314Y-110987370D01*
X123885329Y-110981997D01*
X123900798Y-110978122D01*
X123916572Y-110975782D01*
X123932500Y-110975000D01*
X124667500Y-110975000D01*
X124683428Y-110975782D01*
X124683428Y-110975782D01*
G37*
D11*
X124300000Y-111300000D03*
D10*
G36*
X124683428Y-110025782D02*
G01*
X124699202Y-110028122D01*
X124714671Y-110031997D01*
X124729686Y-110037370D01*
X124744102Y-110044188D01*
X124757780Y-110052386D01*
X124770589Y-110061886D01*
X124782405Y-110072595D01*
X124793114Y-110084411D01*
X124802614Y-110097220D01*
X124810812Y-110110898D01*
X124817630Y-110125314D01*
X124823003Y-110140329D01*
X124826878Y-110155798D01*
X124829218Y-110171572D01*
X124830000Y-110187500D01*
X124830000Y-110512500D01*
X124829218Y-110528428D01*
X124826878Y-110544202D01*
X124823003Y-110559671D01*
X124817630Y-110574686D01*
X124810812Y-110589102D01*
X124802614Y-110602780D01*
X124793114Y-110615589D01*
X124782405Y-110627405D01*
X124770589Y-110638114D01*
X124757780Y-110647614D01*
X124744102Y-110655812D01*
X124729686Y-110662630D01*
X124714671Y-110668003D01*
X124699202Y-110671878D01*
X124683428Y-110674218D01*
X124667500Y-110675000D01*
X123932500Y-110675000D01*
X123916572Y-110674218D01*
X123900798Y-110671878D01*
X123885329Y-110668003D01*
X123870314Y-110662630D01*
X123855898Y-110655812D01*
X123842220Y-110647614D01*
X123829411Y-110638114D01*
X123817595Y-110627405D01*
X123806886Y-110615589D01*
X123797386Y-110602780D01*
X123789188Y-110589102D01*
X123782370Y-110574686D01*
X123776997Y-110559671D01*
X123773122Y-110544202D01*
X123770782Y-110528428D01*
X123770000Y-110512500D01*
X123770000Y-110187500D01*
X123770782Y-110171572D01*
X123773122Y-110155798D01*
X123776997Y-110140329D01*
X123782370Y-110125314D01*
X123789188Y-110110898D01*
X123797386Y-110097220D01*
X123806886Y-110084411D01*
X123817595Y-110072595D01*
X123829411Y-110061886D01*
X123842220Y-110052386D01*
X123855898Y-110044188D01*
X123870314Y-110037370D01*
X123885329Y-110031997D01*
X123900798Y-110028122D01*
X123916572Y-110025782D01*
X123932500Y-110025000D01*
X124667500Y-110025000D01*
X124683428Y-110025782D01*
X124683428Y-110025782D01*
G37*
D11*
X124300000Y-110350000D03*
D10*
G36*
X76083428Y-110975782D02*
G01*
X76099202Y-110978122D01*
X76114671Y-110981997D01*
X76129686Y-110987370D01*
X76144102Y-110994188D01*
X76157780Y-111002386D01*
X76170589Y-111011886D01*
X76182405Y-111022595D01*
X76193114Y-111034411D01*
X76202614Y-111047220D01*
X76210812Y-111060898D01*
X76217630Y-111075314D01*
X76223003Y-111090329D01*
X76226878Y-111105798D01*
X76229218Y-111121572D01*
X76230000Y-111137500D01*
X76230000Y-111462500D01*
X76229218Y-111478428D01*
X76226878Y-111494202D01*
X76223003Y-111509671D01*
X76217630Y-111524686D01*
X76210812Y-111539102D01*
X76202614Y-111552780D01*
X76193114Y-111565589D01*
X76182405Y-111577405D01*
X76170589Y-111588114D01*
X76157780Y-111597614D01*
X76144102Y-111605812D01*
X76129686Y-111612630D01*
X76114671Y-111618003D01*
X76099202Y-111621878D01*
X76083428Y-111624218D01*
X76067500Y-111625000D01*
X75332500Y-111625000D01*
X75316572Y-111624218D01*
X75300798Y-111621878D01*
X75285329Y-111618003D01*
X75270314Y-111612630D01*
X75255898Y-111605812D01*
X75242220Y-111597614D01*
X75229411Y-111588114D01*
X75217595Y-111577405D01*
X75206886Y-111565589D01*
X75197386Y-111552780D01*
X75189188Y-111539102D01*
X75182370Y-111524686D01*
X75176997Y-111509671D01*
X75173122Y-111494202D01*
X75170782Y-111478428D01*
X75170000Y-111462500D01*
X75170000Y-111137500D01*
X75170782Y-111121572D01*
X75173122Y-111105798D01*
X75176997Y-111090329D01*
X75182370Y-111075314D01*
X75189188Y-111060898D01*
X75197386Y-111047220D01*
X75206886Y-111034411D01*
X75217595Y-111022595D01*
X75229411Y-111011886D01*
X75242220Y-111002386D01*
X75255898Y-110994188D01*
X75270314Y-110987370D01*
X75285329Y-110981997D01*
X75300798Y-110978122D01*
X75316572Y-110975782D01*
X75332500Y-110975000D01*
X76067500Y-110975000D01*
X76083428Y-110975782D01*
X76083428Y-110975782D01*
G37*
D11*
X75700000Y-111300000D03*
D10*
G36*
X76083428Y-110025782D02*
G01*
X76099202Y-110028122D01*
X76114671Y-110031997D01*
X76129686Y-110037370D01*
X76144102Y-110044188D01*
X76157780Y-110052386D01*
X76170589Y-110061886D01*
X76182405Y-110072595D01*
X76193114Y-110084411D01*
X76202614Y-110097220D01*
X76210812Y-110110898D01*
X76217630Y-110125314D01*
X76223003Y-110140329D01*
X76226878Y-110155798D01*
X76229218Y-110171572D01*
X76230000Y-110187500D01*
X76230000Y-110512500D01*
X76229218Y-110528428D01*
X76226878Y-110544202D01*
X76223003Y-110559671D01*
X76217630Y-110574686D01*
X76210812Y-110589102D01*
X76202614Y-110602780D01*
X76193114Y-110615589D01*
X76182405Y-110627405D01*
X76170589Y-110638114D01*
X76157780Y-110647614D01*
X76144102Y-110655812D01*
X76129686Y-110662630D01*
X76114671Y-110668003D01*
X76099202Y-110671878D01*
X76083428Y-110674218D01*
X76067500Y-110675000D01*
X75332500Y-110675000D01*
X75316572Y-110674218D01*
X75300798Y-110671878D01*
X75285329Y-110668003D01*
X75270314Y-110662630D01*
X75255898Y-110655812D01*
X75242220Y-110647614D01*
X75229411Y-110638114D01*
X75217595Y-110627405D01*
X75206886Y-110615589D01*
X75197386Y-110602780D01*
X75189188Y-110589102D01*
X75182370Y-110574686D01*
X75176997Y-110559671D01*
X75173122Y-110544202D01*
X75170782Y-110528428D01*
X75170000Y-110512500D01*
X75170000Y-110187500D01*
X75170782Y-110171572D01*
X75173122Y-110155798D01*
X75176997Y-110140329D01*
X75182370Y-110125314D01*
X75189188Y-110110898D01*
X75197386Y-110097220D01*
X75206886Y-110084411D01*
X75217595Y-110072595D01*
X75229411Y-110061886D01*
X75242220Y-110052386D01*
X75255898Y-110044188D01*
X75270314Y-110037370D01*
X75285329Y-110031997D01*
X75300798Y-110028122D01*
X75316572Y-110025782D01*
X75332500Y-110025000D01*
X76067500Y-110025000D01*
X76083428Y-110025782D01*
X76083428Y-110025782D01*
G37*
D11*
X75700000Y-110350000D03*
D10*
G36*
X76083428Y-111925782D02*
G01*
X76099202Y-111928122D01*
X76114671Y-111931997D01*
X76129686Y-111937370D01*
X76144102Y-111944188D01*
X76157780Y-111952386D01*
X76170589Y-111961886D01*
X76182405Y-111972595D01*
X76193114Y-111984411D01*
X76202614Y-111997220D01*
X76210812Y-112010898D01*
X76217630Y-112025314D01*
X76223003Y-112040329D01*
X76226878Y-112055798D01*
X76229218Y-112071572D01*
X76230000Y-112087500D01*
X76230000Y-112412500D01*
X76229218Y-112428428D01*
X76226878Y-112444202D01*
X76223003Y-112459671D01*
X76217630Y-112474686D01*
X76210812Y-112489102D01*
X76202614Y-112502780D01*
X76193114Y-112515589D01*
X76182405Y-112527405D01*
X76170589Y-112538114D01*
X76157780Y-112547614D01*
X76144102Y-112555812D01*
X76129686Y-112562630D01*
X76114671Y-112568003D01*
X76099202Y-112571878D01*
X76083428Y-112574218D01*
X76067500Y-112575000D01*
X75332500Y-112575000D01*
X75316572Y-112574218D01*
X75300798Y-112571878D01*
X75285329Y-112568003D01*
X75270314Y-112562630D01*
X75255898Y-112555812D01*
X75242220Y-112547614D01*
X75229411Y-112538114D01*
X75217595Y-112527405D01*
X75206886Y-112515589D01*
X75197386Y-112502780D01*
X75189188Y-112489102D01*
X75182370Y-112474686D01*
X75176997Y-112459671D01*
X75173122Y-112444202D01*
X75170782Y-112428428D01*
X75170000Y-112412500D01*
X75170000Y-112087500D01*
X75170782Y-112071572D01*
X75173122Y-112055798D01*
X75176997Y-112040329D01*
X75182370Y-112025314D01*
X75189188Y-112010898D01*
X75197386Y-111997220D01*
X75206886Y-111984411D01*
X75217595Y-111972595D01*
X75229411Y-111961886D01*
X75242220Y-111952386D01*
X75255898Y-111944188D01*
X75270314Y-111937370D01*
X75285329Y-111931997D01*
X75300798Y-111928122D01*
X75316572Y-111925782D01*
X75332500Y-111925000D01*
X76067500Y-111925000D01*
X76083428Y-111925782D01*
X76083428Y-111925782D01*
G37*
D11*
X75700000Y-112250000D03*
D10*
G36*
X73883428Y-111925782D02*
G01*
X73899202Y-111928122D01*
X73914671Y-111931997D01*
X73929686Y-111937370D01*
X73944102Y-111944188D01*
X73957780Y-111952386D01*
X73970589Y-111961886D01*
X73982405Y-111972595D01*
X73993114Y-111984411D01*
X74002614Y-111997220D01*
X74010812Y-112010898D01*
X74017630Y-112025314D01*
X74023003Y-112040329D01*
X74026878Y-112055798D01*
X74029218Y-112071572D01*
X74030000Y-112087500D01*
X74030000Y-112412500D01*
X74029218Y-112428428D01*
X74026878Y-112444202D01*
X74023003Y-112459671D01*
X74017630Y-112474686D01*
X74010812Y-112489102D01*
X74002614Y-112502780D01*
X73993114Y-112515589D01*
X73982405Y-112527405D01*
X73970589Y-112538114D01*
X73957780Y-112547614D01*
X73944102Y-112555812D01*
X73929686Y-112562630D01*
X73914671Y-112568003D01*
X73899202Y-112571878D01*
X73883428Y-112574218D01*
X73867500Y-112575000D01*
X73132500Y-112575000D01*
X73116572Y-112574218D01*
X73100798Y-112571878D01*
X73085329Y-112568003D01*
X73070314Y-112562630D01*
X73055898Y-112555812D01*
X73042220Y-112547614D01*
X73029411Y-112538114D01*
X73017595Y-112527405D01*
X73006886Y-112515589D01*
X72997386Y-112502780D01*
X72989188Y-112489102D01*
X72982370Y-112474686D01*
X72976997Y-112459671D01*
X72973122Y-112444202D01*
X72970782Y-112428428D01*
X72970000Y-112412500D01*
X72970000Y-112087500D01*
X72970782Y-112071572D01*
X72973122Y-112055798D01*
X72976997Y-112040329D01*
X72982370Y-112025314D01*
X72989188Y-112010898D01*
X72997386Y-111997220D01*
X73006886Y-111984411D01*
X73017595Y-111972595D01*
X73029411Y-111961886D01*
X73042220Y-111952386D01*
X73055898Y-111944188D01*
X73070314Y-111937370D01*
X73085329Y-111931997D01*
X73100798Y-111928122D01*
X73116572Y-111925782D01*
X73132500Y-111925000D01*
X73867500Y-111925000D01*
X73883428Y-111925782D01*
X73883428Y-111925782D01*
G37*
D11*
X73500000Y-112250000D03*
D10*
G36*
X73883428Y-110975782D02*
G01*
X73899202Y-110978122D01*
X73914671Y-110981997D01*
X73929686Y-110987370D01*
X73944102Y-110994188D01*
X73957780Y-111002386D01*
X73970589Y-111011886D01*
X73982405Y-111022595D01*
X73993114Y-111034411D01*
X74002614Y-111047220D01*
X74010812Y-111060898D01*
X74017630Y-111075314D01*
X74023003Y-111090329D01*
X74026878Y-111105798D01*
X74029218Y-111121572D01*
X74030000Y-111137500D01*
X74030000Y-111462500D01*
X74029218Y-111478428D01*
X74026878Y-111494202D01*
X74023003Y-111509671D01*
X74017630Y-111524686D01*
X74010812Y-111539102D01*
X74002614Y-111552780D01*
X73993114Y-111565589D01*
X73982405Y-111577405D01*
X73970589Y-111588114D01*
X73957780Y-111597614D01*
X73944102Y-111605812D01*
X73929686Y-111612630D01*
X73914671Y-111618003D01*
X73899202Y-111621878D01*
X73883428Y-111624218D01*
X73867500Y-111625000D01*
X73132500Y-111625000D01*
X73116572Y-111624218D01*
X73100798Y-111621878D01*
X73085329Y-111618003D01*
X73070314Y-111612630D01*
X73055898Y-111605812D01*
X73042220Y-111597614D01*
X73029411Y-111588114D01*
X73017595Y-111577405D01*
X73006886Y-111565589D01*
X72997386Y-111552780D01*
X72989188Y-111539102D01*
X72982370Y-111524686D01*
X72976997Y-111509671D01*
X72973122Y-111494202D01*
X72970782Y-111478428D01*
X72970000Y-111462500D01*
X72970000Y-111137500D01*
X72970782Y-111121572D01*
X72973122Y-111105798D01*
X72976997Y-111090329D01*
X72982370Y-111075314D01*
X72989188Y-111060898D01*
X72997386Y-111047220D01*
X73006886Y-111034411D01*
X73017595Y-111022595D01*
X73029411Y-111011886D01*
X73042220Y-111002386D01*
X73055898Y-110994188D01*
X73070314Y-110987370D01*
X73085329Y-110981997D01*
X73100798Y-110978122D01*
X73116572Y-110975782D01*
X73132500Y-110975000D01*
X73867500Y-110975000D01*
X73883428Y-110975782D01*
X73883428Y-110975782D01*
G37*
D11*
X73500000Y-111300000D03*
D10*
G36*
X73883428Y-110025782D02*
G01*
X73899202Y-110028122D01*
X73914671Y-110031997D01*
X73929686Y-110037370D01*
X73944102Y-110044188D01*
X73957780Y-110052386D01*
X73970589Y-110061886D01*
X73982405Y-110072595D01*
X73993114Y-110084411D01*
X74002614Y-110097220D01*
X74010812Y-110110898D01*
X74017630Y-110125314D01*
X74023003Y-110140329D01*
X74026878Y-110155798D01*
X74029218Y-110171572D01*
X74030000Y-110187500D01*
X74030000Y-110512500D01*
X74029218Y-110528428D01*
X74026878Y-110544202D01*
X74023003Y-110559671D01*
X74017630Y-110574686D01*
X74010812Y-110589102D01*
X74002614Y-110602780D01*
X73993114Y-110615589D01*
X73982405Y-110627405D01*
X73970589Y-110638114D01*
X73957780Y-110647614D01*
X73944102Y-110655812D01*
X73929686Y-110662630D01*
X73914671Y-110668003D01*
X73899202Y-110671878D01*
X73883428Y-110674218D01*
X73867500Y-110675000D01*
X73132500Y-110675000D01*
X73116572Y-110674218D01*
X73100798Y-110671878D01*
X73085329Y-110668003D01*
X73070314Y-110662630D01*
X73055898Y-110655812D01*
X73042220Y-110647614D01*
X73029411Y-110638114D01*
X73017595Y-110627405D01*
X73006886Y-110615589D01*
X72997386Y-110602780D01*
X72989188Y-110589102D01*
X72982370Y-110574686D01*
X72976997Y-110559671D01*
X72973122Y-110544202D01*
X72970782Y-110528428D01*
X72970000Y-110512500D01*
X72970000Y-110187500D01*
X72970782Y-110171572D01*
X72973122Y-110155798D01*
X72976997Y-110140329D01*
X72982370Y-110125314D01*
X72989188Y-110110898D01*
X72997386Y-110097220D01*
X73006886Y-110084411D01*
X73017595Y-110072595D01*
X73029411Y-110061886D01*
X73042220Y-110052386D01*
X73055898Y-110044188D01*
X73070314Y-110037370D01*
X73085329Y-110031997D01*
X73100798Y-110028122D01*
X73116572Y-110025782D01*
X73132500Y-110025000D01*
X73867500Y-110025000D01*
X73883428Y-110025782D01*
X73883428Y-110025782D01*
G37*
D11*
X73500000Y-110350000D03*
D10*
G36*
X110640142Y-109876174D02*
G01*
X110663803Y-109879684D01*
X110687007Y-109885496D01*
X110709529Y-109893554D01*
X110731153Y-109903782D01*
X110751670Y-109916079D01*
X110770883Y-109930329D01*
X110788607Y-109946393D01*
X110804671Y-109964117D01*
X110818921Y-109983330D01*
X110831218Y-110003847D01*
X110841446Y-110025471D01*
X110849504Y-110047993D01*
X110855316Y-110071197D01*
X110858826Y-110094858D01*
X110860000Y-110118750D01*
X110860000Y-110606250D01*
X110858826Y-110630142D01*
X110855316Y-110653803D01*
X110849504Y-110677007D01*
X110841446Y-110699529D01*
X110831218Y-110721153D01*
X110818921Y-110741670D01*
X110804671Y-110760883D01*
X110788607Y-110778607D01*
X110770883Y-110794671D01*
X110751670Y-110808921D01*
X110731153Y-110821218D01*
X110709529Y-110831446D01*
X110687007Y-110839504D01*
X110663803Y-110845316D01*
X110640142Y-110848826D01*
X110616250Y-110850000D01*
X109703750Y-110850000D01*
X109679858Y-110848826D01*
X109656197Y-110845316D01*
X109632993Y-110839504D01*
X109610471Y-110831446D01*
X109588847Y-110821218D01*
X109568330Y-110808921D01*
X109549117Y-110794671D01*
X109531393Y-110778607D01*
X109515329Y-110760883D01*
X109501079Y-110741670D01*
X109488782Y-110721153D01*
X109478554Y-110699529D01*
X109470496Y-110677007D01*
X109464684Y-110653803D01*
X109461174Y-110630142D01*
X109460000Y-110606250D01*
X109460000Y-110118750D01*
X109461174Y-110094858D01*
X109464684Y-110071197D01*
X109470496Y-110047993D01*
X109478554Y-110025471D01*
X109488782Y-110003847D01*
X109501079Y-109983330D01*
X109515329Y-109964117D01*
X109531393Y-109946393D01*
X109549117Y-109930329D01*
X109568330Y-109916079D01*
X109588847Y-109903782D01*
X109610471Y-109893554D01*
X109632993Y-109885496D01*
X109656197Y-109879684D01*
X109679858Y-109876174D01*
X109703750Y-109875000D01*
X110616250Y-109875000D01*
X110640142Y-109876174D01*
X110640142Y-109876174D01*
G37*
D12*
X110160000Y-110362500D03*
D10*
G36*
X110640142Y-111751174D02*
G01*
X110663803Y-111754684D01*
X110687007Y-111760496D01*
X110709529Y-111768554D01*
X110731153Y-111778782D01*
X110751670Y-111791079D01*
X110770883Y-111805329D01*
X110788607Y-111821393D01*
X110804671Y-111839117D01*
X110818921Y-111858330D01*
X110831218Y-111878847D01*
X110841446Y-111900471D01*
X110849504Y-111922993D01*
X110855316Y-111946197D01*
X110858826Y-111969858D01*
X110860000Y-111993750D01*
X110860000Y-112481250D01*
X110858826Y-112505142D01*
X110855316Y-112528803D01*
X110849504Y-112552007D01*
X110841446Y-112574529D01*
X110831218Y-112596153D01*
X110818921Y-112616670D01*
X110804671Y-112635883D01*
X110788607Y-112653607D01*
X110770883Y-112669671D01*
X110751670Y-112683921D01*
X110731153Y-112696218D01*
X110709529Y-112706446D01*
X110687007Y-112714504D01*
X110663803Y-112720316D01*
X110640142Y-112723826D01*
X110616250Y-112725000D01*
X109703750Y-112725000D01*
X109679858Y-112723826D01*
X109656197Y-112720316D01*
X109632993Y-112714504D01*
X109610471Y-112706446D01*
X109588847Y-112696218D01*
X109568330Y-112683921D01*
X109549117Y-112669671D01*
X109531393Y-112653607D01*
X109515329Y-112635883D01*
X109501079Y-112616670D01*
X109488782Y-112596153D01*
X109478554Y-112574529D01*
X109470496Y-112552007D01*
X109464684Y-112528803D01*
X109461174Y-112505142D01*
X109460000Y-112481250D01*
X109460000Y-111993750D01*
X109461174Y-111969858D01*
X109464684Y-111946197D01*
X109470496Y-111922993D01*
X109478554Y-111900471D01*
X109488782Y-111878847D01*
X109501079Y-111858330D01*
X109515329Y-111839117D01*
X109531393Y-111821393D01*
X109549117Y-111805329D01*
X109568330Y-111791079D01*
X109588847Y-111778782D01*
X109610471Y-111768554D01*
X109632993Y-111760496D01*
X109656197Y-111754684D01*
X109679858Y-111751174D01*
X109703750Y-111750000D01*
X110616250Y-111750000D01*
X110640142Y-111751174D01*
X110640142Y-111751174D01*
G37*
D12*
X110160000Y-112237500D03*
D10*
G36*
X96670142Y-109876174D02*
G01*
X96693803Y-109879684D01*
X96717007Y-109885496D01*
X96739529Y-109893554D01*
X96761153Y-109903782D01*
X96781670Y-109916079D01*
X96800883Y-109930329D01*
X96818607Y-109946393D01*
X96834671Y-109964117D01*
X96848921Y-109983330D01*
X96861218Y-110003847D01*
X96871446Y-110025471D01*
X96879504Y-110047993D01*
X96885316Y-110071197D01*
X96888826Y-110094858D01*
X96890000Y-110118750D01*
X96890000Y-110606250D01*
X96888826Y-110630142D01*
X96885316Y-110653803D01*
X96879504Y-110677007D01*
X96871446Y-110699529D01*
X96861218Y-110721153D01*
X96848921Y-110741670D01*
X96834671Y-110760883D01*
X96818607Y-110778607D01*
X96800883Y-110794671D01*
X96781670Y-110808921D01*
X96761153Y-110821218D01*
X96739529Y-110831446D01*
X96717007Y-110839504D01*
X96693803Y-110845316D01*
X96670142Y-110848826D01*
X96646250Y-110850000D01*
X95733750Y-110850000D01*
X95709858Y-110848826D01*
X95686197Y-110845316D01*
X95662993Y-110839504D01*
X95640471Y-110831446D01*
X95618847Y-110821218D01*
X95598330Y-110808921D01*
X95579117Y-110794671D01*
X95561393Y-110778607D01*
X95545329Y-110760883D01*
X95531079Y-110741670D01*
X95518782Y-110721153D01*
X95508554Y-110699529D01*
X95500496Y-110677007D01*
X95494684Y-110653803D01*
X95491174Y-110630142D01*
X95490000Y-110606250D01*
X95490000Y-110118750D01*
X95491174Y-110094858D01*
X95494684Y-110071197D01*
X95500496Y-110047993D01*
X95508554Y-110025471D01*
X95518782Y-110003847D01*
X95531079Y-109983330D01*
X95545329Y-109964117D01*
X95561393Y-109946393D01*
X95579117Y-109930329D01*
X95598330Y-109916079D01*
X95618847Y-109903782D01*
X95640471Y-109893554D01*
X95662993Y-109885496D01*
X95686197Y-109879684D01*
X95709858Y-109876174D01*
X95733750Y-109875000D01*
X96646250Y-109875000D01*
X96670142Y-109876174D01*
X96670142Y-109876174D01*
G37*
D12*
X96190000Y-110362500D03*
D10*
G36*
X96670142Y-111751174D02*
G01*
X96693803Y-111754684D01*
X96717007Y-111760496D01*
X96739529Y-111768554D01*
X96761153Y-111778782D01*
X96781670Y-111791079D01*
X96800883Y-111805329D01*
X96818607Y-111821393D01*
X96834671Y-111839117D01*
X96848921Y-111858330D01*
X96861218Y-111878847D01*
X96871446Y-111900471D01*
X96879504Y-111922993D01*
X96885316Y-111946197D01*
X96888826Y-111969858D01*
X96890000Y-111993750D01*
X96890000Y-112481250D01*
X96888826Y-112505142D01*
X96885316Y-112528803D01*
X96879504Y-112552007D01*
X96871446Y-112574529D01*
X96861218Y-112596153D01*
X96848921Y-112616670D01*
X96834671Y-112635883D01*
X96818607Y-112653607D01*
X96800883Y-112669671D01*
X96781670Y-112683921D01*
X96761153Y-112696218D01*
X96739529Y-112706446D01*
X96717007Y-112714504D01*
X96693803Y-112720316D01*
X96670142Y-112723826D01*
X96646250Y-112725000D01*
X95733750Y-112725000D01*
X95709858Y-112723826D01*
X95686197Y-112720316D01*
X95662993Y-112714504D01*
X95640471Y-112706446D01*
X95618847Y-112696218D01*
X95598330Y-112683921D01*
X95579117Y-112669671D01*
X95561393Y-112653607D01*
X95545329Y-112635883D01*
X95531079Y-112616670D01*
X95518782Y-112596153D01*
X95508554Y-112574529D01*
X95500496Y-112552007D01*
X95494684Y-112528803D01*
X95491174Y-112505142D01*
X95490000Y-112481250D01*
X95490000Y-111993750D01*
X95491174Y-111969858D01*
X95494684Y-111946197D01*
X95500496Y-111922993D01*
X95508554Y-111900471D01*
X95518782Y-111878847D01*
X95531079Y-111858330D01*
X95545329Y-111839117D01*
X95561393Y-111821393D01*
X95579117Y-111805329D01*
X95598330Y-111791079D01*
X95618847Y-111778782D01*
X95640471Y-111768554D01*
X95662993Y-111760496D01*
X95686197Y-111754684D01*
X95709858Y-111751174D01*
X95733750Y-111750000D01*
X96646250Y-111750000D01*
X96670142Y-111751174D01*
X96670142Y-111751174D01*
G37*
D12*
X96190000Y-112237500D03*
D10*
G36*
X102385142Y-109876174D02*
G01*
X102408803Y-109879684D01*
X102432007Y-109885496D01*
X102454529Y-109893554D01*
X102476153Y-109903782D01*
X102496670Y-109916079D01*
X102515883Y-109930329D01*
X102533607Y-109946393D01*
X102549671Y-109964117D01*
X102563921Y-109983330D01*
X102576218Y-110003847D01*
X102586446Y-110025471D01*
X102594504Y-110047993D01*
X102600316Y-110071197D01*
X102603826Y-110094858D01*
X102605000Y-110118750D01*
X102605000Y-110606250D01*
X102603826Y-110630142D01*
X102600316Y-110653803D01*
X102594504Y-110677007D01*
X102586446Y-110699529D01*
X102576218Y-110721153D01*
X102563921Y-110741670D01*
X102549671Y-110760883D01*
X102533607Y-110778607D01*
X102515883Y-110794671D01*
X102496670Y-110808921D01*
X102476153Y-110821218D01*
X102454529Y-110831446D01*
X102432007Y-110839504D01*
X102408803Y-110845316D01*
X102385142Y-110848826D01*
X102361250Y-110850000D01*
X101448750Y-110850000D01*
X101424858Y-110848826D01*
X101401197Y-110845316D01*
X101377993Y-110839504D01*
X101355471Y-110831446D01*
X101333847Y-110821218D01*
X101313330Y-110808921D01*
X101294117Y-110794671D01*
X101276393Y-110778607D01*
X101260329Y-110760883D01*
X101246079Y-110741670D01*
X101233782Y-110721153D01*
X101223554Y-110699529D01*
X101215496Y-110677007D01*
X101209684Y-110653803D01*
X101206174Y-110630142D01*
X101205000Y-110606250D01*
X101205000Y-110118750D01*
X101206174Y-110094858D01*
X101209684Y-110071197D01*
X101215496Y-110047993D01*
X101223554Y-110025471D01*
X101233782Y-110003847D01*
X101246079Y-109983330D01*
X101260329Y-109964117D01*
X101276393Y-109946393D01*
X101294117Y-109930329D01*
X101313330Y-109916079D01*
X101333847Y-109903782D01*
X101355471Y-109893554D01*
X101377993Y-109885496D01*
X101401197Y-109879684D01*
X101424858Y-109876174D01*
X101448750Y-109875000D01*
X102361250Y-109875000D01*
X102385142Y-109876174D01*
X102385142Y-109876174D01*
G37*
D12*
X101905000Y-110362500D03*
D10*
G36*
X102385142Y-111751174D02*
G01*
X102408803Y-111754684D01*
X102432007Y-111760496D01*
X102454529Y-111768554D01*
X102476153Y-111778782D01*
X102496670Y-111791079D01*
X102515883Y-111805329D01*
X102533607Y-111821393D01*
X102549671Y-111839117D01*
X102563921Y-111858330D01*
X102576218Y-111878847D01*
X102586446Y-111900471D01*
X102594504Y-111922993D01*
X102600316Y-111946197D01*
X102603826Y-111969858D01*
X102605000Y-111993750D01*
X102605000Y-112481250D01*
X102603826Y-112505142D01*
X102600316Y-112528803D01*
X102594504Y-112552007D01*
X102586446Y-112574529D01*
X102576218Y-112596153D01*
X102563921Y-112616670D01*
X102549671Y-112635883D01*
X102533607Y-112653607D01*
X102515883Y-112669671D01*
X102496670Y-112683921D01*
X102476153Y-112696218D01*
X102454529Y-112706446D01*
X102432007Y-112714504D01*
X102408803Y-112720316D01*
X102385142Y-112723826D01*
X102361250Y-112725000D01*
X101448750Y-112725000D01*
X101424858Y-112723826D01*
X101401197Y-112720316D01*
X101377993Y-112714504D01*
X101355471Y-112706446D01*
X101333847Y-112696218D01*
X101313330Y-112683921D01*
X101294117Y-112669671D01*
X101276393Y-112653607D01*
X101260329Y-112635883D01*
X101246079Y-112616670D01*
X101233782Y-112596153D01*
X101223554Y-112574529D01*
X101215496Y-112552007D01*
X101209684Y-112528803D01*
X101206174Y-112505142D01*
X101205000Y-112481250D01*
X101205000Y-111993750D01*
X101206174Y-111969858D01*
X101209684Y-111946197D01*
X101215496Y-111922993D01*
X101223554Y-111900471D01*
X101233782Y-111878847D01*
X101246079Y-111858330D01*
X101260329Y-111839117D01*
X101276393Y-111821393D01*
X101294117Y-111805329D01*
X101313330Y-111791079D01*
X101333847Y-111778782D01*
X101355471Y-111768554D01*
X101377993Y-111760496D01*
X101401197Y-111754684D01*
X101424858Y-111751174D01*
X101448750Y-111750000D01*
X102361250Y-111750000D01*
X102385142Y-111751174D01*
X102385142Y-111751174D01*
G37*
D12*
X101905000Y-112237500D03*
D10*
G36*
X94765142Y-111751174D02*
G01*
X94788803Y-111754684D01*
X94812007Y-111760496D01*
X94834529Y-111768554D01*
X94856153Y-111778782D01*
X94876670Y-111791079D01*
X94895883Y-111805329D01*
X94913607Y-111821393D01*
X94929671Y-111839117D01*
X94943921Y-111858330D01*
X94956218Y-111878847D01*
X94966446Y-111900471D01*
X94974504Y-111922993D01*
X94980316Y-111946197D01*
X94983826Y-111969858D01*
X94985000Y-111993750D01*
X94985000Y-112481250D01*
X94983826Y-112505142D01*
X94980316Y-112528803D01*
X94974504Y-112552007D01*
X94966446Y-112574529D01*
X94956218Y-112596153D01*
X94943921Y-112616670D01*
X94929671Y-112635883D01*
X94913607Y-112653607D01*
X94895883Y-112669671D01*
X94876670Y-112683921D01*
X94856153Y-112696218D01*
X94834529Y-112706446D01*
X94812007Y-112714504D01*
X94788803Y-112720316D01*
X94765142Y-112723826D01*
X94741250Y-112725000D01*
X93828750Y-112725000D01*
X93804858Y-112723826D01*
X93781197Y-112720316D01*
X93757993Y-112714504D01*
X93735471Y-112706446D01*
X93713847Y-112696218D01*
X93693330Y-112683921D01*
X93674117Y-112669671D01*
X93656393Y-112653607D01*
X93640329Y-112635883D01*
X93626079Y-112616670D01*
X93613782Y-112596153D01*
X93603554Y-112574529D01*
X93595496Y-112552007D01*
X93589684Y-112528803D01*
X93586174Y-112505142D01*
X93585000Y-112481250D01*
X93585000Y-111993750D01*
X93586174Y-111969858D01*
X93589684Y-111946197D01*
X93595496Y-111922993D01*
X93603554Y-111900471D01*
X93613782Y-111878847D01*
X93626079Y-111858330D01*
X93640329Y-111839117D01*
X93656393Y-111821393D01*
X93674117Y-111805329D01*
X93693330Y-111791079D01*
X93713847Y-111778782D01*
X93735471Y-111768554D01*
X93757993Y-111760496D01*
X93781197Y-111754684D01*
X93804858Y-111751174D01*
X93828750Y-111750000D01*
X94741250Y-111750000D01*
X94765142Y-111751174D01*
X94765142Y-111751174D01*
G37*
D12*
X94285000Y-112237500D03*
D10*
G36*
X94765142Y-109876174D02*
G01*
X94788803Y-109879684D01*
X94812007Y-109885496D01*
X94834529Y-109893554D01*
X94856153Y-109903782D01*
X94876670Y-109916079D01*
X94895883Y-109930329D01*
X94913607Y-109946393D01*
X94929671Y-109964117D01*
X94943921Y-109983330D01*
X94956218Y-110003847D01*
X94966446Y-110025471D01*
X94974504Y-110047993D01*
X94980316Y-110071197D01*
X94983826Y-110094858D01*
X94985000Y-110118750D01*
X94985000Y-110606250D01*
X94983826Y-110630142D01*
X94980316Y-110653803D01*
X94974504Y-110677007D01*
X94966446Y-110699529D01*
X94956218Y-110721153D01*
X94943921Y-110741670D01*
X94929671Y-110760883D01*
X94913607Y-110778607D01*
X94895883Y-110794671D01*
X94876670Y-110808921D01*
X94856153Y-110821218D01*
X94834529Y-110831446D01*
X94812007Y-110839504D01*
X94788803Y-110845316D01*
X94765142Y-110848826D01*
X94741250Y-110850000D01*
X93828750Y-110850000D01*
X93804858Y-110848826D01*
X93781197Y-110845316D01*
X93757993Y-110839504D01*
X93735471Y-110831446D01*
X93713847Y-110821218D01*
X93693330Y-110808921D01*
X93674117Y-110794671D01*
X93656393Y-110778607D01*
X93640329Y-110760883D01*
X93626079Y-110741670D01*
X93613782Y-110721153D01*
X93603554Y-110699529D01*
X93595496Y-110677007D01*
X93589684Y-110653803D01*
X93586174Y-110630142D01*
X93585000Y-110606250D01*
X93585000Y-110118750D01*
X93586174Y-110094858D01*
X93589684Y-110071197D01*
X93595496Y-110047993D01*
X93603554Y-110025471D01*
X93613782Y-110003847D01*
X93626079Y-109983330D01*
X93640329Y-109964117D01*
X93656393Y-109946393D01*
X93674117Y-109930329D01*
X93693330Y-109916079D01*
X93713847Y-109903782D01*
X93735471Y-109893554D01*
X93757993Y-109885496D01*
X93781197Y-109879684D01*
X93804858Y-109876174D01*
X93828750Y-109875000D01*
X94741250Y-109875000D01*
X94765142Y-109876174D01*
X94765142Y-109876174D01*
G37*
D12*
X94285000Y-110362500D03*
D10*
G36*
X100480142Y-111751174D02*
G01*
X100503803Y-111754684D01*
X100527007Y-111760496D01*
X100549529Y-111768554D01*
X100571153Y-111778782D01*
X100591670Y-111791079D01*
X100610883Y-111805329D01*
X100628607Y-111821393D01*
X100644671Y-111839117D01*
X100658921Y-111858330D01*
X100671218Y-111878847D01*
X100681446Y-111900471D01*
X100689504Y-111922993D01*
X100695316Y-111946197D01*
X100698826Y-111969858D01*
X100700000Y-111993750D01*
X100700000Y-112481250D01*
X100698826Y-112505142D01*
X100695316Y-112528803D01*
X100689504Y-112552007D01*
X100681446Y-112574529D01*
X100671218Y-112596153D01*
X100658921Y-112616670D01*
X100644671Y-112635883D01*
X100628607Y-112653607D01*
X100610883Y-112669671D01*
X100591670Y-112683921D01*
X100571153Y-112696218D01*
X100549529Y-112706446D01*
X100527007Y-112714504D01*
X100503803Y-112720316D01*
X100480142Y-112723826D01*
X100456250Y-112725000D01*
X99543750Y-112725000D01*
X99519858Y-112723826D01*
X99496197Y-112720316D01*
X99472993Y-112714504D01*
X99450471Y-112706446D01*
X99428847Y-112696218D01*
X99408330Y-112683921D01*
X99389117Y-112669671D01*
X99371393Y-112653607D01*
X99355329Y-112635883D01*
X99341079Y-112616670D01*
X99328782Y-112596153D01*
X99318554Y-112574529D01*
X99310496Y-112552007D01*
X99304684Y-112528803D01*
X99301174Y-112505142D01*
X99300000Y-112481250D01*
X99300000Y-111993750D01*
X99301174Y-111969858D01*
X99304684Y-111946197D01*
X99310496Y-111922993D01*
X99318554Y-111900471D01*
X99328782Y-111878847D01*
X99341079Y-111858330D01*
X99355329Y-111839117D01*
X99371393Y-111821393D01*
X99389117Y-111805329D01*
X99408330Y-111791079D01*
X99428847Y-111778782D01*
X99450471Y-111768554D01*
X99472993Y-111760496D01*
X99496197Y-111754684D01*
X99519858Y-111751174D01*
X99543750Y-111750000D01*
X100456250Y-111750000D01*
X100480142Y-111751174D01*
X100480142Y-111751174D01*
G37*
D12*
X100000000Y-112237500D03*
D10*
G36*
X100480142Y-109876174D02*
G01*
X100503803Y-109879684D01*
X100527007Y-109885496D01*
X100549529Y-109893554D01*
X100571153Y-109903782D01*
X100591670Y-109916079D01*
X100610883Y-109930329D01*
X100628607Y-109946393D01*
X100644671Y-109964117D01*
X100658921Y-109983330D01*
X100671218Y-110003847D01*
X100681446Y-110025471D01*
X100689504Y-110047993D01*
X100695316Y-110071197D01*
X100698826Y-110094858D01*
X100700000Y-110118750D01*
X100700000Y-110606250D01*
X100698826Y-110630142D01*
X100695316Y-110653803D01*
X100689504Y-110677007D01*
X100681446Y-110699529D01*
X100671218Y-110721153D01*
X100658921Y-110741670D01*
X100644671Y-110760883D01*
X100628607Y-110778607D01*
X100610883Y-110794671D01*
X100591670Y-110808921D01*
X100571153Y-110821218D01*
X100549529Y-110831446D01*
X100527007Y-110839504D01*
X100503803Y-110845316D01*
X100480142Y-110848826D01*
X100456250Y-110850000D01*
X99543750Y-110850000D01*
X99519858Y-110848826D01*
X99496197Y-110845316D01*
X99472993Y-110839504D01*
X99450471Y-110831446D01*
X99428847Y-110821218D01*
X99408330Y-110808921D01*
X99389117Y-110794671D01*
X99371393Y-110778607D01*
X99355329Y-110760883D01*
X99341079Y-110741670D01*
X99328782Y-110721153D01*
X99318554Y-110699529D01*
X99310496Y-110677007D01*
X99304684Y-110653803D01*
X99301174Y-110630142D01*
X99300000Y-110606250D01*
X99300000Y-110118750D01*
X99301174Y-110094858D01*
X99304684Y-110071197D01*
X99310496Y-110047993D01*
X99318554Y-110025471D01*
X99328782Y-110003847D01*
X99341079Y-109983330D01*
X99355329Y-109964117D01*
X99371393Y-109946393D01*
X99389117Y-109930329D01*
X99408330Y-109916079D01*
X99428847Y-109903782D01*
X99450471Y-109893554D01*
X99472993Y-109885496D01*
X99496197Y-109879684D01*
X99519858Y-109876174D01*
X99543750Y-109875000D01*
X100456250Y-109875000D01*
X100480142Y-109876174D01*
X100480142Y-109876174D01*
G37*
D12*
X100000000Y-110362500D03*
D10*
G36*
X128674142Y-111751174D02*
G01*
X128697803Y-111754684D01*
X128721007Y-111760496D01*
X128743529Y-111768554D01*
X128765153Y-111778782D01*
X128785670Y-111791079D01*
X128804883Y-111805329D01*
X128822607Y-111821393D01*
X128838671Y-111839117D01*
X128852921Y-111858330D01*
X128865218Y-111878847D01*
X128875446Y-111900471D01*
X128883504Y-111922993D01*
X128889316Y-111946197D01*
X128892826Y-111969858D01*
X128894000Y-111993750D01*
X128894000Y-112481250D01*
X128892826Y-112505142D01*
X128889316Y-112528803D01*
X128883504Y-112552007D01*
X128875446Y-112574529D01*
X128865218Y-112596153D01*
X128852921Y-112616670D01*
X128838671Y-112635883D01*
X128822607Y-112653607D01*
X128804883Y-112669671D01*
X128785670Y-112683921D01*
X128765153Y-112696218D01*
X128743529Y-112706446D01*
X128721007Y-112714504D01*
X128697803Y-112720316D01*
X128674142Y-112723826D01*
X128650250Y-112725000D01*
X127737750Y-112725000D01*
X127713858Y-112723826D01*
X127690197Y-112720316D01*
X127666993Y-112714504D01*
X127644471Y-112706446D01*
X127622847Y-112696218D01*
X127602330Y-112683921D01*
X127583117Y-112669671D01*
X127565393Y-112653607D01*
X127549329Y-112635883D01*
X127535079Y-112616670D01*
X127522782Y-112596153D01*
X127512554Y-112574529D01*
X127504496Y-112552007D01*
X127498684Y-112528803D01*
X127495174Y-112505142D01*
X127494000Y-112481250D01*
X127494000Y-111993750D01*
X127495174Y-111969858D01*
X127498684Y-111946197D01*
X127504496Y-111922993D01*
X127512554Y-111900471D01*
X127522782Y-111878847D01*
X127535079Y-111858330D01*
X127549329Y-111839117D01*
X127565393Y-111821393D01*
X127583117Y-111805329D01*
X127602330Y-111791079D01*
X127622847Y-111778782D01*
X127644471Y-111768554D01*
X127666993Y-111760496D01*
X127690197Y-111754684D01*
X127713858Y-111751174D01*
X127737750Y-111750000D01*
X128650250Y-111750000D01*
X128674142Y-111751174D01*
X128674142Y-111751174D01*
G37*
D12*
X128194000Y-112237500D03*
D10*
G36*
X128674142Y-109876174D02*
G01*
X128697803Y-109879684D01*
X128721007Y-109885496D01*
X128743529Y-109893554D01*
X128765153Y-109903782D01*
X128785670Y-109916079D01*
X128804883Y-109930329D01*
X128822607Y-109946393D01*
X128838671Y-109964117D01*
X128852921Y-109983330D01*
X128865218Y-110003847D01*
X128875446Y-110025471D01*
X128883504Y-110047993D01*
X128889316Y-110071197D01*
X128892826Y-110094858D01*
X128894000Y-110118750D01*
X128894000Y-110606250D01*
X128892826Y-110630142D01*
X128889316Y-110653803D01*
X128883504Y-110677007D01*
X128875446Y-110699529D01*
X128865218Y-110721153D01*
X128852921Y-110741670D01*
X128838671Y-110760883D01*
X128822607Y-110778607D01*
X128804883Y-110794671D01*
X128785670Y-110808921D01*
X128765153Y-110821218D01*
X128743529Y-110831446D01*
X128721007Y-110839504D01*
X128697803Y-110845316D01*
X128674142Y-110848826D01*
X128650250Y-110850000D01*
X127737750Y-110850000D01*
X127713858Y-110848826D01*
X127690197Y-110845316D01*
X127666993Y-110839504D01*
X127644471Y-110831446D01*
X127622847Y-110821218D01*
X127602330Y-110808921D01*
X127583117Y-110794671D01*
X127565393Y-110778607D01*
X127549329Y-110760883D01*
X127535079Y-110741670D01*
X127522782Y-110721153D01*
X127512554Y-110699529D01*
X127504496Y-110677007D01*
X127498684Y-110653803D01*
X127495174Y-110630142D01*
X127494000Y-110606250D01*
X127494000Y-110118750D01*
X127495174Y-110094858D01*
X127498684Y-110071197D01*
X127504496Y-110047993D01*
X127512554Y-110025471D01*
X127522782Y-110003847D01*
X127535079Y-109983330D01*
X127549329Y-109964117D01*
X127565393Y-109946393D01*
X127583117Y-109930329D01*
X127602330Y-109916079D01*
X127622847Y-109903782D01*
X127644471Y-109893554D01*
X127666993Y-109885496D01*
X127690197Y-109879684D01*
X127713858Y-109876174D01*
X127737750Y-109875000D01*
X128650250Y-109875000D01*
X128674142Y-109876174D01*
X128674142Y-109876174D01*
G37*
D12*
X128194000Y-110362500D03*
D10*
G36*
X130706142Y-109876174D02*
G01*
X130729803Y-109879684D01*
X130753007Y-109885496D01*
X130775529Y-109893554D01*
X130797153Y-109903782D01*
X130817670Y-109916079D01*
X130836883Y-109930329D01*
X130854607Y-109946393D01*
X130870671Y-109964117D01*
X130884921Y-109983330D01*
X130897218Y-110003847D01*
X130907446Y-110025471D01*
X130915504Y-110047993D01*
X130921316Y-110071197D01*
X130924826Y-110094858D01*
X130926000Y-110118750D01*
X130926000Y-110606250D01*
X130924826Y-110630142D01*
X130921316Y-110653803D01*
X130915504Y-110677007D01*
X130907446Y-110699529D01*
X130897218Y-110721153D01*
X130884921Y-110741670D01*
X130870671Y-110760883D01*
X130854607Y-110778607D01*
X130836883Y-110794671D01*
X130817670Y-110808921D01*
X130797153Y-110821218D01*
X130775529Y-110831446D01*
X130753007Y-110839504D01*
X130729803Y-110845316D01*
X130706142Y-110848826D01*
X130682250Y-110850000D01*
X129769750Y-110850000D01*
X129745858Y-110848826D01*
X129722197Y-110845316D01*
X129698993Y-110839504D01*
X129676471Y-110831446D01*
X129654847Y-110821218D01*
X129634330Y-110808921D01*
X129615117Y-110794671D01*
X129597393Y-110778607D01*
X129581329Y-110760883D01*
X129567079Y-110741670D01*
X129554782Y-110721153D01*
X129544554Y-110699529D01*
X129536496Y-110677007D01*
X129530684Y-110653803D01*
X129527174Y-110630142D01*
X129526000Y-110606250D01*
X129526000Y-110118750D01*
X129527174Y-110094858D01*
X129530684Y-110071197D01*
X129536496Y-110047993D01*
X129544554Y-110025471D01*
X129554782Y-110003847D01*
X129567079Y-109983330D01*
X129581329Y-109964117D01*
X129597393Y-109946393D01*
X129615117Y-109930329D01*
X129634330Y-109916079D01*
X129654847Y-109903782D01*
X129676471Y-109893554D01*
X129698993Y-109885496D01*
X129722197Y-109879684D01*
X129745858Y-109876174D01*
X129769750Y-109875000D01*
X130682250Y-109875000D01*
X130706142Y-109876174D01*
X130706142Y-109876174D01*
G37*
D12*
X130226000Y-110362500D03*
D10*
G36*
X130706142Y-111751174D02*
G01*
X130729803Y-111754684D01*
X130753007Y-111760496D01*
X130775529Y-111768554D01*
X130797153Y-111778782D01*
X130817670Y-111791079D01*
X130836883Y-111805329D01*
X130854607Y-111821393D01*
X130870671Y-111839117D01*
X130884921Y-111858330D01*
X130897218Y-111878847D01*
X130907446Y-111900471D01*
X130915504Y-111922993D01*
X130921316Y-111946197D01*
X130924826Y-111969858D01*
X130926000Y-111993750D01*
X130926000Y-112481250D01*
X130924826Y-112505142D01*
X130921316Y-112528803D01*
X130915504Y-112552007D01*
X130907446Y-112574529D01*
X130897218Y-112596153D01*
X130884921Y-112616670D01*
X130870671Y-112635883D01*
X130854607Y-112653607D01*
X130836883Y-112669671D01*
X130817670Y-112683921D01*
X130797153Y-112696218D01*
X130775529Y-112706446D01*
X130753007Y-112714504D01*
X130729803Y-112720316D01*
X130706142Y-112723826D01*
X130682250Y-112725000D01*
X129769750Y-112725000D01*
X129745858Y-112723826D01*
X129722197Y-112720316D01*
X129698993Y-112714504D01*
X129676471Y-112706446D01*
X129654847Y-112696218D01*
X129634330Y-112683921D01*
X129615117Y-112669671D01*
X129597393Y-112653607D01*
X129581329Y-112635883D01*
X129567079Y-112616670D01*
X129554782Y-112596153D01*
X129544554Y-112574529D01*
X129536496Y-112552007D01*
X129530684Y-112528803D01*
X129527174Y-112505142D01*
X129526000Y-112481250D01*
X129526000Y-111993750D01*
X129527174Y-111969858D01*
X129530684Y-111946197D01*
X129536496Y-111922993D01*
X129544554Y-111900471D01*
X129554782Y-111878847D01*
X129567079Y-111858330D01*
X129581329Y-111839117D01*
X129597393Y-111821393D01*
X129615117Y-111805329D01*
X129634330Y-111791079D01*
X129654847Y-111778782D01*
X129676471Y-111768554D01*
X129698993Y-111760496D01*
X129722197Y-111754684D01*
X129745858Y-111751174D01*
X129769750Y-111750000D01*
X130682250Y-111750000D01*
X130706142Y-111751174D01*
X130706142Y-111751174D01*
G37*
D12*
X130226000Y-112237500D03*
D10*
G36*
X70254142Y-111751174D02*
G01*
X70277803Y-111754684D01*
X70301007Y-111760496D01*
X70323529Y-111768554D01*
X70345153Y-111778782D01*
X70365670Y-111791079D01*
X70384883Y-111805329D01*
X70402607Y-111821393D01*
X70418671Y-111839117D01*
X70432921Y-111858330D01*
X70445218Y-111878847D01*
X70455446Y-111900471D01*
X70463504Y-111922993D01*
X70469316Y-111946197D01*
X70472826Y-111969858D01*
X70474000Y-111993750D01*
X70474000Y-112481250D01*
X70472826Y-112505142D01*
X70469316Y-112528803D01*
X70463504Y-112552007D01*
X70455446Y-112574529D01*
X70445218Y-112596153D01*
X70432921Y-112616670D01*
X70418671Y-112635883D01*
X70402607Y-112653607D01*
X70384883Y-112669671D01*
X70365670Y-112683921D01*
X70345153Y-112696218D01*
X70323529Y-112706446D01*
X70301007Y-112714504D01*
X70277803Y-112720316D01*
X70254142Y-112723826D01*
X70230250Y-112725000D01*
X69317750Y-112725000D01*
X69293858Y-112723826D01*
X69270197Y-112720316D01*
X69246993Y-112714504D01*
X69224471Y-112706446D01*
X69202847Y-112696218D01*
X69182330Y-112683921D01*
X69163117Y-112669671D01*
X69145393Y-112653607D01*
X69129329Y-112635883D01*
X69115079Y-112616670D01*
X69102782Y-112596153D01*
X69092554Y-112574529D01*
X69084496Y-112552007D01*
X69078684Y-112528803D01*
X69075174Y-112505142D01*
X69074000Y-112481250D01*
X69074000Y-111993750D01*
X69075174Y-111969858D01*
X69078684Y-111946197D01*
X69084496Y-111922993D01*
X69092554Y-111900471D01*
X69102782Y-111878847D01*
X69115079Y-111858330D01*
X69129329Y-111839117D01*
X69145393Y-111821393D01*
X69163117Y-111805329D01*
X69182330Y-111791079D01*
X69202847Y-111778782D01*
X69224471Y-111768554D01*
X69246993Y-111760496D01*
X69270197Y-111754684D01*
X69293858Y-111751174D01*
X69317750Y-111750000D01*
X70230250Y-111750000D01*
X70254142Y-111751174D01*
X70254142Y-111751174D01*
G37*
D12*
X69774000Y-112237500D03*
D10*
G36*
X70254142Y-109876174D02*
G01*
X70277803Y-109879684D01*
X70301007Y-109885496D01*
X70323529Y-109893554D01*
X70345153Y-109903782D01*
X70365670Y-109916079D01*
X70384883Y-109930329D01*
X70402607Y-109946393D01*
X70418671Y-109964117D01*
X70432921Y-109983330D01*
X70445218Y-110003847D01*
X70455446Y-110025471D01*
X70463504Y-110047993D01*
X70469316Y-110071197D01*
X70472826Y-110094858D01*
X70474000Y-110118750D01*
X70474000Y-110606250D01*
X70472826Y-110630142D01*
X70469316Y-110653803D01*
X70463504Y-110677007D01*
X70455446Y-110699529D01*
X70445218Y-110721153D01*
X70432921Y-110741670D01*
X70418671Y-110760883D01*
X70402607Y-110778607D01*
X70384883Y-110794671D01*
X70365670Y-110808921D01*
X70345153Y-110821218D01*
X70323529Y-110831446D01*
X70301007Y-110839504D01*
X70277803Y-110845316D01*
X70254142Y-110848826D01*
X70230250Y-110850000D01*
X69317750Y-110850000D01*
X69293858Y-110848826D01*
X69270197Y-110845316D01*
X69246993Y-110839504D01*
X69224471Y-110831446D01*
X69202847Y-110821218D01*
X69182330Y-110808921D01*
X69163117Y-110794671D01*
X69145393Y-110778607D01*
X69129329Y-110760883D01*
X69115079Y-110741670D01*
X69102782Y-110721153D01*
X69092554Y-110699529D01*
X69084496Y-110677007D01*
X69078684Y-110653803D01*
X69075174Y-110630142D01*
X69074000Y-110606250D01*
X69074000Y-110118750D01*
X69075174Y-110094858D01*
X69078684Y-110071197D01*
X69084496Y-110047993D01*
X69092554Y-110025471D01*
X69102782Y-110003847D01*
X69115079Y-109983330D01*
X69129329Y-109964117D01*
X69145393Y-109946393D01*
X69163117Y-109930329D01*
X69182330Y-109916079D01*
X69202847Y-109903782D01*
X69224471Y-109893554D01*
X69246993Y-109885496D01*
X69270197Y-109879684D01*
X69293858Y-109876174D01*
X69317750Y-109875000D01*
X70230250Y-109875000D01*
X70254142Y-109876174D01*
X70254142Y-109876174D01*
G37*
D12*
X69774000Y-110362500D03*
D10*
G36*
X134503428Y-110975782D02*
G01*
X134519202Y-110978122D01*
X134534671Y-110981997D01*
X134549686Y-110987370D01*
X134564102Y-110994188D01*
X134577780Y-111002386D01*
X134590589Y-111011886D01*
X134602405Y-111022595D01*
X134613114Y-111034411D01*
X134622614Y-111047220D01*
X134630812Y-111060898D01*
X134637630Y-111075314D01*
X134643003Y-111090329D01*
X134646878Y-111105798D01*
X134649218Y-111121572D01*
X134650000Y-111137500D01*
X134650000Y-111462500D01*
X134649218Y-111478428D01*
X134646878Y-111494202D01*
X134643003Y-111509671D01*
X134637630Y-111524686D01*
X134630812Y-111539102D01*
X134622614Y-111552780D01*
X134613114Y-111565589D01*
X134602405Y-111577405D01*
X134590589Y-111588114D01*
X134577780Y-111597614D01*
X134564102Y-111605812D01*
X134549686Y-111612630D01*
X134534671Y-111618003D01*
X134519202Y-111621878D01*
X134503428Y-111624218D01*
X134487500Y-111625000D01*
X133752500Y-111625000D01*
X133736572Y-111624218D01*
X133720798Y-111621878D01*
X133705329Y-111618003D01*
X133690314Y-111612630D01*
X133675898Y-111605812D01*
X133662220Y-111597614D01*
X133649411Y-111588114D01*
X133637595Y-111577405D01*
X133626886Y-111565589D01*
X133617386Y-111552780D01*
X133609188Y-111539102D01*
X133602370Y-111524686D01*
X133596997Y-111509671D01*
X133593122Y-111494202D01*
X133590782Y-111478428D01*
X133590000Y-111462500D01*
X133590000Y-111137500D01*
X133590782Y-111121572D01*
X133593122Y-111105798D01*
X133596997Y-111090329D01*
X133602370Y-111075314D01*
X133609188Y-111060898D01*
X133617386Y-111047220D01*
X133626886Y-111034411D01*
X133637595Y-111022595D01*
X133649411Y-111011886D01*
X133662220Y-111002386D01*
X133675898Y-110994188D01*
X133690314Y-110987370D01*
X133705329Y-110981997D01*
X133720798Y-110978122D01*
X133736572Y-110975782D01*
X133752500Y-110975000D01*
X134487500Y-110975000D01*
X134503428Y-110975782D01*
X134503428Y-110975782D01*
G37*
D11*
X134120000Y-111300000D03*
D10*
G36*
X134503428Y-110025782D02*
G01*
X134519202Y-110028122D01*
X134534671Y-110031997D01*
X134549686Y-110037370D01*
X134564102Y-110044188D01*
X134577780Y-110052386D01*
X134590589Y-110061886D01*
X134602405Y-110072595D01*
X134613114Y-110084411D01*
X134622614Y-110097220D01*
X134630812Y-110110898D01*
X134637630Y-110125314D01*
X134643003Y-110140329D01*
X134646878Y-110155798D01*
X134649218Y-110171572D01*
X134650000Y-110187500D01*
X134650000Y-110512500D01*
X134649218Y-110528428D01*
X134646878Y-110544202D01*
X134643003Y-110559671D01*
X134637630Y-110574686D01*
X134630812Y-110589102D01*
X134622614Y-110602780D01*
X134613114Y-110615589D01*
X134602405Y-110627405D01*
X134590589Y-110638114D01*
X134577780Y-110647614D01*
X134564102Y-110655812D01*
X134549686Y-110662630D01*
X134534671Y-110668003D01*
X134519202Y-110671878D01*
X134503428Y-110674218D01*
X134487500Y-110675000D01*
X133752500Y-110675000D01*
X133736572Y-110674218D01*
X133720798Y-110671878D01*
X133705329Y-110668003D01*
X133690314Y-110662630D01*
X133675898Y-110655812D01*
X133662220Y-110647614D01*
X133649411Y-110638114D01*
X133637595Y-110627405D01*
X133626886Y-110615589D01*
X133617386Y-110602780D01*
X133609188Y-110589102D01*
X133602370Y-110574686D01*
X133596997Y-110559671D01*
X133593122Y-110544202D01*
X133590782Y-110528428D01*
X133590000Y-110512500D01*
X133590000Y-110187500D01*
X133590782Y-110171572D01*
X133593122Y-110155798D01*
X133596997Y-110140329D01*
X133602370Y-110125314D01*
X133609188Y-110110898D01*
X133617386Y-110097220D01*
X133626886Y-110084411D01*
X133637595Y-110072595D01*
X133649411Y-110061886D01*
X133662220Y-110052386D01*
X133675898Y-110044188D01*
X133690314Y-110037370D01*
X133705329Y-110031997D01*
X133720798Y-110028122D01*
X133736572Y-110025782D01*
X133752500Y-110025000D01*
X134487500Y-110025000D01*
X134503428Y-110025782D01*
X134503428Y-110025782D01*
G37*
D11*
X134120000Y-110350000D03*
D10*
G36*
X134503428Y-111925782D02*
G01*
X134519202Y-111928122D01*
X134534671Y-111931997D01*
X134549686Y-111937370D01*
X134564102Y-111944188D01*
X134577780Y-111952386D01*
X134590589Y-111961886D01*
X134602405Y-111972595D01*
X134613114Y-111984411D01*
X134622614Y-111997220D01*
X134630812Y-112010898D01*
X134637630Y-112025314D01*
X134643003Y-112040329D01*
X134646878Y-112055798D01*
X134649218Y-112071572D01*
X134650000Y-112087500D01*
X134650000Y-112412500D01*
X134649218Y-112428428D01*
X134646878Y-112444202D01*
X134643003Y-112459671D01*
X134637630Y-112474686D01*
X134630812Y-112489102D01*
X134622614Y-112502780D01*
X134613114Y-112515589D01*
X134602405Y-112527405D01*
X134590589Y-112538114D01*
X134577780Y-112547614D01*
X134564102Y-112555812D01*
X134549686Y-112562630D01*
X134534671Y-112568003D01*
X134519202Y-112571878D01*
X134503428Y-112574218D01*
X134487500Y-112575000D01*
X133752500Y-112575000D01*
X133736572Y-112574218D01*
X133720798Y-112571878D01*
X133705329Y-112568003D01*
X133690314Y-112562630D01*
X133675898Y-112555812D01*
X133662220Y-112547614D01*
X133649411Y-112538114D01*
X133637595Y-112527405D01*
X133626886Y-112515589D01*
X133617386Y-112502780D01*
X133609188Y-112489102D01*
X133602370Y-112474686D01*
X133596997Y-112459671D01*
X133593122Y-112444202D01*
X133590782Y-112428428D01*
X133590000Y-112412500D01*
X133590000Y-112087500D01*
X133590782Y-112071572D01*
X133593122Y-112055798D01*
X133596997Y-112040329D01*
X133602370Y-112025314D01*
X133609188Y-112010898D01*
X133617386Y-111997220D01*
X133626886Y-111984411D01*
X133637595Y-111972595D01*
X133649411Y-111961886D01*
X133662220Y-111952386D01*
X133675898Y-111944188D01*
X133690314Y-111937370D01*
X133705329Y-111931997D01*
X133720798Y-111928122D01*
X133736572Y-111925782D01*
X133752500Y-111925000D01*
X134487500Y-111925000D01*
X134503428Y-111925782D01*
X134503428Y-111925782D01*
G37*
D11*
X134120000Y-112250000D03*
D10*
G36*
X132303428Y-111925782D02*
G01*
X132319202Y-111928122D01*
X132334671Y-111931997D01*
X132349686Y-111937370D01*
X132364102Y-111944188D01*
X132377780Y-111952386D01*
X132390589Y-111961886D01*
X132402405Y-111972595D01*
X132413114Y-111984411D01*
X132422614Y-111997220D01*
X132430812Y-112010898D01*
X132437630Y-112025314D01*
X132443003Y-112040329D01*
X132446878Y-112055798D01*
X132449218Y-112071572D01*
X132450000Y-112087500D01*
X132450000Y-112412500D01*
X132449218Y-112428428D01*
X132446878Y-112444202D01*
X132443003Y-112459671D01*
X132437630Y-112474686D01*
X132430812Y-112489102D01*
X132422614Y-112502780D01*
X132413114Y-112515589D01*
X132402405Y-112527405D01*
X132390589Y-112538114D01*
X132377780Y-112547614D01*
X132364102Y-112555812D01*
X132349686Y-112562630D01*
X132334671Y-112568003D01*
X132319202Y-112571878D01*
X132303428Y-112574218D01*
X132287500Y-112575000D01*
X131552500Y-112575000D01*
X131536572Y-112574218D01*
X131520798Y-112571878D01*
X131505329Y-112568003D01*
X131490314Y-112562630D01*
X131475898Y-112555812D01*
X131462220Y-112547614D01*
X131449411Y-112538114D01*
X131437595Y-112527405D01*
X131426886Y-112515589D01*
X131417386Y-112502780D01*
X131409188Y-112489102D01*
X131402370Y-112474686D01*
X131396997Y-112459671D01*
X131393122Y-112444202D01*
X131390782Y-112428428D01*
X131390000Y-112412500D01*
X131390000Y-112087500D01*
X131390782Y-112071572D01*
X131393122Y-112055798D01*
X131396997Y-112040329D01*
X131402370Y-112025314D01*
X131409188Y-112010898D01*
X131417386Y-111997220D01*
X131426886Y-111984411D01*
X131437595Y-111972595D01*
X131449411Y-111961886D01*
X131462220Y-111952386D01*
X131475898Y-111944188D01*
X131490314Y-111937370D01*
X131505329Y-111931997D01*
X131520798Y-111928122D01*
X131536572Y-111925782D01*
X131552500Y-111925000D01*
X132287500Y-111925000D01*
X132303428Y-111925782D01*
X132303428Y-111925782D01*
G37*
D11*
X131920000Y-112250000D03*
D10*
G36*
X132303428Y-110975782D02*
G01*
X132319202Y-110978122D01*
X132334671Y-110981997D01*
X132349686Y-110987370D01*
X132364102Y-110994188D01*
X132377780Y-111002386D01*
X132390589Y-111011886D01*
X132402405Y-111022595D01*
X132413114Y-111034411D01*
X132422614Y-111047220D01*
X132430812Y-111060898D01*
X132437630Y-111075314D01*
X132443003Y-111090329D01*
X132446878Y-111105798D01*
X132449218Y-111121572D01*
X132450000Y-111137500D01*
X132450000Y-111462500D01*
X132449218Y-111478428D01*
X132446878Y-111494202D01*
X132443003Y-111509671D01*
X132437630Y-111524686D01*
X132430812Y-111539102D01*
X132422614Y-111552780D01*
X132413114Y-111565589D01*
X132402405Y-111577405D01*
X132390589Y-111588114D01*
X132377780Y-111597614D01*
X132364102Y-111605812D01*
X132349686Y-111612630D01*
X132334671Y-111618003D01*
X132319202Y-111621878D01*
X132303428Y-111624218D01*
X132287500Y-111625000D01*
X131552500Y-111625000D01*
X131536572Y-111624218D01*
X131520798Y-111621878D01*
X131505329Y-111618003D01*
X131490314Y-111612630D01*
X131475898Y-111605812D01*
X131462220Y-111597614D01*
X131449411Y-111588114D01*
X131437595Y-111577405D01*
X131426886Y-111565589D01*
X131417386Y-111552780D01*
X131409188Y-111539102D01*
X131402370Y-111524686D01*
X131396997Y-111509671D01*
X131393122Y-111494202D01*
X131390782Y-111478428D01*
X131390000Y-111462500D01*
X131390000Y-111137500D01*
X131390782Y-111121572D01*
X131393122Y-111105798D01*
X131396997Y-111090329D01*
X131402370Y-111075314D01*
X131409188Y-111060898D01*
X131417386Y-111047220D01*
X131426886Y-111034411D01*
X131437595Y-111022595D01*
X131449411Y-111011886D01*
X131462220Y-111002386D01*
X131475898Y-110994188D01*
X131490314Y-110987370D01*
X131505329Y-110981997D01*
X131520798Y-110978122D01*
X131536572Y-110975782D01*
X131552500Y-110975000D01*
X132287500Y-110975000D01*
X132303428Y-110975782D01*
X132303428Y-110975782D01*
G37*
D11*
X131920000Y-111300000D03*
D10*
G36*
X132303428Y-110025782D02*
G01*
X132319202Y-110028122D01*
X132334671Y-110031997D01*
X132349686Y-110037370D01*
X132364102Y-110044188D01*
X132377780Y-110052386D01*
X132390589Y-110061886D01*
X132402405Y-110072595D01*
X132413114Y-110084411D01*
X132422614Y-110097220D01*
X132430812Y-110110898D01*
X132437630Y-110125314D01*
X132443003Y-110140329D01*
X132446878Y-110155798D01*
X132449218Y-110171572D01*
X132450000Y-110187500D01*
X132450000Y-110512500D01*
X132449218Y-110528428D01*
X132446878Y-110544202D01*
X132443003Y-110559671D01*
X132437630Y-110574686D01*
X132430812Y-110589102D01*
X132422614Y-110602780D01*
X132413114Y-110615589D01*
X132402405Y-110627405D01*
X132390589Y-110638114D01*
X132377780Y-110647614D01*
X132364102Y-110655812D01*
X132349686Y-110662630D01*
X132334671Y-110668003D01*
X132319202Y-110671878D01*
X132303428Y-110674218D01*
X132287500Y-110675000D01*
X131552500Y-110675000D01*
X131536572Y-110674218D01*
X131520798Y-110671878D01*
X131505329Y-110668003D01*
X131490314Y-110662630D01*
X131475898Y-110655812D01*
X131462220Y-110647614D01*
X131449411Y-110638114D01*
X131437595Y-110627405D01*
X131426886Y-110615589D01*
X131417386Y-110602780D01*
X131409188Y-110589102D01*
X131402370Y-110574686D01*
X131396997Y-110559671D01*
X131393122Y-110544202D01*
X131390782Y-110528428D01*
X131390000Y-110512500D01*
X131390000Y-110187500D01*
X131390782Y-110171572D01*
X131393122Y-110155798D01*
X131396997Y-110140329D01*
X131402370Y-110125314D01*
X131409188Y-110110898D01*
X131417386Y-110097220D01*
X131426886Y-110084411D01*
X131437595Y-110072595D01*
X131449411Y-110061886D01*
X131462220Y-110052386D01*
X131475898Y-110044188D01*
X131490314Y-110037370D01*
X131505329Y-110031997D01*
X131520798Y-110028122D01*
X131536572Y-110025782D01*
X131552500Y-110025000D01*
X132287500Y-110025000D01*
X132303428Y-110025782D01*
X132303428Y-110025782D01*
G37*
D11*
X131920000Y-110350000D03*
D10*
G36*
X138313428Y-110975782D02*
G01*
X138329202Y-110978122D01*
X138344671Y-110981997D01*
X138359686Y-110987370D01*
X138374102Y-110994188D01*
X138387780Y-111002386D01*
X138400589Y-111011886D01*
X138412405Y-111022595D01*
X138423114Y-111034411D01*
X138432614Y-111047220D01*
X138440812Y-111060898D01*
X138447630Y-111075314D01*
X138453003Y-111090329D01*
X138456878Y-111105798D01*
X138459218Y-111121572D01*
X138460000Y-111137500D01*
X138460000Y-111462500D01*
X138459218Y-111478428D01*
X138456878Y-111494202D01*
X138453003Y-111509671D01*
X138447630Y-111524686D01*
X138440812Y-111539102D01*
X138432614Y-111552780D01*
X138423114Y-111565589D01*
X138412405Y-111577405D01*
X138400589Y-111588114D01*
X138387780Y-111597614D01*
X138374102Y-111605812D01*
X138359686Y-111612630D01*
X138344671Y-111618003D01*
X138329202Y-111621878D01*
X138313428Y-111624218D01*
X138297500Y-111625000D01*
X137562500Y-111625000D01*
X137546572Y-111624218D01*
X137530798Y-111621878D01*
X137515329Y-111618003D01*
X137500314Y-111612630D01*
X137485898Y-111605812D01*
X137472220Y-111597614D01*
X137459411Y-111588114D01*
X137447595Y-111577405D01*
X137436886Y-111565589D01*
X137427386Y-111552780D01*
X137419188Y-111539102D01*
X137412370Y-111524686D01*
X137406997Y-111509671D01*
X137403122Y-111494202D01*
X137400782Y-111478428D01*
X137400000Y-111462500D01*
X137400000Y-111137500D01*
X137400782Y-111121572D01*
X137403122Y-111105798D01*
X137406997Y-111090329D01*
X137412370Y-111075314D01*
X137419188Y-111060898D01*
X137427386Y-111047220D01*
X137436886Y-111034411D01*
X137447595Y-111022595D01*
X137459411Y-111011886D01*
X137472220Y-111002386D01*
X137485898Y-110994188D01*
X137500314Y-110987370D01*
X137515329Y-110981997D01*
X137530798Y-110978122D01*
X137546572Y-110975782D01*
X137562500Y-110975000D01*
X138297500Y-110975000D01*
X138313428Y-110975782D01*
X138313428Y-110975782D01*
G37*
D11*
X137930000Y-111300000D03*
D10*
G36*
X138313428Y-110025782D02*
G01*
X138329202Y-110028122D01*
X138344671Y-110031997D01*
X138359686Y-110037370D01*
X138374102Y-110044188D01*
X138387780Y-110052386D01*
X138400589Y-110061886D01*
X138412405Y-110072595D01*
X138423114Y-110084411D01*
X138432614Y-110097220D01*
X138440812Y-110110898D01*
X138447630Y-110125314D01*
X138453003Y-110140329D01*
X138456878Y-110155798D01*
X138459218Y-110171572D01*
X138460000Y-110187500D01*
X138460000Y-110512500D01*
X138459218Y-110528428D01*
X138456878Y-110544202D01*
X138453003Y-110559671D01*
X138447630Y-110574686D01*
X138440812Y-110589102D01*
X138432614Y-110602780D01*
X138423114Y-110615589D01*
X138412405Y-110627405D01*
X138400589Y-110638114D01*
X138387780Y-110647614D01*
X138374102Y-110655812D01*
X138359686Y-110662630D01*
X138344671Y-110668003D01*
X138329202Y-110671878D01*
X138313428Y-110674218D01*
X138297500Y-110675000D01*
X137562500Y-110675000D01*
X137546572Y-110674218D01*
X137530798Y-110671878D01*
X137515329Y-110668003D01*
X137500314Y-110662630D01*
X137485898Y-110655812D01*
X137472220Y-110647614D01*
X137459411Y-110638114D01*
X137447595Y-110627405D01*
X137436886Y-110615589D01*
X137427386Y-110602780D01*
X137419188Y-110589102D01*
X137412370Y-110574686D01*
X137406997Y-110559671D01*
X137403122Y-110544202D01*
X137400782Y-110528428D01*
X137400000Y-110512500D01*
X137400000Y-110187500D01*
X137400782Y-110171572D01*
X137403122Y-110155798D01*
X137406997Y-110140329D01*
X137412370Y-110125314D01*
X137419188Y-110110898D01*
X137427386Y-110097220D01*
X137436886Y-110084411D01*
X137447595Y-110072595D01*
X137459411Y-110061886D01*
X137472220Y-110052386D01*
X137485898Y-110044188D01*
X137500314Y-110037370D01*
X137515329Y-110031997D01*
X137530798Y-110028122D01*
X137546572Y-110025782D01*
X137562500Y-110025000D01*
X138297500Y-110025000D01*
X138313428Y-110025782D01*
X138313428Y-110025782D01*
G37*
D11*
X137930000Y-110350000D03*
D10*
G36*
X138313428Y-111925782D02*
G01*
X138329202Y-111928122D01*
X138344671Y-111931997D01*
X138359686Y-111937370D01*
X138374102Y-111944188D01*
X138387780Y-111952386D01*
X138400589Y-111961886D01*
X138412405Y-111972595D01*
X138423114Y-111984411D01*
X138432614Y-111997220D01*
X138440812Y-112010898D01*
X138447630Y-112025314D01*
X138453003Y-112040329D01*
X138456878Y-112055798D01*
X138459218Y-112071572D01*
X138460000Y-112087500D01*
X138460000Y-112412500D01*
X138459218Y-112428428D01*
X138456878Y-112444202D01*
X138453003Y-112459671D01*
X138447630Y-112474686D01*
X138440812Y-112489102D01*
X138432614Y-112502780D01*
X138423114Y-112515589D01*
X138412405Y-112527405D01*
X138400589Y-112538114D01*
X138387780Y-112547614D01*
X138374102Y-112555812D01*
X138359686Y-112562630D01*
X138344671Y-112568003D01*
X138329202Y-112571878D01*
X138313428Y-112574218D01*
X138297500Y-112575000D01*
X137562500Y-112575000D01*
X137546572Y-112574218D01*
X137530798Y-112571878D01*
X137515329Y-112568003D01*
X137500314Y-112562630D01*
X137485898Y-112555812D01*
X137472220Y-112547614D01*
X137459411Y-112538114D01*
X137447595Y-112527405D01*
X137436886Y-112515589D01*
X137427386Y-112502780D01*
X137419188Y-112489102D01*
X137412370Y-112474686D01*
X137406997Y-112459671D01*
X137403122Y-112444202D01*
X137400782Y-112428428D01*
X137400000Y-112412500D01*
X137400000Y-112087500D01*
X137400782Y-112071572D01*
X137403122Y-112055798D01*
X137406997Y-112040329D01*
X137412370Y-112025314D01*
X137419188Y-112010898D01*
X137427386Y-111997220D01*
X137436886Y-111984411D01*
X137447595Y-111972595D01*
X137459411Y-111961886D01*
X137472220Y-111952386D01*
X137485898Y-111944188D01*
X137500314Y-111937370D01*
X137515329Y-111931997D01*
X137530798Y-111928122D01*
X137546572Y-111925782D01*
X137562500Y-111925000D01*
X138297500Y-111925000D01*
X138313428Y-111925782D01*
X138313428Y-111925782D01*
G37*
D11*
X137930000Y-112250000D03*
D10*
G36*
X136113428Y-111925782D02*
G01*
X136129202Y-111928122D01*
X136144671Y-111931997D01*
X136159686Y-111937370D01*
X136174102Y-111944188D01*
X136187780Y-111952386D01*
X136200589Y-111961886D01*
X136212405Y-111972595D01*
X136223114Y-111984411D01*
X136232614Y-111997220D01*
X136240812Y-112010898D01*
X136247630Y-112025314D01*
X136253003Y-112040329D01*
X136256878Y-112055798D01*
X136259218Y-112071572D01*
X136260000Y-112087500D01*
X136260000Y-112412500D01*
X136259218Y-112428428D01*
X136256878Y-112444202D01*
X136253003Y-112459671D01*
X136247630Y-112474686D01*
X136240812Y-112489102D01*
X136232614Y-112502780D01*
X136223114Y-112515589D01*
X136212405Y-112527405D01*
X136200589Y-112538114D01*
X136187780Y-112547614D01*
X136174102Y-112555812D01*
X136159686Y-112562630D01*
X136144671Y-112568003D01*
X136129202Y-112571878D01*
X136113428Y-112574218D01*
X136097500Y-112575000D01*
X135362500Y-112575000D01*
X135346572Y-112574218D01*
X135330798Y-112571878D01*
X135315329Y-112568003D01*
X135300314Y-112562630D01*
X135285898Y-112555812D01*
X135272220Y-112547614D01*
X135259411Y-112538114D01*
X135247595Y-112527405D01*
X135236886Y-112515589D01*
X135227386Y-112502780D01*
X135219188Y-112489102D01*
X135212370Y-112474686D01*
X135206997Y-112459671D01*
X135203122Y-112444202D01*
X135200782Y-112428428D01*
X135200000Y-112412500D01*
X135200000Y-112087500D01*
X135200782Y-112071572D01*
X135203122Y-112055798D01*
X135206997Y-112040329D01*
X135212370Y-112025314D01*
X135219188Y-112010898D01*
X135227386Y-111997220D01*
X135236886Y-111984411D01*
X135247595Y-111972595D01*
X135259411Y-111961886D01*
X135272220Y-111952386D01*
X135285898Y-111944188D01*
X135300314Y-111937370D01*
X135315329Y-111931997D01*
X135330798Y-111928122D01*
X135346572Y-111925782D01*
X135362500Y-111925000D01*
X136097500Y-111925000D01*
X136113428Y-111925782D01*
X136113428Y-111925782D01*
G37*
D11*
X135730000Y-112250000D03*
D10*
G36*
X136113428Y-110975782D02*
G01*
X136129202Y-110978122D01*
X136144671Y-110981997D01*
X136159686Y-110987370D01*
X136174102Y-110994188D01*
X136187780Y-111002386D01*
X136200589Y-111011886D01*
X136212405Y-111022595D01*
X136223114Y-111034411D01*
X136232614Y-111047220D01*
X136240812Y-111060898D01*
X136247630Y-111075314D01*
X136253003Y-111090329D01*
X136256878Y-111105798D01*
X136259218Y-111121572D01*
X136260000Y-111137500D01*
X136260000Y-111462500D01*
X136259218Y-111478428D01*
X136256878Y-111494202D01*
X136253003Y-111509671D01*
X136247630Y-111524686D01*
X136240812Y-111539102D01*
X136232614Y-111552780D01*
X136223114Y-111565589D01*
X136212405Y-111577405D01*
X136200589Y-111588114D01*
X136187780Y-111597614D01*
X136174102Y-111605812D01*
X136159686Y-111612630D01*
X136144671Y-111618003D01*
X136129202Y-111621878D01*
X136113428Y-111624218D01*
X136097500Y-111625000D01*
X135362500Y-111625000D01*
X135346572Y-111624218D01*
X135330798Y-111621878D01*
X135315329Y-111618003D01*
X135300314Y-111612630D01*
X135285898Y-111605812D01*
X135272220Y-111597614D01*
X135259411Y-111588114D01*
X135247595Y-111577405D01*
X135236886Y-111565589D01*
X135227386Y-111552780D01*
X135219188Y-111539102D01*
X135212370Y-111524686D01*
X135206997Y-111509671D01*
X135203122Y-111494202D01*
X135200782Y-111478428D01*
X135200000Y-111462500D01*
X135200000Y-111137500D01*
X135200782Y-111121572D01*
X135203122Y-111105798D01*
X135206997Y-111090329D01*
X135212370Y-111075314D01*
X135219188Y-111060898D01*
X135227386Y-111047220D01*
X135236886Y-111034411D01*
X135247595Y-111022595D01*
X135259411Y-111011886D01*
X135272220Y-111002386D01*
X135285898Y-110994188D01*
X135300314Y-110987370D01*
X135315329Y-110981997D01*
X135330798Y-110978122D01*
X135346572Y-110975782D01*
X135362500Y-110975000D01*
X136097500Y-110975000D01*
X136113428Y-110975782D01*
X136113428Y-110975782D01*
G37*
D11*
X135730000Y-111300000D03*
D10*
G36*
X136113428Y-110025782D02*
G01*
X136129202Y-110028122D01*
X136144671Y-110031997D01*
X136159686Y-110037370D01*
X136174102Y-110044188D01*
X136187780Y-110052386D01*
X136200589Y-110061886D01*
X136212405Y-110072595D01*
X136223114Y-110084411D01*
X136232614Y-110097220D01*
X136240812Y-110110898D01*
X136247630Y-110125314D01*
X136253003Y-110140329D01*
X136256878Y-110155798D01*
X136259218Y-110171572D01*
X136260000Y-110187500D01*
X136260000Y-110512500D01*
X136259218Y-110528428D01*
X136256878Y-110544202D01*
X136253003Y-110559671D01*
X136247630Y-110574686D01*
X136240812Y-110589102D01*
X136232614Y-110602780D01*
X136223114Y-110615589D01*
X136212405Y-110627405D01*
X136200589Y-110638114D01*
X136187780Y-110647614D01*
X136174102Y-110655812D01*
X136159686Y-110662630D01*
X136144671Y-110668003D01*
X136129202Y-110671878D01*
X136113428Y-110674218D01*
X136097500Y-110675000D01*
X135362500Y-110675000D01*
X135346572Y-110674218D01*
X135330798Y-110671878D01*
X135315329Y-110668003D01*
X135300314Y-110662630D01*
X135285898Y-110655812D01*
X135272220Y-110647614D01*
X135259411Y-110638114D01*
X135247595Y-110627405D01*
X135236886Y-110615589D01*
X135227386Y-110602780D01*
X135219188Y-110589102D01*
X135212370Y-110574686D01*
X135206997Y-110559671D01*
X135203122Y-110544202D01*
X135200782Y-110528428D01*
X135200000Y-110512500D01*
X135200000Y-110187500D01*
X135200782Y-110171572D01*
X135203122Y-110155798D01*
X135206997Y-110140329D01*
X135212370Y-110125314D01*
X135219188Y-110110898D01*
X135227386Y-110097220D01*
X135236886Y-110084411D01*
X135247595Y-110072595D01*
X135259411Y-110061886D01*
X135272220Y-110052386D01*
X135285898Y-110044188D01*
X135300314Y-110037370D01*
X135315329Y-110031997D01*
X135330798Y-110028122D01*
X135346572Y-110025782D01*
X135362500Y-110025000D01*
X136097500Y-110025000D01*
X136113428Y-110025782D01*
X136113428Y-110025782D01*
G37*
D11*
X135730000Y-110350000D03*
D10*
G36*
X68463428Y-110975782D02*
G01*
X68479202Y-110978122D01*
X68494671Y-110981997D01*
X68509686Y-110987370D01*
X68524102Y-110994188D01*
X68537780Y-111002386D01*
X68550589Y-111011886D01*
X68562405Y-111022595D01*
X68573114Y-111034411D01*
X68582614Y-111047220D01*
X68590812Y-111060898D01*
X68597630Y-111075314D01*
X68603003Y-111090329D01*
X68606878Y-111105798D01*
X68609218Y-111121572D01*
X68610000Y-111137500D01*
X68610000Y-111462500D01*
X68609218Y-111478428D01*
X68606878Y-111494202D01*
X68603003Y-111509671D01*
X68597630Y-111524686D01*
X68590812Y-111539102D01*
X68582614Y-111552780D01*
X68573114Y-111565589D01*
X68562405Y-111577405D01*
X68550589Y-111588114D01*
X68537780Y-111597614D01*
X68524102Y-111605812D01*
X68509686Y-111612630D01*
X68494671Y-111618003D01*
X68479202Y-111621878D01*
X68463428Y-111624218D01*
X68447500Y-111625000D01*
X67712500Y-111625000D01*
X67696572Y-111624218D01*
X67680798Y-111621878D01*
X67665329Y-111618003D01*
X67650314Y-111612630D01*
X67635898Y-111605812D01*
X67622220Y-111597614D01*
X67609411Y-111588114D01*
X67597595Y-111577405D01*
X67586886Y-111565589D01*
X67577386Y-111552780D01*
X67569188Y-111539102D01*
X67562370Y-111524686D01*
X67556997Y-111509671D01*
X67553122Y-111494202D01*
X67550782Y-111478428D01*
X67550000Y-111462500D01*
X67550000Y-111137500D01*
X67550782Y-111121572D01*
X67553122Y-111105798D01*
X67556997Y-111090329D01*
X67562370Y-111075314D01*
X67569188Y-111060898D01*
X67577386Y-111047220D01*
X67586886Y-111034411D01*
X67597595Y-111022595D01*
X67609411Y-111011886D01*
X67622220Y-111002386D01*
X67635898Y-110994188D01*
X67650314Y-110987370D01*
X67665329Y-110981997D01*
X67680798Y-110978122D01*
X67696572Y-110975782D01*
X67712500Y-110975000D01*
X68447500Y-110975000D01*
X68463428Y-110975782D01*
X68463428Y-110975782D01*
G37*
D11*
X68080000Y-111300000D03*
D10*
G36*
X68463428Y-110025782D02*
G01*
X68479202Y-110028122D01*
X68494671Y-110031997D01*
X68509686Y-110037370D01*
X68524102Y-110044188D01*
X68537780Y-110052386D01*
X68550589Y-110061886D01*
X68562405Y-110072595D01*
X68573114Y-110084411D01*
X68582614Y-110097220D01*
X68590812Y-110110898D01*
X68597630Y-110125314D01*
X68603003Y-110140329D01*
X68606878Y-110155798D01*
X68609218Y-110171572D01*
X68610000Y-110187500D01*
X68610000Y-110512500D01*
X68609218Y-110528428D01*
X68606878Y-110544202D01*
X68603003Y-110559671D01*
X68597630Y-110574686D01*
X68590812Y-110589102D01*
X68582614Y-110602780D01*
X68573114Y-110615589D01*
X68562405Y-110627405D01*
X68550589Y-110638114D01*
X68537780Y-110647614D01*
X68524102Y-110655812D01*
X68509686Y-110662630D01*
X68494671Y-110668003D01*
X68479202Y-110671878D01*
X68463428Y-110674218D01*
X68447500Y-110675000D01*
X67712500Y-110675000D01*
X67696572Y-110674218D01*
X67680798Y-110671878D01*
X67665329Y-110668003D01*
X67650314Y-110662630D01*
X67635898Y-110655812D01*
X67622220Y-110647614D01*
X67609411Y-110638114D01*
X67597595Y-110627405D01*
X67586886Y-110615589D01*
X67577386Y-110602780D01*
X67569188Y-110589102D01*
X67562370Y-110574686D01*
X67556997Y-110559671D01*
X67553122Y-110544202D01*
X67550782Y-110528428D01*
X67550000Y-110512500D01*
X67550000Y-110187500D01*
X67550782Y-110171572D01*
X67553122Y-110155798D01*
X67556997Y-110140329D01*
X67562370Y-110125314D01*
X67569188Y-110110898D01*
X67577386Y-110097220D01*
X67586886Y-110084411D01*
X67597595Y-110072595D01*
X67609411Y-110061886D01*
X67622220Y-110052386D01*
X67635898Y-110044188D01*
X67650314Y-110037370D01*
X67665329Y-110031997D01*
X67680798Y-110028122D01*
X67696572Y-110025782D01*
X67712500Y-110025000D01*
X68447500Y-110025000D01*
X68463428Y-110025782D01*
X68463428Y-110025782D01*
G37*
D11*
X68080000Y-110350000D03*
D10*
G36*
X68463428Y-111925782D02*
G01*
X68479202Y-111928122D01*
X68494671Y-111931997D01*
X68509686Y-111937370D01*
X68524102Y-111944188D01*
X68537780Y-111952386D01*
X68550589Y-111961886D01*
X68562405Y-111972595D01*
X68573114Y-111984411D01*
X68582614Y-111997220D01*
X68590812Y-112010898D01*
X68597630Y-112025314D01*
X68603003Y-112040329D01*
X68606878Y-112055798D01*
X68609218Y-112071572D01*
X68610000Y-112087500D01*
X68610000Y-112412500D01*
X68609218Y-112428428D01*
X68606878Y-112444202D01*
X68603003Y-112459671D01*
X68597630Y-112474686D01*
X68590812Y-112489102D01*
X68582614Y-112502780D01*
X68573114Y-112515589D01*
X68562405Y-112527405D01*
X68550589Y-112538114D01*
X68537780Y-112547614D01*
X68524102Y-112555812D01*
X68509686Y-112562630D01*
X68494671Y-112568003D01*
X68479202Y-112571878D01*
X68463428Y-112574218D01*
X68447500Y-112575000D01*
X67712500Y-112575000D01*
X67696572Y-112574218D01*
X67680798Y-112571878D01*
X67665329Y-112568003D01*
X67650314Y-112562630D01*
X67635898Y-112555812D01*
X67622220Y-112547614D01*
X67609411Y-112538114D01*
X67597595Y-112527405D01*
X67586886Y-112515589D01*
X67577386Y-112502780D01*
X67569188Y-112489102D01*
X67562370Y-112474686D01*
X67556997Y-112459671D01*
X67553122Y-112444202D01*
X67550782Y-112428428D01*
X67550000Y-112412500D01*
X67550000Y-112087500D01*
X67550782Y-112071572D01*
X67553122Y-112055798D01*
X67556997Y-112040329D01*
X67562370Y-112025314D01*
X67569188Y-112010898D01*
X67577386Y-111997220D01*
X67586886Y-111984411D01*
X67597595Y-111972595D01*
X67609411Y-111961886D01*
X67622220Y-111952386D01*
X67635898Y-111944188D01*
X67650314Y-111937370D01*
X67665329Y-111931997D01*
X67680798Y-111928122D01*
X67696572Y-111925782D01*
X67712500Y-111925000D01*
X68447500Y-111925000D01*
X68463428Y-111925782D01*
X68463428Y-111925782D01*
G37*
D11*
X68080000Y-112250000D03*
D10*
G36*
X66263428Y-111925782D02*
G01*
X66279202Y-111928122D01*
X66294671Y-111931997D01*
X66309686Y-111937370D01*
X66324102Y-111944188D01*
X66337780Y-111952386D01*
X66350589Y-111961886D01*
X66362405Y-111972595D01*
X66373114Y-111984411D01*
X66382614Y-111997220D01*
X66390812Y-112010898D01*
X66397630Y-112025314D01*
X66403003Y-112040329D01*
X66406878Y-112055798D01*
X66409218Y-112071572D01*
X66410000Y-112087500D01*
X66410000Y-112412500D01*
X66409218Y-112428428D01*
X66406878Y-112444202D01*
X66403003Y-112459671D01*
X66397630Y-112474686D01*
X66390812Y-112489102D01*
X66382614Y-112502780D01*
X66373114Y-112515589D01*
X66362405Y-112527405D01*
X66350589Y-112538114D01*
X66337780Y-112547614D01*
X66324102Y-112555812D01*
X66309686Y-112562630D01*
X66294671Y-112568003D01*
X66279202Y-112571878D01*
X66263428Y-112574218D01*
X66247500Y-112575000D01*
X65512500Y-112575000D01*
X65496572Y-112574218D01*
X65480798Y-112571878D01*
X65465329Y-112568003D01*
X65450314Y-112562630D01*
X65435898Y-112555812D01*
X65422220Y-112547614D01*
X65409411Y-112538114D01*
X65397595Y-112527405D01*
X65386886Y-112515589D01*
X65377386Y-112502780D01*
X65369188Y-112489102D01*
X65362370Y-112474686D01*
X65356997Y-112459671D01*
X65353122Y-112444202D01*
X65350782Y-112428428D01*
X65350000Y-112412500D01*
X65350000Y-112087500D01*
X65350782Y-112071572D01*
X65353122Y-112055798D01*
X65356997Y-112040329D01*
X65362370Y-112025314D01*
X65369188Y-112010898D01*
X65377386Y-111997220D01*
X65386886Y-111984411D01*
X65397595Y-111972595D01*
X65409411Y-111961886D01*
X65422220Y-111952386D01*
X65435898Y-111944188D01*
X65450314Y-111937370D01*
X65465329Y-111931997D01*
X65480798Y-111928122D01*
X65496572Y-111925782D01*
X65512500Y-111925000D01*
X66247500Y-111925000D01*
X66263428Y-111925782D01*
X66263428Y-111925782D01*
G37*
D11*
X65880000Y-112250000D03*
D10*
G36*
X66263428Y-110975782D02*
G01*
X66279202Y-110978122D01*
X66294671Y-110981997D01*
X66309686Y-110987370D01*
X66324102Y-110994188D01*
X66337780Y-111002386D01*
X66350589Y-111011886D01*
X66362405Y-111022595D01*
X66373114Y-111034411D01*
X66382614Y-111047220D01*
X66390812Y-111060898D01*
X66397630Y-111075314D01*
X66403003Y-111090329D01*
X66406878Y-111105798D01*
X66409218Y-111121572D01*
X66410000Y-111137500D01*
X66410000Y-111462500D01*
X66409218Y-111478428D01*
X66406878Y-111494202D01*
X66403003Y-111509671D01*
X66397630Y-111524686D01*
X66390812Y-111539102D01*
X66382614Y-111552780D01*
X66373114Y-111565589D01*
X66362405Y-111577405D01*
X66350589Y-111588114D01*
X66337780Y-111597614D01*
X66324102Y-111605812D01*
X66309686Y-111612630D01*
X66294671Y-111618003D01*
X66279202Y-111621878D01*
X66263428Y-111624218D01*
X66247500Y-111625000D01*
X65512500Y-111625000D01*
X65496572Y-111624218D01*
X65480798Y-111621878D01*
X65465329Y-111618003D01*
X65450314Y-111612630D01*
X65435898Y-111605812D01*
X65422220Y-111597614D01*
X65409411Y-111588114D01*
X65397595Y-111577405D01*
X65386886Y-111565589D01*
X65377386Y-111552780D01*
X65369188Y-111539102D01*
X65362370Y-111524686D01*
X65356997Y-111509671D01*
X65353122Y-111494202D01*
X65350782Y-111478428D01*
X65350000Y-111462500D01*
X65350000Y-111137500D01*
X65350782Y-111121572D01*
X65353122Y-111105798D01*
X65356997Y-111090329D01*
X65362370Y-111075314D01*
X65369188Y-111060898D01*
X65377386Y-111047220D01*
X65386886Y-111034411D01*
X65397595Y-111022595D01*
X65409411Y-111011886D01*
X65422220Y-111002386D01*
X65435898Y-110994188D01*
X65450314Y-110987370D01*
X65465329Y-110981997D01*
X65480798Y-110978122D01*
X65496572Y-110975782D01*
X65512500Y-110975000D01*
X66247500Y-110975000D01*
X66263428Y-110975782D01*
X66263428Y-110975782D01*
G37*
D11*
X65880000Y-111300000D03*
D10*
G36*
X66263428Y-110025782D02*
G01*
X66279202Y-110028122D01*
X66294671Y-110031997D01*
X66309686Y-110037370D01*
X66324102Y-110044188D01*
X66337780Y-110052386D01*
X66350589Y-110061886D01*
X66362405Y-110072595D01*
X66373114Y-110084411D01*
X66382614Y-110097220D01*
X66390812Y-110110898D01*
X66397630Y-110125314D01*
X66403003Y-110140329D01*
X66406878Y-110155798D01*
X66409218Y-110171572D01*
X66410000Y-110187500D01*
X66410000Y-110512500D01*
X66409218Y-110528428D01*
X66406878Y-110544202D01*
X66403003Y-110559671D01*
X66397630Y-110574686D01*
X66390812Y-110589102D01*
X66382614Y-110602780D01*
X66373114Y-110615589D01*
X66362405Y-110627405D01*
X66350589Y-110638114D01*
X66337780Y-110647614D01*
X66324102Y-110655812D01*
X66309686Y-110662630D01*
X66294671Y-110668003D01*
X66279202Y-110671878D01*
X66263428Y-110674218D01*
X66247500Y-110675000D01*
X65512500Y-110675000D01*
X65496572Y-110674218D01*
X65480798Y-110671878D01*
X65465329Y-110668003D01*
X65450314Y-110662630D01*
X65435898Y-110655812D01*
X65422220Y-110647614D01*
X65409411Y-110638114D01*
X65397595Y-110627405D01*
X65386886Y-110615589D01*
X65377386Y-110602780D01*
X65369188Y-110589102D01*
X65362370Y-110574686D01*
X65356997Y-110559671D01*
X65353122Y-110544202D01*
X65350782Y-110528428D01*
X65350000Y-110512500D01*
X65350000Y-110187500D01*
X65350782Y-110171572D01*
X65353122Y-110155798D01*
X65356997Y-110140329D01*
X65362370Y-110125314D01*
X65369188Y-110110898D01*
X65377386Y-110097220D01*
X65386886Y-110084411D01*
X65397595Y-110072595D01*
X65409411Y-110061886D01*
X65422220Y-110052386D01*
X65435898Y-110044188D01*
X65450314Y-110037370D01*
X65465329Y-110031997D01*
X65480798Y-110028122D01*
X65496572Y-110025782D01*
X65512500Y-110025000D01*
X66247500Y-110025000D01*
X66263428Y-110025782D01*
X66263428Y-110025782D01*
G37*
D11*
X65880000Y-110350000D03*
D14*
X90332000Y-111300000D03*
X88332000Y-112250000D03*
X88332000Y-110350000D03*
D10*
G36*
X98575142Y-111751174D02*
G01*
X98598803Y-111754684D01*
X98622007Y-111760496D01*
X98644529Y-111768554D01*
X98666153Y-111778782D01*
X98686670Y-111791079D01*
X98705883Y-111805329D01*
X98723607Y-111821393D01*
X98739671Y-111839117D01*
X98753921Y-111858330D01*
X98766218Y-111878847D01*
X98776446Y-111900471D01*
X98784504Y-111922993D01*
X98790316Y-111946197D01*
X98793826Y-111969858D01*
X98795000Y-111993750D01*
X98795000Y-112481250D01*
X98793826Y-112505142D01*
X98790316Y-112528803D01*
X98784504Y-112552007D01*
X98776446Y-112574529D01*
X98766218Y-112596153D01*
X98753921Y-112616670D01*
X98739671Y-112635883D01*
X98723607Y-112653607D01*
X98705883Y-112669671D01*
X98686670Y-112683921D01*
X98666153Y-112696218D01*
X98644529Y-112706446D01*
X98622007Y-112714504D01*
X98598803Y-112720316D01*
X98575142Y-112723826D01*
X98551250Y-112725000D01*
X97638750Y-112725000D01*
X97614858Y-112723826D01*
X97591197Y-112720316D01*
X97567993Y-112714504D01*
X97545471Y-112706446D01*
X97523847Y-112696218D01*
X97503330Y-112683921D01*
X97484117Y-112669671D01*
X97466393Y-112653607D01*
X97450329Y-112635883D01*
X97436079Y-112616670D01*
X97423782Y-112596153D01*
X97413554Y-112574529D01*
X97405496Y-112552007D01*
X97399684Y-112528803D01*
X97396174Y-112505142D01*
X97395000Y-112481250D01*
X97395000Y-111993750D01*
X97396174Y-111969858D01*
X97399684Y-111946197D01*
X97405496Y-111922993D01*
X97413554Y-111900471D01*
X97423782Y-111878847D01*
X97436079Y-111858330D01*
X97450329Y-111839117D01*
X97466393Y-111821393D01*
X97484117Y-111805329D01*
X97503330Y-111791079D01*
X97523847Y-111778782D01*
X97545471Y-111768554D01*
X97567993Y-111760496D01*
X97591197Y-111754684D01*
X97614858Y-111751174D01*
X97638750Y-111750000D01*
X98551250Y-111750000D01*
X98575142Y-111751174D01*
X98575142Y-111751174D01*
G37*
D12*
X98095000Y-112237500D03*
D10*
G36*
X98575142Y-109876174D02*
G01*
X98598803Y-109879684D01*
X98622007Y-109885496D01*
X98644529Y-109893554D01*
X98666153Y-109903782D01*
X98686670Y-109916079D01*
X98705883Y-109930329D01*
X98723607Y-109946393D01*
X98739671Y-109964117D01*
X98753921Y-109983330D01*
X98766218Y-110003847D01*
X98776446Y-110025471D01*
X98784504Y-110047993D01*
X98790316Y-110071197D01*
X98793826Y-110094858D01*
X98795000Y-110118750D01*
X98795000Y-110606250D01*
X98793826Y-110630142D01*
X98790316Y-110653803D01*
X98784504Y-110677007D01*
X98776446Y-110699529D01*
X98766218Y-110721153D01*
X98753921Y-110741670D01*
X98739671Y-110760883D01*
X98723607Y-110778607D01*
X98705883Y-110794671D01*
X98686670Y-110808921D01*
X98666153Y-110821218D01*
X98644529Y-110831446D01*
X98622007Y-110839504D01*
X98598803Y-110845316D01*
X98575142Y-110848826D01*
X98551250Y-110850000D01*
X97638750Y-110850000D01*
X97614858Y-110848826D01*
X97591197Y-110845316D01*
X97567993Y-110839504D01*
X97545471Y-110831446D01*
X97523847Y-110821218D01*
X97503330Y-110808921D01*
X97484117Y-110794671D01*
X97466393Y-110778607D01*
X97450329Y-110760883D01*
X97436079Y-110741670D01*
X97423782Y-110721153D01*
X97413554Y-110699529D01*
X97405496Y-110677007D01*
X97399684Y-110653803D01*
X97396174Y-110630142D01*
X97395000Y-110606250D01*
X97395000Y-110118750D01*
X97396174Y-110094858D01*
X97399684Y-110071197D01*
X97405496Y-110047993D01*
X97413554Y-110025471D01*
X97423782Y-110003847D01*
X97436079Y-109983330D01*
X97450329Y-109964117D01*
X97466393Y-109946393D01*
X97484117Y-109930329D01*
X97503330Y-109916079D01*
X97523847Y-109903782D01*
X97545471Y-109893554D01*
X97567993Y-109885496D01*
X97591197Y-109879684D01*
X97614858Y-109876174D01*
X97638750Y-109875000D01*
X98551250Y-109875000D01*
X98575142Y-109876174D01*
X98575142Y-109876174D01*
G37*
D12*
X98095000Y-110362500D03*
D10*
G36*
X104290142Y-111751174D02*
G01*
X104313803Y-111754684D01*
X104337007Y-111760496D01*
X104359529Y-111768554D01*
X104381153Y-111778782D01*
X104401670Y-111791079D01*
X104420883Y-111805329D01*
X104438607Y-111821393D01*
X104454671Y-111839117D01*
X104468921Y-111858330D01*
X104481218Y-111878847D01*
X104491446Y-111900471D01*
X104499504Y-111922993D01*
X104505316Y-111946197D01*
X104508826Y-111969858D01*
X104510000Y-111993750D01*
X104510000Y-112481250D01*
X104508826Y-112505142D01*
X104505316Y-112528803D01*
X104499504Y-112552007D01*
X104491446Y-112574529D01*
X104481218Y-112596153D01*
X104468921Y-112616670D01*
X104454671Y-112635883D01*
X104438607Y-112653607D01*
X104420883Y-112669671D01*
X104401670Y-112683921D01*
X104381153Y-112696218D01*
X104359529Y-112706446D01*
X104337007Y-112714504D01*
X104313803Y-112720316D01*
X104290142Y-112723826D01*
X104266250Y-112725000D01*
X103353750Y-112725000D01*
X103329858Y-112723826D01*
X103306197Y-112720316D01*
X103282993Y-112714504D01*
X103260471Y-112706446D01*
X103238847Y-112696218D01*
X103218330Y-112683921D01*
X103199117Y-112669671D01*
X103181393Y-112653607D01*
X103165329Y-112635883D01*
X103151079Y-112616670D01*
X103138782Y-112596153D01*
X103128554Y-112574529D01*
X103120496Y-112552007D01*
X103114684Y-112528803D01*
X103111174Y-112505142D01*
X103110000Y-112481250D01*
X103110000Y-111993750D01*
X103111174Y-111969858D01*
X103114684Y-111946197D01*
X103120496Y-111922993D01*
X103128554Y-111900471D01*
X103138782Y-111878847D01*
X103151079Y-111858330D01*
X103165329Y-111839117D01*
X103181393Y-111821393D01*
X103199117Y-111805329D01*
X103218330Y-111791079D01*
X103238847Y-111778782D01*
X103260471Y-111768554D01*
X103282993Y-111760496D01*
X103306197Y-111754684D01*
X103329858Y-111751174D01*
X103353750Y-111750000D01*
X104266250Y-111750000D01*
X104290142Y-111751174D01*
X104290142Y-111751174D01*
G37*
D12*
X103810000Y-112237500D03*
D10*
G36*
X104290142Y-109876174D02*
G01*
X104313803Y-109879684D01*
X104337007Y-109885496D01*
X104359529Y-109893554D01*
X104381153Y-109903782D01*
X104401670Y-109916079D01*
X104420883Y-109930329D01*
X104438607Y-109946393D01*
X104454671Y-109964117D01*
X104468921Y-109983330D01*
X104481218Y-110003847D01*
X104491446Y-110025471D01*
X104499504Y-110047993D01*
X104505316Y-110071197D01*
X104508826Y-110094858D01*
X104510000Y-110118750D01*
X104510000Y-110606250D01*
X104508826Y-110630142D01*
X104505316Y-110653803D01*
X104499504Y-110677007D01*
X104491446Y-110699529D01*
X104481218Y-110721153D01*
X104468921Y-110741670D01*
X104454671Y-110760883D01*
X104438607Y-110778607D01*
X104420883Y-110794671D01*
X104401670Y-110808921D01*
X104381153Y-110821218D01*
X104359529Y-110831446D01*
X104337007Y-110839504D01*
X104313803Y-110845316D01*
X104290142Y-110848826D01*
X104266250Y-110850000D01*
X103353750Y-110850000D01*
X103329858Y-110848826D01*
X103306197Y-110845316D01*
X103282993Y-110839504D01*
X103260471Y-110831446D01*
X103238847Y-110821218D01*
X103218330Y-110808921D01*
X103199117Y-110794671D01*
X103181393Y-110778607D01*
X103165329Y-110760883D01*
X103151079Y-110741670D01*
X103138782Y-110721153D01*
X103128554Y-110699529D01*
X103120496Y-110677007D01*
X103114684Y-110653803D01*
X103111174Y-110630142D01*
X103110000Y-110606250D01*
X103110000Y-110118750D01*
X103111174Y-110094858D01*
X103114684Y-110071197D01*
X103120496Y-110047993D01*
X103128554Y-110025471D01*
X103138782Y-110003847D01*
X103151079Y-109983330D01*
X103165329Y-109964117D01*
X103181393Y-109946393D01*
X103199117Y-109930329D01*
X103218330Y-109916079D01*
X103238847Y-109903782D01*
X103260471Y-109893554D01*
X103282993Y-109885496D01*
X103306197Y-109879684D01*
X103329858Y-109876174D01*
X103353750Y-109875000D01*
X104266250Y-109875000D01*
X104290142Y-109876174D01*
X104290142Y-109876174D01*
G37*
D12*
X103810000Y-110362500D03*
D10*
G36*
X92860142Y-109876174D02*
G01*
X92883803Y-109879684D01*
X92907007Y-109885496D01*
X92929529Y-109893554D01*
X92951153Y-109903782D01*
X92971670Y-109916079D01*
X92990883Y-109930329D01*
X93008607Y-109946393D01*
X93024671Y-109964117D01*
X93038921Y-109983330D01*
X93051218Y-110003847D01*
X93061446Y-110025471D01*
X93069504Y-110047993D01*
X93075316Y-110071197D01*
X93078826Y-110094858D01*
X93080000Y-110118750D01*
X93080000Y-110606250D01*
X93078826Y-110630142D01*
X93075316Y-110653803D01*
X93069504Y-110677007D01*
X93061446Y-110699529D01*
X93051218Y-110721153D01*
X93038921Y-110741670D01*
X93024671Y-110760883D01*
X93008607Y-110778607D01*
X92990883Y-110794671D01*
X92971670Y-110808921D01*
X92951153Y-110821218D01*
X92929529Y-110831446D01*
X92907007Y-110839504D01*
X92883803Y-110845316D01*
X92860142Y-110848826D01*
X92836250Y-110850000D01*
X91923750Y-110850000D01*
X91899858Y-110848826D01*
X91876197Y-110845316D01*
X91852993Y-110839504D01*
X91830471Y-110831446D01*
X91808847Y-110821218D01*
X91788330Y-110808921D01*
X91769117Y-110794671D01*
X91751393Y-110778607D01*
X91735329Y-110760883D01*
X91721079Y-110741670D01*
X91708782Y-110721153D01*
X91698554Y-110699529D01*
X91690496Y-110677007D01*
X91684684Y-110653803D01*
X91681174Y-110630142D01*
X91680000Y-110606250D01*
X91680000Y-110118750D01*
X91681174Y-110094858D01*
X91684684Y-110071197D01*
X91690496Y-110047993D01*
X91698554Y-110025471D01*
X91708782Y-110003847D01*
X91721079Y-109983330D01*
X91735329Y-109964117D01*
X91751393Y-109946393D01*
X91769117Y-109930329D01*
X91788330Y-109916079D01*
X91808847Y-109903782D01*
X91830471Y-109893554D01*
X91852993Y-109885496D01*
X91876197Y-109879684D01*
X91899858Y-109876174D01*
X91923750Y-109875000D01*
X92836250Y-109875000D01*
X92860142Y-109876174D01*
X92860142Y-109876174D01*
G37*
D12*
X92380000Y-110362500D03*
D10*
G36*
X92860142Y-111751174D02*
G01*
X92883803Y-111754684D01*
X92907007Y-111760496D01*
X92929529Y-111768554D01*
X92951153Y-111778782D01*
X92971670Y-111791079D01*
X92990883Y-111805329D01*
X93008607Y-111821393D01*
X93024671Y-111839117D01*
X93038921Y-111858330D01*
X93051218Y-111878847D01*
X93061446Y-111900471D01*
X93069504Y-111922993D01*
X93075316Y-111946197D01*
X93078826Y-111969858D01*
X93080000Y-111993750D01*
X93080000Y-112481250D01*
X93078826Y-112505142D01*
X93075316Y-112528803D01*
X93069504Y-112552007D01*
X93061446Y-112574529D01*
X93051218Y-112596153D01*
X93038921Y-112616670D01*
X93024671Y-112635883D01*
X93008607Y-112653607D01*
X92990883Y-112669671D01*
X92971670Y-112683921D01*
X92951153Y-112696218D01*
X92929529Y-112706446D01*
X92907007Y-112714504D01*
X92883803Y-112720316D01*
X92860142Y-112723826D01*
X92836250Y-112725000D01*
X91923750Y-112725000D01*
X91899858Y-112723826D01*
X91876197Y-112720316D01*
X91852993Y-112714504D01*
X91830471Y-112706446D01*
X91808847Y-112696218D01*
X91788330Y-112683921D01*
X91769117Y-112669671D01*
X91751393Y-112653607D01*
X91735329Y-112635883D01*
X91721079Y-112616670D01*
X91708782Y-112596153D01*
X91698554Y-112574529D01*
X91690496Y-112552007D01*
X91684684Y-112528803D01*
X91681174Y-112505142D01*
X91680000Y-112481250D01*
X91680000Y-111993750D01*
X91681174Y-111969858D01*
X91684684Y-111946197D01*
X91690496Y-111922993D01*
X91698554Y-111900471D01*
X91708782Y-111878847D01*
X91721079Y-111858330D01*
X91735329Y-111839117D01*
X91751393Y-111821393D01*
X91769117Y-111805329D01*
X91788330Y-111791079D01*
X91808847Y-111778782D01*
X91830471Y-111768554D01*
X91852993Y-111760496D01*
X91876197Y-111754684D01*
X91899858Y-111751174D01*
X91923750Y-111750000D01*
X92836250Y-111750000D01*
X92860142Y-111751174D01*
X92860142Y-111751174D01*
G37*
D12*
X92380000Y-112237500D03*
D10*
G36*
X142491742Y-111751174D02*
G01*
X142515403Y-111754684D01*
X142538607Y-111760496D01*
X142561129Y-111768554D01*
X142582753Y-111778782D01*
X142603270Y-111791079D01*
X142622483Y-111805329D01*
X142640207Y-111821393D01*
X142656271Y-111839117D01*
X142670521Y-111858330D01*
X142682818Y-111878847D01*
X142693046Y-111900471D01*
X142701104Y-111922993D01*
X142706916Y-111946197D01*
X142710426Y-111969858D01*
X142711600Y-111993750D01*
X142711600Y-112481250D01*
X142710426Y-112505142D01*
X142706916Y-112528803D01*
X142701104Y-112552007D01*
X142693046Y-112574529D01*
X142682818Y-112596153D01*
X142670521Y-112616670D01*
X142656271Y-112635883D01*
X142640207Y-112653607D01*
X142622483Y-112669671D01*
X142603270Y-112683921D01*
X142582753Y-112696218D01*
X142561129Y-112706446D01*
X142538607Y-112714504D01*
X142515403Y-112720316D01*
X142491742Y-112723826D01*
X142467850Y-112725000D01*
X141555350Y-112725000D01*
X141531458Y-112723826D01*
X141507797Y-112720316D01*
X141484593Y-112714504D01*
X141462071Y-112706446D01*
X141440447Y-112696218D01*
X141419930Y-112683921D01*
X141400717Y-112669671D01*
X141382993Y-112653607D01*
X141366929Y-112635883D01*
X141352679Y-112616670D01*
X141340382Y-112596153D01*
X141330154Y-112574529D01*
X141322096Y-112552007D01*
X141316284Y-112528803D01*
X141312774Y-112505142D01*
X141311600Y-112481250D01*
X141311600Y-111993750D01*
X141312774Y-111969858D01*
X141316284Y-111946197D01*
X141322096Y-111922993D01*
X141330154Y-111900471D01*
X141340382Y-111878847D01*
X141352679Y-111858330D01*
X141366929Y-111839117D01*
X141382993Y-111821393D01*
X141400717Y-111805329D01*
X141419930Y-111791079D01*
X141440447Y-111778782D01*
X141462071Y-111768554D01*
X141484593Y-111760496D01*
X141507797Y-111754684D01*
X141531458Y-111751174D01*
X141555350Y-111750000D01*
X142467850Y-111750000D01*
X142491742Y-111751174D01*
X142491742Y-111751174D01*
G37*
D12*
X142011600Y-112237500D03*
D10*
G36*
X142491742Y-109876174D02*
G01*
X142515403Y-109879684D01*
X142538607Y-109885496D01*
X142561129Y-109893554D01*
X142582753Y-109903782D01*
X142603270Y-109916079D01*
X142622483Y-109930329D01*
X142640207Y-109946393D01*
X142656271Y-109964117D01*
X142670521Y-109983330D01*
X142682818Y-110003847D01*
X142693046Y-110025471D01*
X142701104Y-110047993D01*
X142706916Y-110071197D01*
X142710426Y-110094858D01*
X142711600Y-110118750D01*
X142711600Y-110606250D01*
X142710426Y-110630142D01*
X142706916Y-110653803D01*
X142701104Y-110677007D01*
X142693046Y-110699529D01*
X142682818Y-110721153D01*
X142670521Y-110741670D01*
X142656271Y-110760883D01*
X142640207Y-110778607D01*
X142622483Y-110794671D01*
X142603270Y-110808921D01*
X142582753Y-110821218D01*
X142561129Y-110831446D01*
X142538607Y-110839504D01*
X142515403Y-110845316D01*
X142491742Y-110848826D01*
X142467850Y-110850000D01*
X141555350Y-110850000D01*
X141531458Y-110848826D01*
X141507797Y-110845316D01*
X141484593Y-110839504D01*
X141462071Y-110831446D01*
X141440447Y-110821218D01*
X141419930Y-110808921D01*
X141400717Y-110794671D01*
X141382993Y-110778607D01*
X141366929Y-110760883D01*
X141352679Y-110741670D01*
X141340382Y-110721153D01*
X141330154Y-110699529D01*
X141322096Y-110677007D01*
X141316284Y-110653803D01*
X141312774Y-110630142D01*
X141311600Y-110606250D01*
X141311600Y-110118750D01*
X141312774Y-110094858D01*
X141316284Y-110071197D01*
X141322096Y-110047993D01*
X141330154Y-110025471D01*
X141340382Y-110003847D01*
X141352679Y-109983330D01*
X141366929Y-109964117D01*
X141382993Y-109946393D01*
X141400717Y-109930329D01*
X141419930Y-109916079D01*
X141440447Y-109903782D01*
X141462071Y-109893554D01*
X141484593Y-109885496D01*
X141507797Y-109879684D01*
X141531458Y-109876174D01*
X141555350Y-109875000D01*
X142467850Y-109875000D01*
X142491742Y-109876174D01*
X142491742Y-109876174D01*
G37*
D12*
X142011600Y-110362500D03*
D10*
G36*
X58468542Y-111751174D02*
G01*
X58492203Y-111754684D01*
X58515407Y-111760496D01*
X58537929Y-111768554D01*
X58559553Y-111778782D01*
X58580070Y-111791079D01*
X58599283Y-111805329D01*
X58617007Y-111821393D01*
X58633071Y-111839117D01*
X58647321Y-111858330D01*
X58659618Y-111878847D01*
X58669846Y-111900471D01*
X58677904Y-111922993D01*
X58683716Y-111946197D01*
X58687226Y-111969858D01*
X58688400Y-111993750D01*
X58688400Y-112481250D01*
X58687226Y-112505142D01*
X58683716Y-112528803D01*
X58677904Y-112552007D01*
X58669846Y-112574529D01*
X58659618Y-112596153D01*
X58647321Y-112616670D01*
X58633071Y-112635883D01*
X58617007Y-112653607D01*
X58599283Y-112669671D01*
X58580070Y-112683921D01*
X58559553Y-112696218D01*
X58537929Y-112706446D01*
X58515407Y-112714504D01*
X58492203Y-112720316D01*
X58468542Y-112723826D01*
X58444650Y-112725000D01*
X57532150Y-112725000D01*
X57508258Y-112723826D01*
X57484597Y-112720316D01*
X57461393Y-112714504D01*
X57438871Y-112706446D01*
X57417247Y-112696218D01*
X57396730Y-112683921D01*
X57377517Y-112669671D01*
X57359793Y-112653607D01*
X57343729Y-112635883D01*
X57329479Y-112616670D01*
X57317182Y-112596153D01*
X57306954Y-112574529D01*
X57298896Y-112552007D01*
X57293084Y-112528803D01*
X57289574Y-112505142D01*
X57288400Y-112481250D01*
X57288400Y-111993750D01*
X57289574Y-111969858D01*
X57293084Y-111946197D01*
X57298896Y-111922993D01*
X57306954Y-111900471D01*
X57317182Y-111878847D01*
X57329479Y-111858330D01*
X57343729Y-111839117D01*
X57359793Y-111821393D01*
X57377517Y-111805329D01*
X57396730Y-111791079D01*
X57417247Y-111778782D01*
X57438871Y-111768554D01*
X57461393Y-111760496D01*
X57484597Y-111754684D01*
X57508258Y-111751174D01*
X57532150Y-111750000D01*
X58444650Y-111750000D01*
X58468542Y-111751174D01*
X58468542Y-111751174D01*
G37*
D12*
X57988400Y-112237500D03*
D10*
G36*
X58468542Y-109876174D02*
G01*
X58492203Y-109879684D01*
X58515407Y-109885496D01*
X58537929Y-109893554D01*
X58559553Y-109903782D01*
X58580070Y-109916079D01*
X58599283Y-109930329D01*
X58617007Y-109946393D01*
X58633071Y-109964117D01*
X58647321Y-109983330D01*
X58659618Y-110003847D01*
X58669846Y-110025471D01*
X58677904Y-110047993D01*
X58683716Y-110071197D01*
X58687226Y-110094858D01*
X58688400Y-110118750D01*
X58688400Y-110606250D01*
X58687226Y-110630142D01*
X58683716Y-110653803D01*
X58677904Y-110677007D01*
X58669846Y-110699529D01*
X58659618Y-110721153D01*
X58647321Y-110741670D01*
X58633071Y-110760883D01*
X58617007Y-110778607D01*
X58599283Y-110794671D01*
X58580070Y-110808921D01*
X58559553Y-110821218D01*
X58537929Y-110831446D01*
X58515407Y-110839504D01*
X58492203Y-110845316D01*
X58468542Y-110848826D01*
X58444650Y-110850000D01*
X57532150Y-110850000D01*
X57508258Y-110848826D01*
X57484597Y-110845316D01*
X57461393Y-110839504D01*
X57438871Y-110831446D01*
X57417247Y-110821218D01*
X57396730Y-110808921D01*
X57377517Y-110794671D01*
X57359793Y-110778607D01*
X57343729Y-110760883D01*
X57329479Y-110741670D01*
X57317182Y-110721153D01*
X57306954Y-110699529D01*
X57298896Y-110677007D01*
X57293084Y-110653803D01*
X57289574Y-110630142D01*
X57288400Y-110606250D01*
X57288400Y-110118750D01*
X57289574Y-110094858D01*
X57293084Y-110071197D01*
X57298896Y-110047993D01*
X57306954Y-110025471D01*
X57317182Y-110003847D01*
X57329479Y-109983330D01*
X57343729Y-109964117D01*
X57359793Y-109946393D01*
X57377517Y-109930329D01*
X57396730Y-109916079D01*
X57417247Y-109903782D01*
X57438871Y-109893554D01*
X57461393Y-109885496D01*
X57484597Y-109879684D01*
X57508258Y-109876174D01*
X57532150Y-109875000D01*
X58444650Y-109875000D01*
X58468542Y-109876174D01*
X58468542Y-109876174D01*
G37*
D12*
X57988400Y-110362500D03*
M02*
