G04 #@! TF.GenerationSoftware,KiCad,Pcbnew,(5.1.2)-2*
G04 #@! TF.CreationDate,2019-11-13T18:46:13+01:00*
G04 #@! TF.ProjectId,INTERFACE,494e5445-5246-4414-9345-2e6b69636164,rev?*
G04 #@! TF.SameCoordinates,Original*
G04 #@! TF.FileFunction,Legend,Top*
G04 #@! TF.FilePolarity,Positive*
%FSLAX46Y46*%
G04 Gerber Fmt 4.6, Leading zero omitted, Abs format (unit mm)*
G04 Created by KiCad (PCBNEW (5.1.2)-2) date 2019-11-13 18:46:13*
%MOMM*%
%LPD*%
G04 APERTURE LIST*
%ADD10C,0.300000*%
%ADD11C,0.127000*%
%ADD12C,0.250000*%
%ADD13C,0.120000*%
G04 APERTURE END LIST*
D10*
X93071428Y48821428D02*
X93071428Y47750000D01*
X93000000Y47535714D01*
X92857142Y47392857D01*
X92642857Y47321428D01*
X92500000Y47321428D01*
X94500000Y47321428D02*
X93785714Y47321428D01*
X93785714Y48821428D01*
X95857142Y47464285D02*
X95785714Y47392857D01*
X95571428Y47321428D01*
X95428571Y47321428D01*
X95214285Y47392857D01*
X95071428Y47535714D01*
X95000000Y47678571D01*
X94928571Y47964285D01*
X94928571Y48178571D01*
X95000000Y48464285D01*
X95071428Y48607142D01*
X95214285Y48750000D01*
X95428571Y48821428D01*
X95571428Y48821428D01*
X95785714Y48750000D01*
X95857142Y48678571D01*
X96928571Y48821428D02*
X96928571Y47750000D01*
X96857142Y47535714D01*
X96714285Y47392857D01*
X96500000Y47321428D01*
X96357142Y47321428D01*
X98357142Y47321428D02*
X97642857Y47321428D01*
X97642857Y48821428D01*
X99714285Y47464285D02*
X99642857Y47392857D01*
X99428571Y47321428D01*
X99285714Y47321428D01*
X99071428Y47392857D01*
X98928571Y47535714D01*
X98857142Y47678571D01*
X98785714Y47964285D01*
X98785714Y48178571D01*
X98857142Y48464285D01*
X98928571Y48607142D01*
X99071428Y48750000D01*
X99285714Y48821428D01*
X99428571Y48821428D01*
X99642857Y48750000D01*
X99714285Y48678571D01*
X100785714Y48821428D02*
X100785714Y47750000D01*
X100714285Y47535714D01*
X100571428Y47392857D01*
X100357142Y47321428D01*
X100214285Y47321428D01*
X102214285Y47321428D02*
X101500000Y47321428D01*
X101500000Y48821428D01*
X103571428Y47464285D02*
X103500000Y47392857D01*
X103285714Y47321428D01*
X103142857Y47321428D01*
X102928571Y47392857D01*
X102785714Y47535714D01*
X102714285Y47678571D01*
X102642857Y47964285D01*
X102642857Y48178571D01*
X102714285Y48464285D01*
X102785714Y48607142D01*
X102928571Y48750000D01*
X103142857Y48821428D01*
X103285714Y48821428D01*
X103500000Y48750000D01*
X103571428Y48678571D01*
X104642857Y48821428D02*
X104642857Y47750000D01*
X104571428Y47535714D01*
X104428571Y47392857D01*
X104214285Y47321428D01*
X104071428Y47321428D01*
X106071428Y47321428D02*
X105357142Y47321428D01*
X105357142Y48821428D01*
X107428571Y47464285D02*
X107357142Y47392857D01*
X107142857Y47321428D01*
X107000000Y47321428D01*
X106785714Y47392857D01*
X106642857Y47535714D01*
X106571428Y47678571D01*
X106500000Y47964285D01*
X106500000Y48178571D01*
X106571428Y48464285D01*
X106642857Y48607142D01*
X106785714Y48750000D01*
X107000000Y48821428D01*
X107142857Y48821428D01*
X107357142Y48750000D01*
X107428571Y48678571D01*
D11*
X91345857Y-102062261D02*
X91345857Y-101427261D01*
X91708714Y-102062261D02*
X91708714Y-101427261D01*
X92144142Y-102062261D01*
X92144142Y-101427261D01*
X92398142Y-101427261D02*
X92833571Y-101427261D01*
X92615857Y-102062261D02*
X92615857Y-101427261D01*
X93087571Y-101729642D02*
X93341571Y-101729642D01*
X93450428Y-102062261D02*
X93087571Y-102062261D01*
X93087571Y-101427261D01*
X93450428Y-101427261D01*
X94212428Y-102062261D02*
X93958428Y-101759880D01*
X93777000Y-102062261D02*
X93777000Y-101427261D01*
X94067285Y-101427261D01*
X94139857Y-101457500D01*
X94176142Y-101487738D01*
X94212428Y-101548214D01*
X94212428Y-101638928D01*
X94176142Y-101699404D01*
X94139857Y-101729642D01*
X94067285Y-101759880D01*
X93777000Y-101759880D01*
X94793000Y-101729642D02*
X94539000Y-101729642D01*
X94539000Y-102062261D02*
X94539000Y-101427261D01*
X94901857Y-101427261D01*
X95155857Y-101880833D02*
X95518714Y-101880833D01*
X95083285Y-102062261D02*
X95337285Y-101427261D01*
X95591285Y-102062261D01*
X96280714Y-102001785D02*
X96244428Y-102032023D01*
X96135571Y-102062261D01*
X96063000Y-102062261D01*
X95954142Y-102032023D01*
X95881571Y-101971547D01*
X95845285Y-101911071D01*
X95809000Y-101790119D01*
X95809000Y-101699404D01*
X95845285Y-101578452D01*
X95881571Y-101517976D01*
X95954142Y-101457500D01*
X96063000Y-101427261D01*
X96135571Y-101427261D01*
X96244428Y-101457500D01*
X96280714Y-101487738D01*
X96607285Y-101729642D02*
X96861285Y-101729642D01*
X96970142Y-102062261D02*
X96607285Y-102062261D01*
X96607285Y-101427261D01*
X96970142Y-101427261D01*
X97841000Y-101487738D02*
X97877285Y-101457500D01*
X97949857Y-101427261D01*
X98131285Y-101427261D01*
X98203857Y-101457500D01*
X98240142Y-101487738D01*
X98276428Y-101548214D01*
X98276428Y-101608690D01*
X98240142Y-101699404D01*
X97804714Y-102062261D01*
X98276428Y-102062261D01*
X98748142Y-101427261D02*
X98820714Y-101427261D01*
X98893285Y-101457500D01*
X98929571Y-101487738D01*
X98965857Y-101548214D01*
X99002142Y-101669166D01*
X99002142Y-101820357D01*
X98965857Y-101941309D01*
X98929571Y-102001785D01*
X98893285Y-102032023D01*
X98820714Y-102062261D01*
X98748142Y-102062261D01*
X98675571Y-102032023D01*
X98639285Y-102001785D01*
X98603000Y-101941309D01*
X98566714Y-101820357D01*
X98566714Y-101669166D01*
X98603000Y-101548214D01*
X98639285Y-101487738D01*
X98675571Y-101457500D01*
X98748142Y-101427261D01*
X99727857Y-102062261D02*
X99292428Y-102062261D01*
X99510142Y-102062261D02*
X99510142Y-101427261D01*
X99437571Y-101517976D01*
X99365000Y-101578452D01*
X99292428Y-101608690D01*
X100090714Y-102062261D02*
X100235857Y-102062261D01*
X100308428Y-102032023D01*
X100344714Y-102001785D01*
X100417285Y-101911071D01*
X100453571Y-101790119D01*
X100453571Y-101548214D01*
X100417285Y-101487738D01*
X100381000Y-101457500D01*
X100308428Y-101427261D01*
X100163285Y-101427261D01*
X100090714Y-101457500D01*
X100054428Y-101487738D01*
X100018142Y-101548214D01*
X100018142Y-101699404D01*
X100054428Y-101759880D01*
X100090714Y-101790119D01*
X100163285Y-101820357D01*
X100308428Y-101820357D01*
X100381000Y-101790119D01*
X100417285Y-101759880D01*
X100453571Y-101699404D01*
X101324428Y-101397023D02*
X100671285Y-102213452D01*
X101977571Y-102062261D02*
X101542142Y-102062261D01*
X101759857Y-102062261D02*
X101759857Y-101427261D01*
X101687285Y-101517976D01*
X101614714Y-101578452D01*
X101542142Y-101608690D01*
X102703285Y-102062261D02*
X102267857Y-102062261D01*
X102485571Y-102062261D02*
X102485571Y-101427261D01*
X102413000Y-101517976D01*
X102340428Y-101578452D01*
X102267857Y-101608690D01*
X103610428Y-101729642D02*
X103864428Y-101729642D01*
X103973285Y-102062261D02*
X103610428Y-102062261D01*
X103610428Y-101427261D01*
X103973285Y-101427261D01*
X104299857Y-101729642D02*
X104553857Y-101729642D01*
X104662714Y-102062261D02*
X104299857Y-102062261D01*
X104299857Y-101427261D01*
X104662714Y-101427261D01*
X104989285Y-102001785D02*
X105025571Y-102032023D01*
X104989285Y-102062261D01*
X104953000Y-102032023D01*
X104989285Y-102001785D01*
X104989285Y-102062261D01*
X104989285Y-101669166D02*
X105025571Y-101699404D01*
X104989285Y-101729642D01*
X104953000Y-101699404D01*
X104989285Y-101669166D01*
X104989285Y-101729642D01*
X105896428Y-102032023D02*
X106005285Y-102062261D01*
X106186714Y-102062261D01*
X106259285Y-102032023D01*
X106295571Y-102001785D01*
X106331857Y-101941309D01*
X106331857Y-101880833D01*
X106295571Y-101820357D01*
X106259285Y-101790119D01*
X106186714Y-101759880D01*
X106041571Y-101729642D01*
X105969000Y-101699404D01*
X105932714Y-101669166D01*
X105896428Y-101608690D01*
X105896428Y-101548214D01*
X105932714Y-101487738D01*
X105969000Y-101457500D01*
X106041571Y-101427261D01*
X106223000Y-101427261D01*
X106331857Y-101457500D01*
X106658428Y-101427261D02*
X106658428Y-101941309D01*
X106694714Y-102001785D01*
X106731000Y-102032023D01*
X106803571Y-102062261D01*
X106948714Y-102062261D01*
X107021285Y-102032023D01*
X107057571Y-102001785D01*
X107093857Y-101941309D01*
X107093857Y-101427261D01*
X107456714Y-102062261D02*
X107456714Y-101427261D01*
X107892142Y-102062261D02*
X107565571Y-101699404D01*
X107892142Y-101427261D02*
X107456714Y-101790119D01*
X108218714Y-101427261D02*
X108218714Y-101941309D01*
X108255000Y-102001785D01*
X108291285Y-102032023D01*
X108363857Y-102062261D01*
X108509000Y-102062261D01*
X108581571Y-102032023D01*
X108617857Y-102001785D01*
X108654142Y-101941309D01*
X108654142Y-101427261D01*
X132974642Y-112170857D02*
X132974642Y-112424857D01*
X133307261Y-112424857D02*
X132672261Y-112424857D01*
X132672261Y-112062000D01*
X133125833Y-111808000D02*
X133125833Y-111445142D01*
X133307261Y-111880571D02*
X132672261Y-111626571D01*
X133307261Y-111372571D01*
X133277023Y-111154857D02*
X133307261Y-111046000D01*
X133307261Y-110864571D01*
X133277023Y-110792000D01*
X133246785Y-110755714D01*
X133186309Y-110719428D01*
X133125833Y-110719428D01*
X133065357Y-110755714D01*
X133035119Y-110792000D01*
X133004880Y-110864571D01*
X132974642Y-111009714D01*
X132944404Y-111082285D01*
X132914166Y-111118571D01*
X132853690Y-111154857D01*
X132793214Y-111154857D01*
X132732738Y-111118571D01*
X132702500Y-111082285D01*
X132672261Y-111009714D01*
X132672261Y-110828285D01*
X132702500Y-110719428D01*
X132672261Y-110501714D02*
X132672261Y-110066285D01*
X133307261Y-110284000D02*
X132672261Y-110284000D01*
X136784642Y-112170857D02*
X136784642Y-112424857D01*
X137117261Y-112424857D02*
X136482261Y-112424857D01*
X136482261Y-112062000D01*
X136935833Y-111808000D02*
X136935833Y-111445142D01*
X137117261Y-111880571D02*
X136482261Y-111626571D01*
X137117261Y-111372571D01*
X137087023Y-111154857D02*
X137117261Y-111046000D01*
X137117261Y-110864571D01*
X137087023Y-110792000D01*
X137056785Y-110755714D01*
X136996309Y-110719428D01*
X136935833Y-110719428D01*
X136875357Y-110755714D01*
X136845119Y-110792000D01*
X136814880Y-110864571D01*
X136784642Y-111009714D01*
X136754404Y-111082285D01*
X136724166Y-111118571D01*
X136663690Y-111154857D01*
X136603214Y-111154857D01*
X136542738Y-111118571D01*
X136512500Y-111082285D01*
X136482261Y-111009714D01*
X136482261Y-110828285D01*
X136512500Y-110719428D01*
X136482261Y-110501714D02*
X136482261Y-110066285D01*
X137117261Y-110284000D02*
X136482261Y-110284000D01*
X63124642Y-112170857D02*
X63124642Y-112424857D01*
X63457261Y-112424857D02*
X62822261Y-112424857D01*
X62822261Y-112062000D01*
X63275833Y-111808000D02*
X63275833Y-111445142D01*
X63457261Y-111880571D02*
X62822261Y-111626571D01*
X63457261Y-111372571D01*
X63427023Y-111154857D02*
X63457261Y-111046000D01*
X63457261Y-110864571D01*
X63427023Y-110792000D01*
X63396785Y-110755714D01*
X63336309Y-110719428D01*
X63275833Y-110719428D01*
X63215357Y-110755714D01*
X63185119Y-110792000D01*
X63154880Y-110864571D01*
X63124642Y-111009714D01*
X63094404Y-111082285D01*
X63064166Y-111118571D01*
X63003690Y-111154857D01*
X62943214Y-111154857D01*
X62882738Y-111118571D01*
X62852500Y-111082285D01*
X62822261Y-111009714D01*
X62822261Y-110828285D01*
X62852500Y-110719428D01*
X62822261Y-110501714D02*
X62822261Y-110066285D01*
X63457261Y-110284000D02*
X62822261Y-110284000D01*
X66934642Y-112170857D02*
X66934642Y-112424857D01*
X67267261Y-112424857D02*
X66632261Y-112424857D01*
X66632261Y-112062000D01*
X67085833Y-111808000D02*
X67085833Y-111445142D01*
X67267261Y-111880571D02*
X66632261Y-111626571D01*
X67267261Y-111372571D01*
X67237023Y-111154857D02*
X67267261Y-111046000D01*
X67267261Y-110864571D01*
X67237023Y-110792000D01*
X67206785Y-110755714D01*
X67146309Y-110719428D01*
X67085833Y-110719428D01*
X67025357Y-110755714D01*
X66995119Y-110792000D01*
X66964880Y-110864571D01*
X66934642Y-111009714D01*
X66904404Y-111082285D01*
X66874166Y-111118571D01*
X66813690Y-111154857D01*
X66753214Y-111154857D01*
X66692738Y-111118571D01*
X66662500Y-111082285D01*
X66632261Y-111009714D01*
X66632261Y-110828285D01*
X66662500Y-110719428D01*
X66632261Y-110501714D02*
X66632261Y-110066285D01*
X67267261Y-110284000D02*
X66632261Y-110284000D01*
X89492261Y-111499571D02*
X88857261Y-111499571D01*
X88857261Y-111318142D01*
X88887500Y-111209285D01*
X88947976Y-111136714D01*
X89008452Y-111100428D01*
X89129404Y-111064142D01*
X89220119Y-111064142D01*
X89341071Y-111100428D01*
X89401547Y-111136714D01*
X89462023Y-111209285D01*
X89492261Y-111318142D01*
X89492261Y-111499571D01*
X107090833Y-112297857D02*
X107090833Y-111935000D01*
X107272261Y-112370428D02*
X106637261Y-112116428D01*
X107272261Y-111862428D01*
X107272261Y-111608428D02*
X106637261Y-111608428D01*
X107090833Y-111354428D01*
X106637261Y-111100428D01*
X107272261Y-111100428D01*
X107272261Y-110737571D02*
X106637261Y-110737571D01*
X106637261Y-110447285D01*
X106667500Y-110374714D01*
X106697738Y-110338428D01*
X106758214Y-110302142D01*
X106848928Y-110302142D01*
X106909404Y-110338428D01*
X106939642Y-110374714D01*
X106969880Y-110447285D01*
X106969880Y-110737571D01*
X83777261Y-112461142D02*
X83142261Y-112461142D01*
X83444642Y-112461142D02*
X83444642Y-112025714D01*
X83777261Y-112025714D02*
X83142261Y-112025714D01*
X83595833Y-111699142D02*
X83595833Y-111336285D01*
X83777261Y-111771714D02*
X83142261Y-111517714D01*
X83777261Y-111263714D01*
X83777261Y-110646857D02*
X83777261Y-111009714D01*
X83142261Y-111009714D01*
X83777261Y-110030000D02*
X83777261Y-110392857D01*
X83142261Y-110392857D01*
X121242261Y-112316000D02*
X120607261Y-112316000D01*
X120607261Y-112025714D01*
X120637500Y-111953142D01*
X120667738Y-111916857D01*
X120728214Y-111880571D01*
X120818928Y-111880571D01*
X120879404Y-111916857D01*
X120909642Y-111953142D01*
X120939880Y-112025714D01*
X120939880Y-112316000D01*
X120607261Y-111626571D02*
X121242261Y-111445142D01*
X120788690Y-111300000D01*
X121242261Y-111154857D01*
X120607261Y-110973428D01*
X121242261Y-110247714D02*
X120939880Y-110501714D01*
X121242261Y-110683142D02*
X120607261Y-110683142D01*
X120607261Y-110392857D01*
X120637500Y-110320285D01*
X120667738Y-110284000D01*
X120728214Y-110247714D01*
X120818928Y-110247714D01*
X120879404Y-110284000D01*
X120909642Y-110320285D01*
X120939880Y-110392857D01*
X120939880Y-110683142D01*
X79332261Y-112316000D02*
X78697261Y-112316000D01*
X78697261Y-112025714D01*
X78727500Y-111953142D01*
X78757738Y-111916857D01*
X78818214Y-111880571D01*
X78908928Y-111880571D01*
X78969404Y-111916857D01*
X78999642Y-111953142D01*
X79029880Y-112025714D01*
X79029880Y-112316000D01*
X78697261Y-111626571D02*
X79332261Y-111445142D01*
X78878690Y-111300000D01*
X79332261Y-111154857D01*
X78697261Y-110973428D01*
X79332261Y-110247714D02*
X79029880Y-110501714D01*
X79332261Y-110683142D02*
X78697261Y-110683142D01*
X78697261Y-110392857D01*
X78727500Y-110320285D01*
X78757738Y-110284000D01*
X78818214Y-110247714D01*
X78908928Y-110247714D01*
X78969404Y-110284000D01*
X78999642Y-110320285D01*
X79029880Y-110392857D01*
X79029880Y-110683142D01*
X125354642Y-112207142D02*
X125354642Y-111953142D01*
X125687261Y-111844285D02*
X125687261Y-112207142D01*
X125052261Y-112207142D01*
X125052261Y-111844285D01*
X125657023Y-111554000D02*
X125687261Y-111445142D01*
X125687261Y-111263714D01*
X125657023Y-111191142D01*
X125626785Y-111154857D01*
X125566309Y-111118571D01*
X125505833Y-111118571D01*
X125445357Y-111154857D01*
X125415119Y-111191142D01*
X125384880Y-111263714D01*
X125354642Y-111408857D01*
X125324404Y-111481428D01*
X125294166Y-111517714D01*
X125233690Y-111554000D01*
X125173214Y-111554000D01*
X125112738Y-111517714D01*
X125082500Y-111481428D01*
X125052261Y-111408857D01*
X125052261Y-111227428D01*
X125082500Y-111118571D01*
X125687261Y-110792000D02*
X125052261Y-110792000D01*
X125052261Y-110610571D01*
X125082500Y-110501714D01*
X125142976Y-110429142D01*
X125203452Y-110392857D01*
X125324404Y-110356571D01*
X125415119Y-110356571D01*
X125536071Y-110392857D01*
X125596547Y-110429142D01*
X125657023Y-110501714D01*
X125687261Y-110610571D01*
X125687261Y-110792000D01*
X74554642Y-112207142D02*
X74554642Y-111953142D01*
X74887261Y-111844285D02*
X74887261Y-112207142D01*
X74252261Y-112207142D01*
X74252261Y-111844285D01*
X74857023Y-111554000D02*
X74887261Y-111445142D01*
X74887261Y-111263714D01*
X74857023Y-111191142D01*
X74826785Y-111154857D01*
X74766309Y-111118571D01*
X74705833Y-111118571D01*
X74645357Y-111154857D01*
X74615119Y-111191142D01*
X74584880Y-111263714D01*
X74554642Y-111408857D01*
X74524404Y-111481428D01*
X74494166Y-111517714D01*
X74433690Y-111554000D01*
X74373214Y-111554000D01*
X74312738Y-111517714D01*
X74282500Y-111481428D01*
X74252261Y-111408857D01*
X74252261Y-111227428D01*
X74282500Y-111118571D01*
X74887261Y-110792000D02*
X74252261Y-110792000D01*
X74252261Y-110610571D01*
X74282500Y-110501714D01*
X74342976Y-110429142D01*
X74403452Y-110392857D01*
X74524404Y-110356571D01*
X74615119Y-110356571D01*
X74736071Y-110392857D01*
X74796547Y-110429142D01*
X74857023Y-110501714D01*
X74887261Y-110610571D01*
X74887261Y-110792000D01*
D12*
X119302000Y-109522000D02*
G75*
G03X119302000Y-109522000I-125000J0D01*
G01*
D13*
X121855000Y-109690000D02*
X119405000Y-109690000D01*
X120055000Y-112910000D02*
X121855000Y-112910000D01*
X72085400Y-111325400D02*
G75*
G02X71679000Y-111325400I-203200J0D01*
G01*
X71348800Y-111528600D02*
X71679000Y-111300000D01*
X71679000Y-111096800D02*
X71679000Y-111325400D01*
X72085400Y-111096800D02*
X72085400Y-111376200D01*
X71348800Y-111096800D02*
X72085400Y-111096800D01*
X70969000Y-111041422D02*
X70969000Y-111558578D01*
X72389000Y-111041422D02*
X72389000Y-111558578D01*
D12*
X77392000Y-109522000D02*
G75*
G03X77392000Y-109522000I-125000J0D01*
G01*
D13*
X79945000Y-109690000D02*
X77495000Y-109690000D01*
X78145000Y-112910000D02*
X79945000Y-112910000D01*
D12*
X61517000Y-109522000D02*
G75*
G03X61517000Y-109522000I-125000J0D01*
G01*
D13*
X64070000Y-109690000D02*
X61620000Y-109690000D01*
X62270000Y-112910000D02*
X64070000Y-112910000D01*
D12*
X105078000Y-109522000D02*
G75*
G03X105078000Y-109522000I-125000J0D01*
G01*
D13*
X107885000Y-109690000D02*
X105435000Y-109690000D01*
X106085000Y-112910000D02*
X107885000Y-112910000D01*
X82415000Y-112910000D02*
X84565000Y-112910000D01*
X81990000Y-109690000D02*
X84565000Y-109690000D01*
X84565000Y-112000000D02*
X84565000Y-112910000D01*
X84565000Y-109690000D02*
X84565000Y-110600000D01*
D12*
X123747000Y-109522000D02*
G75*
G03X123747000Y-109522000I-125000J0D01*
G01*
D13*
X126300000Y-109690000D02*
X123850000Y-109690000D01*
X124500000Y-112910000D02*
X126300000Y-112910000D01*
D12*
X72947000Y-109522000D02*
G75*
G03X72947000Y-109522000I-125000J0D01*
G01*
D13*
X75500000Y-109690000D02*
X73050000Y-109690000D01*
X73700000Y-112910000D02*
X75500000Y-112910000D01*
X109753600Y-111274600D02*
G75*
G02X110160000Y-111274600I203200J0D01*
G01*
X110490200Y-111071400D02*
X110160000Y-111300000D01*
X110160000Y-111503200D02*
X110160000Y-111274600D01*
X109753600Y-111503200D02*
X109753600Y-111223800D01*
X110490200Y-111503200D02*
X109753600Y-111503200D01*
X110870000Y-111558578D02*
X110870000Y-111041422D01*
X109450000Y-111558578D02*
X109450000Y-111041422D01*
X95783600Y-111274600D02*
G75*
G02X96190000Y-111274600I203200J0D01*
G01*
X96520200Y-111071400D02*
X96190000Y-111300000D01*
X96190000Y-111503200D02*
X96190000Y-111274600D01*
X95783600Y-111503200D02*
X95783600Y-111223800D01*
X96520200Y-111503200D02*
X95783600Y-111503200D01*
X96900000Y-111558578D02*
X96900000Y-111041422D01*
X95480000Y-111558578D02*
X95480000Y-111041422D01*
X101498600Y-111274600D02*
G75*
G02X101905000Y-111274600I203200J0D01*
G01*
X102235200Y-111071400D02*
X101905000Y-111300000D01*
X101905000Y-111503200D02*
X101905000Y-111274600D01*
X101498600Y-111503200D02*
X101498600Y-111223800D01*
X102235200Y-111503200D02*
X101498600Y-111503200D01*
X102615000Y-111558578D02*
X102615000Y-111041422D01*
X101195000Y-111558578D02*
X101195000Y-111041422D01*
X94691400Y-111325400D02*
G75*
G02X94285000Y-111325400I-203200J0D01*
G01*
X93954800Y-111528600D02*
X94285000Y-111300000D01*
X94285000Y-111096800D02*
X94285000Y-111325400D01*
X94691400Y-111096800D02*
X94691400Y-111376200D01*
X93954800Y-111096800D02*
X94691400Y-111096800D01*
X93575000Y-111041422D02*
X93575000Y-111558578D01*
X94995000Y-111041422D02*
X94995000Y-111558578D01*
X100406400Y-111325400D02*
G75*
G02X100000000Y-111325400I-203200J0D01*
G01*
X99669800Y-111528600D02*
X100000000Y-111300000D01*
X100000000Y-111096800D02*
X100000000Y-111325400D01*
X100406400Y-111096800D02*
X100406400Y-111376200D01*
X99669800Y-111096800D02*
X100406400Y-111096800D01*
X99290000Y-111041422D02*
X99290000Y-111558578D01*
X100710000Y-111041422D02*
X100710000Y-111558578D01*
X128600400Y-111325400D02*
G75*
G02X128194000Y-111325400I-203200J0D01*
G01*
X127863800Y-111528600D02*
X128194000Y-111300000D01*
X128194000Y-111096800D02*
X128194000Y-111325400D01*
X128600400Y-111096800D02*
X128600400Y-111376200D01*
X127863800Y-111096800D02*
X128600400Y-111096800D01*
X127484000Y-111041422D02*
X127484000Y-111558578D01*
X128904000Y-111041422D02*
X128904000Y-111558578D01*
X129819600Y-111274600D02*
G75*
G02X130226000Y-111274600I203200J0D01*
G01*
X130556200Y-111071400D02*
X130226000Y-111300000D01*
X130226000Y-111503200D02*
X130226000Y-111274600D01*
X129819600Y-111503200D02*
X129819600Y-111223800D01*
X130556200Y-111503200D02*
X129819600Y-111503200D01*
X130936000Y-111558578D02*
X130936000Y-111041422D01*
X129516000Y-111558578D02*
X129516000Y-111041422D01*
X70180400Y-111325400D02*
G75*
G02X69774000Y-111325400I-203200J0D01*
G01*
X69443800Y-111528600D02*
X69774000Y-111300000D01*
X69774000Y-111096800D02*
X69774000Y-111325400D01*
X70180400Y-111096800D02*
X70180400Y-111376200D01*
X69443800Y-111096800D02*
X70180400Y-111096800D01*
X69064000Y-111041422D02*
X69064000Y-111558578D01*
X70484000Y-111041422D02*
X70484000Y-111558578D01*
D12*
X131367000Y-109522000D02*
G75*
G03X131367000Y-109522000I-125000J0D01*
G01*
D13*
X133920000Y-109690000D02*
X131470000Y-109690000D01*
X132120000Y-112910000D02*
X133920000Y-112910000D01*
D12*
X135177000Y-109522000D02*
G75*
G03X135177000Y-109522000I-125000J0D01*
G01*
D13*
X137730000Y-109690000D02*
X135280000Y-109690000D01*
X135930000Y-112910000D02*
X137730000Y-112910000D01*
D12*
X65327000Y-109522000D02*
G75*
G03X65327000Y-109522000I-125000J0D01*
G01*
D13*
X67880000Y-109690000D02*
X65430000Y-109690000D01*
X66080000Y-112910000D02*
X67880000Y-112910000D01*
X90092000Y-112880000D02*
X88632000Y-112880000D01*
X90092000Y-109720000D02*
X87932000Y-109720000D01*
X90092000Y-109720000D02*
X90092000Y-110650000D01*
X90092000Y-112880000D02*
X90092000Y-111950000D01*
X97968000Y-111071400D02*
X98095000Y-111046000D01*
X97815600Y-111122200D02*
X97968000Y-111071400D01*
X97714000Y-111249200D02*
X97815600Y-111122200D01*
X97714000Y-111401600D02*
X97714000Y-111249200D01*
X97790200Y-111528600D02*
X97714000Y-111401600D01*
X98247400Y-111071400D02*
X98120400Y-111046000D01*
X98399800Y-111122200D02*
X98247400Y-111071400D01*
X98501400Y-111249200D02*
X98399800Y-111122200D01*
X98501400Y-111401600D02*
X98501400Y-111249200D01*
X98425200Y-111528600D02*
X98501400Y-111401600D01*
X97385000Y-111041422D02*
X97385000Y-111558578D01*
X98805000Y-111041422D02*
X98805000Y-111558578D01*
X103683000Y-111071400D02*
X103810000Y-111046000D01*
X103530600Y-111122200D02*
X103683000Y-111071400D01*
X103429000Y-111249200D02*
X103530600Y-111122200D01*
X103429000Y-111401600D02*
X103429000Y-111249200D01*
X103505200Y-111528600D02*
X103429000Y-111401600D01*
X103962400Y-111071400D02*
X103835400Y-111046000D01*
X104114800Y-111122200D02*
X103962400Y-111071400D01*
X104216400Y-111249200D02*
X104114800Y-111122200D01*
X104216400Y-111401600D02*
X104216400Y-111249200D01*
X104140200Y-111528600D02*
X104216400Y-111401600D01*
X103100000Y-111041422D02*
X103100000Y-111558578D01*
X104520000Y-111041422D02*
X104520000Y-111558578D01*
X92507000Y-111528600D02*
X92380000Y-111554000D01*
X92659400Y-111477800D02*
X92507000Y-111528600D01*
X92761000Y-111350800D02*
X92659400Y-111477800D01*
X92761000Y-111198400D02*
X92761000Y-111350800D01*
X92684800Y-111071400D02*
X92761000Y-111198400D01*
X92227600Y-111528600D02*
X92354600Y-111554000D01*
X92075200Y-111477800D02*
X92227600Y-111528600D01*
X91973600Y-111350800D02*
X92075200Y-111477800D01*
X91973600Y-111198400D02*
X91973600Y-111350800D01*
X92049800Y-111071400D02*
X91973600Y-111198400D01*
X93090000Y-111558578D02*
X93090000Y-111041422D01*
X91670000Y-111558578D02*
X91670000Y-111041422D01*
X141884600Y-111071400D02*
X142011600Y-111046000D01*
X141732200Y-111122200D02*
X141884600Y-111071400D01*
X141630600Y-111249200D02*
X141732200Y-111122200D01*
X141630600Y-111401600D02*
X141630600Y-111249200D01*
X141706800Y-111528600D02*
X141630600Y-111401600D01*
X142164000Y-111071400D02*
X142037000Y-111046000D01*
X142316400Y-111122200D02*
X142164000Y-111071400D01*
X142418000Y-111249200D02*
X142316400Y-111122200D01*
X142418000Y-111401600D02*
X142418000Y-111249200D01*
X142341800Y-111528600D02*
X142418000Y-111401600D01*
X141301600Y-111041422D02*
X141301600Y-111558578D01*
X142721600Y-111041422D02*
X142721600Y-111558578D01*
X57861400Y-111071400D02*
X57988400Y-111046000D01*
X57709000Y-111122200D02*
X57861400Y-111071400D01*
X57607400Y-111249200D02*
X57709000Y-111122200D01*
X57607400Y-111401600D02*
X57607400Y-111249200D01*
X57683600Y-111528600D02*
X57607400Y-111401600D01*
X58140800Y-111071400D02*
X58013800Y-111046000D01*
X58293200Y-111122200D02*
X58140800Y-111071400D01*
X58394800Y-111249200D02*
X58293200Y-111122200D01*
X58394800Y-111401600D02*
X58394800Y-111249200D01*
X58318600Y-111528600D02*
X58394800Y-111401600D01*
X57278400Y-111041422D02*
X57278400Y-111558578D01*
X58698400Y-111041422D02*
X58698400Y-111558578D01*
M02*
