G04 #@! TF.GenerationSoftware,KiCad,Pcbnew,(5.1.2)-2*
G04 #@! TF.CreationDate,2019-11-27T18:11:39+01:00*
G04 #@! TF.ProjectId,INTERFACE,494e5445-5246-4414-9345-2e6b69636164,rev?*
G04 #@! TF.SameCoordinates,Original*
G04 #@! TF.FileFunction,Paste,Top*
G04 #@! TF.FilePolarity,Positive*
%FSLAX46Y46*%
G04 Gerber Fmt 4.6, Leading zero omitted, Abs format (unit mm)*
G04 Created by KiCad (PCBNEW (5.1.2)-2) date 2019-11-27 18:11:39*
%MOMM*%
%LPD*%
G04 APERTURE LIST*
%ADD10C,0.100000*%
%ADD11C,0.650000*%
%ADD12C,0.975000*%
%ADD13R,1.000000X0.700000*%
%ADD14R,0.900000X0.800000*%
G04 APERTURE END LIST*
D10*
G36*
X111897428Y-110051182D02*
G01*
X111913202Y-110053522D01*
X111928671Y-110057397D01*
X111943686Y-110062770D01*
X111958102Y-110069588D01*
X111971780Y-110077786D01*
X111984589Y-110087286D01*
X111996405Y-110097995D01*
X112007114Y-110109811D01*
X112016614Y-110122620D01*
X112024812Y-110136298D01*
X112031630Y-110150714D01*
X112037003Y-110165729D01*
X112040878Y-110181198D01*
X112043218Y-110196972D01*
X112044000Y-110212900D01*
X112044000Y-110537900D01*
X112043218Y-110553828D01*
X112040878Y-110569602D01*
X112037003Y-110585071D01*
X112031630Y-110600086D01*
X112024812Y-110614502D01*
X112016614Y-110628180D01*
X112007114Y-110640989D01*
X111996405Y-110652805D01*
X111984589Y-110663514D01*
X111971780Y-110673014D01*
X111958102Y-110681212D01*
X111943686Y-110688030D01*
X111928671Y-110693403D01*
X111913202Y-110697278D01*
X111897428Y-110699618D01*
X111881500Y-110700400D01*
X111146500Y-110700400D01*
X111130572Y-110699618D01*
X111114798Y-110697278D01*
X111099329Y-110693403D01*
X111084314Y-110688030D01*
X111069898Y-110681212D01*
X111056220Y-110673014D01*
X111043411Y-110663514D01*
X111031595Y-110652805D01*
X111020886Y-110640989D01*
X111011386Y-110628180D01*
X111003188Y-110614502D01*
X110996370Y-110600086D01*
X110990997Y-110585071D01*
X110987122Y-110569602D01*
X110984782Y-110553828D01*
X110984000Y-110537900D01*
X110984000Y-110212900D01*
X110984782Y-110196972D01*
X110987122Y-110181198D01*
X110990997Y-110165729D01*
X110996370Y-110150714D01*
X111003188Y-110136298D01*
X111011386Y-110122620D01*
X111020886Y-110109811D01*
X111031595Y-110097995D01*
X111043411Y-110087286D01*
X111056220Y-110077786D01*
X111069898Y-110069588D01*
X111084314Y-110062770D01*
X111099329Y-110057397D01*
X111114798Y-110053522D01*
X111130572Y-110051182D01*
X111146500Y-110050400D01*
X111881500Y-110050400D01*
X111897428Y-110051182D01*
X111897428Y-110051182D01*
G37*
D11*
X111514000Y-110375400D03*
D10*
G36*
X111897428Y-111951182D02*
G01*
X111913202Y-111953522D01*
X111928671Y-111957397D01*
X111943686Y-111962770D01*
X111958102Y-111969588D01*
X111971780Y-111977786D01*
X111984589Y-111987286D01*
X111996405Y-111997995D01*
X112007114Y-112009811D01*
X112016614Y-112022620D01*
X112024812Y-112036298D01*
X112031630Y-112050714D01*
X112037003Y-112065729D01*
X112040878Y-112081198D01*
X112043218Y-112096972D01*
X112044000Y-112112900D01*
X112044000Y-112437900D01*
X112043218Y-112453828D01*
X112040878Y-112469602D01*
X112037003Y-112485071D01*
X112031630Y-112500086D01*
X112024812Y-112514502D01*
X112016614Y-112528180D01*
X112007114Y-112540989D01*
X111996405Y-112552805D01*
X111984589Y-112563514D01*
X111971780Y-112573014D01*
X111958102Y-112581212D01*
X111943686Y-112588030D01*
X111928671Y-112593403D01*
X111913202Y-112597278D01*
X111897428Y-112599618D01*
X111881500Y-112600400D01*
X111146500Y-112600400D01*
X111130572Y-112599618D01*
X111114798Y-112597278D01*
X111099329Y-112593403D01*
X111084314Y-112588030D01*
X111069898Y-112581212D01*
X111056220Y-112573014D01*
X111043411Y-112563514D01*
X111031595Y-112552805D01*
X111020886Y-112540989D01*
X111011386Y-112528180D01*
X111003188Y-112514502D01*
X110996370Y-112500086D01*
X110990997Y-112485071D01*
X110987122Y-112469602D01*
X110984782Y-112453828D01*
X110984000Y-112437900D01*
X110984000Y-112112900D01*
X110984782Y-112096972D01*
X110987122Y-112081198D01*
X110990997Y-112065729D01*
X110996370Y-112050714D01*
X111003188Y-112036298D01*
X111011386Y-112022620D01*
X111020886Y-112009811D01*
X111031595Y-111997995D01*
X111043411Y-111987286D01*
X111056220Y-111977786D01*
X111069898Y-111969588D01*
X111084314Y-111962770D01*
X111099329Y-111957397D01*
X111114798Y-111953522D01*
X111130572Y-111951182D01*
X111146500Y-111950400D01*
X111881500Y-111950400D01*
X111897428Y-111951182D01*
X111897428Y-111951182D01*
G37*
D11*
X111514000Y-112275400D03*
D10*
G36*
X109697428Y-111951182D02*
G01*
X109713202Y-111953522D01*
X109728671Y-111957397D01*
X109743686Y-111962770D01*
X109758102Y-111969588D01*
X109771780Y-111977786D01*
X109784589Y-111987286D01*
X109796405Y-111997995D01*
X109807114Y-112009811D01*
X109816614Y-112022620D01*
X109824812Y-112036298D01*
X109831630Y-112050714D01*
X109837003Y-112065729D01*
X109840878Y-112081198D01*
X109843218Y-112096972D01*
X109844000Y-112112900D01*
X109844000Y-112437900D01*
X109843218Y-112453828D01*
X109840878Y-112469602D01*
X109837003Y-112485071D01*
X109831630Y-112500086D01*
X109824812Y-112514502D01*
X109816614Y-112528180D01*
X109807114Y-112540989D01*
X109796405Y-112552805D01*
X109784589Y-112563514D01*
X109771780Y-112573014D01*
X109758102Y-112581212D01*
X109743686Y-112588030D01*
X109728671Y-112593403D01*
X109713202Y-112597278D01*
X109697428Y-112599618D01*
X109681500Y-112600400D01*
X108946500Y-112600400D01*
X108930572Y-112599618D01*
X108914798Y-112597278D01*
X108899329Y-112593403D01*
X108884314Y-112588030D01*
X108869898Y-112581212D01*
X108856220Y-112573014D01*
X108843411Y-112563514D01*
X108831595Y-112552805D01*
X108820886Y-112540989D01*
X108811386Y-112528180D01*
X108803188Y-112514502D01*
X108796370Y-112500086D01*
X108790997Y-112485071D01*
X108787122Y-112469602D01*
X108784782Y-112453828D01*
X108784000Y-112437900D01*
X108784000Y-112112900D01*
X108784782Y-112096972D01*
X108787122Y-112081198D01*
X108790997Y-112065729D01*
X108796370Y-112050714D01*
X108803188Y-112036298D01*
X108811386Y-112022620D01*
X108820886Y-112009811D01*
X108831595Y-111997995D01*
X108843411Y-111987286D01*
X108856220Y-111977786D01*
X108869898Y-111969588D01*
X108884314Y-111962770D01*
X108899329Y-111957397D01*
X108914798Y-111953522D01*
X108930572Y-111951182D01*
X108946500Y-111950400D01*
X109681500Y-111950400D01*
X109697428Y-111951182D01*
X109697428Y-111951182D01*
G37*
D11*
X109314000Y-112275400D03*
D10*
G36*
X109697428Y-111001182D02*
G01*
X109713202Y-111003522D01*
X109728671Y-111007397D01*
X109743686Y-111012770D01*
X109758102Y-111019588D01*
X109771780Y-111027786D01*
X109784589Y-111037286D01*
X109796405Y-111047995D01*
X109807114Y-111059811D01*
X109816614Y-111072620D01*
X109824812Y-111086298D01*
X109831630Y-111100714D01*
X109837003Y-111115729D01*
X109840878Y-111131198D01*
X109843218Y-111146972D01*
X109844000Y-111162900D01*
X109844000Y-111487900D01*
X109843218Y-111503828D01*
X109840878Y-111519602D01*
X109837003Y-111535071D01*
X109831630Y-111550086D01*
X109824812Y-111564502D01*
X109816614Y-111578180D01*
X109807114Y-111590989D01*
X109796405Y-111602805D01*
X109784589Y-111613514D01*
X109771780Y-111623014D01*
X109758102Y-111631212D01*
X109743686Y-111638030D01*
X109728671Y-111643403D01*
X109713202Y-111647278D01*
X109697428Y-111649618D01*
X109681500Y-111650400D01*
X108946500Y-111650400D01*
X108930572Y-111649618D01*
X108914798Y-111647278D01*
X108899329Y-111643403D01*
X108884314Y-111638030D01*
X108869898Y-111631212D01*
X108856220Y-111623014D01*
X108843411Y-111613514D01*
X108831595Y-111602805D01*
X108820886Y-111590989D01*
X108811386Y-111578180D01*
X108803188Y-111564502D01*
X108796370Y-111550086D01*
X108790997Y-111535071D01*
X108787122Y-111519602D01*
X108784782Y-111503828D01*
X108784000Y-111487900D01*
X108784000Y-111162900D01*
X108784782Y-111146972D01*
X108787122Y-111131198D01*
X108790997Y-111115729D01*
X108796370Y-111100714D01*
X108803188Y-111086298D01*
X108811386Y-111072620D01*
X108820886Y-111059811D01*
X108831595Y-111047995D01*
X108843411Y-111037286D01*
X108856220Y-111027786D01*
X108869898Y-111019588D01*
X108884314Y-111012770D01*
X108899329Y-111007397D01*
X108914798Y-111003522D01*
X108930572Y-111001182D01*
X108946500Y-111000400D01*
X109681500Y-111000400D01*
X109697428Y-111001182D01*
X109697428Y-111001182D01*
G37*
D11*
X109314000Y-111325400D03*
D10*
G36*
X109697428Y-110051182D02*
G01*
X109713202Y-110053522D01*
X109728671Y-110057397D01*
X109743686Y-110062770D01*
X109758102Y-110069588D01*
X109771780Y-110077786D01*
X109784589Y-110087286D01*
X109796405Y-110097995D01*
X109807114Y-110109811D01*
X109816614Y-110122620D01*
X109824812Y-110136298D01*
X109831630Y-110150714D01*
X109837003Y-110165729D01*
X109840878Y-110181198D01*
X109843218Y-110196972D01*
X109844000Y-110212900D01*
X109844000Y-110537900D01*
X109843218Y-110553828D01*
X109840878Y-110569602D01*
X109837003Y-110585071D01*
X109831630Y-110600086D01*
X109824812Y-110614502D01*
X109816614Y-110628180D01*
X109807114Y-110640989D01*
X109796405Y-110652805D01*
X109784589Y-110663514D01*
X109771780Y-110673014D01*
X109758102Y-110681212D01*
X109743686Y-110688030D01*
X109728671Y-110693403D01*
X109713202Y-110697278D01*
X109697428Y-110699618D01*
X109681500Y-110700400D01*
X108946500Y-110700400D01*
X108930572Y-110699618D01*
X108914798Y-110697278D01*
X108899329Y-110693403D01*
X108884314Y-110688030D01*
X108869898Y-110681212D01*
X108856220Y-110673014D01*
X108843411Y-110663514D01*
X108831595Y-110652805D01*
X108820886Y-110640989D01*
X108811386Y-110628180D01*
X108803188Y-110614502D01*
X108796370Y-110600086D01*
X108790997Y-110585071D01*
X108787122Y-110569602D01*
X108784782Y-110553828D01*
X108784000Y-110537900D01*
X108784000Y-110212900D01*
X108784782Y-110196972D01*
X108787122Y-110181198D01*
X108790997Y-110165729D01*
X108796370Y-110150714D01*
X108803188Y-110136298D01*
X108811386Y-110122620D01*
X108820886Y-110109811D01*
X108831595Y-110097995D01*
X108843411Y-110087286D01*
X108856220Y-110077786D01*
X108869898Y-110069588D01*
X108884314Y-110062770D01*
X108899329Y-110057397D01*
X108914798Y-110053522D01*
X108930572Y-110051182D01*
X108946500Y-110050400D01*
X109681500Y-110050400D01*
X109697428Y-110051182D01*
X109697428Y-110051182D01*
G37*
D11*
X109314000Y-110375400D03*
D10*
G36*
X128674142Y-111751174D02*
G01*
X128697803Y-111754684D01*
X128721007Y-111760496D01*
X128743529Y-111768554D01*
X128765153Y-111778782D01*
X128785670Y-111791079D01*
X128804883Y-111805329D01*
X128822607Y-111821393D01*
X128838671Y-111839117D01*
X128852921Y-111858330D01*
X128865218Y-111878847D01*
X128875446Y-111900471D01*
X128883504Y-111922993D01*
X128889316Y-111946197D01*
X128892826Y-111969858D01*
X128894000Y-111993750D01*
X128894000Y-112481250D01*
X128892826Y-112505142D01*
X128889316Y-112528803D01*
X128883504Y-112552007D01*
X128875446Y-112574529D01*
X128865218Y-112596153D01*
X128852921Y-112616670D01*
X128838671Y-112635883D01*
X128822607Y-112653607D01*
X128804883Y-112669671D01*
X128785670Y-112683921D01*
X128765153Y-112696218D01*
X128743529Y-112706446D01*
X128721007Y-112714504D01*
X128697803Y-112720316D01*
X128674142Y-112723826D01*
X128650250Y-112725000D01*
X127737750Y-112725000D01*
X127713858Y-112723826D01*
X127690197Y-112720316D01*
X127666993Y-112714504D01*
X127644471Y-112706446D01*
X127622847Y-112696218D01*
X127602330Y-112683921D01*
X127583117Y-112669671D01*
X127565393Y-112653607D01*
X127549329Y-112635883D01*
X127535079Y-112616670D01*
X127522782Y-112596153D01*
X127512554Y-112574529D01*
X127504496Y-112552007D01*
X127498684Y-112528803D01*
X127495174Y-112505142D01*
X127494000Y-112481250D01*
X127494000Y-111993750D01*
X127495174Y-111969858D01*
X127498684Y-111946197D01*
X127504496Y-111922993D01*
X127512554Y-111900471D01*
X127522782Y-111878847D01*
X127535079Y-111858330D01*
X127549329Y-111839117D01*
X127565393Y-111821393D01*
X127583117Y-111805329D01*
X127602330Y-111791079D01*
X127622847Y-111778782D01*
X127644471Y-111768554D01*
X127666993Y-111760496D01*
X127690197Y-111754684D01*
X127713858Y-111751174D01*
X127737750Y-111750000D01*
X128650250Y-111750000D01*
X128674142Y-111751174D01*
X128674142Y-111751174D01*
G37*
D12*
X128194000Y-112237500D03*
D10*
G36*
X128674142Y-109876174D02*
G01*
X128697803Y-109879684D01*
X128721007Y-109885496D01*
X128743529Y-109893554D01*
X128765153Y-109903782D01*
X128785670Y-109916079D01*
X128804883Y-109930329D01*
X128822607Y-109946393D01*
X128838671Y-109964117D01*
X128852921Y-109983330D01*
X128865218Y-110003847D01*
X128875446Y-110025471D01*
X128883504Y-110047993D01*
X128889316Y-110071197D01*
X128892826Y-110094858D01*
X128894000Y-110118750D01*
X128894000Y-110606250D01*
X128892826Y-110630142D01*
X128889316Y-110653803D01*
X128883504Y-110677007D01*
X128875446Y-110699529D01*
X128865218Y-110721153D01*
X128852921Y-110741670D01*
X128838671Y-110760883D01*
X128822607Y-110778607D01*
X128804883Y-110794671D01*
X128785670Y-110808921D01*
X128765153Y-110821218D01*
X128743529Y-110831446D01*
X128721007Y-110839504D01*
X128697803Y-110845316D01*
X128674142Y-110848826D01*
X128650250Y-110850000D01*
X127737750Y-110850000D01*
X127713858Y-110848826D01*
X127690197Y-110845316D01*
X127666993Y-110839504D01*
X127644471Y-110831446D01*
X127622847Y-110821218D01*
X127602330Y-110808921D01*
X127583117Y-110794671D01*
X127565393Y-110778607D01*
X127549329Y-110760883D01*
X127535079Y-110741670D01*
X127522782Y-110721153D01*
X127512554Y-110699529D01*
X127504496Y-110677007D01*
X127498684Y-110653803D01*
X127495174Y-110630142D01*
X127494000Y-110606250D01*
X127494000Y-110118750D01*
X127495174Y-110094858D01*
X127498684Y-110071197D01*
X127504496Y-110047993D01*
X127512554Y-110025471D01*
X127522782Y-110003847D01*
X127535079Y-109983330D01*
X127549329Y-109964117D01*
X127565393Y-109946393D01*
X127583117Y-109930329D01*
X127602330Y-109916079D01*
X127622847Y-109903782D01*
X127644471Y-109893554D01*
X127666993Y-109885496D01*
X127690197Y-109879684D01*
X127713858Y-109876174D01*
X127737750Y-109875000D01*
X128650250Y-109875000D01*
X128674142Y-109876174D01*
X128674142Y-109876174D01*
G37*
D12*
X128194000Y-110362500D03*
D10*
G36*
X130706142Y-111751174D02*
G01*
X130729803Y-111754684D01*
X130753007Y-111760496D01*
X130775529Y-111768554D01*
X130797153Y-111778782D01*
X130817670Y-111791079D01*
X130836883Y-111805329D01*
X130854607Y-111821393D01*
X130870671Y-111839117D01*
X130884921Y-111858330D01*
X130897218Y-111878847D01*
X130907446Y-111900471D01*
X130915504Y-111922993D01*
X130921316Y-111946197D01*
X130924826Y-111969858D01*
X130926000Y-111993750D01*
X130926000Y-112481250D01*
X130924826Y-112505142D01*
X130921316Y-112528803D01*
X130915504Y-112552007D01*
X130907446Y-112574529D01*
X130897218Y-112596153D01*
X130884921Y-112616670D01*
X130870671Y-112635883D01*
X130854607Y-112653607D01*
X130836883Y-112669671D01*
X130817670Y-112683921D01*
X130797153Y-112696218D01*
X130775529Y-112706446D01*
X130753007Y-112714504D01*
X130729803Y-112720316D01*
X130706142Y-112723826D01*
X130682250Y-112725000D01*
X129769750Y-112725000D01*
X129745858Y-112723826D01*
X129722197Y-112720316D01*
X129698993Y-112714504D01*
X129676471Y-112706446D01*
X129654847Y-112696218D01*
X129634330Y-112683921D01*
X129615117Y-112669671D01*
X129597393Y-112653607D01*
X129581329Y-112635883D01*
X129567079Y-112616670D01*
X129554782Y-112596153D01*
X129544554Y-112574529D01*
X129536496Y-112552007D01*
X129530684Y-112528803D01*
X129527174Y-112505142D01*
X129526000Y-112481250D01*
X129526000Y-111993750D01*
X129527174Y-111969858D01*
X129530684Y-111946197D01*
X129536496Y-111922993D01*
X129544554Y-111900471D01*
X129554782Y-111878847D01*
X129567079Y-111858330D01*
X129581329Y-111839117D01*
X129597393Y-111821393D01*
X129615117Y-111805329D01*
X129634330Y-111791079D01*
X129654847Y-111778782D01*
X129676471Y-111768554D01*
X129698993Y-111760496D01*
X129722197Y-111754684D01*
X129745858Y-111751174D01*
X129769750Y-111750000D01*
X130682250Y-111750000D01*
X130706142Y-111751174D01*
X130706142Y-111751174D01*
G37*
D12*
X130226000Y-112237500D03*
D10*
G36*
X130706142Y-109876174D02*
G01*
X130729803Y-109879684D01*
X130753007Y-109885496D01*
X130775529Y-109893554D01*
X130797153Y-109903782D01*
X130817670Y-109916079D01*
X130836883Y-109930329D01*
X130854607Y-109946393D01*
X130870671Y-109964117D01*
X130884921Y-109983330D01*
X130897218Y-110003847D01*
X130907446Y-110025471D01*
X130915504Y-110047993D01*
X130921316Y-110071197D01*
X130924826Y-110094858D01*
X130926000Y-110118750D01*
X130926000Y-110606250D01*
X130924826Y-110630142D01*
X130921316Y-110653803D01*
X130915504Y-110677007D01*
X130907446Y-110699529D01*
X130897218Y-110721153D01*
X130884921Y-110741670D01*
X130870671Y-110760883D01*
X130854607Y-110778607D01*
X130836883Y-110794671D01*
X130817670Y-110808921D01*
X130797153Y-110821218D01*
X130775529Y-110831446D01*
X130753007Y-110839504D01*
X130729803Y-110845316D01*
X130706142Y-110848826D01*
X130682250Y-110850000D01*
X129769750Y-110850000D01*
X129745858Y-110848826D01*
X129722197Y-110845316D01*
X129698993Y-110839504D01*
X129676471Y-110831446D01*
X129654847Y-110821218D01*
X129634330Y-110808921D01*
X129615117Y-110794671D01*
X129597393Y-110778607D01*
X129581329Y-110760883D01*
X129567079Y-110741670D01*
X129554782Y-110721153D01*
X129544554Y-110699529D01*
X129536496Y-110677007D01*
X129530684Y-110653803D01*
X129527174Y-110630142D01*
X129526000Y-110606250D01*
X129526000Y-110118750D01*
X129527174Y-110094858D01*
X129530684Y-110071197D01*
X129536496Y-110047993D01*
X129544554Y-110025471D01*
X129554782Y-110003847D01*
X129567079Y-109983330D01*
X129581329Y-109964117D01*
X129597393Y-109946393D01*
X129615117Y-109930329D01*
X129634330Y-109916079D01*
X129654847Y-109903782D01*
X129676471Y-109893554D01*
X129698993Y-109885496D01*
X129722197Y-109879684D01*
X129745858Y-109876174D01*
X129769750Y-109875000D01*
X130682250Y-109875000D01*
X130706142Y-109876174D01*
X130706142Y-109876174D01*
G37*
D12*
X130226000Y-110362500D03*
D10*
G36*
X134503428Y-110051182D02*
G01*
X134519202Y-110053522D01*
X134534671Y-110057397D01*
X134549686Y-110062770D01*
X134564102Y-110069588D01*
X134577780Y-110077786D01*
X134590589Y-110087286D01*
X134602405Y-110097995D01*
X134613114Y-110109811D01*
X134622614Y-110122620D01*
X134630812Y-110136298D01*
X134637630Y-110150714D01*
X134643003Y-110165729D01*
X134646878Y-110181198D01*
X134649218Y-110196972D01*
X134650000Y-110212900D01*
X134650000Y-110537900D01*
X134649218Y-110553828D01*
X134646878Y-110569602D01*
X134643003Y-110585071D01*
X134637630Y-110600086D01*
X134630812Y-110614502D01*
X134622614Y-110628180D01*
X134613114Y-110640989D01*
X134602405Y-110652805D01*
X134590589Y-110663514D01*
X134577780Y-110673014D01*
X134564102Y-110681212D01*
X134549686Y-110688030D01*
X134534671Y-110693403D01*
X134519202Y-110697278D01*
X134503428Y-110699618D01*
X134487500Y-110700400D01*
X133752500Y-110700400D01*
X133736572Y-110699618D01*
X133720798Y-110697278D01*
X133705329Y-110693403D01*
X133690314Y-110688030D01*
X133675898Y-110681212D01*
X133662220Y-110673014D01*
X133649411Y-110663514D01*
X133637595Y-110652805D01*
X133626886Y-110640989D01*
X133617386Y-110628180D01*
X133609188Y-110614502D01*
X133602370Y-110600086D01*
X133596997Y-110585071D01*
X133593122Y-110569602D01*
X133590782Y-110553828D01*
X133590000Y-110537900D01*
X133590000Y-110212900D01*
X133590782Y-110196972D01*
X133593122Y-110181198D01*
X133596997Y-110165729D01*
X133602370Y-110150714D01*
X133609188Y-110136298D01*
X133617386Y-110122620D01*
X133626886Y-110109811D01*
X133637595Y-110097995D01*
X133649411Y-110087286D01*
X133662220Y-110077786D01*
X133675898Y-110069588D01*
X133690314Y-110062770D01*
X133705329Y-110057397D01*
X133720798Y-110053522D01*
X133736572Y-110051182D01*
X133752500Y-110050400D01*
X134487500Y-110050400D01*
X134503428Y-110051182D01*
X134503428Y-110051182D01*
G37*
D11*
X134120000Y-110375400D03*
D10*
G36*
X134503428Y-111951182D02*
G01*
X134519202Y-111953522D01*
X134534671Y-111957397D01*
X134549686Y-111962770D01*
X134564102Y-111969588D01*
X134577780Y-111977786D01*
X134590589Y-111987286D01*
X134602405Y-111997995D01*
X134613114Y-112009811D01*
X134622614Y-112022620D01*
X134630812Y-112036298D01*
X134637630Y-112050714D01*
X134643003Y-112065729D01*
X134646878Y-112081198D01*
X134649218Y-112096972D01*
X134650000Y-112112900D01*
X134650000Y-112437900D01*
X134649218Y-112453828D01*
X134646878Y-112469602D01*
X134643003Y-112485071D01*
X134637630Y-112500086D01*
X134630812Y-112514502D01*
X134622614Y-112528180D01*
X134613114Y-112540989D01*
X134602405Y-112552805D01*
X134590589Y-112563514D01*
X134577780Y-112573014D01*
X134564102Y-112581212D01*
X134549686Y-112588030D01*
X134534671Y-112593403D01*
X134519202Y-112597278D01*
X134503428Y-112599618D01*
X134487500Y-112600400D01*
X133752500Y-112600400D01*
X133736572Y-112599618D01*
X133720798Y-112597278D01*
X133705329Y-112593403D01*
X133690314Y-112588030D01*
X133675898Y-112581212D01*
X133662220Y-112573014D01*
X133649411Y-112563514D01*
X133637595Y-112552805D01*
X133626886Y-112540989D01*
X133617386Y-112528180D01*
X133609188Y-112514502D01*
X133602370Y-112500086D01*
X133596997Y-112485071D01*
X133593122Y-112469602D01*
X133590782Y-112453828D01*
X133590000Y-112437900D01*
X133590000Y-112112900D01*
X133590782Y-112096972D01*
X133593122Y-112081198D01*
X133596997Y-112065729D01*
X133602370Y-112050714D01*
X133609188Y-112036298D01*
X133617386Y-112022620D01*
X133626886Y-112009811D01*
X133637595Y-111997995D01*
X133649411Y-111987286D01*
X133662220Y-111977786D01*
X133675898Y-111969588D01*
X133690314Y-111962770D01*
X133705329Y-111957397D01*
X133720798Y-111953522D01*
X133736572Y-111951182D01*
X133752500Y-111950400D01*
X134487500Y-111950400D01*
X134503428Y-111951182D01*
X134503428Y-111951182D01*
G37*
D11*
X134120000Y-112275400D03*
D10*
G36*
X132303428Y-111951182D02*
G01*
X132319202Y-111953522D01*
X132334671Y-111957397D01*
X132349686Y-111962770D01*
X132364102Y-111969588D01*
X132377780Y-111977786D01*
X132390589Y-111987286D01*
X132402405Y-111997995D01*
X132413114Y-112009811D01*
X132422614Y-112022620D01*
X132430812Y-112036298D01*
X132437630Y-112050714D01*
X132443003Y-112065729D01*
X132446878Y-112081198D01*
X132449218Y-112096972D01*
X132450000Y-112112900D01*
X132450000Y-112437900D01*
X132449218Y-112453828D01*
X132446878Y-112469602D01*
X132443003Y-112485071D01*
X132437630Y-112500086D01*
X132430812Y-112514502D01*
X132422614Y-112528180D01*
X132413114Y-112540989D01*
X132402405Y-112552805D01*
X132390589Y-112563514D01*
X132377780Y-112573014D01*
X132364102Y-112581212D01*
X132349686Y-112588030D01*
X132334671Y-112593403D01*
X132319202Y-112597278D01*
X132303428Y-112599618D01*
X132287500Y-112600400D01*
X131552500Y-112600400D01*
X131536572Y-112599618D01*
X131520798Y-112597278D01*
X131505329Y-112593403D01*
X131490314Y-112588030D01*
X131475898Y-112581212D01*
X131462220Y-112573014D01*
X131449411Y-112563514D01*
X131437595Y-112552805D01*
X131426886Y-112540989D01*
X131417386Y-112528180D01*
X131409188Y-112514502D01*
X131402370Y-112500086D01*
X131396997Y-112485071D01*
X131393122Y-112469602D01*
X131390782Y-112453828D01*
X131390000Y-112437900D01*
X131390000Y-112112900D01*
X131390782Y-112096972D01*
X131393122Y-112081198D01*
X131396997Y-112065729D01*
X131402370Y-112050714D01*
X131409188Y-112036298D01*
X131417386Y-112022620D01*
X131426886Y-112009811D01*
X131437595Y-111997995D01*
X131449411Y-111987286D01*
X131462220Y-111977786D01*
X131475898Y-111969588D01*
X131490314Y-111962770D01*
X131505329Y-111957397D01*
X131520798Y-111953522D01*
X131536572Y-111951182D01*
X131552500Y-111950400D01*
X132287500Y-111950400D01*
X132303428Y-111951182D01*
X132303428Y-111951182D01*
G37*
D11*
X131920000Y-112275400D03*
D10*
G36*
X132303428Y-111001182D02*
G01*
X132319202Y-111003522D01*
X132334671Y-111007397D01*
X132349686Y-111012770D01*
X132364102Y-111019588D01*
X132377780Y-111027786D01*
X132390589Y-111037286D01*
X132402405Y-111047995D01*
X132413114Y-111059811D01*
X132422614Y-111072620D01*
X132430812Y-111086298D01*
X132437630Y-111100714D01*
X132443003Y-111115729D01*
X132446878Y-111131198D01*
X132449218Y-111146972D01*
X132450000Y-111162900D01*
X132450000Y-111487900D01*
X132449218Y-111503828D01*
X132446878Y-111519602D01*
X132443003Y-111535071D01*
X132437630Y-111550086D01*
X132430812Y-111564502D01*
X132422614Y-111578180D01*
X132413114Y-111590989D01*
X132402405Y-111602805D01*
X132390589Y-111613514D01*
X132377780Y-111623014D01*
X132364102Y-111631212D01*
X132349686Y-111638030D01*
X132334671Y-111643403D01*
X132319202Y-111647278D01*
X132303428Y-111649618D01*
X132287500Y-111650400D01*
X131552500Y-111650400D01*
X131536572Y-111649618D01*
X131520798Y-111647278D01*
X131505329Y-111643403D01*
X131490314Y-111638030D01*
X131475898Y-111631212D01*
X131462220Y-111623014D01*
X131449411Y-111613514D01*
X131437595Y-111602805D01*
X131426886Y-111590989D01*
X131417386Y-111578180D01*
X131409188Y-111564502D01*
X131402370Y-111550086D01*
X131396997Y-111535071D01*
X131393122Y-111519602D01*
X131390782Y-111503828D01*
X131390000Y-111487900D01*
X131390000Y-111162900D01*
X131390782Y-111146972D01*
X131393122Y-111131198D01*
X131396997Y-111115729D01*
X131402370Y-111100714D01*
X131409188Y-111086298D01*
X131417386Y-111072620D01*
X131426886Y-111059811D01*
X131437595Y-111047995D01*
X131449411Y-111037286D01*
X131462220Y-111027786D01*
X131475898Y-111019588D01*
X131490314Y-111012770D01*
X131505329Y-111007397D01*
X131520798Y-111003522D01*
X131536572Y-111001182D01*
X131552500Y-111000400D01*
X132287500Y-111000400D01*
X132303428Y-111001182D01*
X132303428Y-111001182D01*
G37*
D11*
X131920000Y-111325400D03*
D10*
G36*
X132303428Y-110051182D02*
G01*
X132319202Y-110053522D01*
X132334671Y-110057397D01*
X132349686Y-110062770D01*
X132364102Y-110069588D01*
X132377780Y-110077786D01*
X132390589Y-110087286D01*
X132402405Y-110097995D01*
X132413114Y-110109811D01*
X132422614Y-110122620D01*
X132430812Y-110136298D01*
X132437630Y-110150714D01*
X132443003Y-110165729D01*
X132446878Y-110181198D01*
X132449218Y-110196972D01*
X132450000Y-110212900D01*
X132450000Y-110537900D01*
X132449218Y-110553828D01*
X132446878Y-110569602D01*
X132443003Y-110585071D01*
X132437630Y-110600086D01*
X132430812Y-110614502D01*
X132422614Y-110628180D01*
X132413114Y-110640989D01*
X132402405Y-110652805D01*
X132390589Y-110663514D01*
X132377780Y-110673014D01*
X132364102Y-110681212D01*
X132349686Y-110688030D01*
X132334671Y-110693403D01*
X132319202Y-110697278D01*
X132303428Y-110699618D01*
X132287500Y-110700400D01*
X131552500Y-110700400D01*
X131536572Y-110699618D01*
X131520798Y-110697278D01*
X131505329Y-110693403D01*
X131490314Y-110688030D01*
X131475898Y-110681212D01*
X131462220Y-110673014D01*
X131449411Y-110663514D01*
X131437595Y-110652805D01*
X131426886Y-110640989D01*
X131417386Y-110628180D01*
X131409188Y-110614502D01*
X131402370Y-110600086D01*
X131396997Y-110585071D01*
X131393122Y-110569602D01*
X131390782Y-110553828D01*
X131390000Y-110537900D01*
X131390000Y-110212900D01*
X131390782Y-110196972D01*
X131393122Y-110181198D01*
X131396997Y-110165729D01*
X131402370Y-110150714D01*
X131409188Y-110136298D01*
X131417386Y-110122620D01*
X131426886Y-110109811D01*
X131437595Y-110097995D01*
X131449411Y-110087286D01*
X131462220Y-110077786D01*
X131475898Y-110069588D01*
X131490314Y-110062770D01*
X131505329Y-110057397D01*
X131520798Y-110053522D01*
X131536572Y-110051182D01*
X131552500Y-110050400D01*
X132287500Y-110050400D01*
X132303428Y-110051182D01*
X132303428Y-110051182D01*
G37*
D11*
X131920000Y-110375400D03*
D10*
G36*
X138567428Y-110051182D02*
G01*
X138583202Y-110053522D01*
X138598671Y-110057397D01*
X138613686Y-110062770D01*
X138628102Y-110069588D01*
X138641780Y-110077786D01*
X138654589Y-110087286D01*
X138666405Y-110097995D01*
X138677114Y-110109811D01*
X138686614Y-110122620D01*
X138694812Y-110136298D01*
X138701630Y-110150714D01*
X138707003Y-110165729D01*
X138710878Y-110181198D01*
X138713218Y-110196972D01*
X138714000Y-110212900D01*
X138714000Y-110537900D01*
X138713218Y-110553828D01*
X138710878Y-110569602D01*
X138707003Y-110585071D01*
X138701630Y-110600086D01*
X138694812Y-110614502D01*
X138686614Y-110628180D01*
X138677114Y-110640989D01*
X138666405Y-110652805D01*
X138654589Y-110663514D01*
X138641780Y-110673014D01*
X138628102Y-110681212D01*
X138613686Y-110688030D01*
X138598671Y-110693403D01*
X138583202Y-110697278D01*
X138567428Y-110699618D01*
X138551500Y-110700400D01*
X137816500Y-110700400D01*
X137800572Y-110699618D01*
X137784798Y-110697278D01*
X137769329Y-110693403D01*
X137754314Y-110688030D01*
X137739898Y-110681212D01*
X137726220Y-110673014D01*
X137713411Y-110663514D01*
X137701595Y-110652805D01*
X137690886Y-110640989D01*
X137681386Y-110628180D01*
X137673188Y-110614502D01*
X137666370Y-110600086D01*
X137660997Y-110585071D01*
X137657122Y-110569602D01*
X137654782Y-110553828D01*
X137654000Y-110537900D01*
X137654000Y-110212900D01*
X137654782Y-110196972D01*
X137657122Y-110181198D01*
X137660997Y-110165729D01*
X137666370Y-110150714D01*
X137673188Y-110136298D01*
X137681386Y-110122620D01*
X137690886Y-110109811D01*
X137701595Y-110097995D01*
X137713411Y-110087286D01*
X137726220Y-110077786D01*
X137739898Y-110069588D01*
X137754314Y-110062770D01*
X137769329Y-110057397D01*
X137784798Y-110053522D01*
X137800572Y-110051182D01*
X137816500Y-110050400D01*
X138551500Y-110050400D01*
X138567428Y-110051182D01*
X138567428Y-110051182D01*
G37*
D11*
X138184000Y-110375400D03*
D10*
G36*
X138567428Y-111951182D02*
G01*
X138583202Y-111953522D01*
X138598671Y-111957397D01*
X138613686Y-111962770D01*
X138628102Y-111969588D01*
X138641780Y-111977786D01*
X138654589Y-111987286D01*
X138666405Y-111997995D01*
X138677114Y-112009811D01*
X138686614Y-112022620D01*
X138694812Y-112036298D01*
X138701630Y-112050714D01*
X138707003Y-112065729D01*
X138710878Y-112081198D01*
X138713218Y-112096972D01*
X138714000Y-112112900D01*
X138714000Y-112437900D01*
X138713218Y-112453828D01*
X138710878Y-112469602D01*
X138707003Y-112485071D01*
X138701630Y-112500086D01*
X138694812Y-112514502D01*
X138686614Y-112528180D01*
X138677114Y-112540989D01*
X138666405Y-112552805D01*
X138654589Y-112563514D01*
X138641780Y-112573014D01*
X138628102Y-112581212D01*
X138613686Y-112588030D01*
X138598671Y-112593403D01*
X138583202Y-112597278D01*
X138567428Y-112599618D01*
X138551500Y-112600400D01*
X137816500Y-112600400D01*
X137800572Y-112599618D01*
X137784798Y-112597278D01*
X137769329Y-112593403D01*
X137754314Y-112588030D01*
X137739898Y-112581212D01*
X137726220Y-112573014D01*
X137713411Y-112563514D01*
X137701595Y-112552805D01*
X137690886Y-112540989D01*
X137681386Y-112528180D01*
X137673188Y-112514502D01*
X137666370Y-112500086D01*
X137660997Y-112485071D01*
X137657122Y-112469602D01*
X137654782Y-112453828D01*
X137654000Y-112437900D01*
X137654000Y-112112900D01*
X137654782Y-112096972D01*
X137657122Y-112081198D01*
X137660997Y-112065729D01*
X137666370Y-112050714D01*
X137673188Y-112036298D01*
X137681386Y-112022620D01*
X137690886Y-112009811D01*
X137701595Y-111997995D01*
X137713411Y-111987286D01*
X137726220Y-111977786D01*
X137739898Y-111969588D01*
X137754314Y-111962770D01*
X137769329Y-111957397D01*
X137784798Y-111953522D01*
X137800572Y-111951182D01*
X137816500Y-111950400D01*
X138551500Y-111950400D01*
X138567428Y-111951182D01*
X138567428Y-111951182D01*
G37*
D11*
X138184000Y-112275400D03*
D10*
G36*
X136367428Y-111951182D02*
G01*
X136383202Y-111953522D01*
X136398671Y-111957397D01*
X136413686Y-111962770D01*
X136428102Y-111969588D01*
X136441780Y-111977786D01*
X136454589Y-111987286D01*
X136466405Y-111997995D01*
X136477114Y-112009811D01*
X136486614Y-112022620D01*
X136494812Y-112036298D01*
X136501630Y-112050714D01*
X136507003Y-112065729D01*
X136510878Y-112081198D01*
X136513218Y-112096972D01*
X136514000Y-112112900D01*
X136514000Y-112437900D01*
X136513218Y-112453828D01*
X136510878Y-112469602D01*
X136507003Y-112485071D01*
X136501630Y-112500086D01*
X136494812Y-112514502D01*
X136486614Y-112528180D01*
X136477114Y-112540989D01*
X136466405Y-112552805D01*
X136454589Y-112563514D01*
X136441780Y-112573014D01*
X136428102Y-112581212D01*
X136413686Y-112588030D01*
X136398671Y-112593403D01*
X136383202Y-112597278D01*
X136367428Y-112599618D01*
X136351500Y-112600400D01*
X135616500Y-112600400D01*
X135600572Y-112599618D01*
X135584798Y-112597278D01*
X135569329Y-112593403D01*
X135554314Y-112588030D01*
X135539898Y-112581212D01*
X135526220Y-112573014D01*
X135513411Y-112563514D01*
X135501595Y-112552805D01*
X135490886Y-112540989D01*
X135481386Y-112528180D01*
X135473188Y-112514502D01*
X135466370Y-112500086D01*
X135460997Y-112485071D01*
X135457122Y-112469602D01*
X135454782Y-112453828D01*
X135454000Y-112437900D01*
X135454000Y-112112900D01*
X135454782Y-112096972D01*
X135457122Y-112081198D01*
X135460997Y-112065729D01*
X135466370Y-112050714D01*
X135473188Y-112036298D01*
X135481386Y-112022620D01*
X135490886Y-112009811D01*
X135501595Y-111997995D01*
X135513411Y-111987286D01*
X135526220Y-111977786D01*
X135539898Y-111969588D01*
X135554314Y-111962770D01*
X135569329Y-111957397D01*
X135584798Y-111953522D01*
X135600572Y-111951182D01*
X135616500Y-111950400D01*
X136351500Y-111950400D01*
X136367428Y-111951182D01*
X136367428Y-111951182D01*
G37*
D11*
X135984000Y-112275400D03*
D10*
G36*
X136367428Y-111001182D02*
G01*
X136383202Y-111003522D01*
X136398671Y-111007397D01*
X136413686Y-111012770D01*
X136428102Y-111019588D01*
X136441780Y-111027786D01*
X136454589Y-111037286D01*
X136466405Y-111047995D01*
X136477114Y-111059811D01*
X136486614Y-111072620D01*
X136494812Y-111086298D01*
X136501630Y-111100714D01*
X136507003Y-111115729D01*
X136510878Y-111131198D01*
X136513218Y-111146972D01*
X136514000Y-111162900D01*
X136514000Y-111487900D01*
X136513218Y-111503828D01*
X136510878Y-111519602D01*
X136507003Y-111535071D01*
X136501630Y-111550086D01*
X136494812Y-111564502D01*
X136486614Y-111578180D01*
X136477114Y-111590989D01*
X136466405Y-111602805D01*
X136454589Y-111613514D01*
X136441780Y-111623014D01*
X136428102Y-111631212D01*
X136413686Y-111638030D01*
X136398671Y-111643403D01*
X136383202Y-111647278D01*
X136367428Y-111649618D01*
X136351500Y-111650400D01*
X135616500Y-111650400D01*
X135600572Y-111649618D01*
X135584798Y-111647278D01*
X135569329Y-111643403D01*
X135554314Y-111638030D01*
X135539898Y-111631212D01*
X135526220Y-111623014D01*
X135513411Y-111613514D01*
X135501595Y-111602805D01*
X135490886Y-111590989D01*
X135481386Y-111578180D01*
X135473188Y-111564502D01*
X135466370Y-111550086D01*
X135460997Y-111535071D01*
X135457122Y-111519602D01*
X135454782Y-111503828D01*
X135454000Y-111487900D01*
X135454000Y-111162900D01*
X135454782Y-111146972D01*
X135457122Y-111131198D01*
X135460997Y-111115729D01*
X135466370Y-111100714D01*
X135473188Y-111086298D01*
X135481386Y-111072620D01*
X135490886Y-111059811D01*
X135501595Y-111047995D01*
X135513411Y-111037286D01*
X135526220Y-111027786D01*
X135539898Y-111019588D01*
X135554314Y-111012770D01*
X135569329Y-111007397D01*
X135584798Y-111003522D01*
X135600572Y-111001182D01*
X135616500Y-111000400D01*
X136351500Y-111000400D01*
X136367428Y-111001182D01*
X136367428Y-111001182D01*
G37*
D11*
X135984000Y-111325400D03*
D10*
G36*
X136367428Y-110051182D02*
G01*
X136383202Y-110053522D01*
X136398671Y-110057397D01*
X136413686Y-110062770D01*
X136428102Y-110069588D01*
X136441780Y-110077786D01*
X136454589Y-110087286D01*
X136466405Y-110097995D01*
X136477114Y-110109811D01*
X136486614Y-110122620D01*
X136494812Y-110136298D01*
X136501630Y-110150714D01*
X136507003Y-110165729D01*
X136510878Y-110181198D01*
X136513218Y-110196972D01*
X136514000Y-110212900D01*
X136514000Y-110537900D01*
X136513218Y-110553828D01*
X136510878Y-110569602D01*
X136507003Y-110585071D01*
X136501630Y-110600086D01*
X136494812Y-110614502D01*
X136486614Y-110628180D01*
X136477114Y-110640989D01*
X136466405Y-110652805D01*
X136454589Y-110663514D01*
X136441780Y-110673014D01*
X136428102Y-110681212D01*
X136413686Y-110688030D01*
X136398671Y-110693403D01*
X136383202Y-110697278D01*
X136367428Y-110699618D01*
X136351500Y-110700400D01*
X135616500Y-110700400D01*
X135600572Y-110699618D01*
X135584798Y-110697278D01*
X135569329Y-110693403D01*
X135554314Y-110688030D01*
X135539898Y-110681212D01*
X135526220Y-110673014D01*
X135513411Y-110663514D01*
X135501595Y-110652805D01*
X135490886Y-110640989D01*
X135481386Y-110628180D01*
X135473188Y-110614502D01*
X135466370Y-110600086D01*
X135460997Y-110585071D01*
X135457122Y-110569602D01*
X135454782Y-110553828D01*
X135454000Y-110537900D01*
X135454000Y-110212900D01*
X135454782Y-110196972D01*
X135457122Y-110181198D01*
X135460997Y-110165729D01*
X135466370Y-110150714D01*
X135473188Y-110136298D01*
X135481386Y-110122620D01*
X135490886Y-110109811D01*
X135501595Y-110097995D01*
X135513411Y-110087286D01*
X135526220Y-110077786D01*
X135539898Y-110069588D01*
X135554314Y-110062770D01*
X135569329Y-110057397D01*
X135584798Y-110053522D01*
X135600572Y-110051182D01*
X135616500Y-110050400D01*
X136351500Y-110050400D01*
X136367428Y-110051182D01*
X136367428Y-110051182D01*
G37*
D11*
X135984000Y-110375400D03*
D10*
G36*
X64399428Y-110051182D02*
G01*
X64415202Y-110053522D01*
X64430671Y-110057397D01*
X64445686Y-110062770D01*
X64460102Y-110069588D01*
X64473780Y-110077786D01*
X64486589Y-110087286D01*
X64498405Y-110097995D01*
X64509114Y-110109811D01*
X64518614Y-110122620D01*
X64526812Y-110136298D01*
X64533630Y-110150714D01*
X64539003Y-110165729D01*
X64542878Y-110181198D01*
X64545218Y-110196972D01*
X64546000Y-110212900D01*
X64546000Y-110537900D01*
X64545218Y-110553828D01*
X64542878Y-110569602D01*
X64539003Y-110585071D01*
X64533630Y-110600086D01*
X64526812Y-110614502D01*
X64518614Y-110628180D01*
X64509114Y-110640989D01*
X64498405Y-110652805D01*
X64486589Y-110663514D01*
X64473780Y-110673014D01*
X64460102Y-110681212D01*
X64445686Y-110688030D01*
X64430671Y-110693403D01*
X64415202Y-110697278D01*
X64399428Y-110699618D01*
X64383500Y-110700400D01*
X63648500Y-110700400D01*
X63632572Y-110699618D01*
X63616798Y-110697278D01*
X63601329Y-110693403D01*
X63586314Y-110688030D01*
X63571898Y-110681212D01*
X63558220Y-110673014D01*
X63545411Y-110663514D01*
X63533595Y-110652805D01*
X63522886Y-110640989D01*
X63513386Y-110628180D01*
X63505188Y-110614502D01*
X63498370Y-110600086D01*
X63492997Y-110585071D01*
X63489122Y-110569602D01*
X63486782Y-110553828D01*
X63486000Y-110537900D01*
X63486000Y-110212900D01*
X63486782Y-110196972D01*
X63489122Y-110181198D01*
X63492997Y-110165729D01*
X63498370Y-110150714D01*
X63505188Y-110136298D01*
X63513386Y-110122620D01*
X63522886Y-110109811D01*
X63533595Y-110097995D01*
X63545411Y-110087286D01*
X63558220Y-110077786D01*
X63571898Y-110069588D01*
X63586314Y-110062770D01*
X63601329Y-110057397D01*
X63616798Y-110053522D01*
X63632572Y-110051182D01*
X63648500Y-110050400D01*
X64383500Y-110050400D01*
X64399428Y-110051182D01*
X64399428Y-110051182D01*
G37*
D11*
X64016000Y-110375400D03*
D10*
G36*
X64399428Y-111951182D02*
G01*
X64415202Y-111953522D01*
X64430671Y-111957397D01*
X64445686Y-111962770D01*
X64460102Y-111969588D01*
X64473780Y-111977786D01*
X64486589Y-111987286D01*
X64498405Y-111997995D01*
X64509114Y-112009811D01*
X64518614Y-112022620D01*
X64526812Y-112036298D01*
X64533630Y-112050714D01*
X64539003Y-112065729D01*
X64542878Y-112081198D01*
X64545218Y-112096972D01*
X64546000Y-112112900D01*
X64546000Y-112437900D01*
X64545218Y-112453828D01*
X64542878Y-112469602D01*
X64539003Y-112485071D01*
X64533630Y-112500086D01*
X64526812Y-112514502D01*
X64518614Y-112528180D01*
X64509114Y-112540989D01*
X64498405Y-112552805D01*
X64486589Y-112563514D01*
X64473780Y-112573014D01*
X64460102Y-112581212D01*
X64445686Y-112588030D01*
X64430671Y-112593403D01*
X64415202Y-112597278D01*
X64399428Y-112599618D01*
X64383500Y-112600400D01*
X63648500Y-112600400D01*
X63632572Y-112599618D01*
X63616798Y-112597278D01*
X63601329Y-112593403D01*
X63586314Y-112588030D01*
X63571898Y-112581212D01*
X63558220Y-112573014D01*
X63545411Y-112563514D01*
X63533595Y-112552805D01*
X63522886Y-112540989D01*
X63513386Y-112528180D01*
X63505188Y-112514502D01*
X63498370Y-112500086D01*
X63492997Y-112485071D01*
X63489122Y-112469602D01*
X63486782Y-112453828D01*
X63486000Y-112437900D01*
X63486000Y-112112900D01*
X63486782Y-112096972D01*
X63489122Y-112081198D01*
X63492997Y-112065729D01*
X63498370Y-112050714D01*
X63505188Y-112036298D01*
X63513386Y-112022620D01*
X63522886Y-112009811D01*
X63533595Y-111997995D01*
X63545411Y-111987286D01*
X63558220Y-111977786D01*
X63571898Y-111969588D01*
X63586314Y-111962770D01*
X63601329Y-111957397D01*
X63616798Y-111953522D01*
X63632572Y-111951182D01*
X63648500Y-111950400D01*
X64383500Y-111950400D01*
X64399428Y-111951182D01*
X64399428Y-111951182D01*
G37*
D11*
X64016000Y-112275400D03*
D10*
G36*
X62199428Y-111951182D02*
G01*
X62215202Y-111953522D01*
X62230671Y-111957397D01*
X62245686Y-111962770D01*
X62260102Y-111969588D01*
X62273780Y-111977786D01*
X62286589Y-111987286D01*
X62298405Y-111997995D01*
X62309114Y-112009811D01*
X62318614Y-112022620D01*
X62326812Y-112036298D01*
X62333630Y-112050714D01*
X62339003Y-112065729D01*
X62342878Y-112081198D01*
X62345218Y-112096972D01*
X62346000Y-112112900D01*
X62346000Y-112437900D01*
X62345218Y-112453828D01*
X62342878Y-112469602D01*
X62339003Y-112485071D01*
X62333630Y-112500086D01*
X62326812Y-112514502D01*
X62318614Y-112528180D01*
X62309114Y-112540989D01*
X62298405Y-112552805D01*
X62286589Y-112563514D01*
X62273780Y-112573014D01*
X62260102Y-112581212D01*
X62245686Y-112588030D01*
X62230671Y-112593403D01*
X62215202Y-112597278D01*
X62199428Y-112599618D01*
X62183500Y-112600400D01*
X61448500Y-112600400D01*
X61432572Y-112599618D01*
X61416798Y-112597278D01*
X61401329Y-112593403D01*
X61386314Y-112588030D01*
X61371898Y-112581212D01*
X61358220Y-112573014D01*
X61345411Y-112563514D01*
X61333595Y-112552805D01*
X61322886Y-112540989D01*
X61313386Y-112528180D01*
X61305188Y-112514502D01*
X61298370Y-112500086D01*
X61292997Y-112485071D01*
X61289122Y-112469602D01*
X61286782Y-112453828D01*
X61286000Y-112437900D01*
X61286000Y-112112900D01*
X61286782Y-112096972D01*
X61289122Y-112081198D01*
X61292997Y-112065729D01*
X61298370Y-112050714D01*
X61305188Y-112036298D01*
X61313386Y-112022620D01*
X61322886Y-112009811D01*
X61333595Y-111997995D01*
X61345411Y-111987286D01*
X61358220Y-111977786D01*
X61371898Y-111969588D01*
X61386314Y-111962770D01*
X61401329Y-111957397D01*
X61416798Y-111953522D01*
X61432572Y-111951182D01*
X61448500Y-111950400D01*
X62183500Y-111950400D01*
X62199428Y-111951182D01*
X62199428Y-111951182D01*
G37*
D11*
X61816000Y-112275400D03*
D10*
G36*
X62199428Y-111001182D02*
G01*
X62215202Y-111003522D01*
X62230671Y-111007397D01*
X62245686Y-111012770D01*
X62260102Y-111019588D01*
X62273780Y-111027786D01*
X62286589Y-111037286D01*
X62298405Y-111047995D01*
X62309114Y-111059811D01*
X62318614Y-111072620D01*
X62326812Y-111086298D01*
X62333630Y-111100714D01*
X62339003Y-111115729D01*
X62342878Y-111131198D01*
X62345218Y-111146972D01*
X62346000Y-111162900D01*
X62346000Y-111487900D01*
X62345218Y-111503828D01*
X62342878Y-111519602D01*
X62339003Y-111535071D01*
X62333630Y-111550086D01*
X62326812Y-111564502D01*
X62318614Y-111578180D01*
X62309114Y-111590989D01*
X62298405Y-111602805D01*
X62286589Y-111613514D01*
X62273780Y-111623014D01*
X62260102Y-111631212D01*
X62245686Y-111638030D01*
X62230671Y-111643403D01*
X62215202Y-111647278D01*
X62199428Y-111649618D01*
X62183500Y-111650400D01*
X61448500Y-111650400D01*
X61432572Y-111649618D01*
X61416798Y-111647278D01*
X61401329Y-111643403D01*
X61386314Y-111638030D01*
X61371898Y-111631212D01*
X61358220Y-111623014D01*
X61345411Y-111613514D01*
X61333595Y-111602805D01*
X61322886Y-111590989D01*
X61313386Y-111578180D01*
X61305188Y-111564502D01*
X61298370Y-111550086D01*
X61292997Y-111535071D01*
X61289122Y-111519602D01*
X61286782Y-111503828D01*
X61286000Y-111487900D01*
X61286000Y-111162900D01*
X61286782Y-111146972D01*
X61289122Y-111131198D01*
X61292997Y-111115729D01*
X61298370Y-111100714D01*
X61305188Y-111086298D01*
X61313386Y-111072620D01*
X61322886Y-111059811D01*
X61333595Y-111047995D01*
X61345411Y-111037286D01*
X61358220Y-111027786D01*
X61371898Y-111019588D01*
X61386314Y-111012770D01*
X61401329Y-111007397D01*
X61416798Y-111003522D01*
X61432572Y-111001182D01*
X61448500Y-111000400D01*
X62183500Y-111000400D01*
X62199428Y-111001182D01*
X62199428Y-111001182D01*
G37*
D11*
X61816000Y-111325400D03*
D10*
G36*
X62199428Y-110051182D02*
G01*
X62215202Y-110053522D01*
X62230671Y-110057397D01*
X62245686Y-110062770D01*
X62260102Y-110069588D01*
X62273780Y-110077786D01*
X62286589Y-110087286D01*
X62298405Y-110097995D01*
X62309114Y-110109811D01*
X62318614Y-110122620D01*
X62326812Y-110136298D01*
X62333630Y-110150714D01*
X62339003Y-110165729D01*
X62342878Y-110181198D01*
X62345218Y-110196972D01*
X62346000Y-110212900D01*
X62346000Y-110537900D01*
X62345218Y-110553828D01*
X62342878Y-110569602D01*
X62339003Y-110585071D01*
X62333630Y-110600086D01*
X62326812Y-110614502D01*
X62318614Y-110628180D01*
X62309114Y-110640989D01*
X62298405Y-110652805D01*
X62286589Y-110663514D01*
X62273780Y-110673014D01*
X62260102Y-110681212D01*
X62245686Y-110688030D01*
X62230671Y-110693403D01*
X62215202Y-110697278D01*
X62199428Y-110699618D01*
X62183500Y-110700400D01*
X61448500Y-110700400D01*
X61432572Y-110699618D01*
X61416798Y-110697278D01*
X61401329Y-110693403D01*
X61386314Y-110688030D01*
X61371898Y-110681212D01*
X61358220Y-110673014D01*
X61345411Y-110663514D01*
X61333595Y-110652805D01*
X61322886Y-110640989D01*
X61313386Y-110628180D01*
X61305188Y-110614502D01*
X61298370Y-110600086D01*
X61292997Y-110585071D01*
X61289122Y-110569602D01*
X61286782Y-110553828D01*
X61286000Y-110537900D01*
X61286000Y-110212900D01*
X61286782Y-110196972D01*
X61289122Y-110181198D01*
X61292997Y-110165729D01*
X61298370Y-110150714D01*
X61305188Y-110136298D01*
X61313386Y-110122620D01*
X61322886Y-110109811D01*
X61333595Y-110097995D01*
X61345411Y-110087286D01*
X61358220Y-110077786D01*
X61371898Y-110069588D01*
X61386314Y-110062770D01*
X61401329Y-110057397D01*
X61416798Y-110053522D01*
X61432572Y-110051182D01*
X61448500Y-110050400D01*
X62183500Y-110050400D01*
X62199428Y-110051182D01*
X62199428Y-110051182D01*
G37*
D11*
X61816000Y-110375400D03*
D10*
G36*
X68463428Y-110051182D02*
G01*
X68479202Y-110053522D01*
X68494671Y-110057397D01*
X68509686Y-110062770D01*
X68524102Y-110069588D01*
X68537780Y-110077786D01*
X68550589Y-110087286D01*
X68562405Y-110097995D01*
X68573114Y-110109811D01*
X68582614Y-110122620D01*
X68590812Y-110136298D01*
X68597630Y-110150714D01*
X68603003Y-110165729D01*
X68606878Y-110181198D01*
X68609218Y-110196972D01*
X68610000Y-110212900D01*
X68610000Y-110537900D01*
X68609218Y-110553828D01*
X68606878Y-110569602D01*
X68603003Y-110585071D01*
X68597630Y-110600086D01*
X68590812Y-110614502D01*
X68582614Y-110628180D01*
X68573114Y-110640989D01*
X68562405Y-110652805D01*
X68550589Y-110663514D01*
X68537780Y-110673014D01*
X68524102Y-110681212D01*
X68509686Y-110688030D01*
X68494671Y-110693403D01*
X68479202Y-110697278D01*
X68463428Y-110699618D01*
X68447500Y-110700400D01*
X67712500Y-110700400D01*
X67696572Y-110699618D01*
X67680798Y-110697278D01*
X67665329Y-110693403D01*
X67650314Y-110688030D01*
X67635898Y-110681212D01*
X67622220Y-110673014D01*
X67609411Y-110663514D01*
X67597595Y-110652805D01*
X67586886Y-110640989D01*
X67577386Y-110628180D01*
X67569188Y-110614502D01*
X67562370Y-110600086D01*
X67556997Y-110585071D01*
X67553122Y-110569602D01*
X67550782Y-110553828D01*
X67550000Y-110537900D01*
X67550000Y-110212900D01*
X67550782Y-110196972D01*
X67553122Y-110181198D01*
X67556997Y-110165729D01*
X67562370Y-110150714D01*
X67569188Y-110136298D01*
X67577386Y-110122620D01*
X67586886Y-110109811D01*
X67597595Y-110097995D01*
X67609411Y-110087286D01*
X67622220Y-110077786D01*
X67635898Y-110069588D01*
X67650314Y-110062770D01*
X67665329Y-110057397D01*
X67680798Y-110053522D01*
X67696572Y-110051182D01*
X67712500Y-110050400D01*
X68447500Y-110050400D01*
X68463428Y-110051182D01*
X68463428Y-110051182D01*
G37*
D11*
X68080000Y-110375400D03*
D10*
G36*
X68463428Y-111951182D02*
G01*
X68479202Y-111953522D01*
X68494671Y-111957397D01*
X68509686Y-111962770D01*
X68524102Y-111969588D01*
X68537780Y-111977786D01*
X68550589Y-111987286D01*
X68562405Y-111997995D01*
X68573114Y-112009811D01*
X68582614Y-112022620D01*
X68590812Y-112036298D01*
X68597630Y-112050714D01*
X68603003Y-112065729D01*
X68606878Y-112081198D01*
X68609218Y-112096972D01*
X68610000Y-112112900D01*
X68610000Y-112437900D01*
X68609218Y-112453828D01*
X68606878Y-112469602D01*
X68603003Y-112485071D01*
X68597630Y-112500086D01*
X68590812Y-112514502D01*
X68582614Y-112528180D01*
X68573114Y-112540989D01*
X68562405Y-112552805D01*
X68550589Y-112563514D01*
X68537780Y-112573014D01*
X68524102Y-112581212D01*
X68509686Y-112588030D01*
X68494671Y-112593403D01*
X68479202Y-112597278D01*
X68463428Y-112599618D01*
X68447500Y-112600400D01*
X67712500Y-112600400D01*
X67696572Y-112599618D01*
X67680798Y-112597278D01*
X67665329Y-112593403D01*
X67650314Y-112588030D01*
X67635898Y-112581212D01*
X67622220Y-112573014D01*
X67609411Y-112563514D01*
X67597595Y-112552805D01*
X67586886Y-112540989D01*
X67577386Y-112528180D01*
X67569188Y-112514502D01*
X67562370Y-112500086D01*
X67556997Y-112485071D01*
X67553122Y-112469602D01*
X67550782Y-112453828D01*
X67550000Y-112437900D01*
X67550000Y-112112900D01*
X67550782Y-112096972D01*
X67553122Y-112081198D01*
X67556997Y-112065729D01*
X67562370Y-112050714D01*
X67569188Y-112036298D01*
X67577386Y-112022620D01*
X67586886Y-112009811D01*
X67597595Y-111997995D01*
X67609411Y-111987286D01*
X67622220Y-111977786D01*
X67635898Y-111969588D01*
X67650314Y-111962770D01*
X67665329Y-111957397D01*
X67680798Y-111953522D01*
X67696572Y-111951182D01*
X67712500Y-111950400D01*
X68447500Y-111950400D01*
X68463428Y-111951182D01*
X68463428Y-111951182D01*
G37*
D11*
X68080000Y-112275400D03*
D10*
G36*
X66263428Y-111951182D02*
G01*
X66279202Y-111953522D01*
X66294671Y-111957397D01*
X66309686Y-111962770D01*
X66324102Y-111969588D01*
X66337780Y-111977786D01*
X66350589Y-111987286D01*
X66362405Y-111997995D01*
X66373114Y-112009811D01*
X66382614Y-112022620D01*
X66390812Y-112036298D01*
X66397630Y-112050714D01*
X66403003Y-112065729D01*
X66406878Y-112081198D01*
X66409218Y-112096972D01*
X66410000Y-112112900D01*
X66410000Y-112437900D01*
X66409218Y-112453828D01*
X66406878Y-112469602D01*
X66403003Y-112485071D01*
X66397630Y-112500086D01*
X66390812Y-112514502D01*
X66382614Y-112528180D01*
X66373114Y-112540989D01*
X66362405Y-112552805D01*
X66350589Y-112563514D01*
X66337780Y-112573014D01*
X66324102Y-112581212D01*
X66309686Y-112588030D01*
X66294671Y-112593403D01*
X66279202Y-112597278D01*
X66263428Y-112599618D01*
X66247500Y-112600400D01*
X65512500Y-112600400D01*
X65496572Y-112599618D01*
X65480798Y-112597278D01*
X65465329Y-112593403D01*
X65450314Y-112588030D01*
X65435898Y-112581212D01*
X65422220Y-112573014D01*
X65409411Y-112563514D01*
X65397595Y-112552805D01*
X65386886Y-112540989D01*
X65377386Y-112528180D01*
X65369188Y-112514502D01*
X65362370Y-112500086D01*
X65356997Y-112485071D01*
X65353122Y-112469602D01*
X65350782Y-112453828D01*
X65350000Y-112437900D01*
X65350000Y-112112900D01*
X65350782Y-112096972D01*
X65353122Y-112081198D01*
X65356997Y-112065729D01*
X65362370Y-112050714D01*
X65369188Y-112036298D01*
X65377386Y-112022620D01*
X65386886Y-112009811D01*
X65397595Y-111997995D01*
X65409411Y-111987286D01*
X65422220Y-111977786D01*
X65435898Y-111969588D01*
X65450314Y-111962770D01*
X65465329Y-111957397D01*
X65480798Y-111953522D01*
X65496572Y-111951182D01*
X65512500Y-111950400D01*
X66247500Y-111950400D01*
X66263428Y-111951182D01*
X66263428Y-111951182D01*
G37*
D11*
X65880000Y-112275400D03*
D10*
G36*
X66263428Y-111001182D02*
G01*
X66279202Y-111003522D01*
X66294671Y-111007397D01*
X66309686Y-111012770D01*
X66324102Y-111019588D01*
X66337780Y-111027786D01*
X66350589Y-111037286D01*
X66362405Y-111047995D01*
X66373114Y-111059811D01*
X66382614Y-111072620D01*
X66390812Y-111086298D01*
X66397630Y-111100714D01*
X66403003Y-111115729D01*
X66406878Y-111131198D01*
X66409218Y-111146972D01*
X66410000Y-111162900D01*
X66410000Y-111487900D01*
X66409218Y-111503828D01*
X66406878Y-111519602D01*
X66403003Y-111535071D01*
X66397630Y-111550086D01*
X66390812Y-111564502D01*
X66382614Y-111578180D01*
X66373114Y-111590989D01*
X66362405Y-111602805D01*
X66350589Y-111613514D01*
X66337780Y-111623014D01*
X66324102Y-111631212D01*
X66309686Y-111638030D01*
X66294671Y-111643403D01*
X66279202Y-111647278D01*
X66263428Y-111649618D01*
X66247500Y-111650400D01*
X65512500Y-111650400D01*
X65496572Y-111649618D01*
X65480798Y-111647278D01*
X65465329Y-111643403D01*
X65450314Y-111638030D01*
X65435898Y-111631212D01*
X65422220Y-111623014D01*
X65409411Y-111613514D01*
X65397595Y-111602805D01*
X65386886Y-111590989D01*
X65377386Y-111578180D01*
X65369188Y-111564502D01*
X65362370Y-111550086D01*
X65356997Y-111535071D01*
X65353122Y-111519602D01*
X65350782Y-111503828D01*
X65350000Y-111487900D01*
X65350000Y-111162900D01*
X65350782Y-111146972D01*
X65353122Y-111131198D01*
X65356997Y-111115729D01*
X65362370Y-111100714D01*
X65369188Y-111086298D01*
X65377386Y-111072620D01*
X65386886Y-111059811D01*
X65397595Y-111047995D01*
X65409411Y-111037286D01*
X65422220Y-111027786D01*
X65435898Y-111019588D01*
X65450314Y-111012770D01*
X65465329Y-111007397D01*
X65480798Y-111003522D01*
X65496572Y-111001182D01*
X65512500Y-111000400D01*
X66247500Y-111000400D01*
X66263428Y-111001182D01*
X66263428Y-111001182D01*
G37*
D11*
X65880000Y-111325400D03*
D10*
G36*
X66263428Y-110051182D02*
G01*
X66279202Y-110053522D01*
X66294671Y-110057397D01*
X66309686Y-110062770D01*
X66324102Y-110069588D01*
X66337780Y-110077786D01*
X66350589Y-110087286D01*
X66362405Y-110097995D01*
X66373114Y-110109811D01*
X66382614Y-110122620D01*
X66390812Y-110136298D01*
X66397630Y-110150714D01*
X66403003Y-110165729D01*
X66406878Y-110181198D01*
X66409218Y-110196972D01*
X66410000Y-110212900D01*
X66410000Y-110537900D01*
X66409218Y-110553828D01*
X66406878Y-110569602D01*
X66403003Y-110585071D01*
X66397630Y-110600086D01*
X66390812Y-110614502D01*
X66382614Y-110628180D01*
X66373114Y-110640989D01*
X66362405Y-110652805D01*
X66350589Y-110663514D01*
X66337780Y-110673014D01*
X66324102Y-110681212D01*
X66309686Y-110688030D01*
X66294671Y-110693403D01*
X66279202Y-110697278D01*
X66263428Y-110699618D01*
X66247500Y-110700400D01*
X65512500Y-110700400D01*
X65496572Y-110699618D01*
X65480798Y-110697278D01*
X65465329Y-110693403D01*
X65450314Y-110688030D01*
X65435898Y-110681212D01*
X65422220Y-110673014D01*
X65409411Y-110663514D01*
X65397595Y-110652805D01*
X65386886Y-110640989D01*
X65377386Y-110628180D01*
X65369188Y-110614502D01*
X65362370Y-110600086D01*
X65356997Y-110585071D01*
X65353122Y-110569602D01*
X65350782Y-110553828D01*
X65350000Y-110537900D01*
X65350000Y-110212900D01*
X65350782Y-110196972D01*
X65353122Y-110181198D01*
X65356997Y-110165729D01*
X65362370Y-110150714D01*
X65369188Y-110136298D01*
X65377386Y-110122620D01*
X65386886Y-110109811D01*
X65397595Y-110097995D01*
X65409411Y-110087286D01*
X65422220Y-110077786D01*
X65435898Y-110069588D01*
X65450314Y-110062770D01*
X65465329Y-110057397D01*
X65480798Y-110053522D01*
X65496572Y-110051182D01*
X65512500Y-110050400D01*
X66247500Y-110050400D01*
X66263428Y-110051182D01*
X66263428Y-110051182D01*
G37*
D11*
X65880000Y-110375400D03*
D10*
G36*
X122438428Y-110975782D02*
G01*
X122454202Y-110978122D01*
X122469671Y-110981997D01*
X122484686Y-110987370D01*
X122499102Y-110994188D01*
X122512780Y-111002386D01*
X122525589Y-111011886D01*
X122537405Y-111022595D01*
X122548114Y-111034411D01*
X122557614Y-111047220D01*
X122565812Y-111060898D01*
X122572630Y-111075314D01*
X122578003Y-111090329D01*
X122581878Y-111105798D01*
X122584218Y-111121572D01*
X122585000Y-111137500D01*
X122585000Y-111462500D01*
X122584218Y-111478428D01*
X122581878Y-111494202D01*
X122578003Y-111509671D01*
X122572630Y-111524686D01*
X122565812Y-111539102D01*
X122557614Y-111552780D01*
X122548114Y-111565589D01*
X122537405Y-111577405D01*
X122525589Y-111588114D01*
X122512780Y-111597614D01*
X122499102Y-111605812D01*
X122484686Y-111612630D01*
X122469671Y-111618003D01*
X122454202Y-111621878D01*
X122438428Y-111624218D01*
X122422500Y-111625000D01*
X121687500Y-111625000D01*
X121671572Y-111624218D01*
X121655798Y-111621878D01*
X121640329Y-111618003D01*
X121625314Y-111612630D01*
X121610898Y-111605812D01*
X121597220Y-111597614D01*
X121584411Y-111588114D01*
X121572595Y-111577405D01*
X121561886Y-111565589D01*
X121552386Y-111552780D01*
X121544188Y-111539102D01*
X121537370Y-111524686D01*
X121531997Y-111509671D01*
X121528122Y-111494202D01*
X121525782Y-111478428D01*
X121525000Y-111462500D01*
X121525000Y-111137500D01*
X121525782Y-111121572D01*
X121528122Y-111105798D01*
X121531997Y-111090329D01*
X121537370Y-111075314D01*
X121544188Y-111060898D01*
X121552386Y-111047220D01*
X121561886Y-111034411D01*
X121572595Y-111022595D01*
X121584411Y-111011886D01*
X121597220Y-111002386D01*
X121610898Y-110994188D01*
X121625314Y-110987370D01*
X121640329Y-110981997D01*
X121655798Y-110978122D01*
X121671572Y-110975782D01*
X121687500Y-110975000D01*
X122422500Y-110975000D01*
X122438428Y-110975782D01*
X122438428Y-110975782D01*
G37*
D11*
X122055000Y-111300000D03*
D10*
G36*
X122438428Y-110025782D02*
G01*
X122454202Y-110028122D01*
X122469671Y-110031997D01*
X122484686Y-110037370D01*
X122499102Y-110044188D01*
X122512780Y-110052386D01*
X122525589Y-110061886D01*
X122537405Y-110072595D01*
X122548114Y-110084411D01*
X122557614Y-110097220D01*
X122565812Y-110110898D01*
X122572630Y-110125314D01*
X122578003Y-110140329D01*
X122581878Y-110155798D01*
X122584218Y-110171572D01*
X122585000Y-110187500D01*
X122585000Y-110512500D01*
X122584218Y-110528428D01*
X122581878Y-110544202D01*
X122578003Y-110559671D01*
X122572630Y-110574686D01*
X122565812Y-110589102D01*
X122557614Y-110602780D01*
X122548114Y-110615589D01*
X122537405Y-110627405D01*
X122525589Y-110638114D01*
X122512780Y-110647614D01*
X122499102Y-110655812D01*
X122484686Y-110662630D01*
X122469671Y-110668003D01*
X122454202Y-110671878D01*
X122438428Y-110674218D01*
X122422500Y-110675000D01*
X121687500Y-110675000D01*
X121671572Y-110674218D01*
X121655798Y-110671878D01*
X121640329Y-110668003D01*
X121625314Y-110662630D01*
X121610898Y-110655812D01*
X121597220Y-110647614D01*
X121584411Y-110638114D01*
X121572595Y-110627405D01*
X121561886Y-110615589D01*
X121552386Y-110602780D01*
X121544188Y-110589102D01*
X121537370Y-110574686D01*
X121531997Y-110559671D01*
X121528122Y-110544202D01*
X121525782Y-110528428D01*
X121525000Y-110512500D01*
X121525000Y-110187500D01*
X121525782Y-110171572D01*
X121528122Y-110155798D01*
X121531997Y-110140329D01*
X121537370Y-110125314D01*
X121544188Y-110110898D01*
X121552386Y-110097220D01*
X121561886Y-110084411D01*
X121572595Y-110072595D01*
X121584411Y-110061886D01*
X121597220Y-110052386D01*
X121610898Y-110044188D01*
X121625314Y-110037370D01*
X121640329Y-110031997D01*
X121655798Y-110028122D01*
X121671572Y-110025782D01*
X121687500Y-110025000D01*
X122422500Y-110025000D01*
X122438428Y-110025782D01*
X122438428Y-110025782D01*
G37*
D11*
X122055000Y-110350000D03*
D10*
G36*
X122438428Y-111925782D02*
G01*
X122454202Y-111928122D01*
X122469671Y-111931997D01*
X122484686Y-111937370D01*
X122499102Y-111944188D01*
X122512780Y-111952386D01*
X122525589Y-111961886D01*
X122537405Y-111972595D01*
X122548114Y-111984411D01*
X122557614Y-111997220D01*
X122565812Y-112010898D01*
X122572630Y-112025314D01*
X122578003Y-112040329D01*
X122581878Y-112055798D01*
X122584218Y-112071572D01*
X122585000Y-112087500D01*
X122585000Y-112412500D01*
X122584218Y-112428428D01*
X122581878Y-112444202D01*
X122578003Y-112459671D01*
X122572630Y-112474686D01*
X122565812Y-112489102D01*
X122557614Y-112502780D01*
X122548114Y-112515589D01*
X122537405Y-112527405D01*
X122525589Y-112538114D01*
X122512780Y-112547614D01*
X122499102Y-112555812D01*
X122484686Y-112562630D01*
X122469671Y-112568003D01*
X122454202Y-112571878D01*
X122438428Y-112574218D01*
X122422500Y-112575000D01*
X121687500Y-112575000D01*
X121671572Y-112574218D01*
X121655798Y-112571878D01*
X121640329Y-112568003D01*
X121625314Y-112562630D01*
X121610898Y-112555812D01*
X121597220Y-112547614D01*
X121584411Y-112538114D01*
X121572595Y-112527405D01*
X121561886Y-112515589D01*
X121552386Y-112502780D01*
X121544188Y-112489102D01*
X121537370Y-112474686D01*
X121531997Y-112459671D01*
X121528122Y-112444202D01*
X121525782Y-112428428D01*
X121525000Y-112412500D01*
X121525000Y-112087500D01*
X121525782Y-112071572D01*
X121528122Y-112055798D01*
X121531997Y-112040329D01*
X121537370Y-112025314D01*
X121544188Y-112010898D01*
X121552386Y-111997220D01*
X121561886Y-111984411D01*
X121572595Y-111972595D01*
X121584411Y-111961886D01*
X121597220Y-111952386D01*
X121610898Y-111944188D01*
X121625314Y-111937370D01*
X121640329Y-111931997D01*
X121655798Y-111928122D01*
X121671572Y-111925782D01*
X121687500Y-111925000D01*
X122422500Y-111925000D01*
X122438428Y-111925782D01*
X122438428Y-111925782D01*
G37*
D11*
X122055000Y-112250000D03*
D10*
G36*
X120238428Y-111925782D02*
G01*
X120254202Y-111928122D01*
X120269671Y-111931997D01*
X120284686Y-111937370D01*
X120299102Y-111944188D01*
X120312780Y-111952386D01*
X120325589Y-111961886D01*
X120337405Y-111972595D01*
X120348114Y-111984411D01*
X120357614Y-111997220D01*
X120365812Y-112010898D01*
X120372630Y-112025314D01*
X120378003Y-112040329D01*
X120381878Y-112055798D01*
X120384218Y-112071572D01*
X120385000Y-112087500D01*
X120385000Y-112412500D01*
X120384218Y-112428428D01*
X120381878Y-112444202D01*
X120378003Y-112459671D01*
X120372630Y-112474686D01*
X120365812Y-112489102D01*
X120357614Y-112502780D01*
X120348114Y-112515589D01*
X120337405Y-112527405D01*
X120325589Y-112538114D01*
X120312780Y-112547614D01*
X120299102Y-112555812D01*
X120284686Y-112562630D01*
X120269671Y-112568003D01*
X120254202Y-112571878D01*
X120238428Y-112574218D01*
X120222500Y-112575000D01*
X119487500Y-112575000D01*
X119471572Y-112574218D01*
X119455798Y-112571878D01*
X119440329Y-112568003D01*
X119425314Y-112562630D01*
X119410898Y-112555812D01*
X119397220Y-112547614D01*
X119384411Y-112538114D01*
X119372595Y-112527405D01*
X119361886Y-112515589D01*
X119352386Y-112502780D01*
X119344188Y-112489102D01*
X119337370Y-112474686D01*
X119331997Y-112459671D01*
X119328122Y-112444202D01*
X119325782Y-112428428D01*
X119325000Y-112412500D01*
X119325000Y-112087500D01*
X119325782Y-112071572D01*
X119328122Y-112055798D01*
X119331997Y-112040329D01*
X119337370Y-112025314D01*
X119344188Y-112010898D01*
X119352386Y-111997220D01*
X119361886Y-111984411D01*
X119372595Y-111972595D01*
X119384411Y-111961886D01*
X119397220Y-111952386D01*
X119410898Y-111944188D01*
X119425314Y-111937370D01*
X119440329Y-111931997D01*
X119455798Y-111928122D01*
X119471572Y-111925782D01*
X119487500Y-111925000D01*
X120222500Y-111925000D01*
X120238428Y-111925782D01*
X120238428Y-111925782D01*
G37*
D11*
X119855000Y-112250000D03*
D10*
G36*
X120238428Y-110975782D02*
G01*
X120254202Y-110978122D01*
X120269671Y-110981997D01*
X120284686Y-110987370D01*
X120299102Y-110994188D01*
X120312780Y-111002386D01*
X120325589Y-111011886D01*
X120337405Y-111022595D01*
X120348114Y-111034411D01*
X120357614Y-111047220D01*
X120365812Y-111060898D01*
X120372630Y-111075314D01*
X120378003Y-111090329D01*
X120381878Y-111105798D01*
X120384218Y-111121572D01*
X120385000Y-111137500D01*
X120385000Y-111462500D01*
X120384218Y-111478428D01*
X120381878Y-111494202D01*
X120378003Y-111509671D01*
X120372630Y-111524686D01*
X120365812Y-111539102D01*
X120357614Y-111552780D01*
X120348114Y-111565589D01*
X120337405Y-111577405D01*
X120325589Y-111588114D01*
X120312780Y-111597614D01*
X120299102Y-111605812D01*
X120284686Y-111612630D01*
X120269671Y-111618003D01*
X120254202Y-111621878D01*
X120238428Y-111624218D01*
X120222500Y-111625000D01*
X119487500Y-111625000D01*
X119471572Y-111624218D01*
X119455798Y-111621878D01*
X119440329Y-111618003D01*
X119425314Y-111612630D01*
X119410898Y-111605812D01*
X119397220Y-111597614D01*
X119384411Y-111588114D01*
X119372595Y-111577405D01*
X119361886Y-111565589D01*
X119352386Y-111552780D01*
X119344188Y-111539102D01*
X119337370Y-111524686D01*
X119331997Y-111509671D01*
X119328122Y-111494202D01*
X119325782Y-111478428D01*
X119325000Y-111462500D01*
X119325000Y-111137500D01*
X119325782Y-111121572D01*
X119328122Y-111105798D01*
X119331997Y-111090329D01*
X119337370Y-111075314D01*
X119344188Y-111060898D01*
X119352386Y-111047220D01*
X119361886Y-111034411D01*
X119372595Y-111022595D01*
X119384411Y-111011886D01*
X119397220Y-111002386D01*
X119410898Y-110994188D01*
X119425314Y-110987370D01*
X119440329Y-110981997D01*
X119455798Y-110978122D01*
X119471572Y-110975782D01*
X119487500Y-110975000D01*
X120222500Y-110975000D01*
X120238428Y-110975782D01*
X120238428Y-110975782D01*
G37*
D11*
X119855000Y-111300000D03*
D10*
G36*
X120238428Y-110025782D02*
G01*
X120254202Y-110028122D01*
X120269671Y-110031997D01*
X120284686Y-110037370D01*
X120299102Y-110044188D01*
X120312780Y-110052386D01*
X120325589Y-110061886D01*
X120337405Y-110072595D01*
X120348114Y-110084411D01*
X120357614Y-110097220D01*
X120365812Y-110110898D01*
X120372630Y-110125314D01*
X120378003Y-110140329D01*
X120381878Y-110155798D01*
X120384218Y-110171572D01*
X120385000Y-110187500D01*
X120385000Y-110512500D01*
X120384218Y-110528428D01*
X120381878Y-110544202D01*
X120378003Y-110559671D01*
X120372630Y-110574686D01*
X120365812Y-110589102D01*
X120357614Y-110602780D01*
X120348114Y-110615589D01*
X120337405Y-110627405D01*
X120325589Y-110638114D01*
X120312780Y-110647614D01*
X120299102Y-110655812D01*
X120284686Y-110662630D01*
X120269671Y-110668003D01*
X120254202Y-110671878D01*
X120238428Y-110674218D01*
X120222500Y-110675000D01*
X119487500Y-110675000D01*
X119471572Y-110674218D01*
X119455798Y-110671878D01*
X119440329Y-110668003D01*
X119425314Y-110662630D01*
X119410898Y-110655812D01*
X119397220Y-110647614D01*
X119384411Y-110638114D01*
X119372595Y-110627405D01*
X119361886Y-110615589D01*
X119352386Y-110602780D01*
X119344188Y-110589102D01*
X119337370Y-110574686D01*
X119331997Y-110559671D01*
X119328122Y-110544202D01*
X119325782Y-110528428D01*
X119325000Y-110512500D01*
X119325000Y-110187500D01*
X119325782Y-110171572D01*
X119328122Y-110155798D01*
X119331997Y-110140329D01*
X119337370Y-110125314D01*
X119344188Y-110110898D01*
X119352386Y-110097220D01*
X119361886Y-110084411D01*
X119372595Y-110072595D01*
X119384411Y-110061886D01*
X119397220Y-110052386D01*
X119410898Y-110044188D01*
X119425314Y-110037370D01*
X119440329Y-110031997D01*
X119455798Y-110028122D01*
X119471572Y-110025782D01*
X119487500Y-110025000D01*
X120222500Y-110025000D01*
X120238428Y-110025782D01*
X120238428Y-110025782D01*
G37*
D11*
X119855000Y-110350000D03*
D10*
G36*
X72159142Y-111751174D02*
G01*
X72182803Y-111754684D01*
X72206007Y-111760496D01*
X72228529Y-111768554D01*
X72250153Y-111778782D01*
X72270670Y-111791079D01*
X72289883Y-111805329D01*
X72307607Y-111821393D01*
X72323671Y-111839117D01*
X72337921Y-111858330D01*
X72350218Y-111878847D01*
X72360446Y-111900471D01*
X72368504Y-111922993D01*
X72374316Y-111946197D01*
X72377826Y-111969858D01*
X72379000Y-111993750D01*
X72379000Y-112481250D01*
X72377826Y-112505142D01*
X72374316Y-112528803D01*
X72368504Y-112552007D01*
X72360446Y-112574529D01*
X72350218Y-112596153D01*
X72337921Y-112616670D01*
X72323671Y-112635883D01*
X72307607Y-112653607D01*
X72289883Y-112669671D01*
X72270670Y-112683921D01*
X72250153Y-112696218D01*
X72228529Y-112706446D01*
X72206007Y-112714504D01*
X72182803Y-112720316D01*
X72159142Y-112723826D01*
X72135250Y-112725000D01*
X71222750Y-112725000D01*
X71198858Y-112723826D01*
X71175197Y-112720316D01*
X71151993Y-112714504D01*
X71129471Y-112706446D01*
X71107847Y-112696218D01*
X71087330Y-112683921D01*
X71068117Y-112669671D01*
X71050393Y-112653607D01*
X71034329Y-112635883D01*
X71020079Y-112616670D01*
X71007782Y-112596153D01*
X70997554Y-112574529D01*
X70989496Y-112552007D01*
X70983684Y-112528803D01*
X70980174Y-112505142D01*
X70979000Y-112481250D01*
X70979000Y-111993750D01*
X70980174Y-111969858D01*
X70983684Y-111946197D01*
X70989496Y-111922993D01*
X70997554Y-111900471D01*
X71007782Y-111878847D01*
X71020079Y-111858330D01*
X71034329Y-111839117D01*
X71050393Y-111821393D01*
X71068117Y-111805329D01*
X71087330Y-111791079D01*
X71107847Y-111778782D01*
X71129471Y-111768554D01*
X71151993Y-111760496D01*
X71175197Y-111754684D01*
X71198858Y-111751174D01*
X71222750Y-111750000D01*
X72135250Y-111750000D01*
X72159142Y-111751174D01*
X72159142Y-111751174D01*
G37*
D12*
X71679000Y-112237500D03*
D10*
G36*
X72159142Y-109876174D02*
G01*
X72182803Y-109879684D01*
X72206007Y-109885496D01*
X72228529Y-109893554D01*
X72250153Y-109903782D01*
X72270670Y-109916079D01*
X72289883Y-109930329D01*
X72307607Y-109946393D01*
X72323671Y-109964117D01*
X72337921Y-109983330D01*
X72350218Y-110003847D01*
X72360446Y-110025471D01*
X72368504Y-110047993D01*
X72374316Y-110071197D01*
X72377826Y-110094858D01*
X72379000Y-110118750D01*
X72379000Y-110606250D01*
X72377826Y-110630142D01*
X72374316Y-110653803D01*
X72368504Y-110677007D01*
X72360446Y-110699529D01*
X72350218Y-110721153D01*
X72337921Y-110741670D01*
X72323671Y-110760883D01*
X72307607Y-110778607D01*
X72289883Y-110794671D01*
X72270670Y-110808921D01*
X72250153Y-110821218D01*
X72228529Y-110831446D01*
X72206007Y-110839504D01*
X72182803Y-110845316D01*
X72159142Y-110848826D01*
X72135250Y-110850000D01*
X71222750Y-110850000D01*
X71198858Y-110848826D01*
X71175197Y-110845316D01*
X71151993Y-110839504D01*
X71129471Y-110831446D01*
X71107847Y-110821218D01*
X71087330Y-110808921D01*
X71068117Y-110794671D01*
X71050393Y-110778607D01*
X71034329Y-110760883D01*
X71020079Y-110741670D01*
X71007782Y-110721153D01*
X70997554Y-110699529D01*
X70989496Y-110677007D01*
X70983684Y-110653803D01*
X70980174Y-110630142D01*
X70979000Y-110606250D01*
X70979000Y-110118750D01*
X70980174Y-110094858D01*
X70983684Y-110071197D01*
X70989496Y-110047993D01*
X70997554Y-110025471D01*
X71007782Y-110003847D01*
X71020079Y-109983330D01*
X71034329Y-109964117D01*
X71050393Y-109946393D01*
X71068117Y-109930329D01*
X71087330Y-109916079D01*
X71107847Y-109903782D01*
X71129471Y-109893554D01*
X71151993Y-109885496D01*
X71175197Y-109879684D01*
X71198858Y-109876174D01*
X71222750Y-109875000D01*
X72135250Y-109875000D01*
X72159142Y-109876174D01*
X72159142Y-109876174D01*
G37*
D12*
X71679000Y-110362500D03*
D10*
G36*
X80528428Y-110975782D02*
G01*
X80544202Y-110978122D01*
X80559671Y-110981997D01*
X80574686Y-110987370D01*
X80589102Y-110994188D01*
X80602780Y-111002386D01*
X80615589Y-111011886D01*
X80627405Y-111022595D01*
X80638114Y-111034411D01*
X80647614Y-111047220D01*
X80655812Y-111060898D01*
X80662630Y-111075314D01*
X80668003Y-111090329D01*
X80671878Y-111105798D01*
X80674218Y-111121572D01*
X80675000Y-111137500D01*
X80675000Y-111462500D01*
X80674218Y-111478428D01*
X80671878Y-111494202D01*
X80668003Y-111509671D01*
X80662630Y-111524686D01*
X80655812Y-111539102D01*
X80647614Y-111552780D01*
X80638114Y-111565589D01*
X80627405Y-111577405D01*
X80615589Y-111588114D01*
X80602780Y-111597614D01*
X80589102Y-111605812D01*
X80574686Y-111612630D01*
X80559671Y-111618003D01*
X80544202Y-111621878D01*
X80528428Y-111624218D01*
X80512500Y-111625000D01*
X79777500Y-111625000D01*
X79761572Y-111624218D01*
X79745798Y-111621878D01*
X79730329Y-111618003D01*
X79715314Y-111612630D01*
X79700898Y-111605812D01*
X79687220Y-111597614D01*
X79674411Y-111588114D01*
X79662595Y-111577405D01*
X79651886Y-111565589D01*
X79642386Y-111552780D01*
X79634188Y-111539102D01*
X79627370Y-111524686D01*
X79621997Y-111509671D01*
X79618122Y-111494202D01*
X79615782Y-111478428D01*
X79615000Y-111462500D01*
X79615000Y-111137500D01*
X79615782Y-111121572D01*
X79618122Y-111105798D01*
X79621997Y-111090329D01*
X79627370Y-111075314D01*
X79634188Y-111060898D01*
X79642386Y-111047220D01*
X79651886Y-111034411D01*
X79662595Y-111022595D01*
X79674411Y-111011886D01*
X79687220Y-111002386D01*
X79700898Y-110994188D01*
X79715314Y-110987370D01*
X79730329Y-110981997D01*
X79745798Y-110978122D01*
X79761572Y-110975782D01*
X79777500Y-110975000D01*
X80512500Y-110975000D01*
X80528428Y-110975782D01*
X80528428Y-110975782D01*
G37*
D11*
X80145000Y-111300000D03*
D10*
G36*
X80528428Y-110025782D02*
G01*
X80544202Y-110028122D01*
X80559671Y-110031997D01*
X80574686Y-110037370D01*
X80589102Y-110044188D01*
X80602780Y-110052386D01*
X80615589Y-110061886D01*
X80627405Y-110072595D01*
X80638114Y-110084411D01*
X80647614Y-110097220D01*
X80655812Y-110110898D01*
X80662630Y-110125314D01*
X80668003Y-110140329D01*
X80671878Y-110155798D01*
X80674218Y-110171572D01*
X80675000Y-110187500D01*
X80675000Y-110512500D01*
X80674218Y-110528428D01*
X80671878Y-110544202D01*
X80668003Y-110559671D01*
X80662630Y-110574686D01*
X80655812Y-110589102D01*
X80647614Y-110602780D01*
X80638114Y-110615589D01*
X80627405Y-110627405D01*
X80615589Y-110638114D01*
X80602780Y-110647614D01*
X80589102Y-110655812D01*
X80574686Y-110662630D01*
X80559671Y-110668003D01*
X80544202Y-110671878D01*
X80528428Y-110674218D01*
X80512500Y-110675000D01*
X79777500Y-110675000D01*
X79761572Y-110674218D01*
X79745798Y-110671878D01*
X79730329Y-110668003D01*
X79715314Y-110662630D01*
X79700898Y-110655812D01*
X79687220Y-110647614D01*
X79674411Y-110638114D01*
X79662595Y-110627405D01*
X79651886Y-110615589D01*
X79642386Y-110602780D01*
X79634188Y-110589102D01*
X79627370Y-110574686D01*
X79621997Y-110559671D01*
X79618122Y-110544202D01*
X79615782Y-110528428D01*
X79615000Y-110512500D01*
X79615000Y-110187500D01*
X79615782Y-110171572D01*
X79618122Y-110155798D01*
X79621997Y-110140329D01*
X79627370Y-110125314D01*
X79634188Y-110110898D01*
X79642386Y-110097220D01*
X79651886Y-110084411D01*
X79662595Y-110072595D01*
X79674411Y-110061886D01*
X79687220Y-110052386D01*
X79700898Y-110044188D01*
X79715314Y-110037370D01*
X79730329Y-110031997D01*
X79745798Y-110028122D01*
X79761572Y-110025782D01*
X79777500Y-110025000D01*
X80512500Y-110025000D01*
X80528428Y-110025782D01*
X80528428Y-110025782D01*
G37*
D11*
X80145000Y-110350000D03*
D10*
G36*
X80528428Y-111925782D02*
G01*
X80544202Y-111928122D01*
X80559671Y-111931997D01*
X80574686Y-111937370D01*
X80589102Y-111944188D01*
X80602780Y-111952386D01*
X80615589Y-111961886D01*
X80627405Y-111972595D01*
X80638114Y-111984411D01*
X80647614Y-111997220D01*
X80655812Y-112010898D01*
X80662630Y-112025314D01*
X80668003Y-112040329D01*
X80671878Y-112055798D01*
X80674218Y-112071572D01*
X80675000Y-112087500D01*
X80675000Y-112412500D01*
X80674218Y-112428428D01*
X80671878Y-112444202D01*
X80668003Y-112459671D01*
X80662630Y-112474686D01*
X80655812Y-112489102D01*
X80647614Y-112502780D01*
X80638114Y-112515589D01*
X80627405Y-112527405D01*
X80615589Y-112538114D01*
X80602780Y-112547614D01*
X80589102Y-112555812D01*
X80574686Y-112562630D01*
X80559671Y-112568003D01*
X80544202Y-112571878D01*
X80528428Y-112574218D01*
X80512500Y-112575000D01*
X79777500Y-112575000D01*
X79761572Y-112574218D01*
X79745798Y-112571878D01*
X79730329Y-112568003D01*
X79715314Y-112562630D01*
X79700898Y-112555812D01*
X79687220Y-112547614D01*
X79674411Y-112538114D01*
X79662595Y-112527405D01*
X79651886Y-112515589D01*
X79642386Y-112502780D01*
X79634188Y-112489102D01*
X79627370Y-112474686D01*
X79621997Y-112459671D01*
X79618122Y-112444202D01*
X79615782Y-112428428D01*
X79615000Y-112412500D01*
X79615000Y-112087500D01*
X79615782Y-112071572D01*
X79618122Y-112055798D01*
X79621997Y-112040329D01*
X79627370Y-112025314D01*
X79634188Y-112010898D01*
X79642386Y-111997220D01*
X79651886Y-111984411D01*
X79662595Y-111972595D01*
X79674411Y-111961886D01*
X79687220Y-111952386D01*
X79700898Y-111944188D01*
X79715314Y-111937370D01*
X79730329Y-111931997D01*
X79745798Y-111928122D01*
X79761572Y-111925782D01*
X79777500Y-111925000D01*
X80512500Y-111925000D01*
X80528428Y-111925782D01*
X80528428Y-111925782D01*
G37*
D11*
X80145000Y-112250000D03*
D10*
G36*
X78328428Y-111925782D02*
G01*
X78344202Y-111928122D01*
X78359671Y-111931997D01*
X78374686Y-111937370D01*
X78389102Y-111944188D01*
X78402780Y-111952386D01*
X78415589Y-111961886D01*
X78427405Y-111972595D01*
X78438114Y-111984411D01*
X78447614Y-111997220D01*
X78455812Y-112010898D01*
X78462630Y-112025314D01*
X78468003Y-112040329D01*
X78471878Y-112055798D01*
X78474218Y-112071572D01*
X78475000Y-112087500D01*
X78475000Y-112412500D01*
X78474218Y-112428428D01*
X78471878Y-112444202D01*
X78468003Y-112459671D01*
X78462630Y-112474686D01*
X78455812Y-112489102D01*
X78447614Y-112502780D01*
X78438114Y-112515589D01*
X78427405Y-112527405D01*
X78415589Y-112538114D01*
X78402780Y-112547614D01*
X78389102Y-112555812D01*
X78374686Y-112562630D01*
X78359671Y-112568003D01*
X78344202Y-112571878D01*
X78328428Y-112574218D01*
X78312500Y-112575000D01*
X77577500Y-112575000D01*
X77561572Y-112574218D01*
X77545798Y-112571878D01*
X77530329Y-112568003D01*
X77515314Y-112562630D01*
X77500898Y-112555812D01*
X77487220Y-112547614D01*
X77474411Y-112538114D01*
X77462595Y-112527405D01*
X77451886Y-112515589D01*
X77442386Y-112502780D01*
X77434188Y-112489102D01*
X77427370Y-112474686D01*
X77421997Y-112459671D01*
X77418122Y-112444202D01*
X77415782Y-112428428D01*
X77415000Y-112412500D01*
X77415000Y-112087500D01*
X77415782Y-112071572D01*
X77418122Y-112055798D01*
X77421997Y-112040329D01*
X77427370Y-112025314D01*
X77434188Y-112010898D01*
X77442386Y-111997220D01*
X77451886Y-111984411D01*
X77462595Y-111972595D01*
X77474411Y-111961886D01*
X77487220Y-111952386D01*
X77500898Y-111944188D01*
X77515314Y-111937370D01*
X77530329Y-111931997D01*
X77545798Y-111928122D01*
X77561572Y-111925782D01*
X77577500Y-111925000D01*
X78312500Y-111925000D01*
X78328428Y-111925782D01*
X78328428Y-111925782D01*
G37*
D11*
X77945000Y-112250000D03*
D10*
G36*
X78328428Y-110975782D02*
G01*
X78344202Y-110978122D01*
X78359671Y-110981997D01*
X78374686Y-110987370D01*
X78389102Y-110994188D01*
X78402780Y-111002386D01*
X78415589Y-111011886D01*
X78427405Y-111022595D01*
X78438114Y-111034411D01*
X78447614Y-111047220D01*
X78455812Y-111060898D01*
X78462630Y-111075314D01*
X78468003Y-111090329D01*
X78471878Y-111105798D01*
X78474218Y-111121572D01*
X78475000Y-111137500D01*
X78475000Y-111462500D01*
X78474218Y-111478428D01*
X78471878Y-111494202D01*
X78468003Y-111509671D01*
X78462630Y-111524686D01*
X78455812Y-111539102D01*
X78447614Y-111552780D01*
X78438114Y-111565589D01*
X78427405Y-111577405D01*
X78415589Y-111588114D01*
X78402780Y-111597614D01*
X78389102Y-111605812D01*
X78374686Y-111612630D01*
X78359671Y-111618003D01*
X78344202Y-111621878D01*
X78328428Y-111624218D01*
X78312500Y-111625000D01*
X77577500Y-111625000D01*
X77561572Y-111624218D01*
X77545798Y-111621878D01*
X77530329Y-111618003D01*
X77515314Y-111612630D01*
X77500898Y-111605812D01*
X77487220Y-111597614D01*
X77474411Y-111588114D01*
X77462595Y-111577405D01*
X77451886Y-111565589D01*
X77442386Y-111552780D01*
X77434188Y-111539102D01*
X77427370Y-111524686D01*
X77421997Y-111509671D01*
X77418122Y-111494202D01*
X77415782Y-111478428D01*
X77415000Y-111462500D01*
X77415000Y-111137500D01*
X77415782Y-111121572D01*
X77418122Y-111105798D01*
X77421997Y-111090329D01*
X77427370Y-111075314D01*
X77434188Y-111060898D01*
X77442386Y-111047220D01*
X77451886Y-111034411D01*
X77462595Y-111022595D01*
X77474411Y-111011886D01*
X77487220Y-111002386D01*
X77500898Y-110994188D01*
X77515314Y-110987370D01*
X77530329Y-110981997D01*
X77545798Y-110978122D01*
X77561572Y-110975782D01*
X77577500Y-110975000D01*
X78312500Y-110975000D01*
X78328428Y-110975782D01*
X78328428Y-110975782D01*
G37*
D11*
X77945000Y-111300000D03*
D10*
G36*
X78328428Y-110025782D02*
G01*
X78344202Y-110028122D01*
X78359671Y-110031997D01*
X78374686Y-110037370D01*
X78389102Y-110044188D01*
X78402780Y-110052386D01*
X78415589Y-110061886D01*
X78427405Y-110072595D01*
X78438114Y-110084411D01*
X78447614Y-110097220D01*
X78455812Y-110110898D01*
X78462630Y-110125314D01*
X78468003Y-110140329D01*
X78471878Y-110155798D01*
X78474218Y-110171572D01*
X78475000Y-110187500D01*
X78475000Y-110512500D01*
X78474218Y-110528428D01*
X78471878Y-110544202D01*
X78468003Y-110559671D01*
X78462630Y-110574686D01*
X78455812Y-110589102D01*
X78447614Y-110602780D01*
X78438114Y-110615589D01*
X78427405Y-110627405D01*
X78415589Y-110638114D01*
X78402780Y-110647614D01*
X78389102Y-110655812D01*
X78374686Y-110662630D01*
X78359671Y-110668003D01*
X78344202Y-110671878D01*
X78328428Y-110674218D01*
X78312500Y-110675000D01*
X77577500Y-110675000D01*
X77561572Y-110674218D01*
X77545798Y-110671878D01*
X77530329Y-110668003D01*
X77515314Y-110662630D01*
X77500898Y-110655812D01*
X77487220Y-110647614D01*
X77474411Y-110638114D01*
X77462595Y-110627405D01*
X77451886Y-110615589D01*
X77442386Y-110602780D01*
X77434188Y-110589102D01*
X77427370Y-110574686D01*
X77421997Y-110559671D01*
X77418122Y-110544202D01*
X77415782Y-110528428D01*
X77415000Y-110512500D01*
X77415000Y-110187500D01*
X77415782Y-110171572D01*
X77418122Y-110155798D01*
X77421997Y-110140329D01*
X77427370Y-110125314D01*
X77434188Y-110110898D01*
X77442386Y-110097220D01*
X77451886Y-110084411D01*
X77462595Y-110072595D01*
X77474411Y-110061886D01*
X77487220Y-110052386D01*
X77500898Y-110044188D01*
X77515314Y-110037370D01*
X77530329Y-110031997D01*
X77545798Y-110028122D01*
X77561572Y-110025782D01*
X77577500Y-110025000D01*
X78312500Y-110025000D01*
X78328428Y-110025782D01*
X78328428Y-110025782D01*
G37*
D11*
X77945000Y-110350000D03*
D10*
G36*
X108087428Y-110051182D02*
G01*
X108103202Y-110053522D01*
X108118671Y-110057397D01*
X108133686Y-110062770D01*
X108148102Y-110069588D01*
X108161780Y-110077786D01*
X108174589Y-110087286D01*
X108186405Y-110097995D01*
X108197114Y-110109811D01*
X108206614Y-110122620D01*
X108214812Y-110136298D01*
X108221630Y-110150714D01*
X108227003Y-110165729D01*
X108230878Y-110181198D01*
X108233218Y-110196972D01*
X108234000Y-110212900D01*
X108234000Y-110537900D01*
X108233218Y-110553828D01*
X108230878Y-110569602D01*
X108227003Y-110585071D01*
X108221630Y-110600086D01*
X108214812Y-110614502D01*
X108206614Y-110628180D01*
X108197114Y-110640989D01*
X108186405Y-110652805D01*
X108174589Y-110663514D01*
X108161780Y-110673014D01*
X108148102Y-110681212D01*
X108133686Y-110688030D01*
X108118671Y-110693403D01*
X108103202Y-110697278D01*
X108087428Y-110699618D01*
X108071500Y-110700400D01*
X107336500Y-110700400D01*
X107320572Y-110699618D01*
X107304798Y-110697278D01*
X107289329Y-110693403D01*
X107274314Y-110688030D01*
X107259898Y-110681212D01*
X107246220Y-110673014D01*
X107233411Y-110663514D01*
X107221595Y-110652805D01*
X107210886Y-110640989D01*
X107201386Y-110628180D01*
X107193188Y-110614502D01*
X107186370Y-110600086D01*
X107180997Y-110585071D01*
X107177122Y-110569602D01*
X107174782Y-110553828D01*
X107174000Y-110537900D01*
X107174000Y-110212900D01*
X107174782Y-110196972D01*
X107177122Y-110181198D01*
X107180997Y-110165729D01*
X107186370Y-110150714D01*
X107193188Y-110136298D01*
X107201386Y-110122620D01*
X107210886Y-110109811D01*
X107221595Y-110097995D01*
X107233411Y-110087286D01*
X107246220Y-110077786D01*
X107259898Y-110069588D01*
X107274314Y-110062770D01*
X107289329Y-110057397D01*
X107304798Y-110053522D01*
X107320572Y-110051182D01*
X107336500Y-110050400D01*
X108071500Y-110050400D01*
X108087428Y-110051182D01*
X108087428Y-110051182D01*
G37*
D11*
X107704000Y-110375400D03*
D10*
G36*
X108087428Y-111951182D02*
G01*
X108103202Y-111953522D01*
X108118671Y-111957397D01*
X108133686Y-111962770D01*
X108148102Y-111969588D01*
X108161780Y-111977786D01*
X108174589Y-111987286D01*
X108186405Y-111997995D01*
X108197114Y-112009811D01*
X108206614Y-112022620D01*
X108214812Y-112036298D01*
X108221630Y-112050714D01*
X108227003Y-112065729D01*
X108230878Y-112081198D01*
X108233218Y-112096972D01*
X108234000Y-112112900D01*
X108234000Y-112437900D01*
X108233218Y-112453828D01*
X108230878Y-112469602D01*
X108227003Y-112485071D01*
X108221630Y-112500086D01*
X108214812Y-112514502D01*
X108206614Y-112528180D01*
X108197114Y-112540989D01*
X108186405Y-112552805D01*
X108174589Y-112563514D01*
X108161780Y-112573014D01*
X108148102Y-112581212D01*
X108133686Y-112588030D01*
X108118671Y-112593403D01*
X108103202Y-112597278D01*
X108087428Y-112599618D01*
X108071500Y-112600400D01*
X107336500Y-112600400D01*
X107320572Y-112599618D01*
X107304798Y-112597278D01*
X107289329Y-112593403D01*
X107274314Y-112588030D01*
X107259898Y-112581212D01*
X107246220Y-112573014D01*
X107233411Y-112563514D01*
X107221595Y-112552805D01*
X107210886Y-112540989D01*
X107201386Y-112528180D01*
X107193188Y-112514502D01*
X107186370Y-112500086D01*
X107180997Y-112485071D01*
X107177122Y-112469602D01*
X107174782Y-112453828D01*
X107174000Y-112437900D01*
X107174000Y-112112900D01*
X107174782Y-112096972D01*
X107177122Y-112081198D01*
X107180997Y-112065729D01*
X107186370Y-112050714D01*
X107193188Y-112036298D01*
X107201386Y-112022620D01*
X107210886Y-112009811D01*
X107221595Y-111997995D01*
X107233411Y-111987286D01*
X107246220Y-111977786D01*
X107259898Y-111969588D01*
X107274314Y-111962770D01*
X107289329Y-111957397D01*
X107304798Y-111953522D01*
X107320572Y-111951182D01*
X107336500Y-111950400D01*
X108071500Y-111950400D01*
X108087428Y-111951182D01*
X108087428Y-111951182D01*
G37*
D11*
X107704000Y-112275400D03*
D10*
G36*
X105887428Y-111951182D02*
G01*
X105903202Y-111953522D01*
X105918671Y-111957397D01*
X105933686Y-111962770D01*
X105948102Y-111969588D01*
X105961780Y-111977786D01*
X105974589Y-111987286D01*
X105986405Y-111997995D01*
X105997114Y-112009811D01*
X106006614Y-112022620D01*
X106014812Y-112036298D01*
X106021630Y-112050714D01*
X106027003Y-112065729D01*
X106030878Y-112081198D01*
X106033218Y-112096972D01*
X106034000Y-112112900D01*
X106034000Y-112437900D01*
X106033218Y-112453828D01*
X106030878Y-112469602D01*
X106027003Y-112485071D01*
X106021630Y-112500086D01*
X106014812Y-112514502D01*
X106006614Y-112528180D01*
X105997114Y-112540989D01*
X105986405Y-112552805D01*
X105974589Y-112563514D01*
X105961780Y-112573014D01*
X105948102Y-112581212D01*
X105933686Y-112588030D01*
X105918671Y-112593403D01*
X105903202Y-112597278D01*
X105887428Y-112599618D01*
X105871500Y-112600400D01*
X105136500Y-112600400D01*
X105120572Y-112599618D01*
X105104798Y-112597278D01*
X105089329Y-112593403D01*
X105074314Y-112588030D01*
X105059898Y-112581212D01*
X105046220Y-112573014D01*
X105033411Y-112563514D01*
X105021595Y-112552805D01*
X105010886Y-112540989D01*
X105001386Y-112528180D01*
X104993188Y-112514502D01*
X104986370Y-112500086D01*
X104980997Y-112485071D01*
X104977122Y-112469602D01*
X104974782Y-112453828D01*
X104974000Y-112437900D01*
X104974000Y-112112900D01*
X104974782Y-112096972D01*
X104977122Y-112081198D01*
X104980997Y-112065729D01*
X104986370Y-112050714D01*
X104993188Y-112036298D01*
X105001386Y-112022620D01*
X105010886Y-112009811D01*
X105021595Y-111997995D01*
X105033411Y-111987286D01*
X105046220Y-111977786D01*
X105059898Y-111969588D01*
X105074314Y-111962770D01*
X105089329Y-111957397D01*
X105104798Y-111953522D01*
X105120572Y-111951182D01*
X105136500Y-111950400D01*
X105871500Y-111950400D01*
X105887428Y-111951182D01*
X105887428Y-111951182D01*
G37*
D11*
X105504000Y-112275400D03*
D10*
G36*
X105887428Y-111001182D02*
G01*
X105903202Y-111003522D01*
X105918671Y-111007397D01*
X105933686Y-111012770D01*
X105948102Y-111019588D01*
X105961780Y-111027786D01*
X105974589Y-111037286D01*
X105986405Y-111047995D01*
X105997114Y-111059811D01*
X106006614Y-111072620D01*
X106014812Y-111086298D01*
X106021630Y-111100714D01*
X106027003Y-111115729D01*
X106030878Y-111131198D01*
X106033218Y-111146972D01*
X106034000Y-111162900D01*
X106034000Y-111487900D01*
X106033218Y-111503828D01*
X106030878Y-111519602D01*
X106027003Y-111535071D01*
X106021630Y-111550086D01*
X106014812Y-111564502D01*
X106006614Y-111578180D01*
X105997114Y-111590989D01*
X105986405Y-111602805D01*
X105974589Y-111613514D01*
X105961780Y-111623014D01*
X105948102Y-111631212D01*
X105933686Y-111638030D01*
X105918671Y-111643403D01*
X105903202Y-111647278D01*
X105887428Y-111649618D01*
X105871500Y-111650400D01*
X105136500Y-111650400D01*
X105120572Y-111649618D01*
X105104798Y-111647278D01*
X105089329Y-111643403D01*
X105074314Y-111638030D01*
X105059898Y-111631212D01*
X105046220Y-111623014D01*
X105033411Y-111613514D01*
X105021595Y-111602805D01*
X105010886Y-111590989D01*
X105001386Y-111578180D01*
X104993188Y-111564502D01*
X104986370Y-111550086D01*
X104980997Y-111535071D01*
X104977122Y-111519602D01*
X104974782Y-111503828D01*
X104974000Y-111487900D01*
X104974000Y-111162900D01*
X104974782Y-111146972D01*
X104977122Y-111131198D01*
X104980997Y-111115729D01*
X104986370Y-111100714D01*
X104993188Y-111086298D01*
X105001386Y-111072620D01*
X105010886Y-111059811D01*
X105021595Y-111047995D01*
X105033411Y-111037286D01*
X105046220Y-111027786D01*
X105059898Y-111019588D01*
X105074314Y-111012770D01*
X105089329Y-111007397D01*
X105104798Y-111003522D01*
X105120572Y-111001182D01*
X105136500Y-111000400D01*
X105871500Y-111000400D01*
X105887428Y-111001182D01*
X105887428Y-111001182D01*
G37*
D11*
X105504000Y-111325400D03*
D10*
G36*
X105887428Y-110051182D02*
G01*
X105903202Y-110053522D01*
X105918671Y-110057397D01*
X105933686Y-110062770D01*
X105948102Y-110069588D01*
X105961780Y-110077786D01*
X105974589Y-110087286D01*
X105986405Y-110097995D01*
X105997114Y-110109811D01*
X106006614Y-110122620D01*
X106014812Y-110136298D01*
X106021630Y-110150714D01*
X106027003Y-110165729D01*
X106030878Y-110181198D01*
X106033218Y-110196972D01*
X106034000Y-110212900D01*
X106034000Y-110537900D01*
X106033218Y-110553828D01*
X106030878Y-110569602D01*
X106027003Y-110585071D01*
X106021630Y-110600086D01*
X106014812Y-110614502D01*
X106006614Y-110628180D01*
X105997114Y-110640989D01*
X105986405Y-110652805D01*
X105974589Y-110663514D01*
X105961780Y-110673014D01*
X105948102Y-110681212D01*
X105933686Y-110688030D01*
X105918671Y-110693403D01*
X105903202Y-110697278D01*
X105887428Y-110699618D01*
X105871500Y-110700400D01*
X105136500Y-110700400D01*
X105120572Y-110699618D01*
X105104798Y-110697278D01*
X105089329Y-110693403D01*
X105074314Y-110688030D01*
X105059898Y-110681212D01*
X105046220Y-110673014D01*
X105033411Y-110663514D01*
X105021595Y-110652805D01*
X105010886Y-110640989D01*
X105001386Y-110628180D01*
X104993188Y-110614502D01*
X104986370Y-110600086D01*
X104980997Y-110585071D01*
X104977122Y-110569602D01*
X104974782Y-110553828D01*
X104974000Y-110537900D01*
X104974000Y-110212900D01*
X104974782Y-110196972D01*
X104977122Y-110181198D01*
X104980997Y-110165729D01*
X104986370Y-110150714D01*
X104993188Y-110136298D01*
X105001386Y-110122620D01*
X105010886Y-110109811D01*
X105021595Y-110097995D01*
X105033411Y-110087286D01*
X105046220Y-110077786D01*
X105059898Y-110069588D01*
X105074314Y-110062770D01*
X105089329Y-110057397D01*
X105104798Y-110053522D01*
X105120572Y-110051182D01*
X105136500Y-110050400D01*
X105871500Y-110050400D01*
X105887428Y-110051182D01*
X105887428Y-110051182D01*
G37*
D11*
X105504000Y-110375400D03*
D13*
X84944000Y-111300000D03*
X82544000Y-112250000D03*
X82544000Y-110350000D03*
D10*
G36*
X126883428Y-110975782D02*
G01*
X126899202Y-110978122D01*
X126914671Y-110981997D01*
X126929686Y-110987370D01*
X126944102Y-110994188D01*
X126957780Y-111002386D01*
X126970589Y-111011886D01*
X126982405Y-111022595D01*
X126993114Y-111034411D01*
X127002614Y-111047220D01*
X127010812Y-111060898D01*
X127017630Y-111075314D01*
X127023003Y-111090329D01*
X127026878Y-111105798D01*
X127029218Y-111121572D01*
X127030000Y-111137500D01*
X127030000Y-111462500D01*
X127029218Y-111478428D01*
X127026878Y-111494202D01*
X127023003Y-111509671D01*
X127017630Y-111524686D01*
X127010812Y-111539102D01*
X127002614Y-111552780D01*
X126993114Y-111565589D01*
X126982405Y-111577405D01*
X126970589Y-111588114D01*
X126957780Y-111597614D01*
X126944102Y-111605812D01*
X126929686Y-111612630D01*
X126914671Y-111618003D01*
X126899202Y-111621878D01*
X126883428Y-111624218D01*
X126867500Y-111625000D01*
X126132500Y-111625000D01*
X126116572Y-111624218D01*
X126100798Y-111621878D01*
X126085329Y-111618003D01*
X126070314Y-111612630D01*
X126055898Y-111605812D01*
X126042220Y-111597614D01*
X126029411Y-111588114D01*
X126017595Y-111577405D01*
X126006886Y-111565589D01*
X125997386Y-111552780D01*
X125989188Y-111539102D01*
X125982370Y-111524686D01*
X125976997Y-111509671D01*
X125973122Y-111494202D01*
X125970782Y-111478428D01*
X125970000Y-111462500D01*
X125970000Y-111137500D01*
X125970782Y-111121572D01*
X125973122Y-111105798D01*
X125976997Y-111090329D01*
X125982370Y-111075314D01*
X125989188Y-111060898D01*
X125997386Y-111047220D01*
X126006886Y-111034411D01*
X126017595Y-111022595D01*
X126029411Y-111011886D01*
X126042220Y-111002386D01*
X126055898Y-110994188D01*
X126070314Y-110987370D01*
X126085329Y-110981997D01*
X126100798Y-110978122D01*
X126116572Y-110975782D01*
X126132500Y-110975000D01*
X126867500Y-110975000D01*
X126883428Y-110975782D01*
X126883428Y-110975782D01*
G37*
D11*
X126500000Y-111300000D03*
D10*
G36*
X126883428Y-110025782D02*
G01*
X126899202Y-110028122D01*
X126914671Y-110031997D01*
X126929686Y-110037370D01*
X126944102Y-110044188D01*
X126957780Y-110052386D01*
X126970589Y-110061886D01*
X126982405Y-110072595D01*
X126993114Y-110084411D01*
X127002614Y-110097220D01*
X127010812Y-110110898D01*
X127017630Y-110125314D01*
X127023003Y-110140329D01*
X127026878Y-110155798D01*
X127029218Y-110171572D01*
X127030000Y-110187500D01*
X127030000Y-110512500D01*
X127029218Y-110528428D01*
X127026878Y-110544202D01*
X127023003Y-110559671D01*
X127017630Y-110574686D01*
X127010812Y-110589102D01*
X127002614Y-110602780D01*
X126993114Y-110615589D01*
X126982405Y-110627405D01*
X126970589Y-110638114D01*
X126957780Y-110647614D01*
X126944102Y-110655812D01*
X126929686Y-110662630D01*
X126914671Y-110668003D01*
X126899202Y-110671878D01*
X126883428Y-110674218D01*
X126867500Y-110675000D01*
X126132500Y-110675000D01*
X126116572Y-110674218D01*
X126100798Y-110671878D01*
X126085329Y-110668003D01*
X126070314Y-110662630D01*
X126055898Y-110655812D01*
X126042220Y-110647614D01*
X126029411Y-110638114D01*
X126017595Y-110627405D01*
X126006886Y-110615589D01*
X125997386Y-110602780D01*
X125989188Y-110589102D01*
X125982370Y-110574686D01*
X125976997Y-110559671D01*
X125973122Y-110544202D01*
X125970782Y-110528428D01*
X125970000Y-110512500D01*
X125970000Y-110187500D01*
X125970782Y-110171572D01*
X125973122Y-110155798D01*
X125976997Y-110140329D01*
X125982370Y-110125314D01*
X125989188Y-110110898D01*
X125997386Y-110097220D01*
X126006886Y-110084411D01*
X126017595Y-110072595D01*
X126029411Y-110061886D01*
X126042220Y-110052386D01*
X126055898Y-110044188D01*
X126070314Y-110037370D01*
X126085329Y-110031997D01*
X126100798Y-110028122D01*
X126116572Y-110025782D01*
X126132500Y-110025000D01*
X126867500Y-110025000D01*
X126883428Y-110025782D01*
X126883428Y-110025782D01*
G37*
D11*
X126500000Y-110350000D03*
D10*
G36*
X126883428Y-111925782D02*
G01*
X126899202Y-111928122D01*
X126914671Y-111931997D01*
X126929686Y-111937370D01*
X126944102Y-111944188D01*
X126957780Y-111952386D01*
X126970589Y-111961886D01*
X126982405Y-111972595D01*
X126993114Y-111984411D01*
X127002614Y-111997220D01*
X127010812Y-112010898D01*
X127017630Y-112025314D01*
X127023003Y-112040329D01*
X127026878Y-112055798D01*
X127029218Y-112071572D01*
X127030000Y-112087500D01*
X127030000Y-112412500D01*
X127029218Y-112428428D01*
X127026878Y-112444202D01*
X127023003Y-112459671D01*
X127017630Y-112474686D01*
X127010812Y-112489102D01*
X127002614Y-112502780D01*
X126993114Y-112515589D01*
X126982405Y-112527405D01*
X126970589Y-112538114D01*
X126957780Y-112547614D01*
X126944102Y-112555812D01*
X126929686Y-112562630D01*
X126914671Y-112568003D01*
X126899202Y-112571878D01*
X126883428Y-112574218D01*
X126867500Y-112575000D01*
X126132500Y-112575000D01*
X126116572Y-112574218D01*
X126100798Y-112571878D01*
X126085329Y-112568003D01*
X126070314Y-112562630D01*
X126055898Y-112555812D01*
X126042220Y-112547614D01*
X126029411Y-112538114D01*
X126017595Y-112527405D01*
X126006886Y-112515589D01*
X125997386Y-112502780D01*
X125989188Y-112489102D01*
X125982370Y-112474686D01*
X125976997Y-112459671D01*
X125973122Y-112444202D01*
X125970782Y-112428428D01*
X125970000Y-112412500D01*
X125970000Y-112087500D01*
X125970782Y-112071572D01*
X125973122Y-112055798D01*
X125976997Y-112040329D01*
X125982370Y-112025314D01*
X125989188Y-112010898D01*
X125997386Y-111997220D01*
X126006886Y-111984411D01*
X126017595Y-111972595D01*
X126029411Y-111961886D01*
X126042220Y-111952386D01*
X126055898Y-111944188D01*
X126070314Y-111937370D01*
X126085329Y-111931997D01*
X126100798Y-111928122D01*
X126116572Y-111925782D01*
X126132500Y-111925000D01*
X126867500Y-111925000D01*
X126883428Y-111925782D01*
X126883428Y-111925782D01*
G37*
D11*
X126500000Y-112250000D03*
D10*
G36*
X124683428Y-111925782D02*
G01*
X124699202Y-111928122D01*
X124714671Y-111931997D01*
X124729686Y-111937370D01*
X124744102Y-111944188D01*
X124757780Y-111952386D01*
X124770589Y-111961886D01*
X124782405Y-111972595D01*
X124793114Y-111984411D01*
X124802614Y-111997220D01*
X124810812Y-112010898D01*
X124817630Y-112025314D01*
X124823003Y-112040329D01*
X124826878Y-112055798D01*
X124829218Y-112071572D01*
X124830000Y-112087500D01*
X124830000Y-112412500D01*
X124829218Y-112428428D01*
X124826878Y-112444202D01*
X124823003Y-112459671D01*
X124817630Y-112474686D01*
X124810812Y-112489102D01*
X124802614Y-112502780D01*
X124793114Y-112515589D01*
X124782405Y-112527405D01*
X124770589Y-112538114D01*
X124757780Y-112547614D01*
X124744102Y-112555812D01*
X124729686Y-112562630D01*
X124714671Y-112568003D01*
X124699202Y-112571878D01*
X124683428Y-112574218D01*
X124667500Y-112575000D01*
X123932500Y-112575000D01*
X123916572Y-112574218D01*
X123900798Y-112571878D01*
X123885329Y-112568003D01*
X123870314Y-112562630D01*
X123855898Y-112555812D01*
X123842220Y-112547614D01*
X123829411Y-112538114D01*
X123817595Y-112527405D01*
X123806886Y-112515589D01*
X123797386Y-112502780D01*
X123789188Y-112489102D01*
X123782370Y-112474686D01*
X123776997Y-112459671D01*
X123773122Y-112444202D01*
X123770782Y-112428428D01*
X123770000Y-112412500D01*
X123770000Y-112087500D01*
X123770782Y-112071572D01*
X123773122Y-112055798D01*
X123776997Y-112040329D01*
X123782370Y-112025314D01*
X123789188Y-112010898D01*
X123797386Y-111997220D01*
X123806886Y-111984411D01*
X123817595Y-111972595D01*
X123829411Y-111961886D01*
X123842220Y-111952386D01*
X123855898Y-111944188D01*
X123870314Y-111937370D01*
X123885329Y-111931997D01*
X123900798Y-111928122D01*
X123916572Y-111925782D01*
X123932500Y-111925000D01*
X124667500Y-111925000D01*
X124683428Y-111925782D01*
X124683428Y-111925782D01*
G37*
D11*
X124300000Y-112250000D03*
D10*
G36*
X124683428Y-110975782D02*
G01*
X124699202Y-110978122D01*
X124714671Y-110981997D01*
X124729686Y-110987370D01*
X124744102Y-110994188D01*
X124757780Y-111002386D01*
X124770589Y-111011886D01*
X124782405Y-111022595D01*
X124793114Y-111034411D01*
X124802614Y-111047220D01*
X124810812Y-111060898D01*
X124817630Y-111075314D01*
X124823003Y-111090329D01*
X124826878Y-111105798D01*
X124829218Y-111121572D01*
X124830000Y-111137500D01*
X124830000Y-111462500D01*
X124829218Y-111478428D01*
X124826878Y-111494202D01*
X124823003Y-111509671D01*
X124817630Y-111524686D01*
X124810812Y-111539102D01*
X124802614Y-111552780D01*
X124793114Y-111565589D01*
X124782405Y-111577405D01*
X124770589Y-111588114D01*
X124757780Y-111597614D01*
X124744102Y-111605812D01*
X124729686Y-111612630D01*
X124714671Y-111618003D01*
X124699202Y-111621878D01*
X124683428Y-111624218D01*
X124667500Y-111625000D01*
X123932500Y-111625000D01*
X123916572Y-111624218D01*
X123900798Y-111621878D01*
X123885329Y-111618003D01*
X123870314Y-111612630D01*
X123855898Y-111605812D01*
X123842220Y-111597614D01*
X123829411Y-111588114D01*
X123817595Y-111577405D01*
X123806886Y-111565589D01*
X123797386Y-111552780D01*
X123789188Y-111539102D01*
X123782370Y-111524686D01*
X123776997Y-111509671D01*
X123773122Y-111494202D01*
X123770782Y-111478428D01*
X123770000Y-111462500D01*
X123770000Y-111137500D01*
X123770782Y-111121572D01*
X123773122Y-111105798D01*
X123776997Y-111090329D01*
X123782370Y-111075314D01*
X123789188Y-111060898D01*
X123797386Y-111047220D01*
X123806886Y-111034411D01*
X123817595Y-111022595D01*
X123829411Y-111011886D01*
X123842220Y-111002386D01*
X123855898Y-110994188D01*
X123870314Y-110987370D01*
X123885329Y-110981997D01*
X123900798Y-110978122D01*
X123916572Y-110975782D01*
X123932500Y-110975000D01*
X124667500Y-110975000D01*
X124683428Y-110975782D01*
X124683428Y-110975782D01*
G37*
D11*
X124300000Y-111300000D03*
D10*
G36*
X124683428Y-110025782D02*
G01*
X124699202Y-110028122D01*
X124714671Y-110031997D01*
X124729686Y-110037370D01*
X124744102Y-110044188D01*
X124757780Y-110052386D01*
X124770589Y-110061886D01*
X124782405Y-110072595D01*
X124793114Y-110084411D01*
X124802614Y-110097220D01*
X124810812Y-110110898D01*
X124817630Y-110125314D01*
X124823003Y-110140329D01*
X124826878Y-110155798D01*
X124829218Y-110171572D01*
X124830000Y-110187500D01*
X124830000Y-110512500D01*
X124829218Y-110528428D01*
X124826878Y-110544202D01*
X124823003Y-110559671D01*
X124817630Y-110574686D01*
X124810812Y-110589102D01*
X124802614Y-110602780D01*
X124793114Y-110615589D01*
X124782405Y-110627405D01*
X124770589Y-110638114D01*
X124757780Y-110647614D01*
X124744102Y-110655812D01*
X124729686Y-110662630D01*
X124714671Y-110668003D01*
X124699202Y-110671878D01*
X124683428Y-110674218D01*
X124667500Y-110675000D01*
X123932500Y-110675000D01*
X123916572Y-110674218D01*
X123900798Y-110671878D01*
X123885329Y-110668003D01*
X123870314Y-110662630D01*
X123855898Y-110655812D01*
X123842220Y-110647614D01*
X123829411Y-110638114D01*
X123817595Y-110627405D01*
X123806886Y-110615589D01*
X123797386Y-110602780D01*
X123789188Y-110589102D01*
X123782370Y-110574686D01*
X123776997Y-110559671D01*
X123773122Y-110544202D01*
X123770782Y-110528428D01*
X123770000Y-110512500D01*
X123770000Y-110187500D01*
X123770782Y-110171572D01*
X123773122Y-110155798D01*
X123776997Y-110140329D01*
X123782370Y-110125314D01*
X123789188Y-110110898D01*
X123797386Y-110097220D01*
X123806886Y-110084411D01*
X123817595Y-110072595D01*
X123829411Y-110061886D01*
X123842220Y-110052386D01*
X123855898Y-110044188D01*
X123870314Y-110037370D01*
X123885329Y-110031997D01*
X123900798Y-110028122D01*
X123916572Y-110025782D01*
X123932500Y-110025000D01*
X124667500Y-110025000D01*
X124683428Y-110025782D01*
X124683428Y-110025782D01*
G37*
D11*
X124300000Y-110350000D03*
D10*
G36*
X76083428Y-110975782D02*
G01*
X76099202Y-110978122D01*
X76114671Y-110981997D01*
X76129686Y-110987370D01*
X76144102Y-110994188D01*
X76157780Y-111002386D01*
X76170589Y-111011886D01*
X76182405Y-111022595D01*
X76193114Y-111034411D01*
X76202614Y-111047220D01*
X76210812Y-111060898D01*
X76217630Y-111075314D01*
X76223003Y-111090329D01*
X76226878Y-111105798D01*
X76229218Y-111121572D01*
X76230000Y-111137500D01*
X76230000Y-111462500D01*
X76229218Y-111478428D01*
X76226878Y-111494202D01*
X76223003Y-111509671D01*
X76217630Y-111524686D01*
X76210812Y-111539102D01*
X76202614Y-111552780D01*
X76193114Y-111565589D01*
X76182405Y-111577405D01*
X76170589Y-111588114D01*
X76157780Y-111597614D01*
X76144102Y-111605812D01*
X76129686Y-111612630D01*
X76114671Y-111618003D01*
X76099202Y-111621878D01*
X76083428Y-111624218D01*
X76067500Y-111625000D01*
X75332500Y-111625000D01*
X75316572Y-111624218D01*
X75300798Y-111621878D01*
X75285329Y-111618003D01*
X75270314Y-111612630D01*
X75255898Y-111605812D01*
X75242220Y-111597614D01*
X75229411Y-111588114D01*
X75217595Y-111577405D01*
X75206886Y-111565589D01*
X75197386Y-111552780D01*
X75189188Y-111539102D01*
X75182370Y-111524686D01*
X75176997Y-111509671D01*
X75173122Y-111494202D01*
X75170782Y-111478428D01*
X75170000Y-111462500D01*
X75170000Y-111137500D01*
X75170782Y-111121572D01*
X75173122Y-111105798D01*
X75176997Y-111090329D01*
X75182370Y-111075314D01*
X75189188Y-111060898D01*
X75197386Y-111047220D01*
X75206886Y-111034411D01*
X75217595Y-111022595D01*
X75229411Y-111011886D01*
X75242220Y-111002386D01*
X75255898Y-110994188D01*
X75270314Y-110987370D01*
X75285329Y-110981997D01*
X75300798Y-110978122D01*
X75316572Y-110975782D01*
X75332500Y-110975000D01*
X76067500Y-110975000D01*
X76083428Y-110975782D01*
X76083428Y-110975782D01*
G37*
D11*
X75700000Y-111300000D03*
D10*
G36*
X76083428Y-110025782D02*
G01*
X76099202Y-110028122D01*
X76114671Y-110031997D01*
X76129686Y-110037370D01*
X76144102Y-110044188D01*
X76157780Y-110052386D01*
X76170589Y-110061886D01*
X76182405Y-110072595D01*
X76193114Y-110084411D01*
X76202614Y-110097220D01*
X76210812Y-110110898D01*
X76217630Y-110125314D01*
X76223003Y-110140329D01*
X76226878Y-110155798D01*
X76229218Y-110171572D01*
X76230000Y-110187500D01*
X76230000Y-110512500D01*
X76229218Y-110528428D01*
X76226878Y-110544202D01*
X76223003Y-110559671D01*
X76217630Y-110574686D01*
X76210812Y-110589102D01*
X76202614Y-110602780D01*
X76193114Y-110615589D01*
X76182405Y-110627405D01*
X76170589Y-110638114D01*
X76157780Y-110647614D01*
X76144102Y-110655812D01*
X76129686Y-110662630D01*
X76114671Y-110668003D01*
X76099202Y-110671878D01*
X76083428Y-110674218D01*
X76067500Y-110675000D01*
X75332500Y-110675000D01*
X75316572Y-110674218D01*
X75300798Y-110671878D01*
X75285329Y-110668003D01*
X75270314Y-110662630D01*
X75255898Y-110655812D01*
X75242220Y-110647614D01*
X75229411Y-110638114D01*
X75217595Y-110627405D01*
X75206886Y-110615589D01*
X75197386Y-110602780D01*
X75189188Y-110589102D01*
X75182370Y-110574686D01*
X75176997Y-110559671D01*
X75173122Y-110544202D01*
X75170782Y-110528428D01*
X75170000Y-110512500D01*
X75170000Y-110187500D01*
X75170782Y-110171572D01*
X75173122Y-110155798D01*
X75176997Y-110140329D01*
X75182370Y-110125314D01*
X75189188Y-110110898D01*
X75197386Y-110097220D01*
X75206886Y-110084411D01*
X75217595Y-110072595D01*
X75229411Y-110061886D01*
X75242220Y-110052386D01*
X75255898Y-110044188D01*
X75270314Y-110037370D01*
X75285329Y-110031997D01*
X75300798Y-110028122D01*
X75316572Y-110025782D01*
X75332500Y-110025000D01*
X76067500Y-110025000D01*
X76083428Y-110025782D01*
X76083428Y-110025782D01*
G37*
D11*
X75700000Y-110350000D03*
D10*
G36*
X76083428Y-111925782D02*
G01*
X76099202Y-111928122D01*
X76114671Y-111931997D01*
X76129686Y-111937370D01*
X76144102Y-111944188D01*
X76157780Y-111952386D01*
X76170589Y-111961886D01*
X76182405Y-111972595D01*
X76193114Y-111984411D01*
X76202614Y-111997220D01*
X76210812Y-112010898D01*
X76217630Y-112025314D01*
X76223003Y-112040329D01*
X76226878Y-112055798D01*
X76229218Y-112071572D01*
X76230000Y-112087500D01*
X76230000Y-112412500D01*
X76229218Y-112428428D01*
X76226878Y-112444202D01*
X76223003Y-112459671D01*
X76217630Y-112474686D01*
X76210812Y-112489102D01*
X76202614Y-112502780D01*
X76193114Y-112515589D01*
X76182405Y-112527405D01*
X76170589Y-112538114D01*
X76157780Y-112547614D01*
X76144102Y-112555812D01*
X76129686Y-112562630D01*
X76114671Y-112568003D01*
X76099202Y-112571878D01*
X76083428Y-112574218D01*
X76067500Y-112575000D01*
X75332500Y-112575000D01*
X75316572Y-112574218D01*
X75300798Y-112571878D01*
X75285329Y-112568003D01*
X75270314Y-112562630D01*
X75255898Y-112555812D01*
X75242220Y-112547614D01*
X75229411Y-112538114D01*
X75217595Y-112527405D01*
X75206886Y-112515589D01*
X75197386Y-112502780D01*
X75189188Y-112489102D01*
X75182370Y-112474686D01*
X75176997Y-112459671D01*
X75173122Y-112444202D01*
X75170782Y-112428428D01*
X75170000Y-112412500D01*
X75170000Y-112087500D01*
X75170782Y-112071572D01*
X75173122Y-112055798D01*
X75176997Y-112040329D01*
X75182370Y-112025314D01*
X75189188Y-112010898D01*
X75197386Y-111997220D01*
X75206886Y-111984411D01*
X75217595Y-111972595D01*
X75229411Y-111961886D01*
X75242220Y-111952386D01*
X75255898Y-111944188D01*
X75270314Y-111937370D01*
X75285329Y-111931997D01*
X75300798Y-111928122D01*
X75316572Y-111925782D01*
X75332500Y-111925000D01*
X76067500Y-111925000D01*
X76083428Y-111925782D01*
X76083428Y-111925782D01*
G37*
D11*
X75700000Y-112250000D03*
D10*
G36*
X73883428Y-111925782D02*
G01*
X73899202Y-111928122D01*
X73914671Y-111931997D01*
X73929686Y-111937370D01*
X73944102Y-111944188D01*
X73957780Y-111952386D01*
X73970589Y-111961886D01*
X73982405Y-111972595D01*
X73993114Y-111984411D01*
X74002614Y-111997220D01*
X74010812Y-112010898D01*
X74017630Y-112025314D01*
X74023003Y-112040329D01*
X74026878Y-112055798D01*
X74029218Y-112071572D01*
X74030000Y-112087500D01*
X74030000Y-112412500D01*
X74029218Y-112428428D01*
X74026878Y-112444202D01*
X74023003Y-112459671D01*
X74017630Y-112474686D01*
X74010812Y-112489102D01*
X74002614Y-112502780D01*
X73993114Y-112515589D01*
X73982405Y-112527405D01*
X73970589Y-112538114D01*
X73957780Y-112547614D01*
X73944102Y-112555812D01*
X73929686Y-112562630D01*
X73914671Y-112568003D01*
X73899202Y-112571878D01*
X73883428Y-112574218D01*
X73867500Y-112575000D01*
X73132500Y-112575000D01*
X73116572Y-112574218D01*
X73100798Y-112571878D01*
X73085329Y-112568003D01*
X73070314Y-112562630D01*
X73055898Y-112555812D01*
X73042220Y-112547614D01*
X73029411Y-112538114D01*
X73017595Y-112527405D01*
X73006886Y-112515589D01*
X72997386Y-112502780D01*
X72989188Y-112489102D01*
X72982370Y-112474686D01*
X72976997Y-112459671D01*
X72973122Y-112444202D01*
X72970782Y-112428428D01*
X72970000Y-112412500D01*
X72970000Y-112087500D01*
X72970782Y-112071572D01*
X72973122Y-112055798D01*
X72976997Y-112040329D01*
X72982370Y-112025314D01*
X72989188Y-112010898D01*
X72997386Y-111997220D01*
X73006886Y-111984411D01*
X73017595Y-111972595D01*
X73029411Y-111961886D01*
X73042220Y-111952386D01*
X73055898Y-111944188D01*
X73070314Y-111937370D01*
X73085329Y-111931997D01*
X73100798Y-111928122D01*
X73116572Y-111925782D01*
X73132500Y-111925000D01*
X73867500Y-111925000D01*
X73883428Y-111925782D01*
X73883428Y-111925782D01*
G37*
D11*
X73500000Y-112250000D03*
D10*
G36*
X73883428Y-110975782D02*
G01*
X73899202Y-110978122D01*
X73914671Y-110981997D01*
X73929686Y-110987370D01*
X73944102Y-110994188D01*
X73957780Y-111002386D01*
X73970589Y-111011886D01*
X73982405Y-111022595D01*
X73993114Y-111034411D01*
X74002614Y-111047220D01*
X74010812Y-111060898D01*
X74017630Y-111075314D01*
X74023003Y-111090329D01*
X74026878Y-111105798D01*
X74029218Y-111121572D01*
X74030000Y-111137500D01*
X74030000Y-111462500D01*
X74029218Y-111478428D01*
X74026878Y-111494202D01*
X74023003Y-111509671D01*
X74017630Y-111524686D01*
X74010812Y-111539102D01*
X74002614Y-111552780D01*
X73993114Y-111565589D01*
X73982405Y-111577405D01*
X73970589Y-111588114D01*
X73957780Y-111597614D01*
X73944102Y-111605812D01*
X73929686Y-111612630D01*
X73914671Y-111618003D01*
X73899202Y-111621878D01*
X73883428Y-111624218D01*
X73867500Y-111625000D01*
X73132500Y-111625000D01*
X73116572Y-111624218D01*
X73100798Y-111621878D01*
X73085329Y-111618003D01*
X73070314Y-111612630D01*
X73055898Y-111605812D01*
X73042220Y-111597614D01*
X73029411Y-111588114D01*
X73017595Y-111577405D01*
X73006886Y-111565589D01*
X72997386Y-111552780D01*
X72989188Y-111539102D01*
X72982370Y-111524686D01*
X72976997Y-111509671D01*
X72973122Y-111494202D01*
X72970782Y-111478428D01*
X72970000Y-111462500D01*
X72970000Y-111137500D01*
X72970782Y-111121572D01*
X72973122Y-111105798D01*
X72976997Y-111090329D01*
X72982370Y-111075314D01*
X72989188Y-111060898D01*
X72997386Y-111047220D01*
X73006886Y-111034411D01*
X73017595Y-111022595D01*
X73029411Y-111011886D01*
X73042220Y-111002386D01*
X73055898Y-110994188D01*
X73070314Y-110987370D01*
X73085329Y-110981997D01*
X73100798Y-110978122D01*
X73116572Y-110975782D01*
X73132500Y-110975000D01*
X73867500Y-110975000D01*
X73883428Y-110975782D01*
X73883428Y-110975782D01*
G37*
D11*
X73500000Y-111300000D03*
D10*
G36*
X73883428Y-110025782D02*
G01*
X73899202Y-110028122D01*
X73914671Y-110031997D01*
X73929686Y-110037370D01*
X73944102Y-110044188D01*
X73957780Y-110052386D01*
X73970589Y-110061886D01*
X73982405Y-110072595D01*
X73993114Y-110084411D01*
X74002614Y-110097220D01*
X74010812Y-110110898D01*
X74017630Y-110125314D01*
X74023003Y-110140329D01*
X74026878Y-110155798D01*
X74029218Y-110171572D01*
X74030000Y-110187500D01*
X74030000Y-110512500D01*
X74029218Y-110528428D01*
X74026878Y-110544202D01*
X74023003Y-110559671D01*
X74017630Y-110574686D01*
X74010812Y-110589102D01*
X74002614Y-110602780D01*
X73993114Y-110615589D01*
X73982405Y-110627405D01*
X73970589Y-110638114D01*
X73957780Y-110647614D01*
X73944102Y-110655812D01*
X73929686Y-110662630D01*
X73914671Y-110668003D01*
X73899202Y-110671878D01*
X73883428Y-110674218D01*
X73867500Y-110675000D01*
X73132500Y-110675000D01*
X73116572Y-110674218D01*
X73100798Y-110671878D01*
X73085329Y-110668003D01*
X73070314Y-110662630D01*
X73055898Y-110655812D01*
X73042220Y-110647614D01*
X73029411Y-110638114D01*
X73017595Y-110627405D01*
X73006886Y-110615589D01*
X72997386Y-110602780D01*
X72989188Y-110589102D01*
X72982370Y-110574686D01*
X72976997Y-110559671D01*
X72973122Y-110544202D01*
X72970782Y-110528428D01*
X72970000Y-110512500D01*
X72970000Y-110187500D01*
X72970782Y-110171572D01*
X72973122Y-110155798D01*
X72976997Y-110140329D01*
X72982370Y-110125314D01*
X72989188Y-110110898D01*
X72997386Y-110097220D01*
X73006886Y-110084411D01*
X73017595Y-110072595D01*
X73029411Y-110061886D01*
X73042220Y-110052386D01*
X73055898Y-110044188D01*
X73070314Y-110037370D01*
X73085329Y-110031997D01*
X73100798Y-110028122D01*
X73116572Y-110025782D01*
X73132500Y-110025000D01*
X73867500Y-110025000D01*
X73883428Y-110025782D01*
X73883428Y-110025782D01*
G37*
D11*
X73500000Y-110350000D03*
D10*
G36*
X96162142Y-109876174D02*
G01*
X96185803Y-109879684D01*
X96209007Y-109885496D01*
X96231529Y-109893554D01*
X96253153Y-109903782D01*
X96273670Y-109916079D01*
X96292883Y-109930329D01*
X96310607Y-109946393D01*
X96326671Y-109964117D01*
X96340921Y-109983330D01*
X96353218Y-110003847D01*
X96363446Y-110025471D01*
X96371504Y-110047993D01*
X96377316Y-110071197D01*
X96380826Y-110094858D01*
X96382000Y-110118750D01*
X96382000Y-110606250D01*
X96380826Y-110630142D01*
X96377316Y-110653803D01*
X96371504Y-110677007D01*
X96363446Y-110699529D01*
X96353218Y-110721153D01*
X96340921Y-110741670D01*
X96326671Y-110760883D01*
X96310607Y-110778607D01*
X96292883Y-110794671D01*
X96273670Y-110808921D01*
X96253153Y-110821218D01*
X96231529Y-110831446D01*
X96209007Y-110839504D01*
X96185803Y-110845316D01*
X96162142Y-110848826D01*
X96138250Y-110850000D01*
X95225750Y-110850000D01*
X95201858Y-110848826D01*
X95178197Y-110845316D01*
X95154993Y-110839504D01*
X95132471Y-110831446D01*
X95110847Y-110821218D01*
X95090330Y-110808921D01*
X95071117Y-110794671D01*
X95053393Y-110778607D01*
X95037329Y-110760883D01*
X95023079Y-110741670D01*
X95010782Y-110721153D01*
X95000554Y-110699529D01*
X94992496Y-110677007D01*
X94986684Y-110653803D01*
X94983174Y-110630142D01*
X94982000Y-110606250D01*
X94982000Y-110118750D01*
X94983174Y-110094858D01*
X94986684Y-110071197D01*
X94992496Y-110047993D01*
X95000554Y-110025471D01*
X95010782Y-110003847D01*
X95023079Y-109983330D01*
X95037329Y-109964117D01*
X95053393Y-109946393D01*
X95071117Y-109930329D01*
X95090330Y-109916079D01*
X95110847Y-109903782D01*
X95132471Y-109893554D01*
X95154993Y-109885496D01*
X95178197Y-109879684D01*
X95201858Y-109876174D01*
X95225750Y-109875000D01*
X96138250Y-109875000D01*
X96162142Y-109876174D01*
X96162142Y-109876174D01*
G37*
D12*
X95682000Y-110362500D03*
D10*
G36*
X96162142Y-111751174D02*
G01*
X96185803Y-111754684D01*
X96209007Y-111760496D01*
X96231529Y-111768554D01*
X96253153Y-111778782D01*
X96273670Y-111791079D01*
X96292883Y-111805329D01*
X96310607Y-111821393D01*
X96326671Y-111839117D01*
X96340921Y-111858330D01*
X96353218Y-111878847D01*
X96363446Y-111900471D01*
X96371504Y-111922993D01*
X96377316Y-111946197D01*
X96380826Y-111969858D01*
X96382000Y-111993750D01*
X96382000Y-112481250D01*
X96380826Y-112505142D01*
X96377316Y-112528803D01*
X96371504Y-112552007D01*
X96363446Y-112574529D01*
X96353218Y-112596153D01*
X96340921Y-112616670D01*
X96326671Y-112635883D01*
X96310607Y-112653607D01*
X96292883Y-112669671D01*
X96273670Y-112683921D01*
X96253153Y-112696218D01*
X96231529Y-112706446D01*
X96209007Y-112714504D01*
X96185803Y-112720316D01*
X96162142Y-112723826D01*
X96138250Y-112725000D01*
X95225750Y-112725000D01*
X95201858Y-112723826D01*
X95178197Y-112720316D01*
X95154993Y-112714504D01*
X95132471Y-112706446D01*
X95110847Y-112696218D01*
X95090330Y-112683921D01*
X95071117Y-112669671D01*
X95053393Y-112653607D01*
X95037329Y-112635883D01*
X95023079Y-112616670D01*
X95010782Y-112596153D01*
X95000554Y-112574529D01*
X94992496Y-112552007D01*
X94986684Y-112528803D01*
X94983174Y-112505142D01*
X94982000Y-112481250D01*
X94982000Y-111993750D01*
X94983174Y-111969858D01*
X94986684Y-111946197D01*
X94992496Y-111922993D01*
X95000554Y-111900471D01*
X95010782Y-111878847D01*
X95023079Y-111858330D01*
X95037329Y-111839117D01*
X95053393Y-111821393D01*
X95071117Y-111805329D01*
X95090330Y-111791079D01*
X95110847Y-111778782D01*
X95132471Y-111768554D01*
X95154993Y-111760496D01*
X95178197Y-111754684D01*
X95201858Y-111751174D01*
X95225750Y-111750000D01*
X96138250Y-111750000D01*
X96162142Y-111751174D01*
X96162142Y-111751174D01*
G37*
D12*
X95682000Y-112237500D03*
D10*
G36*
X101877142Y-109876174D02*
G01*
X101900803Y-109879684D01*
X101924007Y-109885496D01*
X101946529Y-109893554D01*
X101968153Y-109903782D01*
X101988670Y-109916079D01*
X102007883Y-109930329D01*
X102025607Y-109946393D01*
X102041671Y-109964117D01*
X102055921Y-109983330D01*
X102068218Y-110003847D01*
X102078446Y-110025471D01*
X102086504Y-110047993D01*
X102092316Y-110071197D01*
X102095826Y-110094858D01*
X102097000Y-110118750D01*
X102097000Y-110606250D01*
X102095826Y-110630142D01*
X102092316Y-110653803D01*
X102086504Y-110677007D01*
X102078446Y-110699529D01*
X102068218Y-110721153D01*
X102055921Y-110741670D01*
X102041671Y-110760883D01*
X102025607Y-110778607D01*
X102007883Y-110794671D01*
X101988670Y-110808921D01*
X101968153Y-110821218D01*
X101946529Y-110831446D01*
X101924007Y-110839504D01*
X101900803Y-110845316D01*
X101877142Y-110848826D01*
X101853250Y-110850000D01*
X100940750Y-110850000D01*
X100916858Y-110848826D01*
X100893197Y-110845316D01*
X100869993Y-110839504D01*
X100847471Y-110831446D01*
X100825847Y-110821218D01*
X100805330Y-110808921D01*
X100786117Y-110794671D01*
X100768393Y-110778607D01*
X100752329Y-110760883D01*
X100738079Y-110741670D01*
X100725782Y-110721153D01*
X100715554Y-110699529D01*
X100707496Y-110677007D01*
X100701684Y-110653803D01*
X100698174Y-110630142D01*
X100697000Y-110606250D01*
X100697000Y-110118750D01*
X100698174Y-110094858D01*
X100701684Y-110071197D01*
X100707496Y-110047993D01*
X100715554Y-110025471D01*
X100725782Y-110003847D01*
X100738079Y-109983330D01*
X100752329Y-109964117D01*
X100768393Y-109946393D01*
X100786117Y-109930329D01*
X100805330Y-109916079D01*
X100825847Y-109903782D01*
X100847471Y-109893554D01*
X100869993Y-109885496D01*
X100893197Y-109879684D01*
X100916858Y-109876174D01*
X100940750Y-109875000D01*
X101853250Y-109875000D01*
X101877142Y-109876174D01*
X101877142Y-109876174D01*
G37*
D12*
X101397000Y-110362500D03*
D10*
G36*
X101877142Y-111751174D02*
G01*
X101900803Y-111754684D01*
X101924007Y-111760496D01*
X101946529Y-111768554D01*
X101968153Y-111778782D01*
X101988670Y-111791079D01*
X102007883Y-111805329D01*
X102025607Y-111821393D01*
X102041671Y-111839117D01*
X102055921Y-111858330D01*
X102068218Y-111878847D01*
X102078446Y-111900471D01*
X102086504Y-111922993D01*
X102092316Y-111946197D01*
X102095826Y-111969858D01*
X102097000Y-111993750D01*
X102097000Y-112481250D01*
X102095826Y-112505142D01*
X102092316Y-112528803D01*
X102086504Y-112552007D01*
X102078446Y-112574529D01*
X102068218Y-112596153D01*
X102055921Y-112616670D01*
X102041671Y-112635883D01*
X102025607Y-112653607D01*
X102007883Y-112669671D01*
X101988670Y-112683921D01*
X101968153Y-112696218D01*
X101946529Y-112706446D01*
X101924007Y-112714504D01*
X101900803Y-112720316D01*
X101877142Y-112723826D01*
X101853250Y-112725000D01*
X100940750Y-112725000D01*
X100916858Y-112723826D01*
X100893197Y-112720316D01*
X100869993Y-112714504D01*
X100847471Y-112706446D01*
X100825847Y-112696218D01*
X100805330Y-112683921D01*
X100786117Y-112669671D01*
X100768393Y-112653607D01*
X100752329Y-112635883D01*
X100738079Y-112616670D01*
X100725782Y-112596153D01*
X100715554Y-112574529D01*
X100707496Y-112552007D01*
X100701684Y-112528803D01*
X100698174Y-112505142D01*
X100697000Y-112481250D01*
X100697000Y-111993750D01*
X100698174Y-111969858D01*
X100701684Y-111946197D01*
X100707496Y-111922993D01*
X100715554Y-111900471D01*
X100725782Y-111878847D01*
X100738079Y-111858330D01*
X100752329Y-111839117D01*
X100768393Y-111821393D01*
X100786117Y-111805329D01*
X100805330Y-111791079D01*
X100825847Y-111778782D01*
X100847471Y-111768554D01*
X100869993Y-111760496D01*
X100893197Y-111754684D01*
X100916858Y-111751174D01*
X100940750Y-111750000D01*
X101853250Y-111750000D01*
X101877142Y-111751174D01*
X101877142Y-111751174D01*
G37*
D12*
X101397000Y-112237500D03*
D10*
G36*
X94257142Y-111751174D02*
G01*
X94280803Y-111754684D01*
X94304007Y-111760496D01*
X94326529Y-111768554D01*
X94348153Y-111778782D01*
X94368670Y-111791079D01*
X94387883Y-111805329D01*
X94405607Y-111821393D01*
X94421671Y-111839117D01*
X94435921Y-111858330D01*
X94448218Y-111878847D01*
X94458446Y-111900471D01*
X94466504Y-111922993D01*
X94472316Y-111946197D01*
X94475826Y-111969858D01*
X94477000Y-111993750D01*
X94477000Y-112481250D01*
X94475826Y-112505142D01*
X94472316Y-112528803D01*
X94466504Y-112552007D01*
X94458446Y-112574529D01*
X94448218Y-112596153D01*
X94435921Y-112616670D01*
X94421671Y-112635883D01*
X94405607Y-112653607D01*
X94387883Y-112669671D01*
X94368670Y-112683921D01*
X94348153Y-112696218D01*
X94326529Y-112706446D01*
X94304007Y-112714504D01*
X94280803Y-112720316D01*
X94257142Y-112723826D01*
X94233250Y-112725000D01*
X93320750Y-112725000D01*
X93296858Y-112723826D01*
X93273197Y-112720316D01*
X93249993Y-112714504D01*
X93227471Y-112706446D01*
X93205847Y-112696218D01*
X93185330Y-112683921D01*
X93166117Y-112669671D01*
X93148393Y-112653607D01*
X93132329Y-112635883D01*
X93118079Y-112616670D01*
X93105782Y-112596153D01*
X93095554Y-112574529D01*
X93087496Y-112552007D01*
X93081684Y-112528803D01*
X93078174Y-112505142D01*
X93077000Y-112481250D01*
X93077000Y-111993750D01*
X93078174Y-111969858D01*
X93081684Y-111946197D01*
X93087496Y-111922993D01*
X93095554Y-111900471D01*
X93105782Y-111878847D01*
X93118079Y-111858330D01*
X93132329Y-111839117D01*
X93148393Y-111821393D01*
X93166117Y-111805329D01*
X93185330Y-111791079D01*
X93205847Y-111778782D01*
X93227471Y-111768554D01*
X93249993Y-111760496D01*
X93273197Y-111754684D01*
X93296858Y-111751174D01*
X93320750Y-111750000D01*
X94233250Y-111750000D01*
X94257142Y-111751174D01*
X94257142Y-111751174D01*
G37*
D12*
X93777000Y-112237500D03*
D10*
G36*
X94257142Y-109876174D02*
G01*
X94280803Y-109879684D01*
X94304007Y-109885496D01*
X94326529Y-109893554D01*
X94348153Y-109903782D01*
X94368670Y-109916079D01*
X94387883Y-109930329D01*
X94405607Y-109946393D01*
X94421671Y-109964117D01*
X94435921Y-109983330D01*
X94448218Y-110003847D01*
X94458446Y-110025471D01*
X94466504Y-110047993D01*
X94472316Y-110071197D01*
X94475826Y-110094858D01*
X94477000Y-110118750D01*
X94477000Y-110606250D01*
X94475826Y-110630142D01*
X94472316Y-110653803D01*
X94466504Y-110677007D01*
X94458446Y-110699529D01*
X94448218Y-110721153D01*
X94435921Y-110741670D01*
X94421671Y-110760883D01*
X94405607Y-110778607D01*
X94387883Y-110794671D01*
X94368670Y-110808921D01*
X94348153Y-110821218D01*
X94326529Y-110831446D01*
X94304007Y-110839504D01*
X94280803Y-110845316D01*
X94257142Y-110848826D01*
X94233250Y-110850000D01*
X93320750Y-110850000D01*
X93296858Y-110848826D01*
X93273197Y-110845316D01*
X93249993Y-110839504D01*
X93227471Y-110831446D01*
X93205847Y-110821218D01*
X93185330Y-110808921D01*
X93166117Y-110794671D01*
X93148393Y-110778607D01*
X93132329Y-110760883D01*
X93118079Y-110741670D01*
X93105782Y-110721153D01*
X93095554Y-110699529D01*
X93087496Y-110677007D01*
X93081684Y-110653803D01*
X93078174Y-110630142D01*
X93077000Y-110606250D01*
X93077000Y-110118750D01*
X93078174Y-110094858D01*
X93081684Y-110071197D01*
X93087496Y-110047993D01*
X93095554Y-110025471D01*
X93105782Y-110003847D01*
X93118079Y-109983330D01*
X93132329Y-109964117D01*
X93148393Y-109946393D01*
X93166117Y-109930329D01*
X93185330Y-109916079D01*
X93205847Y-109903782D01*
X93227471Y-109893554D01*
X93249993Y-109885496D01*
X93273197Y-109879684D01*
X93296858Y-109876174D01*
X93320750Y-109875000D01*
X94233250Y-109875000D01*
X94257142Y-109876174D01*
X94257142Y-109876174D01*
G37*
D12*
X93777000Y-110362500D03*
D10*
G36*
X99972142Y-111751174D02*
G01*
X99995803Y-111754684D01*
X100019007Y-111760496D01*
X100041529Y-111768554D01*
X100063153Y-111778782D01*
X100083670Y-111791079D01*
X100102883Y-111805329D01*
X100120607Y-111821393D01*
X100136671Y-111839117D01*
X100150921Y-111858330D01*
X100163218Y-111878847D01*
X100173446Y-111900471D01*
X100181504Y-111922993D01*
X100187316Y-111946197D01*
X100190826Y-111969858D01*
X100192000Y-111993750D01*
X100192000Y-112481250D01*
X100190826Y-112505142D01*
X100187316Y-112528803D01*
X100181504Y-112552007D01*
X100173446Y-112574529D01*
X100163218Y-112596153D01*
X100150921Y-112616670D01*
X100136671Y-112635883D01*
X100120607Y-112653607D01*
X100102883Y-112669671D01*
X100083670Y-112683921D01*
X100063153Y-112696218D01*
X100041529Y-112706446D01*
X100019007Y-112714504D01*
X99995803Y-112720316D01*
X99972142Y-112723826D01*
X99948250Y-112725000D01*
X99035750Y-112725000D01*
X99011858Y-112723826D01*
X98988197Y-112720316D01*
X98964993Y-112714504D01*
X98942471Y-112706446D01*
X98920847Y-112696218D01*
X98900330Y-112683921D01*
X98881117Y-112669671D01*
X98863393Y-112653607D01*
X98847329Y-112635883D01*
X98833079Y-112616670D01*
X98820782Y-112596153D01*
X98810554Y-112574529D01*
X98802496Y-112552007D01*
X98796684Y-112528803D01*
X98793174Y-112505142D01*
X98792000Y-112481250D01*
X98792000Y-111993750D01*
X98793174Y-111969858D01*
X98796684Y-111946197D01*
X98802496Y-111922993D01*
X98810554Y-111900471D01*
X98820782Y-111878847D01*
X98833079Y-111858330D01*
X98847329Y-111839117D01*
X98863393Y-111821393D01*
X98881117Y-111805329D01*
X98900330Y-111791079D01*
X98920847Y-111778782D01*
X98942471Y-111768554D01*
X98964993Y-111760496D01*
X98988197Y-111754684D01*
X99011858Y-111751174D01*
X99035750Y-111750000D01*
X99948250Y-111750000D01*
X99972142Y-111751174D01*
X99972142Y-111751174D01*
G37*
D12*
X99492000Y-112237500D03*
D10*
G36*
X99972142Y-109876174D02*
G01*
X99995803Y-109879684D01*
X100019007Y-109885496D01*
X100041529Y-109893554D01*
X100063153Y-109903782D01*
X100083670Y-109916079D01*
X100102883Y-109930329D01*
X100120607Y-109946393D01*
X100136671Y-109964117D01*
X100150921Y-109983330D01*
X100163218Y-110003847D01*
X100173446Y-110025471D01*
X100181504Y-110047993D01*
X100187316Y-110071197D01*
X100190826Y-110094858D01*
X100192000Y-110118750D01*
X100192000Y-110606250D01*
X100190826Y-110630142D01*
X100187316Y-110653803D01*
X100181504Y-110677007D01*
X100173446Y-110699529D01*
X100163218Y-110721153D01*
X100150921Y-110741670D01*
X100136671Y-110760883D01*
X100120607Y-110778607D01*
X100102883Y-110794671D01*
X100083670Y-110808921D01*
X100063153Y-110821218D01*
X100041529Y-110831446D01*
X100019007Y-110839504D01*
X99995803Y-110845316D01*
X99972142Y-110848826D01*
X99948250Y-110850000D01*
X99035750Y-110850000D01*
X99011858Y-110848826D01*
X98988197Y-110845316D01*
X98964993Y-110839504D01*
X98942471Y-110831446D01*
X98920847Y-110821218D01*
X98900330Y-110808921D01*
X98881117Y-110794671D01*
X98863393Y-110778607D01*
X98847329Y-110760883D01*
X98833079Y-110741670D01*
X98820782Y-110721153D01*
X98810554Y-110699529D01*
X98802496Y-110677007D01*
X98796684Y-110653803D01*
X98793174Y-110630142D01*
X98792000Y-110606250D01*
X98792000Y-110118750D01*
X98793174Y-110094858D01*
X98796684Y-110071197D01*
X98802496Y-110047993D01*
X98810554Y-110025471D01*
X98820782Y-110003847D01*
X98833079Y-109983330D01*
X98847329Y-109964117D01*
X98863393Y-109946393D01*
X98881117Y-109930329D01*
X98900330Y-109916079D01*
X98920847Y-109903782D01*
X98942471Y-109893554D01*
X98964993Y-109885496D01*
X98988197Y-109879684D01*
X99011858Y-109876174D01*
X99035750Y-109875000D01*
X99948250Y-109875000D01*
X99972142Y-109876174D01*
X99972142Y-109876174D01*
G37*
D12*
X99492000Y-110362500D03*
D10*
G36*
X70254142Y-111751174D02*
G01*
X70277803Y-111754684D01*
X70301007Y-111760496D01*
X70323529Y-111768554D01*
X70345153Y-111778782D01*
X70365670Y-111791079D01*
X70384883Y-111805329D01*
X70402607Y-111821393D01*
X70418671Y-111839117D01*
X70432921Y-111858330D01*
X70445218Y-111878847D01*
X70455446Y-111900471D01*
X70463504Y-111922993D01*
X70469316Y-111946197D01*
X70472826Y-111969858D01*
X70474000Y-111993750D01*
X70474000Y-112481250D01*
X70472826Y-112505142D01*
X70469316Y-112528803D01*
X70463504Y-112552007D01*
X70455446Y-112574529D01*
X70445218Y-112596153D01*
X70432921Y-112616670D01*
X70418671Y-112635883D01*
X70402607Y-112653607D01*
X70384883Y-112669671D01*
X70365670Y-112683921D01*
X70345153Y-112696218D01*
X70323529Y-112706446D01*
X70301007Y-112714504D01*
X70277803Y-112720316D01*
X70254142Y-112723826D01*
X70230250Y-112725000D01*
X69317750Y-112725000D01*
X69293858Y-112723826D01*
X69270197Y-112720316D01*
X69246993Y-112714504D01*
X69224471Y-112706446D01*
X69202847Y-112696218D01*
X69182330Y-112683921D01*
X69163117Y-112669671D01*
X69145393Y-112653607D01*
X69129329Y-112635883D01*
X69115079Y-112616670D01*
X69102782Y-112596153D01*
X69092554Y-112574529D01*
X69084496Y-112552007D01*
X69078684Y-112528803D01*
X69075174Y-112505142D01*
X69074000Y-112481250D01*
X69074000Y-111993750D01*
X69075174Y-111969858D01*
X69078684Y-111946197D01*
X69084496Y-111922993D01*
X69092554Y-111900471D01*
X69102782Y-111878847D01*
X69115079Y-111858330D01*
X69129329Y-111839117D01*
X69145393Y-111821393D01*
X69163117Y-111805329D01*
X69182330Y-111791079D01*
X69202847Y-111778782D01*
X69224471Y-111768554D01*
X69246993Y-111760496D01*
X69270197Y-111754684D01*
X69293858Y-111751174D01*
X69317750Y-111750000D01*
X70230250Y-111750000D01*
X70254142Y-111751174D01*
X70254142Y-111751174D01*
G37*
D12*
X69774000Y-112237500D03*
D10*
G36*
X70254142Y-109876174D02*
G01*
X70277803Y-109879684D01*
X70301007Y-109885496D01*
X70323529Y-109893554D01*
X70345153Y-109903782D01*
X70365670Y-109916079D01*
X70384883Y-109930329D01*
X70402607Y-109946393D01*
X70418671Y-109964117D01*
X70432921Y-109983330D01*
X70445218Y-110003847D01*
X70455446Y-110025471D01*
X70463504Y-110047993D01*
X70469316Y-110071197D01*
X70472826Y-110094858D01*
X70474000Y-110118750D01*
X70474000Y-110606250D01*
X70472826Y-110630142D01*
X70469316Y-110653803D01*
X70463504Y-110677007D01*
X70455446Y-110699529D01*
X70445218Y-110721153D01*
X70432921Y-110741670D01*
X70418671Y-110760883D01*
X70402607Y-110778607D01*
X70384883Y-110794671D01*
X70365670Y-110808921D01*
X70345153Y-110821218D01*
X70323529Y-110831446D01*
X70301007Y-110839504D01*
X70277803Y-110845316D01*
X70254142Y-110848826D01*
X70230250Y-110850000D01*
X69317750Y-110850000D01*
X69293858Y-110848826D01*
X69270197Y-110845316D01*
X69246993Y-110839504D01*
X69224471Y-110831446D01*
X69202847Y-110821218D01*
X69182330Y-110808921D01*
X69163117Y-110794671D01*
X69145393Y-110778607D01*
X69129329Y-110760883D01*
X69115079Y-110741670D01*
X69102782Y-110721153D01*
X69092554Y-110699529D01*
X69084496Y-110677007D01*
X69078684Y-110653803D01*
X69075174Y-110630142D01*
X69074000Y-110606250D01*
X69074000Y-110118750D01*
X69075174Y-110094858D01*
X69078684Y-110071197D01*
X69084496Y-110047993D01*
X69092554Y-110025471D01*
X69102782Y-110003847D01*
X69115079Y-109983330D01*
X69129329Y-109964117D01*
X69145393Y-109946393D01*
X69163117Y-109930329D01*
X69182330Y-109916079D01*
X69202847Y-109903782D01*
X69224471Y-109893554D01*
X69246993Y-109885496D01*
X69270197Y-109879684D01*
X69293858Y-109876174D01*
X69317750Y-109875000D01*
X70230250Y-109875000D01*
X70254142Y-109876174D01*
X70254142Y-109876174D01*
G37*
D12*
X69774000Y-110362500D03*
D14*
X90332000Y-111300000D03*
X88332000Y-112250000D03*
X88332000Y-110350000D03*
D10*
G36*
X98067142Y-111751174D02*
G01*
X98090803Y-111754684D01*
X98114007Y-111760496D01*
X98136529Y-111768554D01*
X98158153Y-111778782D01*
X98178670Y-111791079D01*
X98197883Y-111805329D01*
X98215607Y-111821393D01*
X98231671Y-111839117D01*
X98245921Y-111858330D01*
X98258218Y-111878847D01*
X98268446Y-111900471D01*
X98276504Y-111922993D01*
X98282316Y-111946197D01*
X98285826Y-111969858D01*
X98287000Y-111993750D01*
X98287000Y-112481250D01*
X98285826Y-112505142D01*
X98282316Y-112528803D01*
X98276504Y-112552007D01*
X98268446Y-112574529D01*
X98258218Y-112596153D01*
X98245921Y-112616670D01*
X98231671Y-112635883D01*
X98215607Y-112653607D01*
X98197883Y-112669671D01*
X98178670Y-112683921D01*
X98158153Y-112696218D01*
X98136529Y-112706446D01*
X98114007Y-112714504D01*
X98090803Y-112720316D01*
X98067142Y-112723826D01*
X98043250Y-112725000D01*
X97130750Y-112725000D01*
X97106858Y-112723826D01*
X97083197Y-112720316D01*
X97059993Y-112714504D01*
X97037471Y-112706446D01*
X97015847Y-112696218D01*
X96995330Y-112683921D01*
X96976117Y-112669671D01*
X96958393Y-112653607D01*
X96942329Y-112635883D01*
X96928079Y-112616670D01*
X96915782Y-112596153D01*
X96905554Y-112574529D01*
X96897496Y-112552007D01*
X96891684Y-112528803D01*
X96888174Y-112505142D01*
X96887000Y-112481250D01*
X96887000Y-111993750D01*
X96888174Y-111969858D01*
X96891684Y-111946197D01*
X96897496Y-111922993D01*
X96905554Y-111900471D01*
X96915782Y-111878847D01*
X96928079Y-111858330D01*
X96942329Y-111839117D01*
X96958393Y-111821393D01*
X96976117Y-111805329D01*
X96995330Y-111791079D01*
X97015847Y-111778782D01*
X97037471Y-111768554D01*
X97059993Y-111760496D01*
X97083197Y-111754684D01*
X97106858Y-111751174D01*
X97130750Y-111750000D01*
X98043250Y-111750000D01*
X98067142Y-111751174D01*
X98067142Y-111751174D01*
G37*
D12*
X97587000Y-112237500D03*
D10*
G36*
X98067142Y-109876174D02*
G01*
X98090803Y-109879684D01*
X98114007Y-109885496D01*
X98136529Y-109893554D01*
X98158153Y-109903782D01*
X98178670Y-109916079D01*
X98197883Y-109930329D01*
X98215607Y-109946393D01*
X98231671Y-109964117D01*
X98245921Y-109983330D01*
X98258218Y-110003847D01*
X98268446Y-110025471D01*
X98276504Y-110047993D01*
X98282316Y-110071197D01*
X98285826Y-110094858D01*
X98287000Y-110118750D01*
X98287000Y-110606250D01*
X98285826Y-110630142D01*
X98282316Y-110653803D01*
X98276504Y-110677007D01*
X98268446Y-110699529D01*
X98258218Y-110721153D01*
X98245921Y-110741670D01*
X98231671Y-110760883D01*
X98215607Y-110778607D01*
X98197883Y-110794671D01*
X98178670Y-110808921D01*
X98158153Y-110821218D01*
X98136529Y-110831446D01*
X98114007Y-110839504D01*
X98090803Y-110845316D01*
X98067142Y-110848826D01*
X98043250Y-110850000D01*
X97130750Y-110850000D01*
X97106858Y-110848826D01*
X97083197Y-110845316D01*
X97059993Y-110839504D01*
X97037471Y-110831446D01*
X97015847Y-110821218D01*
X96995330Y-110808921D01*
X96976117Y-110794671D01*
X96958393Y-110778607D01*
X96942329Y-110760883D01*
X96928079Y-110741670D01*
X96915782Y-110721153D01*
X96905554Y-110699529D01*
X96897496Y-110677007D01*
X96891684Y-110653803D01*
X96888174Y-110630142D01*
X96887000Y-110606250D01*
X96887000Y-110118750D01*
X96888174Y-110094858D01*
X96891684Y-110071197D01*
X96897496Y-110047993D01*
X96905554Y-110025471D01*
X96915782Y-110003847D01*
X96928079Y-109983330D01*
X96942329Y-109964117D01*
X96958393Y-109946393D01*
X96976117Y-109930329D01*
X96995330Y-109916079D01*
X97015847Y-109903782D01*
X97037471Y-109893554D01*
X97059993Y-109885496D01*
X97083197Y-109879684D01*
X97106858Y-109876174D01*
X97130750Y-109875000D01*
X98043250Y-109875000D01*
X98067142Y-109876174D01*
X98067142Y-109876174D01*
G37*
D12*
X97587000Y-110362500D03*
D10*
G36*
X103782142Y-111751174D02*
G01*
X103805803Y-111754684D01*
X103829007Y-111760496D01*
X103851529Y-111768554D01*
X103873153Y-111778782D01*
X103893670Y-111791079D01*
X103912883Y-111805329D01*
X103930607Y-111821393D01*
X103946671Y-111839117D01*
X103960921Y-111858330D01*
X103973218Y-111878847D01*
X103983446Y-111900471D01*
X103991504Y-111922993D01*
X103997316Y-111946197D01*
X104000826Y-111969858D01*
X104002000Y-111993750D01*
X104002000Y-112481250D01*
X104000826Y-112505142D01*
X103997316Y-112528803D01*
X103991504Y-112552007D01*
X103983446Y-112574529D01*
X103973218Y-112596153D01*
X103960921Y-112616670D01*
X103946671Y-112635883D01*
X103930607Y-112653607D01*
X103912883Y-112669671D01*
X103893670Y-112683921D01*
X103873153Y-112696218D01*
X103851529Y-112706446D01*
X103829007Y-112714504D01*
X103805803Y-112720316D01*
X103782142Y-112723826D01*
X103758250Y-112725000D01*
X102845750Y-112725000D01*
X102821858Y-112723826D01*
X102798197Y-112720316D01*
X102774993Y-112714504D01*
X102752471Y-112706446D01*
X102730847Y-112696218D01*
X102710330Y-112683921D01*
X102691117Y-112669671D01*
X102673393Y-112653607D01*
X102657329Y-112635883D01*
X102643079Y-112616670D01*
X102630782Y-112596153D01*
X102620554Y-112574529D01*
X102612496Y-112552007D01*
X102606684Y-112528803D01*
X102603174Y-112505142D01*
X102602000Y-112481250D01*
X102602000Y-111993750D01*
X102603174Y-111969858D01*
X102606684Y-111946197D01*
X102612496Y-111922993D01*
X102620554Y-111900471D01*
X102630782Y-111878847D01*
X102643079Y-111858330D01*
X102657329Y-111839117D01*
X102673393Y-111821393D01*
X102691117Y-111805329D01*
X102710330Y-111791079D01*
X102730847Y-111778782D01*
X102752471Y-111768554D01*
X102774993Y-111760496D01*
X102798197Y-111754684D01*
X102821858Y-111751174D01*
X102845750Y-111750000D01*
X103758250Y-111750000D01*
X103782142Y-111751174D01*
X103782142Y-111751174D01*
G37*
D12*
X103302000Y-112237500D03*
D10*
G36*
X103782142Y-109876174D02*
G01*
X103805803Y-109879684D01*
X103829007Y-109885496D01*
X103851529Y-109893554D01*
X103873153Y-109903782D01*
X103893670Y-109916079D01*
X103912883Y-109930329D01*
X103930607Y-109946393D01*
X103946671Y-109964117D01*
X103960921Y-109983330D01*
X103973218Y-110003847D01*
X103983446Y-110025471D01*
X103991504Y-110047993D01*
X103997316Y-110071197D01*
X104000826Y-110094858D01*
X104002000Y-110118750D01*
X104002000Y-110606250D01*
X104000826Y-110630142D01*
X103997316Y-110653803D01*
X103991504Y-110677007D01*
X103983446Y-110699529D01*
X103973218Y-110721153D01*
X103960921Y-110741670D01*
X103946671Y-110760883D01*
X103930607Y-110778607D01*
X103912883Y-110794671D01*
X103893670Y-110808921D01*
X103873153Y-110821218D01*
X103851529Y-110831446D01*
X103829007Y-110839504D01*
X103805803Y-110845316D01*
X103782142Y-110848826D01*
X103758250Y-110850000D01*
X102845750Y-110850000D01*
X102821858Y-110848826D01*
X102798197Y-110845316D01*
X102774993Y-110839504D01*
X102752471Y-110831446D01*
X102730847Y-110821218D01*
X102710330Y-110808921D01*
X102691117Y-110794671D01*
X102673393Y-110778607D01*
X102657329Y-110760883D01*
X102643079Y-110741670D01*
X102630782Y-110721153D01*
X102620554Y-110699529D01*
X102612496Y-110677007D01*
X102606684Y-110653803D01*
X102603174Y-110630142D01*
X102602000Y-110606250D01*
X102602000Y-110118750D01*
X102603174Y-110094858D01*
X102606684Y-110071197D01*
X102612496Y-110047993D01*
X102620554Y-110025471D01*
X102630782Y-110003847D01*
X102643079Y-109983330D01*
X102657329Y-109964117D01*
X102673393Y-109946393D01*
X102691117Y-109930329D01*
X102710330Y-109916079D01*
X102730847Y-109903782D01*
X102752471Y-109893554D01*
X102774993Y-109885496D01*
X102798197Y-109879684D01*
X102821858Y-109876174D01*
X102845750Y-109875000D01*
X103758250Y-109875000D01*
X103782142Y-109876174D01*
X103782142Y-109876174D01*
G37*
D12*
X103302000Y-110362500D03*
D10*
G36*
X92352142Y-111776574D02*
G01*
X92375803Y-111780084D01*
X92399007Y-111785896D01*
X92421529Y-111793954D01*
X92443153Y-111804182D01*
X92463670Y-111816479D01*
X92482883Y-111830729D01*
X92500607Y-111846793D01*
X92516671Y-111864517D01*
X92530921Y-111883730D01*
X92543218Y-111904247D01*
X92553446Y-111925871D01*
X92561504Y-111948393D01*
X92567316Y-111971597D01*
X92570826Y-111995258D01*
X92572000Y-112019150D01*
X92572000Y-112506650D01*
X92570826Y-112530542D01*
X92567316Y-112554203D01*
X92561504Y-112577407D01*
X92553446Y-112599929D01*
X92543218Y-112621553D01*
X92530921Y-112642070D01*
X92516671Y-112661283D01*
X92500607Y-112679007D01*
X92482883Y-112695071D01*
X92463670Y-112709321D01*
X92443153Y-112721618D01*
X92421529Y-112731846D01*
X92399007Y-112739904D01*
X92375803Y-112745716D01*
X92352142Y-112749226D01*
X92328250Y-112750400D01*
X91415750Y-112750400D01*
X91391858Y-112749226D01*
X91368197Y-112745716D01*
X91344993Y-112739904D01*
X91322471Y-112731846D01*
X91300847Y-112721618D01*
X91280330Y-112709321D01*
X91261117Y-112695071D01*
X91243393Y-112679007D01*
X91227329Y-112661283D01*
X91213079Y-112642070D01*
X91200782Y-112621553D01*
X91190554Y-112599929D01*
X91182496Y-112577407D01*
X91176684Y-112554203D01*
X91173174Y-112530542D01*
X91172000Y-112506650D01*
X91172000Y-112019150D01*
X91173174Y-111995258D01*
X91176684Y-111971597D01*
X91182496Y-111948393D01*
X91190554Y-111925871D01*
X91200782Y-111904247D01*
X91213079Y-111883730D01*
X91227329Y-111864517D01*
X91243393Y-111846793D01*
X91261117Y-111830729D01*
X91280330Y-111816479D01*
X91300847Y-111804182D01*
X91322471Y-111793954D01*
X91344993Y-111785896D01*
X91368197Y-111780084D01*
X91391858Y-111776574D01*
X91415750Y-111775400D01*
X92328250Y-111775400D01*
X92352142Y-111776574D01*
X92352142Y-111776574D01*
G37*
D12*
X91872000Y-112262900D03*
D10*
G36*
X92352142Y-109901574D02*
G01*
X92375803Y-109905084D01*
X92399007Y-109910896D01*
X92421529Y-109918954D01*
X92443153Y-109929182D01*
X92463670Y-109941479D01*
X92482883Y-109955729D01*
X92500607Y-109971793D01*
X92516671Y-109989517D01*
X92530921Y-110008730D01*
X92543218Y-110029247D01*
X92553446Y-110050871D01*
X92561504Y-110073393D01*
X92567316Y-110096597D01*
X92570826Y-110120258D01*
X92572000Y-110144150D01*
X92572000Y-110631650D01*
X92570826Y-110655542D01*
X92567316Y-110679203D01*
X92561504Y-110702407D01*
X92553446Y-110724929D01*
X92543218Y-110746553D01*
X92530921Y-110767070D01*
X92516671Y-110786283D01*
X92500607Y-110804007D01*
X92482883Y-110820071D01*
X92463670Y-110834321D01*
X92443153Y-110846618D01*
X92421529Y-110856846D01*
X92399007Y-110864904D01*
X92375803Y-110870716D01*
X92352142Y-110874226D01*
X92328250Y-110875400D01*
X91415750Y-110875400D01*
X91391858Y-110874226D01*
X91368197Y-110870716D01*
X91344993Y-110864904D01*
X91322471Y-110856846D01*
X91300847Y-110846618D01*
X91280330Y-110834321D01*
X91261117Y-110820071D01*
X91243393Y-110804007D01*
X91227329Y-110786283D01*
X91213079Y-110767070D01*
X91200782Y-110746553D01*
X91190554Y-110724929D01*
X91182496Y-110702407D01*
X91176684Y-110679203D01*
X91173174Y-110655542D01*
X91172000Y-110631650D01*
X91172000Y-110144150D01*
X91173174Y-110120258D01*
X91176684Y-110096597D01*
X91182496Y-110073393D01*
X91190554Y-110050871D01*
X91200782Y-110029247D01*
X91213079Y-110008730D01*
X91227329Y-109989517D01*
X91243393Y-109971793D01*
X91261117Y-109955729D01*
X91280330Y-109941479D01*
X91300847Y-109929182D01*
X91322471Y-109918954D01*
X91344993Y-109910896D01*
X91368197Y-109905084D01*
X91391858Y-109901574D01*
X91415750Y-109900400D01*
X92328250Y-109900400D01*
X92352142Y-109901574D01*
X92352142Y-109901574D01*
G37*
D12*
X91872000Y-110387900D03*
D10*
G36*
X142491742Y-111751174D02*
G01*
X142515403Y-111754684D01*
X142538607Y-111760496D01*
X142561129Y-111768554D01*
X142582753Y-111778782D01*
X142603270Y-111791079D01*
X142622483Y-111805329D01*
X142640207Y-111821393D01*
X142656271Y-111839117D01*
X142670521Y-111858330D01*
X142682818Y-111878847D01*
X142693046Y-111900471D01*
X142701104Y-111922993D01*
X142706916Y-111946197D01*
X142710426Y-111969858D01*
X142711600Y-111993750D01*
X142711600Y-112481250D01*
X142710426Y-112505142D01*
X142706916Y-112528803D01*
X142701104Y-112552007D01*
X142693046Y-112574529D01*
X142682818Y-112596153D01*
X142670521Y-112616670D01*
X142656271Y-112635883D01*
X142640207Y-112653607D01*
X142622483Y-112669671D01*
X142603270Y-112683921D01*
X142582753Y-112696218D01*
X142561129Y-112706446D01*
X142538607Y-112714504D01*
X142515403Y-112720316D01*
X142491742Y-112723826D01*
X142467850Y-112725000D01*
X141555350Y-112725000D01*
X141531458Y-112723826D01*
X141507797Y-112720316D01*
X141484593Y-112714504D01*
X141462071Y-112706446D01*
X141440447Y-112696218D01*
X141419930Y-112683921D01*
X141400717Y-112669671D01*
X141382993Y-112653607D01*
X141366929Y-112635883D01*
X141352679Y-112616670D01*
X141340382Y-112596153D01*
X141330154Y-112574529D01*
X141322096Y-112552007D01*
X141316284Y-112528803D01*
X141312774Y-112505142D01*
X141311600Y-112481250D01*
X141311600Y-111993750D01*
X141312774Y-111969858D01*
X141316284Y-111946197D01*
X141322096Y-111922993D01*
X141330154Y-111900471D01*
X141340382Y-111878847D01*
X141352679Y-111858330D01*
X141366929Y-111839117D01*
X141382993Y-111821393D01*
X141400717Y-111805329D01*
X141419930Y-111791079D01*
X141440447Y-111778782D01*
X141462071Y-111768554D01*
X141484593Y-111760496D01*
X141507797Y-111754684D01*
X141531458Y-111751174D01*
X141555350Y-111750000D01*
X142467850Y-111750000D01*
X142491742Y-111751174D01*
X142491742Y-111751174D01*
G37*
D12*
X142011600Y-112237500D03*
D10*
G36*
X142491742Y-109876174D02*
G01*
X142515403Y-109879684D01*
X142538607Y-109885496D01*
X142561129Y-109893554D01*
X142582753Y-109903782D01*
X142603270Y-109916079D01*
X142622483Y-109930329D01*
X142640207Y-109946393D01*
X142656271Y-109964117D01*
X142670521Y-109983330D01*
X142682818Y-110003847D01*
X142693046Y-110025471D01*
X142701104Y-110047993D01*
X142706916Y-110071197D01*
X142710426Y-110094858D01*
X142711600Y-110118750D01*
X142711600Y-110606250D01*
X142710426Y-110630142D01*
X142706916Y-110653803D01*
X142701104Y-110677007D01*
X142693046Y-110699529D01*
X142682818Y-110721153D01*
X142670521Y-110741670D01*
X142656271Y-110760883D01*
X142640207Y-110778607D01*
X142622483Y-110794671D01*
X142603270Y-110808921D01*
X142582753Y-110821218D01*
X142561129Y-110831446D01*
X142538607Y-110839504D01*
X142515403Y-110845316D01*
X142491742Y-110848826D01*
X142467850Y-110850000D01*
X141555350Y-110850000D01*
X141531458Y-110848826D01*
X141507797Y-110845316D01*
X141484593Y-110839504D01*
X141462071Y-110831446D01*
X141440447Y-110821218D01*
X141419930Y-110808921D01*
X141400717Y-110794671D01*
X141382993Y-110778607D01*
X141366929Y-110760883D01*
X141352679Y-110741670D01*
X141340382Y-110721153D01*
X141330154Y-110699529D01*
X141322096Y-110677007D01*
X141316284Y-110653803D01*
X141312774Y-110630142D01*
X141311600Y-110606250D01*
X141311600Y-110118750D01*
X141312774Y-110094858D01*
X141316284Y-110071197D01*
X141322096Y-110047993D01*
X141330154Y-110025471D01*
X141340382Y-110003847D01*
X141352679Y-109983330D01*
X141366929Y-109964117D01*
X141382993Y-109946393D01*
X141400717Y-109930329D01*
X141419930Y-109916079D01*
X141440447Y-109903782D01*
X141462071Y-109893554D01*
X141484593Y-109885496D01*
X141507797Y-109879684D01*
X141531458Y-109876174D01*
X141555350Y-109875000D01*
X142467850Y-109875000D01*
X142491742Y-109876174D01*
X142491742Y-109876174D01*
G37*
D12*
X142011600Y-110362500D03*
D10*
G36*
X58468542Y-111751174D02*
G01*
X58492203Y-111754684D01*
X58515407Y-111760496D01*
X58537929Y-111768554D01*
X58559553Y-111778782D01*
X58580070Y-111791079D01*
X58599283Y-111805329D01*
X58617007Y-111821393D01*
X58633071Y-111839117D01*
X58647321Y-111858330D01*
X58659618Y-111878847D01*
X58669846Y-111900471D01*
X58677904Y-111922993D01*
X58683716Y-111946197D01*
X58687226Y-111969858D01*
X58688400Y-111993750D01*
X58688400Y-112481250D01*
X58687226Y-112505142D01*
X58683716Y-112528803D01*
X58677904Y-112552007D01*
X58669846Y-112574529D01*
X58659618Y-112596153D01*
X58647321Y-112616670D01*
X58633071Y-112635883D01*
X58617007Y-112653607D01*
X58599283Y-112669671D01*
X58580070Y-112683921D01*
X58559553Y-112696218D01*
X58537929Y-112706446D01*
X58515407Y-112714504D01*
X58492203Y-112720316D01*
X58468542Y-112723826D01*
X58444650Y-112725000D01*
X57532150Y-112725000D01*
X57508258Y-112723826D01*
X57484597Y-112720316D01*
X57461393Y-112714504D01*
X57438871Y-112706446D01*
X57417247Y-112696218D01*
X57396730Y-112683921D01*
X57377517Y-112669671D01*
X57359793Y-112653607D01*
X57343729Y-112635883D01*
X57329479Y-112616670D01*
X57317182Y-112596153D01*
X57306954Y-112574529D01*
X57298896Y-112552007D01*
X57293084Y-112528803D01*
X57289574Y-112505142D01*
X57288400Y-112481250D01*
X57288400Y-111993750D01*
X57289574Y-111969858D01*
X57293084Y-111946197D01*
X57298896Y-111922993D01*
X57306954Y-111900471D01*
X57317182Y-111878847D01*
X57329479Y-111858330D01*
X57343729Y-111839117D01*
X57359793Y-111821393D01*
X57377517Y-111805329D01*
X57396730Y-111791079D01*
X57417247Y-111778782D01*
X57438871Y-111768554D01*
X57461393Y-111760496D01*
X57484597Y-111754684D01*
X57508258Y-111751174D01*
X57532150Y-111750000D01*
X58444650Y-111750000D01*
X58468542Y-111751174D01*
X58468542Y-111751174D01*
G37*
D12*
X57988400Y-112237500D03*
D10*
G36*
X58468542Y-109876174D02*
G01*
X58492203Y-109879684D01*
X58515407Y-109885496D01*
X58537929Y-109893554D01*
X58559553Y-109903782D01*
X58580070Y-109916079D01*
X58599283Y-109930329D01*
X58617007Y-109946393D01*
X58633071Y-109964117D01*
X58647321Y-109983330D01*
X58659618Y-110003847D01*
X58669846Y-110025471D01*
X58677904Y-110047993D01*
X58683716Y-110071197D01*
X58687226Y-110094858D01*
X58688400Y-110118750D01*
X58688400Y-110606250D01*
X58687226Y-110630142D01*
X58683716Y-110653803D01*
X58677904Y-110677007D01*
X58669846Y-110699529D01*
X58659618Y-110721153D01*
X58647321Y-110741670D01*
X58633071Y-110760883D01*
X58617007Y-110778607D01*
X58599283Y-110794671D01*
X58580070Y-110808921D01*
X58559553Y-110821218D01*
X58537929Y-110831446D01*
X58515407Y-110839504D01*
X58492203Y-110845316D01*
X58468542Y-110848826D01*
X58444650Y-110850000D01*
X57532150Y-110850000D01*
X57508258Y-110848826D01*
X57484597Y-110845316D01*
X57461393Y-110839504D01*
X57438871Y-110831446D01*
X57417247Y-110821218D01*
X57396730Y-110808921D01*
X57377517Y-110794671D01*
X57359793Y-110778607D01*
X57343729Y-110760883D01*
X57329479Y-110741670D01*
X57317182Y-110721153D01*
X57306954Y-110699529D01*
X57298896Y-110677007D01*
X57293084Y-110653803D01*
X57289574Y-110630142D01*
X57288400Y-110606250D01*
X57288400Y-110118750D01*
X57289574Y-110094858D01*
X57293084Y-110071197D01*
X57298896Y-110047993D01*
X57306954Y-110025471D01*
X57317182Y-110003847D01*
X57329479Y-109983330D01*
X57343729Y-109964117D01*
X57359793Y-109946393D01*
X57377517Y-109930329D01*
X57396730Y-109916079D01*
X57417247Y-109903782D01*
X57438871Y-109893554D01*
X57461393Y-109885496D01*
X57484597Y-109879684D01*
X57508258Y-109876174D01*
X57532150Y-109875000D01*
X58444650Y-109875000D01*
X58468542Y-109876174D01*
X58468542Y-109876174D01*
G37*
D12*
X57988400Y-110362500D03*
M02*
