%TF.GenerationSoftware,KiCad,Pcbnew,(5.1.6)-1*%
%TF.CreationDate,2020-12-27T15:21:12+01:00*%
%TF.ProjectId,XY_ADAPTER_FPC50,58595f41-4441-4505-9445-525f46504335,rev?*%
%TF.SameCoordinates,Original*%
%TF.FileFunction,Soldermask,Bot*%
%TF.FilePolarity,Negative*%
%FSLAX46Y46*%
G04 Gerber Fmt 4.6, Leading zero omitted, Abs format (unit mm)*
G04 Created by KiCad (PCBNEW (5.1.6)-1) date 2020-12-27 15:21:12*
%MOMM*%
%LPD*%
G01*
G04 APERTURE LIST*
%ADD10O,1.800000X1.800000*%
%ADD11R,1.800000X1.800000*%
G04 APERTURE END LIST*
D10*
%TO.C,J6*%
X74600000Y-120320000D03*
X77140000Y-120320000D03*
X79680000Y-120320000D03*
X82220000Y-120320000D03*
X84760000Y-120320000D03*
X87300000Y-120320000D03*
X89840000Y-120320000D03*
X92380000Y-120320000D03*
X94920000Y-120320000D03*
D11*
X97460000Y-120320000D03*
%TD*%
D10*
%TO.C,J5*%
X102540000Y-120320000D03*
X105080000Y-120320000D03*
X107620000Y-120320000D03*
X110160000Y-120320000D03*
X112700000Y-120320000D03*
X115240000Y-120320000D03*
X117780000Y-120320000D03*
X120320000Y-120320000D03*
X122860000Y-120320000D03*
D11*
X125400000Y-120320000D03*
%TD*%
D10*
%TO.C,J4*%
X130480000Y-111430000D03*
X130480000Y-108890000D03*
X130480000Y-106350000D03*
X130480000Y-103810000D03*
X130480000Y-101270000D03*
X130480000Y-98730000D03*
X130480000Y-96190000D03*
X130480000Y-93650000D03*
X130480000Y-91110000D03*
D11*
X130480000Y-88570000D03*
%TD*%
D10*
%TO.C,J3*%
X125400000Y-79960000D03*
X122860000Y-79960000D03*
X120320000Y-79960000D03*
X117780000Y-79960000D03*
X115240000Y-79960000D03*
X112700000Y-79960000D03*
X110160000Y-79960000D03*
X107620000Y-79960000D03*
X105080000Y-79960000D03*
D11*
X102540000Y-79960000D03*
%TD*%
D10*
%TO.C,J2*%
X97460000Y-79960000D03*
X94920000Y-79960000D03*
X92380000Y-79960000D03*
X89840000Y-79960000D03*
X87300000Y-79960000D03*
X84760000Y-79960000D03*
X82220000Y-79960000D03*
X79680000Y-79960000D03*
X77140000Y-79960000D03*
D11*
X74600000Y-79960000D03*
%TD*%
M02*
