<?xml version="1.0" encoding="UTF-8" standalone="no"?>
<!-- Created with Inkscape (http://www.inkscape.org/) -->

<svg
   width="150mm"
   height="150mm"
   viewBox="0 0 150 150"
   version="1.1"
   id="svg5"
   inkscape:version="1.1.1 (3bf5ae0, 2021-09-20)"
   sodipodi:docname="frontpanel_laser.svg"
   xmlns:inkscape="http://www.inkscape.org/namespaces/inkscape"
   xmlns:sodipodi="http://sodipodi.sourceforge.net/DTD/sodipodi-0.dtd"
   xmlns="http://www.w3.org/2000/svg"
   xmlns:svg="http://www.w3.org/2000/svg">
  <sodipodi:namedview
     id="namedview7"
     pagecolor="#ffffff"
     bordercolor="#666666"
     borderopacity="1.0"
     inkscape:pageshadow="2"
     inkscape:pageopacity="0.0"
     inkscape:pagecheckerboard="0"
     inkscape:document-units="mm"
     showgrid="false"
     width="150mm"
     inkscape:zoom="1.5048842"
     inkscape:cx="274.10746"
     inkscape:cy="278.09448"
     inkscape:window-width="1280"
     inkscape:window-height="975"
     inkscape:window-x="1280"
     inkscape:window-y="0"
     inkscape:window-maximized="1"
     inkscape:current-layer="layer5" />
  <defs
     id="defs2" />
  <g
     inkscape:label="PO16"
     inkscape:groupmode="layer"
     id="layer1"
     style="display:none">
    <path
       id="PO16"
       fill="#231f20"
       d="m 39.814123,59.058585 c -0.8255,-1.89177 -0.963348,-4.54025 -0.963348,-7.73932 0,-3.19908 0.137848,-5.84756 0.963348,-7.73933 1.169458,-2.64874 3.680354,-4.6437 7.154598,-4.6437 4.609042,0 7.498552,3.06123 7.498552,7.01701 0,0.37836 -0.30956,0.68792 -0.68818,0.68792 h -0.92868 c -0.37836,0 -0.68819,-0.30956 -0.68819,-0.68792 0,-2.75166 -1.891502,-4.81568 -5.193767,-4.81568 -2.064014,0 -4.058973,1.06627 -5.022056,3.37079 -0.653521,1.58221 -0.756444,4.26535 -0.756444,6.81064 0,2.54529 0.103188,5.22843 0.756444,6.81064 0.963348,2.30452 2.958306,3.37079 5.022056,3.37079 3.302,0 5.193767,-1.99496 5.193767,-5.53799 v -3.19908 c 0,-0.20611 -0.13758,-0.34396 -0.34395,-0.34396 H 47.7249 c -0.378354,0 -0.687917,-0.30956 -0.687917,-0.68791 v -0.8255 c 0,-0.37862 0.309563,-0.68818 0.687917,-0.68818 h 6.053933 c 0.37862,0 0.68818,0.30956 0.68818,0.68818 v 5.05618 c 0,4.81542 -2.88952,7.73933 -7.498557,7.73933 -3.473979,8e-4 -5.985139,-1.99416 -7.154333,-4.64291 z m 19.46751,3.61183 v -22.70204 c 0,-0.37862 0.30956,-0.68818 0.68792,-0.68818 h 5.84756 c 3.99018,0 7.22365,2.88951 7.22365,7.22365 0,3.09562 -1.6854,5.57239 -4.09337,6.53521 -0.17198,0.0691 -0.44715,0.20637 -0.44715,0.44714 0,0.20638 0.0688,0.37836 0.17198,0.58473 l 4.33414,8.11795 c 0.0688,0.13758 0.13759,0.27517 0.13759,0.48128 0,0.37861 -0.30957,0.68818 -0.68792,0.68818 h -0.82576 c -0.55034,0 -0.79084,-0.27517 -0.99748,-0.68818 l -4.40294,-8.53044 c -0.10345,-0.20611 -0.27516,-0.41275 -0.65378,-0.41275 h -3.74915 c -0.20637,0 -0.34395,0.13759 -0.34395,0.34396 v 8.59923 c 0,0.37861 -0.30983,0.68818 -0.68819,0.68818 h -0.8255 c -0.37809,0 -0.68765,-0.30957 -0.68765,-0.68792 z m 11.48847,-16.16657 c 0,-3.09589 -2.23572,-5.02206 -4.95326,-5.02206 h -3.98992 c -0.20637,0 -0.34395,0.13785 -0.34395,0.34423 v 9.35593 c 0,0.20611 0.13758,0.34396 0.34395,0.34396 h 3.98992 c 2.71727,0 4.95326,-2.27013 4.95326,-5.02206 z m 12.24413,-5.15964 h -4.6437 c -0.37836,0 -0.68792,-0.30956 -0.68792,-0.68818 v -0.68792 c 0,-0.37862 0.30956,-0.68818 0.68792,-0.68818 h 12.21105 c 0.37835,0 0.68791,0.30956 0.68791,0.68818 v 0.68792 c 0,0.37862 -0.30956,0.68818 -0.68791,0.68818 h -4.64371 c -0.20637,0 -0.34422,0.13758 -0.34422,0.34396 v 19.22806 c 0,0.20638 0.13785,0.34396 0.34422,0.34396 h 4.98766 c 0.37836,0 0.68792,0.30956 0.68792,0.68818 v 0.72205 c 0,0.37862 -0.30956,0.68818 -0.68792,0.68818 h -12.89896 c -0.37836,0 -0.68818,-0.30956 -0.68818,-0.68818 v -0.72205 c 0,-0.37862 0.30982,-0.68818 0.68818,-0.68818 h 4.98766 c 0.20637,0 0.34396,-0.13758 0.34396,-0.34396 v -19.22806 c 0,-0.20638 -0.13759,-0.34396 -0.34396,-0.34396 z m 13.31066,21.32621 v -22.70204 c 0,-0.37862 0.30956,-0.68818 0.68791,-0.68818 h 6.191517 c 3.40518,0 5.81316,1.85764 6.98262,4.29974 0.89429,1.85764 0.96334,4.54025 0.96334,7.73933 0,3.19907 -0.10345,5.88168 -0.96334,7.73932 -1.13507,2.44211 -3.57744,4.29975 -6.98262,4.29975 h -6.191517 c -0.37862,0 -0.68791,-0.30957 -0.68791,-0.68792 z m 11.729237,-4.54025 c 0.65378,-1.58221 0.75671,-4.26535 0.75671,-6.81064 0,-2.54529 -0.0688,-5.22843 -0.75671,-6.81064 -0.92869,-2.09814 -2.85485,-3.02683 -4.84981,-3.02683 h -4.334137 c -0.20638,0 -0.34396,0.13785 -0.34396,0.34422 v 18.98729 c 0,0.20612 0.13758,0.34396 0.34396,0.34396 h 4.334137 c 1.99496,-5.3e-4 3.98991,-0.92948 4.84981,-3.02736 z m 14.30602,65.289635 h -94.7203 c -0.584464,0 -1.058333,-0.47387 -1.058333,-1.05833 V 27.638525 c 0,-0.58447 0.473869,-1.05833 1.058333,-1.05833 h 94.7203 c 0.58446,0 1.05833,0.47386 1.05833,1.05833 v 94.722945 c 0,0.58446 -0.47387,1.05833 -1.05833,1.05833 z M 28.698183,121.30313 H 121.30182 V 28.696855 H 28.698183 Z M 112.37557,74.999995 c 0,-0.58446 -0.47387,-1.05833 -1.05833,-1.05833 H 38.682765 c -0.584465,0 -1.058334,0.47387 -1.058334,1.05833 0,0.58447 0.473869,1.05834 1.058334,1.05834 h 72.634205 c 0.58473,0 1.0586,-0.47387 1.0586,-1.05834 z M 40.742546,110.03162 V 87.329585 c 0,-0.37836 0.309562,-0.68792 0.687916,-0.68792 h 5.847821 c 3.98992,0 7.22339,3.23347 7.22339,7.22339 0,3.98992 -3.23347,7.223385 -7.22339,7.223385 h -3.990181 c -0.206375,0 -0.343958,0.13758 -0.343958,0.34422 v 8.59896 c 0,0.37888 -0.309563,0.68845 -0.687917,0.68845 h -0.825765 c -0.378354,-2.7e-4 -0.687916,-0.30983 -0.687916,-0.68845 z M 52.231283,93.865055 c 0,-2.75167 -2.235729,-5.02179 -4.953264,-5.02179 h -3.990182 c -0.206375,0 -0.343958,0.13758 -0.343958,0.34422 v 9.35593 c 0,0.20611 0.137583,0.3437 0.343958,0.3437 h 3.990182 c 2.717535,0 4.953264,-2.27013 4.953264,-5.02206 z m 6.32778,12.554735 c -0.79111,-1.89177 -0.96335,-4.54025 -0.96335,-7.739055 0,-3.19934 0.17198,-5.84782 0.96335,-7.73959 1.13506,-2.64848 3.57743,-4.6437 6.98261,-4.6437 3.40546,0 5.84782,1.99522 6.98289,4.6437 0.7911,1.89177 0.96308,4.54025 0.96308,7.73959 0,3.198805 -0.17171,5.847285 -0.96308,7.739055 -1.13507,2.64901 -3.57743,4.64371 -6.98289,4.64371 -3.40518,0 -5.84755,-1.9947 -6.98261,-4.64371 z m 11.83269,-0.92842 c 0.61913,-1.58221 0.75671,-4.26535 0.75671,-6.810365 0,-2.54556 -0.13785,-5.2287 -0.75671,-6.81091 -0.92869,-2.30425 -2.85485,-3.37079 -4.85008,-3.37079 -1.99495,0 -3.92112,1.06654 -4.84981,3.37079 -0.61912,1.58221 -0.75671,4.26535 -0.75671,6.81091 0,2.545015 0.13785,5.228155 0.75671,6.810365 0.92869,2.30479 2.85486,3.37079 4.84981,3.37079 1.99523,0 3.92139,-1.06627 4.85008,-3.37079 z m 8.18515,4.54025 v -0.72205 c 0,-0.37888 0.30956,-0.68844 0.68792,-0.68844 h 5.15964 c 0.20637,0 0.34396,-0.13759 0.34396,-0.3437 V 89.977795 c 0,-0.20611 -0.20612,-0.24024 -0.30957,-0.13758 l -5.98487,5.60678 c -0.30983,0.27491 -0.75671,0.10346 -0.75671,-0.27543 v -0.85989 c 0,-0.58447 0.0344,-0.79111 0.30956,-1.06601 l 6.43229,-6.2947 c 0.17198,-0.17198 0.44714,-0.30956 0.68818,-0.30956 h 0.99774 c 0.37836,0 0.68792,0.30956 0.68792,0.68791 v 20.948115 c 0,0.20611 0.13758,0.3437 0.34396,0.3437 h 4.16189 c 0.37862,0 0.68818,0.30956 0.68818,0.68844 v 0.72205 c 0,0.37888 -0.30956,0.68845 -0.68818,0.68845 h -12.07346 c -0.37889,-2.7e-4 -0.68845,-0.30983 -0.68845,-0.68845 z m 18.60788,-3.8526 c -0.61912,-1.9259 -0.85989,-4.02405 -0.85989,-7.498285 0,-3.54303 0.27516,-5.57239 1.03187,-7.87691 0.89429,-2.75167 3.611557,-4.50612 6.604267,-4.50612 3.92112,0 6.5696,2.68314 6.5696,6.63893 0,0.37835 -0.30956,0.68791 -0.68792,0.68791 H 109.086 c -0.34395,0 -0.65352,-0.30956 -0.68791,-0.68791 -0.27517,-3.06123 -1.75445,-4.57491 -4.43733,-4.57491 -2.27039,0 -3.8182,1.13532 -4.609307,3.33666 -0.48154,1.34143 -0.65378,3.02657 -0.65378,4.98739 0,0.30957 0.30983,0.44688 0.55033,0.24077 1.375837,-1.16945 2.992697,-1.75445 4.815677,-1.75445 3.88673,0 6.67306,3.302 6.67306,7.911565 0,4.84981 -2.75167,7.97984 -7.01701,7.97984 -3.12976,0 -5.537727,-1.82325 -6.534947,-4.88448 z m 11.316497,-3.09536 c 0,-3.474235 -1.92617,-5.779025 -4.78103,-5.779025 -2.85511,0 -4.781277,2.30479 -4.781277,5.779025 0,3.43959 1.960557,5.84729 4.781277,5.84729 2.78607,0 4.78103,-2.44237 4.78103,-5.84729 z"
       style="stroke-width:0.264583" />
  </g>
  <g
     inkscape:groupmode="layer"
     id="layer2"
     inkscape:label="BU16"
     style="display:none">
    <path
       id="BU16"
       fill="#231f20"
       d="m 39.814123,59.058588 c -0.8255,-1.891769 -0.963347,-4.540249 -0.963347,-7.739326 0,-3.198812 0.137848,-5.847556 0.963347,-7.739327 1.169459,-2.648479 3.680354,-4.643702 7.1546,-4.643702 4.60904,0 7.498549,3.06123 7.498549,7.017015 0,0.378354 -0.30956,0.687917 -0.68818,0.687917 h -0.92868 c -0.37836,0 -0.68819,-0.309563 -0.68819,-0.687917 0,-2.751667 -1.8915,-4.815681 -5.19377,-4.815681 -2.06401,0 -4.058969,1.066271 -5.022052,3.370791 -0.653521,1.582209 -0.756444,4.265348 -0.756444,6.81064 0,2.545291 0.103188,5.228431 0.756444,6.810639 0.963348,2.304521 2.958302,3.370791 5.022052,3.370791 3.302,0 5.19377,-1.99496 5.19377,-5.537993 v -3.199077 c 0,-0.20611 -0.13758,-0.343958 -0.34395,-0.343958 h -4.09337 c -0.37836,0 -0.68792,-0.309563 -0.68792,-0.687917 v -0.8255 c 0,-0.378618 0.30956,-0.688181 0.68792,-0.688181 h 6.05393 c 0.37862,0 0.68818,0.309563 0.68818,0.688181 v 5.056188 c 0,4.815677 -2.88951,7.739327 -7.49856,7.739327 -3.473975,7.9e-4 -5.985135,-1.99416 -7.154329,-4.64291 z m 19.46751,3.61156 v -22.70204 c 0,-0.378354 0.30957,-0.687916 0.68792,-0.687916 h 5.84756 c 3.99018,0 7.223649,2.88925 7.223649,7.223389 0,3.095625 -1.685399,5.57239 -4.093369,6.535473 -0.17198,0.06879 -0.44714,0.20611 -0.44714,0.446881 0,0.206375 0.0688,0.378354 0.17197,0.584729 l 4.334139,8.117944 c 0.0688,0.13759 0.13759,0.27517 0.13759,0.48128 0,0.37862 -0.30956,0.68818 -0.68792,0.68818 h -0.82576 c -0.55034,0 -0.79084,-0.27517 -0.99748,-0.68818 l -4.40293,-8.530167 c -0.10346,-0.206375 -0.27517,-0.413015 -0.65379,-0.413015 h -3.74915 c -0.20637,0 -0.34395,0.137583 -0.34395,0.343958 v 8.599224 c 0,0.37862 -0.30983,0.68818 -0.68818,0.68818 h -0.8255 c -0.37809,2.7e-4 -0.68766,-0.3093 -0.687659,-0.68792 z m 11.48848,-16.166302 c 0,-3.09589 -2.235731,-5.021792 -4.95327,-5.021792 h -3.98992 c -0.206371,0 -0.343951,0.137584 -0.343951,0.343959 v 9.355931 c 0,0.206375 0.13758,0.343958 0.343951,0.343958 h 3.98992 c 2.717269,-2.65e-4 4.95327,-2.27039 4.95327,-5.022056 z m 12.244119,-5.15964 h -4.6437 c -0.378359,0 -0.687919,-0.309562 -0.687919,-0.688181 v -0.687917 c 0,-0.378354 0.30956,-0.687916 0.687919,-0.687916 h 12.21105 c 0.378351,0 0.68791,0.309562 0.68791,0.687916 v 0.687917 c 0,0.378619 -0.30956,0.688181 -0.68791,0.688181 h -4.64371 c -0.206369,0 -0.34422,0.137848 -0.34422,0.343959 v 19.228063 c 0,0.20638 0.13785,0.34396 0.34422,0.34396 h 4.987661 c 0.378359,0 0.687919,0.30956 0.687919,0.68818 v 0.72205 c 0,0.37862 -0.30956,0.68818 -0.687919,0.68818 h -12.89896 c -0.37836,0 -0.68818,-0.30956 -0.68818,-0.68818 v -0.72205 c 0,-0.37862 0.30982,-0.68818 0.68818,-0.68818 h 4.98766 c 0.20637,0 0.34396,-0.13758 0.34396,-0.34396 V 41.688165 c 0,-0.206375 -0.13759,-0.343959 -0.343961,-0.343959 z m 13.310661,21.325942 v -22.70204 c 0,-0.378354 0.30956,-0.687916 0.687909,-0.687916 h 6.191518 c 3.40519,0 5.81316,1.857375 6.98262,4.299479 0.89429,1.857639 0.96334,4.540514 0.96334,7.739327 0,3.199077 -0.10345,5.881952 -0.96334,7.73933 -1.13507,2.4421 -3.57743,4.29974 -6.98262,4.29974 h -6.191518 c -0.37862,2.7e-4 -0.687909,-0.3093 -0.687909,-0.68792 z m 11.729237,-4.540246 c 0.65379,-1.582208 0.75671,-4.265348 0.75671,-6.81064 0,-2.545291 -0.0688,-5.228431 -0.75671,-6.810639 -0.92869,-2.098146 -2.85485,-3.026569 -4.84981,-3.026569 h -4.334137 c -0.20638,0 -0.34396,0.137584 -0.34396,0.343959 v 18.987295 c 0,0.20611 0.13758,0.34396 0.34396,0.34396 h 4.334137 c 1.99496,-2.7e-4 3.98991,-0.92896 4.84981,-3.027366 z m 14.30602,65.289908 H 27.639851 c -0.584464,0 -1.058334,-0.47387 -1.058334,-1.05833 V 27.638525 c 0,-0.584464 0.473869,-1.058333 1.058334,-1.058333 h 94.720299 c 0.58447,0 1.05833,0.473869 1.05833,1.058333 v 94.722955 c 0,0.58446 -0.47386,1.05833 -1.05833,1.05833 z M 28.698184,121.30314 H 121.30182 V 28.696859 H 28.698184 Z M 112.37557,74.999998 c 0,-0.58446 -0.47387,-1.05833 -1.05833,-1.05833 H 38.682766 c -0.584465,0 -1.058334,0.47387 -1.058334,1.05833 0,0.58447 0.473868,1.05833 1.058334,1.05833 h 72.634204 c 0.58473,0 1.0586,-0.47386 1.0586,-1.05833 z M 40.432983,110.03163 V 87.329578 c 0,-0.37835 0.309563,-0.68791 0.687917,-0.68791 h 6.398152 c 3.50838,0 6.3635,2.68314 6.3635,6.39815 0,1.58195 -0.65379,3.50838 -1.96057,4.6437 -0.27516,0.24025 -0.27516,0.55034 0,0.75645 1.44463,1.10066 2.44211,3.302002 2.44211,5.262832 0,3.98991 -3.09589,7.01701 -6.84504,7.01701 H 41.1209 c -0.378354,0 -0.687917,-0.30956 -0.687917,-0.68818 z m 11.21357,-17.061132 c 0,-2.27012 -1.754451,-4.1275 -3.99018,-4.1275 h -4.746624 c -0.206375,0 -0.343958,0.13758 -0.343958,0.34422 v 7.53296 c 0,0.20611 0.137583,0.34369 0.343958,0.34369 h 4.746624 c 2.23573,0 3.99018,-1.82271 3.99018,-4.09337 z m 0.51594,10.835482 c 0,-2.61435 -2.06402,-4.712492 -4.6437,-4.712492 h -4.609309 c -0.206375,0 -0.343958,0.13758 -0.343958,0.34369 v 8.736812 c 0,0.20611 0.137583,0.34422 0.343958,0.34422 h 4.609569 c 2.57969,2.7e-4 4.64344,-2.09841 4.64344,-4.71223 z m 5.983819,-0.13785 V 87.329578 c 0,-0.37835 0.309821,-0.68791 0.688181,-0.68791 h 0.8255 c 0.37835,0 0.68791,0.30956 0.68791,0.68791 v 16.338552 c 0,2.75167 2.27039,5.19404 5.19404,5.19404 2.92391,0 5.19403,-2.4421 5.19403,-5.19404 V 87.329578 c 0,-0.37835 0.30957,-0.68791 0.68819,-0.68791 h 0.8255 c 0.37835,0 0.68791,0.30956 0.68791,0.68791 v 16.338552 c 0,4.09337 -3.302,7.39537 -7.39537,7.39537 -4.09336,0 -7.39589,-3.302 -7.395891,-7.39537 z m 20.43059,6.3635 v -0.72205 c 0,-0.37888 0.30956,-0.68845 0.68792,-0.68845 h 5.15964 c 0.20637,0 0.34396,-0.13758 0.34396,-0.34369 V 89.978328 c 0,-0.20664 -0.20611,-0.24077 -0.30957,-0.13785 l -5.98487,5.60679 c -0.30983,0.2749 -0.75671,0.10345 -0.75671,-0.27544 v -0.85989 c 0,-0.58447 0.0344,-0.79111 0.30956,-1.06601 l 6.43229,-6.2947 c 0.17198,-0.17198 0.44714,-0.30956 0.68818,-0.30956 h 0.99774 c 0.37836,0 0.68792,0.30956 0.68792,0.68791 v 20.948132 c 0,0.20611 0.13758,0.34369 0.34396,0.34369 h 4.16189 c 0.37862,0 0.68819,0.30956 0.68819,0.68844 v 0.72205 c 0,0.37889 -0.30957,0.68845 -0.68819,0.68845 h -12.07346 c -0.37889,-5.3e-4 -0.68845,-0.31009 -0.68845,-0.68871 z m 18.60788,-3.8526 c -0.61912,-1.9259 -0.85989,-4.02405 -0.85989,-7.498292 0,-3.54304 0.27516,-5.57239 1.03187,-7.87691 0.89429,-2.75167 3.611558,-4.50612 6.604268,-4.50612 3.92112,0 6.5696,2.68314 6.5696,6.63892 0,0.37836 -0.30956,0.68792 -0.68792,0.68792 h -0.7567 c -0.34396,0 -0.65353,-0.30956 -0.68792,-0.68792 -0.27517,-3.06122 -1.75445,-4.57491 -4.43733,-4.57491 -2.27039,0 -3.8182,1.13533 -4.609297,3.33666 -0.48155,1.34144 -0.65379,3.02657 -0.65379,4.9874 0,0.30956 0.30983,0.44741 0.55033,0.24077 1.375837,-1.16946 2.992707,-1.75445 4.815677,-1.75445 3.88673,0 6.67306,3.302 6.67306,7.911572 0,4.84981 -2.75167,7.97983 -7.01701,7.97983 -3.12976,0 -5.537727,-1.82271 -6.534948,-4.88447 z m 11.316498,-3.09536 c 0,-3.474242 -1.92617,-5.779032 -4.78102,-5.779032 -2.85512,0 -4.781288,2.30479 -4.781288,5.779032 0,3.43958 1.960558,5.84729 4.781288,5.84729 2.78606,0 4.78102,-2.44184 4.78102,-5.84729 z"
       style="stroke-width:0.264583" />
  </g>
  <g
     inkscape:groupmode="layer"
     id="layer3"
     inkscape:label="PBF4"
     style="display:none">
    <path
       id="PBF4"
       fill="#231f20"
       d="M 40.742545,110.03216 V 87.329585 c 0,-0.37836 0.309562,-0.68792 0.687916,-0.68792 h 5.847821 c 3.989918,0 7.22339,3.23347 7.22339,7.22339 0,3.98992 -3.233473,7.223395 -7.22339,7.223395 h -3.990181 c -0.206375,0 -0.343958,0.13785 -0.343958,0.34422 v 8.59949 c 0,0.37835 -0.309563,0.68792 -0.687917,0.68792 h -0.825765 c -0.378354,-2.7e-4 -0.687916,-0.30983 -0.687916,-0.68792 z M 52.231282,93.865055 c 0,-2.75167 -2.235729,-5.02179 -4.953264,-5.02179 h -3.990182 c -0.206375,0 -0.343958,0.13758 -0.343958,0.34422 v 9.35593 c 0,0.20611 0.137583,0.3437 0.343958,0.3437 h 3.990182 c 2.717535,0 4.953264,-2.27013 4.953264,-5.02206 z m 7.118879,16.167105 V 87.329585 c 0,-0.37836 0.309563,-0.68792 0.687917,-0.68792 h 6.398154 c 3.508375,0 6.363494,2.68314 6.363494,6.39815 0,1.58221 -0.653786,3.50838 -1.960563,4.64371 -0.275166,0.24077 -0.275166,0.55033 0,0.75644 1.444625,1.10067 2.442104,3.302005 2.442104,5.262835 0,3.98991 -3.095889,7.01701 -6.845034,7.01701 h -6.398154 c -0.378354,0 -0.687917,-0.30956 -0.687918,-0.68765 z M 70.563732,92.971025 c 0,-2.27065 -1.754452,-4.12803 -3.990181,-4.12803 h -4.746625 c -0.206375,0 -0.343959,0.13759 -0.343959,0.34423 v 7.53295 c 0,0.20611 0.137584,0.34422 0.343959,0.34422 h 4.746625 c 2.235729,0 3.990181,-1.82324 3.990181,-4.09337 z m 0.515937,10.834955 c 0,-2.61434 -2.064014,-4.712495 -4.643702,-4.712495 h -4.609306 c -0.206375,0 -0.343958,0.13758 -0.343958,0.34369 v 8.736815 c 0,0.20664 0.137583,0.34422 0.343958,0.34422 h 4.609306 c 2.579952,2.7e-4 4.643702,-2.09788 4.643702,-4.71223 z m 7.703873,6.22618 V 87.329585 c 0,-0.37836 0.309563,-0.68792 0.687917,-0.68792 h 11.798304 c 0.37861,0 0.68818,0.30956 0.68818,0.68792 v 0.82576 c 0,0.37836 -0.30957,0.68792 -0.68818,0.68792 h -9.940665 c -0.206375,0 -0.343958,0.13758 -0.343958,0.34422 v 7.77372 c 0,0.20611 0.137583,0.3437 0.343958,0.3437 h 9.562575 c 0.37835,0 0.68791,0.31009 0.68791,0.68844 v 0.82524 c 0,0.37835 -0.30956,0.68792 -0.68791,0.68792 h -9.562575 c -0.206375,0 -0.343958,0.13784 -0.343958,0.34422 v 10.181695 c 0,0.37836 -0.309562,0.68792 -0.688181,0.68792 h -0.8255 c -0.378354,-5.3e-4 -0.687917,-0.31009 -0.687917,-0.68818 z m 26.793818,0 v -3.78381 c 0,-0.20664 -0.13758,-0.34422 -0.34395,-0.34422 h -9.046367 c -0.37836,0 -0.68792,-0.30956 -0.68792,-0.68792 v -0.58499 c 0,-0.48154 0.30956,-1.10067 0.55033,-1.54781 l 8.736807,-15.960205 c 0.20637,-0.37835 0.34422,-0.48154 0.72231,-0.48154 h 1.41023 c 0.37862,0 0.68818,0.30956 0.68818,0.68792 v 16.200965 c 0,0.20664 0.13759,0.34423 0.34396,0.34423 h 1.92617 c 0.37835,0 0.68818,0.30956 0.68818,0.68791 v 0.65379 c 0,0.37835 -0.30983,0.68791 -0.68818,0.68791 h -1.92617 c -0.20637,0 -0.34396,0.13759 -0.34396,0.34423 v 3.7838 c 0,0.37836 -0.30956,0.68792 -0.68818,0.68792 h -0.65352 c -0.37835,-5.3e-4 -0.68792,-0.31009 -0.68792,-0.68818 z m 0,-6.50161 V 90.115905 c 0,-0.20611 -0.20611,-0.20611 -0.27516,-0.0688 l -7.326317,13.552225 c -0.10345,0.20664 -0.0688,0.27544 0.13759,0.27544 h 7.120197 c 0.20638,0 0.34369,-0.13732 0.34369,-0.34423 z m 16.78279,19.88926 H 27.639849 c -0.584464,0 -1.058333,-0.47387 -1.058333,-1.05833 V 27.638525 c 0,-0.58447 0.473869,-1.05833 1.058333,-1.05833 h 94.720301 c 0.58446,0 1.05833,0.47386 1.05833,1.05833 v 94.722955 c 0,0.58446 -0.47387,1.05833 -1.05833,1.05833 z M 28.698182,121.30314 H 121.30182 V 28.696855 H 28.698182 Z M 112.37557,74.999995 c 0,-0.58446 -0.47387,-1.05833 -1.05834,-1.05833 H 38.682764 c -0.584465,0 -1.058334,0.47387 -1.058334,1.05833 0,0.58447 0.473869,1.05834 1.058334,1.05834 h 72.634206 c 0.58473,0 1.0586,-0.47387 1.0586,-1.05834 z M 39.814122,59.058585 c -0.8255,-1.89177 -0.963348,-4.54051 -0.963348,-7.73932 0,-3.19882 0.137848,-5.84756 0.963348,-7.73933 1.169458,-2.64848 3.680354,-4.6437 7.154598,-4.6437 4.609041,0 7.498556,3.06149 7.498556,7.01701 0,0.37836 -0.309563,0.68792 -0.688181,0.68792 h -0.928688 c -0.378354,0 -0.687916,-0.30956 -0.687916,-0.68792 0,-2.75166 -1.891771,-4.81568 -5.194036,-4.81568 -2.064014,0 -4.058973,1.06627 -5.022056,3.37106 -0.653521,1.58221 -0.756444,4.26534 -0.756444,6.81064 0,2.54555 0.103188,5.22843 0.756444,6.81064 0.963349,2.30452 2.958306,3.37079 5.022056,3.37079 3.302,0 5.194036,-1.99496 5.194036,-5.538 v -3.19881 c 0,-0.20637 -0.137848,-0.34396 -0.344223,-0.34396 h -4.093369 c -0.378354,0 -0.687917,-0.30956 -0.687917,-0.68791 v -0.8255 c 0,-0.37836 0.309563,-0.68818 0.687917,-0.68818 h 6.053931 c 0.378619,0 0.688181,0.30956 0.688181,0.68818 v 5.05618 c 0,4.81569 -2.889514,7.73933 -7.498556,7.73933 -3.473979,2.7e-4 -5.985139,-1.99469 -7.154333,-4.64344 z m 19.467512,3.61183 v -22.70204 c 0,-0.37836 0.309563,-0.68792 0.687917,-0.68792 h 5.847556 c 3.990181,0 7.223654,2.88925 7.223654,7.22339 0,3.09562 -1.68566,5.57239 -4.093369,6.53547 -0.171979,0.0688 -0.447145,0.20638 -0.447145,0.44715 0,0.20637 0.06879,0.37835 0.171979,0.58473 l 4.333875,8.11794 c 0.06906,0.13759 0.137848,0.27517 0.137848,0.48155 0,0.37835 -0.309563,0.68791 -0.688182,0.68791 h -0.825235 c -0.550333,0 -0.791104,-0.27516 -0.997744,-0.68791 l -4.402931,-8.53044 c -0.103187,-0.20637 -0.275167,-0.41275 -0.653521,-0.41275 h -3.74941 c -0.206375,0 -0.343959,0.13759 -0.343959,0.34396 v 8.59923 c 0,0.37835 -0.309562,0.68791 -0.688181,0.68791 h -0.8255 c -0.378089,-2.6e-4 -0.687652,-0.30983 -0.687652,-0.68818 z m 11.488473,-16.16657 c 0,-3.09589 -2.235729,-5.02206 -4.953265,-5.02206 h -3.989916 c -0.206375,0 -0.343959,0.13759 -0.343959,0.34396 v 9.35593 c 0,0.20638 0.137584,0.34396 0.343959,0.34396 h 3.989916 c 2.717271,0 4.953265,-2.27012 4.953265,-5.02179 z m 12.244123,-5.15964 h -4.643702 c -0.378354,0 -0.687917,-0.30956 -0.687917,-0.68792 v -0.68791 c 0,-0.37836 0.309563,-0.68792 0.687917,-0.68792 h 12.211045 c 0.37836,0 0.68792,0.30956 0.68792,0.68792 v 0.68791 c 0,0.37836 -0.30956,0.68792 -0.68792,0.68792 h -4.643697 c -0.206375,0 -0.343959,0.13758 -0.343959,0.34396 v 19.22806 c 0,0.20638 0.137584,0.34396 0.343959,0.34396 h 4.987657 c 0.37836,0 0.68792,0.30956 0.68792,0.68792 v 0.72231 c 0,0.37835 -0.30956,0.68792 -0.68792,0.68792 H 78.026569 c -0.378354,0 -0.687916,-0.30957 -0.687916,-0.68792 v -0.72231 c 0,-0.37836 0.309562,-0.68792 0.687916,-0.68792 h 4.987661 c 0.206375,0 0.343958,-0.13758 0.343958,-0.34396 v -19.22806 c 0,-0.20638 -0.137583,-0.34396 -0.343958,-0.34396 z m 13.310653,21.32621 v -22.70204 c 0,-0.37836 0.30957,-0.68792 0.68792,-0.68792 h 6.191517 c 3.40518,0 5.81316,1.85738 6.98261,4.29948 0.8943,1.85764 0.96335,4.54051 0.96335,7.73933 0,3.19907 -0.10345,5.88195 -0.96335,7.73932 -1.13506,2.44211 -3.57743,4.29948 -6.98261,4.29948 h -6.191517 c -0.37862,2.7e-4 -0.68792,-0.3093 -0.68792,-0.68765 z m 11.729247,-4.54051 c 0.65378,-1.58221 0.75671,-4.26535 0.75671,-6.81064 0,-2.5453 -0.0688,-5.22843 -0.75671,-6.81064 -0.92869,-2.09815 -2.85486,-3.02684 -4.84981,-3.02684 h -4.334137 c -0.20638,0 -0.34396,0.13759 -0.34396,0.34396 v 18.9873 c 0,0.20637 0.13758,0.34395 0.34396,0.34395 h 4.334137 c 1.99495,0 3.98991,-0.92895 4.84981,-3.02709 z"
       style="stroke-width:0.264583" />
  </g>
  <g
     inkscape:groupmode="layer"
     id="layer4"
     inkscape:label="EN16"
     style="display:none">
    <path
       id="EN16"
       fill="#231f20"
       d="m 39.814121,59.058585 c -0.8255,-1.8915 -0.963347,-4.54025 -0.963347,-7.73932 0,-3.19882 0.137847,-5.84756 0.963347,-7.73933 1.169459,-2.64874 3.680355,-4.6437 7.154599,-4.6437 4.609041,0 7.498556,3.06123 7.498556,7.01701 0,0.37836 -0.309563,0.68792 -0.688181,0.68792 h -0.928688 c -0.378354,0 -0.687916,-0.30956 -0.687916,-0.68792 0,-2.75166 -1.891771,-4.81568 -5.194036,-4.81568 -2.064014,0 -4.058973,1.06627 -5.022056,3.37106 -0.653521,1.58194 -0.756444,4.26508 -0.756444,6.81037 0,2.54556 0.103187,5.22843 0.756444,6.81064 0.963348,2.30452 2.958306,3.37079 5.022056,3.37079 3.302,0 5.194036,-1.99496 5.194036,-5.53799 v -3.19881 c 0,-0.20638 -0.137848,-0.34423 -0.344223,-0.34423 h -4.093369 c -0.378354,0 -0.687917,-0.30956 -0.687917,-0.68791 v -0.8255 c 0,-0.37862 0.309563,-0.68818 0.687917,-0.68818 h 6.053931 c 0.378619,0 0.688181,0.30956 0.688181,0.68818 v 5.05618 c 0,4.81569 -2.889514,7.73933 -7.498556,7.73933 -3.473979,8e-4 -5.98514,-1.99416 -7.154334,-4.64291 z m 19.467513,3.61183 v -22.70231 c 0,-0.37835 0.309563,-0.68818 0.687917,-0.68818 h 5.847556 c 3.990181,0 7.223654,2.88952 7.223654,7.22366 0,3.09562 -1.68566,5.57238 -4.093369,6.5352 -0.171979,0.0691 -0.447145,0.20638 -0.447145,0.44715 0,0.20637 0.06879,0.37862 0.171979,0.58473 l 4.333875,8.11794 c 0.06906,0.13759 0.137848,0.27517 0.137848,0.48155 0,0.37835 -0.309563,0.68791 -0.688182,0.68791 h -0.825235 c -0.550333,0 -0.791104,-0.27516 -0.997744,-0.68791 l -4.402931,-8.5307 c -0.103187,-0.20611 -0.275167,-0.41275 -0.653521,-0.41275 h -3.74941 c -0.206375,0 -0.343959,0.13785 -0.343959,0.34396 v 8.59949 c 0,0.37835 -0.309562,0.68791 -0.688181,0.68791 h -0.8255 c -0.378089,2.7e-4 -0.687652,-0.3093 -0.687652,-0.68765 z m 11.488473,-16.16657 c 0,-3.09563 -2.235729,-5.02206 -4.953265,-5.02206 h -3.989916 c -0.206375,0 -0.343959,0.13785 -0.343959,0.34423 v 9.35593 c 0,0.20611 0.137584,0.34396 0.343959,0.34396 h 3.989916 c 2.717271,-2.7e-4 4.953265,-2.27039 4.953265,-5.02206 z m 12.244123,-5.15964 h -4.643702 c -0.378354,0 -0.687917,-0.30956 -0.687917,-0.68792 v -0.68818 c 0,-0.37835 0.309563,-0.68818 0.687917,-0.68818 h 12.21105 c 0.378354,0 0.687916,0.30983 0.687916,0.68818 v 0.68818 c 0,0.37836 -0.309562,0.68792 -0.687916,0.68792 h -4.643702 c -0.206375,0 -0.343959,0.13758 -0.343959,0.34396 v 19.22806 c 0,0.20638 0.137584,0.34396 0.343959,0.34396 h 4.98766 c 0.378354,0 0.687917,0.30983 0.687917,0.68818 v 0.72232 c 0,0.37835 -0.309563,0.68791 -0.687917,0.68791 H 78.026569 c -0.378354,0 -0.687916,-0.30956 -0.687916,-0.68791 v -0.72232 c 0,-0.37835 0.309562,-0.68818 0.687916,-0.68818 h 4.987661 c 0.206375,0 0.343958,-0.13758 0.343958,-0.34396 v -19.22806 c 0,-0.20664 -0.137583,-0.34396 -0.343958,-0.34396 z m 13.310658,21.32621 v -22.70231 c 0,-0.37835 0.309562,-0.68818 0.687917,-0.68818 h 6.191515 c 3.40519,0 5.81316,1.85764 6.98262,4.29974 0.89429,1.85764 0.96335,4.54052 0.96335,7.73933 0,3.19908 -0.10346,5.88195 -0.96335,7.73933 -1.13507,2.4421 -3.57743,4.29974 -6.98262,4.29974 h -6.191515 c -0.378619,2.7e-4 -0.687917,-0.3093 -0.687917,-0.68765 z m 11.729242,-4.54051 c 0.65379,-1.58221 0.75671,-4.26509 0.75671,-6.81064 0,-2.5453 -0.0688,-5.22843 -0.75671,-6.81038 -0.92869,-2.09841 -2.85485,-3.0271 -4.84981,-3.0271 h -4.33414 c -0.206375,0 -0.343959,0.13785 -0.343959,0.34423 v 18.98729 c 0,0.20638 0.137584,0.34396 0.343959,0.34396 h 4.33414 c 1.99496,-2.7e-4 3.98992,-0.92895 4.84981,-3.02736 z M 40.501774,110.03216 V 87.329585 c 0,-0.37836 0.309562,-0.68792 0.688181,-0.68792 h 11.7983 c 0.378354,0 0.687917,0.30956 0.687917,0.68792 v 0.82576 c 0,0.37836 -0.309563,0.68792 -0.687917,0.68792 H 43.04733 c -0.20611,0 -0.343958,0.13758 -0.343958,0.34422 v 7.80786 c 0,0.20663 0.137848,0.34422 0.343958,0.34422 h 9.562571 c 0.378619,0 0.688181,0.30956 0.688181,0.68791 v 0.79111 c 0,0.37835 -0.309562,0.68792 -0.688181,0.68792 H 43.04733 c -0.20611,0 -0.343958,0.13784 -0.343958,0.34422 v 8.324055 c 0,0.20664 0.137848,0.34423 0.343958,0.34423 h 10.009717 c 0.378354,0 0.687916,0.30956 0.687916,0.68791 v 0.82577 c 0,0.37835 -0.309562,0.68792 -0.687916,0.68792 H 41.189955 c -0.378619,-8e-4 -0.688181,-0.31036 -0.688181,-0.68845 z m 17.988491,0 V 87.329585 c 0,-0.37836 0.309563,-0.68792 0.687917,-0.68792 h 1.788848 c 0.378354,0 0.515937,0.10345 0.722048,0.58499 l 8.565091,19.572035 c 0.06879,0.13758 0.274903,0.10292 0.274903,-0.0688 V 87.329585 c 0,-0.37836 0.309827,-0.68792 0.688181,-0.68792 h 0.688181 c 0.378354,0 0.687917,0.30956 0.687917,0.68792 v 22.702565 c 0,0.37836 -0.309563,0.68793 -0.687917,0.68793 h -1.788848 c -0.378354,0 -0.515937,-0.10346 -0.722312,-0.585 L 60.829447,90.391075 c -0.06879,-0.13758 -0.275167,-0.10292 -0.275167,0.0688 v 19.572555 c 0,0.37836 -0.309563,0.68792 -0.687917,0.68792 h -0.688181 c -0.378354,-5.3e-4 -0.687917,-0.31009 -0.687917,-0.68818 z m 20.086638,0 v -0.72231 c 0,-0.37836 0.309562,-0.68845 0.688181,-0.68845 h 5.159375 c 0.206375,0 0.344223,-0.13758 0.344223,-0.34369 V 89.978595 c 0,-0.20664 -0.206375,-0.24078 -0.309827,-0.13785 l -5.984875,5.60678 c -0.309563,0.27543 -0.756709,0.10345 -0.756709,-0.2749 v -0.86042 c 0,-0.58447 0.0344,-0.79058 0.309563,-1.06601 l 6.432285,-6.2947 c 0.171979,-0.17198 0.447146,-0.30957 0.688182,-0.30957 h 0.997479 c 0.378618,0 0.688181,0.30957 0.688181,0.68792 v 20.948125 c 0,0.20611 0.137848,0.3437 0.343958,0.3437 h 4.161896 c 0.378619,0 0.688181,0.31009 0.688181,0.68844 v 0.72231 c 0,0.37836 -0.309562,0.68792 -0.688181,0.68792 H 79.265613 c -0.379148,-5.3e-4 -0.68871,-0.31009 -0.68871,-0.68818 z m 18.607881,-3.8526 c -0.619125,-1.92643 -0.859896,-4.02458 -0.859896,-7.498825 0,-3.54303 0.275167,-5.57239 1.03161,-7.87691 0.894557,-2.75167 3.611822,-4.50612 6.604262,-4.50612 3.92139,0 6.56987,2.68314 6.56987,6.63893 0,0.37835 -0.30956,0.68791 -0.68792,0.68791 h -0.7567 c -0.34396,0 -0.65352,-0.30956 -0.68792,-0.68791 -0.27517,-3.06123 -1.75445,-4.57491 -4.43733,-4.57491 -2.27012,0 -3.81794,1.13532 -4.609039,3.33666 -0.481541,1.34143 -0.653785,3.02657 -0.653785,4.98739 0,0.30957 0.309562,0.44741 0.550333,0.24077 1.375831,-1.16945 2.992701,-1.75392 4.815681,-1.75392 3.88673,0 6.67306,3.302 6.67306,7.911045 0,4.84981 -2.75167,7.97984 -7.01702,7.97984 -3.13002,0 -5.537727,-1.82272 -6.535206,-4.88395 z m 11.316496,-3.09589 c 0,-3.474245 -1.92617,-5.779035 -4.78102,-5.779035 -2.85512,0 -4.781289,2.30479 -4.781289,5.779035 0,3.43959 1.960559,5.84782 4.781289,5.84782 2.78606,-2.6e-4 4.78102,-2.44237 4.78102,-5.84782 z m 3.87429,-28.083675 c 0,-0.58446 -0.47387,-1.05833 -1.05833,-1.05833 H 38.682763 c -0.584464,0 -1.058333,0.47387 -1.058333,1.05833 0,0.58447 0.473869,1.05834 1.058333,1.05834 h 72.634207 c 0.58473,0 1.0586,-0.47387 1.0586,-1.05834 z m 9.98458,48.419815 H 27.639849 c -0.584465,0 -1.058334,-0.47387 -1.058334,-1.05833 V 27.638525 c 0,-0.58447 0.473869,-1.05833 1.058334,-1.05833 h 94.720301 c 0.58447,0 1.05833,0.47386 1.05833,1.05833 v 94.722955 c 0,0.58446 -0.47386,1.05833 -1.05833,1.05833 z M 28.698182,121.30314 H 121.30182 V 28.696855 H 28.698182 Z"
       style="stroke-width:0.264583" />
  </g>
  <g
     inkscape:groupmode="layer"
     id="layer5"
     inkscape:label="EF44"
     style="display:inline">
    <path
       id="EN16-3"
       style="display:inline;stroke-width:0.999999"
       d="m 104.46484,100.46094 c -2.20902,0 -4,1.79098 -4,4 v 358.00781 c 0,2.20898 1.79098,4 4,4 h 357.99805 c 2.20902,0 4,-1.79102 4,-4 V 104.46094 c 0,-2.20902 -1.79098,-4 -4,-4 z m 4,8 H 458.46289 V 458.46875 H 108.46484 Z m 69.04883,38.63672 c -13.1388,0 -22.63563,7.54578 -27.05859,17.5625 -3.12209,7.15479 -3.64258,17.17142 -3.64258,29.26953 0,12.09811 0.52049,22.11473 3.64258,29.26953 4.42296,10.01671 13.91979,17.5625 27.05859,17.5625 17.43169,0 28.35938,-11.05928 28.35938,-29.27149 v -19.12109 c 0,-1.43096 -1.17061,-2.60156 -2.60157,-2.60156 H 180.375 c -1.43096,0 -2.60156,1.1706 -2.60156,2.60156 v 3.12109 c 0,1.43096 1.1706,2.60157 2.60156,2.60157 h 15.48047 c 0.78052,0 1.30078,0.52026 1.30078,1.30078 v 12.09765 c 0,13.39899 -7.15421,20.94532 -19.64258,20.94532 -7.80523,0 -15.34975,-4.03221 -18.99219,-12.74805 -2.47165,-5.98401 -2.86132,-16.13136 -2.86132,-25.75781 0,-9.62645 0.38967,-19.7738 2.86132,-25.75781 3.64244,-8.71585 11.18696,-12.74805 18.99219,-12.74805 12.48837,0 19.64258,7.80591 19.64258,18.21289 0,1.43096 1.17256,2.60156 2.60352,2.60156 h 3.51171 c 1.43096,0 2.60157,-1.1706 2.60157,-2.60156 0,-14.96003 -10.92769,-26.53906 -28.35938,-26.53906 z m 49.17383,1.30078 c -1.43096,0 -2.60156,1.1706 -2.60156,2.60156 v 85.85742 c 0,1.43096 1.1706,2.60156 2.60156,2.60156 h 3.12109 c 1.43096,0 2.60157,-1.1706 2.60157,-2.60156 v -32.52148 c 0,-0.78052 0.52025,-1.30078 1.30078,-1.30078 h 14.17968 c 1.43096,0 2.0824,0.78002 2.47266,1.56054 l 16.65039,32.26172 c 0.78052,1.56105 1.69205,2.60156 3.77344,2.60156 h 3.12109 c 1.43096,0 2.60157,-1.1706 2.60157,-2.60156 0,-0.78052 -0.25937,-1.29996 -0.51954,-1.82031 l -16.39062,-30.70117 c -0.39026,-0.78052 -0.65039,-1.43042 -0.65039,-2.21094 0,-0.91061 1.03901,-1.43123 1.68945,-1.69141 9.1061,-3.64244 15.48047,-13.00895 15.48047,-24.71679 0,-16.39099 -12.22825,-27.31836 -27.31836,-27.31836 z m 69.5957,0 c -1.43096,0 -2.60156,1.1706 -2.60156,2.60156 v 2.60156 c 0,1.43096 1.1706,2.60352 2.60156,2.60352 h 17.5625 c 0.78053,0 1.30078,0.52025 1.30078,1.30078 v 72.71875 c 0,0.78052 -0.52025,1.30078 -1.30078,1.30078 h -18.86328 c -1.43096,0 -2.60156,1.1706 -2.60156,2.60156 v 2.73047 c 0,1.43096 1.1706,2.60156 2.60156,2.60156 h 48.7832 c 1.43096,0 2.60157,-1.1706 2.60157,-2.60156 v -2.73047 c 0,-1.43096 -1.17061,-2.60156 -2.60157,-2.60156 h -18.86328 c -0.78052,0 -1.30078,-0.52026 -1.30078,-1.30078 v -72.71875 c 0,-0.78053 0.52026,-1.30078 1.30078,-1.30078 h 17.5625 c 1.43096,0 2.60157,-1.17256 2.60157,-2.60352 V 151 c 0,-1.43096 -1.17061,-2.60156 -2.60157,-2.60156 z m 70.50782,0 c -1.43096,0 -2.60157,1.1706 -2.60157,2.60156 v 85.85742 c 0,1.43096 1.17061,2.60156 2.60157,2.60156 h 23.41601 c 12.87863,0 22.11339,-7.02357 26.40625,-16.25976 3.25221,-7.02471 3.64258,-17.17142 3.64258,-29.26953 0,-12.09811 -0.26017,-22.24482 -3.64258,-29.26953 -4.42295,-9.23619 -13.52762,-16.26172 -26.40625,-16.26172 z m -133.08008,8.32617 h 15.08984 c 10.27689,0 18.73438,7.28434 18.73438,18.99219 0,10.40697 -8.45749,18.99218 -18.73438,18.99218 h -15.08984 c -0.78053,0 -1.30078,-0.52026 -1.30078,-1.30078 v -35.38281 c 0,-0.78052 0.52025,-1.30078 1.30078,-1.30078 z m 140.10351,0 h 16.39258 c 7.54503,0 14.82945,3.51195 18.3418,11.44727 2.60175,5.98401 2.86133,16.13136 2.86133,25.75781 0,9.62645 -0.38967,19.7738 -2.86133,25.75781 -3.25217,7.93531 -10.79677,11.44727 -18.3418,11.44727 h -16.39258 c -0.78052,0 -1.30078,-0.52026 -1.30078,-1.30079 v -71.80859 c 0,-0.78052 0.52026,-1.30078 1.30078,-1.30078 z M 146.20312,279.46484 c -2.20896,0 -4,1.79102 -4,4 0,2.20902 1.79104,4 4,4 h 274.52149 c 2.21,0 4.00195,-1.79098 4.00195,-4 0,-2.20898 -1.79101,-4 -4,-4 z m 9.38672,47.98243 c -1.43096,0 -2.60351,1.1706 -2.60351,2.60156 v 85.85742 c 0,1.43097 1.17255,2.60156 2.60351,2.60156 h 44.87891 c 1.43096,0 2.60156,-1.17059 2.60156,-2.60156 v -3.12305 c 0,-1.43096 -1.1706,-2.60156 -2.60156,-2.60156 h -37.85547 c -0.78052,0 -1.30078,-0.52027 -1.30078,-1.30078 v -31.48047 c 0,-0.78052 0.52026,-1.30078 1.30078,-1.30078 h 36.16406 c 1.43096,0 2.60157,-1.1706 2.60157,-2.60156 v -2.99219 c 0,-1.43096 -1.17061,-2.60156 -2.60157,-2.60156 h -36.16406 c -0.78052,0 -1.30078,-0.52026 -1.30078,-1.30078 v -29.5293 c 0,-0.78052 0.52026,-1.30274 1.30078,-1.30274 h 37.5957 c 1.43096,0 2.60157,-1.1706 2.60157,-2.60156 v -3.12109 c 0,-1.43096 -1.17061,-2.60156 -2.60157,-2.60156 z m 73.23828,0 c -1.43095,0 -2.60156,1.1706 -2.60156,2.60156 v 85.85742 c 0,1.43097 1.17061,2.60156 2.60156,2.60156 h 3.1211 c 1.43096,0 2.60351,-1.17059 2.60351,-2.60156 v -38.50586 c 0,-0.78052 0.52026,-1.30078 1.30079,-1.30078 h 36.16406 c 1.43096,0 2.60156,-1.1706 2.60156,-2.60156 V 370.375 c 0,-1.43096 -1.1706,-2.60156 -2.60156,-2.60156 h -36.16406 c -0.78053,0 -1.30079,-0.52026 -1.30079,-1.30078 v -29.39844 c 0,-0.78052 0.52026,-1.30274 1.30079,-1.30274 h 37.59375 c 1.43095,0 2.60156,-1.1706 2.60156,-2.60156 v -3.12109 c 0,-1.43096 -1.17061,-2.60156 -2.60156,-2.60156 z m 98.47657,0 c -1.43096,0 -1.9519,0.38935 -2.73242,1.82031 l -33.04297,60.36133 c -0.91062,1.69115 -2.08008,4.03231 -2.08008,5.85351 v 2.21094 c 0,1.43093 1.1706,2.60156 2.60156,2.60156 h 34.21289 c 0.78052,0 1.30078,0.52027 1.30078,1.30078 v 14.31055 c 0,1.43097 1.17061,2.60156 2.60157,2.60156 h 2.4707 c 1.43096,0 2.60156,-1.17059 2.60156,-2.60156 V 401.5957 c 0,-0.78051 0.52221,-1.30078 1.30274,-1.30078 h 7.2832 c 1.43096,0 2.60156,-1.17063 2.60156,-2.60156 v -2.4707 c 0,-1.43097 -1.1706,-2.60157 -2.60156,-2.60157 h -7.2832 c -0.78053,0 -1.30274,-0.52027 -1.30274,-1.30078 v -61.27148 c 0,-1.43096 -1.1706,-2.60156 -2.60156,-2.60156 z m 71.54687,0 c -1.43093,0 -1.95191,0.38935 -2.73242,1.82031 l -33.04102,60.36133 c -0.9106,1.69115 -2.08203,4.03231 -2.08203,5.85351 v 2.21094 c 0,1.43093 1.17061,2.60156 2.60157,2.60156 h 34.21289 c 0.78054,0 1.30078,0.52027 1.30078,1.30078 v 14.31055 c 0,1.43097 1.17059,2.60156 2.60156,2.60156 h 2.47266 c 1.43096,0 2.60156,-1.17059 2.60156,-2.60156 V 401.5957 c 0,-0.78051 0.52023,-1.30078 1.30078,-1.30078 h 7.28516 c 1.43096,0 2.60156,-1.17063 2.60156,-2.60156 v -2.4707 c 0,-1.43097 -1.1706,-2.60157 -2.60156,-2.60157 h -7.28516 c -0.78055,0 -1.30078,-0.52027 -1.30078,-1.30078 v -61.27148 c 0,-1.43096 -1.1706,-2.60156 -2.60156,-2.60156 z m -71.79687,12.51562 c 0.2624,-0.009 0.50976,0.184 0.50976,0.62305 v 50.73437 c 0,0.78051 -0.52026,1.30078 -1.30078,1.30078 h -26.92773 c -0.78052,0 -0.91175,-0.26035 -0.52149,-1.04101 l 27.70899,-51.25391 c 0.11383,-0.22765 0.32716,-0.35661 0.53125,-0.36328 z m 71.54687,0 c 0.26241,-0.009 0.50977,0.184 0.50977,0.62305 v 50.73437 c 0,0.78051 -0.52024,1.30078 -1.30078,1.30078 h -26.92774 c -0.78052,0 -0.90979,-0.26035 -0.51953,-1.04101 l 27.70703,-51.25391 c 0.11377,-0.22765 0.32716,-0.35661 0.53125,-0.36328 z"
       transform="scale(0.26458333)" />
  </g>
  <g
     inkscape:groupmode="layer"
     id="g18647"
     inkscape:label="Common"
     style="display:none">
    <path
       id="path18637"
       style="display:inline;stroke-width:0.999999"
       d="m 104.46484,100.46094 c -2.20902,0 -4,1.79098 -4,4 v 358.00781 c 0,2.20898 1.79098,4 4,4 h 357.99805 c 2.20902,0 4,-1.79102 4,-4 V 104.46094 c 0,-2.20902 -1.79098,-4 -4,-4 z m 4,8 H 458.46289 V 458.46875 H 108.46484 Z m 37.73828,171.0039 c -2.20897,0 -4,1.79102 -4,4 0,2.20902 1.79103,4 4,4 h 274.52149 c 2.21,0 4.00195,-1.79098 4.00195,-4 0,-2.20898 -1.79101,-4 -4,-4 z"
       transform="scale(0.26458333)" />
    <text
       xml:space="preserve"
       style="font-style:normal;font-variant:normal;font-weight:300;font-stretch:normal;font-size:34.4189px;line-height:1.25;font-family:'GT Pressura Pro M Trial';-inkscape-font-specification:'GT Pressura Pro M Trial Light';letter-spacing:0px;word-spacing:0px;fill:#000000;fill-opacity:1;stroke:none;stroke-width:0.264583"
       x="37.157856"
       y="63.357105"
       id="text18641"><tspan
         sodipodi:role="line"
         id="tspan18639"
         style="font-style:normal;font-variant:normal;font-weight:300;font-stretch:normal;font-family:'GT Pressura Pro M Trial';-inkscape-font-specification:'GT Pressura Pro M Trial Light';stroke-width:0.264583"
         x="37.157856"
         y="63.357105">GRID</tspan></text>
    <text
       xml:space="preserve"
       style="font-style:normal;font-variant:normal;font-weight:300;font-stretch:normal;font-size:34.4189px;line-height:1.25;font-family:'GT Pressura Pro M Trial';-inkscape-font-specification:'GT Pressura Pro M Trial Light';letter-spacing:0px;word-spacing:0px;display:inline;fill:#000000;fill-opacity:1;stroke:none;stroke-width:0.264583"
       x="37.139248"
       y="110.73021"
       id="text18645"><tspan
         sodipodi:role="line"
         id="tspan18643"
         style="font-style:normal;font-variant:normal;font-weight:300;font-stretch:normal;font-family:'GT Pressura Pro M Trial';-inkscape-font-specification:'GT Pressura Pro M Trial Light';stroke-width:0.264583"
         x="37.139248"
         y="110.73021">EF44</tspan></text>
  </g>
</svg>
