G04 #@! TF.GenerationSoftware,KiCad,Pcbnew,5.1.9+dfsg1-1*
G04 #@! TF.CreationDate,2021-10-27T13:30:09+02:00*
G04 #@! TF.ProjectId,EF44,45463434-2e6b-4696-9361-645f70636258,rev?*
G04 #@! TF.SameCoordinates,Original*
G04 #@! TF.FileFunction,Profile,NP*
%FSLAX46Y46*%
G04 Gerber Fmt 4.6, Leading zero omitted, Abs format (unit mm)*
G04 Created by KiCad (PCBNEW 5.1.9+dfsg1-1) date 2021-10-27 13:30:09*
%MOMM*%
%LPD*%
G01*
G04 APERTURE LIST*
G04 #@! TA.AperFunction,Profile*
%ADD10C,0.050000*%
G04 #@! TD*
G04 APERTURE END LIST*
D10*
X5000000Y-49500000D02*
X5000000Y-48500000D01*
X4500000Y-48000000D02*
X-4500000Y-48000000D01*
X-5000000Y-48500000D02*
X-5000000Y-49500000D01*
X-5000000Y-48500000D02*
X-4500000Y-48000000D01*
X4500000Y-48000000D02*
X5000000Y-48500000D01*
X5000000Y-49500000D02*
X5500000Y-50000000D01*
X-5000000Y-49500000D02*
X-5500000Y-50000000D01*
X-50000000Y-44000000D02*
X-50000000Y44000000D01*
X-48500000Y-45500000D02*
X-50000000Y-44000000D01*
X-48500000Y-47500000D02*
X-48500000Y-45500000D01*
X-47500000Y-48500000D02*
X-48500000Y-47500000D01*
X-45500000Y-48500000D02*
X-47500000Y-48500000D01*
X-44000000Y-50000000D02*
X-45500000Y-48500000D01*
X-5500000Y-50000000D02*
X-44000000Y-50000000D01*
X44000000Y-50000000D02*
X5500000Y-50000000D01*
X45500000Y-48500000D02*
X44000000Y-50000000D01*
X47500000Y-48500000D02*
X45500000Y-48500000D01*
X48500000Y-47500000D02*
X47500000Y-48500000D01*
X48500000Y-45500000D02*
X48500000Y-47500000D01*
X50000000Y-44000000D02*
X48500000Y-45500000D01*
X50000000Y44000000D02*
X50000000Y-44000000D01*
X48500000Y45500000D02*
X50000000Y44000000D01*
X48500000Y47500000D02*
X48500000Y45500000D01*
X47500000Y48500000D02*
X48500000Y47500000D01*
X45500000Y48500000D02*
X47500000Y48500000D01*
X44000000Y50000000D02*
X45500000Y48500000D01*
X-44000000Y50000000D02*
X44000000Y50000000D01*
X-45500000Y48500000D02*
X-44000000Y50000000D01*
X-47500000Y48500000D02*
X-45500000Y48500000D01*
X-48500000Y47500000D02*
X-47500000Y48500000D01*
X-48500000Y45500000D02*
X-48500000Y47500000D01*
X-50000000Y44000000D02*
X-48500000Y45500000D01*
M02*
