M48
; DRILL file {KiCad 5.1.9+dfsg1-1} date Wed Oct 27 13:30:10 2021
; FORMAT={-:-/ absolute / metric / decimal}
; #@! TF.CreationDate,2021-10-27T13:30:10+02:00
; #@! TF.GenerationSoftware,Kicad,Pcbnew,5.1.9+dfsg1-1
FMAT,2
METRIC
T1C0.300
T2C0.500
T3C0.600
T4C0.650
T5C0.750
T6C1.000
T7C1.300
T8C2.200
T9C0.650
%
G90
G05
T1
X-48.5Y0.0
X-48.5Y-2.0
X-46.5Y2.0
X-46.5Y-45.0
X-46.5Y-43.0
X-40.905Y48.175
X-40.905Y47.075
X-40.005Y43.815
X-40.005Y36.195
X-39.105Y48.175
X-34.925Y47.927
X-34.925Y46.052
X-34.29Y1.905
X-34.29Y-1.905
X-31.115Y36.83
X-31.115Y4.445
X-31.115Y-4.445
X-29.845Y4.445
X-29.845Y-4.445
X-28.575Y-4.445
X-27.94Y6.35
X-27.5Y43.0
X-27.305Y41.91
X-26.352Y30.48
X-25.717Y29.845
X-25.4Y6.35
X-24.13Y33.957
X-24.13Y32.082
X-23.177Y29.845
X-22.543Y30.48
X-22.225Y38.735
X-22.225Y4.445
X-18.415Y47.927
X-18.415Y46.052
X-15.875Y43.815
X-14.605Y40.942
X-14.235Y47.075
X-13.335Y36.195
X-12.435Y48.175
X-12.0Y0.5
X-10.795Y43.815
X-10.5Y-2.5
X-7.25Y7.25
X-6.7Y-24.3
X-6.6Y-22.9
X-5.715Y-11.43
X-5.5Y3.0
X-5.5Y1.0
X-5.5Y-5.0
X-5.0Y-20.2
X-4.75Y9.5
X-4.445Y-15.24
X-4.3Y43.3
X-4.25Y46.473
X-4.0Y10.25
X-4.0Y9.5
X-4.0Y-20.5
X-3.75Y42.5
X-3.75Y-1.0
X-3.75Y-5.0
X-3.5Y5.0
X-3.0Y-12.7
X-3.0Y-40.5
X-2.75Y42.5
X-2.5Y34.5
X-2.25Y-18.0
X-2.0Y10.0
X-2.0Y1.0
X-2.0Y-5.0
X-1.995Y-11.43
X-1.973Y41.0
X-1.973Y40.25
X-1.905Y-12.7
X-1.75Y45.25
X-1.75Y42.25
X-1.75Y38.75
X-1.75Y36.5
X-1.7Y-45.2
X-1.5Y47.25
X-0.779Y45.25
X-0.635Y-12.7
X-0.635Y-13.97
X-0.545Y-11.43
X-0.3Y-29.8
X-0.255Y34.5
X-0.2Y-28.6
X-0.052Y47.302
X0.0Y33.5
X0.0Y32.75
X0.0Y10.5
X0.0Y9.5
X0.0Y6.0
X0.0Y5.0
X0.0Y4.0
X0.0Y-6.0
X0.5Y-20.0
X1.25Y42.25
X1.542Y47.362
X1.7Y-45.2
X1.75Y38.75
X1.8Y45.3
X2.0Y9.5
X2.0Y41.25
X2.0Y5.0
X2.0Y1.0
X2.0Y-4.0
X2.027Y10.5
X2.25Y32.0
X2.25Y-18.0
X2.75Y42.5
X3.0Y37.0
X3.05Y-10.16
X3.6Y-15.24
X3.7Y0.9
X3.75Y42.5
X3.75Y5.0
X4.0Y-44.0
X4.25Y-22.25
X4.3Y43.3
X4.495Y-23.495
X4.5Y-24.75
X4.973Y10.027
X5.0Y-10.5
X5.0Y-27.0
X5.0Y-31.25
X5.0Y-46.0
X5.5Y6.0
X5.5Y5.0
X5.5Y3.0
X5.5Y1.0
X5.5Y0.0
X5.5Y-1.0
X5.5Y-3.0
X5.5Y-5.0
X5.75Y9.5
X6.0Y16.0
X9.5Y-0.5
X12.435Y47.075
X13.335Y43.815
X13.335Y36.195
X14.235Y48.175
X18.415Y47.927
X18.415Y46.052
X22.225Y4.445
X22.225Y-4.445
X23.495Y4.445
X23.495Y-4.445
X24.13Y33.972
X24.13Y33.02
X24.13Y31.75
X24.195Y43.18
X24.195Y41.91
X24.765Y-4.445
X25.4Y6.35
X26.0Y43.0
X26.352Y33.972
X26.987Y33.02
X27.622Y31.75
X27.94Y6.35
X29.145Y38.1
X29.145Y35.56
X29.21Y33.957
X29.21Y32.082
X31.115Y4.445
X34.29Y1.905
X34.29Y-1.905
X34.925Y47.927
X34.925Y46.052
X37.465Y43.815
X38.735Y40.943
X39.105Y47.075
X40.005Y36.195
X40.905Y48.175
X40.905Y47.075
X42.545Y43.815
X45.0Y-47.5
X45.0Y-44.5
X45.5Y-1.5
X47.0Y0.0
X48.0Y-0.0
X49.0Y-1.0
T2
X-40.0Y2.0
X-40.0Y-2.0
X40.0Y2.0
X40.0Y-2.0
T4
X-2.54Y15.4
X-2.54Y14.13
X-1.27Y15.4
X-1.27Y14.13
X0.0Y15.4
X0.0Y14.13
X1.27Y15.4
X1.27Y14.13
X2.54Y15.4
X2.54Y14.13
T5
X-2.15Y-46.5
X2.15Y-46.5
T6
X-46.49Y32.17
X-46.49Y21.17
X-46.49Y-21.17
X-46.49Y-32.17
X-42.545Y47.005
X-42.545Y32.505
X-40.005Y32.505
X-37.465Y47.005
X-37.465Y32.505
X-32.17Y46.49
X-32.17Y-46.49
X-21.17Y46.49
X-21.17Y-46.49
X-15.875Y47.005
X-15.875Y32.505
X-13.335Y32.505
X-10.795Y47.005
X-10.795Y32.505
X10.795Y47.005
X10.795Y32.505
X13.335Y32.505
X15.875Y47.005
X15.875Y32.505
X21.17Y46.49
X21.17Y-46.49
X32.17Y46.49
X32.17Y-46.49
X37.465Y47.005
X37.465Y32.505
X40.005Y32.505
X42.545Y47.005
X42.545Y32.505
X46.49Y32.17
X46.49Y21.17
X46.49Y-21.17
X46.49Y-32.17
T7
X-41.755Y26.9
X-38.255Y26.9
X-38.255Y-46.9
X-15.085Y26.9
X-11.585Y26.9
X-11.585Y-46.9
X11.585Y26.9
X15.085Y26.9
X15.085Y-46.9
X38.255Y26.9
X41.755Y26.9
X41.755Y-46.9
T8
X-46.505Y40.005
X-33.505Y40.005
X-19.835Y40.005
X-6.835Y40.005
X6.835Y40.005
X19.835Y40.005
X33.505Y40.005
X46.505Y40.005
T9
X-2.89Y45.35
X2.89Y45.35
T2
G00X-47.39Y30.17
M15
G01X-46.59Y30.17
M16
G05
G00X-47.39Y29.17
M15
G01X-46.59Y29.17
M16
G05
G00X-47.39Y28.17
M15
G01X-46.59Y28.17
M16
G05
G00X-47.39Y27.17
M15
G01X-46.59Y27.17
M16
G05
G00X-47.39Y26.17
M15
G01X-46.59Y26.17
M16
G05
G00X-47.39Y25.17
M15
G01X-46.59Y25.17
M16
G05
G00X-47.39Y24.17
M15
G01X-46.59Y24.17
M16
G05
G00X-47.39Y23.17
M15
G01X-46.59Y23.17
M16
G05
G00X-47.39Y-23.17
M15
G01X-46.59Y-23.17
M16
G05
G00X-47.39Y-24.17
M15
G01X-46.59Y-24.17
M16
G05
G00X-47.39Y-25.17
M15
G01X-46.59Y-25.17
M16
G05
G00X-47.39Y-26.17
M15
G01X-46.59Y-26.17
M16
G05
G00X-47.39Y-27.17
M15
G01X-46.59Y-27.17
M16
G05
G00X-47.39Y-28.17
M15
G01X-46.59Y-28.17
M16
G05
G00X-47.39Y-29.17
M15
G01X-46.59Y-29.17
M16
G05
G00X-47.39Y-30.17
M15
G01X-46.59Y-30.17
M16
G05
G00X-30.17Y47.39
M15
G01X-30.17Y46.59
M16
G05
G00X-30.17Y-47.39
M15
G01X-30.17Y-46.59
M16
G05
G00X-29.17Y47.39
M15
G01X-29.17Y46.59
M16
G05
G00X-29.17Y-47.39
M15
G01X-29.17Y-46.59
M16
G05
G00X-28.17Y47.39
M15
G01X-28.17Y46.59
M16
G05
G00X-28.17Y-47.39
M15
G01X-28.17Y-46.59
M16
G05
G00X-27.17Y47.39
M15
G01X-27.17Y46.59
M16
G05
G00X-27.17Y-47.39
M15
G01X-27.17Y-46.59
M16
G05
G00X-26.17Y47.39
M15
G01X-26.17Y46.59
M16
G05
G00X-26.17Y-47.39
M15
G01X-26.17Y-46.59
M16
G05
G00X-25.17Y47.39
M15
G01X-25.17Y46.59
M16
G05
G00X-25.17Y-47.39
M15
G01X-25.17Y-46.59
M16
G05
G00X-24.17Y47.39
M15
G01X-24.17Y46.59
M16
G05
G00X-24.17Y-47.39
M15
G01X-24.17Y-46.59
M16
G05
G00X-23.17Y47.39
M15
G01X-23.17Y46.59
M16
G05
G00X-23.17Y-47.39
M15
G01X-23.17Y-46.59
M16
G05
G00X-4.32Y48.8
M15
G01X-4.32Y49.2
M16
G05
G00X-4.32Y44.47
M15
G01X-4.32Y45.17
M16
G05
G00X4.32Y48.8
M15
G01X4.32Y49.2
M16
G05
G00X4.32Y44.47
M15
G01X4.32Y45.17
M16
G05
G00X23.17Y47.39
M15
G01X23.17Y46.59
M16
G05
G00X23.17Y-47.39
M15
G01X23.17Y-46.59
M16
G05
G00X24.17Y47.39
M15
G01X24.17Y46.59
M16
G05
G00X24.17Y-47.39
M15
G01X24.17Y-46.59
M16
G05
G00X25.17Y47.39
M15
G01X25.17Y46.59
M16
G05
G00X25.17Y-47.39
M15
G01X25.17Y-46.59
M16
G05
G00X26.17Y47.39
M15
G01X26.17Y46.59
M16
G05
G00X26.17Y-47.39
M15
G01X26.17Y-46.59
M16
G05
G00X27.17Y47.39
M15
G01X27.17Y46.59
M16
G05
G00X27.17Y-47.39
M15
G01X27.17Y-46.59
M16
G05
G00X28.17Y47.39
M15
G01X28.17Y46.59
M16
G05
G00X28.17Y-47.39
M15
G01X28.17Y-46.59
M16
G05
G00X29.17Y47.39
M15
G01X29.17Y46.59
M16
G05
G00X29.17Y-47.39
M15
G01X29.17Y-46.59
M16
G05
G00X30.17Y47.39
M15
G01X30.17Y46.59
M16
G05
G00X30.17Y-47.39
M15
G01X30.17Y-46.59
M16
G05
G00X47.39Y30.17
M15
G01X46.59Y30.17
M16
G05
G00X47.39Y29.17
M15
G01X46.59Y29.17
M16
G05
G00X47.39Y28.17
M15
G01X46.59Y28.17
M16
G05
G00X47.39Y27.17
M15
G01X46.59Y27.17
M16
G05
G00X47.39Y26.17
M15
G01X46.59Y26.17
M16
G05
G00X47.39Y25.17
M15
G01X46.59Y25.17
M16
G05
G00X47.39Y24.17
M15
G01X46.59Y24.17
M16
G05
G00X47.39Y23.17
M15
G01X46.59Y23.17
M16
G05
G00X47.39Y-23.17
M15
G01X46.59Y-23.17
M16
G05
G00X47.39Y-24.17
M15
G01X46.59Y-24.17
M16
G05
G00X47.39Y-25.17
M15
G01X46.59Y-25.17
M16
G05
G00X47.39Y-26.17
M15
G01X46.59Y-26.17
M16
G05
G00X47.39Y-27.17
M15
G01X46.59Y-27.17
M16
G05
G00X47.39Y-28.17
M15
G01X46.59Y-28.17
M16
G05
G00X47.39Y-29.17
M15
G01X46.59Y-29.17
M16
G05
G00X47.39Y-30.17
M15
G01X46.59Y-30.17
M16
G05
T3
G00X-44.255Y23.05
M15
G01X-44.255Y22.15
M16
G05
G00X-44.255Y-42.15
M15
G01X-44.255Y-43.05
M16
G05
G00X-35.755Y21.85
M15
G01X-35.755Y20.95
M16
G05
G00X-35.755Y-40.95
M15
G01X-35.755Y-41.85
M16
G05
G00X-17.585Y23.05
M15
G01X-17.585Y22.15
M16
G05
G00X-17.585Y-42.15
M15
G01X-17.585Y-43.05
M16
G05
G00X-9.085Y21.85
M15
G01X-9.085Y20.95
M16
G05
G00X-9.085Y-40.95
M15
G01X-9.085Y-41.85
M16
G05
G00X9.085Y23.05
M15
G01X9.085Y22.15
M16
G05
G00X9.085Y-42.15
M15
G01X9.085Y-43.05
M16
G05
G00X17.585Y21.85
M15
G01X17.585Y20.95
M16
G05
G00X17.585Y-40.95
M15
G01X17.585Y-41.85
M16
G05
G00X35.755Y23.05
M15
G01X35.755Y22.15
M16
G05
G00X35.755Y-42.15
M15
G01X35.755Y-43.05
M16
G05
G00X44.255Y21.85
M15
G01X44.255Y20.95
M16
G05
G00X44.255Y-40.95
M15
G01X44.255Y-41.85
M16
G05
T0
M30
