G04 #@! TF.GenerationSoftware,KiCad,Pcbnew,5.1.9+dfsg1-1*
G04 #@! TF.CreationDate,2021-10-27T13:30:09+02:00*
G04 #@! TF.ProjectId,EF44,45463434-2e6b-4696-9361-645f70636258,rev?*
G04 #@! TF.SameCoordinates,Original*
G04 #@! TF.FileFunction,Legend,Bot*
G04 #@! TF.FilePolarity,Positive*
%FSLAX46Y46*%
G04 Gerber Fmt 4.6, Leading zero omitted, Abs format (unit mm)*
G04 Created by KiCad (PCBNEW 5.1.9+dfsg1-1) date 2021-10-27 13:30:09*
%MOMM*%
%LPD*%
G01*
G04 APERTURE LIST*
%ADD10C,0.120000*%
%ADD11C,0.150000*%
%ADD12C,0.500000*%
%ADD13C,0.250000*%
G04 APERTURE END LIST*
D10*
X-3500000Y13000000D02*
X-3500000Y16500000D01*
X3500000Y13000000D02*
X-3500000Y13000000D01*
X3500000Y16500000D02*
X3500000Y13000000D01*
X-3500000Y16500000D02*
X3500000Y16500000D01*
X-3750000Y11000000D02*
X3750000Y11000000D01*
X-7250000Y9000000D02*
X-3750000Y11000000D01*
X36195000Y34290000D02*
X36195000Y45720000D01*
X43815000Y45720000D02*
X43815000Y34290000D01*
X36195000Y45720000D02*
X43815000Y45720000D01*
X43815000Y34290000D02*
X36195000Y34290000D01*
X9525000Y34290000D02*
X9525000Y45720000D01*
X17145000Y45720000D02*
X17145000Y34290000D01*
X9525000Y45720000D02*
X17145000Y45720000D01*
X17145000Y34290000D02*
X9525000Y34290000D01*
X-17145000Y34290000D02*
X-17145000Y45720000D01*
X-9525000Y45720000D02*
X-9525000Y34290000D01*
X-17145000Y45720000D02*
X-9525000Y45720000D01*
X-9525000Y34290000D02*
X-17145000Y34290000D01*
X-43815000Y34290000D02*
X-43815000Y45720000D01*
X-36195000Y45720000D02*
X-36195000Y34290000D01*
X-43815000Y45720000D02*
X-36195000Y45720000D01*
X-36195000Y34290000D02*
X-43815000Y34290000D01*
D11*
X2238095Y17547620D02*
X2238095Y18547620D01*
X2000000Y18547620D01*
X1857142Y18500000D01*
X1761904Y18404762D01*
X1714285Y18309524D01*
X1666666Y18119048D01*
X1666666Y17976191D01*
X1714285Y17785715D01*
X1761904Y17690477D01*
X1857142Y17595239D01*
X2000000Y17547620D01*
X2238095Y17547620D01*
X1238095Y18071429D02*
X904761Y18071429D01*
X761904Y17547620D02*
X1238095Y17547620D01*
X1238095Y18547620D01*
X761904Y18547620D01*
X0Y18071429D02*
X-142858Y18023810D01*
X-190477Y17976191D01*
X-238096Y17880953D01*
X-238096Y17738096D01*
X-190477Y17642858D01*
X-142858Y17595239D01*
X-47620Y17547620D01*
X333333Y17547620D01*
X333333Y18547620D01*
X0Y18547620D01*
X-95239Y18500000D01*
X-142858Y18452381D01*
X-190477Y18357143D01*
X-190477Y18261905D01*
X-142858Y18166667D01*
X-95239Y18119048D01*
X0Y18071429D01*
X333333Y18071429D01*
X-666667Y18547620D02*
X-666667Y17738096D01*
X-714286Y17642858D01*
X-761905Y17595239D01*
X-857143Y17547620D01*
X-1047620Y17547620D01*
X-1142858Y17595239D01*
X-1190477Y17642858D01*
X-1238096Y17738096D01*
X-1238096Y18547620D01*
X-2238096Y18500000D02*
X-2142858Y18547620D01*
X-2000000Y18547620D01*
X-1857143Y18500000D01*
X-1761905Y18404762D01*
X-1714286Y18309524D01*
X-1666667Y18119048D01*
X-1666667Y17976191D01*
X-1714286Y17785715D01*
X-1761905Y17690477D01*
X-1857143Y17595239D01*
X-2000000Y17547620D01*
X-2095239Y17547620D01*
X-2238096Y17595239D01*
X-2285715Y17642858D01*
X-2285715Y17976191D01*
X-2095239Y17976191D01*
X1690476Y-9580571D02*
X2023809Y-9580571D01*
X2023809Y-10104380D02*
X2023809Y-9104380D01*
X1547619Y-9104380D01*
X690476Y-10104380D02*
X1166666Y-10104380D01*
X1166666Y-9104380D01*
X404761Y-9818666D02*
X-71429Y-9818666D01*
X500000Y-10104380D02*
X166666Y-9104380D01*
X-166667Y-10104380D01*
X-452381Y-10056761D02*
X-595239Y-10104380D01*
X-833334Y-10104380D01*
X-928572Y-10056761D01*
X-976191Y-10009142D01*
X-1023810Y-9913904D01*
X-1023810Y-9818666D01*
X-976191Y-9723428D01*
X-928572Y-9675809D01*
X-833334Y-9628190D01*
X-642858Y-9580571D01*
X-547620Y-9532952D01*
X-500000Y-9485333D01*
X-452381Y-9390095D01*
X-452381Y-9294857D01*
X-500000Y-9199619D01*
X-547620Y-9152000D01*
X-642858Y-9104380D01*
X-880953Y-9104380D01*
X-1023810Y-9152000D01*
X-1452381Y-10104380D02*
X-1452381Y-9104380D01*
X-1452381Y-9580571D02*
X-2023810Y-9580571D01*
X-2023810Y-10104380D02*
X-2023810Y-9104380D01*
X3047714Y-32456380D02*
X3047714Y-31456380D01*
X3047714Y-31932571D02*
X2476285Y-31932571D01*
X2476285Y-32456380D02*
X2476285Y-31456380D01*
X2095333Y-31456380D02*
X1857238Y-32456380D01*
X1666761Y-31742095D01*
X1476285Y-32456380D01*
X1238190Y-31456380D01*
X285809Y-32361142D02*
X333428Y-32408761D01*
X476285Y-32456380D01*
X571523Y-32456380D01*
X714380Y-32408761D01*
X809619Y-32313523D01*
X857238Y-32218285D01*
X904857Y-32027809D01*
X904857Y-31884952D01*
X857238Y-31694476D01*
X809619Y-31599238D01*
X714380Y-31504000D01*
X571523Y-31456380D01*
X476285Y-31456380D01*
X333428Y-31504000D01*
X285809Y-31551619D01*
X-476096Y-31932571D02*
X-142762Y-31932571D01*
X-142762Y-32456380D02*
X-142762Y-31456380D01*
X-618953Y-31456380D01*
X-1523715Y-31504000D02*
X-1428477Y-31456380D01*
X-1285620Y-31456380D01*
X-1142762Y-31504000D01*
X-1047524Y-31599238D01*
X-999905Y-31694476D01*
X-952286Y-31884952D01*
X-952286Y-32027809D01*
X-999905Y-32218285D01*
X-1047524Y-32313523D01*
X-1142762Y-32408761D01*
X-1285620Y-32456380D01*
X-1380858Y-32456380D01*
X-1523715Y-32408761D01*
X-1571334Y-32361142D01*
X-1571334Y-32027809D01*
X-1380858Y-32027809D01*
X1357142Y11297620D02*
X1357142Y12297620D01*
X1023809Y11583334D01*
X690476Y12297620D01*
X690476Y11297620D01*
X-357143Y11392858D02*
X-309524Y11345239D01*
X-166667Y11297620D01*
X-71429Y11297620D01*
X71428Y11345239D01*
X166666Y11440477D01*
X214285Y11535715D01*
X261904Y11726191D01*
X261904Y11869048D01*
X214285Y12059524D01*
X166666Y12154762D01*
X71428Y12250000D01*
X-71429Y12297620D01*
X-166667Y12297620D01*
X-309524Y12250000D01*
X-357143Y12202381D01*
X-785715Y12297620D02*
X-785715Y11488096D01*
X-833334Y11392858D01*
X-880953Y11345239D01*
X-976191Y11297620D01*
X-1166667Y11297620D01*
X-1261905Y11345239D01*
X-1309524Y11392858D01*
X-1357143Y11488096D01*
X-1357143Y12297620D01*
D10*
X-7250000Y-7000000D02*
X-7250000Y9000000D01*
X7250000Y-7000000D02*
X-7250000Y-7000000D01*
X7250000Y7000000D02*
X7250000Y-7000000D01*
X3750000Y11000000D02*
X7250000Y7000000D01*
X36755000Y40263578D02*
X36755000Y39746422D01*
X38175000Y40263578D02*
X38175000Y39746422D01*
X37795200Y40208200D02*
X37058600Y40208200D01*
X37058600Y40208200D02*
X37058600Y39928800D01*
X37465000Y40208200D02*
X37465000Y39979600D01*
X37795200Y39776400D02*
X37465000Y40005000D01*
X37058600Y39979600D02*
G75*
G03*
X37465000Y39979600I203200J0D01*
G01*
X-27230000Y6091422D02*
X-27230000Y6608578D01*
X-28650000Y6091422D02*
X-28650000Y6608578D01*
X-27609800Y6578600D02*
X-27533600Y6451600D01*
X-27533600Y6451600D02*
X-27533600Y6299200D01*
X-27533600Y6299200D02*
X-27635200Y6172200D01*
X-27635200Y6172200D02*
X-27787600Y6121400D01*
X-27787600Y6121400D02*
X-27914600Y6096000D01*
X-28244800Y6578600D02*
X-28321000Y6451600D01*
X-28321000Y6451600D02*
X-28321000Y6299200D01*
X-28321000Y6299200D02*
X-28219400Y6172200D01*
X-28219400Y6172200D02*
X-28067000Y6121400D01*
X-28067000Y6121400D02*
X-27940000Y6096000D01*
D12*
X33420000Y-3000000D02*
G75*
G03*
X33420000Y-3000000I-250000J0D01*
G01*
D10*
X31730000Y0D02*
X31730000Y-3450000D01*
X31730000Y0D02*
X31730000Y1950000D01*
X21610000Y0D02*
X21610000Y-1950000D01*
X21610000Y0D02*
X21610000Y1950000D01*
X31670000Y500000D02*
G75*
G03*
X31670000Y-500000I0J-500000D01*
G01*
D12*
X-19920000Y-3000000D02*
G75*
G03*
X-19920000Y-3000000I-250000J0D01*
G01*
D10*
X-21610000Y0D02*
X-21610000Y-3450000D01*
X-21610000Y0D02*
X-21610000Y1950000D01*
X-31730000Y0D02*
X-31730000Y-1950000D01*
X-31730000Y0D02*
X-31730000Y1950000D01*
X-21670000Y500000D02*
G75*
G03*
X-21670000Y-500000I0J-500000D01*
G01*
X28650000Y9901422D02*
X28650000Y10418578D01*
X27230000Y9901422D02*
X27230000Y10418578D01*
X27609800Y9956800D02*
X28346400Y9956800D01*
X28346400Y9956800D02*
X28346400Y10236200D01*
X27940000Y9956800D02*
X27940000Y10185400D01*
X27609800Y10388600D02*
X27940000Y10160000D01*
X28346400Y10185400D02*
G75*
G03*
X27940000Y10185400I-203200J0D01*
G01*
X-24690000Y9901422D02*
X-24690000Y10418578D01*
X-26110000Y9901422D02*
X-26110000Y10418578D01*
X-25730200Y9956800D02*
X-24993600Y9956800D01*
X-24993600Y9956800D02*
X-24993600Y10236200D01*
X-25400000Y9956800D02*
X-25400000Y10185400D01*
X-25730200Y10388600D02*
X-25400000Y10160000D01*
X-24993600Y10185400D02*
G75*
G03*
X-25400000Y10185400I-203200J0D01*
G01*
X26110000Y9901422D02*
X26110000Y10418578D01*
X24690000Y9901422D02*
X24690000Y10418578D01*
X25069800Y9956800D02*
X25806400Y9956800D01*
X25806400Y9956800D02*
X25806400Y10236200D01*
X25400000Y9956800D02*
X25400000Y10185400D01*
X25069800Y10388600D02*
X25400000Y10160000D01*
X25806400Y10185400D02*
G75*
G03*
X25400000Y10185400I-203200J0D01*
G01*
X-27230000Y9901422D02*
X-27230000Y10418578D01*
X-28650000Y9901422D02*
X-28650000Y10418578D01*
X-28270200Y9956800D02*
X-27533600Y9956800D01*
X-27533600Y9956800D02*
X-27533600Y10236200D01*
X-27940000Y9956800D02*
X-27940000Y10185400D01*
X-28270200Y10388600D02*
X-27940000Y10160000D01*
X-27533600Y10185400D02*
G75*
G03*
X-27940000Y10185400I-203200J0D01*
G01*
X33580000Y258578D02*
X33580000Y-258578D01*
X35000000Y258578D02*
X35000000Y-258578D01*
X33959800Y-228600D02*
X33883600Y-101600D01*
X33883600Y-101600D02*
X33883600Y50800D01*
X33883600Y50800D02*
X33985200Y177800D01*
X33985200Y177800D02*
X34137600Y228600D01*
X34137600Y228600D02*
X34264600Y254000D01*
X34594800Y-228600D02*
X34671000Y-101600D01*
X34671000Y-101600D02*
X34671000Y50800D01*
X34671000Y50800D02*
X34569400Y177800D01*
X34569400Y177800D02*
X34417000Y228600D01*
X34417000Y228600D02*
X34290000Y254000D01*
X-35000000Y258578D02*
X-35000000Y-258578D01*
X-33580000Y258578D02*
X-33580000Y-258578D01*
X-34620200Y-228600D02*
X-34696400Y-101600D01*
X-34696400Y-101600D02*
X-34696400Y50800D01*
X-34696400Y50800D02*
X-34594800Y177800D01*
X-34594800Y177800D02*
X-34442400Y228600D01*
X-34442400Y228600D02*
X-34315400Y254000D01*
X-33985200Y-228600D02*
X-33909000Y-101600D01*
X-33909000Y-101600D02*
X-33909000Y50800D01*
X-33909000Y50800D02*
X-34010600Y177800D01*
X-34010600Y177800D02*
X-34163000Y228600D01*
X-34163000Y228600D02*
X-34290000Y254000D01*
X28650000Y6091422D02*
X28650000Y6608578D01*
X27230000Y6091422D02*
X27230000Y6608578D01*
X28270200Y6578600D02*
X28346400Y6451600D01*
X28346400Y6451600D02*
X28346400Y6299200D01*
X28346400Y6299200D02*
X28244800Y6172200D01*
X28244800Y6172200D02*
X28092400Y6121400D01*
X28092400Y6121400D02*
X27965400Y6096000D01*
X27635200Y6578600D02*
X27559000Y6451600D01*
X27559000Y6451600D02*
X27559000Y6299200D01*
X27559000Y6299200D02*
X27660600Y6172200D01*
X27660600Y6172200D02*
X27813000Y6121400D01*
X27813000Y6121400D02*
X27940000Y6096000D01*
X-24690000Y6091422D02*
X-24690000Y6608578D01*
X-26110000Y6091422D02*
X-26110000Y6608578D01*
X-25069800Y6578600D02*
X-24993600Y6451600D01*
X-24993600Y6451600D02*
X-24993600Y6299200D01*
X-24993600Y6299200D02*
X-25095200Y6172200D01*
X-25095200Y6172200D02*
X-25247600Y6121400D01*
X-25247600Y6121400D02*
X-25374600Y6096000D01*
X-25704800Y6578600D02*
X-25781000Y6451600D01*
X-25781000Y6451600D02*
X-25781000Y6299200D01*
X-25781000Y6299200D02*
X-25679400Y6172200D01*
X-25679400Y6172200D02*
X-25527000Y6121400D01*
X-25527000Y6121400D02*
X-25400000Y6096000D01*
X26110000Y6091422D02*
X26110000Y6608578D01*
X24690000Y6091422D02*
X24690000Y6608578D01*
X25730200Y6578600D02*
X25806400Y6451600D01*
X25806400Y6451600D02*
X25806400Y6299200D01*
X25806400Y6299200D02*
X25704800Y6172200D01*
X25704800Y6172200D02*
X25552400Y6121400D01*
X25552400Y6121400D02*
X25425400Y6096000D01*
X25095200Y6578600D02*
X25019000Y6451600D01*
X25019000Y6451600D02*
X25019000Y6299200D01*
X25019000Y6299200D02*
X25120600Y6172200D01*
X25120600Y6172200D02*
X25273000Y6121400D01*
X25273000Y6121400D02*
X25400000Y6096000D01*
X-1800000Y39500000D02*
G75*
G03*
X-1800000Y39500000I-700000J0D01*
G01*
X3200000Y39500000D02*
G75*
G03*
X3200000Y39500000I-700000J0D01*
G01*
X5241422Y3290000D02*
X5758578Y3290000D01*
X5241422Y4710000D02*
X5758578Y4710000D01*
X5728600Y3669800D02*
X5601600Y3593600D01*
X5601600Y3593600D02*
X5449200Y3593600D01*
X5449200Y3593600D02*
X5322200Y3695200D01*
X5322200Y3695200D02*
X5271400Y3847600D01*
X5271400Y3847600D02*
X5246000Y3974600D01*
X5728600Y4304800D02*
X5601600Y4381000D01*
X5601600Y4381000D02*
X5449200Y4381000D01*
X5449200Y4381000D02*
X5322200Y4279400D01*
X5322200Y4279400D02*
X5271400Y4127000D01*
X5271400Y4127000D02*
X5246000Y4000000D01*
X5758578Y-1290000D02*
X5241422Y-1290000D01*
X5758578Y-2710000D02*
X5241422Y-2710000D01*
X5271400Y-1669800D02*
X5398400Y-1593600D01*
X5398400Y-1593600D02*
X5550800Y-1593600D01*
X5550800Y-1593600D02*
X5677800Y-1695200D01*
X5677800Y-1695200D02*
X5728600Y-1847600D01*
X5728600Y-1847600D02*
X5754000Y-1974600D01*
X5271400Y-2304800D02*
X5398400Y-2381000D01*
X5398400Y-2381000D02*
X5550800Y-2381000D01*
X5550800Y-2381000D02*
X5677800Y-2279400D01*
X5677800Y-2279400D02*
X5728600Y-2127000D01*
X5728600Y-2127000D02*
X5754000Y-2000000D01*
X-1800000Y33500000D02*
G75*
G03*
X-1800000Y33500000I-700000J0D01*
G01*
X-1800000Y35500000D02*
G75*
G03*
X-1800000Y35500000I-700000J0D01*
G01*
X-1800000Y37500000D02*
G75*
G03*
X-1800000Y37500000I-700000J0D01*
G01*
D12*
X-2750000Y-31900000D02*
G75*
G03*
X-2750000Y-31900000I-250000J0D01*
G01*
D10*
X0Y-30460000D02*
X-3450000Y-30460000D01*
X0Y-30460000D02*
X1950000Y-30460000D01*
X0Y-20340000D02*
X-1950000Y-20340000D01*
X0Y-20340000D02*
X1950000Y-20340000D01*
X500000Y-30400000D02*
G75*
G03*
X-500000Y-30400000I-500000J0D01*
G01*
X-5710000Y-22741422D02*
X-5710000Y-23258578D01*
X-4290000Y-22741422D02*
X-4290000Y-23258578D01*
X-4669800Y-22796800D02*
X-5406400Y-22796800D01*
X-5406400Y-22796800D02*
X-5406400Y-23076200D01*
X-5000000Y-22796800D02*
X-5000000Y-23025400D01*
X-4669800Y-23228600D02*
X-5000000Y-23000000D01*
X-5406400Y-23025400D02*
G75*
G03*
X-5000000Y-23025400I203200J0D01*
G01*
X-1300000Y3400000D02*
G75*
G03*
X-1300000Y3400000I-700000J0D01*
G01*
X2700000Y-2600000D02*
G75*
G03*
X2700000Y-2600000I-700000J0D01*
G01*
X-1300000Y-2600000D02*
G75*
G03*
X-1300000Y-2600000I-700000J0D01*
G01*
X2950000Y48000000D02*
G75*
G03*
X2950000Y48000000I-700000J0D01*
G01*
X-1550000Y48000000D02*
G75*
G03*
X-1550000Y48000000I-700000J0D01*
G01*
X1450000Y48000000D02*
G75*
G03*
X1450000Y48000000I-700000J0D01*
G01*
X-50000Y48000000D02*
G75*
G03*
X-50000Y48000000I-700000J0D01*
G01*
X2290000Y37258578D02*
X2290000Y36741422D01*
X3710000Y37258578D02*
X3710000Y36741422D01*
X2669800Y36771400D02*
X2593600Y36898400D01*
X2593600Y36898400D02*
X2593600Y37050800D01*
X2593600Y37050800D02*
X2695200Y37177800D01*
X2695200Y37177800D02*
X2847600Y37228600D01*
X2847600Y37228600D02*
X2974600Y37254000D01*
X3304800Y36771400D02*
X3381000Y36898400D01*
X3381000Y36898400D02*
X3381000Y37050800D01*
X3381000Y37050800D02*
X3279400Y37177800D01*
X3279400Y37177800D02*
X3127000Y37228600D01*
X3127000Y37228600D02*
X3000000Y37254000D01*
X258578Y36210000D02*
X-258578Y36210000D01*
X258578Y34790000D02*
X-258578Y34790000D01*
X203200Y35169800D02*
X203200Y35906400D01*
X203200Y35906400D02*
X-76200Y35906400D01*
X203200Y35500000D02*
X-25400Y35500000D01*
X-228600Y35169800D02*
X0Y35500000D01*
X-25400Y35906400D02*
G75*
G03*
X-25400Y35500000I0J-203200D01*
G01*
X-390000Y5900000D02*
X-390000Y4100000D01*
X-3610000Y4100000D02*
X-3610000Y6550000D01*
D13*
X-3653000Y7032000D02*
G75*
G03*
X-3653000Y7032000I-125000J0D01*
G01*
D10*
X-1135000Y41860000D02*
X-1360000Y41860000D01*
X-1360000Y41860000D02*
X-1360000Y41385000D01*
X1135000Y39140000D02*
X1360000Y39140000D01*
X1360000Y39140000D02*
X1360000Y39615000D01*
X-1135000Y39140000D02*
X-1360000Y39140000D01*
X-1360000Y39140000D02*
X-1360000Y39615000D01*
X1135000Y41860000D02*
X1360000Y41860000D01*
X3610000Y-100000D02*
X3610000Y-1900000D01*
X390000Y-1900000D02*
X390000Y550000D01*
D13*
X347000Y1032000D02*
G75*
G03*
X347000Y1032000I-125000J0D01*
G01*
D10*
X-390000Y-100000D02*
X-390000Y-1900000D01*
X-3610000Y-1900000D02*
X-3610000Y550000D01*
D13*
X-3653000Y1032000D02*
G75*
G03*
X-3653000Y1032000I-125000J0D01*
G01*
D10*
X1610000Y46150000D02*
X1610000Y44350000D01*
X-1610000Y44350000D02*
X-1610000Y46800000D01*
D13*
X-1653000Y47028000D02*
G75*
G03*
X-1653000Y47028000I-125000J0D01*
G01*
D10*
X-5241422Y6710000D02*
X-5758578Y6710000D01*
X-5241422Y5290000D02*
X-5758578Y5290000D01*
X-5296800Y5669800D02*
X-5296800Y6406400D01*
X-5296800Y6406400D02*
X-5576200Y6406400D01*
X-5296800Y6000000D02*
X-5525400Y6000000D01*
X-5728600Y5669800D02*
X-5500000Y6000000D01*
X-5525400Y6406400D02*
G75*
G03*
X-5525400Y6000000I0J-203200D01*
G01*
X258578Y34210000D02*
X-258578Y34210000D01*
X258578Y32790000D02*
X-258578Y32790000D01*
X203200Y33169800D02*
X203200Y33906400D01*
X203200Y33906400D02*
X-76200Y33906400D01*
X203200Y33500000D02*
X-25400Y33500000D01*
X-228600Y33169800D02*
X0Y33500000D01*
X-25400Y33906400D02*
G75*
G03*
X-25400Y33500000I0J-203200D01*
G01*
X258578Y38210000D02*
X-258578Y38210000D01*
X258578Y36790000D02*
X-258578Y36790000D01*
X203200Y37169800D02*
X203200Y37906400D01*
X203200Y37906400D02*
X-76200Y37906400D01*
X203200Y37500000D02*
X-25400Y37500000D01*
X-228600Y37169800D02*
X0Y37500000D01*
X-25400Y37906400D02*
G75*
G03*
X-25400Y37500000I0J-203200D01*
G01*
X2258578Y4710000D02*
X1741422Y4710000D01*
X2258578Y3290000D02*
X1741422Y3290000D01*
X2203200Y3669800D02*
X2203200Y4406400D01*
X2203200Y4406400D02*
X1923800Y4406400D01*
X2203200Y4000000D02*
X1974600Y4000000D01*
X1771400Y3669800D02*
X2000000Y4000000D01*
X1974600Y4406400D02*
G75*
G03*
X1974600Y4000000I0J-203200D01*
G01*
X3460000Y45091422D02*
X3460000Y45608578D01*
X2040000Y45091422D02*
X2040000Y45608578D01*
X2419800Y45146800D02*
X3156400Y45146800D01*
X3156400Y45146800D02*
X3156400Y45426200D01*
X2750000Y45146800D02*
X2750000Y45375400D01*
X2419800Y45578600D02*
X2750000Y45350000D01*
X3156400Y45375400D02*
G75*
G03*
X2750000Y45375400I-203200J0D01*
G01*
X-5758578Y7290000D02*
X-5241422Y7290000D01*
X-5758578Y8710000D02*
X-5241422Y8710000D01*
X-5703200Y8330200D02*
X-5703200Y7593600D01*
X-5703200Y7593600D02*
X-5423800Y7593600D01*
X-5703200Y8000000D02*
X-5474600Y8000000D01*
X-5271400Y8330200D02*
X-5500000Y8000000D01*
X-5474600Y7593600D02*
G75*
G03*
X-5474600Y8000000I0J203200D01*
G01*
X5241422Y-710000D02*
X5758578Y-710000D01*
X5241422Y710000D02*
X5758578Y710000D01*
X5296800Y406400D02*
X5296800Y-406400D01*
X5296800Y-406400D02*
X5576200Y-406400D01*
X5296800Y0D02*
X5525400Y0D01*
X5296800Y0D02*
X5576200Y0D01*
X5296800Y406400D02*
X5525400Y406400D01*
X5525400Y0D02*
G75*
G03*
X5525400Y406400I0J203200D01*
G01*
X5525400Y-406400D02*
G75*
G03*
X5525400Y0I0J203200D01*
G01*
X1741422Y1290000D02*
X2258578Y1290000D01*
X1741422Y2710000D02*
X2258578Y2710000D01*
X2228600Y1669800D02*
X2101600Y1593600D01*
X2101600Y1593600D02*
X1949200Y1593600D01*
X1949200Y1593600D02*
X1822200Y1695200D01*
X1822200Y1695200D02*
X1771400Y1847600D01*
X1771400Y1847600D02*
X1746000Y1974600D01*
X2228600Y2304800D02*
X2101600Y2381000D01*
X2101600Y2381000D02*
X1949200Y2381000D01*
X1949200Y2381000D02*
X1822200Y2279400D01*
X1822200Y2279400D02*
X1771400Y2127000D01*
X1771400Y2127000D02*
X1746000Y2000000D01*
X-5241422Y4710000D02*
X-5758578Y4710000D01*
X-5241422Y3290000D02*
X-5758578Y3290000D01*
X-5728600Y4330200D02*
X-5601600Y4406400D01*
X-5601600Y4406400D02*
X-5449200Y4406400D01*
X-5449200Y4406400D02*
X-5322200Y4304800D01*
X-5322200Y4304800D02*
X-5271400Y4152400D01*
X-5271400Y4152400D02*
X-5246000Y4025400D01*
X-5728600Y3695200D02*
X-5601600Y3619000D01*
X-5601600Y3619000D02*
X-5449200Y3619000D01*
X-5449200Y3619000D02*
X-5322200Y3720600D01*
X-5322200Y3720600D02*
X-5271400Y3873000D01*
X-5271400Y3873000D02*
X-5246000Y4000000D01*
X-2040000Y45091422D02*
X-2040000Y45608578D01*
X-3460000Y45091422D02*
X-3460000Y45608578D01*
X-2419800Y45578600D02*
X-2343600Y45451600D01*
X-2343600Y45451600D02*
X-2343600Y45299200D01*
X-2343600Y45299200D02*
X-2445200Y45172200D01*
X-2445200Y45172200D02*
X-2597600Y45121400D01*
X-2597600Y45121400D02*
X-2724600Y45096000D01*
X-3054800Y45578600D02*
X-3131000Y45451600D01*
X-3131000Y45451600D02*
X-3131000Y45299200D01*
X-3131000Y45299200D02*
X-3029400Y45172200D01*
X-3029400Y45172200D02*
X-2877000Y45121400D01*
X-2877000Y45121400D02*
X-2750000Y45096000D01*
X1741422Y-4710000D02*
X2258578Y-4710000D01*
X1741422Y-3290000D02*
X2258578Y-3290000D01*
X2228600Y-4330200D02*
X2101600Y-4406400D01*
X2101600Y-4406400D02*
X1949200Y-4406400D01*
X1949200Y-4406400D02*
X1822200Y-4304800D01*
X1822200Y-4304800D02*
X1771400Y-4152400D01*
X1771400Y-4152400D02*
X1746000Y-4025400D01*
X2228600Y-3695200D02*
X2101600Y-3619000D01*
X2101600Y-3619000D02*
X1949200Y-3619000D01*
X1949200Y-3619000D02*
X1822200Y-3720600D01*
X1822200Y-3720600D02*
X1771400Y-3873000D01*
X1771400Y-3873000D02*
X1746000Y-4000000D01*
X-1741422Y2710000D02*
X-2258578Y2710000D01*
X-1741422Y1290000D02*
X-2258578Y1290000D01*
X-2228600Y2330200D02*
X-2101600Y2406400D01*
X-2101600Y2406400D02*
X-1949200Y2406400D01*
X-1949200Y2406400D02*
X-1822200Y2304800D01*
X-1822200Y2304800D02*
X-1771400Y2152400D01*
X-1771400Y2152400D02*
X-1746000Y2025400D01*
X-2228600Y1695200D02*
X-2101600Y1619000D01*
X-2101600Y1619000D02*
X-1949200Y1619000D01*
X-1949200Y1619000D02*
X-1822200Y1720600D01*
X-1822200Y1720600D02*
X-1771400Y1873000D01*
X-1771400Y1873000D02*
X-1746000Y2000000D01*
D12*
X5330000Y-10287000D02*
G75*
G03*
X5330000Y-10287000I-250000J0D01*
G01*
D10*
X2725000Y-10870000D02*
X4400000Y-10870000D01*
X2725000Y-10610000D02*
X2725000Y-10870000D01*
X0Y-10610000D02*
X2725000Y-10610000D01*
X-2725000Y-10610000D02*
X-2725000Y-10870000D01*
X0Y-10610000D02*
X-2725000Y-10610000D01*
X2725000Y-16060000D02*
X2725000Y-15800000D01*
X0Y-16060000D02*
X2725000Y-16060000D01*
X-2725000Y-16060000D02*
X-2725000Y-15800000D01*
X0Y-16060000D02*
X-2725000Y-16060000D01*
D12*
X29920000Y46505000D02*
G75*
G03*
X29920000Y46505000I-250000J0D01*
G01*
D10*
X26670000Y45065000D02*
X30120000Y45065000D01*
X26670000Y45065000D02*
X24720000Y45065000D01*
X26670000Y34945000D02*
X28620000Y34945000D01*
X26670000Y34945000D02*
X24720000Y34945000D01*
X26170000Y45005000D02*
G75*
G03*
X27170000Y45005000I500000J0D01*
G01*
D12*
X-23420000Y46505000D02*
G75*
G03*
X-23420000Y46505000I-250000J0D01*
G01*
D10*
X-26670000Y45065000D02*
X-23220000Y45065000D01*
X-26670000Y45065000D02*
X-28620000Y45065000D01*
X-26670000Y34945000D02*
X-24720000Y34945000D01*
X-26670000Y34945000D02*
X-28620000Y34945000D01*
X-27170000Y45005000D02*
G75*
G03*
X-26170000Y45005000I500000J0D01*
G01*
X29920000Y32761422D02*
X29920000Y33278578D01*
X28500000Y32761422D02*
X28500000Y33278578D01*
X29540200Y33248600D02*
X29616400Y33121600D01*
X29616400Y33121600D02*
X29616400Y32969200D01*
X29616400Y32969200D02*
X29514800Y32842200D01*
X29514800Y32842200D02*
X29362400Y32791400D01*
X29362400Y32791400D02*
X29235400Y32766000D01*
X28905200Y33248600D02*
X28829000Y33121600D01*
X28829000Y33121600D02*
X28829000Y32969200D01*
X28829000Y32969200D02*
X28930600Y32842200D01*
X28930600Y32842200D02*
X29083000Y32791400D01*
X29083000Y32791400D02*
X29210000Y32766000D01*
X-23420000Y32761422D02*
X-23420000Y33278578D01*
X-24840000Y32761422D02*
X-24840000Y33278578D01*
X-23799800Y33248600D02*
X-23723600Y33121600D01*
X-23723600Y33121600D02*
X-23723600Y32969200D01*
X-23723600Y32969200D02*
X-23825200Y32842200D01*
X-23825200Y32842200D02*
X-23977600Y32791400D01*
X-23977600Y32791400D02*
X-24104600Y32766000D01*
X-24434800Y33248600D02*
X-24511000Y33121600D01*
X-24511000Y33121600D02*
X-24511000Y32969200D01*
X-24511000Y32969200D02*
X-24409400Y32842200D01*
X-24409400Y32842200D02*
X-24257000Y32791400D01*
X-24257000Y32791400D02*
X-24130000Y32766000D01*
X41835000Y40263578D02*
X41835000Y39746422D01*
X43255000Y40263578D02*
X43255000Y39746422D01*
X42875200Y40208200D02*
X42138600Y40208200D01*
X42138600Y40208200D02*
X42138600Y39928800D01*
X42545000Y40208200D02*
X42545000Y39979600D01*
X42875200Y39776400D02*
X42545000Y40005000D01*
X42138600Y39979600D02*
G75*
G03*
X42545000Y39979600I203200J0D01*
G01*
X40715000Y39746422D02*
X40715000Y40263578D01*
X39295000Y39746422D02*
X39295000Y40263578D01*
X39674800Y39801800D02*
X40411400Y39801800D01*
X40411400Y39801800D02*
X40411400Y40081200D01*
X40005000Y39801800D02*
X40005000Y40030400D01*
X39674800Y40233600D02*
X40005000Y40005000D01*
X40411400Y40030400D02*
G75*
G03*
X40005000Y40030400I-203200J0D01*
G01*
X38175000Y35936422D02*
X38175000Y36453578D01*
X36755000Y35936422D02*
X36755000Y36453578D01*
X37134800Y35991800D02*
X37871400Y35991800D01*
X37871400Y35991800D02*
X37871400Y36271200D01*
X37465000Y35991800D02*
X37465000Y36220400D01*
X37134800Y36423600D02*
X37465000Y36195000D01*
X37871400Y36220400D02*
G75*
G03*
X37465000Y36220400I-203200J0D01*
G01*
X43255000Y35936422D02*
X43255000Y36453578D01*
X41835000Y35936422D02*
X41835000Y36453578D01*
X42214800Y35991800D02*
X42951400Y35991800D01*
X42951400Y35991800D02*
X42951400Y36271200D01*
X42545000Y35991800D02*
X42545000Y36220400D01*
X42214800Y36423600D02*
X42545000Y36195000D01*
X42951400Y36220400D02*
G75*
G03*
X42545000Y36220400I-203200J0D01*
G01*
X40715000Y35936422D02*
X40715000Y36453578D01*
X39295000Y35936422D02*
X39295000Y36453578D01*
X39674800Y35991800D02*
X40411400Y35991800D01*
X40411400Y35991800D02*
X40411400Y36271200D01*
X40005000Y35991800D02*
X40005000Y36220400D01*
X39674800Y36423600D02*
X40005000Y36195000D01*
X40411400Y36220400D02*
G75*
G03*
X40005000Y36220400I-203200J0D01*
G01*
X10085000Y40263578D02*
X10085000Y39746422D01*
X11505000Y40263578D02*
X11505000Y39746422D01*
X11125200Y40208200D02*
X10388600Y40208200D01*
X10388600Y40208200D02*
X10388600Y39928800D01*
X10795000Y40208200D02*
X10795000Y39979600D01*
X11125200Y39776400D02*
X10795000Y40005000D01*
X10388600Y39979600D02*
G75*
G03*
X10795000Y39979600I203200J0D01*
G01*
X15165000Y40263578D02*
X15165000Y39746422D01*
X16585000Y40263578D02*
X16585000Y39746422D01*
X16205200Y40208200D02*
X15468600Y40208200D01*
X15468600Y40208200D02*
X15468600Y39928800D01*
X15875000Y40208200D02*
X15875000Y39979600D01*
X16205200Y39776400D02*
X15875000Y40005000D01*
X15468600Y39979600D02*
G75*
G03*
X15875000Y39979600I203200J0D01*
G01*
X14045000Y39746422D02*
X14045000Y40263578D01*
X12625000Y39746422D02*
X12625000Y40263578D01*
X13004800Y39801800D02*
X13741400Y39801800D01*
X13741400Y39801800D02*
X13741400Y40081200D01*
X13335000Y39801800D02*
X13335000Y40030400D01*
X13004800Y40233600D02*
X13335000Y40005000D01*
X13741400Y40030400D02*
G75*
G03*
X13335000Y40030400I-203200J0D01*
G01*
X11505000Y35936422D02*
X11505000Y36453578D01*
X10085000Y35936422D02*
X10085000Y36453578D01*
X10464800Y35991800D02*
X11201400Y35991800D01*
X11201400Y35991800D02*
X11201400Y36271200D01*
X10795000Y35991800D02*
X10795000Y36220400D01*
X10464800Y36423600D02*
X10795000Y36195000D01*
X11201400Y36220400D02*
G75*
G03*
X10795000Y36220400I-203200J0D01*
G01*
X16585000Y35936422D02*
X16585000Y36453578D01*
X15165000Y35936422D02*
X15165000Y36453578D01*
X15544800Y35991800D02*
X16281400Y35991800D01*
X16281400Y35991800D02*
X16281400Y36271200D01*
X15875000Y35991800D02*
X15875000Y36220400D01*
X15544800Y36423600D02*
X15875000Y36195000D01*
X16281400Y36220400D02*
G75*
G03*
X15875000Y36220400I-203200J0D01*
G01*
X14045000Y35936422D02*
X14045000Y36453578D01*
X12625000Y35936422D02*
X12625000Y36453578D01*
X13004800Y35991800D02*
X13741400Y35991800D01*
X13741400Y35991800D02*
X13741400Y36271200D01*
X13335000Y35991800D02*
X13335000Y36220400D01*
X13004800Y36423600D02*
X13335000Y36195000D01*
X13741400Y36220400D02*
G75*
G03*
X13335000Y36220400I-203200J0D01*
G01*
X-16585000Y40263578D02*
X-16585000Y39746422D01*
X-15165000Y40263578D02*
X-15165000Y39746422D01*
X-15544800Y40208200D02*
X-16281400Y40208200D01*
X-16281400Y40208200D02*
X-16281400Y39928800D01*
X-15875000Y40208200D02*
X-15875000Y39979600D01*
X-15544800Y39776400D02*
X-15875000Y40005000D01*
X-16281400Y39979600D02*
G75*
G03*
X-15875000Y39979600I203200J0D01*
G01*
X-11505000Y40263578D02*
X-11505000Y39746422D01*
X-10085000Y40263578D02*
X-10085000Y39746422D01*
X-10464800Y40208200D02*
X-11201400Y40208200D01*
X-11201400Y40208200D02*
X-11201400Y39928800D01*
X-10795000Y40208200D02*
X-10795000Y39979600D01*
X-10464800Y39776400D02*
X-10795000Y40005000D01*
X-11201400Y39979600D02*
G75*
G03*
X-10795000Y39979600I203200J0D01*
G01*
X-12625000Y39746422D02*
X-12625000Y40263578D01*
X-14045000Y39746422D02*
X-14045000Y40263578D01*
X-13665200Y39801800D02*
X-12928600Y39801800D01*
X-12928600Y39801800D02*
X-12928600Y40081200D01*
X-13335000Y39801800D02*
X-13335000Y40030400D01*
X-13665200Y40233600D02*
X-13335000Y40005000D01*
X-12928600Y40030400D02*
G75*
G03*
X-13335000Y40030400I-203200J0D01*
G01*
X-15165000Y35936422D02*
X-15165000Y36453578D01*
X-16585000Y35936422D02*
X-16585000Y36453578D01*
X-16205200Y35991800D02*
X-15468600Y35991800D01*
X-15468600Y35991800D02*
X-15468600Y36271200D01*
X-15875000Y35991800D02*
X-15875000Y36220400D01*
X-16205200Y36423600D02*
X-15875000Y36195000D01*
X-15468600Y36220400D02*
G75*
G03*
X-15875000Y36220400I-203200J0D01*
G01*
X-10085000Y35936422D02*
X-10085000Y36453578D01*
X-11505000Y35936422D02*
X-11505000Y36453578D01*
X-11125200Y35991800D02*
X-10388600Y35991800D01*
X-10388600Y35991800D02*
X-10388600Y36271200D01*
X-10795000Y35991800D02*
X-10795000Y36220400D01*
X-11125200Y36423600D02*
X-10795000Y36195000D01*
X-10388600Y36220400D02*
G75*
G03*
X-10795000Y36220400I-203200J0D01*
G01*
X-12625000Y35936422D02*
X-12625000Y36453578D01*
X-14045000Y35936422D02*
X-14045000Y36453578D01*
X-13665200Y35991800D02*
X-12928600Y35991800D01*
X-12928600Y35991800D02*
X-12928600Y36271200D01*
X-13335000Y35991800D02*
X-13335000Y36220400D01*
X-13665200Y36423600D02*
X-13335000Y36195000D01*
X-12928600Y36220400D02*
G75*
G03*
X-13335000Y36220400I-203200J0D01*
G01*
X-43255000Y40263578D02*
X-43255000Y39746422D01*
X-41835000Y40263578D02*
X-41835000Y39746422D01*
X-42214800Y40208200D02*
X-42951400Y40208200D01*
X-42951400Y40208200D02*
X-42951400Y39928800D01*
X-42545000Y40208200D02*
X-42545000Y39979600D01*
X-42214800Y39776400D02*
X-42545000Y40005000D01*
X-42951400Y39979600D02*
G75*
G03*
X-42545000Y39979600I203200J0D01*
G01*
X-38175000Y40263578D02*
X-38175000Y39746422D01*
X-36755000Y40263578D02*
X-36755000Y39746422D01*
X-37134800Y40208200D02*
X-37871400Y40208200D01*
X-37871400Y40208200D02*
X-37871400Y39928800D01*
X-37465000Y40208200D02*
X-37465000Y39979600D01*
X-37134800Y39776400D02*
X-37465000Y40005000D01*
X-37871400Y39979600D02*
G75*
G03*
X-37465000Y39979600I203200J0D01*
G01*
X-39295000Y39746422D02*
X-39295000Y40263578D01*
X-40715000Y39746422D02*
X-40715000Y40263578D01*
X-40335200Y39801800D02*
X-39598600Y39801800D01*
X-39598600Y39801800D02*
X-39598600Y40081200D01*
X-40005000Y39801800D02*
X-40005000Y40030400D01*
X-40335200Y40233600D02*
X-40005000Y40005000D01*
X-39598600Y40030400D02*
G75*
G03*
X-40005000Y40030400I-203200J0D01*
G01*
X-41835000Y35936422D02*
X-41835000Y36453578D01*
X-43255000Y35936422D02*
X-43255000Y36453578D01*
X-42875200Y35991800D02*
X-42138600Y35991800D01*
X-42138600Y35991800D02*
X-42138600Y36271200D01*
X-42545000Y35991800D02*
X-42545000Y36220400D01*
X-42875200Y36423600D02*
X-42545000Y36195000D01*
X-42138600Y36220400D02*
G75*
G03*
X-42545000Y36220400I-203200J0D01*
G01*
X-36755000Y35936422D02*
X-36755000Y36453578D01*
X-38175000Y35936422D02*
X-38175000Y36453578D01*
X-37795200Y35991800D02*
X-37058600Y35991800D01*
X-37058600Y35991800D02*
X-37058600Y36271200D01*
X-37465000Y35991800D02*
X-37465000Y36220400D01*
X-37795200Y36423600D02*
X-37465000Y36195000D01*
X-37058600Y36220400D02*
G75*
G03*
X-37465000Y36220400I-203200J0D01*
G01*
X-39295000Y35936422D02*
X-39295000Y36453578D01*
X-40715000Y35936422D02*
X-40715000Y36453578D01*
X-40335200Y35991800D02*
X-39598600Y35991800D01*
X-39598600Y35991800D02*
X-39598600Y36271200D01*
X-40005000Y35991800D02*
X-40005000Y36220400D01*
X-40335200Y36423600D02*
X-40005000Y36195000D01*
X-39598600Y36220400D02*
G75*
G03*
X-40005000Y36220400I-203200J0D01*
G01*
X38175000Y43556422D02*
X38175000Y44073578D01*
X36755000Y43556422D02*
X36755000Y44073578D01*
X37795200Y44043600D02*
X37871400Y43916600D01*
X37871400Y43916600D02*
X37871400Y43764200D01*
X37871400Y43764200D02*
X37769800Y43637200D01*
X37769800Y43637200D02*
X37617400Y43586400D01*
X37617400Y43586400D02*
X37490400Y43561000D01*
X37160200Y44043600D02*
X37084000Y43916600D01*
X37084000Y43916600D02*
X37084000Y43764200D01*
X37084000Y43764200D02*
X37185600Y43637200D01*
X37185600Y43637200D02*
X37338000Y43586400D01*
X37338000Y43586400D02*
X37465000Y43561000D01*
X43255000Y43556422D02*
X43255000Y44073578D01*
X41835000Y43556422D02*
X41835000Y44073578D01*
X42875200Y44043600D02*
X42951400Y43916600D01*
X42951400Y43916600D02*
X42951400Y43764200D01*
X42951400Y43764200D02*
X42849800Y43637200D01*
X42849800Y43637200D02*
X42697400Y43586400D01*
X42697400Y43586400D02*
X42570400Y43561000D01*
X42240200Y44043600D02*
X42164000Y43916600D01*
X42164000Y43916600D02*
X42164000Y43764200D01*
X42164000Y43764200D02*
X42265600Y43637200D01*
X42265600Y43637200D02*
X42418000Y43586400D01*
X42418000Y43586400D02*
X42545000Y43561000D01*
X40715000Y43556422D02*
X40715000Y44073578D01*
X39295000Y43556422D02*
X39295000Y44073578D01*
X40335200Y44043600D02*
X40411400Y43916600D01*
X40411400Y43916600D02*
X40411400Y43764200D01*
X40411400Y43764200D02*
X40309800Y43637200D01*
X40309800Y43637200D02*
X40157400Y43586400D01*
X40157400Y43586400D02*
X40030400Y43561000D01*
X39700200Y44043600D02*
X39624000Y43916600D01*
X39624000Y43916600D02*
X39624000Y43764200D01*
X39624000Y43764200D02*
X39725600Y43637200D01*
X39725600Y43637200D02*
X39878000Y43586400D01*
X39878000Y43586400D02*
X40005000Y43561000D01*
X11505000Y43556422D02*
X11505000Y44073578D01*
X10085000Y43556422D02*
X10085000Y44073578D01*
X11125200Y44043600D02*
X11201400Y43916600D01*
X11201400Y43916600D02*
X11201400Y43764200D01*
X11201400Y43764200D02*
X11099800Y43637200D01*
X11099800Y43637200D02*
X10947400Y43586400D01*
X10947400Y43586400D02*
X10820400Y43561000D01*
X10490200Y44043600D02*
X10414000Y43916600D01*
X10414000Y43916600D02*
X10414000Y43764200D01*
X10414000Y43764200D02*
X10515600Y43637200D01*
X10515600Y43637200D02*
X10668000Y43586400D01*
X10668000Y43586400D02*
X10795000Y43561000D01*
X16585000Y43556422D02*
X16585000Y44073578D01*
X15165000Y43556422D02*
X15165000Y44073578D01*
X16205200Y44043600D02*
X16281400Y43916600D01*
X16281400Y43916600D02*
X16281400Y43764200D01*
X16281400Y43764200D02*
X16179800Y43637200D01*
X16179800Y43637200D02*
X16027400Y43586400D01*
X16027400Y43586400D02*
X15900400Y43561000D01*
X15570200Y44043600D02*
X15494000Y43916600D01*
X15494000Y43916600D02*
X15494000Y43764200D01*
X15494000Y43764200D02*
X15595600Y43637200D01*
X15595600Y43637200D02*
X15748000Y43586400D01*
X15748000Y43586400D02*
X15875000Y43561000D01*
X14045000Y43556422D02*
X14045000Y44073578D01*
X12625000Y43556422D02*
X12625000Y44073578D01*
X13665200Y44043600D02*
X13741400Y43916600D01*
X13741400Y43916600D02*
X13741400Y43764200D01*
X13741400Y43764200D02*
X13639800Y43637200D01*
X13639800Y43637200D02*
X13487400Y43586400D01*
X13487400Y43586400D02*
X13360400Y43561000D01*
X13030200Y44043600D02*
X12954000Y43916600D01*
X12954000Y43916600D02*
X12954000Y43764200D01*
X12954000Y43764200D02*
X13055600Y43637200D01*
X13055600Y43637200D02*
X13208000Y43586400D01*
X13208000Y43586400D02*
X13335000Y43561000D01*
X-15165000Y43556422D02*
X-15165000Y44073578D01*
X-16585000Y43556422D02*
X-16585000Y44073578D01*
X-15544800Y44043600D02*
X-15468600Y43916600D01*
X-15468600Y43916600D02*
X-15468600Y43764200D01*
X-15468600Y43764200D02*
X-15570200Y43637200D01*
X-15570200Y43637200D02*
X-15722600Y43586400D01*
X-15722600Y43586400D02*
X-15849600Y43561000D01*
X-16179800Y44043600D02*
X-16256000Y43916600D01*
X-16256000Y43916600D02*
X-16256000Y43764200D01*
X-16256000Y43764200D02*
X-16154400Y43637200D01*
X-16154400Y43637200D02*
X-16002000Y43586400D01*
X-16002000Y43586400D02*
X-15875000Y43561000D01*
X-10085000Y43556422D02*
X-10085000Y44073578D01*
X-11505000Y43556422D02*
X-11505000Y44073578D01*
X-10464800Y44043600D02*
X-10388600Y43916600D01*
X-10388600Y43916600D02*
X-10388600Y43764200D01*
X-10388600Y43764200D02*
X-10490200Y43637200D01*
X-10490200Y43637200D02*
X-10642600Y43586400D01*
X-10642600Y43586400D02*
X-10769600Y43561000D01*
X-11099800Y44043600D02*
X-11176000Y43916600D01*
X-11176000Y43916600D02*
X-11176000Y43764200D01*
X-11176000Y43764200D02*
X-11074400Y43637200D01*
X-11074400Y43637200D02*
X-10922000Y43586400D01*
X-10922000Y43586400D02*
X-10795000Y43561000D01*
X-12625000Y43556422D02*
X-12625000Y44073578D01*
X-14045000Y43556422D02*
X-14045000Y44073578D01*
X-13004800Y44043600D02*
X-12928600Y43916600D01*
X-12928600Y43916600D02*
X-12928600Y43764200D01*
X-12928600Y43764200D02*
X-13030200Y43637200D01*
X-13030200Y43637200D02*
X-13182600Y43586400D01*
X-13182600Y43586400D02*
X-13309600Y43561000D01*
X-13639800Y44043600D02*
X-13716000Y43916600D01*
X-13716000Y43916600D02*
X-13716000Y43764200D01*
X-13716000Y43764200D02*
X-13614400Y43637200D01*
X-13614400Y43637200D02*
X-13462000Y43586400D01*
X-13462000Y43586400D02*
X-13335000Y43561000D01*
X-41835000Y43556422D02*
X-41835000Y44073578D01*
X-43255000Y43556422D02*
X-43255000Y44073578D01*
X-42214800Y44043600D02*
X-42138600Y43916600D01*
X-42138600Y43916600D02*
X-42138600Y43764200D01*
X-42138600Y43764200D02*
X-42240200Y43637200D01*
X-42240200Y43637200D02*
X-42392600Y43586400D01*
X-42392600Y43586400D02*
X-42519600Y43561000D01*
X-42849800Y44043600D02*
X-42926000Y43916600D01*
X-42926000Y43916600D02*
X-42926000Y43764200D01*
X-42926000Y43764200D02*
X-42824400Y43637200D01*
X-42824400Y43637200D02*
X-42672000Y43586400D01*
X-42672000Y43586400D02*
X-42545000Y43561000D01*
X-36755000Y43556422D02*
X-36755000Y44073578D01*
X-38175000Y43556422D02*
X-38175000Y44073578D01*
X-37134800Y44043600D02*
X-37058600Y43916600D01*
X-37058600Y43916600D02*
X-37058600Y43764200D01*
X-37058600Y43764200D02*
X-37160200Y43637200D01*
X-37160200Y43637200D02*
X-37312600Y43586400D01*
X-37312600Y43586400D02*
X-37439600Y43561000D01*
X-37769800Y44043600D02*
X-37846000Y43916600D01*
X-37846000Y43916600D02*
X-37846000Y43764200D01*
X-37846000Y43764200D02*
X-37744400Y43637200D01*
X-37744400Y43637200D02*
X-37592000Y43586400D01*
X-37592000Y43586400D02*
X-37465000Y43561000D01*
X-39295000Y43556422D02*
X-39295000Y44073578D01*
X-40715000Y43556422D02*
X-40715000Y44073578D01*
X-39674800Y44043600D02*
X-39598600Y43916600D01*
X-39598600Y43916600D02*
X-39598600Y43764200D01*
X-39598600Y43764200D02*
X-39700200Y43637200D01*
X-39700200Y43637200D02*
X-39852600Y43586400D01*
X-39852600Y43586400D02*
X-39979600Y43561000D01*
X-40309800Y44043600D02*
X-40386000Y43916600D01*
X-40386000Y43916600D02*
X-40386000Y43764200D01*
X-40386000Y43764200D02*
X-40284400Y43637200D01*
X-40284400Y43637200D02*
X-40132000Y43586400D01*
X-40132000Y43586400D02*
X-40005000Y43561000D01*
X5241422Y5290000D02*
X5758578Y5290000D01*
X5241422Y6710000D02*
X5758578Y6710000D01*
X5728600Y5669800D02*
X5601600Y5593600D01*
X5601600Y5593600D02*
X5449200Y5593600D01*
X5449200Y5593600D02*
X5322200Y5695200D01*
X5322200Y5695200D02*
X5271400Y5847600D01*
X5271400Y5847600D02*
X5246000Y5974600D01*
X5728600Y6304800D02*
X5601600Y6381000D01*
X5601600Y6381000D02*
X5449200Y6381000D01*
X5449200Y6381000D02*
X5322200Y6279400D01*
X5322200Y6279400D02*
X5271400Y6127000D01*
X5271400Y6127000D02*
X5246000Y6000000D01*
X5241422Y1290000D02*
X5758578Y1290000D01*
X5241422Y2710000D02*
X5758578Y2710000D01*
X5728600Y1669800D02*
X5601600Y1593600D01*
X5601600Y1593600D02*
X5449200Y1593600D01*
X5449200Y1593600D02*
X5322200Y1695200D01*
X5322200Y1695200D02*
X5271400Y1847600D01*
X5271400Y1847600D02*
X5246000Y1974600D01*
X5728600Y2304800D02*
X5601600Y2381000D01*
X5601600Y2381000D02*
X5449200Y2381000D01*
X5449200Y2381000D02*
X5322200Y2279400D01*
X5322200Y2279400D02*
X5271400Y2127000D01*
X5271400Y2127000D02*
X5246000Y2000000D01*
X1741422Y-6710000D02*
X2258578Y-6710000D01*
X1741422Y-5290000D02*
X2258578Y-5290000D01*
X2228600Y-6330200D02*
X2101600Y-6406400D01*
X2101600Y-6406400D02*
X1949200Y-6406400D01*
X1949200Y-6406400D02*
X1822200Y-6304800D01*
X1822200Y-6304800D02*
X1771400Y-6152400D01*
X1771400Y-6152400D02*
X1746000Y-6025400D01*
X2228600Y-5695200D02*
X2101600Y-5619000D01*
X2101600Y-5619000D02*
X1949200Y-5619000D01*
X1949200Y-5619000D02*
X1822200Y-5720600D01*
X1822200Y-5720600D02*
X1771400Y-5873000D01*
X1771400Y-5873000D02*
X1746000Y-6000000D01*
X-5758578Y-710000D02*
X-5241422Y-710000D01*
X-5758578Y710000D02*
X-5241422Y710000D01*
X-5703200Y406400D02*
X-5703200Y-406400D01*
X-5703200Y-406400D02*
X-5423800Y-406400D01*
X-5703200Y0D02*
X-5474600Y0D01*
X-5703200Y0D02*
X-5423800Y0D01*
X-5703200Y406400D02*
X-5474600Y406400D01*
X-5474600Y0D02*
G75*
G03*
X-5474600Y406400I0J203200D01*
G01*
X-5474600Y-406400D02*
G75*
G03*
X-5474600Y0I0J203200D01*
G01*
X1741422Y5290000D02*
X2258578Y5290000D01*
X1741422Y6710000D02*
X2258578Y6710000D01*
X2228600Y5669800D02*
X2101600Y5593600D01*
X2101600Y5593600D02*
X1949200Y5593600D01*
X1949200Y5593600D02*
X1822200Y5695200D01*
X1822200Y5695200D02*
X1771400Y5847600D01*
X1771400Y5847600D02*
X1746000Y5974600D01*
X2228600Y6304800D02*
X2101600Y6381000D01*
X2101600Y6381000D02*
X1949200Y6381000D01*
X1949200Y6381000D02*
X1822200Y6279400D01*
X1822200Y6279400D02*
X1771400Y6127000D01*
X1771400Y6127000D02*
X1746000Y6000000D01*
X5758578Y-3290000D02*
X5241422Y-3290000D01*
X5758578Y-4710000D02*
X5241422Y-4710000D01*
X5271400Y-3669800D02*
X5398400Y-3593600D01*
X5398400Y-3593600D02*
X5550800Y-3593600D01*
X5550800Y-3593600D02*
X5677800Y-3695200D01*
X5677800Y-3695200D02*
X5728600Y-3847600D01*
X5728600Y-3847600D02*
X5754000Y-3974600D01*
X5271400Y-4304800D02*
X5398400Y-4381000D01*
X5398400Y-4381000D02*
X5550800Y-4381000D01*
X5550800Y-4381000D02*
X5677800Y-4279400D01*
X5677800Y-4279400D02*
X5728600Y-4127000D01*
X5728600Y-4127000D02*
X5754000Y-4000000D01*
X-5241422Y-5290000D02*
X-5758578Y-5290000D01*
X-5241422Y-6710000D02*
X-5758578Y-6710000D01*
X-5728600Y-5669800D02*
X-5601600Y-5593600D01*
X-5601600Y-5593600D02*
X-5449200Y-5593600D01*
X-5449200Y-5593600D02*
X-5322200Y-5695200D01*
X-5322200Y-5695200D02*
X-5271400Y-5847600D01*
X-5271400Y-5847600D02*
X-5246000Y-5974600D01*
X-5728600Y-6304800D02*
X-5601600Y-6381000D01*
X-5601600Y-6381000D02*
X-5449200Y-6381000D01*
X-5449200Y-6381000D02*
X-5322200Y-6279400D01*
X-5322200Y-6279400D02*
X-5271400Y-6127000D01*
X-5271400Y-6127000D02*
X-5246000Y-6000000D01*
X5758578Y-5290000D02*
X5241422Y-5290000D01*
X5758578Y-6710000D02*
X5241422Y-6710000D01*
X5271400Y-5669800D02*
X5398400Y-5593600D01*
X5398400Y-5593600D02*
X5550800Y-5593600D01*
X5550800Y-5593600D02*
X5677800Y-5695200D01*
X5677800Y-5695200D02*
X5728600Y-5847600D01*
X5728600Y-5847600D02*
X5754000Y-5974600D01*
X5271400Y-6304800D02*
X5398400Y-6381000D01*
X5398400Y-6381000D02*
X5550800Y-6381000D01*
X5550800Y-6381000D02*
X5677800Y-6279400D01*
X5677800Y-6279400D02*
X5728600Y-6127000D01*
X5728600Y-6127000D02*
X5754000Y-6000000D01*
X-5241422Y-3290000D02*
X-5758578Y-3290000D01*
X-5241422Y-4710000D02*
X-5758578Y-4710000D01*
X-5728600Y-3669800D02*
X-5601600Y-3593600D01*
X-5601600Y-3593600D02*
X-5449200Y-3593600D01*
X-5449200Y-3593600D02*
X-5322200Y-3695200D01*
X-5322200Y-3695200D02*
X-5271400Y-3847600D01*
X-5271400Y-3847600D02*
X-5246000Y-3974600D01*
X-5728600Y-4304800D02*
X-5601600Y-4381000D01*
X-5601600Y-4381000D02*
X-5449200Y-4381000D01*
X-5449200Y-4381000D02*
X-5322200Y-4279400D01*
X-5322200Y-4279400D02*
X-5271400Y-4127000D01*
X-5271400Y-4127000D02*
X-5246000Y-4000000D01*
X-2258578Y-6710000D02*
X-1741422Y-6710000D01*
X-2258578Y-5290000D02*
X-1741422Y-5290000D01*
X-1771400Y-6330200D02*
X-1898400Y-6406400D01*
X-1898400Y-6406400D02*
X-2050800Y-6406400D01*
X-2050800Y-6406400D02*
X-2177800Y-6304800D01*
X-2177800Y-6304800D02*
X-2228600Y-6152400D01*
X-2228600Y-6152400D02*
X-2254000Y-6025400D01*
X-1771400Y-5695200D02*
X-1898400Y-5619000D01*
X-1898400Y-5619000D02*
X-2050800Y-5619000D01*
X-2050800Y-5619000D02*
X-2177800Y-5720600D01*
X-2177800Y-5720600D02*
X-2228600Y-5873000D01*
X-2228600Y-5873000D02*
X-2254000Y-6000000D01*
X-2258578Y-4710000D02*
X-1741422Y-4710000D01*
X-2258578Y-3290000D02*
X-1741422Y-3290000D01*
X-1771400Y-4330200D02*
X-1898400Y-4406400D01*
X-1898400Y-4406400D02*
X-2050800Y-4406400D01*
X-2050800Y-4406400D02*
X-2177800Y-4304800D01*
X-2177800Y-4304800D02*
X-2228600Y-4152400D01*
X-2228600Y-4152400D02*
X-2254000Y-4025400D01*
X-1771400Y-3695200D02*
X-1898400Y-3619000D01*
X-1898400Y-3619000D02*
X-2050800Y-3619000D01*
X-2050800Y-3619000D02*
X-2177800Y-3720600D01*
X-2177800Y-3720600D02*
X-2228600Y-3873000D01*
X-2228600Y-3873000D02*
X-2254000Y-4000000D01*
X-5758578Y-2710000D02*
X-5241422Y-2710000D01*
X-5758578Y-1290000D02*
X-5241422Y-1290000D01*
X-5271400Y-2330200D02*
X-5398400Y-2406400D01*
X-5398400Y-2406400D02*
X-5550800Y-2406400D01*
X-5550800Y-2406400D02*
X-5677800Y-2304800D01*
X-5677800Y-2304800D02*
X-5728600Y-2152400D01*
X-5728600Y-2152400D02*
X-5754000Y-2025400D01*
X-5271400Y-1695200D02*
X-5398400Y-1619000D01*
X-5398400Y-1619000D02*
X-5550800Y-1619000D01*
X-5550800Y-1619000D02*
X-5677800Y-1720600D01*
X-5677800Y-1720600D02*
X-5728600Y-1873000D01*
X-5728600Y-1873000D02*
X-5754000Y-2000000D01*
X-5758578Y1290000D02*
X-5241422Y1290000D01*
X-5758578Y2710000D02*
X-5241422Y2710000D01*
X-5271400Y1669800D02*
X-5398400Y1593600D01*
X-5398400Y1593600D02*
X-5550800Y1593600D01*
X-5550800Y1593600D02*
X-5677800Y1695200D01*
X-5677800Y1695200D02*
X-5728600Y1847600D01*
X-5728600Y1847600D02*
X-5754000Y1974600D01*
X-5271400Y2304800D02*
X-5398400Y2381000D01*
X-5398400Y2381000D02*
X-5550800Y2381000D01*
X-5550800Y2381000D02*
X-5677800Y2279400D01*
X-5677800Y2279400D02*
X-5728600Y2127000D01*
X-5728600Y2127000D02*
X-5754000Y2000000D01*
X-34215000Y46731422D02*
X-34215000Y47248578D01*
X-35635000Y46731422D02*
X-35635000Y47248578D01*
X-34594800Y47218600D02*
X-34518600Y47091600D01*
X-34518600Y47091600D02*
X-34518600Y46939200D01*
X-34518600Y46939200D02*
X-34620200Y46812200D01*
X-34620200Y46812200D02*
X-34772600Y46761400D01*
X-34772600Y46761400D02*
X-34899600Y46736000D01*
X-35229800Y47218600D02*
X-35306000Y47091600D01*
X-35306000Y47091600D02*
X-35306000Y46939200D01*
X-35306000Y46939200D02*
X-35204400Y46812200D01*
X-35204400Y46812200D02*
X-35052000Y46761400D01*
X-35052000Y46761400D02*
X-34925000Y46736000D01*
X-258578Y-18710000D02*
X258578Y-18710000D01*
X-258578Y-17290000D02*
X258578Y-17290000D01*
X228600Y-18330200D02*
X101600Y-18406400D01*
X101600Y-18406400D02*
X-50800Y-18406400D01*
X-50800Y-18406400D02*
X-177800Y-18304800D01*
X-177800Y-18304800D02*
X-228600Y-18152400D01*
X-228600Y-18152400D02*
X-254000Y-18025400D01*
X228600Y-17695200D02*
X101600Y-17619000D01*
X101600Y-17619000D02*
X-50800Y-17619000D01*
X-50800Y-17619000D02*
X-177800Y-17720600D01*
X-177800Y-17720600D02*
X-228600Y-17873000D01*
X-228600Y-17873000D02*
X-254000Y-18000000D01*
X1741422Y9290000D02*
X2258578Y9290000D01*
X1741422Y10710000D02*
X2258578Y10710000D01*
X1796800Y10330200D02*
X1796800Y9593600D01*
X1796800Y9593600D02*
X2076200Y9593600D01*
X1796800Y10000000D02*
X2025400Y10000000D01*
X2228600Y10330200D02*
X2000000Y10000000D01*
X2025400Y9593600D02*
G75*
G03*
X2025400Y10000000I0J203200D01*
G01*
X-1741422Y10710000D02*
X-2258578Y10710000D01*
X-1741422Y9290000D02*
X-2258578Y9290000D01*
X-1796800Y9669800D02*
X-1796800Y10406400D01*
X-1796800Y10406400D02*
X-2076200Y10406400D01*
X-1796800Y10000000D02*
X-2025400Y10000000D01*
X-2228600Y9669800D02*
X-2000000Y10000000D01*
X-2025400Y10406400D02*
G75*
G03*
X-2025400Y10000000I0J-203200D01*
G01*
X1710000Y-42758578D02*
X1710000Y-42241422D01*
X290000Y-42758578D02*
X290000Y-42241422D01*
X669800Y-42703200D02*
X1406400Y-42703200D01*
X1406400Y-42703200D02*
X1406400Y-42423800D01*
X1000000Y-42703200D02*
X1000000Y-42474600D01*
X669800Y-42271400D02*
X1000000Y-42500000D01*
X1406400Y-42474600D02*
G75*
G03*
X1000000Y-42474600I-203200J0D01*
G01*
X-1741422Y8710000D02*
X-2258578Y8710000D01*
X-1741422Y7290000D02*
X-2258578Y7290000D01*
X-1796800Y7669800D02*
X-1796800Y8406400D01*
X-1796800Y8406400D02*
X-2076200Y8406400D01*
X-1796800Y8000000D02*
X-2025400Y8000000D01*
X-2228600Y7669800D02*
X-2000000Y8000000D01*
X-2025400Y8406400D02*
G75*
G03*
X-2025400Y8000000I0J-203200D01*
G01*
X1741422Y7290000D02*
X2258578Y7290000D01*
X1741422Y8710000D02*
X2258578Y8710000D01*
X1796800Y8330200D02*
X1796800Y7593600D01*
X1796800Y7593600D02*
X2076200Y7593600D01*
X1796800Y8000000D02*
X2025400Y8000000D01*
X2228600Y8330200D02*
X2000000Y8000000D01*
X2025400Y7593600D02*
G75*
G03*
X2025400Y8000000I0J203200D01*
G01*
X5790000Y-29468578D02*
X5790000Y-28951422D01*
X4370000Y-29468578D02*
X4370000Y-28951422D01*
X5410200Y-28981400D02*
X5486400Y-29108400D01*
X5486400Y-29108400D02*
X5486400Y-29260800D01*
X5486400Y-29260800D02*
X5384800Y-29387800D01*
X5384800Y-29387800D02*
X5232400Y-29438600D01*
X5232400Y-29438600D02*
X5105400Y-29464000D01*
X4775200Y-28981400D02*
X4699000Y-29108400D01*
X4699000Y-29108400D02*
X4699000Y-29260800D01*
X4699000Y-29260800D02*
X4800600Y-29387800D01*
X4800600Y-29387800D02*
X4953000Y-29438600D01*
X4953000Y-29438600D02*
X5080000Y-29464000D01*
X40263578Y30165000D02*
X39746422Y30165000D01*
X40263578Y28745000D02*
X39746422Y28745000D01*
X39776400Y29785200D02*
X39903400Y29861400D01*
X39903400Y29861400D02*
X40055800Y29861400D01*
X40055800Y29861400D02*
X40182800Y29759800D01*
X40182800Y29759800D02*
X40233600Y29607400D01*
X40233600Y29607400D02*
X40259000Y29480400D01*
X39776400Y29150200D02*
X39903400Y29074000D01*
X39903400Y29074000D02*
X40055800Y29074000D01*
X40055800Y29074000D02*
X40182800Y29175600D01*
X40182800Y29175600D02*
X40233600Y29328000D01*
X40233600Y29328000D02*
X40259000Y29455000D01*
X35635000Y46731422D02*
X35635000Y47248578D01*
X34215000Y46731422D02*
X34215000Y47248578D01*
X35255200Y47218600D02*
X35331400Y47091600D01*
X35331400Y47091600D02*
X35331400Y46939200D01*
X35331400Y46939200D02*
X35229800Y46812200D01*
X35229800Y46812200D02*
X35077400Y46761400D01*
X35077400Y46761400D02*
X34950400Y46736000D01*
X34620200Y47218600D02*
X34544000Y47091600D01*
X34544000Y47091600D02*
X34544000Y46939200D01*
X34544000Y46939200D02*
X34645600Y46812200D01*
X34645600Y46812200D02*
X34798000Y46761400D01*
X34798000Y46761400D02*
X34925000Y46736000D01*
X13593578Y30165000D02*
X13076422Y30165000D01*
X13593578Y28745000D02*
X13076422Y28745000D01*
X13106400Y29785200D02*
X13233400Y29861400D01*
X13233400Y29861400D02*
X13385800Y29861400D01*
X13385800Y29861400D02*
X13512800Y29759800D01*
X13512800Y29759800D02*
X13563600Y29607400D01*
X13563600Y29607400D02*
X13589000Y29480400D01*
X13106400Y29150200D02*
X13233400Y29074000D01*
X13233400Y29074000D02*
X13385800Y29074000D01*
X13385800Y29074000D02*
X13512800Y29175600D01*
X13512800Y29175600D02*
X13563600Y29328000D01*
X13563600Y29328000D02*
X13589000Y29455000D01*
X19125000Y46731422D02*
X19125000Y47248578D01*
X17705000Y46731422D02*
X17705000Y47248578D01*
X18745200Y47218600D02*
X18821400Y47091600D01*
X18821400Y47091600D02*
X18821400Y46939200D01*
X18821400Y46939200D02*
X18719800Y46812200D01*
X18719800Y46812200D02*
X18567400Y46761400D01*
X18567400Y46761400D02*
X18440400Y46736000D01*
X18110200Y47218600D02*
X18034000Y47091600D01*
X18034000Y47091600D02*
X18034000Y46939200D01*
X18034000Y46939200D02*
X18135600Y46812200D01*
X18135600Y46812200D02*
X18288000Y46761400D01*
X18288000Y46761400D02*
X18415000Y46736000D01*
X-13076422Y30165000D02*
X-13593578Y30165000D01*
X-13076422Y28745000D02*
X-13593578Y28745000D01*
X-13563600Y29785200D02*
X-13436600Y29861400D01*
X-13436600Y29861400D02*
X-13284200Y29861400D01*
X-13284200Y29861400D02*
X-13157200Y29759800D01*
X-13157200Y29759800D02*
X-13106400Y29607400D01*
X-13106400Y29607400D02*
X-13081000Y29480400D01*
X-13563600Y29150200D02*
X-13436600Y29074000D01*
X-13436600Y29074000D02*
X-13284200Y29074000D01*
X-13284200Y29074000D02*
X-13157200Y29175600D01*
X-13157200Y29175600D02*
X-13106400Y29328000D01*
X-13106400Y29328000D02*
X-13081000Y29455000D01*
X-17705000Y46731422D02*
X-17705000Y47248578D01*
X-19125000Y46731422D02*
X-19125000Y47248578D01*
X-18084800Y47218600D02*
X-18008600Y47091600D01*
X-18008600Y47091600D02*
X-18008600Y46939200D01*
X-18008600Y46939200D02*
X-18110200Y46812200D01*
X-18110200Y46812200D02*
X-18262600Y46761400D01*
X-18262600Y46761400D02*
X-18389600Y46736000D01*
X-18719800Y47218600D02*
X-18796000Y47091600D01*
X-18796000Y47091600D02*
X-18796000Y46939200D01*
X-18796000Y46939200D02*
X-18694400Y46812200D01*
X-18694400Y46812200D02*
X-18542000Y46761400D01*
X-18542000Y46761400D02*
X-18415000Y46736000D01*
X-39746422Y30165000D02*
X-40263578Y30165000D01*
X-39746422Y28745000D02*
X-40263578Y28745000D01*
X-40233600Y29785200D02*
X-40106600Y29861400D01*
X-40106600Y29861400D02*
X-39954200Y29861400D01*
X-39954200Y29861400D02*
X-39827200Y29759800D01*
X-39827200Y29759800D02*
X-39776400Y29607400D01*
X-39776400Y29607400D02*
X-39751000Y29480400D01*
X-40233600Y29150200D02*
X-40106600Y29074000D01*
X-40106600Y29074000D02*
X-39954200Y29074000D01*
X-39954200Y29074000D02*
X-39827200Y29175600D01*
X-39827200Y29175600D02*
X-39776400Y29328000D01*
X-39776400Y29328000D02*
X-39751000Y29455000D01*
X-1710000Y-42241422D02*
X-1710000Y-42758578D01*
X-290000Y-42241422D02*
X-290000Y-42758578D01*
X-1330200Y-42728600D02*
X-1406400Y-42601600D01*
X-1406400Y-42601600D02*
X-1406400Y-42449200D01*
X-1406400Y-42449200D02*
X-1304800Y-42322200D01*
X-1304800Y-42322200D02*
X-1152400Y-42271400D01*
X-1152400Y-42271400D02*
X-1025400Y-42246000D01*
X-695200Y-42728600D02*
X-619000Y-42601600D01*
X-619000Y-42601600D02*
X-619000Y-42449200D01*
X-619000Y-42449200D02*
X-720600Y-42322200D01*
X-720600Y-42322200D02*
X-873000Y-42271400D01*
X-873000Y-42271400D02*
X-1000000Y-42246000D01*
D11*
X-25932858Y6516667D02*
X-25885239Y6564286D01*
X-25837620Y6707143D01*
X-25837620Y6802381D01*
X-25885239Y6945239D01*
X-25980477Y7040477D01*
X-26075715Y7088096D01*
X-26266191Y7135715D01*
X-26409048Y7135715D01*
X-26599524Y7088096D01*
X-26694762Y7040477D01*
X-26790000Y6945239D01*
X-26837620Y6802381D01*
X-26837620Y6707143D01*
X-26790000Y6564286D01*
X-26742381Y6516667D01*
X-25837620Y6040477D02*
X-25837620Y5850000D01*
X-25885239Y5754762D01*
X-25932858Y5707143D01*
X-26075715Y5611905D01*
X-26266191Y5564286D01*
X-26647143Y5564286D01*
X-26742381Y5611905D01*
X-26790000Y5659524D01*
X-26837620Y5754762D01*
X-26837620Y5945239D01*
X-26790000Y6040477D01*
X-26742381Y6088096D01*
X-26647143Y6135715D01*
X-26409048Y6135715D01*
X-26313810Y6088096D01*
X-26266191Y6040477D01*
X-26218572Y5945239D01*
X-26218572Y5754762D01*
X-26266191Y5659524D01*
X-26313810Y5611905D01*
X-26409048Y5564286D01*
X32022380Y1238096D02*
X32831904Y1238096D01*
X32927142Y1190477D01*
X32974761Y1142858D01*
X33022380Y1047620D01*
X33022380Y857143D01*
X32974761Y761905D01*
X32927142Y714286D01*
X32831904Y666667D01*
X32022380Y666667D01*
X33022380Y-333333D02*
X33022380Y238096D01*
X33022380Y-47619D02*
X32022380Y-47619D01*
X32165238Y47620D01*
X32260476Y142858D01*
X32308095Y238096D01*
X32022380Y-952380D02*
X32022380Y-1047619D01*
X32070000Y-1142857D01*
X32117619Y-1190476D01*
X32212857Y-1238095D01*
X32403333Y-1285714D01*
X32641428Y-1285714D01*
X32831904Y-1238095D01*
X32927142Y-1190476D01*
X32974761Y-1142857D01*
X33022380Y-1047619D01*
X33022380Y-952380D01*
X32974761Y-857142D01*
X32927142Y-809523D01*
X32831904Y-761904D01*
X32641428Y-714285D01*
X32403333Y-714285D01*
X32212857Y-761904D01*
X32117619Y-809523D01*
X32070000Y-857142D01*
X32022380Y-952380D01*
X-21317620Y761905D02*
X-20508096Y761905D01*
X-20412858Y714286D01*
X-20365239Y666667D01*
X-20317620Y571429D01*
X-20317620Y380953D01*
X-20365239Y285715D01*
X-20412858Y238096D01*
X-20508096Y190477D01*
X-21317620Y190477D01*
X-20317620Y-333333D02*
X-20317620Y-523809D01*
X-20365239Y-619047D01*
X-20412858Y-666666D01*
X-20555715Y-761904D01*
X-20746191Y-809523D01*
X-21127143Y-809523D01*
X-21222381Y-761904D01*
X-21270000Y-714285D01*
X-21317620Y-619047D01*
X-21317620Y-428571D01*
X-21270000Y-333333D01*
X-21222381Y-285714D01*
X-21127143Y-238095D01*
X-20889048Y-238095D01*
X-20793810Y-285714D01*
X-20746191Y-333333D01*
X-20698572Y-428571D01*
X-20698572Y-619047D01*
X-20746191Y-714285D01*
X-20793810Y-761904D01*
X-20889048Y-809523D01*
X30042380Y10802858D02*
X29566190Y11136191D01*
X30042380Y11374286D02*
X29042380Y11374286D01*
X29042380Y10993334D01*
X29090000Y10898096D01*
X29137619Y10850477D01*
X29232857Y10802858D01*
X29375714Y10802858D01*
X29470952Y10850477D01*
X29518571Y10898096D01*
X29566190Y10993334D01*
X29566190Y11374286D01*
X29137619Y10421905D02*
X29090000Y10374286D01*
X29042380Y10279048D01*
X29042380Y10040953D01*
X29090000Y9945715D01*
X29137619Y9898096D01*
X29232857Y9850477D01*
X29328095Y9850477D01*
X29470952Y9898096D01*
X30042380Y10469524D01*
X30042380Y9850477D01*
X29470952Y9279048D02*
X29423333Y9374286D01*
X29375714Y9421905D01*
X29280476Y9469524D01*
X29232857Y9469524D01*
X29137619Y9421905D01*
X29090000Y9374286D01*
X29042380Y9279048D01*
X29042380Y9088572D01*
X29090000Y8993334D01*
X29137619Y8945715D01*
X29232857Y8898096D01*
X29280476Y8898096D01*
X29375714Y8945715D01*
X29423333Y8993334D01*
X29470952Y9088572D01*
X29470952Y9279048D01*
X29518571Y9374286D01*
X29566190Y9421905D01*
X29661428Y9469524D01*
X29851904Y9469524D01*
X29947142Y9421905D01*
X29994761Y9374286D01*
X30042380Y9279048D01*
X30042380Y9088572D01*
X29994761Y8993334D01*
X29947142Y8945715D01*
X29851904Y8898096D01*
X29661428Y8898096D01*
X29566190Y8945715D01*
X29518571Y8993334D01*
X29470952Y9088572D01*
X-23297620Y10802858D02*
X-23773810Y11136191D01*
X-23297620Y11374286D02*
X-24297620Y11374286D01*
X-24297620Y10993334D01*
X-24250000Y10898096D01*
X-24202381Y10850477D01*
X-24107143Y10802858D01*
X-23964286Y10802858D01*
X-23869048Y10850477D01*
X-23821429Y10898096D01*
X-23773810Y10993334D01*
X-23773810Y11374286D01*
X-24202381Y10421905D02*
X-24250000Y10374286D01*
X-24297620Y10279048D01*
X-24297620Y10040953D01*
X-24250000Y9945715D01*
X-24202381Y9898096D01*
X-24107143Y9850477D01*
X-24011905Y9850477D01*
X-23869048Y9898096D01*
X-23297620Y10469524D01*
X-23297620Y9850477D01*
X-24297620Y9517143D02*
X-24297620Y8850477D01*
X-23297620Y9279048D01*
X27502380Y10802858D02*
X27026190Y11136191D01*
X27502380Y11374286D02*
X26502380Y11374286D01*
X26502380Y10993334D01*
X26550000Y10898096D01*
X26597619Y10850477D01*
X26692857Y10802858D01*
X26835714Y10802858D01*
X26930952Y10850477D01*
X26978571Y10898096D01*
X27026190Y10993334D01*
X27026190Y11374286D01*
X26597619Y10421905D02*
X26550000Y10374286D01*
X26502380Y10279048D01*
X26502380Y10040953D01*
X26550000Y9945715D01*
X26597619Y9898096D01*
X26692857Y9850477D01*
X26788095Y9850477D01*
X26930952Y9898096D01*
X27502380Y10469524D01*
X27502380Y9850477D01*
X26502380Y8993334D02*
X26502380Y9183810D01*
X26550000Y9279048D01*
X26597619Y9326667D01*
X26740476Y9421905D01*
X26930952Y9469524D01*
X27311904Y9469524D01*
X27407142Y9421905D01*
X27454761Y9374286D01*
X27502380Y9279048D01*
X27502380Y9088572D01*
X27454761Y8993334D01*
X27407142Y8945715D01*
X27311904Y8898096D01*
X27073809Y8898096D01*
X26978571Y8945715D01*
X26930952Y8993334D01*
X26883333Y9088572D01*
X26883333Y9279048D01*
X26930952Y9374286D01*
X26978571Y9421905D01*
X27073809Y9469524D01*
X-25837620Y10802858D02*
X-26313810Y11136191D01*
X-25837620Y11374286D02*
X-26837620Y11374286D01*
X-26837620Y10993334D01*
X-26790000Y10898096D01*
X-26742381Y10850477D01*
X-26647143Y10802858D01*
X-26504286Y10802858D01*
X-26409048Y10850477D01*
X-26361429Y10898096D01*
X-26313810Y10993334D01*
X-26313810Y11374286D01*
X-26742381Y10421905D02*
X-26790000Y10374286D01*
X-26837620Y10279048D01*
X-26837620Y10040953D01*
X-26790000Y9945715D01*
X-26742381Y9898096D01*
X-26647143Y9850477D01*
X-26551905Y9850477D01*
X-26409048Y9898096D01*
X-25837620Y10469524D01*
X-25837620Y9850477D01*
X-26837620Y8945715D02*
X-26837620Y9421905D01*
X-26361429Y9469524D01*
X-26409048Y9421905D01*
X-26456667Y9326667D01*
X-26456667Y9088572D01*
X-26409048Y8993334D01*
X-26361429Y8945715D01*
X-26266191Y8898096D01*
X-26028096Y8898096D01*
X-25932858Y8945715D01*
X-25885239Y8993334D01*
X-25837620Y9088572D01*
X-25837620Y9326667D01*
X-25885239Y9421905D01*
X-25932858Y9469524D01*
X32997142Y642858D02*
X33044761Y690477D01*
X33092380Y833334D01*
X33092380Y928572D01*
X33044761Y1071429D01*
X32949523Y1166667D01*
X32854285Y1214286D01*
X32663809Y1261905D01*
X32520952Y1261905D01*
X32330476Y1214286D01*
X32235238Y1166667D01*
X32140000Y1071429D01*
X32092380Y928572D01*
X32092380Y833334D01*
X32140000Y690477D01*
X32187619Y642858D01*
X33092380Y-309523D02*
X33092380Y261905D01*
X33092380Y-23809D02*
X32092380Y-23809D01*
X32235238Y71429D01*
X32330476Y166667D01*
X32378095Y261905D01*
X32425714Y-1166666D02*
X33092380Y-1166666D01*
X32044761Y-928571D02*
X32759047Y-690476D01*
X32759047Y-1309523D01*
X-35582858Y642858D02*
X-35535239Y690477D01*
X-35487620Y833334D01*
X-35487620Y928572D01*
X-35535239Y1071429D01*
X-35630477Y1166667D01*
X-35725715Y1214286D01*
X-35916191Y1261905D01*
X-36059048Y1261905D01*
X-36249524Y1214286D01*
X-36344762Y1166667D01*
X-36440000Y1071429D01*
X-36487620Y928572D01*
X-36487620Y833334D01*
X-36440000Y690477D01*
X-36392381Y642858D01*
X-35487620Y-309523D02*
X-35487620Y261905D01*
X-35487620Y-23809D02*
X-36487620Y-23809D01*
X-36344762Y71429D01*
X-36249524Y166667D01*
X-36201905Y261905D01*
X-36487620Y-642857D02*
X-36487620Y-1261904D01*
X-36106667Y-928571D01*
X-36106667Y-1071428D01*
X-36059048Y-1166666D01*
X-36011429Y-1214285D01*
X-35916191Y-1261904D01*
X-35678096Y-1261904D01*
X-35582858Y-1214285D01*
X-35535239Y-1166666D01*
X-35487620Y-1071428D01*
X-35487620Y-785714D01*
X-35535239Y-690476D01*
X-35582858Y-642857D01*
X29947142Y6992858D02*
X29994761Y7040477D01*
X30042380Y7183334D01*
X30042380Y7278572D01*
X29994761Y7421429D01*
X29899523Y7516667D01*
X29804285Y7564286D01*
X29613809Y7611905D01*
X29470952Y7611905D01*
X29280476Y7564286D01*
X29185238Y7516667D01*
X29090000Y7421429D01*
X29042380Y7278572D01*
X29042380Y7183334D01*
X29090000Y7040477D01*
X29137619Y6992858D01*
X30042380Y6040477D02*
X30042380Y6611905D01*
X30042380Y6326191D02*
X29042380Y6326191D01*
X29185238Y6421429D01*
X29280476Y6516667D01*
X29328095Y6611905D01*
X29137619Y5659524D02*
X29090000Y5611905D01*
X29042380Y5516667D01*
X29042380Y5278572D01*
X29090000Y5183334D01*
X29137619Y5135715D01*
X29232857Y5088096D01*
X29328095Y5088096D01*
X29470952Y5135715D01*
X30042380Y5707143D01*
X30042380Y5088096D01*
X-23392858Y6992858D02*
X-23345239Y7040477D01*
X-23297620Y7183334D01*
X-23297620Y7278572D01*
X-23345239Y7421429D01*
X-23440477Y7516667D01*
X-23535715Y7564286D01*
X-23726191Y7611905D01*
X-23869048Y7611905D01*
X-24059524Y7564286D01*
X-24154762Y7516667D01*
X-24250000Y7421429D01*
X-24297620Y7278572D01*
X-24297620Y7183334D01*
X-24250000Y7040477D01*
X-24202381Y6992858D01*
X-23297620Y6040477D02*
X-23297620Y6611905D01*
X-23297620Y6326191D02*
X-24297620Y6326191D01*
X-24154762Y6421429D01*
X-24059524Y6516667D01*
X-24011905Y6611905D01*
X-23297620Y5088096D02*
X-23297620Y5659524D01*
X-23297620Y5373810D02*
X-24297620Y5373810D01*
X-24154762Y5469048D01*
X-24059524Y5564286D01*
X-24011905Y5659524D01*
X27407142Y6992858D02*
X27454761Y7040477D01*
X27502380Y7183334D01*
X27502380Y7278572D01*
X27454761Y7421429D01*
X27359523Y7516667D01*
X27264285Y7564286D01*
X27073809Y7611905D01*
X26930952Y7611905D01*
X26740476Y7564286D01*
X26645238Y7516667D01*
X26550000Y7421429D01*
X26502380Y7278572D01*
X26502380Y7183334D01*
X26550000Y7040477D01*
X26597619Y6992858D01*
X27502380Y6040477D02*
X27502380Y6611905D01*
X27502380Y6326191D02*
X26502380Y6326191D01*
X26645238Y6421429D01*
X26740476Y6516667D01*
X26788095Y6611905D01*
X26502380Y5421429D02*
X26502380Y5326191D01*
X26550000Y5230953D01*
X26597619Y5183334D01*
X26692857Y5135715D01*
X26883333Y5088096D01*
X27121428Y5088096D01*
X27311904Y5135715D01*
X27407142Y5183334D01*
X27454761Y5230953D01*
X27502380Y5326191D01*
X27502380Y5421429D01*
X27454761Y5516667D01*
X27407142Y5564286D01*
X27311904Y5611905D01*
X27121428Y5659524D01*
X26883333Y5659524D01*
X26692857Y5611905D01*
X26597619Y5564286D01*
X26550000Y5516667D01*
X26502380Y5421429D01*
M02*
