G04 #@! TF.GenerationSoftware,KiCad,Pcbnew,5.1.9+dfsg1-1*
G04 #@! TF.CreationDate,2021-10-27T13:30:09+02:00*
G04 #@! TF.ProjectId,EF44,45463434-2e6b-4696-9361-645f70636258,rev?*
G04 #@! TF.SameCoordinates,Original*
G04 #@! TF.FileFunction,Soldermask,Top*
G04 #@! TF.FilePolarity,Negative*
%FSLAX46Y46*%
G04 Gerber Fmt 4.6, Leading zero omitted, Abs format (unit mm)*
G04 Created by KiCad (PCBNEW 5.1.9+dfsg1-1) date 2021-10-27 13:30:09*
%MOMM*%
%LPD*%
G01*
G04 APERTURE LIST*
%ADD10O,2.000000X3.000000*%
%ADD11O,1.000000X1.000000*%
%ADD12R,1.000000X1.000000*%
%ADD13C,0.100000*%
%ADD14R,1.450000X1.450000*%
%ADD15C,0.650000*%
%ADD16O,0.800000X2.000000*%
%ADD17O,0.800000X1.900000*%
%ADD18R,2.500000X2.500000*%
%ADD19R,1.700000X1.200000*%
%ADD20R,0.700000X1.400000*%
%ADD21O,2.000000X0.800000*%
%ADD22O,1.500000X2.000000*%
%ADD23O,3.200000X2.800000*%
G04 APERTURE END LIST*
G36*
G01*
X8585000Y-43000000D02*
X8585000Y-42200000D01*
G75*
G02*
X9585000Y-41200000I1000000J0D01*
G01*
X9585000Y-41200000D01*
G75*
G02*
X10585000Y-42200000I0J-1000000D01*
G01*
X10585000Y-43000000D01*
G75*
G02*
X9585000Y-44000000I-1000000J0D01*
G01*
X9585000Y-44000000D01*
G75*
G02*
X8585000Y-43000000I0J1000000D01*
G01*
G37*
G36*
G01*
X16085000Y-41800000D02*
X16085000Y-41000000D01*
G75*
G02*
X17085000Y-40000000I1000000J0D01*
G01*
X17085000Y-40000000D01*
G75*
G02*
X18085000Y-41000000I0J-1000000D01*
G01*
X18085000Y-41800000D01*
G75*
G02*
X17085000Y-42800000I-1000000J0D01*
G01*
X17085000Y-42800000D01*
G75*
G02*
X16085000Y-41800000I0J1000000D01*
G01*
G37*
G36*
G01*
X8585000Y22200000D02*
X8585000Y23000000D01*
G75*
G02*
X9585000Y24000000I1000000J0D01*
G01*
X9585000Y24000000D01*
G75*
G02*
X10585000Y23000000I0J-1000000D01*
G01*
X10585000Y22200000D01*
G75*
G02*
X9585000Y21200000I-1000000J0D01*
G01*
X9585000Y21200000D01*
G75*
G02*
X8585000Y22200000I0J1000000D01*
G01*
G37*
G36*
G01*
X16085000Y21000000D02*
X16085000Y21800000D01*
G75*
G02*
X17085000Y22800000I1000000J0D01*
G01*
X17085000Y22800000D01*
G75*
G02*
X18085000Y21800000I0J-1000000D01*
G01*
X18085000Y21000000D01*
G75*
G02*
X17085000Y20000000I-1000000J0D01*
G01*
X17085000Y20000000D01*
G75*
G02*
X16085000Y21000000I0J1000000D01*
G01*
G37*
D10*
X15085000Y-46400000D03*
X11585000Y26400000D03*
X15085000Y26400000D03*
G36*
G01*
X35255000Y-43000000D02*
X35255000Y-42200000D01*
G75*
G02*
X36255000Y-41200000I1000000J0D01*
G01*
X36255000Y-41200000D01*
G75*
G02*
X37255000Y-42200000I0J-1000000D01*
G01*
X37255000Y-43000000D01*
G75*
G02*
X36255000Y-44000000I-1000000J0D01*
G01*
X36255000Y-44000000D01*
G75*
G02*
X35255000Y-43000000I0J1000000D01*
G01*
G37*
G36*
G01*
X42755000Y-41800000D02*
X42755000Y-41000000D01*
G75*
G02*
X43755000Y-40000000I1000000J0D01*
G01*
X43755000Y-40000000D01*
G75*
G02*
X44755000Y-41000000I0J-1000000D01*
G01*
X44755000Y-41800000D01*
G75*
G02*
X43755000Y-42800000I-1000000J0D01*
G01*
X43755000Y-42800000D01*
G75*
G02*
X42755000Y-41800000I0J1000000D01*
G01*
G37*
G36*
G01*
X35255000Y22200000D02*
X35255000Y23000000D01*
G75*
G02*
X36255000Y24000000I1000000J0D01*
G01*
X36255000Y24000000D01*
G75*
G02*
X37255000Y23000000I0J-1000000D01*
G01*
X37255000Y22200000D01*
G75*
G02*
X36255000Y21200000I-1000000J0D01*
G01*
X36255000Y21200000D01*
G75*
G02*
X35255000Y22200000I0J1000000D01*
G01*
G37*
G36*
G01*
X42755000Y21000000D02*
X42755000Y21800000D01*
G75*
G02*
X43755000Y22800000I1000000J0D01*
G01*
X43755000Y22800000D01*
G75*
G02*
X44755000Y21800000I0J-1000000D01*
G01*
X44755000Y21000000D01*
G75*
G02*
X43755000Y20000000I-1000000J0D01*
G01*
X43755000Y20000000D01*
G75*
G02*
X42755000Y21000000I0J1000000D01*
G01*
G37*
X41755000Y-46400000D03*
X38255000Y26400000D03*
X41755000Y26400000D03*
G36*
G01*
X-18085000Y-43000000D02*
X-18085000Y-42200000D01*
G75*
G02*
X-17085000Y-41200000I1000000J0D01*
G01*
X-17085000Y-41200000D01*
G75*
G02*
X-16085000Y-42200000I0J-1000000D01*
G01*
X-16085000Y-43000000D01*
G75*
G02*
X-17085000Y-44000000I-1000000J0D01*
G01*
X-17085000Y-44000000D01*
G75*
G02*
X-18085000Y-43000000I0J1000000D01*
G01*
G37*
G36*
G01*
X-10585000Y-41800000D02*
X-10585000Y-41000000D01*
G75*
G02*
X-9585000Y-40000000I1000000J0D01*
G01*
X-9585000Y-40000000D01*
G75*
G02*
X-8585000Y-41000000I0J-1000000D01*
G01*
X-8585000Y-41800000D01*
G75*
G02*
X-9585000Y-42800000I-1000000J0D01*
G01*
X-9585000Y-42800000D01*
G75*
G02*
X-10585000Y-41800000I0J1000000D01*
G01*
G37*
G36*
G01*
X-18085000Y22200000D02*
X-18085000Y23000000D01*
G75*
G02*
X-17085000Y24000000I1000000J0D01*
G01*
X-17085000Y24000000D01*
G75*
G02*
X-16085000Y23000000I0J-1000000D01*
G01*
X-16085000Y22200000D01*
G75*
G02*
X-17085000Y21200000I-1000000J0D01*
G01*
X-17085000Y21200000D01*
G75*
G02*
X-18085000Y22200000I0J1000000D01*
G01*
G37*
G36*
G01*
X-10585000Y21000000D02*
X-10585000Y21800000D01*
G75*
G02*
X-9585000Y22800000I1000000J0D01*
G01*
X-9585000Y22800000D01*
G75*
G02*
X-8585000Y21800000I0J-1000000D01*
G01*
X-8585000Y21000000D01*
G75*
G02*
X-9585000Y20000000I-1000000J0D01*
G01*
X-9585000Y20000000D01*
G75*
G02*
X-10585000Y21000000I0J1000000D01*
G01*
G37*
X-11585000Y-46400000D03*
X-15085000Y26400000D03*
X-11585000Y26400000D03*
G36*
G01*
X-44755000Y-43000000D02*
X-44755000Y-42200000D01*
G75*
G02*
X-43755000Y-41200000I1000000J0D01*
G01*
X-43755000Y-41200000D01*
G75*
G02*
X-42755000Y-42200000I0J-1000000D01*
G01*
X-42755000Y-43000000D01*
G75*
G02*
X-43755000Y-44000000I-1000000J0D01*
G01*
X-43755000Y-44000000D01*
G75*
G02*
X-44755000Y-43000000I0J1000000D01*
G01*
G37*
G36*
G01*
X-37255000Y-41800000D02*
X-37255000Y-41000000D01*
G75*
G02*
X-36255000Y-40000000I1000000J0D01*
G01*
X-36255000Y-40000000D01*
G75*
G02*
X-35255000Y-41000000I0J-1000000D01*
G01*
X-35255000Y-41800000D01*
G75*
G02*
X-36255000Y-42800000I-1000000J0D01*
G01*
X-36255000Y-42800000D01*
G75*
G02*
X-37255000Y-41800000I0J1000000D01*
G01*
G37*
G36*
G01*
X-44755000Y22200000D02*
X-44755000Y23000000D01*
G75*
G02*
X-43755000Y24000000I1000000J0D01*
G01*
X-43755000Y24000000D01*
G75*
G02*
X-42755000Y23000000I0J-1000000D01*
G01*
X-42755000Y22200000D01*
G75*
G02*
X-43755000Y21200000I-1000000J0D01*
G01*
X-43755000Y21200000D01*
G75*
G02*
X-44755000Y22200000I0J1000000D01*
G01*
G37*
G36*
G01*
X-37255000Y21000000D02*
X-37255000Y21800000D01*
G75*
G02*
X-36255000Y22800000I1000000J0D01*
G01*
X-36255000Y22800000D01*
G75*
G02*
X-35255000Y21800000I0J-1000000D01*
G01*
X-35255000Y21000000D01*
G75*
G02*
X-36255000Y20000000I-1000000J0D01*
G01*
X-36255000Y20000000D01*
G75*
G02*
X-37255000Y21000000I0J1000000D01*
G01*
G37*
X-38255000Y-46400000D03*
X-41755000Y26400000D03*
X-38255000Y26400000D03*
D11*
X-2540000Y14130000D03*
X-2540000Y15400000D03*
X-1270000Y14130000D03*
X-1270000Y15400000D03*
X0Y14130000D03*
X0Y15400000D03*
X1270000Y14130000D03*
X1270000Y15400000D03*
X2540000Y14130000D03*
D12*
X2540000Y15400000D03*
D13*
G36*
X-5000000Y-23225000D02*
G01*
X-4250000Y-23725000D01*
X-4250000Y-24725000D01*
X-5750000Y-24725000D01*
X-5750000Y-23725000D01*
X-5000000Y-23225000D01*
G37*
G36*
X-4250000Y-22275000D02*
G01*
X-4250000Y-23425000D01*
X-5000000Y-22925000D01*
X-5750000Y-23425000D01*
X-5750000Y-22275000D01*
X-4250000Y-22275000D01*
G37*
D14*
X0Y37500000D03*
G36*
G01*
X-875000Y38487500D02*
X-875000Y39037500D01*
G75*
G02*
X-812500Y39100000I62500J0D01*
G01*
X-687500Y39100000D01*
G75*
G02*
X-625000Y39037500I0J-62500D01*
G01*
X-625000Y38487500D01*
G75*
G02*
X-687500Y38425000I-62500J0D01*
G01*
X-812500Y38425000D01*
G75*
G02*
X-875000Y38487500I0J62500D01*
G01*
G37*
G36*
G01*
X-375000Y38487500D02*
X-375000Y39037500D01*
G75*
G02*
X-312500Y39100000I62500J0D01*
G01*
X-187500Y39100000D01*
G75*
G02*
X-125000Y39037500I0J-62500D01*
G01*
X-125000Y38487500D01*
G75*
G02*
X-187500Y38425000I-62500J0D01*
G01*
X-312500Y38425000D01*
G75*
G02*
X-375000Y38487500I0J62500D01*
G01*
G37*
G36*
G01*
X125000Y38487500D02*
X125000Y39037500D01*
G75*
G02*
X187500Y39100000I62500J0D01*
G01*
X312500Y39100000D01*
G75*
G02*
X375000Y39037500I0J-62500D01*
G01*
X375000Y38487500D01*
G75*
G02*
X312500Y38425000I-62500J0D01*
G01*
X187500Y38425000D01*
G75*
G02*
X125000Y38487500I0J62500D01*
G01*
G37*
G36*
G01*
X625000Y38487500D02*
X625000Y39037500D01*
G75*
G02*
X687500Y39100000I62500J0D01*
G01*
X812500Y39100000D01*
G75*
G02*
X875000Y39037500I0J-62500D01*
G01*
X875000Y38487500D01*
G75*
G02*
X812500Y38425000I-62500J0D01*
G01*
X687500Y38425000D01*
G75*
G02*
X625000Y38487500I0J62500D01*
G01*
G37*
G36*
G01*
X925000Y37937500D02*
X925000Y38062500D01*
G75*
G02*
X987500Y38125000I62500J0D01*
G01*
X1537500Y38125000D01*
G75*
G02*
X1600000Y38062500I0J-62500D01*
G01*
X1600000Y37937500D01*
G75*
G02*
X1537500Y37875000I-62500J0D01*
G01*
X987500Y37875000D01*
G75*
G02*
X925000Y37937500I0J62500D01*
G01*
G37*
G36*
G01*
X925000Y37437500D02*
X925000Y37562500D01*
G75*
G02*
X987500Y37625000I62500J0D01*
G01*
X1537500Y37625000D01*
G75*
G02*
X1600000Y37562500I0J-62500D01*
G01*
X1600000Y37437500D01*
G75*
G02*
X1537500Y37375000I-62500J0D01*
G01*
X987500Y37375000D01*
G75*
G02*
X925000Y37437500I0J62500D01*
G01*
G37*
G36*
G01*
X925000Y36937500D02*
X925000Y37062500D01*
G75*
G02*
X987500Y37125000I62500J0D01*
G01*
X1537500Y37125000D01*
G75*
G02*
X1600000Y37062500I0J-62500D01*
G01*
X1600000Y36937500D01*
G75*
G02*
X1537500Y36875000I-62500J0D01*
G01*
X987500Y36875000D01*
G75*
G02*
X925000Y36937500I0J62500D01*
G01*
G37*
G36*
G01*
X625000Y35962500D02*
X625000Y36512500D01*
G75*
G02*
X687500Y36575000I62500J0D01*
G01*
X812500Y36575000D01*
G75*
G02*
X875000Y36512500I0J-62500D01*
G01*
X875000Y35962500D01*
G75*
G02*
X812500Y35900000I-62500J0D01*
G01*
X687500Y35900000D01*
G75*
G02*
X625000Y35962500I0J62500D01*
G01*
G37*
G36*
G01*
X125000Y35962500D02*
X125000Y36512500D01*
G75*
G02*
X187500Y36575000I62500J0D01*
G01*
X312500Y36575000D01*
G75*
G02*
X375000Y36512500I0J-62500D01*
G01*
X375000Y35962500D01*
G75*
G02*
X312500Y35900000I-62500J0D01*
G01*
X187500Y35900000D01*
G75*
G02*
X125000Y35962500I0J62500D01*
G01*
G37*
G36*
G01*
X-375000Y35962500D02*
X-375000Y36512500D01*
G75*
G02*
X-312500Y36575000I62500J0D01*
G01*
X-187500Y36575000D01*
G75*
G02*
X-125000Y36512500I0J-62500D01*
G01*
X-125000Y35962500D01*
G75*
G02*
X-187500Y35900000I-62500J0D01*
G01*
X-312500Y35900000D01*
G75*
G02*
X-375000Y35962500I0J62500D01*
G01*
G37*
G36*
G01*
X-875000Y35962500D02*
X-875000Y36512500D01*
G75*
G02*
X-812500Y36575000I62500J0D01*
G01*
X-687500Y36575000D01*
G75*
G02*
X-625000Y36512500I0J-62500D01*
G01*
X-625000Y35962500D01*
G75*
G02*
X-687500Y35900000I-62500J0D01*
G01*
X-812500Y35900000D01*
G75*
G02*
X-875000Y35962500I0J62500D01*
G01*
G37*
G36*
G01*
X-1600000Y36937500D02*
X-1600000Y37062500D01*
G75*
G02*
X-1537500Y37125000I62500J0D01*
G01*
X-987500Y37125000D01*
G75*
G02*
X-925000Y37062500I0J-62500D01*
G01*
X-925000Y36937500D01*
G75*
G02*
X-987500Y36875000I-62500J0D01*
G01*
X-1537500Y36875000D01*
G75*
G02*
X-1600000Y36937500I0J62500D01*
G01*
G37*
G36*
G01*
X-1600000Y37437500D02*
X-1600000Y37562500D01*
G75*
G02*
X-1537500Y37625000I62500J0D01*
G01*
X-987500Y37625000D01*
G75*
G02*
X-925000Y37562500I0J-62500D01*
G01*
X-925000Y37437500D01*
G75*
G02*
X-987500Y37375000I-62500J0D01*
G01*
X-1537500Y37375000D01*
G75*
G02*
X-1600000Y37437500I0J62500D01*
G01*
G37*
G36*
G01*
X-1600000Y37937500D02*
X-1600000Y38062500D01*
G75*
G02*
X-1537500Y38125000I62500J0D01*
G01*
X-987500Y38125000D01*
G75*
G02*
X-925000Y38062500I0J-62500D01*
G01*
X-925000Y37937500D01*
G75*
G02*
X-987500Y37875000I-62500J0D01*
G01*
X-1537500Y37875000D01*
G75*
G02*
X-1600000Y37937500I0J62500D01*
G01*
G37*
G36*
G01*
X-3456250Y36550000D02*
X-2543750Y36550000D01*
G75*
G02*
X-2300000Y36306250I0J-243750D01*
G01*
X-2300000Y35818750D01*
G75*
G02*
X-2543750Y35575000I-243750J0D01*
G01*
X-3456250Y35575000D01*
G75*
G02*
X-3700000Y35818750I0J243750D01*
G01*
X-3700000Y36306250D01*
G75*
G02*
X-3456250Y36550000I243750J0D01*
G01*
G37*
G36*
G01*
X-3456250Y38425000D02*
X-2543750Y38425000D01*
G75*
G02*
X-2300000Y38181250I0J-243750D01*
G01*
X-2300000Y37693750D01*
G75*
G02*
X-2543750Y37450000I-243750J0D01*
G01*
X-3456250Y37450000D01*
G75*
G02*
X-3700000Y37693750I0J243750D01*
G01*
X-3700000Y38181250D01*
G75*
G02*
X-3456250Y38425000I243750J0D01*
G01*
G37*
G36*
G01*
X2543750Y36550000D02*
X3456250Y36550000D01*
G75*
G02*
X3700000Y36306250I0J-243750D01*
G01*
X3700000Y35818750D01*
G75*
G02*
X3456250Y35575000I-243750J0D01*
G01*
X2543750Y35575000D01*
G75*
G02*
X2300000Y35818750I0J243750D01*
G01*
X2300000Y36306250D01*
G75*
G02*
X2543750Y36550000I243750J0D01*
G01*
G37*
G36*
G01*
X2543750Y38425000D02*
X3456250Y38425000D01*
G75*
G02*
X3700000Y38181250I0J-243750D01*
G01*
X3700000Y37693750D01*
G75*
G02*
X3456250Y37450000I-243750J0D01*
G01*
X2543750Y37450000D01*
G75*
G02*
X2300000Y37693750I0J243750D01*
G01*
X2300000Y38181250D01*
G75*
G02*
X2543750Y38425000I243750J0D01*
G01*
G37*
D15*
X-2890000Y45350000D03*
X2890000Y45350000D03*
D16*
X4320000Y48750000D03*
X-4320000Y48750000D03*
D17*
X-4320000Y44820000D03*
G36*
G01*
X-2150000Y44480000D02*
X-2150000Y43330000D01*
G75*
G02*
X-2300000Y43180000I-150000J0D01*
G01*
X-2600000Y43180000D01*
G75*
G02*
X-2750000Y43330000I0J150000D01*
G01*
X-2750000Y44480000D01*
G75*
G02*
X-2600000Y44630000I150000J0D01*
G01*
X-2300000Y44630000D01*
G75*
G02*
X-2150000Y44480000I0J-150000D01*
G01*
G37*
G36*
G01*
X-600000Y44480000D02*
X-600000Y43330000D01*
G75*
G02*
X-750000Y43180000I-150000J0D01*
G01*
X-750000Y43180000D01*
G75*
G02*
X-900000Y43330000I0J150000D01*
G01*
X-900000Y44480000D01*
G75*
G02*
X-750000Y44630000I150000J0D01*
G01*
X-750000Y44630000D01*
G75*
G02*
X-600000Y44480000I0J-150000D01*
G01*
G37*
G36*
G01*
X-1100000Y44480000D02*
X-1100000Y43330000D01*
G75*
G02*
X-1250000Y43180000I-150000J0D01*
G01*
X-1250000Y43180000D01*
G75*
G02*
X-1400000Y43330000I0J150000D01*
G01*
X-1400000Y44480000D01*
G75*
G02*
X-1250000Y44630000I150000J0D01*
G01*
X-1250000Y44630000D01*
G75*
G02*
X-1100000Y44480000I0J-150000D01*
G01*
G37*
G36*
G01*
X-1600000Y44480000D02*
X-1600000Y43330000D01*
G75*
G02*
X-1750000Y43180000I-150000J0D01*
G01*
X-1750000Y43180000D01*
G75*
G02*
X-1900000Y43330000I0J150000D01*
G01*
X-1900000Y44480000D01*
G75*
G02*
X-1750000Y44630000I150000J0D01*
G01*
X-1750000Y44630000D01*
G75*
G02*
X-1600000Y44480000I0J-150000D01*
G01*
G37*
G36*
G01*
X-2950000Y44480000D02*
X-2950000Y43330000D01*
G75*
G02*
X-3100000Y43180000I-150000J0D01*
G01*
X-3400000Y43180000D01*
G75*
G02*
X-3550000Y43330000I0J150000D01*
G01*
X-3550000Y44480000D01*
G75*
G02*
X-3400000Y44630000I150000J0D01*
G01*
X-3100000Y44630000D01*
G75*
G02*
X-2950000Y44480000I0J-150000D01*
G01*
G37*
G36*
G01*
X-100000Y44480000D02*
X-100000Y43330000D01*
G75*
G02*
X-250000Y43180000I-150000J0D01*
G01*
X-250000Y43180000D01*
G75*
G02*
X-400000Y43330000I0J150000D01*
G01*
X-400000Y44480000D01*
G75*
G02*
X-250000Y44630000I150000J0D01*
G01*
X-250000Y44630000D01*
G75*
G02*
X-100000Y44480000I0J-150000D01*
G01*
G37*
G36*
G01*
X400000Y44480000D02*
X400000Y43330000D01*
G75*
G02*
X250000Y43180000I-150000J0D01*
G01*
X250000Y43180000D01*
G75*
G02*
X100000Y43330000I0J150000D01*
G01*
X100000Y44480000D01*
G75*
G02*
X250000Y44630000I150000J0D01*
G01*
X250000Y44630000D01*
G75*
G02*
X400000Y44480000I0J-150000D01*
G01*
G37*
G36*
G01*
X900000Y44480000D02*
X900000Y43330000D01*
G75*
G02*
X750000Y43180000I-150000J0D01*
G01*
X750000Y43180000D01*
G75*
G02*
X600000Y43330000I0J150000D01*
G01*
X600000Y44480000D01*
G75*
G02*
X750000Y44630000I150000J0D01*
G01*
X750000Y44630000D01*
G75*
G02*
X900000Y44480000I0J-150000D01*
G01*
G37*
G36*
G01*
X1400000Y44480000D02*
X1400000Y43330000D01*
G75*
G02*
X1250000Y43180000I-150000J0D01*
G01*
X1250000Y43180000D01*
G75*
G02*
X1100000Y43330000I0J150000D01*
G01*
X1100000Y44480000D01*
G75*
G02*
X1250000Y44630000I150000J0D01*
G01*
X1250000Y44630000D01*
G75*
G02*
X1400000Y44480000I0J-150000D01*
G01*
G37*
G36*
G01*
X1900000Y44480000D02*
X1900000Y43330000D01*
G75*
G02*
X1750000Y43180000I-150000J0D01*
G01*
X1750000Y43180000D01*
G75*
G02*
X1600000Y43330000I0J150000D01*
G01*
X1600000Y44480000D01*
G75*
G02*
X1750000Y44630000I150000J0D01*
G01*
X1750000Y44630000D01*
G75*
G02*
X1900000Y44480000I0J-150000D01*
G01*
G37*
G36*
G01*
X2750000Y44480000D02*
X2750000Y43330000D01*
G75*
G02*
X2600000Y43180000I-150000J0D01*
G01*
X2300000Y43180000D01*
G75*
G02*
X2150000Y43330000I0J150000D01*
G01*
X2150000Y44480000D01*
G75*
G02*
X2300000Y44630000I150000J0D01*
G01*
X2600000Y44630000D01*
G75*
G02*
X2750000Y44480000I0J-150000D01*
G01*
G37*
G36*
G01*
X3550000Y44480000D02*
X3550000Y43330000D01*
G75*
G02*
X3400000Y43180000I-150000J0D01*
G01*
X3100000Y43180000D01*
G75*
G02*
X2950000Y43330000I0J150000D01*
G01*
X2950000Y44480000D01*
G75*
G02*
X3100000Y44630000I150000J0D01*
G01*
X3400000Y44630000D01*
G75*
G02*
X3550000Y44480000I0J-150000D01*
G01*
G37*
X4320000Y44820000D03*
G36*
G01*
X38505000Y46850000D02*
X38505000Y47300000D01*
G75*
G02*
X38730000Y47525000I225000J0D01*
G01*
X39480000Y47525000D01*
G75*
G02*
X39705000Y47300000I0J-225000D01*
G01*
X39705000Y46850000D01*
G75*
G02*
X39480000Y46625000I-225000J0D01*
G01*
X38730000Y46625000D01*
G75*
G02*
X38505000Y46850000I0J225000D01*
G01*
G37*
G36*
G01*
X40305000Y46850000D02*
X40305000Y47300000D01*
G75*
G02*
X40530000Y47525000I225000J0D01*
G01*
X41280000Y47525000D01*
G75*
G02*
X41505000Y47300000I0J-225000D01*
G01*
X41505000Y46850000D01*
G75*
G02*
X41280000Y46625000I-225000J0D01*
G01*
X40530000Y46625000D01*
G75*
G02*
X40305000Y46850000I0J225000D01*
G01*
G37*
G36*
G01*
X40305000Y47950000D02*
X40305000Y48400000D01*
G75*
G02*
X40530000Y48625000I225000J0D01*
G01*
X41280000Y48625000D01*
G75*
G02*
X41505000Y48400000I0J-225000D01*
G01*
X41505000Y47950000D01*
G75*
G02*
X41280000Y47725000I-225000J0D01*
G01*
X40530000Y47725000D01*
G75*
G02*
X40305000Y47950000I0J225000D01*
G01*
G37*
G36*
G01*
X38505000Y47950000D02*
X38505000Y48400000D01*
G75*
G02*
X38730000Y48625000I225000J0D01*
G01*
X39480000Y48625000D01*
G75*
G02*
X39705000Y48400000I0J-225000D01*
G01*
X39705000Y47950000D01*
G75*
G02*
X39480000Y47725000I-225000J0D01*
G01*
X38730000Y47725000D01*
G75*
G02*
X38505000Y47950000I0J225000D01*
G01*
G37*
D18*
X-32170000Y46490000D03*
X-21170000Y46490000D03*
D16*
X-23170000Y46990000D03*
X-24170000Y46990000D03*
X-25170000Y46990000D03*
X-26170000Y46990000D03*
X-27170000Y46990000D03*
X-28170000Y46990000D03*
X-29170000Y46990000D03*
X-30170000Y46990000D03*
G36*
G01*
X-14835000Y28680000D02*
X-14835000Y29130000D01*
G75*
G02*
X-14610000Y29355000I225000J0D01*
G01*
X-13860000Y29355000D01*
G75*
G02*
X-13635000Y29130000I0J-225000D01*
G01*
X-13635000Y28680000D01*
G75*
G02*
X-13860000Y28455000I-225000J0D01*
G01*
X-14610000Y28455000D01*
G75*
G02*
X-14835000Y28680000I0J225000D01*
G01*
G37*
G36*
G01*
X-13035000Y28680000D02*
X-13035000Y29130000D01*
G75*
G02*
X-12810000Y29355000I225000J0D01*
G01*
X-12060000Y29355000D01*
G75*
G02*
X-11835000Y29130000I0J-225000D01*
G01*
X-11835000Y28680000D01*
G75*
G02*
X-12060000Y28455000I-225000J0D01*
G01*
X-12810000Y28455000D01*
G75*
G02*
X-13035000Y28680000I0J225000D01*
G01*
G37*
G36*
G01*
X-13035000Y29780000D02*
X-13035000Y30230000D01*
G75*
G02*
X-12810000Y30455000I225000J0D01*
G01*
X-12060000Y30455000D01*
G75*
G02*
X-11835000Y30230000I0J-225000D01*
G01*
X-11835000Y29780000D01*
G75*
G02*
X-12060000Y29555000I-225000J0D01*
G01*
X-12810000Y29555000D01*
G75*
G02*
X-13035000Y29780000I0J225000D01*
G01*
G37*
G36*
G01*
X-14835000Y29780000D02*
X-14835000Y30230000D01*
G75*
G02*
X-14610000Y30455000I225000J0D01*
G01*
X-13860000Y30455000D01*
G75*
G02*
X-13635000Y30230000I0J-225000D01*
G01*
X-13635000Y29780000D01*
G75*
G02*
X-13860000Y29555000I-225000J0D01*
G01*
X-14610000Y29555000D01*
G75*
G02*
X-14835000Y29780000I0J225000D01*
G01*
G37*
G36*
G01*
X-1900000Y-47800000D02*
X-2400000Y-47800000D01*
G75*
G02*
X-2650000Y-47550000I0J250000D01*
G01*
X-2650000Y-46250000D01*
G75*
G02*
X-2400000Y-46000000I250000J0D01*
G01*
X-1900000Y-46000000D01*
G75*
G02*
X-1650000Y-46250000I0J-250000D01*
G01*
X-1650000Y-47550000D01*
G75*
G02*
X-1900000Y-47800000I-250000J0D01*
G01*
G37*
G36*
G01*
X2400000Y-47800000D02*
X1900000Y-47800000D01*
G75*
G02*
X1650000Y-47550000I0J250000D01*
G01*
X1650000Y-46250000D01*
G75*
G02*
X1900000Y-46000000I250000J0D01*
G01*
X2400000Y-46000000D01*
G75*
G02*
X2650000Y-46250000I0J-250000D01*
G01*
X2650000Y-47550000D01*
G75*
G02*
X2400000Y-47800000I-250000J0D01*
G01*
G37*
D19*
X0Y-44800000D03*
D20*
X-1700000Y-45100000D03*
X1700000Y-45100000D03*
G36*
G01*
X-6150000Y7000000D02*
X-6150000Y8325000D01*
G75*
G02*
X-6075000Y8400000I75000J0D01*
G01*
X-5925000Y8400000D01*
G75*
G02*
X-5850000Y8325000I0J-75000D01*
G01*
X-5850000Y7000000D01*
G75*
G02*
X-5925000Y6925000I-75000J0D01*
G01*
X-6075000Y6925000D01*
G75*
G02*
X-6150000Y7000000I0J75000D01*
G01*
G37*
G36*
G01*
X-5650000Y7000000D02*
X-5650000Y8325000D01*
G75*
G02*
X-5575000Y8400000I75000J0D01*
G01*
X-5425000Y8400000D01*
G75*
G02*
X-5350000Y8325000I0J-75000D01*
G01*
X-5350000Y7000000D01*
G75*
G02*
X-5425000Y6925000I-75000J0D01*
G01*
X-5575000Y6925000D01*
G75*
G02*
X-5650000Y7000000I0J75000D01*
G01*
G37*
G36*
G01*
X-5150000Y7000000D02*
X-5150000Y8325000D01*
G75*
G02*
X-5075000Y8400000I75000J0D01*
G01*
X-4925000Y8400000D01*
G75*
G02*
X-4850000Y8325000I0J-75000D01*
G01*
X-4850000Y7000000D01*
G75*
G02*
X-4925000Y6925000I-75000J0D01*
G01*
X-5075000Y6925000D01*
G75*
G02*
X-5150000Y7000000I0J75000D01*
G01*
G37*
G36*
G01*
X-4650000Y7000000D02*
X-4650000Y8325000D01*
G75*
G02*
X-4575000Y8400000I75000J0D01*
G01*
X-4425000Y8400000D01*
G75*
G02*
X-4350000Y8325000I0J-75000D01*
G01*
X-4350000Y7000000D01*
G75*
G02*
X-4425000Y6925000I-75000J0D01*
G01*
X-4575000Y6925000D01*
G75*
G02*
X-4650000Y7000000I0J75000D01*
G01*
G37*
G36*
G01*
X-4150000Y7000000D02*
X-4150000Y8325000D01*
G75*
G02*
X-4075000Y8400000I75000J0D01*
G01*
X-3925000Y8400000D01*
G75*
G02*
X-3850000Y8325000I0J-75000D01*
G01*
X-3850000Y7000000D01*
G75*
G02*
X-3925000Y6925000I-75000J0D01*
G01*
X-4075000Y6925000D01*
G75*
G02*
X-4150000Y7000000I0J75000D01*
G01*
G37*
G36*
G01*
X-3650000Y7000000D02*
X-3650000Y8325000D01*
G75*
G02*
X-3575000Y8400000I75000J0D01*
G01*
X-3425000Y8400000D01*
G75*
G02*
X-3350000Y8325000I0J-75000D01*
G01*
X-3350000Y7000000D01*
G75*
G02*
X-3425000Y6925000I-75000J0D01*
G01*
X-3575000Y6925000D01*
G75*
G02*
X-3650000Y7000000I0J75000D01*
G01*
G37*
G36*
G01*
X-3150000Y7000000D02*
X-3150000Y8325000D01*
G75*
G02*
X-3075000Y8400000I75000J0D01*
G01*
X-2925000Y8400000D01*
G75*
G02*
X-2850000Y8325000I0J-75000D01*
G01*
X-2850000Y7000000D01*
G75*
G02*
X-2925000Y6925000I-75000J0D01*
G01*
X-3075000Y6925000D01*
G75*
G02*
X-3150000Y7000000I0J75000D01*
G01*
G37*
G36*
G01*
X-2650000Y7000000D02*
X-2650000Y8325000D01*
G75*
G02*
X-2575000Y8400000I75000J0D01*
G01*
X-2425000Y8400000D01*
G75*
G02*
X-2350000Y8325000I0J-75000D01*
G01*
X-2350000Y7000000D01*
G75*
G02*
X-2425000Y6925000I-75000J0D01*
G01*
X-2575000Y6925000D01*
G75*
G02*
X-2650000Y7000000I0J75000D01*
G01*
G37*
G36*
G01*
X-2150000Y7000000D02*
X-2150000Y8325000D01*
G75*
G02*
X-2075000Y8400000I75000J0D01*
G01*
X-1925000Y8400000D01*
G75*
G02*
X-1850000Y8325000I0J-75000D01*
G01*
X-1850000Y7000000D01*
G75*
G02*
X-1925000Y6925000I-75000J0D01*
G01*
X-2075000Y6925000D01*
G75*
G02*
X-2150000Y7000000I0J75000D01*
G01*
G37*
G36*
G01*
X-1650000Y7000000D02*
X-1650000Y8325000D01*
G75*
G02*
X-1575000Y8400000I75000J0D01*
G01*
X-1425000Y8400000D01*
G75*
G02*
X-1350000Y8325000I0J-75000D01*
G01*
X-1350000Y7000000D01*
G75*
G02*
X-1425000Y6925000I-75000J0D01*
G01*
X-1575000Y6925000D01*
G75*
G02*
X-1650000Y7000000I0J75000D01*
G01*
G37*
G36*
G01*
X-1150000Y7000000D02*
X-1150000Y8325000D01*
G75*
G02*
X-1075000Y8400000I75000J0D01*
G01*
X-925000Y8400000D01*
G75*
G02*
X-850000Y8325000I0J-75000D01*
G01*
X-850000Y7000000D01*
G75*
G02*
X-925000Y6925000I-75000J0D01*
G01*
X-1075000Y6925000D01*
G75*
G02*
X-1150000Y7000000I0J75000D01*
G01*
G37*
G36*
G01*
X-650000Y7000000D02*
X-650000Y8325000D01*
G75*
G02*
X-575000Y8400000I75000J0D01*
G01*
X-425000Y8400000D01*
G75*
G02*
X-350000Y8325000I0J-75000D01*
G01*
X-350000Y7000000D01*
G75*
G02*
X-425000Y6925000I-75000J0D01*
G01*
X-575000Y6925000D01*
G75*
G02*
X-650000Y7000000I0J75000D01*
G01*
G37*
G36*
G01*
X-150000Y7000000D02*
X-150000Y8325000D01*
G75*
G02*
X-75000Y8400000I75000J0D01*
G01*
X75000Y8400000D01*
G75*
G02*
X150000Y8325000I0J-75000D01*
G01*
X150000Y7000000D01*
G75*
G02*
X75000Y6925000I-75000J0D01*
G01*
X-75000Y6925000D01*
G75*
G02*
X-150000Y7000000I0J75000D01*
G01*
G37*
G36*
G01*
X350000Y7000000D02*
X350000Y8325000D01*
G75*
G02*
X425000Y8400000I75000J0D01*
G01*
X575000Y8400000D01*
G75*
G02*
X650000Y8325000I0J-75000D01*
G01*
X650000Y7000000D01*
G75*
G02*
X575000Y6925000I-75000J0D01*
G01*
X425000Y6925000D01*
G75*
G02*
X350000Y7000000I0J75000D01*
G01*
G37*
G36*
G01*
X850000Y7000000D02*
X850000Y8325000D01*
G75*
G02*
X925000Y8400000I75000J0D01*
G01*
X1075000Y8400000D01*
G75*
G02*
X1150000Y8325000I0J-75000D01*
G01*
X1150000Y7000000D01*
G75*
G02*
X1075000Y6925000I-75000J0D01*
G01*
X925000Y6925000D01*
G75*
G02*
X850000Y7000000I0J75000D01*
G01*
G37*
G36*
G01*
X1350000Y7000000D02*
X1350000Y8325000D01*
G75*
G02*
X1425000Y8400000I75000J0D01*
G01*
X1575000Y8400000D01*
G75*
G02*
X1650000Y8325000I0J-75000D01*
G01*
X1650000Y7000000D01*
G75*
G02*
X1575000Y6925000I-75000J0D01*
G01*
X1425000Y6925000D01*
G75*
G02*
X1350000Y7000000I0J75000D01*
G01*
G37*
G36*
G01*
X1850000Y7000000D02*
X1850000Y8325000D01*
G75*
G02*
X1925000Y8400000I75000J0D01*
G01*
X2075000Y8400000D01*
G75*
G02*
X2150000Y8325000I0J-75000D01*
G01*
X2150000Y7000000D01*
G75*
G02*
X2075000Y6925000I-75000J0D01*
G01*
X1925000Y6925000D01*
G75*
G02*
X1850000Y7000000I0J75000D01*
G01*
G37*
G36*
G01*
X2350000Y7000000D02*
X2350000Y8325000D01*
G75*
G02*
X2425000Y8400000I75000J0D01*
G01*
X2575000Y8400000D01*
G75*
G02*
X2650000Y8325000I0J-75000D01*
G01*
X2650000Y7000000D01*
G75*
G02*
X2575000Y6925000I-75000J0D01*
G01*
X2425000Y6925000D01*
G75*
G02*
X2350000Y7000000I0J75000D01*
G01*
G37*
G36*
G01*
X2850000Y7000000D02*
X2850000Y8325000D01*
G75*
G02*
X2925000Y8400000I75000J0D01*
G01*
X3075000Y8400000D01*
G75*
G02*
X3150000Y8325000I0J-75000D01*
G01*
X3150000Y7000000D01*
G75*
G02*
X3075000Y6925000I-75000J0D01*
G01*
X2925000Y6925000D01*
G75*
G02*
X2850000Y7000000I0J75000D01*
G01*
G37*
G36*
G01*
X3350000Y7000000D02*
X3350000Y8325000D01*
G75*
G02*
X3425000Y8400000I75000J0D01*
G01*
X3575000Y8400000D01*
G75*
G02*
X3650000Y8325000I0J-75000D01*
G01*
X3650000Y7000000D01*
G75*
G02*
X3575000Y6925000I-75000J0D01*
G01*
X3425000Y6925000D01*
G75*
G02*
X3350000Y7000000I0J75000D01*
G01*
G37*
G36*
G01*
X3850000Y7000000D02*
X3850000Y8325000D01*
G75*
G02*
X3925000Y8400000I75000J0D01*
G01*
X4075000Y8400000D01*
G75*
G02*
X4150000Y8325000I0J-75000D01*
G01*
X4150000Y7000000D01*
G75*
G02*
X4075000Y6925000I-75000J0D01*
G01*
X3925000Y6925000D01*
G75*
G02*
X3850000Y7000000I0J75000D01*
G01*
G37*
G36*
G01*
X4350000Y7000000D02*
X4350000Y8325000D01*
G75*
G02*
X4425000Y8400000I75000J0D01*
G01*
X4575000Y8400000D01*
G75*
G02*
X4650000Y8325000I0J-75000D01*
G01*
X4650000Y7000000D01*
G75*
G02*
X4575000Y6925000I-75000J0D01*
G01*
X4425000Y6925000D01*
G75*
G02*
X4350000Y7000000I0J75000D01*
G01*
G37*
G36*
G01*
X4850000Y7000000D02*
X4850000Y8325000D01*
G75*
G02*
X4925000Y8400000I75000J0D01*
G01*
X5075000Y8400000D01*
G75*
G02*
X5150000Y8325000I0J-75000D01*
G01*
X5150000Y7000000D01*
G75*
G02*
X5075000Y6925000I-75000J0D01*
G01*
X4925000Y6925000D01*
G75*
G02*
X4850000Y7000000I0J75000D01*
G01*
G37*
G36*
G01*
X5350000Y7000000D02*
X5350000Y8325000D01*
G75*
G02*
X5425000Y8400000I75000J0D01*
G01*
X5575000Y8400000D01*
G75*
G02*
X5650000Y8325000I0J-75000D01*
G01*
X5650000Y7000000D01*
G75*
G02*
X5575000Y6925000I-75000J0D01*
G01*
X5425000Y6925000D01*
G75*
G02*
X5350000Y7000000I0J75000D01*
G01*
G37*
G36*
G01*
X5850000Y7000000D02*
X5850000Y8325000D01*
G75*
G02*
X5925000Y8400000I75000J0D01*
G01*
X6075000Y8400000D01*
G75*
G02*
X6150000Y8325000I0J-75000D01*
G01*
X6150000Y7000000D01*
G75*
G02*
X6075000Y6925000I-75000J0D01*
G01*
X5925000Y6925000D01*
G75*
G02*
X5850000Y7000000I0J75000D01*
G01*
G37*
G36*
G01*
X6925000Y5925000D02*
X6925000Y6075000D01*
G75*
G02*
X7000000Y6150000I75000J0D01*
G01*
X8325000Y6150000D01*
G75*
G02*
X8400000Y6075000I0J-75000D01*
G01*
X8400000Y5925000D01*
G75*
G02*
X8325000Y5850000I-75000J0D01*
G01*
X7000000Y5850000D01*
G75*
G02*
X6925000Y5925000I0J75000D01*
G01*
G37*
G36*
G01*
X6925000Y5425000D02*
X6925000Y5575000D01*
G75*
G02*
X7000000Y5650000I75000J0D01*
G01*
X8325000Y5650000D01*
G75*
G02*
X8400000Y5575000I0J-75000D01*
G01*
X8400000Y5425000D01*
G75*
G02*
X8325000Y5350000I-75000J0D01*
G01*
X7000000Y5350000D01*
G75*
G02*
X6925000Y5425000I0J75000D01*
G01*
G37*
G36*
G01*
X6925000Y4925000D02*
X6925000Y5075000D01*
G75*
G02*
X7000000Y5150000I75000J0D01*
G01*
X8325000Y5150000D01*
G75*
G02*
X8400000Y5075000I0J-75000D01*
G01*
X8400000Y4925000D01*
G75*
G02*
X8325000Y4850000I-75000J0D01*
G01*
X7000000Y4850000D01*
G75*
G02*
X6925000Y4925000I0J75000D01*
G01*
G37*
G36*
G01*
X6925000Y4425000D02*
X6925000Y4575000D01*
G75*
G02*
X7000000Y4650000I75000J0D01*
G01*
X8325000Y4650000D01*
G75*
G02*
X8400000Y4575000I0J-75000D01*
G01*
X8400000Y4425000D01*
G75*
G02*
X8325000Y4350000I-75000J0D01*
G01*
X7000000Y4350000D01*
G75*
G02*
X6925000Y4425000I0J75000D01*
G01*
G37*
G36*
G01*
X6925000Y3925000D02*
X6925000Y4075000D01*
G75*
G02*
X7000000Y4150000I75000J0D01*
G01*
X8325000Y4150000D01*
G75*
G02*
X8400000Y4075000I0J-75000D01*
G01*
X8400000Y3925000D01*
G75*
G02*
X8325000Y3850000I-75000J0D01*
G01*
X7000000Y3850000D01*
G75*
G02*
X6925000Y3925000I0J75000D01*
G01*
G37*
G36*
G01*
X6925000Y3425000D02*
X6925000Y3575000D01*
G75*
G02*
X7000000Y3650000I75000J0D01*
G01*
X8325000Y3650000D01*
G75*
G02*
X8400000Y3575000I0J-75000D01*
G01*
X8400000Y3425000D01*
G75*
G02*
X8325000Y3350000I-75000J0D01*
G01*
X7000000Y3350000D01*
G75*
G02*
X6925000Y3425000I0J75000D01*
G01*
G37*
G36*
G01*
X6925000Y2925000D02*
X6925000Y3075000D01*
G75*
G02*
X7000000Y3150000I75000J0D01*
G01*
X8325000Y3150000D01*
G75*
G02*
X8400000Y3075000I0J-75000D01*
G01*
X8400000Y2925000D01*
G75*
G02*
X8325000Y2850000I-75000J0D01*
G01*
X7000000Y2850000D01*
G75*
G02*
X6925000Y2925000I0J75000D01*
G01*
G37*
G36*
G01*
X6925000Y2425000D02*
X6925000Y2575000D01*
G75*
G02*
X7000000Y2650000I75000J0D01*
G01*
X8325000Y2650000D01*
G75*
G02*
X8400000Y2575000I0J-75000D01*
G01*
X8400000Y2425000D01*
G75*
G02*
X8325000Y2350000I-75000J0D01*
G01*
X7000000Y2350000D01*
G75*
G02*
X6925000Y2425000I0J75000D01*
G01*
G37*
G36*
G01*
X6925000Y1925000D02*
X6925000Y2075000D01*
G75*
G02*
X7000000Y2150000I75000J0D01*
G01*
X8325000Y2150000D01*
G75*
G02*
X8400000Y2075000I0J-75000D01*
G01*
X8400000Y1925000D01*
G75*
G02*
X8325000Y1850000I-75000J0D01*
G01*
X7000000Y1850000D01*
G75*
G02*
X6925000Y1925000I0J75000D01*
G01*
G37*
G36*
G01*
X6925000Y1425000D02*
X6925000Y1575000D01*
G75*
G02*
X7000000Y1650000I75000J0D01*
G01*
X8325000Y1650000D01*
G75*
G02*
X8400000Y1575000I0J-75000D01*
G01*
X8400000Y1425000D01*
G75*
G02*
X8325000Y1350000I-75000J0D01*
G01*
X7000000Y1350000D01*
G75*
G02*
X6925000Y1425000I0J75000D01*
G01*
G37*
G36*
G01*
X6925000Y925000D02*
X6925000Y1075000D01*
G75*
G02*
X7000000Y1150000I75000J0D01*
G01*
X8325000Y1150000D01*
G75*
G02*
X8400000Y1075000I0J-75000D01*
G01*
X8400000Y925000D01*
G75*
G02*
X8325000Y850000I-75000J0D01*
G01*
X7000000Y850000D01*
G75*
G02*
X6925000Y925000I0J75000D01*
G01*
G37*
G36*
G01*
X6925000Y425000D02*
X6925000Y575000D01*
G75*
G02*
X7000000Y650000I75000J0D01*
G01*
X8325000Y650000D01*
G75*
G02*
X8400000Y575000I0J-75000D01*
G01*
X8400000Y425000D01*
G75*
G02*
X8325000Y350000I-75000J0D01*
G01*
X7000000Y350000D01*
G75*
G02*
X6925000Y425000I0J75000D01*
G01*
G37*
G36*
G01*
X6925000Y-75000D02*
X6925000Y75000D01*
G75*
G02*
X7000000Y150000I75000J0D01*
G01*
X8325000Y150000D01*
G75*
G02*
X8400000Y75000I0J-75000D01*
G01*
X8400000Y-75000D01*
G75*
G02*
X8325000Y-150000I-75000J0D01*
G01*
X7000000Y-150000D01*
G75*
G02*
X6925000Y-75000I0J75000D01*
G01*
G37*
G36*
G01*
X6925000Y-575000D02*
X6925000Y-425000D01*
G75*
G02*
X7000000Y-350000I75000J0D01*
G01*
X8325000Y-350000D01*
G75*
G02*
X8400000Y-425000I0J-75000D01*
G01*
X8400000Y-575000D01*
G75*
G02*
X8325000Y-650000I-75000J0D01*
G01*
X7000000Y-650000D01*
G75*
G02*
X6925000Y-575000I0J75000D01*
G01*
G37*
G36*
G01*
X6925000Y-1075000D02*
X6925000Y-925000D01*
G75*
G02*
X7000000Y-850000I75000J0D01*
G01*
X8325000Y-850000D01*
G75*
G02*
X8400000Y-925000I0J-75000D01*
G01*
X8400000Y-1075000D01*
G75*
G02*
X8325000Y-1150000I-75000J0D01*
G01*
X7000000Y-1150000D01*
G75*
G02*
X6925000Y-1075000I0J75000D01*
G01*
G37*
G36*
G01*
X6925000Y-1575000D02*
X6925000Y-1425000D01*
G75*
G02*
X7000000Y-1350000I75000J0D01*
G01*
X8325000Y-1350000D01*
G75*
G02*
X8400000Y-1425000I0J-75000D01*
G01*
X8400000Y-1575000D01*
G75*
G02*
X8325000Y-1650000I-75000J0D01*
G01*
X7000000Y-1650000D01*
G75*
G02*
X6925000Y-1575000I0J75000D01*
G01*
G37*
G36*
G01*
X6925000Y-2075000D02*
X6925000Y-1925000D01*
G75*
G02*
X7000000Y-1850000I75000J0D01*
G01*
X8325000Y-1850000D01*
G75*
G02*
X8400000Y-1925000I0J-75000D01*
G01*
X8400000Y-2075000D01*
G75*
G02*
X8325000Y-2150000I-75000J0D01*
G01*
X7000000Y-2150000D01*
G75*
G02*
X6925000Y-2075000I0J75000D01*
G01*
G37*
G36*
G01*
X6925000Y-2575000D02*
X6925000Y-2425000D01*
G75*
G02*
X7000000Y-2350000I75000J0D01*
G01*
X8325000Y-2350000D01*
G75*
G02*
X8400000Y-2425000I0J-75000D01*
G01*
X8400000Y-2575000D01*
G75*
G02*
X8325000Y-2650000I-75000J0D01*
G01*
X7000000Y-2650000D01*
G75*
G02*
X6925000Y-2575000I0J75000D01*
G01*
G37*
G36*
G01*
X6925000Y-3075000D02*
X6925000Y-2925000D01*
G75*
G02*
X7000000Y-2850000I75000J0D01*
G01*
X8325000Y-2850000D01*
G75*
G02*
X8400000Y-2925000I0J-75000D01*
G01*
X8400000Y-3075000D01*
G75*
G02*
X8325000Y-3150000I-75000J0D01*
G01*
X7000000Y-3150000D01*
G75*
G02*
X6925000Y-3075000I0J75000D01*
G01*
G37*
G36*
G01*
X6925000Y-3575000D02*
X6925000Y-3425000D01*
G75*
G02*
X7000000Y-3350000I75000J0D01*
G01*
X8325000Y-3350000D01*
G75*
G02*
X8400000Y-3425000I0J-75000D01*
G01*
X8400000Y-3575000D01*
G75*
G02*
X8325000Y-3650000I-75000J0D01*
G01*
X7000000Y-3650000D01*
G75*
G02*
X6925000Y-3575000I0J75000D01*
G01*
G37*
G36*
G01*
X6925000Y-4075000D02*
X6925000Y-3925000D01*
G75*
G02*
X7000000Y-3850000I75000J0D01*
G01*
X8325000Y-3850000D01*
G75*
G02*
X8400000Y-3925000I0J-75000D01*
G01*
X8400000Y-4075000D01*
G75*
G02*
X8325000Y-4150000I-75000J0D01*
G01*
X7000000Y-4150000D01*
G75*
G02*
X6925000Y-4075000I0J75000D01*
G01*
G37*
G36*
G01*
X6925000Y-4575000D02*
X6925000Y-4425000D01*
G75*
G02*
X7000000Y-4350000I75000J0D01*
G01*
X8325000Y-4350000D01*
G75*
G02*
X8400000Y-4425000I0J-75000D01*
G01*
X8400000Y-4575000D01*
G75*
G02*
X8325000Y-4650000I-75000J0D01*
G01*
X7000000Y-4650000D01*
G75*
G02*
X6925000Y-4575000I0J75000D01*
G01*
G37*
G36*
G01*
X6925000Y-5075000D02*
X6925000Y-4925000D01*
G75*
G02*
X7000000Y-4850000I75000J0D01*
G01*
X8325000Y-4850000D01*
G75*
G02*
X8400000Y-4925000I0J-75000D01*
G01*
X8400000Y-5075000D01*
G75*
G02*
X8325000Y-5150000I-75000J0D01*
G01*
X7000000Y-5150000D01*
G75*
G02*
X6925000Y-5075000I0J75000D01*
G01*
G37*
G36*
G01*
X6925000Y-5575000D02*
X6925000Y-5425000D01*
G75*
G02*
X7000000Y-5350000I75000J0D01*
G01*
X8325000Y-5350000D01*
G75*
G02*
X8400000Y-5425000I0J-75000D01*
G01*
X8400000Y-5575000D01*
G75*
G02*
X8325000Y-5650000I-75000J0D01*
G01*
X7000000Y-5650000D01*
G75*
G02*
X6925000Y-5575000I0J75000D01*
G01*
G37*
G36*
G01*
X6925000Y-6075000D02*
X6925000Y-5925000D01*
G75*
G02*
X7000000Y-5850000I75000J0D01*
G01*
X8325000Y-5850000D01*
G75*
G02*
X8400000Y-5925000I0J-75000D01*
G01*
X8400000Y-6075000D01*
G75*
G02*
X8325000Y-6150000I-75000J0D01*
G01*
X7000000Y-6150000D01*
G75*
G02*
X6925000Y-6075000I0J75000D01*
G01*
G37*
G36*
G01*
X5850000Y-8325000D02*
X5850000Y-7000000D01*
G75*
G02*
X5925000Y-6925000I75000J0D01*
G01*
X6075000Y-6925000D01*
G75*
G02*
X6150000Y-7000000I0J-75000D01*
G01*
X6150000Y-8325000D01*
G75*
G02*
X6075000Y-8400000I-75000J0D01*
G01*
X5925000Y-8400000D01*
G75*
G02*
X5850000Y-8325000I0J75000D01*
G01*
G37*
G36*
G01*
X5350000Y-8325000D02*
X5350000Y-7000000D01*
G75*
G02*
X5425000Y-6925000I75000J0D01*
G01*
X5575000Y-6925000D01*
G75*
G02*
X5650000Y-7000000I0J-75000D01*
G01*
X5650000Y-8325000D01*
G75*
G02*
X5575000Y-8400000I-75000J0D01*
G01*
X5425000Y-8400000D01*
G75*
G02*
X5350000Y-8325000I0J75000D01*
G01*
G37*
G36*
G01*
X4850000Y-8325000D02*
X4850000Y-7000000D01*
G75*
G02*
X4925000Y-6925000I75000J0D01*
G01*
X5075000Y-6925000D01*
G75*
G02*
X5150000Y-7000000I0J-75000D01*
G01*
X5150000Y-8325000D01*
G75*
G02*
X5075000Y-8400000I-75000J0D01*
G01*
X4925000Y-8400000D01*
G75*
G02*
X4850000Y-8325000I0J75000D01*
G01*
G37*
G36*
G01*
X4350000Y-8325000D02*
X4350000Y-7000000D01*
G75*
G02*
X4425000Y-6925000I75000J0D01*
G01*
X4575000Y-6925000D01*
G75*
G02*
X4650000Y-7000000I0J-75000D01*
G01*
X4650000Y-8325000D01*
G75*
G02*
X4575000Y-8400000I-75000J0D01*
G01*
X4425000Y-8400000D01*
G75*
G02*
X4350000Y-8325000I0J75000D01*
G01*
G37*
G36*
G01*
X3850000Y-8325000D02*
X3850000Y-7000000D01*
G75*
G02*
X3925000Y-6925000I75000J0D01*
G01*
X4075000Y-6925000D01*
G75*
G02*
X4150000Y-7000000I0J-75000D01*
G01*
X4150000Y-8325000D01*
G75*
G02*
X4075000Y-8400000I-75000J0D01*
G01*
X3925000Y-8400000D01*
G75*
G02*
X3850000Y-8325000I0J75000D01*
G01*
G37*
G36*
G01*
X3350000Y-8325000D02*
X3350000Y-7000000D01*
G75*
G02*
X3425000Y-6925000I75000J0D01*
G01*
X3575000Y-6925000D01*
G75*
G02*
X3650000Y-7000000I0J-75000D01*
G01*
X3650000Y-8325000D01*
G75*
G02*
X3575000Y-8400000I-75000J0D01*
G01*
X3425000Y-8400000D01*
G75*
G02*
X3350000Y-8325000I0J75000D01*
G01*
G37*
G36*
G01*
X2850000Y-8325000D02*
X2850000Y-7000000D01*
G75*
G02*
X2925000Y-6925000I75000J0D01*
G01*
X3075000Y-6925000D01*
G75*
G02*
X3150000Y-7000000I0J-75000D01*
G01*
X3150000Y-8325000D01*
G75*
G02*
X3075000Y-8400000I-75000J0D01*
G01*
X2925000Y-8400000D01*
G75*
G02*
X2850000Y-8325000I0J75000D01*
G01*
G37*
G36*
G01*
X2350000Y-8325000D02*
X2350000Y-7000000D01*
G75*
G02*
X2425000Y-6925000I75000J0D01*
G01*
X2575000Y-6925000D01*
G75*
G02*
X2650000Y-7000000I0J-75000D01*
G01*
X2650000Y-8325000D01*
G75*
G02*
X2575000Y-8400000I-75000J0D01*
G01*
X2425000Y-8400000D01*
G75*
G02*
X2350000Y-8325000I0J75000D01*
G01*
G37*
G36*
G01*
X1850000Y-8325000D02*
X1850000Y-7000000D01*
G75*
G02*
X1925000Y-6925000I75000J0D01*
G01*
X2075000Y-6925000D01*
G75*
G02*
X2150000Y-7000000I0J-75000D01*
G01*
X2150000Y-8325000D01*
G75*
G02*
X2075000Y-8400000I-75000J0D01*
G01*
X1925000Y-8400000D01*
G75*
G02*
X1850000Y-8325000I0J75000D01*
G01*
G37*
G36*
G01*
X1350000Y-8325000D02*
X1350000Y-7000000D01*
G75*
G02*
X1425000Y-6925000I75000J0D01*
G01*
X1575000Y-6925000D01*
G75*
G02*
X1650000Y-7000000I0J-75000D01*
G01*
X1650000Y-8325000D01*
G75*
G02*
X1575000Y-8400000I-75000J0D01*
G01*
X1425000Y-8400000D01*
G75*
G02*
X1350000Y-8325000I0J75000D01*
G01*
G37*
G36*
G01*
X850000Y-8325000D02*
X850000Y-7000000D01*
G75*
G02*
X925000Y-6925000I75000J0D01*
G01*
X1075000Y-6925000D01*
G75*
G02*
X1150000Y-7000000I0J-75000D01*
G01*
X1150000Y-8325000D01*
G75*
G02*
X1075000Y-8400000I-75000J0D01*
G01*
X925000Y-8400000D01*
G75*
G02*
X850000Y-8325000I0J75000D01*
G01*
G37*
G36*
G01*
X350000Y-8325000D02*
X350000Y-7000000D01*
G75*
G02*
X425000Y-6925000I75000J0D01*
G01*
X575000Y-6925000D01*
G75*
G02*
X650000Y-7000000I0J-75000D01*
G01*
X650000Y-8325000D01*
G75*
G02*
X575000Y-8400000I-75000J0D01*
G01*
X425000Y-8400000D01*
G75*
G02*
X350000Y-8325000I0J75000D01*
G01*
G37*
G36*
G01*
X-150000Y-8325000D02*
X-150000Y-7000000D01*
G75*
G02*
X-75000Y-6925000I75000J0D01*
G01*
X75000Y-6925000D01*
G75*
G02*
X150000Y-7000000I0J-75000D01*
G01*
X150000Y-8325000D01*
G75*
G02*
X75000Y-8400000I-75000J0D01*
G01*
X-75000Y-8400000D01*
G75*
G02*
X-150000Y-8325000I0J75000D01*
G01*
G37*
G36*
G01*
X-650000Y-8325000D02*
X-650000Y-7000000D01*
G75*
G02*
X-575000Y-6925000I75000J0D01*
G01*
X-425000Y-6925000D01*
G75*
G02*
X-350000Y-7000000I0J-75000D01*
G01*
X-350000Y-8325000D01*
G75*
G02*
X-425000Y-8400000I-75000J0D01*
G01*
X-575000Y-8400000D01*
G75*
G02*
X-650000Y-8325000I0J75000D01*
G01*
G37*
G36*
G01*
X-1150000Y-8325000D02*
X-1150000Y-7000000D01*
G75*
G02*
X-1075000Y-6925000I75000J0D01*
G01*
X-925000Y-6925000D01*
G75*
G02*
X-850000Y-7000000I0J-75000D01*
G01*
X-850000Y-8325000D01*
G75*
G02*
X-925000Y-8400000I-75000J0D01*
G01*
X-1075000Y-8400000D01*
G75*
G02*
X-1150000Y-8325000I0J75000D01*
G01*
G37*
G36*
G01*
X-1650000Y-8325000D02*
X-1650000Y-7000000D01*
G75*
G02*
X-1575000Y-6925000I75000J0D01*
G01*
X-1425000Y-6925000D01*
G75*
G02*
X-1350000Y-7000000I0J-75000D01*
G01*
X-1350000Y-8325000D01*
G75*
G02*
X-1425000Y-8400000I-75000J0D01*
G01*
X-1575000Y-8400000D01*
G75*
G02*
X-1650000Y-8325000I0J75000D01*
G01*
G37*
G36*
G01*
X-2150000Y-8325000D02*
X-2150000Y-7000000D01*
G75*
G02*
X-2075000Y-6925000I75000J0D01*
G01*
X-1925000Y-6925000D01*
G75*
G02*
X-1850000Y-7000000I0J-75000D01*
G01*
X-1850000Y-8325000D01*
G75*
G02*
X-1925000Y-8400000I-75000J0D01*
G01*
X-2075000Y-8400000D01*
G75*
G02*
X-2150000Y-8325000I0J75000D01*
G01*
G37*
G36*
G01*
X-2650000Y-8325000D02*
X-2650000Y-7000000D01*
G75*
G02*
X-2575000Y-6925000I75000J0D01*
G01*
X-2425000Y-6925000D01*
G75*
G02*
X-2350000Y-7000000I0J-75000D01*
G01*
X-2350000Y-8325000D01*
G75*
G02*
X-2425000Y-8400000I-75000J0D01*
G01*
X-2575000Y-8400000D01*
G75*
G02*
X-2650000Y-8325000I0J75000D01*
G01*
G37*
G36*
G01*
X-3150000Y-8325000D02*
X-3150000Y-7000000D01*
G75*
G02*
X-3075000Y-6925000I75000J0D01*
G01*
X-2925000Y-6925000D01*
G75*
G02*
X-2850000Y-7000000I0J-75000D01*
G01*
X-2850000Y-8325000D01*
G75*
G02*
X-2925000Y-8400000I-75000J0D01*
G01*
X-3075000Y-8400000D01*
G75*
G02*
X-3150000Y-8325000I0J75000D01*
G01*
G37*
G36*
G01*
X-3650000Y-8325000D02*
X-3650000Y-7000000D01*
G75*
G02*
X-3575000Y-6925000I75000J0D01*
G01*
X-3425000Y-6925000D01*
G75*
G02*
X-3350000Y-7000000I0J-75000D01*
G01*
X-3350000Y-8325000D01*
G75*
G02*
X-3425000Y-8400000I-75000J0D01*
G01*
X-3575000Y-8400000D01*
G75*
G02*
X-3650000Y-8325000I0J75000D01*
G01*
G37*
G36*
G01*
X-4150000Y-8325000D02*
X-4150000Y-7000000D01*
G75*
G02*
X-4075000Y-6925000I75000J0D01*
G01*
X-3925000Y-6925000D01*
G75*
G02*
X-3850000Y-7000000I0J-75000D01*
G01*
X-3850000Y-8325000D01*
G75*
G02*
X-3925000Y-8400000I-75000J0D01*
G01*
X-4075000Y-8400000D01*
G75*
G02*
X-4150000Y-8325000I0J75000D01*
G01*
G37*
G36*
G01*
X-4650000Y-8325000D02*
X-4650000Y-7000000D01*
G75*
G02*
X-4575000Y-6925000I75000J0D01*
G01*
X-4425000Y-6925000D01*
G75*
G02*
X-4350000Y-7000000I0J-75000D01*
G01*
X-4350000Y-8325000D01*
G75*
G02*
X-4425000Y-8400000I-75000J0D01*
G01*
X-4575000Y-8400000D01*
G75*
G02*
X-4650000Y-8325000I0J75000D01*
G01*
G37*
G36*
G01*
X-5150000Y-8325000D02*
X-5150000Y-7000000D01*
G75*
G02*
X-5075000Y-6925000I75000J0D01*
G01*
X-4925000Y-6925000D01*
G75*
G02*
X-4850000Y-7000000I0J-75000D01*
G01*
X-4850000Y-8325000D01*
G75*
G02*
X-4925000Y-8400000I-75000J0D01*
G01*
X-5075000Y-8400000D01*
G75*
G02*
X-5150000Y-8325000I0J75000D01*
G01*
G37*
G36*
G01*
X-5650000Y-8325000D02*
X-5650000Y-7000000D01*
G75*
G02*
X-5575000Y-6925000I75000J0D01*
G01*
X-5425000Y-6925000D01*
G75*
G02*
X-5350000Y-7000000I0J-75000D01*
G01*
X-5350000Y-8325000D01*
G75*
G02*
X-5425000Y-8400000I-75000J0D01*
G01*
X-5575000Y-8400000D01*
G75*
G02*
X-5650000Y-8325000I0J75000D01*
G01*
G37*
G36*
G01*
X-6150000Y-8325000D02*
X-6150000Y-7000000D01*
G75*
G02*
X-6075000Y-6925000I75000J0D01*
G01*
X-5925000Y-6925000D01*
G75*
G02*
X-5850000Y-7000000I0J-75000D01*
G01*
X-5850000Y-8325000D01*
G75*
G02*
X-5925000Y-8400000I-75000J0D01*
G01*
X-6075000Y-8400000D01*
G75*
G02*
X-6150000Y-8325000I0J75000D01*
G01*
G37*
G36*
G01*
X-8400000Y-6075000D02*
X-8400000Y-5925000D01*
G75*
G02*
X-8325000Y-5850000I75000J0D01*
G01*
X-7000000Y-5850000D01*
G75*
G02*
X-6925000Y-5925000I0J-75000D01*
G01*
X-6925000Y-6075000D01*
G75*
G02*
X-7000000Y-6150000I-75000J0D01*
G01*
X-8325000Y-6150000D01*
G75*
G02*
X-8400000Y-6075000I0J75000D01*
G01*
G37*
G36*
G01*
X-8400000Y-5575000D02*
X-8400000Y-5425000D01*
G75*
G02*
X-8325000Y-5350000I75000J0D01*
G01*
X-7000000Y-5350000D01*
G75*
G02*
X-6925000Y-5425000I0J-75000D01*
G01*
X-6925000Y-5575000D01*
G75*
G02*
X-7000000Y-5650000I-75000J0D01*
G01*
X-8325000Y-5650000D01*
G75*
G02*
X-8400000Y-5575000I0J75000D01*
G01*
G37*
G36*
G01*
X-8400000Y-5075000D02*
X-8400000Y-4925000D01*
G75*
G02*
X-8325000Y-4850000I75000J0D01*
G01*
X-7000000Y-4850000D01*
G75*
G02*
X-6925000Y-4925000I0J-75000D01*
G01*
X-6925000Y-5075000D01*
G75*
G02*
X-7000000Y-5150000I-75000J0D01*
G01*
X-8325000Y-5150000D01*
G75*
G02*
X-8400000Y-5075000I0J75000D01*
G01*
G37*
G36*
G01*
X-8400000Y-4575000D02*
X-8400000Y-4425000D01*
G75*
G02*
X-8325000Y-4350000I75000J0D01*
G01*
X-7000000Y-4350000D01*
G75*
G02*
X-6925000Y-4425000I0J-75000D01*
G01*
X-6925000Y-4575000D01*
G75*
G02*
X-7000000Y-4650000I-75000J0D01*
G01*
X-8325000Y-4650000D01*
G75*
G02*
X-8400000Y-4575000I0J75000D01*
G01*
G37*
G36*
G01*
X-8400000Y-4075000D02*
X-8400000Y-3925000D01*
G75*
G02*
X-8325000Y-3850000I75000J0D01*
G01*
X-7000000Y-3850000D01*
G75*
G02*
X-6925000Y-3925000I0J-75000D01*
G01*
X-6925000Y-4075000D01*
G75*
G02*
X-7000000Y-4150000I-75000J0D01*
G01*
X-8325000Y-4150000D01*
G75*
G02*
X-8400000Y-4075000I0J75000D01*
G01*
G37*
G36*
G01*
X-8400000Y-3575000D02*
X-8400000Y-3425000D01*
G75*
G02*
X-8325000Y-3350000I75000J0D01*
G01*
X-7000000Y-3350000D01*
G75*
G02*
X-6925000Y-3425000I0J-75000D01*
G01*
X-6925000Y-3575000D01*
G75*
G02*
X-7000000Y-3650000I-75000J0D01*
G01*
X-8325000Y-3650000D01*
G75*
G02*
X-8400000Y-3575000I0J75000D01*
G01*
G37*
G36*
G01*
X-8400000Y-3075000D02*
X-8400000Y-2925000D01*
G75*
G02*
X-8325000Y-2850000I75000J0D01*
G01*
X-7000000Y-2850000D01*
G75*
G02*
X-6925000Y-2925000I0J-75000D01*
G01*
X-6925000Y-3075000D01*
G75*
G02*
X-7000000Y-3150000I-75000J0D01*
G01*
X-8325000Y-3150000D01*
G75*
G02*
X-8400000Y-3075000I0J75000D01*
G01*
G37*
G36*
G01*
X-8400000Y-2575000D02*
X-8400000Y-2425000D01*
G75*
G02*
X-8325000Y-2350000I75000J0D01*
G01*
X-7000000Y-2350000D01*
G75*
G02*
X-6925000Y-2425000I0J-75000D01*
G01*
X-6925000Y-2575000D01*
G75*
G02*
X-7000000Y-2650000I-75000J0D01*
G01*
X-8325000Y-2650000D01*
G75*
G02*
X-8400000Y-2575000I0J75000D01*
G01*
G37*
G36*
G01*
X-8400000Y-2075000D02*
X-8400000Y-1925000D01*
G75*
G02*
X-8325000Y-1850000I75000J0D01*
G01*
X-7000000Y-1850000D01*
G75*
G02*
X-6925000Y-1925000I0J-75000D01*
G01*
X-6925000Y-2075000D01*
G75*
G02*
X-7000000Y-2150000I-75000J0D01*
G01*
X-8325000Y-2150000D01*
G75*
G02*
X-8400000Y-2075000I0J75000D01*
G01*
G37*
G36*
G01*
X-8400000Y-1575000D02*
X-8400000Y-1425000D01*
G75*
G02*
X-8325000Y-1350000I75000J0D01*
G01*
X-7000000Y-1350000D01*
G75*
G02*
X-6925000Y-1425000I0J-75000D01*
G01*
X-6925000Y-1575000D01*
G75*
G02*
X-7000000Y-1650000I-75000J0D01*
G01*
X-8325000Y-1650000D01*
G75*
G02*
X-8400000Y-1575000I0J75000D01*
G01*
G37*
G36*
G01*
X-8400000Y-1075000D02*
X-8400000Y-925000D01*
G75*
G02*
X-8325000Y-850000I75000J0D01*
G01*
X-7000000Y-850000D01*
G75*
G02*
X-6925000Y-925000I0J-75000D01*
G01*
X-6925000Y-1075000D01*
G75*
G02*
X-7000000Y-1150000I-75000J0D01*
G01*
X-8325000Y-1150000D01*
G75*
G02*
X-8400000Y-1075000I0J75000D01*
G01*
G37*
G36*
G01*
X-8400000Y-575000D02*
X-8400000Y-425000D01*
G75*
G02*
X-8325000Y-350000I75000J0D01*
G01*
X-7000000Y-350000D01*
G75*
G02*
X-6925000Y-425000I0J-75000D01*
G01*
X-6925000Y-575000D01*
G75*
G02*
X-7000000Y-650000I-75000J0D01*
G01*
X-8325000Y-650000D01*
G75*
G02*
X-8400000Y-575000I0J75000D01*
G01*
G37*
G36*
G01*
X-8400000Y-75000D02*
X-8400000Y75000D01*
G75*
G02*
X-8325000Y150000I75000J0D01*
G01*
X-7000000Y150000D01*
G75*
G02*
X-6925000Y75000I0J-75000D01*
G01*
X-6925000Y-75000D01*
G75*
G02*
X-7000000Y-150000I-75000J0D01*
G01*
X-8325000Y-150000D01*
G75*
G02*
X-8400000Y-75000I0J75000D01*
G01*
G37*
G36*
G01*
X-8400000Y425000D02*
X-8400000Y575000D01*
G75*
G02*
X-8325000Y650000I75000J0D01*
G01*
X-7000000Y650000D01*
G75*
G02*
X-6925000Y575000I0J-75000D01*
G01*
X-6925000Y425000D01*
G75*
G02*
X-7000000Y350000I-75000J0D01*
G01*
X-8325000Y350000D01*
G75*
G02*
X-8400000Y425000I0J75000D01*
G01*
G37*
G36*
G01*
X-8400000Y925000D02*
X-8400000Y1075000D01*
G75*
G02*
X-8325000Y1150000I75000J0D01*
G01*
X-7000000Y1150000D01*
G75*
G02*
X-6925000Y1075000I0J-75000D01*
G01*
X-6925000Y925000D01*
G75*
G02*
X-7000000Y850000I-75000J0D01*
G01*
X-8325000Y850000D01*
G75*
G02*
X-8400000Y925000I0J75000D01*
G01*
G37*
G36*
G01*
X-8400000Y1425000D02*
X-8400000Y1575000D01*
G75*
G02*
X-8325000Y1650000I75000J0D01*
G01*
X-7000000Y1650000D01*
G75*
G02*
X-6925000Y1575000I0J-75000D01*
G01*
X-6925000Y1425000D01*
G75*
G02*
X-7000000Y1350000I-75000J0D01*
G01*
X-8325000Y1350000D01*
G75*
G02*
X-8400000Y1425000I0J75000D01*
G01*
G37*
G36*
G01*
X-8400000Y1925000D02*
X-8400000Y2075000D01*
G75*
G02*
X-8325000Y2150000I75000J0D01*
G01*
X-7000000Y2150000D01*
G75*
G02*
X-6925000Y2075000I0J-75000D01*
G01*
X-6925000Y1925000D01*
G75*
G02*
X-7000000Y1850000I-75000J0D01*
G01*
X-8325000Y1850000D01*
G75*
G02*
X-8400000Y1925000I0J75000D01*
G01*
G37*
G36*
G01*
X-8400000Y2425000D02*
X-8400000Y2575000D01*
G75*
G02*
X-8325000Y2650000I75000J0D01*
G01*
X-7000000Y2650000D01*
G75*
G02*
X-6925000Y2575000I0J-75000D01*
G01*
X-6925000Y2425000D01*
G75*
G02*
X-7000000Y2350000I-75000J0D01*
G01*
X-8325000Y2350000D01*
G75*
G02*
X-8400000Y2425000I0J75000D01*
G01*
G37*
G36*
G01*
X-8400000Y2925000D02*
X-8400000Y3075000D01*
G75*
G02*
X-8325000Y3150000I75000J0D01*
G01*
X-7000000Y3150000D01*
G75*
G02*
X-6925000Y3075000I0J-75000D01*
G01*
X-6925000Y2925000D01*
G75*
G02*
X-7000000Y2850000I-75000J0D01*
G01*
X-8325000Y2850000D01*
G75*
G02*
X-8400000Y2925000I0J75000D01*
G01*
G37*
G36*
G01*
X-8400000Y3425000D02*
X-8400000Y3575000D01*
G75*
G02*
X-8325000Y3650000I75000J0D01*
G01*
X-7000000Y3650000D01*
G75*
G02*
X-6925000Y3575000I0J-75000D01*
G01*
X-6925000Y3425000D01*
G75*
G02*
X-7000000Y3350000I-75000J0D01*
G01*
X-8325000Y3350000D01*
G75*
G02*
X-8400000Y3425000I0J75000D01*
G01*
G37*
G36*
G01*
X-8400000Y3925000D02*
X-8400000Y4075000D01*
G75*
G02*
X-8325000Y4150000I75000J0D01*
G01*
X-7000000Y4150000D01*
G75*
G02*
X-6925000Y4075000I0J-75000D01*
G01*
X-6925000Y3925000D01*
G75*
G02*
X-7000000Y3850000I-75000J0D01*
G01*
X-8325000Y3850000D01*
G75*
G02*
X-8400000Y3925000I0J75000D01*
G01*
G37*
G36*
G01*
X-8400000Y4425000D02*
X-8400000Y4575000D01*
G75*
G02*
X-8325000Y4650000I75000J0D01*
G01*
X-7000000Y4650000D01*
G75*
G02*
X-6925000Y4575000I0J-75000D01*
G01*
X-6925000Y4425000D01*
G75*
G02*
X-7000000Y4350000I-75000J0D01*
G01*
X-8325000Y4350000D01*
G75*
G02*
X-8400000Y4425000I0J75000D01*
G01*
G37*
G36*
G01*
X-8400000Y4925000D02*
X-8400000Y5075000D01*
G75*
G02*
X-8325000Y5150000I75000J0D01*
G01*
X-7000000Y5150000D01*
G75*
G02*
X-6925000Y5075000I0J-75000D01*
G01*
X-6925000Y4925000D01*
G75*
G02*
X-7000000Y4850000I-75000J0D01*
G01*
X-8325000Y4850000D01*
G75*
G02*
X-8400000Y4925000I0J75000D01*
G01*
G37*
G36*
G01*
X-8400000Y5425000D02*
X-8400000Y5575000D01*
G75*
G02*
X-8325000Y5650000I75000J0D01*
G01*
X-7000000Y5650000D01*
G75*
G02*
X-6925000Y5575000I0J-75000D01*
G01*
X-6925000Y5425000D01*
G75*
G02*
X-7000000Y5350000I-75000J0D01*
G01*
X-8325000Y5350000D01*
G75*
G02*
X-8400000Y5425000I0J75000D01*
G01*
G37*
G36*
G01*
X-8400000Y5925000D02*
X-8400000Y6075000D01*
G75*
G02*
X-8325000Y6150000I75000J0D01*
G01*
X-7000000Y6150000D01*
G75*
G02*
X-6925000Y6075000I0J-75000D01*
G01*
X-6925000Y5925000D01*
G75*
G02*
X-7000000Y5850000I-75000J0D01*
G01*
X-8325000Y5850000D01*
G75*
G02*
X-8400000Y5925000I0J75000D01*
G01*
G37*
D12*
X40000000Y-2000000D03*
X-40000000Y-2000000D03*
X40000000Y2000000D03*
X-40000000Y2000000D03*
D18*
X32170000Y-46490000D03*
X21170000Y-46490000D03*
D16*
X23170000Y-46990000D03*
X24170000Y-46990000D03*
X25170000Y-46990000D03*
X26170000Y-46990000D03*
X27170000Y-46990000D03*
X28170000Y-46990000D03*
X29170000Y-46990000D03*
X30170000Y-46990000D03*
D18*
X-21170000Y-46490000D03*
X-32170000Y-46490000D03*
D16*
X-30170000Y-46990000D03*
X-29170000Y-46990000D03*
X-28170000Y-46990000D03*
X-27170000Y-46990000D03*
X-26170000Y-46990000D03*
X-25170000Y-46990000D03*
X-24170000Y-46990000D03*
X-23170000Y-46990000D03*
D18*
X46490000Y-21170000D03*
X46490000Y-32170000D03*
D21*
X46990000Y-30170000D03*
X46990000Y-29170000D03*
X46990000Y-28170000D03*
X46990000Y-27170000D03*
X46990000Y-26170000D03*
X46990000Y-25170000D03*
X46990000Y-24170000D03*
X46990000Y-23170000D03*
D18*
X46490000Y32170000D03*
X46490000Y21170000D03*
D21*
X46990000Y23170000D03*
X46990000Y24170000D03*
X46990000Y25170000D03*
X46990000Y26170000D03*
X46990000Y27170000D03*
X46990000Y28170000D03*
X46990000Y29170000D03*
X46990000Y30170000D03*
D18*
X21170000Y46490000D03*
X32170000Y46490000D03*
D16*
X30170000Y46990000D03*
X29170000Y46990000D03*
X28170000Y46990000D03*
X27170000Y46990000D03*
X26170000Y46990000D03*
X25170000Y46990000D03*
X24170000Y46990000D03*
X23170000Y46990000D03*
D18*
X-46490000Y-32170000D03*
X-46490000Y-21170000D03*
D21*
X-46990000Y-23170000D03*
X-46990000Y-24170000D03*
X-46990000Y-25170000D03*
X-46990000Y-26170000D03*
X-46990000Y-27170000D03*
X-46990000Y-28170000D03*
X-46990000Y-29170000D03*
X-46990000Y-30170000D03*
D18*
X-46490000Y21170000D03*
X-46490000Y32170000D03*
D21*
X-46990000Y30170000D03*
X-46990000Y29170000D03*
X-46990000Y28170000D03*
X-46990000Y27170000D03*
X-46990000Y26170000D03*
X-46990000Y25170000D03*
X-46990000Y24170000D03*
X-46990000Y23170000D03*
G36*
G01*
X38505000Y28680000D02*
X38505000Y29130000D01*
G75*
G02*
X38730000Y29355000I225000J0D01*
G01*
X39480000Y29355000D01*
G75*
G02*
X39705000Y29130000I0J-225000D01*
G01*
X39705000Y28680000D01*
G75*
G02*
X39480000Y28455000I-225000J0D01*
G01*
X38730000Y28455000D01*
G75*
G02*
X38505000Y28680000I0J225000D01*
G01*
G37*
G36*
G01*
X40305000Y28680000D02*
X40305000Y29130000D01*
G75*
G02*
X40530000Y29355000I225000J0D01*
G01*
X41280000Y29355000D01*
G75*
G02*
X41505000Y29130000I0J-225000D01*
G01*
X41505000Y28680000D01*
G75*
G02*
X41280000Y28455000I-225000J0D01*
G01*
X40530000Y28455000D01*
G75*
G02*
X40305000Y28680000I0J225000D01*
G01*
G37*
G36*
G01*
X40305000Y29780000D02*
X40305000Y30230000D01*
G75*
G02*
X40530000Y30455000I225000J0D01*
G01*
X41280000Y30455000D01*
G75*
G02*
X41505000Y30230000I0J-225000D01*
G01*
X41505000Y29780000D01*
G75*
G02*
X41280000Y29555000I-225000J0D01*
G01*
X40530000Y29555000D01*
G75*
G02*
X40305000Y29780000I0J225000D01*
G01*
G37*
G36*
G01*
X38505000Y29780000D02*
X38505000Y30230000D01*
G75*
G02*
X38730000Y30455000I225000J0D01*
G01*
X39480000Y30455000D01*
G75*
G02*
X39705000Y30230000I0J-225000D01*
G01*
X39705000Y29780000D01*
G75*
G02*
X39480000Y29555000I-225000J0D01*
G01*
X38730000Y29555000D01*
G75*
G02*
X38505000Y29780000I0J225000D01*
G01*
G37*
G36*
G01*
X11835000Y28680000D02*
X11835000Y29130000D01*
G75*
G02*
X12060000Y29355000I225000J0D01*
G01*
X12810000Y29355000D01*
G75*
G02*
X13035000Y29130000I0J-225000D01*
G01*
X13035000Y28680000D01*
G75*
G02*
X12810000Y28455000I-225000J0D01*
G01*
X12060000Y28455000D01*
G75*
G02*
X11835000Y28680000I0J225000D01*
G01*
G37*
G36*
G01*
X13635000Y28680000D02*
X13635000Y29130000D01*
G75*
G02*
X13860000Y29355000I225000J0D01*
G01*
X14610000Y29355000D01*
G75*
G02*
X14835000Y29130000I0J-225000D01*
G01*
X14835000Y28680000D01*
G75*
G02*
X14610000Y28455000I-225000J0D01*
G01*
X13860000Y28455000D01*
G75*
G02*
X13635000Y28680000I0J225000D01*
G01*
G37*
G36*
G01*
X13635000Y29780000D02*
X13635000Y30230000D01*
G75*
G02*
X13860000Y30455000I225000J0D01*
G01*
X14610000Y30455000D01*
G75*
G02*
X14835000Y30230000I0J-225000D01*
G01*
X14835000Y29780000D01*
G75*
G02*
X14610000Y29555000I-225000J0D01*
G01*
X13860000Y29555000D01*
G75*
G02*
X13635000Y29780000I0J225000D01*
G01*
G37*
G36*
G01*
X11835000Y29780000D02*
X11835000Y30230000D01*
G75*
G02*
X12060000Y30455000I225000J0D01*
G01*
X12810000Y30455000D01*
G75*
G02*
X13035000Y30230000I0J-225000D01*
G01*
X13035000Y29780000D01*
G75*
G02*
X12810000Y29555000I-225000J0D01*
G01*
X12060000Y29555000D01*
G75*
G02*
X11835000Y29780000I0J225000D01*
G01*
G37*
G36*
G01*
X11835000Y46850000D02*
X11835000Y47300000D01*
G75*
G02*
X12060000Y47525000I225000J0D01*
G01*
X12810000Y47525000D01*
G75*
G02*
X13035000Y47300000I0J-225000D01*
G01*
X13035000Y46850000D01*
G75*
G02*
X12810000Y46625000I-225000J0D01*
G01*
X12060000Y46625000D01*
G75*
G02*
X11835000Y46850000I0J225000D01*
G01*
G37*
G36*
G01*
X13635000Y46850000D02*
X13635000Y47300000D01*
G75*
G02*
X13860000Y47525000I225000J0D01*
G01*
X14610000Y47525000D01*
G75*
G02*
X14835000Y47300000I0J-225000D01*
G01*
X14835000Y46850000D01*
G75*
G02*
X14610000Y46625000I-225000J0D01*
G01*
X13860000Y46625000D01*
G75*
G02*
X13635000Y46850000I0J225000D01*
G01*
G37*
G36*
G01*
X13635000Y47950000D02*
X13635000Y48400000D01*
G75*
G02*
X13860000Y48625000I225000J0D01*
G01*
X14610000Y48625000D01*
G75*
G02*
X14835000Y48400000I0J-225000D01*
G01*
X14835000Y47950000D01*
G75*
G02*
X14610000Y47725000I-225000J0D01*
G01*
X13860000Y47725000D01*
G75*
G02*
X13635000Y47950000I0J225000D01*
G01*
G37*
G36*
G01*
X11835000Y47950000D02*
X11835000Y48400000D01*
G75*
G02*
X12060000Y48625000I225000J0D01*
G01*
X12810000Y48625000D01*
G75*
G02*
X13035000Y48400000I0J-225000D01*
G01*
X13035000Y47950000D01*
G75*
G02*
X12810000Y47725000I-225000J0D01*
G01*
X12060000Y47725000D01*
G75*
G02*
X11835000Y47950000I0J225000D01*
G01*
G37*
G36*
G01*
X-14835000Y46850000D02*
X-14835000Y47300000D01*
G75*
G02*
X-14610000Y47525000I225000J0D01*
G01*
X-13860000Y47525000D01*
G75*
G02*
X-13635000Y47300000I0J-225000D01*
G01*
X-13635000Y46850000D01*
G75*
G02*
X-13860000Y46625000I-225000J0D01*
G01*
X-14610000Y46625000D01*
G75*
G02*
X-14835000Y46850000I0J225000D01*
G01*
G37*
G36*
G01*
X-13035000Y46850000D02*
X-13035000Y47300000D01*
G75*
G02*
X-12810000Y47525000I225000J0D01*
G01*
X-12060000Y47525000D01*
G75*
G02*
X-11835000Y47300000I0J-225000D01*
G01*
X-11835000Y46850000D01*
G75*
G02*
X-12060000Y46625000I-225000J0D01*
G01*
X-12810000Y46625000D01*
G75*
G02*
X-13035000Y46850000I0J225000D01*
G01*
G37*
G36*
G01*
X-13035000Y47950000D02*
X-13035000Y48400000D01*
G75*
G02*
X-12810000Y48625000I225000J0D01*
G01*
X-12060000Y48625000D01*
G75*
G02*
X-11835000Y48400000I0J-225000D01*
G01*
X-11835000Y47950000D01*
G75*
G02*
X-12060000Y47725000I-225000J0D01*
G01*
X-12810000Y47725000D01*
G75*
G02*
X-13035000Y47950000I0J225000D01*
G01*
G37*
G36*
G01*
X-14835000Y47950000D02*
X-14835000Y48400000D01*
G75*
G02*
X-14610000Y48625000I225000J0D01*
G01*
X-13860000Y48625000D01*
G75*
G02*
X-13635000Y48400000I0J-225000D01*
G01*
X-13635000Y47950000D01*
G75*
G02*
X-13860000Y47725000I-225000J0D01*
G01*
X-14610000Y47725000D01*
G75*
G02*
X-14835000Y47950000I0J225000D01*
G01*
G37*
G36*
G01*
X-41505000Y28680000D02*
X-41505000Y29130000D01*
G75*
G02*
X-41280000Y29355000I225000J0D01*
G01*
X-40530000Y29355000D01*
G75*
G02*
X-40305000Y29130000I0J-225000D01*
G01*
X-40305000Y28680000D01*
G75*
G02*
X-40530000Y28455000I-225000J0D01*
G01*
X-41280000Y28455000D01*
G75*
G02*
X-41505000Y28680000I0J225000D01*
G01*
G37*
G36*
G01*
X-39705000Y28680000D02*
X-39705000Y29130000D01*
G75*
G02*
X-39480000Y29355000I225000J0D01*
G01*
X-38730000Y29355000D01*
G75*
G02*
X-38505000Y29130000I0J-225000D01*
G01*
X-38505000Y28680000D01*
G75*
G02*
X-38730000Y28455000I-225000J0D01*
G01*
X-39480000Y28455000D01*
G75*
G02*
X-39705000Y28680000I0J225000D01*
G01*
G37*
G36*
G01*
X-39705000Y29780000D02*
X-39705000Y30230000D01*
G75*
G02*
X-39480000Y30455000I225000J0D01*
G01*
X-38730000Y30455000D01*
G75*
G02*
X-38505000Y30230000I0J-225000D01*
G01*
X-38505000Y29780000D01*
G75*
G02*
X-38730000Y29555000I-225000J0D01*
G01*
X-39480000Y29555000D01*
G75*
G02*
X-39705000Y29780000I0J225000D01*
G01*
G37*
G36*
G01*
X-41505000Y29780000D02*
X-41505000Y30230000D01*
G75*
G02*
X-41280000Y30455000I225000J0D01*
G01*
X-40530000Y30455000D01*
G75*
G02*
X-40305000Y30230000I0J-225000D01*
G01*
X-40305000Y29780000D01*
G75*
G02*
X-40530000Y29555000I-225000J0D01*
G01*
X-41280000Y29555000D01*
G75*
G02*
X-41505000Y29780000I0J225000D01*
G01*
G37*
G36*
G01*
X-41505000Y46850000D02*
X-41505000Y47300000D01*
G75*
G02*
X-41280000Y47525000I225000J0D01*
G01*
X-40530000Y47525000D01*
G75*
G02*
X-40305000Y47300000I0J-225000D01*
G01*
X-40305000Y46850000D01*
G75*
G02*
X-40530000Y46625000I-225000J0D01*
G01*
X-41280000Y46625000D01*
G75*
G02*
X-41505000Y46850000I0J225000D01*
G01*
G37*
G36*
G01*
X-39705000Y46850000D02*
X-39705000Y47300000D01*
G75*
G02*
X-39480000Y47525000I225000J0D01*
G01*
X-38730000Y47525000D01*
G75*
G02*
X-38505000Y47300000I0J-225000D01*
G01*
X-38505000Y46850000D01*
G75*
G02*
X-38730000Y46625000I-225000J0D01*
G01*
X-39480000Y46625000D01*
G75*
G02*
X-39705000Y46850000I0J225000D01*
G01*
G37*
G36*
G01*
X-39705000Y47950000D02*
X-39705000Y48400000D01*
G75*
G02*
X-39480000Y48625000I225000J0D01*
G01*
X-38730000Y48625000D01*
G75*
G02*
X-38505000Y48400000I0J-225000D01*
G01*
X-38505000Y47950000D01*
G75*
G02*
X-38730000Y47725000I-225000J0D01*
G01*
X-39480000Y47725000D01*
G75*
G02*
X-39705000Y47950000I0J225000D01*
G01*
G37*
G36*
G01*
X-41505000Y47950000D02*
X-41505000Y48400000D01*
G75*
G02*
X-41280000Y48625000I225000J0D01*
G01*
X-40530000Y48625000D01*
G75*
G02*
X-40305000Y48400000I0J-225000D01*
G01*
X-40305000Y47950000D01*
G75*
G02*
X-40530000Y47725000I-225000J0D01*
G01*
X-41280000Y47725000D01*
G75*
G02*
X-41505000Y47950000I0J225000D01*
G01*
G37*
D22*
X42545000Y47205000D03*
X37465000Y47205000D03*
D23*
X46305000Y40005000D03*
X33705000Y40005000D03*
D22*
X42545000Y32305000D03*
X40005000Y32305000D03*
X37465000Y32305000D03*
X15875000Y47205000D03*
X10795000Y47205000D03*
D23*
X19635000Y40005000D03*
X7035000Y40005000D03*
D22*
X15875000Y32305000D03*
X13335000Y32305000D03*
X10795000Y32305000D03*
X-10795000Y47205000D03*
X-15875000Y47205000D03*
D23*
X-7035000Y40005000D03*
X-19635000Y40005000D03*
D22*
X-10795000Y32305000D03*
X-13335000Y32305000D03*
X-15875000Y32305000D03*
X-37465000Y47205000D03*
X-42545000Y47205000D03*
D23*
X-33705000Y40005000D03*
X-46305000Y40005000D03*
D22*
X-37465000Y32305000D03*
X-40005000Y32305000D03*
X-42545000Y32305000D03*
M02*
