G04 #@! TF.GenerationSoftware,KiCad,Pcbnew,5.1.9+dfsg1-1*
G04 #@! TF.CreationDate,2021-10-27T13:30:09+02:00*
G04 #@! TF.ProjectId,EF44,45463434-2e6b-4696-9361-645f70636258,rev?*
G04 #@! TF.SameCoordinates,Original*
G04 #@! TF.FileFunction,Soldermask,Bot*
G04 #@! TF.FilePolarity,Negative*
%FSLAX46Y46*%
G04 Gerber Fmt 4.6, Leading zero omitted, Abs format (unit mm)*
G04 Created by KiCad (PCBNEW 5.1.9+dfsg1-1) date 2021-10-27 13:30:09*
%MOMM*%
%LPD*%
G01*
G04 APERTURE LIST*
%ADD10O,2.000000X3.000000*%
%ADD11O,1.000000X1.000000*%
%ADD12R,1.000000X1.000000*%
%ADD13C,1.000000*%
%ADD14R,1.450000X1.450000*%
%ADD15C,0.650000*%
%ADD16O,0.800000X2.000000*%
%ADD17O,0.800000X1.900000*%
%ADD18R,2.500000X2.500000*%
%ADD19O,2.000000X0.800000*%
%ADD20O,1.500000X2.000000*%
%ADD21O,3.200000X2.800000*%
G04 APERTURE END LIST*
G36*
G01*
X8585000Y-43000000D02*
X8585000Y-42200000D01*
G75*
G02*
X9585000Y-41200000I1000000J0D01*
G01*
X9585000Y-41200000D01*
G75*
G02*
X10585000Y-42200000I0J-1000000D01*
G01*
X10585000Y-43000000D01*
G75*
G02*
X9585000Y-44000000I-1000000J0D01*
G01*
X9585000Y-44000000D01*
G75*
G02*
X8585000Y-43000000I0J1000000D01*
G01*
G37*
G36*
G01*
X16085000Y-41800000D02*
X16085000Y-41000000D01*
G75*
G02*
X17085000Y-40000000I1000000J0D01*
G01*
X17085000Y-40000000D01*
G75*
G02*
X18085000Y-41000000I0J-1000000D01*
G01*
X18085000Y-41800000D01*
G75*
G02*
X17085000Y-42800000I-1000000J0D01*
G01*
X17085000Y-42800000D01*
G75*
G02*
X16085000Y-41800000I0J1000000D01*
G01*
G37*
G36*
G01*
X8585000Y22200000D02*
X8585000Y23000000D01*
G75*
G02*
X9585000Y24000000I1000000J0D01*
G01*
X9585000Y24000000D01*
G75*
G02*
X10585000Y23000000I0J-1000000D01*
G01*
X10585000Y22200000D01*
G75*
G02*
X9585000Y21200000I-1000000J0D01*
G01*
X9585000Y21200000D01*
G75*
G02*
X8585000Y22200000I0J1000000D01*
G01*
G37*
G36*
G01*
X16085000Y21000000D02*
X16085000Y21800000D01*
G75*
G02*
X17085000Y22800000I1000000J0D01*
G01*
X17085000Y22800000D01*
G75*
G02*
X18085000Y21800000I0J-1000000D01*
G01*
X18085000Y21000000D01*
G75*
G02*
X17085000Y20000000I-1000000J0D01*
G01*
X17085000Y20000000D01*
G75*
G02*
X16085000Y21000000I0J1000000D01*
G01*
G37*
D10*
X15085000Y-46400000D03*
X11585000Y26400000D03*
X15085000Y26400000D03*
G36*
G01*
X37008750Y39555000D02*
X37921250Y39555000D01*
G75*
G02*
X38165000Y39311250I0J-243750D01*
G01*
X38165000Y38823750D01*
G75*
G02*
X37921250Y38580000I-243750J0D01*
G01*
X37008750Y38580000D01*
G75*
G02*
X36765000Y38823750I0J243750D01*
G01*
X36765000Y39311250D01*
G75*
G02*
X37008750Y39555000I243750J0D01*
G01*
G37*
G36*
G01*
X37008750Y41430000D02*
X37921250Y41430000D01*
G75*
G02*
X38165000Y41186250I0J-243750D01*
G01*
X38165000Y40698750D01*
G75*
G02*
X37921250Y40455000I-243750J0D01*
G01*
X37008750Y40455000D01*
G75*
G02*
X36765000Y40698750I0J243750D01*
G01*
X36765000Y41186250D01*
G75*
G02*
X37008750Y41430000I243750J0D01*
G01*
G37*
G36*
G01*
X-27483750Y6800000D02*
X-28396250Y6800000D01*
G75*
G02*
X-28640000Y7043750I0J243750D01*
G01*
X-28640000Y7531250D01*
G75*
G02*
X-28396250Y7775000I243750J0D01*
G01*
X-27483750Y7775000D01*
G75*
G02*
X-27240000Y7531250I0J-243750D01*
G01*
X-27240000Y7043750D01*
G75*
G02*
X-27483750Y6800000I-243750J0D01*
G01*
G37*
G36*
G01*
X-27483750Y4925000D02*
X-28396250Y4925000D01*
G75*
G02*
X-28640000Y5168750I0J243750D01*
G01*
X-28640000Y5656250D01*
G75*
G02*
X-28396250Y5900000I243750J0D01*
G01*
X-27483750Y5900000D01*
G75*
G02*
X-27240000Y5656250I0J-243750D01*
G01*
X-27240000Y5168750D01*
G75*
G02*
X-27483750Y4925000I-243750J0D01*
G01*
G37*
G36*
G01*
X31265000Y-3450000D02*
X30965000Y-3450000D01*
G75*
G02*
X30815000Y-3300000I0J150000D01*
G01*
X30815000Y-1650000D01*
G75*
G02*
X30965000Y-1500000I150000J0D01*
G01*
X31265000Y-1500000D01*
G75*
G02*
X31415000Y-1650000I0J-150000D01*
G01*
X31415000Y-3300000D01*
G75*
G02*
X31265000Y-3450000I-150000J0D01*
G01*
G37*
G36*
G01*
X29995000Y-3450000D02*
X29695000Y-3450000D01*
G75*
G02*
X29545000Y-3300000I0J150000D01*
G01*
X29545000Y-1650000D01*
G75*
G02*
X29695000Y-1500000I150000J0D01*
G01*
X29995000Y-1500000D01*
G75*
G02*
X30145000Y-1650000I0J-150000D01*
G01*
X30145000Y-3300000D01*
G75*
G02*
X29995000Y-3450000I-150000J0D01*
G01*
G37*
G36*
G01*
X28725000Y-3450000D02*
X28425000Y-3450000D01*
G75*
G02*
X28275000Y-3300000I0J150000D01*
G01*
X28275000Y-1650000D01*
G75*
G02*
X28425000Y-1500000I150000J0D01*
G01*
X28725000Y-1500000D01*
G75*
G02*
X28875000Y-1650000I0J-150000D01*
G01*
X28875000Y-3300000D01*
G75*
G02*
X28725000Y-3450000I-150000J0D01*
G01*
G37*
G36*
G01*
X27455000Y-3450000D02*
X27155000Y-3450000D01*
G75*
G02*
X27005000Y-3300000I0J150000D01*
G01*
X27005000Y-1650000D01*
G75*
G02*
X27155000Y-1500000I150000J0D01*
G01*
X27455000Y-1500000D01*
G75*
G02*
X27605000Y-1650000I0J-150000D01*
G01*
X27605000Y-3300000D01*
G75*
G02*
X27455000Y-3450000I-150000J0D01*
G01*
G37*
G36*
G01*
X26185000Y-3450000D02*
X25885000Y-3450000D01*
G75*
G02*
X25735000Y-3300000I0J150000D01*
G01*
X25735000Y-1650000D01*
G75*
G02*
X25885000Y-1500000I150000J0D01*
G01*
X26185000Y-1500000D01*
G75*
G02*
X26335000Y-1650000I0J-150000D01*
G01*
X26335000Y-3300000D01*
G75*
G02*
X26185000Y-3450000I-150000J0D01*
G01*
G37*
G36*
G01*
X24915000Y-3450000D02*
X24615000Y-3450000D01*
G75*
G02*
X24465000Y-3300000I0J150000D01*
G01*
X24465000Y-1650000D01*
G75*
G02*
X24615000Y-1500000I150000J0D01*
G01*
X24915000Y-1500000D01*
G75*
G02*
X25065000Y-1650000I0J-150000D01*
G01*
X25065000Y-3300000D01*
G75*
G02*
X24915000Y-3450000I-150000J0D01*
G01*
G37*
G36*
G01*
X23645000Y-3450000D02*
X23345000Y-3450000D01*
G75*
G02*
X23195000Y-3300000I0J150000D01*
G01*
X23195000Y-1650000D01*
G75*
G02*
X23345000Y-1500000I150000J0D01*
G01*
X23645000Y-1500000D01*
G75*
G02*
X23795000Y-1650000I0J-150000D01*
G01*
X23795000Y-3300000D01*
G75*
G02*
X23645000Y-3450000I-150000J0D01*
G01*
G37*
G36*
G01*
X22375000Y-3450000D02*
X22075000Y-3450000D01*
G75*
G02*
X21925000Y-3300000I0J150000D01*
G01*
X21925000Y-1650000D01*
G75*
G02*
X22075000Y-1500000I150000J0D01*
G01*
X22375000Y-1500000D01*
G75*
G02*
X22525000Y-1650000I0J-150000D01*
G01*
X22525000Y-3300000D01*
G75*
G02*
X22375000Y-3450000I-150000J0D01*
G01*
G37*
G36*
G01*
X22375000Y1500000D02*
X22075000Y1500000D01*
G75*
G02*
X21925000Y1650000I0J150000D01*
G01*
X21925000Y3300000D01*
G75*
G02*
X22075000Y3450000I150000J0D01*
G01*
X22375000Y3450000D01*
G75*
G02*
X22525000Y3300000I0J-150000D01*
G01*
X22525000Y1650000D01*
G75*
G02*
X22375000Y1500000I-150000J0D01*
G01*
G37*
G36*
G01*
X23645000Y1500000D02*
X23345000Y1500000D01*
G75*
G02*
X23195000Y1650000I0J150000D01*
G01*
X23195000Y3300000D01*
G75*
G02*
X23345000Y3450000I150000J0D01*
G01*
X23645000Y3450000D01*
G75*
G02*
X23795000Y3300000I0J-150000D01*
G01*
X23795000Y1650000D01*
G75*
G02*
X23645000Y1500000I-150000J0D01*
G01*
G37*
G36*
G01*
X24915000Y1500000D02*
X24615000Y1500000D01*
G75*
G02*
X24465000Y1650000I0J150000D01*
G01*
X24465000Y3300000D01*
G75*
G02*
X24615000Y3450000I150000J0D01*
G01*
X24915000Y3450000D01*
G75*
G02*
X25065000Y3300000I0J-150000D01*
G01*
X25065000Y1650000D01*
G75*
G02*
X24915000Y1500000I-150000J0D01*
G01*
G37*
G36*
G01*
X26185000Y1500000D02*
X25885000Y1500000D01*
G75*
G02*
X25735000Y1650000I0J150000D01*
G01*
X25735000Y3300000D01*
G75*
G02*
X25885000Y3450000I150000J0D01*
G01*
X26185000Y3450000D01*
G75*
G02*
X26335000Y3300000I0J-150000D01*
G01*
X26335000Y1650000D01*
G75*
G02*
X26185000Y1500000I-150000J0D01*
G01*
G37*
G36*
G01*
X27455000Y1500000D02*
X27155000Y1500000D01*
G75*
G02*
X27005000Y1650000I0J150000D01*
G01*
X27005000Y3300000D01*
G75*
G02*
X27155000Y3450000I150000J0D01*
G01*
X27455000Y3450000D01*
G75*
G02*
X27605000Y3300000I0J-150000D01*
G01*
X27605000Y1650000D01*
G75*
G02*
X27455000Y1500000I-150000J0D01*
G01*
G37*
G36*
G01*
X28725000Y1500000D02*
X28425000Y1500000D01*
G75*
G02*
X28275000Y1650000I0J150000D01*
G01*
X28275000Y3300000D01*
G75*
G02*
X28425000Y3450000I150000J0D01*
G01*
X28725000Y3450000D01*
G75*
G02*
X28875000Y3300000I0J-150000D01*
G01*
X28875000Y1650000D01*
G75*
G02*
X28725000Y1500000I-150000J0D01*
G01*
G37*
G36*
G01*
X29995000Y1500000D02*
X29695000Y1500000D01*
G75*
G02*
X29545000Y1650000I0J150000D01*
G01*
X29545000Y3300000D01*
G75*
G02*
X29695000Y3450000I150000J0D01*
G01*
X29995000Y3450000D01*
G75*
G02*
X30145000Y3300000I0J-150000D01*
G01*
X30145000Y1650000D01*
G75*
G02*
X29995000Y1500000I-150000J0D01*
G01*
G37*
G36*
G01*
X31265000Y1500000D02*
X30965000Y1500000D01*
G75*
G02*
X30815000Y1650000I0J150000D01*
G01*
X30815000Y3300000D01*
G75*
G02*
X30965000Y3450000I150000J0D01*
G01*
X31265000Y3450000D01*
G75*
G02*
X31415000Y3300000I0J-150000D01*
G01*
X31415000Y1650000D01*
G75*
G02*
X31265000Y1500000I-150000J0D01*
G01*
G37*
G36*
G01*
X-22075000Y-3450000D02*
X-22375000Y-3450000D01*
G75*
G02*
X-22525000Y-3300000I0J150000D01*
G01*
X-22525000Y-1650000D01*
G75*
G02*
X-22375000Y-1500000I150000J0D01*
G01*
X-22075000Y-1500000D01*
G75*
G02*
X-21925000Y-1650000I0J-150000D01*
G01*
X-21925000Y-3300000D01*
G75*
G02*
X-22075000Y-3450000I-150000J0D01*
G01*
G37*
G36*
G01*
X-23345000Y-3450000D02*
X-23645000Y-3450000D01*
G75*
G02*
X-23795000Y-3300000I0J150000D01*
G01*
X-23795000Y-1650000D01*
G75*
G02*
X-23645000Y-1500000I150000J0D01*
G01*
X-23345000Y-1500000D01*
G75*
G02*
X-23195000Y-1650000I0J-150000D01*
G01*
X-23195000Y-3300000D01*
G75*
G02*
X-23345000Y-3450000I-150000J0D01*
G01*
G37*
G36*
G01*
X-24615000Y-3450000D02*
X-24915000Y-3450000D01*
G75*
G02*
X-25065000Y-3300000I0J150000D01*
G01*
X-25065000Y-1650000D01*
G75*
G02*
X-24915000Y-1500000I150000J0D01*
G01*
X-24615000Y-1500000D01*
G75*
G02*
X-24465000Y-1650000I0J-150000D01*
G01*
X-24465000Y-3300000D01*
G75*
G02*
X-24615000Y-3450000I-150000J0D01*
G01*
G37*
G36*
G01*
X-25885000Y-3450000D02*
X-26185000Y-3450000D01*
G75*
G02*
X-26335000Y-3300000I0J150000D01*
G01*
X-26335000Y-1650000D01*
G75*
G02*
X-26185000Y-1500000I150000J0D01*
G01*
X-25885000Y-1500000D01*
G75*
G02*
X-25735000Y-1650000I0J-150000D01*
G01*
X-25735000Y-3300000D01*
G75*
G02*
X-25885000Y-3450000I-150000J0D01*
G01*
G37*
G36*
G01*
X-27155000Y-3450000D02*
X-27455000Y-3450000D01*
G75*
G02*
X-27605000Y-3300000I0J150000D01*
G01*
X-27605000Y-1650000D01*
G75*
G02*
X-27455000Y-1500000I150000J0D01*
G01*
X-27155000Y-1500000D01*
G75*
G02*
X-27005000Y-1650000I0J-150000D01*
G01*
X-27005000Y-3300000D01*
G75*
G02*
X-27155000Y-3450000I-150000J0D01*
G01*
G37*
G36*
G01*
X-28425000Y-3450000D02*
X-28725000Y-3450000D01*
G75*
G02*
X-28875000Y-3300000I0J150000D01*
G01*
X-28875000Y-1650000D01*
G75*
G02*
X-28725000Y-1500000I150000J0D01*
G01*
X-28425000Y-1500000D01*
G75*
G02*
X-28275000Y-1650000I0J-150000D01*
G01*
X-28275000Y-3300000D01*
G75*
G02*
X-28425000Y-3450000I-150000J0D01*
G01*
G37*
G36*
G01*
X-29695000Y-3450000D02*
X-29995000Y-3450000D01*
G75*
G02*
X-30145000Y-3300000I0J150000D01*
G01*
X-30145000Y-1650000D01*
G75*
G02*
X-29995000Y-1500000I150000J0D01*
G01*
X-29695000Y-1500000D01*
G75*
G02*
X-29545000Y-1650000I0J-150000D01*
G01*
X-29545000Y-3300000D01*
G75*
G02*
X-29695000Y-3450000I-150000J0D01*
G01*
G37*
G36*
G01*
X-30965000Y-3450000D02*
X-31265000Y-3450000D01*
G75*
G02*
X-31415000Y-3300000I0J150000D01*
G01*
X-31415000Y-1650000D01*
G75*
G02*
X-31265000Y-1500000I150000J0D01*
G01*
X-30965000Y-1500000D01*
G75*
G02*
X-30815000Y-1650000I0J-150000D01*
G01*
X-30815000Y-3300000D01*
G75*
G02*
X-30965000Y-3450000I-150000J0D01*
G01*
G37*
G36*
G01*
X-30965000Y1500000D02*
X-31265000Y1500000D01*
G75*
G02*
X-31415000Y1650000I0J150000D01*
G01*
X-31415000Y3300000D01*
G75*
G02*
X-31265000Y3450000I150000J0D01*
G01*
X-30965000Y3450000D01*
G75*
G02*
X-30815000Y3300000I0J-150000D01*
G01*
X-30815000Y1650000D01*
G75*
G02*
X-30965000Y1500000I-150000J0D01*
G01*
G37*
G36*
G01*
X-29695000Y1500000D02*
X-29995000Y1500000D01*
G75*
G02*
X-30145000Y1650000I0J150000D01*
G01*
X-30145000Y3300000D01*
G75*
G02*
X-29995000Y3450000I150000J0D01*
G01*
X-29695000Y3450000D01*
G75*
G02*
X-29545000Y3300000I0J-150000D01*
G01*
X-29545000Y1650000D01*
G75*
G02*
X-29695000Y1500000I-150000J0D01*
G01*
G37*
G36*
G01*
X-28425000Y1500000D02*
X-28725000Y1500000D01*
G75*
G02*
X-28875000Y1650000I0J150000D01*
G01*
X-28875000Y3300000D01*
G75*
G02*
X-28725000Y3450000I150000J0D01*
G01*
X-28425000Y3450000D01*
G75*
G02*
X-28275000Y3300000I0J-150000D01*
G01*
X-28275000Y1650000D01*
G75*
G02*
X-28425000Y1500000I-150000J0D01*
G01*
G37*
G36*
G01*
X-27155000Y1500000D02*
X-27455000Y1500000D01*
G75*
G02*
X-27605000Y1650000I0J150000D01*
G01*
X-27605000Y3300000D01*
G75*
G02*
X-27455000Y3450000I150000J0D01*
G01*
X-27155000Y3450000D01*
G75*
G02*
X-27005000Y3300000I0J-150000D01*
G01*
X-27005000Y1650000D01*
G75*
G02*
X-27155000Y1500000I-150000J0D01*
G01*
G37*
G36*
G01*
X-25885000Y1500000D02*
X-26185000Y1500000D01*
G75*
G02*
X-26335000Y1650000I0J150000D01*
G01*
X-26335000Y3300000D01*
G75*
G02*
X-26185000Y3450000I150000J0D01*
G01*
X-25885000Y3450000D01*
G75*
G02*
X-25735000Y3300000I0J-150000D01*
G01*
X-25735000Y1650000D01*
G75*
G02*
X-25885000Y1500000I-150000J0D01*
G01*
G37*
G36*
G01*
X-24615000Y1500000D02*
X-24915000Y1500000D01*
G75*
G02*
X-25065000Y1650000I0J150000D01*
G01*
X-25065000Y3300000D01*
G75*
G02*
X-24915000Y3450000I150000J0D01*
G01*
X-24615000Y3450000D01*
G75*
G02*
X-24465000Y3300000I0J-150000D01*
G01*
X-24465000Y1650000D01*
G75*
G02*
X-24615000Y1500000I-150000J0D01*
G01*
G37*
G36*
G01*
X-23345000Y1500000D02*
X-23645000Y1500000D01*
G75*
G02*
X-23795000Y1650000I0J150000D01*
G01*
X-23795000Y3300000D01*
G75*
G02*
X-23645000Y3450000I150000J0D01*
G01*
X-23345000Y3450000D01*
G75*
G02*
X-23195000Y3300000I0J-150000D01*
G01*
X-23195000Y1650000D01*
G75*
G02*
X-23345000Y1500000I-150000J0D01*
G01*
G37*
G36*
G01*
X-22075000Y1500000D02*
X-22375000Y1500000D01*
G75*
G02*
X-22525000Y1650000I0J150000D01*
G01*
X-22525000Y3300000D01*
G75*
G02*
X-22375000Y3450000I150000J0D01*
G01*
X-22075000Y3450000D01*
G75*
G02*
X-21925000Y3300000I0J-150000D01*
G01*
X-21925000Y1650000D01*
G75*
G02*
X-22075000Y1500000I-150000J0D01*
G01*
G37*
G36*
G01*
X28396250Y10610000D02*
X27483750Y10610000D01*
G75*
G02*
X27240000Y10853750I0J243750D01*
G01*
X27240000Y11341250D01*
G75*
G02*
X27483750Y11585000I243750J0D01*
G01*
X28396250Y11585000D01*
G75*
G02*
X28640000Y11341250I0J-243750D01*
G01*
X28640000Y10853750D01*
G75*
G02*
X28396250Y10610000I-243750J0D01*
G01*
G37*
G36*
G01*
X28396250Y8735000D02*
X27483750Y8735000D01*
G75*
G02*
X27240000Y8978750I0J243750D01*
G01*
X27240000Y9466250D01*
G75*
G02*
X27483750Y9710000I243750J0D01*
G01*
X28396250Y9710000D01*
G75*
G02*
X28640000Y9466250I0J-243750D01*
G01*
X28640000Y8978750D01*
G75*
G02*
X28396250Y8735000I-243750J0D01*
G01*
G37*
G36*
G01*
X-24943750Y10610000D02*
X-25856250Y10610000D01*
G75*
G02*
X-26100000Y10853750I0J243750D01*
G01*
X-26100000Y11341250D01*
G75*
G02*
X-25856250Y11585000I243750J0D01*
G01*
X-24943750Y11585000D01*
G75*
G02*
X-24700000Y11341250I0J-243750D01*
G01*
X-24700000Y10853750D01*
G75*
G02*
X-24943750Y10610000I-243750J0D01*
G01*
G37*
G36*
G01*
X-24943750Y8735000D02*
X-25856250Y8735000D01*
G75*
G02*
X-26100000Y8978750I0J243750D01*
G01*
X-26100000Y9466250D01*
G75*
G02*
X-25856250Y9710000I243750J0D01*
G01*
X-24943750Y9710000D01*
G75*
G02*
X-24700000Y9466250I0J-243750D01*
G01*
X-24700000Y8978750D01*
G75*
G02*
X-24943750Y8735000I-243750J0D01*
G01*
G37*
G36*
G01*
X25856250Y10610000D02*
X24943750Y10610000D01*
G75*
G02*
X24700000Y10853750I0J243750D01*
G01*
X24700000Y11341250D01*
G75*
G02*
X24943750Y11585000I243750J0D01*
G01*
X25856250Y11585000D01*
G75*
G02*
X26100000Y11341250I0J-243750D01*
G01*
X26100000Y10853750D01*
G75*
G02*
X25856250Y10610000I-243750J0D01*
G01*
G37*
G36*
G01*
X25856250Y8735000D02*
X24943750Y8735000D01*
G75*
G02*
X24700000Y8978750I0J243750D01*
G01*
X24700000Y9466250D01*
G75*
G02*
X24943750Y9710000I243750J0D01*
G01*
X25856250Y9710000D01*
G75*
G02*
X26100000Y9466250I0J-243750D01*
G01*
X26100000Y8978750D01*
G75*
G02*
X25856250Y8735000I-243750J0D01*
G01*
G37*
G36*
G01*
X-27483750Y10610000D02*
X-28396250Y10610000D01*
G75*
G02*
X-28640000Y10853750I0J243750D01*
G01*
X-28640000Y11341250D01*
G75*
G02*
X-28396250Y11585000I243750J0D01*
G01*
X-27483750Y11585000D01*
G75*
G02*
X-27240000Y11341250I0J-243750D01*
G01*
X-27240000Y10853750D01*
G75*
G02*
X-27483750Y10610000I-243750J0D01*
G01*
G37*
G36*
G01*
X-27483750Y8735000D02*
X-28396250Y8735000D01*
G75*
G02*
X-28640000Y8978750I0J243750D01*
G01*
X-28640000Y9466250D01*
G75*
G02*
X-28396250Y9710000I243750J0D01*
G01*
X-27483750Y9710000D01*
G75*
G02*
X-27240000Y9466250I0J-243750D01*
G01*
X-27240000Y8978750D01*
G75*
G02*
X-27483750Y8735000I-243750J0D01*
G01*
G37*
G36*
G01*
X33833750Y-450000D02*
X34746250Y-450000D01*
G75*
G02*
X34990000Y-693750I0J-243750D01*
G01*
X34990000Y-1181250D01*
G75*
G02*
X34746250Y-1425000I-243750J0D01*
G01*
X33833750Y-1425000D01*
G75*
G02*
X33590000Y-1181250I0J243750D01*
G01*
X33590000Y-693750D01*
G75*
G02*
X33833750Y-450000I243750J0D01*
G01*
G37*
G36*
G01*
X33833750Y1425000D02*
X34746250Y1425000D01*
G75*
G02*
X34990000Y1181250I0J-243750D01*
G01*
X34990000Y693750D01*
G75*
G02*
X34746250Y450000I-243750J0D01*
G01*
X33833750Y450000D01*
G75*
G02*
X33590000Y693750I0J243750D01*
G01*
X33590000Y1181250D01*
G75*
G02*
X33833750Y1425000I243750J0D01*
G01*
G37*
G36*
G01*
X-34746250Y-450000D02*
X-33833750Y-450000D01*
G75*
G02*
X-33590000Y-693750I0J-243750D01*
G01*
X-33590000Y-1181250D01*
G75*
G02*
X-33833750Y-1425000I-243750J0D01*
G01*
X-34746250Y-1425000D01*
G75*
G02*
X-34990000Y-1181250I0J243750D01*
G01*
X-34990000Y-693750D01*
G75*
G02*
X-34746250Y-450000I243750J0D01*
G01*
G37*
G36*
G01*
X-34746250Y1425000D02*
X-33833750Y1425000D01*
G75*
G02*
X-33590000Y1181250I0J-243750D01*
G01*
X-33590000Y693750D01*
G75*
G02*
X-33833750Y450000I-243750J0D01*
G01*
X-34746250Y450000D01*
G75*
G02*
X-34990000Y693750I0J243750D01*
G01*
X-34990000Y1181250D01*
G75*
G02*
X-34746250Y1425000I243750J0D01*
G01*
G37*
G36*
G01*
X28396250Y6800000D02*
X27483750Y6800000D01*
G75*
G02*
X27240000Y7043750I0J243750D01*
G01*
X27240000Y7531250D01*
G75*
G02*
X27483750Y7775000I243750J0D01*
G01*
X28396250Y7775000D01*
G75*
G02*
X28640000Y7531250I0J-243750D01*
G01*
X28640000Y7043750D01*
G75*
G02*
X28396250Y6800000I-243750J0D01*
G01*
G37*
G36*
G01*
X28396250Y4925000D02*
X27483750Y4925000D01*
G75*
G02*
X27240000Y5168750I0J243750D01*
G01*
X27240000Y5656250D01*
G75*
G02*
X27483750Y5900000I243750J0D01*
G01*
X28396250Y5900000D01*
G75*
G02*
X28640000Y5656250I0J-243750D01*
G01*
X28640000Y5168750D01*
G75*
G02*
X28396250Y4925000I-243750J0D01*
G01*
G37*
G36*
G01*
X-24943750Y6800000D02*
X-25856250Y6800000D01*
G75*
G02*
X-26100000Y7043750I0J243750D01*
G01*
X-26100000Y7531250D01*
G75*
G02*
X-25856250Y7775000I243750J0D01*
G01*
X-24943750Y7775000D01*
G75*
G02*
X-24700000Y7531250I0J-243750D01*
G01*
X-24700000Y7043750D01*
G75*
G02*
X-24943750Y6800000I-243750J0D01*
G01*
G37*
G36*
G01*
X-24943750Y4925000D02*
X-25856250Y4925000D01*
G75*
G02*
X-26100000Y5168750I0J243750D01*
G01*
X-26100000Y5656250D01*
G75*
G02*
X-25856250Y5900000I243750J0D01*
G01*
X-24943750Y5900000D01*
G75*
G02*
X-24700000Y5656250I0J-243750D01*
G01*
X-24700000Y5168750D01*
G75*
G02*
X-24943750Y4925000I-243750J0D01*
G01*
G37*
G36*
G01*
X25856250Y6800000D02*
X24943750Y6800000D01*
G75*
G02*
X24700000Y7043750I0J243750D01*
G01*
X24700000Y7531250D01*
G75*
G02*
X24943750Y7775000I243750J0D01*
G01*
X25856250Y7775000D01*
G75*
G02*
X26100000Y7531250I0J-243750D01*
G01*
X26100000Y7043750D01*
G75*
G02*
X25856250Y6800000I-243750J0D01*
G01*
G37*
G36*
G01*
X25856250Y4925000D02*
X24943750Y4925000D01*
G75*
G02*
X24700000Y5168750I0J243750D01*
G01*
X24700000Y5656250D01*
G75*
G02*
X24943750Y5900000I243750J0D01*
G01*
X25856250Y5900000D01*
G75*
G02*
X26100000Y5656250I0J-243750D01*
G01*
X26100000Y5168750D01*
G75*
G02*
X25856250Y4925000I-243750J0D01*
G01*
G37*
G36*
G01*
X35255000Y-43000000D02*
X35255000Y-42200000D01*
G75*
G02*
X36255000Y-41200000I1000000J0D01*
G01*
X36255000Y-41200000D01*
G75*
G02*
X37255000Y-42200000I0J-1000000D01*
G01*
X37255000Y-43000000D01*
G75*
G02*
X36255000Y-44000000I-1000000J0D01*
G01*
X36255000Y-44000000D01*
G75*
G02*
X35255000Y-43000000I0J1000000D01*
G01*
G37*
G36*
G01*
X42755000Y-41800000D02*
X42755000Y-41000000D01*
G75*
G02*
X43755000Y-40000000I1000000J0D01*
G01*
X43755000Y-40000000D01*
G75*
G02*
X44755000Y-41000000I0J-1000000D01*
G01*
X44755000Y-41800000D01*
G75*
G02*
X43755000Y-42800000I-1000000J0D01*
G01*
X43755000Y-42800000D01*
G75*
G02*
X42755000Y-41800000I0J1000000D01*
G01*
G37*
G36*
G01*
X35255000Y22200000D02*
X35255000Y23000000D01*
G75*
G02*
X36255000Y24000000I1000000J0D01*
G01*
X36255000Y24000000D01*
G75*
G02*
X37255000Y23000000I0J-1000000D01*
G01*
X37255000Y22200000D01*
G75*
G02*
X36255000Y21200000I-1000000J0D01*
G01*
X36255000Y21200000D01*
G75*
G02*
X35255000Y22200000I0J1000000D01*
G01*
G37*
G36*
G01*
X42755000Y21000000D02*
X42755000Y21800000D01*
G75*
G02*
X43755000Y22800000I1000000J0D01*
G01*
X43755000Y22800000D01*
G75*
G02*
X44755000Y21800000I0J-1000000D01*
G01*
X44755000Y21000000D01*
G75*
G02*
X43755000Y20000000I-1000000J0D01*
G01*
X43755000Y20000000D01*
G75*
G02*
X42755000Y21000000I0J1000000D01*
G01*
G37*
X41755000Y-46400000D03*
X38255000Y26400000D03*
X41755000Y26400000D03*
G36*
G01*
X-18085000Y-43000000D02*
X-18085000Y-42200000D01*
G75*
G02*
X-17085000Y-41200000I1000000J0D01*
G01*
X-17085000Y-41200000D01*
G75*
G02*
X-16085000Y-42200000I0J-1000000D01*
G01*
X-16085000Y-43000000D01*
G75*
G02*
X-17085000Y-44000000I-1000000J0D01*
G01*
X-17085000Y-44000000D01*
G75*
G02*
X-18085000Y-43000000I0J1000000D01*
G01*
G37*
G36*
G01*
X-10585000Y-41800000D02*
X-10585000Y-41000000D01*
G75*
G02*
X-9585000Y-40000000I1000000J0D01*
G01*
X-9585000Y-40000000D01*
G75*
G02*
X-8585000Y-41000000I0J-1000000D01*
G01*
X-8585000Y-41800000D01*
G75*
G02*
X-9585000Y-42800000I-1000000J0D01*
G01*
X-9585000Y-42800000D01*
G75*
G02*
X-10585000Y-41800000I0J1000000D01*
G01*
G37*
G36*
G01*
X-18085000Y22200000D02*
X-18085000Y23000000D01*
G75*
G02*
X-17085000Y24000000I1000000J0D01*
G01*
X-17085000Y24000000D01*
G75*
G02*
X-16085000Y23000000I0J-1000000D01*
G01*
X-16085000Y22200000D01*
G75*
G02*
X-17085000Y21200000I-1000000J0D01*
G01*
X-17085000Y21200000D01*
G75*
G02*
X-18085000Y22200000I0J1000000D01*
G01*
G37*
G36*
G01*
X-10585000Y21000000D02*
X-10585000Y21800000D01*
G75*
G02*
X-9585000Y22800000I1000000J0D01*
G01*
X-9585000Y22800000D01*
G75*
G02*
X-8585000Y21800000I0J-1000000D01*
G01*
X-8585000Y21000000D01*
G75*
G02*
X-9585000Y20000000I-1000000J0D01*
G01*
X-9585000Y20000000D01*
G75*
G02*
X-10585000Y21000000I0J1000000D01*
G01*
G37*
X-11585000Y-46400000D03*
X-15085000Y26400000D03*
X-11585000Y26400000D03*
G36*
G01*
X-44755000Y-43000000D02*
X-44755000Y-42200000D01*
G75*
G02*
X-43755000Y-41200000I1000000J0D01*
G01*
X-43755000Y-41200000D01*
G75*
G02*
X-42755000Y-42200000I0J-1000000D01*
G01*
X-42755000Y-43000000D01*
G75*
G02*
X-43755000Y-44000000I-1000000J0D01*
G01*
X-43755000Y-44000000D01*
G75*
G02*
X-44755000Y-43000000I0J1000000D01*
G01*
G37*
G36*
G01*
X-37255000Y-41800000D02*
X-37255000Y-41000000D01*
G75*
G02*
X-36255000Y-40000000I1000000J0D01*
G01*
X-36255000Y-40000000D01*
G75*
G02*
X-35255000Y-41000000I0J-1000000D01*
G01*
X-35255000Y-41800000D01*
G75*
G02*
X-36255000Y-42800000I-1000000J0D01*
G01*
X-36255000Y-42800000D01*
G75*
G02*
X-37255000Y-41800000I0J1000000D01*
G01*
G37*
G36*
G01*
X-44755000Y22200000D02*
X-44755000Y23000000D01*
G75*
G02*
X-43755000Y24000000I1000000J0D01*
G01*
X-43755000Y24000000D01*
G75*
G02*
X-42755000Y23000000I0J-1000000D01*
G01*
X-42755000Y22200000D01*
G75*
G02*
X-43755000Y21200000I-1000000J0D01*
G01*
X-43755000Y21200000D01*
G75*
G02*
X-44755000Y22200000I0J1000000D01*
G01*
G37*
G36*
G01*
X-37255000Y21000000D02*
X-37255000Y21800000D01*
G75*
G02*
X-36255000Y22800000I1000000J0D01*
G01*
X-36255000Y22800000D01*
G75*
G02*
X-35255000Y21800000I0J-1000000D01*
G01*
X-35255000Y21000000D01*
G75*
G02*
X-36255000Y20000000I-1000000J0D01*
G01*
X-36255000Y20000000D01*
G75*
G02*
X-37255000Y21000000I0J1000000D01*
G01*
G37*
X-38255000Y-46400000D03*
X-41755000Y26400000D03*
X-38255000Y26400000D03*
D11*
X-2540000Y14130000D03*
X-2540000Y15400000D03*
X-1270000Y14130000D03*
X-1270000Y15400000D03*
X0Y14130000D03*
X0Y15400000D03*
X1270000Y14130000D03*
X1270000Y15400000D03*
X2540000Y14130000D03*
D12*
X2540000Y15400000D03*
D13*
X-2500000Y39500000D03*
X2500000Y39500000D03*
G36*
G01*
X5950000Y3543750D02*
X5950000Y4456250D01*
G75*
G02*
X6193750Y4700000I243750J0D01*
G01*
X6681250Y4700000D01*
G75*
G02*
X6925000Y4456250I0J-243750D01*
G01*
X6925000Y3543750D01*
G75*
G02*
X6681250Y3300000I-243750J0D01*
G01*
X6193750Y3300000D01*
G75*
G02*
X5950000Y3543750I0J243750D01*
G01*
G37*
G36*
G01*
X4075000Y3543750D02*
X4075000Y4456250D01*
G75*
G02*
X4318750Y4700000I243750J0D01*
G01*
X4806250Y4700000D01*
G75*
G02*
X5050000Y4456250I0J-243750D01*
G01*
X5050000Y3543750D01*
G75*
G02*
X4806250Y3300000I-243750J0D01*
G01*
X4318750Y3300000D01*
G75*
G02*
X4075000Y3543750I0J243750D01*
G01*
G37*
G36*
G01*
X5050000Y-1543750D02*
X5050000Y-2456250D01*
G75*
G02*
X4806250Y-2700000I-243750J0D01*
G01*
X4318750Y-2700000D01*
G75*
G02*
X4075000Y-2456250I0J243750D01*
G01*
X4075000Y-1543750D01*
G75*
G02*
X4318750Y-1300000I243750J0D01*
G01*
X4806250Y-1300000D01*
G75*
G02*
X5050000Y-1543750I0J-243750D01*
G01*
G37*
G36*
G01*
X6925000Y-1543750D02*
X6925000Y-2456250D01*
G75*
G02*
X6681250Y-2700000I-243750J0D01*
G01*
X6193750Y-2700000D01*
G75*
G02*
X5950000Y-2456250I0J243750D01*
G01*
X5950000Y-1543750D01*
G75*
G02*
X6193750Y-1300000I243750J0D01*
G01*
X6681250Y-1300000D01*
G75*
G02*
X6925000Y-1543750I0J-243750D01*
G01*
G37*
X-2500000Y33500000D03*
X-2500000Y35500000D03*
X-2500000Y37500000D03*
G36*
G01*
X-3450000Y-29995000D02*
X-3450000Y-29695000D01*
G75*
G02*
X-3300000Y-29545000I150000J0D01*
G01*
X-1650000Y-29545000D01*
G75*
G02*
X-1500000Y-29695000I0J-150000D01*
G01*
X-1500000Y-29995000D01*
G75*
G02*
X-1650000Y-30145000I-150000J0D01*
G01*
X-3300000Y-30145000D01*
G75*
G02*
X-3450000Y-29995000I0J150000D01*
G01*
G37*
G36*
G01*
X-3450000Y-28725000D02*
X-3450000Y-28425000D01*
G75*
G02*
X-3300000Y-28275000I150000J0D01*
G01*
X-1650000Y-28275000D01*
G75*
G02*
X-1500000Y-28425000I0J-150000D01*
G01*
X-1500000Y-28725000D01*
G75*
G02*
X-1650000Y-28875000I-150000J0D01*
G01*
X-3300000Y-28875000D01*
G75*
G02*
X-3450000Y-28725000I0J150000D01*
G01*
G37*
G36*
G01*
X-3450000Y-27455000D02*
X-3450000Y-27155000D01*
G75*
G02*
X-3300000Y-27005000I150000J0D01*
G01*
X-1650000Y-27005000D01*
G75*
G02*
X-1500000Y-27155000I0J-150000D01*
G01*
X-1500000Y-27455000D01*
G75*
G02*
X-1650000Y-27605000I-150000J0D01*
G01*
X-3300000Y-27605000D01*
G75*
G02*
X-3450000Y-27455000I0J150000D01*
G01*
G37*
G36*
G01*
X-3450000Y-26185000D02*
X-3450000Y-25885000D01*
G75*
G02*
X-3300000Y-25735000I150000J0D01*
G01*
X-1650000Y-25735000D01*
G75*
G02*
X-1500000Y-25885000I0J-150000D01*
G01*
X-1500000Y-26185000D01*
G75*
G02*
X-1650000Y-26335000I-150000J0D01*
G01*
X-3300000Y-26335000D01*
G75*
G02*
X-3450000Y-26185000I0J150000D01*
G01*
G37*
G36*
G01*
X-3450000Y-24915000D02*
X-3450000Y-24615000D01*
G75*
G02*
X-3300000Y-24465000I150000J0D01*
G01*
X-1650000Y-24465000D01*
G75*
G02*
X-1500000Y-24615000I0J-150000D01*
G01*
X-1500000Y-24915000D01*
G75*
G02*
X-1650000Y-25065000I-150000J0D01*
G01*
X-3300000Y-25065000D01*
G75*
G02*
X-3450000Y-24915000I0J150000D01*
G01*
G37*
G36*
G01*
X-3450000Y-23645000D02*
X-3450000Y-23345000D01*
G75*
G02*
X-3300000Y-23195000I150000J0D01*
G01*
X-1650000Y-23195000D01*
G75*
G02*
X-1500000Y-23345000I0J-150000D01*
G01*
X-1500000Y-23645000D01*
G75*
G02*
X-1650000Y-23795000I-150000J0D01*
G01*
X-3300000Y-23795000D01*
G75*
G02*
X-3450000Y-23645000I0J150000D01*
G01*
G37*
G36*
G01*
X-3450000Y-22375000D02*
X-3450000Y-22075000D01*
G75*
G02*
X-3300000Y-21925000I150000J0D01*
G01*
X-1650000Y-21925000D01*
G75*
G02*
X-1500000Y-22075000I0J-150000D01*
G01*
X-1500000Y-22375000D01*
G75*
G02*
X-1650000Y-22525000I-150000J0D01*
G01*
X-3300000Y-22525000D01*
G75*
G02*
X-3450000Y-22375000I0J150000D01*
G01*
G37*
G36*
G01*
X-3450000Y-21105000D02*
X-3450000Y-20805000D01*
G75*
G02*
X-3300000Y-20655000I150000J0D01*
G01*
X-1650000Y-20655000D01*
G75*
G02*
X-1500000Y-20805000I0J-150000D01*
G01*
X-1500000Y-21105000D01*
G75*
G02*
X-1650000Y-21255000I-150000J0D01*
G01*
X-3300000Y-21255000D01*
G75*
G02*
X-3450000Y-21105000I0J150000D01*
G01*
G37*
G36*
G01*
X1500000Y-21105000D02*
X1500000Y-20805000D01*
G75*
G02*
X1650000Y-20655000I150000J0D01*
G01*
X3300000Y-20655000D01*
G75*
G02*
X3450000Y-20805000I0J-150000D01*
G01*
X3450000Y-21105000D01*
G75*
G02*
X3300000Y-21255000I-150000J0D01*
G01*
X1650000Y-21255000D01*
G75*
G02*
X1500000Y-21105000I0J150000D01*
G01*
G37*
G36*
G01*
X1500000Y-22375000D02*
X1500000Y-22075000D01*
G75*
G02*
X1650000Y-21925000I150000J0D01*
G01*
X3300000Y-21925000D01*
G75*
G02*
X3450000Y-22075000I0J-150000D01*
G01*
X3450000Y-22375000D01*
G75*
G02*
X3300000Y-22525000I-150000J0D01*
G01*
X1650000Y-22525000D01*
G75*
G02*
X1500000Y-22375000I0J150000D01*
G01*
G37*
G36*
G01*
X1500000Y-23645000D02*
X1500000Y-23345000D01*
G75*
G02*
X1650000Y-23195000I150000J0D01*
G01*
X3300000Y-23195000D01*
G75*
G02*
X3450000Y-23345000I0J-150000D01*
G01*
X3450000Y-23645000D01*
G75*
G02*
X3300000Y-23795000I-150000J0D01*
G01*
X1650000Y-23795000D01*
G75*
G02*
X1500000Y-23645000I0J150000D01*
G01*
G37*
G36*
G01*
X1500000Y-24915000D02*
X1500000Y-24615000D01*
G75*
G02*
X1650000Y-24465000I150000J0D01*
G01*
X3300000Y-24465000D01*
G75*
G02*
X3450000Y-24615000I0J-150000D01*
G01*
X3450000Y-24915000D01*
G75*
G02*
X3300000Y-25065000I-150000J0D01*
G01*
X1650000Y-25065000D01*
G75*
G02*
X1500000Y-24915000I0J150000D01*
G01*
G37*
G36*
G01*
X1500000Y-26185000D02*
X1500000Y-25885000D01*
G75*
G02*
X1650000Y-25735000I150000J0D01*
G01*
X3300000Y-25735000D01*
G75*
G02*
X3450000Y-25885000I0J-150000D01*
G01*
X3450000Y-26185000D01*
G75*
G02*
X3300000Y-26335000I-150000J0D01*
G01*
X1650000Y-26335000D01*
G75*
G02*
X1500000Y-26185000I0J150000D01*
G01*
G37*
G36*
G01*
X1500000Y-27455000D02*
X1500000Y-27155000D01*
G75*
G02*
X1650000Y-27005000I150000J0D01*
G01*
X3300000Y-27005000D01*
G75*
G02*
X3450000Y-27155000I0J-150000D01*
G01*
X3450000Y-27455000D01*
G75*
G02*
X3300000Y-27605000I-150000J0D01*
G01*
X1650000Y-27605000D01*
G75*
G02*
X1500000Y-27455000I0J150000D01*
G01*
G37*
G36*
G01*
X1500000Y-28725000D02*
X1500000Y-28425000D01*
G75*
G02*
X1650000Y-28275000I150000J0D01*
G01*
X3300000Y-28275000D01*
G75*
G02*
X3450000Y-28425000I0J-150000D01*
G01*
X3450000Y-28725000D01*
G75*
G02*
X3300000Y-28875000I-150000J0D01*
G01*
X1650000Y-28875000D01*
G75*
G02*
X1500000Y-28725000I0J150000D01*
G01*
G37*
G36*
G01*
X1500000Y-29995000D02*
X1500000Y-29695000D01*
G75*
G02*
X1650000Y-29545000I150000J0D01*
G01*
X3300000Y-29545000D01*
G75*
G02*
X3450000Y-29695000I0J-150000D01*
G01*
X3450000Y-29995000D01*
G75*
G02*
X3300000Y-30145000I-150000J0D01*
G01*
X1650000Y-30145000D01*
G75*
G02*
X1500000Y-29995000I0J150000D01*
G01*
G37*
G36*
G01*
X-5456250Y-23450000D02*
X-4543750Y-23450000D01*
G75*
G02*
X-4300000Y-23693750I0J-243750D01*
G01*
X-4300000Y-24181250D01*
G75*
G02*
X-4543750Y-24425000I-243750J0D01*
G01*
X-5456250Y-24425000D01*
G75*
G02*
X-5700000Y-24181250I0J243750D01*
G01*
X-5700000Y-23693750D01*
G75*
G02*
X-5456250Y-23450000I243750J0D01*
G01*
G37*
G36*
G01*
X-5456250Y-21575000D02*
X-4543750Y-21575000D01*
G75*
G02*
X-4300000Y-21818750I0J-243750D01*
G01*
X-4300000Y-22306250D01*
G75*
G02*
X-4543750Y-22550000I-243750J0D01*
G01*
X-5456250Y-22550000D01*
G75*
G02*
X-5700000Y-22306250I0J243750D01*
G01*
X-5700000Y-21818750D01*
G75*
G02*
X-5456250Y-21575000I243750J0D01*
G01*
G37*
X-2000000Y3400000D03*
X2000000Y-2600000D03*
X-2000000Y-2600000D03*
X2250000Y48000000D03*
X-2250000Y48000000D03*
X750000Y48000000D03*
X-750000Y48000000D03*
G36*
G01*
X2543750Y36550000D02*
X3456250Y36550000D01*
G75*
G02*
X3700000Y36306250I0J-243750D01*
G01*
X3700000Y35818750D01*
G75*
G02*
X3456250Y35575000I-243750J0D01*
G01*
X2543750Y35575000D01*
G75*
G02*
X2300000Y35818750I0J243750D01*
G01*
X2300000Y36306250D01*
G75*
G02*
X2543750Y36550000I243750J0D01*
G01*
G37*
G36*
G01*
X2543750Y38425000D02*
X3456250Y38425000D01*
G75*
G02*
X3700000Y38181250I0J-243750D01*
G01*
X3700000Y37693750D01*
G75*
G02*
X3456250Y37450000I-243750J0D01*
G01*
X2543750Y37450000D01*
G75*
G02*
X2300000Y37693750I0J243750D01*
G01*
X2300000Y38181250D01*
G75*
G02*
X2543750Y38425000I243750J0D01*
G01*
G37*
G36*
G01*
X-450000Y35956250D02*
X-450000Y35043750D01*
G75*
G02*
X-693750Y34800000I-243750J0D01*
G01*
X-1181250Y34800000D01*
G75*
G02*
X-1425000Y35043750I0J243750D01*
G01*
X-1425000Y35956250D01*
G75*
G02*
X-1181250Y36200000I243750J0D01*
G01*
X-693750Y36200000D01*
G75*
G02*
X-450000Y35956250I0J-243750D01*
G01*
G37*
G36*
G01*
X1425000Y35956250D02*
X1425000Y35043750D01*
G75*
G02*
X1181250Y34800000I-243750J0D01*
G01*
X693750Y34800000D01*
G75*
G02*
X450000Y35043750I0J243750D01*
G01*
X450000Y35956250D01*
G75*
G02*
X693750Y36200000I243750J0D01*
G01*
X1181250Y36200000D01*
G75*
G02*
X1425000Y35956250I0J-243750D01*
G01*
G37*
G36*
G01*
X-3112500Y4430000D02*
X-2787500Y4430000D01*
G75*
G02*
X-2625000Y4267500I0J-162500D01*
G01*
X-2625000Y3532500D01*
G75*
G02*
X-2787500Y3370000I-162500J0D01*
G01*
X-3112500Y3370000D01*
G75*
G02*
X-3275000Y3532500I0J162500D01*
G01*
X-3275000Y4267500D01*
G75*
G02*
X-3112500Y4430000I162500J0D01*
G01*
G37*
G36*
G01*
X-1212500Y4430000D02*
X-887500Y4430000D01*
G75*
G02*
X-725000Y4267500I0J-162500D01*
G01*
X-725000Y3532500D01*
G75*
G02*
X-887500Y3370000I-162500J0D01*
G01*
X-1212500Y3370000D01*
G75*
G02*
X-1375000Y3532500I0J162500D01*
G01*
X-1375000Y4267500D01*
G75*
G02*
X-1212500Y4430000I162500J0D01*
G01*
G37*
G36*
G01*
X-1212500Y6630000D02*
X-887500Y6630000D01*
G75*
G02*
X-725000Y6467500I0J-162500D01*
G01*
X-725000Y5732500D01*
G75*
G02*
X-887500Y5570000I-162500J0D01*
G01*
X-1212500Y5570000D01*
G75*
G02*
X-1375000Y5732500I0J162500D01*
G01*
X-1375000Y6467500D01*
G75*
G02*
X-1212500Y6630000I162500J0D01*
G01*
G37*
G36*
G01*
X-2162500Y6630000D02*
X-1837500Y6630000D01*
G75*
G02*
X-1675000Y6467500I0J-162500D01*
G01*
X-1675000Y5732500D01*
G75*
G02*
X-1837500Y5570000I-162500J0D01*
G01*
X-2162500Y5570000D01*
G75*
G02*
X-2325000Y5732500I0J162500D01*
G01*
X-2325000Y6467500D01*
G75*
G02*
X-2162500Y6630000I162500J0D01*
G01*
G37*
G36*
G01*
X-3112500Y6630000D02*
X-2787500Y6630000D01*
G75*
G02*
X-2625000Y6467500I0J-162500D01*
G01*
X-2625000Y5732500D01*
G75*
G02*
X-2787500Y5570000I-162500J0D01*
G01*
X-3112500Y5570000D01*
G75*
G02*
X-3275000Y5732500I0J162500D01*
G01*
X-3275000Y6467500D01*
G75*
G02*
X-3112500Y6630000I162500J0D01*
G01*
G37*
D14*
X0Y40500000D03*
G36*
G01*
X875000Y42037500D02*
X875000Y41487500D01*
G75*
G02*
X812500Y41425000I-62500J0D01*
G01*
X687500Y41425000D01*
G75*
G02*
X625000Y41487500I0J62500D01*
G01*
X625000Y42037500D01*
G75*
G02*
X687500Y42100000I62500J0D01*
G01*
X812500Y42100000D01*
G75*
G02*
X875000Y42037500I0J-62500D01*
G01*
G37*
G36*
G01*
X375000Y42037500D02*
X375000Y41487500D01*
G75*
G02*
X312500Y41425000I-62500J0D01*
G01*
X187500Y41425000D01*
G75*
G02*
X125000Y41487500I0J62500D01*
G01*
X125000Y42037500D01*
G75*
G02*
X187500Y42100000I62500J0D01*
G01*
X312500Y42100000D01*
G75*
G02*
X375000Y42037500I0J-62500D01*
G01*
G37*
G36*
G01*
X-125000Y42037500D02*
X-125000Y41487500D01*
G75*
G02*
X-187500Y41425000I-62500J0D01*
G01*
X-312500Y41425000D01*
G75*
G02*
X-375000Y41487500I0J62500D01*
G01*
X-375000Y42037500D01*
G75*
G02*
X-312500Y42100000I62500J0D01*
G01*
X-187500Y42100000D01*
G75*
G02*
X-125000Y42037500I0J-62500D01*
G01*
G37*
G36*
G01*
X-625000Y42037500D02*
X-625000Y41487500D01*
G75*
G02*
X-687500Y41425000I-62500J0D01*
G01*
X-812500Y41425000D01*
G75*
G02*
X-875000Y41487500I0J62500D01*
G01*
X-875000Y42037500D01*
G75*
G02*
X-812500Y42100000I62500J0D01*
G01*
X-687500Y42100000D01*
G75*
G02*
X-625000Y42037500I0J-62500D01*
G01*
G37*
G36*
G01*
X-925000Y41062500D02*
X-925000Y40937500D01*
G75*
G02*
X-987500Y40875000I-62500J0D01*
G01*
X-1537500Y40875000D01*
G75*
G02*
X-1600000Y40937500I0J62500D01*
G01*
X-1600000Y41062500D01*
G75*
G02*
X-1537500Y41125000I62500J0D01*
G01*
X-987500Y41125000D01*
G75*
G02*
X-925000Y41062500I0J-62500D01*
G01*
G37*
G36*
G01*
X-925000Y40562500D02*
X-925000Y40437500D01*
G75*
G02*
X-987500Y40375000I-62500J0D01*
G01*
X-1537500Y40375000D01*
G75*
G02*
X-1600000Y40437500I0J62500D01*
G01*
X-1600000Y40562500D01*
G75*
G02*
X-1537500Y40625000I62500J0D01*
G01*
X-987500Y40625000D01*
G75*
G02*
X-925000Y40562500I0J-62500D01*
G01*
G37*
G36*
G01*
X-925000Y40062500D02*
X-925000Y39937500D01*
G75*
G02*
X-987500Y39875000I-62500J0D01*
G01*
X-1537500Y39875000D01*
G75*
G02*
X-1600000Y39937500I0J62500D01*
G01*
X-1600000Y40062500D01*
G75*
G02*
X-1537500Y40125000I62500J0D01*
G01*
X-987500Y40125000D01*
G75*
G02*
X-925000Y40062500I0J-62500D01*
G01*
G37*
G36*
G01*
X-625000Y39512500D02*
X-625000Y38962500D01*
G75*
G02*
X-687500Y38900000I-62500J0D01*
G01*
X-812500Y38900000D01*
G75*
G02*
X-875000Y38962500I0J62500D01*
G01*
X-875000Y39512500D01*
G75*
G02*
X-812500Y39575000I62500J0D01*
G01*
X-687500Y39575000D01*
G75*
G02*
X-625000Y39512500I0J-62500D01*
G01*
G37*
G36*
G01*
X-125000Y39512500D02*
X-125000Y38962500D01*
G75*
G02*
X-187500Y38900000I-62500J0D01*
G01*
X-312500Y38900000D01*
G75*
G02*
X-375000Y38962500I0J62500D01*
G01*
X-375000Y39512500D01*
G75*
G02*
X-312500Y39575000I62500J0D01*
G01*
X-187500Y39575000D01*
G75*
G02*
X-125000Y39512500I0J-62500D01*
G01*
G37*
G36*
G01*
X375000Y39512500D02*
X375000Y38962500D01*
G75*
G02*
X312500Y38900000I-62500J0D01*
G01*
X187500Y38900000D01*
G75*
G02*
X125000Y38962500I0J62500D01*
G01*
X125000Y39512500D01*
G75*
G02*
X187500Y39575000I62500J0D01*
G01*
X312500Y39575000D01*
G75*
G02*
X375000Y39512500I0J-62500D01*
G01*
G37*
G36*
G01*
X875000Y39512500D02*
X875000Y38962500D01*
G75*
G02*
X812500Y38900000I-62500J0D01*
G01*
X687500Y38900000D01*
G75*
G02*
X625000Y38962500I0J62500D01*
G01*
X625000Y39512500D01*
G75*
G02*
X687500Y39575000I62500J0D01*
G01*
X812500Y39575000D01*
G75*
G02*
X875000Y39512500I0J-62500D01*
G01*
G37*
G36*
G01*
X1600000Y40062500D02*
X1600000Y39937500D01*
G75*
G02*
X1537500Y39875000I-62500J0D01*
G01*
X987500Y39875000D01*
G75*
G02*
X925000Y39937500I0J62500D01*
G01*
X925000Y40062500D01*
G75*
G02*
X987500Y40125000I62500J0D01*
G01*
X1537500Y40125000D01*
G75*
G02*
X1600000Y40062500I0J-62500D01*
G01*
G37*
G36*
G01*
X1600000Y40562500D02*
X1600000Y40437500D01*
G75*
G02*
X1537500Y40375000I-62500J0D01*
G01*
X987500Y40375000D01*
G75*
G02*
X925000Y40437500I0J62500D01*
G01*
X925000Y40562500D01*
G75*
G02*
X987500Y40625000I62500J0D01*
G01*
X1537500Y40625000D01*
G75*
G02*
X1600000Y40562500I0J-62500D01*
G01*
G37*
G36*
G01*
X1600000Y41062500D02*
X1600000Y40937500D01*
G75*
G02*
X1537500Y40875000I-62500J0D01*
G01*
X987500Y40875000D01*
G75*
G02*
X925000Y40937500I0J62500D01*
G01*
X925000Y41062500D01*
G75*
G02*
X987500Y41125000I62500J0D01*
G01*
X1537500Y41125000D01*
G75*
G02*
X1600000Y41062500I0J-62500D01*
G01*
G37*
G36*
G01*
X887500Y-1570000D02*
X1212500Y-1570000D01*
G75*
G02*
X1375000Y-1732500I0J-162500D01*
G01*
X1375000Y-2467500D01*
G75*
G02*
X1212500Y-2630000I-162500J0D01*
G01*
X887500Y-2630000D01*
G75*
G02*
X725000Y-2467500I0J162500D01*
G01*
X725000Y-1732500D01*
G75*
G02*
X887500Y-1570000I162500J0D01*
G01*
G37*
G36*
G01*
X2787500Y-1570000D02*
X3112500Y-1570000D01*
G75*
G02*
X3275000Y-1732500I0J-162500D01*
G01*
X3275000Y-2467500D01*
G75*
G02*
X3112500Y-2630000I-162500J0D01*
G01*
X2787500Y-2630000D01*
G75*
G02*
X2625000Y-2467500I0J162500D01*
G01*
X2625000Y-1732500D01*
G75*
G02*
X2787500Y-1570000I162500J0D01*
G01*
G37*
G36*
G01*
X2787500Y630000D02*
X3112500Y630000D01*
G75*
G02*
X3275000Y467500I0J-162500D01*
G01*
X3275000Y-267500D01*
G75*
G02*
X3112500Y-430000I-162500J0D01*
G01*
X2787500Y-430000D01*
G75*
G02*
X2625000Y-267500I0J162500D01*
G01*
X2625000Y467500D01*
G75*
G02*
X2787500Y630000I162500J0D01*
G01*
G37*
G36*
G01*
X1837500Y630000D02*
X2162500Y630000D01*
G75*
G02*
X2325000Y467500I0J-162500D01*
G01*
X2325000Y-267500D01*
G75*
G02*
X2162500Y-430000I-162500J0D01*
G01*
X1837500Y-430000D01*
G75*
G02*
X1675000Y-267500I0J162500D01*
G01*
X1675000Y467500D01*
G75*
G02*
X1837500Y630000I162500J0D01*
G01*
G37*
G36*
G01*
X887500Y630000D02*
X1212500Y630000D01*
G75*
G02*
X1375000Y467500I0J-162500D01*
G01*
X1375000Y-267500D01*
G75*
G02*
X1212500Y-430000I-162500J0D01*
G01*
X887500Y-430000D01*
G75*
G02*
X725000Y-267500I0J162500D01*
G01*
X725000Y467500D01*
G75*
G02*
X887500Y630000I162500J0D01*
G01*
G37*
G36*
G01*
X-3112500Y-1570000D02*
X-2787500Y-1570000D01*
G75*
G02*
X-2625000Y-1732500I0J-162500D01*
G01*
X-2625000Y-2467500D01*
G75*
G02*
X-2787500Y-2630000I-162500J0D01*
G01*
X-3112500Y-2630000D01*
G75*
G02*
X-3275000Y-2467500I0J162500D01*
G01*
X-3275000Y-1732500D01*
G75*
G02*
X-3112500Y-1570000I162500J0D01*
G01*
G37*
G36*
G01*
X-1212500Y-1570000D02*
X-887500Y-1570000D01*
G75*
G02*
X-725000Y-1732500I0J-162500D01*
G01*
X-725000Y-2467500D01*
G75*
G02*
X-887500Y-2630000I-162500J0D01*
G01*
X-1212500Y-2630000D01*
G75*
G02*
X-1375000Y-2467500I0J162500D01*
G01*
X-1375000Y-1732500D01*
G75*
G02*
X-1212500Y-1570000I162500J0D01*
G01*
G37*
G36*
G01*
X-1212500Y630000D02*
X-887500Y630000D01*
G75*
G02*
X-725000Y467500I0J-162500D01*
G01*
X-725000Y-267500D01*
G75*
G02*
X-887500Y-430000I-162500J0D01*
G01*
X-1212500Y-430000D01*
G75*
G02*
X-1375000Y-267500I0J162500D01*
G01*
X-1375000Y467500D01*
G75*
G02*
X-1212500Y630000I162500J0D01*
G01*
G37*
G36*
G01*
X-2162500Y630000D02*
X-1837500Y630000D01*
G75*
G02*
X-1675000Y467500I0J-162500D01*
G01*
X-1675000Y-267500D01*
G75*
G02*
X-1837500Y-430000I-162500J0D01*
G01*
X-2162500Y-430000D01*
G75*
G02*
X-2325000Y-267500I0J162500D01*
G01*
X-2325000Y467500D01*
G75*
G02*
X-2162500Y630000I162500J0D01*
G01*
G37*
G36*
G01*
X-3112500Y630000D02*
X-2787500Y630000D01*
G75*
G02*
X-2625000Y467500I0J-162500D01*
G01*
X-2625000Y-267500D01*
G75*
G02*
X-2787500Y-430000I-162500J0D01*
G01*
X-3112500Y-430000D01*
G75*
G02*
X-3275000Y-267500I0J162500D01*
G01*
X-3275000Y467500D01*
G75*
G02*
X-3112500Y630000I162500J0D01*
G01*
G37*
G36*
G01*
X-162500Y44680000D02*
X162500Y44680000D01*
G75*
G02*
X325000Y44517500I0J-162500D01*
G01*
X325000Y43782500D01*
G75*
G02*
X162500Y43620000I-162500J0D01*
G01*
X-162500Y43620000D01*
G75*
G02*
X-325000Y43782500I0J162500D01*
G01*
X-325000Y44517500D01*
G75*
G02*
X-162500Y44680000I162500J0D01*
G01*
G37*
G36*
G01*
X-1112500Y44680000D02*
X-787500Y44680000D01*
G75*
G02*
X-625000Y44517500I0J-162500D01*
G01*
X-625000Y43782500D01*
G75*
G02*
X-787500Y43620000I-162500J0D01*
G01*
X-1112500Y43620000D01*
G75*
G02*
X-1275000Y43782500I0J162500D01*
G01*
X-1275000Y44517500D01*
G75*
G02*
X-1112500Y44680000I162500J0D01*
G01*
G37*
G36*
G01*
X787500Y44680000D02*
X1112500Y44680000D01*
G75*
G02*
X1275000Y44517500I0J-162500D01*
G01*
X1275000Y43782500D01*
G75*
G02*
X1112500Y43620000I-162500J0D01*
G01*
X787500Y43620000D01*
G75*
G02*
X625000Y43782500I0J162500D01*
G01*
X625000Y44517500D01*
G75*
G02*
X787500Y44680000I162500J0D01*
G01*
G37*
G36*
G01*
X787500Y46880000D02*
X1112500Y46880000D01*
G75*
G02*
X1275000Y46717500I0J-162500D01*
G01*
X1275000Y45982500D01*
G75*
G02*
X1112500Y45820000I-162500J0D01*
G01*
X787500Y45820000D01*
G75*
G02*
X625000Y45982500I0J162500D01*
G01*
X625000Y46717500D01*
G75*
G02*
X787500Y46880000I162500J0D01*
G01*
G37*
G36*
G01*
X-162500Y46880000D02*
X162500Y46880000D01*
G75*
G02*
X325000Y46717500I0J-162500D01*
G01*
X325000Y45982500D01*
G75*
G02*
X162500Y45820000I-162500J0D01*
G01*
X-162500Y45820000D01*
G75*
G02*
X-325000Y45982500I0J162500D01*
G01*
X-325000Y46717500D01*
G75*
G02*
X-162500Y46880000I162500J0D01*
G01*
G37*
G36*
G01*
X-1112500Y46880000D02*
X-787500Y46880000D01*
G75*
G02*
X-625000Y46717500I0J-162500D01*
G01*
X-625000Y45982500D01*
G75*
G02*
X-787500Y45820000I-162500J0D01*
G01*
X-1112500Y45820000D01*
G75*
G02*
X-1275000Y45982500I0J162500D01*
G01*
X-1275000Y46717500D01*
G75*
G02*
X-1112500Y46880000I162500J0D01*
G01*
G37*
G36*
G01*
X-5950000Y6456250D02*
X-5950000Y5543750D01*
G75*
G02*
X-6193750Y5300000I-243750J0D01*
G01*
X-6681250Y5300000D01*
G75*
G02*
X-6925000Y5543750I0J243750D01*
G01*
X-6925000Y6456250D01*
G75*
G02*
X-6681250Y6700000I243750J0D01*
G01*
X-6193750Y6700000D01*
G75*
G02*
X-5950000Y6456250I0J-243750D01*
G01*
G37*
G36*
G01*
X-4075000Y6456250D02*
X-4075000Y5543750D01*
G75*
G02*
X-4318750Y5300000I-243750J0D01*
G01*
X-4806250Y5300000D01*
G75*
G02*
X-5050000Y5543750I0J243750D01*
G01*
X-5050000Y6456250D01*
G75*
G02*
X-4806250Y6700000I243750J0D01*
G01*
X-4318750Y6700000D01*
G75*
G02*
X-4075000Y6456250I0J-243750D01*
G01*
G37*
G36*
G01*
X-450000Y33956250D02*
X-450000Y33043750D01*
G75*
G02*
X-693750Y32800000I-243750J0D01*
G01*
X-1181250Y32800000D01*
G75*
G02*
X-1425000Y33043750I0J243750D01*
G01*
X-1425000Y33956250D01*
G75*
G02*
X-1181250Y34200000I243750J0D01*
G01*
X-693750Y34200000D01*
G75*
G02*
X-450000Y33956250I0J-243750D01*
G01*
G37*
G36*
G01*
X1425000Y33956250D02*
X1425000Y33043750D01*
G75*
G02*
X1181250Y32800000I-243750J0D01*
G01*
X693750Y32800000D01*
G75*
G02*
X450000Y33043750I0J243750D01*
G01*
X450000Y33956250D01*
G75*
G02*
X693750Y34200000I243750J0D01*
G01*
X1181250Y34200000D01*
G75*
G02*
X1425000Y33956250I0J-243750D01*
G01*
G37*
G36*
G01*
X-450000Y37956250D02*
X-450000Y37043750D01*
G75*
G02*
X-693750Y36800000I-243750J0D01*
G01*
X-1181250Y36800000D01*
G75*
G02*
X-1425000Y37043750I0J243750D01*
G01*
X-1425000Y37956250D01*
G75*
G02*
X-1181250Y38200000I243750J0D01*
G01*
X-693750Y38200000D01*
G75*
G02*
X-450000Y37956250I0J-243750D01*
G01*
G37*
G36*
G01*
X1425000Y37956250D02*
X1425000Y37043750D01*
G75*
G02*
X1181250Y36800000I-243750J0D01*
G01*
X693750Y36800000D01*
G75*
G02*
X450000Y37043750I0J243750D01*
G01*
X450000Y37956250D01*
G75*
G02*
X693750Y38200000I243750J0D01*
G01*
X1181250Y38200000D01*
G75*
G02*
X1425000Y37956250I0J-243750D01*
G01*
G37*
G36*
G01*
X1550000Y4456250D02*
X1550000Y3543750D01*
G75*
G02*
X1306250Y3300000I-243750J0D01*
G01*
X818750Y3300000D01*
G75*
G02*
X575000Y3543750I0J243750D01*
G01*
X575000Y4456250D01*
G75*
G02*
X818750Y4700000I243750J0D01*
G01*
X1306250Y4700000D01*
G75*
G02*
X1550000Y4456250I0J-243750D01*
G01*
G37*
G36*
G01*
X3425000Y4456250D02*
X3425000Y3543750D01*
G75*
G02*
X3181250Y3300000I-243750J0D01*
G01*
X2693750Y3300000D01*
G75*
G02*
X2450000Y3543750I0J243750D01*
G01*
X2450000Y4456250D01*
G75*
G02*
X2693750Y4700000I243750J0D01*
G01*
X3181250Y4700000D01*
G75*
G02*
X3425000Y4456250I0J-243750D01*
G01*
G37*
G36*
G01*
X3206250Y45800000D02*
X2293750Y45800000D01*
G75*
G02*
X2050000Y46043750I0J243750D01*
G01*
X2050000Y46531250D01*
G75*
G02*
X2293750Y46775000I243750J0D01*
G01*
X3206250Y46775000D01*
G75*
G02*
X3450000Y46531250I0J-243750D01*
G01*
X3450000Y46043750D01*
G75*
G02*
X3206250Y45800000I-243750J0D01*
G01*
G37*
G36*
G01*
X3206250Y43925000D02*
X2293750Y43925000D01*
G75*
G02*
X2050000Y44168750I0J243750D01*
G01*
X2050000Y44656250D01*
G75*
G02*
X2293750Y44900000I243750J0D01*
G01*
X3206250Y44900000D01*
G75*
G02*
X3450000Y44656250I0J-243750D01*
G01*
X3450000Y44168750D01*
G75*
G02*
X3206250Y43925000I-243750J0D01*
G01*
G37*
G36*
G01*
X-5050000Y7543750D02*
X-5050000Y8456250D01*
G75*
G02*
X-4806250Y8700000I243750J0D01*
G01*
X-4318750Y8700000D01*
G75*
G02*
X-4075000Y8456250I0J-243750D01*
G01*
X-4075000Y7543750D01*
G75*
G02*
X-4318750Y7300000I-243750J0D01*
G01*
X-4806250Y7300000D01*
G75*
G02*
X-5050000Y7543750I0J243750D01*
G01*
G37*
G36*
G01*
X-6925000Y7543750D02*
X-6925000Y8456250D01*
G75*
G02*
X-6681250Y8700000I243750J0D01*
G01*
X-6193750Y8700000D01*
G75*
G02*
X-5950000Y8456250I0J-243750D01*
G01*
X-5950000Y7543750D01*
G75*
G02*
X-6193750Y7300000I-243750J0D01*
G01*
X-6681250Y7300000D01*
G75*
G02*
X-6925000Y7543750I0J243750D01*
G01*
G37*
D15*
X-2890000Y45350000D03*
X2890000Y45350000D03*
D16*
X4320000Y48750000D03*
X-4320000Y48750000D03*
D17*
X-4320000Y44820000D03*
X4320000Y44820000D03*
G36*
G01*
X5950000Y-456250D02*
X5950000Y456250D01*
G75*
G02*
X6193750Y700000I243750J0D01*
G01*
X6681250Y700000D01*
G75*
G02*
X6925000Y456250I0J-243750D01*
G01*
X6925000Y-456250D01*
G75*
G02*
X6681250Y-700000I-243750J0D01*
G01*
X6193750Y-700000D01*
G75*
G02*
X5950000Y-456250I0J243750D01*
G01*
G37*
G36*
G01*
X4075000Y-456250D02*
X4075000Y456250D01*
G75*
G02*
X4318750Y700000I243750J0D01*
G01*
X4806250Y700000D01*
G75*
G02*
X5050000Y456250I0J-243750D01*
G01*
X5050000Y-456250D01*
G75*
G02*
X4806250Y-700000I-243750J0D01*
G01*
X4318750Y-700000D01*
G75*
G02*
X4075000Y-456250I0J243750D01*
G01*
G37*
G36*
G01*
X2450000Y1543750D02*
X2450000Y2456250D01*
G75*
G02*
X2693750Y2700000I243750J0D01*
G01*
X3181250Y2700000D01*
G75*
G02*
X3425000Y2456250I0J-243750D01*
G01*
X3425000Y1543750D01*
G75*
G02*
X3181250Y1300000I-243750J0D01*
G01*
X2693750Y1300000D01*
G75*
G02*
X2450000Y1543750I0J243750D01*
G01*
G37*
G36*
G01*
X575000Y1543750D02*
X575000Y2456250D01*
G75*
G02*
X818750Y2700000I243750J0D01*
G01*
X1306250Y2700000D01*
G75*
G02*
X1550000Y2456250I0J-243750D01*
G01*
X1550000Y1543750D01*
G75*
G02*
X1306250Y1300000I-243750J0D01*
G01*
X818750Y1300000D01*
G75*
G02*
X575000Y1543750I0J243750D01*
G01*
G37*
G36*
G01*
X-5950000Y4456250D02*
X-5950000Y3543750D01*
G75*
G02*
X-6193750Y3300000I-243750J0D01*
G01*
X-6681250Y3300000D01*
G75*
G02*
X-6925000Y3543750I0J243750D01*
G01*
X-6925000Y4456250D01*
G75*
G02*
X-6681250Y4700000I243750J0D01*
G01*
X-6193750Y4700000D01*
G75*
G02*
X-5950000Y4456250I0J-243750D01*
G01*
G37*
G36*
G01*
X-4075000Y4456250D02*
X-4075000Y3543750D01*
G75*
G02*
X-4318750Y3300000I-243750J0D01*
G01*
X-4806250Y3300000D01*
G75*
G02*
X-5050000Y3543750I0J243750D01*
G01*
X-5050000Y4456250D01*
G75*
G02*
X-4806250Y4700000I243750J0D01*
G01*
X-4318750Y4700000D01*
G75*
G02*
X-4075000Y4456250I0J-243750D01*
G01*
G37*
G36*
G01*
X-2293750Y45800000D02*
X-3206250Y45800000D01*
G75*
G02*
X-3450000Y46043750I0J243750D01*
G01*
X-3450000Y46531250D01*
G75*
G02*
X-3206250Y46775000I243750J0D01*
G01*
X-2293750Y46775000D01*
G75*
G02*
X-2050000Y46531250I0J-243750D01*
G01*
X-2050000Y46043750D01*
G75*
G02*
X-2293750Y45800000I-243750J0D01*
G01*
G37*
G36*
G01*
X-2293750Y43925000D02*
X-3206250Y43925000D01*
G75*
G02*
X-3450000Y44168750I0J243750D01*
G01*
X-3450000Y44656250D01*
G75*
G02*
X-3206250Y44900000I243750J0D01*
G01*
X-2293750Y44900000D01*
G75*
G02*
X-2050000Y44656250I0J-243750D01*
G01*
X-2050000Y44168750D01*
G75*
G02*
X-2293750Y43925000I-243750J0D01*
G01*
G37*
G36*
G01*
X2450000Y-4456250D02*
X2450000Y-3543750D01*
G75*
G02*
X2693750Y-3300000I243750J0D01*
G01*
X3181250Y-3300000D01*
G75*
G02*
X3425000Y-3543750I0J-243750D01*
G01*
X3425000Y-4456250D01*
G75*
G02*
X3181250Y-4700000I-243750J0D01*
G01*
X2693750Y-4700000D01*
G75*
G02*
X2450000Y-4456250I0J243750D01*
G01*
G37*
G36*
G01*
X575000Y-4456250D02*
X575000Y-3543750D01*
G75*
G02*
X818750Y-3300000I243750J0D01*
G01*
X1306250Y-3300000D01*
G75*
G02*
X1550000Y-3543750I0J-243750D01*
G01*
X1550000Y-4456250D01*
G75*
G02*
X1306250Y-4700000I-243750J0D01*
G01*
X818750Y-4700000D01*
G75*
G02*
X575000Y-4456250I0J243750D01*
G01*
G37*
G36*
G01*
X-2450000Y2456250D02*
X-2450000Y1543750D01*
G75*
G02*
X-2693750Y1300000I-243750J0D01*
G01*
X-3181250Y1300000D01*
G75*
G02*
X-3425000Y1543750I0J243750D01*
G01*
X-3425000Y2456250D01*
G75*
G02*
X-3181250Y2700000I243750J0D01*
G01*
X-2693750Y2700000D01*
G75*
G02*
X-2450000Y2456250I0J-243750D01*
G01*
G37*
G36*
G01*
X-575000Y2456250D02*
X-575000Y1543750D01*
G75*
G02*
X-818750Y1300000I-243750J0D01*
G01*
X-1306250Y1300000D01*
G75*
G02*
X-1550000Y1543750I0J243750D01*
G01*
X-1550000Y2456250D01*
G75*
G02*
X-1306250Y2700000I243750J0D01*
G01*
X-818750Y2700000D01*
G75*
G02*
X-575000Y2456250I0J-243750D01*
G01*
G37*
G36*
G01*
X-2800000Y-11280000D02*
X-2800000Y-11580000D01*
G75*
G02*
X-2950000Y-11730000I-150000J0D01*
G01*
X-4250000Y-11730000D01*
G75*
G02*
X-4400000Y-11580000I0J150000D01*
G01*
X-4400000Y-11280000D01*
G75*
G02*
X-4250000Y-11130000I150000J0D01*
G01*
X-2950000Y-11130000D01*
G75*
G02*
X-2800000Y-11280000I0J-150000D01*
G01*
G37*
G36*
G01*
X-2800000Y-12550000D02*
X-2800000Y-12850000D01*
G75*
G02*
X-2950000Y-13000000I-150000J0D01*
G01*
X-4250000Y-13000000D01*
G75*
G02*
X-4400000Y-12850000I0J150000D01*
G01*
X-4400000Y-12550000D01*
G75*
G02*
X-4250000Y-12400000I150000J0D01*
G01*
X-2950000Y-12400000D01*
G75*
G02*
X-2800000Y-12550000I0J-150000D01*
G01*
G37*
G36*
G01*
X-2800000Y-13820000D02*
X-2800000Y-14120000D01*
G75*
G02*
X-2950000Y-14270000I-150000J0D01*
G01*
X-4250000Y-14270000D01*
G75*
G02*
X-4400000Y-14120000I0J150000D01*
G01*
X-4400000Y-13820000D01*
G75*
G02*
X-4250000Y-13670000I150000J0D01*
G01*
X-2950000Y-13670000D01*
G75*
G02*
X-2800000Y-13820000I0J-150000D01*
G01*
G37*
G36*
G01*
X-2800000Y-15090000D02*
X-2800000Y-15390000D01*
G75*
G02*
X-2950000Y-15540000I-150000J0D01*
G01*
X-4250000Y-15540000D01*
G75*
G02*
X-4400000Y-15390000I0J150000D01*
G01*
X-4400000Y-15090000D01*
G75*
G02*
X-4250000Y-14940000I150000J0D01*
G01*
X-2950000Y-14940000D01*
G75*
G02*
X-2800000Y-15090000I0J-150000D01*
G01*
G37*
G36*
G01*
X4400000Y-15090000D02*
X4400000Y-15390000D01*
G75*
G02*
X4250000Y-15540000I-150000J0D01*
G01*
X2950000Y-15540000D01*
G75*
G02*
X2800000Y-15390000I0J150000D01*
G01*
X2800000Y-15090000D01*
G75*
G02*
X2950000Y-14940000I150000J0D01*
G01*
X4250000Y-14940000D01*
G75*
G02*
X4400000Y-15090000I0J-150000D01*
G01*
G37*
G36*
G01*
X4400000Y-13820000D02*
X4400000Y-14120000D01*
G75*
G02*
X4250000Y-14270000I-150000J0D01*
G01*
X2950000Y-14270000D01*
G75*
G02*
X2800000Y-14120000I0J150000D01*
G01*
X2800000Y-13820000D01*
G75*
G02*
X2950000Y-13670000I150000J0D01*
G01*
X4250000Y-13670000D01*
G75*
G02*
X4400000Y-13820000I0J-150000D01*
G01*
G37*
G36*
G01*
X4400000Y-12550000D02*
X4400000Y-12850000D01*
G75*
G02*
X4250000Y-13000000I-150000J0D01*
G01*
X2950000Y-13000000D01*
G75*
G02*
X2800000Y-12850000I0J150000D01*
G01*
X2800000Y-12550000D01*
G75*
G02*
X2950000Y-12400000I150000J0D01*
G01*
X4250000Y-12400000D01*
G75*
G02*
X4400000Y-12550000I0J-150000D01*
G01*
G37*
G36*
G01*
X4400000Y-11280000D02*
X4400000Y-11580000D01*
G75*
G02*
X4250000Y-11730000I-150000J0D01*
G01*
X2950000Y-11730000D01*
G75*
G02*
X2800000Y-11580000I0J150000D01*
G01*
X2800000Y-11280000D01*
G75*
G02*
X2950000Y-11130000I150000J0D01*
G01*
X4250000Y-11130000D01*
G75*
G02*
X4400000Y-11280000I0J-150000D01*
G01*
G37*
G36*
G01*
X30120000Y44600000D02*
X30120000Y44300000D01*
G75*
G02*
X29970000Y44150000I-150000J0D01*
G01*
X28320000Y44150000D01*
G75*
G02*
X28170000Y44300000I0J150000D01*
G01*
X28170000Y44600000D01*
G75*
G02*
X28320000Y44750000I150000J0D01*
G01*
X29970000Y44750000D01*
G75*
G02*
X30120000Y44600000I0J-150000D01*
G01*
G37*
G36*
G01*
X30120000Y43330000D02*
X30120000Y43030000D01*
G75*
G02*
X29970000Y42880000I-150000J0D01*
G01*
X28320000Y42880000D01*
G75*
G02*
X28170000Y43030000I0J150000D01*
G01*
X28170000Y43330000D01*
G75*
G02*
X28320000Y43480000I150000J0D01*
G01*
X29970000Y43480000D01*
G75*
G02*
X30120000Y43330000I0J-150000D01*
G01*
G37*
G36*
G01*
X30120000Y42060000D02*
X30120000Y41760000D01*
G75*
G02*
X29970000Y41610000I-150000J0D01*
G01*
X28320000Y41610000D01*
G75*
G02*
X28170000Y41760000I0J150000D01*
G01*
X28170000Y42060000D01*
G75*
G02*
X28320000Y42210000I150000J0D01*
G01*
X29970000Y42210000D01*
G75*
G02*
X30120000Y42060000I0J-150000D01*
G01*
G37*
G36*
G01*
X30120000Y40790000D02*
X30120000Y40490000D01*
G75*
G02*
X29970000Y40340000I-150000J0D01*
G01*
X28320000Y40340000D01*
G75*
G02*
X28170000Y40490000I0J150000D01*
G01*
X28170000Y40790000D01*
G75*
G02*
X28320000Y40940000I150000J0D01*
G01*
X29970000Y40940000D01*
G75*
G02*
X30120000Y40790000I0J-150000D01*
G01*
G37*
G36*
G01*
X30120000Y39520000D02*
X30120000Y39220000D01*
G75*
G02*
X29970000Y39070000I-150000J0D01*
G01*
X28320000Y39070000D01*
G75*
G02*
X28170000Y39220000I0J150000D01*
G01*
X28170000Y39520000D01*
G75*
G02*
X28320000Y39670000I150000J0D01*
G01*
X29970000Y39670000D01*
G75*
G02*
X30120000Y39520000I0J-150000D01*
G01*
G37*
G36*
G01*
X30120000Y38250000D02*
X30120000Y37950000D01*
G75*
G02*
X29970000Y37800000I-150000J0D01*
G01*
X28320000Y37800000D01*
G75*
G02*
X28170000Y37950000I0J150000D01*
G01*
X28170000Y38250000D01*
G75*
G02*
X28320000Y38400000I150000J0D01*
G01*
X29970000Y38400000D01*
G75*
G02*
X30120000Y38250000I0J-150000D01*
G01*
G37*
G36*
G01*
X30120000Y36980000D02*
X30120000Y36680000D01*
G75*
G02*
X29970000Y36530000I-150000J0D01*
G01*
X28320000Y36530000D01*
G75*
G02*
X28170000Y36680000I0J150000D01*
G01*
X28170000Y36980000D01*
G75*
G02*
X28320000Y37130000I150000J0D01*
G01*
X29970000Y37130000D01*
G75*
G02*
X30120000Y36980000I0J-150000D01*
G01*
G37*
G36*
G01*
X30120000Y35710000D02*
X30120000Y35410000D01*
G75*
G02*
X29970000Y35260000I-150000J0D01*
G01*
X28320000Y35260000D01*
G75*
G02*
X28170000Y35410000I0J150000D01*
G01*
X28170000Y35710000D01*
G75*
G02*
X28320000Y35860000I150000J0D01*
G01*
X29970000Y35860000D01*
G75*
G02*
X30120000Y35710000I0J-150000D01*
G01*
G37*
G36*
G01*
X25170000Y35710000D02*
X25170000Y35410000D01*
G75*
G02*
X25020000Y35260000I-150000J0D01*
G01*
X23370000Y35260000D01*
G75*
G02*
X23220000Y35410000I0J150000D01*
G01*
X23220000Y35710000D01*
G75*
G02*
X23370000Y35860000I150000J0D01*
G01*
X25020000Y35860000D01*
G75*
G02*
X25170000Y35710000I0J-150000D01*
G01*
G37*
G36*
G01*
X25170000Y36980000D02*
X25170000Y36680000D01*
G75*
G02*
X25020000Y36530000I-150000J0D01*
G01*
X23370000Y36530000D01*
G75*
G02*
X23220000Y36680000I0J150000D01*
G01*
X23220000Y36980000D01*
G75*
G02*
X23370000Y37130000I150000J0D01*
G01*
X25020000Y37130000D01*
G75*
G02*
X25170000Y36980000I0J-150000D01*
G01*
G37*
G36*
G01*
X25170000Y38250000D02*
X25170000Y37950000D01*
G75*
G02*
X25020000Y37800000I-150000J0D01*
G01*
X23370000Y37800000D01*
G75*
G02*
X23220000Y37950000I0J150000D01*
G01*
X23220000Y38250000D01*
G75*
G02*
X23370000Y38400000I150000J0D01*
G01*
X25020000Y38400000D01*
G75*
G02*
X25170000Y38250000I0J-150000D01*
G01*
G37*
G36*
G01*
X25170000Y39520000D02*
X25170000Y39220000D01*
G75*
G02*
X25020000Y39070000I-150000J0D01*
G01*
X23370000Y39070000D01*
G75*
G02*
X23220000Y39220000I0J150000D01*
G01*
X23220000Y39520000D01*
G75*
G02*
X23370000Y39670000I150000J0D01*
G01*
X25020000Y39670000D01*
G75*
G02*
X25170000Y39520000I0J-150000D01*
G01*
G37*
G36*
G01*
X25170000Y40790000D02*
X25170000Y40490000D01*
G75*
G02*
X25020000Y40340000I-150000J0D01*
G01*
X23370000Y40340000D01*
G75*
G02*
X23220000Y40490000I0J150000D01*
G01*
X23220000Y40790000D01*
G75*
G02*
X23370000Y40940000I150000J0D01*
G01*
X25020000Y40940000D01*
G75*
G02*
X25170000Y40790000I0J-150000D01*
G01*
G37*
G36*
G01*
X25170000Y42060000D02*
X25170000Y41760000D01*
G75*
G02*
X25020000Y41610000I-150000J0D01*
G01*
X23370000Y41610000D01*
G75*
G02*
X23220000Y41760000I0J150000D01*
G01*
X23220000Y42060000D01*
G75*
G02*
X23370000Y42210000I150000J0D01*
G01*
X25020000Y42210000D01*
G75*
G02*
X25170000Y42060000I0J-150000D01*
G01*
G37*
G36*
G01*
X25170000Y43330000D02*
X25170000Y43030000D01*
G75*
G02*
X25020000Y42880000I-150000J0D01*
G01*
X23370000Y42880000D01*
G75*
G02*
X23220000Y43030000I0J150000D01*
G01*
X23220000Y43330000D01*
G75*
G02*
X23370000Y43480000I150000J0D01*
G01*
X25020000Y43480000D01*
G75*
G02*
X25170000Y43330000I0J-150000D01*
G01*
G37*
G36*
G01*
X25170000Y44600000D02*
X25170000Y44300000D01*
G75*
G02*
X25020000Y44150000I-150000J0D01*
G01*
X23370000Y44150000D01*
G75*
G02*
X23220000Y44300000I0J150000D01*
G01*
X23220000Y44600000D01*
G75*
G02*
X23370000Y44750000I150000J0D01*
G01*
X25020000Y44750000D01*
G75*
G02*
X25170000Y44600000I0J-150000D01*
G01*
G37*
G36*
G01*
X-23220000Y44600000D02*
X-23220000Y44300000D01*
G75*
G02*
X-23370000Y44150000I-150000J0D01*
G01*
X-25020000Y44150000D01*
G75*
G02*
X-25170000Y44300000I0J150000D01*
G01*
X-25170000Y44600000D01*
G75*
G02*
X-25020000Y44750000I150000J0D01*
G01*
X-23370000Y44750000D01*
G75*
G02*
X-23220000Y44600000I0J-150000D01*
G01*
G37*
G36*
G01*
X-23220000Y43330000D02*
X-23220000Y43030000D01*
G75*
G02*
X-23370000Y42880000I-150000J0D01*
G01*
X-25020000Y42880000D01*
G75*
G02*
X-25170000Y43030000I0J150000D01*
G01*
X-25170000Y43330000D01*
G75*
G02*
X-25020000Y43480000I150000J0D01*
G01*
X-23370000Y43480000D01*
G75*
G02*
X-23220000Y43330000I0J-150000D01*
G01*
G37*
G36*
G01*
X-23220000Y42060000D02*
X-23220000Y41760000D01*
G75*
G02*
X-23370000Y41610000I-150000J0D01*
G01*
X-25020000Y41610000D01*
G75*
G02*
X-25170000Y41760000I0J150000D01*
G01*
X-25170000Y42060000D01*
G75*
G02*
X-25020000Y42210000I150000J0D01*
G01*
X-23370000Y42210000D01*
G75*
G02*
X-23220000Y42060000I0J-150000D01*
G01*
G37*
G36*
G01*
X-23220000Y40790000D02*
X-23220000Y40490000D01*
G75*
G02*
X-23370000Y40340000I-150000J0D01*
G01*
X-25020000Y40340000D01*
G75*
G02*
X-25170000Y40490000I0J150000D01*
G01*
X-25170000Y40790000D01*
G75*
G02*
X-25020000Y40940000I150000J0D01*
G01*
X-23370000Y40940000D01*
G75*
G02*
X-23220000Y40790000I0J-150000D01*
G01*
G37*
G36*
G01*
X-23220000Y39520000D02*
X-23220000Y39220000D01*
G75*
G02*
X-23370000Y39070000I-150000J0D01*
G01*
X-25020000Y39070000D01*
G75*
G02*
X-25170000Y39220000I0J150000D01*
G01*
X-25170000Y39520000D01*
G75*
G02*
X-25020000Y39670000I150000J0D01*
G01*
X-23370000Y39670000D01*
G75*
G02*
X-23220000Y39520000I0J-150000D01*
G01*
G37*
G36*
G01*
X-23220000Y38250000D02*
X-23220000Y37950000D01*
G75*
G02*
X-23370000Y37800000I-150000J0D01*
G01*
X-25020000Y37800000D01*
G75*
G02*
X-25170000Y37950000I0J150000D01*
G01*
X-25170000Y38250000D01*
G75*
G02*
X-25020000Y38400000I150000J0D01*
G01*
X-23370000Y38400000D01*
G75*
G02*
X-23220000Y38250000I0J-150000D01*
G01*
G37*
G36*
G01*
X-23220000Y36980000D02*
X-23220000Y36680000D01*
G75*
G02*
X-23370000Y36530000I-150000J0D01*
G01*
X-25020000Y36530000D01*
G75*
G02*
X-25170000Y36680000I0J150000D01*
G01*
X-25170000Y36980000D01*
G75*
G02*
X-25020000Y37130000I150000J0D01*
G01*
X-23370000Y37130000D01*
G75*
G02*
X-23220000Y36980000I0J-150000D01*
G01*
G37*
G36*
G01*
X-23220000Y35710000D02*
X-23220000Y35410000D01*
G75*
G02*
X-23370000Y35260000I-150000J0D01*
G01*
X-25020000Y35260000D01*
G75*
G02*
X-25170000Y35410000I0J150000D01*
G01*
X-25170000Y35710000D01*
G75*
G02*
X-25020000Y35860000I150000J0D01*
G01*
X-23370000Y35860000D01*
G75*
G02*
X-23220000Y35710000I0J-150000D01*
G01*
G37*
G36*
G01*
X-28170000Y35710000D02*
X-28170000Y35410000D01*
G75*
G02*
X-28320000Y35260000I-150000J0D01*
G01*
X-29970000Y35260000D01*
G75*
G02*
X-30120000Y35410000I0J150000D01*
G01*
X-30120000Y35710000D01*
G75*
G02*
X-29970000Y35860000I150000J0D01*
G01*
X-28320000Y35860000D01*
G75*
G02*
X-28170000Y35710000I0J-150000D01*
G01*
G37*
G36*
G01*
X-28170000Y36980000D02*
X-28170000Y36680000D01*
G75*
G02*
X-28320000Y36530000I-150000J0D01*
G01*
X-29970000Y36530000D01*
G75*
G02*
X-30120000Y36680000I0J150000D01*
G01*
X-30120000Y36980000D01*
G75*
G02*
X-29970000Y37130000I150000J0D01*
G01*
X-28320000Y37130000D01*
G75*
G02*
X-28170000Y36980000I0J-150000D01*
G01*
G37*
G36*
G01*
X-28170000Y38250000D02*
X-28170000Y37950000D01*
G75*
G02*
X-28320000Y37800000I-150000J0D01*
G01*
X-29970000Y37800000D01*
G75*
G02*
X-30120000Y37950000I0J150000D01*
G01*
X-30120000Y38250000D01*
G75*
G02*
X-29970000Y38400000I150000J0D01*
G01*
X-28320000Y38400000D01*
G75*
G02*
X-28170000Y38250000I0J-150000D01*
G01*
G37*
G36*
G01*
X-28170000Y39520000D02*
X-28170000Y39220000D01*
G75*
G02*
X-28320000Y39070000I-150000J0D01*
G01*
X-29970000Y39070000D01*
G75*
G02*
X-30120000Y39220000I0J150000D01*
G01*
X-30120000Y39520000D01*
G75*
G02*
X-29970000Y39670000I150000J0D01*
G01*
X-28320000Y39670000D01*
G75*
G02*
X-28170000Y39520000I0J-150000D01*
G01*
G37*
G36*
G01*
X-28170000Y40790000D02*
X-28170000Y40490000D01*
G75*
G02*
X-28320000Y40340000I-150000J0D01*
G01*
X-29970000Y40340000D01*
G75*
G02*
X-30120000Y40490000I0J150000D01*
G01*
X-30120000Y40790000D01*
G75*
G02*
X-29970000Y40940000I150000J0D01*
G01*
X-28320000Y40940000D01*
G75*
G02*
X-28170000Y40790000I0J-150000D01*
G01*
G37*
G36*
G01*
X-28170000Y42060000D02*
X-28170000Y41760000D01*
G75*
G02*
X-28320000Y41610000I-150000J0D01*
G01*
X-29970000Y41610000D01*
G75*
G02*
X-30120000Y41760000I0J150000D01*
G01*
X-30120000Y42060000D01*
G75*
G02*
X-29970000Y42210000I150000J0D01*
G01*
X-28320000Y42210000D01*
G75*
G02*
X-28170000Y42060000I0J-150000D01*
G01*
G37*
G36*
G01*
X-28170000Y43330000D02*
X-28170000Y43030000D01*
G75*
G02*
X-28320000Y42880000I-150000J0D01*
G01*
X-29970000Y42880000D01*
G75*
G02*
X-30120000Y43030000I0J150000D01*
G01*
X-30120000Y43330000D01*
G75*
G02*
X-29970000Y43480000I150000J0D01*
G01*
X-28320000Y43480000D01*
G75*
G02*
X-28170000Y43330000I0J-150000D01*
G01*
G37*
G36*
G01*
X-28170000Y44600000D02*
X-28170000Y44300000D01*
G75*
G02*
X-28320000Y44150000I-150000J0D01*
G01*
X-29970000Y44150000D01*
G75*
G02*
X-30120000Y44300000I0J150000D01*
G01*
X-30120000Y44600000D01*
G75*
G02*
X-29970000Y44750000I150000J0D01*
G01*
X-28320000Y44750000D01*
G75*
G02*
X-28170000Y44600000I0J-150000D01*
G01*
G37*
D18*
X-32170000Y46490000D03*
X-21170000Y46490000D03*
D16*
X-23170000Y46990000D03*
X-24170000Y46990000D03*
X-25170000Y46990000D03*
X-26170000Y46990000D03*
X-27170000Y46990000D03*
X-28170000Y46990000D03*
X-29170000Y46990000D03*
X-30170000Y46990000D03*
G36*
G01*
X29666250Y33470000D02*
X28753750Y33470000D01*
G75*
G02*
X28510000Y33713750I0J243750D01*
G01*
X28510000Y34201250D01*
G75*
G02*
X28753750Y34445000I243750J0D01*
G01*
X29666250Y34445000D01*
G75*
G02*
X29910000Y34201250I0J-243750D01*
G01*
X29910000Y33713750D01*
G75*
G02*
X29666250Y33470000I-243750J0D01*
G01*
G37*
G36*
G01*
X29666250Y31595000D02*
X28753750Y31595000D01*
G75*
G02*
X28510000Y31838750I0J243750D01*
G01*
X28510000Y32326250D01*
G75*
G02*
X28753750Y32570000I243750J0D01*
G01*
X29666250Y32570000D01*
G75*
G02*
X29910000Y32326250I0J-243750D01*
G01*
X29910000Y31838750D01*
G75*
G02*
X29666250Y31595000I-243750J0D01*
G01*
G37*
G36*
G01*
X-23673750Y33470000D02*
X-24586250Y33470000D01*
G75*
G02*
X-24830000Y33713750I0J243750D01*
G01*
X-24830000Y34201250D01*
G75*
G02*
X-24586250Y34445000I243750J0D01*
G01*
X-23673750Y34445000D01*
G75*
G02*
X-23430000Y34201250I0J-243750D01*
G01*
X-23430000Y33713750D01*
G75*
G02*
X-23673750Y33470000I-243750J0D01*
G01*
G37*
G36*
G01*
X-23673750Y31595000D02*
X-24586250Y31595000D01*
G75*
G02*
X-24830000Y31838750I0J243750D01*
G01*
X-24830000Y32326250D01*
G75*
G02*
X-24586250Y32570000I243750J0D01*
G01*
X-23673750Y32570000D01*
G75*
G02*
X-23430000Y32326250I0J-243750D01*
G01*
X-23430000Y31838750D01*
G75*
G02*
X-23673750Y31595000I-243750J0D01*
G01*
G37*
G36*
G01*
X42088750Y39555000D02*
X43001250Y39555000D01*
G75*
G02*
X43245000Y39311250I0J-243750D01*
G01*
X43245000Y38823750D01*
G75*
G02*
X43001250Y38580000I-243750J0D01*
G01*
X42088750Y38580000D01*
G75*
G02*
X41845000Y38823750I0J243750D01*
G01*
X41845000Y39311250D01*
G75*
G02*
X42088750Y39555000I243750J0D01*
G01*
G37*
G36*
G01*
X42088750Y41430000D02*
X43001250Y41430000D01*
G75*
G02*
X43245000Y41186250I0J-243750D01*
G01*
X43245000Y40698750D01*
G75*
G02*
X43001250Y40455000I-243750J0D01*
G01*
X42088750Y40455000D01*
G75*
G02*
X41845000Y40698750I0J243750D01*
G01*
X41845000Y41186250D01*
G75*
G02*
X42088750Y41430000I243750J0D01*
G01*
G37*
G36*
G01*
X40461250Y40455000D02*
X39548750Y40455000D01*
G75*
G02*
X39305000Y40698750I0J243750D01*
G01*
X39305000Y41186250D01*
G75*
G02*
X39548750Y41430000I243750J0D01*
G01*
X40461250Y41430000D01*
G75*
G02*
X40705000Y41186250I0J-243750D01*
G01*
X40705000Y40698750D01*
G75*
G02*
X40461250Y40455000I-243750J0D01*
G01*
G37*
G36*
G01*
X40461250Y38580000D02*
X39548750Y38580000D01*
G75*
G02*
X39305000Y38823750I0J243750D01*
G01*
X39305000Y39311250D01*
G75*
G02*
X39548750Y39555000I243750J0D01*
G01*
X40461250Y39555000D01*
G75*
G02*
X40705000Y39311250I0J-243750D01*
G01*
X40705000Y38823750D01*
G75*
G02*
X40461250Y38580000I-243750J0D01*
G01*
G37*
G36*
G01*
X37921250Y36645000D02*
X37008750Y36645000D01*
G75*
G02*
X36765000Y36888750I0J243750D01*
G01*
X36765000Y37376250D01*
G75*
G02*
X37008750Y37620000I243750J0D01*
G01*
X37921250Y37620000D01*
G75*
G02*
X38165000Y37376250I0J-243750D01*
G01*
X38165000Y36888750D01*
G75*
G02*
X37921250Y36645000I-243750J0D01*
G01*
G37*
G36*
G01*
X37921250Y34770000D02*
X37008750Y34770000D01*
G75*
G02*
X36765000Y35013750I0J243750D01*
G01*
X36765000Y35501250D01*
G75*
G02*
X37008750Y35745000I243750J0D01*
G01*
X37921250Y35745000D01*
G75*
G02*
X38165000Y35501250I0J-243750D01*
G01*
X38165000Y35013750D01*
G75*
G02*
X37921250Y34770000I-243750J0D01*
G01*
G37*
G36*
G01*
X43001250Y36645000D02*
X42088750Y36645000D01*
G75*
G02*
X41845000Y36888750I0J243750D01*
G01*
X41845000Y37376250D01*
G75*
G02*
X42088750Y37620000I243750J0D01*
G01*
X43001250Y37620000D01*
G75*
G02*
X43245000Y37376250I0J-243750D01*
G01*
X43245000Y36888750D01*
G75*
G02*
X43001250Y36645000I-243750J0D01*
G01*
G37*
G36*
G01*
X43001250Y34770000D02*
X42088750Y34770000D01*
G75*
G02*
X41845000Y35013750I0J243750D01*
G01*
X41845000Y35501250D01*
G75*
G02*
X42088750Y35745000I243750J0D01*
G01*
X43001250Y35745000D01*
G75*
G02*
X43245000Y35501250I0J-243750D01*
G01*
X43245000Y35013750D01*
G75*
G02*
X43001250Y34770000I-243750J0D01*
G01*
G37*
G36*
G01*
X40461250Y36645000D02*
X39548750Y36645000D01*
G75*
G02*
X39305000Y36888750I0J243750D01*
G01*
X39305000Y37376250D01*
G75*
G02*
X39548750Y37620000I243750J0D01*
G01*
X40461250Y37620000D01*
G75*
G02*
X40705000Y37376250I0J-243750D01*
G01*
X40705000Y36888750D01*
G75*
G02*
X40461250Y36645000I-243750J0D01*
G01*
G37*
G36*
G01*
X40461250Y34770000D02*
X39548750Y34770000D01*
G75*
G02*
X39305000Y35013750I0J243750D01*
G01*
X39305000Y35501250D01*
G75*
G02*
X39548750Y35745000I243750J0D01*
G01*
X40461250Y35745000D01*
G75*
G02*
X40705000Y35501250I0J-243750D01*
G01*
X40705000Y35013750D01*
G75*
G02*
X40461250Y34770000I-243750J0D01*
G01*
G37*
G36*
G01*
X10338750Y39555000D02*
X11251250Y39555000D01*
G75*
G02*
X11495000Y39311250I0J-243750D01*
G01*
X11495000Y38823750D01*
G75*
G02*
X11251250Y38580000I-243750J0D01*
G01*
X10338750Y38580000D01*
G75*
G02*
X10095000Y38823750I0J243750D01*
G01*
X10095000Y39311250D01*
G75*
G02*
X10338750Y39555000I243750J0D01*
G01*
G37*
G36*
G01*
X10338750Y41430000D02*
X11251250Y41430000D01*
G75*
G02*
X11495000Y41186250I0J-243750D01*
G01*
X11495000Y40698750D01*
G75*
G02*
X11251250Y40455000I-243750J0D01*
G01*
X10338750Y40455000D01*
G75*
G02*
X10095000Y40698750I0J243750D01*
G01*
X10095000Y41186250D01*
G75*
G02*
X10338750Y41430000I243750J0D01*
G01*
G37*
G36*
G01*
X15418750Y39555000D02*
X16331250Y39555000D01*
G75*
G02*
X16575000Y39311250I0J-243750D01*
G01*
X16575000Y38823750D01*
G75*
G02*
X16331250Y38580000I-243750J0D01*
G01*
X15418750Y38580000D01*
G75*
G02*
X15175000Y38823750I0J243750D01*
G01*
X15175000Y39311250D01*
G75*
G02*
X15418750Y39555000I243750J0D01*
G01*
G37*
G36*
G01*
X15418750Y41430000D02*
X16331250Y41430000D01*
G75*
G02*
X16575000Y41186250I0J-243750D01*
G01*
X16575000Y40698750D01*
G75*
G02*
X16331250Y40455000I-243750J0D01*
G01*
X15418750Y40455000D01*
G75*
G02*
X15175000Y40698750I0J243750D01*
G01*
X15175000Y41186250D01*
G75*
G02*
X15418750Y41430000I243750J0D01*
G01*
G37*
G36*
G01*
X13791250Y40455000D02*
X12878750Y40455000D01*
G75*
G02*
X12635000Y40698750I0J243750D01*
G01*
X12635000Y41186250D01*
G75*
G02*
X12878750Y41430000I243750J0D01*
G01*
X13791250Y41430000D01*
G75*
G02*
X14035000Y41186250I0J-243750D01*
G01*
X14035000Y40698750D01*
G75*
G02*
X13791250Y40455000I-243750J0D01*
G01*
G37*
G36*
G01*
X13791250Y38580000D02*
X12878750Y38580000D01*
G75*
G02*
X12635000Y38823750I0J243750D01*
G01*
X12635000Y39311250D01*
G75*
G02*
X12878750Y39555000I243750J0D01*
G01*
X13791250Y39555000D01*
G75*
G02*
X14035000Y39311250I0J-243750D01*
G01*
X14035000Y38823750D01*
G75*
G02*
X13791250Y38580000I-243750J0D01*
G01*
G37*
G36*
G01*
X11251250Y36645000D02*
X10338750Y36645000D01*
G75*
G02*
X10095000Y36888750I0J243750D01*
G01*
X10095000Y37376250D01*
G75*
G02*
X10338750Y37620000I243750J0D01*
G01*
X11251250Y37620000D01*
G75*
G02*
X11495000Y37376250I0J-243750D01*
G01*
X11495000Y36888750D01*
G75*
G02*
X11251250Y36645000I-243750J0D01*
G01*
G37*
G36*
G01*
X11251250Y34770000D02*
X10338750Y34770000D01*
G75*
G02*
X10095000Y35013750I0J243750D01*
G01*
X10095000Y35501250D01*
G75*
G02*
X10338750Y35745000I243750J0D01*
G01*
X11251250Y35745000D01*
G75*
G02*
X11495000Y35501250I0J-243750D01*
G01*
X11495000Y35013750D01*
G75*
G02*
X11251250Y34770000I-243750J0D01*
G01*
G37*
G36*
G01*
X16331250Y36645000D02*
X15418750Y36645000D01*
G75*
G02*
X15175000Y36888750I0J243750D01*
G01*
X15175000Y37376250D01*
G75*
G02*
X15418750Y37620000I243750J0D01*
G01*
X16331250Y37620000D01*
G75*
G02*
X16575000Y37376250I0J-243750D01*
G01*
X16575000Y36888750D01*
G75*
G02*
X16331250Y36645000I-243750J0D01*
G01*
G37*
G36*
G01*
X16331250Y34770000D02*
X15418750Y34770000D01*
G75*
G02*
X15175000Y35013750I0J243750D01*
G01*
X15175000Y35501250D01*
G75*
G02*
X15418750Y35745000I243750J0D01*
G01*
X16331250Y35745000D01*
G75*
G02*
X16575000Y35501250I0J-243750D01*
G01*
X16575000Y35013750D01*
G75*
G02*
X16331250Y34770000I-243750J0D01*
G01*
G37*
G36*
G01*
X13791250Y36645000D02*
X12878750Y36645000D01*
G75*
G02*
X12635000Y36888750I0J243750D01*
G01*
X12635000Y37376250D01*
G75*
G02*
X12878750Y37620000I243750J0D01*
G01*
X13791250Y37620000D01*
G75*
G02*
X14035000Y37376250I0J-243750D01*
G01*
X14035000Y36888750D01*
G75*
G02*
X13791250Y36645000I-243750J0D01*
G01*
G37*
G36*
G01*
X13791250Y34770000D02*
X12878750Y34770000D01*
G75*
G02*
X12635000Y35013750I0J243750D01*
G01*
X12635000Y35501250D01*
G75*
G02*
X12878750Y35745000I243750J0D01*
G01*
X13791250Y35745000D01*
G75*
G02*
X14035000Y35501250I0J-243750D01*
G01*
X14035000Y35013750D01*
G75*
G02*
X13791250Y34770000I-243750J0D01*
G01*
G37*
G36*
G01*
X-16331250Y39555000D02*
X-15418750Y39555000D01*
G75*
G02*
X-15175000Y39311250I0J-243750D01*
G01*
X-15175000Y38823750D01*
G75*
G02*
X-15418750Y38580000I-243750J0D01*
G01*
X-16331250Y38580000D01*
G75*
G02*
X-16575000Y38823750I0J243750D01*
G01*
X-16575000Y39311250D01*
G75*
G02*
X-16331250Y39555000I243750J0D01*
G01*
G37*
G36*
G01*
X-16331250Y41430000D02*
X-15418750Y41430000D01*
G75*
G02*
X-15175000Y41186250I0J-243750D01*
G01*
X-15175000Y40698750D01*
G75*
G02*
X-15418750Y40455000I-243750J0D01*
G01*
X-16331250Y40455000D01*
G75*
G02*
X-16575000Y40698750I0J243750D01*
G01*
X-16575000Y41186250D01*
G75*
G02*
X-16331250Y41430000I243750J0D01*
G01*
G37*
G36*
G01*
X-11251250Y39555000D02*
X-10338750Y39555000D01*
G75*
G02*
X-10095000Y39311250I0J-243750D01*
G01*
X-10095000Y38823750D01*
G75*
G02*
X-10338750Y38580000I-243750J0D01*
G01*
X-11251250Y38580000D01*
G75*
G02*
X-11495000Y38823750I0J243750D01*
G01*
X-11495000Y39311250D01*
G75*
G02*
X-11251250Y39555000I243750J0D01*
G01*
G37*
G36*
G01*
X-11251250Y41430000D02*
X-10338750Y41430000D01*
G75*
G02*
X-10095000Y41186250I0J-243750D01*
G01*
X-10095000Y40698750D01*
G75*
G02*
X-10338750Y40455000I-243750J0D01*
G01*
X-11251250Y40455000D01*
G75*
G02*
X-11495000Y40698750I0J243750D01*
G01*
X-11495000Y41186250D01*
G75*
G02*
X-11251250Y41430000I243750J0D01*
G01*
G37*
G36*
G01*
X-12878750Y40455000D02*
X-13791250Y40455000D01*
G75*
G02*
X-14035000Y40698750I0J243750D01*
G01*
X-14035000Y41186250D01*
G75*
G02*
X-13791250Y41430000I243750J0D01*
G01*
X-12878750Y41430000D01*
G75*
G02*
X-12635000Y41186250I0J-243750D01*
G01*
X-12635000Y40698750D01*
G75*
G02*
X-12878750Y40455000I-243750J0D01*
G01*
G37*
G36*
G01*
X-12878750Y38580000D02*
X-13791250Y38580000D01*
G75*
G02*
X-14035000Y38823750I0J243750D01*
G01*
X-14035000Y39311250D01*
G75*
G02*
X-13791250Y39555000I243750J0D01*
G01*
X-12878750Y39555000D01*
G75*
G02*
X-12635000Y39311250I0J-243750D01*
G01*
X-12635000Y38823750D01*
G75*
G02*
X-12878750Y38580000I-243750J0D01*
G01*
G37*
G36*
G01*
X-15418750Y36645000D02*
X-16331250Y36645000D01*
G75*
G02*
X-16575000Y36888750I0J243750D01*
G01*
X-16575000Y37376250D01*
G75*
G02*
X-16331250Y37620000I243750J0D01*
G01*
X-15418750Y37620000D01*
G75*
G02*
X-15175000Y37376250I0J-243750D01*
G01*
X-15175000Y36888750D01*
G75*
G02*
X-15418750Y36645000I-243750J0D01*
G01*
G37*
G36*
G01*
X-15418750Y34770000D02*
X-16331250Y34770000D01*
G75*
G02*
X-16575000Y35013750I0J243750D01*
G01*
X-16575000Y35501250D01*
G75*
G02*
X-16331250Y35745000I243750J0D01*
G01*
X-15418750Y35745000D01*
G75*
G02*
X-15175000Y35501250I0J-243750D01*
G01*
X-15175000Y35013750D01*
G75*
G02*
X-15418750Y34770000I-243750J0D01*
G01*
G37*
G36*
G01*
X-10338750Y36645000D02*
X-11251250Y36645000D01*
G75*
G02*
X-11495000Y36888750I0J243750D01*
G01*
X-11495000Y37376250D01*
G75*
G02*
X-11251250Y37620000I243750J0D01*
G01*
X-10338750Y37620000D01*
G75*
G02*
X-10095000Y37376250I0J-243750D01*
G01*
X-10095000Y36888750D01*
G75*
G02*
X-10338750Y36645000I-243750J0D01*
G01*
G37*
G36*
G01*
X-10338750Y34770000D02*
X-11251250Y34770000D01*
G75*
G02*
X-11495000Y35013750I0J243750D01*
G01*
X-11495000Y35501250D01*
G75*
G02*
X-11251250Y35745000I243750J0D01*
G01*
X-10338750Y35745000D01*
G75*
G02*
X-10095000Y35501250I0J-243750D01*
G01*
X-10095000Y35013750D01*
G75*
G02*
X-10338750Y34770000I-243750J0D01*
G01*
G37*
G36*
G01*
X-12878750Y36645000D02*
X-13791250Y36645000D01*
G75*
G02*
X-14035000Y36888750I0J243750D01*
G01*
X-14035000Y37376250D01*
G75*
G02*
X-13791250Y37620000I243750J0D01*
G01*
X-12878750Y37620000D01*
G75*
G02*
X-12635000Y37376250I0J-243750D01*
G01*
X-12635000Y36888750D01*
G75*
G02*
X-12878750Y36645000I-243750J0D01*
G01*
G37*
G36*
G01*
X-12878750Y34770000D02*
X-13791250Y34770000D01*
G75*
G02*
X-14035000Y35013750I0J243750D01*
G01*
X-14035000Y35501250D01*
G75*
G02*
X-13791250Y35745000I243750J0D01*
G01*
X-12878750Y35745000D01*
G75*
G02*
X-12635000Y35501250I0J-243750D01*
G01*
X-12635000Y35013750D01*
G75*
G02*
X-12878750Y34770000I-243750J0D01*
G01*
G37*
G36*
G01*
X-43001250Y39555000D02*
X-42088750Y39555000D01*
G75*
G02*
X-41845000Y39311250I0J-243750D01*
G01*
X-41845000Y38823750D01*
G75*
G02*
X-42088750Y38580000I-243750J0D01*
G01*
X-43001250Y38580000D01*
G75*
G02*
X-43245000Y38823750I0J243750D01*
G01*
X-43245000Y39311250D01*
G75*
G02*
X-43001250Y39555000I243750J0D01*
G01*
G37*
G36*
G01*
X-43001250Y41430000D02*
X-42088750Y41430000D01*
G75*
G02*
X-41845000Y41186250I0J-243750D01*
G01*
X-41845000Y40698750D01*
G75*
G02*
X-42088750Y40455000I-243750J0D01*
G01*
X-43001250Y40455000D01*
G75*
G02*
X-43245000Y40698750I0J243750D01*
G01*
X-43245000Y41186250D01*
G75*
G02*
X-43001250Y41430000I243750J0D01*
G01*
G37*
G36*
G01*
X-37921250Y39555000D02*
X-37008750Y39555000D01*
G75*
G02*
X-36765000Y39311250I0J-243750D01*
G01*
X-36765000Y38823750D01*
G75*
G02*
X-37008750Y38580000I-243750J0D01*
G01*
X-37921250Y38580000D01*
G75*
G02*
X-38165000Y38823750I0J243750D01*
G01*
X-38165000Y39311250D01*
G75*
G02*
X-37921250Y39555000I243750J0D01*
G01*
G37*
G36*
G01*
X-37921250Y41430000D02*
X-37008750Y41430000D01*
G75*
G02*
X-36765000Y41186250I0J-243750D01*
G01*
X-36765000Y40698750D01*
G75*
G02*
X-37008750Y40455000I-243750J0D01*
G01*
X-37921250Y40455000D01*
G75*
G02*
X-38165000Y40698750I0J243750D01*
G01*
X-38165000Y41186250D01*
G75*
G02*
X-37921250Y41430000I243750J0D01*
G01*
G37*
G36*
G01*
X-39548750Y40455000D02*
X-40461250Y40455000D01*
G75*
G02*
X-40705000Y40698750I0J243750D01*
G01*
X-40705000Y41186250D01*
G75*
G02*
X-40461250Y41430000I243750J0D01*
G01*
X-39548750Y41430000D01*
G75*
G02*
X-39305000Y41186250I0J-243750D01*
G01*
X-39305000Y40698750D01*
G75*
G02*
X-39548750Y40455000I-243750J0D01*
G01*
G37*
G36*
G01*
X-39548750Y38580000D02*
X-40461250Y38580000D01*
G75*
G02*
X-40705000Y38823750I0J243750D01*
G01*
X-40705000Y39311250D01*
G75*
G02*
X-40461250Y39555000I243750J0D01*
G01*
X-39548750Y39555000D01*
G75*
G02*
X-39305000Y39311250I0J-243750D01*
G01*
X-39305000Y38823750D01*
G75*
G02*
X-39548750Y38580000I-243750J0D01*
G01*
G37*
G36*
G01*
X-42088750Y36645000D02*
X-43001250Y36645000D01*
G75*
G02*
X-43245000Y36888750I0J243750D01*
G01*
X-43245000Y37376250D01*
G75*
G02*
X-43001250Y37620000I243750J0D01*
G01*
X-42088750Y37620000D01*
G75*
G02*
X-41845000Y37376250I0J-243750D01*
G01*
X-41845000Y36888750D01*
G75*
G02*
X-42088750Y36645000I-243750J0D01*
G01*
G37*
G36*
G01*
X-42088750Y34770000D02*
X-43001250Y34770000D01*
G75*
G02*
X-43245000Y35013750I0J243750D01*
G01*
X-43245000Y35501250D01*
G75*
G02*
X-43001250Y35745000I243750J0D01*
G01*
X-42088750Y35745000D01*
G75*
G02*
X-41845000Y35501250I0J-243750D01*
G01*
X-41845000Y35013750D01*
G75*
G02*
X-42088750Y34770000I-243750J0D01*
G01*
G37*
G36*
G01*
X-37008750Y36645000D02*
X-37921250Y36645000D01*
G75*
G02*
X-38165000Y36888750I0J243750D01*
G01*
X-38165000Y37376250D01*
G75*
G02*
X-37921250Y37620000I243750J0D01*
G01*
X-37008750Y37620000D01*
G75*
G02*
X-36765000Y37376250I0J-243750D01*
G01*
X-36765000Y36888750D01*
G75*
G02*
X-37008750Y36645000I-243750J0D01*
G01*
G37*
G36*
G01*
X-37008750Y34770000D02*
X-37921250Y34770000D01*
G75*
G02*
X-38165000Y35013750I0J243750D01*
G01*
X-38165000Y35501250D01*
G75*
G02*
X-37921250Y35745000I243750J0D01*
G01*
X-37008750Y35745000D01*
G75*
G02*
X-36765000Y35501250I0J-243750D01*
G01*
X-36765000Y35013750D01*
G75*
G02*
X-37008750Y34770000I-243750J0D01*
G01*
G37*
G36*
G01*
X-39548750Y36645000D02*
X-40461250Y36645000D01*
G75*
G02*
X-40705000Y36888750I0J243750D01*
G01*
X-40705000Y37376250D01*
G75*
G02*
X-40461250Y37620000I243750J0D01*
G01*
X-39548750Y37620000D01*
G75*
G02*
X-39305000Y37376250I0J-243750D01*
G01*
X-39305000Y36888750D01*
G75*
G02*
X-39548750Y36645000I-243750J0D01*
G01*
G37*
G36*
G01*
X-39548750Y34770000D02*
X-40461250Y34770000D01*
G75*
G02*
X-40705000Y35013750I0J243750D01*
G01*
X-40705000Y35501250D01*
G75*
G02*
X-40461250Y35745000I243750J0D01*
G01*
X-39548750Y35745000D01*
G75*
G02*
X-39305000Y35501250I0J-243750D01*
G01*
X-39305000Y35013750D01*
G75*
G02*
X-39548750Y34770000I-243750J0D01*
G01*
G37*
G36*
G01*
X37921250Y44265000D02*
X37008750Y44265000D01*
G75*
G02*
X36765000Y44508750I0J243750D01*
G01*
X36765000Y44996250D01*
G75*
G02*
X37008750Y45240000I243750J0D01*
G01*
X37921250Y45240000D01*
G75*
G02*
X38165000Y44996250I0J-243750D01*
G01*
X38165000Y44508750D01*
G75*
G02*
X37921250Y44265000I-243750J0D01*
G01*
G37*
G36*
G01*
X37921250Y42390000D02*
X37008750Y42390000D01*
G75*
G02*
X36765000Y42633750I0J243750D01*
G01*
X36765000Y43121250D01*
G75*
G02*
X37008750Y43365000I243750J0D01*
G01*
X37921250Y43365000D01*
G75*
G02*
X38165000Y43121250I0J-243750D01*
G01*
X38165000Y42633750D01*
G75*
G02*
X37921250Y42390000I-243750J0D01*
G01*
G37*
G36*
G01*
X43001250Y44265000D02*
X42088750Y44265000D01*
G75*
G02*
X41845000Y44508750I0J243750D01*
G01*
X41845000Y44996250D01*
G75*
G02*
X42088750Y45240000I243750J0D01*
G01*
X43001250Y45240000D01*
G75*
G02*
X43245000Y44996250I0J-243750D01*
G01*
X43245000Y44508750D01*
G75*
G02*
X43001250Y44265000I-243750J0D01*
G01*
G37*
G36*
G01*
X43001250Y42390000D02*
X42088750Y42390000D01*
G75*
G02*
X41845000Y42633750I0J243750D01*
G01*
X41845000Y43121250D01*
G75*
G02*
X42088750Y43365000I243750J0D01*
G01*
X43001250Y43365000D01*
G75*
G02*
X43245000Y43121250I0J-243750D01*
G01*
X43245000Y42633750D01*
G75*
G02*
X43001250Y42390000I-243750J0D01*
G01*
G37*
G36*
G01*
X40461250Y44265000D02*
X39548750Y44265000D01*
G75*
G02*
X39305000Y44508750I0J243750D01*
G01*
X39305000Y44996250D01*
G75*
G02*
X39548750Y45240000I243750J0D01*
G01*
X40461250Y45240000D01*
G75*
G02*
X40705000Y44996250I0J-243750D01*
G01*
X40705000Y44508750D01*
G75*
G02*
X40461250Y44265000I-243750J0D01*
G01*
G37*
G36*
G01*
X40461250Y42390000D02*
X39548750Y42390000D01*
G75*
G02*
X39305000Y42633750I0J243750D01*
G01*
X39305000Y43121250D01*
G75*
G02*
X39548750Y43365000I243750J0D01*
G01*
X40461250Y43365000D01*
G75*
G02*
X40705000Y43121250I0J-243750D01*
G01*
X40705000Y42633750D01*
G75*
G02*
X40461250Y42390000I-243750J0D01*
G01*
G37*
G36*
G01*
X11251250Y44265000D02*
X10338750Y44265000D01*
G75*
G02*
X10095000Y44508750I0J243750D01*
G01*
X10095000Y44996250D01*
G75*
G02*
X10338750Y45240000I243750J0D01*
G01*
X11251250Y45240000D01*
G75*
G02*
X11495000Y44996250I0J-243750D01*
G01*
X11495000Y44508750D01*
G75*
G02*
X11251250Y44265000I-243750J0D01*
G01*
G37*
G36*
G01*
X11251250Y42390000D02*
X10338750Y42390000D01*
G75*
G02*
X10095000Y42633750I0J243750D01*
G01*
X10095000Y43121250D01*
G75*
G02*
X10338750Y43365000I243750J0D01*
G01*
X11251250Y43365000D01*
G75*
G02*
X11495000Y43121250I0J-243750D01*
G01*
X11495000Y42633750D01*
G75*
G02*
X11251250Y42390000I-243750J0D01*
G01*
G37*
G36*
G01*
X16331250Y44265000D02*
X15418750Y44265000D01*
G75*
G02*
X15175000Y44508750I0J243750D01*
G01*
X15175000Y44996250D01*
G75*
G02*
X15418750Y45240000I243750J0D01*
G01*
X16331250Y45240000D01*
G75*
G02*
X16575000Y44996250I0J-243750D01*
G01*
X16575000Y44508750D01*
G75*
G02*
X16331250Y44265000I-243750J0D01*
G01*
G37*
G36*
G01*
X16331250Y42390000D02*
X15418750Y42390000D01*
G75*
G02*
X15175000Y42633750I0J243750D01*
G01*
X15175000Y43121250D01*
G75*
G02*
X15418750Y43365000I243750J0D01*
G01*
X16331250Y43365000D01*
G75*
G02*
X16575000Y43121250I0J-243750D01*
G01*
X16575000Y42633750D01*
G75*
G02*
X16331250Y42390000I-243750J0D01*
G01*
G37*
G36*
G01*
X13791250Y44265000D02*
X12878750Y44265000D01*
G75*
G02*
X12635000Y44508750I0J243750D01*
G01*
X12635000Y44996250D01*
G75*
G02*
X12878750Y45240000I243750J0D01*
G01*
X13791250Y45240000D01*
G75*
G02*
X14035000Y44996250I0J-243750D01*
G01*
X14035000Y44508750D01*
G75*
G02*
X13791250Y44265000I-243750J0D01*
G01*
G37*
G36*
G01*
X13791250Y42390000D02*
X12878750Y42390000D01*
G75*
G02*
X12635000Y42633750I0J243750D01*
G01*
X12635000Y43121250D01*
G75*
G02*
X12878750Y43365000I243750J0D01*
G01*
X13791250Y43365000D01*
G75*
G02*
X14035000Y43121250I0J-243750D01*
G01*
X14035000Y42633750D01*
G75*
G02*
X13791250Y42390000I-243750J0D01*
G01*
G37*
G36*
G01*
X-15418750Y44265000D02*
X-16331250Y44265000D01*
G75*
G02*
X-16575000Y44508750I0J243750D01*
G01*
X-16575000Y44996250D01*
G75*
G02*
X-16331250Y45240000I243750J0D01*
G01*
X-15418750Y45240000D01*
G75*
G02*
X-15175000Y44996250I0J-243750D01*
G01*
X-15175000Y44508750D01*
G75*
G02*
X-15418750Y44265000I-243750J0D01*
G01*
G37*
G36*
G01*
X-15418750Y42390000D02*
X-16331250Y42390000D01*
G75*
G02*
X-16575000Y42633750I0J243750D01*
G01*
X-16575000Y43121250D01*
G75*
G02*
X-16331250Y43365000I243750J0D01*
G01*
X-15418750Y43365000D01*
G75*
G02*
X-15175000Y43121250I0J-243750D01*
G01*
X-15175000Y42633750D01*
G75*
G02*
X-15418750Y42390000I-243750J0D01*
G01*
G37*
G36*
G01*
X-10338750Y44265000D02*
X-11251250Y44265000D01*
G75*
G02*
X-11495000Y44508750I0J243750D01*
G01*
X-11495000Y44996250D01*
G75*
G02*
X-11251250Y45240000I243750J0D01*
G01*
X-10338750Y45240000D01*
G75*
G02*
X-10095000Y44996250I0J-243750D01*
G01*
X-10095000Y44508750D01*
G75*
G02*
X-10338750Y44265000I-243750J0D01*
G01*
G37*
G36*
G01*
X-10338750Y42390000D02*
X-11251250Y42390000D01*
G75*
G02*
X-11495000Y42633750I0J243750D01*
G01*
X-11495000Y43121250D01*
G75*
G02*
X-11251250Y43365000I243750J0D01*
G01*
X-10338750Y43365000D01*
G75*
G02*
X-10095000Y43121250I0J-243750D01*
G01*
X-10095000Y42633750D01*
G75*
G02*
X-10338750Y42390000I-243750J0D01*
G01*
G37*
G36*
G01*
X-12878750Y44265000D02*
X-13791250Y44265000D01*
G75*
G02*
X-14035000Y44508750I0J243750D01*
G01*
X-14035000Y44996250D01*
G75*
G02*
X-13791250Y45240000I243750J0D01*
G01*
X-12878750Y45240000D01*
G75*
G02*
X-12635000Y44996250I0J-243750D01*
G01*
X-12635000Y44508750D01*
G75*
G02*
X-12878750Y44265000I-243750J0D01*
G01*
G37*
G36*
G01*
X-12878750Y42390000D02*
X-13791250Y42390000D01*
G75*
G02*
X-14035000Y42633750I0J243750D01*
G01*
X-14035000Y43121250D01*
G75*
G02*
X-13791250Y43365000I243750J0D01*
G01*
X-12878750Y43365000D01*
G75*
G02*
X-12635000Y43121250I0J-243750D01*
G01*
X-12635000Y42633750D01*
G75*
G02*
X-12878750Y42390000I-243750J0D01*
G01*
G37*
G36*
G01*
X-42088750Y44265000D02*
X-43001250Y44265000D01*
G75*
G02*
X-43245000Y44508750I0J243750D01*
G01*
X-43245000Y44996250D01*
G75*
G02*
X-43001250Y45240000I243750J0D01*
G01*
X-42088750Y45240000D01*
G75*
G02*
X-41845000Y44996250I0J-243750D01*
G01*
X-41845000Y44508750D01*
G75*
G02*
X-42088750Y44265000I-243750J0D01*
G01*
G37*
G36*
G01*
X-42088750Y42390000D02*
X-43001250Y42390000D01*
G75*
G02*
X-43245000Y42633750I0J243750D01*
G01*
X-43245000Y43121250D01*
G75*
G02*
X-43001250Y43365000I243750J0D01*
G01*
X-42088750Y43365000D01*
G75*
G02*
X-41845000Y43121250I0J-243750D01*
G01*
X-41845000Y42633750D01*
G75*
G02*
X-42088750Y42390000I-243750J0D01*
G01*
G37*
G36*
G01*
X-37008750Y44265000D02*
X-37921250Y44265000D01*
G75*
G02*
X-38165000Y44508750I0J243750D01*
G01*
X-38165000Y44996250D01*
G75*
G02*
X-37921250Y45240000I243750J0D01*
G01*
X-37008750Y45240000D01*
G75*
G02*
X-36765000Y44996250I0J-243750D01*
G01*
X-36765000Y44508750D01*
G75*
G02*
X-37008750Y44265000I-243750J0D01*
G01*
G37*
G36*
G01*
X-37008750Y42390000D02*
X-37921250Y42390000D01*
G75*
G02*
X-38165000Y42633750I0J243750D01*
G01*
X-38165000Y43121250D01*
G75*
G02*
X-37921250Y43365000I243750J0D01*
G01*
X-37008750Y43365000D01*
G75*
G02*
X-36765000Y43121250I0J-243750D01*
G01*
X-36765000Y42633750D01*
G75*
G02*
X-37008750Y42390000I-243750J0D01*
G01*
G37*
G36*
G01*
X-39548750Y44265000D02*
X-40461250Y44265000D01*
G75*
G02*
X-40705000Y44508750I0J243750D01*
G01*
X-40705000Y44996250D01*
G75*
G02*
X-40461250Y45240000I243750J0D01*
G01*
X-39548750Y45240000D01*
G75*
G02*
X-39305000Y44996250I0J-243750D01*
G01*
X-39305000Y44508750D01*
G75*
G02*
X-39548750Y44265000I-243750J0D01*
G01*
G37*
G36*
G01*
X-39548750Y42390000D02*
X-40461250Y42390000D01*
G75*
G02*
X-40705000Y42633750I0J243750D01*
G01*
X-40705000Y43121250D01*
G75*
G02*
X-40461250Y43365000I243750J0D01*
G01*
X-39548750Y43365000D01*
G75*
G02*
X-39305000Y43121250I0J-243750D01*
G01*
X-39305000Y42633750D01*
G75*
G02*
X-39548750Y42390000I-243750J0D01*
G01*
G37*
G36*
G01*
X-1900000Y-47800000D02*
X-2400000Y-47800000D01*
G75*
G02*
X-2650000Y-47550000I0J250000D01*
G01*
X-2650000Y-46250000D01*
G75*
G02*
X-2400000Y-46000000I250000J0D01*
G01*
X-1900000Y-46000000D01*
G75*
G02*
X-1650000Y-46250000I0J-250000D01*
G01*
X-1650000Y-47550000D01*
G75*
G02*
X-1900000Y-47800000I-250000J0D01*
G01*
G37*
G36*
G01*
X2400000Y-47800000D02*
X1900000Y-47800000D01*
G75*
G02*
X1650000Y-47550000I0J250000D01*
G01*
X1650000Y-46250000D01*
G75*
G02*
X1900000Y-46000000I250000J0D01*
G01*
X2400000Y-46000000D01*
G75*
G02*
X2650000Y-46250000I0J-250000D01*
G01*
X2650000Y-47550000D01*
G75*
G02*
X2400000Y-47800000I-250000J0D01*
G01*
G37*
D12*
X40000000Y-2000000D03*
X-40000000Y-2000000D03*
X40000000Y2000000D03*
X-40000000Y2000000D03*
G36*
G01*
X5950000Y5543750D02*
X5950000Y6456250D01*
G75*
G02*
X6193750Y6700000I243750J0D01*
G01*
X6681250Y6700000D01*
G75*
G02*
X6925000Y6456250I0J-243750D01*
G01*
X6925000Y5543750D01*
G75*
G02*
X6681250Y5300000I-243750J0D01*
G01*
X6193750Y5300000D01*
G75*
G02*
X5950000Y5543750I0J243750D01*
G01*
G37*
G36*
G01*
X4075000Y5543750D02*
X4075000Y6456250D01*
G75*
G02*
X4318750Y6700000I243750J0D01*
G01*
X4806250Y6700000D01*
G75*
G02*
X5050000Y6456250I0J-243750D01*
G01*
X5050000Y5543750D01*
G75*
G02*
X4806250Y5300000I-243750J0D01*
G01*
X4318750Y5300000D01*
G75*
G02*
X4075000Y5543750I0J243750D01*
G01*
G37*
G36*
G01*
X5950000Y1543750D02*
X5950000Y2456250D01*
G75*
G02*
X6193750Y2700000I243750J0D01*
G01*
X6681250Y2700000D01*
G75*
G02*
X6925000Y2456250I0J-243750D01*
G01*
X6925000Y1543750D01*
G75*
G02*
X6681250Y1300000I-243750J0D01*
G01*
X6193750Y1300000D01*
G75*
G02*
X5950000Y1543750I0J243750D01*
G01*
G37*
G36*
G01*
X4075000Y1543750D02*
X4075000Y2456250D01*
G75*
G02*
X4318750Y2700000I243750J0D01*
G01*
X4806250Y2700000D01*
G75*
G02*
X5050000Y2456250I0J-243750D01*
G01*
X5050000Y1543750D01*
G75*
G02*
X4806250Y1300000I-243750J0D01*
G01*
X4318750Y1300000D01*
G75*
G02*
X4075000Y1543750I0J243750D01*
G01*
G37*
G36*
G01*
X2450000Y-6456250D02*
X2450000Y-5543750D01*
G75*
G02*
X2693750Y-5300000I243750J0D01*
G01*
X3181250Y-5300000D01*
G75*
G02*
X3425000Y-5543750I0J-243750D01*
G01*
X3425000Y-6456250D01*
G75*
G02*
X3181250Y-6700000I-243750J0D01*
G01*
X2693750Y-6700000D01*
G75*
G02*
X2450000Y-6456250I0J243750D01*
G01*
G37*
G36*
G01*
X575000Y-6456250D02*
X575000Y-5543750D01*
G75*
G02*
X818750Y-5300000I243750J0D01*
G01*
X1306250Y-5300000D01*
G75*
G02*
X1550000Y-5543750I0J-243750D01*
G01*
X1550000Y-6456250D01*
G75*
G02*
X1306250Y-6700000I-243750J0D01*
G01*
X818750Y-6700000D01*
G75*
G02*
X575000Y-6456250I0J243750D01*
G01*
G37*
G36*
G01*
X-5050000Y-456250D02*
X-5050000Y456250D01*
G75*
G02*
X-4806250Y700000I243750J0D01*
G01*
X-4318750Y700000D01*
G75*
G02*
X-4075000Y456250I0J-243750D01*
G01*
X-4075000Y-456250D01*
G75*
G02*
X-4318750Y-700000I-243750J0D01*
G01*
X-4806250Y-700000D01*
G75*
G02*
X-5050000Y-456250I0J243750D01*
G01*
G37*
G36*
G01*
X-6925000Y-456250D02*
X-6925000Y456250D01*
G75*
G02*
X-6681250Y700000I243750J0D01*
G01*
X-6193750Y700000D01*
G75*
G02*
X-5950000Y456250I0J-243750D01*
G01*
X-5950000Y-456250D01*
G75*
G02*
X-6193750Y-700000I-243750J0D01*
G01*
X-6681250Y-700000D01*
G75*
G02*
X-6925000Y-456250I0J243750D01*
G01*
G37*
G36*
G01*
X2450000Y5543750D02*
X2450000Y6456250D01*
G75*
G02*
X2693750Y6700000I243750J0D01*
G01*
X3181250Y6700000D01*
G75*
G02*
X3425000Y6456250I0J-243750D01*
G01*
X3425000Y5543750D01*
G75*
G02*
X3181250Y5300000I-243750J0D01*
G01*
X2693750Y5300000D01*
G75*
G02*
X2450000Y5543750I0J243750D01*
G01*
G37*
G36*
G01*
X575000Y5543750D02*
X575000Y6456250D01*
G75*
G02*
X818750Y6700000I243750J0D01*
G01*
X1306250Y6700000D01*
G75*
G02*
X1550000Y6456250I0J-243750D01*
G01*
X1550000Y5543750D01*
G75*
G02*
X1306250Y5300000I-243750J0D01*
G01*
X818750Y5300000D01*
G75*
G02*
X575000Y5543750I0J243750D01*
G01*
G37*
G36*
G01*
X5050000Y-3543750D02*
X5050000Y-4456250D01*
G75*
G02*
X4806250Y-4700000I-243750J0D01*
G01*
X4318750Y-4700000D01*
G75*
G02*
X4075000Y-4456250I0J243750D01*
G01*
X4075000Y-3543750D01*
G75*
G02*
X4318750Y-3300000I243750J0D01*
G01*
X4806250Y-3300000D01*
G75*
G02*
X5050000Y-3543750I0J-243750D01*
G01*
G37*
G36*
G01*
X6925000Y-3543750D02*
X6925000Y-4456250D01*
G75*
G02*
X6681250Y-4700000I-243750J0D01*
G01*
X6193750Y-4700000D01*
G75*
G02*
X5950000Y-4456250I0J243750D01*
G01*
X5950000Y-3543750D01*
G75*
G02*
X6193750Y-3300000I243750J0D01*
G01*
X6681250Y-3300000D01*
G75*
G02*
X6925000Y-3543750I0J-243750D01*
G01*
G37*
G36*
G01*
X-5950000Y-5543750D02*
X-5950000Y-6456250D01*
G75*
G02*
X-6193750Y-6700000I-243750J0D01*
G01*
X-6681250Y-6700000D01*
G75*
G02*
X-6925000Y-6456250I0J243750D01*
G01*
X-6925000Y-5543750D01*
G75*
G02*
X-6681250Y-5300000I243750J0D01*
G01*
X-6193750Y-5300000D01*
G75*
G02*
X-5950000Y-5543750I0J-243750D01*
G01*
G37*
G36*
G01*
X-4075000Y-5543750D02*
X-4075000Y-6456250D01*
G75*
G02*
X-4318750Y-6700000I-243750J0D01*
G01*
X-4806250Y-6700000D01*
G75*
G02*
X-5050000Y-6456250I0J243750D01*
G01*
X-5050000Y-5543750D01*
G75*
G02*
X-4806250Y-5300000I243750J0D01*
G01*
X-4318750Y-5300000D01*
G75*
G02*
X-4075000Y-5543750I0J-243750D01*
G01*
G37*
G36*
G01*
X5050000Y-5543750D02*
X5050000Y-6456250D01*
G75*
G02*
X4806250Y-6700000I-243750J0D01*
G01*
X4318750Y-6700000D01*
G75*
G02*
X4075000Y-6456250I0J243750D01*
G01*
X4075000Y-5543750D01*
G75*
G02*
X4318750Y-5300000I243750J0D01*
G01*
X4806250Y-5300000D01*
G75*
G02*
X5050000Y-5543750I0J-243750D01*
G01*
G37*
G36*
G01*
X6925000Y-5543750D02*
X6925000Y-6456250D01*
G75*
G02*
X6681250Y-6700000I-243750J0D01*
G01*
X6193750Y-6700000D01*
G75*
G02*
X5950000Y-6456250I0J243750D01*
G01*
X5950000Y-5543750D01*
G75*
G02*
X6193750Y-5300000I243750J0D01*
G01*
X6681250Y-5300000D01*
G75*
G02*
X6925000Y-5543750I0J-243750D01*
G01*
G37*
G36*
G01*
X-5950000Y-3543750D02*
X-5950000Y-4456250D01*
G75*
G02*
X-6193750Y-4700000I-243750J0D01*
G01*
X-6681250Y-4700000D01*
G75*
G02*
X-6925000Y-4456250I0J243750D01*
G01*
X-6925000Y-3543750D01*
G75*
G02*
X-6681250Y-3300000I243750J0D01*
G01*
X-6193750Y-3300000D01*
G75*
G02*
X-5950000Y-3543750I0J-243750D01*
G01*
G37*
G36*
G01*
X-4075000Y-3543750D02*
X-4075000Y-4456250D01*
G75*
G02*
X-4318750Y-4700000I-243750J0D01*
G01*
X-4806250Y-4700000D01*
G75*
G02*
X-5050000Y-4456250I0J243750D01*
G01*
X-5050000Y-3543750D01*
G75*
G02*
X-4806250Y-3300000I243750J0D01*
G01*
X-4318750Y-3300000D01*
G75*
G02*
X-4075000Y-3543750I0J-243750D01*
G01*
G37*
G36*
G01*
X-1550000Y-6456250D02*
X-1550000Y-5543750D01*
G75*
G02*
X-1306250Y-5300000I243750J0D01*
G01*
X-818750Y-5300000D01*
G75*
G02*
X-575000Y-5543750I0J-243750D01*
G01*
X-575000Y-6456250D01*
G75*
G02*
X-818750Y-6700000I-243750J0D01*
G01*
X-1306250Y-6700000D01*
G75*
G02*
X-1550000Y-6456250I0J243750D01*
G01*
G37*
G36*
G01*
X-3425000Y-6456250D02*
X-3425000Y-5543750D01*
G75*
G02*
X-3181250Y-5300000I243750J0D01*
G01*
X-2693750Y-5300000D01*
G75*
G02*
X-2450000Y-5543750I0J-243750D01*
G01*
X-2450000Y-6456250D01*
G75*
G02*
X-2693750Y-6700000I-243750J0D01*
G01*
X-3181250Y-6700000D01*
G75*
G02*
X-3425000Y-6456250I0J243750D01*
G01*
G37*
G36*
G01*
X-1550000Y-4456250D02*
X-1550000Y-3543750D01*
G75*
G02*
X-1306250Y-3300000I243750J0D01*
G01*
X-818750Y-3300000D01*
G75*
G02*
X-575000Y-3543750I0J-243750D01*
G01*
X-575000Y-4456250D01*
G75*
G02*
X-818750Y-4700000I-243750J0D01*
G01*
X-1306250Y-4700000D01*
G75*
G02*
X-1550000Y-4456250I0J243750D01*
G01*
G37*
G36*
G01*
X-3425000Y-4456250D02*
X-3425000Y-3543750D01*
G75*
G02*
X-3181250Y-3300000I243750J0D01*
G01*
X-2693750Y-3300000D01*
G75*
G02*
X-2450000Y-3543750I0J-243750D01*
G01*
X-2450000Y-4456250D01*
G75*
G02*
X-2693750Y-4700000I-243750J0D01*
G01*
X-3181250Y-4700000D01*
G75*
G02*
X-3425000Y-4456250I0J243750D01*
G01*
G37*
G36*
G01*
X-5050000Y-2456250D02*
X-5050000Y-1543750D01*
G75*
G02*
X-4806250Y-1300000I243750J0D01*
G01*
X-4318750Y-1300000D01*
G75*
G02*
X-4075000Y-1543750I0J-243750D01*
G01*
X-4075000Y-2456250D01*
G75*
G02*
X-4318750Y-2700000I-243750J0D01*
G01*
X-4806250Y-2700000D01*
G75*
G02*
X-5050000Y-2456250I0J243750D01*
G01*
G37*
G36*
G01*
X-6925000Y-2456250D02*
X-6925000Y-1543750D01*
G75*
G02*
X-6681250Y-1300000I243750J0D01*
G01*
X-6193750Y-1300000D01*
G75*
G02*
X-5950000Y-1543750I0J-243750D01*
G01*
X-5950000Y-2456250D01*
G75*
G02*
X-6193750Y-2700000I-243750J0D01*
G01*
X-6681250Y-2700000D01*
G75*
G02*
X-6925000Y-2456250I0J243750D01*
G01*
G37*
G36*
G01*
X-5050000Y1543750D02*
X-5050000Y2456250D01*
G75*
G02*
X-4806250Y2700000I243750J0D01*
G01*
X-4318750Y2700000D01*
G75*
G02*
X-4075000Y2456250I0J-243750D01*
G01*
X-4075000Y1543750D01*
G75*
G02*
X-4318750Y1300000I-243750J0D01*
G01*
X-4806250Y1300000D01*
G75*
G02*
X-5050000Y1543750I0J243750D01*
G01*
G37*
G36*
G01*
X-6925000Y1543750D02*
X-6925000Y2456250D01*
G75*
G02*
X-6681250Y2700000I243750J0D01*
G01*
X-6193750Y2700000D01*
G75*
G02*
X-5950000Y2456250I0J-243750D01*
G01*
X-5950000Y1543750D01*
G75*
G02*
X-6193750Y1300000I-243750J0D01*
G01*
X-6681250Y1300000D01*
G75*
G02*
X-6925000Y1543750I0J243750D01*
G01*
G37*
D18*
X32170000Y-46490000D03*
X21170000Y-46490000D03*
D16*
X23170000Y-46990000D03*
X24170000Y-46990000D03*
X25170000Y-46990000D03*
X26170000Y-46990000D03*
X27170000Y-46990000D03*
X28170000Y-46990000D03*
X29170000Y-46990000D03*
X30170000Y-46990000D03*
D18*
X-21170000Y-46490000D03*
X-32170000Y-46490000D03*
D16*
X-30170000Y-46990000D03*
X-29170000Y-46990000D03*
X-28170000Y-46990000D03*
X-27170000Y-46990000D03*
X-26170000Y-46990000D03*
X-25170000Y-46990000D03*
X-24170000Y-46990000D03*
X-23170000Y-46990000D03*
G36*
G01*
X-34468750Y47440000D02*
X-35381250Y47440000D01*
G75*
G02*
X-35625000Y47683750I0J243750D01*
G01*
X-35625000Y48171250D01*
G75*
G02*
X-35381250Y48415000I243750J0D01*
G01*
X-34468750Y48415000D01*
G75*
G02*
X-34225000Y48171250I0J-243750D01*
G01*
X-34225000Y47683750D01*
G75*
G02*
X-34468750Y47440000I-243750J0D01*
G01*
G37*
G36*
G01*
X-34468750Y45565000D02*
X-35381250Y45565000D01*
G75*
G02*
X-35625000Y45808750I0J243750D01*
G01*
X-35625000Y46296250D01*
G75*
G02*
X-35381250Y46540000I243750J0D01*
G01*
X-34468750Y46540000D01*
G75*
G02*
X-34225000Y46296250I0J-243750D01*
G01*
X-34225000Y45808750D01*
G75*
G02*
X-34468750Y45565000I-243750J0D01*
G01*
G37*
G36*
G01*
X450000Y-18456250D02*
X450000Y-17543750D01*
G75*
G02*
X693750Y-17300000I243750J0D01*
G01*
X1181250Y-17300000D01*
G75*
G02*
X1425000Y-17543750I0J-243750D01*
G01*
X1425000Y-18456250D01*
G75*
G02*
X1181250Y-18700000I-243750J0D01*
G01*
X693750Y-18700000D01*
G75*
G02*
X450000Y-18456250I0J243750D01*
G01*
G37*
G36*
G01*
X-1425000Y-18456250D02*
X-1425000Y-17543750D01*
G75*
G02*
X-1181250Y-17300000I243750J0D01*
G01*
X-693750Y-17300000D01*
G75*
G02*
X-450000Y-17543750I0J-243750D01*
G01*
X-450000Y-18456250D01*
G75*
G02*
X-693750Y-18700000I-243750J0D01*
G01*
X-1181250Y-18700000D01*
G75*
G02*
X-1425000Y-18456250I0J243750D01*
G01*
G37*
G36*
G01*
X2450000Y9543750D02*
X2450000Y10456250D01*
G75*
G02*
X2693750Y10700000I243750J0D01*
G01*
X3181250Y10700000D01*
G75*
G02*
X3425000Y10456250I0J-243750D01*
G01*
X3425000Y9543750D01*
G75*
G02*
X3181250Y9300000I-243750J0D01*
G01*
X2693750Y9300000D01*
G75*
G02*
X2450000Y9543750I0J243750D01*
G01*
G37*
G36*
G01*
X575000Y9543750D02*
X575000Y10456250D01*
G75*
G02*
X818750Y10700000I243750J0D01*
G01*
X1306250Y10700000D01*
G75*
G02*
X1550000Y10456250I0J-243750D01*
G01*
X1550000Y9543750D01*
G75*
G02*
X1306250Y9300000I-243750J0D01*
G01*
X818750Y9300000D01*
G75*
G02*
X575000Y9543750I0J243750D01*
G01*
G37*
G36*
G01*
X-2450000Y10456250D02*
X-2450000Y9543750D01*
G75*
G02*
X-2693750Y9300000I-243750J0D01*
G01*
X-3181250Y9300000D01*
G75*
G02*
X-3425000Y9543750I0J243750D01*
G01*
X-3425000Y10456250D01*
G75*
G02*
X-3181250Y10700000I243750J0D01*
G01*
X-2693750Y10700000D01*
G75*
G02*
X-2450000Y10456250I0J-243750D01*
G01*
G37*
G36*
G01*
X-575000Y10456250D02*
X-575000Y9543750D01*
G75*
G02*
X-818750Y9300000I-243750J0D01*
G01*
X-1306250Y9300000D01*
G75*
G02*
X-1550000Y9543750I0J243750D01*
G01*
X-1550000Y10456250D01*
G75*
G02*
X-1306250Y10700000I243750J0D01*
G01*
X-818750Y10700000D01*
G75*
G02*
X-575000Y10456250I0J-243750D01*
G01*
G37*
G36*
G01*
X1456250Y-42050000D02*
X543750Y-42050000D01*
G75*
G02*
X300000Y-41806250I0J243750D01*
G01*
X300000Y-41318750D01*
G75*
G02*
X543750Y-41075000I243750J0D01*
G01*
X1456250Y-41075000D01*
G75*
G02*
X1700000Y-41318750I0J-243750D01*
G01*
X1700000Y-41806250D01*
G75*
G02*
X1456250Y-42050000I-243750J0D01*
G01*
G37*
G36*
G01*
X1456250Y-43925000D02*
X543750Y-43925000D01*
G75*
G02*
X300000Y-43681250I0J243750D01*
G01*
X300000Y-43193750D01*
G75*
G02*
X543750Y-42950000I243750J0D01*
G01*
X1456250Y-42950000D01*
G75*
G02*
X1700000Y-43193750I0J-243750D01*
G01*
X1700000Y-43681250D01*
G75*
G02*
X1456250Y-43925000I-243750J0D01*
G01*
G37*
G36*
G01*
X-2450000Y8456250D02*
X-2450000Y7543750D01*
G75*
G02*
X-2693750Y7300000I-243750J0D01*
G01*
X-3181250Y7300000D01*
G75*
G02*
X-3425000Y7543750I0J243750D01*
G01*
X-3425000Y8456250D01*
G75*
G02*
X-3181250Y8700000I243750J0D01*
G01*
X-2693750Y8700000D01*
G75*
G02*
X-2450000Y8456250I0J-243750D01*
G01*
G37*
G36*
G01*
X-575000Y8456250D02*
X-575000Y7543750D01*
G75*
G02*
X-818750Y7300000I-243750J0D01*
G01*
X-1306250Y7300000D01*
G75*
G02*
X-1550000Y7543750I0J243750D01*
G01*
X-1550000Y8456250D01*
G75*
G02*
X-1306250Y8700000I243750J0D01*
G01*
X-818750Y8700000D01*
G75*
G02*
X-575000Y8456250I0J-243750D01*
G01*
G37*
G36*
G01*
X2450000Y7543750D02*
X2450000Y8456250D01*
G75*
G02*
X2693750Y8700000I243750J0D01*
G01*
X3181250Y8700000D01*
G75*
G02*
X3425000Y8456250I0J-243750D01*
G01*
X3425000Y7543750D01*
G75*
G02*
X3181250Y7300000I-243750J0D01*
G01*
X2693750Y7300000D01*
G75*
G02*
X2450000Y7543750I0J243750D01*
G01*
G37*
G36*
G01*
X575000Y7543750D02*
X575000Y8456250D01*
G75*
G02*
X818750Y8700000I243750J0D01*
G01*
X1306250Y8700000D01*
G75*
G02*
X1550000Y8456250I0J-243750D01*
G01*
X1550000Y7543750D01*
G75*
G02*
X1306250Y7300000I-243750J0D01*
G01*
X818750Y7300000D01*
G75*
G02*
X575000Y7543750I0J243750D01*
G01*
G37*
D18*
X46490000Y-21170000D03*
X46490000Y-32170000D03*
D19*
X46990000Y-30170000D03*
X46990000Y-29170000D03*
X46990000Y-28170000D03*
X46990000Y-27170000D03*
X46990000Y-26170000D03*
X46990000Y-25170000D03*
X46990000Y-24170000D03*
X46990000Y-23170000D03*
D18*
X46490000Y32170000D03*
X46490000Y21170000D03*
D19*
X46990000Y23170000D03*
X46990000Y24170000D03*
X46990000Y25170000D03*
X46990000Y26170000D03*
X46990000Y27170000D03*
X46990000Y28170000D03*
X46990000Y29170000D03*
X46990000Y30170000D03*
D18*
X21170000Y46490000D03*
X32170000Y46490000D03*
D16*
X30170000Y46990000D03*
X29170000Y46990000D03*
X28170000Y46990000D03*
X27170000Y46990000D03*
X26170000Y46990000D03*
X25170000Y46990000D03*
X24170000Y46990000D03*
X23170000Y46990000D03*
D18*
X-46490000Y-32170000D03*
X-46490000Y-21170000D03*
D19*
X-46990000Y-23170000D03*
X-46990000Y-24170000D03*
X-46990000Y-25170000D03*
X-46990000Y-26170000D03*
X-46990000Y-27170000D03*
X-46990000Y-28170000D03*
X-46990000Y-29170000D03*
X-46990000Y-30170000D03*
D18*
X-46490000Y21170000D03*
X-46490000Y32170000D03*
D19*
X-46990000Y30170000D03*
X-46990000Y29170000D03*
X-46990000Y28170000D03*
X-46990000Y27170000D03*
X-46990000Y26170000D03*
X-46990000Y25170000D03*
X-46990000Y24170000D03*
X-46990000Y23170000D03*
G36*
G01*
X5536250Y-28760000D02*
X4623750Y-28760000D01*
G75*
G02*
X4380000Y-28516250I0J243750D01*
G01*
X4380000Y-28028750D01*
G75*
G02*
X4623750Y-27785000I243750J0D01*
G01*
X5536250Y-27785000D01*
G75*
G02*
X5780000Y-28028750I0J-243750D01*
G01*
X5780000Y-28516250D01*
G75*
G02*
X5536250Y-28760000I-243750J0D01*
G01*
G37*
G36*
G01*
X5536250Y-30635000D02*
X4623750Y-30635000D01*
G75*
G02*
X4380000Y-30391250I0J243750D01*
G01*
X4380000Y-29903750D01*
G75*
G02*
X4623750Y-29660000I243750J0D01*
G01*
X5536250Y-29660000D01*
G75*
G02*
X5780000Y-29903750I0J-243750D01*
G01*
X5780000Y-30391250D01*
G75*
G02*
X5536250Y-30635000I-243750J0D01*
G01*
G37*
G36*
G01*
X39555000Y29911250D02*
X39555000Y28998750D01*
G75*
G02*
X39311250Y28755000I-243750J0D01*
G01*
X38823750Y28755000D01*
G75*
G02*
X38580000Y28998750I0J243750D01*
G01*
X38580000Y29911250D01*
G75*
G02*
X38823750Y30155000I243750J0D01*
G01*
X39311250Y30155000D01*
G75*
G02*
X39555000Y29911250I0J-243750D01*
G01*
G37*
G36*
G01*
X41430000Y29911250D02*
X41430000Y28998750D01*
G75*
G02*
X41186250Y28755000I-243750J0D01*
G01*
X40698750Y28755000D01*
G75*
G02*
X40455000Y28998750I0J243750D01*
G01*
X40455000Y29911250D01*
G75*
G02*
X40698750Y30155000I243750J0D01*
G01*
X41186250Y30155000D01*
G75*
G02*
X41430000Y29911250I0J-243750D01*
G01*
G37*
G36*
G01*
X35381250Y47440000D02*
X34468750Y47440000D01*
G75*
G02*
X34225000Y47683750I0J243750D01*
G01*
X34225000Y48171250D01*
G75*
G02*
X34468750Y48415000I243750J0D01*
G01*
X35381250Y48415000D01*
G75*
G02*
X35625000Y48171250I0J-243750D01*
G01*
X35625000Y47683750D01*
G75*
G02*
X35381250Y47440000I-243750J0D01*
G01*
G37*
G36*
G01*
X35381250Y45565000D02*
X34468750Y45565000D01*
G75*
G02*
X34225000Y45808750I0J243750D01*
G01*
X34225000Y46296250D01*
G75*
G02*
X34468750Y46540000I243750J0D01*
G01*
X35381250Y46540000D01*
G75*
G02*
X35625000Y46296250I0J-243750D01*
G01*
X35625000Y45808750D01*
G75*
G02*
X35381250Y45565000I-243750J0D01*
G01*
G37*
G36*
G01*
X12885000Y29911250D02*
X12885000Y28998750D01*
G75*
G02*
X12641250Y28755000I-243750J0D01*
G01*
X12153750Y28755000D01*
G75*
G02*
X11910000Y28998750I0J243750D01*
G01*
X11910000Y29911250D01*
G75*
G02*
X12153750Y30155000I243750J0D01*
G01*
X12641250Y30155000D01*
G75*
G02*
X12885000Y29911250I0J-243750D01*
G01*
G37*
G36*
G01*
X14760000Y29911250D02*
X14760000Y28998750D01*
G75*
G02*
X14516250Y28755000I-243750J0D01*
G01*
X14028750Y28755000D01*
G75*
G02*
X13785000Y28998750I0J243750D01*
G01*
X13785000Y29911250D01*
G75*
G02*
X14028750Y30155000I243750J0D01*
G01*
X14516250Y30155000D01*
G75*
G02*
X14760000Y29911250I0J-243750D01*
G01*
G37*
G36*
G01*
X18871250Y47440000D02*
X17958750Y47440000D01*
G75*
G02*
X17715000Y47683750I0J243750D01*
G01*
X17715000Y48171250D01*
G75*
G02*
X17958750Y48415000I243750J0D01*
G01*
X18871250Y48415000D01*
G75*
G02*
X19115000Y48171250I0J-243750D01*
G01*
X19115000Y47683750D01*
G75*
G02*
X18871250Y47440000I-243750J0D01*
G01*
G37*
G36*
G01*
X18871250Y45565000D02*
X17958750Y45565000D01*
G75*
G02*
X17715000Y45808750I0J243750D01*
G01*
X17715000Y46296250D01*
G75*
G02*
X17958750Y46540000I243750J0D01*
G01*
X18871250Y46540000D01*
G75*
G02*
X19115000Y46296250I0J-243750D01*
G01*
X19115000Y45808750D01*
G75*
G02*
X18871250Y45565000I-243750J0D01*
G01*
G37*
G36*
G01*
X-13785000Y29911250D02*
X-13785000Y28998750D01*
G75*
G02*
X-14028750Y28755000I-243750J0D01*
G01*
X-14516250Y28755000D01*
G75*
G02*
X-14760000Y28998750I0J243750D01*
G01*
X-14760000Y29911250D01*
G75*
G02*
X-14516250Y30155000I243750J0D01*
G01*
X-14028750Y30155000D01*
G75*
G02*
X-13785000Y29911250I0J-243750D01*
G01*
G37*
G36*
G01*
X-11910000Y29911250D02*
X-11910000Y28998750D01*
G75*
G02*
X-12153750Y28755000I-243750J0D01*
G01*
X-12641250Y28755000D01*
G75*
G02*
X-12885000Y28998750I0J243750D01*
G01*
X-12885000Y29911250D01*
G75*
G02*
X-12641250Y30155000I243750J0D01*
G01*
X-12153750Y30155000D01*
G75*
G02*
X-11910000Y29911250I0J-243750D01*
G01*
G37*
G36*
G01*
X-17958750Y47440000D02*
X-18871250Y47440000D01*
G75*
G02*
X-19115000Y47683750I0J243750D01*
G01*
X-19115000Y48171250D01*
G75*
G02*
X-18871250Y48415000I243750J0D01*
G01*
X-17958750Y48415000D01*
G75*
G02*
X-17715000Y48171250I0J-243750D01*
G01*
X-17715000Y47683750D01*
G75*
G02*
X-17958750Y47440000I-243750J0D01*
G01*
G37*
G36*
G01*
X-17958750Y45565000D02*
X-18871250Y45565000D01*
G75*
G02*
X-19115000Y45808750I0J243750D01*
G01*
X-19115000Y46296250D01*
G75*
G02*
X-18871250Y46540000I243750J0D01*
G01*
X-17958750Y46540000D01*
G75*
G02*
X-17715000Y46296250I0J-243750D01*
G01*
X-17715000Y45808750D01*
G75*
G02*
X-17958750Y45565000I-243750J0D01*
G01*
G37*
G36*
G01*
X-40455000Y29911250D02*
X-40455000Y28998750D01*
G75*
G02*
X-40698750Y28755000I-243750J0D01*
G01*
X-41186250Y28755000D01*
G75*
G02*
X-41430000Y28998750I0J243750D01*
G01*
X-41430000Y29911250D01*
G75*
G02*
X-41186250Y30155000I243750J0D01*
G01*
X-40698750Y30155000D01*
G75*
G02*
X-40455000Y29911250I0J-243750D01*
G01*
G37*
G36*
G01*
X-38580000Y29911250D02*
X-38580000Y28998750D01*
G75*
G02*
X-38823750Y28755000I-243750J0D01*
G01*
X-39311250Y28755000D01*
G75*
G02*
X-39555000Y28998750I0J243750D01*
G01*
X-39555000Y29911250D01*
G75*
G02*
X-39311250Y30155000I243750J0D01*
G01*
X-38823750Y30155000D01*
G75*
G02*
X-38580000Y29911250I0J-243750D01*
G01*
G37*
G36*
G01*
X-1456250Y-42950000D02*
X-543750Y-42950000D01*
G75*
G02*
X-300000Y-43193750I0J-243750D01*
G01*
X-300000Y-43681250D01*
G75*
G02*
X-543750Y-43925000I-243750J0D01*
G01*
X-1456250Y-43925000D01*
G75*
G02*
X-1700000Y-43681250I0J243750D01*
G01*
X-1700000Y-43193750D01*
G75*
G02*
X-1456250Y-42950000I243750J0D01*
G01*
G37*
G36*
G01*
X-1456250Y-41075000D02*
X-543750Y-41075000D01*
G75*
G02*
X-300000Y-41318750I0J-243750D01*
G01*
X-300000Y-41806250D01*
G75*
G02*
X-543750Y-42050000I-243750J0D01*
G01*
X-1456250Y-42050000D01*
G75*
G02*
X-1700000Y-41806250I0J243750D01*
G01*
X-1700000Y-41318750D01*
G75*
G02*
X-1456250Y-41075000I243750J0D01*
G01*
G37*
D20*
X42545000Y47205000D03*
X37465000Y47205000D03*
D21*
X46305000Y40005000D03*
X33705000Y40005000D03*
D20*
X42545000Y32305000D03*
X40005000Y32305000D03*
X37465000Y32305000D03*
X15875000Y47205000D03*
X10795000Y47205000D03*
D21*
X19635000Y40005000D03*
X7035000Y40005000D03*
D20*
X15875000Y32305000D03*
X13335000Y32305000D03*
X10795000Y32305000D03*
X-10795000Y47205000D03*
X-15875000Y47205000D03*
D21*
X-7035000Y40005000D03*
X-19635000Y40005000D03*
D20*
X-10795000Y32305000D03*
X-13335000Y32305000D03*
X-15875000Y32305000D03*
X-37465000Y47205000D03*
X-42545000Y47205000D03*
D21*
X-33705000Y40005000D03*
X-46305000Y40005000D03*
D20*
X-37465000Y32305000D03*
X-40005000Y32305000D03*
X-42545000Y32305000D03*
M02*
