<svg id="Layer_2" data-name="Layer 2" xmlns="http://www.w3.org/2000/svg" viewBox="0 0 424.65 355.73"><defs><style>.cls-1{fill:#231f20;}.cls-2,.cls-3{fill:none;stroke:#231f20;stroke-width:2.5px;}.cls-2{stroke-linejoin:round;}.cls-3{stroke-miterlimit:10;}</style></defs><path class="cls-1" d="M321.82,98.18a15.51,15.51,0,0,0,4.59-25.13,1.13,1.13,0,0,0-1.88.49,98.84,98.84,0,0,0,.45,32,1.13,1.13,0,0,0,2.17,0A22.53,22.53,0,0,1,334.65,93l-1.92-.8c.19,3.35,1.29,6.83,3.87,9.1a8.67,8.67,0,0,0,8.74,1.75,6.65,6.65,0,0,0,4.09-6.66c-.2-2.65-2.92-6.16-5.87-4.43-2.53,1.5-2.27,5.3-1.13,7.56a10.05,10.05,0,0,0,6.56,4.93c6.47,1.54,11.78-3.8,13.66-9.52a15.58,15.58,0,0,0-.24-11.15,8.54,8.54,0,0,0-9-5.09,1.08,1.08,0,0,0-.78.79c-2,7.85-1.87,17.44,5.65,22.37a11,11,0,0,0,10.58,1,20.66,20.66,0,0,0,9-7.76,11.24,11.24,0,0,0,1.22-10c-1.17-3-4.16-5.83-7.59-5.23-4,.71-4.14,6.22-4.09,9.36.06,4.07,1.22,8.25,4.13,11.22s7.24,4.51,11.12,2.88a8.36,8.36,0,0,0,5.17-9.22c-.26-1.17-1.82-1-2.17,0-1,2.78-1.06,6.2.72,8.68a5.87,5.87,0,0,0,6.82,2.1,4.64,4.64,0,0,0,3.16-5.78c-.9-2.8-4-4.16-6.55-5l-.3,2.21a41.37,41.37,0,0,0,19.56-4.14c1.3-.64.16-2.58-1.14-1.95A39,39,0,0,1,389.49,94c-1.32,0-1.45,1.8-.3,2.21,1.71.59,4,1.45,4.86,3.2s-.38,3-2,3.45a3.61,3.61,0,0,1-4.2-1.92,7.73,7.73,0,0,1-.06-6.25h-2.17c.59,2.73-1.27,5.36-3.69,6.48-2.74,1.27-6,.2-8.15-1.68a12.79,12.79,0,0,1-4.07-8.55,23,23,0,0,1,0-4.76c.13-1.31.31-3.45,1.76-4,1.22-.5,2.76.31,3.66,1.11a6.94,6.94,0,0,1,2,3.35,9.49,9.49,0,0,1-1.73,8,19.11,19.11,0,0,1-7.22,6.07,8.73,8.73,0,0,1-8.51-.56c-6.89-4.22-6.7-13.12-4.93-20l-.79.79a6.2,6.2,0,0,1,6.08,3.34,11.75,11.75,0,0,1,1,7.5c-.66,4.29-3.19,8.91-7.51,10.38-3.67,1.26-8.72-.83-9.64-4.84a3.85,3.85,0,0,1,.28-2.83c.79-1.25,2.15-.16,2.61.83a4.43,4.43,0,0,1-1.46,5.26c-2.16,1.52-5.31.83-7.21-.79A10.59,10.59,0,0,1,335,92.2a1.14,1.14,0,0,0-1.92-.79,24.51,24.51,0,0,0-8.08,13.5h2.17a95.41,95.41,0,0,1-.45-30.77l-1.89.5a13.48,13.48,0,0,1,3.59,12.27,13.66,13.66,0,0,1-7.71,9.32c-1.32.61-.17,2.55,1.13,2Z" transform="translate(-215.54 -66.25)"/><path class="cls-1" d="M431.21,79.68a10.07,10.07,0,0,0,1.3-7.53l-2.17.6a99.17,99.17,0,0,1,5.62,20c.48,2.89.62,6.38-2.75,7.44-3,1-5.8-.9-7.72-3.06-1-1.08-2.55.52-1.59,1.59,2.19,2.46,5.29,4.36,8.7,3.9a6.66,6.66,0,0,0,5.89-6.52,23.79,23.79,0,0,0-.65-5.56q-.58-3.1-1.36-6.17a99.12,99.12,0,0,0-4-12.23,1.13,1.13,0,0,0-2.17.6,7.75,7.75,0,0,1-1.07,5.8c-.77,1.23,1.18,2.36,1.94,1.13Z" transform="translate(-215.54 -66.25)"/><path class="cls-1" d="M438.87,67.65a109.44,109.44,0,0,1,2.68,13.2,1.12,1.12,0,0,0,1.38.78,1.16,1.16,0,0,0,.79-1.38A109.84,109.84,0,0,0,441,67.05a1.13,1.13,0,0,0-2.17.6Z" transform="translate(-215.54 -66.25)"/><path class="cls-1" d="M443.92,90.93l.86,8.31c.12,1.16,2,1.65,2.21.3A26.78,26.78,0,0,1,449.5,92c.19-.36.4-.83.87-.81a1.33,1.33,0,0,1,.88.54c.74.92.3,2.45.06,3.47a1.13,1.13,0,0,0,2.17.6,9.44,9.44,0,0,1,2-3.66,2.58,2.58,0,0,1,2.86-.55c1.15.61.71,2.68.69,3.74l-.1,5.47a1.15,1.15,0,0,0,1.12,1.13,1.78,1.78,0,0,0,1.83-2.26c-.33-1.41-2.5-.81-2.17.6l0,.19v-.6l.3-.18,1.13,1.12c0-2.33.09-4.66.12-7,0-1.92-.47-3.73-2.43-4.43a4.86,4.86,0,0,0-4.61.85c-1.56,1.25-2.31,3.16-3,5l2.17.6c.39-1.69.75-3.66-.28-5.21a3.41,3.41,0,0,0-3.88-1.47c-1.63.63-2.27,2.72-2.86,4.19a30,30,0,0,0-1.64,5.63l2.21.3-.86-8.31A1.18,1.18,0,0,0,445,89.8a1.12,1.12,0,0,0-1.12,1.13Z" transform="translate(-215.54 -66.25)"/><path class="cls-1" d="M493.63,80.07c-1.93-3-5.7-3.9-9-3-4,1.06-6.46,4.49-7.63,8.28a24.35,24.35,0,0,0-.54,12.92,8.72,8.72,0,0,0,8.86,6.64,8.47,8.47,0,0,0,7.77-9.27l-2.1.57a41,41,0,0,1,4,13.2,42,42,0,0,1,.25,7c-.05,1-.13,2-.26,3s-.11,2.78-.85,3.41c-1.37,1.18-3.92-1.35-4.68-2.33a17.91,17.91,0,0,1-2.63-5.08c-.87-2.53.88-4.3,2.37-6.16l4.75-5.93,2.77-3.45c.56-.71,1.41-2.28,2.4-2.47,1.15-.21,2.08,1,2.35,2a10,10,0,0,1,0,3.81c-.15,1.35,1.8,1.4,2.21.3l1.93-5.08,1-2.54c.37-1,.59-1.63,1.65-1.92,3.35-.92,6.89-1.41,10.31-2.1L517.2,90.2c-1.74,3.48-3.55,7.89-.87,11.41,2,2.58,6.52,2.89,8-.35.61-1.3-1.33-2.45-1.94-1.14a2.31,2.31,0,0,1-2.5,1.26,3.11,3.11,0,0,1-2.37-2.13c-1.05-2.69.38-5.52,1.57-7.91a1.14,1.14,0,0,0-1.27-1.65l-6.14,1.25c-1.73.35-4,.42-5.54,1.38s-1.89,3.06-2.47,4.58l-2.28,6,2.21.29c.28-2.53.34-5.46-1.94-7.14-2.12-1.57-4.23-.78-5.76,1.11q-3.15,3.92-6.28,7.85c-1,1.28-2.06,2.55-3.07,3.83a11.19,11.19,0,0,0-2.18,3.58c-.76,2.49.62,5.14,1.78,7.28a11.06,11.06,0,0,0,4.68,5c2.22,1,4.79.86,5.66-1.74a27.64,27.64,0,0,0,.92-8.3,43.79,43.79,0,0,0-4.57-19.59,1.13,1.13,0,0,0-2.09.57,6.28,6.28,0,0,1-4.94,7c-3.54.61-6.46-1.79-7.32-5.11a22.26,22.26,0,0,1,.19-10c.67-3,2.11-6.2,5-7.65,2.56-1.29,6.3-1.22,8,1.43.77,1.22,2.71.09,1.94-1.14Z" transform="translate(-215.54 -66.25)"/><path class="cls-1" d="M521,86.09v0l0,.3,0-.11-.11.27a.33.33,0,0,1,.06-.1l-.18.23a.34.34,0,0,1,.09-.08l-.23.17.12-.07-.27.11.19,0-.3,0h.23l-.3,0,.19,0-.27-.11.13.08-.23-.18.09.09-.18-.23a.41.41,0,0,1,.05.09l-.11-.27,0,.11,0-.3v0a1,1,0,0,0,.1.44.86.86,0,0,0,.23.36.82.82,0,0,0,.36.23,1,1,0,0,0,.44.1l.3,0a1.07,1.07,0,0,0,.49-.29,1.06,1.06,0,0,0,.33-.8,2.35,2.35,0,0,0-.05-.37s0,0,0,0-.08-.21-.13-.31a.21.21,0,0,0,0-.06,2.48,2.48,0,0,0-.19-.26l0,0a1.69,1.69,0,0,0-.78-.44,2.13,2.13,0,0,0-.94,0,1.65,1.65,0,0,0-.42.16,1.55,1.55,0,0,0-.37.26,1.12,1.12,0,0,0-.28.36.89.89,0,0,0-.08.17s0,.11-.07.17a.11.11,0,0,0,0,0,2,2,0,0,0-.05.35.91.91,0,0,0,.1.43,1,1,0,0,0,.59.59.84.84,0,0,0,.44.1l.3,0a1.07,1.07,0,0,0,.49-.29l.18-.23a1.09,1.09,0,0,0,.15-.56Z" transform="translate(-215.54 -66.25)"/><path class="cls-1" d="M532,94.81a3.59,3.59,0,0,0-2.93-2.87,4.79,4.79,0,0,0-4.44,1.38,12.46,12.46,0,0,0-2.78,4.82c-.59,1.66-.69,3.64.72,4.91,2.93,2.64,6.89-1.1,8.59-3.36a22.54,22.54,0,0,0,4-10.13,64,64,0,0,0,.39-13,1.13,1.13,0,0,0-2.25,0A70.38,70.38,0,0,0,533.68,90c.45,3.57,1.06,7.37,3.17,10.38a8.78,8.78,0,0,0,7.45,4,6.55,6.55,0,0,0,6.32-4.15c.49-1.37-1.68-2-2.17-.6-.79,2.17-3.42,2.79-5.48,2.4-2.69-.49-4.45-2.74-5.44-5.15a32.36,32.36,0,0,1-1.86-9.3,70.87,70.87,0,0,1-.12-11H533.3c.32,6.74.6,14.35-3,20.37a12.48,12.48,0,0,1-3.3,3.85c-1.55,1.08-3.81,1.2-3.2-1.33a9.74,9.74,0,0,1,2.55-4.69c1-.89,3.24-1.13,3.48.63.2,1.43,2.37.82,2.17-.6Z" transform="translate(-215.54 -66.25)"/><path class="cls-1" d="M557.06,102.84a2,2,0,0,0,1.18,2.88,2.5,2.5,0,0,0,2.57-1.41,3,3,0,0,0,.09-2.82c-.37-.72-1.41-.63-2.08-.52a3.95,3.95,0,0,0-3.1,2.81,1.13,1.13,0,0,0,1.09,1.42,2.55,2.55,0,0,0,2.14-3.68,1.16,1.16,0,0,0-.67-.52,1.2,1.2,0,0,0-.87.11,1.16,1.16,0,0,0-.4,1.54l0,.07-.11-.27a1.47,1.47,0,0,1,.08.3l0-.3a1.15,1.15,0,0,1,0,.37l0-.3a2.24,2.24,0,0,1-.1.37l.11-.27a2.12,2.12,0,0,1-.21.36l.17-.22a1.66,1.66,0,0,1-.27.26l.23-.17a1.69,1.69,0,0,1-.29.17l.26-.12a1,1,0,0,1-.29.08l.3,0h-.11l1.08,1.43a2.55,2.55,0,0,1,.11-.33l-.11.27a2.77,2.77,0,0,1,.35-.6l-.18.23a3.2,3.2,0,0,1,.52-.52l-.23.18a3.49,3.49,0,0,1,.67-.4l-.27.12a2.88,2.88,0,0,1,.71-.2l-.3,0a2.66,2.66,0,0,1,.69,0l-.3,0h.08l-.67-.52,0,.08-.11-.27a1.91,1.91,0,0,1,.11.41l0-.3a2.09,2.09,0,0,1,0,.5l0-.3a2,2,0,0,1-.14.49L559,103a3.24,3.24,0,0,1-.28.47l.18-.23a1.75,1.75,0,0,1-.36.36l.23-.18a2,2,0,0,1-.37.22l.27-.12-.22.08.3,0h-.11l.3,0a.48.48,0,0,1-.17,0l.26.12-.15-.09.23.17a.77.77,0,0,1-.18-.18l.18.23a.72.72,0,0,1-.11-.19l.11.27a1,1,0,0,1-.07-.25l0,.3a.74.74,0,0,1,0-.21l0,.3a.84.84,0,0,1,0-.17l-.11.27a.31.31,0,0,1,0-.1,1.13,1.13,0,1,0-1.94-1.14Z" transform="translate(-215.54 -66.25)"/><path class="cls-1" d="M377.63,208.42c1.18-3.32,5.81-4.35,9.73-4.22,2.62.09,4.14-.24,6.63.68,6.23,2.31,2.83,7.17-2.48,7.83S375.65,214,377.63,208.42Z" transform="translate(-215.54 -66.25)"/><path class="cls-1" d="M492.61,203.49c2.41-2.18,14.78-1.18,18.08.45s1.89,4.71-1.95,6.61c-3.63,1.79-7.7,1.19-11.54,0C495.09,209.89,489.31,206.47,492.61,203.49Z" transform="translate(-215.54 -66.25)"/><path class="cls-1" d="M389.49,226.4A189.13,189.13,0,0,0,411,230.15c7.27.7,14.41,0,21.67-.4,14.46-.86,28.94.08,43.41-.09a167.17,167.17,0,0,0,24.07-1.84c1.58-.25.91-2.65-.67-2.41-14.11,2.23-28.44,1.81-42.67,1.58-7.07-.12-14.15-.2-21.22.11-7.23.32-14.43,1.23-21.68.78-8-.5-15.91-2.2-23.76-3.89-1.57-.33-2.24,2.08-.67,2.41Z" transform="translate(-215.54 -66.25)"/><path class="cls-1" d="M398.9,228l3.54,10.72a1.26,1.26,0,0,0,2.41,0l2.43-6.2h-2.41l1.7,5.09c.39,1.16.71,3.06,2.28,3.08s1.8-1.8,2.17-2.93l1.64-5-2.28.3,2.33,4.34a1.26,1.26,0,0,0,2.28-.3,14.56,14.56,0,0,1,1.95-4.26h-2.16q2.31,4,4.29,8.14a1.26,1.26,0,0,0,2.33-.63A37.64,37.64,0,0,1,422,229.6c.32-1.57-2.09-2.24-2.41-.67a39.81,39.81,0,0,0-.68,11.42l2.33-.63q-2-4.16-4.29-8.14a1.26,1.26,0,0,0-2.16,0,16.36,16.36,0,0,0-2.2,4.85l2.29-.3-2.34-4.33a1.26,1.26,0,0,0-2.28.3l-1.07,3.27-.57,1.73-.25.77c-.22.65-.59.81.43.67.87-.11.72,0,.52-.62-.08-.26-.17-.52-.26-.78l-.59-1.76-1.18-3.52a1.26,1.26,0,0,0-2.41,0l-2.43,6.2h2.41l-3.54-10.72c-.5-1.52-2.91-.87-2.41.66Z" transform="translate(-215.54 -66.25)"/><path class="cls-1" d="M472.2,228.27a79.67,79.67,0,0,0,.75,9.87c.17,1.21,1.73,1,2.29.3l4-5.25h-2.15a23.51,23.51,0,0,1,1.86,4.42,1.26,1.26,0,0,0,2.28.29q1.51-2,3.19-3.93l-2-.26a27.79,27.79,0,0,1,3.62,7.4c.35,1.09,2.17,1.28,2.41,0l2.31-12.24c.29-1.58-2.12-2.25-2.41-.67l-2.31,12.25h2.41a30,30,0,0,0-3.87-8,1.27,1.27,0,0,0-2-.25q-1.89,2.15-3.59,4.44l2.29.3a26,26,0,0,0-2.12-5,1.26,1.26,0,0,0-2.15,0l-4,5.25,2.28.29a72.57,72.57,0,0,1-.66-9.2,1.25,1.25,0,0,0-2.5,0Z" transform="translate(-215.54 -66.25)"/><path class="cls-1" d="M580.84,258.25c-15.87,8.86-26.58,24.9-31,42.31a95.64,95.64,0,0,0-2.39,31.27c.43,5.47,1.56,10.82,2.2,16.26.54,4.63.44,9.7-2.32,13.68-5,7.18-16.23,4.74-21.09,12.29a1.25,1.25,0,0,0,1.08,1.88l14.46-1.6-.34-2.46c-12.6,2.43-21.21,16.14-18.13,28.55.28,1.13,2.22,1.26,2.41,0a23.15,23.15,0,0,1,18.24-19.11l-1.22-2.09a26,26,0,0,0-3,30.16,1.26,1.26,0,0,0,2.33-.63,57.37,57.37,0,0,1,9.08-26l-2.28-.3A58.35,58.35,0,0,1,551.17,401a1.26,1.26,0,0,0,2.33.63,40.77,40.77,0,0,0,4.73-19l-2.46.33a150.48,150.48,0,0,1,6.4,26,1.26,1.26,0,0,0,2.09.55c7.28-8.93-.32-19.64.39-29.48.42-5.84,4.36-10.56,8-14.82q6.08-7.08,12.05-14.25c15.61-18.83,30.74-38.11,45.52-57.59,5.66-7.45,13-18.32,8.64-28.07-2.11-4.78-6.85-8-10.7-11.32l-14.53-12.45a270.23,270.23,0,0,0-22.57-17.94c-6.9-4.74-14-9.19-21.08-13.61-5.69-3.55-11.13-6.66-15.55-11.75-2.19-2.51-4.62-5.95-2.19-9,1.67-2.11,4-3.61,5.74-5.7a25.53,25.53,0,0,0,5.78-15c.08-1.37-1.65-1.51-2.33-.63a33.58,33.58,0,0,1-11.2,9.41l1.71,1.71c2.4-3.72,4.86-7.66,5.47-12.14.64-4.68-1.91-8.81-1.78-13.42h-2.5c.17,3.63-2.54,6.27-4.81,8.78s-4.38,5-5,8.27l2.46.33A19.85,19.85,0,0,0,540,158.74,1.26,1.26,0,0,0,537.9,160a31.67,31.67,0,0,1-.15,19l1.83-.75c-.71-.34-1.13-4.17-1.4-5-.6-1.82-1.48-3.77-3.33-4.59-1.05-.46-2.45.55-1.71,1.71,1.9,3,.73,6.54-1.27,9.18a12.82,12.82,0,0,1-9.73,5.16c-4.67.28-9.24-1.17-13.64-2.56s-9-2.72-13.58-3.77A152.67,152.67,0,0,0,440.44,176c-7.09,1-18.91,4.85-24.18-2.13a1.28,1.28,0,0,0-2-.26c-3.83,4.51-10.5,5.65-15.89,7.31l-20.35,6.31c-3.29,1-6.57,2.12-9.9,3-3.16.87-6.65,1.52-9.74,0a10.7,10.7,0,0,1-5.49-12.53c.4-1.27-1.2-2-2.09-1.21l-6.67,5.73,2,1.52a47.87,47.87,0,0,0,4-18.37,1.25,1.25,0,0,0-2.45-.33,17.17,17.17,0,0,1-6.89,9l1.51.2L327.94,156c-.87-1.11-2.25.16-2.09,1.22a97.55,97.55,0,0,0,6,22L334,178l-8.87-7.09a1.25,1.25,0,0,0-1.77,1.76,27.75,27.75,0,0,1,7,21.09l1.88-1.08a21.46,21.46,0,0,1-9.09-8.26c-.61-1-2.43-.66-2.33.63a23.78,23.78,0,0,0,5.83,14,21.34,21.34,0,0,0,3,2.8c.66.53,1.5.94,1.72,1.56.37,1.05-.51,3.13-.95,4.12a15.44,15.44,0,0,1-2.55,3.9c-4,4.57-9.51,7.73-14.67,10.77a154.28,154.28,0,0,1-17.69,8.94c-6.19,2.64-12.59,4.77-18.72,7.57a79.09,79.09,0,0,0-15.41,9.35,111.82,111.82,0,0,0-23.91,26.14c-8.55,12.61-15.14,26.4-21.69,40.11a1.28,1.28,0,0,0,.45,1.71c3.25,2,6.6,3.92,10,5.67a67.59,67.59,0,0,0,8,3.57c3.34,1.22,6.85,2,10.26,3a197.42,197.42,0,0,1,23.57,8.56,153.19,153.19,0,0,1,21.45,12c6.8,4.45,13.91,8,22,9.38a63.31,63.31,0,0,0,22.3-.44c15.53-2.84,30-9.6,45.38-13A59.83,59.83,0,0,1,389.13,343a19.54,19.54,0,0,1,9.81,2.67c6.18,3.24,11.77,7.82,18.88,8.85,1.25.18,2.39-1.66,1-2.28a28.84,28.84,0,0,1-15.29-15.58l-1.84,1.41a31.93,31.93,0,0,0,17.39,6c1.52.07,1.54-2,.33-2.46a44.51,44.51,0,0,1-13.81-9l-.89,2.14a95.73,95.73,0,0,0,24.88-3,1.27,1.27,0,0,0,.3-2.29,61.55,61.55,0,0,0-27.38-5.33l.88,2.13A25.06,25.06,0,0,1,427,320c1.15.29,2.18-1.23,1.21-2.09-9.73-8.69-25.61-8.36-34.93.79l2.09.56a7.4,7.4,0,0,1,3.93-9.11,1.26,1.26,0,0,0-.3-2.28c-4.38-1.14-8.07,1.41-11.32,4.05a16.87,16.87,0,0,1-5.67,3.54c-2.83.82-5.82-.24-8.45-1.26-8.93-3.46-16.55-9.5-24.29-15a99.45,99.45,0,0,0-25-13.21,148.56,148.56,0,0,0-28.8-6.4c-5.59-.76-11.54-1.92-17.2-1.54-4.55.31-8.95,2-11.46,6-.87,1.36,1.3,2.61,2.16,1.26,2.77-4.39,8.21-5,13-4.76,4.91.29,9.84,1,14.71,1.68a143.26,143.26,0,0,1,27.66,6.39,98.33,98.33,0,0,1,24.25,13.13c7.23,5.13,14.34,10.6,22.55,14.1,4.36,1.86,9.09,3.43,13.6,1.15,4.32-2.18,8.16-8.17,13.6-6.76L398,308a9.85,9.85,0,0,0-5.07,11.92,1.26,1.26,0,0,0,2.09.55c8.31-8.17,22.68-8.57,31.39-.79l1.22-2.09a27.62,27.62,0,0,0-26,7,1.27,1.27,0,0,0,.88,2.14,58.63,58.63,0,0,1,26.12,5l.3-2.28a93.23,93.23,0,0,1-24.22,2.87,1.26,1.26,0,0,0-.88,2.13A48,48,0,0,0,418.71,344l.33-2.46a29.62,29.62,0,0,1-16.13-5.63,1.26,1.26,0,0,0-1.83,1.41,31.27,31.27,0,0,0,16.44,17.08l1-2.29c-11.72-1.7-19.79-13.54-32.38-11.2a177.2,177.2,0,0,0-21.77,5.33c-7.42,2.36-14.76,5-22.27,7s-15.32,3.49-23.17,3.22a49.91,49.91,0,0,1-23.74-7c-7-4.12-13.51-8.81-20.82-12.41a173.27,173.27,0,0,0-22-8.93c-7.63-2.54-15.63-4.11-22.88-7.63a129.89,129.89,0,0,1-12-6.66l.45,1.71C229,292.26,240.68,268,261.18,251.32a77.86,77.86,0,0,1,15.37-9.78c6.2-3,12.75-5.12,19.08-7.78a158.43,158.43,0,0,0,17.75-8.82c5.17-3,10.61-6.12,14.88-10.36a19.35,19.35,0,0,0,4.76-7.05c.6-1.65,1.47-4.68.11-6.18-1-1.11-2.6-1.83-3.7-2.92a20.49,20.49,0,0,1-3.13-3.93,20.8,20.8,0,0,1-3.05-9.47l-2.33.63a23.87,23.87,0,0,0,10,9.16,1.27,1.27,0,0,0,1.88-1.08,30.18,30.18,0,0,0-7.68-22.85l-1.77,1.76,8.87,7.1c.84.67,2.62.08,2.09-1.22a97.49,97.49,0,0,1-6-22l-2.09,1.22,14.39,18.33a1.25,1.25,0,0,0,1.52.19,19.94,19.94,0,0,0,8-10.52l-2.46-.33a44.51,44.51,0,0,1-3.69,17.1,1.26,1.26,0,0,0,2,1.52l6.67-5.74-2.09-1.21a13.12,13.12,0,0,0,4.35,13.84c5.71,4.69,12.79,2.11,19.07.17l23.94-7.41c6.11-1.9,13.83-3.19,18.19-8.33l-2-.25c4.68,6.2,13,5.5,19.85,4.41a167.74,167.74,0,0,1,31.48-2.38,149.9,149.9,0,0,1,31.49,4.31c5.08,1.25,10,3,15,4.37,4.59,1.27,9.72,2.18,14.39.72,6.56-2,13.23-10.66,8.94-17.41l-1.71,1.71c2,.89,2.4,3.71,2.87,5.6.31,1.25.54,3.34,1.87,4a1.28,1.28,0,0,0,1.84-.75,34.06,34.06,0,0,0,.15-20.38l-2.09,1.22a17.15,17.15,0,0,1,5,10.46c.13,1.28,2.15,1.83,2.45.33,1.37-6.94,10.3-10.09,9.93-17.71a1.25,1.25,0,0,0-2.5,0c-.12,4.19,2.19,8,1.9,12.21-.31,4.47-2.88,8.42-5.25,12.09-.71,1.1.66,2.26,1.71,1.71a36.43,36.43,0,0,0,12.1-10.31l-2.33-.63a22.77,22.77,0,0,1-6.38,14.68c-2.6,2.65-6.82,5.17-6.25,9.47.65,4.88,5.33,8.79,8.73,11.9a31.52,31.52,0,0,0,4.31,3.12c13.15,8.45,26.91,16.19,39.06,26.09,9.25,7.55,18.17,15.53,27.24,23.3,4.28,3.67,9.23,7.27,9.57,13.4.31,5.66-2.36,11.16-5.34,15.8s-6.71,9.16-10.17,13.63q-5.74,7.43-11.53,14.84c-7.54,9.66-15.14,19.26-22.9,28.75q-6.47,7.91-13.08,15.68c-3.77,4.42-8.16,8.77-10.62,14.12-2.58,5.58-1.79,11.21-.44,17,1.31,5.59,3,12.48-1,17.41l2.09.55a149.25,149.25,0,0,0-6.4-26,1.25,1.25,0,0,0-2.45.33,38,38,0,0,1-4.39,17.69l2.33.63a61,61,0,0,0-2.43-19.23,1.27,1.27,0,0,0-2.29-.3,60,60,0,0,0-9.42,27.26l2.33-.63A23.45,23.45,0,0,1,544.49,381a1.26,1.26,0,0,0-1.22-2.09,25.55,25.55,0,0,0-20,20.86h2.41c-2.77-11.18,5.14-23.31,16.39-25.48,1.36-.26,1.07-2.61-.33-2.45l-14.46,1.6,1.08,1.89c2.08-3.25,5.9-4.32,9.38-5.39,3.31-1,6.78-2.05,9.45-4.36,7.19-6.21,5.09-16.61,3.79-24.78-3.2-20.13-1.33-41.7,9.53-59.35a59.67,59.67,0,0,1,21.57-21,1.25,1.25,0,0,0-1.26-2.16Z" transform="translate(-215.54 -66.25)"/><path class="cls-1" d="M315.18,359.13l-.07,31.57c0,10,.11,20.14-3,29.75-.49,1.54,1.92,2.19,2.41.67,2.4-7.45,2.92-15.31,3-23.08.11-8.2.06-16.41.08-24.61l0-14.3a1.25,1.25,0,0,0-2.5,0Z" transform="translate(-215.54 -66.25)"/><path class="cls-1" d="M437.9,379.33a74.06,74.06,0,0,0,10.94-9.61c1.09-1.17-.67-3-1.77-1.77a71.4,71.4,0,0,1-10.43,9.22,1.3,1.3,0,0,0-.45,1.71,1.26,1.26,0,0,0,1.71.45Z" transform="translate(-215.54 -66.25)"/><path class="cls-1" d="M437.67,370l6.46,6.78,1.63,1.72a3.91,3.91,0,0,0,1.8,1.37,1.53,1.53,0,0,0,1.89-1.47,1.45,1.45,0,0,0-1.82-1.47,1.26,1.26,0,0,0-.87,1.53,1.28,1.28,0,0,0,1.54.88l.07,0h-.66l.06,0-.55-.32.18-1.45.63-.17a1.45,1.45,0,0,1,.25.12,2.13,2.13,0,0,0-.3-.31l-.52-.55-1.17-1.23L444,373l-4.57-4.8c-1.11-1.17-2.87.6-1.76,1.77Z" transform="translate(-215.54 -66.25)"/><polyline class="cls-2" points="154.56 224.87 182.41 189.4 232.71 228.89 206.89 261.78"/><circle class="cls-1" cx="183.61" cy="201.17" r="3.16"/><circle class="cls-1" cx="173.8" cy="213.63" r="3.16"/><circle class="cls-1" cx="164" cy="226.1" r="3.16"/><circle class="cls-1" cx="196.05" cy="210.99" r="3.16"/><circle class="cls-1" cx="186.25" cy="223.46" r="3.16"/><circle class="cls-1" cx="176.44" cy="235.92" r="3.16"/><circle class="cls-1" cx="153.51" cy="238.19" r="3.16"/><circle class="cls-1" cx="165.95" cy="248.01" r="3.16"/><circle class="cls-1" cx="208.49" cy="220.81" r="3.16"/><circle class="cls-1" cx="198.69" cy="233.28" r="3.16"/><path class="cls-1" d="M406.9,314c-.51.64-1.33-.22-2.08-.1s-1.63,1.19-2.36.62a3.16,3.16,0,1,1,4.44-.52Z" transform="translate(-215.54 -66.25)"/><circle class="cls-1" cx="220.93" cy="230.64" r="3.16"/><circle class="cls-1" cx="211.13" cy="243.1" r="3.16"/><circle class="cls-1" cx="201.32" cy="255.56" r="3.16"/><circle class="cls-1" cx="98.9" cy="215.26" r="3.16"/><circle class="cls-1" cx="113.79" cy="220.69" r="3.16"/><circle class="cls-1" cx="128.68" cy="226.13" r="3.16"/><circle class="cls-1" cx="143.57" cy="231.56" r="3.16"/><path class="cls-1" d="M333.59,238.26a3.16,3.16,0,1,1-2.41-4.18l-.87,2.41,1,.37.88-2.4A3.16,3.16,0,0,1,333.59,238.26Z" transform="translate(-215.54 -66.25)"/><path class="cls-1" d="M346.93,245.44a3.16,3.16,0,1,1,1.16-4.68l-2.3,1.12.48,1,2.3-1.12A3.17,3.17,0,0,1,346.93,245.44Z" transform="translate(-215.54 -66.25)"/><path class="cls-1" d="M358.11,245.88a3.16,3.16,0,1,1,.47,4.8l1.79-1.83-.78-.77-1.79,1.83A3.15,3.15,0,0,1,358.11,245.88Z" transform="translate(-215.54 -66.25)"/><path class="cls-1" d="M377.83,251.64a3.16,3.16,0,1,1-4.81-.37l1.5,2.08.89-.64-1.5-2.08A3.16,3.16,0,0,1,377.83,251.64Z" transform="translate(-215.54 -66.25)"/><polyline class="cls-2" points="89.86 216.16 110.24 160.22 170.33 182.11 147.74 244.12"/><line class="cls-3" x1="106.55" y1="194.3" x2="102.43" y2="205.59"/><line class="cls-3" x1="111.55" y1="180.59" x2="107.81" y2="190.85"/><line class="cls-3" x1="124.03" y1="192.64" x2="117.32" y2="211.03"/><line class="cls-3" x1="126.44" y1="186.02" x2="125.29" y2="189.2"/><line class="cls-3" x1="134.72" y1="209.59" x2="132.21" y2="216.46"/><line class="cls-3" x1="141.33" y1="191.46" x2="135.97" y2="206.15"/><line class="cls-3" x1="152.07" y1="208.26" x2="147.1" y2="221.9"/><line class="cls-3" x1="156.23" y1="196.89" x2="153.33" y2="204.82"/><rect class="cls-3" x="318.44" y="256.99" width="8.55" height="3.67" transform="translate(-107.25 -161.2) rotate(20.05)"/><polyline class="cls-3" points="125.29 189.2 129.3 190.66 128.04 194.11 120.02 191.18 121.27 187.73 125.29 189.2"/><polyline class="cls-3" points="135.97 206.15 139.99 207.61 138.73 211.06 130.7 208.13 131.96 204.68 135.97 206.15"/><polyline class="cls-3" points="153.33 204.82 157.35 206.29 156.09 209.73 148.06 206.8 149.32 203.36 153.33 204.82"/></svg>