<?xml version="1.0" encoding="UTF-8" standalone="no"?>
<svg
   id="Layer_2"
   data-name="Layer 2"
   viewBox="0 0 424.65 355.73"
   version="1.1"
   sodipodi:docname="hello_im_grid.svg"
   inkscape:version="1.1 (ce6663b3b7, 2021-05-25)"
   xmlns:inkscape="http://www.inkscape.org/namespaces/inkscape"
   xmlns:sodipodi="http://sodipodi.sourceforge.net/DTD/sodipodi-0.dtd"
   xmlns="http://www.w3.org/2000/svg"
   xmlns:svg="http://www.w3.org/2000/svg">
  <sodipodi:namedview
     id="namedview113"
     pagecolor="#ffffff"
     bordercolor="#666666"
     borderopacity="1.0"
     inkscape:pageshadow="2"
     inkscape:pageopacity="0.0"
     inkscape:pagecheckerboard="0"
     showgrid="false"
     inkscape:zoom="0.87144742"
     inkscape:cx="200.24157"
     inkscape:cy="278.27267"
     inkscape:window-width="1280"
     inkscape:window-height="975"
     inkscape:window-x="1280"
     inkscape:window-y="0"
     inkscape:window-maximized="1"
     inkscape:current-layer="Layer_2" />
  <defs
     id="defs4">
    <style
       id="style2">.cls-1{fill:#231f20;}.cls-2,.cls-3{fill:none;stroke:#231f20;stroke-width:2.5px;}.cls-2{stroke-linejoin:round;}.cls-3{stroke-miterlimit:10;}</style>
  </defs>
  <path
     id="path6"
     style="color:#000000;fill:#231f20;-inkscape-stroke:none"
     d="M 110.17773 6.4785156 A 1.13 1.13 0 0 0 108.99023 7.2890625 A 98.84 98.84 0 0 0 108.17383 28.082031 A 13.66 13.66 0 0 1 105.16992 29.980469 C 103.84992 30.590469 105.00078 32.530469 106.30078 31.980469 L 106.2793 31.929688 A 15.51 15.51 0 0 0 108.32227 30.798828 A 98.84 98.84 0 0 0 109.43945 39.289062 A 1.13 1.13 0 0 0 111.60938 39.289062 A 22.53 22.53 0 0 1 117.49414 28.361328 C 117.99501 30.89785 119.0985 33.324481 121.06055 35.050781 A 8.67 8.67 0 0 0 129.80078 36.800781 A 6.65 6.65 0 0 0 130.05664 36.681641 A 10.05 10.05 0 0 0 133.44922 38.199219 C 137.0105 39.046881 140.21744 37.805632 142.69727 35.568359 C 142.71238 35.578347 142.72506 35.58966 142.74023 35.599609 A 11 11 0 0 0 153.32031 36.599609 A 20.66 20.66 0 0 0 156.58203 34.724609 C 159.46868 37.325911 163.47812 38.595814 167.10938 37.070312 A 8.36 8.36 0 0 0 170.05859 35.091797 C 170.26556 35.592951 170.50787 36.080373 170.83008 36.529297 A 5.87 5.87 0 0 0 177.65039 38.630859 A 4.64 4.64 0 0 0 180.81055 32.849609 C 180.41753 31.6269 179.5929 30.691535 178.58984 29.941406 A 41.37 41.37 0 0 0 193.51953 25.919922 C 194.81953 25.279922 193.68086 23.340703 192.38086 23.970703 A 39 39 0 0 1 173.94922 27.75 C 172.62922 27.75 172.50039 29.550938 173.65039 29.960938 C 175.36039 30.550938 177.64977 31.410156 178.50977 33.160156 C 179.36977 34.910156 178.12977 36.159375 176.50977 36.609375 A 3.61 3.61 0 0 1 172.31055 34.689453 A 7.73 7.73 0 0 1 171.70508 32.630859 A 8.36 8.36 0 0 0 172.2793 27.849609 C 172.0193 26.679609 170.45937 26.849609 170.10938 27.849609 C 169.62567 29.194309 169.36972 30.688928 169.42773 32.154297 C 168.73742 33.349153 167.64445 34.339641 166.39062 34.919922 C 163.71623 36.159513 160.55379 35.163455 158.4043 33.367188 A 20.66 20.66 0 0 0 162.32031 28.839844 A 11.24 11.24 0 0 0 163.53906 18.839844 C 162.36906 15.839844 159.37922 13.009375 155.94922 13.609375 C 151.94922 14.319375 151.80937 19.830703 151.85938 22.970703 C 151.91212 26.548846 152.81886 30.209306 155.01367 33.060547 A 19.11 19.11 0 0 1 152.64062 34.460938 A 8.73 8.73 0 0 1 144.23047 33.947266 C 145.50373 32.382962 146.49317 30.554524 147.10938 28.679688 A 15.58 15.58 0 0 0 146.86914 17.529297 A 8.54 8.54 0 0 0 137.86914 12.439453 A 1.08 1.08 0 0 0 137.08984 13.230469 C 135.26382 20.39761 135.2326 29.004033 140.96094 34.201172 C 140.08635 34.939524 139.09449 35.531078 137.98047 35.910156 C 136.0822 36.561879 133.81755 36.312035 131.94336 35.369141 A 6.65 6.65 0 0 0 133.89062 30.140625 C 133.69063 27.490625 130.96953 23.980937 128.01953 25.710938 C 125.48953 27.210938 125.75063 31.009531 126.89062 33.269531 A 10.05 10.05 0 0 0 128.14453 35.041016 C 126.22295 35.478702 124.02243 34.785509 122.56055 33.539062 A 10.59 10.59 0 0 1 119.46094 25.949219 A 1.14 1.14 0 0 0 117.53906 25.160156 A 24.51 24.51 0 0 0 111 34.058594 A 95.41 95.41 0 0 1 110.47852 29.121094 A 15.51 15.51 0 0 0 110.86914 6.8007812 A 1.13 1.13 0 0 0 110.17773 6.4785156 z M 110.91211 10.386719 A 13.48 13.48 0 0 1 112.88086 20.660156 A 13.66 13.66 0 0 1 110.30273 25.929688 A 95.41 95.41 0 0 1 110.91211 10.386719 z M 139.00391 14.724609 A 6.2 6.2 0 0 1 144.49023 18.029297 A 11.75 11.75 0 0 1 145.49023 25.529297 C 145.10734 28.018107 144.09087 30.615031 142.46484 32.646484 C 137.52822 28.286651 137.57729 20.847756 139.00391 14.724609 z M 156.89062 15.779297 C 157.88063 15.833672 158.91484 16.439063 159.58984 17.039062 A 6.94 6.94 0 0 1 161.58984 20.390625 A 9.49 9.49 0 0 1 159.85938 28.390625 A 19.11 19.11 0 0 1 156.81055 31.640625 A 12.79 12.79 0 0 1 154.16992 24.689453 A 23 23 0 0 1 154.16992 19.929688 C 154.29992 18.619687 154.47969 16.479687 155.92969 15.929688 C 156.23469 15.804688 156.56062 15.761172 156.89062 15.779297 z M 129.67188 27.691406 C 130.30361 27.792578 130.94297 28.451563 131.23047 29.070312 A 4.43 4.43 0 0 1 130.08789 34.066406 C 129.2437 33.255793 128.61028 32.249041 128.33984 31.070312 A 3.85 3.85 0 0 1 128.61914 28.240234 C 128.91539 27.771484 129.29283 27.630703 129.67188 27.691406 z " />
  <path
     id="path8"
     class="cls-1"
     d="M 216.13281 5.1835938 A 1.13 1.13 0 0 0 214.76953 6.4902344 A 7.75 7.75 0 0 1 213.69922 12.289062 C 212.92922 13.519063 214.88063 14.649922 215.64062 13.419922 L 215.66992 13.429688 A 10.07 10.07 0 0 0 216.62305 11.462891 A 99.17 99.17 0 0 1 220.41992 26.5 C 220.89992 29.39 221.03992 32.879453 217.66992 33.939453 C 214.66992 34.939453 211.86922 33.040859 209.94922 30.880859 C 208.94922 29.800859 207.39937 31.400703 208.35938 32.470703 C 210.54937 34.930703 213.65055 36.829141 217.06055 36.369141 A 6.66 6.66 0 0 0 222.94922 29.849609 A 23.79 23.79 0 0 0 222.30078 24.289062 C 221.91411 22.222396 221.45945 20.165807 220.93945 18.119141 A 99.12 99.12 0 0 0 217.00586 6.0664062 A 10.07 10.07 0 0 0 216.9707 5.9003906 L 216.94531 5.9082031 A 99.12 99.12 0 0 0 216.93945 5.890625 A 1.13 1.13 0 0 0 216.13281 5.1835938 z " />
  <path
     id="path10"
     class="cls-1"
     d="M 224.2832 0.0703125 A 1.13 1.13 0 0 0 223.28906 1.4003906 L 223.33008 1.4003906 A 109.44 109.44 0 0 1 226.00977 14.599609 A 1.12 1.12 0 0 0 227.39062 15.380859 A 1.16 1.16 0 0 0 228.17969 14 A 109.84 109.84 0 0 0 225.46094 0.80078125 A 1.13 1.13 0 0 0 224.2832 0.0703125 z " />
  <path
     id="path12"
     class="cls-1"
     d="M 234.41992 22.755859 A 3.41 3.41 0 0 0 233.68945 22.890625 C 232.05945 23.520625 231.42008 25.610078 230.83008 27.080078 A 30 30 0 0 0 230.79492 27.175781 L 230.53906 24.699219 A 1.18 1.18 0 0 0 229.46094 23.550781 A 1.12 1.12 0 0 0 228.33984 24.679688 L 228.38086 24.679688 L 229.20508 32.644531 A 30 30 0 0 0 229.18945 32.710938 L 229.21094 32.714844 L 229.24023 32.990234 C 229.36023 34.150234 231.23922 34.639063 231.44922 33.289062 A 26.78 26.78 0 0 1 233.96094 25.75 C 234.15094 25.39 234.36008 24.919453 234.83008 24.939453 A 1.33 1.33 0 0 1 235.71094 25.480469 C 236.32777 26.247344 236.12407 27.422791 235.90039 28.388672 C 235.82583 28.58237 235.75206 28.777702 235.67969 28.970703 L 235.76953 28.996094 A 1.13 1.13 0 0 0 237.93945 29.550781 A 9.44 9.44 0 0 1 239.93945 25.890625 A 2.58 2.58 0 0 1 242.80078 25.339844 C 243.95078 25.949844 243.51023 28.020078 243.49023 29.080078 L 243.39062 34.550781 A 1.15 1.15 0 0 0 244.50977 35.679688 A 1.78 1.78 0 0 0 246.33984 33.419922 C 246.23613 32.976791 245.94965 32.733715 245.61719 32.650391 C 245.64474 30.953112 245.69886 29.254804 245.7207 27.550781 C 245.7207 25.630781 245.24906 23.819141 243.28906 23.119141 A 4.86 4.86 0 0 0 238.67969 23.970703 C 238.36199 24.225265 238.07911 24.507406 237.82227 24.810547 C 237.74871 24.657467 237.66746 24.50557 237.57031 24.359375 A 3.41 3.41 0 0 0 234.41992 22.755859 z " />
  <path
     id="path14"
     class="cls-1"
     d="M 318.88477 9.2871094 A 1.13 1.13 0 0 0 317.75977 10.310547 A 70.38 70.38 0 0 0 317.79297 20.001953 C 317.58792 22.670241 317.11516 25.296434 316.17383 27.751953 A 3.59 3.59 0 0 0 313.5293 25.689453 A 4.79 4.79 0 0 0 309.08984 27.070312 A 12.46 12.46 0 0 0 306.31055 31.890625 C 305.98138 32.816747 305.80404 33.842598 305.95703 34.789062 A 2.31 2.31 0 0 1 304.34961 35.130859 A 3.11 3.11 0 0 1 301.98047 33 C 300.93047 30.31 302.36078 27.479844 303.55078 25.089844 A 1.14 1.14 0 0 0 302.2793 23.439453 L 296.14062 24.689453 C 294.41062 25.039453 292.13961 25.110314 290.59961 26.070312 C 289.05961 27.030312 288.71086 29.130391 288.13086 30.650391 L 287.6875 31.818359 C 287.36863 31.049378 286.87287 30.356161 286.11914 29.800781 C 283.99914 28.230781 281.88936 29.020156 280.35938 30.910156 C 279.89636 31.48635 279.43697 32.064107 278.97461 32.640625 A 43.79 43.79 0 0 0 277.30078 28.820312 A 1.13 1.13 0 0 0 275.21094 29.390625 A 6.28 6.28 0 0 1 270.26953 36.390625 C 266.72953 37.000625 263.80922 34.599297 262.94922 31.279297 A 22.26 22.26 0 0 1 263.14062 21.279297 C 263.81063 18.279297 265.25063 15.080859 268.14062 13.630859 C 270.70063 12.340859 274.44064 12.410547 276.14062 15.060547 C 276.91062 16.280547 278.85008 15.149922 278.08008 13.919922 L 278.08984 13.820312 C 276.64234 11.570312 274.16016 10.500391 271.61719 10.486328 C 270.76953 10.481641 269.91484 10.595312 269.08984 10.820312 C 265.08984 11.880313 262.63094 15.309609 261.46094 19.099609 A 24.35 24.35 0 0 0 260.91992 32.019531 A 8.72 8.72 0 0 0 269.7793 38.660156 A 8.47 8.47 0 0 0 276.94922 33.4375 A 41 41 0 0 1 277.40039 34.607422 C 276.29302 35.991283 275.18372 37.37404 274.08008 38.759766 C 273.08008 40.039766 272.01977 41.309844 271.00977 42.589844 A 11.19 11.19 0 0 0 268.83008 46.169922 C 268.07008 48.659922 269.44938 51.309219 270.60938 53.449219 A 11.06 11.06 0 0 0 275.28906 58.449219 C 277.50906 59.449219 280.07922 59.310938 280.94922 56.710938 A 27.64 27.64 0 0 0 281.86914 48.410156 A 43.79 43.79 0 0 0 279.875 35.232422 L 281.16992 33.619141 C 281.72992 32.909141 282.58031 31.340391 283.57031 31.150391 C 284.72031 30.940391 285.64992 32.150391 285.91992 33.150391 A 10 10 0 0 1 286.04297 36.140625 L 285.84961 36.650391 L 285.97266 36.666016 A 10 10 0 0 1 285.91992 36.960938 C 285.76992 38.310937 287.72086 38.359766 288.13086 37.259766 L 290.06055 32.179688 L 291.06055 29.640625 C 291.43055 28.640625 291.65094 28.010703 292.71094 27.720703 C 295.30449 27.008443 298.01003 26.551637 300.6875 26.0625 C 299.39869 29.105753 298.62639 32.518853 300.78906 35.359375 C 302.26262 37.260258 305.1002 37.92309 307.08594 36.847656 C 310.01016 39.390038 313.93001 35.685004 315.61914 33.439453 A 22.54 22.54 0 0 0 318.68164 27.263672 C 319.15109 29.702861 319.88559 32.098106 321.31055 34.130859 A 8.78 8.78 0 0 0 328.75977 38.130859 A 6.55 6.55 0 0 0 335.08008 33.980469 C 335.57008 32.610469 333.40016 31.980859 332.91016 33.380859 C 332.12016 35.550859 329.48969 36.169297 327.42969 35.779297 C 324.73969 35.289297 322.98023 33.040859 321.99023 30.630859 A 32.36 32.36 0 0 1 320.13086 21.330078 A 70.87 70.87 0 0 1 320.01367 19.453125 A 64 64 0 0 0 320.00977 10.310547 A 1.13 1.13 0 0 0 318.88477 9.2871094 z M 312.5625 27.847656 C 313.38647 27.812302 314.15406 28.170156 314.28906 29.160156 C 314.36731 29.719617 314.7485 29.96208 315.16992 29.970703 C 315.0384 30.215793 314.9034 30.459035 314.75977 30.699219 A 12.48 12.48 0 0 1 311.46094 34.550781 C 310.55398 35.182724 309.40639 35.479231 308.73047 35.115234 C 308.74854 35.078429 308.77181 35.047534 308.78906 35.009766 C 309.10545 34.335491 308.73479 33.705 308.2207 33.433594 C 308.23393 33.362412 308.24146 33.29661 308.25977 33.220703 A 9.74 9.74 0 0 1 310.81055 28.529297 C 311.24805 28.139922 311.92163 27.875154 312.5625 27.847656 z M 278.2168 37.298828 A 41 41 0 0 1 279.44922 43.160156 A 42 42 0 0 1 279.69922 50.160156 C 279.64922 51.160156 279.56945 52.160156 279.43945 53.160156 C 279.30945 54.160156 279.32984 55.940314 278.58984 56.570312 C 277.21984 57.750313 274.67016 55.220234 273.91016 54.240234 A 17.91 17.91 0 0 1 271.2793 49.160156 C 270.4093 46.630156 272.16039 44.86 273.65039 43 L 278.2168 37.298828 z " />
  <path
     id="path16"
     class="cls-1"
     d="M 305.06055 18.386719 A 2.13 2.13 0 0 0 304.58984 18.439453 A 1.65 1.65 0 0 0 304.16992 18.599609 A 1.55 1.55 0 0 0 303.80078 18.859375 A 1.12 1.12 0 0 0 303.51953 19.220703 A 0.89 0.89 0 0 0 303.43945 19.390625 C 303.43945 19.390625 303.43914 19.500547 303.36914 19.560547 A 2 2 0 0 0 303.32031 19.910156 A 0.91 0.91 0 0 0 303.41992 20.339844 A 1 1 0 0 0 304.00977 20.929688 A 0.84 0.84 0 0 0 304.44922 21.029297 L 304.75 21.029297 A 1.07 1.07 0 0 0 305.09766 20.859375 A 0.82 0.82 0 0 0 305.11914 20.869141 A 1 1 0 0 0 305.56055 20.970703 L 305.85938 20.970703 A 1.07 1.07 0 0 0 306.34961 20.679688 A 1.06 1.06 0 0 0 306.67969 19.880859 A 2.35 2.35 0 0 0 306.63086 19.509766 C 306.63086 19.509766 306.55 19.299219 306.5 19.199219 A 0.21 0.21 0 0 0 306.5 19.140625 A 2.48 2.48 0 0 0 306.31055 18.880859 A 1.69 1.69 0 0 0 305.5293 18.439453 A 2.13 2.13 0 0 0 305.06055 18.386719 z M 304.42969 19.839844 A 1 1 0 0 0 304.47461 20.138672 L 304.42969 20.029297 L 304.42969 19.839844 z " />
  <path
     id="path20"
     class="cls-1"
     d="M 343.98438 34.646484 C 343.73447 34.652844 343.48867 34.686328 343.2793 34.720703 A 3.95 3.95 0 0 0 342.89648 34.8125 A 1.16 1.16 0 0 0 342.74023 34.75 A 1.2 1.2 0 0 0 341.86914 34.859375 A 1.16 1.16 0 0 0 341.33984 35.671875 A 1.16 1.16 0 0 0 341.33984 35.673828 A 3.95 3.95 0 0 0 340.17969 37.529297 A 1.13 1.13 0 0 0 341.26953 38.949219 A 2.55 2.55 0 0 0 341.77539 38.869141 A 2 2 0 0 0 342.69922 39.470703 A 2.5 2.5 0 0 0 345.26953 38.060547 A 3 3 0 0 0 345.35938 35.240234 C 345.105 34.745234 344.53416 34.632493 343.98438 34.646484 z M 341.43945 36.324219 A 1.16 1.16 0 0 0 341.45508 36.363281 A 1.15 1.15 0 0 1 341.45508 36.365234 A 1.15 1.15 0 0 1 341.45312 36.429688 L 341.43945 36.394531 L 341.43945 36.392578 L 341.44922 36.369141 A 2.12 2.12 0 0 1 341.43945 36.388672 L 341.43945 36.324219 z M 344.03906 36.894531 A 2.66 2.66 0 0 1 344.2793 36.910156 L 344.06055 36.910156 L 344.03906 36.894531 z M 343.5 37.519531 L 343.5 37.617188 A 1.13 1.13 0 0 1 343.49219 37.630859 A 0.74 0.74 0 0 0 343.49414 37.662109 L 343.5 37.650391 L 343.5 37.730469 A 0.74 0.74 0 0 1 343.49414 37.662109 L 343.39062 37.919922 A 0.31 0.31 0 0 1 343.39062 37.820312 A 1.13 1.13 0 0 0 343.49219 37.630859 A 0.74 0.74 0 0 1 343.5 37.519531 z " />
  <path
     id="path22"
     class="cls-1"
     d="M 171.07812 137.93945 C 167.33516 137.95765 163.19609 139.05742 162.08984 142.16992 C 160.10984 147.74992 170.6607 147.12094 175.9707 146.46094 C 181.2807 145.80094 184.67922 140.94086 178.44922 138.63086 C 175.95922 137.71086 174.44031 138.03922 171.82031 137.94922 C 171.57531 137.94109 171.32766 137.93824 171.07812 137.93945 z " />
  <path
     id="path24"
     class="cls-1"
     d="M 284.35938 135.99219 C 281.08576 135.94213 278.12469 136.28648 277.07031 137.24023 C 273.77031 140.22023 279.55016 143.64078 281.66016 144.30078 C 285.50016 145.49078 289.56922 146.09078 293.19922 144.30078 C 297.03922 142.40078 298.45039 139.31945 295.15039 137.68945 C 293.29414 136.77258 288.5683 136.05655 284.35938 135.99219 z " />
  <path
     id="path26"
     class="cls-1"
     d="M 174.32617 157.70898 C 172.96467 157.70305 172.46758 159.84102 173.93945 160.15039 L 173.94922 160.15039 A 189.13 189.13 0 0 0 183.47266 162.0957 L 186.90039 172.4707 A 1.26 1.26 0 0 0 189.31055 172.4707 L 190.43945 169.5918 L 191.0293 171.35938 C 191.4193 172.51937 191.74055 174.41945 193.31055 174.43945 C 194.88055 174.45945 195.11047 172.63977 195.48047 171.50977 L 196.19336 169.33203 L 197.16992 171.15039 A 1.26 1.26 0 0 0 199.44922 170.84961 A 14.56 14.56 0 0 1 200.33008 168.52148 C 201.45996 170.56455 202.52641 172.63353 203.5293 174.73047 A 1.26 1.26 0 0 0 205.85938 174.09961 A 37.64 37.64 0 0 1 206.33594 164.11133 C 209.92481 163.97336 213.51332 163.69931 217.13086 163.5 C 230.31494 162.71588 243.51439 163.41893 256.70898 163.42188 A 79.67 79.67 0 0 0 257.41016 171.89062 C 257.58016 173.10063 259.13922 172.88945 259.69922 172.18945 L 262.39062 168.65625 A 23.51 23.51 0 0 1 263.41016 171.35938 A 1.26 1.26 0 0 0 265.68945 171.65039 C 266.37598 170.74108 267.09084 169.84269 267.83008 168.95508 A 27.79 27.79 0 0 1 270.5 174.85938 C 270.85 175.94938 272.67016 176.13937 272.91016 174.85938 L 275.21875 162.63086 A 167.17 167.17 0 0 0 284.60938 161.57031 C 286.18938 161.32031 285.51945 158.92016 283.93945 159.16016 C 275.47642 160.49769 266.93509 160.87431 258.38281 160.91797 A 1.25 1.25 0 0 0 257.2793 160.92969 C 251.94025 160.93936 246.59734 160.82635 241.26953 160.74023 C 234.19953 160.62023 227.12078 160.53961 220.05078 160.84961 C 212.82078 161.16961 205.61914 162.08086 198.36914 161.63086 C 190.36914 161.13086 182.45937 159.43023 174.60938 157.74023 C 174.51125 157.71961 174.41694 157.70938 174.32617 157.70898 z M 186.26758 162.57031 A 189.13 189.13 0 0 0 195.46094 163.90039 C 198.25421 164.16934 201.0278 164.22961 203.79688 164.18164 A 39.81 39.81 0 0 0 203.28906 168.72656 C 202.67877 167.58455 202.05493 166.45069 201.41016 165.33008 A 1.26 1.26 0 0 0 199.25 165.33008 A 16.36 16.36 0 0 0 198.05273 167.5 L 197 165.55078 A 1.26 1.26 0 0 0 194.7207 165.84961 L 193.65039 169.11914 L 193.29102 170.20898 L 192.92969 169.13086 L 191.75 165.60938 A 1.26 1.26 0 0 0 189.33984 165.60938 L 188.21875 168.47266 L 186.26758 162.57031 z M 272.62695 162.92383 L 271.2793 170.06836 A 30 30 0 0 0 269.03906 166.19922 A 1.27 1.27 0 0 0 267.03906 165.94922 C 266.31571 166.77208 265.61715 167.61318 264.93555 168.4668 A 26 26 0 0 0 263.61914 165.68945 A 1.26 1.26 0 0 0 261.4707 165.68945 L 259.42383 168.37695 A 72.57 72.57 0 0 1 259.13086 163.41406 C 259.60032 163.41078 260.06962 163.41567 260.53906 163.41016 A 167.17 167.17 0 0 0 272.62695 162.92383 z " />
  <path
     id="path32"
     class="cls-1"
     d="M 338.1543 86.277344 A 1.25 1.25 0 0 0 337.61523 87.210938 L 337.58984 87.210938 C 337.5906 87.227089 337.58725 87.2417 337.58789 87.257812 A 1.25 1.25 0 0 0 337.5293 87.359375 C 337.52565 87.486754 337.56375 87.607676 337.56445 87.734375 C 337.46174 91.092456 334.93647 93.604987 332.7793 95.990234 C 331.39951 97.515899 330.12498 99.055562 329.16211 100.74609 A 19.85 19.85 0 0 0 324.46094 92.490234 A 1.26 1.26 0 0 0 322.35938 93.75 A 31.67 31.67 0 0 1 323.10547 109.33203 C 322.92004 108.37105 322.75794 107.36063 322.64062 107 C 322.04062 105.18 321.16055 103.23016 319.31055 102.41016 C 318.26055 101.95016 316.85961 102.95914 317.59961 104.11914 C 319.49961 107.11914 318.33008 110.66078 316.33008 113.30078 A 12.82 12.82 0 0 1 306.59961 118.46094 C 301.92961 118.74094 297.36094 117.29039 292.96094 115.90039 C 288.56094 114.51039 283.96086 113.18086 279.38086 112.13086 A 152.67 152.67 0 0 0 224.90039 109.75 C 217.81039 110.75 205.9907 114.59914 200.7207 107.61914 A 1.28 1.28 0 0 0 198.7207 107.35938 C 194.8907 111.86937 188.22008 113.00992 182.83008 114.66992 L 162.48047 120.98047 C 159.19047 121.98047 155.91008 123.10047 152.58008 123.98047 C 149.42008 124.85047 145.92984 125.50047 142.83984 123.98047 A 10.7 10.7 0 0 1 137.34961 111.44922 C 137.74961 110.17922 136.14977 109.45023 135.25977 110.24023 L 132.04297 113.00391 A 47.87 47.87 0 0 0 134.5332 99.609375 A 19.94 19.94 0 0 0 134.58984 99.5 L 134.54688 99.494141 A 47.87 47.87 0 0 0 134.58984 99.119141 A 1.25 1.25 0 0 0 132.14062 98.789062 A 17.17 17.17 0 0 1 126.0293 107.06445 L 112.40039 89.75 C 111.53039 88.64 110.15055 89.910703 110.31055 90.970703 A 97.55 97.55 0 0 0 114.95508 108.94922 L 109.61133 104.67773 A 30.18 30.18 0 0 0 109.58008 104.64062 L 109.56055 104.66016 A 1.25 1.25 0 0 0 107.82031 106.39062 L 107.81055 106.40039 L 107.82031 106.4082 A 1.25 1.25 0 0 0 107.82031 106.41992 A 27.75 27.75 0 0 1 114.92383 125.23633 A 21.46 21.46 0 0 1 107.60938 118.16992 C 106.99935 117.16992 105.1793 117.51078 105.2793 118.80078 A 23.78 23.78 0 0 0 105.42188 119.39844 L 105.38086 119.41016 A 23.87 23.87 0 0 0 105.44141 119.48438 A 23.78 23.78 0 0 0 111.10938 132.80078 A 21.34 21.34 0 0 0 114.10938 135.59961 C 114.76936 136.12961 115.61008 136.54016 115.83008 137.16016 C 116.20008 138.21016 115.32086 140.2893 114.88086 141.2793 A 15.44 15.44 0 0 1 112.33008 145.17969 C 108.33008 149.74969 102.82016 152.90922 97.660156 155.94922 A 154.28 154.28 0 0 1 79.970703 164.89062 C 73.780703 167.53062 67.38 169.66094 61.25 172.46094 A 79.09 79.09 0 0 0 45.839844 181.81055 A 111.82 111.82 0 0 0 21.929688 207.94922 C 13.379687 220.55922 6.7902344 234.35055 0.24023438 248.06055 A 1.28 1.28 0 0 0 0.68945312 249.76953 C 3.9394531 251.76953 7.2894534 253.68945 10.689453 255.43945 A 67.59 67.59 0 0 0 18.689453 259.00977 C 22.029453 260.22977 25.539219 261.00977 28.949219 262.00977 A 197.42 197.42 0 0 1 52.519531 270.57031 A 153.19 153.19 0 0 1 73.970703 282.57031 C 80.770703 287.02031 87.880703 290.56922 95.970703 291.94922 A 63.31 63.31 0 0 0 99.777344 292.21289 A 1.25 1.25 0 0 0 99.560547 292.88086 L 99.640625 292.88086 L 99.570312 324.44922 C 99.570312 334.44922 99.680313 344.58922 96.570312 354.19922 C 96.080315 355.73922 98.490469 356.38914 98.980469 354.86914 C 101.38047 347.41914 101.90047 339.55906 101.98047 331.78906 C 102.09047 323.58906 102.04055 315.37969 102.06055 307.17969 L 102.06055 292.88086 A 1.25 1.25 0 0 0 101.89062 292.35742 A 63.31 63.31 0 0 0 118.26953 291.50977 C 133.79953 288.66977 148.27039 281.90977 163.65039 278.50977 A 59.83 59.83 0 0 1 173.58984 276.75 A 19.54 19.54 0 0 1 183.40039 279.41992 C 189.58039 282.65992 195.1693 287.23953 202.2793 288.26953 C 203.5293 288.44953 204.6693 286.61023 203.2793 285.99023 A 28.84 28.84 0 0 1 189.89844 273.76367 A 31.93 31.93 0 0 0 203.53906 277.82031 C 205.05906 277.89031 205.07914 275.81934 203.86914 275.35938 A 44.51 44.51 0 0 1 192.5293 268.31836 A 95.73 95.73 0 0 0 214.05078 265.5 A 1.27 1.27 0 0 0 214.34961 263.21094 A 61.55 61.55 0 0 0 208.75586 261.42773 L 233.69336 229.66211 A 1.250125 1.250125 0 0 0 233.48242 227.90625 L 183.18164 188.41602 A 1.250125 1.250125 0 0 0 181.42773 188.62891 L 158.77734 217.47461 L 171.50391 182.53711 A 1.250125 1.250125 0 0 0 170.75781 180.93555 L 110.66797 159.04492 A 1.250125 1.250125 0 0 0 109.06641 159.79297 L 88.994141 214.88672 A 148.56 148.56 0 0 0 79.929688 213.33984 C 74.339686 212.57984 68.390469 211.42078 62.730469 211.80078 C 58.180469 212.11078 53.779531 213.80078 51.269531 217.80078 C 50.399531 219.16078 52.569687 220.41055 53.429688 219.06055 C 56.199686 214.67055 61.639687 214.06078 66.429688 214.30078 C 71.339686 214.59078 76.270625 215.30047 81.140625 215.98047 A 143.26 143.26 0 0 1 108.80078 222.36914 A 98.33 98.33 0 0 1 133.05078 235.5 C 140.28078 240.63 147.38961 246.09961 155.59961 249.59961 C 159.95961 251.45961 164.68922 253.03 169.19922 250.75 C 172.65906 249.00406 175.8257 244.87491 179.73828 244 A 9.85 9.85 0 0 0 177.39062 253.66992 A 1.26 1.26 0 0 0 179.48047 254.2207 C 186.78997 247.03434 198.77952 245.87228 207.49023 250.98828 A 27.62 27.62 0 0 0 186.08984 258.33984 A 1.27 1.27 0 0 0 186.9707 260.48047 A 58.63 58.63 0 0 1 208.62891 264.08398 A 93.23 93.23 0 0 1 189.16992 266.07031 A 1.26 1.26 0 0 0 188.28906 268.19922 A 48 48 0 0 0 195.4375 273.74414 A 29.62 29.62 0 0 1 187.36914 269.66016 A 1.26 1.26 0 0 0 185.53906 271.07031 A 31.27 31.27 0 0 0 193.57031 282.39844 C 186.24656 278.46632 179.55698 272.99532 170.59961 274.66016 A 177.2 177.2 0 0 0 148.83008 279.99023 C 141.41008 282.35023 134.07055 284.99023 126.56055 286.99023 C 119.05055 288.99023 111.24064 290.48094 103.39062 290.21094 A 49.91 49.91 0 0 1 79.650391 283.21094 C 72.650391 279.09094 66.140078 274.40078 58.830078 270.80078 A 173.27 173.27 0 0 0 36.830078 261.86914 C 29.200078 259.32914 21.199219 257.76023 13.949219 254.24023 A 129.89 129.89 0 0 1 2.9609375 248.14062 C 13.861727 225.21307 25.476821 201.47676 45.640625 185.07031 A 77.86 77.86 0 0 1 61.009766 175.28906 C 67.209766 172.28906 73.759844 170.16977 80.089844 167.50977 A 158.43 158.43 0 0 0 97.839844 158.68945 C 103.00984 155.68945 108.4507 152.57008 112.7207 148.33008 A 19.35 19.35 0 0 0 117.48047 141.2793 C 118.08047 139.6293 118.94984 136.59961 117.58984 135.09961 C 116.58984 133.98961 114.99065 133.26969 113.89062 132.17969 A 20.49 20.49 0 0 1 110.75977 128.25 A 20.8 20.8 0 0 1 108.58984 123.33789 A 23.87 23.87 0 0 0 115.38086 128.57031 A 1.27 1.27 0 0 0 117.25977 127.49023 A 30.18 30.18 0 0 0 114.28125 111.58008 L 116.67969 113.5 C 117.51969 114.17 119.29953 113.5793 118.76953 112.2793 A 97.49 97.49 0 0 1 113.88867 95.585938 L 125.07031 109.83008 A 1.25 1.25 0 0 0 126.58984 110.01953 A 19.94 19.94 0 0 0 131.40625 105.51758 A 44.51 44.51 0 0 1 128.43945 116.26953 A 1.26 1.26 0 0 0 130.43945 117.78906 L 134.73828 114.08984 A 13.12 13.12 0 0 0 139.36914 124.67969 C 145.07914 129.36969 152.15945 126.78961 158.43945 124.84961 L 182.38086 117.43945 C 188.10098 115.66069 195.19587 114.37489 199.66016 110.00586 C 204.46422 114.88419 212.05696 114.28203 218.41992 113.26953 A 167.74 167.74 0 0 1 249.90039 110.89062 A 149.9 149.9 0 0 1 281.39062 115.19922 C 286.47064 116.44922 291.39062 118.20031 296.39062 119.57031 C 300.98064 120.84031 306.1093 121.74906 310.7793 120.28906 C 315.23302 118.93122 319.65128 114.49529 320.74219 109.67969 C 320.7799 109.84201 320.84311 110.03765 320.88086 110.18945 C 321.19086 111.43945 321.42 113.52945 322.75 114.18945 A 1.28 1.28 0 0 0 324.58984 113.43945 A 34.06 34.06 0 0 0 325.98438 98.966797 A 17.15 17.15 0 0 1 327.65039 104.74023 C 327.78039 106.02023 329.79961 106.57031 330.09961 105.07031 C 331.07834 100.11235 335.87757 97.069781 338.42578 92.96875 C 338.99392 95.133688 339.58643 97.294827 339.42969 99.570312 C 339.11969 104.04031 336.54969 107.99016 334.17969 111.66016 C 333.46969 112.76016 334.84062 113.91914 335.89062 113.36914 A 36.43 36.43 0 0 0 344.68945 106.56641 A 22.77 22.77 0 0 1 339.2793 117.10938 C 336.6793 119.75937 332.4593 122.28008 333.0293 126.58008 C 333.6793 131.46008 338.35977 135.37047 341.75977 138.48047 A 31.52 31.52 0 0 0 346.07031 141.59961 C 359.22031 150.04961 372.98086 157.78945 385.13086 167.68945 C 394.38086 175.23945 403.29914 183.22023 412.36914 190.99023 C 416.64914 194.66023 421.59945 198.26062 421.93945 204.39062 C 422.24945 210.05063 419.57961 215.54945 416.59961 220.18945 C 413.61961 224.82945 409.88969 229.35031 406.42969 233.82031 C 402.60302 238.77365 398.76039 243.72016 394.90039 248.66016 C 387.36039 258.32016 379.76 267.92016 372 277.41016 C 367.68667 282.68349 363.32659 287.90984 358.91992 293.08984 C 355.14992 297.50984 350.76078 301.86094 348.30078 307.21094 C 345.72078 312.79094 346.50935 318.42094 347.85938 324.21094 C 348.95781 328.89816 350.2797 334.4848 348.33398 339.07812 A 149.25 149.25 0 0 0 342.66602 316.56445 A 40.77 40.77 0 0 0 342.68945 316.38086 L 342.61523 316.39062 A 149.25 149.25 0 0 0 342.55078 316.16992 A 1.25 1.25 0 0 0 340.09961 316.5 A 38 38 0 0 1 337.91797 328.39844 A 61 61 0 0 0 335.60938 315.58984 A 1.27 1.27 0 0 0 333.32031 315.28906 A 60 60 0 0 0 324.82227 338.25 A 23.45 23.45 0 0 1 328.94922 314.75 A 1.26 1.26 0 0 0 327.73047 312.66016 A 25.55 25.55 0 0 0 309.76758 327.23633 C 310.55266 318.16682 317.38176 309.80352 326.5293 308.03906 C 327.8893 307.77906 327.59922 305.42984 326.19922 305.58984 L 314.96875 306.83203 C 317.04812 305.25658 319.70036 304.45778 322.19922 303.68945 C 325.50922 302.68945 328.98039 301.64008 331.65039 299.33008 C 338.84039 293.12008 336.73945 282.72078 335.43945 274.55078 C 332.23945 254.42078 334.1107 232.84922 344.9707 215.19922 A 59.67 59.67 0 0 1 366.53906 194.19922 A 1.2503286 1.2503286 0 0 0 365.2793 192.03906 L 365.30078 192 C 349.43078 200.86 338.72078 216.90055 334.30078 234.31055 A 95.64 95.64 0 0 0 331.91016 265.58008 C 332.34016 271.05008 333.46937 276.39984 334.10938 281.83984 C 334.64936 286.46984 334.54906 291.53953 331.78906 295.51953 C 326.78906 302.69953 315.55922 300.26055 310.69922 307.81055 A 1.25 1.25 0 0 0 311.7793 309.68945 L 317.95508 309.00586 C 309.9874 314.36221 305.39912 324.62878 307.76953 334.17969 C 308.04953 335.30969 309.98969 335.43969 310.17969 334.17969 A 23.15 23.15 0 0 1 324.92383 316.56445 A 26 26 0 0 0 323.92578 342.43164 A 60 60 0 0 0 323.90039 342.55078 L 323.96484 342.5332 A 26 26 0 0 0 324.19922 343.14062 A 1.26 1.26 0 0 0 326.5293 342.50977 A 57.37 57.37 0 0 1 334.17188 319.43359 A 58.35 58.35 0 0 1 335.63086 334.75 A 1.26 1.26 0 0 0 337.96094 335.38086 A 40.77 40.77 0 0 0 341.93359 322.50586 A 150.48 150.48 0 0 1 346.63086 342.71094 A 1.26 1.26 0 0 0 348.7207 343.25977 C 356.0007 334.32977 348.39935 323.6193 349.10938 313.7793 C 349.52936 307.9393 353.46938 303.22094 357.10938 298.96094 C 361.16271 294.24094 365.18016 289.49094 369.16016 284.71094 C 384.77016 265.88094 399.89969 246.59914 414.67969 227.11914 C 420.33969 219.66914 427.68031 208.80078 423.32031 199.05078 C 421.21031 194.27078 416.46914 191.05047 412.61914 187.73047 L 398.08984 175.2793 A 270.23 270.23 0 0 0 375.51953 157.33984 C 368.61953 152.59984 361.51945 148.15047 354.43945 143.73047 C 348.74945 140.18047 343.31063 137.07047 338.89062 131.98047 C 336.70063 129.47047 334.26922 126.03047 336.69922 122.98047 C 338.36922 120.87047 340.69945 119.3693 342.43945 117.2793 A 25.53 25.53 0 0 0 348.2207 102.2793 C 348.3007 100.9093 346.57063 100.77039 345.89062 101.65039 A 33.58 33.58 0 0 1 339.16797 108.06836 C 340.43461 105.72229 341.50698 103.29065 341.86914 100.63086 C 342.50914 95.950856 339.95984 91.820937 340.08984 87.210938 L 339.94336 87.210938 A 1.25 1.25 0 0 0 338.1543 86.277344 z M 110.98633 161.82227 L 168.72852 182.85742 L 153.81445 223.79297 L 153.57617 224.09766 L 153.67578 224.17578 L 147.09961 242.22656 C 142.51656 239.32488 138.12886 236.07469 133.73047 232.94922 A 99.45 99.45 0 0 0 127.45508 229.03711 A 3.1600001 3.1600001 0 0 0 128.67969 229.28906 A 3.1600001 3.1600001 0 0 0 131.83984 226.13086 A 3.1600001 3.1600001 0 0 0 128.67969 222.9707 A 3.1600001 3.1600001 0 0 0 125.51953 226.13086 A 3.1600001 3.1600001 0 0 0 126.59375 228.5 A 99.45 99.45 0 0 0 115.99805 222.93945 A 3.1600001 3.1600001 0 0 0 116.94922 220.68945 A 3.1600001 3.1600001 0 0 0 113.78906 217.5293 A 3.1600001 3.1600001 0 0 0 110.63867 220.58008 A 99.45 99.45 0 0 0 108.73047 219.74023 A 148.56 148.56 0 0 0 101.00195 217.61523 A 3.1600001 3.1600001 0 0 0 102.06055 215.25977 A 3.1600001 3.1600001 0 0 0 98.900391 212.09961 A 3.1600001 3.1600001 0 0 0 95.740234 215.25977 A 3.1600001 3.1600001 0 0 0 95.888672 216.20898 A 148.56 148.56 0 0 0 91.5 215.31445 L 110.98633 161.82227 z M 182.62109 191.1543 L 230.95508 229.10156 L 212.90039 252.09961 C 212.83855 251.94879 212.81583 251.78952 212.66992 251.66016 C 207.014 246.60877 199.28554 244.61936 191.97266 245.62891 A 3.16 3.16 0 1 0 186.07422 247.23828 C 183.89998 248.08152 181.80305 249.13623 179.92773 250.57422 A 7.4 7.4 0 0 1 183.75977 243.90039 A 1.26 1.26 0 0 0 183.46094 241.61914 C 179.08094 240.47914 175.39066 243.02992 172.14062 245.66992 A 16.87 16.87 0 0 1 169.08008 247.58008 A 3.1600001 3.1600001 0 0 0 165.94922 244.84961 A 3.1600001 3.1600001 0 0 0 162.78906 248.00977 A 3.1600001 3.1600001 0 0 0 163.10156 249.37109 C 161.35284 249.15241 159.61862 248.5694 158.01953 247.94922 C 154.95986 246.76372 152.08877 245.21263 149.2793 243.54688 L 150.70508 239.63086 A 3.1600001 3.1600001 0 0 0 153.50977 241.34961 A 3.1600001 3.1600001 0 0 0 156.66992 238.18945 A 3.1600001 3.1600001 0 0 0 153.50977 235.0293 A 3.1600001 3.1600001 0 0 0 152.29102 235.28125 L 156.02539 225.0293 L 182.62109 191.1543 z M 204.1582 253.12305 A 25.06 25.06 0 0 1 211.46094 253.75 C 211.51634 253.76397 211.56256 253.72853 211.61719 253.73438 L 206.21289 260.61719 A 61.55 61.55 0 0 0 190.56055 258.16016 A 25.06 25.06 0 0 1 198.41211 254.33594 A 3.1600001 3.1600001 0 0 0 198.16016 255.56055 A 3.1600001 3.1600001 0 0 0 201.32031 258.7207 A 3.1600001 3.1600001 0 0 0 204.48047 255.56055 A 3.1600001 3.1600001 0 0 0 203.49023 253.26367 A 25.06 25.06 0 0 1 204.1582 253.12305 z " />
  <path
     id="path36"
     class="cls-1"
     d="M 232.31055 301.29297 C 232.0435 301.30812 231.76992 301.43016 231.5293 301.69922 A 71.4 71.4 0 0 1 227.47852 305.7168 L 223.89062 301.94922 C 222.78062 300.77922 221.02086 302.5507 222.13086 303.7207 L 222.13086 303.75 L 225.59375 307.38477 A 71.4 71.4 0 0 1 221.09961 310.91992 A 1.3 1.3 0 0 0 220.65039 312.63086 A 1.26 1.26 0 0 0 222.35938 313.08008 A 74.06 74.06 0 0 0 227.3125 309.1875 L 228.58984 310.5293 L 230.2207 312.25 A 3.91 3.91 0 0 0 232.01953 313.61914 A 1.53 1.53 0 0 0 233.91016 312.15039 A 1.45 1.45 0 0 0 232.16016 310.66602 L 231.91992 310.41016 L 230.75 309.17969 L 229.19531 307.5293 A 74.06 74.06 0 0 0 233.30078 303.4707 C 234.15234 302.55664 233.26429 301.23886 232.31055 301.29297 z " />
  <circle
     class="cls-1"
     cx="183.61"
     cy="201.17"
     r="3.16"
     id="circle42" />
  <circle
     class="cls-1"
     cx="173.8"
     cy="213.63"
     r="3.16"
     id="circle44" />
  <circle
     class="cls-1"
     cx="164"
     cy="226.1"
     r="3.16"
     id="circle46" />
  <circle
     class="cls-1"
     cx="196.05"
     cy="210.99"
     r="3.16"
     id="circle48" />
  <circle
     class="cls-1"
     cx="186.25"
     cy="223.46"
     r="3.16"
     id="circle50" />
  <circle
     class="cls-1"
     cx="176.44"
     cy="235.92"
     r="3.16"
     id="circle52" />
  <circle
     class="cls-1"
     cx="208.49"
     cy="220.81"
     r="3.16"
     id="circle58" />
  <circle
     class="cls-1"
     cx="198.69"
     cy="233.28"
     r="3.16"
     id="circle60" />
  <circle
     class="cls-1"
     cx="220.93"
     cy="230.64"
     r="3.16"
     id="circle64" />
  <circle
     class="cls-1"
     cx="211.13"
     cy="243.1"
     r="3.16"
     id="circle66" />
  <circle
     class="cls-1"
     cx="143.57"
     cy="231.56"
     r="3.16"
     id="circle76" />
  <path
     id="path78"
     class="cls-1"
     d="M 115.17969 167.78125 A 3.16 3.16 0 1 0 118.05078 172.00977 A 3.16 3.16 0 0 0 116.65039 168.21094 L 115.76953 170.60938 L 114.76953 170.24023 L 115.64062 167.83008 A 3.16 3.16 0 0 0 115.17969 167.78125 z " />
  <path
     id="path80"
     class="cls-1"
     d="M 130.19531 173.20508 A 3.16 3.16 0 1 0 131.39062 179.18945 A 3.17 3.17 0 0 0 133.0293 175.50977 L 130.73047 176.63086 L 130.25 175.63086 L 132.55078 174.50977 A 3.16 3.16 0 0 0 130.19531 173.20508 z " />
  <path
     id="path82"
     class="cls-1"
     d="M 144.70312 178.67383 A 3.16 3.16 0 0 0 142.57031 179.63086 A 3.15 3.15 0 0 0 142.25977 183.66016 L 144.05078 181.83008 L 144.83008 182.59961 L 143.03906 184.42969 A 3.16 3.16 0 1 0 144.70312 178.67383 z " />
  <path
     id="path84"
     style="color:#000000;fill:#231f20;-inkscape-stroke:none"
     d="M 159.64258 184.07617 A 3.16 3.16 0 0 0 158.36914 184.38086 L 159.86914 186.46094 L 158.98047 187.09961 L 157.48047 185.01953 A 3.16 3.16 0 1 0 162.28906 185.39062 A 3.16 3.16 0 0 0 159.64258 184.07617 z " />
  <path
     id="line88"
     style="color:#000000;fill:#231f20;stroke-miterlimit:10;-inkscape-stroke:none"
     d="M 110.375 180.16211 L 107.06055 189.25391 L 103.03711 187.78516 L 102.60938 188.96094 L 100.92188 193.58203 L 104.94531 195.05078 L 101.25586 205.16211 L 103.60352 206.01758 L 107.29492 195.9082 L 111.30273 197.37109 L 113.41797 191.57422 L 109.41016 190.11133 L 112.72461 181.01758 L 110.375 180.16211 z M 104.5293 190.99219 L 110.21289 193.06641 L 109.8125 194.16602 L 104.12891 192.08984 L 104.5293 190.99219 z " />
  <path
     id="line92"
     style="color:#000000;fill:#231f20;stroke-miterlimit:10;-inkscape-stroke:none"
     d="M 125.26367 185.5957 L 124.54102 187.5957 L 120.52148 186.125 L 118.41992 191.92578 L 122.42578 193.38867 L 116.14648 210.60156 L 118.49414 211.45898 L 124.77539 194.24805 L 128.78516 195.71289 L 130.9043 189.91406 L 126.88867 188.45117 L 127.61523 186.44531 L 125.26367 185.5957 z M 125.28906 189.19922 L 124.86328 190.375 L 127.69531 191.40625 L 127.29492 192.50586 L 121.61914 190.43359 L 122.01758 189.33398 L 124.86133 190.37305 L 125.28906 189.19922 z " />
  <path
     id="line96"
     style="color:#000000;fill:#231f20;stroke-miterlimit:10;-inkscape-stroke:none"
     d="M 140.15625 191.03125 L 135.22461 204.54492 L 131.21484 203.07617 L 129.09766 208.875 L 133.11523 210.3418 L 131.03516 216.03125 L 133.38477 216.88867 L 135.46289 211.19922 L 139.47461 212.66211 L 141.59375 206.86328 L 137.57422 205.40234 L 142.50391 191.88867 L 140.15625 191.03125 z M 135.93359 206.24805 L 135.54297 207.32422 L 138.38672 208.35742 L 137.98438 209.45703 L 132.30469 207.38477 L 132.70508 206.28516 L 135.53906 207.32422 L 135.93359 206.24805 z " />
  <path
     id="line100"
     style="color:#000000;fill:#231f20;stroke-miterlimit:10;-inkscape-stroke:none"
     d="M 155.05664 196.46094 L 152.58594 203.2168 L 148.57617 201.75781 L 146.45508 207.54492 L 150.4668 209.00977 L 145.92578 221.47266 L 148.27539 222.32812 L 152.81445 209.86523 L 156.83398 211.33203 L 158.95312 205.54492 L 154.93359 204.07617 L 157.4043 197.31836 L 155.05664 196.46094 z M 150.06445 204.96094 L 152.90039 205.99414 L 152.90234 205.99414 L 155.74609 207.03516 L 155.3457 208.12695 L 149.66406 206.05469 L 150.06445 204.96094 z " />
</svg>
