<?xml version="1.0" encoding="UTF-8" standalone="no"?>
<svg
   xmlns:dc="http://purl.org/dc/elements/1.1/"
   xmlns:cc="http://creativecommons.org/ns#"
   xmlns:rdf="http://www.w3.org/1999/02/22-rdf-syntax-ns#"
   xmlns:svg="http://www.w3.org/2000/svg"
   xmlns="http://www.w3.org/2000/svg"
   xmlns:sodipodi="http://sodipodi.sourceforge.net/DTD/sodipodi-0.dtd"
   xmlns:inkscape="http://www.inkscape.org/namespaces/inkscape"
   id="Layer_2"
   data-name="Layer 2"
   viewBox="0 0 424.65 355.73"
   version="1.1"
   sodipodi:docname="hello_im_grid2.svg"
   inkscape:version="1.0.2 (e86c870879, 2021-01-15)">
  <metadata
     id="metadata115">
    <rdf:RDF>
      <cc:Work
         rdf:about="">
        <dc:format>image/svg+xml</dc:format>
        <dc:type
           rdf:resource="http://purl.org/dc/dcmitype/StillImage" />
        <dc:title></dc:title>
      </cc:Work>
    </rdf:RDF>
  </metadata>
  <sodipodi:namedview
     pagecolor="#ffffff"
     bordercolor="#666666"
     borderopacity="1"
     objecttolerance="10"
     gridtolerance="10"
     guidetolerance="10"
     inkscape:pageopacity="0"
     inkscape:pageshadow="2"
     inkscape:window-width="1280"
     inkscape:window-height="975"
     id="namedview113"
     showgrid="false"
     inkscape:zoom="1.2085596"
     inkscape:cx="61.71271"
     inkscape:cy="238.4471"
     inkscape:window-x="1280"
     inkscape:window-y="0"
     inkscape:window-maximized="1"
     inkscape:current-layer="g1119" />
  <defs
     id="defs4">
    <inkscape:path-effect
       effect="mirror_symmetry"
       start_point="332.67245,-8.6290232"
       end_point="332.67245,347.04409"
       center_point="332.67245,169.20754"
       id="path-effect1776"
       is_visible="true"
       lpeversion="1"
       mode="Y"
       discard_orig_path="true"
       fuse_paths="false"
       oposite_fuse="false"
       split_items="false" />
    <inkscape:path-effect
       effect="mirror_symmetry"
       start_point="332.67245,-8.6290232"
       end_point="332.67245,347.04409"
       center_point="332.67245,169.20754"
       id="path-effect1753"
       is_visible="true"
       lpeversion="1"
       mode="Y"
       discard_orig_path="true"
       fuse_paths="false"
       oposite_fuse="false"
       split_items="false" />
    <style
       id="style2">.cls-1{fill:#231f20;}.cls-2,.cls-3{fill:none;stroke:#231f20;stroke-width:2.5px;}.cls-2{stroke-linejoin:round;}.cls-3{stroke-miterlimit:10;}</style>
  </defs>
  <g
     id="g1119"
     transform="translate(-91.970274,-8.6898978)">
    <path
       id="path6"
       style="color:#000000;font-style:normal;font-variant:normal;font-weight:normal;font-stretch:normal;font-size:medium;line-height:normal;font-family:sans-serif;font-variant-ligatures:normal;font-variant-position:normal;font-variant-caps:normal;font-variant-numeric:normal;font-variant-alternates:normal;font-variant-east-asian:normal;font-feature-settings:normal;font-variation-settings:normal;text-indent:0;text-align:start;text-decoration:none;text-decoration-line:none;text-decoration-style:solid;text-decoration-color:#000000;letter-spacing:normal;word-spacing:normal;text-transform:none;writing-mode:lr-tb;direction:ltr;text-orientation:mixed;dominant-baseline:auto;baseline-shift:baseline;text-anchor:start;white-space:normal;shape-padding:0;shape-margin:0;inline-size:0;clip-rule:nonzero;display:inline;overflow:visible;visibility:visible;isolation:auto;mix-blend-mode:normal;color-interpolation:sRGB;color-interpolation-filters:linearRGB;solid-color:#000000;solid-opacity:1;vector-effect:none;fill:#231f20;fill-opacity:1;fill-rule:nonzero;stroke-width:1;stroke-linecap:butt;stroke-linejoin:miter;stroke-miterlimit:4;stroke-dasharray:none;stroke-dashoffset:0;stroke-opacity:1;color-rendering:auto;image-rendering:auto;shape-rendering:auto;text-rendering:auto;enable-background:accumulate;stop-color:#000000;stop-opacity:1;stroke:none;opacity:1"
       d="m 132.52539,347.04202 c -0.66361,0.0395 -1.36178,-0.48926 -1.20508,-1.33789 h 0.0391 c 1.1635,-4.3408 2.05822,-8.74837 2.67968,-13.19922 0.16526,-0.5968 0.78433,-0.94551 1.38086,-0.7793 0.58679,0.17877 0.93202,0.78239 0.78906,1.37891 -0.63562,4.45153 -1.54274,8.861 -2.71875,13.20117 -0.1809,0.48515 -0.56668,0.71263 -0.96484,0.73633 z m -8.51953,-5.08984 c -0.66361,0.0395 -1.36374,-0.48927 -1.20703,-1.33789 0.42167,-1.9988 0.0387,-4.08207 -1.06836,-5.79883 -0.77,-1.23 1.17945,-2.36086 1.93945,-1.13086 l 0.0293,-0.01 c 0.39327,0.62712 0.7051,1.29366 0.94922,1.98047 1.65713,-4.90702 2.92873,-9.93996 3.80078,-15.05078 0.48,-2.89 0.62,-6.37945 -2.75,-7.43945 -3,-1 -5.79875,0.90054 -7.71875,3.06054 -1,1.08 -2.54985,-0.51984 -1.58985,-1.58984 2.19,-2.46 5.28922,-4.36039 8.69922,-3.90039 3.32184,0.3863 5.84272,3.17565 5.89063,6.51953 0.003,1.87246 -0.21567,3.73925 -0.65039,5.56055 -0.38667,2.06666 -0.84133,4.12325 -1.36133,6.16992 -1.05475,4.1111 -2.37477,8.14971 -3.94727,12.0918 -0.009,0.0422 -0.0121,0.0848 -0.0215,0.12695 l -0.0234,-0.006 c -0.002,0.006 -0.005,0.0116 -0.008,0.0176 -0.18091,0.48515 -0.56473,0.71262 -0.96289,0.73633 z M 18.099609,340.63186 c -0.472218,-0.004 -0.931371,-0.30167 -1.080078,-0.8164 -1.035489,-6.9194 -1.318144,-13.91741 -0.876953,-20.87891 -0.89436,-0.71574 -1.875403,-1.33429 -2.943359,-1.8125 -1.32,-0.61 -0.169141,-2.55 1.130859,-2 l -0.01953,0.0508 c 0.719102,0.32333 1.392464,0.69551 2.03125,1.10352 0.256326,-2.83202 0.625888,-5.65632 1.126953,-8.46289 0.31592,-1.08572 1.855955,-1.08572 2.171875,0 0.882069,4.16354 2.929936,7.96753 5.871094,11.00195 0.494058,-2.56261 1.597483,-5.01906 3.578125,-6.76172 2.36747,-2.1509 5.727134,-2.82356 8.740234,-1.75 0.07663,0.0317 0.143814,0.0771 0.21875,0.11133 1.030737,-0.70444 2.187533,-1.22837 3.431641,-1.51172 3.560841,-0.84756 6.76444,0.39607 9.24414,2.63281 0.01589,-0.0105 0.02897,-0.0227 0.04492,-0.0332 3.12104,-2.12779 7.115638,-2.50534 10.580078,-1 1.156258,0.51612 2.249631,1.14618 3.283203,1.85742 2.885176,-2.58869 6.885203,-3.84999 10.507813,-2.32812 1.144084,0.45079 2.138275,1.13338 2.949219,1.97461 0.206729,-0.49984 0.448102,-0.98576 0.769531,-1.4336 1.53806,-2.16008 4.333602,-3.02039 6.820313,-2.09961 2.4755,0.71504 3.894426,3.30943 3.160156,5.7793 -0.390826,1.2159 -1.207767,2.14834 -2.203125,2.89648 5.166849,0.39838 10.226989,1.7548 14.912111,4.03321 1.3,0.64 0.16133,2.58117 -1.13867,1.95117 -5.742824,-2.7451 -12.069941,-4.04411 -18.429691,-3.78125 -1.32,0 -1.450781,-1.79898 -0.300781,-2.20898 1.709999,-0.59 3.999374,-1.45118 4.859374,-3.20118 0.860001,-1.75 -0.379999,-2.99922 -2,-3.44922 -1.6798,-0.45627 -3.445198,0.35105 -4.199218,1.91993 -0.301864,0.66556 -0.49577,1.36501 -0.59961,2.07422 0.633442,1.45969 0.860849,3.10649 0.570313,4.76562 -0.26,1.17 -1.819922,1 -2.169922,0 -0.483705,-1.3447 -0.741609,-2.83932 -0.683594,-4.30469 -0.690314,-1.19485 -1.783288,-2.18534 -3.037109,-2.76562 -2.674393,-1.23959 -5.836837,-0.24354 -7.986328,1.55273 1.510085,1.3045 2.831871,2.82671 3.916015,4.52735 1.96132,2.95426 2.414233,6.66084 1.220703,10 -1.17,3 -4.159843,5.83046 -7.589843,5.23046 -4,-0.71 -4.139844,-6.21937 -4.089844,-9.35937 0.05286,-3.58589 0.962789,-7.25549 3.167969,-10.10938 -0.76093,-0.51421 -1.556272,-0.97906 -2.388672,-1.38085 -2.708367,-1.29033 -5.884317,-1.09428 -8.416016,0.50585 1.275788,1.56571 2.269671,3.39604 2.886719,5.27344 1.29856,3.61896 1.212836,7.59066 -0.240234,11.15039 -1.51535,3.52633 -5.19705,5.60839 -9,5.08985 -0.38581,-0.0993 -0.68686,-0.40398 -0.78125,-0.79102 -1.826024,-7.16714 -1.857245,-15.77356 3.871093,-20.9707 -0.874583,-0.73835 -1.866442,-1.32991 -2.980468,-1.70899 -1.902736,-0.65325 -4.172084,-0.39762 -6.048828,0.55078 1.354457,1.34609 2.113102,3.23363 1.958984,5.22071 -0.2,2.65 -2.921094,6.15969 -5.871094,4.42969 -2.53,-1.5 -2.268906,-5.30055 -1.128906,-7.56055 0.35276,-0.63696 0.771571,-1.22602 1.24414,-1.76367 -1.919736,-0.43404 -4.11431,0.24937 -5.574218,1.49414 -2.01049,2.01116 -3.12726,4.74624 -3.09961,7.58984 -0.035,0.97874 -1.206271,1.45978 -1.919922,0.78906 -2.876532,-2.44621 -5.116431,-5.51679 -6.599609,-8.94336 -0.21084,1.6344 -0.370278,3.27281 -0.496094,4.91407 6.245593,5.74172 6.89025,15.94603 0.425782,22.39062 -0.228623,0.226 -0.517451,0.32862 -0.800782,0.32617 z m 208.814451,-2.8125 c -0.53029,0 -1.06058,-0.34089 -1.125,-1.02343 -0.2174,-3.2207 -0.20238,-6.45085 0.0234,-9.66797 -0.20353,-2.66837 -0.66111,-5.2975 -1.59961,-7.75391 -0.48905,1.05997 -1.46515,1.84083 -2.65234,2.04102 -1.61899,0.3373 -3.29887,-0.18525 -4.44141,-1.38086 -1.27815,-1.37657 -2.22781,-3.02268 -2.7793,-4.81836 -0.33358,-0.93856 -0.49804,-1.97661 -0.33398,-2.9336 -0.47532,-0.2911 -1.04988,-0.41412 -1.62695,-0.30664 -1.12135,0.22061 -2.03051,1.03738 -2.36914,2.12891 -1.05,2.69 0.38031,5.52016 1.57031,7.91016 0.46864,0.8678 -0.31068,1.88131 -1.26953,1.65039 l -6.14063,-1.25 c -1.73,-0.35 -4.00101,-0.42086 -5.54101,-1.38086 -1.54,-0.96 -1.88875,-3.06008 -2.46875,-4.58008 l -0.45118,-1.1875 c -0.31861,0.77461 -0.80026,1.48029 -1.55859,2.03906 -2.12,1.57 -4.22977,0.77867 -5.75977,-1.11133 -0.46703,-0.5812 -0.9301,-1.16456 -1.39648,-1.74609 -0.49742,1.30028 -1.04209,2.58353 -1.66406,3.83594 -0.59243,0.95518 -2.06438,0.55534 -2.08985,-0.56836 0.44772,-3.26872 -1.71163,-6.32654 -4.9414,-7 -3.54,-0.61 -6.45836,1.78937 -7.31836,5.10937 -0.69604,3.30459 -0.63162,6.72424 0.18945,10 0.67,3 2.11,6.20039 5,7.65039 2.56,1.29 6.3,1.22032 8,-1.42968 0.77,-1.22 2.70946,-0.0913 1.93946,1.13867 l 0.01,0.0996 c -1.93,3 -5.7,3.9 -9,3 -4,-1.06 -6.45891,-4.4893 -7.62891,-8.2793 -1.34116,-4.17929 -1.52875,-8.6433 -0.54101,-12.91992 0.98911,-4.04489 4.70142,-6.82666 8.86133,-6.64063 3.3131,0.25882 6.0179,2.39225 7.18554,5.26758 0.15496,-0.39755 0.30682,-0.79722 0.44922,-1.19922 -1.11183,-1.3894 -2.22786,-2.77668 -3.33593,-4.16797 -1,-1.28 -2.06032,-2.55007 -3.07032,-3.83007 -0.94567,-1.04537 -1.68499,-2.26009 -2.17968,-3.58008 -0.76,-2.49 0.62125,-5.1393 1.78124,-7.2793 0.9917,-2.11984 2.62997,-3.87046 4.67969,-5 2.22,-1 4.79016,-0.85976 5.66016,1.74024 0.72525,2.70411 1.03538,5.50153 0.91992,8.29882 0.0115,4.47914 -0.6784,8.91636 -2.00586,13.16602 l 1.30469,1.625 c 0.56,0.71 1.41039,2.27875 2.40039,2.46875 1.15,0.21 2.07961,-1 2.34961,-2 0.19267,-0.99288 0.22858,-2.00569 0.11719,-3.00781 l -0.1875,-0.49219 0.11328,-0.0156 c -0.0159,-0.0975 -0.0241,-0.19587 -0.043,-0.29296 -0.15,-1.35 1.80094,-1.40079 2.21094,-0.30079 l 1.92968,5.08008 1,2.54102 c 0.37,1 0.59039,1.62992 1.65039,1.91992 2.59714,0.71324 5.29939,1.17611 7.98047,1.66602 -1.2913,-3.04569 -2.06536,-6.4631 0.0996,-9.30665 1.47436,-1.90191 4.3149,-2.56436 6.30078,-1.48632 2.92383,-2.53609 6.84088,1.16164 8.5293,3.40625 1.33387,1.86807 2.36926,3.9215 3.07813,6.08789 0.47031,-2.40867 1.20353,-4.76907 2.61132,-6.77735 1.63544,-2.52011 4.44509,-4.02907 7.44922,-4 2.77301,-0.0949 5.30528,1.56613 6.32032,4.14844 0.49,1.37 -1.67993,2.00156 -2.16993,0.60156 -0.79,-2.17 -3.42047,-2.79039 -5.48047,-2.40039 -2.69,0.49 -4.44945,2.74039 -5.43945,5.15039 -1.07338,2.99183 -1.69948,6.12431 -1.85937,9.29883 -0.0553,0.62268 -0.0921,1.24743 -0.13086,1.8711 0.21742,3.04445 0.22894,6.10274 0.01,9.15039 -0.0644,0.68254 -0.59471,1.02343 -1.125,1.02343 z m -208.015622,-1.0332 c 2.025644,-3.00227 2.779169,-6.73081 2.011718,-10.3418 -0.471376,-1.9909 -1.384843,-3.81386 -2.628906,-5.37109 -0.227244,5.24017 -0.02084,10.49504 0.617188,15.71289 z m 28.478515,-4.35547 c 2.163278,-0.12916 4.131148,-1.38756 5.142578,-3.35547 1.15117,-2.32135 1.50274,-4.95812 1,-7.5 -0.382894,-2.48881 -1.399363,-5.08573 -3.02539,-7.11718 -4.94847,4.37029 -4.885789,11.8354 -3.449219,17.96679 0.110352,-7e-4 0.222578,0.0124 0.332031,0.006 z m 17.542969,-1.10547 c 0.99,-0.0544 2.024219,-0.65976 2.699219,-1.25976 0.9733,-0.90244 1.6674,-2.06467 2,-3.34961 0.66204,-2.79108 0.02758,-5.73185 -1.728516,-8 -0.876378,-1.22152 -1.895657,-2.32623 -3.023437,-3.30274 -1.556603,2.00598 -2.500806,4.43682 -2.667969,7.00196 -0.16463,1.58239 -0.16463,3.17737 0,4.75976 0.13,1.31 0.309765,3.45 1.759765,4 0.305,0.125 0.630938,0.16852 0.960938,0.15039 z M 213.08984,328.7178 c -0.15764,0 -0.31599,-0.0177 -0.4707,-0.0527 -0.14664,-0.0339 -0.28787,-0.0879 -0.41992,-0.16016 -0.13538,-0.0681 -0.25918,-0.15548 -0.36914,-0.25977 -0.11704,-0.0995 -0.2136,-0.22144 -0.28125,-0.35937 -0.0326,-0.0537 -0.0595,-0.11059 -0.0801,-0.16992 0,0 0.002,-0.10992 -0.0684,-0.16992 -0.027,-0.11497 -0.0445,-0.23365 -0.0508,-0.35157 -0.002,-0.14937 0.0315,-0.29673 0.0996,-0.42968 0.1013,-0.27324 0.3166,-0.48854 0.58984,-0.58985 0.1348,-0.0728 0.28837,-0.10703 0.44141,-0.0996 h 0.29883 c 0.12584,0.0342 0.23909,0.0978 0.34375,0.17383 0.01,-0.003 0.0175,-0.0106 0.0273,-0.0137 0.13713,-0.0664 0.28708,-0.10023 0.43945,-0.0996 h 0.30078 c 0.18653,0.0506 0.35415,0.14991 0.48829,0.28906 0.2188,0.20758 0.33889,0.49931 0.33007,0.80078 -0.007,0.12447 -0.0224,0.24733 -0.0488,0.36914 0,0 -0.0809,0.21055 -0.13086,0.31055 0.003,0.0199 0.003,0.0406 0,0.0605 -0.0576,0.0907 -0.12056,0.1773 -0.18946,0.25976 -0.2157,0.21414 -0.48445,0.3656 -0.77929,0.43946 -0.15471,0.035 -0.31306,0.0527 -0.47071,0.0527 z m -0.63086,-1.45312 c -5.7e-4,-0.14061 0.0332,-0.27787 0.0899,-0.40625 l -0.0899,0.21679 z m -69.625,-2.90821 c -0.36953,0.0146 -0.74599,-0.0297 -1.11523,-0.14062 -1.63,-0.63 -2.26937,-2.72141 -2.85937,-4.19141 -0.0119,-0.0297 -0.0214,-0.0601 -0.0332,-0.0898 l -0.25586,2.4707 c -0.0132,0.60302 -0.47908,1.09942 -1.08008,1.15039 -0.62249,3e-5 -1.12665,-0.5084 -1.12109,-1.13086 h 0.041 l 0.82226,-7.96094 c -0.004,-0.0229 -0.009,-0.0455 -0.0137,-0.0684 l 0.0215,-0.004 0.0293,-0.27734 c 0.12,-1.16 2.00094,-1.64883 2.21094,-0.29883 0.45703,2.62417 1.30277,5.16454 2.50976,7.53906 0.19,0.36 0.39914,0.83055 0.86915,0.81055 0.35408,-0.0541 0.6722,-0.24986 0.88085,-0.54102 0.62611,-0.7784 0.40718,-1.97583 0.17969,-2.94922 -0.0692,-0.1802 -0.14361,-0.35951 -0.21094,-0.53906 l 0.0899,-0.0254 c -0.19643,-1.32194 1.69328,-1.83293 2.16992,-0.55469 0.38545,1.35386 1.06879,2.60453 2,3.66016 0.74883,0.75532 1.88576,0.97254 2.86133,0.54883 1.15,-0.61 0.70945,-2.68024 0.68945,-3.74024 l -0.0996,-5.46875 c 0.0105,-0.61581 0.50345,-1.11488 1.11914,-1.13086 1.2268,-0.0808 2.16428,1.0766 1.83008,2.25977 -0.10253,0.43807 -0.38725,0.66398 -0.71484,0.75 0.0274,1.70442 0.0738,3.40988 0.0957,5.12109 0,1.92 -0.46969,3.72969 -2.42969,4.42969 -1.58079,0.52546 -3.32189,0.20507 -4.61133,-0.84961 -0.32071,-0.25698 -0.59866,-0.54904 -0.85742,-0.85547 -0.075,0.15754 -0.15208,0.31456 -0.25195,0.46484 -0.60911,0.98324 -1.65703,1.56756 -2.76563,1.61133 z M 37.701172,319.41311 c 0.631738,-0.10117 1.271094,-0.76015 1.558594,-1.3789 0.726344,-1.75175 0.24135,-3.74447 -1.150391,-4.98828 -0.84016,0.80932 -1.470656,1.81327 -1.740234,2.98828 -0.27125,0.9445 -0.16983,1.95704 0.28125,2.83008 0.29625,0.46875 0.671738,0.60953 1.050781,0.54882 z m 183.164058,-0.16015 c 0.715,-0.0487 1.33508,-0.4286 1.45508,-1.3086 0.0778,-0.55596 0.45284,-0.7951 0.8711,-0.80664 -0.13157,-0.24518 -0.25866,-0.49215 -0.40235,-0.73242 -0.82495,-1.49564 -1.94696,-2.80562 -3.29883,-3.84961 -0.90671,-0.63177 -2.05251,-0.92995 -2.72851,-0.5664 0.0181,0.0368 0.0413,0.0677 0.0586,0.10546 0.3162,0.67387 -0.0566,1.2988 -0.57031,1.57032 0.0135,0.0733 0.0202,0.14237 0.0391,0.2207 0.39663,1.77031 1.28058,3.39411 2.55078,4.68945 0.5,0.445 1.31039,0.72649 2.02539,0.67774 z m 31,-6.80078 c -0.1975,-0.0127 -0.38718,-0.0389 -0.55468,-0.0664 -0.13686,-0.0246 -0.26873,-0.0633 -0.40039,-0.10156 -0.0481,0.0217 -0.0894,0.0553 -0.14063,0.0703 -0.29349,0.0744 -0.6034,0.0357 -0.86914,-0.10938 -0.29198,-0.18344 -0.46138,-0.47954 -0.51367,-0.79687 -0.55185,-0.49076 -0.96836,-1.13454 -1.17774,-1.87305 -0.19018,-0.71624 0.34879,-1.41851 1.08985,-1.41992 0.17563,0.01 0.33841,0.0518 0.5,0.0937 0.23881,-0.27702 0.54882,-0.49892 0.93164,-0.61328 1.07125,-0.13424 2.10602,0.43453 2.56836,1.41016 0.49773,0.86636 0.53327,1.92202 0.0918,2.81836 -0.2775,0.54 -0.93289,0.62585 -1.52539,0.58789 z m -65.58398,-2.60352 c 0.53999,-1.93366 0.94758,-3.90537 1.19922,-5.9043 0.2781,-2.3223 0.36172,-4.66378 0.25,-7 -0.05,-1 -0.13172,-2 -0.26172,-3 -0.13,-1 -0.10961,-2.78015 -0.84961,-3.41015 -1.37,-1.18 -3.91969,1.35008 -4.67969,2.33008 -1.14318,1.54149 -2.03007,3.25677 -2.6289,5.08007 -0.87,2.53 0.87914,4.30016 2.36914,6.16016 z m 65.24805,-0.37305 c 3e-5,-0.007 -2.5e-4,-0.0143 0,-0.0215 l -0.10938,-0.26953 c -0.005,0.0331 -0.005,0.0665 0,0.0996 0.0459,0.0637 0.0773,0.12825 0.10938,0.1914 z m -4.71875,-48.48047 c -0.625,0 -1.25,-0.41666 -1.25,-1.25 -0.009,-0.31874 -0.001,-0.63453 0.0156,-0.94921 -0.35242,-3.0761 -2.7318,-5.43279 -4.76562,-7.68164 -1.2866,-1.42263 -2.51149,-2.84301 -3.45313,-4.39844 -0.97539,2.96089 -2.62365,5.67629 -4.86719,7.89844 -0.92766,0.94081 -2.49318,0.001 -2.09961,-1.25977 1.54397,-5.04883 1.77283,-10.38081 0.73633,-15.51953 -0.18592,0.96289 -0.3395,1.90824 -0.45703,2.26953 -0.6,1.82 -1.48008,3.76984 -3.33008,4.58984 -1.05,0.46 -2.45093,-0.54898 -1.71093,-1.70898 1.9,-3 0.73045,-6.53967 -1.26953,-9.17969 -2.30164,-3.09649 -5.87592,-4.99192 -9.73047,-5.16015 -4.67,-0.28 -9.23868,1.16859 -13.63868,2.55859 -4.4,1.39 -9.00007,2.72149 -13.58007,3.77149 -17.87,4.05645 -36.3248,4.86156 -54.48047,2.3789 -7.09,-1 -18.90969,-4.84914 -24.17969,2.13086 -0.42369,0.71613 -1.40729,0.84375 -2,0.25976 -3.83,-4.50999 -10.500625,-5.65054 -15.890625,-7.31054 l -20.349609,-6.31055 c -3.29,-1 -6.570391,-2.12 -9.900391,-3 -3.16,-0.87 -6.650234,-1.52 -9.740234,0 -4.60961,2.30868 -6.917785,7.5774 -5.490235,12.53125 0.4,1.27 -1.199844,1.99899 -2.089844,1.20899 l -2.888671,-2.48047 c 1.344166,4.25986 2.086022,8.69312 2.201171,13.17382 0.0052,0.0159 0.01243,0.0309 0.01758,0.0469 l -0.01563,0.002 c 0.0031,0.12643 0.01351,0.25241 0.01563,0.37891 -0.0224,1.43429 -2.048169,1.70734 -2.449219,0.33008 -1.100814,-3.35543 -3.214869,-6.27168 -6.027344,-8.37891 l -13.71289,17.41797 c -0.870001,1.11 -2.249844,-0.15875 -2.089844,-1.21875 0.911199,-6.06583 2.400777,-12.02701 4.429687,-17.80859 l -5.123047,4.0957 c -0.01268,0.0141 -0.0244,0.0289 -0.03711,0.043 l -0.0078,-0.008 c -1.17073,1.02205 -2.793857,-0.60139 -1.751953,-1.77344 4.709034,-5.23656 7.223355,-12.04616 7.101563,-19.03711 -2.983805,1.79636 -5.500537,4.28783 -7.310547,7.28711 -0.61,1 -2.430078,0.6611 -2.330078,-0.62891 0.36332,-5.17785 2.410898,-10.09466 5.830078,-14 0.90773,-1.02751 1.91237,-1.96599 3,-2.80078 0.66,-0.53 1.49875,-0.94054 1.71875,-1.56054 0.37,-1.05 -0.509219,-3.12914 -0.949219,-4.11914 -0.64781,-1.42151 -1.508381,-2.73688 -2.550781,-3.90039 -4,-4.57 -9.509922,-7.72954 -14.6699219,-10.76954 C -0.00949683,187.79921 -5.91781,184.8136 -12,182.21585 c -6.19,-2.64 -12.590703,-4.77031 -18.720703,-7.57031 -5.47619,-2.51924 -10.646576,-5.65589 -15.410156,-9.34961 -9.30837,-7.38746 -17.379797,-16.21214 -23.910157,-26.14063 -8.55,-12.61 -15.139453,-26.39937 -21.689453,-40.109373 -0.33107,-0.59867 -0.133641,-1.35278 0.449219,-1.71094 3.25,-2 6.6,-3.91992 10,-5.66992 2.58666,-1.36174 5.25894,-2.55456 8,-3.57031 3.34,-1.22 6.851719,-2 10.261719,-3 8.03013,-2.35097 15.901029,-5.21062 23.568359,-8.56055 7.45987,-3.41903 14.634122,-7.43194 21.451172,-12 6.8,-4.45 13.91,-7.99891 22,-9.37891 1.2209756,-0.19371 2.4463359,-0.33919 3.6738281,-0.46093 -0.050095,-0.13908 -0.083984,-0.29233 -0.083984,-0.46875 h 0.080078 l -0.070312,-31.57032 c 0,-10 0.11,-20.1400002 -3,-29.7500002 -0.49,-1.54 1.9201562,-2.18992 2.4101562,-0.66992 2.4,7.45 2.92,15.31008 3.0000004,23.0800802 0.11,8.2 0.06008,16.40938 0.08008,24.60938 v 14.30078 c 0,0.09722 -0.0094,0.18756 -0.02539,0.27343 5.427921,-0.33136 10.88438,0.029 16.234375,1.09571 15.53,2.84 30.00086,9.6 45.38086,13 3.257839,0.86563 6.582453,1.45416 9.939453,1.75976 3.44831,-0.009 6.833426,-0.9299 9.810547,-2.66992 6.18,-3.24 11.770862,-7.81961 18.880862,-8.84961 1.25,-0.18 2.39,1.6593 1,2.2793 -5.6765,2.4447 -10.38276,6.63323 -13.472659,11.9043 4.223959,-2.25045 8.913549,-3.54139 13.732419,-3.73438 1.52,-0.07 1.54008,2.00094 0.33008,2.46094 -4.13671,1.70683 -7.97965,4.03525 -11.41601,6.88281 7.28472,0.16796 14.53089,1.16309 21.5957,2.97656 1.03899,0.32024 1.22027,1.71395 0.29883,2.29102 -1.75255,0.78441 -3.53944,1.47499 -5.34961,2.08984 l 24.69336,31.457033 c 0.42684,0.54305 0.33238,1.32935 -0.21094,1.75586 l -50.300782,39.49024 c -0.223897,0.17525 -0.500847,0.26894 -0.785157,0.26562 -0.378732,-0.005 -0.734996,-0.18049 -0.96875,-0.47851 l -22.65039,-28.84571 12.726562,34.9375 c 0.235763,0.64827 -0.09812,1.36499 -0.746094,1.60157 L 18.697266,188.0596 c -0.147622,0.0535 -0.303995,0.0786 -0.460938,0.0742 -0.51293,-0.014 -0.965201,-0.34007 -1.140625,-0.82227 L -2.9199219,132.3721 c -3.0241741,0.55445 -6.0650886,1.02654 -9.1210941,1.39258 -5.59,0.76 -11.539218,1.92103 -17.199218,1.54101 -4.55,-0.31 -8.950938,-2 -11.460938,-6 -0.87,-1.36 1.300156,-2.60976 2.160156,-1.25976 2.77,4.39 8.21,4.99979 13,4.75976 4.91,-0.29 9.840938,-1.00164 14.710938,-1.68164 9.4088197,-1.20897 18.6744563,-3.34815 27.660156,-6.38867 8.65996,-3.21583 16.82356,-7.63682 24.25,-13.13086 7.23,-5.13 14.338828,-10.59961 22.548828,-14.099613 4.36,-1.86 9.091563,-3.43039 13.601563,-1.15039 3.375543,1.7034 6.46047,5.718723 10.242187,6.726573 -2.298045,-2.55161 -3.17491,-6.207173 -2.052734,-9.646493 0.26557,-0.91362 1.408964,-1.21338 2.089844,-0.54883 7.093339,6.97384 18.599344,8.279653 27.234374,3.67578 -7.57877,0.37234 -15.074502,-2.39161 -20.624999,-7.79687 -0.74881,-0.79498 -0.210591,-2.10239 0.880859,-2.14063 7.71732,0.30617 15.40262,-0.92359 22.625,-3.58984 -6.71139,-1.41199 -13.56015,-2.09085 -20.425781,-2 -1.09359,-0.027 -1.634564,-1.33794 -0.878907,-2.12891 2.23706,-2.1085 4.669348,-3.98803 7.255858,-5.625 -2.90891,0.95514 -5.672401,2.34508 -8.175779,4.16407 -0.964,0.53086 -2.097589,-0.34266 -1.830079,-1.41016 1.673842,-4.22106 4.231035,-7.98103 7.451168,-11.0625 -7.106142,3.90483 -13.663813,9.095 -22.392574,7.47266 -7.36187,-1.3155 -14.632611,-3.09581 -21.769531,-5.33008 -7.42,-2.36 -14.759531,-5 -22.269531,-7 -7.51,-2 -15.319922,-3.48875 -23.169922,-3.21875 -8.3755503,0.30308 -16.5401455,2.71043 -23.740234,7 -7.000002,4.12 -13.510313,8.81016 -20.820313,12.41015 -7.12052,3.47621 -14.47111,6.45956 -22,8.92969 -7.63,2.54 -15.628906,4.10891 -22.878906,7.62891 -3.769848,1.83883 -7.443597,3.86797 -11.017578,6.0625 10.905896,22.939083 22.532324,46.692103 42.707031,63.107423 4.72298,3.85021 9.880762,7.13393 15.36914,9.78125 6.2,3 12.750079,5.1193 19.080079,7.7793 6.0949488,2.56665 12.02321967,5.51272 17.7499996,8.82031 5.1700004,3 10.6108594,6.11937 14.8808594,10.35938 2.08996,1.96782 3.715676,4.3768 4.759766,7.05078 0.6,1.65 1.469375,4.67968 0.109375,6.17968 -1,1.11 -2.599219,1.82993 -3.699219,2.91993 -1.2006,1.17664 -2.252689,2.49624 -3.13086,3.92968 -0.889986,1.44162 -1.596427,2.98219 -2.109374,4.58399 1.931084,-2.00537 4.203123,-3.67235 6.730468,-4.9043 0.83337,-0.4568 1.853716,0.13006 1.878906,1.08008 0.480191,5.53177 -0.58554,11.02809 -2.988281,15.91797 l 2.408203,-1.92774 c 0.84,-0.67 2.619844,-0.0793 2.089844,1.22071 -2.216309,5.49344 -3.917866,11.17564 -5.101562,16.97265 l 11.402343,-14.52343 c 0.40397,-0.40275 1.028862,-0.48036 1.519532,-0.18946 1.953565,1.28788 3.645102,2.90459 5.021484,4.75586 -0.580266,-3.78148 -1.638949,-7.48209 -3.171875,-11.00586 -0.83782,-1.30591 0.9661,-2.67642 2,-1.51953 l 4.074219,3.50586 c -0.05976,-3.96563 1.677498,-7.82262 4.857422,-10.39648 5.71,-4.69 12.788359,-2.10993 19.068359,-0.16993 l 23.941406,7.41016 c 5.700202,1.77257 12.798424,3.01743 17.265624,7.34961 4.80517,-4.85729 12.41886,-4.19085 18.77344,-3.17969 10.39518,1.78122 20.93565,2.57895 31.48047,2.38086 10.61975,-0.31665 21.17596,-1.76198 31.49023,-4.31055 5.08,-1.25 10,-3.00109 15,-4.37109 4.59,-1.27 9.72063,-2.17875 14.39063,-0.71875 4.41919,1.34731 8.87304,5.7181 10.00781,10.49023 0.0295,-0.12595 0.0621,-0.27133 0.0918,-0.39062 0.31,-1.25 0.53914,-3.34 1.86914,-4 0.71237,-0.39057 1.6035,-0.0273 1.83984,0.75 1.51853,4.72106 1.96032,9.6904 1.36328,14.5664 0.90316,-1.82657 1.48853,-3.8097 1.69727,-5.86718 0.13,-1.28 2.14922,-1.83008 2.44922,-0.33008 0.0328,0.1661 0.0896,0.32055 0.13086,0.48242 l 0.01,-0.002 c -8.7e-4,0.009 -0.003,0.0168 -0.004,0.0254 1.19505,4.64273 5.73142,7.60919 8.19532,11.54882 0.5646,-2.14972 1.15369,-4.2951 0.99804,-6.55468 -0.31,-4.47 -2.88,-8.41985 -5.25,-12.08984 -0.71,-1.1 0.66094,-2.25899 1.71094,-1.70899 3.4255,1.80842 6.52464,4.15372 9.20117,6.92773 -0.93073,-3.99236 -2.92453,-7.68649 -5.81054,-10.66796 -2.6,-2.65 -6.82,-5.17072 -6.25,-9.4707 0.65,-4.88 5.32851,-8.7904 8.72851,-11.9004 1.34616,-1.15962 2.78852,-2.20247 4.31055,-3.11914 13.15,-8.45 26.91055,-16.18984 39.06055,-26.08984 9.25,-7.55 18.17023,-15.53078 27.24023,-23.30078 4.28,-3.67 9.22836,-7.26844 9.56836,-13.39844 0.31,-5.66 -2.35984,-11.16078 -5.33984,-15.80078 -2.98,-4.64 -6.70993,-9.16086 -10.16993,-13.63086 -3.82667,-4.95333 -7.66929,-9.89984 -11.52929,-14.839843 -7.54,-9.66 -15.14039,-19.26 -22.90039,-28.75 -4.31333,-5.27333 -8.67341,-10.49969 -13.08008,-15.67969 -3.77,-4.42 -8.15914,-8.76914 -10.61914,-14.11914 -2.58,-5.58 -1.78945,-11.21 -0.43946,-17 1.08799,-4.64263 2.42566,-10.17958 0.56055,-14.7480502 -1.33049,7.5981702 -3.24981,15.0823502 -5.73828,22.3867202 4e-4,0.06392 0.006,0.12747 0.006,0.19141 l -0.0664,-0.0098 c -0.0249,0.0727 -0.0473,0.14609 -0.0723,0.21875 -0.40105,1.37726 -2.42882,1.10421 -2.45117,-0.33008 -0.005,-4.27526 -0.7467,-8.49976 -2.15039,-12.50976 -0.27942,4.54052 -1.05436,9.04297 -2.3379,13.41992 -0.32024,1.03899 -1.71394,1.22222 -2.29101,0.30078 -4.49197,-6.92489 -7.48958,-14.69018 -8.83984,-22.8007802 -2.81694,7.9127702 -1.21767,16.8702002 4.4707,23.3398402 0.86891,0.91458 0.003,2.39675 -1.2207,2.08985 -8.12686,-1.69281 -14.76252,-7.18619 -18.06836,-14.51758 0.80447,9.05176 7.73703,17.37719 16.86914,19.13867 1.36,0.26 1.06992,2.60922 -0.33008,2.44922 l -11.27344,-1.24609 c 2.08343,1.59019 4.76308,2.37462 7.27344,3.14648 3.31,1 6.77922,2.04935 9.44922,4.35938 7.19,6.20999 5.08906,16.61126 3.78906,24.78124 -3.2,20.13 -1.32875,41.699613 9.53125,59.349613 5.27701,8.72848 12.70367,15.95858 21.57031,21 1.43942,0.84015 0.17966,3.00031 -1.25976,2.16016 l 0.0195,0.0391 c -15.87,-8.86 -26.58,-24.89859 -31,-42.30859 -2.51183,-10.22082 -3.31998,-20.787663 -2.39063,-31.271483 0.43,-5.47002 1.56117,-10.81977 2.20117,-16.25977 0.54,-4.63 0.43969,-9.69969 -2.32031,-13.67969 -5,-7.18 -16.22984,-4.73906 -21.08984,-12.28906 -0.48635,-0.83346 0.11509,-1.88115 1.08008,-1.88086 l 6.05078,0.66992 c -7.91009,-5.37393 -12.42368,-15.64645 -10.0625,-25.16015 0.28,-1.13 2.22015,-1.26 2.41015,0 1.29808,8.31272 6.97699,15.15609 14.66993,18.07031 -5.1953,-8.08721 -5.55726,-18.51724 -0.64844,-27.0293002 0.65925,-1.06187 2.29577,-0.6205 2.33008,0.62891 0.77875,8.2955102 3.35844,16.3070002 7.53711,23.4882802 1.22816,-5.14402 1.76033,-10.43462 1.5625,-15.72852 0.0343,-1.24941 1.67082,-1.69077 2.33007,-0.6289 2.09377,3.95887 3.49583,8.22544 4.19922,12.61914 1.93875,-6.53894 3.43545,-13.203 4.47071,-19.9492202 0.26557,-0.91362 1.40896,-1.21533 2.08984,-0.55078 7.28,8.9300002 -0.31938,19.6404702 0.39062,29.4804702 0.42,5.84 4.36001,10.56031 8,14.82031 4.05333,4.72 8.06883,9.47 12.04883,14.25 15.61,18.83 30.73953,38.109843 45.51953,57.589843 5.66,7.45 13.00063,18.32031 8.64063,28.07031 -2.11,4.78001 -6.84922,7.99836 -10.69922,11.31836 l -14.53125,12.45118 c -7.19874,6.37737 -14.7331,12.36534 -22.57031,17.93945 -6.9,4.74 -14.00008,9.18937 -21.08008,13.60937 -5.69,3.55 -11.12883,6.66 -15.54883,11.75 -2.19,2.51 -4.61945,5.95 -2.18945,9 1.67,2.11 3.99828,3.61118 5.73828,5.70118 3.49161,4.24716 5.52005,9.50804 5.78125,14.99999 0.08,1.37 -1.65008,1.50891 -2.33008,0.62891 -1.93464,-2.53195 -4.21816,-4.76303 -6.76953,-6.64258 1.31458,2.40268 2.37805,4.93239 2.75,7.66406 0.64,4.68 -1.91125,8.80993 -1.78125,13.41993 h -0.0742 c -0.0727,0.72978 -0.64949,1.0996 -1.23437,1.0996 z m -55.80078,-49.88476 c -2.70147,-0.0576 -5.00641,-0.42859 -5.91016,-1.24609 -3.3,-2.98 2.47984,-6.39859 4.58984,-7.0586 3.84,-1.18999 7.91102,-1.78999 11.54102,0 3.84,1.90001 5.24922,4.97938 1.94922,6.60938 -2.0625,1.01875 -7.66748,1.79131 -12.16992,1.69531 z M 79.849609,209.1553 c -3.92,0.13 -8.550468,-0.9007 -9.730468,-4.2207 -1.98,-5.58 8.570859,-4.94906 13.880859,-4.28906 5.31,0.66 8.710469,5.52008 2.480469,7.83008 -2.49,0.92 -4.01086,0.58968 -6.63086,0.67968 z m 2.50586,-19.75976 c -1.361499,0.006 -1.858594,-2.13203 -0.386719,-2.44141 h 0.01172 c 3.159966,-0.74108 6.338655,-1.38755 9.53125,-1.96484 l 3.417969,-10.35352 c 0.36333,-1.18906 2.046826,-1.18906 2.410156,0 l 1.128906,2.88086 0.591797,-1.77148 c 0.39,-1.16 0.709297,-3.06008 2.279293,-3.08008 1.57,-0.02 1.79993,1.79969 2.16993,2.92969 l 0.71484,2.17578 0.97461,-1.81641 c 0.57071,-0.92644 1.96961,-0.74176 2.28125,0.30078 0.21909,0.7988 0.50923,1.57458 0.85937,2.32227 1.13012,-2.04345 2.21763,-4.10578 3.22071,-6.20313 0.65925,-1.06187 2.29576,-0.61855 2.33007,0.63086 -0.29365,3.33756 -0.12083,6.69545 0.47461,9.99024 3.58888,0.13796 7.17739,0.41006 10.79493,0.60937 13.18128,0.78395 26.37851,0.0814 39.57031,0.0781 0.0887,-2.83272 0.31901,-5.65898 0.70898,-8.4668 0.17,-1.21 1.73102,-1.00078 2.29102,-0.30078 l 2.69141,3.5332 c 0.39198,-0.87987 0.7361,-1.78066 1.01757,-2.70312 0.31699,-1.03938 1.71221,-1.21795 2.2793,-0.29102 0.68553,0.90798 1.4084,1.80116 2.14648,2.6875 1.11122,-1.85539 2.01093,-3.83051 2.66407,-5.89648 0.35,-1.09 2.17015,-1.28 2.41015,0 l 2.29493,12.15625 c 3.14418,0.28971 6.28158,0.66516 9.40624,1.13281 1.58,0.25 0.90813,2.65016 -0.67187,2.41016 -8.45788,-1.33672 -16.99396,-1.71181 -25.54102,-1.75586 -0.3592,0.16572 -0.78063,0.16051 -1.13671,-0.0117 -5.3332,-0.009 -10.67023,0.10148 -15.99219,0.1875 -7.07,0.12 -14.14875,0.20062 -21.21875,-0.10938 -7.23,-0.32 -14.42969,-1.22929 -21.67969,-0.77929 -7.999999,0.5 -15.909765,2.19867 -23.759765,3.88867 -0.09812,0.0206 -0.19439,0.0308 -0.285156,0.0312 z m -63.339844,-4.11328 57.742187,-21.03516 -14.912109,-40.93555 -0.240234,-0.30468 0.09961,-0.0781 -6.589844,-18.08984 c -4.585445,2.90258 -8.955208,6.1896 -13.355468,9.3164 -1.785786,1.29864 -3.617642,2.52834 -5.482422,3.70313 0.14246,-0.0196 0.283777,-0.043 0.43164,-0.043 1.74522,0 3.160157,1.41494 3.160157,3.16016 0,1.74521 -1.414937,3.16015 -3.160157,3.16015 -1.74522,0 -3.160156,-1.41494 -3.160156,-3.16015 0,-0.67096 0.213703,-1.29108 0.570313,-1.80274 -3.209453,1.90973 -6.521453,3.63866 -9.925782,5.17578 0.483634,0.55512 0.78711,1.27235 0.78711,2.06641 0,1.74522 -1.414936,3.16016 -3.160157,3.16016 -1.668902,0 -3.020377,-1.29822 -3.136718,-2.9375 -0.640563,0.24414 -1.277908,0.49555 -1.923828,0.72656 -2.507584,0.82578 -5.038062,1.57255 -7.5839848,2.26172 0.5637748,0.57072 0.9140628,1.35314 0.9140628,2.21875 0,1.74522 -1.4149385,3.16015 -3.1601565,3.16015 -1.74522,0 -3.1601562,-1.41493 -3.1601563,-3.16015 0,-0.30989 0.057482,-0.60374 0.140625,-0.88672 -1.4424739,0.33457 -2.8900583,0.64957 -4.34179682,0.94141 z m 75.292969,-0.77344 c 3.049543,-0.50429 6.109796,-0.95033 9.181636,-1.30469 2.78473,-0.26813 5.54993,-0.3284 8.31055,-0.28125 -0.25122,-1.50606 -0.41156,-3.02404 -0.48828,-4.54687 -0.60999,1.1414 -1.22861,2.27842 -1.87305,3.39844 -0.48955,0.81467 -1.6706,0.81467 -2.16015,0 -0.45852,-0.68578 -0.85802,-1.40594 -1.20703,-2.1504 l -1.04297,1.93164 c -0.57071,0.92645 -1.96766,0.74176 -2.2793,-0.30078 l -1.07031,-3.26953 -0.35938,-1.08984 -0.36133,1.08008 -1.179683,3.51953 c -0.36333,1.18906 -2.046826,1.18906 -2.410156,0 l -1.121094,-2.86133 z m 86.347656,-0.32617 -1.34766,-7.14649 c -0.64828,1.34182 -1.39547,2.63516 -2.23828,3.86914 -0.4222,0.72082 -1.41336,0.84471 -2,0.25 -0.72228,-0.82164 -1.41895,-1.66331 -2.09961,-2.51562 -0.38713,0.94895 -0.82321,1.87756 -1.32031,2.77539 -0.49136,0.80367 -1.65903,0.80367 -2.15039,0 l -2.04492,-2.68359 c -0.15811,1.64895 -0.25782,3.30278 -0.30274,4.95898 0.47255,0.003 0.94545,-0.002 1.41797,0.004 4.0345,0.0163 8.06581,0.18054 12.08594,0.48828 z M 23.181641,179.32718 c -2.395723,0.0748 -4.072172,-2.55541 -2.8125,-4.74023 1.34365,-2.33049 4.799497,-2.02337 5.710937,0.50781 0.51294,1.43855 -0.07675,3.03887 -1.40039,3.80078 l -0.88086,-2.40039 -1,0.36914 0.871094,2.41016 c -0.165451,0.03 -0.328567,0.0477 -0.488281,0.0527 z m 14.664062,-5.42383 c -1.293478,-0.0752 -2.532277,-0.92709 -2.896484,-2.39648 -0.64748,-2.61225 2.058993,-4.78674 4.470703,-3.5918 1.35612,0.67687 2.044005,2.2187 1.640625,3.67969 l -2.300781,-1.11914 -0.480469,1 2.300781,1.11914 c -0.688822,0.95504 -1.728336,1.36706 -2.734375,1.30859 z m 14.787109,-5.47266 c -0.724706,-0.0496 -1.447471,-0.35166 -2.033203,-0.95507 -1.06517,-1.09122 -1.196286,-2.78996 -0.310547,-4.03125 l 1.791016,1.83008 0.779297,-0.76954 -1.789063,-1.83007 c 2.21329,-1.53067 5.203637,0.22824 4.941407,2.90625 -0.180277,1.84113 -1.784551,2.95873 -3.378907,2.8496 z m -34.228515,-1.48828 -3.314453,-9.09179 -4.021485,1.46875 -0.429687,-1.17383 -1.685547,-4.62305 4.021484,-1.4668 -3.6894528,-10.11328 2.3476558,-0.85546 3.691407,10.10937 4.009765,-1.46289 2.115235,5.79687 -4.009766,1.46289 3.314453,9.09376 z m 49.607422,-3.92187 c -0.538998,0.0442 -1.094166,-0.0496 -1.611328,-0.29492 l 1.5,-2.08008 -0.890625,-0.64063 -1.5,2.08008 c -1.89054,-1.91441 -0.676581,-5.16475 2.005859,-5.37109 2.68244,-0.20634 4.380198,2.82092 2.804687,5.00195 -0.557012,0.77454 -1.410264,1.23099 -2.308593,1.30469 z m -34.71875,-1.51172 -0.722657,-2 -4.019531,1.4707 -2.101562,-5.80078 4.005859,-1.46289 -6.279297,-17.21289 2.347657,-0.85742 6.28125,17.21094 4.009765,-1.46485 2.119141,5.79883 -4.015625,1.46289 0.726562,2.00586 z m 0.02539,-3.60352 -0.425781,-1.17578 2.832031,-1.03125 -0.40039,-1.09961 -5.675781,2.07227 0.398437,1.09961 2.84375,-1.03906 z m -20.759765,-1.79101 5.683594,-2.07617 -0.400391,-1.09766 -5.683594,2.07422 z m 35.626953,-0.041 -4.931641,-13.51367 -4.009765,1.46875 -2.117188,-5.79883 4.017578,-1.46679 -2.080078,-5.68946 2.349609,-0.85742 2.078126,5.68945 4.011718,-1.46289 2.119141,5.79883 -4.019531,1.46094 4.929687,13.51367 z m 42.464844,-0.12304 48.333989,-37.94727 -18.00391,-22.933593 c -0.0627,0.13291 -0.15134,0.25982 -0.28125,0.375 -5.63766,5.035073 -13.33707,7.029963 -20.63086,6.046873 -0.106076,1.68223 -1.568676,3.1901 -3.525391,2.96094 -2.287252,-0.26788 -3.37344,-2.68783 -2.484375,-4.515633 -2.355703,-0.9142 -4.589743,-2.15624 -6.585938,-3.76953 -0.122937,2.93665 1.520657,5.758953 4.316406,7.037113 0.926441,0.57071 0.743712,1.96961 -0.298828,2.28125 -4.38,1.14 -8.070312,-1.41078 -11.320312,-4.05078 -0.923018,-0.873 -1.947857,-1.622163 -3.03711,-2.263673 -0.04145,1.709143 -1.433225,3.083983 -3.152343,3.083983 -1.74522,0 -3.160157,-1.41493 -3.160157,-3.160153 0,-0.51049 0.132694,-0.9853 0.347657,-1.41211 -1.761875,0.21349 -3.508235,0.84789 -5.119141,1.47265 -3.057186,1.184543 -5.952275,2.685503 -8.759766,4.349613 l 1.449219,3.97852 c 0.523431,-1.02201 1.573639,-1.72852 2.800781,-1.72852 1.74522,0 3.160157,1.41494 3.160157,3.16016 0,1.74522 -1.414937,3.16016 -3.160157,3.16016 -0.431956,0 -0.841767,-0.0873 -1.216796,-0.24414 l 3.732422,10.24414 z m -27.564453,-5.30664 -2.470704,-6.75586 -4.009765,1.45898 -2.121094,-5.78711 4.011719,-1.46484 -4.541016,-12.46289 2.34961,-0.85547 4.539062,12.46289 4.019531,-1.4668 2.119141,5.78711 -4.019531,1.46875 2.470703,6.75781 z m 28.554687,-1.54883 c -1.74522,0 -3.160156,-1.41494 -3.160156,-3.16016 0,-1.74522 1.414936,-3.16015 3.160156,-3.16015 1.74522,-1e-5 3.158203,1.41493 3.158203,3.16015 0,1.74522 -1.412983,3.16016 -3.158203,3.16016 z m -33.546875,-6.95117 2.835938,-1.03321 h 0.002 l 2.84375,-1.04101 -0.400391,-1.0918 -5.681641,2.07227 z m -14.130859,-1.28711 -0.390625,-1.07618 2.84375,-1.0332 -0.402344,-1.09961 -5.679688,2.07227 0.400391,1.09961 2.833984,-1.03907 z m 60.117189,-1.58203 c -1.74522,0 -3.16016,-1.41494 -3.16016,-3.16016 0,-1.74522 1.41494,-3.16016 3.16016,-3.16016 1.74522,0 3.16015,1.41494 3.16015,3.16016 0,1.74522 -1.41493,3.16016 -3.16015,3.16016 z m -22.250002,-2.63868 c -1.74522,0 -3.160156,-1.41494 -3.160156,-3.16015 0,-1.74522 1.414936,-3.16016 3.160156,-3.16016 1.74522,0 3.160156,1.41494 3.160156,3.16016 0,1.74521 -1.414936,3.16015 -3.160156,3.16015 z m 34.689452,-7.18164 c -1.74522,0 -3.16015,-1.41298 -3.16015,-3.1582 -1e-5,-1.74522 1.41493,-3.16016 3.16015,-3.16016 1.74522,0 3.16016,1.41494 3.16016,3.16016 0,1.74522 -1.41494,3.1582 -3.16016,3.1582 z m -22.240233,-2.64844 c -1.74522,0 -3.160156,-1.41493 -3.160156,-3.16015 0,-1.74522 1.414936,-3.16016 3.160156,-3.16016 1.74522,0 3.160156,1.41494 3.160156,3.16016 0,1.74522 -1.414936,3.16015 -3.160156,3.16015 z m -22.25,-2.64062 c -1.74522,0 -3.160156,-1.41494 -3.160156,-3.16016 0,-1.74522 1.414936,-3.16015 3.160156,-3.16015 1.74522,0 3.160156,1.41493 3.160156,3.16015 0,1.74522 -1.414936,3.16016 -3.160156,3.16016 z m 56.929683,-4.54102 c -1.74522,0 -3.16015,-1.41298 -3.16015,-3.1582 0,-1.74522 1.41493,-3.16016 3.16015,-3.16016 1.74522,0 3.16016,1.41494 3.16016,3.16016 0,1.74522 -1.41494,3.1582 -3.16016,3.1582 z m -77.359371,-0.91992 c -1.74522,0 -3.160156,-1.41298 -3.160156,-3.1582 0,-1.74522 1.414936,-3.16016 3.160156,-3.16016 1.74522,0 3.160157,1.41494 3.160157,3.16016 0,1.74522 -1.414937,3.1582 -3.160157,3.1582 z m 55.119141,-1.71875 c -1.74522,0 -3.1582,-1.41493 -3.1582,-3.16015 0,-1.74522 1.41298,-3.16016 3.1582,-3.16016 1.74522,0 3.16016,1.41494 3.16016,3.16016 0,1.74522 -1.41494,3.16015 -3.16016,3.16015 z m -22.25,-2.64062 c -1.74522,0 -3.158203,-1.41494 -3.158203,-3.16016 0,-1.74522 1.412983,-3.16015 3.158203,-3.16015 1.74522,-1e-5 3.160156,1.41493 3.160156,3.16015 0,1.74522 -1.414936,3.16016 -3.160156,3.16016 z m 34.69141,-7.17969 c -1.74521,0 -3.16016,-1.41494 -3.16016,-3.16016 0,-1.74522 1.41495,-3.16015 3.16016,-3.16015 1.74522,0 3.16015,1.41493 3.16015,3.16015 0,1.74522 -1.41493,3.16016 -3.16015,3.16016 z m -5.20899,-13.041023 c 1.84842,-0.04831 3.70609,-0.30174 5.53906,-0.76953 0.0466,-0.01175 0.0906,-0.0038 0.13672,-0.0098 l -5.15039,-6.5586 c -5.20831,1.52002 -10.59755,2.36038 -16.037107,2.4668 2.497997,1.8391 5.298627,3.16262 8.240237,3.96875 -0.30661,-0.48695 -0.49024,-1.05784 -0.49024,-1.67578 0,-1.74522 1.41494,-3.16016 3.16016,-3.16016 1.74522,0 3.16016,1.41494 3.16016,3.16016 0,1.01618 -0.48717,1.91022 -1.23243,2.48828 0.88738,0.07192 1.77861,0.11324 2.67383,0.08984 z m 26.50195,-48.3125 c -0.30265,0.01688 -0.61757,-0.09875 -0.89257,-0.40625 -1.29688,-1.39417 -2.662,-2.72119 -4.06446,-4.00585 l -3.57617,3.75585 c -1.11,1.17 -2.86976,-0.59953 -1.75976,-1.76953 v -0.03125 l 3.45117,-3.62109 c -1.44947,-1.23668 -2.93688,-2.43079 -4.48242,-3.54883 -0.57424,-0.36451 -0.76965,-1.10903 -0.44922,-1.70898 0.35138,-0.59192 1.11371,-0.79346 1.71093,-0.45117 1.70737,1.22484 3.34812,2.5346 4.94336,3.89843 l 1.28516,-1.34765 1.63086,-1.72071 c 0.45191,-0.62404 1.07695,-1.0998 1.79883,-1.36914 0.95607,-0.23152 1.87968,0.4851 1.89062,1.46875 0.0451,0.95292 -0.82419,1.6735 -1.74414,1.48047 l -0.24609,0.25977 -1.16992,1.23047 -1.56836,1.66406 c 1.41939,1.29929 2.80376,2.63932 4.11914,4.04687 0.8175,0.8775 0.031,2.12516 -0.87696,2.17578 z"
       transform="translate(91.970274,8.6898978)"
       inkscape:path-effect="#path-effect1753"
       inkscape:original-d="M 132.52539 -8.6269531 C 131.86178 -8.6664566 131.16361 -8.1376894 131.32031 -7.2890625 L 131.35938 -7.2890625 C 132.52288 -2.9482615 133.4176 1.4593043 134.03906 5.9101562 C 134.20432 6.5069532 134.82339 6.8556691 135.41992 6.6894531 C 136.00671 6.5106871 136.35194 5.9070699 136.20898 5.3105469 C 135.57336 0.85901888 134.66624 -3.550449 133.49023 -7.890625 C 133.30933 -8.3757782 132.92355 -8.6032511 132.52539 -8.6269531 z M 124.00586 -3.5371094 C 123.34225 -3.5766128 122.64212 -3.0478456 122.79883 -2.1992188 C 123.2205 -0.20042375 122.83757 1.8828514 121.73047 3.5996094 C 120.96047 4.8296094 122.90992 5.9604688 123.66992 4.7304688 L 123.69922 4.7402344 C 124.09249 4.1131216 124.40432 3.4465799 124.64844 2.7597656 C 126.30557 7.6667879 127.57717 12.699728 128.44922 17.810547 C 128.92922 20.700547 129.06922 24.19 125.69922 25.25 C 122.69922 26.25 119.90047 24.349453 117.98047 22.189453 C 116.98047 21.109453 115.43062 22.709297 116.39062 23.779297 C 118.58062 26.239297 121.67984 28.139687 125.08984 27.679688 C 128.41168 27.293387 130.93256 24.504038 130.98047 21.160156 C 130.98347 19.287701 130.7648 17.420904 130.33008 15.599609 C 129.94341 13.532942 129.48875 11.476354 128.96875 9.4296875 C 127.914 5.3185891 126.59398 1.279975 125.02148 -2.6621094 C 125.01269 -2.7043089 125.00934 -2.7469252 125 -2.7890625 L 124.97656 -2.7832031 C 124.97418 -2.7891473 124.97113 -2.7948375 124.96875 -2.8007812 C 124.78784 -3.2859345 124.40402 -3.5134073 124.00586 -3.5371094 z M 18.099609 -2.2167969 C 17.627391 -2.2127116 17.168238 -1.9151206 17.019531 -1.4003906 C 15.984042 5.5190023 15.701387 12.517018 16.142578 19.478516 C 15.248218 20.194252 14.267175 20.812811 13.199219 21.291016 C 11.879219 21.901016 13.030078 23.841016 14.330078 23.291016 L 14.310547 23.240234 C 15.029649 22.916909 15.703011 22.544731 16.341797 22.136719 C 16.598123 24.968738 16.967685 27.793036 17.46875 30.599609 C 17.78467 31.685329 19.324705 31.685329 19.640625 30.599609 C 20.522694 26.436062 22.570561 22.632075 25.511719 19.597656 C 26.005777 22.160271 27.109202 24.616718 29.089844 26.359375 C 31.457314 28.510275 34.816978 29.182935 37.830078 28.109375 C 37.90671 28.077702 37.973892 28.032319 38.048828 27.998047 C 39.079565 28.702491 40.236361 29.226419 41.480469 29.509766 C 45.04131 30.357323 48.244909 29.113701 50.724609 26.876953 C 50.7405 26.887456 50.753575 26.899695 50.769531 26.910156 C 53.890571 29.037946 57.885169 29.415496 61.349609 27.910156 C 62.505867 27.394037 63.59924 26.763981 64.632812 26.052734 C 67.517988 28.641423 71.518015 29.902729 75.140625 28.380859 C 76.284709 27.930065 77.2789 27.247475 78.089844 26.40625 C 78.296573 26.906083 78.537946 27.39201 78.859375 27.839844 C 80.397435 29.999924 83.192977 30.860233 85.679688 29.939453 C 88.155188 29.224413 89.574114 26.630026 88.839844 24.160156 C 88.449018 22.944253 87.632077 22.011819 86.636719 21.263672 C 91.803568 20.865296 96.863708 19.508881 101.54883 17.230469 C 102.84883 16.590469 101.71016 14.649297 100.41016 15.279297 C 94.667336 18.024396 88.340219 19.323404 81.980469 19.060547 C 80.660469 19.060547 80.529688 20.859531 81.679688 21.269531 C 83.389687 21.859531 85.679062 22.720703 86.539062 24.470703 C 87.399063 26.220703 86.159063 27.469922 84.539062 27.919922 C 82.859262 28.376192 81.093864 27.56888 80.339844 26 C 80.03798 25.33444 79.844074 24.63499 79.740234 23.925781 C 80.373676 22.466086 80.601083 20.819285 80.310547 19.160156 C 80.050547 17.990156 78.490625 18.160156 78.140625 19.160156 C 77.65692 20.504856 77.399016 21.999474 77.457031 23.464844 C 76.766717 24.6597 75.673743 25.650188 74.419922 26.230469 C 71.745529 27.47006 68.583085 26.474002 66.433594 24.677734 C 67.943679 23.37324 69.265465 21.851028 70.349609 20.150391 C 72.310929 17.196124 72.763842 13.48955 71.570312 10.150391 C 70.400312 7.1503906 67.410469 4.3199219 63.980469 4.9199219 C 59.980469 5.6299219 59.840625 11.139297 59.890625 14.279297 C 59.943488 17.865188 60.853414 21.534784 63.058594 24.388672 C 62.297664 24.902889 61.502322 25.367736 60.669922 25.769531 C 57.961555 27.059855 54.785605 26.863807 52.253906 25.263672 C 53.529694 23.697968 54.523577 21.867635 55.140625 19.990234 C 56.439185 16.371276 56.353461 12.399574 54.900391 8.8398438 C 53.385041 5.3135128 49.703341 3.231458 45.900391 3.75 C 45.514581 3.84932 45.213531 4.1539766 45.119141 4.5410156 C 43.293117 11.708156 43.261896 20.31458 48.990234 25.511719 C 48.115651 26.250071 47.123792 26.841625 46.009766 27.220703 C 44.10703 27.873958 41.837682 27.618324 39.960938 26.669922 C 41.315395 25.323834 42.07404 23.436295 41.919922 21.449219 C 41.719922 18.799219 38.998828 15.289531 36.048828 17.019531 C 33.518828 18.519531 33.779922 22.320078 34.919922 24.580078 C 35.272682 25.217034 35.691493 25.806094 36.164062 26.34375 C 34.244326 26.77779 32.049752 26.094374 30.589844 24.849609 C 28.579354 22.838451 27.462584 20.103369 27.490234 17.259766 C 27.455234 16.281028 26.283963 15.799988 25.570312 16.470703 C 22.69378 18.916912 20.453881 21.987496 18.970703 25.414062 C 18.759863 23.779667 18.600425 22.141259 18.474609 20.5 C 24.720202 14.758275 25.364859 4.5539631 18.900391 -1.890625 C 18.671768 -2.1166195 18.38294 -2.219248 18.099609 -2.2167969 z M 226.91406 0.59570312 C 226.38377 0.59570312 225.85348 0.93659662 225.78906 1.6191406 C 225.57166 4.8398371 225.58668 8.0699871 225.8125 11.287109 C 225.60897 13.955475 225.15139 16.584609 224.21289 19.041016 C 223.72384 17.98105 222.74774 17.200184 221.56055 17 C 219.94156 16.662699 218.26168 17.185244 217.11914 18.380859 C 215.84099 19.75743 214.89133 21.403538 214.33984 23.199219 C 214.00626 24.137781 213.8418 25.175824 214.00586 26.132812 C 213.53054 26.423918 212.95598 26.546933 212.37891 26.439453 C 211.25756 26.218843 210.3484 25.402077 210.00977 24.310547 C 208.95977 21.620547 210.39008 18.790391 211.58008 16.400391 C 212.04872 15.532584 211.2694 14.519079 210.31055 14.75 L 204.16992 16 C 202.43992 16.35 200.16891 16.420859 198.62891 17.380859 C 197.08891 18.340859 196.74016 20.440938 196.16016 21.960938 L 195.70898 23.148438 C 195.39037 22.373822 194.90872 21.668143 194.15039 21.109375 C 192.03039 19.539375 189.92062 20.330703 188.39062 22.220703 C 187.92359 22.801902 187.46052 23.385268 186.99414 23.966797 C 186.49672 22.666518 185.95205 21.383264 185.33008 20.130859 C 184.73765 19.175678 183.2657 19.57552 183.24023 20.699219 C 183.68795 23.967933 181.5286 27.025759 178.29883 27.699219 C 174.75883 28.309219 171.84047 25.909844 170.98047 22.589844 C 170.28443 19.285254 170.34885 15.865609 171.16992 12.589844 C 171.83992 9.5898438 173.27992 6.3894531 176.16992 4.9394531 C 178.72992 3.6494531 182.46992 3.7191406 184.16992 6.3691406 C 184.93992 7.5891406 186.87938 6.4604688 186.10938 5.2304688 L 186.11914 5.1308594 C 184.18914 2.1308594 180.41914 1.2308594 177.11914 2.1308594 C 173.11914 3.1908594 170.66023 6.6201562 169.49023 10.410156 C 168.14907 14.589442 167.96148 19.053454 168.94922 23.330078 C 169.93833 27.374968 173.65064 30.156733 177.81055 29.970703 C 181.12365 29.711887 183.82845 27.578461 184.99609 24.703125 C 185.15105 25.100677 185.30291 25.500342 185.44531 25.902344 C 184.33348 27.291745 183.21745 28.679031 182.10938 30.070312 C 181.10938 31.350313 180.04906 32.620391 179.03906 33.900391 C 178.09339 34.945761 177.35407 36.160479 176.85938 37.480469 C 176.09938 39.970469 177.48063 42.619766 178.64062 44.759766 C 179.63232 46.879606 181.27059 48.630226 183.32031 49.759766 C 185.54031 50.759766 188.11047 50.619531 188.98047 48.019531 C 189.70572 45.315421 190.01585 42.517993 189.90039 39.720703 C 189.91192 35.241567 189.22199 30.804351 187.89453 26.554688 L 189.19922 24.929688 C 189.75922 24.219688 190.60961 22.650937 191.59961 22.460938 C 192.74961 22.250938 193.67922 23.460938 193.94922 24.460938 C 194.14189 25.453814 194.1778 26.466623 194.06641 27.46875 L 193.87891 27.960938 L 193.99219 27.976562 C 193.97625 28.074046 193.96806 28.172435 193.94922 28.269531 C 193.79922 29.619531 195.75016 29.670313 196.16016 28.570312 L 198.08984 23.490234 L 199.08984 20.949219 C 199.45984 19.949219 199.68023 19.319297 200.74023 19.029297 C 203.33737 18.316053 206.03962 17.853191 208.7207 17.363281 C 207.4294 20.408966 206.65534 23.82638 208.82031 26.669922 C 210.29467 28.57184 213.13521 29.234282 215.12109 28.15625 C 218.04492 30.692335 221.96197 26.99461 223.65039 24.75 C 224.98426 22.881922 226.01965 20.828498 226.72852 18.662109 C 227.19883 21.07078 227.93205 23.431181 229.33984 25.439453 C 230.97528 27.959563 233.78493 29.468523 236.78906 29.439453 C 239.56207 29.534353 242.09434 27.873326 243.10938 25.291016 C 243.59938 23.921016 241.42945 23.289453 240.93945 24.689453 C 240.14945 26.859453 237.51898 27.479844 235.45898 27.089844 C 232.76898 26.599844 231.00953 24.349453 230.01953 21.939453 C 228.94615 18.947626 228.32005 15.81515 228.16016 12.640625 C 228.10484 12.017943 228.0681 11.393192 228.0293 10.769531 C 228.24672 7.7250777 228.25824 4.666782 228.03906 1.6191406 C 227.97464 0.93659662 227.44435 0.59570312 226.91406 0.59570312 z M 18.898438 1.6289062 C 20.924082 4.6311798 21.677607 8.3597152 20.910156 11.970703 C 20.43878 13.961611 19.525313 15.784566 18.28125 17.341797 C 18.054006 12.101626 18.260414 6.846756 18.898438 1.6289062 z M 47.376953 5.984375 C 49.540231 6.1135385 51.508101 7.3719364 52.519531 9.3398438 C 53.670701 11.661199 54.022271 14.297969 53.519531 16.839844 C 53.136637 19.328654 52.120168 21.925577 50.494141 23.957031 C 45.545671 19.586739 45.608352 12.12163 47.044922 5.9902344 C 47.155274 5.9909363 47.2675 5.9778398 47.376953 5.984375 z M 64.919922 7.0898438 C 65.909922 7.1442188 66.944141 7.7496094 67.619141 8.3496094 C 68.592441 9.2520484 69.286541 10.414275 69.619141 11.699219 C 70.281181 14.490299 69.646725 17.431063 67.890625 19.699219 C 67.014247 20.92074 65.994968 22.025449 64.867188 23.001953 C 63.310585 20.995973 62.366382 18.56514 62.199219 16 C 62.034589 14.417604 62.034589 12.82263 62.199219 11.240234 C 62.329219 9.9302344 62.508984 7.7902344 63.958984 7.2402344 C 64.263984 7.1152344 64.589922 7.0717187 64.919922 7.0898438 z M 213.08984 9.6972656 C 212.9322 9.6972656 212.77385 9.715 212.61914 9.75 C 212.4725 9.78393 212.33127 9.8379163 212.19922 9.9101562 C 212.06384 9.9782663 211.94004 10.065633 211.83008 10.169922 C 211.71304 10.269452 211.61648 10.391363 211.54883 10.529297 C 211.51623 10.582987 211.48935 10.639888 211.46875 10.699219 C 211.46875 10.699219 211.47039 10.809141 211.40039 10.869141 C 211.37339 10.984103 211.35591 11.102789 211.34961 11.220703 C 211.34761 11.370072 211.38112 11.517439 211.44922 11.650391 C 211.55052 11.92363 211.76582 12.138929 212.03906 12.240234 C 212.17386 12.313074 212.32743 12.347264 212.48047 12.339844 L 212.7793 12.339844 C 212.90514 12.30568 213.01839 12.242039 213.12305 12.166016 C 213.13272 12.169467 213.14057 12.176595 213.15039 12.179688 C 213.28752 12.246107 213.43747 12.279921 213.58984 12.279297 L 213.89062 12.279297 C 214.07715 12.228657 214.24477 12.129382 214.37891 11.990234 C 214.59771 11.782658 214.7178 11.490923 214.70898 11.189453 C 214.70198 11.064989 214.68656 10.942125 214.66016 10.820312 C 214.66016 10.820312 214.5793 10.609766 214.5293 10.509766 C 214.5323 10.489866 214.5323 10.469119 214.5293 10.449219 C 214.4717 10.358529 214.40874 10.271912 214.33984 10.189453 C 214.12414 9.9753131 213.85539 9.823857 213.56055 9.75 C 213.40584 9.715 213.24749 9.6972656 213.08984 9.6972656 z M 212.45898 11.150391 C 212.45841 11.290993 212.49216 11.428257 212.54883 11.556641 L 212.45898 11.339844 L 212.45898 11.150391 z M 142.83398 14.058594 C 142.46445 14.044002 142.08799 14.088286 141.71875 14.199219 C 140.08875 14.829219 139.44938 16.920625 138.85938 18.390625 C 138.84748 18.420293 138.83797 18.450765 138.82617 18.480469 L 138.57031 16.009766 C 138.55711 15.406747 138.09123 14.910347 137.49023 14.859375 C 136.86774 14.85935 136.36358 15.367774 136.36914 15.990234 L 136.41016 15.990234 L 137.23242 23.951172 C 137.22808 23.974022 137.22304 23.99667 137.21875 24.019531 L 137.24023 24.023438 L 137.26953 24.300781 C 137.38953 25.460781 139.27047 25.949609 139.48047 24.599609 C 139.9375 21.975434 140.78324 19.435065 141.99023 17.060547 C 142.18023 16.700547 142.38937 16.23 142.85938 16.25 C 143.21346 16.30415 143.53158 16.499858 143.74023 16.791016 C 144.36634 17.569418 144.14741 18.766844 143.91992 19.740234 C 143.85075 19.920435 143.77631 20.099751 143.70898 20.279297 L 143.79883 20.304688 C 143.6024 21.626628 145.49211 22.137619 145.96875 20.859375 C 146.3542 19.505518 147.03754 18.254844 147.96875 17.199219 C 148.71758 16.443893 149.85451 16.226679 150.83008 16.650391 C 151.98008 17.260391 151.53953 19.330625 151.51953 20.390625 L 151.41992 25.859375 C 151.43042 26.475185 151.92337 26.974254 152.53906 26.990234 C 153.76586 27.071034 154.70334 25.913639 154.36914 24.730469 C 154.26661 24.2924 153.98189 24.066489 153.6543 23.980469 C 153.68175 22.276043 153.72806 20.570586 153.75 18.859375 C 153.75 16.939375 153.28031 15.129688 151.32031 14.429688 C 149.73952 13.904224 147.99842 14.224617 146.70898 15.279297 C 146.38827 15.536276 146.11032 15.82834 145.85156 16.134766 C 145.77659 15.977222 145.69948 15.820207 145.59961 15.669922 C 144.9905 14.686684 143.94258 14.10237 142.83398 14.058594 z M 37.701172 19.001953 C 38.33291 19.103125 38.972266 19.762109 39.259766 20.380859 C 39.98611 22.132608 39.501116 24.125325 38.109375 25.369141 C 37.269215 24.559813 36.638719 23.555868 36.369141 22.380859 C 36.097891 21.436361 36.199311 20.423812 36.650391 19.550781 C 36.946641 19.082031 37.322129 18.94125 37.701172 19.001953 z M 220.86523 19.162109 C 221.58023 19.210859 222.20031 19.590703 222.32031 20.470703 C 222.39807 21.026668 222.77315 21.265808 223.19141 21.277344 C 223.05984 21.522524 222.93275 21.769495 222.78906 22.009766 C 221.96411 23.505403 220.8421 24.815389 219.49023 25.859375 C 218.58352 26.491149 217.43772 26.789325 216.76172 26.425781 C 216.77979 26.388976 216.80306 26.358081 216.82031 26.320312 C 217.13651 25.646443 216.76374 25.021517 216.25 24.75 C 216.26349 24.6767 216.27018 24.607627 216.28906 24.529297 C 216.68569 22.758988 217.56964 21.135184 218.83984 19.839844 C 219.33984 19.394844 220.15023 19.113359 220.86523 19.162109 z M 251.86523 25.962891 C 251.66773 25.975547 251.47805 26.001797 251.31055 26.029297 C 251.17369 26.053947 251.04182 26.092598 250.91016 26.130859 C 250.86202 26.109195 250.82072 26.075586 250.76953 26.060547 C 250.47604 25.986147 250.16613 26.024822 249.90039 26.169922 C 249.60841 26.353362 249.43901 26.649464 249.38672 26.966797 C 248.83487 27.457555 248.41836 28.101339 248.20898 28.839844 C 248.0188 29.556084 248.55777 30.258356 249.29883 30.259766 C 249.47446 30.249836 249.63724 30.207943 249.79883 30.166016 C 250.03764 30.443038 250.34765 30.664932 250.73047 30.779297 C 251.80172 30.913537 252.83649 30.344771 253.29883 29.369141 C 253.79656 28.502781 253.8321 27.447121 253.39062 26.550781 C 253.11312 26.010781 252.45773 25.924922 251.86523 25.962891 z M 186.28125 28.566406 C 186.82124 30.500068 187.22883 32.47178 187.48047 34.470703 C 187.75857 36.793003 187.84219 39.134483 187.73047 41.470703 C 187.68047 42.470703 187.59875 43.470703 187.46875 44.470703 C 187.33875 45.470703 187.35914 47.250859 186.61914 47.880859 C 185.24914 49.060859 182.69945 46.530781 181.93945 45.550781 C 180.79627 44.009291 179.90938 42.294003 179.31055 40.470703 C 178.44055 37.940703 180.18969 36.170547 181.67969 34.310547 L 186.28125 28.566406 z M 251.5293 28.939453 C 251.52933 28.946602 251.52905 28.953792 251.5293 28.960938 L 251.41992 29.230469 C 251.41492 29.197369 251.41492 29.163959 251.41992 29.130859 C 251.46581 29.067203 251.49719 29.00261 251.5293 28.939453 z M 246.81055 77.419922 C 246.18555 77.419922 245.56055 77.836587 245.56055 78.669922 C 245.55142 78.988665 245.55939 79.304452 245.57617 79.619141 C 245.22375 82.695239 242.84437 85.051927 240.81055 87.300781 C 239.52395 88.723406 238.29906 90.143784 237.35742 91.699219 C 236.38203 88.738322 234.73377 86.022923 232.49023 83.800781 C 231.56257 82.859971 229.99705 83.799547 230.39062 85.060547 C 231.93459 90.10938 232.16345 95.441353 231.12695 100.58008 C 230.94103 99.61719 230.78745 98.671841 230.66992 98.310547 C 230.06992 96.490547 229.18984 94.540703 227.33984 93.720703 C 226.28984 93.260703 224.88891 94.269686 225.62891 95.429688 C 227.52891 98.429688 226.35936 101.96936 224.35938 104.60938 C 222.05774 107.70587 218.48346 109.6013 214.62891 109.76953 C 209.95891 110.04953 205.39023 108.60094 200.99023 107.21094 C 196.59023 105.82094 191.99016 104.48945 187.41016 103.43945 C 169.54016 99.382999 151.08536 98.577891 132.92969 101.06055 C 125.83969 102.06055 114.02 105.90969 108.75 98.929688 C 108.32631 98.213558 107.34271 98.085932 106.75 98.669922 C 102.92 103.17992 96.249375 104.32047 90.859375 105.98047 L 70.509766 112.29102 C 67.219766 113.29102 63.939375 114.41102 60.609375 115.29102 C 57.449375 116.16102 53.959141 116.81102 50.869141 115.29102 C 46.259531 112.98234 43.951356 107.71362 45.378906 102.75977 C 45.778906 101.48977 44.179062 100.76078 43.289062 101.55078 L 40.400391 104.03125 C 41.744557 99.771384 42.486413 95.338124 42.601562 90.857422 C 42.606752 90.841494 42.613992 90.826491 42.619141 90.810547 L 42.603516 90.808594 C 42.606636 90.682165 42.617022 90.556186 42.619141 90.429688 C 42.596741 88.995396 40.570972 88.722349 40.169922 90.099609 C 39.069108 93.455033 36.955053 96.371291 34.142578 98.478516 L 20.429688 81.060547 C 19.559687 79.950547 18.179844 81.219297 18.339844 82.279297 C 19.251043 88.345125 20.740621 94.306309 22.769531 100.08789 L 17.646484 95.992188 C 17.6338 95.978104 17.622089 95.963281 17.609375 95.949219 L 17.601562 95.957031 C 16.430832 94.934979 14.807705 96.558413 15.849609 97.730469 C 20.558643 102.96703 23.072964 109.77663 22.951172 116.76758 C 19.967367 114.97122 17.450635 112.47975 15.640625 109.48047 C 15.030625 108.48047 13.210547 108.81937 13.310547 110.10938 C 13.673867 115.28723 15.721445 120.20404 19.140625 124.10938 C 20.048355 125.13689 21.052995 126.07537 22.140625 126.91016 C 22.800625 127.44016 23.639375 127.8507 23.859375 128.4707 C 24.229375 129.5207 23.350156 131.59984 22.910156 132.58984 C 22.262346 134.01135 21.401775 135.32672 20.359375 136.49023 C 16.359375 141.06023 10.849453 144.21977 5.6894531 147.25977 C -0.009496825 150.61586 -5.91781 153.60147 -12 156.19922 C -18.19 158.83922 -24.590703 160.96953 -30.720703 163.76953 C -36.196893 166.28877 -41.367279 169.42542 -46.130859 173.11914 C -55.439229 180.5066 -63.510656 189.33128 -70.041016 199.25977 C -78.591016 211.86977 -85.180469 225.65914 -91.730469 239.36914 C -92.061539 239.96781 -91.86411 240.72192 -91.28125 241.08008 C -88.03125 243.08008 -84.68125 245 -81.28125 246.75 C -78.69459 248.11174 -76.02231 249.30456 -73.28125 250.32031 C -69.94125 251.54031 -66.429531 252.32031 -63.019531 253.32031 C -54.989401 255.67128 -47.118502 258.53093 -39.451172 261.88086 C -31.991302 265.29989 -24.81705 269.3128 -18 273.88086 C -11.2 278.33086 -4.09 281.87977 4 283.25977 C 5.2209756 283.45348 6.4463359 283.59896 7.6738281 283.7207 C 7.6237332 283.85978 7.5898438 284.01303 7.5898438 284.18945 L 7.6699219 284.18945 L 7.5996094 315.75977 C 7.5996094 325.75977 7.7096094 335.89977 4.5996094 345.50977 C 4.1096094 347.04977 6.5197656 347.69969 7.0097656 346.17969 C 9.4097656 338.72969 9.9297656 330.86961 10.009766 323.09961 C 10.119766 314.89961 10.069844 306.69023 10.089844 298.49023 L 10.089844 284.18945 C 10.089844 284.09223 10.080473 284.00189 10.064453 283.91602 C 15.492374 284.24738 20.948833 283.88702 26.298828 282.82031 C 41.828828 279.98031 56.299688 273.22031 71.679688 269.82031 C 74.937527 268.95468 78.262141 268.36615 81.619141 268.06055 C 85.067451 268.06955 88.452567 268.99045 91.429688 270.73047 C 97.609688 273.97047 103.20055 278.55008 110.31055 279.58008 C 111.56055 279.76008 112.70055 277.92078 111.31055 277.30078 C 105.63405 274.85608 100.92779 270.66755 97.837891 265.39648 C 102.06185 267.64693 106.75144 268.93787 111.57031 269.13086 C 113.09031 269.20086 113.11039 267.12992 111.90039 266.66992 C 107.76368 264.96309 103.92074 262.63467 100.48438 259.78711 C 107.7691 259.61915 115.01527 258.62402 122.08008 256.81055 C 123.11907 256.49031 123.30035 255.0966 122.37891 254.51953 C 120.62636 253.73512 118.83947 253.04454 117.0293 252.42969 L 141.72266 220.97266 A 1.250125 1.250125 0 0 0 141.51172 219.2168 L 91.210938 179.72656 A 1.250125 1.250125 0 0 0 90.425781 179.46094 A 1.250125 1.250125 0 0 0 89.457031 179.93945 L 66.806641 208.78516 L 79.533203 173.84766 A 1.250125 1.250125 0 0 0 78.787109 172.24609 L 18.697266 150.35547 A 1.250125 1.250125 0 0 0 18.236328 150.28125 A 1.250125 1.250125 0 0 0 17.095703 151.10352 L -2.9199219 206.04297 C -5.944096 205.48852 -8.9850105 205.01643 -12.041016 204.65039 C -17.631016 203.89039 -23.580234 202.72936 -29.240234 203.10938 C -33.790234 203.41938 -38.191172 205.10938 -40.701172 209.10938 C -41.571172 210.46938 -39.401016 211.71914 -38.541016 210.36914 C -35.771016 205.97914 -30.331016 205.36935 -25.541016 205.60938 C -20.631016 205.89938 -15.700078 206.61102 -10.830078 207.29102 C -1.4212583 208.49999 7.8443783 210.63917 16.830078 213.67969 C 25.490038 216.89552 33.653638 221.31651 41.080078 226.81055 C 48.310078 231.94055 55.418906 237.41016 63.628906 240.91016 C 67.988906 242.77016 72.720469 244.34055 77.230469 242.06055 C 80.606012 240.35715 83.690939 236.34183 87.472656 235.33398 C 85.174611 237.88559 84.297746 241.54115 85.419922 244.98047 C 85.685492 245.89409 86.828886 246.19385 87.509766 245.5293 C 94.603105 238.55546 106.10911 237.24965 114.74414 241.85352 C 107.16537 241.48118 99.669638 244.24513 94.119141 249.65039 C 93.370331 250.44537 93.90855 251.75278 95 251.79102 C 102.71732 251.48485 110.40262 252.71461 117.625 255.38086 C 110.91361 256.79285 104.06485 257.47171 97.199219 257.38086 C 96.105629 257.40786 95.564655 258.7188 96.320312 259.50977 C 98.557372 261.61827 100.98966 263.4978 103.57617 265.13477 C 100.66726 264.17963 97.903769 262.78969 95.400391 260.9707 C 94.436391 260.43984 93.302802 261.31336 93.570312 262.38086 C 95.244154 266.60192 97.801347 270.36189 101.02148 273.44336 C 93.915338 269.53853 87.357667 264.34836 78.628906 265.9707 C 71.267036 267.2862 63.996295 269.06651 56.859375 271.30078 C 49.439375 273.66078 42.099844 276.30078 34.589844 278.30078 C 27.079844 280.30078 19.269922 281.78953 11.419922 281.51953 C 3.0443717 281.21645 -5.1202235 278.8091 -12.320312 274.51953 C -19.320314 270.39953 -25.830625 265.70937 -33.140625 262.10938 C -40.261145 258.63317 -47.611735 255.64982 -55.140625 253.17969 C -62.770625 250.63969 -70.769531 249.07078 -78.019531 245.55078 C -81.789379 243.71195 -85.463128 241.68281 -89.037109 239.48828 C -78.131213 216.5492 -66.504785 192.79618 -46.330078 176.38086 C -41.607098 172.53065 -36.449316 169.24693 -30.960938 166.59961 C -24.760938 163.59961 -18.210859 161.48031 -11.880859 158.82031 C -5.7859102 156.25366 0.14236067 153.30759 5.8691406 150 C 11.039141 147 16.48 143.88063 20.75 139.64062 C 22.83996 137.6728 24.465676 135.26382 25.509766 132.58984 C 26.109766 130.93984 26.979141 127.91016 25.619141 126.41016 C 24.619141 125.30016 23.019922 124.58023 21.919922 123.49023 C 20.719322 122.31359 19.667233 120.99399 18.789062 119.56055 C 17.899076 118.11893 17.192635 116.57836 16.679688 114.97656 C 18.610772 116.98193 20.882811 118.64891 23.410156 119.88086 C 24.243526 120.33766 25.263872 119.7508 25.289062 118.80078 C 25.769253 113.26901 24.703522 107.77269 22.300781 102.88281 L 24.708984 104.81055 C 25.548984 105.48055 27.328828 104.88984 26.798828 103.58984 C 24.582519 98.0964 22.880962 92.414192 21.697266 86.617188 L 33.099609 101.14062 C 33.503579 101.54337 34.128471 101.62098 34.619141 101.33008 C 36.572706 100.0422 38.264243 98.425485 39.640625 96.574219 C 39.060359 100.3557 38.001676 104.05631 36.46875 107.58008 C 35.63093 108.88599 37.43485 110.2565 38.46875 109.09961 L 42.542969 105.59375 C 42.483207 109.55938 44.220467 113.41637 47.400391 115.99023 C 53.110391 120.68023 60.18875 118.10016 66.46875 116.16016 L 90.410156 108.75 C 96.110358 106.97743 103.20858 105.73257 107.67578 101.40039 C 112.48095 106.25768 120.09464 105.59124 126.44922 104.58008 C 136.8444 102.79886 147.38487 102.00113 157.92969 102.19922 C 168.54944 102.51587 179.10565 103.9612 189.41992 106.50977 C 194.49992 107.75977 199.41992 109.51086 204.41992 110.88086 C 209.00992 112.15086 214.14055 113.05961 218.81055 111.59961 C 223.22974 110.2523 227.68359 105.88151 228.81836 101.10938 C 228.84789 101.23533 228.88049 101.38071 228.91016 101.5 C 229.22016 102.75 229.4493 104.84 230.7793 105.5 C 231.49167 105.89057 232.3828 105.5273 232.61914 104.75 C 234.13767 100.02894 234.57946 95.0596 233.98242 90.183594 C 234.88558 92.010162 235.47095 93.9933 235.67969 96.050781 C 235.80969 97.330781 237.82891 97.880859 238.12891 96.380859 C 238.1617 96.214759 238.21855 96.060309 238.25977 95.898438 L 238.26953 95.900391 C 238.26866 95.891842 238.2665 95.883546 238.26562 95.875 C 239.46067 91.232271 243.99704 88.265805 246.46094 84.326172 C 247.02554 86.475894 247.61463 88.621281 247.45898 90.880859 C 247.14898 95.350859 244.57898 99.300709 242.20898 102.9707 C 241.49898 104.0707 242.86992 105.22969 243.91992 104.67969 C 247.34542 102.87127 250.44456 100.52597 253.12109 97.751953 C 252.19036 101.74432 250.19656 105.43845 247.31055 108.41992 C 244.71055 111.06992 240.49055 113.59064 241.06055 117.89062 C 241.71055 122.77062 246.38906 126.68102 249.78906 129.79102 C 251.13522 130.95064 252.57758 131.99349 254.09961 132.91016 C 267.24961 141.36016 281.01016 149.1 293.16016 159 C 302.41016 166.55 311.33039 174.53078 320.40039 182.30078 C 324.68039 185.97078 329.62875 189.56922 329.96875 195.69922 C 330.27875 201.35922 327.60891 206.86 324.62891 211.5 C 321.64891 216.14 317.91898 220.66086 314.45898 225.13086 C 310.63231 230.08419 306.78969 235.0307 302.92969 239.9707 C 295.38969 249.6307 287.7893 259.2307 280.0293 268.7207 C 275.71597 273.99403 271.35589 279.22039 266.94922 284.40039 C 263.17922 288.82039 258.79008 293.16953 256.33008 298.51953 C 253.75008 304.09953 254.54063 309.72953 255.89062 315.51953 C 256.97861 320.16216 258.31628 325.69911 256.45117 330.26758 C 255.12068 322.66941 253.20136 315.18523 250.71289 307.88086 C 250.71329 307.81694 250.71865 307.75339 250.71875 307.68945 L 250.65234 307.69922 C 250.62747 307.62652 250.60506 307.55313 250.58008 307.48047 C 250.17903 306.10321 248.15126 306.37626 248.12891 307.81055 C 248.12405 312.08581 247.38221 316.31031 245.97852 320.32031 C 245.6991 315.77979 244.92416 311.27734 243.64062 306.90039 C 243.32038 305.8614 241.92668 305.67817 241.34961 306.59961 C 236.85764 313.5245 233.86003 321.28979 232.50977 329.40039 C 229.69283 321.48762 231.2921 312.53019 236.98047 306.06055 C 237.84938 305.14597 236.98377 303.6638 235.75977 303.9707 C 227.63291 305.66351 220.99725 311.15689 217.69141 318.48828 C 218.49588 309.43652 225.42844 301.11109 234.56055 299.34961 C 235.92055 299.08961 235.63047 296.74039 234.23047 296.90039 L 222.95703 298.14648 C 225.04046 296.55629 227.72011 295.77186 230.23047 295 C 233.54047 294 237.00969 292.95065 239.67969 290.64062 C 246.86969 284.43063 244.76875 274.02936 243.46875 265.85938 C 240.26875 245.72938 242.14 224.15977 253 206.50977 C 258.27701 197.78129 265.70367 190.55119 274.57031 185.50977 C 276.00973 184.66962 274.74997 182.50946 273.31055 183.34961 L 273.33008 183.31055 C 257.46008 192.17055 246.75008 208.20914 242.33008 225.61914 C 239.81825 235.83996 239.0101 246.4068 239.93945 256.89062 C 240.36945 262.36064 241.50062 267.71039 242.14062 273.15039 C 242.68062 277.78039 242.58031 282.85008 239.82031 286.83008 C 234.82031 294.01008 223.59047 291.56914 218.73047 299.11914 C 218.24412 299.9526 218.84556 301.00029 219.81055 301 L 225.86133 300.33008 C 217.95124 305.70401 213.43765 315.97653 215.79883 325.49023 C 216.07883 326.62023 218.01898 326.75023 218.20898 325.49023 C 219.50706 317.17751 225.18597 310.33414 232.87891 307.41992 C 227.68361 315.50713 227.32165 325.93716 232.23047 334.44922 C 232.88972 335.51109 234.52624 335.06972 234.56055 333.82031 C 235.3393 325.5248 237.91899 317.51331 242.09766 310.33203 C 243.32582 315.47605 243.85799 320.76665 243.66016 326.06055 C 243.69446 327.30996 245.33098 327.75132 245.99023 326.68945 C 248.084 322.73058 249.48606 318.46401 250.18945 314.07031 C 252.1282 320.60925 253.6249 327.27331 254.66016 334.01953 C 254.92573 334.93315 256.06912 335.23486 256.75 334.57031 C 264.03 325.64031 256.43062 314.92984 257.14062 305.08984 C 257.56062 299.24984 261.50063 294.52953 265.14062 290.26953 C 269.19395 285.54953 273.20945 280.79953 277.18945 276.01953 C 292.79945 257.18953 307.92898 237.90969 322.70898 218.42969 C 328.36898 210.97969 335.70961 200.10938 331.34961 190.35938 C 329.23961 185.57937 324.50039 182.36102 320.65039 179.04102 L 306.11914 166.58984 C 298.9204 160.21247 291.38604 154.2245 283.54883 148.65039 C 276.64883 143.91039 269.54875 139.46102 262.46875 135.04102 C 256.77875 131.49102 251.33992 128.38102 246.91992 123.29102 C 244.72992 120.78102 242.30047 117.34102 244.73047 114.29102 C 246.40047 112.18102 248.72875 110.67984 250.46875 108.58984 C 253.96036 104.34268 255.9888 99.081794 256.25 93.589844 C 256.33 92.219844 254.59992 92.080938 253.91992 92.960938 C 251.98528 95.492891 249.70176 97.723964 247.15039 99.603516 C 248.46497 97.200838 249.52844 94.671122 249.90039 91.939453 C 250.54039 87.259453 247.98914 83.129531 248.11914 78.519531 L 248.04492 78.519531 C 247.97224 77.789748 247.39543 77.419922 246.81055 77.419922 z M 191.00977 127.30469 C 188.3083 127.36229 186.00336 127.73328 185.09961 128.55078 C 181.79961 131.53078 187.57945 134.94937 189.68945 135.60938 C 193.52945 136.79937 197.60047 137.39937 201.23047 135.60938 C 205.07047 133.70937 206.47969 130.63 203.17969 129 C 201.11719 127.98125 195.51221 127.20869 191.00977 127.30469 z M 79.849609 129.25977 C 75.929609 129.12977 71.299141 130.16047 70.119141 133.48047 C 68.139141 139.06047 78.69 138.42953 84 137.76953 C 89.31 137.10953 92.710469 132.24945 86.480469 129.93945 C 83.990469 129.01945 82.469609 129.34977 79.849609 129.25977 z M 82.355469 149.01953 C 80.99397 149.0136 80.496875 151.15156 81.96875 151.46094 L 81.980469 151.46094 C 85.140435 152.20202 88.319124 152.84849 91.511719 153.42578 L 94.929688 163.7793 C 95.293018 164.96836 96.976514 164.96836 97.339844 163.7793 L 98.46875 160.89844 L 99.060547 162.66992 C 99.450547 163.82992 99.769844 165.73 101.33984 165.75 C 102.90984 165.77 103.13977 163.95031 103.50977 162.82031 L 104.22461 160.64453 L 105.19922 162.46094 C 105.76993 163.38738 107.16883 163.2027 107.48047 162.16016 C 107.69956 161.36136 107.9897 160.58558 108.33984 159.83789 C 109.46996 161.88134 110.55747 163.94367 111.56055 166.04102 C 112.2198 167.10289 113.85631 166.65957 113.89062 165.41016 C 113.59697 162.0726 113.76979 158.71471 114.36523 155.41992 C 117.95411 155.28196 121.54262 155.00986 125.16016 154.81055 C 138.34144 154.0266 151.53867 154.72918 164.73047 154.73242 C 164.81916 157.56514 165.04948 160.3914 165.43945 163.19922 C 165.60945 164.40922 167.17047 164.2 167.73047 163.5 L 170.42188 159.9668 C 170.81386 160.84667 171.15798 161.74746 171.43945 162.66992 C 171.75644 163.7093 173.15166 163.88787 173.71875 162.96094 C 174.40428 162.05296 175.12715 161.15978 175.86523 160.27344 C 176.97645 162.12883 177.87616 164.10395 178.5293 166.16992 C 178.8793 167.25992 180.69945 167.44992 180.93945 166.16992 L 183.23438 154.01367 C 186.37856 153.72396 189.51596 153.34851 192.64062 152.88086 C 194.22062 152.63086 193.54875 150.2307 191.96875 150.4707 C 183.51087 151.80742 174.97479 152.18251 166.42773 152.22656 C 166.06853 152.06084 165.6471 152.06605 165.29102 152.23828 C 159.95782 152.24768 154.62079 152.1368 149.29883 152.05078 C 142.22883 151.93078 135.15008 151.85016 128.08008 152.16016 C 120.85008 152.48016 113.65039 153.38945 106.40039 152.93945 C 98.400391 152.43945 90.490625 150.74078 82.640625 149.05078 C 82.5425 149.03016 82.446235 149.01993 82.355469 149.01953 z M 19.015625 153.13281 L 76.757812 174.16797 L 61.845703 215.10352 L 61.605469 215.4082 L 61.705078 215.48633 L 55.115234 233.57617 C 50.529789 230.67359 46.160026 227.38657 41.759766 224.25977 C 39.97398 222.96113 38.142124 221.73143 36.277344 220.55664 C 36.419804 220.57629 36.561121 220.59961 36.708984 220.59961 C 38.454204 220.59961 39.869141 219.18467 39.869141 217.43945 C 39.869141 215.69424 38.454204 214.2793 36.708984 214.2793 C 34.963764 214.2793 33.548828 215.69424 33.548828 217.43945 C 33.548828 218.11041 33.762531 218.73053 34.119141 219.24219 C 30.909688 217.33246 27.597688 215.60353 24.193359 214.06641 C 24.676993 213.51129 24.980469 212.79406 24.980469 212 C 24.980469 210.25478 23.565533 208.83984 21.820312 208.83984 C 20.15141 208.83984 18.799935 210.13806 18.683594 211.77734 C 18.043031 211.5332 17.405686 211.28179 16.759766 211.05078 C 14.252182 210.225 11.721704 209.47823 9.1757812 208.78906 C 9.739556 208.21834 10.089844 207.43592 10.089844 206.57031 C 10.089844 204.82509 8.6749055 203.41016 6.9296875 203.41016 C 5.1844675 203.41016 3.7695313 204.82509 3.7695312 206.57031 C 3.7695312 206.8802 3.8270133 207.17405 3.9101562 207.45703 C 2.4676823 207.12246 1.0200979 206.80746 -0.43164062 206.51562 L 19.015625 153.13281 z M 94.308594 153.90625 C 97.358137 154.41054 100.41839 154.85658 103.49023 155.21094 C 106.27496 155.47907 109.04016 155.53934 111.80078 155.49219 C 111.54956 156.99825 111.38922 158.51623 111.3125 160.03906 C 110.70251 158.89766 110.08389 157.76064 109.43945 156.64062 C 108.9499 155.82595 107.76885 155.82595 107.2793 156.64062 C 106.82078 157.3264 106.42128 158.04656 106.07227 158.79102 L 105.0293 156.85938 C 104.45859 155.93293 103.06164 156.11762 102.75 157.16016 L 101.67969 160.42969 L 101.32031 161.51953 L 100.95898 160.43945 L 99.779297 156.91992 C 99.415967 155.73086 97.732471 155.73086 97.369141 156.91992 L 96.248047 159.78125 L 94.308594 153.90625 z M 180.65625 154.23242 L 179.30859 161.37891 C 178.66031 160.03709 177.91312 158.74375 177.07031 157.50977 C 176.64811 156.78895 175.65695 156.66506 175.07031 157.25977 C 174.34803 158.08141 173.65136 158.92308 172.9707 159.77539 C 172.58357 158.82644 172.14749 157.89783 171.65039 157 C 171.15903 156.19633 169.99136 156.19633 169.5 157 L 167.45508 159.68359 C 167.29697 158.03464 167.19726 156.38081 167.15234 154.72461 C 167.62489 154.72132 168.09779 154.72625 168.57031 154.7207 C 172.60481 154.70443 176.63612 154.54016 180.65625 154.23242 z M 23.181641 159.08789 C 20.785918 159.01304 19.109469 161.6433 20.369141 163.82812 C 21.712791 166.15861 25.168638 165.85149 26.080078 163.32031 C 26.593018 161.88176 26.003328 160.28144 24.679688 159.51953 L 23.798828 161.91992 L 22.798828 161.55078 L 23.669922 159.14062 C 23.504471 159.11066 23.341355 159.09288 23.181641 159.08789 z M 37.845703 164.51172 C 36.552225 164.5869 35.313426 165.43881 34.949219 166.9082 C 34.301739 169.52045 37.008212 171.69494 39.419922 170.5 C 40.776042 169.82313 41.463927 168.2813 41.060547 166.82031 L 38.759766 167.93945 L 38.279297 166.93945 L 40.580078 165.82031 C 39.891256 164.86527 38.851742 164.45325 37.845703 164.51172 z M 52.632812 169.98438 C 51.908106 170.03398 51.185341 170.33604 50.599609 170.93945 C 49.534439 172.03067 49.403323 173.72941 50.289062 174.9707 L 52.080078 173.14062 L 52.859375 173.91016 L 51.070312 175.74023 C 53.283602 177.2709 56.273949 175.51199 56.011719 172.83398 C 55.831442 170.99285 54.227168 169.87525 52.632812 169.98438 z M 18.404297 171.47266 L 15.089844 180.56445 L 11.068359 179.0957 L 10.638672 180.26953 L 8.953125 184.89258 L 12.974609 186.35938 L 9.2851562 196.47266 L 11.632812 197.32812 L 15.324219 187.21875 L 19.333984 188.68164 L 21.449219 182.88477 L 17.439453 181.42188 L 20.753906 172.32812 L 18.404297 171.47266 z M 68.011719 175.39453 C 67.472721 175.35031 66.917553 175.44409 66.400391 175.68945 L 67.900391 177.76953 L 67.009766 178.41016 L 65.509766 176.33008 C 63.619226 178.24449 64.833185 181.49483 67.515625 181.70117 C 70.198065 181.90751 71.895823 178.88025 70.320312 176.69922 C 69.7633 175.92468 68.910048 175.46823 68.011719 175.39453 z M 33.292969 176.90625 L 32.570312 178.90625 L 28.550781 177.43555 L 26.449219 183.23633 L 30.455078 184.69922 L 24.175781 201.91211 L 26.523438 202.76953 L 32.804688 185.55859 L 36.814453 187.02344 L 38.933594 181.22461 L 34.917969 179.76172 L 35.644531 177.75586 L 33.292969 176.90625 z M 33.318359 180.50977 L 32.892578 181.68555 L 35.724609 182.7168 L 35.324219 183.81641 L 29.648438 181.74414 L 30.046875 180.64453 L 32.890625 181.68359 L 33.318359 180.50977 z M 12.558594 182.30078 L 18.242188 184.37695 L 17.841797 185.47461 L 12.158203 183.40039 L 12.558594 182.30078 z M 48.185547 182.3418 L 43.253906 195.85547 L 39.244141 194.38672 L 37.126953 200.18555 L 41.144531 201.65234 L 39.064453 207.3418 L 41.414062 208.19922 L 43.492188 202.50977 L 47.503906 203.97266 L 49.623047 198.17383 L 45.603516 196.71289 L 50.533203 183.19922 L 48.185547 182.3418 z M 90.650391 182.46484 L 138.98438 220.41211 L 120.98047 243.3457 C 120.91776 243.21279 120.82913 243.08588 120.69922 242.9707 C 115.06156 237.93563 107.36215 235.94074 100.06836 236.92383 C 99.962284 235.2416 98.499684 233.73373 96.542969 233.96289 C 94.255717 234.23077 93.169529 236.65072 94.058594 238.47852 C 91.702891 239.39272 89.468851 240.63476 87.472656 242.24805 C 87.349719 239.3114 88.993313 236.4891 91.789062 235.21094 C 92.715503 234.64023 92.532774 233.24133 91.490234 232.92969 C 87.110234 231.78969 83.419922 234.34047 80.169922 236.98047 C 79.246904 237.85347 78.222065 238.60263 77.132812 239.24414 C 77.091365 237.535 75.699587 236.16016 73.980469 236.16016 C 72.235249 236.16016 70.820312 237.57509 70.820312 239.32031 C 70.820312 239.8308 70.953006 240.30561 71.167969 240.73242 C 69.406094 240.51893 67.659734 239.88453 66.048828 239.25977 C 62.991642 238.07523 60.096553 236.57427 57.289062 234.91016 L 58.738281 230.93164 C 59.261712 231.95365 60.31192 232.66016 61.539062 232.66016 C 63.284282 232.66016 64.699219 231.24522 64.699219 229.5 C 64.699219 227.75478 63.284282 226.33984 61.539062 226.33984 C 61.107106 226.33984 60.697295 226.42709 60.322266 226.58398 L 64.054688 216.33984 L 90.650391 182.46484 z M 63.085938 187.77148 L 60.615234 194.52734 L 56.605469 193.06836 L 54.484375 198.85547 L 58.496094 200.32031 L 53.955078 212.7832 L 56.304688 213.63867 L 60.84375 201.17578 L 64.863281 202.64258 L 66.982422 196.85547 L 62.962891 195.38672 L 65.433594 188.62891 L 63.085938 187.77148 z M 91.640625 189.32031 C 89.895405 189.32031 88.480469 190.73525 88.480469 192.48047 C 88.480469 194.22569 89.895405 195.64062 91.640625 195.64062 C 93.385845 195.64063 94.798828 194.22569 94.798828 192.48047 C 94.798828 190.73525 93.385845 189.32031 91.640625 189.32031 z M 58.09375 196.27148 L 60.929688 197.30469 L 60.931641 197.30469 L 63.775391 198.3457 L 63.375 199.4375 L 57.693359 197.36523 L 58.09375 196.27148 z M 43.962891 197.55859 L 43.572266 198.63477 L 46.416016 199.66797 L 46.013672 200.76758 L 40.333984 198.69531 L 40.734375 197.5957 L 43.568359 198.63477 L 43.962891 197.55859 z M 104.08008 199.14062 C 102.33486 199.14062 100.91992 200.55556 100.91992 202.30078 C 100.91992 204.046 102.33486 205.46094 104.08008 205.46094 C 105.8253 205.46094 107.24023 204.046 107.24023 202.30078 C 107.24023 200.55556 105.8253 199.14062 104.08008 199.14062 z M 81.830078 201.7793 C 80.084858 201.7793 78.669922 203.19424 78.669922 204.93945 C 78.669922 206.68467 80.084858 208.09961 81.830078 208.09961 C 83.575298 208.09961 84.990234 206.68467 84.990234 204.93945 C 84.990234 203.19424 83.575298 201.7793 81.830078 201.7793 z M 116.51953 208.96094 C 114.77431 208.96094 113.35938 210.37392 113.35938 212.11914 C 113.35937 213.86436 114.77431 215.2793 116.51953 215.2793 C 118.26475 215.2793 119.67969 213.86436 119.67969 212.11914 C 119.67969 210.37392 118.26475 208.96094 116.51953 208.96094 z M 94.279297 211.60938 C 92.534077 211.60938 91.119141 213.02431 91.119141 214.76953 C 91.119141 216.51475 92.534077 217.92969 94.279297 217.92969 C 96.024517 217.92969 97.439453 216.51475 97.439453 214.76953 C 97.439453 213.02431 96.024517 211.60938 94.279297 211.60938 z M 72.029297 214.25 C 70.284077 214.25 68.869141 215.66494 68.869141 217.41016 C 68.869141 219.15538 70.284077 220.57031 72.029297 220.57031 C 73.774517 220.57031 75.189453 219.15538 75.189453 217.41016 C 75.189453 215.66494 73.774517 214.25 72.029297 214.25 z M 128.95898 218.79102 C 127.21376 218.79102 125.79883 220.204 125.79883 221.94922 C 125.79883 223.69444 127.21376 225.10938 128.95898 225.10938 C 130.7042 225.10938 132.11914 223.69444 132.11914 221.94922 C 132.11914 220.204 130.7042 218.79102 128.95898 218.79102 z M 51.599609 219.71094 C 49.854389 219.71094 48.439453 221.12392 48.439453 222.86914 C 48.439453 224.61436 49.854389 226.0293 51.599609 226.0293 C 53.344829 226.0293 54.759766 224.61436 54.759766 222.86914 C 54.759766 221.12392 53.344829 219.71094 51.599609 219.71094 z M 106.71875 221.42969 C 104.97353 221.42969 103.56055 222.84462 103.56055 224.58984 C 103.56055 226.33506 104.97353 227.75 106.71875 227.75 C 108.46397 227.75 109.87891 226.33506 109.87891 224.58984 C 109.87891 222.84462 108.46397 221.42969 106.71875 221.42969 z M 84.46875 224.07031 C 82.72353 224.07031 81.310547 225.48525 81.310547 227.23047 C 81.310547 228.97569 82.72353 230.39062 84.46875 230.39062 C 86.21397 230.39063 87.628906 228.97569 87.628906 227.23047 C 87.628906 225.48525 86.21397 224.07031 84.46875 224.07031 z M 119.16016 231.25 C 117.41495 231.25 116 232.66494 116 234.41016 C 116 236.15538 117.41495 237.57031 119.16016 237.57031 C 120.90538 237.57031 122.32031 236.15538 122.32031 234.41016 C 122.32031 232.66494 120.90538 231.25 119.16016 231.25 z M 113.95117 244.29102 C 115.79959 244.33933 117.65726 244.59276 119.49023 245.06055 C 119.53683 245.0723 119.58088 245.06434 119.62695 245.07031 L 114.47656 251.62891 C 109.26825 250.10889 103.87901 249.26853 98.439453 249.16211 C 100.93745 247.32301 103.73808 245.99949 106.67969 245.19336 C 106.37308 245.68031 106.18945 246.2512 106.18945 246.86914 C 106.18945 248.61436 107.60439 250.0293 109.34961 250.0293 C 111.09483 250.0293 112.50977 248.61436 112.50977 246.86914 C 112.50977 245.85296 112.0226 244.95892 111.27734 244.38086 C 112.16472 244.30894 113.05595 244.26762 113.95117 244.29102 z M 140.45312 292.60352 C 140.15047 292.58664 139.83555 292.70227 139.56055 293.00977 C 138.26367 294.40394 136.89855 295.73096 135.49609 297.01562 L 131.91992 293.25977 C 130.80992 292.08977 129.05016 293.8593 130.16016 295.0293 L 130.16016 295.06055 L 133.61133 298.68164 C 132.16186 299.91832 130.67445 301.11243 129.12891 302.23047 C 128.55467 302.59498 128.35926 303.3395 128.67969 303.93945 C 129.03107 304.53137 129.7934 304.73291 130.39062 304.39062 C 132.09799 303.16578 133.73874 301.85602 135.33398 300.49219 L 136.61914 301.83984 L 138.25 303.56055 C 138.70191 304.18459 139.32695 304.66035 140.04883 304.92969 C 141.0049 305.16121 141.92851 304.44459 141.93945 303.46094 C 141.98451 302.50802 141.11526 301.78744 140.19531 301.98047 L 139.94922 301.7207 L 138.7793 300.49023 L 137.21094 298.82617 C 138.63033 297.52688 140.0147 296.18685 141.33008 294.7793 C 142.14758 293.9018 141.36109 292.65414 140.45312 292.60352 z " />
  </g>
</svg>
