M48
; DRILL file {KiCad 5.1.9+dfsg1-1} date Wed Oct 27 13:30:08 2021
; FORMAT={-:-/ absolute / metric / decimal}
; #@! TF.CreationDate,2021-10-27T13:30:08+02:00
; #@! TF.GenerationSoftware,Kicad,Pcbnew,5.1.9+dfsg1-1
; #@! TF.FileFunction,Plated,1,4,PTH
FMAT,2
METRIC
T1C0.300
T2C0.500
T3C0.600
T4C0.650
T5C0.750
T6C1.000
T7C1.300
T8C2.200
%
G90
G05
T1
X51.5Y-100.0
X51.5Y-102.0
X53.5Y-98.0
X53.5Y-145.0
X53.5Y-143.0
X59.095Y-51.825
X59.095Y-52.925
X59.995Y-56.185
X59.995Y-63.805
X60.895Y-51.825
X65.075Y-52.072
X65.075Y-53.947
X65.71Y-98.095
X65.71Y-101.905
X68.885Y-63.17
X68.885Y-95.555
X68.885Y-104.445
X70.155Y-95.555
X70.155Y-104.445
X71.425Y-104.445
X72.06Y-93.65
X72.5Y-57.0
X72.695Y-58.09
X73.647Y-69.52
X74.282Y-70.155
X74.6Y-93.65
X75.87Y-66.043
X75.87Y-67.918
X76.822Y-70.155
X77.457Y-69.52
X77.775Y-61.265
X77.775Y-95.555
X81.585Y-52.072
X81.585Y-53.947
X84.125Y-56.185
X85.395Y-59.058
X85.765Y-52.925
X86.665Y-63.805
X87.565Y-51.825
X88.0Y-99.5
X89.205Y-56.185
X89.5Y-102.5
X92.75Y-92.75
X93.3Y-124.3
X93.4Y-122.9
X94.285Y-111.43
X94.5Y-97.0
X94.5Y-99.0
X94.5Y-105.0
X95.0Y-120.2
X95.25Y-90.5
X95.555Y-115.24
X95.7Y-56.7
X95.75Y-53.527
X96.0Y-89.75
X96.0Y-90.5
X96.0Y-120.5
X96.25Y-57.5
X96.25Y-101.0
X96.25Y-105.0
X96.5Y-95.0
X97.0Y-112.7
X97.0Y-140.5
X97.25Y-57.5
X97.5Y-65.5
X97.75Y-118.0
X98.0Y-90.0
X98.0Y-99.0
X98.0Y-105.0
X98.005Y-111.43
X98.027Y-59.0
X98.027Y-59.75
X98.095Y-112.7
X98.25Y-54.75
X98.25Y-57.75
X98.25Y-61.25
X98.25Y-63.5
X98.3Y-145.2
X98.5Y-52.75
X99.221Y-54.75
X99.365Y-112.7
X99.365Y-113.97
X99.455Y-111.43
X99.7Y-129.8
X99.745Y-65.5
X99.8Y-128.6
X99.948Y-52.698
X100.0Y-66.5
X100.0Y-67.25
X100.0Y-89.5
X100.0Y-90.5
X100.0Y-94.0
X100.0Y-95.0
X100.0Y-96.0
X100.0Y-106.0
X100.5Y-120.0
X101.25Y-57.75
X101.542Y-52.638
X101.7Y-145.2
X101.75Y-61.25
X101.8Y-54.7
X102.0Y-90.5
X102.0Y-58.75
X102.0Y-95.0
X102.0Y-99.0
X102.0Y-104.0
X102.027Y-89.5
X102.25Y-68.0
X102.25Y-118.0
X102.75Y-57.5
X103.0Y-63.0
X103.05Y-110.16
X103.6Y-115.24
X103.7Y-99.1
X103.75Y-57.5
X103.75Y-95.0
X104.0Y-144.0
X104.25Y-122.25
X104.3Y-56.7
X104.495Y-123.495
X104.5Y-124.75
X104.973Y-89.973
X105.0Y-110.5
X105.0Y-127.0
X105.0Y-131.25
X105.0Y-146.0
X105.5Y-94.0
X105.5Y-95.0
X105.5Y-97.0
X105.5Y-99.0
X105.5Y-100.0
X105.5Y-101.0
X105.5Y-103.0
X105.5Y-105.0
X105.75Y-90.5
X106.0Y-84.0
X109.5Y-100.5
X112.435Y-52.925
X113.335Y-56.185
X113.335Y-63.805
X114.235Y-51.825
X118.415Y-52.072
X118.415Y-53.947
X122.225Y-95.555
X122.225Y-104.445
X123.495Y-95.555
X123.495Y-104.445
X124.13Y-66.028
X124.13Y-66.98
X124.13Y-68.25
X124.195Y-56.82
X124.195Y-58.09
X124.765Y-104.445
X125.4Y-93.65
X126.0Y-57.0
X126.352Y-66.028
X126.987Y-66.98
X127.622Y-68.25
X127.94Y-93.65
X129.145Y-61.9
X129.145Y-64.44
X129.21Y-66.043
X129.21Y-67.918
X131.115Y-95.555
X134.29Y-98.095
X134.29Y-101.905
X134.925Y-52.072
X134.925Y-53.947
X137.465Y-56.185
X138.735Y-59.057
X139.105Y-52.925
X140.005Y-63.805
X140.905Y-51.825
X140.905Y-52.925
X142.545Y-56.185
X145.0Y-147.5
X145.0Y-144.5
X145.5Y-101.5
X147.0Y-100.0
X148.0Y-100.0
X149.0Y-101.0
T2
X60.0Y-98.0
X60.0Y-102.0
X140.0Y-98.0
X140.0Y-102.0
T4
X97.46Y-84.6
X97.46Y-85.87
X98.73Y-84.6
X98.73Y-85.87
X100.0Y-84.6
X100.0Y-85.87
X101.27Y-84.6
X101.27Y-85.87
X102.54Y-84.6
X102.54Y-85.87
T5
X97.85Y-146.5
X102.15Y-146.5
T6
X53.51Y-67.83
X53.51Y-78.83
X53.51Y-121.17
X53.51Y-132.17
X57.455Y-52.995
X57.455Y-67.495
X59.995Y-67.495
X62.535Y-52.995
X62.535Y-67.495
X67.83Y-53.51
X67.83Y-146.49
X78.83Y-53.51
X78.83Y-146.49
X84.125Y-52.995
X84.125Y-67.495
X86.665Y-67.495
X89.205Y-52.995
X89.205Y-67.495
X110.795Y-52.995
X110.795Y-67.495
X113.335Y-67.495
X115.875Y-52.995
X115.875Y-67.495
X121.17Y-53.51
X121.17Y-146.49
X132.17Y-53.51
X132.17Y-146.49
X137.465Y-52.995
X137.465Y-67.495
X140.005Y-67.495
X142.545Y-52.995
X142.545Y-67.495
X146.49Y-67.83
X146.49Y-78.83
X146.49Y-121.17
X146.49Y-132.17
T7
X58.245Y-73.1
X61.745Y-73.1
X61.745Y-146.9
X84.915Y-73.1
X88.415Y-73.1
X88.415Y-146.9
X111.585Y-73.1
X115.085Y-73.1
X115.085Y-146.9
X138.255Y-73.1
X141.755Y-73.1
X141.755Y-146.9
T8
X53.495Y-59.995
X66.495Y-59.995
X80.165Y-59.995
X93.165Y-59.995
X106.835Y-59.995
X119.835Y-59.995
X133.505Y-59.995
X146.505Y-59.995
T2
G00X52.61Y-69.83
M15
G01X53.41Y-69.83
M16
G05
G00X52.61Y-70.83
M15
G01X53.41Y-70.83
M16
G05
G00X52.61Y-71.83
M15
G01X53.41Y-71.83
M16
G05
G00X52.61Y-72.83
M15
G01X53.41Y-72.83
M16
G05
G00X52.61Y-73.83
M15
G01X53.41Y-73.83
M16
G05
G00X52.61Y-74.83
M15
G01X53.41Y-74.83
M16
G05
G00X52.61Y-75.83
M15
G01X53.41Y-75.83
M16
G05
G00X52.61Y-76.83
M15
G01X53.41Y-76.83
M16
G05
G00X52.61Y-123.17
M15
G01X53.41Y-123.17
M16
G05
G00X52.61Y-124.17
M15
G01X53.41Y-124.17
M16
G05
G00X52.61Y-125.17
M15
G01X53.41Y-125.17
M16
G05
G00X52.61Y-126.17
M15
G01X53.41Y-126.17
M16
G05
G00X52.61Y-127.17
M15
G01X53.41Y-127.17
M16
G05
G00X52.61Y-128.17
M15
G01X53.41Y-128.17
M16
G05
G00X52.61Y-129.17
M15
G01X53.41Y-129.17
M16
G05
G00X52.61Y-130.17
M15
G01X53.41Y-130.17
M16
G05
G00X69.83Y-52.61
M15
G01X69.83Y-53.41
M16
G05
G00X69.83Y-147.39
M15
G01X69.83Y-146.59
M16
G05
G00X70.83Y-52.61
M15
G01X70.83Y-53.41
M16
G05
G00X70.83Y-147.39
M15
G01X70.83Y-146.59
M16
G05
G00X71.83Y-52.61
M15
G01X71.83Y-53.41
M16
G05
G00X71.83Y-147.39
M15
G01X71.83Y-146.59
M16
G05
G00X72.83Y-52.61
M15
G01X72.83Y-53.41
M16
G05
G00X72.83Y-147.39
M15
G01X72.83Y-146.59
M16
G05
G00X73.83Y-52.61
M15
G01X73.83Y-53.41
M16
G05
G00X73.83Y-147.39
M15
G01X73.83Y-146.59
M16
G05
G00X74.83Y-52.61
M15
G01X74.83Y-53.41
M16
G05
G00X74.83Y-147.39
M15
G01X74.83Y-146.59
M16
G05
G00X75.83Y-52.61
M15
G01X75.83Y-53.41
M16
G05
G00X75.83Y-147.39
M15
G01X75.83Y-146.59
M16
G05
G00X76.83Y-52.61
M15
G01X76.83Y-53.41
M16
G05
G00X76.83Y-147.39
M15
G01X76.83Y-146.59
M16
G05
G00X95.68Y-51.2
M15
G01X95.68Y-50.8
M16
G05
G00X95.68Y-55.53
M15
G01X95.68Y-54.83
M16
G05
G00X104.32Y-51.2
M15
G01X104.32Y-50.8
M16
G05
G00X104.32Y-55.53
M15
G01X104.32Y-54.83
M16
G05
G00X123.17Y-52.61
M15
G01X123.17Y-53.41
M16
G05
G00X123.17Y-147.39
M15
G01X123.17Y-146.59
M16
G05
G00X124.17Y-52.61
M15
G01X124.17Y-53.41
M16
G05
G00X124.17Y-147.39
M15
G01X124.17Y-146.59
M16
G05
G00X125.17Y-52.61
M15
G01X125.17Y-53.41
M16
G05
G00X125.17Y-147.39
M15
G01X125.17Y-146.59
M16
G05
G00X126.17Y-52.61
M15
G01X126.17Y-53.41
M16
G05
G00X126.17Y-147.39
M15
G01X126.17Y-146.59
M16
G05
G00X127.17Y-52.61
M15
G01X127.17Y-53.41
M16
G05
G00X127.17Y-147.39
M15
G01X127.17Y-146.59
M16
G05
G00X128.17Y-52.61
M15
G01X128.17Y-53.41
M16
G05
G00X128.17Y-147.39
M15
G01X128.17Y-146.59
M16
G05
G00X129.17Y-52.61
M15
G01X129.17Y-53.41
M16
G05
G00X129.17Y-147.39
M15
G01X129.17Y-146.59
M16
G05
G00X130.17Y-52.61
M15
G01X130.17Y-53.41
M16
G05
G00X130.17Y-147.39
M15
G01X130.17Y-146.59
M16
G05
G00X147.39Y-69.83
M15
G01X146.59Y-69.83
M16
G05
G00X147.39Y-70.83
M15
G01X146.59Y-70.83
M16
G05
G00X147.39Y-71.83
M15
G01X146.59Y-71.83
M16
G05
G00X147.39Y-72.83
M15
G01X146.59Y-72.83
M16
G05
G00X147.39Y-73.83
M15
G01X146.59Y-73.83
M16
G05
G00X147.39Y-74.83
M15
G01X146.59Y-74.83
M16
G05
G00X147.39Y-75.83
M15
G01X146.59Y-75.83
M16
G05
G00X147.39Y-76.83
M15
G01X146.59Y-76.83
M16
G05
G00X147.39Y-123.17
M15
G01X146.59Y-123.17
M16
G05
G00X147.39Y-124.17
M15
G01X146.59Y-124.17
M16
G05
G00X147.39Y-125.17
M15
G01X146.59Y-125.17
M16
G05
G00X147.39Y-126.17
M15
G01X146.59Y-126.17
M16
G05
G00X147.39Y-127.17
M15
G01X146.59Y-127.17
M16
G05
G00X147.39Y-128.17
M15
G01X146.59Y-128.17
M16
G05
G00X147.39Y-129.17
M15
G01X146.59Y-129.17
M16
G05
G00X147.39Y-130.17
M15
G01X146.59Y-130.17
M16
G05
T3
G00X55.745Y-76.95
M15
G01X55.745Y-77.85
M16
G05
G00X55.745Y-142.15
M15
G01X55.745Y-143.05
M16
G05
G00X64.245Y-78.15
M15
G01X64.245Y-79.05
M16
G05
G00X64.245Y-140.95
M15
G01X64.245Y-141.85
M16
G05
G00X82.415Y-76.95
M15
G01X82.415Y-77.85
M16
G05
G00X82.415Y-142.15
M15
G01X82.415Y-143.05
M16
G05
G00X90.915Y-78.15
M15
G01X90.915Y-79.05
M16
G05
G00X90.915Y-140.95
M15
G01X90.915Y-141.85
M16
G05
G00X109.085Y-76.95
M15
G01X109.085Y-77.85
M16
G05
G00X109.085Y-142.15
M15
G01X109.085Y-143.05
M16
G05
G00X117.585Y-78.15
M15
G01X117.585Y-79.05
M16
G05
G00X117.585Y-140.95
M15
G01X117.585Y-141.85
M16
G05
G00X135.755Y-76.95
M15
G01X135.755Y-77.85
M16
G05
G00X135.755Y-142.15
M15
G01X135.755Y-143.05
M16
G05
G00X144.255Y-78.15
M15
G01X144.255Y-79.05
M16
G05
G00X144.255Y-140.95
M15
G01X144.255Y-141.85
M16
G05
T0
M30
