M48
; DRILL file {KiCad (5.1.6)-1} date 12/31/20 12:37:15
; FORMAT={-:-/ absolute / inch / decimal}
; #@! TF.CreationDate,2020-12-31T12:37:15+01:00
; #@! TF.GenerationSoftware,Kicad,Pcbnew,(5.1.6)-1
FMAT,2
INCH
T1C0.0157
T2C0.0394
%
G90
G05
T1
X2.1949Y-5.1181
X2.1949Y-2.5591
X2.1949Y-2.9528
X2.1949Y-3.1496
X2.1949Y-3.7402
X2.1949Y-4.1339
X2.1949Y-4.3307
X2.1949Y-4.5276
X2.1949Y-4.7244
X2.1949Y-4.9213
X2.1949Y-5.315
X2.1949Y-3.937
X2.1949Y-3.5433
X2.1949Y-2.7559
X2.1949Y-3.3465
X2.2441Y-5.5118
X2.2933Y-2.3622
X2.2933Y-2.5591
X2.2933Y-2.7559
X2.2933Y-2.9528
X2.2933Y-3.1496
X2.2933Y-3.5433
X2.2933Y-3.7402
X2.2933Y-3.937
X2.2933Y-4.1339
X2.2933Y-4.3307
X2.2933Y-4.5276
X2.2933Y-4.7244
X2.2933Y-4.9213
X2.2933Y-5.1181
X2.2933Y-5.3155
X2.2938Y-3.347
X2.3622Y-2.2441
X2.3622Y-5.5807
X2.5586Y-2.2933
X2.5591Y-2.1949
X2.5591Y-5.5807
X2.5591Y-5.6791
X2.7559Y-2.1949
X2.7559Y-2.2933
X2.7559Y-5.5807
X2.7559Y-5.6791
X2.9528Y-2.1949
X2.9528Y-2.2933
X2.9528Y-5.5807
X2.9528Y-5.6791
X3.1496Y-2.1949
X3.1496Y-2.2933
X3.1496Y-5.5807
X3.1496Y-5.6791
X3.3465Y-2.1949
X3.3465Y-2.2933
X3.3465Y-5.6791
X3.347Y-5.5802
X3.5433Y-2.1949
X3.5433Y-2.2933
X3.5433Y-5.5807
X3.5433Y-5.6791
X3.7402Y-2.1949
X3.7402Y-2.2933
X3.7402Y-5.5807
X3.7402Y-5.6791
X3.937Y-2.1949
X3.937Y-2.2933
X3.937Y-5.5807
X3.937Y-5.6791
X4.1339Y-2.1949
X4.1339Y-2.2933
X4.1339Y-5.5807
X4.1339Y-5.6791
X4.3307Y-2.1949
X4.3307Y-2.2933
X4.3307Y-5.5807
X4.3307Y-5.6791
X4.5271Y-2.2938
X4.5276Y-2.1949
X4.5276Y-5.5807
X4.5276Y-5.6791
X4.7244Y-2.1949
X4.7244Y-2.2933
X4.7244Y-5.5807
X4.7244Y-5.6791
X4.9213Y-2.1949
X4.9213Y-2.2933
X4.9213Y-5.5807
X4.9213Y-5.6791
X5.1181Y-2.1949
X5.1181Y-2.2933
X5.1181Y-5.5807
X5.1181Y-5.6791
X5.315Y-2.1949
X5.315Y-2.2933
X5.315Y-5.6791
X5.3155Y-5.5807
X5.5118Y-2.2933
X5.5118Y-5.6299
X5.5802Y-4.5271
X5.5807Y-2.5586
X5.5807Y-2.7559
X5.5807Y-2.9528
X5.5807Y-3.1496
X5.5807Y-3.3465
X5.5807Y-3.5433
X5.5807Y-3.7402
X5.5807Y-3.937
X5.5807Y-4.1339
X5.5807Y-4.3307
X5.5807Y-4.7244
X5.5807Y-4.9213
X5.5807Y-5.1181
X5.5807Y-5.315
X5.5807Y-5.5118
X5.6299Y-2.3622
X5.6791Y-4.5276
X5.6791Y-5.1181
X5.6791Y-4.3307
X5.6791Y-3.937
X5.6791Y-2.5591
X5.6791Y-2.9528
X5.6791Y-3.1496
X5.6791Y-3.3465
X5.6791Y-3.5433
X5.6791Y-3.7402
X5.6791Y-4.1339
X5.6791Y-4.7244
X5.6791Y-4.9213
X5.6791Y-5.315
X5.6791Y-2.7559
T2
X3.837Y-2.5098
X3.937Y-2.5098
X4.037Y-2.5098
T0
M30
