G04 #@! TF.GenerationSoftware,KiCad,Pcbnew,(5.1.6)-1*
G04 #@! TF.CreationDate,2020-12-31T12:37:09+01:00*
G04 #@! TF.ProjectId,XY_LED,58595f4c-4544-42e6-9b69-6361645f7063,rev?*
G04 #@! TF.SameCoordinates,Original*
G04 #@! TF.FileFunction,Legend,Top*
G04 #@! TF.FilePolarity,Positive*
%FSLAX46Y46*%
G04 Gerber Fmt 4.6, Leading zero omitted, Abs format (unit mm)*
G04 Created by KiCad (PCBNEW (5.1.6)-1) date 2020-12-31 12:37:09*
%MOMM*%
%LPD*%
G01*
G04 APERTURE LIST*
%ADD10C,0.300000*%
%ADD11C,0.120000*%
%ADD12C,0.500000*%
G04 APERTURE END LIST*
D10*
X96250000Y-131628571D02*
X97250000Y-133128571D01*
X97250000Y-131628571D02*
X96250000Y-133128571D01*
X98107142Y-132414285D02*
X98107142Y-133128571D01*
X97607142Y-131628571D02*
X98107142Y-132414285D01*
X98607142Y-131628571D01*
X98750000Y-133271428D02*
X99892857Y-133271428D01*
X100964285Y-133128571D02*
X100250000Y-133128571D01*
X100250000Y-131628571D01*
X101464285Y-132342857D02*
X101964285Y-132342857D01*
X102178571Y-133128571D02*
X101464285Y-133128571D01*
X101464285Y-131628571D01*
X102178571Y-131628571D01*
X102821428Y-133128571D02*
X102821428Y-131628571D01*
X103178571Y-131628571D01*
X103392857Y-131700000D01*
X103535714Y-131842857D01*
X103607142Y-131985714D01*
X103678571Y-132271428D01*
X103678571Y-132485714D01*
X103607142Y-132771428D01*
X103535714Y-132914285D01*
X103392857Y-133057142D01*
X103178571Y-133128571D01*
X102821428Y-133128571D01*
X89750000Y-134892857D02*
X90250000Y-134892857D01*
X90464285Y-135678571D02*
X89750000Y-135678571D01*
X89750000Y-134178571D01*
X90464285Y-134178571D01*
X91107142Y-134892857D02*
X91607142Y-134892857D01*
X91821428Y-135678571D02*
X91107142Y-135678571D01*
X91107142Y-134178571D01*
X91821428Y-134178571D01*
X92464285Y-135535714D02*
X92535714Y-135607142D01*
X92464285Y-135678571D01*
X92392857Y-135607142D01*
X92464285Y-135535714D01*
X92464285Y-135678571D01*
X92464285Y-134750000D02*
X92535714Y-134821428D01*
X92464285Y-134892857D01*
X92392857Y-134821428D01*
X92464285Y-134750000D01*
X92464285Y-134892857D01*
X94250000Y-135607142D02*
X94464285Y-135678571D01*
X94821428Y-135678571D01*
X94964285Y-135607142D01*
X95035714Y-135535714D01*
X95107142Y-135392857D01*
X95107142Y-135250000D01*
X95035714Y-135107142D01*
X94964285Y-135035714D01*
X94821428Y-134964285D01*
X94535714Y-134892857D01*
X94392857Y-134821428D01*
X94321428Y-134750000D01*
X94250000Y-134607142D01*
X94250000Y-134464285D01*
X94321428Y-134321428D01*
X94392857Y-134250000D01*
X94535714Y-134178571D01*
X94892857Y-134178571D01*
X95107142Y-134250000D01*
X96392857Y-134678571D02*
X96392857Y-135678571D01*
X95750000Y-134678571D02*
X95750000Y-135464285D01*
X95821428Y-135607142D01*
X95964285Y-135678571D01*
X96178571Y-135678571D01*
X96321428Y-135607142D01*
X96392857Y-135535714D01*
X97107142Y-135678571D02*
X97107142Y-134178571D01*
X97250000Y-135107142D02*
X97678571Y-135678571D01*
X97678571Y-134678571D02*
X97107142Y-135250000D01*
X98964285Y-134678571D02*
X98964285Y-135678571D01*
X98321428Y-134678571D02*
X98321428Y-135464285D01*
X98392857Y-135607142D01*
X98535714Y-135678571D01*
X98750000Y-135678571D01*
X98892857Y-135607142D01*
X98964285Y-135535714D01*
X100750000Y-134321428D02*
X100821428Y-134250000D01*
X100964285Y-134178571D01*
X101321428Y-134178571D01*
X101464285Y-134250000D01*
X101535714Y-134321428D01*
X101607142Y-134464285D01*
X101607142Y-134607142D01*
X101535714Y-134821428D01*
X100678571Y-135678571D01*
X101607142Y-135678571D01*
X102535714Y-134178571D02*
X102678571Y-134178571D01*
X102821428Y-134250000D01*
X102892857Y-134321428D01*
X102964285Y-134464285D01*
X103035714Y-134750000D01*
X103035714Y-135107142D01*
X102964285Y-135392857D01*
X102892857Y-135535714D01*
X102821428Y-135607142D01*
X102678571Y-135678571D01*
X102535714Y-135678571D01*
X102392857Y-135607142D01*
X102321428Y-135535714D01*
X102250000Y-135392857D01*
X102178571Y-135107142D01*
X102178571Y-134750000D01*
X102250000Y-134464285D01*
X102321428Y-134321428D01*
X102392857Y-134250000D01*
X102535714Y-134178571D01*
X103607142Y-134321428D02*
X103678571Y-134250000D01*
X103821428Y-134178571D01*
X104178571Y-134178571D01*
X104321428Y-134250000D01*
X104392857Y-134321428D01*
X104464285Y-134464285D01*
X104464285Y-134607142D01*
X104392857Y-134821428D01*
X103535714Y-135678571D01*
X104464285Y-135678571D01*
X105392857Y-134178571D02*
X105535714Y-134178571D01*
X105678571Y-134250000D01*
X105750000Y-134321428D01*
X105821428Y-134464285D01*
X105892857Y-134750000D01*
X105892857Y-135107142D01*
X105821428Y-135392857D01*
X105750000Y-135535714D01*
X105678571Y-135607142D01*
X105535714Y-135678571D01*
X105392857Y-135678571D01*
X105250000Y-135607142D01*
X105178571Y-135535714D01*
X105107142Y-135392857D01*
X105035714Y-135107142D01*
X105035714Y-134750000D01*
X105107142Y-134464285D01*
X105178571Y-134321428D01*
X105250000Y-134250000D01*
X105392857Y-134178571D01*
X107607142Y-134107142D02*
X106321428Y-136035714D01*
X108892857Y-135678571D02*
X108035714Y-135678571D01*
X108464285Y-135678571D02*
X108464285Y-134178571D01*
X108321428Y-134392857D01*
X108178571Y-134535714D01*
X108035714Y-134607142D01*
X109464285Y-134321428D02*
X109535714Y-134250000D01*
X109678571Y-134178571D01*
X110035714Y-134178571D01*
X110178571Y-134250000D01*
X110250000Y-134321428D01*
X110321428Y-134464285D01*
X110321428Y-134607142D01*
X110250000Y-134821428D01*
X109392857Y-135678571D01*
X110321428Y-135678571D01*
X93857142Y-136728571D02*
X93857142Y-137800000D01*
X93785714Y-138014285D01*
X93642857Y-138157142D01*
X93428571Y-138228571D01*
X93285714Y-138228571D01*
X95285714Y-138228571D02*
X94571428Y-138228571D01*
X94571428Y-136728571D01*
X96642857Y-138085714D02*
X96571428Y-138157142D01*
X96357142Y-138228571D01*
X96214285Y-138228571D01*
X96000000Y-138157142D01*
X95857142Y-138014285D01*
X95785714Y-137871428D01*
X95714285Y-137585714D01*
X95714285Y-137371428D01*
X95785714Y-137085714D01*
X95857142Y-136942857D01*
X96000000Y-136800000D01*
X96214285Y-136728571D01*
X96357142Y-136728571D01*
X96571428Y-136800000D01*
X96642857Y-136871428D01*
X98857142Y-136728571D02*
X98857142Y-137800000D01*
X98785714Y-138014285D01*
X98642857Y-138157142D01*
X98428571Y-138228571D01*
X98285714Y-138228571D01*
X100285714Y-138228571D02*
X99571428Y-138228571D01*
X99571428Y-136728571D01*
X101642857Y-138085714D02*
X101571428Y-138157142D01*
X101357142Y-138228571D01*
X101214285Y-138228571D01*
X101000000Y-138157142D01*
X100857142Y-138014285D01*
X100785714Y-137871428D01*
X100714285Y-137585714D01*
X100714285Y-137371428D01*
X100785714Y-137085714D01*
X100857142Y-136942857D01*
X101000000Y-136800000D01*
X101214285Y-136728571D01*
X101357142Y-136728571D01*
X101571428Y-136800000D01*
X101642857Y-136871428D01*
X103857142Y-136728571D02*
X103857142Y-137800000D01*
X103785714Y-138014285D01*
X103642857Y-138157142D01*
X103428571Y-138228571D01*
X103285714Y-138228571D01*
X105285714Y-138228571D02*
X104571428Y-138228571D01*
X104571428Y-136728571D01*
X106642857Y-138085714D02*
X106571428Y-138157142D01*
X106357142Y-138228571D01*
X106214285Y-138228571D01*
X106000000Y-138157142D01*
X105857142Y-138014285D01*
X105785714Y-137871428D01*
X105714285Y-137585714D01*
X105714285Y-137371428D01*
X105785714Y-137085714D01*
X105857142Y-136942857D01*
X106000000Y-136800000D01*
X106214285Y-136728571D01*
X106357142Y-136728571D01*
X106571428Y-136800000D01*
X106642857Y-136871428D01*
D11*
X108050000Y-55550000D02*
X108650000Y-55550000D01*
X106350000Y-58450000D02*
X106350000Y-55550000D01*
X108650000Y-58450000D02*
X108650000Y-55550000D01*
D12*
X109528000Y-55984000D02*
G75*
G03*
X109528000Y-55984000I-250000J0D01*
G01*
D11*
X73050000Y-55550000D02*
X73650000Y-55550000D01*
X71350000Y-58450000D02*
X71350000Y-55550000D01*
X73650000Y-58450000D02*
X73650000Y-55550000D01*
D12*
X74528000Y-55984000D02*
G75*
G03*
X74528000Y-55984000I-250000J0D01*
G01*
D11*
X103050000Y-55550000D02*
X103650000Y-55550000D01*
X101350000Y-58450000D02*
X101350000Y-55550000D01*
X103650000Y-58450000D02*
X103650000Y-55550000D01*
D12*
X104528000Y-55984000D02*
G75*
G03*
X104528000Y-55984000I-250000J0D01*
G01*
D11*
X133050000Y-55550000D02*
X133650000Y-55550000D01*
X131350000Y-58450000D02*
X131350000Y-55550000D01*
X133650000Y-58450000D02*
X133650000Y-55550000D01*
D12*
X134528000Y-55984000D02*
G75*
G03*
X134528000Y-55984000I-250000J0D01*
G01*
D11*
X98050000Y-55550000D02*
X98650000Y-55550000D01*
X96350000Y-58450000D02*
X96350000Y-55550000D01*
X98650000Y-58450000D02*
X98650000Y-55550000D01*
D12*
X99528000Y-55984000D02*
G75*
G03*
X99528000Y-55984000I-250000J0D01*
G01*
D11*
X123050000Y-55550000D02*
X123650000Y-55550000D01*
X121350000Y-58450000D02*
X121350000Y-55550000D01*
X123650000Y-58450000D02*
X123650000Y-55550000D01*
D12*
X124528000Y-55984000D02*
G75*
G03*
X124528000Y-55984000I-250000J0D01*
G01*
D11*
X68050000Y-55550000D02*
X68650000Y-55550000D01*
X66350000Y-58450000D02*
X66350000Y-55550000D01*
X68650000Y-58450000D02*
X68650000Y-55550000D01*
D12*
X69528000Y-55984000D02*
G75*
G03*
X69528000Y-55984000I-250000J0D01*
G01*
D11*
X113050000Y-55550000D02*
X113650000Y-55550000D01*
X111350000Y-58450000D02*
X111350000Y-55550000D01*
X113650000Y-58450000D02*
X113650000Y-55550000D01*
D12*
X114528000Y-55984000D02*
G75*
G03*
X114528000Y-55984000I-250000J0D01*
G01*
D11*
X118050000Y-55550000D02*
X118650000Y-55550000D01*
X116350000Y-58450000D02*
X116350000Y-55550000D01*
X118650000Y-58450000D02*
X118650000Y-55550000D01*
D12*
X119528000Y-55984000D02*
G75*
G03*
X119528000Y-55984000I-250000J0D01*
G01*
D11*
X128050000Y-55550000D02*
X128650000Y-55550000D01*
X126350000Y-58450000D02*
X126350000Y-55550000D01*
X128650000Y-58450000D02*
X128650000Y-55550000D01*
D12*
X129528000Y-55984000D02*
G75*
G03*
X129528000Y-55984000I-250000J0D01*
G01*
D11*
X138050000Y-55550000D02*
X138650000Y-55550000D01*
X136350000Y-58450000D02*
X136350000Y-55550000D01*
X138650000Y-58450000D02*
X138650000Y-55550000D01*
D12*
X139528000Y-55984000D02*
G75*
G03*
X139528000Y-55984000I-250000J0D01*
G01*
D11*
X83050000Y-55550000D02*
X83650000Y-55550000D01*
X81350000Y-58450000D02*
X81350000Y-55550000D01*
X83650000Y-58450000D02*
X83650000Y-55550000D01*
D12*
X84528000Y-55984000D02*
G75*
G03*
X84528000Y-55984000I-250000J0D01*
G01*
D11*
X88050000Y-55550000D02*
X88650000Y-55550000D01*
X86350000Y-58450000D02*
X86350000Y-55550000D01*
X88650000Y-58450000D02*
X88650000Y-55550000D01*
D12*
X89528000Y-55984000D02*
G75*
G03*
X89528000Y-55984000I-250000J0D01*
G01*
D11*
X93050000Y-55550000D02*
X93650000Y-55550000D01*
X91350000Y-58450000D02*
X91350000Y-55550000D01*
X93650000Y-58450000D02*
X93650000Y-55550000D01*
D12*
X94528000Y-55984000D02*
G75*
G03*
X94528000Y-55984000I-250000J0D01*
G01*
D11*
X63050000Y-55550000D02*
X63650000Y-55550000D01*
X61350000Y-58450000D02*
X61350000Y-55550000D01*
X63650000Y-58450000D02*
X63650000Y-55550000D01*
D12*
X64528000Y-55984000D02*
G75*
G03*
X64528000Y-55984000I-250000J0D01*
G01*
D11*
X78050000Y-55550000D02*
X78650000Y-55550000D01*
X76350000Y-58450000D02*
X76350000Y-55550000D01*
X78650000Y-58450000D02*
X78650000Y-55550000D01*
D12*
X79528000Y-55984000D02*
G75*
G03*
X79528000Y-55984000I-250000J0D01*
G01*
D11*
X144450000Y-78050000D02*
X144450000Y-78650000D01*
X141550000Y-76350000D02*
X144450000Y-76350000D01*
X141550000Y-78650000D02*
X144450000Y-78650000D01*
D12*
X144266000Y-79278000D02*
G75*
G03*
X144266000Y-79278000I-250000J0D01*
G01*
D11*
X144450000Y-68050000D02*
X144450000Y-68650000D01*
X141550000Y-66350000D02*
X144450000Y-66350000D01*
X141550000Y-68650000D02*
X144450000Y-68650000D01*
D12*
X144266000Y-69278000D02*
G75*
G03*
X144266000Y-69278000I-250000J0D01*
G01*
D11*
X144450000Y-73050000D02*
X144450000Y-73650000D01*
X141550000Y-71350000D02*
X144450000Y-71350000D01*
X141550000Y-73650000D02*
X144450000Y-73650000D01*
D12*
X144266000Y-74278000D02*
G75*
G03*
X144266000Y-74278000I-250000J0D01*
G01*
D11*
X144450000Y-63050000D02*
X144450000Y-63650000D01*
X141550000Y-61350000D02*
X144450000Y-61350000D01*
X141550000Y-63650000D02*
X144450000Y-63650000D01*
D12*
X144266000Y-64278000D02*
G75*
G03*
X144266000Y-64278000I-250000J0D01*
G01*
D11*
X144450000Y-108050000D02*
X144450000Y-108650000D01*
X141550000Y-106350000D02*
X144450000Y-106350000D01*
X141550000Y-108650000D02*
X144450000Y-108650000D01*
D12*
X144266000Y-109278000D02*
G75*
G03*
X144266000Y-109278000I-250000J0D01*
G01*
D11*
X144450000Y-113050000D02*
X144450000Y-113650000D01*
X141550000Y-111350000D02*
X144450000Y-111350000D01*
X141550000Y-113650000D02*
X144450000Y-113650000D01*
D12*
X144266000Y-114278000D02*
G75*
G03*
X144266000Y-114278000I-250000J0D01*
G01*
D11*
X144450000Y-118050000D02*
X144450000Y-118650000D01*
X141550000Y-116350000D02*
X144450000Y-116350000D01*
X141550000Y-118650000D02*
X144450000Y-118650000D01*
D12*
X144266000Y-119278000D02*
G75*
G03*
X144266000Y-119278000I-250000J0D01*
G01*
D11*
X144450000Y-123050000D02*
X144450000Y-123650000D01*
X141550000Y-121350000D02*
X144450000Y-121350000D01*
X141550000Y-123650000D02*
X144450000Y-123650000D01*
D12*
X144266000Y-124278000D02*
G75*
G03*
X144266000Y-124278000I-250000J0D01*
G01*
D11*
X144450000Y-128050000D02*
X144450000Y-128650000D01*
X141550000Y-126350000D02*
X144450000Y-126350000D01*
X141550000Y-128650000D02*
X144450000Y-128650000D01*
D12*
X144266000Y-129278000D02*
G75*
G03*
X144266000Y-129278000I-250000J0D01*
G01*
D11*
X144450000Y-133050000D02*
X144450000Y-133650000D01*
X141550000Y-131350000D02*
X144450000Y-131350000D01*
X141550000Y-133650000D02*
X144450000Y-133650000D01*
D12*
X144266000Y-134278000D02*
G75*
G03*
X144266000Y-134278000I-250000J0D01*
G01*
D11*
X144450000Y-138050000D02*
X144450000Y-138650000D01*
X141550000Y-136350000D02*
X144450000Y-136350000D01*
X141550000Y-138650000D02*
X144450000Y-138650000D01*
D12*
X144266000Y-139278000D02*
G75*
G03*
X144266000Y-139278000I-250000J0D01*
G01*
D11*
X144450000Y-103050000D02*
X144450000Y-103650000D01*
X141550000Y-101350000D02*
X144450000Y-101350000D01*
X141550000Y-103650000D02*
X144450000Y-103650000D01*
D12*
X144266000Y-104278000D02*
G75*
G03*
X144266000Y-104278000I-250000J0D01*
G01*
D11*
X144450000Y-98050000D02*
X144450000Y-98650000D01*
X141550000Y-96350000D02*
X144450000Y-96350000D01*
X141550000Y-98650000D02*
X144450000Y-98650000D01*
D12*
X144266000Y-99278000D02*
G75*
G03*
X144266000Y-99278000I-250000J0D01*
G01*
D11*
X144450000Y-93050000D02*
X144450000Y-93650000D01*
X141550000Y-91350000D02*
X144450000Y-91350000D01*
X141550000Y-93650000D02*
X144450000Y-93650000D01*
D12*
X144266000Y-94278000D02*
G75*
G03*
X144266000Y-94278000I-250000J0D01*
G01*
D11*
X144450000Y-88050000D02*
X144450000Y-88650000D01*
X141550000Y-86350000D02*
X144450000Y-86350000D01*
X141550000Y-88650000D02*
X144450000Y-88650000D01*
D12*
X144266000Y-89278000D02*
G75*
G03*
X144266000Y-89278000I-250000J0D01*
G01*
D11*
X144450000Y-83050000D02*
X144450000Y-83650000D01*
X141550000Y-81350000D02*
X144450000Y-81350000D01*
X141550000Y-83650000D02*
X144450000Y-83650000D01*
D12*
X144266000Y-84278000D02*
G75*
G03*
X144266000Y-84278000I-250000J0D01*
G01*
D11*
X121950000Y-144450000D02*
X121350000Y-144450000D01*
X123650000Y-141550000D02*
X123650000Y-144450000D01*
X121350000Y-141550000D02*
X121350000Y-144450000D01*
D12*
X120972000Y-144016000D02*
G75*
G03*
X120972000Y-144016000I-250000J0D01*
G01*
D11*
X131950000Y-144450000D02*
X131350000Y-144450000D01*
X133650000Y-141550000D02*
X133650000Y-144450000D01*
X131350000Y-141550000D02*
X131350000Y-144450000D01*
D12*
X130972000Y-144016000D02*
G75*
G03*
X130972000Y-144016000I-250000J0D01*
G01*
D11*
X126950000Y-144450000D02*
X126350000Y-144450000D01*
X128650000Y-141550000D02*
X128650000Y-144450000D01*
X126350000Y-141550000D02*
X126350000Y-144450000D01*
D12*
X125972000Y-144016000D02*
G75*
G03*
X125972000Y-144016000I-250000J0D01*
G01*
D11*
X136950000Y-144450000D02*
X136350000Y-144450000D01*
X138650000Y-141550000D02*
X138650000Y-144450000D01*
X136350000Y-141550000D02*
X136350000Y-144450000D01*
D12*
X135972000Y-144016000D02*
G75*
G03*
X135972000Y-144016000I-250000J0D01*
G01*
D11*
X91950000Y-144450000D02*
X91350000Y-144450000D01*
X93650000Y-141550000D02*
X93650000Y-144450000D01*
X91350000Y-141550000D02*
X91350000Y-144450000D01*
D12*
X90972000Y-144016000D02*
G75*
G03*
X90972000Y-144016000I-250000J0D01*
G01*
D11*
X86950000Y-144450000D02*
X86350000Y-144450000D01*
X88650000Y-141550000D02*
X88650000Y-144450000D01*
X86350000Y-141550000D02*
X86350000Y-144450000D01*
D12*
X85972000Y-144016000D02*
G75*
G03*
X85972000Y-144016000I-250000J0D01*
G01*
D11*
X81950000Y-144450000D02*
X81350000Y-144450000D01*
X83650000Y-141550000D02*
X83650000Y-144450000D01*
X81350000Y-141550000D02*
X81350000Y-144450000D01*
D12*
X80972000Y-144016000D02*
G75*
G03*
X80972000Y-144016000I-250000J0D01*
G01*
D11*
X76950000Y-144450000D02*
X76350000Y-144450000D01*
X78650000Y-141550000D02*
X78650000Y-144450000D01*
X76350000Y-141550000D02*
X76350000Y-144450000D01*
D12*
X75972000Y-144016000D02*
G75*
G03*
X75972000Y-144016000I-250000J0D01*
G01*
D11*
X71950000Y-144450000D02*
X71350000Y-144450000D01*
X73650000Y-141550000D02*
X73650000Y-144450000D01*
X71350000Y-141550000D02*
X71350000Y-144450000D01*
D12*
X70972000Y-144016000D02*
G75*
G03*
X70972000Y-144016000I-250000J0D01*
G01*
D11*
X66950000Y-144450000D02*
X66350000Y-144450000D01*
X68650000Y-141550000D02*
X68650000Y-144450000D01*
X66350000Y-141550000D02*
X66350000Y-144450000D01*
D12*
X65972000Y-144016000D02*
G75*
G03*
X65972000Y-144016000I-250000J0D01*
G01*
D11*
X61950000Y-144450000D02*
X61350000Y-144450000D01*
X63650000Y-141550000D02*
X63650000Y-144450000D01*
X61350000Y-141550000D02*
X61350000Y-144450000D01*
D12*
X60972000Y-144016000D02*
G75*
G03*
X60972000Y-144016000I-250000J0D01*
G01*
D11*
X96950000Y-144450000D02*
X96350000Y-144450000D01*
X98650000Y-141550000D02*
X98650000Y-144450000D01*
X96350000Y-141550000D02*
X96350000Y-144450000D01*
D12*
X95972000Y-144016000D02*
G75*
G03*
X95972000Y-144016000I-250000J0D01*
G01*
D11*
X101950000Y-144450000D02*
X101350000Y-144450000D01*
X103650000Y-141550000D02*
X103650000Y-144450000D01*
X101350000Y-141550000D02*
X101350000Y-144450000D01*
D12*
X100972000Y-144016000D02*
G75*
G03*
X100972000Y-144016000I-250000J0D01*
G01*
D11*
X106950000Y-144450000D02*
X106350000Y-144450000D01*
X108650000Y-141550000D02*
X108650000Y-144450000D01*
X106350000Y-141550000D02*
X106350000Y-144450000D01*
D12*
X105972000Y-144016000D02*
G75*
G03*
X105972000Y-144016000I-250000J0D01*
G01*
D11*
X111950000Y-144450000D02*
X111350000Y-144450000D01*
X113650000Y-141550000D02*
X113650000Y-144450000D01*
X111350000Y-141550000D02*
X111350000Y-144450000D01*
D12*
X110972000Y-144016000D02*
G75*
G03*
X110972000Y-144016000I-250000J0D01*
G01*
D11*
X116950000Y-144450000D02*
X116350000Y-144450000D01*
X118650000Y-141550000D02*
X118650000Y-144450000D01*
X116350000Y-141550000D02*
X116350000Y-144450000D01*
D12*
X115972000Y-144016000D02*
G75*
G03*
X115972000Y-144016000I-250000J0D01*
G01*
D11*
X55550000Y-121950000D02*
X55550000Y-121350000D01*
X58450000Y-123650000D02*
X55550000Y-123650000D01*
X58450000Y-121350000D02*
X55550000Y-121350000D01*
D12*
X56234000Y-120722000D02*
G75*
G03*
X56234000Y-120722000I-250000J0D01*
G01*
D11*
X55550000Y-131950000D02*
X55550000Y-131350000D01*
X58450000Y-133650000D02*
X55550000Y-133650000D01*
X58450000Y-131350000D02*
X55550000Y-131350000D01*
D12*
X56234000Y-130722000D02*
G75*
G03*
X56234000Y-130722000I-250000J0D01*
G01*
D11*
X55550000Y-126950000D02*
X55550000Y-126350000D01*
X58450000Y-128650000D02*
X55550000Y-128650000D01*
X58450000Y-126350000D02*
X55550000Y-126350000D01*
D12*
X56234000Y-125722000D02*
G75*
G03*
X56234000Y-125722000I-250000J0D01*
G01*
D11*
X55550000Y-136950000D02*
X55550000Y-136350000D01*
X58450000Y-138650000D02*
X55550000Y-138650000D01*
X58450000Y-136350000D02*
X55550000Y-136350000D01*
D12*
X56234000Y-135722000D02*
G75*
G03*
X56234000Y-135722000I-250000J0D01*
G01*
D11*
X55550000Y-91950000D02*
X55550000Y-91350000D01*
X58450000Y-93650000D02*
X55550000Y-93650000D01*
X58450000Y-91350000D02*
X55550000Y-91350000D01*
D12*
X56234000Y-90722000D02*
G75*
G03*
X56234000Y-90722000I-250000J0D01*
G01*
D11*
X55550000Y-86950000D02*
X55550000Y-86350000D01*
X58450000Y-88650000D02*
X55550000Y-88650000D01*
X58450000Y-86350000D02*
X55550000Y-86350000D01*
D12*
X56234000Y-85722000D02*
G75*
G03*
X56234000Y-85722000I-250000J0D01*
G01*
D11*
X55550000Y-81950000D02*
X55550000Y-81350000D01*
X58450000Y-83650000D02*
X55550000Y-83650000D01*
X58450000Y-81350000D02*
X55550000Y-81350000D01*
D12*
X56234000Y-80722000D02*
G75*
G03*
X56234000Y-80722000I-250000J0D01*
G01*
D11*
X55550000Y-76950000D02*
X55550000Y-76350000D01*
X58450000Y-78650000D02*
X55550000Y-78650000D01*
X58450000Y-76350000D02*
X55550000Y-76350000D01*
D12*
X56234000Y-75722000D02*
G75*
G03*
X56234000Y-75722000I-250000J0D01*
G01*
D11*
X55550000Y-71950000D02*
X55550000Y-71350000D01*
X58450000Y-73650000D02*
X55550000Y-73650000D01*
X58450000Y-71350000D02*
X55550000Y-71350000D01*
D12*
X56234000Y-70722000D02*
G75*
G03*
X56234000Y-70722000I-250000J0D01*
G01*
D11*
X55550000Y-66950000D02*
X55550000Y-66350000D01*
X58450000Y-68650000D02*
X55550000Y-68650000D01*
X58450000Y-66350000D02*
X55550000Y-66350000D01*
D12*
X56234000Y-65722000D02*
G75*
G03*
X56234000Y-65722000I-250000J0D01*
G01*
D11*
X55550000Y-61950000D02*
X55550000Y-61350000D01*
X58450000Y-63650000D02*
X55550000Y-63650000D01*
X58450000Y-61350000D02*
X55550000Y-61350000D01*
D12*
X56234000Y-60722000D02*
G75*
G03*
X56234000Y-60722000I-250000J0D01*
G01*
D11*
X55550000Y-96950000D02*
X55550000Y-96350000D01*
X58450000Y-98650000D02*
X55550000Y-98650000D01*
X58450000Y-96350000D02*
X55550000Y-96350000D01*
D12*
X56234000Y-95722000D02*
G75*
G03*
X56234000Y-95722000I-250000J0D01*
G01*
D11*
X55550000Y-101950000D02*
X55550000Y-101350000D01*
X58450000Y-103650000D02*
X55550000Y-103650000D01*
X58450000Y-101350000D02*
X55550000Y-101350000D01*
D12*
X56234000Y-100722000D02*
G75*
G03*
X56234000Y-100722000I-250000J0D01*
G01*
D11*
X55550000Y-106950000D02*
X55550000Y-106350000D01*
X58450000Y-108650000D02*
X55550000Y-108650000D01*
X58450000Y-106350000D02*
X55550000Y-106350000D01*
D12*
X56234000Y-105722000D02*
G75*
G03*
X56234000Y-105722000I-250000J0D01*
G01*
D11*
X55550000Y-111950000D02*
X55550000Y-111350000D01*
X58450000Y-113650000D02*
X55550000Y-113650000D01*
X58450000Y-111350000D02*
X55550000Y-111350000D01*
D12*
X56234000Y-110722000D02*
G75*
G03*
X56234000Y-110722000I-250000J0D01*
G01*
D11*
X55550000Y-116950000D02*
X55550000Y-116350000D01*
X58450000Y-118650000D02*
X55550000Y-118650000D01*
X58450000Y-116350000D02*
X55550000Y-116350000D01*
D12*
X56234000Y-115722000D02*
G75*
G03*
X56234000Y-115722000I-250000J0D01*
G01*
M02*
