G04 #@! TF.GenerationSoftware,KiCad,Pcbnew,(5.1.6)-1*
G04 #@! TF.CreationDate,2020-12-31T12:37:09+01:00*
G04 #@! TF.ProjectId,XY_LED,58595f4c-4544-42e6-9b69-6361645f7063,rev?*
G04 #@! TF.SameCoordinates,Original*
G04 #@! TF.FileFunction,Soldermask,Bot*
G04 #@! TF.FilePolarity,Negative*
%FSLAX46Y46*%
G04 Gerber Fmt 4.6, Leading zero omitted, Abs format (unit mm)*
G04 Created by KiCad (PCBNEW (5.1.6)-1) date 2020-12-31 12:37:09*
%MOMM*%
%LPD*%
G01*
G04 APERTURE LIST*
%ADD10C,0.100000*%
G04 APERTURE END LIST*
D10*
G36*
X81934468Y-142253565D02*
G01*
X81973138Y-142265296D01*
X82008777Y-142284346D01*
X82040017Y-142309983D01*
X82065654Y-142341223D01*
X82084704Y-142376862D01*
X82096435Y-142415532D01*
X82101000Y-142461888D01*
X82101000Y-143538112D01*
X82096435Y-143584468D01*
X82084704Y-143623138D01*
X82065654Y-143658777D01*
X82040017Y-143690017D01*
X82008777Y-143715654D01*
X81973138Y-143734704D01*
X81934468Y-143746435D01*
X81888112Y-143751000D01*
X81236888Y-143751000D01*
X81190532Y-143746435D01*
X81151862Y-143734704D01*
X81116223Y-143715654D01*
X81084983Y-143690017D01*
X81059346Y-143658777D01*
X81040296Y-143623138D01*
X81028565Y-143584468D01*
X81024000Y-143538112D01*
X81024000Y-142461888D01*
X81028565Y-142415532D01*
X81040296Y-142376862D01*
X81059346Y-142341223D01*
X81084983Y-142309983D01*
X81116223Y-142284346D01*
X81151862Y-142265296D01*
X81190532Y-142253565D01*
X81236888Y-142249000D01*
X81888112Y-142249000D01*
X81934468Y-142253565D01*
G37*
G36*
X108809468Y-142253565D02*
G01*
X108848138Y-142265296D01*
X108883777Y-142284346D01*
X108915017Y-142309983D01*
X108940654Y-142341223D01*
X108959704Y-142376862D01*
X108971435Y-142415532D01*
X108976000Y-142461888D01*
X108976000Y-143538112D01*
X108971435Y-143584468D01*
X108959704Y-143623138D01*
X108940654Y-143658777D01*
X108915017Y-143690017D01*
X108883777Y-143715654D01*
X108848138Y-143734704D01*
X108809468Y-143746435D01*
X108763112Y-143751000D01*
X108111888Y-143751000D01*
X108065532Y-143746435D01*
X108026862Y-143734704D01*
X107991223Y-143715654D01*
X107959983Y-143690017D01*
X107934346Y-143658777D01*
X107915296Y-143623138D01*
X107903565Y-143584468D01*
X107899000Y-143538112D01*
X107899000Y-142461888D01*
X107903565Y-142415532D01*
X107915296Y-142376862D01*
X107934346Y-142341223D01*
X107959983Y-142309983D01*
X107991223Y-142284346D01*
X108026862Y-142265296D01*
X108065532Y-142253565D01*
X108111888Y-142249000D01*
X108763112Y-142249000D01*
X108809468Y-142253565D01*
G37*
G36*
X101934468Y-142253565D02*
G01*
X101973138Y-142265296D01*
X102008777Y-142284346D01*
X102040017Y-142309983D01*
X102065654Y-142341223D01*
X102084704Y-142376862D01*
X102096435Y-142415532D01*
X102101000Y-142461888D01*
X102101000Y-143538112D01*
X102096435Y-143584468D01*
X102084704Y-143623138D01*
X102065654Y-143658777D01*
X102040017Y-143690017D01*
X102008777Y-143715654D01*
X101973138Y-143734704D01*
X101934468Y-143746435D01*
X101888112Y-143751000D01*
X101236888Y-143751000D01*
X101190532Y-143746435D01*
X101151862Y-143734704D01*
X101116223Y-143715654D01*
X101084983Y-143690017D01*
X101059346Y-143658777D01*
X101040296Y-143623138D01*
X101028565Y-143584468D01*
X101024000Y-143538112D01*
X101024000Y-142461888D01*
X101028565Y-142415532D01*
X101040296Y-142376862D01*
X101059346Y-142341223D01*
X101084983Y-142309983D01*
X101116223Y-142284346D01*
X101151862Y-142265296D01*
X101190532Y-142253565D01*
X101236888Y-142249000D01*
X101888112Y-142249000D01*
X101934468Y-142253565D01*
G37*
G36*
X103809468Y-142253565D02*
G01*
X103848138Y-142265296D01*
X103883777Y-142284346D01*
X103915017Y-142309983D01*
X103940654Y-142341223D01*
X103959704Y-142376862D01*
X103971435Y-142415532D01*
X103976000Y-142461888D01*
X103976000Y-143538112D01*
X103971435Y-143584468D01*
X103959704Y-143623138D01*
X103940654Y-143658777D01*
X103915017Y-143690017D01*
X103883777Y-143715654D01*
X103848138Y-143734704D01*
X103809468Y-143746435D01*
X103763112Y-143751000D01*
X103111888Y-143751000D01*
X103065532Y-143746435D01*
X103026862Y-143734704D01*
X102991223Y-143715654D01*
X102959983Y-143690017D01*
X102934346Y-143658777D01*
X102915296Y-143623138D01*
X102903565Y-143584468D01*
X102899000Y-143538112D01*
X102899000Y-142461888D01*
X102903565Y-142415532D01*
X102915296Y-142376862D01*
X102934346Y-142341223D01*
X102959983Y-142309983D01*
X102991223Y-142284346D01*
X103026862Y-142265296D01*
X103065532Y-142253565D01*
X103111888Y-142249000D01*
X103763112Y-142249000D01*
X103809468Y-142253565D01*
G37*
G36*
X96934468Y-142253565D02*
G01*
X96973138Y-142265296D01*
X97008777Y-142284346D01*
X97040017Y-142309983D01*
X97065654Y-142341223D01*
X97084704Y-142376862D01*
X97096435Y-142415532D01*
X97101000Y-142461888D01*
X97101000Y-143538112D01*
X97096435Y-143584468D01*
X97084704Y-143623138D01*
X97065654Y-143658777D01*
X97040017Y-143690017D01*
X97008777Y-143715654D01*
X96973138Y-143734704D01*
X96934468Y-143746435D01*
X96888112Y-143751000D01*
X96236888Y-143751000D01*
X96190532Y-143746435D01*
X96151862Y-143734704D01*
X96116223Y-143715654D01*
X96084983Y-143690017D01*
X96059346Y-143658777D01*
X96040296Y-143623138D01*
X96028565Y-143584468D01*
X96024000Y-143538112D01*
X96024000Y-142461888D01*
X96028565Y-142415532D01*
X96040296Y-142376862D01*
X96059346Y-142341223D01*
X96084983Y-142309983D01*
X96116223Y-142284346D01*
X96151862Y-142265296D01*
X96190532Y-142253565D01*
X96236888Y-142249000D01*
X96888112Y-142249000D01*
X96934468Y-142253565D01*
G37*
G36*
X98809468Y-142253565D02*
G01*
X98848138Y-142265296D01*
X98883777Y-142284346D01*
X98915017Y-142309983D01*
X98940654Y-142341223D01*
X98959704Y-142376862D01*
X98971435Y-142415532D01*
X98976000Y-142461888D01*
X98976000Y-143538112D01*
X98971435Y-143584468D01*
X98959704Y-143623138D01*
X98940654Y-143658777D01*
X98915017Y-143690017D01*
X98883777Y-143715654D01*
X98848138Y-143734704D01*
X98809468Y-143746435D01*
X98763112Y-143751000D01*
X98111888Y-143751000D01*
X98065532Y-143746435D01*
X98026862Y-143734704D01*
X97991223Y-143715654D01*
X97959983Y-143690017D01*
X97934346Y-143658777D01*
X97915296Y-143623138D01*
X97903565Y-143584468D01*
X97899000Y-143538112D01*
X97899000Y-142461888D01*
X97903565Y-142415532D01*
X97915296Y-142376862D01*
X97934346Y-142341223D01*
X97959983Y-142309983D01*
X97991223Y-142284346D01*
X98026862Y-142265296D01*
X98065532Y-142253565D01*
X98111888Y-142249000D01*
X98763112Y-142249000D01*
X98809468Y-142253565D01*
G37*
G36*
X91934468Y-142253565D02*
G01*
X91973138Y-142265296D01*
X92008777Y-142284346D01*
X92040017Y-142309983D01*
X92065654Y-142341223D01*
X92084704Y-142376862D01*
X92096435Y-142415532D01*
X92101000Y-142461888D01*
X92101000Y-143538112D01*
X92096435Y-143584468D01*
X92084704Y-143623138D01*
X92065654Y-143658777D01*
X92040017Y-143690017D01*
X92008777Y-143715654D01*
X91973138Y-143734704D01*
X91934468Y-143746435D01*
X91888112Y-143751000D01*
X91236888Y-143751000D01*
X91190532Y-143746435D01*
X91151862Y-143734704D01*
X91116223Y-143715654D01*
X91084983Y-143690017D01*
X91059346Y-143658777D01*
X91040296Y-143623138D01*
X91028565Y-143584468D01*
X91024000Y-143538112D01*
X91024000Y-142461888D01*
X91028565Y-142415532D01*
X91040296Y-142376862D01*
X91059346Y-142341223D01*
X91084983Y-142309983D01*
X91116223Y-142284346D01*
X91151862Y-142265296D01*
X91190532Y-142253565D01*
X91236888Y-142249000D01*
X91888112Y-142249000D01*
X91934468Y-142253565D01*
G37*
G36*
X93809468Y-142253565D02*
G01*
X93848138Y-142265296D01*
X93883777Y-142284346D01*
X93915017Y-142309983D01*
X93940654Y-142341223D01*
X93959704Y-142376862D01*
X93971435Y-142415532D01*
X93976000Y-142461888D01*
X93976000Y-143538112D01*
X93971435Y-143584468D01*
X93959704Y-143623138D01*
X93940654Y-143658777D01*
X93915017Y-143690017D01*
X93883777Y-143715654D01*
X93848138Y-143734704D01*
X93809468Y-143746435D01*
X93763112Y-143751000D01*
X93111888Y-143751000D01*
X93065532Y-143746435D01*
X93026862Y-143734704D01*
X92991223Y-143715654D01*
X92959983Y-143690017D01*
X92934346Y-143658777D01*
X92915296Y-143623138D01*
X92903565Y-143584468D01*
X92899000Y-143538112D01*
X92899000Y-142461888D01*
X92903565Y-142415532D01*
X92915296Y-142376862D01*
X92934346Y-142341223D01*
X92959983Y-142309983D01*
X92991223Y-142284346D01*
X93026862Y-142265296D01*
X93065532Y-142253565D01*
X93111888Y-142249000D01*
X93763112Y-142249000D01*
X93809468Y-142253565D01*
G37*
G36*
X86934468Y-142253565D02*
G01*
X86973138Y-142265296D01*
X87008777Y-142284346D01*
X87040017Y-142309983D01*
X87065654Y-142341223D01*
X87084704Y-142376862D01*
X87096435Y-142415532D01*
X87101000Y-142461888D01*
X87101000Y-143538112D01*
X87096435Y-143584468D01*
X87084704Y-143623138D01*
X87065654Y-143658777D01*
X87040017Y-143690017D01*
X87008777Y-143715654D01*
X86973138Y-143734704D01*
X86934468Y-143746435D01*
X86888112Y-143751000D01*
X86236888Y-143751000D01*
X86190532Y-143746435D01*
X86151862Y-143734704D01*
X86116223Y-143715654D01*
X86084983Y-143690017D01*
X86059346Y-143658777D01*
X86040296Y-143623138D01*
X86028565Y-143584468D01*
X86024000Y-143538112D01*
X86024000Y-142461888D01*
X86028565Y-142415532D01*
X86040296Y-142376862D01*
X86059346Y-142341223D01*
X86084983Y-142309983D01*
X86116223Y-142284346D01*
X86151862Y-142265296D01*
X86190532Y-142253565D01*
X86236888Y-142249000D01*
X86888112Y-142249000D01*
X86934468Y-142253565D01*
G37*
G36*
X61934468Y-142253565D02*
G01*
X61973138Y-142265296D01*
X62008777Y-142284346D01*
X62040017Y-142309983D01*
X62065654Y-142341223D01*
X62084704Y-142376862D01*
X62096435Y-142415532D01*
X62101000Y-142461888D01*
X62101000Y-143538112D01*
X62096435Y-143584468D01*
X62084704Y-143623138D01*
X62065654Y-143658777D01*
X62040017Y-143690017D01*
X62008777Y-143715654D01*
X61973138Y-143734704D01*
X61934468Y-143746435D01*
X61888112Y-143751000D01*
X61236888Y-143751000D01*
X61190532Y-143746435D01*
X61151862Y-143734704D01*
X61116223Y-143715654D01*
X61084983Y-143690017D01*
X61059346Y-143658777D01*
X61040296Y-143623138D01*
X61028565Y-143584468D01*
X61024000Y-143538112D01*
X61024000Y-142461888D01*
X61028565Y-142415532D01*
X61040296Y-142376862D01*
X61059346Y-142341223D01*
X61084983Y-142309983D01*
X61116223Y-142284346D01*
X61151862Y-142265296D01*
X61190532Y-142253565D01*
X61236888Y-142249000D01*
X61888112Y-142249000D01*
X61934468Y-142253565D01*
G37*
G36*
X83809468Y-142253565D02*
G01*
X83848138Y-142265296D01*
X83883777Y-142284346D01*
X83915017Y-142309983D01*
X83940654Y-142341223D01*
X83959704Y-142376862D01*
X83971435Y-142415532D01*
X83976000Y-142461888D01*
X83976000Y-143538112D01*
X83971435Y-143584468D01*
X83959704Y-143623138D01*
X83940654Y-143658777D01*
X83915017Y-143690017D01*
X83883777Y-143715654D01*
X83848138Y-143734704D01*
X83809468Y-143746435D01*
X83763112Y-143751000D01*
X83111888Y-143751000D01*
X83065532Y-143746435D01*
X83026862Y-143734704D01*
X82991223Y-143715654D01*
X82959983Y-143690017D01*
X82934346Y-143658777D01*
X82915296Y-143623138D01*
X82903565Y-143584468D01*
X82899000Y-143538112D01*
X82899000Y-142461888D01*
X82903565Y-142415532D01*
X82915296Y-142376862D01*
X82934346Y-142341223D01*
X82959983Y-142309983D01*
X82991223Y-142284346D01*
X83026862Y-142265296D01*
X83065532Y-142253565D01*
X83111888Y-142249000D01*
X83763112Y-142249000D01*
X83809468Y-142253565D01*
G37*
G36*
X76934468Y-142253565D02*
G01*
X76973138Y-142265296D01*
X77008777Y-142284346D01*
X77040017Y-142309983D01*
X77065654Y-142341223D01*
X77084704Y-142376862D01*
X77096435Y-142415532D01*
X77101000Y-142461888D01*
X77101000Y-143538112D01*
X77096435Y-143584468D01*
X77084704Y-143623138D01*
X77065654Y-143658777D01*
X77040017Y-143690017D01*
X77008777Y-143715654D01*
X76973138Y-143734704D01*
X76934468Y-143746435D01*
X76888112Y-143751000D01*
X76236888Y-143751000D01*
X76190532Y-143746435D01*
X76151862Y-143734704D01*
X76116223Y-143715654D01*
X76084983Y-143690017D01*
X76059346Y-143658777D01*
X76040296Y-143623138D01*
X76028565Y-143584468D01*
X76024000Y-143538112D01*
X76024000Y-142461888D01*
X76028565Y-142415532D01*
X76040296Y-142376862D01*
X76059346Y-142341223D01*
X76084983Y-142309983D01*
X76116223Y-142284346D01*
X76151862Y-142265296D01*
X76190532Y-142253565D01*
X76236888Y-142249000D01*
X76888112Y-142249000D01*
X76934468Y-142253565D01*
G37*
G36*
X78809468Y-142253565D02*
G01*
X78848138Y-142265296D01*
X78883777Y-142284346D01*
X78915017Y-142309983D01*
X78940654Y-142341223D01*
X78959704Y-142376862D01*
X78971435Y-142415532D01*
X78976000Y-142461888D01*
X78976000Y-143538112D01*
X78971435Y-143584468D01*
X78959704Y-143623138D01*
X78940654Y-143658777D01*
X78915017Y-143690017D01*
X78883777Y-143715654D01*
X78848138Y-143734704D01*
X78809468Y-143746435D01*
X78763112Y-143751000D01*
X78111888Y-143751000D01*
X78065532Y-143746435D01*
X78026862Y-143734704D01*
X77991223Y-143715654D01*
X77959983Y-143690017D01*
X77934346Y-143658777D01*
X77915296Y-143623138D01*
X77903565Y-143584468D01*
X77899000Y-143538112D01*
X77899000Y-142461888D01*
X77903565Y-142415532D01*
X77915296Y-142376862D01*
X77934346Y-142341223D01*
X77959983Y-142309983D01*
X77991223Y-142284346D01*
X78026862Y-142265296D01*
X78065532Y-142253565D01*
X78111888Y-142249000D01*
X78763112Y-142249000D01*
X78809468Y-142253565D01*
G37*
G36*
X71934468Y-142253565D02*
G01*
X71973138Y-142265296D01*
X72008777Y-142284346D01*
X72040017Y-142309983D01*
X72065654Y-142341223D01*
X72084704Y-142376862D01*
X72096435Y-142415532D01*
X72101000Y-142461888D01*
X72101000Y-143538112D01*
X72096435Y-143584468D01*
X72084704Y-143623138D01*
X72065654Y-143658777D01*
X72040017Y-143690017D01*
X72008777Y-143715654D01*
X71973138Y-143734704D01*
X71934468Y-143746435D01*
X71888112Y-143751000D01*
X71236888Y-143751000D01*
X71190532Y-143746435D01*
X71151862Y-143734704D01*
X71116223Y-143715654D01*
X71084983Y-143690017D01*
X71059346Y-143658777D01*
X71040296Y-143623138D01*
X71028565Y-143584468D01*
X71024000Y-143538112D01*
X71024000Y-142461888D01*
X71028565Y-142415532D01*
X71040296Y-142376862D01*
X71059346Y-142341223D01*
X71084983Y-142309983D01*
X71116223Y-142284346D01*
X71151862Y-142265296D01*
X71190532Y-142253565D01*
X71236888Y-142249000D01*
X71888112Y-142249000D01*
X71934468Y-142253565D01*
G37*
G36*
X73809468Y-142253565D02*
G01*
X73848138Y-142265296D01*
X73883777Y-142284346D01*
X73915017Y-142309983D01*
X73940654Y-142341223D01*
X73959704Y-142376862D01*
X73971435Y-142415532D01*
X73976000Y-142461888D01*
X73976000Y-143538112D01*
X73971435Y-143584468D01*
X73959704Y-143623138D01*
X73940654Y-143658777D01*
X73915017Y-143690017D01*
X73883777Y-143715654D01*
X73848138Y-143734704D01*
X73809468Y-143746435D01*
X73763112Y-143751000D01*
X73111888Y-143751000D01*
X73065532Y-143746435D01*
X73026862Y-143734704D01*
X72991223Y-143715654D01*
X72959983Y-143690017D01*
X72934346Y-143658777D01*
X72915296Y-143623138D01*
X72903565Y-143584468D01*
X72899000Y-143538112D01*
X72899000Y-142461888D01*
X72903565Y-142415532D01*
X72915296Y-142376862D01*
X72934346Y-142341223D01*
X72959983Y-142309983D01*
X72991223Y-142284346D01*
X73026862Y-142265296D01*
X73065532Y-142253565D01*
X73111888Y-142249000D01*
X73763112Y-142249000D01*
X73809468Y-142253565D01*
G37*
G36*
X66934468Y-142253565D02*
G01*
X66973138Y-142265296D01*
X67008777Y-142284346D01*
X67040017Y-142309983D01*
X67065654Y-142341223D01*
X67084704Y-142376862D01*
X67096435Y-142415532D01*
X67101000Y-142461888D01*
X67101000Y-143538112D01*
X67096435Y-143584468D01*
X67084704Y-143623138D01*
X67065654Y-143658777D01*
X67040017Y-143690017D01*
X67008777Y-143715654D01*
X66973138Y-143734704D01*
X66934468Y-143746435D01*
X66888112Y-143751000D01*
X66236888Y-143751000D01*
X66190532Y-143746435D01*
X66151862Y-143734704D01*
X66116223Y-143715654D01*
X66084983Y-143690017D01*
X66059346Y-143658777D01*
X66040296Y-143623138D01*
X66028565Y-143584468D01*
X66024000Y-143538112D01*
X66024000Y-142461888D01*
X66028565Y-142415532D01*
X66040296Y-142376862D01*
X66059346Y-142341223D01*
X66084983Y-142309983D01*
X66116223Y-142284346D01*
X66151862Y-142265296D01*
X66190532Y-142253565D01*
X66236888Y-142249000D01*
X66888112Y-142249000D01*
X66934468Y-142253565D01*
G37*
G36*
X123809468Y-142253565D02*
G01*
X123848138Y-142265296D01*
X123883777Y-142284346D01*
X123915017Y-142309983D01*
X123940654Y-142341223D01*
X123959704Y-142376862D01*
X123971435Y-142415532D01*
X123976000Y-142461888D01*
X123976000Y-143538112D01*
X123971435Y-143584468D01*
X123959704Y-143623138D01*
X123940654Y-143658777D01*
X123915017Y-143690017D01*
X123883777Y-143715654D01*
X123848138Y-143734704D01*
X123809468Y-143746435D01*
X123763112Y-143751000D01*
X123111888Y-143751000D01*
X123065532Y-143746435D01*
X123026862Y-143734704D01*
X122991223Y-143715654D01*
X122959983Y-143690017D01*
X122934346Y-143658777D01*
X122915296Y-143623138D01*
X122903565Y-143584468D01*
X122899000Y-143538112D01*
X122899000Y-142461888D01*
X122903565Y-142415532D01*
X122915296Y-142376862D01*
X122934346Y-142341223D01*
X122959983Y-142309983D01*
X122991223Y-142284346D01*
X123026862Y-142265296D01*
X123065532Y-142253565D01*
X123111888Y-142249000D01*
X123763112Y-142249000D01*
X123809468Y-142253565D01*
G37*
G36*
X113809468Y-142253565D02*
G01*
X113848138Y-142265296D01*
X113883777Y-142284346D01*
X113915017Y-142309983D01*
X113940654Y-142341223D01*
X113959704Y-142376862D01*
X113971435Y-142415532D01*
X113976000Y-142461888D01*
X113976000Y-143538112D01*
X113971435Y-143584468D01*
X113959704Y-143623138D01*
X113940654Y-143658777D01*
X113915017Y-143690017D01*
X113883777Y-143715654D01*
X113848138Y-143734704D01*
X113809468Y-143746435D01*
X113763112Y-143751000D01*
X113111888Y-143751000D01*
X113065532Y-143746435D01*
X113026862Y-143734704D01*
X112991223Y-143715654D01*
X112959983Y-143690017D01*
X112934346Y-143658777D01*
X112915296Y-143623138D01*
X112903565Y-143584468D01*
X112899000Y-143538112D01*
X112899000Y-142461888D01*
X112903565Y-142415532D01*
X112915296Y-142376862D01*
X112934346Y-142341223D01*
X112959983Y-142309983D01*
X112991223Y-142284346D01*
X113026862Y-142265296D01*
X113065532Y-142253565D01*
X113111888Y-142249000D01*
X113763112Y-142249000D01*
X113809468Y-142253565D01*
G37*
G36*
X88809468Y-142253565D02*
G01*
X88848138Y-142265296D01*
X88883777Y-142284346D01*
X88915017Y-142309983D01*
X88940654Y-142341223D01*
X88959704Y-142376862D01*
X88971435Y-142415532D01*
X88976000Y-142461888D01*
X88976000Y-143538112D01*
X88971435Y-143584468D01*
X88959704Y-143623138D01*
X88940654Y-143658777D01*
X88915017Y-143690017D01*
X88883777Y-143715654D01*
X88848138Y-143734704D01*
X88809468Y-143746435D01*
X88763112Y-143751000D01*
X88111888Y-143751000D01*
X88065532Y-143746435D01*
X88026862Y-143734704D01*
X87991223Y-143715654D01*
X87959983Y-143690017D01*
X87934346Y-143658777D01*
X87915296Y-143623138D01*
X87903565Y-143584468D01*
X87899000Y-143538112D01*
X87899000Y-142461888D01*
X87903565Y-142415532D01*
X87915296Y-142376862D01*
X87934346Y-142341223D01*
X87959983Y-142309983D01*
X87991223Y-142284346D01*
X88026862Y-142265296D01*
X88065532Y-142253565D01*
X88111888Y-142249000D01*
X88763112Y-142249000D01*
X88809468Y-142253565D01*
G37*
G36*
X63809468Y-142253565D02*
G01*
X63848138Y-142265296D01*
X63883777Y-142284346D01*
X63915017Y-142309983D01*
X63940654Y-142341223D01*
X63959704Y-142376862D01*
X63971435Y-142415532D01*
X63976000Y-142461888D01*
X63976000Y-143538112D01*
X63971435Y-143584468D01*
X63959704Y-143623138D01*
X63940654Y-143658777D01*
X63915017Y-143690017D01*
X63883777Y-143715654D01*
X63848138Y-143734704D01*
X63809468Y-143746435D01*
X63763112Y-143751000D01*
X63111888Y-143751000D01*
X63065532Y-143746435D01*
X63026862Y-143734704D01*
X62991223Y-143715654D01*
X62959983Y-143690017D01*
X62934346Y-143658777D01*
X62915296Y-143623138D01*
X62903565Y-143584468D01*
X62899000Y-143538112D01*
X62899000Y-142461888D01*
X62903565Y-142415532D01*
X62915296Y-142376862D01*
X62934346Y-142341223D01*
X62959983Y-142309983D01*
X62991223Y-142284346D01*
X63026862Y-142265296D01*
X63065532Y-142253565D01*
X63111888Y-142249000D01*
X63763112Y-142249000D01*
X63809468Y-142253565D01*
G37*
G36*
X106934468Y-142253565D02*
G01*
X106973138Y-142265296D01*
X107008777Y-142284346D01*
X107040017Y-142309983D01*
X107065654Y-142341223D01*
X107084704Y-142376862D01*
X107096435Y-142415532D01*
X107101000Y-142461888D01*
X107101000Y-143538112D01*
X107096435Y-143584468D01*
X107084704Y-143623138D01*
X107065654Y-143658777D01*
X107040017Y-143690017D01*
X107008777Y-143715654D01*
X106973138Y-143734704D01*
X106934468Y-143746435D01*
X106888112Y-143751000D01*
X106236888Y-143751000D01*
X106190532Y-143746435D01*
X106151862Y-143734704D01*
X106116223Y-143715654D01*
X106084983Y-143690017D01*
X106059346Y-143658777D01*
X106040296Y-143623138D01*
X106028565Y-143584468D01*
X106024000Y-143538112D01*
X106024000Y-142461888D01*
X106028565Y-142415532D01*
X106040296Y-142376862D01*
X106059346Y-142341223D01*
X106084983Y-142309983D01*
X106116223Y-142284346D01*
X106151862Y-142265296D01*
X106190532Y-142253565D01*
X106236888Y-142249000D01*
X106888112Y-142249000D01*
X106934468Y-142253565D01*
G37*
G36*
X111934468Y-142253565D02*
G01*
X111973138Y-142265296D01*
X112008777Y-142284346D01*
X112040017Y-142309983D01*
X112065654Y-142341223D01*
X112084704Y-142376862D01*
X112096435Y-142415532D01*
X112101000Y-142461888D01*
X112101000Y-143538112D01*
X112096435Y-143584468D01*
X112084704Y-143623138D01*
X112065654Y-143658777D01*
X112040017Y-143690017D01*
X112008777Y-143715654D01*
X111973138Y-143734704D01*
X111934468Y-143746435D01*
X111888112Y-143751000D01*
X111236888Y-143751000D01*
X111190532Y-143746435D01*
X111151862Y-143734704D01*
X111116223Y-143715654D01*
X111084983Y-143690017D01*
X111059346Y-143658777D01*
X111040296Y-143623138D01*
X111028565Y-143584468D01*
X111024000Y-143538112D01*
X111024000Y-142461888D01*
X111028565Y-142415532D01*
X111040296Y-142376862D01*
X111059346Y-142341223D01*
X111084983Y-142309983D01*
X111116223Y-142284346D01*
X111151862Y-142265296D01*
X111190532Y-142253565D01*
X111236888Y-142249000D01*
X111888112Y-142249000D01*
X111934468Y-142253565D01*
G37*
G36*
X118809468Y-142253565D02*
G01*
X118848138Y-142265296D01*
X118883777Y-142284346D01*
X118915017Y-142309983D01*
X118940654Y-142341223D01*
X118959704Y-142376862D01*
X118971435Y-142415532D01*
X118976000Y-142461888D01*
X118976000Y-143538112D01*
X118971435Y-143584468D01*
X118959704Y-143623138D01*
X118940654Y-143658777D01*
X118915017Y-143690017D01*
X118883777Y-143715654D01*
X118848138Y-143734704D01*
X118809468Y-143746435D01*
X118763112Y-143751000D01*
X118111888Y-143751000D01*
X118065532Y-143746435D01*
X118026862Y-143734704D01*
X117991223Y-143715654D01*
X117959983Y-143690017D01*
X117934346Y-143658777D01*
X117915296Y-143623138D01*
X117903565Y-143584468D01*
X117899000Y-143538112D01*
X117899000Y-142461888D01*
X117903565Y-142415532D01*
X117915296Y-142376862D01*
X117934346Y-142341223D01*
X117959983Y-142309983D01*
X117991223Y-142284346D01*
X118026862Y-142265296D01*
X118065532Y-142253565D01*
X118111888Y-142249000D01*
X118763112Y-142249000D01*
X118809468Y-142253565D01*
G37*
G36*
X138809468Y-142253565D02*
G01*
X138848138Y-142265296D01*
X138883777Y-142284346D01*
X138915017Y-142309983D01*
X138940654Y-142341223D01*
X138959704Y-142376862D01*
X138971435Y-142415532D01*
X138976000Y-142461888D01*
X138976000Y-143538112D01*
X138971435Y-143584468D01*
X138959704Y-143623138D01*
X138940654Y-143658777D01*
X138915017Y-143690017D01*
X138883777Y-143715654D01*
X138848138Y-143734704D01*
X138809468Y-143746435D01*
X138763112Y-143751000D01*
X138111888Y-143751000D01*
X138065532Y-143746435D01*
X138026862Y-143734704D01*
X137991223Y-143715654D01*
X137959983Y-143690017D01*
X137934346Y-143658777D01*
X137915296Y-143623138D01*
X137903565Y-143584468D01*
X137899000Y-143538112D01*
X137899000Y-142461888D01*
X137903565Y-142415532D01*
X137915296Y-142376862D01*
X137934346Y-142341223D01*
X137959983Y-142309983D01*
X137991223Y-142284346D01*
X138026862Y-142265296D01*
X138065532Y-142253565D01*
X138111888Y-142249000D01*
X138763112Y-142249000D01*
X138809468Y-142253565D01*
G37*
G36*
X116934468Y-142253565D02*
G01*
X116973138Y-142265296D01*
X117008777Y-142284346D01*
X117040017Y-142309983D01*
X117065654Y-142341223D01*
X117084704Y-142376862D01*
X117096435Y-142415532D01*
X117101000Y-142461888D01*
X117101000Y-143538112D01*
X117096435Y-143584468D01*
X117084704Y-143623138D01*
X117065654Y-143658777D01*
X117040017Y-143690017D01*
X117008777Y-143715654D01*
X116973138Y-143734704D01*
X116934468Y-143746435D01*
X116888112Y-143751000D01*
X116236888Y-143751000D01*
X116190532Y-143746435D01*
X116151862Y-143734704D01*
X116116223Y-143715654D01*
X116084983Y-143690017D01*
X116059346Y-143658777D01*
X116040296Y-143623138D01*
X116028565Y-143584468D01*
X116024000Y-143538112D01*
X116024000Y-142461888D01*
X116028565Y-142415532D01*
X116040296Y-142376862D01*
X116059346Y-142341223D01*
X116084983Y-142309983D01*
X116116223Y-142284346D01*
X116151862Y-142265296D01*
X116190532Y-142253565D01*
X116236888Y-142249000D01*
X116888112Y-142249000D01*
X116934468Y-142253565D01*
G37*
G36*
X68809468Y-142253565D02*
G01*
X68848138Y-142265296D01*
X68883777Y-142284346D01*
X68915017Y-142309983D01*
X68940654Y-142341223D01*
X68959704Y-142376862D01*
X68971435Y-142415532D01*
X68976000Y-142461888D01*
X68976000Y-143538112D01*
X68971435Y-143584468D01*
X68959704Y-143623138D01*
X68940654Y-143658777D01*
X68915017Y-143690017D01*
X68883777Y-143715654D01*
X68848138Y-143734704D01*
X68809468Y-143746435D01*
X68763112Y-143751000D01*
X68111888Y-143751000D01*
X68065532Y-143746435D01*
X68026862Y-143734704D01*
X67991223Y-143715654D01*
X67959983Y-143690017D01*
X67934346Y-143658777D01*
X67915296Y-143623138D01*
X67903565Y-143584468D01*
X67899000Y-143538112D01*
X67899000Y-142461888D01*
X67903565Y-142415532D01*
X67915296Y-142376862D01*
X67934346Y-142341223D01*
X67959983Y-142309983D01*
X67991223Y-142284346D01*
X68026862Y-142265296D01*
X68065532Y-142253565D01*
X68111888Y-142249000D01*
X68763112Y-142249000D01*
X68809468Y-142253565D01*
G37*
G36*
X121934468Y-142253565D02*
G01*
X121973138Y-142265296D01*
X122008777Y-142284346D01*
X122040017Y-142309983D01*
X122065654Y-142341223D01*
X122084704Y-142376862D01*
X122096435Y-142415532D01*
X122101000Y-142461888D01*
X122101000Y-143538112D01*
X122096435Y-143584468D01*
X122084704Y-143623138D01*
X122065654Y-143658777D01*
X122040017Y-143690017D01*
X122008777Y-143715654D01*
X121973138Y-143734704D01*
X121934468Y-143746435D01*
X121888112Y-143751000D01*
X121236888Y-143751000D01*
X121190532Y-143746435D01*
X121151862Y-143734704D01*
X121116223Y-143715654D01*
X121084983Y-143690017D01*
X121059346Y-143658777D01*
X121040296Y-143623138D01*
X121028565Y-143584468D01*
X121024000Y-143538112D01*
X121024000Y-142461888D01*
X121028565Y-142415532D01*
X121040296Y-142376862D01*
X121059346Y-142341223D01*
X121084983Y-142309983D01*
X121116223Y-142284346D01*
X121151862Y-142265296D01*
X121190532Y-142253565D01*
X121236888Y-142249000D01*
X121888112Y-142249000D01*
X121934468Y-142253565D01*
G37*
G36*
X128809468Y-142253565D02*
G01*
X128848138Y-142265296D01*
X128883777Y-142284346D01*
X128915017Y-142309983D01*
X128940654Y-142341223D01*
X128959704Y-142376862D01*
X128971435Y-142415532D01*
X128976000Y-142461888D01*
X128976000Y-143538112D01*
X128971435Y-143584468D01*
X128959704Y-143623138D01*
X128940654Y-143658777D01*
X128915017Y-143690017D01*
X128883777Y-143715654D01*
X128848138Y-143734704D01*
X128809468Y-143746435D01*
X128763112Y-143751000D01*
X128111888Y-143751000D01*
X128065532Y-143746435D01*
X128026862Y-143734704D01*
X127991223Y-143715654D01*
X127959983Y-143690017D01*
X127934346Y-143658777D01*
X127915296Y-143623138D01*
X127903565Y-143584468D01*
X127899000Y-143538112D01*
X127899000Y-142461888D01*
X127903565Y-142415532D01*
X127915296Y-142376862D01*
X127934346Y-142341223D01*
X127959983Y-142309983D01*
X127991223Y-142284346D01*
X128026862Y-142265296D01*
X128065532Y-142253565D01*
X128111888Y-142249000D01*
X128763112Y-142249000D01*
X128809468Y-142253565D01*
G37*
G36*
X126934468Y-142253565D02*
G01*
X126973138Y-142265296D01*
X127008777Y-142284346D01*
X127040017Y-142309983D01*
X127065654Y-142341223D01*
X127084704Y-142376862D01*
X127096435Y-142415532D01*
X127101000Y-142461888D01*
X127101000Y-143538112D01*
X127096435Y-143584468D01*
X127084704Y-143623138D01*
X127065654Y-143658777D01*
X127040017Y-143690017D01*
X127008777Y-143715654D01*
X126973138Y-143734704D01*
X126934468Y-143746435D01*
X126888112Y-143751000D01*
X126236888Y-143751000D01*
X126190532Y-143746435D01*
X126151862Y-143734704D01*
X126116223Y-143715654D01*
X126084983Y-143690017D01*
X126059346Y-143658777D01*
X126040296Y-143623138D01*
X126028565Y-143584468D01*
X126024000Y-143538112D01*
X126024000Y-142461888D01*
X126028565Y-142415532D01*
X126040296Y-142376862D01*
X126059346Y-142341223D01*
X126084983Y-142309983D01*
X126116223Y-142284346D01*
X126151862Y-142265296D01*
X126190532Y-142253565D01*
X126236888Y-142249000D01*
X126888112Y-142249000D01*
X126934468Y-142253565D01*
G37*
G36*
X133809468Y-142253565D02*
G01*
X133848138Y-142265296D01*
X133883777Y-142284346D01*
X133915017Y-142309983D01*
X133940654Y-142341223D01*
X133959704Y-142376862D01*
X133971435Y-142415532D01*
X133976000Y-142461888D01*
X133976000Y-143538112D01*
X133971435Y-143584468D01*
X133959704Y-143623138D01*
X133940654Y-143658777D01*
X133915017Y-143690017D01*
X133883777Y-143715654D01*
X133848138Y-143734704D01*
X133809468Y-143746435D01*
X133763112Y-143751000D01*
X133111888Y-143751000D01*
X133065532Y-143746435D01*
X133026862Y-143734704D01*
X132991223Y-143715654D01*
X132959983Y-143690017D01*
X132934346Y-143658777D01*
X132915296Y-143623138D01*
X132903565Y-143584468D01*
X132899000Y-143538112D01*
X132899000Y-142461888D01*
X132903565Y-142415532D01*
X132915296Y-142376862D01*
X132934346Y-142341223D01*
X132959983Y-142309983D01*
X132991223Y-142284346D01*
X133026862Y-142265296D01*
X133065532Y-142253565D01*
X133111888Y-142249000D01*
X133763112Y-142249000D01*
X133809468Y-142253565D01*
G37*
G36*
X131934468Y-142253565D02*
G01*
X131973138Y-142265296D01*
X132008777Y-142284346D01*
X132040017Y-142309983D01*
X132065654Y-142341223D01*
X132084704Y-142376862D01*
X132096435Y-142415532D01*
X132101000Y-142461888D01*
X132101000Y-143538112D01*
X132096435Y-143584468D01*
X132084704Y-143623138D01*
X132065654Y-143658777D01*
X132040017Y-143690017D01*
X132008777Y-143715654D01*
X131973138Y-143734704D01*
X131934468Y-143746435D01*
X131888112Y-143751000D01*
X131236888Y-143751000D01*
X131190532Y-143746435D01*
X131151862Y-143734704D01*
X131116223Y-143715654D01*
X131084983Y-143690017D01*
X131059346Y-143658777D01*
X131040296Y-143623138D01*
X131028565Y-143584468D01*
X131024000Y-143538112D01*
X131024000Y-142461888D01*
X131028565Y-142415532D01*
X131040296Y-142376862D01*
X131059346Y-142341223D01*
X131084983Y-142309983D01*
X131116223Y-142284346D01*
X131151862Y-142265296D01*
X131190532Y-142253565D01*
X131236888Y-142249000D01*
X131888112Y-142249000D01*
X131934468Y-142253565D01*
G37*
G36*
X136934468Y-142253565D02*
G01*
X136973138Y-142265296D01*
X137008777Y-142284346D01*
X137040017Y-142309983D01*
X137065654Y-142341223D01*
X137084704Y-142376862D01*
X137096435Y-142415532D01*
X137101000Y-142461888D01*
X137101000Y-143538112D01*
X137096435Y-143584468D01*
X137084704Y-143623138D01*
X137065654Y-143658777D01*
X137040017Y-143690017D01*
X137008777Y-143715654D01*
X136973138Y-143734704D01*
X136934468Y-143746435D01*
X136888112Y-143751000D01*
X136236888Y-143751000D01*
X136190532Y-143746435D01*
X136151862Y-143734704D01*
X136116223Y-143715654D01*
X136084983Y-143690017D01*
X136059346Y-143658777D01*
X136040296Y-143623138D01*
X136028565Y-143584468D01*
X136024000Y-143538112D01*
X136024000Y-142461888D01*
X136028565Y-142415532D01*
X136040296Y-142376862D01*
X136059346Y-142341223D01*
X136084983Y-142309983D01*
X136116223Y-142284346D01*
X136151862Y-142265296D01*
X136190532Y-142253565D01*
X136236888Y-142249000D01*
X136888112Y-142249000D01*
X136934468Y-142253565D01*
G37*
G36*
X143584468Y-137903565D02*
G01*
X143623138Y-137915296D01*
X143658777Y-137934346D01*
X143690017Y-137959983D01*
X143715654Y-137991223D01*
X143734704Y-138026862D01*
X143746435Y-138065532D01*
X143751000Y-138111888D01*
X143751000Y-138763112D01*
X143746435Y-138809468D01*
X143734704Y-138848138D01*
X143715654Y-138883777D01*
X143690017Y-138915017D01*
X143658777Y-138940654D01*
X143623138Y-138959704D01*
X143584468Y-138971435D01*
X143538112Y-138976000D01*
X142461888Y-138976000D01*
X142415532Y-138971435D01*
X142376862Y-138959704D01*
X142341223Y-138940654D01*
X142309983Y-138915017D01*
X142284346Y-138883777D01*
X142265296Y-138848138D01*
X142253565Y-138809468D01*
X142249000Y-138763112D01*
X142249000Y-138111888D01*
X142253565Y-138065532D01*
X142265296Y-138026862D01*
X142284346Y-137991223D01*
X142309983Y-137959983D01*
X142341223Y-137934346D01*
X142376862Y-137915296D01*
X142415532Y-137903565D01*
X142461888Y-137899000D01*
X143538112Y-137899000D01*
X143584468Y-137903565D01*
G37*
G36*
X57584468Y-137903565D02*
G01*
X57623138Y-137915296D01*
X57658777Y-137934346D01*
X57690017Y-137959983D01*
X57715654Y-137991223D01*
X57734704Y-138026862D01*
X57746435Y-138065532D01*
X57751000Y-138111888D01*
X57751000Y-138763112D01*
X57746435Y-138809468D01*
X57734704Y-138848138D01*
X57715654Y-138883777D01*
X57690017Y-138915017D01*
X57658777Y-138940654D01*
X57623138Y-138959704D01*
X57584468Y-138971435D01*
X57538112Y-138976000D01*
X56461888Y-138976000D01*
X56415532Y-138971435D01*
X56376862Y-138959704D01*
X56341223Y-138940654D01*
X56309983Y-138915017D01*
X56284346Y-138883777D01*
X56265296Y-138848138D01*
X56253565Y-138809468D01*
X56249000Y-138763112D01*
X56249000Y-138111888D01*
X56253565Y-138065532D01*
X56265296Y-138026862D01*
X56284346Y-137991223D01*
X56309983Y-137959983D01*
X56341223Y-137934346D01*
X56376862Y-137915296D01*
X56415532Y-137903565D01*
X56461888Y-137899000D01*
X57538112Y-137899000D01*
X57584468Y-137903565D01*
G37*
G36*
X57584468Y-136028565D02*
G01*
X57623138Y-136040296D01*
X57658777Y-136059346D01*
X57690017Y-136084983D01*
X57715654Y-136116223D01*
X57734704Y-136151862D01*
X57746435Y-136190532D01*
X57751000Y-136236888D01*
X57751000Y-136888112D01*
X57746435Y-136934468D01*
X57734704Y-136973138D01*
X57715654Y-137008777D01*
X57690017Y-137040017D01*
X57658777Y-137065654D01*
X57623138Y-137084704D01*
X57584468Y-137096435D01*
X57538112Y-137101000D01*
X56461888Y-137101000D01*
X56415532Y-137096435D01*
X56376862Y-137084704D01*
X56341223Y-137065654D01*
X56309983Y-137040017D01*
X56284346Y-137008777D01*
X56265296Y-136973138D01*
X56253565Y-136934468D01*
X56249000Y-136888112D01*
X56249000Y-136236888D01*
X56253565Y-136190532D01*
X56265296Y-136151862D01*
X56284346Y-136116223D01*
X56309983Y-136084983D01*
X56341223Y-136059346D01*
X56376862Y-136040296D01*
X56415532Y-136028565D01*
X56461888Y-136024000D01*
X57538112Y-136024000D01*
X57584468Y-136028565D01*
G37*
G36*
X143584468Y-136028565D02*
G01*
X143623138Y-136040296D01*
X143658777Y-136059346D01*
X143690017Y-136084983D01*
X143715654Y-136116223D01*
X143734704Y-136151862D01*
X143746435Y-136190532D01*
X143751000Y-136236888D01*
X143751000Y-136888112D01*
X143746435Y-136934468D01*
X143734704Y-136973138D01*
X143715654Y-137008777D01*
X143690017Y-137040017D01*
X143658777Y-137065654D01*
X143623138Y-137084704D01*
X143584468Y-137096435D01*
X143538112Y-137101000D01*
X142461888Y-137101000D01*
X142415532Y-137096435D01*
X142376862Y-137084704D01*
X142341223Y-137065654D01*
X142309983Y-137040017D01*
X142284346Y-137008777D01*
X142265296Y-136973138D01*
X142253565Y-136934468D01*
X142249000Y-136888112D01*
X142249000Y-136236888D01*
X142253565Y-136190532D01*
X142265296Y-136151862D01*
X142284346Y-136116223D01*
X142309983Y-136084983D01*
X142341223Y-136059346D01*
X142376862Y-136040296D01*
X142415532Y-136028565D01*
X142461888Y-136024000D01*
X143538112Y-136024000D01*
X143584468Y-136028565D01*
G37*
G36*
X143584468Y-132903565D02*
G01*
X143623138Y-132915296D01*
X143658777Y-132934346D01*
X143690017Y-132959983D01*
X143715654Y-132991223D01*
X143734704Y-133026862D01*
X143746435Y-133065532D01*
X143751000Y-133111888D01*
X143751000Y-133763112D01*
X143746435Y-133809468D01*
X143734704Y-133848138D01*
X143715654Y-133883777D01*
X143690017Y-133915017D01*
X143658777Y-133940654D01*
X143623138Y-133959704D01*
X143584468Y-133971435D01*
X143538112Y-133976000D01*
X142461888Y-133976000D01*
X142415532Y-133971435D01*
X142376862Y-133959704D01*
X142341223Y-133940654D01*
X142309983Y-133915017D01*
X142284346Y-133883777D01*
X142265296Y-133848138D01*
X142253565Y-133809468D01*
X142249000Y-133763112D01*
X142249000Y-133111888D01*
X142253565Y-133065532D01*
X142265296Y-133026862D01*
X142284346Y-132991223D01*
X142309983Y-132959983D01*
X142341223Y-132934346D01*
X142376862Y-132915296D01*
X142415532Y-132903565D01*
X142461888Y-132899000D01*
X143538112Y-132899000D01*
X143584468Y-132903565D01*
G37*
G36*
X57584468Y-132903565D02*
G01*
X57623138Y-132915296D01*
X57658777Y-132934346D01*
X57690017Y-132959983D01*
X57715654Y-132991223D01*
X57734704Y-133026862D01*
X57746435Y-133065532D01*
X57751000Y-133111888D01*
X57751000Y-133763112D01*
X57746435Y-133809468D01*
X57734704Y-133848138D01*
X57715654Y-133883777D01*
X57690017Y-133915017D01*
X57658777Y-133940654D01*
X57623138Y-133959704D01*
X57584468Y-133971435D01*
X57538112Y-133976000D01*
X56461888Y-133976000D01*
X56415532Y-133971435D01*
X56376862Y-133959704D01*
X56341223Y-133940654D01*
X56309983Y-133915017D01*
X56284346Y-133883777D01*
X56265296Y-133848138D01*
X56253565Y-133809468D01*
X56249000Y-133763112D01*
X56249000Y-133111888D01*
X56253565Y-133065532D01*
X56265296Y-133026862D01*
X56284346Y-132991223D01*
X56309983Y-132959983D01*
X56341223Y-132934346D01*
X56376862Y-132915296D01*
X56415532Y-132903565D01*
X56461888Y-132899000D01*
X57538112Y-132899000D01*
X57584468Y-132903565D01*
G37*
G36*
X57584468Y-131028565D02*
G01*
X57623138Y-131040296D01*
X57658777Y-131059346D01*
X57690017Y-131084983D01*
X57715654Y-131116223D01*
X57734704Y-131151862D01*
X57746435Y-131190532D01*
X57751000Y-131236888D01*
X57751000Y-131888112D01*
X57746435Y-131934468D01*
X57734704Y-131973138D01*
X57715654Y-132008777D01*
X57690017Y-132040017D01*
X57658777Y-132065654D01*
X57623138Y-132084704D01*
X57584468Y-132096435D01*
X57538112Y-132101000D01*
X56461888Y-132101000D01*
X56415532Y-132096435D01*
X56376862Y-132084704D01*
X56341223Y-132065654D01*
X56309983Y-132040017D01*
X56284346Y-132008777D01*
X56265296Y-131973138D01*
X56253565Y-131934468D01*
X56249000Y-131888112D01*
X56249000Y-131236888D01*
X56253565Y-131190532D01*
X56265296Y-131151862D01*
X56284346Y-131116223D01*
X56309983Y-131084983D01*
X56341223Y-131059346D01*
X56376862Y-131040296D01*
X56415532Y-131028565D01*
X56461888Y-131024000D01*
X57538112Y-131024000D01*
X57584468Y-131028565D01*
G37*
G36*
X143584468Y-131028565D02*
G01*
X143623138Y-131040296D01*
X143658777Y-131059346D01*
X143690017Y-131084983D01*
X143715654Y-131116223D01*
X143734704Y-131151862D01*
X143746435Y-131190532D01*
X143751000Y-131236888D01*
X143751000Y-131888112D01*
X143746435Y-131934468D01*
X143734704Y-131973138D01*
X143715654Y-132008777D01*
X143690017Y-132040017D01*
X143658777Y-132065654D01*
X143623138Y-132084704D01*
X143584468Y-132096435D01*
X143538112Y-132101000D01*
X142461888Y-132101000D01*
X142415532Y-132096435D01*
X142376862Y-132084704D01*
X142341223Y-132065654D01*
X142309983Y-132040017D01*
X142284346Y-132008777D01*
X142265296Y-131973138D01*
X142253565Y-131934468D01*
X142249000Y-131888112D01*
X142249000Y-131236888D01*
X142253565Y-131190532D01*
X142265296Y-131151862D01*
X142284346Y-131116223D01*
X142309983Y-131084983D01*
X142341223Y-131059346D01*
X142376862Y-131040296D01*
X142415532Y-131028565D01*
X142461888Y-131024000D01*
X143538112Y-131024000D01*
X143584468Y-131028565D01*
G37*
G36*
X143584468Y-127903565D02*
G01*
X143623138Y-127915296D01*
X143658777Y-127934346D01*
X143690017Y-127959983D01*
X143715654Y-127991223D01*
X143734704Y-128026862D01*
X143746435Y-128065532D01*
X143751000Y-128111888D01*
X143751000Y-128763112D01*
X143746435Y-128809468D01*
X143734704Y-128848138D01*
X143715654Y-128883777D01*
X143690017Y-128915017D01*
X143658777Y-128940654D01*
X143623138Y-128959704D01*
X143584468Y-128971435D01*
X143538112Y-128976000D01*
X142461888Y-128976000D01*
X142415532Y-128971435D01*
X142376862Y-128959704D01*
X142341223Y-128940654D01*
X142309983Y-128915017D01*
X142284346Y-128883777D01*
X142265296Y-128848138D01*
X142253565Y-128809468D01*
X142249000Y-128763112D01*
X142249000Y-128111888D01*
X142253565Y-128065532D01*
X142265296Y-128026862D01*
X142284346Y-127991223D01*
X142309983Y-127959983D01*
X142341223Y-127934346D01*
X142376862Y-127915296D01*
X142415532Y-127903565D01*
X142461888Y-127899000D01*
X143538112Y-127899000D01*
X143584468Y-127903565D01*
G37*
G36*
X57584468Y-127903565D02*
G01*
X57623138Y-127915296D01*
X57658777Y-127934346D01*
X57690017Y-127959983D01*
X57715654Y-127991223D01*
X57734704Y-128026862D01*
X57746435Y-128065532D01*
X57751000Y-128111888D01*
X57751000Y-128763112D01*
X57746435Y-128809468D01*
X57734704Y-128848138D01*
X57715654Y-128883777D01*
X57690017Y-128915017D01*
X57658777Y-128940654D01*
X57623138Y-128959704D01*
X57584468Y-128971435D01*
X57538112Y-128976000D01*
X56461888Y-128976000D01*
X56415532Y-128971435D01*
X56376862Y-128959704D01*
X56341223Y-128940654D01*
X56309983Y-128915017D01*
X56284346Y-128883777D01*
X56265296Y-128848138D01*
X56253565Y-128809468D01*
X56249000Y-128763112D01*
X56249000Y-128111888D01*
X56253565Y-128065532D01*
X56265296Y-128026862D01*
X56284346Y-127991223D01*
X56309983Y-127959983D01*
X56341223Y-127934346D01*
X56376862Y-127915296D01*
X56415532Y-127903565D01*
X56461888Y-127899000D01*
X57538112Y-127899000D01*
X57584468Y-127903565D01*
G37*
G36*
X143584468Y-126028565D02*
G01*
X143623138Y-126040296D01*
X143658777Y-126059346D01*
X143690017Y-126084983D01*
X143715654Y-126116223D01*
X143734704Y-126151862D01*
X143746435Y-126190532D01*
X143751000Y-126236888D01*
X143751000Y-126888112D01*
X143746435Y-126934468D01*
X143734704Y-126973138D01*
X143715654Y-127008777D01*
X143690017Y-127040017D01*
X143658777Y-127065654D01*
X143623138Y-127084704D01*
X143584468Y-127096435D01*
X143538112Y-127101000D01*
X142461888Y-127101000D01*
X142415532Y-127096435D01*
X142376862Y-127084704D01*
X142341223Y-127065654D01*
X142309983Y-127040017D01*
X142284346Y-127008777D01*
X142265296Y-126973138D01*
X142253565Y-126934468D01*
X142249000Y-126888112D01*
X142249000Y-126236888D01*
X142253565Y-126190532D01*
X142265296Y-126151862D01*
X142284346Y-126116223D01*
X142309983Y-126084983D01*
X142341223Y-126059346D01*
X142376862Y-126040296D01*
X142415532Y-126028565D01*
X142461888Y-126024000D01*
X143538112Y-126024000D01*
X143584468Y-126028565D01*
G37*
G36*
X57584468Y-126028565D02*
G01*
X57623138Y-126040296D01*
X57658777Y-126059346D01*
X57690017Y-126084983D01*
X57715654Y-126116223D01*
X57734704Y-126151862D01*
X57746435Y-126190532D01*
X57751000Y-126236888D01*
X57751000Y-126888112D01*
X57746435Y-126934468D01*
X57734704Y-126973138D01*
X57715654Y-127008777D01*
X57690017Y-127040017D01*
X57658777Y-127065654D01*
X57623138Y-127084704D01*
X57584468Y-127096435D01*
X57538112Y-127101000D01*
X56461888Y-127101000D01*
X56415532Y-127096435D01*
X56376862Y-127084704D01*
X56341223Y-127065654D01*
X56309983Y-127040017D01*
X56284346Y-127008777D01*
X56265296Y-126973138D01*
X56253565Y-126934468D01*
X56249000Y-126888112D01*
X56249000Y-126236888D01*
X56253565Y-126190532D01*
X56265296Y-126151862D01*
X56284346Y-126116223D01*
X56309983Y-126084983D01*
X56341223Y-126059346D01*
X56376862Y-126040296D01*
X56415532Y-126028565D01*
X56461888Y-126024000D01*
X57538112Y-126024000D01*
X57584468Y-126028565D01*
G37*
G36*
X57584468Y-122903565D02*
G01*
X57623138Y-122915296D01*
X57658777Y-122934346D01*
X57690017Y-122959983D01*
X57715654Y-122991223D01*
X57734704Y-123026862D01*
X57746435Y-123065532D01*
X57751000Y-123111888D01*
X57751000Y-123763112D01*
X57746435Y-123809468D01*
X57734704Y-123848138D01*
X57715654Y-123883777D01*
X57690017Y-123915017D01*
X57658777Y-123940654D01*
X57623138Y-123959704D01*
X57584468Y-123971435D01*
X57538112Y-123976000D01*
X56461888Y-123976000D01*
X56415532Y-123971435D01*
X56376862Y-123959704D01*
X56341223Y-123940654D01*
X56309983Y-123915017D01*
X56284346Y-123883777D01*
X56265296Y-123848138D01*
X56253565Y-123809468D01*
X56249000Y-123763112D01*
X56249000Y-123111888D01*
X56253565Y-123065532D01*
X56265296Y-123026862D01*
X56284346Y-122991223D01*
X56309983Y-122959983D01*
X56341223Y-122934346D01*
X56376862Y-122915296D01*
X56415532Y-122903565D01*
X56461888Y-122899000D01*
X57538112Y-122899000D01*
X57584468Y-122903565D01*
G37*
G36*
X143584468Y-122903565D02*
G01*
X143623138Y-122915296D01*
X143658777Y-122934346D01*
X143690017Y-122959983D01*
X143715654Y-122991223D01*
X143734704Y-123026862D01*
X143746435Y-123065532D01*
X143751000Y-123111888D01*
X143751000Y-123763112D01*
X143746435Y-123809468D01*
X143734704Y-123848138D01*
X143715654Y-123883777D01*
X143690017Y-123915017D01*
X143658777Y-123940654D01*
X143623138Y-123959704D01*
X143584468Y-123971435D01*
X143538112Y-123976000D01*
X142461888Y-123976000D01*
X142415532Y-123971435D01*
X142376862Y-123959704D01*
X142341223Y-123940654D01*
X142309983Y-123915017D01*
X142284346Y-123883777D01*
X142265296Y-123848138D01*
X142253565Y-123809468D01*
X142249000Y-123763112D01*
X142249000Y-123111888D01*
X142253565Y-123065532D01*
X142265296Y-123026862D01*
X142284346Y-122991223D01*
X142309983Y-122959983D01*
X142341223Y-122934346D01*
X142376862Y-122915296D01*
X142415532Y-122903565D01*
X142461888Y-122899000D01*
X143538112Y-122899000D01*
X143584468Y-122903565D01*
G37*
G36*
X143584468Y-121028565D02*
G01*
X143623138Y-121040296D01*
X143658777Y-121059346D01*
X143690017Y-121084983D01*
X143715654Y-121116223D01*
X143734704Y-121151862D01*
X143746435Y-121190532D01*
X143751000Y-121236888D01*
X143751000Y-121888112D01*
X143746435Y-121934468D01*
X143734704Y-121973138D01*
X143715654Y-122008777D01*
X143690017Y-122040017D01*
X143658777Y-122065654D01*
X143623138Y-122084704D01*
X143584468Y-122096435D01*
X143538112Y-122101000D01*
X142461888Y-122101000D01*
X142415532Y-122096435D01*
X142376862Y-122084704D01*
X142341223Y-122065654D01*
X142309983Y-122040017D01*
X142284346Y-122008777D01*
X142265296Y-121973138D01*
X142253565Y-121934468D01*
X142249000Y-121888112D01*
X142249000Y-121236888D01*
X142253565Y-121190532D01*
X142265296Y-121151862D01*
X142284346Y-121116223D01*
X142309983Y-121084983D01*
X142341223Y-121059346D01*
X142376862Y-121040296D01*
X142415532Y-121028565D01*
X142461888Y-121024000D01*
X143538112Y-121024000D01*
X143584468Y-121028565D01*
G37*
G36*
X57584468Y-121028565D02*
G01*
X57623138Y-121040296D01*
X57658777Y-121059346D01*
X57690017Y-121084983D01*
X57715654Y-121116223D01*
X57734704Y-121151862D01*
X57746435Y-121190532D01*
X57751000Y-121236888D01*
X57751000Y-121888112D01*
X57746435Y-121934468D01*
X57734704Y-121973138D01*
X57715654Y-122008777D01*
X57690017Y-122040017D01*
X57658777Y-122065654D01*
X57623138Y-122084704D01*
X57584468Y-122096435D01*
X57538112Y-122101000D01*
X56461888Y-122101000D01*
X56415532Y-122096435D01*
X56376862Y-122084704D01*
X56341223Y-122065654D01*
X56309983Y-122040017D01*
X56284346Y-122008777D01*
X56265296Y-121973138D01*
X56253565Y-121934468D01*
X56249000Y-121888112D01*
X56249000Y-121236888D01*
X56253565Y-121190532D01*
X56265296Y-121151862D01*
X56284346Y-121116223D01*
X56309983Y-121084983D01*
X56341223Y-121059346D01*
X56376862Y-121040296D01*
X56415532Y-121028565D01*
X56461888Y-121024000D01*
X57538112Y-121024000D01*
X57584468Y-121028565D01*
G37*
G36*
X143584468Y-117903565D02*
G01*
X143623138Y-117915296D01*
X143658777Y-117934346D01*
X143690017Y-117959983D01*
X143715654Y-117991223D01*
X143734704Y-118026862D01*
X143746435Y-118065532D01*
X143751000Y-118111888D01*
X143751000Y-118763112D01*
X143746435Y-118809468D01*
X143734704Y-118848138D01*
X143715654Y-118883777D01*
X143690017Y-118915017D01*
X143658777Y-118940654D01*
X143623138Y-118959704D01*
X143584468Y-118971435D01*
X143538112Y-118976000D01*
X142461888Y-118976000D01*
X142415532Y-118971435D01*
X142376862Y-118959704D01*
X142341223Y-118940654D01*
X142309983Y-118915017D01*
X142284346Y-118883777D01*
X142265296Y-118848138D01*
X142253565Y-118809468D01*
X142249000Y-118763112D01*
X142249000Y-118111888D01*
X142253565Y-118065532D01*
X142265296Y-118026862D01*
X142284346Y-117991223D01*
X142309983Y-117959983D01*
X142341223Y-117934346D01*
X142376862Y-117915296D01*
X142415532Y-117903565D01*
X142461888Y-117899000D01*
X143538112Y-117899000D01*
X143584468Y-117903565D01*
G37*
G36*
X57584468Y-117903565D02*
G01*
X57623138Y-117915296D01*
X57658777Y-117934346D01*
X57690017Y-117959983D01*
X57715654Y-117991223D01*
X57734704Y-118026862D01*
X57746435Y-118065532D01*
X57751000Y-118111888D01*
X57751000Y-118763112D01*
X57746435Y-118809468D01*
X57734704Y-118848138D01*
X57715654Y-118883777D01*
X57690017Y-118915017D01*
X57658777Y-118940654D01*
X57623138Y-118959704D01*
X57584468Y-118971435D01*
X57538112Y-118976000D01*
X56461888Y-118976000D01*
X56415532Y-118971435D01*
X56376862Y-118959704D01*
X56341223Y-118940654D01*
X56309983Y-118915017D01*
X56284346Y-118883777D01*
X56265296Y-118848138D01*
X56253565Y-118809468D01*
X56249000Y-118763112D01*
X56249000Y-118111888D01*
X56253565Y-118065532D01*
X56265296Y-118026862D01*
X56284346Y-117991223D01*
X56309983Y-117959983D01*
X56341223Y-117934346D01*
X56376862Y-117915296D01*
X56415532Y-117903565D01*
X56461888Y-117899000D01*
X57538112Y-117899000D01*
X57584468Y-117903565D01*
G37*
G36*
X143584468Y-116028565D02*
G01*
X143623138Y-116040296D01*
X143658777Y-116059346D01*
X143690017Y-116084983D01*
X143715654Y-116116223D01*
X143734704Y-116151862D01*
X143746435Y-116190532D01*
X143751000Y-116236888D01*
X143751000Y-116888112D01*
X143746435Y-116934468D01*
X143734704Y-116973138D01*
X143715654Y-117008777D01*
X143690017Y-117040017D01*
X143658777Y-117065654D01*
X143623138Y-117084704D01*
X143584468Y-117096435D01*
X143538112Y-117101000D01*
X142461888Y-117101000D01*
X142415532Y-117096435D01*
X142376862Y-117084704D01*
X142341223Y-117065654D01*
X142309983Y-117040017D01*
X142284346Y-117008777D01*
X142265296Y-116973138D01*
X142253565Y-116934468D01*
X142249000Y-116888112D01*
X142249000Y-116236888D01*
X142253565Y-116190532D01*
X142265296Y-116151862D01*
X142284346Y-116116223D01*
X142309983Y-116084983D01*
X142341223Y-116059346D01*
X142376862Y-116040296D01*
X142415532Y-116028565D01*
X142461888Y-116024000D01*
X143538112Y-116024000D01*
X143584468Y-116028565D01*
G37*
G36*
X57584468Y-116028565D02*
G01*
X57623138Y-116040296D01*
X57658777Y-116059346D01*
X57690017Y-116084983D01*
X57715654Y-116116223D01*
X57734704Y-116151862D01*
X57746435Y-116190532D01*
X57751000Y-116236888D01*
X57751000Y-116888112D01*
X57746435Y-116934468D01*
X57734704Y-116973138D01*
X57715654Y-117008777D01*
X57690017Y-117040017D01*
X57658777Y-117065654D01*
X57623138Y-117084704D01*
X57584468Y-117096435D01*
X57538112Y-117101000D01*
X56461888Y-117101000D01*
X56415532Y-117096435D01*
X56376862Y-117084704D01*
X56341223Y-117065654D01*
X56309983Y-117040017D01*
X56284346Y-117008777D01*
X56265296Y-116973138D01*
X56253565Y-116934468D01*
X56249000Y-116888112D01*
X56249000Y-116236888D01*
X56253565Y-116190532D01*
X56265296Y-116151862D01*
X56284346Y-116116223D01*
X56309983Y-116084983D01*
X56341223Y-116059346D01*
X56376862Y-116040296D01*
X56415532Y-116028565D01*
X56461888Y-116024000D01*
X57538112Y-116024000D01*
X57584468Y-116028565D01*
G37*
G36*
X143584468Y-112903565D02*
G01*
X143623138Y-112915296D01*
X143658777Y-112934346D01*
X143690017Y-112959983D01*
X143715654Y-112991223D01*
X143734704Y-113026862D01*
X143746435Y-113065532D01*
X143751000Y-113111888D01*
X143751000Y-113763112D01*
X143746435Y-113809468D01*
X143734704Y-113848138D01*
X143715654Y-113883777D01*
X143690017Y-113915017D01*
X143658777Y-113940654D01*
X143623138Y-113959704D01*
X143584468Y-113971435D01*
X143538112Y-113976000D01*
X142461888Y-113976000D01*
X142415532Y-113971435D01*
X142376862Y-113959704D01*
X142341223Y-113940654D01*
X142309983Y-113915017D01*
X142284346Y-113883777D01*
X142265296Y-113848138D01*
X142253565Y-113809468D01*
X142249000Y-113763112D01*
X142249000Y-113111888D01*
X142253565Y-113065532D01*
X142265296Y-113026862D01*
X142284346Y-112991223D01*
X142309983Y-112959983D01*
X142341223Y-112934346D01*
X142376862Y-112915296D01*
X142415532Y-112903565D01*
X142461888Y-112899000D01*
X143538112Y-112899000D01*
X143584468Y-112903565D01*
G37*
G36*
X57584468Y-112903565D02*
G01*
X57623138Y-112915296D01*
X57658777Y-112934346D01*
X57690017Y-112959983D01*
X57715654Y-112991223D01*
X57734704Y-113026862D01*
X57746435Y-113065532D01*
X57751000Y-113111888D01*
X57751000Y-113763112D01*
X57746435Y-113809468D01*
X57734704Y-113848138D01*
X57715654Y-113883777D01*
X57690017Y-113915017D01*
X57658777Y-113940654D01*
X57623138Y-113959704D01*
X57584468Y-113971435D01*
X57538112Y-113976000D01*
X56461888Y-113976000D01*
X56415532Y-113971435D01*
X56376862Y-113959704D01*
X56341223Y-113940654D01*
X56309983Y-113915017D01*
X56284346Y-113883777D01*
X56265296Y-113848138D01*
X56253565Y-113809468D01*
X56249000Y-113763112D01*
X56249000Y-113111888D01*
X56253565Y-113065532D01*
X56265296Y-113026862D01*
X56284346Y-112991223D01*
X56309983Y-112959983D01*
X56341223Y-112934346D01*
X56376862Y-112915296D01*
X56415532Y-112903565D01*
X56461888Y-112899000D01*
X57538112Y-112899000D01*
X57584468Y-112903565D01*
G37*
G36*
X57584468Y-111028565D02*
G01*
X57623138Y-111040296D01*
X57658777Y-111059346D01*
X57690017Y-111084983D01*
X57715654Y-111116223D01*
X57734704Y-111151862D01*
X57746435Y-111190532D01*
X57751000Y-111236888D01*
X57751000Y-111888112D01*
X57746435Y-111934468D01*
X57734704Y-111973138D01*
X57715654Y-112008777D01*
X57690017Y-112040017D01*
X57658777Y-112065654D01*
X57623138Y-112084704D01*
X57584468Y-112096435D01*
X57538112Y-112101000D01*
X56461888Y-112101000D01*
X56415532Y-112096435D01*
X56376862Y-112084704D01*
X56341223Y-112065654D01*
X56309983Y-112040017D01*
X56284346Y-112008777D01*
X56265296Y-111973138D01*
X56253565Y-111934468D01*
X56249000Y-111888112D01*
X56249000Y-111236888D01*
X56253565Y-111190532D01*
X56265296Y-111151862D01*
X56284346Y-111116223D01*
X56309983Y-111084983D01*
X56341223Y-111059346D01*
X56376862Y-111040296D01*
X56415532Y-111028565D01*
X56461888Y-111024000D01*
X57538112Y-111024000D01*
X57584468Y-111028565D01*
G37*
G36*
X143584468Y-111028565D02*
G01*
X143623138Y-111040296D01*
X143658777Y-111059346D01*
X143690017Y-111084983D01*
X143715654Y-111116223D01*
X143734704Y-111151862D01*
X143746435Y-111190532D01*
X143751000Y-111236888D01*
X143751000Y-111888112D01*
X143746435Y-111934468D01*
X143734704Y-111973138D01*
X143715654Y-112008777D01*
X143690017Y-112040017D01*
X143658777Y-112065654D01*
X143623138Y-112084704D01*
X143584468Y-112096435D01*
X143538112Y-112101000D01*
X142461888Y-112101000D01*
X142415532Y-112096435D01*
X142376862Y-112084704D01*
X142341223Y-112065654D01*
X142309983Y-112040017D01*
X142284346Y-112008777D01*
X142265296Y-111973138D01*
X142253565Y-111934468D01*
X142249000Y-111888112D01*
X142249000Y-111236888D01*
X142253565Y-111190532D01*
X142265296Y-111151862D01*
X142284346Y-111116223D01*
X142309983Y-111084983D01*
X142341223Y-111059346D01*
X142376862Y-111040296D01*
X142415532Y-111028565D01*
X142461888Y-111024000D01*
X143538112Y-111024000D01*
X143584468Y-111028565D01*
G37*
G36*
X143584468Y-107903565D02*
G01*
X143623138Y-107915296D01*
X143658777Y-107934346D01*
X143690017Y-107959983D01*
X143715654Y-107991223D01*
X143734704Y-108026862D01*
X143746435Y-108065532D01*
X143751000Y-108111888D01*
X143751000Y-108763112D01*
X143746435Y-108809468D01*
X143734704Y-108848138D01*
X143715654Y-108883777D01*
X143690017Y-108915017D01*
X143658777Y-108940654D01*
X143623138Y-108959704D01*
X143584468Y-108971435D01*
X143538112Y-108976000D01*
X142461888Y-108976000D01*
X142415532Y-108971435D01*
X142376862Y-108959704D01*
X142341223Y-108940654D01*
X142309983Y-108915017D01*
X142284346Y-108883777D01*
X142265296Y-108848138D01*
X142253565Y-108809468D01*
X142249000Y-108763112D01*
X142249000Y-108111888D01*
X142253565Y-108065532D01*
X142265296Y-108026862D01*
X142284346Y-107991223D01*
X142309983Y-107959983D01*
X142341223Y-107934346D01*
X142376862Y-107915296D01*
X142415532Y-107903565D01*
X142461888Y-107899000D01*
X143538112Y-107899000D01*
X143584468Y-107903565D01*
G37*
G36*
X57584468Y-107903565D02*
G01*
X57623138Y-107915296D01*
X57658777Y-107934346D01*
X57690017Y-107959983D01*
X57715654Y-107991223D01*
X57734704Y-108026862D01*
X57746435Y-108065532D01*
X57751000Y-108111888D01*
X57751000Y-108763112D01*
X57746435Y-108809468D01*
X57734704Y-108848138D01*
X57715654Y-108883777D01*
X57690017Y-108915017D01*
X57658777Y-108940654D01*
X57623138Y-108959704D01*
X57584468Y-108971435D01*
X57538112Y-108976000D01*
X56461888Y-108976000D01*
X56415532Y-108971435D01*
X56376862Y-108959704D01*
X56341223Y-108940654D01*
X56309983Y-108915017D01*
X56284346Y-108883777D01*
X56265296Y-108848138D01*
X56253565Y-108809468D01*
X56249000Y-108763112D01*
X56249000Y-108111888D01*
X56253565Y-108065532D01*
X56265296Y-108026862D01*
X56284346Y-107991223D01*
X56309983Y-107959983D01*
X56341223Y-107934346D01*
X56376862Y-107915296D01*
X56415532Y-107903565D01*
X56461888Y-107899000D01*
X57538112Y-107899000D01*
X57584468Y-107903565D01*
G37*
G36*
X143584468Y-106028565D02*
G01*
X143623138Y-106040296D01*
X143658777Y-106059346D01*
X143690017Y-106084983D01*
X143715654Y-106116223D01*
X143734704Y-106151862D01*
X143746435Y-106190532D01*
X143751000Y-106236888D01*
X143751000Y-106888112D01*
X143746435Y-106934468D01*
X143734704Y-106973138D01*
X143715654Y-107008777D01*
X143690017Y-107040017D01*
X143658777Y-107065654D01*
X143623138Y-107084704D01*
X143584468Y-107096435D01*
X143538112Y-107101000D01*
X142461888Y-107101000D01*
X142415532Y-107096435D01*
X142376862Y-107084704D01*
X142341223Y-107065654D01*
X142309983Y-107040017D01*
X142284346Y-107008777D01*
X142265296Y-106973138D01*
X142253565Y-106934468D01*
X142249000Y-106888112D01*
X142249000Y-106236888D01*
X142253565Y-106190532D01*
X142265296Y-106151862D01*
X142284346Y-106116223D01*
X142309983Y-106084983D01*
X142341223Y-106059346D01*
X142376862Y-106040296D01*
X142415532Y-106028565D01*
X142461888Y-106024000D01*
X143538112Y-106024000D01*
X143584468Y-106028565D01*
G37*
G36*
X57584468Y-106028565D02*
G01*
X57623138Y-106040296D01*
X57658777Y-106059346D01*
X57690017Y-106084983D01*
X57715654Y-106116223D01*
X57734704Y-106151862D01*
X57746435Y-106190532D01*
X57751000Y-106236888D01*
X57751000Y-106888112D01*
X57746435Y-106934468D01*
X57734704Y-106973138D01*
X57715654Y-107008777D01*
X57690017Y-107040017D01*
X57658777Y-107065654D01*
X57623138Y-107084704D01*
X57584468Y-107096435D01*
X57538112Y-107101000D01*
X56461888Y-107101000D01*
X56415532Y-107096435D01*
X56376862Y-107084704D01*
X56341223Y-107065654D01*
X56309983Y-107040017D01*
X56284346Y-107008777D01*
X56265296Y-106973138D01*
X56253565Y-106934468D01*
X56249000Y-106888112D01*
X56249000Y-106236888D01*
X56253565Y-106190532D01*
X56265296Y-106151862D01*
X56284346Y-106116223D01*
X56309983Y-106084983D01*
X56341223Y-106059346D01*
X56376862Y-106040296D01*
X56415532Y-106028565D01*
X56461888Y-106024000D01*
X57538112Y-106024000D01*
X57584468Y-106028565D01*
G37*
G36*
X143584468Y-102903565D02*
G01*
X143623138Y-102915296D01*
X143658777Y-102934346D01*
X143690017Y-102959983D01*
X143715654Y-102991223D01*
X143734704Y-103026862D01*
X143746435Y-103065532D01*
X143751000Y-103111888D01*
X143751000Y-103763112D01*
X143746435Y-103809468D01*
X143734704Y-103848138D01*
X143715654Y-103883777D01*
X143690017Y-103915017D01*
X143658777Y-103940654D01*
X143623138Y-103959704D01*
X143584468Y-103971435D01*
X143538112Y-103976000D01*
X142461888Y-103976000D01*
X142415532Y-103971435D01*
X142376862Y-103959704D01*
X142341223Y-103940654D01*
X142309983Y-103915017D01*
X142284346Y-103883777D01*
X142265296Y-103848138D01*
X142253565Y-103809468D01*
X142249000Y-103763112D01*
X142249000Y-103111888D01*
X142253565Y-103065532D01*
X142265296Y-103026862D01*
X142284346Y-102991223D01*
X142309983Y-102959983D01*
X142341223Y-102934346D01*
X142376862Y-102915296D01*
X142415532Y-102903565D01*
X142461888Y-102899000D01*
X143538112Y-102899000D01*
X143584468Y-102903565D01*
G37*
G36*
X57584468Y-102903565D02*
G01*
X57623138Y-102915296D01*
X57658777Y-102934346D01*
X57690017Y-102959983D01*
X57715654Y-102991223D01*
X57734704Y-103026862D01*
X57746435Y-103065532D01*
X57751000Y-103111888D01*
X57751000Y-103763112D01*
X57746435Y-103809468D01*
X57734704Y-103848138D01*
X57715654Y-103883777D01*
X57690017Y-103915017D01*
X57658777Y-103940654D01*
X57623138Y-103959704D01*
X57584468Y-103971435D01*
X57538112Y-103976000D01*
X56461888Y-103976000D01*
X56415532Y-103971435D01*
X56376862Y-103959704D01*
X56341223Y-103940654D01*
X56309983Y-103915017D01*
X56284346Y-103883777D01*
X56265296Y-103848138D01*
X56253565Y-103809468D01*
X56249000Y-103763112D01*
X56249000Y-103111888D01*
X56253565Y-103065532D01*
X56265296Y-103026862D01*
X56284346Y-102991223D01*
X56309983Y-102959983D01*
X56341223Y-102934346D01*
X56376862Y-102915296D01*
X56415532Y-102903565D01*
X56461888Y-102899000D01*
X57538112Y-102899000D01*
X57584468Y-102903565D01*
G37*
G36*
X57584468Y-101028565D02*
G01*
X57623138Y-101040296D01*
X57658777Y-101059346D01*
X57690017Y-101084983D01*
X57715654Y-101116223D01*
X57734704Y-101151862D01*
X57746435Y-101190532D01*
X57751000Y-101236888D01*
X57751000Y-101888112D01*
X57746435Y-101934468D01*
X57734704Y-101973138D01*
X57715654Y-102008777D01*
X57690017Y-102040017D01*
X57658777Y-102065654D01*
X57623138Y-102084704D01*
X57584468Y-102096435D01*
X57538112Y-102101000D01*
X56461888Y-102101000D01*
X56415532Y-102096435D01*
X56376862Y-102084704D01*
X56341223Y-102065654D01*
X56309983Y-102040017D01*
X56284346Y-102008777D01*
X56265296Y-101973138D01*
X56253565Y-101934468D01*
X56249000Y-101888112D01*
X56249000Y-101236888D01*
X56253565Y-101190532D01*
X56265296Y-101151862D01*
X56284346Y-101116223D01*
X56309983Y-101084983D01*
X56341223Y-101059346D01*
X56376862Y-101040296D01*
X56415532Y-101028565D01*
X56461888Y-101024000D01*
X57538112Y-101024000D01*
X57584468Y-101028565D01*
G37*
G36*
X143584468Y-101028565D02*
G01*
X143623138Y-101040296D01*
X143658777Y-101059346D01*
X143690017Y-101084983D01*
X143715654Y-101116223D01*
X143734704Y-101151862D01*
X143746435Y-101190532D01*
X143751000Y-101236888D01*
X143751000Y-101888112D01*
X143746435Y-101934468D01*
X143734704Y-101973138D01*
X143715654Y-102008777D01*
X143690017Y-102040017D01*
X143658777Y-102065654D01*
X143623138Y-102084704D01*
X143584468Y-102096435D01*
X143538112Y-102101000D01*
X142461888Y-102101000D01*
X142415532Y-102096435D01*
X142376862Y-102084704D01*
X142341223Y-102065654D01*
X142309983Y-102040017D01*
X142284346Y-102008777D01*
X142265296Y-101973138D01*
X142253565Y-101934468D01*
X142249000Y-101888112D01*
X142249000Y-101236888D01*
X142253565Y-101190532D01*
X142265296Y-101151862D01*
X142284346Y-101116223D01*
X142309983Y-101084983D01*
X142341223Y-101059346D01*
X142376862Y-101040296D01*
X142415532Y-101028565D01*
X142461888Y-101024000D01*
X143538112Y-101024000D01*
X143584468Y-101028565D01*
G37*
G36*
X143584468Y-97903565D02*
G01*
X143623138Y-97915296D01*
X143658777Y-97934346D01*
X143690017Y-97959983D01*
X143715654Y-97991223D01*
X143734704Y-98026862D01*
X143746435Y-98065532D01*
X143751000Y-98111888D01*
X143751000Y-98763112D01*
X143746435Y-98809468D01*
X143734704Y-98848138D01*
X143715654Y-98883777D01*
X143690017Y-98915017D01*
X143658777Y-98940654D01*
X143623138Y-98959704D01*
X143584468Y-98971435D01*
X143538112Y-98976000D01*
X142461888Y-98976000D01*
X142415532Y-98971435D01*
X142376862Y-98959704D01*
X142341223Y-98940654D01*
X142309983Y-98915017D01*
X142284346Y-98883777D01*
X142265296Y-98848138D01*
X142253565Y-98809468D01*
X142249000Y-98763112D01*
X142249000Y-98111888D01*
X142253565Y-98065532D01*
X142265296Y-98026862D01*
X142284346Y-97991223D01*
X142309983Y-97959983D01*
X142341223Y-97934346D01*
X142376862Y-97915296D01*
X142415532Y-97903565D01*
X142461888Y-97899000D01*
X143538112Y-97899000D01*
X143584468Y-97903565D01*
G37*
G36*
X57584468Y-97903565D02*
G01*
X57623138Y-97915296D01*
X57658777Y-97934346D01*
X57690017Y-97959983D01*
X57715654Y-97991223D01*
X57734704Y-98026862D01*
X57746435Y-98065532D01*
X57751000Y-98111888D01*
X57751000Y-98763112D01*
X57746435Y-98809468D01*
X57734704Y-98848138D01*
X57715654Y-98883777D01*
X57690017Y-98915017D01*
X57658777Y-98940654D01*
X57623138Y-98959704D01*
X57584468Y-98971435D01*
X57538112Y-98976000D01*
X56461888Y-98976000D01*
X56415532Y-98971435D01*
X56376862Y-98959704D01*
X56341223Y-98940654D01*
X56309983Y-98915017D01*
X56284346Y-98883777D01*
X56265296Y-98848138D01*
X56253565Y-98809468D01*
X56249000Y-98763112D01*
X56249000Y-98111888D01*
X56253565Y-98065532D01*
X56265296Y-98026862D01*
X56284346Y-97991223D01*
X56309983Y-97959983D01*
X56341223Y-97934346D01*
X56376862Y-97915296D01*
X56415532Y-97903565D01*
X56461888Y-97899000D01*
X57538112Y-97899000D01*
X57584468Y-97903565D01*
G37*
G36*
X143584468Y-96028565D02*
G01*
X143623138Y-96040296D01*
X143658777Y-96059346D01*
X143690017Y-96084983D01*
X143715654Y-96116223D01*
X143734704Y-96151862D01*
X143746435Y-96190532D01*
X143751000Y-96236888D01*
X143751000Y-96888112D01*
X143746435Y-96934468D01*
X143734704Y-96973138D01*
X143715654Y-97008777D01*
X143690017Y-97040017D01*
X143658777Y-97065654D01*
X143623138Y-97084704D01*
X143584468Y-97096435D01*
X143538112Y-97101000D01*
X142461888Y-97101000D01*
X142415532Y-97096435D01*
X142376862Y-97084704D01*
X142341223Y-97065654D01*
X142309983Y-97040017D01*
X142284346Y-97008777D01*
X142265296Y-96973138D01*
X142253565Y-96934468D01*
X142249000Y-96888112D01*
X142249000Y-96236888D01*
X142253565Y-96190532D01*
X142265296Y-96151862D01*
X142284346Y-96116223D01*
X142309983Y-96084983D01*
X142341223Y-96059346D01*
X142376862Y-96040296D01*
X142415532Y-96028565D01*
X142461888Y-96024000D01*
X143538112Y-96024000D01*
X143584468Y-96028565D01*
G37*
G36*
X57584468Y-96028565D02*
G01*
X57623138Y-96040296D01*
X57658777Y-96059346D01*
X57690017Y-96084983D01*
X57715654Y-96116223D01*
X57734704Y-96151862D01*
X57746435Y-96190532D01*
X57751000Y-96236888D01*
X57751000Y-96888112D01*
X57746435Y-96934468D01*
X57734704Y-96973138D01*
X57715654Y-97008777D01*
X57690017Y-97040017D01*
X57658777Y-97065654D01*
X57623138Y-97084704D01*
X57584468Y-97096435D01*
X57538112Y-97101000D01*
X56461888Y-97101000D01*
X56415532Y-97096435D01*
X56376862Y-97084704D01*
X56341223Y-97065654D01*
X56309983Y-97040017D01*
X56284346Y-97008777D01*
X56265296Y-96973138D01*
X56253565Y-96934468D01*
X56249000Y-96888112D01*
X56249000Y-96236888D01*
X56253565Y-96190532D01*
X56265296Y-96151862D01*
X56284346Y-96116223D01*
X56309983Y-96084983D01*
X56341223Y-96059346D01*
X56376862Y-96040296D01*
X56415532Y-96028565D01*
X56461888Y-96024000D01*
X57538112Y-96024000D01*
X57584468Y-96028565D01*
G37*
G36*
X57584468Y-92903565D02*
G01*
X57623138Y-92915296D01*
X57658777Y-92934346D01*
X57690017Y-92959983D01*
X57715654Y-92991223D01*
X57734704Y-93026862D01*
X57746435Y-93065532D01*
X57751000Y-93111888D01*
X57751000Y-93763112D01*
X57746435Y-93809468D01*
X57734704Y-93848138D01*
X57715654Y-93883777D01*
X57690017Y-93915017D01*
X57658777Y-93940654D01*
X57623138Y-93959704D01*
X57584468Y-93971435D01*
X57538112Y-93976000D01*
X56461888Y-93976000D01*
X56415532Y-93971435D01*
X56376862Y-93959704D01*
X56341223Y-93940654D01*
X56309983Y-93915017D01*
X56284346Y-93883777D01*
X56265296Y-93848138D01*
X56253565Y-93809468D01*
X56249000Y-93763112D01*
X56249000Y-93111888D01*
X56253565Y-93065532D01*
X56265296Y-93026862D01*
X56284346Y-92991223D01*
X56309983Y-92959983D01*
X56341223Y-92934346D01*
X56376862Y-92915296D01*
X56415532Y-92903565D01*
X56461888Y-92899000D01*
X57538112Y-92899000D01*
X57584468Y-92903565D01*
G37*
G36*
X143584468Y-92903565D02*
G01*
X143623138Y-92915296D01*
X143658777Y-92934346D01*
X143690017Y-92959983D01*
X143715654Y-92991223D01*
X143734704Y-93026862D01*
X143746435Y-93065532D01*
X143751000Y-93111888D01*
X143751000Y-93763112D01*
X143746435Y-93809468D01*
X143734704Y-93848138D01*
X143715654Y-93883777D01*
X143690017Y-93915017D01*
X143658777Y-93940654D01*
X143623138Y-93959704D01*
X143584468Y-93971435D01*
X143538112Y-93976000D01*
X142461888Y-93976000D01*
X142415532Y-93971435D01*
X142376862Y-93959704D01*
X142341223Y-93940654D01*
X142309983Y-93915017D01*
X142284346Y-93883777D01*
X142265296Y-93848138D01*
X142253565Y-93809468D01*
X142249000Y-93763112D01*
X142249000Y-93111888D01*
X142253565Y-93065532D01*
X142265296Y-93026862D01*
X142284346Y-92991223D01*
X142309983Y-92959983D01*
X142341223Y-92934346D01*
X142376862Y-92915296D01*
X142415532Y-92903565D01*
X142461888Y-92899000D01*
X143538112Y-92899000D01*
X143584468Y-92903565D01*
G37*
G36*
X143584468Y-91028565D02*
G01*
X143623138Y-91040296D01*
X143658777Y-91059346D01*
X143690017Y-91084983D01*
X143715654Y-91116223D01*
X143734704Y-91151862D01*
X143746435Y-91190532D01*
X143751000Y-91236888D01*
X143751000Y-91888112D01*
X143746435Y-91934468D01*
X143734704Y-91973138D01*
X143715654Y-92008777D01*
X143690017Y-92040017D01*
X143658777Y-92065654D01*
X143623138Y-92084704D01*
X143584468Y-92096435D01*
X143538112Y-92101000D01*
X142461888Y-92101000D01*
X142415532Y-92096435D01*
X142376862Y-92084704D01*
X142341223Y-92065654D01*
X142309983Y-92040017D01*
X142284346Y-92008777D01*
X142265296Y-91973138D01*
X142253565Y-91934468D01*
X142249000Y-91888112D01*
X142249000Y-91236888D01*
X142253565Y-91190532D01*
X142265296Y-91151862D01*
X142284346Y-91116223D01*
X142309983Y-91084983D01*
X142341223Y-91059346D01*
X142376862Y-91040296D01*
X142415532Y-91028565D01*
X142461888Y-91024000D01*
X143538112Y-91024000D01*
X143584468Y-91028565D01*
G37*
G36*
X57584468Y-91028565D02*
G01*
X57623138Y-91040296D01*
X57658777Y-91059346D01*
X57690017Y-91084983D01*
X57715654Y-91116223D01*
X57734704Y-91151862D01*
X57746435Y-91190532D01*
X57751000Y-91236888D01*
X57751000Y-91888112D01*
X57746435Y-91934468D01*
X57734704Y-91973138D01*
X57715654Y-92008777D01*
X57690017Y-92040017D01*
X57658777Y-92065654D01*
X57623138Y-92084704D01*
X57584468Y-92096435D01*
X57538112Y-92101000D01*
X56461888Y-92101000D01*
X56415532Y-92096435D01*
X56376862Y-92084704D01*
X56341223Y-92065654D01*
X56309983Y-92040017D01*
X56284346Y-92008777D01*
X56265296Y-91973138D01*
X56253565Y-91934468D01*
X56249000Y-91888112D01*
X56249000Y-91236888D01*
X56253565Y-91190532D01*
X56265296Y-91151862D01*
X56284346Y-91116223D01*
X56309983Y-91084983D01*
X56341223Y-91059346D01*
X56376862Y-91040296D01*
X56415532Y-91028565D01*
X56461888Y-91024000D01*
X57538112Y-91024000D01*
X57584468Y-91028565D01*
G37*
G36*
X143584468Y-87903565D02*
G01*
X143623138Y-87915296D01*
X143658777Y-87934346D01*
X143690017Y-87959983D01*
X143715654Y-87991223D01*
X143734704Y-88026862D01*
X143746435Y-88065532D01*
X143751000Y-88111888D01*
X143751000Y-88763112D01*
X143746435Y-88809468D01*
X143734704Y-88848138D01*
X143715654Y-88883777D01*
X143690017Y-88915017D01*
X143658777Y-88940654D01*
X143623138Y-88959704D01*
X143584468Y-88971435D01*
X143538112Y-88976000D01*
X142461888Y-88976000D01*
X142415532Y-88971435D01*
X142376862Y-88959704D01*
X142341223Y-88940654D01*
X142309983Y-88915017D01*
X142284346Y-88883777D01*
X142265296Y-88848138D01*
X142253565Y-88809468D01*
X142249000Y-88763112D01*
X142249000Y-88111888D01*
X142253565Y-88065532D01*
X142265296Y-88026862D01*
X142284346Y-87991223D01*
X142309983Y-87959983D01*
X142341223Y-87934346D01*
X142376862Y-87915296D01*
X142415532Y-87903565D01*
X142461888Y-87899000D01*
X143538112Y-87899000D01*
X143584468Y-87903565D01*
G37*
G36*
X57584468Y-87903565D02*
G01*
X57623138Y-87915296D01*
X57658777Y-87934346D01*
X57690017Y-87959983D01*
X57715654Y-87991223D01*
X57734704Y-88026862D01*
X57746435Y-88065532D01*
X57751000Y-88111888D01*
X57751000Y-88763112D01*
X57746435Y-88809468D01*
X57734704Y-88848138D01*
X57715654Y-88883777D01*
X57690017Y-88915017D01*
X57658777Y-88940654D01*
X57623138Y-88959704D01*
X57584468Y-88971435D01*
X57538112Y-88976000D01*
X56461888Y-88976000D01*
X56415532Y-88971435D01*
X56376862Y-88959704D01*
X56341223Y-88940654D01*
X56309983Y-88915017D01*
X56284346Y-88883777D01*
X56265296Y-88848138D01*
X56253565Y-88809468D01*
X56249000Y-88763112D01*
X56249000Y-88111888D01*
X56253565Y-88065532D01*
X56265296Y-88026862D01*
X56284346Y-87991223D01*
X56309983Y-87959983D01*
X56341223Y-87934346D01*
X56376862Y-87915296D01*
X56415532Y-87903565D01*
X56461888Y-87899000D01*
X57538112Y-87899000D01*
X57584468Y-87903565D01*
G37*
G36*
X143584468Y-86028565D02*
G01*
X143623138Y-86040296D01*
X143658777Y-86059346D01*
X143690017Y-86084983D01*
X143715654Y-86116223D01*
X143734704Y-86151862D01*
X143746435Y-86190532D01*
X143751000Y-86236888D01*
X143751000Y-86888112D01*
X143746435Y-86934468D01*
X143734704Y-86973138D01*
X143715654Y-87008777D01*
X143690017Y-87040017D01*
X143658777Y-87065654D01*
X143623138Y-87084704D01*
X143584468Y-87096435D01*
X143538112Y-87101000D01*
X142461888Y-87101000D01*
X142415532Y-87096435D01*
X142376862Y-87084704D01*
X142341223Y-87065654D01*
X142309983Y-87040017D01*
X142284346Y-87008777D01*
X142265296Y-86973138D01*
X142253565Y-86934468D01*
X142249000Y-86888112D01*
X142249000Y-86236888D01*
X142253565Y-86190532D01*
X142265296Y-86151862D01*
X142284346Y-86116223D01*
X142309983Y-86084983D01*
X142341223Y-86059346D01*
X142376862Y-86040296D01*
X142415532Y-86028565D01*
X142461888Y-86024000D01*
X143538112Y-86024000D01*
X143584468Y-86028565D01*
G37*
G36*
X57584468Y-86028565D02*
G01*
X57623138Y-86040296D01*
X57658777Y-86059346D01*
X57690017Y-86084983D01*
X57715654Y-86116223D01*
X57734704Y-86151862D01*
X57746435Y-86190532D01*
X57751000Y-86236888D01*
X57751000Y-86888112D01*
X57746435Y-86934468D01*
X57734704Y-86973138D01*
X57715654Y-87008777D01*
X57690017Y-87040017D01*
X57658777Y-87065654D01*
X57623138Y-87084704D01*
X57584468Y-87096435D01*
X57538112Y-87101000D01*
X56461888Y-87101000D01*
X56415532Y-87096435D01*
X56376862Y-87084704D01*
X56341223Y-87065654D01*
X56309983Y-87040017D01*
X56284346Y-87008777D01*
X56265296Y-86973138D01*
X56253565Y-86934468D01*
X56249000Y-86888112D01*
X56249000Y-86236888D01*
X56253565Y-86190532D01*
X56265296Y-86151862D01*
X56284346Y-86116223D01*
X56309983Y-86084983D01*
X56341223Y-86059346D01*
X56376862Y-86040296D01*
X56415532Y-86028565D01*
X56461888Y-86024000D01*
X57538112Y-86024000D01*
X57584468Y-86028565D01*
G37*
G36*
X57584468Y-82903565D02*
G01*
X57623138Y-82915296D01*
X57658777Y-82934346D01*
X57690017Y-82959983D01*
X57715654Y-82991223D01*
X57734704Y-83026862D01*
X57746435Y-83065532D01*
X57751000Y-83111888D01*
X57751000Y-83763112D01*
X57746435Y-83809468D01*
X57734704Y-83848138D01*
X57715654Y-83883777D01*
X57690017Y-83915017D01*
X57658777Y-83940654D01*
X57623138Y-83959704D01*
X57584468Y-83971435D01*
X57538112Y-83976000D01*
X56461888Y-83976000D01*
X56415532Y-83971435D01*
X56376862Y-83959704D01*
X56341223Y-83940654D01*
X56309983Y-83915017D01*
X56284346Y-83883777D01*
X56265296Y-83848138D01*
X56253565Y-83809468D01*
X56249000Y-83763112D01*
X56249000Y-83111888D01*
X56253565Y-83065532D01*
X56265296Y-83026862D01*
X56284346Y-82991223D01*
X56309983Y-82959983D01*
X56341223Y-82934346D01*
X56376862Y-82915296D01*
X56415532Y-82903565D01*
X56461888Y-82899000D01*
X57538112Y-82899000D01*
X57584468Y-82903565D01*
G37*
G36*
X143584468Y-82903565D02*
G01*
X143623138Y-82915296D01*
X143658777Y-82934346D01*
X143690017Y-82959983D01*
X143715654Y-82991223D01*
X143734704Y-83026862D01*
X143746435Y-83065532D01*
X143751000Y-83111888D01*
X143751000Y-83763112D01*
X143746435Y-83809468D01*
X143734704Y-83848138D01*
X143715654Y-83883777D01*
X143690017Y-83915017D01*
X143658777Y-83940654D01*
X143623138Y-83959704D01*
X143584468Y-83971435D01*
X143538112Y-83976000D01*
X142461888Y-83976000D01*
X142415532Y-83971435D01*
X142376862Y-83959704D01*
X142341223Y-83940654D01*
X142309983Y-83915017D01*
X142284346Y-83883777D01*
X142265296Y-83848138D01*
X142253565Y-83809468D01*
X142249000Y-83763112D01*
X142249000Y-83111888D01*
X142253565Y-83065532D01*
X142265296Y-83026862D01*
X142284346Y-82991223D01*
X142309983Y-82959983D01*
X142341223Y-82934346D01*
X142376862Y-82915296D01*
X142415532Y-82903565D01*
X142461888Y-82899000D01*
X143538112Y-82899000D01*
X143584468Y-82903565D01*
G37*
G36*
X57584468Y-81028565D02*
G01*
X57623138Y-81040296D01*
X57658777Y-81059346D01*
X57690017Y-81084983D01*
X57715654Y-81116223D01*
X57734704Y-81151862D01*
X57746435Y-81190532D01*
X57751000Y-81236888D01*
X57751000Y-81888112D01*
X57746435Y-81934468D01*
X57734704Y-81973138D01*
X57715654Y-82008777D01*
X57690017Y-82040017D01*
X57658777Y-82065654D01*
X57623138Y-82084704D01*
X57584468Y-82096435D01*
X57538112Y-82101000D01*
X56461888Y-82101000D01*
X56415532Y-82096435D01*
X56376862Y-82084704D01*
X56341223Y-82065654D01*
X56309983Y-82040017D01*
X56284346Y-82008777D01*
X56265296Y-81973138D01*
X56253565Y-81934468D01*
X56249000Y-81888112D01*
X56249000Y-81236888D01*
X56253565Y-81190532D01*
X56265296Y-81151862D01*
X56284346Y-81116223D01*
X56309983Y-81084983D01*
X56341223Y-81059346D01*
X56376862Y-81040296D01*
X56415532Y-81028565D01*
X56461888Y-81024000D01*
X57538112Y-81024000D01*
X57584468Y-81028565D01*
G37*
G36*
X143584468Y-81028565D02*
G01*
X143623138Y-81040296D01*
X143658777Y-81059346D01*
X143690017Y-81084983D01*
X143715654Y-81116223D01*
X143734704Y-81151862D01*
X143746435Y-81190532D01*
X143751000Y-81236888D01*
X143751000Y-81888112D01*
X143746435Y-81934468D01*
X143734704Y-81973138D01*
X143715654Y-82008777D01*
X143690017Y-82040017D01*
X143658777Y-82065654D01*
X143623138Y-82084704D01*
X143584468Y-82096435D01*
X143538112Y-82101000D01*
X142461888Y-82101000D01*
X142415532Y-82096435D01*
X142376862Y-82084704D01*
X142341223Y-82065654D01*
X142309983Y-82040017D01*
X142284346Y-82008777D01*
X142265296Y-81973138D01*
X142253565Y-81934468D01*
X142249000Y-81888112D01*
X142249000Y-81236888D01*
X142253565Y-81190532D01*
X142265296Y-81151862D01*
X142284346Y-81116223D01*
X142309983Y-81084983D01*
X142341223Y-81059346D01*
X142376862Y-81040296D01*
X142415532Y-81028565D01*
X142461888Y-81024000D01*
X143538112Y-81024000D01*
X143584468Y-81028565D01*
G37*
G36*
X143584468Y-77903565D02*
G01*
X143623138Y-77915296D01*
X143658777Y-77934346D01*
X143690017Y-77959983D01*
X143715654Y-77991223D01*
X143734704Y-78026862D01*
X143746435Y-78065532D01*
X143751000Y-78111888D01*
X143751000Y-78763112D01*
X143746435Y-78809468D01*
X143734704Y-78848138D01*
X143715654Y-78883777D01*
X143690017Y-78915017D01*
X143658777Y-78940654D01*
X143623138Y-78959704D01*
X143584468Y-78971435D01*
X143538112Y-78976000D01*
X142461888Y-78976000D01*
X142415532Y-78971435D01*
X142376862Y-78959704D01*
X142341223Y-78940654D01*
X142309983Y-78915017D01*
X142284346Y-78883777D01*
X142265296Y-78848138D01*
X142253565Y-78809468D01*
X142249000Y-78763112D01*
X142249000Y-78111888D01*
X142253565Y-78065532D01*
X142265296Y-78026862D01*
X142284346Y-77991223D01*
X142309983Y-77959983D01*
X142341223Y-77934346D01*
X142376862Y-77915296D01*
X142415532Y-77903565D01*
X142461888Y-77899000D01*
X143538112Y-77899000D01*
X143584468Y-77903565D01*
G37*
G36*
X57584468Y-77903565D02*
G01*
X57623138Y-77915296D01*
X57658777Y-77934346D01*
X57690017Y-77959983D01*
X57715654Y-77991223D01*
X57734704Y-78026862D01*
X57746435Y-78065532D01*
X57751000Y-78111888D01*
X57751000Y-78763112D01*
X57746435Y-78809468D01*
X57734704Y-78848138D01*
X57715654Y-78883777D01*
X57690017Y-78915017D01*
X57658777Y-78940654D01*
X57623138Y-78959704D01*
X57584468Y-78971435D01*
X57538112Y-78976000D01*
X56461888Y-78976000D01*
X56415532Y-78971435D01*
X56376862Y-78959704D01*
X56341223Y-78940654D01*
X56309983Y-78915017D01*
X56284346Y-78883777D01*
X56265296Y-78848138D01*
X56253565Y-78809468D01*
X56249000Y-78763112D01*
X56249000Y-78111888D01*
X56253565Y-78065532D01*
X56265296Y-78026862D01*
X56284346Y-77991223D01*
X56309983Y-77959983D01*
X56341223Y-77934346D01*
X56376862Y-77915296D01*
X56415532Y-77903565D01*
X56461888Y-77899000D01*
X57538112Y-77899000D01*
X57584468Y-77903565D01*
G37*
G36*
X143584468Y-76028565D02*
G01*
X143623138Y-76040296D01*
X143658777Y-76059346D01*
X143690017Y-76084983D01*
X143715654Y-76116223D01*
X143734704Y-76151862D01*
X143746435Y-76190532D01*
X143751000Y-76236888D01*
X143751000Y-76888112D01*
X143746435Y-76934468D01*
X143734704Y-76973138D01*
X143715654Y-77008777D01*
X143690017Y-77040017D01*
X143658777Y-77065654D01*
X143623138Y-77084704D01*
X143584468Y-77096435D01*
X143538112Y-77101000D01*
X142461888Y-77101000D01*
X142415532Y-77096435D01*
X142376862Y-77084704D01*
X142341223Y-77065654D01*
X142309983Y-77040017D01*
X142284346Y-77008777D01*
X142265296Y-76973138D01*
X142253565Y-76934468D01*
X142249000Y-76888112D01*
X142249000Y-76236888D01*
X142253565Y-76190532D01*
X142265296Y-76151862D01*
X142284346Y-76116223D01*
X142309983Y-76084983D01*
X142341223Y-76059346D01*
X142376862Y-76040296D01*
X142415532Y-76028565D01*
X142461888Y-76024000D01*
X143538112Y-76024000D01*
X143584468Y-76028565D01*
G37*
G36*
X57584468Y-76028565D02*
G01*
X57623138Y-76040296D01*
X57658777Y-76059346D01*
X57690017Y-76084983D01*
X57715654Y-76116223D01*
X57734704Y-76151862D01*
X57746435Y-76190532D01*
X57751000Y-76236888D01*
X57751000Y-76888112D01*
X57746435Y-76934468D01*
X57734704Y-76973138D01*
X57715654Y-77008777D01*
X57690017Y-77040017D01*
X57658777Y-77065654D01*
X57623138Y-77084704D01*
X57584468Y-77096435D01*
X57538112Y-77101000D01*
X56461888Y-77101000D01*
X56415532Y-77096435D01*
X56376862Y-77084704D01*
X56341223Y-77065654D01*
X56309983Y-77040017D01*
X56284346Y-77008777D01*
X56265296Y-76973138D01*
X56253565Y-76934468D01*
X56249000Y-76888112D01*
X56249000Y-76236888D01*
X56253565Y-76190532D01*
X56265296Y-76151862D01*
X56284346Y-76116223D01*
X56309983Y-76084983D01*
X56341223Y-76059346D01*
X56376862Y-76040296D01*
X56415532Y-76028565D01*
X56461888Y-76024000D01*
X57538112Y-76024000D01*
X57584468Y-76028565D01*
G37*
G36*
X57584468Y-72903565D02*
G01*
X57623138Y-72915296D01*
X57658777Y-72934346D01*
X57690017Y-72959983D01*
X57715654Y-72991223D01*
X57734704Y-73026862D01*
X57746435Y-73065532D01*
X57751000Y-73111888D01*
X57751000Y-73763112D01*
X57746435Y-73809468D01*
X57734704Y-73848138D01*
X57715654Y-73883777D01*
X57690017Y-73915017D01*
X57658777Y-73940654D01*
X57623138Y-73959704D01*
X57584468Y-73971435D01*
X57538112Y-73976000D01*
X56461888Y-73976000D01*
X56415532Y-73971435D01*
X56376862Y-73959704D01*
X56341223Y-73940654D01*
X56309983Y-73915017D01*
X56284346Y-73883777D01*
X56265296Y-73848138D01*
X56253565Y-73809468D01*
X56249000Y-73763112D01*
X56249000Y-73111888D01*
X56253565Y-73065532D01*
X56265296Y-73026862D01*
X56284346Y-72991223D01*
X56309983Y-72959983D01*
X56341223Y-72934346D01*
X56376862Y-72915296D01*
X56415532Y-72903565D01*
X56461888Y-72899000D01*
X57538112Y-72899000D01*
X57584468Y-72903565D01*
G37*
G36*
X143584468Y-72903565D02*
G01*
X143623138Y-72915296D01*
X143658777Y-72934346D01*
X143690017Y-72959983D01*
X143715654Y-72991223D01*
X143734704Y-73026862D01*
X143746435Y-73065532D01*
X143751000Y-73111888D01*
X143751000Y-73763112D01*
X143746435Y-73809468D01*
X143734704Y-73848138D01*
X143715654Y-73883777D01*
X143690017Y-73915017D01*
X143658777Y-73940654D01*
X143623138Y-73959704D01*
X143584468Y-73971435D01*
X143538112Y-73976000D01*
X142461888Y-73976000D01*
X142415532Y-73971435D01*
X142376862Y-73959704D01*
X142341223Y-73940654D01*
X142309983Y-73915017D01*
X142284346Y-73883777D01*
X142265296Y-73848138D01*
X142253565Y-73809468D01*
X142249000Y-73763112D01*
X142249000Y-73111888D01*
X142253565Y-73065532D01*
X142265296Y-73026862D01*
X142284346Y-72991223D01*
X142309983Y-72959983D01*
X142341223Y-72934346D01*
X142376862Y-72915296D01*
X142415532Y-72903565D01*
X142461888Y-72899000D01*
X143538112Y-72899000D01*
X143584468Y-72903565D01*
G37*
G36*
X143584468Y-71028565D02*
G01*
X143623138Y-71040296D01*
X143658777Y-71059346D01*
X143690017Y-71084983D01*
X143715654Y-71116223D01*
X143734704Y-71151862D01*
X143746435Y-71190532D01*
X143751000Y-71236888D01*
X143751000Y-71888112D01*
X143746435Y-71934468D01*
X143734704Y-71973138D01*
X143715654Y-72008777D01*
X143690017Y-72040017D01*
X143658777Y-72065654D01*
X143623138Y-72084704D01*
X143584468Y-72096435D01*
X143538112Y-72101000D01*
X142461888Y-72101000D01*
X142415532Y-72096435D01*
X142376862Y-72084704D01*
X142341223Y-72065654D01*
X142309983Y-72040017D01*
X142284346Y-72008777D01*
X142265296Y-71973138D01*
X142253565Y-71934468D01*
X142249000Y-71888112D01*
X142249000Y-71236888D01*
X142253565Y-71190532D01*
X142265296Y-71151862D01*
X142284346Y-71116223D01*
X142309983Y-71084983D01*
X142341223Y-71059346D01*
X142376862Y-71040296D01*
X142415532Y-71028565D01*
X142461888Y-71024000D01*
X143538112Y-71024000D01*
X143584468Y-71028565D01*
G37*
G36*
X57584468Y-71028565D02*
G01*
X57623138Y-71040296D01*
X57658777Y-71059346D01*
X57690017Y-71084983D01*
X57715654Y-71116223D01*
X57734704Y-71151862D01*
X57746435Y-71190532D01*
X57751000Y-71236888D01*
X57751000Y-71888112D01*
X57746435Y-71934468D01*
X57734704Y-71973138D01*
X57715654Y-72008777D01*
X57690017Y-72040017D01*
X57658777Y-72065654D01*
X57623138Y-72084704D01*
X57584468Y-72096435D01*
X57538112Y-72101000D01*
X56461888Y-72101000D01*
X56415532Y-72096435D01*
X56376862Y-72084704D01*
X56341223Y-72065654D01*
X56309983Y-72040017D01*
X56284346Y-72008777D01*
X56265296Y-71973138D01*
X56253565Y-71934468D01*
X56249000Y-71888112D01*
X56249000Y-71236888D01*
X56253565Y-71190532D01*
X56265296Y-71151862D01*
X56284346Y-71116223D01*
X56309983Y-71084983D01*
X56341223Y-71059346D01*
X56376862Y-71040296D01*
X56415532Y-71028565D01*
X56461888Y-71024000D01*
X57538112Y-71024000D01*
X57584468Y-71028565D01*
G37*
G36*
X143584468Y-67903565D02*
G01*
X143623138Y-67915296D01*
X143658777Y-67934346D01*
X143690017Y-67959983D01*
X143715654Y-67991223D01*
X143734704Y-68026862D01*
X143746435Y-68065532D01*
X143751000Y-68111888D01*
X143751000Y-68763112D01*
X143746435Y-68809468D01*
X143734704Y-68848138D01*
X143715654Y-68883777D01*
X143690017Y-68915017D01*
X143658777Y-68940654D01*
X143623138Y-68959704D01*
X143584468Y-68971435D01*
X143538112Y-68976000D01*
X142461888Y-68976000D01*
X142415532Y-68971435D01*
X142376862Y-68959704D01*
X142341223Y-68940654D01*
X142309983Y-68915017D01*
X142284346Y-68883777D01*
X142265296Y-68848138D01*
X142253565Y-68809468D01*
X142249000Y-68763112D01*
X142249000Y-68111888D01*
X142253565Y-68065532D01*
X142265296Y-68026862D01*
X142284346Y-67991223D01*
X142309983Y-67959983D01*
X142341223Y-67934346D01*
X142376862Y-67915296D01*
X142415532Y-67903565D01*
X142461888Y-67899000D01*
X143538112Y-67899000D01*
X143584468Y-67903565D01*
G37*
G36*
X57584468Y-67903565D02*
G01*
X57623138Y-67915296D01*
X57658777Y-67934346D01*
X57690017Y-67959983D01*
X57715654Y-67991223D01*
X57734704Y-68026862D01*
X57746435Y-68065532D01*
X57751000Y-68111888D01*
X57751000Y-68763112D01*
X57746435Y-68809468D01*
X57734704Y-68848138D01*
X57715654Y-68883777D01*
X57690017Y-68915017D01*
X57658777Y-68940654D01*
X57623138Y-68959704D01*
X57584468Y-68971435D01*
X57538112Y-68976000D01*
X56461888Y-68976000D01*
X56415532Y-68971435D01*
X56376862Y-68959704D01*
X56341223Y-68940654D01*
X56309983Y-68915017D01*
X56284346Y-68883777D01*
X56265296Y-68848138D01*
X56253565Y-68809468D01*
X56249000Y-68763112D01*
X56249000Y-68111888D01*
X56253565Y-68065532D01*
X56265296Y-68026862D01*
X56284346Y-67991223D01*
X56309983Y-67959983D01*
X56341223Y-67934346D01*
X56376862Y-67915296D01*
X56415532Y-67903565D01*
X56461888Y-67899000D01*
X57538112Y-67899000D01*
X57584468Y-67903565D01*
G37*
G36*
X57584468Y-66028565D02*
G01*
X57623138Y-66040296D01*
X57658777Y-66059346D01*
X57690017Y-66084983D01*
X57715654Y-66116223D01*
X57734704Y-66151862D01*
X57746435Y-66190532D01*
X57751000Y-66236888D01*
X57751000Y-66888112D01*
X57746435Y-66934468D01*
X57734704Y-66973138D01*
X57715654Y-67008777D01*
X57690017Y-67040017D01*
X57658777Y-67065654D01*
X57623138Y-67084704D01*
X57584468Y-67096435D01*
X57538112Y-67101000D01*
X56461888Y-67101000D01*
X56415532Y-67096435D01*
X56376862Y-67084704D01*
X56341223Y-67065654D01*
X56309983Y-67040017D01*
X56284346Y-67008777D01*
X56265296Y-66973138D01*
X56253565Y-66934468D01*
X56249000Y-66888112D01*
X56249000Y-66236888D01*
X56253565Y-66190532D01*
X56265296Y-66151862D01*
X56284346Y-66116223D01*
X56309983Y-66084983D01*
X56341223Y-66059346D01*
X56376862Y-66040296D01*
X56415532Y-66028565D01*
X56461888Y-66024000D01*
X57538112Y-66024000D01*
X57584468Y-66028565D01*
G37*
G36*
X143584468Y-66028565D02*
G01*
X143623138Y-66040296D01*
X143658777Y-66059346D01*
X143690017Y-66084983D01*
X143715654Y-66116223D01*
X143734704Y-66151862D01*
X143746435Y-66190532D01*
X143751000Y-66236888D01*
X143751000Y-66888112D01*
X143746435Y-66934468D01*
X143734704Y-66973138D01*
X143715654Y-67008777D01*
X143690017Y-67040017D01*
X143658777Y-67065654D01*
X143623138Y-67084704D01*
X143584468Y-67096435D01*
X143538112Y-67101000D01*
X142461888Y-67101000D01*
X142415532Y-67096435D01*
X142376862Y-67084704D01*
X142341223Y-67065654D01*
X142309983Y-67040017D01*
X142284346Y-67008777D01*
X142265296Y-66973138D01*
X142253565Y-66934468D01*
X142249000Y-66888112D01*
X142249000Y-66236888D01*
X142253565Y-66190532D01*
X142265296Y-66151862D01*
X142284346Y-66116223D01*
X142309983Y-66084983D01*
X142341223Y-66059346D01*
X142376862Y-66040296D01*
X142415532Y-66028565D01*
X142461888Y-66024000D01*
X143538112Y-66024000D01*
X143584468Y-66028565D01*
G37*
G36*
X102653512Y-62853927D02*
G01*
X102802812Y-62883624D01*
X102966784Y-62951544D01*
X103114354Y-63050147D01*
X103239853Y-63175646D01*
X103338456Y-63323216D01*
X103406376Y-63487188D01*
X103441000Y-63661259D01*
X103441000Y-63838741D01*
X103406376Y-64012812D01*
X103338456Y-64176784D01*
X103239853Y-64324354D01*
X103114354Y-64449853D01*
X102966784Y-64548456D01*
X102802812Y-64616376D01*
X102653512Y-64646073D01*
X102628742Y-64651000D01*
X102451258Y-64651000D01*
X102426488Y-64646073D01*
X102277188Y-64616376D01*
X102113216Y-64548456D01*
X101965646Y-64449853D01*
X101840147Y-64324354D01*
X101741544Y-64176784D01*
X101673624Y-64012812D01*
X101639000Y-63838741D01*
X101639000Y-63661259D01*
X101673624Y-63487188D01*
X101741544Y-63323216D01*
X101840147Y-63175646D01*
X101965646Y-63050147D01*
X102113216Y-62951544D01*
X102277188Y-62883624D01*
X102426488Y-62853927D01*
X102451258Y-62849000D01*
X102628742Y-62849000D01*
X102653512Y-62853927D01*
G37*
G36*
X98361000Y-64651000D02*
G01*
X96559000Y-64651000D01*
X96559000Y-62849000D01*
X98361000Y-62849000D01*
X98361000Y-64651000D01*
G37*
G36*
X100113512Y-62853927D02*
G01*
X100262812Y-62883624D01*
X100426784Y-62951544D01*
X100574354Y-63050147D01*
X100699853Y-63175646D01*
X100798456Y-63323216D01*
X100866376Y-63487188D01*
X100901000Y-63661259D01*
X100901000Y-63838741D01*
X100866376Y-64012812D01*
X100798456Y-64176784D01*
X100699853Y-64324354D01*
X100574354Y-64449853D01*
X100426784Y-64548456D01*
X100262812Y-64616376D01*
X100113512Y-64646073D01*
X100088742Y-64651000D01*
X99911258Y-64651000D01*
X99886488Y-64646073D01*
X99737188Y-64616376D01*
X99573216Y-64548456D01*
X99425646Y-64449853D01*
X99300147Y-64324354D01*
X99201544Y-64176784D01*
X99133624Y-64012812D01*
X99099000Y-63838741D01*
X99099000Y-63661259D01*
X99133624Y-63487188D01*
X99201544Y-63323216D01*
X99300147Y-63175646D01*
X99425646Y-63050147D01*
X99573216Y-62951544D01*
X99737188Y-62883624D01*
X99886488Y-62853927D01*
X99911258Y-62849000D01*
X100088742Y-62849000D01*
X100113512Y-62853927D01*
G37*
G36*
X57584468Y-62903565D02*
G01*
X57623138Y-62915296D01*
X57658777Y-62934346D01*
X57690017Y-62959983D01*
X57715654Y-62991223D01*
X57734704Y-63026862D01*
X57746435Y-63065532D01*
X57751000Y-63111888D01*
X57751000Y-63763112D01*
X57746435Y-63809468D01*
X57734704Y-63848138D01*
X57715654Y-63883777D01*
X57690017Y-63915017D01*
X57658777Y-63940654D01*
X57623138Y-63959704D01*
X57584468Y-63971435D01*
X57538112Y-63976000D01*
X56461888Y-63976000D01*
X56415532Y-63971435D01*
X56376862Y-63959704D01*
X56341223Y-63940654D01*
X56309983Y-63915017D01*
X56284346Y-63883777D01*
X56265296Y-63848138D01*
X56253565Y-63809468D01*
X56249000Y-63763112D01*
X56249000Y-63111888D01*
X56253565Y-63065532D01*
X56265296Y-63026862D01*
X56284346Y-62991223D01*
X56309983Y-62959983D01*
X56341223Y-62934346D01*
X56376862Y-62915296D01*
X56415532Y-62903565D01*
X56461888Y-62899000D01*
X57538112Y-62899000D01*
X57584468Y-62903565D01*
G37*
G36*
X143584468Y-62903565D02*
G01*
X143623138Y-62915296D01*
X143658777Y-62934346D01*
X143690017Y-62959983D01*
X143715654Y-62991223D01*
X143734704Y-63026862D01*
X143746435Y-63065532D01*
X143751000Y-63111888D01*
X143751000Y-63763112D01*
X143746435Y-63809468D01*
X143734704Y-63848138D01*
X143715654Y-63883777D01*
X143690017Y-63915017D01*
X143658777Y-63940654D01*
X143623138Y-63959704D01*
X143584468Y-63971435D01*
X143538112Y-63976000D01*
X142461888Y-63976000D01*
X142415532Y-63971435D01*
X142376862Y-63959704D01*
X142341223Y-63940654D01*
X142309983Y-63915017D01*
X142284346Y-63883777D01*
X142265296Y-63848138D01*
X142253565Y-63809468D01*
X142249000Y-63763112D01*
X142249000Y-63111888D01*
X142253565Y-63065532D01*
X142265296Y-63026862D01*
X142284346Y-62991223D01*
X142309983Y-62959983D01*
X142341223Y-62934346D01*
X142376862Y-62915296D01*
X142415532Y-62903565D01*
X142461888Y-62899000D01*
X143538112Y-62899000D01*
X143584468Y-62903565D01*
G37*
G36*
X143584468Y-61028565D02*
G01*
X143623138Y-61040296D01*
X143658777Y-61059346D01*
X143690017Y-61084983D01*
X143715654Y-61116223D01*
X143734704Y-61151862D01*
X143746435Y-61190532D01*
X143751000Y-61236888D01*
X143751000Y-61888112D01*
X143746435Y-61934468D01*
X143734704Y-61973138D01*
X143715654Y-62008777D01*
X143690017Y-62040017D01*
X143658777Y-62065654D01*
X143623138Y-62084704D01*
X143584468Y-62096435D01*
X143538112Y-62101000D01*
X142461888Y-62101000D01*
X142415532Y-62096435D01*
X142376862Y-62084704D01*
X142341223Y-62065654D01*
X142309983Y-62040017D01*
X142284346Y-62008777D01*
X142265296Y-61973138D01*
X142253565Y-61934468D01*
X142249000Y-61888112D01*
X142249000Y-61236888D01*
X142253565Y-61190532D01*
X142265296Y-61151862D01*
X142284346Y-61116223D01*
X142309983Y-61084983D01*
X142341223Y-61059346D01*
X142376862Y-61040296D01*
X142415532Y-61028565D01*
X142461888Y-61024000D01*
X143538112Y-61024000D01*
X143584468Y-61028565D01*
G37*
G36*
X57584468Y-61028565D02*
G01*
X57623138Y-61040296D01*
X57658777Y-61059346D01*
X57690017Y-61084983D01*
X57715654Y-61116223D01*
X57734704Y-61151862D01*
X57746435Y-61190532D01*
X57751000Y-61236888D01*
X57751000Y-61888112D01*
X57746435Y-61934468D01*
X57734704Y-61973138D01*
X57715654Y-62008777D01*
X57690017Y-62040017D01*
X57658777Y-62065654D01*
X57623138Y-62084704D01*
X57584468Y-62096435D01*
X57538112Y-62101000D01*
X56461888Y-62101000D01*
X56415532Y-62096435D01*
X56376862Y-62084704D01*
X56341223Y-62065654D01*
X56309983Y-62040017D01*
X56284346Y-62008777D01*
X56265296Y-61973138D01*
X56253565Y-61934468D01*
X56249000Y-61888112D01*
X56249000Y-61236888D01*
X56253565Y-61190532D01*
X56265296Y-61151862D01*
X56284346Y-61116223D01*
X56309983Y-61084983D01*
X56341223Y-61059346D01*
X56376862Y-61040296D01*
X56415532Y-61028565D01*
X56461888Y-61024000D01*
X57538112Y-61024000D01*
X57584468Y-61028565D01*
G37*
G36*
X88809468Y-56253565D02*
G01*
X88848138Y-56265296D01*
X88883777Y-56284346D01*
X88915017Y-56309983D01*
X88940654Y-56341223D01*
X88959704Y-56376862D01*
X88971435Y-56415532D01*
X88976000Y-56461888D01*
X88976000Y-57538112D01*
X88971435Y-57584468D01*
X88959704Y-57623138D01*
X88940654Y-57658777D01*
X88915017Y-57690017D01*
X88883777Y-57715654D01*
X88848138Y-57734704D01*
X88809468Y-57746435D01*
X88763112Y-57751000D01*
X88111888Y-57751000D01*
X88065532Y-57746435D01*
X88026862Y-57734704D01*
X87991223Y-57715654D01*
X87959983Y-57690017D01*
X87934346Y-57658777D01*
X87915296Y-57623138D01*
X87903565Y-57584468D01*
X87899000Y-57538112D01*
X87899000Y-56461888D01*
X87903565Y-56415532D01*
X87915296Y-56376862D01*
X87934346Y-56341223D01*
X87959983Y-56309983D01*
X87991223Y-56284346D01*
X88026862Y-56265296D01*
X88065532Y-56253565D01*
X88111888Y-56249000D01*
X88763112Y-56249000D01*
X88809468Y-56253565D01*
G37*
G36*
X68809468Y-56253565D02*
G01*
X68848138Y-56265296D01*
X68883777Y-56284346D01*
X68915017Y-56309983D01*
X68940654Y-56341223D01*
X68959704Y-56376862D01*
X68971435Y-56415532D01*
X68976000Y-56461888D01*
X68976000Y-57538112D01*
X68971435Y-57584468D01*
X68959704Y-57623138D01*
X68940654Y-57658777D01*
X68915017Y-57690017D01*
X68883777Y-57715654D01*
X68848138Y-57734704D01*
X68809468Y-57746435D01*
X68763112Y-57751000D01*
X68111888Y-57751000D01*
X68065532Y-57746435D01*
X68026862Y-57734704D01*
X67991223Y-57715654D01*
X67959983Y-57690017D01*
X67934346Y-57658777D01*
X67915296Y-57623138D01*
X67903565Y-57584468D01*
X67899000Y-57538112D01*
X67899000Y-56461888D01*
X67903565Y-56415532D01*
X67915296Y-56376862D01*
X67934346Y-56341223D01*
X67959983Y-56309983D01*
X67991223Y-56284346D01*
X68026862Y-56265296D01*
X68065532Y-56253565D01*
X68111888Y-56249000D01*
X68763112Y-56249000D01*
X68809468Y-56253565D01*
G37*
G36*
X66934468Y-56253565D02*
G01*
X66973138Y-56265296D01*
X67008777Y-56284346D01*
X67040017Y-56309983D01*
X67065654Y-56341223D01*
X67084704Y-56376862D01*
X67096435Y-56415532D01*
X67101000Y-56461888D01*
X67101000Y-57538112D01*
X67096435Y-57584468D01*
X67084704Y-57623138D01*
X67065654Y-57658777D01*
X67040017Y-57690017D01*
X67008777Y-57715654D01*
X66973138Y-57734704D01*
X66934468Y-57746435D01*
X66888112Y-57751000D01*
X66236888Y-57751000D01*
X66190532Y-57746435D01*
X66151862Y-57734704D01*
X66116223Y-57715654D01*
X66084983Y-57690017D01*
X66059346Y-57658777D01*
X66040296Y-57623138D01*
X66028565Y-57584468D01*
X66024000Y-57538112D01*
X66024000Y-56461888D01*
X66028565Y-56415532D01*
X66040296Y-56376862D01*
X66059346Y-56341223D01*
X66084983Y-56309983D01*
X66116223Y-56284346D01*
X66151862Y-56265296D01*
X66190532Y-56253565D01*
X66236888Y-56249000D01*
X66888112Y-56249000D01*
X66934468Y-56253565D01*
G37*
G36*
X71934468Y-56253565D02*
G01*
X71973138Y-56265296D01*
X72008777Y-56284346D01*
X72040017Y-56309983D01*
X72065654Y-56341223D01*
X72084704Y-56376862D01*
X72096435Y-56415532D01*
X72101000Y-56461888D01*
X72101000Y-57538112D01*
X72096435Y-57584468D01*
X72084704Y-57623138D01*
X72065654Y-57658777D01*
X72040017Y-57690017D01*
X72008777Y-57715654D01*
X71973138Y-57734704D01*
X71934468Y-57746435D01*
X71888112Y-57751000D01*
X71236888Y-57751000D01*
X71190532Y-57746435D01*
X71151862Y-57734704D01*
X71116223Y-57715654D01*
X71084983Y-57690017D01*
X71059346Y-57658777D01*
X71040296Y-57623138D01*
X71028565Y-57584468D01*
X71024000Y-57538112D01*
X71024000Y-56461888D01*
X71028565Y-56415532D01*
X71040296Y-56376862D01*
X71059346Y-56341223D01*
X71084983Y-56309983D01*
X71116223Y-56284346D01*
X71151862Y-56265296D01*
X71190532Y-56253565D01*
X71236888Y-56249000D01*
X71888112Y-56249000D01*
X71934468Y-56253565D01*
G37*
G36*
X78809468Y-56253565D02*
G01*
X78848138Y-56265296D01*
X78883777Y-56284346D01*
X78915017Y-56309983D01*
X78940654Y-56341223D01*
X78959704Y-56376862D01*
X78971435Y-56415532D01*
X78976000Y-56461888D01*
X78976000Y-57538112D01*
X78971435Y-57584468D01*
X78959704Y-57623138D01*
X78940654Y-57658777D01*
X78915017Y-57690017D01*
X78883777Y-57715654D01*
X78848138Y-57734704D01*
X78809468Y-57746435D01*
X78763112Y-57751000D01*
X78111888Y-57751000D01*
X78065532Y-57746435D01*
X78026862Y-57734704D01*
X77991223Y-57715654D01*
X77959983Y-57690017D01*
X77934346Y-57658777D01*
X77915296Y-57623138D01*
X77903565Y-57584468D01*
X77899000Y-57538112D01*
X77899000Y-56461888D01*
X77903565Y-56415532D01*
X77915296Y-56376862D01*
X77934346Y-56341223D01*
X77959983Y-56309983D01*
X77991223Y-56284346D01*
X78026862Y-56265296D01*
X78065532Y-56253565D01*
X78111888Y-56249000D01*
X78763112Y-56249000D01*
X78809468Y-56253565D01*
G37*
G36*
X76934468Y-56253565D02*
G01*
X76973138Y-56265296D01*
X77008777Y-56284346D01*
X77040017Y-56309983D01*
X77065654Y-56341223D01*
X77084704Y-56376862D01*
X77096435Y-56415532D01*
X77101000Y-56461888D01*
X77101000Y-57538112D01*
X77096435Y-57584468D01*
X77084704Y-57623138D01*
X77065654Y-57658777D01*
X77040017Y-57690017D01*
X77008777Y-57715654D01*
X76973138Y-57734704D01*
X76934468Y-57746435D01*
X76888112Y-57751000D01*
X76236888Y-57751000D01*
X76190532Y-57746435D01*
X76151862Y-57734704D01*
X76116223Y-57715654D01*
X76084983Y-57690017D01*
X76059346Y-57658777D01*
X76040296Y-57623138D01*
X76028565Y-57584468D01*
X76024000Y-57538112D01*
X76024000Y-56461888D01*
X76028565Y-56415532D01*
X76040296Y-56376862D01*
X76059346Y-56341223D01*
X76084983Y-56309983D01*
X76116223Y-56284346D01*
X76151862Y-56265296D01*
X76190532Y-56253565D01*
X76236888Y-56249000D01*
X76888112Y-56249000D01*
X76934468Y-56253565D01*
G37*
G36*
X63809468Y-56253565D02*
G01*
X63848138Y-56265296D01*
X63883777Y-56284346D01*
X63915017Y-56309983D01*
X63940654Y-56341223D01*
X63959704Y-56376862D01*
X63971435Y-56415532D01*
X63976000Y-56461888D01*
X63976000Y-57538112D01*
X63971435Y-57584468D01*
X63959704Y-57623138D01*
X63940654Y-57658777D01*
X63915017Y-57690017D01*
X63883777Y-57715654D01*
X63848138Y-57734704D01*
X63809468Y-57746435D01*
X63763112Y-57751000D01*
X63111888Y-57751000D01*
X63065532Y-57746435D01*
X63026862Y-57734704D01*
X62991223Y-57715654D01*
X62959983Y-57690017D01*
X62934346Y-57658777D01*
X62915296Y-57623138D01*
X62903565Y-57584468D01*
X62899000Y-57538112D01*
X62899000Y-56461888D01*
X62903565Y-56415532D01*
X62915296Y-56376862D01*
X62934346Y-56341223D01*
X62959983Y-56309983D01*
X62991223Y-56284346D01*
X63026862Y-56265296D01*
X63065532Y-56253565D01*
X63111888Y-56249000D01*
X63763112Y-56249000D01*
X63809468Y-56253565D01*
G37*
G36*
X81934468Y-56253565D02*
G01*
X81973138Y-56265296D01*
X82008777Y-56284346D01*
X82040017Y-56309983D01*
X82065654Y-56341223D01*
X82084704Y-56376862D01*
X82096435Y-56415532D01*
X82101000Y-56461888D01*
X82101000Y-57538112D01*
X82096435Y-57584468D01*
X82084704Y-57623138D01*
X82065654Y-57658777D01*
X82040017Y-57690017D01*
X82008777Y-57715654D01*
X81973138Y-57734704D01*
X81934468Y-57746435D01*
X81888112Y-57751000D01*
X81236888Y-57751000D01*
X81190532Y-57746435D01*
X81151862Y-57734704D01*
X81116223Y-57715654D01*
X81084983Y-57690017D01*
X81059346Y-57658777D01*
X81040296Y-57623138D01*
X81028565Y-57584468D01*
X81024000Y-57538112D01*
X81024000Y-56461888D01*
X81028565Y-56415532D01*
X81040296Y-56376862D01*
X81059346Y-56341223D01*
X81084983Y-56309983D01*
X81116223Y-56284346D01*
X81151862Y-56265296D01*
X81190532Y-56253565D01*
X81236888Y-56249000D01*
X81888112Y-56249000D01*
X81934468Y-56253565D01*
G37*
G36*
X73809468Y-56253565D02*
G01*
X73848138Y-56265296D01*
X73883777Y-56284346D01*
X73915017Y-56309983D01*
X73940654Y-56341223D01*
X73959704Y-56376862D01*
X73971435Y-56415532D01*
X73976000Y-56461888D01*
X73976000Y-57538112D01*
X73971435Y-57584468D01*
X73959704Y-57623138D01*
X73940654Y-57658777D01*
X73915017Y-57690017D01*
X73883777Y-57715654D01*
X73848138Y-57734704D01*
X73809468Y-57746435D01*
X73763112Y-57751000D01*
X73111888Y-57751000D01*
X73065532Y-57746435D01*
X73026862Y-57734704D01*
X72991223Y-57715654D01*
X72959983Y-57690017D01*
X72934346Y-57658777D01*
X72915296Y-57623138D01*
X72903565Y-57584468D01*
X72899000Y-57538112D01*
X72899000Y-56461888D01*
X72903565Y-56415532D01*
X72915296Y-56376862D01*
X72934346Y-56341223D01*
X72959983Y-56309983D01*
X72991223Y-56284346D01*
X73026862Y-56265296D01*
X73065532Y-56253565D01*
X73111888Y-56249000D01*
X73763112Y-56249000D01*
X73809468Y-56253565D01*
G37*
G36*
X86934468Y-56253565D02*
G01*
X86973138Y-56265296D01*
X87008777Y-56284346D01*
X87040017Y-56309983D01*
X87065654Y-56341223D01*
X87084704Y-56376862D01*
X87096435Y-56415532D01*
X87101000Y-56461888D01*
X87101000Y-57538112D01*
X87096435Y-57584468D01*
X87084704Y-57623138D01*
X87065654Y-57658777D01*
X87040017Y-57690017D01*
X87008777Y-57715654D01*
X86973138Y-57734704D01*
X86934468Y-57746435D01*
X86888112Y-57751000D01*
X86236888Y-57751000D01*
X86190532Y-57746435D01*
X86151862Y-57734704D01*
X86116223Y-57715654D01*
X86084983Y-57690017D01*
X86059346Y-57658777D01*
X86040296Y-57623138D01*
X86028565Y-57584468D01*
X86024000Y-57538112D01*
X86024000Y-56461888D01*
X86028565Y-56415532D01*
X86040296Y-56376862D01*
X86059346Y-56341223D01*
X86084983Y-56309983D01*
X86116223Y-56284346D01*
X86151862Y-56265296D01*
X86190532Y-56253565D01*
X86236888Y-56249000D01*
X86888112Y-56249000D01*
X86934468Y-56253565D01*
G37*
G36*
X93809468Y-56253565D02*
G01*
X93848138Y-56265296D01*
X93883777Y-56284346D01*
X93915017Y-56309983D01*
X93940654Y-56341223D01*
X93959704Y-56376862D01*
X93971435Y-56415532D01*
X93976000Y-56461888D01*
X93976000Y-57538112D01*
X93971435Y-57584468D01*
X93959704Y-57623138D01*
X93940654Y-57658777D01*
X93915017Y-57690017D01*
X93883777Y-57715654D01*
X93848138Y-57734704D01*
X93809468Y-57746435D01*
X93763112Y-57751000D01*
X93111888Y-57751000D01*
X93065532Y-57746435D01*
X93026862Y-57734704D01*
X92991223Y-57715654D01*
X92959983Y-57690017D01*
X92934346Y-57658777D01*
X92915296Y-57623138D01*
X92903565Y-57584468D01*
X92899000Y-57538112D01*
X92899000Y-56461888D01*
X92903565Y-56415532D01*
X92915296Y-56376862D01*
X92934346Y-56341223D01*
X92959983Y-56309983D01*
X92991223Y-56284346D01*
X93026862Y-56265296D01*
X93065532Y-56253565D01*
X93111888Y-56249000D01*
X93763112Y-56249000D01*
X93809468Y-56253565D01*
G37*
G36*
X91934468Y-56253565D02*
G01*
X91973138Y-56265296D01*
X92008777Y-56284346D01*
X92040017Y-56309983D01*
X92065654Y-56341223D01*
X92084704Y-56376862D01*
X92096435Y-56415532D01*
X92101000Y-56461888D01*
X92101000Y-57538112D01*
X92096435Y-57584468D01*
X92084704Y-57623138D01*
X92065654Y-57658777D01*
X92040017Y-57690017D01*
X92008777Y-57715654D01*
X91973138Y-57734704D01*
X91934468Y-57746435D01*
X91888112Y-57751000D01*
X91236888Y-57751000D01*
X91190532Y-57746435D01*
X91151862Y-57734704D01*
X91116223Y-57715654D01*
X91084983Y-57690017D01*
X91059346Y-57658777D01*
X91040296Y-57623138D01*
X91028565Y-57584468D01*
X91024000Y-57538112D01*
X91024000Y-56461888D01*
X91028565Y-56415532D01*
X91040296Y-56376862D01*
X91059346Y-56341223D01*
X91084983Y-56309983D01*
X91116223Y-56284346D01*
X91151862Y-56265296D01*
X91190532Y-56253565D01*
X91236888Y-56249000D01*
X91888112Y-56249000D01*
X91934468Y-56253565D01*
G37*
G36*
X98809468Y-56253565D02*
G01*
X98848138Y-56265296D01*
X98883777Y-56284346D01*
X98915017Y-56309983D01*
X98940654Y-56341223D01*
X98959704Y-56376862D01*
X98971435Y-56415532D01*
X98976000Y-56461888D01*
X98976000Y-57538112D01*
X98971435Y-57584468D01*
X98959704Y-57623138D01*
X98940654Y-57658777D01*
X98915017Y-57690017D01*
X98883777Y-57715654D01*
X98848138Y-57734704D01*
X98809468Y-57746435D01*
X98763112Y-57751000D01*
X98111888Y-57751000D01*
X98065532Y-57746435D01*
X98026862Y-57734704D01*
X97991223Y-57715654D01*
X97959983Y-57690017D01*
X97934346Y-57658777D01*
X97915296Y-57623138D01*
X97903565Y-57584468D01*
X97899000Y-57538112D01*
X97899000Y-56461888D01*
X97903565Y-56415532D01*
X97915296Y-56376862D01*
X97934346Y-56341223D01*
X97959983Y-56309983D01*
X97991223Y-56284346D01*
X98026862Y-56265296D01*
X98065532Y-56253565D01*
X98111888Y-56249000D01*
X98763112Y-56249000D01*
X98809468Y-56253565D01*
G37*
G36*
X96934468Y-56253565D02*
G01*
X96973138Y-56265296D01*
X97008777Y-56284346D01*
X97040017Y-56309983D01*
X97065654Y-56341223D01*
X97084704Y-56376862D01*
X97096435Y-56415532D01*
X97101000Y-56461888D01*
X97101000Y-57538112D01*
X97096435Y-57584468D01*
X97084704Y-57623138D01*
X97065654Y-57658777D01*
X97040017Y-57690017D01*
X97008777Y-57715654D01*
X96973138Y-57734704D01*
X96934468Y-57746435D01*
X96888112Y-57751000D01*
X96236888Y-57751000D01*
X96190532Y-57746435D01*
X96151862Y-57734704D01*
X96116223Y-57715654D01*
X96084983Y-57690017D01*
X96059346Y-57658777D01*
X96040296Y-57623138D01*
X96028565Y-57584468D01*
X96024000Y-57538112D01*
X96024000Y-56461888D01*
X96028565Y-56415532D01*
X96040296Y-56376862D01*
X96059346Y-56341223D01*
X96084983Y-56309983D01*
X96116223Y-56284346D01*
X96151862Y-56265296D01*
X96190532Y-56253565D01*
X96236888Y-56249000D01*
X96888112Y-56249000D01*
X96934468Y-56253565D01*
G37*
G36*
X103809468Y-56253565D02*
G01*
X103848138Y-56265296D01*
X103883777Y-56284346D01*
X103915017Y-56309983D01*
X103940654Y-56341223D01*
X103959704Y-56376862D01*
X103971435Y-56415532D01*
X103976000Y-56461888D01*
X103976000Y-57538112D01*
X103971435Y-57584468D01*
X103959704Y-57623138D01*
X103940654Y-57658777D01*
X103915017Y-57690017D01*
X103883777Y-57715654D01*
X103848138Y-57734704D01*
X103809468Y-57746435D01*
X103763112Y-57751000D01*
X103111888Y-57751000D01*
X103065532Y-57746435D01*
X103026862Y-57734704D01*
X102991223Y-57715654D01*
X102959983Y-57690017D01*
X102934346Y-57658777D01*
X102915296Y-57623138D01*
X102903565Y-57584468D01*
X102899000Y-57538112D01*
X102899000Y-56461888D01*
X102903565Y-56415532D01*
X102915296Y-56376862D01*
X102934346Y-56341223D01*
X102959983Y-56309983D01*
X102991223Y-56284346D01*
X103026862Y-56265296D01*
X103065532Y-56253565D01*
X103111888Y-56249000D01*
X103763112Y-56249000D01*
X103809468Y-56253565D01*
G37*
G36*
X136934468Y-56253565D02*
G01*
X136973138Y-56265296D01*
X137008777Y-56284346D01*
X137040017Y-56309983D01*
X137065654Y-56341223D01*
X137084704Y-56376862D01*
X137096435Y-56415532D01*
X137101000Y-56461888D01*
X137101000Y-57538112D01*
X137096435Y-57584468D01*
X137084704Y-57623138D01*
X137065654Y-57658777D01*
X137040017Y-57690017D01*
X137008777Y-57715654D01*
X136973138Y-57734704D01*
X136934468Y-57746435D01*
X136888112Y-57751000D01*
X136236888Y-57751000D01*
X136190532Y-57746435D01*
X136151862Y-57734704D01*
X136116223Y-57715654D01*
X136084983Y-57690017D01*
X136059346Y-57658777D01*
X136040296Y-57623138D01*
X136028565Y-57584468D01*
X136024000Y-57538112D01*
X136024000Y-56461888D01*
X136028565Y-56415532D01*
X136040296Y-56376862D01*
X136059346Y-56341223D01*
X136084983Y-56309983D01*
X136116223Y-56284346D01*
X136151862Y-56265296D01*
X136190532Y-56253565D01*
X136236888Y-56249000D01*
X136888112Y-56249000D01*
X136934468Y-56253565D01*
G37*
G36*
X61934468Y-56253565D02*
G01*
X61973138Y-56265296D01*
X62008777Y-56284346D01*
X62040017Y-56309983D01*
X62065654Y-56341223D01*
X62084704Y-56376862D01*
X62096435Y-56415532D01*
X62101000Y-56461888D01*
X62101000Y-57538112D01*
X62096435Y-57584468D01*
X62084704Y-57623138D01*
X62065654Y-57658777D01*
X62040017Y-57690017D01*
X62008777Y-57715654D01*
X61973138Y-57734704D01*
X61934468Y-57746435D01*
X61888112Y-57751000D01*
X61236888Y-57751000D01*
X61190532Y-57746435D01*
X61151862Y-57734704D01*
X61116223Y-57715654D01*
X61084983Y-57690017D01*
X61059346Y-57658777D01*
X61040296Y-57623138D01*
X61028565Y-57584468D01*
X61024000Y-57538112D01*
X61024000Y-56461888D01*
X61028565Y-56415532D01*
X61040296Y-56376862D01*
X61059346Y-56341223D01*
X61084983Y-56309983D01*
X61116223Y-56284346D01*
X61151862Y-56265296D01*
X61190532Y-56253565D01*
X61236888Y-56249000D01*
X61888112Y-56249000D01*
X61934468Y-56253565D01*
G37*
G36*
X83809468Y-56253565D02*
G01*
X83848138Y-56265296D01*
X83883777Y-56284346D01*
X83915017Y-56309983D01*
X83940654Y-56341223D01*
X83959704Y-56376862D01*
X83971435Y-56415532D01*
X83976000Y-56461888D01*
X83976000Y-57538112D01*
X83971435Y-57584468D01*
X83959704Y-57623138D01*
X83940654Y-57658777D01*
X83915017Y-57690017D01*
X83883777Y-57715654D01*
X83848138Y-57734704D01*
X83809468Y-57746435D01*
X83763112Y-57751000D01*
X83111888Y-57751000D01*
X83065532Y-57746435D01*
X83026862Y-57734704D01*
X82991223Y-57715654D01*
X82959983Y-57690017D01*
X82934346Y-57658777D01*
X82915296Y-57623138D01*
X82903565Y-57584468D01*
X82899000Y-57538112D01*
X82899000Y-56461888D01*
X82903565Y-56415532D01*
X82915296Y-56376862D01*
X82934346Y-56341223D01*
X82959983Y-56309983D01*
X82991223Y-56284346D01*
X83026862Y-56265296D01*
X83065532Y-56253565D01*
X83111888Y-56249000D01*
X83763112Y-56249000D01*
X83809468Y-56253565D01*
G37*
G36*
X108809468Y-56253565D02*
G01*
X108848138Y-56265296D01*
X108883777Y-56284346D01*
X108915017Y-56309983D01*
X108940654Y-56341223D01*
X108959704Y-56376862D01*
X108971435Y-56415532D01*
X108976000Y-56461888D01*
X108976000Y-57538112D01*
X108971435Y-57584468D01*
X108959704Y-57623138D01*
X108940654Y-57658777D01*
X108915017Y-57690017D01*
X108883777Y-57715654D01*
X108848138Y-57734704D01*
X108809468Y-57746435D01*
X108763112Y-57751000D01*
X108111888Y-57751000D01*
X108065532Y-57746435D01*
X108026862Y-57734704D01*
X107991223Y-57715654D01*
X107959983Y-57690017D01*
X107934346Y-57658777D01*
X107915296Y-57623138D01*
X107903565Y-57584468D01*
X107899000Y-57538112D01*
X107899000Y-56461888D01*
X107903565Y-56415532D01*
X107915296Y-56376862D01*
X107934346Y-56341223D01*
X107959983Y-56309983D01*
X107991223Y-56284346D01*
X108026862Y-56265296D01*
X108065532Y-56253565D01*
X108111888Y-56249000D01*
X108763112Y-56249000D01*
X108809468Y-56253565D01*
G37*
G36*
X106934468Y-56253565D02*
G01*
X106973138Y-56265296D01*
X107008777Y-56284346D01*
X107040017Y-56309983D01*
X107065654Y-56341223D01*
X107084704Y-56376862D01*
X107096435Y-56415532D01*
X107101000Y-56461888D01*
X107101000Y-57538112D01*
X107096435Y-57584468D01*
X107084704Y-57623138D01*
X107065654Y-57658777D01*
X107040017Y-57690017D01*
X107008777Y-57715654D01*
X106973138Y-57734704D01*
X106934468Y-57746435D01*
X106888112Y-57751000D01*
X106236888Y-57751000D01*
X106190532Y-57746435D01*
X106151862Y-57734704D01*
X106116223Y-57715654D01*
X106084983Y-57690017D01*
X106059346Y-57658777D01*
X106040296Y-57623138D01*
X106028565Y-57584468D01*
X106024000Y-57538112D01*
X106024000Y-56461888D01*
X106028565Y-56415532D01*
X106040296Y-56376862D01*
X106059346Y-56341223D01*
X106084983Y-56309983D01*
X106116223Y-56284346D01*
X106151862Y-56265296D01*
X106190532Y-56253565D01*
X106236888Y-56249000D01*
X106888112Y-56249000D01*
X106934468Y-56253565D01*
G37*
G36*
X113809468Y-56253565D02*
G01*
X113848138Y-56265296D01*
X113883777Y-56284346D01*
X113915017Y-56309983D01*
X113940654Y-56341223D01*
X113959704Y-56376862D01*
X113971435Y-56415532D01*
X113976000Y-56461888D01*
X113976000Y-57538112D01*
X113971435Y-57584468D01*
X113959704Y-57623138D01*
X113940654Y-57658777D01*
X113915017Y-57690017D01*
X113883777Y-57715654D01*
X113848138Y-57734704D01*
X113809468Y-57746435D01*
X113763112Y-57751000D01*
X113111888Y-57751000D01*
X113065532Y-57746435D01*
X113026862Y-57734704D01*
X112991223Y-57715654D01*
X112959983Y-57690017D01*
X112934346Y-57658777D01*
X112915296Y-57623138D01*
X112903565Y-57584468D01*
X112899000Y-57538112D01*
X112899000Y-56461888D01*
X112903565Y-56415532D01*
X112915296Y-56376862D01*
X112934346Y-56341223D01*
X112959983Y-56309983D01*
X112991223Y-56284346D01*
X113026862Y-56265296D01*
X113065532Y-56253565D01*
X113111888Y-56249000D01*
X113763112Y-56249000D01*
X113809468Y-56253565D01*
G37*
G36*
X111934468Y-56253565D02*
G01*
X111973138Y-56265296D01*
X112008777Y-56284346D01*
X112040017Y-56309983D01*
X112065654Y-56341223D01*
X112084704Y-56376862D01*
X112096435Y-56415532D01*
X112101000Y-56461888D01*
X112101000Y-57538112D01*
X112096435Y-57584468D01*
X112084704Y-57623138D01*
X112065654Y-57658777D01*
X112040017Y-57690017D01*
X112008777Y-57715654D01*
X111973138Y-57734704D01*
X111934468Y-57746435D01*
X111888112Y-57751000D01*
X111236888Y-57751000D01*
X111190532Y-57746435D01*
X111151862Y-57734704D01*
X111116223Y-57715654D01*
X111084983Y-57690017D01*
X111059346Y-57658777D01*
X111040296Y-57623138D01*
X111028565Y-57584468D01*
X111024000Y-57538112D01*
X111024000Y-56461888D01*
X111028565Y-56415532D01*
X111040296Y-56376862D01*
X111059346Y-56341223D01*
X111084983Y-56309983D01*
X111116223Y-56284346D01*
X111151862Y-56265296D01*
X111190532Y-56253565D01*
X111236888Y-56249000D01*
X111888112Y-56249000D01*
X111934468Y-56253565D01*
G37*
G36*
X118809468Y-56253565D02*
G01*
X118848138Y-56265296D01*
X118883777Y-56284346D01*
X118915017Y-56309983D01*
X118940654Y-56341223D01*
X118959704Y-56376862D01*
X118971435Y-56415532D01*
X118976000Y-56461888D01*
X118976000Y-57538112D01*
X118971435Y-57584468D01*
X118959704Y-57623138D01*
X118940654Y-57658777D01*
X118915017Y-57690017D01*
X118883777Y-57715654D01*
X118848138Y-57734704D01*
X118809468Y-57746435D01*
X118763112Y-57751000D01*
X118111888Y-57751000D01*
X118065532Y-57746435D01*
X118026862Y-57734704D01*
X117991223Y-57715654D01*
X117959983Y-57690017D01*
X117934346Y-57658777D01*
X117915296Y-57623138D01*
X117903565Y-57584468D01*
X117899000Y-57538112D01*
X117899000Y-56461888D01*
X117903565Y-56415532D01*
X117915296Y-56376862D01*
X117934346Y-56341223D01*
X117959983Y-56309983D01*
X117991223Y-56284346D01*
X118026862Y-56265296D01*
X118065532Y-56253565D01*
X118111888Y-56249000D01*
X118763112Y-56249000D01*
X118809468Y-56253565D01*
G37*
G36*
X116934468Y-56253565D02*
G01*
X116973138Y-56265296D01*
X117008777Y-56284346D01*
X117040017Y-56309983D01*
X117065654Y-56341223D01*
X117084704Y-56376862D01*
X117096435Y-56415532D01*
X117101000Y-56461888D01*
X117101000Y-57538112D01*
X117096435Y-57584468D01*
X117084704Y-57623138D01*
X117065654Y-57658777D01*
X117040017Y-57690017D01*
X117008777Y-57715654D01*
X116973138Y-57734704D01*
X116934468Y-57746435D01*
X116888112Y-57751000D01*
X116236888Y-57751000D01*
X116190532Y-57746435D01*
X116151862Y-57734704D01*
X116116223Y-57715654D01*
X116084983Y-57690017D01*
X116059346Y-57658777D01*
X116040296Y-57623138D01*
X116028565Y-57584468D01*
X116024000Y-57538112D01*
X116024000Y-56461888D01*
X116028565Y-56415532D01*
X116040296Y-56376862D01*
X116059346Y-56341223D01*
X116084983Y-56309983D01*
X116116223Y-56284346D01*
X116151862Y-56265296D01*
X116190532Y-56253565D01*
X116236888Y-56249000D01*
X116888112Y-56249000D01*
X116934468Y-56253565D01*
G37*
G36*
X123809468Y-56253565D02*
G01*
X123848138Y-56265296D01*
X123883777Y-56284346D01*
X123915017Y-56309983D01*
X123940654Y-56341223D01*
X123959704Y-56376862D01*
X123971435Y-56415532D01*
X123976000Y-56461888D01*
X123976000Y-57538112D01*
X123971435Y-57584468D01*
X123959704Y-57623138D01*
X123940654Y-57658777D01*
X123915017Y-57690017D01*
X123883777Y-57715654D01*
X123848138Y-57734704D01*
X123809468Y-57746435D01*
X123763112Y-57751000D01*
X123111888Y-57751000D01*
X123065532Y-57746435D01*
X123026862Y-57734704D01*
X122991223Y-57715654D01*
X122959983Y-57690017D01*
X122934346Y-57658777D01*
X122915296Y-57623138D01*
X122903565Y-57584468D01*
X122899000Y-57538112D01*
X122899000Y-56461888D01*
X122903565Y-56415532D01*
X122915296Y-56376862D01*
X122934346Y-56341223D01*
X122959983Y-56309983D01*
X122991223Y-56284346D01*
X123026862Y-56265296D01*
X123065532Y-56253565D01*
X123111888Y-56249000D01*
X123763112Y-56249000D01*
X123809468Y-56253565D01*
G37*
G36*
X121934468Y-56253565D02*
G01*
X121973138Y-56265296D01*
X122008777Y-56284346D01*
X122040017Y-56309983D01*
X122065654Y-56341223D01*
X122084704Y-56376862D01*
X122096435Y-56415532D01*
X122101000Y-56461888D01*
X122101000Y-57538112D01*
X122096435Y-57584468D01*
X122084704Y-57623138D01*
X122065654Y-57658777D01*
X122040017Y-57690017D01*
X122008777Y-57715654D01*
X121973138Y-57734704D01*
X121934468Y-57746435D01*
X121888112Y-57751000D01*
X121236888Y-57751000D01*
X121190532Y-57746435D01*
X121151862Y-57734704D01*
X121116223Y-57715654D01*
X121084983Y-57690017D01*
X121059346Y-57658777D01*
X121040296Y-57623138D01*
X121028565Y-57584468D01*
X121024000Y-57538112D01*
X121024000Y-56461888D01*
X121028565Y-56415532D01*
X121040296Y-56376862D01*
X121059346Y-56341223D01*
X121084983Y-56309983D01*
X121116223Y-56284346D01*
X121151862Y-56265296D01*
X121190532Y-56253565D01*
X121236888Y-56249000D01*
X121888112Y-56249000D01*
X121934468Y-56253565D01*
G37*
G36*
X101934468Y-56253565D02*
G01*
X101973138Y-56265296D01*
X102008777Y-56284346D01*
X102040017Y-56309983D01*
X102065654Y-56341223D01*
X102084704Y-56376862D01*
X102096435Y-56415532D01*
X102101000Y-56461888D01*
X102101000Y-57538112D01*
X102096435Y-57584468D01*
X102084704Y-57623138D01*
X102065654Y-57658777D01*
X102040017Y-57690017D01*
X102008777Y-57715654D01*
X101973138Y-57734704D01*
X101934468Y-57746435D01*
X101888112Y-57751000D01*
X101236888Y-57751000D01*
X101190532Y-57746435D01*
X101151862Y-57734704D01*
X101116223Y-57715654D01*
X101084983Y-57690017D01*
X101059346Y-57658777D01*
X101040296Y-57623138D01*
X101028565Y-57584468D01*
X101024000Y-57538112D01*
X101024000Y-56461888D01*
X101028565Y-56415532D01*
X101040296Y-56376862D01*
X101059346Y-56341223D01*
X101084983Y-56309983D01*
X101116223Y-56284346D01*
X101151862Y-56265296D01*
X101190532Y-56253565D01*
X101236888Y-56249000D01*
X101888112Y-56249000D01*
X101934468Y-56253565D01*
G37*
G36*
X128809468Y-56253565D02*
G01*
X128848138Y-56265296D01*
X128883777Y-56284346D01*
X128915017Y-56309983D01*
X128940654Y-56341223D01*
X128959704Y-56376862D01*
X128971435Y-56415532D01*
X128976000Y-56461888D01*
X128976000Y-57538112D01*
X128971435Y-57584468D01*
X128959704Y-57623138D01*
X128940654Y-57658777D01*
X128915017Y-57690017D01*
X128883777Y-57715654D01*
X128848138Y-57734704D01*
X128809468Y-57746435D01*
X128763112Y-57751000D01*
X128111888Y-57751000D01*
X128065532Y-57746435D01*
X128026862Y-57734704D01*
X127991223Y-57715654D01*
X127959983Y-57690017D01*
X127934346Y-57658777D01*
X127915296Y-57623138D01*
X127903565Y-57584468D01*
X127899000Y-57538112D01*
X127899000Y-56461888D01*
X127903565Y-56415532D01*
X127915296Y-56376862D01*
X127934346Y-56341223D01*
X127959983Y-56309983D01*
X127991223Y-56284346D01*
X128026862Y-56265296D01*
X128065532Y-56253565D01*
X128111888Y-56249000D01*
X128763112Y-56249000D01*
X128809468Y-56253565D01*
G37*
G36*
X126934468Y-56253565D02*
G01*
X126973138Y-56265296D01*
X127008777Y-56284346D01*
X127040017Y-56309983D01*
X127065654Y-56341223D01*
X127084704Y-56376862D01*
X127096435Y-56415532D01*
X127101000Y-56461888D01*
X127101000Y-57538112D01*
X127096435Y-57584468D01*
X127084704Y-57623138D01*
X127065654Y-57658777D01*
X127040017Y-57690017D01*
X127008777Y-57715654D01*
X126973138Y-57734704D01*
X126934468Y-57746435D01*
X126888112Y-57751000D01*
X126236888Y-57751000D01*
X126190532Y-57746435D01*
X126151862Y-57734704D01*
X126116223Y-57715654D01*
X126084983Y-57690017D01*
X126059346Y-57658777D01*
X126040296Y-57623138D01*
X126028565Y-57584468D01*
X126024000Y-57538112D01*
X126024000Y-56461888D01*
X126028565Y-56415532D01*
X126040296Y-56376862D01*
X126059346Y-56341223D01*
X126084983Y-56309983D01*
X126116223Y-56284346D01*
X126151862Y-56265296D01*
X126190532Y-56253565D01*
X126236888Y-56249000D01*
X126888112Y-56249000D01*
X126934468Y-56253565D01*
G37*
G36*
X133809468Y-56253565D02*
G01*
X133848138Y-56265296D01*
X133883777Y-56284346D01*
X133915017Y-56309983D01*
X133940654Y-56341223D01*
X133959704Y-56376862D01*
X133971435Y-56415532D01*
X133976000Y-56461888D01*
X133976000Y-57538112D01*
X133971435Y-57584468D01*
X133959704Y-57623138D01*
X133940654Y-57658777D01*
X133915017Y-57690017D01*
X133883777Y-57715654D01*
X133848138Y-57734704D01*
X133809468Y-57746435D01*
X133763112Y-57751000D01*
X133111888Y-57751000D01*
X133065532Y-57746435D01*
X133026862Y-57734704D01*
X132991223Y-57715654D01*
X132959983Y-57690017D01*
X132934346Y-57658777D01*
X132915296Y-57623138D01*
X132903565Y-57584468D01*
X132899000Y-57538112D01*
X132899000Y-56461888D01*
X132903565Y-56415532D01*
X132915296Y-56376862D01*
X132934346Y-56341223D01*
X132959983Y-56309983D01*
X132991223Y-56284346D01*
X133026862Y-56265296D01*
X133065532Y-56253565D01*
X133111888Y-56249000D01*
X133763112Y-56249000D01*
X133809468Y-56253565D01*
G37*
G36*
X131934468Y-56253565D02*
G01*
X131973138Y-56265296D01*
X132008777Y-56284346D01*
X132040017Y-56309983D01*
X132065654Y-56341223D01*
X132084704Y-56376862D01*
X132096435Y-56415532D01*
X132101000Y-56461888D01*
X132101000Y-57538112D01*
X132096435Y-57584468D01*
X132084704Y-57623138D01*
X132065654Y-57658777D01*
X132040017Y-57690017D01*
X132008777Y-57715654D01*
X131973138Y-57734704D01*
X131934468Y-57746435D01*
X131888112Y-57751000D01*
X131236888Y-57751000D01*
X131190532Y-57746435D01*
X131151862Y-57734704D01*
X131116223Y-57715654D01*
X131084983Y-57690017D01*
X131059346Y-57658777D01*
X131040296Y-57623138D01*
X131028565Y-57584468D01*
X131024000Y-57538112D01*
X131024000Y-56461888D01*
X131028565Y-56415532D01*
X131040296Y-56376862D01*
X131059346Y-56341223D01*
X131084983Y-56309983D01*
X131116223Y-56284346D01*
X131151862Y-56265296D01*
X131190532Y-56253565D01*
X131236888Y-56249000D01*
X131888112Y-56249000D01*
X131934468Y-56253565D01*
G37*
G36*
X138809468Y-56253565D02*
G01*
X138848138Y-56265296D01*
X138883777Y-56284346D01*
X138915017Y-56309983D01*
X138940654Y-56341223D01*
X138959704Y-56376862D01*
X138971435Y-56415532D01*
X138976000Y-56461888D01*
X138976000Y-57538112D01*
X138971435Y-57584468D01*
X138959704Y-57623138D01*
X138940654Y-57658777D01*
X138915017Y-57690017D01*
X138883777Y-57715654D01*
X138848138Y-57734704D01*
X138809468Y-57746435D01*
X138763112Y-57751000D01*
X138111888Y-57751000D01*
X138065532Y-57746435D01*
X138026862Y-57734704D01*
X137991223Y-57715654D01*
X137959983Y-57690017D01*
X137934346Y-57658777D01*
X137915296Y-57623138D01*
X137903565Y-57584468D01*
X137899000Y-57538112D01*
X137899000Y-56461888D01*
X137903565Y-56415532D01*
X137915296Y-56376862D01*
X137934346Y-56341223D01*
X137959983Y-56309983D01*
X137991223Y-56284346D01*
X138026862Y-56265296D01*
X138065532Y-56253565D01*
X138111888Y-56249000D01*
X138763112Y-56249000D01*
X138809468Y-56253565D01*
G37*
M02*
