G04 #@! TF.GenerationSoftware,KiCad,Pcbnew,(5.1.6)-1*
G04 #@! TF.CreationDate,2020-12-31T12:37:09+01:00*
G04 #@! TF.ProjectId,XY_LED,58595f4c-4544-42e6-9b69-6361645f7063,rev?*
G04 #@! TF.SameCoordinates,Original*
G04 #@! TF.FileFunction,Paste,Top*
G04 #@! TF.FilePolarity,Positive*
%FSLAX46Y46*%
G04 Gerber Fmt 4.6, Leading zero omitted, Abs format (unit mm)*
G04 Created by KiCad (PCBNEW (5.1.6)-1) date 2020-12-31 12:37:09*
%MOMM*%
%LPD*%
G01*
G04 APERTURE LIST*
G04 APERTURE END LIST*
G36*
G01*
X108275000Y-58500000D02*
X107825000Y-58500000D01*
G75*
G02*
X107600000Y-58275000I0J225000D01*
G01*
X107600000Y-57525000D01*
G75*
G02*
X107825000Y-57300000I225000J0D01*
G01*
X108275000Y-57300000D01*
G75*
G02*
X108500000Y-57525000I0J-225000D01*
G01*
X108500000Y-58275000D01*
G75*
G02*
X108275000Y-58500000I-225000J0D01*
G01*
G37*
G36*
G01*
X108275000Y-56700000D02*
X107825000Y-56700000D01*
G75*
G02*
X107600000Y-56475000I0J225000D01*
G01*
X107600000Y-55725000D01*
G75*
G02*
X107825000Y-55500000I225000J0D01*
G01*
X108275000Y-55500000D01*
G75*
G02*
X108500000Y-55725000I0J-225000D01*
G01*
X108500000Y-56475000D01*
G75*
G02*
X108275000Y-56700000I-225000J0D01*
G01*
G37*
G36*
G01*
X107175000Y-56700000D02*
X106725000Y-56700000D01*
G75*
G02*
X106500000Y-56475000I0J225000D01*
G01*
X106500000Y-55725000D01*
G75*
G02*
X106725000Y-55500000I225000J0D01*
G01*
X107175000Y-55500000D01*
G75*
G02*
X107400000Y-55725000I0J-225000D01*
G01*
X107400000Y-56475000D01*
G75*
G02*
X107175000Y-56700000I-225000J0D01*
G01*
G37*
G36*
G01*
X107175000Y-58500000D02*
X106725000Y-58500000D01*
G75*
G02*
X106500000Y-58275000I0J225000D01*
G01*
X106500000Y-57525000D01*
G75*
G02*
X106725000Y-57300000I225000J0D01*
G01*
X107175000Y-57300000D01*
G75*
G02*
X107400000Y-57525000I0J-225000D01*
G01*
X107400000Y-58275000D01*
G75*
G02*
X107175000Y-58500000I-225000J0D01*
G01*
G37*
G36*
G01*
X73275000Y-58500000D02*
X72825000Y-58500000D01*
G75*
G02*
X72600000Y-58275000I0J225000D01*
G01*
X72600000Y-57525000D01*
G75*
G02*
X72825000Y-57300000I225000J0D01*
G01*
X73275000Y-57300000D01*
G75*
G02*
X73500000Y-57525000I0J-225000D01*
G01*
X73500000Y-58275000D01*
G75*
G02*
X73275000Y-58500000I-225000J0D01*
G01*
G37*
G36*
G01*
X73275000Y-56700000D02*
X72825000Y-56700000D01*
G75*
G02*
X72600000Y-56475000I0J225000D01*
G01*
X72600000Y-55725000D01*
G75*
G02*
X72825000Y-55500000I225000J0D01*
G01*
X73275000Y-55500000D01*
G75*
G02*
X73500000Y-55725000I0J-225000D01*
G01*
X73500000Y-56475000D01*
G75*
G02*
X73275000Y-56700000I-225000J0D01*
G01*
G37*
G36*
G01*
X72175000Y-56700000D02*
X71725000Y-56700000D01*
G75*
G02*
X71500000Y-56475000I0J225000D01*
G01*
X71500000Y-55725000D01*
G75*
G02*
X71725000Y-55500000I225000J0D01*
G01*
X72175000Y-55500000D01*
G75*
G02*
X72400000Y-55725000I0J-225000D01*
G01*
X72400000Y-56475000D01*
G75*
G02*
X72175000Y-56700000I-225000J0D01*
G01*
G37*
G36*
G01*
X72175000Y-58500000D02*
X71725000Y-58500000D01*
G75*
G02*
X71500000Y-58275000I0J225000D01*
G01*
X71500000Y-57525000D01*
G75*
G02*
X71725000Y-57300000I225000J0D01*
G01*
X72175000Y-57300000D01*
G75*
G02*
X72400000Y-57525000I0J-225000D01*
G01*
X72400000Y-58275000D01*
G75*
G02*
X72175000Y-58500000I-225000J0D01*
G01*
G37*
G36*
G01*
X103275000Y-58500000D02*
X102825000Y-58500000D01*
G75*
G02*
X102600000Y-58275000I0J225000D01*
G01*
X102600000Y-57525000D01*
G75*
G02*
X102825000Y-57300000I225000J0D01*
G01*
X103275000Y-57300000D01*
G75*
G02*
X103500000Y-57525000I0J-225000D01*
G01*
X103500000Y-58275000D01*
G75*
G02*
X103275000Y-58500000I-225000J0D01*
G01*
G37*
G36*
G01*
X103275000Y-56700000D02*
X102825000Y-56700000D01*
G75*
G02*
X102600000Y-56475000I0J225000D01*
G01*
X102600000Y-55725000D01*
G75*
G02*
X102825000Y-55500000I225000J0D01*
G01*
X103275000Y-55500000D01*
G75*
G02*
X103500000Y-55725000I0J-225000D01*
G01*
X103500000Y-56475000D01*
G75*
G02*
X103275000Y-56700000I-225000J0D01*
G01*
G37*
G36*
G01*
X102175000Y-56700000D02*
X101725000Y-56700000D01*
G75*
G02*
X101500000Y-56475000I0J225000D01*
G01*
X101500000Y-55725000D01*
G75*
G02*
X101725000Y-55500000I225000J0D01*
G01*
X102175000Y-55500000D01*
G75*
G02*
X102400000Y-55725000I0J-225000D01*
G01*
X102400000Y-56475000D01*
G75*
G02*
X102175000Y-56700000I-225000J0D01*
G01*
G37*
G36*
G01*
X102175000Y-58500000D02*
X101725000Y-58500000D01*
G75*
G02*
X101500000Y-58275000I0J225000D01*
G01*
X101500000Y-57525000D01*
G75*
G02*
X101725000Y-57300000I225000J0D01*
G01*
X102175000Y-57300000D01*
G75*
G02*
X102400000Y-57525000I0J-225000D01*
G01*
X102400000Y-58275000D01*
G75*
G02*
X102175000Y-58500000I-225000J0D01*
G01*
G37*
G36*
G01*
X133275000Y-58500000D02*
X132825000Y-58500000D01*
G75*
G02*
X132600000Y-58275000I0J225000D01*
G01*
X132600000Y-57525000D01*
G75*
G02*
X132825000Y-57300000I225000J0D01*
G01*
X133275000Y-57300000D01*
G75*
G02*
X133500000Y-57525000I0J-225000D01*
G01*
X133500000Y-58275000D01*
G75*
G02*
X133275000Y-58500000I-225000J0D01*
G01*
G37*
G36*
G01*
X133275000Y-56700000D02*
X132825000Y-56700000D01*
G75*
G02*
X132600000Y-56475000I0J225000D01*
G01*
X132600000Y-55725000D01*
G75*
G02*
X132825000Y-55500000I225000J0D01*
G01*
X133275000Y-55500000D01*
G75*
G02*
X133500000Y-55725000I0J-225000D01*
G01*
X133500000Y-56475000D01*
G75*
G02*
X133275000Y-56700000I-225000J0D01*
G01*
G37*
G36*
G01*
X132175000Y-56700000D02*
X131725000Y-56700000D01*
G75*
G02*
X131500000Y-56475000I0J225000D01*
G01*
X131500000Y-55725000D01*
G75*
G02*
X131725000Y-55500000I225000J0D01*
G01*
X132175000Y-55500000D01*
G75*
G02*
X132400000Y-55725000I0J-225000D01*
G01*
X132400000Y-56475000D01*
G75*
G02*
X132175000Y-56700000I-225000J0D01*
G01*
G37*
G36*
G01*
X132175000Y-58500000D02*
X131725000Y-58500000D01*
G75*
G02*
X131500000Y-58275000I0J225000D01*
G01*
X131500000Y-57525000D01*
G75*
G02*
X131725000Y-57300000I225000J0D01*
G01*
X132175000Y-57300000D01*
G75*
G02*
X132400000Y-57525000I0J-225000D01*
G01*
X132400000Y-58275000D01*
G75*
G02*
X132175000Y-58500000I-225000J0D01*
G01*
G37*
G36*
G01*
X98275000Y-58500000D02*
X97825000Y-58500000D01*
G75*
G02*
X97600000Y-58275000I0J225000D01*
G01*
X97600000Y-57525000D01*
G75*
G02*
X97825000Y-57300000I225000J0D01*
G01*
X98275000Y-57300000D01*
G75*
G02*
X98500000Y-57525000I0J-225000D01*
G01*
X98500000Y-58275000D01*
G75*
G02*
X98275000Y-58500000I-225000J0D01*
G01*
G37*
G36*
G01*
X98275000Y-56700000D02*
X97825000Y-56700000D01*
G75*
G02*
X97600000Y-56475000I0J225000D01*
G01*
X97600000Y-55725000D01*
G75*
G02*
X97825000Y-55500000I225000J0D01*
G01*
X98275000Y-55500000D01*
G75*
G02*
X98500000Y-55725000I0J-225000D01*
G01*
X98500000Y-56475000D01*
G75*
G02*
X98275000Y-56700000I-225000J0D01*
G01*
G37*
G36*
G01*
X97175000Y-56700000D02*
X96725000Y-56700000D01*
G75*
G02*
X96500000Y-56475000I0J225000D01*
G01*
X96500000Y-55725000D01*
G75*
G02*
X96725000Y-55500000I225000J0D01*
G01*
X97175000Y-55500000D01*
G75*
G02*
X97400000Y-55725000I0J-225000D01*
G01*
X97400000Y-56475000D01*
G75*
G02*
X97175000Y-56700000I-225000J0D01*
G01*
G37*
G36*
G01*
X97175000Y-58500000D02*
X96725000Y-58500000D01*
G75*
G02*
X96500000Y-58275000I0J225000D01*
G01*
X96500000Y-57525000D01*
G75*
G02*
X96725000Y-57300000I225000J0D01*
G01*
X97175000Y-57300000D01*
G75*
G02*
X97400000Y-57525000I0J-225000D01*
G01*
X97400000Y-58275000D01*
G75*
G02*
X97175000Y-58500000I-225000J0D01*
G01*
G37*
G36*
G01*
X123275000Y-58500000D02*
X122825000Y-58500000D01*
G75*
G02*
X122600000Y-58275000I0J225000D01*
G01*
X122600000Y-57525000D01*
G75*
G02*
X122825000Y-57300000I225000J0D01*
G01*
X123275000Y-57300000D01*
G75*
G02*
X123500000Y-57525000I0J-225000D01*
G01*
X123500000Y-58275000D01*
G75*
G02*
X123275000Y-58500000I-225000J0D01*
G01*
G37*
G36*
G01*
X123275000Y-56700000D02*
X122825000Y-56700000D01*
G75*
G02*
X122600000Y-56475000I0J225000D01*
G01*
X122600000Y-55725000D01*
G75*
G02*
X122825000Y-55500000I225000J0D01*
G01*
X123275000Y-55500000D01*
G75*
G02*
X123500000Y-55725000I0J-225000D01*
G01*
X123500000Y-56475000D01*
G75*
G02*
X123275000Y-56700000I-225000J0D01*
G01*
G37*
G36*
G01*
X122175000Y-56700000D02*
X121725000Y-56700000D01*
G75*
G02*
X121500000Y-56475000I0J225000D01*
G01*
X121500000Y-55725000D01*
G75*
G02*
X121725000Y-55500000I225000J0D01*
G01*
X122175000Y-55500000D01*
G75*
G02*
X122400000Y-55725000I0J-225000D01*
G01*
X122400000Y-56475000D01*
G75*
G02*
X122175000Y-56700000I-225000J0D01*
G01*
G37*
G36*
G01*
X122175000Y-58500000D02*
X121725000Y-58500000D01*
G75*
G02*
X121500000Y-58275000I0J225000D01*
G01*
X121500000Y-57525000D01*
G75*
G02*
X121725000Y-57300000I225000J0D01*
G01*
X122175000Y-57300000D01*
G75*
G02*
X122400000Y-57525000I0J-225000D01*
G01*
X122400000Y-58275000D01*
G75*
G02*
X122175000Y-58500000I-225000J0D01*
G01*
G37*
G36*
G01*
X68275000Y-58500000D02*
X67825000Y-58500000D01*
G75*
G02*
X67600000Y-58275000I0J225000D01*
G01*
X67600000Y-57525000D01*
G75*
G02*
X67825000Y-57300000I225000J0D01*
G01*
X68275000Y-57300000D01*
G75*
G02*
X68500000Y-57525000I0J-225000D01*
G01*
X68500000Y-58275000D01*
G75*
G02*
X68275000Y-58500000I-225000J0D01*
G01*
G37*
G36*
G01*
X68275000Y-56700000D02*
X67825000Y-56700000D01*
G75*
G02*
X67600000Y-56475000I0J225000D01*
G01*
X67600000Y-55725000D01*
G75*
G02*
X67825000Y-55500000I225000J0D01*
G01*
X68275000Y-55500000D01*
G75*
G02*
X68500000Y-55725000I0J-225000D01*
G01*
X68500000Y-56475000D01*
G75*
G02*
X68275000Y-56700000I-225000J0D01*
G01*
G37*
G36*
G01*
X67175000Y-56700000D02*
X66725000Y-56700000D01*
G75*
G02*
X66500000Y-56475000I0J225000D01*
G01*
X66500000Y-55725000D01*
G75*
G02*
X66725000Y-55500000I225000J0D01*
G01*
X67175000Y-55500000D01*
G75*
G02*
X67400000Y-55725000I0J-225000D01*
G01*
X67400000Y-56475000D01*
G75*
G02*
X67175000Y-56700000I-225000J0D01*
G01*
G37*
G36*
G01*
X67175000Y-58500000D02*
X66725000Y-58500000D01*
G75*
G02*
X66500000Y-58275000I0J225000D01*
G01*
X66500000Y-57525000D01*
G75*
G02*
X66725000Y-57300000I225000J0D01*
G01*
X67175000Y-57300000D01*
G75*
G02*
X67400000Y-57525000I0J-225000D01*
G01*
X67400000Y-58275000D01*
G75*
G02*
X67175000Y-58500000I-225000J0D01*
G01*
G37*
G36*
G01*
X113275000Y-58500000D02*
X112825000Y-58500000D01*
G75*
G02*
X112600000Y-58275000I0J225000D01*
G01*
X112600000Y-57525000D01*
G75*
G02*
X112825000Y-57300000I225000J0D01*
G01*
X113275000Y-57300000D01*
G75*
G02*
X113500000Y-57525000I0J-225000D01*
G01*
X113500000Y-58275000D01*
G75*
G02*
X113275000Y-58500000I-225000J0D01*
G01*
G37*
G36*
G01*
X113275000Y-56700000D02*
X112825000Y-56700000D01*
G75*
G02*
X112600000Y-56475000I0J225000D01*
G01*
X112600000Y-55725000D01*
G75*
G02*
X112825000Y-55500000I225000J0D01*
G01*
X113275000Y-55500000D01*
G75*
G02*
X113500000Y-55725000I0J-225000D01*
G01*
X113500000Y-56475000D01*
G75*
G02*
X113275000Y-56700000I-225000J0D01*
G01*
G37*
G36*
G01*
X112175000Y-56700000D02*
X111725000Y-56700000D01*
G75*
G02*
X111500000Y-56475000I0J225000D01*
G01*
X111500000Y-55725000D01*
G75*
G02*
X111725000Y-55500000I225000J0D01*
G01*
X112175000Y-55500000D01*
G75*
G02*
X112400000Y-55725000I0J-225000D01*
G01*
X112400000Y-56475000D01*
G75*
G02*
X112175000Y-56700000I-225000J0D01*
G01*
G37*
G36*
G01*
X112175000Y-58500000D02*
X111725000Y-58500000D01*
G75*
G02*
X111500000Y-58275000I0J225000D01*
G01*
X111500000Y-57525000D01*
G75*
G02*
X111725000Y-57300000I225000J0D01*
G01*
X112175000Y-57300000D01*
G75*
G02*
X112400000Y-57525000I0J-225000D01*
G01*
X112400000Y-58275000D01*
G75*
G02*
X112175000Y-58500000I-225000J0D01*
G01*
G37*
G36*
G01*
X118275000Y-58500000D02*
X117825000Y-58500000D01*
G75*
G02*
X117600000Y-58275000I0J225000D01*
G01*
X117600000Y-57525000D01*
G75*
G02*
X117825000Y-57300000I225000J0D01*
G01*
X118275000Y-57300000D01*
G75*
G02*
X118500000Y-57525000I0J-225000D01*
G01*
X118500000Y-58275000D01*
G75*
G02*
X118275000Y-58500000I-225000J0D01*
G01*
G37*
G36*
G01*
X118275000Y-56700000D02*
X117825000Y-56700000D01*
G75*
G02*
X117600000Y-56475000I0J225000D01*
G01*
X117600000Y-55725000D01*
G75*
G02*
X117825000Y-55500000I225000J0D01*
G01*
X118275000Y-55500000D01*
G75*
G02*
X118500000Y-55725000I0J-225000D01*
G01*
X118500000Y-56475000D01*
G75*
G02*
X118275000Y-56700000I-225000J0D01*
G01*
G37*
G36*
G01*
X117175000Y-56700000D02*
X116725000Y-56700000D01*
G75*
G02*
X116500000Y-56475000I0J225000D01*
G01*
X116500000Y-55725000D01*
G75*
G02*
X116725000Y-55500000I225000J0D01*
G01*
X117175000Y-55500000D01*
G75*
G02*
X117400000Y-55725000I0J-225000D01*
G01*
X117400000Y-56475000D01*
G75*
G02*
X117175000Y-56700000I-225000J0D01*
G01*
G37*
G36*
G01*
X117175000Y-58500000D02*
X116725000Y-58500000D01*
G75*
G02*
X116500000Y-58275000I0J225000D01*
G01*
X116500000Y-57525000D01*
G75*
G02*
X116725000Y-57300000I225000J0D01*
G01*
X117175000Y-57300000D01*
G75*
G02*
X117400000Y-57525000I0J-225000D01*
G01*
X117400000Y-58275000D01*
G75*
G02*
X117175000Y-58500000I-225000J0D01*
G01*
G37*
G36*
G01*
X128275000Y-58500000D02*
X127825000Y-58500000D01*
G75*
G02*
X127600000Y-58275000I0J225000D01*
G01*
X127600000Y-57525000D01*
G75*
G02*
X127825000Y-57300000I225000J0D01*
G01*
X128275000Y-57300000D01*
G75*
G02*
X128500000Y-57525000I0J-225000D01*
G01*
X128500000Y-58275000D01*
G75*
G02*
X128275000Y-58500000I-225000J0D01*
G01*
G37*
G36*
G01*
X128275000Y-56700000D02*
X127825000Y-56700000D01*
G75*
G02*
X127600000Y-56475000I0J225000D01*
G01*
X127600000Y-55725000D01*
G75*
G02*
X127825000Y-55500000I225000J0D01*
G01*
X128275000Y-55500000D01*
G75*
G02*
X128500000Y-55725000I0J-225000D01*
G01*
X128500000Y-56475000D01*
G75*
G02*
X128275000Y-56700000I-225000J0D01*
G01*
G37*
G36*
G01*
X127175000Y-56700000D02*
X126725000Y-56700000D01*
G75*
G02*
X126500000Y-56475000I0J225000D01*
G01*
X126500000Y-55725000D01*
G75*
G02*
X126725000Y-55500000I225000J0D01*
G01*
X127175000Y-55500000D01*
G75*
G02*
X127400000Y-55725000I0J-225000D01*
G01*
X127400000Y-56475000D01*
G75*
G02*
X127175000Y-56700000I-225000J0D01*
G01*
G37*
G36*
G01*
X127175000Y-58500000D02*
X126725000Y-58500000D01*
G75*
G02*
X126500000Y-58275000I0J225000D01*
G01*
X126500000Y-57525000D01*
G75*
G02*
X126725000Y-57300000I225000J0D01*
G01*
X127175000Y-57300000D01*
G75*
G02*
X127400000Y-57525000I0J-225000D01*
G01*
X127400000Y-58275000D01*
G75*
G02*
X127175000Y-58500000I-225000J0D01*
G01*
G37*
G36*
G01*
X138275000Y-58500000D02*
X137825000Y-58500000D01*
G75*
G02*
X137600000Y-58275000I0J225000D01*
G01*
X137600000Y-57525000D01*
G75*
G02*
X137825000Y-57300000I225000J0D01*
G01*
X138275000Y-57300000D01*
G75*
G02*
X138500000Y-57525000I0J-225000D01*
G01*
X138500000Y-58275000D01*
G75*
G02*
X138275000Y-58500000I-225000J0D01*
G01*
G37*
G36*
G01*
X138275000Y-56700000D02*
X137825000Y-56700000D01*
G75*
G02*
X137600000Y-56475000I0J225000D01*
G01*
X137600000Y-55725000D01*
G75*
G02*
X137825000Y-55500000I225000J0D01*
G01*
X138275000Y-55500000D01*
G75*
G02*
X138500000Y-55725000I0J-225000D01*
G01*
X138500000Y-56475000D01*
G75*
G02*
X138275000Y-56700000I-225000J0D01*
G01*
G37*
G36*
G01*
X137175000Y-56700000D02*
X136725000Y-56700000D01*
G75*
G02*
X136500000Y-56475000I0J225000D01*
G01*
X136500000Y-55725000D01*
G75*
G02*
X136725000Y-55500000I225000J0D01*
G01*
X137175000Y-55500000D01*
G75*
G02*
X137400000Y-55725000I0J-225000D01*
G01*
X137400000Y-56475000D01*
G75*
G02*
X137175000Y-56700000I-225000J0D01*
G01*
G37*
G36*
G01*
X137175000Y-58500000D02*
X136725000Y-58500000D01*
G75*
G02*
X136500000Y-58275000I0J225000D01*
G01*
X136500000Y-57525000D01*
G75*
G02*
X136725000Y-57300000I225000J0D01*
G01*
X137175000Y-57300000D01*
G75*
G02*
X137400000Y-57525000I0J-225000D01*
G01*
X137400000Y-58275000D01*
G75*
G02*
X137175000Y-58500000I-225000J0D01*
G01*
G37*
G36*
G01*
X83275000Y-58500000D02*
X82825000Y-58500000D01*
G75*
G02*
X82600000Y-58275000I0J225000D01*
G01*
X82600000Y-57525000D01*
G75*
G02*
X82825000Y-57300000I225000J0D01*
G01*
X83275000Y-57300000D01*
G75*
G02*
X83500000Y-57525000I0J-225000D01*
G01*
X83500000Y-58275000D01*
G75*
G02*
X83275000Y-58500000I-225000J0D01*
G01*
G37*
G36*
G01*
X83275000Y-56700000D02*
X82825000Y-56700000D01*
G75*
G02*
X82600000Y-56475000I0J225000D01*
G01*
X82600000Y-55725000D01*
G75*
G02*
X82825000Y-55500000I225000J0D01*
G01*
X83275000Y-55500000D01*
G75*
G02*
X83500000Y-55725000I0J-225000D01*
G01*
X83500000Y-56475000D01*
G75*
G02*
X83275000Y-56700000I-225000J0D01*
G01*
G37*
G36*
G01*
X82175000Y-56700000D02*
X81725000Y-56700000D01*
G75*
G02*
X81500000Y-56475000I0J225000D01*
G01*
X81500000Y-55725000D01*
G75*
G02*
X81725000Y-55500000I225000J0D01*
G01*
X82175000Y-55500000D01*
G75*
G02*
X82400000Y-55725000I0J-225000D01*
G01*
X82400000Y-56475000D01*
G75*
G02*
X82175000Y-56700000I-225000J0D01*
G01*
G37*
G36*
G01*
X82175000Y-58500000D02*
X81725000Y-58500000D01*
G75*
G02*
X81500000Y-58275000I0J225000D01*
G01*
X81500000Y-57525000D01*
G75*
G02*
X81725000Y-57300000I225000J0D01*
G01*
X82175000Y-57300000D01*
G75*
G02*
X82400000Y-57525000I0J-225000D01*
G01*
X82400000Y-58275000D01*
G75*
G02*
X82175000Y-58500000I-225000J0D01*
G01*
G37*
G36*
G01*
X88275000Y-58500000D02*
X87825000Y-58500000D01*
G75*
G02*
X87600000Y-58275000I0J225000D01*
G01*
X87600000Y-57525000D01*
G75*
G02*
X87825000Y-57300000I225000J0D01*
G01*
X88275000Y-57300000D01*
G75*
G02*
X88500000Y-57525000I0J-225000D01*
G01*
X88500000Y-58275000D01*
G75*
G02*
X88275000Y-58500000I-225000J0D01*
G01*
G37*
G36*
G01*
X88275000Y-56700000D02*
X87825000Y-56700000D01*
G75*
G02*
X87600000Y-56475000I0J225000D01*
G01*
X87600000Y-55725000D01*
G75*
G02*
X87825000Y-55500000I225000J0D01*
G01*
X88275000Y-55500000D01*
G75*
G02*
X88500000Y-55725000I0J-225000D01*
G01*
X88500000Y-56475000D01*
G75*
G02*
X88275000Y-56700000I-225000J0D01*
G01*
G37*
G36*
G01*
X87175000Y-56700000D02*
X86725000Y-56700000D01*
G75*
G02*
X86500000Y-56475000I0J225000D01*
G01*
X86500000Y-55725000D01*
G75*
G02*
X86725000Y-55500000I225000J0D01*
G01*
X87175000Y-55500000D01*
G75*
G02*
X87400000Y-55725000I0J-225000D01*
G01*
X87400000Y-56475000D01*
G75*
G02*
X87175000Y-56700000I-225000J0D01*
G01*
G37*
G36*
G01*
X87175000Y-58500000D02*
X86725000Y-58500000D01*
G75*
G02*
X86500000Y-58275000I0J225000D01*
G01*
X86500000Y-57525000D01*
G75*
G02*
X86725000Y-57300000I225000J0D01*
G01*
X87175000Y-57300000D01*
G75*
G02*
X87400000Y-57525000I0J-225000D01*
G01*
X87400000Y-58275000D01*
G75*
G02*
X87175000Y-58500000I-225000J0D01*
G01*
G37*
G36*
G01*
X93275000Y-58500000D02*
X92825000Y-58500000D01*
G75*
G02*
X92600000Y-58275000I0J225000D01*
G01*
X92600000Y-57525000D01*
G75*
G02*
X92825000Y-57300000I225000J0D01*
G01*
X93275000Y-57300000D01*
G75*
G02*
X93500000Y-57525000I0J-225000D01*
G01*
X93500000Y-58275000D01*
G75*
G02*
X93275000Y-58500000I-225000J0D01*
G01*
G37*
G36*
G01*
X93275000Y-56700000D02*
X92825000Y-56700000D01*
G75*
G02*
X92600000Y-56475000I0J225000D01*
G01*
X92600000Y-55725000D01*
G75*
G02*
X92825000Y-55500000I225000J0D01*
G01*
X93275000Y-55500000D01*
G75*
G02*
X93500000Y-55725000I0J-225000D01*
G01*
X93500000Y-56475000D01*
G75*
G02*
X93275000Y-56700000I-225000J0D01*
G01*
G37*
G36*
G01*
X92175000Y-56700000D02*
X91725000Y-56700000D01*
G75*
G02*
X91500000Y-56475000I0J225000D01*
G01*
X91500000Y-55725000D01*
G75*
G02*
X91725000Y-55500000I225000J0D01*
G01*
X92175000Y-55500000D01*
G75*
G02*
X92400000Y-55725000I0J-225000D01*
G01*
X92400000Y-56475000D01*
G75*
G02*
X92175000Y-56700000I-225000J0D01*
G01*
G37*
G36*
G01*
X92175000Y-58500000D02*
X91725000Y-58500000D01*
G75*
G02*
X91500000Y-58275000I0J225000D01*
G01*
X91500000Y-57525000D01*
G75*
G02*
X91725000Y-57300000I225000J0D01*
G01*
X92175000Y-57300000D01*
G75*
G02*
X92400000Y-57525000I0J-225000D01*
G01*
X92400000Y-58275000D01*
G75*
G02*
X92175000Y-58500000I-225000J0D01*
G01*
G37*
G36*
G01*
X63275000Y-58500000D02*
X62825000Y-58500000D01*
G75*
G02*
X62600000Y-58275000I0J225000D01*
G01*
X62600000Y-57525000D01*
G75*
G02*
X62825000Y-57300000I225000J0D01*
G01*
X63275000Y-57300000D01*
G75*
G02*
X63500000Y-57525000I0J-225000D01*
G01*
X63500000Y-58275000D01*
G75*
G02*
X63275000Y-58500000I-225000J0D01*
G01*
G37*
G36*
G01*
X63275000Y-56700000D02*
X62825000Y-56700000D01*
G75*
G02*
X62600000Y-56475000I0J225000D01*
G01*
X62600000Y-55725000D01*
G75*
G02*
X62825000Y-55500000I225000J0D01*
G01*
X63275000Y-55500000D01*
G75*
G02*
X63500000Y-55725000I0J-225000D01*
G01*
X63500000Y-56475000D01*
G75*
G02*
X63275000Y-56700000I-225000J0D01*
G01*
G37*
G36*
G01*
X62175000Y-56700000D02*
X61725000Y-56700000D01*
G75*
G02*
X61500000Y-56475000I0J225000D01*
G01*
X61500000Y-55725000D01*
G75*
G02*
X61725000Y-55500000I225000J0D01*
G01*
X62175000Y-55500000D01*
G75*
G02*
X62400000Y-55725000I0J-225000D01*
G01*
X62400000Y-56475000D01*
G75*
G02*
X62175000Y-56700000I-225000J0D01*
G01*
G37*
G36*
G01*
X62175000Y-58500000D02*
X61725000Y-58500000D01*
G75*
G02*
X61500000Y-58275000I0J225000D01*
G01*
X61500000Y-57525000D01*
G75*
G02*
X61725000Y-57300000I225000J0D01*
G01*
X62175000Y-57300000D01*
G75*
G02*
X62400000Y-57525000I0J-225000D01*
G01*
X62400000Y-58275000D01*
G75*
G02*
X62175000Y-58500000I-225000J0D01*
G01*
G37*
G36*
G01*
X78275000Y-58500000D02*
X77825000Y-58500000D01*
G75*
G02*
X77600000Y-58275000I0J225000D01*
G01*
X77600000Y-57525000D01*
G75*
G02*
X77825000Y-57300000I225000J0D01*
G01*
X78275000Y-57300000D01*
G75*
G02*
X78500000Y-57525000I0J-225000D01*
G01*
X78500000Y-58275000D01*
G75*
G02*
X78275000Y-58500000I-225000J0D01*
G01*
G37*
G36*
G01*
X78275000Y-56700000D02*
X77825000Y-56700000D01*
G75*
G02*
X77600000Y-56475000I0J225000D01*
G01*
X77600000Y-55725000D01*
G75*
G02*
X77825000Y-55500000I225000J0D01*
G01*
X78275000Y-55500000D01*
G75*
G02*
X78500000Y-55725000I0J-225000D01*
G01*
X78500000Y-56475000D01*
G75*
G02*
X78275000Y-56700000I-225000J0D01*
G01*
G37*
G36*
G01*
X77175000Y-56700000D02*
X76725000Y-56700000D01*
G75*
G02*
X76500000Y-56475000I0J225000D01*
G01*
X76500000Y-55725000D01*
G75*
G02*
X76725000Y-55500000I225000J0D01*
G01*
X77175000Y-55500000D01*
G75*
G02*
X77400000Y-55725000I0J-225000D01*
G01*
X77400000Y-56475000D01*
G75*
G02*
X77175000Y-56700000I-225000J0D01*
G01*
G37*
G36*
G01*
X77175000Y-58500000D02*
X76725000Y-58500000D01*
G75*
G02*
X76500000Y-58275000I0J225000D01*
G01*
X76500000Y-57525000D01*
G75*
G02*
X76725000Y-57300000I225000J0D01*
G01*
X77175000Y-57300000D01*
G75*
G02*
X77400000Y-57525000I0J-225000D01*
G01*
X77400000Y-58275000D01*
G75*
G02*
X77175000Y-58500000I-225000J0D01*
G01*
G37*
G36*
G01*
X141500000Y-78275000D02*
X141500000Y-77825000D01*
G75*
G02*
X141725000Y-77600000I225000J0D01*
G01*
X142475000Y-77600000D01*
G75*
G02*
X142700000Y-77825000I0J-225000D01*
G01*
X142700000Y-78275000D01*
G75*
G02*
X142475000Y-78500000I-225000J0D01*
G01*
X141725000Y-78500000D01*
G75*
G02*
X141500000Y-78275000I0J225000D01*
G01*
G37*
G36*
G01*
X143300000Y-78275000D02*
X143300000Y-77825000D01*
G75*
G02*
X143525000Y-77600000I225000J0D01*
G01*
X144275000Y-77600000D01*
G75*
G02*
X144500000Y-77825000I0J-225000D01*
G01*
X144500000Y-78275000D01*
G75*
G02*
X144275000Y-78500000I-225000J0D01*
G01*
X143525000Y-78500000D01*
G75*
G02*
X143300000Y-78275000I0J225000D01*
G01*
G37*
G36*
G01*
X143300000Y-77175000D02*
X143300000Y-76725000D01*
G75*
G02*
X143525000Y-76500000I225000J0D01*
G01*
X144275000Y-76500000D01*
G75*
G02*
X144500000Y-76725000I0J-225000D01*
G01*
X144500000Y-77175000D01*
G75*
G02*
X144275000Y-77400000I-225000J0D01*
G01*
X143525000Y-77400000D01*
G75*
G02*
X143300000Y-77175000I0J225000D01*
G01*
G37*
G36*
G01*
X141500000Y-77175000D02*
X141500000Y-76725000D01*
G75*
G02*
X141725000Y-76500000I225000J0D01*
G01*
X142475000Y-76500000D01*
G75*
G02*
X142700000Y-76725000I0J-225000D01*
G01*
X142700000Y-77175000D01*
G75*
G02*
X142475000Y-77400000I-225000J0D01*
G01*
X141725000Y-77400000D01*
G75*
G02*
X141500000Y-77175000I0J225000D01*
G01*
G37*
G36*
G01*
X141500000Y-68275000D02*
X141500000Y-67825000D01*
G75*
G02*
X141725000Y-67600000I225000J0D01*
G01*
X142475000Y-67600000D01*
G75*
G02*
X142700000Y-67825000I0J-225000D01*
G01*
X142700000Y-68275000D01*
G75*
G02*
X142475000Y-68500000I-225000J0D01*
G01*
X141725000Y-68500000D01*
G75*
G02*
X141500000Y-68275000I0J225000D01*
G01*
G37*
G36*
G01*
X143300000Y-68275000D02*
X143300000Y-67825000D01*
G75*
G02*
X143525000Y-67600000I225000J0D01*
G01*
X144275000Y-67600000D01*
G75*
G02*
X144500000Y-67825000I0J-225000D01*
G01*
X144500000Y-68275000D01*
G75*
G02*
X144275000Y-68500000I-225000J0D01*
G01*
X143525000Y-68500000D01*
G75*
G02*
X143300000Y-68275000I0J225000D01*
G01*
G37*
G36*
G01*
X143300000Y-67175000D02*
X143300000Y-66725000D01*
G75*
G02*
X143525000Y-66500000I225000J0D01*
G01*
X144275000Y-66500000D01*
G75*
G02*
X144500000Y-66725000I0J-225000D01*
G01*
X144500000Y-67175000D01*
G75*
G02*
X144275000Y-67400000I-225000J0D01*
G01*
X143525000Y-67400000D01*
G75*
G02*
X143300000Y-67175000I0J225000D01*
G01*
G37*
G36*
G01*
X141500000Y-67175000D02*
X141500000Y-66725000D01*
G75*
G02*
X141725000Y-66500000I225000J0D01*
G01*
X142475000Y-66500000D01*
G75*
G02*
X142700000Y-66725000I0J-225000D01*
G01*
X142700000Y-67175000D01*
G75*
G02*
X142475000Y-67400000I-225000J0D01*
G01*
X141725000Y-67400000D01*
G75*
G02*
X141500000Y-67175000I0J225000D01*
G01*
G37*
G36*
G01*
X141500000Y-73275000D02*
X141500000Y-72825000D01*
G75*
G02*
X141725000Y-72600000I225000J0D01*
G01*
X142475000Y-72600000D01*
G75*
G02*
X142700000Y-72825000I0J-225000D01*
G01*
X142700000Y-73275000D01*
G75*
G02*
X142475000Y-73500000I-225000J0D01*
G01*
X141725000Y-73500000D01*
G75*
G02*
X141500000Y-73275000I0J225000D01*
G01*
G37*
G36*
G01*
X143300000Y-73275000D02*
X143300000Y-72825000D01*
G75*
G02*
X143525000Y-72600000I225000J0D01*
G01*
X144275000Y-72600000D01*
G75*
G02*
X144500000Y-72825000I0J-225000D01*
G01*
X144500000Y-73275000D01*
G75*
G02*
X144275000Y-73500000I-225000J0D01*
G01*
X143525000Y-73500000D01*
G75*
G02*
X143300000Y-73275000I0J225000D01*
G01*
G37*
G36*
G01*
X143300000Y-72175000D02*
X143300000Y-71725000D01*
G75*
G02*
X143525000Y-71500000I225000J0D01*
G01*
X144275000Y-71500000D01*
G75*
G02*
X144500000Y-71725000I0J-225000D01*
G01*
X144500000Y-72175000D01*
G75*
G02*
X144275000Y-72400000I-225000J0D01*
G01*
X143525000Y-72400000D01*
G75*
G02*
X143300000Y-72175000I0J225000D01*
G01*
G37*
G36*
G01*
X141500000Y-72175000D02*
X141500000Y-71725000D01*
G75*
G02*
X141725000Y-71500000I225000J0D01*
G01*
X142475000Y-71500000D01*
G75*
G02*
X142700000Y-71725000I0J-225000D01*
G01*
X142700000Y-72175000D01*
G75*
G02*
X142475000Y-72400000I-225000J0D01*
G01*
X141725000Y-72400000D01*
G75*
G02*
X141500000Y-72175000I0J225000D01*
G01*
G37*
G36*
G01*
X141500000Y-63275000D02*
X141500000Y-62825000D01*
G75*
G02*
X141725000Y-62600000I225000J0D01*
G01*
X142475000Y-62600000D01*
G75*
G02*
X142700000Y-62825000I0J-225000D01*
G01*
X142700000Y-63275000D01*
G75*
G02*
X142475000Y-63500000I-225000J0D01*
G01*
X141725000Y-63500000D01*
G75*
G02*
X141500000Y-63275000I0J225000D01*
G01*
G37*
G36*
G01*
X143300000Y-63275000D02*
X143300000Y-62825000D01*
G75*
G02*
X143525000Y-62600000I225000J0D01*
G01*
X144275000Y-62600000D01*
G75*
G02*
X144500000Y-62825000I0J-225000D01*
G01*
X144500000Y-63275000D01*
G75*
G02*
X144275000Y-63500000I-225000J0D01*
G01*
X143525000Y-63500000D01*
G75*
G02*
X143300000Y-63275000I0J225000D01*
G01*
G37*
G36*
G01*
X143300000Y-62175000D02*
X143300000Y-61725000D01*
G75*
G02*
X143525000Y-61500000I225000J0D01*
G01*
X144275000Y-61500000D01*
G75*
G02*
X144500000Y-61725000I0J-225000D01*
G01*
X144500000Y-62175000D01*
G75*
G02*
X144275000Y-62400000I-225000J0D01*
G01*
X143525000Y-62400000D01*
G75*
G02*
X143300000Y-62175000I0J225000D01*
G01*
G37*
G36*
G01*
X141500000Y-62175000D02*
X141500000Y-61725000D01*
G75*
G02*
X141725000Y-61500000I225000J0D01*
G01*
X142475000Y-61500000D01*
G75*
G02*
X142700000Y-61725000I0J-225000D01*
G01*
X142700000Y-62175000D01*
G75*
G02*
X142475000Y-62400000I-225000J0D01*
G01*
X141725000Y-62400000D01*
G75*
G02*
X141500000Y-62175000I0J225000D01*
G01*
G37*
G36*
G01*
X141500000Y-108275000D02*
X141500000Y-107825000D01*
G75*
G02*
X141725000Y-107600000I225000J0D01*
G01*
X142475000Y-107600000D01*
G75*
G02*
X142700000Y-107825000I0J-225000D01*
G01*
X142700000Y-108275000D01*
G75*
G02*
X142475000Y-108500000I-225000J0D01*
G01*
X141725000Y-108500000D01*
G75*
G02*
X141500000Y-108275000I0J225000D01*
G01*
G37*
G36*
G01*
X143300000Y-108275000D02*
X143300000Y-107825000D01*
G75*
G02*
X143525000Y-107600000I225000J0D01*
G01*
X144275000Y-107600000D01*
G75*
G02*
X144500000Y-107825000I0J-225000D01*
G01*
X144500000Y-108275000D01*
G75*
G02*
X144275000Y-108500000I-225000J0D01*
G01*
X143525000Y-108500000D01*
G75*
G02*
X143300000Y-108275000I0J225000D01*
G01*
G37*
G36*
G01*
X143300000Y-107175000D02*
X143300000Y-106725000D01*
G75*
G02*
X143525000Y-106500000I225000J0D01*
G01*
X144275000Y-106500000D01*
G75*
G02*
X144500000Y-106725000I0J-225000D01*
G01*
X144500000Y-107175000D01*
G75*
G02*
X144275000Y-107400000I-225000J0D01*
G01*
X143525000Y-107400000D01*
G75*
G02*
X143300000Y-107175000I0J225000D01*
G01*
G37*
G36*
G01*
X141500000Y-107175000D02*
X141500000Y-106725000D01*
G75*
G02*
X141725000Y-106500000I225000J0D01*
G01*
X142475000Y-106500000D01*
G75*
G02*
X142700000Y-106725000I0J-225000D01*
G01*
X142700000Y-107175000D01*
G75*
G02*
X142475000Y-107400000I-225000J0D01*
G01*
X141725000Y-107400000D01*
G75*
G02*
X141500000Y-107175000I0J225000D01*
G01*
G37*
G36*
G01*
X141500000Y-113275000D02*
X141500000Y-112825000D01*
G75*
G02*
X141725000Y-112600000I225000J0D01*
G01*
X142475000Y-112600000D01*
G75*
G02*
X142700000Y-112825000I0J-225000D01*
G01*
X142700000Y-113275000D01*
G75*
G02*
X142475000Y-113500000I-225000J0D01*
G01*
X141725000Y-113500000D01*
G75*
G02*
X141500000Y-113275000I0J225000D01*
G01*
G37*
G36*
G01*
X143300000Y-113275000D02*
X143300000Y-112825000D01*
G75*
G02*
X143525000Y-112600000I225000J0D01*
G01*
X144275000Y-112600000D01*
G75*
G02*
X144500000Y-112825000I0J-225000D01*
G01*
X144500000Y-113275000D01*
G75*
G02*
X144275000Y-113500000I-225000J0D01*
G01*
X143525000Y-113500000D01*
G75*
G02*
X143300000Y-113275000I0J225000D01*
G01*
G37*
G36*
G01*
X143300000Y-112175000D02*
X143300000Y-111725000D01*
G75*
G02*
X143525000Y-111500000I225000J0D01*
G01*
X144275000Y-111500000D01*
G75*
G02*
X144500000Y-111725000I0J-225000D01*
G01*
X144500000Y-112175000D01*
G75*
G02*
X144275000Y-112400000I-225000J0D01*
G01*
X143525000Y-112400000D01*
G75*
G02*
X143300000Y-112175000I0J225000D01*
G01*
G37*
G36*
G01*
X141500000Y-112175000D02*
X141500000Y-111725000D01*
G75*
G02*
X141725000Y-111500000I225000J0D01*
G01*
X142475000Y-111500000D01*
G75*
G02*
X142700000Y-111725000I0J-225000D01*
G01*
X142700000Y-112175000D01*
G75*
G02*
X142475000Y-112400000I-225000J0D01*
G01*
X141725000Y-112400000D01*
G75*
G02*
X141500000Y-112175000I0J225000D01*
G01*
G37*
G36*
G01*
X141500000Y-118275000D02*
X141500000Y-117825000D01*
G75*
G02*
X141725000Y-117600000I225000J0D01*
G01*
X142475000Y-117600000D01*
G75*
G02*
X142700000Y-117825000I0J-225000D01*
G01*
X142700000Y-118275000D01*
G75*
G02*
X142475000Y-118500000I-225000J0D01*
G01*
X141725000Y-118500000D01*
G75*
G02*
X141500000Y-118275000I0J225000D01*
G01*
G37*
G36*
G01*
X143300000Y-118275000D02*
X143300000Y-117825000D01*
G75*
G02*
X143525000Y-117600000I225000J0D01*
G01*
X144275000Y-117600000D01*
G75*
G02*
X144500000Y-117825000I0J-225000D01*
G01*
X144500000Y-118275000D01*
G75*
G02*
X144275000Y-118500000I-225000J0D01*
G01*
X143525000Y-118500000D01*
G75*
G02*
X143300000Y-118275000I0J225000D01*
G01*
G37*
G36*
G01*
X143300000Y-117175000D02*
X143300000Y-116725000D01*
G75*
G02*
X143525000Y-116500000I225000J0D01*
G01*
X144275000Y-116500000D01*
G75*
G02*
X144500000Y-116725000I0J-225000D01*
G01*
X144500000Y-117175000D01*
G75*
G02*
X144275000Y-117400000I-225000J0D01*
G01*
X143525000Y-117400000D01*
G75*
G02*
X143300000Y-117175000I0J225000D01*
G01*
G37*
G36*
G01*
X141500000Y-117175000D02*
X141500000Y-116725000D01*
G75*
G02*
X141725000Y-116500000I225000J0D01*
G01*
X142475000Y-116500000D01*
G75*
G02*
X142700000Y-116725000I0J-225000D01*
G01*
X142700000Y-117175000D01*
G75*
G02*
X142475000Y-117400000I-225000J0D01*
G01*
X141725000Y-117400000D01*
G75*
G02*
X141500000Y-117175000I0J225000D01*
G01*
G37*
G36*
G01*
X141500000Y-123275000D02*
X141500000Y-122825000D01*
G75*
G02*
X141725000Y-122600000I225000J0D01*
G01*
X142475000Y-122600000D01*
G75*
G02*
X142700000Y-122825000I0J-225000D01*
G01*
X142700000Y-123275000D01*
G75*
G02*
X142475000Y-123500000I-225000J0D01*
G01*
X141725000Y-123500000D01*
G75*
G02*
X141500000Y-123275000I0J225000D01*
G01*
G37*
G36*
G01*
X143300000Y-123275000D02*
X143300000Y-122825000D01*
G75*
G02*
X143525000Y-122600000I225000J0D01*
G01*
X144275000Y-122600000D01*
G75*
G02*
X144500000Y-122825000I0J-225000D01*
G01*
X144500000Y-123275000D01*
G75*
G02*
X144275000Y-123500000I-225000J0D01*
G01*
X143525000Y-123500000D01*
G75*
G02*
X143300000Y-123275000I0J225000D01*
G01*
G37*
G36*
G01*
X143300000Y-122175000D02*
X143300000Y-121725000D01*
G75*
G02*
X143525000Y-121500000I225000J0D01*
G01*
X144275000Y-121500000D01*
G75*
G02*
X144500000Y-121725000I0J-225000D01*
G01*
X144500000Y-122175000D01*
G75*
G02*
X144275000Y-122400000I-225000J0D01*
G01*
X143525000Y-122400000D01*
G75*
G02*
X143300000Y-122175000I0J225000D01*
G01*
G37*
G36*
G01*
X141500000Y-122175000D02*
X141500000Y-121725000D01*
G75*
G02*
X141725000Y-121500000I225000J0D01*
G01*
X142475000Y-121500000D01*
G75*
G02*
X142700000Y-121725000I0J-225000D01*
G01*
X142700000Y-122175000D01*
G75*
G02*
X142475000Y-122400000I-225000J0D01*
G01*
X141725000Y-122400000D01*
G75*
G02*
X141500000Y-122175000I0J225000D01*
G01*
G37*
G36*
G01*
X141500000Y-128275000D02*
X141500000Y-127825000D01*
G75*
G02*
X141725000Y-127600000I225000J0D01*
G01*
X142475000Y-127600000D01*
G75*
G02*
X142700000Y-127825000I0J-225000D01*
G01*
X142700000Y-128275000D01*
G75*
G02*
X142475000Y-128500000I-225000J0D01*
G01*
X141725000Y-128500000D01*
G75*
G02*
X141500000Y-128275000I0J225000D01*
G01*
G37*
G36*
G01*
X143300000Y-128275000D02*
X143300000Y-127825000D01*
G75*
G02*
X143525000Y-127600000I225000J0D01*
G01*
X144275000Y-127600000D01*
G75*
G02*
X144500000Y-127825000I0J-225000D01*
G01*
X144500000Y-128275000D01*
G75*
G02*
X144275000Y-128500000I-225000J0D01*
G01*
X143525000Y-128500000D01*
G75*
G02*
X143300000Y-128275000I0J225000D01*
G01*
G37*
G36*
G01*
X143300000Y-127175000D02*
X143300000Y-126725000D01*
G75*
G02*
X143525000Y-126500000I225000J0D01*
G01*
X144275000Y-126500000D01*
G75*
G02*
X144500000Y-126725000I0J-225000D01*
G01*
X144500000Y-127175000D01*
G75*
G02*
X144275000Y-127400000I-225000J0D01*
G01*
X143525000Y-127400000D01*
G75*
G02*
X143300000Y-127175000I0J225000D01*
G01*
G37*
G36*
G01*
X141500000Y-127175000D02*
X141500000Y-126725000D01*
G75*
G02*
X141725000Y-126500000I225000J0D01*
G01*
X142475000Y-126500000D01*
G75*
G02*
X142700000Y-126725000I0J-225000D01*
G01*
X142700000Y-127175000D01*
G75*
G02*
X142475000Y-127400000I-225000J0D01*
G01*
X141725000Y-127400000D01*
G75*
G02*
X141500000Y-127175000I0J225000D01*
G01*
G37*
G36*
G01*
X141500000Y-133275000D02*
X141500000Y-132825000D01*
G75*
G02*
X141725000Y-132600000I225000J0D01*
G01*
X142475000Y-132600000D01*
G75*
G02*
X142700000Y-132825000I0J-225000D01*
G01*
X142700000Y-133275000D01*
G75*
G02*
X142475000Y-133500000I-225000J0D01*
G01*
X141725000Y-133500000D01*
G75*
G02*
X141500000Y-133275000I0J225000D01*
G01*
G37*
G36*
G01*
X143300000Y-133275000D02*
X143300000Y-132825000D01*
G75*
G02*
X143525000Y-132600000I225000J0D01*
G01*
X144275000Y-132600000D01*
G75*
G02*
X144500000Y-132825000I0J-225000D01*
G01*
X144500000Y-133275000D01*
G75*
G02*
X144275000Y-133500000I-225000J0D01*
G01*
X143525000Y-133500000D01*
G75*
G02*
X143300000Y-133275000I0J225000D01*
G01*
G37*
G36*
G01*
X143300000Y-132175000D02*
X143300000Y-131725000D01*
G75*
G02*
X143525000Y-131500000I225000J0D01*
G01*
X144275000Y-131500000D01*
G75*
G02*
X144500000Y-131725000I0J-225000D01*
G01*
X144500000Y-132175000D01*
G75*
G02*
X144275000Y-132400000I-225000J0D01*
G01*
X143525000Y-132400000D01*
G75*
G02*
X143300000Y-132175000I0J225000D01*
G01*
G37*
G36*
G01*
X141500000Y-132175000D02*
X141500000Y-131725000D01*
G75*
G02*
X141725000Y-131500000I225000J0D01*
G01*
X142475000Y-131500000D01*
G75*
G02*
X142700000Y-131725000I0J-225000D01*
G01*
X142700000Y-132175000D01*
G75*
G02*
X142475000Y-132400000I-225000J0D01*
G01*
X141725000Y-132400000D01*
G75*
G02*
X141500000Y-132175000I0J225000D01*
G01*
G37*
G36*
G01*
X141500000Y-138275000D02*
X141500000Y-137825000D01*
G75*
G02*
X141725000Y-137600000I225000J0D01*
G01*
X142475000Y-137600000D01*
G75*
G02*
X142700000Y-137825000I0J-225000D01*
G01*
X142700000Y-138275000D01*
G75*
G02*
X142475000Y-138500000I-225000J0D01*
G01*
X141725000Y-138500000D01*
G75*
G02*
X141500000Y-138275000I0J225000D01*
G01*
G37*
G36*
G01*
X143300000Y-138275000D02*
X143300000Y-137825000D01*
G75*
G02*
X143525000Y-137600000I225000J0D01*
G01*
X144275000Y-137600000D01*
G75*
G02*
X144500000Y-137825000I0J-225000D01*
G01*
X144500000Y-138275000D01*
G75*
G02*
X144275000Y-138500000I-225000J0D01*
G01*
X143525000Y-138500000D01*
G75*
G02*
X143300000Y-138275000I0J225000D01*
G01*
G37*
G36*
G01*
X143300000Y-137175000D02*
X143300000Y-136725000D01*
G75*
G02*
X143525000Y-136500000I225000J0D01*
G01*
X144275000Y-136500000D01*
G75*
G02*
X144500000Y-136725000I0J-225000D01*
G01*
X144500000Y-137175000D01*
G75*
G02*
X144275000Y-137400000I-225000J0D01*
G01*
X143525000Y-137400000D01*
G75*
G02*
X143300000Y-137175000I0J225000D01*
G01*
G37*
G36*
G01*
X141500000Y-137175000D02*
X141500000Y-136725000D01*
G75*
G02*
X141725000Y-136500000I225000J0D01*
G01*
X142475000Y-136500000D01*
G75*
G02*
X142700000Y-136725000I0J-225000D01*
G01*
X142700000Y-137175000D01*
G75*
G02*
X142475000Y-137400000I-225000J0D01*
G01*
X141725000Y-137400000D01*
G75*
G02*
X141500000Y-137175000I0J225000D01*
G01*
G37*
G36*
G01*
X141500000Y-103275000D02*
X141500000Y-102825000D01*
G75*
G02*
X141725000Y-102600000I225000J0D01*
G01*
X142475000Y-102600000D01*
G75*
G02*
X142700000Y-102825000I0J-225000D01*
G01*
X142700000Y-103275000D01*
G75*
G02*
X142475000Y-103500000I-225000J0D01*
G01*
X141725000Y-103500000D01*
G75*
G02*
X141500000Y-103275000I0J225000D01*
G01*
G37*
G36*
G01*
X143300000Y-103275000D02*
X143300000Y-102825000D01*
G75*
G02*
X143525000Y-102600000I225000J0D01*
G01*
X144275000Y-102600000D01*
G75*
G02*
X144500000Y-102825000I0J-225000D01*
G01*
X144500000Y-103275000D01*
G75*
G02*
X144275000Y-103500000I-225000J0D01*
G01*
X143525000Y-103500000D01*
G75*
G02*
X143300000Y-103275000I0J225000D01*
G01*
G37*
G36*
G01*
X143300000Y-102175000D02*
X143300000Y-101725000D01*
G75*
G02*
X143525000Y-101500000I225000J0D01*
G01*
X144275000Y-101500000D01*
G75*
G02*
X144500000Y-101725000I0J-225000D01*
G01*
X144500000Y-102175000D01*
G75*
G02*
X144275000Y-102400000I-225000J0D01*
G01*
X143525000Y-102400000D01*
G75*
G02*
X143300000Y-102175000I0J225000D01*
G01*
G37*
G36*
G01*
X141500000Y-102175000D02*
X141500000Y-101725000D01*
G75*
G02*
X141725000Y-101500000I225000J0D01*
G01*
X142475000Y-101500000D01*
G75*
G02*
X142700000Y-101725000I0J-225000D01*
G01*
X142700000Y-102175000D01*
G75*
G02*
X142475000Y-102400000I-225000J0D01*
G01*
X141725000Y-102400000D01*
G75*
G02*
X141500000Y-102175000I0J225000D01*
G01*
G37*
G36*
G01*
X141500000Y-98275000D02*
X141500000Y-97825000D01*
G75*
G02*
X141725000Y-97600000I225000J0D01*
G01*
X142475000Y-97600000D01*
G75*
G02*
X142700000Y-97825000I0J-225000D01*
G01*
X142700000Y-98275000D01*
G75*
G02*
X142475000Y-98500000I-225000J0D01*
G01*
X141725000Y-98500000D01*
G75*
G02*
X141500000Y-98275000I0J225000D01*
G01*
G37*
G36*
G01*
X143300000Y-98275000D02*
X143300000Y-97825000D01*
G75*
G02*
X143525000Y-97600000I225000J0D01*
G01*
X144275000Y-97600000D01*
G75*
G02*
X144500000Y-97825000I0J-225000D01*
G01*
X144500000Y-98275000D01*
G75*
G02*
X144275000Y-98500000I-225000J0D01*
G01*
X143525000Y-98500000D01*
G75*
G02*
X143300000Y-98275000I0J225000D01*
G01*
G37*
G36*
G01*
X143300000Y-97175000D02*
X143300000Y-96725000D01*
G75*
G02*
X143525000Y-96500000I225000J0D01*
G01*
X144275000Y-96500000D01*
G75*
G02*
X144500000Y-96725000I0J-225000D01*
G01*
X144500000Y-97175000D01*
G75*
G02*
X144275000Y-97400000I-225000J0D01*
G01*
X143525000Y-97400000D01*
G75*
G02*
X143300000Y-97175000I0J225000D01*
G01*
G37*
G36*
G01*
X141500000Y-97175000D02*
X141500000Y-96725000D01*
G75*
G02*
X141725000Y-96500000I225000J0D01*
G01*
X142475000Y-96500000D01*
G75*
G02*
X142700000Y-96725000I0J-225000D01*
G01*
X142700000Y-97175000D01*
G75*
G02*
X142475000Y-97400000I-225000J0D01*
G01*
X141725000Y-97400000D01*
G75*
G02*
X141500000Y-97175000I0J225000D01*
G01*
G37*
G36*
G01*
X141500000Y-93275000D02*
X141500000Y-92825000D01*
G75*
G02*
X141725000Y-92600000I225000J0D01*
G01*
X142475000Y-92600000D01*
G75*
G02*
X142700000Y-92825000I0J-225000D01*
G01*
X142700000Y-93275000D01*
G75*
G02*
X142475000Y-93500000I-225000J0D01*
G01*
X141725000Y-93500000D01*
G75*
G02*
X141500000Y-93275000I0J225000D01*
G01*
G37*
G36*
G01*
X143300000Y-93275000D02*
X143300000Y-92825000D01*
G75*
G02*
X143525000Y-92600000I225000J0D01*
G01*
X144275000Y-92600000D01*
G75*
G02*
X144500000Y-92825000I0J-225000D01*
G01*
X144500000Y-93275000D01*
G75*
G02*
X144275000Y-93500000I-225000J0D01*
G01*
X143525000Y-93500000D01*
G75*
G02*
X143300000Y-93275000I0J225000D01*
G01*
G37*
G36*
G01*
X143300000Y-92175000D02*
X143300000Y-91725000D01*
G75*
G02*
X143525000Y-91500000I225000J0D01*
G01*
X144275000Y-91500000D01*
G75*
G02*
X144500000Y-91725000I0J-225000D01*
G01*
X144500000Y-92175000D01*
G75*
G02*
X144275000Y-92400000I-225000J0D01*
G01*
X143525000Y-92400000D01*
G75*
G02*
X143300000Y-92175000I0J225000D01*
G01*
G37*
G36*
G01*
X141500000Y-92175000D02*
X141500000Y-91725000D01*
G75*
G02*
X141725000Y-91500000I225000J0D01*
G01*
X142475000Y-91500000D01*
G75*
G02*
X142700000Y-91725000I0J-225000D01*
G01*
X142700000Y-92175000D01*
G75*
G02*
X142475000Y-92400000I-225000J0D01*
G01*
X141725000Y-92400000D01*
G75*
G02*
X141500000Y-92175000I0J225000D01*
G01*
G37*
G36*
G01*
X141500000Y-88275000D02*
X141500000Y-87825000D01*
G75*
G02*
X141725000Y-87600000I225000J0D01*
G01*
X142475000Y-87600000D01*
G75*
G02*
X142700000Y-87825000I0J-225000D01*
G01*
X142700000Y-88275000D01*
G75*
G02*
X142475000Y-88500000I-225000J0D01*
G01*
X141725000Y-88500000D01*
G75*
G02*
X141500000Y-88275000I0J225000D01*
G01*
G37*
G36*
G01*
X143300000Y-88275000D02*
X143300000Y-87825000D01*
G75*
G02*
X143525000Y-87600000I225000J0D01*
G01*
X144275000Y-87600000D01*
G75*
G02*
X144500000Y-87825000I0J-225000D01*
G01*
X144500000Y-88275000D01*
G75*
G02*
X144275000Y-88500000I-225000J0D01*
G01*
X143525000Y-88500000D01*
G75*
G02*
X143300000Y-88275000I0J225000D01*
G01*
G37*
G36*
G01*
X143300000Y-87175000D02*
X143300000Y-86725000D01*
G75*
G02*
X143525000Y-86500000I225000J0D01*
G01*
X144275000Y-86500000D01*
G75*
G02*
X144500000Y-86725000I0J-225000D01*
G01*
X144500000Y-87175000D01*
G75*
G02*
X144275000Y-87400000I-225000J0D01*
G01*
X143525000Y-87400000D01*
G75*
G02*
X143300000Y-87175000I0J225000D01*
G01*
G37*
G36*
G01*
X141500000Y-87175000D02*
X141500000Y-86725000D01*
G75*
G02*
X141725000Y-86500000I225000J0D01*
G01*
X142475000Y-86500000D01*
G75*
G02*
X142700000Y-86725000I0J-225000D01*
G01*
X142700000Y-87175000D01*
G75*
G02*
X142475000Y-87400000I-225000J0D01*
G01*
X141725000Y-87400000D01*
G75*
G02*
X141500000Y-87175000I0J225000D01*
G01*
G37*
G36*
G01*
X141500000Y-83275000D02*
X141500000Y-82825000D01*
G75*
G02*
X141725000Y-82600000I225000J0D01*
G01*
X142475000Y-82600000D01*
G75*
G02*
X142700000Y-82825000I0J-225000D01*
G01*
X142700000Y-83275000D01*
G75*
G02*
X142475000Y-83500000I-225000J0D01*
G01*
X141725000Y-83500000D01*
G75*
G02*
X141500000Y-83275000I0J225000D01*
G01*
G37*
G36*
G01*
X143300000Y-83275000D02*
X143300000Y-82825000D01*
G75*
G02*
X143525000Y-82600000I225000J0D01*
G01*
X144275000Y-82600000D01*
G75*
G02*
X144500000Y-82825000I0J-225000D01*
G01*
X144500000Y-83275000D01*
G75*
G02*
X144275000Y-83500000I-225000J0D01*
G01*
X143525000Y-83500000D01*
G75*
G02*
X143300000Y-83275000I0J225000D01*
G01*
G37*
G36*
G01*
X143300000Y-82175000D02*
X143300000Y-81725000D01*
G75*
G02*
X143525000Y-81500000I225000J0D01*
G01*
X144275000Y-81500000D01*
G75*
G02*
X144500000Y-81725000I0J-225000D01*
G01*
X144500000Y-82175000D01*
G75*
G02*
X144275000Y-82400000I-225000J0D01*
G01*
X143525000Y-82400000D01*
G75*
G02*
X143300000Y-82175000I0J225000D01*
G01*
G37*
G36*
G01*
X141500000Y-82175000D02*
X141500000Y-81725000D01*
G75*
G02*
X141725000Y-81500000I225000J0D01*
G01*
X142475000Y-81500000D01*
G75*
G02*
X142700000Y-81725000I0J-225000D01*
G01*
X142700000Y-82175000D01*
G75*
G02*
X142475000Y-82400000I-225000J0D01*
G01*
X141725000Y-82400000D01*
G75*
G02*
X141500000Y-82175000I0J225000D01*
G01*
G37*
G36*
G01*
X121725000Y-141500000D02*
X122175000Y-141500000D01*
G75*
G02*
X122400000Y-141725000I0J-225000D01*
G01*
X122400000Y-142475000D01*
G75*
G02*
X122175000Y-142700000I-225000J0D01*
G01*
X121725000Y-142700000D01*
G75*
G02*
X121500000Y-142475000I0J225000D01*
G01*
X121500000Y-141725000D01*
G75*
G02*
X121725000Y-141500000I225000J0D01*
G01*
G37*
G36*
G01*
X121725000Y-143300000D02*
X122175000Y-143300000D01*
G75*
G02*
X122400000Y-143525000I0J-225000D01*
G01*
X122400000Y-144275000D01*
G75*
G02*
X122175000Y-144500000I-225000J0D01*
G01*
X121725000Y-144500000D01*
G75*
G02*
X121500000Y-144275000I0J225000D01*
G01*
X121500000Y-143525000D01*
G75*
G02*
X121725000Y-143300000I225000J0D01*
G01*
G37*
G36*
G01*
X122825000Y-143300000D02*
X123275000Y-143300000D01*
G75*
G02*
X123500000Y-143525000I0J-225000D01*
G01*
X123500000Y-144275000D01*
G75*
G02*
X123275000Y-144500000I-225000J0D01*
G01*
X122825000Y-144500000D01*
G75*
G02*
X122600000Y-144275000I0J225000D01*
G01*
X122600000Y-143525000D01*
G75*
G02*
X122825000Y-143300000I225000J0D01*
G01*
G37*
G36*
G01*
X122825000Y-141500000D02*
X123275000Y-141500000D01*
G75*
G02*
X123500000Y-141725000I0J-225000D01*
G01*
X123500000Y-142475000D01*
G75*
G02*
X123275000Y-142700000I-225000J0D01*
G01*
X122825000Y-142700000D01*
G75*
G02*
X122600000Y-142475000I0J225000D01*
G01*
X122600000Y-141725000D01*
G75*
G02*
X122825000Y-141500000I225000J0D01*
G01*
G37*
G36*
G01*
X131725000Y-141500000D02*
X132175000Y-141500000D01*
G75*
G02*
X132400000Y-141725000I0J-225000D01*
G01*
X132400000Y-142475000D01*
G75*
G02*
X132175000Y-142700000I-225000J0D01*
G01*
X131725000Y-142700000D01*
G75*
G02*
X131500000Y-142475000I0J225000D01*
G01*
X131500000Y-141725000D01*
G75*
G02*
X131725000Y-141500000I225000J0D01*
G01*
G37*
G36*
G01*
X131725000Y-143300000D02*
X132175000Y-143300000D01*
G75*
G02*
X132400000Y-143525000I0J-225000D01*
G01*
X132400000Y-144275000D01*
G75*
G02*
X132175000Y-144500000I-225000J0D01*
G01*
X131725000Y-144500000D01*
G75*
G02*
X131500000Y-144275000I0J225000D01*
G01*
X131500000Y-143525000D01*
G75*
G02*
X131725000Y-143300000I225000J0D01*
G01*
G37*
G36*
G01*
X132825000Y-143300000D02*
X133275000Y-143300000D01*
G75*
G02*
X133500000Y-143525000I0J-225000D01*
G01*
X133500000Y-144275000D01*
G75*
G02*
X133275000Y-144500000I-225000J0D01*
G01*
X132825000Y-144500000D01*
G75*
G02*
X132600000Y-144275000I0J225000D01*
G01*
X132600000Y-143525000D01*
G75*
G02*
X132825000Y-143300000I225000J0D01*
G01*
G37*
G36*
G01*
X132825000Y-141500000D02*
X133275000Y-141500000D01*
G75*
G02*
X133500000Y-141725000I0J-225000D01*
G01*
X133500000Y-142475000D01*
G75*
G02*
X133275000Y-142700000I-225000J0D01*
G01*
X132825000Y-142700000D01*
G75*
G02*
X132600000Y-142475000I0J225000D01*
G01*
X132600000Y-141725000D01*
G75*
G02*
X132825000Y-141500000I225000J0D01*
G01*
G37*
G36*
G01*
X126725000Y-141500000D02*
X127175000Y-141500000D01*
G75*
G02*
X127400000Y-141725000I0J-225000D01*
G01*
X127400000Y-142475000D01*
G75*
G02*
X127175000Y-142700000I-225000J0D01*
G01*
X126725000Y-142700000D01*
G75*
G02*
X126500000Y-142475000I0J225000D01*
G01*
X126500000Y-141725000D01*
G75*
G02*
X126725000Y-141500000I225000J0D01*
G01*
G37*
G36*
G01*
X126725000Y-143300000D02*
X127175000Y-143300000D01*
G75*
G02*
X127400000Y-143525000I0J-225000D01*
G01*
X127400000Y-144275000D01*
G75*
G02*
X127175000Y-144500000I-225000J0D01*
G01*
X126725000Y-144500000D01*
G75*
G02*
X126500000Y-144275000I0J225000D01*
G01*
X126500000Y-143525000D01*
G75*
G02*
X126725000Y-143300000I225000J0D01*
G01*
G37*
G36*
G01*
X127825000Y-143300000D02*
X128275000Y-143300000D01*
G75*
G02*
X128500000Y-143525000I0J-225000D01*
G01*
X128500000Y-144275000D01*
G75*
G02*
X128275000Y-144500000I-225000J0D01*
G01*
X127825000Y-144500000D01*
G75*
G02*
X127600000Y-144275000I0J225000D01*
G01*
X127600000Y-143525000D01*
G75*
G02*
X127825000Y-143300000I225000J0D01*
G01*
G37*
G36*
G01*
X127825000Y-141500000D02*
X128275000Y-141500000D01*
G75*
G02*
X128500000Y-141725000I0J-225000D01*
G01*
X128500000Y-142475000D01*
G75*
G02*
X128275000Y-142700000I-225000J0D01*
G01*
X127825000Y-142700000D01*
G75*
G02*
X127600000Y-142475000I0J225000D01*
G01*
X127600000Y-141725000D01*
G75*
G02*
X127825000Y-141500000I225000J0D01*
G01*
G37*
G36*
G01*
X136725000Y-141500000D02*
X137175000Y-141500000D01*
G75*
G02*
X137400000Y-141725000I0J-225000D01*
G01*
X137400000Y-142475000D01*
G75*
G02*
X137175000Y-142700000I-225000J0D01*
G01*
X136725000Y-142700000D01*
G75*
G02*
X136500000Y-142475000I0J225000D01*
G01*
X136500000Y-141725000D01*
G75*
G02*
X136725000Y-141500000I225000J0D01*
G01*
G37*
G36*
G01*
X136725000Y-143300000D02*
X137175000Y-143300000D01*
G75*
G02*
X137400000Y-143525000I0J-225000D01*
G01*
X137400000Y-144275000D01*
G75*
G02*
X137175000Y-144500000I-225000J0D01*
G01*
X136725000Y-144500000D01*
G75*
G02*
X136500000Y-144275000I0J225000D01*
G01*
X136500000Y-143525000D01*
G75*
G02*
X136725000Y-143300000I225000J0D01*
G01*
G37*
G36*
G01*
X137825000Y-143300000D02*
X138275000Y-143300000D01*
G75*
G02*
X138500000Y-143525000I0J-225000D01*
G01*
X138500000Y-144275000D01*
G75*
G02*
X138275000Y-144500000I-225000J0D01*
G01*
X137825000Y-144500000D01*
G75*
G02*
X137600000Y-144275000I0J225000D01*
G01*
X137600000Y-143525000D01*
G75*
G02*
X137825000Y-143300000I225000J0D01*
G01*
G37*
G36*
G01*
X137825000Y-141500000D02*
X138275000Y-141500000D01*
G75*
G02*
X138500000Y-141725000I0J-225000D01*
G01*
X138500000Y-142475000D01*
G75*
G02*
X138275000Y-142700000I-225000J0D01*
G01*
X137825000Y-142700000D01*
G75*
G02*
X137600000Y-142475000I0J225000D01*
G01*
X137600000Y-141725000D01*
G75*
G02*
X137825000Y-141500000I225000J0D01*
G01*
G37*
G36*
G01*
X91725000Y-141500000D02*
X92175000Y-141500000D01*
G75*
G02*
X92400000Y-141725000I0J-225000D01*
G01*
X92400000Y-142475000D01*
G75*
G02*
X92175000Y-142700000I-225000J0D01*
G01*
X91725000Y-142700000D01*
G75*
G02*
X91500000Y-142475000I0J225000D01*
G01*
X91500000Y-141725000D01*
G75*
G02*
X91725000Y-141500000I225000J0D01*
G01*
G37*
G36*
G01*
X91725000Y-143300000D02*
X92175000Y-143300000D01*
G75*
G02*
X92400000Y-143525000I0J-225000D01*
G01*
X92400000Y-144275000D01*
G75*
G02*
X92175000Y-144500000I-225000J0D01*
G01*
X91725000Y-144500000D01*
G75*
G02*
X91500000Y-144275000I0J225000D01*
G01*
X91500000Y-143525000D01*
G75*
G02*
X91725000Y-143300000I225000J0D01*
G01*
G37*
G36*
G01*
X92825000Y-143300000D02*
X93275000Y-143300000D01*
G75*
G02*
X93500000Y-143525000I0J-225000D01*
G01*
X93500000Y-144275000D01*
G75*
G02*
X93275000Y-144500000I-225000J0D01*
G01*
X92825000Y-144500000D01*
G75*
G02*
X92600000Y-144275000I0J225000D01*
G01*
X92600000Y-143525000D01*
G75*
G02*
X92825000Y-143300000I225000J0D01*
G01*
G37*
G36*
G01*
X92825000Y-141500000D02*
X93275000Y-141500000D01*
G75*
G02*
X93500000Y-141725000I0J-225000D01*
G01*
X93500000Y-142475000D01*
G75*
G02*
X93275000Y-142700000I-225000J0D01*
G01*
X92825000Y-142700000D01*
G75*
G02*
X92600000Y-142475000I0J225000D01*
G01*
X92600000Y-141725000D01*
G75*
G02*
X92825000Y-141500000I225000J0D01*
G01*
G37*
G36*
G01*
X86725000Y-141500000D02*
X87175000Y-141500000D01*
G75*
G02*
X87400000Y-141725000I0J-225000D01*
G01*
X87400000Y-142475000D01*
G75*
G02*
X87175000Y-142700000I-225000J0D01*
G01*
X86725000Y-142700000D01*
G75*
G02*
X86500000Y-142475000I0J225000D01*
G01*
X86500000Y-141725000D01*
G75*
G02*
X86725000Y-141500000I225000J0D01*
G01*
G37*
G36*
G01*
X86725000Y-143300000D02*
X87175000Y-143300000D01*
G75*
G02*
X87400000Y-143525000I0J-225000D01*
G01*
X87400000Y-144275000D01*
G75*
G02*
X87175000Y-144500000I-225000J0D01*
G01*
X86725000Y-144500000D01*
G75*
G02*
X86500000Y-144275000I0J225000D01*
G01*
X86500000Y-143525000D01*
G75*
G02*
X86725000Y-143300000I225000J0D01*
G01*
G37*
G36*
G01*
X87825000Y-143300000D02*
X88275000Y-143300000D01*
G75*
G02*
X88500000Y-143525000I0J-225000D01*
G01*
X88500000Y-144275000D01*
G75*
G02*
X88275000Y-144500000I-225000J0D01*
G01*
X87825000Y-144500000D01*
G75*
G02*
X87600000Y-144275000I0J225000D01*
G01*
X87600000Y-143525000D01*
G75*
G02*
X87825000Y-143300000I225000J0D01*
G01*
G37*
G36*
G01*
X87825000Y-141500000D02*
X88275000Y-141500000D01*
G75*
G02*
X88500000Y-141725000I0J-225000D01*
G01*
X88500000Y-142475000D01*
G75*
G02*
X88275000Y-142700000I-225000J0D01*
G01*
X87825000Y-142700000D01*
G75*
G02*
X87600000Y-142475000I0J225000D01*
G01*
X87600000Y-141725000D01*
G75*
G02*
X87825000Y-141500000I225000J0D01*
G01*
G37*
G36*
G01*
X81725000Y-141500000D02*
X82175000Y-141500000D01*
G75*
G02*
X82400000Y-141725000I0J-225000D01*
G01*
X82400000Y-142475000D01*
G75*
G02*
X82175000Y-142700000I-225000J0D01*
G01*
X81725000Y-142700000D01*
G75*
G02*
X81500000Y-142475000I0J225000D01*
G01*
X81500000Y-141725000D01*
G75*
G02*
X81725000Y-141500000I225000J0D01*
G01*
G37*
G36*
G01*
X81725000Y-143300000D02*
X82175000Y-143300000D01*
G75*
G02*
X82400000Y-143525000I0J-225000D01*
G01*
X82400000Y-144275000D01*
G75*
G02*
X82175000Y-144500000I-225000J0D01*
G01*
X81725000Y-144500000D01*
G75*
G02*
X81500000Y-144275000I0J225000D01*
G01*
X81500000Y-143525000D01*
G75*
G02*
X81725000Y-143300000I225000J0D01*
G01*
G37*
G36*
G01*
X82825000Y-143300000D02*
X83275000Y-143300000D01*
G75*
G02*
X83500000Y-143525000I0J-225000D01*
G01*
X83500000Y-144275000D01*
G75*
G02*
X83275000Y-144500000I-225000J0D01*
G01*
X82825000Y-144500000D01*
G75*
G02*
X82600000Y-144275000I0J225000D01*
G01*
X82600000Y-143525000D01*
G75*
G02*
X82825000Y-143300000I225000J0D01*
G01*
G37*
G36*
G01*
X82825000Y-141500000D02*
X83275000Y-141500000D01*
G75*
G02*
X83500000Y-141725000I0J-225000D01*
G01*
X83500000Y-142475000D01*
G75*
G02*
X83275000Y-142700000I-225000J0D01*
G01*
X82825000Y-142700000D01*
G75*
G02*
X82600000Y-142475000I0J225000D01*
G01*
X82600000Y-141725000D01*
G75*
G02*
X82825000Y-141500000I225000J0D01*
G01*
G37*
G36*
G01*
X76725000Y-141500000D02*
X77175000Y-141500000D01*
G75*
G02*
X77400000Y-141725000I0J-225000D01*
G01*
X77400000Y-142475000D01*
G75*
G02*
X77175000Y-142700000I-225000J0D01*
G01*
X76725000Y-142700000D01*
G75*
G02*
X76500000Y-142475000I0J225000D01*
G01*
X76500000Y-141725000D01*
G75*
G02*
X76725000Y-141500000I225000J0D01*
G01*
G37*
G36*
G01*
X76725000Y-143300000D02*
X77175000Y-143300000D01*
G75*
G02*
X77400000Y-143525000I0J-225000D01*
G01*
X77400000Y-144275000D01*
G75*
G02*
X77175000Y-144500000I-225000J0D01*
G01*
X76725000Y-144500000D01*
G75*
G02*
X76500000Y-144275000I0J225000D01*
G01*
X76500000Y-143525000D01*
G75*
G02*
X76725000Y-143300000I225000J0D01*
G01*
G37*
G36*
G01*
X77825000Y-143300000D02*
X78275000Y-143300000D01*
G75*
G02*
X78500000Y-143525000I0J-225000D01*
G01*
X78500000Y-144275000D01*
G75*
G02*
X78275000Y-144500000I-225000J0D01*
G01*
X77825000Y-144500000D01*
G75*
G02*
X77600000Y-144275000I0J225000D01*
G01*
X77600000Y-143525000D01*
G75*
G02*
X77825000Y-143300000I225000J0D01*
G01*
G37*
G36*
G01*
X77825000Y-141500000D02*
X78275000Y-141500000D01*
G75*
G02*
X78500000Y-141725000I0J-225000D01*
G01*
X78500000Y-142475000D01*
G75*
G02*
X78275000Y-142700000I-225000J0D01*
G01*
X77825000Y-142700000D01*
G75*
G02*
X77600000Y-142475000I0J225000D01*
G01*
X77600000Y-141725000D01*
G75*
G02*
X77825000Y-141500000I225000J0D01*
G01*
G37*
G36*
G01*
X71725000Y-141500000D02*
X72175000Y-141500000D01*
G75*
G02*
X72400000Y-141725000I0J-225000D01*
G01*
X72400000Y-142475000D01*
G75*
G02*
X72175000Y-142700000I-225000J0D01*
G01*
X71725000Y-142700000D01*
G75*
G02*
X71500000Y-142475000I0J225000D01*
G01*
X71500000Y-141725000D01*
G75*
G02*
X71725000Y-141500000I225000J0D01*
G01*
G37*
G36*
G01*
X71725000Y-143300000D02*
X72175000Y-143300000D01*
G75*
G02*
X72400000Y-143525000I0J-225000D01*
G01*
X72400000Y-144275000D01*
G75*
G02*
X72175000Y-144500000I-225000J0D01*
G01*
X71725000Y-144500000D01*
G75*
G02*
X71500000Y-144275000I0J225000D01*
G01*
X71500000Y-143525000D01*
G75*
G02*
X71725000Y-143300000I225000J0D01*
G01*
G37*
G36*
G01*
X72825000Y-143300000D02*
X73275000Y-143300000D01*
G75*
G02*
X73500000Y-143525000I0J-225000D01*
G01*
X73500000Y-144275000D01*
G75*
G02*
X73275000Y-144500000I-225000J0D01*
G01*
X72825000Y-144500000D01*
G75*
G02*
X72600000Y-144275000I0J225000D01*
G01*
X72600000Y-143525000D01*
G75*
G02*
X72825000Y-143300000I225000J0D01*
G01*
G37*
G36*
G01*
X72825000Y-141500000D02*
X73275000Y-141500000D01*
G75*
G02*
X73500000Y-141725000I0J-225000D01*
G01*
X73500000Y-142475000D01*
G75*
G02*
X73275000Y-142700000I-225000J0D01*
G01*
X72825000Y-142700000D01*
G75*
G02*
X72600000Y-142475000I0J225000D01*
G01*
X72600000Y-141725000D01*
G75*
G02*
X72825000Y-141500000I225000J0D01*
G01*
G37*
G36*
G01*
X66725000Y-141500000D02*
X67175000Y-141500000D01*
G75*
G02*
X67400000Y-141725000I0J-225000D01*
G01*
X67400000Y-142475000D01*
G75*
G02*
X67175000Y-142700000I-225000J0D01*
G01*
X66725000Y-142700000D01*
G75*
G02*
X66500000Y-142475000I0J225000D01*
G01*
X66500000Y-141725000D01*
G75*
G02*
X66725000Y-141500000I225000J0D01*
G01*
G37*
G36*
G01*
X66725000Y-143300000D02*
X67175000Y-143300000D01*
G75*
G02*
X67400000Y-143525000I0J-225000D01*
G01*
X67400000Y-144275000D01*
G75*
G02*
X67175000Y-144500000I-225000J0D01*
G01*
X66725000Y-144500000D01*
G75*
G02*
X66500000Y-144275000I0J225000D01*
G01*
X66500000Y-143525000D01*
G75*
G02*
X66725000Y-143300000I225000J0D01*
G01*
G37*
G36*
G01*
X67825000Y-143300000D02*
X68275000Y-143300000D01*
G75*
G02*
X68500000Y-143525000I0J-225000D01*
G01*
X68500000Y-144275000D01*
G75*
G02*
X68275000Y-144500000I-225000J0D01*
G01*
X67825000Y-144500000D01*
G75*
G02*
X67600000Y-144275000I0J225000D01*
G01*
X67600000Y-143525000D01*
G75*
G02*
X67825000Y-143300000I225000J0D01*
G01*
G37*
G36*
G01*
X67825000Y-141500000D02*
X68275000Y-141500000D01*
G75*
G02*
X68500000Y-141725000I0J-225000D01*
G01*
X68500000Y-142475000D01*
G75*
G02*
X68275000Y-142700000I-225000J0D01*
G01*
X67825000Y-142700000D01*
G75*
G02*
X67600000Y-142475000I0J225000D01*
G01*
X67600000Y-141725000D01*
G75*
G02*
X67825000Y-141500000I225000J0D01*
G01*
G37*
G36*
G01*
X61725000Y-141500000D02*
X62175000Y-141500000D01*
G75*
G02*
X62400000Y-141725000I0J-225000D01*
G01*
X62400000Y-142475000D01*
G75*
G02*
X62175000Y-142700000I-225000J0D01*
G01*
X61725000Y-142700000D01*
G75*
G02*
X61500000Y-142475000I0J225000D01*
G01*
X61500000Y-141725000D01*
G75*
G02*
X61725000Y-141500000I225000J0D01*
G01*
G37*
G36*
G01*
X61725000Y-143300000D02*
X62175000Y-143300000D01*
G75*
G02*
X62400000Y-143525000I0J-225000D01*
G01*
X62400000Y-144275000D01*
G75*
G02*
X62175000Y-144500000I-225000J0D01*
G01*
X61725000Y-144500000D01*
G75*
G02*
X61500000Y-144275000I0J225000D01*
G01*
X61500000Y-143525000D01*
G75*
G02*
X61725000Y-143300000I225000J0D01*
G01*
G37*
G36*
G01*
X62825000Y-143300000D02*
X63275000Y-143300000D01*
G75*
G02*
X63500000Y-143525000I0J-225000D01*
G01*
X63500000Y-144275000D01*
G75*
G02*
X63275000Y-144500000I-225000J0D01*
G01*
X62825000Y-144500000D01*
G75*
G02*
X62600000Y-144275000I0J225000D01*
G01*
X62600000Y-143525000D01*
G75*
G02*
X62825000Y-143300000I225000J0D01*
G01*
G37*
G36*
G01*
X62825000Y-141500000D02*
X63275000Y-141500000D01*
G75*
G02*
X63500000Y-141725000I0J-225000D01*
G01*
X63500000Y-142475000D01*
G75*
G02*
X63275000Y-142700000I-225000J0D01*
G01*
X62825000Y-142700000D01*
G75*
G02*
X62600000Y-142475000I0J225000D01*
G01*
X62600000Y-141725000D01*
G75*
G02*
X62825000Y-141500000I225000J0D01*
G01*
G37*
G36*
G01*
X96725000Y-141500000D02*
X97175000Y-141500000D01*
G75*
G02*
X97400000Y-141725000I0J-225000D01*
G01*
X97400000Y-142475000D01*
G75*
G02*
X97175000Y-142700000I-225000J0D01*
G01*
X96725000Y-142700000D01*
G75*
G02*
X96500000Y-142475000I0J225000D01*
G01*
X96500000Y-141725000D01*
G75*
G02*
X96725000Y-141500000I225000J0D01*
G01*
G37*
G36*
G01*
X96725000Y-143300000D02*
X97175000Y-143300000D01*
G75*
G02*
X97400000Y-143525000I0J-225000D01*
G01*
X97400000Y-144275000D01*
G75*
G02*
X97175000Y-144500000I-225000J0D01*
G01*
X96725000Y-144500000D01*
G75*
G02*
X96500000Y-144275000I0J225000D01*
G01*
X96500000Y-143525000D01*
G75*
G02*
X96725000Y-143300000I225000J0D01*
G01*
G37*
G36*
G01*
X97825000Y-143300000D02*
X98275000Y-143300000D01*
G75*
G02*
X98500000Y-143525000I0J-225000D01*
G01*
X98500000Y-144275000D01*
G75*
G02*
X98275000Y-144500000I-225000J0D01*
G01*
X97825000Y-144500000D01*
G75*
G02*
X97600000Y-144275000I0J225000D01*
G01*
X97600000Y-143525000D01*
G75*
G02*
X97825000Y-143300000I225000J0D01*
G01*
G37*
G36*
G01*
X97825000Y-141500000D02*
X98275000Y-141500000D01*
G75*
G02*
X98500000Y-141725000I0J-225000D01*
G01*
X98500000Y-142475000D01*
G75*
G02*
X98275000Y-142700000I-225000J0D01*
G01*
X97825000Y-142700000D01*
G75*
G02*
X97600000Y-142475000I0J225000D01*
G01*
X97600000Y-141725000D01*
G75*
G02*
X97825000Y-141500000I225000J0D01*
G01*
G37*
G36*
G01*
X101725000Y-141500000D02*
X102175000Y-141500000D01*
G75*
G02*
X102400000Y-141725000I0J-225000D01*
G01*
X102400000Y-142475000D01*
G75*
G02*
X102175000Y-142700000I-225000J0D01*
G01*
X101725000Y-142700000D01*
G75*
G02*
X101500000Y-142475000I0J225000D01*
G01*
X101500000Y-141725000D01*
G75*
G02*
X101725000Y-141500000I225000J0D01*
G01*
G37*
G36*
G01*
X101725000Y-143300000D02*
X102175000Y-143300000D01*
G75*
G02*
X102400000Y-143525000I0J-225000D01*
G01*
X102400000Y-144275000D01*
G75*
G02*
X102175000Y-144500000I-225000J0D01*
G01*
X101725000Y-144500000D01*
G75*
G02*
X101500000Y-144275000I0J225000D01*
G01*
X101500000Y-143525000D01*
G75*
G02*
X101725000Y-143300000I225000J0D01*
G01*
G37*
G36*
G01*
X102825000Y-143300000D02*
X103275000Y-143300000D01*
G75*
G02*
X103500000Y-143525000I0J-225000D01*
G01*
X103500000Y-144275000D01*
G75*
G02*
X103275000Y-144500000I-225000J0D01*
G01*
X102825000Y-144500000D01*
G75*
G02*
X102600000Y-144275000I0J225000D01*
G01*
X102600000Y-143525000D01*
G75*
G02*
X102825000Y-143300000I225000J0D01*
G01*
G37*
G36*
G01*
X102825000Y-141500000D02*
X103275000Y-141500000D01*
G75*
G02*
X103500000Y-141725000I0J-225000D01*
G01*
X103500000Y-142475000D01*
G75*
G02*
X103275000Y-142700000I-225000J0D01*
G01*
X102825000Y-142700000D01*
G75*
G02*
X102600000Y-142475000I0J225000D01*
G01*
X102600000Y-141725000D01*
G75*
G02*
X102825000Y-141500000I225000J0D01*
G01*
G37*
G36*
G01*
X106725000Y-141500000D02*
X107175000Y-141500000D01*
G75*
G02*
X107400000Y-141725000I0J-225000D01*
G01*
X107400000Y-142475000D01*
G75*
G02*
X107175000Y-142700000I-225000J0D01*
G01*
X106725000Y-142700000D01*
G75*
G02*
X106500000Y-142475000I0J225000D01*
G01*
X106500000Y-141725000D01*
G75*
G02*
X106725000Y-141500000I225000J0D01*
G01*
G37*
G36*
G01*
X106725000Y-143300000D02*
X107175000Y-143300000D01*
G75*
G02*
X107400000Y-143525000I0J-225000D01*
G01*
X107400000Y-144275000D01*
G75*
G02*
X107175000Y-144500000I-225000J0D01*
G01*
X106725000Y-144500000D01*
G75*
G02*
X106500000Y-144275000I0J225000D01*
G01*
X106500000Y-143525000D01*
G75*
G02*
X106725000Y-143300000I225000J0D01*
G01*
G37*
G36*
G01*
X107825000Y-143300000D02*
X108275000Y-143300000D01*
G75*
G02*
X108500000Y-143525000I0J-225000D01*
G01*
X108500000Y-144275000D01*
G75*
G02*
X108275000Y-144500000I-225000J0D01*
G01*
X107825000Y-144500000D01*
G75*
G02*
X107600000Y-144275000I0J225000D01*
G01*
X107600000Y-143525000D01*
G75*
G02*
X107825000Y-143300000I225000J0D01*
G01*
G37*
G36*
G01*
X107825000Y-141500000D02*
X108275000Y-141500000D01*
G75*
G02*
X108500000Y-141725000I0J-225000D01*
G01*
X108500000Y-142475000D01*
G75*
G02*
X108275000Y-142700000I-225000J0D01*
G01*
X107825000Y-142700000D01*
G75*
G02*
X107600000Y-142475000I0J225000D01*
G01*
X107600000Y-141725000D01*
G75*
G02*
X107825000Y-141500000I225000J0D01*
G01*
G37*
G36*
G01*
X111725000Y-141500000D02*
X112175000Y-141500000D01*
G75*
G02*
X112400000Y-141725000I0J-225000D01*
G01*
X112400000Y-142475000D01*
G75*
G02*
X112175000Y-142700000I-225000J0D01*
G01*
X111725000Y-142700000D01*
G75*
G02*
X111500000Y-142475000I0J225000D01*
G01*
X111500000Y-141725000D01*
G75*
G02*
X111725000Y-141500000I225000J0D01*
G01*
G37*
G36*
G01*
X111725000Y-143300000D02*
X112175000Y-143300000D01*
G75*
G02*
X112400000Y-143525000I0J-225000D01*
G01*
X112400000Y-144275000D01*
G75*
G02*
X112175000Y-144500000I-225000J0D01*
G01*
X111725000Y-144500000D01*
G75*
G02*
X111500000Y-144275000I0J225000D01*
G01*
X111500000Y-143525000D01*
G75*
G02*
X111725000Y-143300000I225000J0D01*
G01*
G37*
G36*
G01*
X112825000Y-143300000D02*
X113275000Y-143300000D01*
G75*
G02*
X113500000Y-143525000I0J-225000D01*
G01*
X113500000Y-144275000D01*
G75*
G02*
X113275000Y-144500000I-225000J0D01*
G01*
X112825000Y-144500000D01*
G75*
G02*
X112600000Y-144275000I0J225000D01*
G01*
X112600000Y-143525000D01*
G75*
G02*
X112825000Y-143300000I225000J0D01*
G01*
G37*
G36*
G01*
X112825000Y-141500000D02*
X113275000Y-141500000D01*
G75*
G02*
X113500000Y-141725000I0J-225000D01*
G01*
X113500000Y-142475000D01*
G75*
G02*
X113275000Y-142700000I-225000J0D01*
G01*
X112825000Y-142700000D01*
G75*
G02*
X112600000Y-142475000I0J225000D01*
G01*
X112600000Y-141725000D01*
G75*
G02*
X112825000Y-141500000I225000J0D01*
G01*
G37*
G36*
G01*
X116725000Y-141500000D02*
X117175000Y-141500000D01*
G75*
G02*
X117400000Y-141725000I0J-225000D01*
G01*
X117400000Y-142475000D01*
G75*
G02*
X117175000Y-142700000I-225000J0D01*
G01*
X116725000Y-142700000D01*
G75*
G02*
X116500000Y-142475000I0J225000D01*
G01*
X116500000Y-141725000D01*
G75*
G02*
X116725000Y-141500000I225000J0D01*
G01*
G37*
G36*
G01*
X116725000Y-143300000D02*
X117175000Y-143300000D01*
G75*
G02*
X117400000Y-143525000I0J-225000D01*
G01*
X117400000Y-144275000D01*
G75*
G02*
X117175000Y-144500000I-225000J0D01*
G01*
X116725000Y-144500000D01*
G75*
G02*
X116500000Y-144275000I0J225000D01*
G01*
X116500000Y-143525000D01*
G75*
G02*
X116725000Y-143300000I225000J0D01*
G01*
G37*
G36*
G01*
X117825000Y-143300000D02*
X118275000Y-143300000D01*
G75*
G02*
X118500000Y-143525000I0J-225000D01*
G01*
X118500000Y-144275000D01*
G75*
G02*
X118275000Y-144500000I-225000J0D01*
G01*
X117825000Y-144500000D01*
G75*
G02*
X117600000Y-144275000I0J225000D01*
G01*
X117600000Y-143525000D01*
G75*
G02*
X117825000Y-143300000I225000J0D01*
G01*
G37*
G36*
G01*
X117825000Y-141500000D02*
X118275000Y-141500000D01*
G75*
G02*
X118500000Y-141725000I0J-225000D01*
G01*
X118500000Y-142475000D01*
G75*
G02*
X118275000Y-142700000I-225000J0D01*
G01*
X117825000Y-142700000D01*
G75*
G02*
X117600000Y-142475000I0J225000D01*
G01*
X117600000Y-141725000D01*
G75*
G02*
X117825000Y-141500000I225000J0D01*
G01*
G37*
G36*
G01*
X58500000Y-121725000D02*
X58500000Y-122175000D01*
G75*
G02*
X58275000Y-122400000I-225000J0D01*
G01*
X57525000Y-122400000D01*
G75*
G02*
X57300000Y-122175000I0J225000D01*
G01*
X57300000Y-121725000D01*
G75*
G02*
X57525000Y-121500000I225000J0D01*
G01*
X58275000Y-121500000D01*
G75*
G02*
X58500000Y-121725000I0J-225000D01*
G01*
G37*
G36*
G01*
X56700000Y-121725000D02*
X56700000Y-122175000D01*
G75*
G02*
X56475000Y-122400000I-225000J0D01*
G01*
X55725000Y-122400000D01*
G75*
G02*
X55500000Y-122175000I0J225000D01*
G01*
X55500000Y-121725000D01*
G75*
G02*
X55725000Y-121500000I225000J0D01*
G01*
X56475000Y-121500000D01*
G75*
G02*
X56700000Y-121725000I0J-225000D01*
G01*
G37*
G36*
G01*
X56700000Y-122825000D02*
X56700000Y-123275000D01*
G75*
G02*
X56475000Y-123500000I-225000J0D01*
G01*
X55725000Y-123500000D01*
G75*
G02*
X55500000Y-123275000I0J225000D01*
G01*
X55500000Y-122825000D01*
G75*
G02*
X55725000Y-122600000I225000J0D01*
G01*
X56475000Y-122600000D01*
G75*
G02*
X56700000Y-122825000I0J-225000D01*
G01*
G37*
G36*
G01*
X58500000Y-122825000D02*
X58500000Y-123275000D01*
G75*
G02*
X58275000Y-123500000I-225000J0D01*
G01*
X57525000Y-123500000D01*
G75*
G02*
X57300000Y-123275000I0J225000D01*
G01*
X57300000Y-122825000D01*
G75*
G02*
X57525000Y-122600000I225000J0D01*
G01*
X58275000Y-122600000D01*
G75*
G02*
X58500000Y-122825000I0J-225000D01*
G01*
G37*
G36*
G01*
X58500000Y-131725000D02*
X58500000Y-132175000D01*
G75*
G02*
X58275000Y-132400000I-225000J0D01*
G01*
X57525000Y-132400000D01*
G75*
G02*
X57300000Y-132175000I0J225000D01*
G01*
X57300000Y-131725000D01*
G75*
G02*
X57525000Y-131500000I225000J0D01*
G01*
X58275000Y-131500000D01*
G75*
G02*
X58500000Y-131725000I0J-225000D01*
G01*
G37*
G36*
G01*
X56700000Y-131725000D02*
X56700000Y-132175000D01*
G75*
G02*
X56475000Y-132400000I-225000J0D01*
G01*
X55725000Y-132400000D01*
G75*
G02*
X55500000Y-132175000I0J225000D01*
G01*
X55500000Y-131725000D01*
G75*
G02*
X55725000Y-131500000I225000J0D01*
G01*
X56475000Y-131500000D01*
G75*
G02*
X56700000Y-131725000I0J-225000D01*
G01*
G37*
G36*
G01*
X56700000Y-132825000D02*
X56700000Y-133275000D01*
G75*
G02*
X56475000Y-133500000I-225000J0D01*
G01*
X55725000Y-133500000D01*
G75*
G02*
X55500000Y-133275000I0J225000D01*
G01*
X55500000Y-132825000D01*
G75*
G02*
X55725000Y-132600000I225000J0D01*
G01*
X56475000Y-132600000D01*
G75*
G02*
X56700000Y-132825000I0J-225000D01*
G01*
G37*
G36*
G01*
X58500000Y-132825000D02*
X58500000Y-133275000D01*
G75*
G02*
X58275000Y-133500000I-225000J0D01*
G01*
X57525000Y-133500000D01*
G75*
G02*
X57300000Y-133275000I0J225000D01*
G01*
X57300000Y-132825000D01*
G75*
G02*
X57525000Y-132600000I225000J0D01*
G01*
X58275000Y-132600000D01*
G75*
G02*
X58500000Y-132825000I0J-225000D01*
G01*
G37*
G36*
G01*
X58500000Y-126725000D02*
X58500000Y-127175000D01*
G75*
G02*
X58275000Y-127400000I-225000J0D01*
G01*
X57525000Y-127400000D01*
G75*
G02*
X57300000Y-127175000I0J225000D01*
G01*
X57300000Y-126725000D01*
G75*
G02*
X57525000Y-126500000I225000J0D01*
G01*
X58275000Y-126500000D01*
G75*
G02*
X58500000Y-126725000I0J-225000D01*
G01*
G37*
G36*
G01*
X56700000Y-126725000D02*
X56700000Y-127175000D01*
G75*
G02*
X56475000Y-127400000I-225000J0D01*
G01*
X55725000Y-127400000D01*
G75*
G02*
X55500000Y-127175000I0J225000D01*
G01*
X55500000Y-126725000D01*
G75*
G02*
X55725000Y-126500000I225000J0D01*
G01*
X56475000Y-126500000D01*
G75*
G02*
X56700000Y-126725000I0J-225000D01*
G01*
G37*
G36*
G01*
X56700000Y-127825000D02*
X56700000Y-128275000D01*
G75*
G02*
X56475000Y-128500000I-225000J0D01*
G01*
X55725000Y-128500000D01*
G75*
G02*
X55500000Y-128275000I0J225000D01*
G01*
X55500000Y-127825000D01*
G75*
G02*
X55725000Y-127600000I225000J0D01*
G01*
X56475000Y-127600000D01*
G75*
G02*
X56700000Y-127825000I0J-225000D01*
G01*
G37*
G36*
G01*
X58500000Y-127825000D02*
X58500000Y-128275000D01*
G75*
G02*
X58275000Y-128500000I-225000J0D01*
G01*
X57525000Y-128500000D01*
G75*
G02*
X57300000Y-128275000I0J225000D01*
G01*
X57300000Y-127825000D01*
G75*
G02*
X57525000Y-127600000I225000J0D01*
G01*
X58275000Y-127600000D01*
G75*
G02*
X58500000Y-127825000I0J-225000D01*
G01*
G37*
G36*
G01*
X58500000Y-136725000D02*
X58500000Y-137175000D01*
G75*
G02*
X58275000Y-137400000I-225000J0D01*
G01*
X57525000Y-137400000D01*
G75*
G02*
X57300000Y-137175000I0J225000D01*
G01*
X57300000Y-136725000D01*
G75*
G02*
X57525000Y-136500000I225000J0D01*
G01*
X58275000Y-136500000D01*
G75*
G02*
X58500000Y-136725000I0J-225000D01*
G01*
G37*
G36*
G01*
X56700000Y-136725000D02*
X56700000Y-137175000D01*
G75*
G02*
X56475000Y-137400000I-225000J0D01*
G01*
X55725000Y-137400000D01*
G75*
G02*
X55500000Y-137175000I0J225000D01*
G01*
X55500000Y-136725000D01*
G75*
G02*
X55725000Y-136500000I225000J0D01*
G01*
X56475000Y-136500000D01*
G75*
G02*
X56700000Y-136725000I0J-225000D01*
G01*
G37*
G36*
G01*
X56700000Y-137825000D02*
X56700000Y-138275000D01*
G75*
G02*
X56475000Y-138500000I-225000J0D01*
G01*
X55725000Y-138500000D01*
G75*
G02*
X55500000Y-138275000I0J225000D01*
G01*
X55500000Y-137825000D01*
G75*
G02*
X55725000Y-137600000I225000J0D01*
G01*
X56475000Y-137600000D01*
G75*
G02*
X56700000Y-137825000I0J-225000D01*
G01*
G37*
G36*
G01*
X58500000Y-137825000D02*
X58500000Y-138275000D01*
G75*
G02*
X58275000Y-138500000I-225000J0D01*
G01*
X57525000Y-138500000D01*
G75*
G02*
X57300000Y-138275000I0J225000D01*
G01*
X57300000Y-137825000D01*
G75*
G02*
X57525000Y-137600000I225000J0D01*
G01*
X58275000Y-137600000D01*
G75*
G02*
X58500000Y-137825000I0J-225000D01*
G01*
G37*
G36*
G01*
X58500000Y-91725000D02*
X58500000Y-92175000D01*
G75*
G02*
X58275000Y-92400000I-225000J0D01*
G01*
X57525000Y-92400000D01*
G75*
G02*
X57300000Y-92175000I0J225000D01*
G01*
X57300000Y-91725000D01*
G75*
G02*
X57525000Y-91500000I225000J0D01*
G01*
X58275000Y-91500000D01*
G75*
G02*
X58500000Y-91725000I0J-225000D01*
G01*
G37*
G36*
G01*
X56700000Y-91725000D02*
X56700000Y-92175000D01*
G75*
G02*
X56475000Y-92400000I-225000J0D01*
G01*
X55725000Y-92400000D01*
G75*
G02*
X55500000Y-92175000I0J225000D01*
G01*
X55500000Y-91725000D01*
G75*
G02*
X55725000Y-91500000I225000J0D01*
G01*
X56475000Y-91500000D01*
G75*
G02*
X56700000Y-91725000I0J-225000D01*
G01*
G37*
G36*
G01*
X56700000Y-92825000D02*
X56700000Y-93275000D01*
G75*
G02*
X56475000Y-93500000I-225000J0D01*
G01*
X55725000Y-93500000D01*
G75*
G02*
X55500000Y-93275000I0J225000D01*
G01*
X55500000Y-92825000D01*
G75*
G02*
X55725000Y-92600000I225000J0D01*
G01*
X56475000Y-92600000D01*
G75*
G02*
X56700000Y-92825000I0J-225000D01*
G01*
G37*
G36*
G01*
X58500000Y-92825000D02*
X58500000Y-93275000D01*
G75*
G02*
X58275000Y-93500000I-225000J0D01*
G01*
X57525000Y-93500000D01*
G75*
G02*
X57300000Y-93275000I0J225000D01*
G01*
X57300000Y-92825000D01*
G75*
G02*
X57525000Y-92600000I225000J0D01*
G01*
X58275000Y-92600000D01*
G75*
G02*
X58500000Y-92825000I0J-225000D01*
G01*
G37*
G36*
G01*
X58500000Y-86725000D02*
X58500000Y-87175000D01*
G75*
G02*
X58275000Y-87400000I-225000J0D01*
G01*
X57525000Y-87400000D01*
G75*
G02*
X57300000Y-87175000I0J225000D01*
G01*
X57300000Y-86725000D01*
G75*
G02*
X57525000Y-86500000I225000J0D01*
G01*
X58275000Y-86500000D01*
G75*
G02*
X58500000Y-86725000I0J-225000D01*
G01*
G37*
G36*
G01*
X56700000Y-86725000D02*
X56700000Y-87175000D01*
G75*
G02*
X56475000Y-87400000I-225000J0D01*
G01*
X55725000Y-87400000D01*
G75*
G02*
X55500000Y-87175000I0J225000D01*
G01*
X55500000Y-86725000D01*
G75*
G02*
X55725000Y-86500000I225000J0D01*
G01*
X56475000Y-86500000D01*
G75*
G02*
X56700000Y-86725000I0J-225000D01*
G01*
G37*
G36*
G01*
X56700000Y-87825000D02*
X56700000Y-88275000D01*
G75*
G02*
X56475000Y-88500000I-225000J0D01*
G01*
X55725000Y-88500000D01*
G75*
G02*
X55500000Y-88275000I0J225000D01*
G01*
X55500000Y-87825000D01*
G75*
G02*
X55725000Y-87600000I225000J0D01*
G01*
X56475000Y-87600000D01*
G75*
G02*
X56700000Y-87825000I0J-225000D01*
G01*
G37*
G36*
G01*
X58500000Y-87825000D02*
X58500000Y-88275000D01*
G75*
G02*
X58275000Y-88500000I-225000J0D01*
G01*
X57525000Y-88500000D01*
G75*
G02*
X57300000Y-88275000I0J225000D01*
G01*
X57300000Y-87825000D01*
G75*
G02*
X57525000Y-87600000I225000J0D01*
G01*
X58275000Y-87600000D01*
G75*
G02*
X58500000Y-87825000I0J-225000D01*
G01*
G37*
G36*
G01*
X58500000Y-81725000D02*
X58500000Y-82175000D01*
G75*
G02*
X58275000Y-82400000I-225000J0D01*
G01*
X57525000Y-82400000D01*
G75*
G02*
X57300000Y-82175000I0J225000D01*
G01*
X57300000Y-81725000D01*
G75*
G02*
X57525000Y-81500000I225000J0D01*
G01*
X58275000Y-81500000D01*
G75*
G02*
X58500000Y-81725000I0J-225000D01*
G01*
G37*
G36*
G01*
X56700000Y-81725000D02*
X56700000Y-82175000D01*
G75*
G02*
X56475000Y-82400000I-225000J0D01*
G01*
X55725000Y-82400000D01*
G75*
G02*
X55500000Y-82175000I0J225000D01*
G01*
X55500000Y-81725000D01*
G75*
G02*
X55725000Y-81500000I225000J0D01*
G01*
X56475000Y-81500000D01*
G75*
G02*
X56700000Y-81725000I0J-225000D01*
G01*
G37*
G36*
G01*
X56700000Y-82825000D02*
X56700000Y-83275000D01*
G75*
G02*
X56475000Y-83500000I-225000J0D01*
G01*
X55725000Y-83500000D01*
G75*
G02*
X55500000Y-83275000I0J225000D01*
G01*
X55500000Y-82825000D01*
G75*
G02*
X55725000Y-82600000I225000J0D01*
G01*
X56475000Y-82600000D01*
G75*
G02*
X56700000Y-82825000I0J-225000D01*
G01*
G37*
G36*
G01*
X58500000Y-82825000D02*
X58500000Y-83275000D01*
G75*
G02*
X58275000Y-83500000I-225000J0D01*
G01*
X57525000Y-83500000D01*
G75*
G02*
X57300000Y-83275000I0J225000D01*
G01*
X57300000Y-82825000D01*
G75*
G02*
X57525000Y-82600000I225000J0D01*
G01*
X58275000Y-82600000D01*
G75*
G02*
X58500000Y-82825000I0J-225000D01*
G01*
G37*
G36*
G01*
X58500000Y-76725000D02*
X58500000Y-77175000D01*
G75*
G02*
X58275000Y-77400000I-225000J0D01*
G01*
X57525000Y-77400000D01*
G75*
G02*
X57300000Y-77175000I0J225000D01*
G01*
X57300000Y-76725000D01*
G75*
G02*
X57525000Y-76500000I225000J0D01*
G01*
X58275000Y-76500000D01*
G75*
G02*
X58500000Y-76725000I0J-225000D01*
G01*
G37*
G36*
G01*
X56700000Y-76725000D02*
X56700000Y-77175000D01*
G75*
G02*
X56475000Y-77400000I-225000J0D01*
G01*
X55725000Y-77400000D01*
G75*
G02*
X55500000Y-77175000I0J225000D01*
G01*
X55500000Y-76725000D01*
G75*
G02*
X55725000Y-76500000I225000J0D01*
G01*
X56475000Y-76500000D01*
G75*
G02*
X56700000Y-76725000I0J-225000D01*
G01*
G37*
G36*
G01*
X56700000Y-77825000D02*
X56700000Y-78275000D01*
G75*
G02*
X56475000Y-78500000I-225000J0D01*
G01*
X55725000Y-78500000D01*
G75*
G02*
X55500000Y-78275000I0J225000D01*
G01*
X55500000Y-77825000D01*
G75*
G02*
X55725000Y-77600000I225000J0D01*
G01*
X56475000Y-77600000D01*
G75*
G02*
X56700000Y-77825000I0J-225000D01*
G01*
G37*
G36*
G01*
X58500000Y-77825000D02*
X58500000Y-78275000D01*
G75*
G02*
X58275000Y-78500000I-225000J0D01*
G01*
X57525000Y-78500000D01*
G75*
G02*
X57300000Y-78275000I0J225000D01*
G01*
X57300000Y-77825000D01*
G75*
G02*
X57525000Y-77600000I225000J0D01*
G01*
X58275000Y-77600000D01*
G75*
G02*
X58500000Y-77825000I0J-225000D01*
G01*
G37*
G36*
G01*
X58500000Y-71725000D02*
X58500000Y-72175000D01*
G75*
G02*
X58275000Y-72400000I-225000J0D01*
G01*
X57525000Y-72400000D01*
G75*
G02*
X57300000Y-72175000I0J225000D01*
G01*
X57300000Y-71725000D01*
G75*
G02*
X57525000Y-71500000I225000J0D01*
G01*
X58275000Y-71500000D01*
G75*
G02*
X58500000Y-71725000I0J-225000D01*
G01*
G37*
G36*
G01*
X56700000Y-71725000D02*
X56700000Y-72175000D01*
G75*
G02*
X56475000Y-72400000I-225000J0D01*
G01*
X55725000Y-72400000D01*
G75*
G02*
X55500000Y-72175000I0J225000D01*
G01*
X55500000Y-71725000D01*
G75*
G02*
X55725000Y-71500000I225000J0D01*
G01*
X56475000Y-71500000D01*
G75*
G02*
X56700000Y-71725000I0J-225000D01*
G01*
G37*
G36*
G01*
X56700000Y-72825000D02*
X56700000Y-73275000D01*
G75*
G02*
X56475000Y-73500000I-225000J0D01*
G01*
X55725000Y-73500000D01*
G75*
G02*
X55500000Y-73275000I0J225000D01*
G01*
X55500000Y-72825000D01*
G75*
G02*
X55725000Y-72600000I225000J0D01*
G01*
X56475000Y-72600000D01*
G75*
G02*
X56700000Y-72825000I0J-225000D01*
G01*
G37*
G36*
G01*
X58500000Y-72825000D02*
X58500000Y-73275000D01*
G75*
G02*
X58275000Y-73500000I-225000J0D01*
G01*
X57525000Y-73500000D01*
G75*
G02*
X57300000Y-73275000I0J225000D01*
G01*
X57300000Y-72825000D01*
G75*
G02*
X57525000Y-72600000I225000J0D01*
G01*
X58275000Y-72600000D01*
G75*
G02*
X58500000Y-72825000I0J-225000D01*
G01*
G37*
G36*
G01*
X58500000Y-66725000D02*
X58500000Y-67175000D01*
G75*
G02*
X58275000Y-67400000I-225000J0D01*
G01*
X57525000Y-67400000D01*
G75*
G02*
X57300000Y-67175000I0J225000D01*
G01*
X57300000Y-66725000D01*
G75*
G02*
X57525000Y-66500000I225000J0D01*
G01*
X58275000Y-66500000D01*
G75*
G02*
X58500000Y-66725000I0J-225000D01*
G01*
G37*
G36*
G01*
X56700000Y-66725000D02*
X56700000Y-67175000D01*
G75*
G02*
X56475000Y-67400000I-225000J0D01*
G01*
X55725000Y-67400000D01*
G75*
G02*
X55500000Y-67175000I0J225000D01*
G01*
X55500000Y-66725000D01*
G75*
G02*
X55725000Y-66500000I225000J0D01*
G01*
X56475000Y-66500000D01*
G75*
G02*
X56700000Y-66725000I0J-225000D01*
G01*
G37*
G36*
G01*
X56700000Y-67825000D02*
X56700000Y-68275000D01*
G75*
G02*
X56475000Y-68500000I-225000J0D01*
G01*
X55725000Y-68500000D01*
G75*
G02*
X55500000Y-68275000I0J225000D01*
G01*
X55500000Y-67825000D01*
G75*
G02*
X55725000Y-67600000I225000J0D01*
G01*
X56475000Y-67600000D01*
G75*
G02*
X56700000Y-67825000I0J-225000D01*
G01*
G37*
G36*
G01*
X58500000Y-67825000D02*
X58500000Y-68275000D01*
G75*
G02*
X58275000Y-68500000I-225000J0D01*
G01*
X57525000Y-68500000D01*
G75*
G02*
X57300000Y-68275000I0J225000D01*
G01*
X57300000Y-67825000D01*
G75*
G02*
X57525000Y-67600000I225000J0D01*
G01*
X58275000Y-67600000D01*
G75*
G02*
X58500000Y-67825000I0J-225000D01*
G01*
G37*
G36*
G01*
X58500000Y-61725000D02*
X58500000Y-62175000D01*
G75*
G02*
X58275000Y-62400000I-225000J0D01*
G01*
X57525000Y-62400000D01*
G75*
G02*
X57300000Y-62175000I0J225000D01*
G01*
X57300000Y-61725000D01*
G75*
G02*
X57525000Y-61500000I225000J0D01*
G01*
X58275000Y-61500000D01*
G75*
G02*
X58500000Y-61725000I0J-225000D01*
G01*
G37*
G36*
G01*
X56700000Y-61725000D02*
X56700000Y-62175000D01*
G75*
G02*
X56475000Y-62400000I-225000J0D01*
G01*
X55725000Y-62400000D01*
G75*
G02*
X55500000Y-62175000I0J225000D01*
G01*
X55500000Y-61725000D01*
G75*
G02*
X55725000Y-61500000I225000J0D01*
G01*
X56475000Y-61500000D01*
G75*
G02*
X56700000Y-61725000I0J-225000D01*
G01*
G37*
G36*
G01*
X56700000Y-62825000D02*
X56700000Y-63275000D01*
G75*
G02*
X56475000Y-63500000I-225000J0D01*
G01*
X55725000Y-63500000D01*
G75*
G02*
X55500000Y-63275000I0J225000D01*
G01*
X55500000Y-62825000D01*
G75*
G02*
X55725000Y-62600000I225000J0D01*
G01*
X56475000Y-62600000D01*
G75*
G02*
X56700000Y-62825000I0J-225000D01*
G01*
G37*
G36*
G01*
X58500000Y-62825000D02*
X58500000Y-63275000D01*
G75*
G02*
X58275000Y-63500000I-225000J0D01*
G01*
X57525000Y-63500000D01*
G75*
G02*
X57300000Y-63275000I0J225000D01*
G01*
X57300000Y-62825000D01*
G75*
G02*
X57525000Y-62600000I225000J0D01*
G01*
X58275000Y-62600000D01*
G75*
G02*
X58500000Y-62825000I0J-225000D01*
G01*
G37*
G36*
G01*
X58500000Y-96725000D02*
X58500000Y-97175000D01*
G75*
G02*
X58275000Y-97400000I-225000J0D01*
G01*
X57525000Y-97400000D01*
G75*
G02*
X57300000Y-97175000I0J225000D01*
G01*
X57300000Y-96725000D01*
G75*
G02*
X57525000Y-96500000I225000J0D01*
G01*
X58275000Y-96500000D01*
G75*
G02*
X58500000Y-96725000I0J-225000D01*
G01*
G37*
G36*
G01*
X56700000Y-96725000D02*
X56700000Y-97175000D01*
G75*
G02*
X56475000Y-97400000I-225000J0D01*
G01*
X55725000Y-97400000D01*
G75*
G02*
X55500000Y-97175000I0J225000D01*
G01*
X55500000Y-96725000D01*
G75*
G02*
X55725000Y-96500000I225000J0D01*
G01*
X56475000Y-96500000D01*
G75*
G02*
X56700000Y-96725000I0J-225000D01*
G01*
G37*
G36*
G01*
X56700000Y-97825000D02*
X56700000Y-98275000D01*
G75*
G02*
X56475000Y-98500000I-225000J0D01*
G01*
X55725000Y-98500000D01*
G75*
G02*
X55500000Y-98275000I0J225000D01*
G01*
X55500000Y-97825000D01*
G75*
G02*
X55725000Y-97600000I225000J0D01*
G01*
X56475000Y-97600000D01*
G75*
G02*
X56700000Y-97825000I0J-225000D01*
G01*
G37*
G36*
G01*
X58500000Y-97825000D02*
X58500000Y-98275000D01*
G75*
G02*
X58275000Y-98500000I-225000J0D01*
G01*
X57525000Y-98500000D01*
G75*
G02*
X57300000Y-98275000I0J225000D01*
G01*
X57300000Y-97825000D01*
G75*
G02*
X57525000Y-97600000I225000J0D01*
G01*
X58275000Y-97600000D01*
G75*
G02*
X58500000Y-97825000I0J-225000D01*
G01*
G37*
G36*
G01*
X58500000Y-101725000D02*
X58500000Y-102175000D01*
G75*
G02*
X58275000Y-102400000I-225000J0D01*
G01*
X57525000Y-102400000D01*
G75*
G02*
X57300000Y-102175000I0J225000D01*
G01*
X57300000Y-101725000D01*
G75*
G02*
X57525000Y-101500000I225000J0D01*
G01*
X58275000Y-101500000D01*
G75*
G02*
X58500000Y-101725000I0J-225000D01*
G01*
G37*
G36*
G01*
X56700000Y-101725000D02*
X56700000Y-102175000D01*
G75*
G02*
X56475000Y-102400000I-225000J0D01*
G01*
X55725000Y-102400000D01*
G75*
G02*
X55500000Y-102175000I0J225000D01*
G01*
X55500000Y-101725000D01*
G75*
G02*
X55725000Y-101500000I225000J0D01*
G01*
X56475000Y-101500000D01*
G75*
G02*
X56700000Y-101725000I0J-225000D01*
G01*
G37*
G36*
G01*
X56700000Y-102825000D02*
X56700000Y-103275000D01*
G75*
G02*
X56475000Y-103500000I-225000J0D01*
G01*
X55725000Y-103500000D01*
G75*
G02*
X55500000Y-103275000I0J225000D01*
G01*
X55500000Y-102825000D01*
G75*
G02*
X55725000Y-102600000I225000J0D01*
G01*
X56475000Y-102600000D01*
G75*
G02*
X56700000Y-102825000I0J-225000D01*
G01*
G37*
G36*
G01*
X58500000Y-102825000D02*
X58500000Y-103275000D01*
G75*
G02*
X58275000Y-103500000I-225000J0D01*
G01*
X57525000Y-103500000D01*
G75*
G02*
X57300000Y-103275000I0J225000D01*
G01*
X57300000Y-102825000D01*
G75*
G02*
X57525000Y-102600000I225000J0D01*
G01*
X58275000Y-102600000D01*
G75*
G02*
X58500000Y-102825000I0J-225000D01*
G01*
G37*
G36*
G01*
X58500000Y-106725000D02*
X58500000Y-107175000D01*
G75*
G02*
X58275000Y-107400000I-225000J0D01*
G01*
X57525000Y-107400000D01*
G75*
G02*
X57300000Y-107175000I0J225000D01*
G01*
X57300000Y-106725000D01*
G75*
G02*
X57525000Y-106500000I225000J0D01*
G01*
X58275000Y-106500000D01*
G75*
G02*
X58500000Y-106725000I0J-225000D01*
G01*
G37*
G36*
G01*
X56700000Y-106725000D02*
X56700000Y-107175000D01*
G75*
G02*
X56475000Y-107400000I-225000J0D01*
G01*
X55725000Y-107400000D01*
G75*
G02*
X55500000Y-107175000I0J225000D01*
G01*
X55500000Y-106725000D01*
G75*
G02*
X55725000Y-106500000I225000J0D01*
G01*
X56475000Y-106500000D01*
G75*
G02*
X56700000Y-106725000I0J-225000D01*
G01*
G37*
G36*
G01*
X56700000Y-107825000D02*
X56700000Y-108275000D01*
G75*
G02*
X56475000Y-108500000I-225000J0D01*
G01*
X55725000Y-108500000D01*
G75*
G02*
X55500000Y-108275000I0J225000D01*
G01*
X55500000Y-107825000D01*
G75*
G02*
X55725000Y-107600000I225000J0D01*
G01*
X56475000Y-107600000D01*
G75*
G02*
X56700000Y-107825000I0J-225000D01*
G01*
G37*
G36*
G01*
X58500000Y-107825000D02*
X58500000Y-108275000D01*
G75*
G02*
X58275000Y-108500000I-225000J0D01*
G01*
X57525000Y-108500000D01*
G75*
G02*
X57300000Y-108275000I0J225000D01*
G01*
X57300000Y-107825000D01*
G75*
G02*
X57525000Y-107600000I225000J0D01*
G01*
X58275000Y-107600000D01*
G75*
G02*
X58500000Y-107825000I0J-225000D01*
G01*
G37*
G36*
G01*
X58500000Y-111725000D02*
X58500000Y-112175000D01*
G75*
G02*
X58275000Y-112400000I-225000J0D01*
G01*
X57525000Y-112400000D01*
G75*
G02*
X57300000Y-112175000I0J225000D01*
G01*
X57300000Y-111725000D01*
G75*
G02*
X57525000Y-111500000I225000J0D01*
G01*
X58275000Y-111500000D01*
G75*
G02*
X58500000Y-111725000I0J-225000D01*
G01*
G37*
G36*
G01*
X56700000Y-111725000D02*
X56700000Y-112175000D01*
G75*
G02*
X56475000Y-112400000I-225000J0D01*
G01*
X55725000Y-112400000D01*
G75*
G02*
X55500000Y-112175000I0J225000D01*
G01*
X55500000Y-111725000D01*
G75*
G02*
X55725000Y-111500000I225000J0D01*
G01*
X56475000Y-111500000D01*
G75*
G02*
X56700000Y-111725000I0J-225000D01*
G01*
G37*
G36*
G01*
X56700000Y-112825000D02*
X56700000Y-113275000D01*
G75*
G02*
X56475000Y-113500000I-225000J0D01*
G01*
X55725000Y-113500000D01*
G75*
G02*
X55500000Y-113275000I0J225000D01*
G01*
X55500000Y-112825000D01*
G75*
G02*
X55725000Y-112600000I225000J0D01*
G01*
X56475000Y-112600000D01*
G75*
G02*
X56700000Y-112825000I0J-225000D01*
G01*
G37*
G36*
G01*
X58500000Y-112825000D02*
X58500000Y-113275000D01*
G75*
G02*
X58275000Y-113500000I-225000J0D01*
G01*
X57525000Y-113500000D01*
G75*
G02*
X57300000Y-113275000I0J225000D01*
G01*
X57300000Y-112825000D01*
G75*
G02*
X57525000Y-112600000I225000J0D01*
G01*
X58275000Y-112600000D01*
G75*
G02*
X58500000Y-112825000I0J-225000D01*
G01*
G37*
G36*
G01*
X58500000Y-116725000D02*
X58500000Y-117175000D01*
G75*
G02*
X58275000Y-117400000I-225000J0D01*
G01*
X57525000Y-117400000D01*
G75*
G02*
X57300000Y-117175000I0J225000D01*
G01*
X57300000Y-116725000D01*
G75*
G02*
X57525000Y-116500000I225000J0D01*
G01*
X58275000Y-116500000D01*
G75*
G02*
X58500000Y-116725000I0J-225000D01*
G01*
G37*
G36*
G01*
X56700000Y-116725000D02*
X56700000Y-117175000D01*
G75*
G02*
X56475000Y-117400000I-225000J0D01*
G01*
X55725000Y-117400000D01*
G75*
G02*
X55500000Y-117175000I0J225000D01*
G01*
X55500000Y-116725000D01*
G75*
G02*
X55725000Y-116500000I225000J0D01*
G01*
X56475000Y-116500000D01*
G75*
G02*
X56700000Y-116725000I0J-225000D01*
G01*
G37*
G36*
G01*
X56700000Y-117825000D02*
X56700000Y-118275000D01*
G75*
G02*
X56475000Y-118500000I-225000J0D01*
G01*
X55725000Y-118500000D01*
G75*
G02*
X55500000Y-118275000I0J225000D01*
G01*
X55500000Y-117825000D01*
G75*
G02*
X55725000Y-117600000I225000J0D01*
G01*
X56475000Y-117600000D01*
G75*
G02*
X56700000Y-117825000I0J-225000D01*
G01*
G37*
G36*
G01*
X58500000Y-117825000D02*
X58500000Y-118275000D01*
G75*
G02*
X58275000Y-118500000I-225000J0D01*
G01*
X57525000Y-118500000D01*
G75*
G02*
X57300000Y-118275000I0J225000D01*
G01*
X57300000Y-117825000D01*
G75*
G02*
X57525000Y-117600000I225000J0D01*
G01*
X58275000Y-117600000D01*
G75*
G02*
X58500000Y-117825000I0J-225000D01*
G01*
G37*
M02*
