G04 #@! TF.GenerationSoftware,KiCad,Pcbnew,(5.1.2)-2*
G04 #@! TF.CreationDate,2019-12-02T15:55:15+01:00*
G04 #@! TF.ProjectId,FFC,4646432e-6b69-4636-9164-5f7063625858,rev?*
G04 #@! TF.SameCoordinates,PX5f5e100PY5f5e100*
G04 #@! TF.FileFunction,Copper,L1,Top*
G04 #@! TF.FilePolarity,Positive*
%FSLAX46Y46*%
G04 Gerber Fmt 4.6, Leading zero omitted, Abs format (unit mm)*
G04 Created by KiCad (PCBNEW (5.1.2)-2) date 2019-12-02 15:55:15*
%MOMM*%
%LPD*%
G04 APERTURE LIST*
%ADD10R,0.600000X2.000000*%
%ADD11R,0.600000X3.000000*%
%ADD12C,0.254000*%
G04 APERTURE END LIST*
D10*
X3500000Y1500000D03*
X1500000Y1500000D03*
X-500000Y1500000D03*
X-2500000Y1500000D03*
X2500000Y1500000D03*
X500000Y1500000D03*
X-1500000Y1500000D03*
X-3500000Y1500000D03*
D11*
X3500000Y13285000D03*
X1500000Y13285000D03*
X-500000Y13285000D03*
X-2500000Y13285000D03*
X2500000Y13285000D03*
X500000Y13285000D03*
X-1500000Y13285000D03*
X-3500000Y13285000D03*
D12*
G36*
X-3438072Y11785000D02*
G01*
X-3425812Y11660518D01*
X-3389502Y11540820D01*
X-3373000Y11509947D01*
X-3373000Y10939750D01*
X-3227000Y10793750D01*
X-3227000Y3491250D01*
X-3373000Y3345250D01*
X-3373000Y2775053D01*
X-3389502Y2744180D01*
X-3425812Y2624482D01*
X-3438072Y2500000D01*
X-3438072Y1353000D01*
X-3617106Y1353000D01*
X-3615000Y1363589D01*
X-3615000Y1636411D01*
X-3627000Y1696739D01*
X-3627000Y3345250D01*
X-3773000Y3491250D01*
X-3773000Y10793750D01*
X-3627000Y10939750D01*
X-3627000Y13158000D01*
X-3647000Y13158000D01*
X-3647000Y13412000D01*
X-3627000Y13412000D01*
X-3627000Y13432000D01*
X-3438072Y13432000D01*
X-3438072Y11785000D01*
X-3438072Y11785000D01*
G37*
X-3438072Y11785000D02*
X-3425812Y11660518D01*
X-3389502Y11540820D01*
X-3373000Y11509947D01*
X-3373000Y10939750D01*
X-3227000Y10793750D01*
X-3227000Y3491250D01*
X-3373000Y3345250D01*
X-3373000Y2775053D01*
X-3389502Y2744180D01*
X-3425812Y2624482D01*
X-3438072Y2500000D01*
X-3438072Y1353000D01*
X-3617106Y1353000D01*
X-3615000Y1363589D01*
X-3615000Y1636411D01*
X-3627000Y1696739D01*
X-3627000Y3345250D01*
X-3773000Y3491250D01*
X-3773000Y10793750D01*
X-3627000Y10939750D01*
X-3627000Y13158000D01*
X-3647000Y13158000D01*
X-3647000Y13412000D01*
X-3627000Y13412000D01*
X-3627000Y13432000D01*
X-3438072Y13432000D01*
X-3438072Y11785000D01*
G36*
X-2438072Y11785000D02*
G01*
X-2425812Y11660518D01*
X-2389502Y11540820D01*
X-2373000Y11509947D01*
X-2373000Y10939750D01*
X-2227000Y10793750D01*
X-2227000Y3491250D01*
X-2373000Y3345250D01*
X-2373000Y2775053D01*
X-2389502Y2744180D01*
X-2425812Y2624482D01*
X-2438072Y2500000D01*
X-2438072Y1353000D01*
X-2561928Y1353000D01*
X-2561928Y2500000D01*
X-2574188Y2624482D01*
X-2610498Y2744180D01*
X-2627000Y2775053D01*
X-2627000Y3345250D01*
X-2773000Y3491250D01*
X-2773000Y10793750D01*
X-2627000Y10939750D01*
X-2627000Y11509947D01*
X-2610498Y11540820D01*
X-2574188Y11660518D01*
X-2561928Y11785000D01*
X-2561928Y13432000D01*
X-2438072Y13432000D01*
X-2438072Y11785000D01*
X-2438072Y11785000D01*
G37*
X-2438072Y11785000D02*
X-2425812Y11660518D01*
X-2389502Y11540820D01*
X-2373000Y11509947D01*
X-2373000Y10939750D01*
X-2227000Y10793750D01*
X-2227000Y3491250D01*
X-2373000Y3345250D01*
X-2373000Y2775053D01*
X-2389502Y2744180D01*
X-2425812Y2624482D01*
X-2438072Y2500000D01*
X-2438072Y1353000D01*
X-2561928Y1353000D01*
X-2561928Y2500000D01*
X-2574188Y2624482D01*
X-2610498Y2744180D01*
X-2627000Y2775053D01*
X-2627000Y3345250D01*
X-2773000Y3491250D01*
X-2773000Y10793750D01*
X-2627000Y10939750D01*
X-2627000Y11509947D01*
X-2610498Y11540820D01*
X-2574188Y11660518D01*
X-2561928Y11785000D01*
X-2561928Y13432000D01*
X-2438072Y13432000D01*
X-2438072Y11785000D01*
G36*
X-1438072Y11785000D02*
G01*
X-1425812Y11660518D01*
X-1389502Y11540820D01*
X-1373000Y11509947D01*
X-1373000Y10939750D01*
X-1227000Y10793750D01*
X-1227000Y3491250D01*
X-1373000Y3345250D01*
X-1373000Y2775053D01*
X-1389502Y2744180D01*
X-1425812Y2624482D01*
X-1438072Y2500000D01*
X-1438072Y1353000D01*
X-1561928Y1353000D01*
X-1561928Y2500000D01*
X-1574188Y2624482D01*
X-1610498Y2744180D01*
X-1627000Y2775053D01*
X-1627000Y3345250D01*
X-1773000Y3491250D01*
X-1773000Y10793750D01*
X-1627000Y10939750D01*
X-1627000Y11509947D01*
X-1610498Y11540820D01*
X-1574188Y11660518D01*
X-1561928Y11785000D01*
X-1561928Y13432000D01*
X-1438072Y13432000D01*
X-1438072Y11785000D01*
X-1438072Y11785000D01*
G37*
X-1438072Y11785000D02*
X-1425812Y11660518D01*
X-1389502Y11540820D01*
X-1373000Y11509947D01*
X-1373000Y10939750D01*
X-1227000Y10793750D01*
X-1227000Y3491250D01*
X-1373000Y3345250D01*
X-1373000Y2775053D01*
X-1389502Y2744180D01*
X-1425812Y2624482D01*
X-1438072Y2500000D01*
X-1438072Y1353000D01*
X-1561928Y1353000D01*
X-1561928Y2500000D01*
X-1574188Y2624482D01*
X-1610498Y2744180D01*
X-1627000Y2775053D01*
X-1627000Y3345250D01*
X-1773000Y3491250D01*
X-1773000Y10793750D01*
X-1627000Y10939750D01*
X-1627000Y11509947D01*
X-1610498Y11540820D01*
X-1574188Y11660518D01*
X-1561928Y11785000D01*
X-1561928Y13432000D01*
X-1438072Y13432000D01*
X-1438072Y11785000D01*
G36*
X-438072Y11785000D02*
G01*
X-425812Y11660518D01*
X-389502Y11540820D01*
X-373000Y11509947D01*
X-373000Y10939750D01*
X-227000Y10793750D01*
X-227000Y3491250D01*
X-373000Y3345250D01*
X-373000Y2775053D01*
X-389502Y2744180D01*
X-425812Y2624482D01*
X-438072Y2500000D01*
X-438072Y1353000D01*
X-561928Y1353000D01*
X-561928Y2500000D01*
X-574188Y2624482D01*
X-610498Y2744180D01*
X-627000Y2775053D01*
X-627000Y3345250D01*
X-773000Y3491250D01*
X-773000Y10793750D01*
X-627000Y10939750D01*
X-627000Y11509947D01*
X-610498Y11540820D01*
X-574188Y11660518D01*
X-561928Y11785000D01*
X-561928Y13432000D01*
X-438072Y13432000D01*
X-438072Y11785000D01*
X-438072Y11785000D01*
G37*
X-438072Y11785000D02*
X-425812Y11660518D01*
X-389502Y11540820D01*
X-373000Y11509947D01*
X-373000Y10939750D01*
X-227000Y10793750D01*
X-227000Y3491250D01*
X-373000Y3345250D01*
X-373000Y2775053D01*
X-389502Y2744180D01*
X-425812Y2624482D01*
X-438072Y2500000D01*
X-438072Y1353000D01*
X-561928Y1353000D01*
X-561928Y2500000D01*
X-574188Y2624482D01*
X-610498Y2744180D01*
X-627000Y2775053D01*
X-627000Y3345250D01*
X-773000Y3491250D01*
X-773000Y10793750D01*
X-627000Y10939750D01*
X-627000Y11509947D01*
X-610498Y11540820D01*
X-574188Y11660518D01*
X-561928Y11785000D01*
X-561928Y13432000D01*
X-438072Y13432000D01*
X-438072Y11785000D01*
G36*
X561928Y11785000D02*
G01*
X574188Y11660518D01*
X610498Y11540820D01*
X627000Y11509947D01*
X627000Y10939750D01*
X773000Y10793750D01*
X773000Y3491250D01*
X627000Y3345250D01*
X627000Y2775053D01*
X610498Y2744180D01*
X574188Y2624482D01*
X561928Y2500000D01*
X561928Y1353000D01*
X438072Y1353000D01*
X438072Y2500000D01*
X425812Y2624482D01*
X389502Y2744180D01*
X373000Y2775053D01*
X373000Y3345250D01*
X227000Y3491250D01*
X227000Y10793750D01*
X373000Y10939750D01*
X373000Y11509947D01*
X389502Y11540820D01*
X425812Y11660518D01*
X438072Y11785000D01*
X438072Y13432000D01*
X561928Y13432000D01*
X561928Y11785000D01*
X561928Y11785000D01*
G37*
X561928Y11785000D02*
X574188Y11660518D01*
X610498Y11540820D01*
X627000Y11509947D01*
X627000Y10939750D01*
X773000Y10793750D01*
X773000Y3491250D01*
X627000Y3345250D01*
X627000Y2775053D01*
X610498Y2744180D01*
X574188Y2624482D01*
X561928Y2500000D01*
X561928Y1353000D01*
X438072Y1353000D01*
X438072Y2500000D01*
X425812Y2624482D01*
X389502Y2744180D01*
X373000Y2775053D01*
X373000Y3345250D01*
X227000Y3491250D01*
X227000Y10793750D01*
X373000Y10939750D01*
X373000Y11509947D01*
X389502Y11540820D01*
X425812Y11660518D01*
X438072Y11785000D01*
X438072Y13432000D01*
X561928Y13432000D01*
X561928Y11785000D01*
G36*
X1561928Y11785000D02*
G01*
X1574188Y11660518D01*
X1610498Y11540820D01*
X1627000Y11509947D01*
X1627000Y10939750D01*
X1773000Y10793750D01*
X1773000Y3491250D01*
X1627000Y3345250D01*
X1627000Y2775053D01*
X1610498Y2744180D01*
X1574188Y2624482D01*
X1561928Y2500000D01*
X1561928Y1353000D01*
X1438072Y1353000D01*
X1438072Y2500000D01*
X1425812Y2624482D01*
X1389502Y2744180D01*
X1373000Y2775053D01*
X1373000Y3345250D01*
X1227000Y3491250D01*
X1227000Y10793750D01*
X1373000Y10939750D01*
X1373000Y11509947D01*
X1389502Y11540820D01*
X1425812Y11660518D01*
X1438072Y11785000D01*
X1438072Y13432000D01*
X1561928Y13432000D01*
X1561928Y11785000D01*
X1561928Y11785000D01*
G37*
X1561928Y11785000D02*
X1574188Y11660518D01*
X1610498Y11540820D01*
X1627000Y11509947D01*
X1627000Y10939750D01*
X1773000Y10793750D01*
X1773000Y3491250D01*
X1627000Y3345250D01*
X1627000Y2775053D01*
X1610498Y2744180D01*
X1574188Y2624482D01*
X1561928Y2500000D01*
X1561928Y1353000D01*
X1438072Y1353000D01*
X1438072Y2500000D01*
X1425812Y2624482D01*
X1389502Y2744180D01*
X1373000Y2775053D01*
X1373000Y3345250D01*
X1227000Y3491250D01*
X1227000Y10793750D01*
X1373000Y10939750D01*
X1373000Y11509947D01*
X1389502Y11540820D01*
X1425812Y11660518D01*
X1438072Y11785000D01*
X1438072Y13432000D01*
X1561928Y13432000D01*
X1561928Y11785000D01*
G36*
X2561928Y11785000D02*
G01*
X2574188Y11660518D01*
X2610498Y11540820D01*
X2627000Y11509947D01*
X2627000Y10939750D01*
X2773000Y10793750D01*
X2773000Y3491250D01*
X2627000Y3345250D01*
X2627000Y2775053D01*
X2610498Y2744180D01*
X2574188Y2624482D01*
X2561928Y2500000D01*
X2561928Y1353000D01*
X2438072Y1353000D01*
X2438072Y2500000D01*
X2425812Y2624482D01*
X2389502Y2744180D01*
X2373000Y2775053D01*
X2373000Y3345250D01*
X2227000Y3491250D01*
X2227000Y10793750D01*
X2373000Y10939750D01*
X2373000Y11509947D01*
X2389502Y11540820D01*
X2425812Y11660518D01*
X2438072Y11785000D01*
X2438072Y13432000D01*
X2561928Y13432000D01*
X2561928Y11785000D01*
X2561928Y11785000D01*
G37*
X2561928Y11785000D02*
X2574188Y11660518D01*
X2610498Y11540820D01*
X2627000Y11509947D01*
X2627000Y10939750D01*
X2773000Y10793750D01*
X2773000Y3491250D01*
X2627000Y3345250D01*
X2627000Y2775053D01*
X2610498Y2744180D01*
X2574188Y2624482D01*
X2561928Y2500000D01*
X2561928Y1353000D01*
X2438072Y1353000D01*
X2438072Y2500000D01*
X2425812Y2624482D01*
X2389502Y2744180D01*
X2373000Y2775053D01*
X2373000Y3345250D01*
X2227000Y3491250D01*
X2227000Y10793750D01*
X2373000Y10939750D01*
X2373000Y11509947D01*
X2389502Y11540820D01*
X2425812Y11660518D01*
X2438072Y11785000D01*
X2438072Y13432000D01*
X2561928Y13432000D01*
X2561928Y11785000D01*
G36*
X3627000Y13412000D02*
G01*
X3647000Y13412000D01*
X3647000Y13158000D01*
X3627000Y13158000D01*
X3627000Y10939750D01*
X3773000Y10793750D01*
X3773000Y3491250D01*
X3627000Y3345250D01*
X3627000Y1696739D01*
X3615000Y1636411D01*
X3615000Y1363589D01*
X3617106Y1353000D01*
X3438072Y1353000D01*
X3438072Y2500000D01*
X3425812Y2624482D01*
X3389502Y2744180D01*
X3373000Y2775053D01*
X3373000Y3345250D01*
X3227000Y3491250D01*
X3227000Y10793750D01*
X3373000Y10939750D01*
X3373000Y11509947D01*
X3389502Y11540820D01*
X3425812Y11660518D01*
X3438072Y11785000D01*
X3438072Y13432000D01*
X3627000Y13432000D01*
X3627000Y13412000D01*
X3627000Y13412000D01*
G37*
X3627000Y13412000D02*
X3647000Y13412000D01*
X3647000Y13158000D01*
X3627000Y13158000D01*
X3627000Y10939750D01*
X3773000Y10793750D01*
X3773000Y3491250D01*
X3627000Y3345250D01*
X3627000Y1696739D01*
X3615000Y1636411D01*
X3615000Y1363589D01*
X3617106Y1353000D01*
X3438072Y1353000D01*
X3438072Y2500000D01*
X3425812Y2624482D01*
X3389502Y2744180D01*
X3373000Y2775053D01*
X3373000Y3345250D01*
X3227000Y3491250D01*
X3227000Y10793750D01*
X3373000Y10939750D01*
X3373000Y11509947D01*
X3389502Y11540820D01*
X3425812Y11660518D01*
X3438072Y11785000D01*
X3438072Y13432000D01*
X3627000Y13432000D01*
X3627000Y13412000D01*
M02*
