G04 #@! TF.GenerationSoftware,KiCad,Pcbnew,(5.1.2)-2*
G04 #@! TF.CreationDate,2019-12-02T15:55:15+01:00*
G04 #@! TF.ProjectId,FFC,4646432e-6b69-4636-9164-5f7063625858,rev?*
G04 #@! TF.SameCoordinates,PX5f5e100PY5f5e100*
G04 #@! TF.FileFunction,Soldermask,Top*
G04 #@! TF.FilePolarity,Negative*
%FSLAX46Y46*%
G04 Gerber Fmt 4.6, Leading zero omitted, Abs format (unit mm)*
G04 Created by KiCad (PCBNEW (5.1.2)-2) date 2019-12-02 15:55:15*
%MOMM*%
%LPD*%
G04 APERTURE LIST*
%ADD10C,0.100000*%
G04 APERTURE END LIST*
D10*
G36*
X-3149000Y449000D02*
G01*
X-3851000Y449000D01*
X-3851000Y2551000D01*
X-3149000Y2551000D01*
X-3149000Y449000D01*
X-3149000Y449000D01*
G37*
G36*
X-1149000Y449000D02*
G01*
X-1851000Y449000D01*
X-1851000Y2551000D01*
X-1149000Y2551000D01*
X-1149000Y449000D01*
X-1149000Y449000D01*
G37*
G36*
X851000Y449000D02*
G01*
X149000Y449000D01*
X149000Y2551000D01*
X851000Y2551000D01*
X851000Y449000D01*
X851000Y449000D01*
G37*
G36*
X-2149000Y449000D02*
G01*
X-2851000Y449000D01*
X-2851000Y2551000D01*
X-2149000Y2551000D01*
X-2149000Y449000D01*
X-2149000Y449000D01*
G37*
G36*
X-149000Y449000D02*
G01*
X-851000Y449000D01*
X-851000Y2551000D01*
X-149000Y2551000D01*
X-149000Y449000D01*
X-149000Y449000D01*
G37*
G36*
X1851000Y449000D02*
G01*
X1149000Y449000D01*
X1149000Y2551000D01*
X1851000Y2551000D01*
X1851000Y449000D01*
X1851000Y449000D01*
G37*
G36*
X3851000Y449000D02*
G01*
X3149000Y449000D01*
X3149000Y2551000D01*
X3851000Y2551000D01*
X3851000Y449000D01*
X3851000Y449000D01*
G37*
G36*
X2851000Y449000D02*
G01*
X2149000Y449000D01*
X2149000Y2551000D01*
X2851000Y2551000D01*
X2851000Y449000D01*
X2851000Y449000D01*
G37*
G36*
X5233642Y2270219D02*
G01*
X5379414Y2209838D01*
X5379416Y2209837D01*
X5510608Y2122178D01*
X5622178Y2010608D01*
X5709837Y1879416D01*
X5709838Y1879414D01*
X5770219Y1733642D01*
X5801000Y1578893D01*
X5801000Y1421107D01*
X5770219Y1266358D01*
X5709838Y1120586D01*
X5709837Y1120584D01*
X5622178Y989392D01*
X5510608Y877822D01*
X5379416Y790163D01*
X5379415Y790162D01*
X5379414Y790162D01*
X5233642Y729781D01*
X5078893Y699000D01*
X4921107Y699000D01*
X4766358Y729781D01*
X4620586Y790162D01*
X4620585Y790162D01*
X4620584Y790163D01*
X4489392Y877822D01*
X4377822Y989392D01*
X4290163Y1120584D01*
X4290162Y1120586D01*
X4229781Y1266358D01*
X4199000Y1421107D01*
X4199000Y1578893D01*
X4229781Y1733642D01*
X4290162Y1879414D01*
X4290163Y1879416D01*
X4377822Y2010608D01*
X4489392Y2122178D01*
X4620584Y2209837D01*
X4620586Y2209838D01*
X4766358Y2270219D01*
X4921107Y2301000D01*
X5078893Y2301000D01*
X5233642Y2270219D01*
X5233642Y2270219D01*
G37*
G36*
X-4766358Y2270219D02*
G01*
X-4620586Y2209838D01*
X-4620584Y2209837D01*
X-4489392Y2122178D01*
X-4377822Y2010608D01*
X-4290163Y1879416D01*
X-4290162Y1879414D01*
X-4229781Y1733642D01*
X-4199000Y1578893D01*
X-4199000Y1421107D01*
X-4229781Y1266358D01*
X-4290162Y1120586D01*
X-4290163Y1120584D01*
X-4377822Y989392D01*
X-4489392Y877822D01*
X-4620584Y790163D01*
X-4620585Y790162D01*
X-4620586Y790162D01*
X-4766358Y729781D01*
X-4921107Y699000D01*
X-5078893Y699000D01*
X-5233642Y729781D01*
X-5379414Y790162D01*
X-5379415Y790162D01*
X-5379416Y790163D01*
X-5510608Y877822D01*
X-5622178Y989392D01*
X-5709837Y1120584D01*
X-5709838Y1120586D01*
X-5770219Y1266358D01*
X-5801000Y1421107D01*
X-5801000Y1578893D01*
X-5770219Y1733642D01*
X-5709838Y1879414D01*
X-5709837Y1879416D01*
X-5622178Y2010608D01*
X-5510608Y2122178D01*
X-5379416Y2209837D01*
X-5379414Y2209838D01*
X-5233642Y2270219D01*
X-5078893Y2301000D01*
X-4921107Y2301000D01*
X-4766358Y2270219D01*
X-4766358Y2270219D01*
G37*
G36*
X1851000Y11734000D02*
G01*
X1149000Y11734000D01*
X1149000Y14836000D01*
X1851000Y14836000D01*
X1851000Y11734000D01*
X1851000Y11734000D01*
G37*
G36*
X3851000Y11734000D02*
G01*
X3149000Y11734000D01*
X3149000Y14836000D01*
X3851000Y14836000D01*
X3851000Y11734000D01*
X3851000Y11734000D01*
G37*
G36*
X2851000Y11734000D02*
G01*
X2149000Y11734000D01*
X2149000Y14836000D01*
X2851000Y14836000D01*
X2851000Y11734000D01*
X2851000Y11734000D01*
G37*
G36*
X-3149000Y11734000D02*
G01*
X-3851000Y11734000D01*
X-3851000Y14836000D01*
X-3149000Y14836000D01*
X-3149000Y11734000D01*
X-3149000Y11734000D01*
G37*
G36*
X-1149000Y11734000D02*
G01*
X-1851000Y11734000D01*
X-1851000Y14836000D01*
X-1149000Y14836000D01*
X-1149000Y11734000D01*
X-1149000Y11734000D01*
G37*
G36*
X851000Y11734000D02*
G01*
X149000Y11734000D01*
X149000Y14836000D01*
X851000Y14836000D01*
X851000Y11734000D01*
X851000Y11734000D01*
G37*
G36*
X-2149000Y11734000D02*
G01*
X-2851000Y11734000D01*
X-2851000Y14836000D01*
X-2149000Y14836000D01*
X-2149000Y11734000D01*
X-2149000Y11734000D01*
G37*
G36*
X-149000Y11734000D02*
G01*
X-851000Y11734000D01*
X-851000Y14836000D01*
X-149000Y14836000D01*
X-149000Y11734000D01*
X-149000Y11734000D01*
G37*
M02*
