G04 #@! TF.GenerationSoftware,KiCad,Pcbnew,(5.1.2)-2*
G04 #@! TF.CreationDate,2019-12-02T15:55:15+01:00*
G04 #@! TF.ProjectId,FFC,4646432e-6b69-4636-9164-5f7063625858,rev?*
G04 #@! TF.SameCoordinates,PX5f5e100PY5f5e100*
G04 #@! TF.FileFunction,Legend,Bot*
G04 #@! TF.FilePolarity,Positive*
%FSLAX46Y46*%
G04 Gerber Fmt 4.6, Leading zero omitted, Abs format (unit mm)*
G04 Created by KiCad (PCBNEW (5.1.2)-2) date 2019-12-02 15:55:15*
%MOMM*%
%LPD*%
G04 APERTURE LIST*
%ADD10C,0.150000*%
%ADD11C,0.050000*%
G04 APERTURE END LIST*
D10*
X-13668929Y13920239D02*
X-13526072Y13872620D01*
X-13287977Y13872620D01*
X-13192739Y13920239D01*
X-13145120Y13967858D01*
X-13097500Y14063096D01*
X-13097500Y14158334D01*
X-13145120Y14253572D01*
X-13192739Y14301191D01*
X-13287977Y14348810D01*
X-13478453Y14396429D01*
X-13573691Y14444048D01*
X-13621310Y14491667D01*
X-13668929Y14586905D01*
X-13668929Y14682143D01*
X-13621310Y14777381D01*
X-13573691Y14825000D01*
X-13478453Y14872620D01*
X-13240358Y14872620D01*
X-13097500Y14825000D01*
X-12811786Y14872620D02*
X-12240358Y14872620D01*
X-12526072Y13872620D02*
X-12526072Y14872620D01*
X-11907024Y13872620D02*
X-11907024Y14872620D01*
X-11097500Y14396429D02*
X-11430834Y14396429D01*
X-11430834Y13872620D02*
X-11430834Y14872620D01*
X-10954643Y14872620D01*
X-10240358Y14396429D02*
X-10573691Y14396429D01*
X-10573691Y13872620D02*
X-10573691Y14872620D01*
X-10097500Y14872620D01*
X-9716548Y14396429D02*
X-9383215Y14396429D01*
X-9240358Y13872620D02*
X-9716548Y13872620D01*
X-9716548Y14872620D01*
X-9240358Y14872620D01*
X-8811786Y13872620D02*
X-8811786Y14872620D01*
X-8240358Y13872620D01*
X-8240358Y14872620D01*
X-7764167Y14396429D02*
X-7430834Y14396429D01*
X-7287977Y13872620D02*
X-7764167Y13872620D01*
X-7764167Y14872620D01*
X-7287977Y14872620D01*
X-6287977Y13872620D02*
X-6621310Y14348810D01*
X-6859405Y13872620D02*
X-6859405Y14872620D01*
X-6478453Y14872620D01*
X-6383215Y14825000D01*
X-6335596Y14777381D01*
X-6287977Y14682143D01*
X-6287977Y14539286D01*
X-6335596Y14444048D01*
X-6383215Y14396429D01*
X-6478453Y14348810D01*
X-6859405Y14348810D01*
X-20907024Y13222620D02*
X-20335596Y13222620D01*
X-20621310Y12222620D02*
X-20621310Y13222620D01*
X-19811786Y13222620D02*
X-19621310Y13222620D01*
X-19526072Y13175000D01*
X-19430834Y13079762D01*
X-19383215Y12889286D01*
X-19383215Y12555953D01*
X-19430834Y12365477D01*
X-19526072Y12270239D01*
X-19621310Y12222620D01*
X-19811786Y12222620D01*
X-19907024Y12270239D01*
X-20002262Y12365477D01*
X-20049881Y12555953D01*
X-20049881Y12889286D01*
X-20002262Y13079762D01*
X-19907024Y13175000D01*
X-19811786Y13222620D01*
X-17859405Y12746429D02*
X-18192739Y12746429D01*
X-18192739Y12222620D02*
X-18192739Y13222620D01*
X-17716548Y13222620D01*
X-17002262Y12746429D02*
X-17335596Y12746429D01*
X-17335596Y12222620D02*
X-17335596Y13222620D01*
X-16859405Y13222620D01*
X-15907024Y12317858D02*
X-15954643Y12270239D01*
X-16097500Y12222620D01*
X-16192739Y12222620D01*
X-16335596Y12270239D01*
X-16430834Y12365477D01*
X-16478453Y12460715D01*
X-16526072Y12651191D01*
X-16526072Y12794048D01*
X-16478453Y12984524D01*
X-16430834Y13079762D01*
X-16335596Y13175000D01*
X-16192739Y13222620D01*
X-16097500Y13222620D01*
X-15954643Y13175000D01*
X-15907024Y13127381D01*
X-14145120Y12317858D02*
X-14192739Y12270239D01*
X-14335596Y12222620D01*
X-14430834Y12222620D01*
X-14573691Y12270239D01*
X-14668929Y12365477D01*
X-14716548Y12460715D01*
X-14764167Y12651191D01*
X-14764167Y12794048D01*
X-14716548Y12984524D01*
X-14668929Y13079762D01*
X-14573691Y13175000D01*
X-14430834Y13222620D01*
X-14335596Y13222620D01*
X-14192739Y13175000D01*
X-14145120Y13127381D01*
X-13526072Y13222620D02*
X-13335596Y13222620D01*
X-13240358Y13175000D01*
X-13145120Y13079762D01*
X-13097500Y12889286D01*
X-13097500Y12555953D01*
X-13145120Y12365477D01*
X-13240358Y12270239D01*
X-13335596Y12222620D01*
X-13526072Y12222620D01*
X-13621310Y12270239D01*
X-13716548Y12365477D01*
X-13764167Y12555953D01*
X-13764167Y12889286D01*
X-13716548Y13079762D01*
X-13621310Y13175000D01*
X-13526072Y13222620D01*
X-12668929Y12222620D02*
X-12668929Y13222620D01*
X-12097500Y12222620D01*
X-12097500Y13222620D01*
X-11621310Y12222620D02*
X-11621310Y13222620D01*
X-11049881Y12222620D01*
X-11049881Y13222620D01*
X-10573691Y12746429D02*
X-10240358Y12746429D01*
X-10097500Y12222620D02*
X-10573691Y12222620D01*
X-10573691Y13222620D01*
X-10097500Y13222620D01*
X-9097500Y12317858D02*
X-9145120Y12270239D01*
X-9287977Y12222620D01*
X-9383215Y12222620D01*
X-9526072Y12270239D01*
X-9621310Y12365477D01*
X-9668929Y12460715D01*
X-9716548Y12651191D01*
X-9716548Y12794048D01*
X-9668929Y12984524D01*
X-9621310Y13079762D01*
X-9526072Y13175000D01*
X-9383215Y13222620D01*
X-9287977Y13222620D01*
X-9145120Y13175000D01*
X-9097500Y13127381D01*
X-8811786Y13222620D02*
X-8240358Y13222620D01*
X-8526072Y12222620D02*
X-8526072Y13222620D01*
X-7716548Y13222620D02*
X-7526072Y13222620D01*
X-7430834Y13175000D01*
X-7335596Y13079762D01*
X-7287977Y12889286D01*
X-7287977Y12555953D01*
X-7335596Y12365477D01*
X-7430834Y12270239D01*
X-7526072Y12222620D01*
X-7716548Y12222620D01*
X-7811786Y12270239D01*
X-7907024Y12365477D01*
X-7954643Y12555953D01*
X-7954643Y12889286D01*
X-7907024Y13079762D01*
X-7811786Y13175000D01*
X-7716548Y13222620D01*
X-6287977Y12222620D02*
X-6621310Y12698810D01*
X-6859405Y12222620D02*
X-6859405Y13222620D01*
X-6478453Y13222620D01*
X-6383215Y13175000D01*
X-6335596Y13127381D01*
X-6287977Y13032143D01*
X-6287977Y12889286D01*
X-6335596Y12794048D01*
X-6383215Y12746429D01*
X-6478453Y12698810D01*
X-6859405Y12698810D01*
D11*
X-5500000Y12000000D02*
X-5500000Y13000000D01*
X-6000000Y13500000D02*
G75*
G02X-5500000Y13000000I0J-500000D01*
G01*
X-5500000Y14000000D02*
G75*
G02X-6000000Y13500000I-500000J0D01*
G01*
X-5500000Y14000000D02*
X-5500000Y14500000D01*
X-5000000Y11500000D02*
G75*
G02X-5500000Y12000000I0J500000D01*
G01*
X-5500000Y14500000D02*
G75*
G02X-5000000Y15000000I500000J0D01*
G01*
X-4500000Y11500000D02*
X-4500000Y14500000D01*
X4500000Y11500000D02*
X-4500000Y11500000D01*
X4500000Y14500000D02*
X4500000Y11500000D01*
X4000000Y15000000D02*
X4500000Y14500000D01*
X-4000000Y15000000D02*
X4000000Y15000000D01*
X-4500000Y14500000D02*
X-4000000Y15000000D01*
M02*
