G04 #@! TF.GenerationSoftware,KiCad,Pcbnew,(5.1.2)-2*
G04 #@! TF.CreationDate,2020-02-28T15:20:04+01:00*
G04 #@! TF.ProjectId,FFC,4646432e-6b69-4636-9164-5f7063625858,rev?*
G04 #@! TF.SameCoordinates,PX5f5e100PY5f5e100*
G04 #@! TF.FileFunction,Copper,L1,Top*
G04 #@! TF.FilePolarity,Positive*
%FSLAX46Y46*%
G04 Gerber Fmt 4.6, Leading zero omitted, Abs format (unit mm)*
G04 Created by KiCad (PCBNEW (5.1.2)-2) date 2020-02-28 15:20:04*
%MOMM*%
%LPD*%
G04 APERTURE LIST*
%ADD10R,0.600000X2.000000*%
%ADD11R,0.600000X2.500000*%
%ADD12C,0.254000*%
G04 APERTURE END LIST*
D10*
X3500000Y1500000D03*
X1500000Y1500000D03*
X-500000Y1500000D03*
X-2500000Y1500000D03*
X2500000Y1500000D03*
X500000Y1500000D03*
X-1500000Y1500000D03*
X-3500000Y1500000D03*
D11*
X3500000Y13535000D03*
X1500000Y13535000D03*
X-500000Y13535000D03*
X-2500000Y13535000D03*
X2500000Y13535000D03*
X500000Y13535000D03*
X-1500000Y13535000D03*
X-3500000Y13535000D03*
D12*
G36*
X-3227000Y527000D02*
G01*
X-3773000Y527000D01*
X-3773000Y14593000D01*
X-3227000Y14593000D01*
X-3227000Y527000D01*
X-3227000Y527000D01*
G37*
X-3227000Y527000D02*
X-3773000Y527000D01*
X-3773000Y14593000D01*
X-3227000Y14593000D01*
X-3227000Y527000D01*
G36*
X-2227000Y527000D02*
G01*
X-2773000Y527000D01*
X-2773000Y14593000D01*
X-2227000Y14593000D01*
X-2227000Y527000D01*
X-2227000Y527000D01*
G37*
X-2227000Y527000D02*
X-2773000Y527000D01*
X-2773000Y14593000D01*
X-2227000Y14593000D01*
X-2227000Y527000D01*
G36*
X-1227000Y527000D02*
G01*
X-1773000Y527000D01*
X-1773000Y14593000D01*
X-1227000Y14593000D01*
X-1227000Y527000D01*
X-1227000Y527000D01*
G37*
X-1227000Y527000D02*
X-1773000Y527000D01*
X-1773000Y14593000D01*
X-1227000Y14593000D01*
X-1227000Y527000D01*
G36*
X-227000Y527000D02*
G01*
X-773000Y527000D01*
X-773000Y14593000D01*
X-227000Y14593000D01*
X-227000Y527000D01*
X-227000Y527000D01*
G37*
X-227000Y527000D02*
X-773000Y527000D01*
X-773000Y14593000D01*
X-227000Y14593000D01*
X-227000Y527000D01*
G36*
X773000Y527000D02*
G01*
X227000Y527000D01*
X227000Y14593000D01*
X773000Y14593000D01*
X773000Y527000D01*
X773000Y527000D01*
G37*
X773000Y527000D02*
X227000Y527000D01*
X227000Y14593000D01*
X773000Y14593000D01*
X773000Y527000D01*
G36*
X1773000Y527000D02*
G01*
X1227000Y527000D01*
X1227000Y14593000D01*
X1773000Y14593000D01*
X1773000Y527000D01*
X1773000Y527000D01*
G37*
X1773000Y527000D02*
X1227000Y527000D01*
X1227000Y14593000D01*
X1773000Y14593000D01*
X1773000Y527000D01*
G36*
X2773000Y527000D02*
G01*
X2227000Y527000D01*
X2227000Y14593000D01*
X2773000Y14593000D01*
X2773000Y527000D01*
X2773000Y527000D01*
G37*
X2773000Y527000D02*
X2227000Y527000D01*
X2227000Y14593000D01*
X2773000Y14593000D01*
X2773000Y527000D01*
G36*
X3773000Y527000D02*
G01*
X3227000Y527000D01*
X3227000Y14593000D01*
X3773000Y14593000D01*
X3773000Y527000D01*
X3773000Y527000D01*
G37*
X3773000Y527000D02*
X3227000Y527000D01*
X3227000Y14593000D01*
X3773000Y14593000D01*
X3773000Y527000D01*
M02*
