G04 #@! TF.GenerationSoftware,KiCad,Pcbnew,(5.1.2)-2*
G04 #@! TF.CreationDate,2020-02-28T15:20:04+01:00*
G04 #@! TF.ProjectId,FFC,4646432e-6b69-4636-9164-5f7063625858,rev?*
G04 #@! TF.SameCoordinates,PX5f5e100PY5f5e100*
G04 #@! TF.FileFunction,Legend,Bot*
G04 #@! TF.FilePolarity,Positive*
%FSLAX46Y46*%
G04 Gerber Fmt 4.6, Leading zero omitted, Abs format (unit mm)*
G04 Created by KiCad (PCBNEW (5.1.2)-2) date 2020-02-28 15:20:04*
%MOMM*%
%LPD*%
G04 APERTURE LIST*
%ADD10C,0.120000*%
%ADD11C,0.150000*%
%ADD12C,0.050000*%
G04 APERTURE END LIST*
D10*
X-3500000Y5500000D02*
X-3500000Y7500000D01*
X3500000Y5500000D02*
X-3500000Y5500000D01*
X3500000Y7500000D02*
X3500000Y5500000D01*
X-3500000Y7500000D02*
X3500000Y7500000D01*
D11*
X2714285Y6952381D02*
X2666666Y7000000D01*
X2571428Y7047620D01*
X2333333Y7047620D01*
X2238095Y7000000D01*
X2190476Y6952381D01*
X2142857Y6857143D01*
X2142857Y6761905D01*
X2190476Y6619048D01*
X2761904Y6047620D01*
X2142857Y6047620D01*
X1523809Y7047620D02*
X1428571Y7047620D01*
X1333333Y7000000D01*
X1285714Y6952381D01*
X1238095Y6857143D01*
X1190476Y6666667D01*
X1190476Y6428572D01*
X1238095Y6238096D01*
X1285714Y6142858D01*
X1333333Y6095239D01*
X1428571Y6047620D01*
X1523809Y6047620D01*
X1619047Y6095239D01*
X1666666Y6142858D01*
X1714285Y6238096D01*
X1761904Y6428572D01*
X1761904Y6666667D01*
X1714285Y6857143D01*
X1666666Y6952381D01*
X1619047Y7000000D01*
X1523809Y7047620D01*
X809523Y6952381D02*
X761904Y7000000D01*
X666666Y7047620D01*
X428571Y7047620D01*
X333333Y7000000D01*
X285714Y6952381D01*
X238095Y6857143D01*
X238095Y6761905D01*
X285714Y6619048D01*
X857142Y6047620D01*
X238095Y6047620D01*
X-380953Y7047620D02*
X-476191Y7047620D01*
X-571429Y7000000D01*
X-619048Y6952381D01*
X-666667Y6857143D01*
X-714286Y6666667D01*
X-714286Y6428572D01*
X-666667Y6238096D01*
X-619048Y6142858D01*
X-571429Y6095239D01*
X-476191Y6047620D01*
X-380953Y6047620D01*
X-285715Y6095239D01*
X-238096Y6142858D01*
X-190477Y6238096D01*
X-142858Y6428572D01*
X-142858Y6666667D01*
X-190477Y6857143D01*
X-238096Y6952381D01*
X-285715Y7000000D01*
X-380953Y7047620D01*
X-1857143Y7095239D02*
X-1000000Y5809524D01*
X-2142858Y6952381D02*
X-2190477Y7000000D01*
X-2285715Y7047620D01*
X-2523810Y7047620D01*
X-2619048Y7000000D01*
X-2666667Y6952381D01*
X-2714286Y6857143D01*
X-2714286Y6761905D01*
X-2666667Y6619048D01*
X-2095239Y6047620D01*
X-2714286Y6047620D01*
X-15859405Y13372620D02*
X-15859405Y14372620D01*
X-15478453Y14372620D01*
X-15383215Y14325000D01*
X-15335596Y14277381D01*
X-15287977Y14182143D01*
X-15287977Y14039286D01*
X-15335596Y13944048D01*
X-15383215Y13896429D01*
X-15478453Y13848810D01*
X-15859405Y13848810D01*
X-14859405Y13372620D02*
X-14859405Y14372620D01*
X-13668929Y13420239D02*
X-13526072Y13372620D01*
X-13287977Y13372620D01*
X-13192739Y13420239D01*
X-13145120Y13467858D01*
X-13097500Y13563096D01*
X-13097500Y13658334D01*
X-13145120Y13753572D01*
X-13192739Y13801191D01*
X-13287977Y13848810D01*
X-13478453Y13896429D01*
X-13573691Y13944048D01*
X-13621310Y13991667D01*
X-13668929Y14086905D01*
X-13668929Y14182143D01*
X-13621310Y14277381D01*
X-13573691Y14325000D01*
X-13478453Y14372620D01*
X-13240358Y14372620D01*
X-13097500Y14325000D01*
X-12811786Y14372620D02*
X-12240358Y14372620D01*
X-12526072Y13372620D02*
X-12526072Y14372620D01*
X-11907024Y13372620D02*
X-11907024Y14372620D01*
X-11097500Y13896429D02*
X-11430834Y13896429D01*
X-11430834Y13372620D02*
X-11430834Y14372620D01*
X-10954643Y14372620D01*
X-10240358Y13896429D02*
X-10573691Y13896429D01*
X-10573691Y13372620D02*
X-10573691Y14372620D01*
X-10097500Y14372620D01*
X-9716548Y13896429D02*
X-9383215Y13896429D01*
X-9240358Y13372620D02*
X-9716548Y13372620D01*
X-9716548Y14372620D01*
X-9240358Y14372620D01*
X-8811786Y13372620D02*
X-8811786Y14372620D01*
X-8240358Y13372620D01*
X-8240358Y14372620D01*
X-7764167Y13896429D02*
X-7430834Y13896429D01*
X-7287977Y13372620D02*
X-7764167Y13372620D01*
X-7764167Y14372620D01*
X-7287977Y14372620D01*
X-6287977Y13372620D02*
X-6621310Y13848810D01*
X-6859405Y13372620D02*
X-6859405Y14372620D01*
X-6478453Y14372620D01*
X-6383215Y14325000D01*
X-6335596Y14277381D01*
X-6287977Y14182143D01*
X-6287977Y14039286D01*
X-6335596Y13944048D01*
X-6383215Y13896429D01*
X-6478453Y13848810D01*
X-6859405Y13848810D01*
X-20907024Y12722620D02*
X-20335596Y12722620D01*
X-20621310Y11722620D02*
X-20621310Y12722620D01*
X-19811786Y12722620D02*
X-19621310Y12722620D01*
X-19526072Y12675000D01*
X-19430834Y12579762D01*
X-19383215Y12389286D01*
X-19383215Y12055953D01*
X-19430834Y11865477D01*
X-19526072Y11770239D01*
X-19621310Y11722620D01*
X-19811786Y11722620D01*
X-19907024Y11770239D01*
X-20002262Y11865477D01*
X-20049881Y12055953D01*
X-20049881Y12389286D01*
X-20002262Y12579762D01*
X-19907024Y12675000D01*
X-19811786Y12722620D01*
X-17859405Y12246429D02*
X-18192739Y12246429D01*
X-18192739Y11722620D02*
X-18192739Y12722620D01*
X-17716548Y12722620D01*
X-17002262Y12246429D02*
X-17335596Y12246429D01*
X-17335596Y11722620D02*
X-17335596Y12722620D01*
X-16859405Y12722620D01*
X-15907024Y11817858D02*
X-15954643Y11770239D01*
X-16097500Y11722620D01*
X-16192739Y11722620D01*
X-16335596Y11770239D01*
X-16430834Y11865477D01*
X-16478453Y11960715D01*
X-16526072Y12151191D01*
X-16526072Y12294048D01*
X-16478453Y12484524D01*
X-16430834Y12579762D01*
X-16335596Y12675000D01*
X-16192739Y12722620D01*
X-16097500Y12722620D01*
X-15954643Y12675000D01*
X-15907024Y12627381D01*
X-14145120Y11817858D02*
X-14192739Y11770239D01*
X-14335596Y11722620D01*
X-14430834Y11722620D01*
X-14573691Y11770239D01*
X-14668929Y11865477D01*
X-14716548Y11960715D01*
X-14764167Y12151191D01*
X-14764167Y12294048D01*
X-14716548Y12484524D01*
X-14668929Y12579762D01*
X-14573691Y12675000D01*
X-14430834Y12722620D01*
X-14335596Y12722620D01*
X-14192739Y12675000D01*
X-14145120Y12627381D01*
X-13526072Y12722620D02*
X-13335596Y12722620D01*
X-13240358Y12675000D01*
X-13145120Y12579762D01*
X-13097500Y12389286D01*
X-13097500Y12055953D01*
X-13145120Y11865477D01*
X-13240358Y11770239D01*
X-13335596Y11722620D01*
X-13526072Y11722620D01*
X-13621310Y11770239D01*
X-13716548Y11865477D01*
X-13764167Y12055953D01*
X-13764167Y12389286D01*
X-13716548Y12579762D01*
X-13621310Y12675000D01*
X-13526072Y12722620D01*
X-12668929Y11722620D02*
X-12668929Y12722620D01*
X-12097500Y11722620D01*
X-12097500Y12722620D01*
X-11621310Y11722620D02*
X-11621310Y12722620D01*
X-11049881Y11722620D01*
X-11049881Y12722620D01*
X-10573691Y12246429D02*
X-10240358Y12246429D01*
X-10097500Y11722620D02*
X-10573691Y11722620D01*
X-10573691Y12722620D01*
X-10097500Y12722620D01*
X-9097500Y11817858D02*
X-9145120Y11770239D01*
X-9287977Y11722620D01*
X-9383215Y11722620D01*
X-9526072Y11770239D01*
X-9621310Y11865477D01*
X-9668929Y11960715D01*
X-9716548Y12151191D01*
X-9716548Y12294048D01*
X-9668929Y12484524D01*
X-9621310Y12579762D01*
X-9526072Y12675000D01*
X-9383215Y12722620D01*
X-9287977Y12722620D01*
X-9145120Y12675000D01*
X-9097500Y12627381D01*
X-8811786Y12722620D02*
X-8240358Y12722620D01*
X-8526072Y11722620D02*
X-8526072Y12722620D01*
X-7716548Y12722620D02*
X-7526072Y12722620D01*
X-7430834Y12675000D01*
X-7335596Y12579762D01*
X-7287977Y12389286D01*
X-7287977Y12055953D01*
X-7335596Y11865477D01*
X-7430834Y11770239D01*
X-7526072Y11722620D01*
X-7716548Y11722620D01*
X-7811786Y11770239D01*
X-7907024Y11865477D01*
X-7954643Y12055953D01*
X-7954643Y12389286D01*
X-7907024Y12579762D01*
X-7811786Y12675000D01*
X-7716548Y12722620D01*
X-6287977Y11722620D02*
X-6621310Y12198810D01*
X-6859405Y11722620D02*
X-6859405Y12722620D01*
X-6478453Y12722620D01*
X-6383215Y12675000D01*
X-6335596Y12627381D01*
X-6287977Y12532143D01*
X-6287977Y12389286D01*
X-6335596Y12294048D01*
X-6383215Y12246429D01*
X-6478453Y12198810D01*
X-6859405Y12198810D01*
D12*
X-5500000Y11000000D02*
X-5500000Y12500000D01*
X-6000000Y13000000D02*
G75*
G02X-5500000Y12500000I0J-500000D01*
G01*
X-5500000Y13500000D02*
G75*
G02X-6000000Y13000000I-500000J0D01*
G01*
X-5500000Y13500000D02*
X-5500000Y14500000D01*
X-5000000Y10500000D02*
G75*
G02X-5500000Y11000000I0J500000D01*
G01*
X-5500000Y14500000D02*
G75*
G02X-5000000Y15000000I500000J0D01*
G01*
X-4500000Y10500000D02*
X-4500000Y14500000D01*
X4500000Y10500000D02*
X-4500000Y10500000D01*
X4500000Y14500000D02*
X4500000Y10500000D01*
X4000000Y15000000D02*
X4500000Y14500000D01*
X-4000000Y15000000D02*
X4000000Y15000000D01*
X-4500000Y14500000D02*
X-4000000Y15000000D01*
D10*
X5000000Y2500000D02*
X5000000Y3500000D01*
X4000000Y1500000D02*
X3000000Y1500000D01*
X5000000Y500000D02*
X5000000Y-500000D01*
X6000000Y1500000D02*
X7000000Y1500000D01*
X-5000000Y2500000D02*
X-5000000Y3500000D01*
X-6000000Y1500000D02*
X-7000000Y1500000D01*
X-5000000Y500000D02*
X-5000000Y-500000D01*
X-4000000Y1500000D02*
X-3000000Y1500000D01*
M02*
