G04 #@! TF.GenerationSoftware,KiCad,Pcbnew,5.1.5+dfsg1-2build2*
G04 #@! TF.CreationDate,2020-12-10T17:15:45+01:00*
G04 #@! TF.ProjectId,USBC_INTERFACE_TEST,55534243-5f49-44e5-9445-52464143455f,rev?*
G04 #@! TF.SameCoordinates,Original*
G04 #@! TF.FileFunction,Soldermask,Top*
G04 #@! TF.FilePolarity,Negative*
%FSLAX46Y46*%
G04 Gerber Fmt 4.6, Leading zero omitted, Abs format (unit mm)*
G04 Created by KiCad (PCBNEW 5.1.5+dfsg1-2build2) date 2020-12-10 17:15:45*
%MOMM*%
%LPD*%
G04 APERTURE LIST*
%ADD10C,0.100000*%
G04 APERTURE END LIST*
D10*
G36*
X73843512Y-82103927D02*
G01*
X73992812Y-82133624D01*
X74156784Y-82201544D01*
X74304354Y-82300147D01*
X74429853Y-82425646D01*
X74528456Y-82573216D01*
X74596376Y-82737188D01*
X74631000Y-82911259D01*
X74631000Y-83088741D01*
X74596376Y-83262812D01*
X74528456Y-83426784D01*
X74429853Y-83574354D01*
X74304354Y-83699853D01*
X74156784Y-83798456D01*
X73992812Y-83866376D01*
X73843512Y-83896073D01*
X73818742Y-83901000D01*
X73641258Y-83901000D01*
X73616488Y-83896073D01*
X73467188Y-83866376D01*
X73303216Y-83798456D01*
X73155646Y-83699853D01*
X73030147Y-83574354D01*
X72931544Y-83426784D01*
X72863624Y-83262812D01*
X72829000Y-83088741D01*
X72829000Y-82911259D01*
X72863624Y-82737188D01*
X72931544Y-82573216D01*
X73030147Y-82425646D01*
X73155646Y-82300147D01*
X73303216Y-82201544D01*
X73467188Y-82133624D01*
X73616488Y-82103927D01*
X73641258Y-82099000D01*
X73818742Y-82099000D01*
X73843512Y-82103927D01*
G37*
G36*
X86543512Y-82103927D02*
G01*
X86692812Y-82133624D01*
X86856784Y-82201544D01*
X87004354Y-82300147D01*
X87129853Y-82425646D01*
X87228456Y-82573216D01*
X87296376Y-82737188D01*
X87331000Y-82911259D01*
X87331000Y-83088741D01*
X87296376Y-83262812D01*
X87228456Y-83426784D01*
X87129853Y-83574354D01*
X87004354Y-83699853D01*
X86856784Y-83798456D01*
X86692812Y-83866376D01*
X86543512Y-83896073D01*
X86518742Y-83901000D01*
X86341258Y-83901000D01*
X86316488Y-83896073D01*
X86167188Y-83866376D01*
X86003216Y-83798456D01*
X85855646Y-83699853D01*
X85730147Y-83574354D01*
X85631544Y-83426784D01*
X85563624Y-83262812D01*
X85529000Y-83088741D01*
X85529000Y-82911259D01*
X85563624Y-82737188D01*
X85631544Y-82573216D01*
X85730147Y-82425646D01*
X85855646Y-82300147D01*
X86003216Y-82201544D01*
X86167188Y-82133624D01*
X86316488Y-82103927D01*
X86341258Y-82099000D01*
X86518742Y-82099000D01*
X86543512Y-82103927D01*
G37*
G36*
X61931000Y-83901000D02*
G01*
X60129000Y-83901000D01*
X60129000Y-82099000D01*
X61931000Y-82099000D01*
X61931000Y-83901000D01*
G37*
G36*
X63683512Y-82103927D02*
G01*
X63832812Y-82133624D01*
X63996784Y-82201544D01*
X64144354Y-82300147D01*
X64269853Y-82425646D01*
X64368456Y-82573216D01*
X64436376Y-82737188D01*
X64471000Y-82911259D01*
X64471000Y-83088741D01*
X64436376Y-83262812D01*
X64368456Y-83426784D01*
X64269853Y-83574354D01*
X64144354Y-83699853D01*
X63996784Y-83798456D01*
X63832812Y-83866376D01*
X63683512Y-83896073D01*
X63658742Y-83901000D01*
X63481258Y-83901000D01*
X63456488Y-83896073D01*
X63307188Y-83866376D01*
X63143216Y-83798456D01*
X62995646Y-83699853D01*
X62870147Y-83574354D01*
X62771544Y-83426784D01*
X62703624Y-83262812D01*
X62669000Y-83088741D01*
X62669000Y-82911259D01*
X62703624Y-82737188D01*
X62771544Y-82573216D01*
X62870147Y-82425646D01*
X62995646Y-82300147D01*
X63143216Y-82201544D01*
X63307188Y-82133624D01*
X63456488Y-82103927D01*
X63481258Y-82099000D01*
X63658742Y-82099000D01*
X63683512Y-82103927D01*
G37*
G36*
X66223512Y-82103927D02*
G01*
X66372812Y-82133624D01*
X66536784Y-82201544D01*
X66684354Y-82300147D01*
X66809853Y-82425646D01*
X66908456Y-82573216D01*
X66976376Y-82737188D01*
X67011000Y-82911259D01*
X67011000Y-83088741D01*
X66976376Y-83262812D01*
X66908456Y-83426784D01*
X66809853Y-83574354D01*
X66684354Y-83699853D01*
X66536784Y-83798456D01*
X66372812Y-83866376D01*
X66223512Y-83896073D01*
X66198742Y-83901000D01*
X66021258Y-83901000D01*
X65996488Y-83896073D01*
X65847188Y-83866376D01*
X65683216Y-83798456D01*
X65535646Y-83699853D01*
X65410147Y-83574354D01*
X65311544Y-83426784D01*
X65243624Y-83262812D01*
X65209000Y-83088741D01*
X65209000Y-82911259D01*
X65243624Y-82737188D01*
X65311544Y-82573216D01*
X65410147Y-82425646D01*
X65535646Y-82300147D01*
X65683216Y-82201544D01*
X65847188Y-82133624D01*
X65996488Y-82103927D01*
X66021258Y-82099000D01*
X66198742Y-82099000D01*
X66223512Y-82103927D01*
G37*
G36*
X68763512Y-82103927D02*
G01*
X68912812Y-82133624D01*
X69076784Y-82201544D01*
X69224354Y-82300147D01*
X69349853Y-82425646D01*
X69448456Y-82573216D01*
X69516376Y-82737188D01*
X69551000Y-82911259D01*
X69551000Y-83088741D01*
X69516376Y-83262812D01*
X69448456Y-83426784D01*
X69349853Y-83574354D01*
X69224354Y-83699853D01*
X69076784Y-83798456D01*
X68912812Y-83866376D01*
X68763512Y-83896073D01*
X68738742Y-83901000D01*
X68561258Y-83901000D01*
X68536488Y-83896073D01*
X68387188Y-83866376D01*
X68223216Y-83798456D01*
X68075646Y-83699853D01*
X67950147Y-83574354D01*
X67851544Y-83426784D01*
X67783624Y-83262812D01*
X67749000Y-83088741D01*
X67749000Y-82911259D01*
X67783624Y-82737188D01*
X67851544Y-82573216D01*
X67950147Y-82425646D01*
X68075646Y-82300147D01*
X68223216Y-82201544D01*
X68387188Y-82133624D01*
X68536488Y-82103927D01*
X68561258Y-82099000D01*
X68738742Y-82099000D01*
X68763512Y-82103927D01*
G37*
G36*
X71303512Y-82103927D02*
G01*
X71452812Y-82133624D01*
X71616784Y-82201544D01*
X71764354Y-82300147D01*
X71889853Y-82425646D01*
X71988456Y-82573216D01*
X72056376Y-82737188D01*
X72091000Y-82911259D01*
X72091000Y-83088741D01*
X72056376Y-83262812D01*
X71988456Y-83426784D01*
X71889853Y-83574354D01*
X71764354Y-83699853D01*
X71616784Y-83798456D01*
X71452812Y-83866376D01*
X71303512Y-83896073D01*
X71278742Y-83901000D01*
X71101258Y-83901000D01*
X71076488Y-83896073D01*
X70927188Y-83866376D01*
X70763216Y-83798456D01*
X70615646Y-83699853D01*
X70490147Y-83574354D01*
X70391544Y-83426784D01*
X70323624Y-83262812D01*
X70289000Y-83088741D01*
X70289000Y-82911259D01*
X70323624Y-82737188D01*
X70391544Y-82573216D01*
X70490147Y-82425646D01*
X70615646Y-82300147D01*
X70763216Y-82201544D01*
X70927188Y-82133624D01*
X71076488Y-82103927D01*
X71101258Y-82099000D01*
X71278742Y-82099000D01*
X71303512Y-82103927D01*
G37*
G36*
X89083512Y-82103927D02*
G01*
X89232812Y-82133624D01*
X89396784Y-82201544D01*
X89544354Y-82300147D01*
X89669853Y-82425646D01*
X89768456Y-82573216D01*
X89836376Y-82737188D01*
X89871000Y-82911259D01*
X89871000Y-83088741D01*
X89836376Y-83262812D01*
X89768456Y-83426784D01*
X89669853Y-83574354D01*
X89544354Y-83699853D01*
X89396784Y-83798456D01*
X89232812Y-83866376D01*
X89083512Y-83896073D01*
X89058742Y-83901000D01*
X88881258Y-83901000D01*
X88856488Y-83896073D01*
X88707188Y-83866376D01*
X88543216Y-83798456D01*
X88395646Y-83699853D01*
X88270147Y-83574354D01*
X88171544Y-83426784D01*
X88103624Y-83262812D01*
X88069000Y-83088741D01*
X88069000Y-82911259D01*
X88103624Y-82737188D01*
X88171544Y-82573216D01*
X88270147Y-82425646D01*
X88395646Y-82300147D01*
X88543216Y-82201544D01*
X88707188Y-82133624D01*
X88856488Y-82103927D01*
X88881258Y-82099000D01*
X89058742Y-82099000D01*
X89083512Y-82103927D01*
G37*
G36*
X84003512Y-82103927D02*
G01*
X84152812Y-82133624D01*
X84316784Y-82201544D01*
X84464354Y-82300147D01*
X84589853Y-82425646D01*
X84688456Y-82573216D01*
X84756376Y-82737188D01*
X84791000Y-82911259D01*
X84791000Y-83088741D01*
X84756376Y-83262812D01*
X84688456Y-83426784D01*
X84589853Y-83574354D01*
X84464354Y-83699853D01*
X84316784Y-83798456D01*
X84152812Y-83866376D01*
X84003512Y-83896073D01*
X83978742Y-83901000D01*
X83801258Y-83901000D01*
X83776488Y-83896073D01*
X83627188Y-83866376D01*
X83463216Y-83798456D01*
X83315646Y-83699853D01*
X83190147Y-83574354D01*
X83091544Y-83426784D01*
X83023624Y-83262812D01*
X82989000Y-83088741D01*
X82989000Y-82911259D01*
X83023624Y-82737188D01*
X83091544Y-82573216D01*
X83190147Y-82425646D01*
X83315646Y-82300147D01*
X83463216Y-82201544D01*
X83627188Y-82133624D01*
X83776488Y-82103927D01*
X83801258Y-82099000D01*
X83978742Y-82099000D01*
X84003512Y-82103927D01*
G37*
G36*
X81463512Y-82103927D02*
G01*
X81612812Y-82133624D01*
X81776784Y-82201544D01*
X81924354Y-82300147D01*
X82049853Y-82425646D01*
X82148456Y-82573216D01*
X82216376Y-82737188D01*
X82251000Y-82911259D01*
X82251000Y-83088741D01*
X82216376Y-83262812D01*
X82148456Y-83426784D01*
X82049853Y-83574354D01*
X81924354Y-83699853D01*
X81776784Y-83798456D01*
X81612812Y-83866376D01*
X81463512Y-83896073D01*
X81438742Y-83901000D01*
X81261258Y-83901000D01*
X81236488Y-83896073D01*
X81087188Y-83866376D01*
X80923216Y-83798456D01*
X80775646Y-83699853D01*
X80650147Y-83574354D01*
X80551544Y-83426784D01*
X80483624Y-83262812D01*
X80449000Y-83088741D01*
X80449000Y-82911259D01*
X80483624Y-82737188D01*
X80551544Y-82573216D01*
X80650147Y-82425646D01*
X80775646Y-82300147D01*
X80923216Y-82201544D01*
X81087188Y-82133624D01*
X81236488Y-82103927D01*
X81261258Y-82099000D01*
X81438742Y-82099000D01*
X81463512Y-82103927D01*
G37*
G36*
X78923512Y-82103927D02*
G01*
X79072812Y-82133624D01*
X79236784Y-82201544D01*
X79384354Y-82300147D01*
X79509853Y-82425646D01*
X79608456Y-82573216D01*
X79676376Y-82737188D01*
X79711000Y-82911259D01*
X79711000Y-83088741D01*
X79676376Y-83262812D01*
X79608456Y-83426784D01*
X79509853Y-83574354D01*
X79384354Y-83699853D01*
X79236784Y-83798456D01*
X79072812Y-83866376D01*
X78923512Y-83896073D01*
X78898742Y-83901000D01*
X78721258Y-83901000D01*
X78696488Y-83896073D01*
X78547188Y-83866376D01*
X78383216Y-83798456D01*
X78235646Y-83699853D01*
X78110147Y-83574354D01*
X78011544Y-83426784D01*
X77943624Y-83262812D01*
X77909000Y-83088741D01*
X77909000Y-82911259D01*
X77943624Y-82737188D01*
X78011544Y-82573216D01*
X78110147Y-82425646D01*
X78235646Y-82300147D01*
X78383216Y-82201544D01*
X78547188Y-82133624D01*
X78696488Y-82103927D01*
X78721258Y-82099000D01*
X78898742Y-82099000D01*
X78923512Y-82103927D01*
G37*
G36*
X76383512Y-82103927D02*
G01*
X76532812Y-82133624D01*
X76696784Y-82201544D01*
X76844354Y-82300147D01*
X76969853Y-82425646D01*
X77068456Y-82573216D01*
X77136376Y-82737188D01*
X77171000Y-82911259D01*
X77171000Y-83088741D01*
X77136376Y-83262812D01*
X77068456Y-83426784D01*
X76969853Y-83574354D01*
X76844354Y-83699853D01*
X76696784Y-83798456D01*
X76532812Y-83866376D01*
X76383512Y-83896073D01*
X76358742Y-83901000D01*
X76181258Y-83901000D01*
X76156488Y-83896073D01*
X76007188Y-83866376D01*
X75843216Y-83798456D01*
X75695646Y-83699853D01*
X75570147Y-83574354D01*
X75471544Y-83426784D01*
X75403624Y-83262812D01*
X75369000Y-83088741D01*
X75369000Y-82911259D01*
X75403624Y-82737188D01*
X75471544Y-82573216D01*
X75570147Y-82425646D01*
X75695646Y-82300147D01*
X75843216Y-82201544D01*
X76007188Y-82133624D01*
X76156488Y-82103927D01*
X76181258Y-82099000D01*
X76358742Y-82099000D01*
X76383512Y-82103927D01*
G37*
G36*
X76854468Y-69053565D02*
G01*
X76893138Y-69065296D01*
X76928777Y-69084346D01*
X76960017Y-69109983D01*
X76985654Y-69141223D01*
X77004704Y-69176862D01*
X77016435Y-69215532D01*
X77021000Y-69261888D01*
X77021000Y-69913112D01*
X77016435Y-69959468D01*
X77004704Y-69998138D01*
X76985654Y-70033777D01*
X76960017Y-70065017D01*
X76928777Y-70090654D01*
X76893138Y-70109704D01*
X76854468Y-70121435D01*
X76808112Y-70126000D01*
X75731888Y-70126000D01*
X75685532Y-70121435D01*
X75646862Y-70109704D01*
X75611223Y-70090654D01*
X75579983Y-70065017D01*
X75554346Y-70033777D01*
X75535296Y-69998138D01*
X75523565Y-69959468D01*
X75519000Y-69913112D01*
X75519000Y-69261888D01*
X75523565Y-69215532D01*
X75535296Y-69176862D01*
X75554346Y-69141223D01*
X75579983Y-69109983D01*
X75611223Y-69084346D01*
X75646862Y-69065296D01*
X75685532Y-69053565D01*
X75731888Y-69049000D01*
X76808112Y-69049000D01*
X76854468Y-69053565D01*
G37*
G36*
X79394468Y-69053565D02*
G01*
X79433138Y-69065296D01*
X79468777Y-69084346D01*
X79500017Y-69109983D01*
X79525654Y-69141223D01*
X79544704Y-69176862D01*
X79556435Y-69215532D01*
X79561000Y-69261888D01*
X79561000Y-69913112D01*
X79556435Y-69959468D01*
X79544704Y-69998138D01*
X79525654Y-70033777D01*
X79500017Y-70065017D01*
X79468777Y-70090654D01*
X79433138Y-70109704D01*
X79394468Y-70121435D01*
X79348112Y-70126000D01*
X78271888Y-70126000D01*
X78225532Y-70121435D01*
X78186862Y-70109704D01*
X78151223Y-70090654D01*
X78119983Y-70065017D01*
X78094346Y-70033777D01*
X78075296Y-69998138D01*
X78063565Y-69959468D01*
X78059000Y-69913112D01*
X78059000Y-69261888D01*
X78063565Y-69215532D01*
X78075296Y-69176862D01*
X78094346Y-69141223D01*
X78119983Y-69109983D01*
X78151223Y-69084346D01*
X78186862Y-69065296D01*
X78225532Y-69053565D01*
X78271888Y-69049000D01*
X79348112Y-69049000D01*
X79394468Y-69053565D01*
G37*
G36*
X74314468Y-69053565D02*
G01*
X74353138Y-69065296D01*
X74388777Y-69084346D01*
X74420017Y-69109983D01*
X74445654Y-69141223D01*
X74464704Y-69176862D01*
X74476435Y-69215532D01*
X74481000Y-69261888D01*
X74481000Y-69913112D01*
X74476435Y-69959468D01*
X74464704Y-69998138D01*
X74445654Y-70033777D01*
X74420017Y-70065017D01*
X74388777Y-70090654D01*
X74353138Y-70109704D01*
X74314468Y-70121435D01*
X74268112Y-70126000D01*
X73191888Y-70126000D01*
X73145532Y-70121435D01*
X73106862Y-70109704D01*
X73071223Y-70090654D01*
X73039983Y-70065017D01*
X73014346Y-70033777D01*
X72995296Y-69998138D01*
X72983565Y-69959468D01*
X72979000Y-69913112D01*
X72979000Y-69261888D01*
X72983565Y-69215532D01*
X72995296Y-69176862D01*
X73014346Y-69141223D01*
X73039983Y-69109983D01*
X73071223Y-69084346D01*
X73106862Y-69065296D01*
X73145532Y-69053565D01*
X73191888Y-69049000D01*
X74268112Y-69049000D01*
X74314468Y-69053565D01*
G37*
G36*
X76854468Y-67178565D02*
G01*
X76893138Y-67190296D01*
X76928777Y-67209346D01*
X76960017Y-67234983D01*
X76985654Y-67266223D01*
X77004704Y-67301862D01*
X77016435Y-67340532D01*
X77021000Y-67386888D01*
X77021000Y-68038112D01*
X77016435Y-68084468D01*
X77004704Y-68123138D01*
X76985654Y-68158777D01*
X76960017Y-68190017D01*
X76928777Y-68215654D01*
X76893138Y-68234704D01*
X76854468Y-68246435D01*
X76808112Y-68251000D01*
X75731888Y-68251000D01*
X75685532Y-68246435D01*
X75646862Y-68234704D01*
X75611223Y-68215654D01*
X75579983Y-68190017D01*
X75554346Y-68158777D01*
X75535296Y-68123138D01*
X75523565Y-68084468D01*
X75519000Y-68038112D01*
X75519000Y-67386888D01*
X75523565Y-67340532D01*
X75535296Y-67301862D01*
X75554346Y-67266223D01*
X75579983Y-67234983D01*
X75611223Y-67209346D01*
X75646862Y-67190296D01*
X75685532Y-67178565D01*
X75731888Y-67174000D01*
X76808112Y-67174000D01*
X76854468Y-67178565D01*
G37*
G36*
X79394468Y-67178565D02*
G01*
X79433138Y-67190296D01*
X79468777Y-67209346D01*
X79500017Y-67234983D01*
X79525654Y-67266223D01*
X79544704Y-67301862D01*
X79556435Y-67340532D01*
X79561000Y-67386888D01*
X79561000Y-68038112D01*
X79556435Y-68084468D01*
X79544704Y-68123138D01*
X79525654Y-68158777D01*
X79500017Y-68190017D01*
X79468777Y-68215654D01*
X79433138Y-68234704D01*
X79394468Y-68246435D01*
X79348112Y-68251000D01*
X78271888Y-68251000D01*
X78225532Y-68246435D01*
X78186862Y-68234704D01*
X78151223Y-68215654D01*
X78119983Y-68190017D01*
X78094346Y-68158777D01*
X78075296Y-68123138D01*
X78063565Y-68084468D01*
X78059000Y-68038112D01*
X78059000Y-67386888D01*
X78063565Y-67340532D01*
X78075296Y-67301862D01*
X78094346Y-67266223D01*
X78119983Y-67234983D01*
X78151223Y-67209346D01*
X78186862Y-67190296D01*
X78225532Y-67178565D01*
X78271888Y-67174000D01*
X79348112Y-67174000D01*
X79394468Y-67178565D01*
G37*
G36*
X74314468Y-67178565D02*
G01*
X74353138Y-67190296D01*
X74388777Y-67209346D01*
X74420017Y-67234983D01*
X74445654Y-67266223D01*
X74464704Y-67301862D01*
X74476435Y-67340532D01*
X74481000Y-67386888D01*
X74481000Y-68038112D01*
X74476435Y-68084468D01*
X74464704Y-68123138D01*
X74445654Y-68158777D01*
X74420017Y-68190017D01*
X74388777Y-68215654D01*
X74353138Y-68234704D01*
X74314468Y-68246435D01*
X74268112Y-68251000D01*
X73191888Y-68251000D01*
X73145532Y-68246435D01*
X73106862Y-68234704D01*
X73071223Y-68215654D01*
X73039983Y-68190017D01*
X73014346Y-68158777D01*
X72995296Y-68123138D01*
X72983565Y-68084468D01*
X72979000Y-68038112D01*
X72979000Y-67386888D01*
X72983565Y-67340532D01*
X72995296Y-67301862D01*
X73014346Y-67266223D01*
X73039983Y-67234983D01*
X73071223Y-67209346D01*
X73106862Y-67190296D01*
X73145532Y-67178565D01*
X73191888Y-67174000D01*
X74268112Y-67174000D01*
X74314468Y-67178565D01*
G37*
G36*
X79394468Y-63553565D02*
G01*
X79433138Y-63565296D01*
X79468777Y-63584346D01*
X79500017Y-63609983D01*
X79525654Y-63641223D01*
X79544704Y-63676862D01*
X79556435Y-63715532D01*
X79561000Y-63761888D01*
X79561000Y-64413112D01*
X79556435Y-64459468D01*
X79544704Y-64498138D01*
X79525654Y-64533777D01*
X79500017Y-64565017D01*
X79468777Y-64590654D01*
X79433138Y-64609704D01*
X79394468Y-64621435D01*
X79348112Y-64626000D01*
X78271888Y-64626000D01*
X78225532Y-64621435D01*
X78186862Y-64609704D01*
X78151223Y-64590654D01*
X78119983Y-64565017D01*
X78094346Y-64533777D01*
X78075296Y-64498138D01*
X78063565Y-64459468D01*
X78059000Y-64413112D01*
X78059000Y-63761888D01*
X78063565Y-63715532D01*
X78075296Y-63676862D01*
X78094346Y-63641223D01*
X78119983Y-63609983D01*
X78151223Y-63584346D01*
X78186862Y-63565296D01*
X78225532Y-63553565D01*
X78271888Y-63549000D01*
X79348112Y-63549000D01*
X79394468Y-63553565D01*
G37*
G36*
X61614468Y-63553565D02*
G01*
X61653138Y-63565296D01*
X61688777Y-63584346D01*
X61720017Y-63609983D01*
X61745654Y-63641223D01*
X61764704Y-63676862D01*
X61776435Y-63715532D01*
X61781000Y-63761888D01*
X61781000Y-64413112D01*
X61776435Y-64459468D01*
X61764704Y-64498138D01*
X61745654Y-64533777D01*
X61720017Y-64565017D01*
X61688777Y-64590654D01*
X61653138Y-64609704D01*
X61614468Y-64621435D01*
X61568112Y-64626000D01*
X60491888Y-64626000D01*
X60445532Y-64621435D01*
X60406862Y-64609704D01*
X60371223Y-64590654D01*
X60339983Y-64565017D01*
X60314346Y-64533777D01*
X60295296Y-64498138D01*
X60283565Y-64459468D01*
X60279000Y-64413112D01*
X60279000Y-63761888D01*
X60283565Y-63715532D01*
X60295296Y-63676862D01*
X60314346Y-63641223D01*
X60339983Y-63609983D01*
X60371223Y-63584346D01*
X60406862Y-63565296D01*
X60445532Y-63553565D01*
X60491888Y-63549000D01*
X61568112Y-63549000D01*
X61614468Y-63553565D01*
G37*
G36*
X64154468Y-63553565D02*
G01*
X64193138Y-63565296D01*
X64228777Y-63584346D01*
X64260017Y-63609983D01*
X64285654Y-63641223D01*
X64304704Y-63676862D01*
X64316435Y-63715532D01*
X64321000Y-63761888D01*
X64321000Y-64413112D01*
X64316435Y-64459468D01*
X64304704Y-64498138D01*
X64285654Y-64533777D01*
X64260017Y-64565017D01*
X64228777Y-64590654D01*
X64193138Y-64609704D01*
X64154468Y-64621435D01*
X64108112Y-64626000D01*
X63031888Y-64626000D01*
X62985532Y-64621435D01*
X62946862Y-64609704D01*
X62911223Y-64590654D01*
X62879983Y-64565017D01*
X62854346Y-64533777D01*
X62835296Y-64498138D01*
X62823565Y-64459468D01*
X62819000Y-64413112D01*
X62819000Y-63761888D01*
X62823565Y-63715532D01*
X62835296Y-63676862D01*
X62854346Y-63641223D01*
X62879983Y-63609983D01*
X62911223Y-63584346D01*
X62946862Y-63565296D01*
X62985532Y-63553565D01*
X63031888Y-63549000D01*
X64108112Y-63549000D01*
X64154468Y-63553565D01*
G37*
G36*
X66694468Y-63553565D02*
G01*
X66733138Y-63565296D01*
X66768777Y-63584346D01*
X66800017Y-63609983D01*
X66825654Y-63641223D01*
X66844704Y-63676862D01*
X66856435Y-63715532D01*
X66861000Y-63761888D01*
X66861000Y-64413112D01*
X66856435Y-64459468D01*
X66844704Y-64498138D01*
X66825654Y-64533777D01*
X66800017Y-64565017D01*
X66768777Y-64590654D01*
X66733138Y-64609704D01*
X66694468Y-64621435D01*
X66648112Y-64626000D01*
X65571888Y-64626000D01*
X65525532Y-64621435D01*
X65486862Y-64609704D01*
X65451223Y-64590654D01*
X65419983Y-64565017D01*
X65394346Y-64533777D01*
X65375296Y-64498138D01*
X65363565Y-64459468D01*
X65359000Y-64413112D01*
X65359000Y-63761888D01*
X65363565Y-63715532D01*
X65375296Y-63676862D01*
X65394346Y-63641223D01*
X65419983Y-63609983D01*
X65451223Y-63584346D01*
X65486862Y-63565296D01*
X65525532Y-63553565D01*
X65571888Y-63549000D01*
X66648112Y-63549000D01*
X66694468Y-63553565D01*
G37*
G36*
X76854468Y-63553565D02*
G01*
X76893138Y-63565296D01*
X76928777Y-63584346D01*
X76960017Y-63609983D01*
X76985654Y-63641223D01*
X77004704Y-63676862D01*
X77016435Y-63715532D01*
X77021000Y-63761888D01*
X77021000Y-64413112D01*
X77016435Y-64459468D01*
X77004704Y-64498138D01*
X76985654Y-64533777D01*
X76960017Y-64565017D01*
X76928777Y-64590654D01*
X76893138Y-64609704D01*
X76854468Y-64621435D01*
X76808112Y-64626000D01*
X75731888Y-64626000D01*
X75685532Y-64621435D01*
X75646862Y-64609704D01*
X75611223Y-64590654D01*
X75579983Y-64565017D01*
X75554346Y-64533777D01*
X75535296Y-64498138D01*
X75523565Y-64459468D01*
X75519000Y-64413112D01*
X75519000Y-63761888D01*
X75523565Y-63715532D01*
X75535296Y-63676862D01*
X75554346Y-63641223D01*
X75579983Y-63609983D01*
X75611223Y-63584346D01*
X75646862Y-63565296D01*
X75685532Y-63553565D01*
X75731888Y-63549000D01*
X76808112Y-63549000D01*
X76854468Y-63553565D01*
G37*
G36*
X74314468Y-63553565D02*
G01*
X74353138Y-63565296D01*
X74388777Y-63584346D01*
X74420017Y-63609983D01*
X74445654Y-63641223D01*
X74464704Y-63676862D01*
X74476435Y-63715532D01*
X74481000Y-63761888D01*
X74481000Y-64413112D01*
X74476435Y-64459468D01*
X74464704Y-64498138D01*
X74445654Y-64533777D01*
X74420017Y-64565017D01*
X74388777Y-64590654D01*
X74353138Y-64609704D01*
X74314468Y-64621435D01*
X74268112Y-64626000D01*
X73191888Y-64626000D01*
X73145532Y-64621435D01*
X73106862Y-64609704D01*
X73071223Y-64590654D01*
X73039983Y-64565017D01*
X73014346Y-64533777D01*
X72995296Y-64498138D01*
X72983565Y-64459468D01*
X72979000Y-64413112D01*
X72979000Y-63761888D01*
X72983565Y-63715532D01*
X72995296Y-63676862D01*
X73014346Y-63641223D01*
X73039983Y-63609983D01*
X73071223Y-63584346D01*
X73106862Y-63565296D01*
X73145532Y-63553565D01*
X73191888Y-63549000D01*
X74268112Y-63549000D01*
X74314468Y-63553565D01*
G37*
G36*
X71774468Y-63553565D02*
G01*
X71813138Y-63565296D01*
X71848777Y-63584346D01*
X71880017Y-63609983D01*
X71905654Y-63641223D01*
X71924704Y-63676862D01*
X71936435Y-63715532D01*
X71941000Y-63761888D01*
X71941000Y-64413112D01*
X71936435Y-64459468D01*
X71924704Y-64498138D01*
X71905654Y-64533777D01*
X71880017Y-64565017D01*
X71848777Y-64590654D01*
X71813138Y-64609704D01*
X71774468Y-64621435D01*
X71728112Y-64626000D01*
X70651888Y-64626000D01*
X70605532Y-64621435D01*
X70566862Y-64609704D01*
X70531223Y-64590654D01*
X70499983Y-64565017D01*
X70474346Y-64533777D01*
X70455296Y-64498138D01*
X70443565Y-64459468D01*
X70439000Y-64413112D01*
X70439000Y-63761888D01*
X70443565Y-63715532D01*
X70455296Y-63676862D01*
X70474346Y-63641223D01*
X70499983Y-63609983D01*
X70531223Y-63584346D01*
X70566862Y-63565296D01*
X70605532Y-63553565D01*
X70651888Y-63549000D01*
X71728112Y-63549000D01*
X71774468Y-63553565D01*
G37*
G36*
X69234468Y-63553565D02*
G01*
X69273138Y-63565296D01*
X69308777Y-63584346D01*
X69340017Y-63609983D01*
X69365654Y-63641223D01*
X69384704Y-63676862D01*
X69396435Y-63715532D01*
X69401000Y-63761888D01*
X69401000Y-64413112D01*
X69396435Y-64459468D01*
X69384704Y-64498138D01*
X69365654Y-64533777D01*
X69340017Y-64565017D01*
X69308777Y-64590654D01*
X69273138Y-64609704D01*
X69234468Y-64621435D01*
X69188112Y-64626000D01*
X68111888Y-64626000D01*
X68065532Y-64621435D01*
X68026862Y-64609704D01*
X67991223Y-64590654D01*
X67959983Y-64565017D01*
X67934346Y-64533777D01*
X67915296Y-64498138D01*
X67903565Y-64459468D01*
X67899000Y-64413112D01*
X67899000Y-63761888D01*
X67903565Y-63715532D01*
X67915296Y-63676862D01*
X67934346Y-63641223D01*
X67959983Y-63609983D01*
X67991223Y-63584346D01*
X68026862Y-63565296D01*
X68065532Y-63553565D01*
X68111888Y-63549000D01*
X69188112Y-63549000D01*
X69234468Y-63553565D01*
G37*
G36*
X71774468Y-61678565D02*
G01*
X71813138Y-61690296D01*
X71848777Y-61709346D01*
X71880017Y-61734983D01*
X71905654Y-61766223D01*
X71924704Y-61801862D01*
X71936435Y-61840532D01*
X71941000Y-61886888D01*
X71941000Y-62538112D01*
X71936435Y-62584468D01*
X71924704Y-62623138D01*
X71905654Y-62658777D01*
X71880017Y-62690017D01*
X71848777Y-62715654D01*
X71813138Y-62734704D01*
X71774468Y-62746435D01*
X71728112Y-62751000D01*
X70651888Y-62751000D01*
X70605532Y-62746435D01*
X70566862Y-62734704D01*
X70531223Y-62715654D01*
X70499983Y-62690017D01*
X70474346Y-62658777D01*
X70455296Y-62623138D01*
X70443565Y-62584468D01*
X70439000Y-62538112D01*
X70439000Y-61886888D01*
X70443565Y-61840532D01*
X70455296Y-61801862D01*
X70474346Y-61766223D01*
X70499983Y-61734983D01*
X70531223Y-61709346D01*
X70566862Y-61690296D01*
X70605532Y-61678565D01*
X70651888Y-61674000D01*
X71728112Y-61674000D01*
X71774468Y-61678565D01*
G37*
G36*
X64154468Y-61678565D02*
G01*
X64193138Y-61690296D01*
X64228777Y-61709346D01*
X64260017Y-61734983D01*
X64285654Y-61766223D01*
X64304704Y-61801862D01*
X64316435Y-61840532D01*
X64321000Y-61886888D01*
X64321000Y-62538112D01*
X64316435Y-62584468D01*
X64304704Y-62623138D01*
X64285654Y-62658777D01*
X64260017Y-62690017D01*
X64228777Y-62715654D01*
X64193138Y-62734704D01*
X64154468Y-62746435D01*
X64108112Y-62751000D01*
X63031888Y-62751000D01*
X62985532Y-62746435D01*
X62946862Y-62734704D01*
X62911223Y-62715654D01*
X62879983Y-62690017D01*
X62854346Y-62658777D01*
X62835296Y-62623138D01*
X62823565Y-62584468D01*
X62819000Y-62538112D01*
X62819000Y-61886888D01*
X62823565Y-61840532D01*
X62835296Y-61801862D01*
X62854346Y-61766223D01*
X62879983Y-61734983D01*
X62911223Y-61709346D01*
X62946862Y-61690296D01*
X62985532Y-61678565D01*
X63031888Y-61674000D01*
X64108112Y-61674000D01*
X64154468Y-61678565D01*
G37*
G36*
X66694468Y-61678565D02*
G01*
X66733138Y-61690296D01*
X66768777Y-61709346D01*
X66800017Y-61734983D01*
X66825654Y-61766223D01*
X66844704Y-61801862D01*
X66856435Y-61840532D01*
X66861000Y-61886888D01*
X66861000Y-62538112D01*
X66856435Y-62584468D01*
X66844704Y-62623138D01*
X66825654Y-62658777D01*
X66800017Y-62690017D01*
X66768777Y-62715654D01*
X66733138Y-62734704D01*
X66694468Y-62746435D01*
X66648112Y-62751000D01*
X65571888Y-62751000D01*
X65525532Y-62746435D01*
X65486862Y-62734704D01*
X65451223Y-62715654D01*
X65419983Y-62690017D01*
X65394346Y-62658777D01*
X65375296Y-62623138D01*
X65363565Y-62584468D01*
X65359000Y-62538112D01*
X65359000Y-61886888D01*
X65363565Y-61840532D01*
X65375296Y-61801862D01*
X65394346Y-61766223D01*
X65419983Y-61734983D01*
X65451223Y-61709346D01*
X65486862Y-61690296D01*
X65525532Y-61678565D01*
X65571888Y-61674000D01*
X66648112Y-61674000D01*
X66694468Y-61678565D01*
G37*
G36*
X69234468Y-61678565D02*
G01*
X69273138Y-61690296D01*
X69308777Y-61709346D01*
X69340017Y-61734983D01*
X69365654Y-61766223D01*
X69384704Y-61801862D01*
X69396435Y-61840532D01*
X69401000Y-61886888D01*
X69401000Y-62538112D01*
X69396435Y-62584468D01*
X69384704Y-62623138D01*
X69365654Y-62658777D01*
X69340017Y-62690017D01*
X69308777Y-62715654D01*
X69273138Y-62734704D01*
X69234468Y-62746435D01*
X69188112Y-62751000D01*
X68111888Y-62751000D01*
X68065532Y-62746435D01*
X68026862Y-62734704D01*
X67991223Y-62715654D01*
X67959983Y-62690017D01*
X67934346Y-62658777D01*
X67915296Y-62623138D01*
X67903565Y-62584468D01*
X67899000Y-62538112D01*
X67899000Y-61886888D01*
X67903565Y-61840532D01*
X67915296Y-61801862D01*
X67934346Y-61766223D01*
X67959983Y-61734983D01*
X67991223Y-61709346D01*
X68026862Y-61690296D01*
X68065532Y-61678565D01*
X68111888Y-61674000D01*
X69188112Y-61674000D01*
X69234468Y-61678565D01*
G37*
G36*
X74314468Y-61678565D02*
G01*
X74353138Y-61690296D01*
X74388777Y-61709346D01*
X74420017Y-61734983D01*
X74445654Y-61766223D01*
X74464704Y-61801862D01*
X74476435Y-61840532D01*
X74481000Y-61886888D01*
X74481000Y-62538112D01*
X74476435Y-62584468D01*
X74464704Y-62623138D01*
X74445654Y-62658777D01*
X74420017Y-62690017D01*
X74388777Y-62715654D01*
X74353138Y-62734704D01*
X74314468Y-62746435D01*
X74268112Y-62751000D01*
X73191888Y-62751000D01*
X73145532Y-62746435D01*
X73106862Y-62734704D01*
X73071223Y-62715654D01*
X73039983Y-62690017D01*
X73014346Y-62658777D01*
X72995296Y-62623138D01*
X72983565Y-62584468D01*
X72979000Y-62538112D01*
X72979000Y-61886888D01*
X72983565Y-61840532D01*
X72995296Y-61801862D01*
X73014346Y-61766223D01*
X73039983Y-61734983D01*
X73071223Y-61709346D01*
X73106862Y-61690296D01*
X73145532Y-61678565D01*
X73191888Y-61674000D01*
X74268112Y-61674000D01*
X74314468Y-61678565D01*
G37*
G36*
X76854468Y-61678565D02*
G01*
X76893138Y-61690296D01*
X76928777Y-61709346D01*
X76960017Y-61734983D01*
X76985654Y-61766223D01*
X77004704Y-61801862D01*
X77016435Y-61840532D01*
X77021000Y-61886888D01*
X77021000Y-62538112D01*
X77016435Y-62584468D01*
X77004704Y-62623138D01*
X76985654Y-62658777D01*
X76960017Y-62690017D01*
X76928777Y-62715654D01*
X76893138Y-62734704D01*
X76854468Y-62746435D01*
X76808112Y-62751000D01*
X75731888Y-62751000D01*
X75685532Y-62746435D01*
X75646862Y-62734704D01*
X75611223Y-62715654D01*
X75579983Y-62690017D01*
X75554346Y-62658777D01*
X75535296Y-62623138D01*
X75523565Y-62584468D01*
X75519000Y-62538112D01*
X75519000Y-61886888D01*
X75523565Y-61840532D01*
X75535296Y-61801862D01*
X75554346Y-61766223D01*
X75579983Y-61734983D01*
X75611223Y-61709346D01*
X75646862Y-61690296D01*
X75685532Y-61678565D01*
X75731888Y-61674000D01*
X76808112Y-61674000D01*
X76854468Y-61678565D01*
G37*
G36*
X79394468Y-61678565D02*
G01*
X79433138Y-61690296D01*
X79468777Y-61709346D01*
X79500017Y-61734983D01*
X79525654Y-61766223D01*
X79544704Y-61801862D01*
X79556435Y-61840532D01*
X79561000Y-61886888D01*
X79561000Y-62538112D01*
X79556435Y-62584468D01*
X79544704Y-62623138D01*
X79525654Y-62658777D01*
X79500017Y-62690017D01*
X79468777Y-62715654D01*
X79433138Y-62734704D01*
X79394468Y-62746435D01*
X79348112Y-62751000D01*
X78271888Y-62751000D01*
X78225532Y-62746435D01*
X78186862Y-62734704D01*
X78151223Y-62715654D01*
X78119983Y-62690017D01*
X78094346Y-62658777D01*
X78075296Y-62623138D01*
X78063565Y-62584468D01*
X78059000Y-62538112D01*
X78059000Y-61886888D01*
X78063565Y-61840532D01*
X78075296Y-61801862D01*
X78094346Y-61766223D01*
X78119983Y-61734983D01*
X78151223Y-61709346D01*
X78186862Y-61690296D01*
X78225532Y-61678565D01*
X78271888Y-61674000D01*
X79348112Y-61674000D01*
X79394468Y-61678565D01*
G37*
G36*
X61614468Y-61678565D02*
G01*
X61653138Y-61690296D01*
X61688777Y-61709346D01*
X61720017Y-61734983D01*
X61745654Y-61766223D01*
X61764704Y-61801862D01*
X61776435Y-61840532D01*
X61781000Y-61886888D01*
X61781000Y-62538112D01*
X61776435Y-62584468D01*
X61764704Y-62623138D01*
X61745654Y-62658777D01*
X61720017Y-62690017D01*
X61688777Y-62715654D01*
X61653138Y-62734704D01*
X61614468Y-62746435D01*
X61568112Y-62751000D01*
X60491888Y-62751000D01*
X60445532Y-62746435D01*
X60406862Y-62734704D01*
X60371223Y-62715654D01*
X60339983Y-62690017D01*
X60314346Y-62658777D01*
X60295296Y-62623138D01*
X60283565Y-62584468D01*
X60279000Y-62538112D01*
X60279000Y-61886888D01*
X60283565Y-61840532D01*
X60295296Y-61801862D01*
X60314346Y-61766223D01*
X60339983Y-61734983D01*
X60371223Y-61709346D01*
X60406862Y-61690296D01*
X60445532Y-61678565D01*
X60491888Y-61674000D01*
X61568112Y-61674000D01*
X61614468Y-61678565D01*
G37*
G36*
X66694468Y-59743565D02*
G01*
X66733138Y-59755296D01*
X66768777Y-59774346D01*
X66800017Y-59799983D01*
X66825654Y-59831223D01*
X66844704Y-59866862D01*
X66856435Y-59905532D01*
X66861000Y-59951888D01*
X66861000Y-60603112D01*
X66856435Y-60649468D01*
X66844704Y-60688138D01*
X66825654Y-60723777D01*
X66800017Y-60755017D01*
X66768777Y-60780654D01*
X66733138Y-60799704D01*
X66694468Y-60811435D01*
X66648112Y-60816000D01*
X65571888Y-60816000D01*
X65525532Y-60811435D01*
X65486862Y-60799704D01*
X65451223Y-60780654D01*
X65419983Y-60755017D01*
X65394346Y-60723777D01*
X65375296Y-60688138D01*
X65363565Y-60649468D01*
X65359000Y-60603112D01*
X65359000Y-59951888D01*
X65363565Y-59905532D01*
X65375296Y-59866862D01*
X65394346Y-59831223D01*
X65419983Y-59799983D01*
X65451223Y-59774346D01*
X65486862Y-59755296D01*
X65525532Y-59743565D01*
X65571888Y-59739000D01*
X66648112Y-59739000D01*
X66694468Y-59743565D01*
G37*
G36*
X61614468Y-59743565D02*
G01*
X61653138Y-59755296D01*
X61688777Y-59774346D01*
X61720017Y-59799983D01*
X61745654Y-59831223D01*
X61764704Y-59866862D01*
X61776435Y-59905532D01*
X61781000Y-59951888D01*
X61781000Y-60603112D01*
X61776435Y-60649468D01*
X61764704Y-60688138D01*
X61745654Y-60723777D01*
X61720017Y-60755017D01*
X61688777Y-60780654D01*
X61653138Y-60799704D01*
X61614468Y-60811435D01*
X61568112Y-60816000D01*
X60491888Y-60816000D01*
X60445532Y-60811435D01*
X60406862Y-60799704D01*
X60371223Y-60780654D01*
X60339983Y-60755017D01*
X60314346Y-60723777D01*
X60295296Y-60688138D01*
X60283565Y-60649468D01*
X60279000Y-60603112D01*
X60279000Y-59951888D01*
X60283565Y-59905532D01*
X60295296Y-59866862D01*
X60314346Y-59831223D01*
X60339983Y-59799983D01*
X60371223Y-59774346D01*
X60406862Y-59755296D01*
X60445532Y-59743565D01*
X60491888Y-59739000D01*
X61568112Y-59739000D01*
X61614468Y-59743565D01*
G37*
G36*
X64154468Y-59743565D02*
G01*
X64193138Y-59755296D01*
X64228777Y-59774346D01*
X64260017Y-59799983D01*
X64285654Y-59831223D01*
X64304704Y-59866862D01*
X64316435Y-59905532D01*
X64321000Y-59951888D01*
X64321000Y-60603112D01*
X64316435Y-60649468D01*
X64304704Y-60688138D01*
X64285654Y-60723777D01*
X64260017Y-60755017D01*
X64228777Y-60780654D01*
X64193138Y-60799704D01*
X64154468Y-60811435D01*
X64108112Y-60816000D01*
X63031888Y-60816000D01*
X62985532Y-60811435D01*
X62946862Y-60799704D01*
X62911223Y-60780654D01*
X62879983Y-60755017D01*
X62854346Y-60723777D01*
X62835296Y-60688138D01*
X62823565Y-60649468D01*
X62819000Y-60603112D01*
X62819000Y-59951888D01*
X62823565Y-59905532D01*
X62835296Y-59866862D01*
X62854346Y-59831223D01*
X62879983Y-59799983D01*
X62911223Y-59774346D01*
X62946862Y-59755296D01*
X62985532Y-59743565D01*
X63031888Y-59739000D01*
X64108112Y-59739000D01*
X64154468Y-59743565D01*
G37*
G36*
X74314468Y-59743565D02*
G01*
X74353138Y-59755296D01*
X74388777Y-59774346D01*
X74420017Y-59799983D01*
X74445654Y-59831223D01*
X74464704Y-59866862D01*
X74476435Y-59905532D01*
X74481000Y-59951888D01*
X74481000Y-60603112D01*
X74476435Y-60649468D01*
X74464704Y-60688138D01*
X74445654Y-60723777D01*
X74420017Y-60755017D01*
X74388777Y-60780654D01*
X74353138Y-60799704D01*
X74314468Y-60811435D01*
X74268112Y-60816000D01*
X73191888Y-60816000D01*
X73145532Y-60811435D01*
X73106862Y-60799704D01*
X73071223Y-60780654D01*
X73039983Y-60755017D01*
X73014346Y-60723777D01*
X72995296Y-60688138D01*
X72983565Y-60649468D01*
X72979000Y-60603112D01*
X72979000Y-59951888D01*
X72983565Y-59905532D01*
X72995296Y-59866862D01*
X73014346Y-59831223D01*
X73039983Y-59799983D01*
X73071223Y-59774346D01*
X73106862Y-59755296D01*
X73145532Y-59743565D01*
X73191888Y-59739000D01*
X74268112Y-59739000D01*
X74314468Y-59743565D01*
G37*
G36*
X79394468Y-59743565D02*
G01*
X79433138Y-59755296D01*
X79468777Y-59774346D01*
X79500017Y-59799983D01*
X79525654Y-59831223D01*
X79544704Y-59866862D01*
X79556435Y-59905532D01*
X79561000Y-59951888D01*
X79561000Y-60603112D01*
X79556435Y-60649468D01*
X79544704Y-60688138D01*
X79525654Y-60723777D01*
X79500017Y-60755017D01*
X79468777Y-60780654D01*
X79433138Y-60799704D01*
X79394468Y-60811435D01*
X79348112Y-60816000D01*
X78271888Y-60816000D01*
X78225532Y-60811435D01*
X78186862Y-60799704D01*
X78151223Y-60780654D01*
X78119983Y-60755017D01*
X78094346Y-60723777D01*
X78075296Y-60688138D01*
X78063565Y-60649468D01*
X78059000Y-60603112D01*
X78059000Y-59951888D01*
X78063565Y-59905532D01*
X78075296Y-59866862D01*
X78094346Y-59831223D01*
X78119983Y-59799983D01*
X78151223Y-59774346D01*
X78186862Y-59755296D01*
X78225532Y-59743565D01*
X78271888Y-59739000D01*
X79348112Y-59739000D01*
X79394468Y-59743565D01*
G37*
G36*
X76854468Y-59743565D02*
G01*
X76893138Y-59755296D01*
X76928777Y-59774346D01*
X76960017Y-59799983D01*
X76985654Y-59831223D01*
X77004704Y-59866862D01*
X77016435Y-59905532D01*
X77021000Y-59951888D01*
X77021000Y-60603112D01*
X77016435Y-60649468D01*
X77004704Y-60688138D01*
X76985654Y-60723777D01*
X76960017Y-60755017D01*
X76928777Y-60780654D01*
X76893138Y-60799704D01*
X76854468Y-60811435D01*
X76808112Y-60816000D01*
X75731888Y-60816000D01*
X75685532Y-60811435D01*
X75646862Y-60799704D01*
X75611223Y-60780654D01*
X75579983Y-60755017D01*
X75554346Y-60723777D01*
X75535296Y-60688138D01*
X75523565Y-60649468D01*
X75519000Y-60603112D01*
X75519000Y-59951888D01*
X75523565Y-59905532D01*
X75535296Y-59866862D01*
X75554346Y-59831223D01*
X75579983Y-59799983D01*
X75611223Y-59774346D01*
X75646862Y-59755296D01*
X75685532Y-59743565D01*
X75731888Y-59739000D01*
X76808112Y-59739000D01*
X76854468Y-59743565D01*
G37*
G36*
X64154468Y-57868565D02*
G01*
X64193138Y-57880296D01*
X64228777Y-57899346D01*
X64260017Y-57924983D01*
X64285654Y-57956223D01*
X64304704Y-57991862D01*
X64316435Y-58030532D01*
X64321000Y-58076888D01*
X64321000Y-58728112D01*
X64316435Y-58774468D01*
X64304704Y-58813138D01*
X64285654Y-58848777D01*
X64260017Y-58880017D01*
X64228777Y-58905654D01*
X64193138Y-58924704D01*
X64154468Y-58936435D01*
X64108112Y-58941000D01*
X63031888Y-58941000D01*
X62985532Y-58936435D01*
X62946862Y-58924704D01*
X62911223Y-58905654D01*
X62879983Y-58880017D01*
X62854346Y-58848777D01*
X62835296Y-58813138D01*
X62823565Y-58774468D01*
X62819000Y-58728112D01*
X62819000Y-58076888D01*
X62823565Y-58030532D01*
X62835296Y-57991862D01*
X62854346Y-57956223D01*
X62879983Y-57924983D01*
X62911223Y-57899346D01*
X62946862Y-57880296D01*
X62985532Y-57868565D01*
X63031888Y-57864000D01*
X64108112Y-57864000D01*
X64154468Y-57868565D01*
G37*
G36*
X79394468Y-57868565D02*
G01*
X79433138Y-57880296D01*
X79468777Y-57899346D01*
X79500017Y-57924983D01*
X79525654Y-57956223D01*
X79544704Y-57991862D01*
X79556435Y-58030532D01*
X79561000Y-58076888D01*
X79561000Y-58728112D01*
X79556435Y-58774468D01*
X79544704Y-58813138D01*
X79525654Y-58848777D01*
X79500017Y-58880017D01*
X79468777Y-58905654D01*
X79433138Y-58924704D01*
X79394468Y-58936435D01*
X79348112Y-58941000D01*
X78271888Y-58941000D01*
X78225532Y-58936435D01*
X78186862Y-58924704D01*
X78151223Y-58905654D01*
X78119983Y-58880017D01*
X78094346Y-58848777D01*
X78075296Y-58813138D01*
X78063565Y-58774468D01*
X78059000Y-58728112D01*
X78059000Y-58076888D01*
X78063565Y-58030532D01*
X78075296Y-57991862D01*
X78094346Y-57956223D01*
X78119983Y-57924983D01*
X78151223Y-57899346D01*
X78186862Y-57880296D01*
X78225532Y-57868565D01*
X78271888Y-57864000D01*
X79348112Y-57864000D01*
X79394468Y-57868565D01*
G37*
G36*
X76854468Y-57868565D02*
G01*
X76893138Y-57880296D01*
X76928777Y-57899346D01*
X76960017Y-57924983D01*
X76985654Y-57956223D01*
X77004704Y-57991862D01*
X77016435Y-58030532D01*
X77021000Y-58076888D01*
X77021000Y-58728112D01*
X77016435Y-58774468D01*
X77004704Y-58813138D01*
X76985654Y-58848777D01*
X76960017Y-58880017D01*
X76928777Y-58905654D01*
X76893138Y-58924704D01*
X76854468Y-58936435D01*
X76808112Y-58941000D01*
X75731888Y-58941000D01*
X75685532Y-58936435D01*
X75646862Y-58924704D01*
X75611223Y-58905654D01*
X75579983Y-58880017D01*
X75554346Y-58848777D01*
X75535296Y-58813138D01*
X75523565Y-58774468D01*
X75519000Y-58728112D01*
X75519000Y-58076888D01*
X75523565Y-58030532D01*
X75535296Y-57991862D01*
X75554346Y-57956223D01*
X75579983Y-57924983D01*
X75611223Y-57899346D01*
X75646862Y-57880296D01*
X75685532Y-57868565D01*
X75731888Y-57864000D01*
X76808112Y-57864000D01*
X76854468Y-57868565D01*
G37*
G36*
X74314468Y-57868565D02*
G01*
X74353138Y-57880296D01*
X74388777Y-57899346D01*
X74420017Y-57924983D01*
X74445654Y-57956223D01*
X74464704Y-57991862D01*
X74476435Y-58030532D01*
X74481000Y-58076888D01*
X74481000Y-58728112D01*
X74476435Y-58774468D01*
X74464704Y-58813138D01*
X74445654Y-58848777D01*
X74420017Y-58880017D01*
X74388777Y-58905654D01*
X74353138Y-58924704D01*
X74314468Y-58936435D01*
X74268112Y-58941000D01*
X73191888Y-58941000D01*
X73145532Y-58936435D01*
X73106862Y-58924704D01*
X73071223Y-58905654D01*
X73039983Y-58880017D01*
X73014346Y-58848777D01*
X72995296Y-58813138D01*
X72983565Y-58774468D01*
X72979000Y-58728112D01*
X72979000Y-58076888D01*
X72983565Y-58030532D01*
X72995296Y-57991862D01*
X73014346Y-57956223D01*
X73039983Y-57924983D01*
X73071223Y-57899346D01*
X73106862Y-57880296D01*
X73145532Y-57868565D01*
X73191888Y-57864000D01*
X74268112Y-57864000D01*
X74314468Y-57868565D01*
G37*
G36*
X66694468Y-57868565D02*
G01*
X66733138Y-57880296D01*
X66768777Y-57899346D01*
X66800017Y-57924983D01*
X66825654Y-57956223D01*
X66844704Y-57991862D01*
X66856435Y-58030532D01*
X66861000Y-58076888D01*
X66861000Y-58728112D01*
X66856435Y-58774468D01*
X66844704Y-58813138D01*
X66825654Y-58848777D01*
X66800017Y-58880017D01*
X66768777Y-58905654D01*
X66733138Y-58924704D01*
X66694468Y-58936435D01*
X66648112Y-58941000D01*
X65571888Y-58941000D01*
X65525532Y-58936435D01*
X65486862Y-58924704D01*
X65451223Y-58905654D01*
X65419983Y-58880017D01*
X65394346Y-58848777D01*
X65375296Y-58813138D01*
X65363565Y-58774468D01*
X65359000Y-58728112D01*
X65359000Y-58076888D01*
X65363565Y-58030532D01*
X65375296Y-57991862D01*
X65394346Y-57956223D01*
X65419983Y-57924983D01*
X65451223Y-57899346D01*
X65486862Y-57880296D01*
X65525532Y-57868565D01*
X65571888Y-57864000D01*
X66648112Y-57864000D01*
X66694468Y-57868565D01*
G37*
G36*
X61614468Y-57868565D02*
G01*
X61653138Y-57880296D01*
X61688777Y-57899346D01*
X61720017Y-57924983D01*
X61745654Y-57956223D01*
X61764704Y-57991862D01*
X61776435Y-58030532D01*
X61781000Y-58076888D01*
X61781000Y-58728112D01*
X61776435Y-58774468D01*
X61764704Y-58813138D01*
X61745654Y-58848777D01*
X61720017Y-58880017D01*
X61688777Y-58905654D01*
X61653138Y-58924704D01*
X61614468Y-58936435D01*
X61568112Y-58941000D01*
X60491888Y-58941000D01*
X60445532Y-58936435D01*
X60406862Y-58924704D01*
X60371223Y-58905654D01*
X60339983Y-58880017D01*
X60314346Y-58848777D01*
X60295296Y-58813138D01*
X60283565Y-58774468D01*
X60279000Y-58728112D01*
X60279000Y-58076888D01*
X60283565Y-58030532D01*
X60295296Y-57991862D01*
X60314346Y-57956223D01*
X60339983Y-57924983D01*
X60371223Y-57899346D01*
X60406862Y-57880296D01*
X60445532Y-57868565D01*
X60491888Y-57864000D01*
X61568112Y-57864000D01*
X61614468Y-57868565D01*
G37*
G36*
X71434468Y-49753565D02*
G01*
X71473138Y-49765296D01*
X71508777Y-49784346D01*
X71540017Y-49809983D01*
X71565654Y-49841223D01*
X71584704Y-49876862D01*
X71596435Y-49915532D01*
X71601000Y-49961888D01*
X71601000Y-51038112D01*
X71596435Y-51084468D01*
X71584704Y-51123138D01*
X71565654Y-51158777D01*
X71540017Y-51190017D01*
X71508777Y-51215654D01*
X71473138Y-51234704D01*
X71434468Y-51246435D01*
X71388112Y-51251000D01*
X70736888Y-51251000D01*
X70690532Y-51246435D01*
X70651862Y-51234704D01*
X70616223Y-51215654D01*
X70584983Y-51190017D01*
X70559346Y-51158777D01*
X70540296Y-51123138D01*
X70528565Y-51084468D01*
X70524000Y-51038112D01*
X70524000Y-49961888D01*
X70528565Y-49915532D01*
X70540296Y-49876862D01*
X70559346Y-49841223D01*
X70584983Y-49809983D01*
X70616223Y-49784346D01*
X70651862Y-49765296D01*
X70690532Y-49753565D01*
X70736888Y-49749000D01*
X71388112Y-49749000D01*
X71434468Y-49753565D01*
G37*
G36*
X66434468Y-49753565D02*
G01*
X66473138Y-49765296D01*
X66508777Y-49784346D01*
X66540017Y-49809983D01*
X66565654Y-49841223D01*
X66584704Y-49876862D01*
X66596435Y-49915532D01*
X66601000Y-49961888D01*
X66601000Y-51038112D01*
X66596435Y-51084468D01*
X66584704Y-51123138D01*
X66565654Y-51158777D01*
X66540017Y-51190017D01*
X66508777Y-51215654D01*
X66473138Y-51234704D01*
X66434468Y-51246435D01*
X66388112Y-51251000D01*
X65736888Y-51251000D01*
X65690532Y-51246435D01*
X65651862Y-51234704D01*
X65616223Y-51215654D01*
X65584983Y-51190017D01*
X65559346Y-51158777D01*
X65540296Y-51123138D01*
X65528565Y-51084468D01*
X65524000Y-51038112D01*
X65524000Y-49961888D01*
X65528565Y-49915532D01*
X65540296Y-49876862D01*
X65559346Y-49841223D01*
X65584983Y-49809983D01*
X65616223Y-49784346D01*
X65651862Y-49765296D01*
X65690532Y-49753565D01*
X65736888Y-49749000D01*
X66388112Y-49749000D01*
X66434468Y-49753565D01*
G37*
G36*
X73309468Y-49753565D02*
G01*
X73348138Y-49765296D01*
X73383777Y-49784346D01*
X73415017Y-49809983D01*
X73440654Y-49841223D01*
X73459704Y-49876862D01*
X73471435Y-49915532D01*
X73476000Y-49961888D01*
X73476000Y-51038112D01*
X73471435Y-51084468D01*
X73459704Y-51123138D01*
X73440654Y-51158777D01*
X73415017Y-51190017D01*
X73383777Y-51215654D01*
X73348138Y-51234704D01*
X73309468Y-51246435D01*
X73263112Y-51251000D01*
X72611888Y-51251000D01*
X72565532Y-51246435D01*
X72526862Y-51234704D01*
X72491223Y-51215654D01*
X72459983Y-51190017D01*
X72434346Y-51158777D01*
X72415296Y-51123138D01*
X72403565Y-51084468D01*
X72399000Y-51038112D01*
X72399000Y-49961888D01*
X72403565Y-49915532D01*
X72415296Y-49876862D01*
X72434346Y-49841223D01*
X72459983Y-49809983D01*
X72491223Y-49784346D01*
X72526862Y-49765296D01*
X72565532Y-49753565D01*
X72611888Y-49749000D01*
X73263112Y-49749000D01*
X73309468Y-49753565D01*
G37*
G36*
X68309468Y-49753565D02*
G01*
X68348138Y-49765296D01*
X68383777Y-49784346D01*
X68415017Y-49809983D01*
X68440654Y-49841223D01*
X68459704Y-49876862D01*
X68471435Y-49915532D01*
X68476000Y-49961888D01*
X68476000Y-51038112D01*
X68471435Y-51084468D01*
X68459704Y-51123138D01*
X68440654Y-51158777D01*
X68415017Y-51190017D01*
X68383777Y-51215654D01*
X68348138Y-51234704D01*
X68309468Y-51246435D01*
X68263112Y-51251000D01*
X67611888Y-51251000D01*
X67565532Y-51246435D01*
X67526862Y-51234704D01*
X67491223Y-51215654D01*
X67459983Y-51190017D01*
X67434346Y-51158777D01*
X67415296Y-51123138D01*
X67403565Y-51084468D01*
X67399000Y-51038112D01*
X67399000Y-49961888D01*
X67403565Y-49915532D01*
X67415296Y-49876862D01*
X67434346Y-49841223D01*
X67459983Y-49809983D01*
X67491223Y-49784346D01*
X67526862Y-49765296D01*
X67565532Y-49753565D01*
X67611888Y-49749000D01*
X68263112Y-49749000D01*
X68309468Y-49753565D01*
G37*
G36*
X68224867Y-48022004D02*
G01*
X68248292Y-48029110D01*
X68269889Y-48040654D01*
X68288814Y-48056186D01*
X68304346Y-48075111D01*
X68315890Y-48096708D01*
X68322996Y-48120133D01*
X68326000Y-48150638D01*
X68326000Y-49049362D01*
X68322996Y-49079867D01*
X68315890Y-49103292D01*
X68304346Y-49124889D01*
X68288814Y-49143814D01*
X68269889Y-49159346D01*
X68248292Y-49170890D01*
X68224867Y-49177996D01*
X68194362Y-49181000D01*
X67705638Y-49181000D01*
X67675133Y-49177996D01*
X67651708Y-49170890D01*
X67630111Y-49159346D01*
X67611186Y-49143814D01*
X67595654Y-49124889D01*
X67584110Y-49103292D01*
X67577004Y-49079867D01*
X67574000Y-49049362D01*
X67574000Y-48150638D01*
X67577004Y-48120133D01*
X67584110Y-48096708D01*
X67595654Y-48075111D01*
X67611186Y-48056186D01*
X67630111Y-48040654D01*
X67651708Y-48029110D01*
X67675133Y-48022004D01*
X67705638Y-48019000D01*
X68194362Y-48019000D01*
X68224867Y-48022004D01*
G37*
G36*
X66324867Y-48022004D02*
G01*
X66348292Y-48029110D01*
X66369889Y-48040654D01*
X66388814Y-48056186D01*
X66404346Y-48075111D01*
X66415890Y-48096708D01*
X66422996Y-48120133D01*
X66426000Y-48150638D01*
X66426000Y-49049362D01*
X66422996Y-49079867D01*
X66415890Y-49103292D01*
X66404346Y-49124889D01*
X66388814Y-49143814D01*
X66369889Y-49159346D01*
X66348292Y-49170890D01*
X66324867Y-49177996D01*
X66294362Y-49181000D01*
X65805638Y-49181000D01*
X65775133Y-49177996D01*
X65751708Y-49170890D01*
X65730111Y-49159346D01*
X65711186Y-49143814D01*
X65695654Y-49124889D01*
X65684110Y-49103292D01*
X65677004Y-49079867D01*
X65674000Y-49049362D01*
X65674000Y-48150638D01*
X65677004Y-48120133D01*
X65684110Y-48096708D01*
X65695654Y-48075111D01*
X65711186Y-48056186D01*
X65730111Y-48040654D01*
X65751708Y-48029110D01*
X65775133Y-48022004D01*
X65805638Y-48019000D01*
X66294362Y-48019000D01*
X66324867Y-48022004D01*
G37*
G36*
X71324867Y-48022004D02*
G01*
X71348292Y-48029110D01*
X71369889Y-48040654D01*
X71388814Y-48056186D01*
X71404346Y-48075111D01*
X71415890Y-48096708D01*
X71422996Y-48120133D01*
X71426000Y-48150638D01*
X71426000Y-49049362D01*
X71422996Y-49079867D01*
X71415890Y-49103292D01*
X71404346Y-49124889D01*
X71388814Y-49143814D01*
X71369889Y-49159346D01*
X71348292Y-49170890D01*
X71324867Y-49177996D01*
X71294362Y-49181000D01*
X70805638Y-49181000D01*
X70775133Y-49177996D01*
X70751708Y-49170890D01*
X70730111Y-49159346D01*
X70711186Y-49143814D01*
X70695654Y-49124889D01*
X70684110Y-49103292D01*
X70677004Y-49079867D01*
X70674000Y-49049362D01*
X70674000Y-48150638D01*
X70677004Y-48120133D01*
X70684110Y-48096708D01*
X70695654Y-48075111D01*
X70711186Y-48056186D01*
X70730111Y-48040654D01*
X70751708Y-48029110D01*
X70775133Y-48022004D01*
X70805638Y-48019000D01*
X71294362Y-48019000D01*
X71324867Y-48022004D01*
G37*
G36*
X73224867Y-48022004D02*
G01*
X73248292Y-48029110D01*
X73269889Y-48040654D01*
X73288814Y-48056186D01*
X73304346Y-48075111D01*
X73315890Y-48096708D01*
X73322996Y-48120133D01*
X73326000Y-48150638D01*
X73326000Y-49049362D01*
X73322996Y-49079867D01*
X73315890Y-49103292D01*
X73304346Y-49124889D01*
X73288814Y-49143814D01*
X73269889Y-49159346D01*
X73248292Y-49170890D01*
X73224867Y-49177996D01*
X73194362Y-49181000D01*
X72705638Y-49181000D01*
X72675133Y-49177996D01*
X72651708Y-49170890D01*
X72630111Y-49159346D01*
X72611186Y-49143814D01*
X72595654Y-49124889D01*
X72584110Y-49103292D01*
X72577004Y-49079867D01*
X72574000Y-49049362D01*
X72574000Y-48150638D01*
X72577004Y-48120133D01*
X72584110Y-48096708D01*
X72595654Y-48075111D01*
X72611186Y-48056186D01*
X72630111Y-48040654D01*
X72651708Y-48029110D01*
X72675133Y-48022004D01*
X72705638Y-48019000D01*
X73194362Y-48019000D01*
X73224867Y-48022004D01*
G37*
G36*
X75584468Y-47903565D02*
G01*
X75623138Y-47915296D01*
X75658777Y-47934346D01*
X75690017Y-47959983D01*
X75715654Y-47991223D01*
X75734704Y-48026862D01*
X75746435Y-48065532D01*
X75751000Y-48111888D01*
X75751000Y-48763112D01*
X75746435Y-48809468D01*
X75734704Y-48848138D01*
X75715654Y-48883777D01*
X75690017Y-48915017D01*
X75658777Y-48940654D01*
X75623138Y-48959704D01*
X75584468Y-48971435D01*
X75538112Y-48976000D01*
X74461888Y-48976000D01*
X74415532Y-48971435D01*
X74376862Y-48959704D01*
X74341223Y-48940654D01*
X74309983Y-48915017D01*
X74284346Y-48883777D01*
X74265296Y-48848138D01*
X74253565Y-48809468D01*
X74249000Y-48763112D01*
X74249000Y-48111888D01*
X74253565Y-48065532D01*
X74265296Y-48026862D01*
X74284346Y-47991223D01*
X74309983Y-47959983D01*
X74341223Y-47934346D01*
X74376862Y-47915296D01*
X74415532Y-47903565D01*
X74461888Y-47899000D01*
X75538112Y-47899000D01*
X75584468Y-47903565D01*
G37*
G36*
X75584468Y-46028565D02*
G01*
X75623138Y-46040296D01*
X75658777Y-46059346D01*
X75690017Y-46084983D01*
X75715654Y-46116223D01*
X75734704Y-46151862D01*
X75746435Y-46190532D01*
X75751000Y-46236888D01*
X75751000Y-46888112D01*
X75746435Y-46934468D01*
X75734704Y-46973138D01*
X75715654Y-47008777D01*
X75690017Y-47040017D01*
X75658777Y-47065654D01*
X75623138Y-47084704D01*
X75584468Y-47096435D01*
X75538112Y-47101000D01*
X74461888Y-47101000D01*
X74415532Y-47096435D01*
X74376862Y-47084704D01*
X74341223Y-47065654D01*
X74309983Y-47040017D01*
X74284346Y-47008777D01*
X74265296Y-46973138D01*
X74253565Y-46934468D01*
X74249000Y-46888112D01*
X74249000Y-46236888D01*
X74253565Y-46190532D01*
X74265296Y-46151862D01*
X74284346Y-46116223D01*
X74309983Y-46084983D01*
X74341223Y-46059346D01*
X74376862Y-46040296D01*
X74415532Y-46028565D01*
X74461888Y-46024000D01*
X75538112Y-46024000D01*
X75584468Y-46028565D01*
G37*
G36*
X66324867Y-45822004D02*
G01*
X66348292Y-45829110D01*
X66369889Y-45840654D01*
X66388814Y-45856186D01*
X66404346Y-45875111D01*
X66414761Y-45894596D01*
X66428375Y-45914971D01*
X66445702Y-45932297D01*
X66466077Y-45945911D01*
X66488716Y-45955288D01*
X66512749Y-45960068D01*
X66537253Y-45960068D01*
X66561287Y-45955287D01*
X66583925Y-45945910D01*
X66604300Y-45932296D01*
X66621626Y-45914969D01*
X66635239Y-45894596D01*
X66645654Y-45875111D01*
X66661186Y-45856186D01*
X66680111Y-45840654D01*
X66701708Y-45829110D01*
X66725133Y-45822004D01*
X66755638Y-45819000D01*
X67244362Y-45819000D01*
X67274867Y-45822004D01*
X67298292Y-45829110D01*
X67319889Y-45840654D01*
X67338814Y-45856186D01*
X67354346Y-45875111D01*
X67364761Y-45894596D01*
X67378375Y-45914971D01*
X67395702Y-45932297D01*
X67416077Y-45945911D01*
X67438716Y-45955288D01*
X67462749Y-45960068D01*
X67487253Y-45960068D01*
X67511287Y-45955287D01*
X67533925Y-45945910D01*
X67554300Y-45932296D01*
X67571626Y-45914969D01*
X67585239Y-45894596D01*
X67595654Y-45875111D01*
X67611186Y-45856186D01*
X67630111Y-45840654D01*
X67651708Y-45829110D01*
X67675133Y-45822004D01*
X67705638Y-45819000D01*
X68194362Y-45819000D01*
X68224867Y-45822004D01*
X68248292Y-45829110D01*
X68269889Y-45840654D01*
X68288814Y-45856186D01*
X68304346Y-45875111D01*
X68315890Y-45896708D01*
X68322996Y-45920133D01*
X68326000Y-45950638D01*
X68326000Y-46849362D01*
X68322996Y-46879867D01*
X68315890Y-46903292D01*
X68304346Y-46924889D01*
X68288814Y-46943814D01*
X68269889Y-46959346D01*
X68248292Y-46970890D01*
X68224867Y-46977996D01*
X68194362Y-46981000D01*
X67705638Y-46981000D01*
X67675133Y-46977996D01*
X67651708Y-46970890D01*
X67630111Y-46959346D01*
X67611186Y-46943814D01*
X67595654Y-46924889D01*
X67585239Y-46905404D01*
X67571625Y-46885029D01*
X67554298Y-46867703D01*
X67533923Y-46854089D01*
X67511284Y-46844712D01*
X67487251Y-46839932D01*
X67462747Y-46839932D01*
X67438713Y-46844713D01*
X67416075Y-46854090D01*
X67395700Y-46867704D01*
X67378374Y-46885031D01*
X67364761Y-46905404D01*
X67354346Y-46924889D01*
X67338814Y-46943814D01*
X67319889Y-46959346D01*
X67298292Y-46970890D01*
X67274867Y-46977996D01*
X67244362Y-46981000D01*
X66755638Y-46981000D01*
X66725133Y-46977996D01*
X66701708Y-46970890D01*
X66680111Y-46959346D01*
X66661186Y-46943814D01*
X66645654Y-46924889D01*
X66635239Y-46905404D01*
X66621625Y-46885029D01*
X66604298Y-46867703D01*
X66583923Y-46854089D01*
X66561284Y-46844712D01*
X66537251Y-46839932D01*
X66512747Y-46839932D01*
X66488713Y-46844713D01*
X66466075Y-46854090D01*
X66445700Y-46867704D01*
X66428374Y-46885031D01*
X66414761Y-46905404D01*
X66404346Y-46924889D01*
X66388814Y-46943814D01*
X66369889Y-46959346D01*
X66348292Y-46970890D01*
X66324867Y-46977996D01*
X66294362Y-46981000D01*
X65805638Y-46981000D01*
X65775133Y-46977996D01*
X65751708Y-46970890D01*
X65730111Y-46959346D01*
X65711186Y-46943814D01*
X65695654Y-46924889D01*
X65684110Y-46903292D01*
X65677004Y-46879867D01*
X65674000Y-46849362D01*
X65674000Y-45950638D01*
X65677004Y-45920133D01*
X65684110Y-45896708D01*
X65695654Y-45875111D01*
X65711186Y-45856186D01*
X65730111Y-45840654D01*
X65751708Y-45829110D01*
X65775133Y-45822004D01*
X65805638Y-45819000D01*
X66294362Y-45819000D01*
X66324867Y-45822004D01*
G37*
G36*
X71324867Y-45822004D02*
G01*
X71348292Y-45829110D01*
X71369889Y-45840654D01*
X71388814Y-45856186D01*
X71404346Y-45875111D01*
X71414761Y-45894596D01*
X71428375Y-45914971D01*
X71445702Y-45932297D01*
X71466077Y-45945911D01*
X71488716Y-45955288D01*
X71512749Y-45960068D01*
X71537253Y-45960068D01*
X71561287Y-45955287D01*
X71583925Y-45945910D01*
X71604300Y-45932296D01*
X71621626Y-45914969D01*
X71635239Y-45894596D01*
X71645654Y-45875111D01*
X71661186Y-45856186D01*
X71680111Y-45840654D01*
X71701708Y-45829110D01*
X71725133Y-45822004D01*
X71755638Y-45819000D01*
X72244362Y-45819000D01*
X72274867Y-45822004D01*
X72298292Y-45829110D01*
X72319889Y-45840654D01*
X72338814Y-45856186D01*
X72354346Y-45875111D01*
X72364761Y-45894596D01*
X72378375Y-45914971D01*
X72395702Y-45932297D01*
X72416077Y-45945911D01*
X72438716Y-45955288D01*
X72462749Y-45960068D01*
X72487253Y-45960068D01*
X72511287Y-45955287D01*
X72533925Y-45945910D01*
X72554300Y-45932296D01*
X72571626Y-45914969D01*
X72585239Y-45894596D01*
X72595654Y-45875111D01*
X72611186Y-45856186D01*
X72630111Y-45840654D01*
X72651708Y-45829110D01*
X72675133Y-45822004D01*
X72705638Y-45819000D01*
X73194362Y-45819000D01*
X73224867Y-45822004D01*
X73248292Y-45829110D01*
X73269889Y-45840654D01*
X73288814Y-45856186D01*
X73304346Y-45875111D01*
X73315890Y-45896708D01*
X73322996Y-45920133D01*
X73326000Y-45950638D01*
X73326000Y-46849362D01*
X73322996Y-46879867D01*
X73315890Y-46903292D01*
X73304346Y-46924889D01*
X73288814Y-46943814D01*
X73269889Y-46959346D01*
X73248292Y-46970890D01*
X73224867Y-46977996D01*
X73194362Y-46981000D01*
X72705638Y-46981000D01*
X72675133Y-46977996D01*
X72651708Y-46970890D01*
X72630111Y-46959346D01*
X72611186Y-46943814D01*
X72595654Y-46924889D01*
X72585239Y-46905404D01*
X72571625Y-46885029D01*
X72554298Y-46867703D01*
X72533923Y-46854089D01*
X72511284Y-46844712D01*
X72487251Y-46839932D01*
X72462747Y-46839932D01*
X72438713Y-46844713D01*
X72416075Y-46854090D01*
X72395700Y-46867704D01*
X72378374Y-46885031D01*
X72364761Y-46905404D01*
X72354346Y-46924889D01*
X72338814Y-46943814D01*
X72319889Y-46959346D01*
X72298292Y-46970890D01*
X72274867Y-46977996D01*
X72244362Y-46981000D01*
X71755638Y-46981000D01*
X71725133Y-46977996D01*
X71701708Y-46970890D01*
X71680111Y-46959346D01*
X71661186Y-46943814D01*
X71645654Y-46924889D01*
X71635239Y-46905404D01*
X71621625Y-46885029D01*
X71604298Y-46867703D01*
X71583923Y-46854089D01*
X71561284Y-46844712D01*
X71537251Y-46839932D01*
X71512747Y-46839932D01*
X71488713Y-46844713D01*
X71466075Y-46854090D01*
X71445700Y-46867704D01*
X71428374Y-46885031D01*
X71414761Y-46905404D01*
X71404346Y-46924889D01*
X71388814Y-46943814D01*
X71369889Y-46959346D01*
X71348292Y-46970890D01*
X71324867Y-46977996D01*
X71294362Y-46981000D01*
X70805638Y-46981000D01*
X70775133Y-46977996D01*
X70751708Y-46970890D01*
X70730111Y-46959346D01*
X70711186Y-46943814D01*
X70695654Y-46924889D01*
X70684110Y-46903292D01*
X70677004Y-46879867D01*
X70674000Y-46849362D01*
X70674000Y-45950638D01*
X70677004Y-45920133D01*
X70684110Y-45896708D01*
X70695654Y-45875111D01*
X70711186Y-45856186D01*
X70730111Y-45840654D01*
X70751708Y-45829110D01*
X70775133Y-45822004D01*
X70805638Y-45819000D01*
X71294362Y-45819000D01*
X71324867Y-45822004D01*
G37*
G36*
X73309468Y-43753565D02*
G01*
X73348138Y-43765296D01*
X73383777Y-43784346D01*
X73415017Y-43809983D01*
X73440654Y-43841223D01*
X73459704Y-43876862D01*
X73471435Y-43915532D01*
X73476000Y-43961888D01*
X73476000Y-45038112D01*
X73471435Y-45084468D01*
X73459704Y-45123138D01*
X73440654Y-45158777D01*
X73415017Y-45190017D01*
X73383777Y-45215654D01*
X73348138Y-45234704D01*
X73309468Y-45246435D01*
X73263112Y-45251000D01*
X72611888Y-45251000D01*
X72565532Y-45246435D01*
X72526862Y-45234704D01*
X72491223Y-45215654D01*
X72459983Y-45190017D01*
X72434346Y-45158777D01*
X72415296Y-45123138D01*
X72403565Y-45084468D01*
X72399000Y-45038112D01*
X72399000Y-43961888D01*
X72403565Y-43915532D01*
X72415296Y-43876862D01*
X72434346Y-43841223D01*
X72459983Y-43809983D01*
X72491223Y-43784346D01*
X72526862Y-43765296D01*
X72565532Y-43753565D01*
X72611888Y-43749000D01*
X73263112Y-43749000D01*
X73309468Y-43753565D01*
G37*
G36*
X68309468Y-43753565D02*
G01*
X68348138Y-43765296D01*
X68383777Y-43784346D01*
X68415017Y-43809983D01*
X68440654Y-43841223D01*
X68459704Y-43876862D01*
X68471435Y-43915532D01*
X68476000Y-43961888D01*
X68476000Y-45038112D01*
X68471435Y-45084468D01*
X68459704Y-45123138D01*
X68440654Y-45158777D01*
X68415017Y-45190017D01*
X68383777Y-45215654D01*
X68348138Y-45234704D01*
X68309468Y-45246435D01*
X68263112Y-45251000D01*
X67611888Y-45251000D01*
X67565532Y-45246435D01*
X67526862Y-45234704D01*
X67491223Y-45215654D01*
X67459983Y-45190017D01*
X67434346Y-45158777D01*
X67415296Y-45123138D01*
X67403565Y-45084468D01*
X67399000Y-45038112D01*
X67399000Y-43961888D01*
X67403565Y-43915532D01*
X67415296Y-43876862D01*
X67434346Y-43841223D01*
X67459983Y-43809983D01*
X67491223Y-43784346D01*
X67526862Y-43765296D01*
X67565532Y-43753565D01*
X67611888Y-43749000D01*
X68263112Y-43749000D01*
X68309468Y-43753565D01*
G37*
G36*
X66434468Y-43753565D02*
G01*
X66473138Y-43765296D01*
X66508777Y-43784346D01*
X66540017Y-43809983D01*
X66565654Y-43841223D01*
X66584704Y-43876862D01*
X66596435Y-43915532D01*
X66601000Y-43961888D01*
X66601000Y-45038112D01*
X66596435Y-45084468D01*
X66584704Y-45123138D01*
X66565654Y-45158777D01*
X66540017Y-45190017D01*
X66508777Y-45215654D01*
X66473138Y-45234704D01*
X66434468Y-45246435D01*
X66388112Y-45251000D01*
X65736888Y-45251000D01*
X65690532Y-45246435D01*
X65651862Y-45234704D01*
X65616223Y-45215654D01*
X65584983Y-45190017D01*
X65559346Y-45158777D01*
X65540296Y-45123138D01*
X65528565Y-45084468D01*
X65524000Y-45038112D01*
X65524000Y-43961888D01*
X65528565Y-43915532D01*
X65540296Y-43876862D01*
X65559346Y-43841223D01*
X65584983Y-43809983D01*
X65616223Y-43784346D01*
X65651862Y-43765296D01*
X65690532Y-43753565D01*
X65736888Y-43749000D01*
X66388112Y-43749000D01*
X66434468Y-43753565D01*
G37*
G36*
X71434468Y-43753565D02*
G01*
X71473138Y-43765296D01*
X71508777Y-43784346D01*
X71540017Y-43809983D01*
X71565654Y-43841223D01*
X71584704Y-43876862D01*
X71596435Y-43915532D01*
X71601000Y-43961888D01*
X71601000Y-45038112D01*
X71596435Y-45084468D01*
X71584704Y-45123138D01*
X71565654Y-45158777D01*
X71540017Y-45190017D01*
X71508777Y-45215654D01*
X71473138Y-45234704D01*
X71434468Y-45246435D01*
X71388112Y-45251000D01*
X70736888Y-45251000D01*
X70690532Y-45246435D01*
X70651862Y-45234704D01*
X70616223Y-45215654D01*
X70584983Y-45190017D01*
X70559346Y-45158777D01*
X70540296Y-45123138D01*
X70528565Y-45084468D01*
X70524000Y-45038112D01*
X70524000Y-43961888D01*
X70528565Y-43915532D01*
X70540296Y-43876862D01*
X70559346Y-43841223D01*
X70584983Y-43809983D01*
X70616223Y-43784346D01*
X70651862Y-43765296D01*
X70690532Y-43753565D01*
X70736888Y-43749000D01*
X71388112Y-43749000D01*
X71434468Y-43753565D01*
G37*
G36*
X82324867Y-39522004D02*
G01*
X82348292Y-39529110D01*
X82369889Y-39540654D01*
X82388814Y-39556186D01*
X82404346Y-39575111D01*
X82414761Y-39594596D01*
X82428375Y-39614971D01*
X82445702Y-39632297D01*
X82466077Y-39645911D01*
X82488716Y-39655288D01*
X82512749Y-39660068D01*
X82537253Y-39660068D01*
X82561287Y-39655287D01*
X82583925Y-39645910D01*
X82604300Y-39632296D01*
X82621626Y-39614969D01*
X82635239Y-39594596D01*
X82645654Y-39575111D01*
X82661186Y-39556186D01*
X82680111Y-39540654D01*
X82701708Y-39529110D01*
X82725133Y-39522004D01*
X82755638Y-39519000D01*
X83244362Y-39519000D01*
X83274867Y-39522004D01*
X83298292Y-39529110D01*
X83319889Y-39540654D01*
X83338814Y-39556186D01*
X83354346Y-39575111D01*
X83364761Y-39594596D01*
X83378375Y-39614971D01*
X83395702Y-39632297D01*
X83416077Y-39645911D01*
X83438716Y-39655288D01*
X83462749Y-39660068D01*
X83487253Y-39660068D01*
X83511287Y-39655287D01*
X83533925Y-39645910D01*
X83554300Y-39632296D01*
X83571626Y-39614969D01*
X83585239Y-39594596D01*
X83595654Y-39575111D01*
X83611186Y-39556186D01*
X83630111Y-39540654D01*
X83651708Y-39529110D01*
X83675133Y-39522004D01*
X83705638Y-39519000D01*
X84194362Y-39519000D01*
X84224867Y-39522004D01*
X84248292Y-39529110D01*
X84269889Y-39540654D01*
X84288814Y-39556186D01*
X84304346Y-39575111D01*
X84315890Y-39596708D01*
X84322996Y-39620133D01*
X84326000Y-39650638D01*
X84326000Y-40549362D01*
X84322996Y-40579867D01*
X84315890Y-40603292D01*
X84304346Y-40624889D01*
X84288814Y-40643814D01*
X84269889Y-40659346D01*
X84248292Y-40670890D01*
X84224867Y-40677996D01*
X84194362Y-40681000D01*
X83705638Y-40681000D01*
X83675133Y-40677996D01*
X83651708Y-40670890D01*
X83630111Y-40659346D01*
X83611186Y-40643814D01*
X83595654Y-40624889D01*
X83585239Y-40605404D01*
X83571625Y-40585029D01*
X83554298Y-40567703D01*
X83533923Y-40554089D01*
X83511284Y-40544712D01*
X83487251Y-40539932D01*
X83462747Y-40539932D01*
X83438713Y-40544713D01*
X83416075Y-40554090D01*
X83395700Y-40567704D01*
X83378374Y-40585031D01*
X83364761Y-40605404D01*
X83354346Y-40624889D01*
X83338814Y-40643814D01*
X83319889Y-40659346D01*
X83298292Y-40670890D01*
X83274867Y-40677996D01*
X83244362Y-40681000D01*
X82755638Y-40681000D01*
X82725133Y-40677996D01*
X82701708Y-40670890D01*
X82680111Y-40659346D01*
X82661186Y-40643814D01*
X82645654Y-40624889D01*
X82635239Y-40605404D01*
X82621625Y-40585029D01*
X82604298Y-40567703D01*
X82583923Y-40554089D01*
X82561284Y-40544712D01*
X82537251Y-40539932D01*
X82512747Y-40539932D01*
X82488713Y-40544713D01*
X82466075Y-40554090D01*
X82445700Y-40567704D01*
X82428374Y-40585031D01*
X82414761Y-40605404D01*
X82404346Y-40624889D01*
X82388814Y-40643814D01*
X82369889Y-40659346D01*
X82348292Y-40670890D01*
X82324867Y-40677996D01*
X82294362Y-40681000D01*
X81805638Y-40681000D01*
X81775133Y-40677996D01*
X81751708Y-40670890D01*
X81730111Y-40659346D01*
X81711186Y-40643814D01*
X81695654Y-40624889D01*
X81684110Y-40603292D01*
X81677004Y-40579867D01*
X81674000Y-40549362D01*
X81674000Y-39650638D01*
X81677004Y-39620133D01*
X81684110Y-39596708D01*
X81695654Y-39575111D01*
X81711186Y-39556186D01*
X81730111Y-39540654D01*
X81751708Y-39529110D01*
X81775133Y-39522004D01*
X81805638Y-39519000D01*
X82294362Y-39519000D01*
X82324867Y-39522004D01*
G37*
G36*
X66324867Y-39522004D02*
G01*
X66348292Y-39529110D01*
X66369889Y-39540654D01*
X66388814Y-39556186D01*
X66404346Y-39575111D01*
X66414761Y-39594596D01*
X66428375Y-39614971D01*
X66445702Y-39632297D01*
X66466077Y-39645911D01*
X66488716Y-39655288D01*
X66512749Y-39660068D01*
X66537253Y-39660068D01*
X66561287Y-39655287D01*
X66583925Y-39645910D01*
X66604300Y-39632296D01*
X66621626Y-39614969D01*
X66635239Y-39594596D01*
X66645654Y-39575111D01*
X66661186Y-39556186D01*
X66680111Y-39540654D01*
X66701708Y-39529110D01*
X66725133Y-39522004D01*
X66755638Y-39519000D01*
X67244362Y-39519000D01*
X67274867Y-39522004D01*
X67298292Y-39529110D01*
X67319889Y-39540654D01*
X67338814Y-39556186D01*
X67354346Y-39575111D01*
X67364761Y-39594596D01*
X67378375Y-39614971D01*
X67395702Y-39632297D01*
X67416077Y-39645911D01*
X67438716Y-39655288D01*
X67462749Y-39660068D01*
X67487253Y-39660068D01*
X67511287Y-39655287D01*
X67533925Y-39645910D01*
X67554300Y-39632296D01*
X67571626Y-39614969D01*
X67585239Y-39594596D01*
X67595654Y-39575111D01*
X67611186Y-39556186D01*
X67630111Y-39540654D01*
X67651708Y-39529110D01*
X67675133Y-39522004D01*
X67705638Y-39519000D01*
X68194362Y-39519000D01*
X68224867Y-39522004D01*
X68248292Y-39529110D01*
X68269889Y-39540654D01*
X68288814Y-39556186D01*
X68304346Y-39575111D01*
X68315890Y-39596708D01*
X68322996Y-39620133D01*
X68326000Y-39650638D01*
X68326000Y-40549362D01*
X68322996Y-40579867D01*
X68315890Y-40603292D01*
X68304346Y-40624889D01*
X68288814Y-40643814D01*
X68269889Y-40659346D01*
X68248292Y-40670890D01*
X68224867Y-40677996D01*
X68194362Y-40681000D01*
X67705638Y-40681000D01*
X67675133Y-40677996D01*
X67651708Y-40670890D01*
X67630111Y-40659346D01*
X67611186Y-40643814D01*
X67595654Y-40624889D01*
X67585239Y-40605404D01*
X67571625Y-40585029D01*
X67554298Y-40567703D01*
X67533923Y-40554089D01*
X67511284Y-40544712D01*
X67487251Y-40539932D01*
X67462747Y-40539932D01*
X67438713Y-40544713D01*
X67416075Y-40554090D01*
X67395700Y-40567704D01*
X67378374Y-40585031D01*
X67364761Y-40605404D01*
X67354346Y-40624889D01*
X67338814Y-40643814D01*
X67319889Y-40659346D01*
X67298292Y-40670890D01*
X67274867Y-40677996D01*
X67244362Y-40681000D01*
X66755638Y-40681000D01*
X66725133Y-40677996D01*
X66701708Y-40670890D01*
X66680111Y-40659346D01*
X66661186Y-40643814D01*
X66645654Y-40624889D01*
X66635239Y-40605404D01*
X66621625Y-40585029D01*
X66604298Y-40567703D01*
X66583923Y-40554089D01*
X66561284Y-40544712D01*
X66537251Y-40539932D01*
X66512747Y-40539932D01*
X66488713Y-40544713D01*
X66466075Y-40554090D01*
X66445700Y-40567704D01*
X66428374Y-40585031D01*
X66414761Y-40605404D01*
X66404346Y-40624889D01*
X66388814Y-40643814D01*
X66369889Y-40659346D01*
X66348292Y-40670890D01*
X66324867Y-40677996D01*
X66294362Y-40681000D01*
X65805638Y-40681000D01*
X65775133Y-40677996D01*
X65751708Y-40670890D01*
X65730111Y-40659346D01*
X65711186Y-40643814D01*
X65695654Y-40624889D01*
X65684110Y-40603292D01*
X65677004Y-40579867D01*
X65674000Y-40549362D01*
X65674000Y-39650638D01*
X65677004Y-39620133D01*
X65684110Y-39596708D01*
X65695654Y-39575111D01*
X65711186Y-39556186D01*
X65730111Y-39540654D01*
X65751708Y-39529110D01*
X65775133Y-39522004D01*
X65805638Y-39519000D01*
X66294362Y-39519000D01*
X66324867Y-39522004D01*
G37*
G36*
X74405355Y-37350083D02*
G01*
X74410029Y-37351501D01*
X74414330Y-37353800D01*
X74420702Y-37359029D01*
X74441076Y-37372643D01*
X74463715Y-37382020D01*
X74487749Y-37386800D01*
X74512253Y-37386800D01*
X74536286Y-37382019D01*
X74558925Y-37372642D01*
X74579298Y-37359029D01*
X74585670Y-37353800D01*
X74589971Y-37351501D01*
X74594645Y-37350083D01*
X74605641Y-37349000D01*
X74894359Y-37349000D01*
X74905355Y-37350083D01*
X74910029Y-37351501D01*
X74914330Y-37353800D01*
X74920702Y-37359029D01*
X74941076Y-37372643D01*
X74963715Y-37382020D01*
X74987749Y-37386800D01*
X75012253Y-37386800D01*
X75036286Y-37382019D01*
X75058925Y-37372642D01*
X75079298Y-37359029D01*
X75085670Y-37353800D01*
X75089971Y-37351501D01*
X75094645Y-37350083D01*
X75105641Y-37349000D01*
X75394359Y-37349000D01*
X75405355Y-37350083D01*
X75410029Y-37351501D01*
X75414330Y-37353800D01*
X75420702Y-37359029D01*
X75441076Y-37372643D01*
X75463715Y-37382020D01*
X75487749Y-37386800D01*
X75512253Y-37386800D01*
X75536286Y-37382019D01*
X75558925Y-37372642D01*
X75579298Y-37359029D01*
X75585670Y-37353800D01*
X75589971Y-37351501D01*
X75594645Y-37350083D01*
X75605641Y-37349000D01*
X75894359Y-37349000D01*
X75905355Y-37350083D01*
X75910029Y-37351501D01*
X75914331Y-37353800D01*
X75918104Y-37356896D01*
X75921200Y-37360669D01*
X75923499Y-37364971D01*
X75924917Y-37369645D01*
X75926000Y-37380641D01*
X75926000Y-38094359D01*
X75924917Y-38105355D01*
X75923499Y-38110029D01*
X75921198Y-38114333D01*
X75916791Y-38119704D01*
X75903177Y-38140078D01*
X75893800Y-38162717D01*
X75889020Y-38186750D01*
X75889020Y-38211254D01*
X75893801Y-38235288D01*
X75903178Y-38257926D01*
X75916792Y-38278301D01*
X75934120Y-38295627D01*
X75954494Y-38309241D01*
X75977133Y-38318618D01*
X76013417Y-38324000D01*
X76619359Y-38324000D01*
X76630355Y-38325083D01*
X76635029Y-38326501D01*
X76639331Y-38328800D01*
X76643104Y-38331896D01*
X76646200Y-38335669D01*
X76648499Y-38339971D01*
X76649917Y-38344645D01*
X76651000Y-38355641D01*
X76651000Y-38644359D01*
X76649917Y-38655355D01*
X76648499Y-38660029D01*
X76646200Y-38664330D01*
X76640971Y-38670702D01*
X76627357Y-38691076D01*
X76617980Y-38713715D01*
X76613200Y-38737749D01*
X76613200Y-38762253D01*
X76617981Y-38786286D01*
X76627358Y-38808925D01*
X76640971Y-38829298D01*
X76646200Y-38835670D01*
X76648499Y-38839971D01*
X76649917Y-38844645D01*
X76651000Y-38855641D01*
X76651000Y-39144359D01*
X76649917Y-39155355D01*
X76648499Y-39160029D01*
X76646200Y-39164330D01*
X76640971Y-39170702D01*
X76627357Y-39191076D01*
X76617980Y-39213715D01*
X76613200Y-39237749D01*
X76613200Y-39262253D01*
X76617981Y-39286286D01*
X76627358Y-39308925D01*
X76640971Y-39329298D01*
X76646200Y-39335670D01*
X76648499Y-39339971D01*
X76649917Y-39344645D01*
X76651000Y-39355641D01*
X76651000Y-39644359D01*
X76649917Y-39655355D01*
X76648499Y-39660029D01*
X76646200Y-39664331D01*
X76643104Y-39668104D01*
X76639331Y-39671200D01*
X76635029Y-39673499D01*
X76630355Y-39674917D01*
X76619359Y-39676000D01*
X76013417Y-39676000D01*
X75989031Y-39678402D01*
X75965582Y-39685515D01*
X75943971Y-39697066D01*
X75925029Y-39712611D01*
X75909484Y-39731553D01*
X75897933Y-39753164D01*
X75890820Y-39776613D01*
X75888418Y-39800999D01*
X75890820Y-39825385D01*
X75897933Y-39848834D01*
X75916791Y-39880296D01*
X75921198Y-39885667D01*
X75923499Y-39889971D01*
X75924917Y-39894645D01*
X75926000Y-39905641D01*
X75926000Y-40619359D01*
X75924917Y-40630355D01*
X75923499Y-40635029D01*
X75921200Y-40639331D01*
X75918104Y-40643104D01*
X75914331Y-40646200D01*
X75910029Y-40648499D01*
X75905355Y-40649917D01*
X75894359Y-40651000D01*
X75605641Y-40651000D01*
X75594645Y-40649917D01*
X75589971Y-40648499D01*
X75585670Y-40646200D01*
X75579298Y-40640971D01*
X75558924Y-40627357D01*
X75536285Y-40617980D01*
X75512251Y-40613200D01*
X75487747Y-40613200D01*
X75463714Y-40617981D01*
X75441075Y-40627358D01*
X75420702Y-40640971D01*
X75414330Y-40646200D01*
X75410029Y-40648499D01*
X75405355Y-40649917D01*
X75394359Y-40651000D01*
X75105641Y-40651000D01*
X75094645Y-40649917D01*
X75089971Y-40648499D01*
X75085670Y-40646200D01*
X75079298Y-40640971D01*
X75058924Y-40627357D01*
X75036285Y-40617980D01*
X75012251Y-40613200D01*
X74987747Y-40613200D01*
X74963714Y-40617981D01*
X74941075Y-40627358D01*
X74920702Y-40640971D01*
X74914330Y-40646200D01*
X74910029Y-40648499D01*
X74905355Y-40649917D01*
X74894359Y-40651000D01*
X74605641Y-40651000D01*
X74594645Y-40649917D01*
X74589971Y-40648499D01*
X74585670Y-40646200D01*
X74579298Y-40640971D01*
X74558924Y-40627357D01*
X74536285Y-40617980D01*
X74512251Y-40613200D01*
X74487747Y-40613200D01*
X74463714Y-40617981D01*
X74441075Y-40627358D01*
X74420702Y-40640971D01*
X74414330Y-40646200D01*
X74410029Y-40648499D01*
X74405355Y-40649917D01*
X74394359Y-40651000D01*
X74105641Y-40651000D01*
X74094645Y-40649917D01*
X74089971Y-40648499D01*
X74085669Y-40646200D01*
X74081896Y-40643104D01*
X74078800Y-40639331D01*
X74076501Y-40635029D01*
X74075083Y-40630355D01*
X74074000Y-40619359D01*
X74074000Y-39905641D01*
X74075083Y-39894645D01*
X74076501Y-39889971D01*
X74078802Y-39885667D01*
X74083209Y-39880296D01*
X74096823Y-39859922D01*
X74106200Y-39837283D01*
X74110980Y-39813250D01*
X74110980Y-39788746D01*
X74106199Y-39764712D01*
X74096822Y-39742074D01*
X74083208Y-39721699D01*
X74065880Y-39704373D01*
X74045506Y-39690759D01*
X74022867Y-39681382D01*
X73986583Y-39676000D01*
X73380641Y-39676000D01*
X73369645Y-39674917D01*
X73364971Y-39673499D01*
X73360669Y-39671200D01*
X73356896Y-39668104D01*
X73353800Y-39664331D01*
X73351501Y-39660029D01*
X73350083Y-39655355D01*
X73349000Y-39644359D01*
X73349000Y-39355641D01*
X73350083Y-39344645D01*
X73351501Y-39339971D01*
X73353800Y-39335670D01*
X73359029Y-39329298D01*
X73372643Y-39308924D01*
X73382020Y-39286285D01*
X73386800Y-39262251D01*
X73386800Y-39237747D01*
X73382019Y-39213714D01*
X73372642Y-39191075D01*
X73359029Y-39170702D01*
X73353800Y-39164330D01*
X73351501Y-39160029D01*
X73350083Y-39155355D01*
X73349000Y-39144359D01*
X73349000Y-38855641D01*
X73350083Y-38844645D01*
X73351501Y-38839971D01*
X73353800Y-38835670D01*
X73359029Y-38829298D01*
X73372643Y-38808924D01*
X73382020Y-38786285D01*
X73386800Y-38762251D01*
X73386800Y-38737747D01*
X73382019Y-38713714D01*
X73372642Y-38691075D01*
X73359029Y-38670702D01*
X73353800Y-38664330D01*
X73351501Y-38660029D01*
X73350083Y-38655355D01*
X73349000Y-38644359D01*
X73349000Y-38355641D01*
X73350083Y-38344645D01*
X73351501Y-38339971D01*
X73353800Y-38335669D01*
X73356896Y-38331896D01*
X73360669Y-38328800D01*
X73364971Y-38326501D01*
X73369645Y-38325083D01*
X73380641Y-38324000D01*
X73986583Y-38324000D01*
X74010969Y-38321598D01*
X74034418Y-38314485D01*
X74056029Y-38302934D01*
X74074971Y-38287389D01*
X74090516Y-38268447D01*
X74102067Y-38246836D01*
X74109180Y-38223387D01*
X74111582Y-38199001D01*
X74109180Y-38174615D01*
X74102067Y-38151166D01*
X74083209Y-38119704D01*
X74078802Y-38114333D01*
X74076501Y-38110029D01*
X74075083Y-38105355D01*
X74074000Y-38094359D01*
X74074000Y-37380641D01*
X74075083Y-37369645D01*
X74076501Y-37364971D01*
X74078800Y-37360669D01*
X74081896Y-37356896D01*
X74085669Y-37353800D01*
X74089971Y-37351501D01*
X74094645Y-37350083D01*
X74105641Y-37349000D01*
X74394359Y-37349000D01*
X74405355Y-37350083D01*
G37*
G36*
X82324867Y-37322004D02*
G01*
X82348292Y-37329110D01*
X82369889Y-37340654D01*
X82388814Y-37356186D01*
X82404346Y-37375111D01*
X82414761Y-37394596D01*
X82428375Y-37414971D01*
X82445702Y-37432297D01*
X82466077Y-37445911D01*
X82488716Y-37455288D01*
X82512749Y-37460068D01*
X82537253Y-37460068D01*
X82561287Y-37455287D01*
X82583925Y-37445910D01*
X82604300Y-37432296D01*
X82621626Y-37414969D01*
X82635239Y-37394596D01*
X82645654Y-37375111D01*
X82661186Y-37356186D01*
X82680111Y-37340654D01*
X82701708Y-37329110D01*
X82725133Y-37322004D01*
X82755638Y-37319000D01*
X83244362Y-37319000D01*
X83274867Y-37322004D01*
X83298292Y-37329110D01*
X83319889Y-37340654D01*
X83338814Y-37356186D01*
X83354346Y-37375111D01*
X83364761Y-37394596D01*
X83378375Y-37414971D01*
X83395702Y-37432297D01*
X83416077Y-37445911D01*
X83438716Y-37455288D01*
X83462749Y-37460068D01*
X83487253Y-37460068D01*
X83511287Y-37455287D01*
X83533925Y-37445910D01*
X83554300Y-37432296D01*
X83571626Y-37414969D01*
X83585239Y-37394596D01*
X83595654Y-37375111D01*
X83611186Y-37356186D01*
X83630111Y-37340654D01*
X83651708Y-37329110D01*
X83675133Y-37322004D01*
X83705638Y-37319000D01*
X84194362Y-37319000D01*
X84224867Y-37322004D01*
X84248292Y-37329110D01*
X84269889Y-37340654D01*
X84288814Y-37356186D01*
X84304346Y-37375111D01*
X84315890Y-37396708D01*
X84322996Y-37420133D01*
X84326000Y-37450638D01*
X84326000Y-38349362D01*
X84322996Y-38379867D01*
X84315890Y-38403292D01*
X84304346Y-38424889D01*
X84288814Y-38443814D01*
X84269889Y-38459346D01*
X84248292Y-38470890D01*
X84224867Y-38477996D01*
X84194362Y-38481000D01*
X83705638Y-38481000D01*
X83675133Y-38477996D01*
X83651708Y-38470890D01*
X83630111Y-38459346D01*
X83611186Y-38443814D01*
X83595654Y-38424889D01*
X83585239Y-38405404D01*
X83571625Y-38385029D01*
X83554298Y-38367703D01*
X83533923Y-38354089D01*
X83511284Y-38344712D01*
X83487251Y-38339932D01*
X83462747Y-38339932D01*
X83438713Y-38344713D01*
X83416075Y-38354090D01*
X83395700Y-38367704D01*
X83378374Y-38385031D01*
X83364761Y-38405404D01*
X83354346Y-38424889D01*
X83338814Y-38443814D01*
X83319889Y-38459346D01*
X83298292Y-38470890D01*
X83274867Y-38477996D01*
X83244362Y-38481000D01*
X82755638Y-38481000D01*
X82725133Y-38477996D01*
X82701708Y-38470890D01*
X82680111Y-38459346D01*
X82661186Y-38443814D01*
X82645654Y-38424889D01*
X82635239Y-38405404D01*
X82621625Y-38385029D01*
X82604298Y-38367703D01*
X82583923Y-38354089D01*
X82561284Y-38344712D01*
X82537251Y-38339932D01*
X82512747Y-38339932D01*
X82488713Y-38344713D01*
X82466075Y-38354090D01*
X82445700Y-38367704D01*
X82428374Y-38385031D01*
X82414761Y-38405404D01*
X82404346Y-38424889D01*
X82388814Y-38443814D01*
X82369889Y-38459346D01*
X82348292Y-38470890D01*
X82324867Y-38477996D01*
X82294362Y-38481000D01*
X81805638Y-38481000D01*
X81775133Y-38477996D01*
X81751708Y-38470890D01*
X81730111Y-38459346D01*
X81711186Y-38443814D01*
X81695654Y-38424889D01*
X81684110Y-38403292D01*
X81677004Y-38379867D01*
X81674000Y-38349362D01*
X81674000Y-37450638D01*
X81677004Y-37420133D01*
X81684110Y-37396708D01*
X81695654Y-37375111D01*
X81711186Y-37356186D01*
X81730111Y-37340654D01*
X81751708Y-37329110D01*
X81775133Y-37322004D01*
X81805638Y-37319000D01*
X82294362Y-37319000D01*
X82324867Y-37322004D01*
G37*
G36*
X66324867Y-37322004D02*
G01*
X66348292Y-37329110D01*
X66369889Y-37340654D01*
X66388814Y-37356186D01*
X66404346Y-37375111D01*
X66414761Y-37394596D01*
X66428375Y-37414971D01*
X66445702Y-37432297D01*
X66466077Y-37445911D01*
X66488716Y-37455288D01*
X66512749Y-37460068D01*
X66537253Y-37460068D01*
X66561287Y-37455287D01*
X66583925Y-37445910D01*
X66604300Y-37432296D01*
X66621626Y-37414969D01*
X66635239Y-37394596D01*
X66645654Y-37375111D01*
X66661186Y-37356186D01*
X66680111Y-37340654D01*
X66701708Y-37329110D01*
X66725133Y-37322004D01*
X66755638Y-37319000D01*
X67244362Y-37319000D01*
X67274867Y-37322004D01*
X67298292Y-37329110D01*
X67319889Y-37340654D01*
X67338814Y-37356186D01*
X67354346Y-37375111D01*
X67364761Y-37394596D01*
X67378375Y-37414971D01*
X67395702Y-37432297D01*
X67416077Y-37445911D01*
X67438716Y-37455288D01*
X67462749Y-37460068D01*
X67487253Y-37460068D01*
X67511287Y-37455287D01*
X67533925Y-37445910D01*
X67554300Y-37432296D01*
X67571626Y-37414969D01*
X67585239Y-37394596D01*
X67595654Y-37375111D01*
X67611186Y-37356186D01*
X67630111Y-37340654D01*
X67651708Y-37329110D01*
X67675133Y-37322004D01*
X67705638Y-37319000D01*
X68194362Y-37319000D01*
X68224867Y-37322004D01*
X68248292Y-37329110D01*
X68269889Y-37340654D01*
X68288814Y-37356186D01*
X68304346Y-37375111D01*
X68315890Y-37396708D01*
X68322996Y-37420133D01*
X68326000Y-37450638D01*
X68326000Y-38349362D01*
X68322996Y-38379867D01*
X68315890Y-38403292D01*
X68304346Y-38424889D01*
X68288814Y-38443814D01*
X68269889Y-38459346D01*
X68248292Y-38470890D01*
X68224867Y-38477996D01*
X68194362Y-38481000D01*
X67705638Y-38481000D01*
X67675133Y-38477996D01*
X67651708Y-38470890D01*
X67630111Y-38459346D01*
X67611186Y-38443814D01*
X67595654Y-38424889D01*
X67585239Y-38405404D01*
X67571625Y-38385029D01*
X67554298Y-38367703D01*
X67533923Y-38354089D01*
X67511284Y-38344712D01*
X67487251Y-38339932D01*
X67462747Y-38339932D01*
X67438713Y-38344713D01*
X67416075Y-38354090D01*
X67395700Y-38367704D01*
X67378374Y-38385031D01*
X67364761Y-38405404D01*
X67354346Y-38424889D01*
X67338814Y-38443814D01*
X67319889Y-38459346D01*
X67298292Y-38470890D01*
X67274867Y-38477996D01*
X67244362Y-38481000D01*
X66755638Y-38481000D01*
X66725133Y-38477996D01*
X66701708Y-38470890D01*
X66680111Y-38459346D01*
X66661186Y-38443814D01*
X66645654Y-38424889D01*
X66635239Y-38405404D01*
X66621625Y-38385029D01*
X66604298Y-38367703D01*
X66583923Y-38354089D01*
X66561284Y-38344712D01*
X66537251Y-38339932D01*
X66512747Y-38339932D01*
X66488713Y-38344713D01*
X66466075Y-38354090D01*
X66445700Y-38367704D01*
X66428374Y-38385031D01*
X66414761Y-38405404D01*
X66404346Y-38424889D01*
X66388814Y-38443814D01*
X66369889Y-38459346D01*
X66348292Y-38470890D01*
X66324867Y-38477996D01*
X66294362Y-38481000D01*
X65805638Y-38481000D01*
X65775133Y-38477996D01*
X65751708Y-38470890D01*
X65730111Y-38459346D01*
X65711186Y-38443814D01*
X65695654Y-38424889D01*
X65684110Y-38403292D01*
X65677004Y-38379867D01*
X65674000Y-38349362D01*
X65674000Y-37450638D01*
X65677004Y-37420133D01*
X65684110Y-37396708D01*
X65695654Y-37375111D01*
X65711186Y-37356186D01*
X65730111Y-37340654D01*
X65751708Y-37329110D01*
X65775133Y-37322004D01*
X65805638Y-37319000D01*
X66294362Y-37319000D01*
X66324867Y-37322004D01*
G37*
G36*
X67660721Y-33470174D02*
G01*
X67760995Y-33511709D01*
X67760996Y-33511710D01*
X67851242Y-33572010D01*
X67927990Y-33648758D01*
X67927991Y-33648760D01*
X67988291Y-33739005D01*
X68029826Y-33839279D01*
X68051000Y-33945730D01*
X68051000Y-34054270D01*
X68029826Y-34160721D01*
X67988291Y-34260995D01*
X67988290Y-34260996D01*
X67927990Y-34351242D01*
X67851242Y-34427990D01*
X67805812Y-34458345D01*
X67760995Y-34488291D01*
X67660721Y-34529826D01*
X67554270Y-34551000D01*
X67445730Y-34551000D01*
X67339279Y-34529826D01*
X67239005Y-34488291D01*
X67194188Y-34458345D01*
X67148758Y-34427990D01*
X67072010Y-34351242D01*
X67011710Y-34260996D01*
X67011709Y-34260995D01*
X66970174Y-34160721D01*
X66949000Y-34054270D01*
X66949000Y-33945730D01*
X66970174Y-33839279D01*
X67011709Y-33739005D01*
X67072009Y-33648760D01*
X67072010Y-33648758D01*
X67148758Y-33572010D01*
X67239004Y-33511710D01*
X67239005Y-33511709D01*
X67339279Y-33470174D01*
X67445730Y-33449000D01*
X67554270Y-33449000D01*
X67660721Y-33470174D01*
G37*
G36*
X62160721Y-33470174D02*
G01*
X62260995Y-33511709D01*
X62260996Y-33511710D01*
X62351242Y-33572010D01*
X62427990Y-33648758D01*
X62427991Y-33648760D01*
X62488291Y-33739005D01*
X62529826Y-33839279D01*
X62551000Y-33945730D01*
X62551000Y-34054270D01*
X62529826Y-34160721D01*
X62488291Y-34260995D01*
X62488290Y-34260996D01*
X62427990Y-34351242D01*
X62351242Y-34427990D01*
X62305812Y-34458345D01*
X62260995Y-34488291D01*
X62160721Y-34529826D01*
X62054270Y-34551000D01*
X61945730Y-34551000D01*
X61839279Y-34529826D01*
X61739005Y-34488291D01*
X61694188Y-34458345D01*
X61648758Y-34427990D01*
X61572010Y-34351242D01*
X61511710Y-34260996D01*
X61511709Y-34260995D01*
X61470174Y-34160721D01*
X61449000Y-34054270D01*
X61449000Y-33945730D01*
X61470174Y-33839279D01*
X61511709Y-33739005D01*
X61572009Y-33648760D01*
X61572010Y-33648758D01*
X61648758Y-33572010D01*
X61739004Y-33511710D01*
X61739005Y-33511709D01*
X61839279Y-33470174D01*
X61945730Y-33449000D01*
X62054270Y-33449000D01*
X62160721Y-33470174D01*
G37*
G36*
X72009928Y-30321764D02*
G01*
X72031009Y-30328160D01*
X72050444Y-30338548D01*
X72070703Y-30355173D01*
X72091077Y-30368786D01*
X72113716Y-30378163D01*
X72137750Y-30382943D01*
X72162254Y-30382943D01*
X72186287Y-30378162D01*
X72208926Y-30368784D01*
X72229297Y-30355173D01*
X72249556Y-30338548D01*
X72268991Y-30328160D01*
X72290072Y-30321764D01*
X72318140Y-30319000D01*
X72781860Y-30319000D01*
X72809928Y-30321764D01*
X72831009Y-30328160D01*
X72850445Y-30338548D01*
X72867476Y-30352524D01*
X72881454Y-30369558D01*
X72885569Y-30377256D01*
X72899183Y-30397631D01*
X72916510Y-30414958D01*
X72936884Y-30428571D01*
X72959523Y-30437949D01*
X72983556Y-30442729D01*
X73008060Y-30442729D01*
X73032094Y-30437948D01*
X73054732Y-30428571D01*
X73075107Y-30414957D01*
X73088092Y-30401972D01*
X73107871Y-30377872D01*
X73138329Y-30352875D01*
X73173080Y-30334300D01*
X73210786Y-30322862D01*
X73249999Y-30319000D01*
X73250001Y-30319000D01*
X73289214Y-30322862D01*
X73326920Y-30334300D01*
X73361671Y-30352875D01*
X73392129Y-30377872D01*
X73407715Y-30396863D01*
X73420702Y-30409850D01*
X73441076Y-30423463D01*
X73463715Y-30432841D01*
X73487748Y-30437621D01*
X73512252Y-30437621D01*
X73536286Y-30432841D01*
X73558924Y-30423463D01*
X73579299Y-30409849D01*
X73592285Y-30396863D01*
X73607871Y-30377872D01*
X73638329Y-30352875D01*
X73673080Y-30334300D01*
X73710786Y-30322862D01*
X73749999Y-30319000D01*
X73750001Y-30319000D01*
X73789214Y-30322862D01*
X73826920Y-30334300D01*
X73861671Y-30352875D01*
X73892129Y-30377872D01*
X73907715Y-30396863D01*
X73920702Y-30409850D01*
X73941076Y-30423463D01*
X73963715Y-30432841D01*
X73987748Y-30437621D01*
X74012252Y-30437621D01*
X74036286Y-30432841D01*
X74058924Y-30423463D01*
X74079299Y-30409849D01*
X74092285Y-30396863D01*
X74107871Y-30377872D01*
X74138329Y-30352875D01*
X74173080Y-30334300D01*
X74210786Y-30322862D01*
X74249999Y-30319000D01*
X74250001Y-30319000D01*
X74289214Y-30322862D01*
X74326920Y-30334300D01*
X74361671Y-30352875D01*
X74392129Y-30377872D01*
X74407715Y-30396863D01*
X74420702Y-30409850D01*
X74441076Y-30423463D01*
X74463715Y-30432841D01*
X74487748Y-30437621D01*
X74512252Y-30437621D01*
X74536286Y-30432841D01*
X74558924Y-30423463D01*
X74579299Y-30409849D01*
X74592285Y-30396863D01*
X74607871Y-30377872D01*
X74638329Y-30352875D01*
X74673080Y-30334300D01*
X74710786Y-30322862D01*
X74749999Y-30319000D01*
X74750001Y-30319000D01*
X74789214Y-30322862D01*
X74826920Y-30334300D01*
X74861671Y-30352875D01*
X74892129Y-30377872D01*
X74907715Y-30396863D01*
X74920702Y-30409850D01*
X74941076Y-30423463D01*
X74963715Y-30432841D01*
X74987748Y-30437621D01*
X75012252Y-30437621D01*
X75036286Y-30432841D01*
X75058924Y-30423463D01*
X75079299Y-30409849D01*
X75092285Y-30396863D01*
X75107871Y-30377872D01*
X75138329Y-30352875D01*
X75173080Y-30334300D01*
X75210786Y-30322862D01*
X75249999Y-30319000D01*
X75250001Y-30319000D01*
X75289214Y-30322862D01*
X75326920Y-30334300D01*
X75361671Y-30352875D01*
X75392129Y-30377872D01*
X75407715Y-30396863D01*
X75420702Y-30409850D01*
X75441076Y-30423463D01*
X75463715Y-30432841D01*
X75487748Y-30437621D01*
X75512252Y-30437621D01*
X75536286Y-30432841D01*
X75558924Y-30423463D01*
X75579299Y-30409849D01*
X75592285Y-30396863D01*
X75607871Y-30377872D01*
X75638329Y-30352875D01*
X75673080Y-30334300D01*
X75710786Y-30322862D01*
X75749999Y-30319000D01*
X75750001Y-30319000D01*
X75789214Y-30322862D01*
X75826920Y-30334300D01*
X75861671Y-30352875D01*
X75892129Y-30377872D01*
X75907715Y-30396863D01*
X75920702Y-30409850D01*
X75941076Y-30423463D01*
X75963715Y-30432841D01*
X75987748Y-30437621D01*
X76012252Y-30437621D01*
X76036286Y-30432841D01*
X76058924Y-30423463D01*
X76079299Y-30409849D01*
X76092285Y-30396863D01*
X76107871Y-30377872D01*
X76138329Y-30352875D01*
X76173080Y-30334300D01*
X76210786Y-30322862D01*
X76249999Y-30319000D01*
X76250001Y-30319000D01*
X76289214Y-30322862D01*
X76326920Y-30334300D01*
X76361671Y-30352875D01*
X76392129Y-30377872D01*
X76407715Y-30396863D01*
X76420702Y-30409850D01*
X76441076Y-30423463D01*
X76463715Y-30432841D01*
X76487748Y-30437621D01*
X76512252Y-30437621D01*
X76536286Y-30432841D01*
X76558924Y-30423463D01*
X76579299Y-30409849D01*
X76592285Y-30396863D01*
X76607871Y-30377872D01*
X76638329Y-30352875D01*
X76673080Y-30334300D01*
X76710786Y-30322862D01*
X76749999Y-30319000D01*
X76750001Y-30319000D01*
X76789214Y-30322862D01*
X76826920Y-30334300D01*
X76861671Y-30352875D01*
X76892129Y-30377872D01*
X76911908Y-30401972D01*
X76924894Y-30414958D01*
X76945268Y-30428571D01*
X76967907Y-30437949D01*
X76991940Y-30442729D01*
X77016444Y-30442729D01*
X77040477Y-30437949D01*
X77063116Y-30428571D01*
X77083491Y-30414957D01*
X77100818Y-30397630D01*
X77114431Y-30377256D01*
X77118546Y-30369558D01*
X77132524Y-30352524D01*
X77149555Y-30338548D01*
X77168991Y-30328160D01*
X77190072Y-30321764D01*
X77218140Y-30319000D01*
X77681860Y-30319000D01*
X77709928Y-30321764D01*
X77731009Y-30328160D01*
X77750444Y-30338548D01*
X77770703Y-30355173D01*
X77791077Y-30368786D01*
X77813716Y-30378163D01*
X77837750Y-30382943D01*
X77862254Y-30382943D01*
X77886287Y-30378162D01*
X77908926Y-30368784D01*
X77929297Y-30355173D01*
X77949556Y-30338548D01*
X77968991Y-30328160D01*
X77990072Y-30321764D01*
X78018140Y-30319000D01*
X78481860Y-30319000D01*
X78509928Y-30321764D01*
X78531009Y-30328160D01*
X78550445Y-30338548D01*
X78567476Y-30352524D01*
X78581452Y-30369555D01*
X78591840Y-30388991D01*
X78598236Y-30410072D01*
X78601000Y-30438140D01*
X78601000Y-31751860D01*
X78598236Y-31779928D01*
X78591840Y-31801009D01*
X78581452Y-31820445D01*
X78567476Y-31837476D01*
X78550445Y-31851452D01*
X78531009Y-31861840D01*
X78509928Y-31868236D01*
X78481860Y-31871000D01*
X78018140Y-31871000D01*
X77990072Y-31868236D01*
X77968991Y-31861840D01*
X77949556Y-31851452D01*
X77929297Y-31834827D01*
X77908923Y-31821214D01*
X77886284Y-31811837D01*
X77862250Y-31807057D01*
X77837746Y-31807057D01*
X77813713Y-31811838D01*
X77791074Y-31821216D01*
X77770703Y-31834827D01*
X77750444Y-31851452D01*
X77731009Y-31861840D01*
X77709928Y-31868236D01*
X77681860Y-31871000D01*
X77218140Y-31871000D01*
X77190072Y-31868236D01*
X77168991Y-31861840D01*
X77149555Y-31851452D01*
X77132524Y-31837476D01*
X77118546Y-31820442D01*
X77114431Y-31812744D01*
X77100817Y-31792369D01*
X77083490Y-31775042D01*
X77063116Y-31761429D01*
X77040477Y-31752051D01*
X77016444Y-31747271D01*
X76991940Y-31747271D01*
X76967906Y-31752052D01*
X76945268Y-31761429D01*
X76924893Y-31775043D01*
X76911908Y-31788028D01*
X76892129Y-31812128D01*
X76861671Y-31837125D01*
X76826920Y-31855700D01*
X76789214Y-31867138D01*
X76750001Y-31871000D01*
X76749999Y-31871000D01*
X76710786Y-31867138D01*
X76673080Y-31855700D01*
X76638329Y-31837125D01*
X76607871Y-31812128D01*
X76592285Y-31793137D01*
X76579298Y-31780150D01*
X76558924Y-31766537D01*
X76536285Y-31757159D01*
X76512252Y-31752379D01*
X76487748Y-31752379D01*
X76463714Y-31757159D01*
X76441076Y-31766537D01*
X76420701Y-31780151D01*
X76407715Y-31793137D01*
X76392129Y-31812128D01*
X76361671Y-31837125D01*
X76326920Y-31855700D01*
X76289214Y-31867138D01*
X76250001Y-31871000D01*
X76249999Y-31871000D01*
X76210786Y-31867138D01*
X76173080Y-31855700D01*
X76138329Y-31837125D01*
X76107871Y-31812128D01*
X76092285Y-31793137D01*
X76079298Y-31780150D01*
X76058924Y-31766537D01*
X76036285Y-31757159D01*
X76012252Y-31752379D01*
X75987748Y-31752379D01*
X75963714Y-31757159D01*
X75941076Y-31766537D01*
X75920701Y-31780151D01*
X75907715Y-31793137D01*
X75892129Y-31812128D01*
X75861671Y-31837125D01*
X75826920Y-31855700D01*
X75789214Y-31867138D01*
X75750001Y-31871000D01*
X75749999Y-31871000D01*
X75710786Y-31867138D01*
X75673080Y-31855700D01*
X75638329Y-31837125D01*
X75607871Y-31812128D01*
X75592285Y-31793137D01*
X75579298Y-31780150D01*
X75558924Y-31766537D01*
X75536285Y-31757159D01*
X75512252Y-31752379D01*
X75487748Y-31752379D01*
X75463714Y-31757159D01*
X75441076Y-31766537D01*
X75420701Y-31780151D01*
X75407715Y-31793137D01*
X75392129Y-31812128D01*
X75361671Y-31837125D01*
X75326920Y-31855700D01*
X75289214Y-31867138D01*
X75250001Y-31871000D01*
X75249999Y-31871000D01*
X75210786Y-31867138D01*
X75173080Y-31855700D01*
X75138329Y-31837125D01*
X75107871Y-31812128D01*
X75092285Y-31793137D01*
X75079298Y-31780150D01*
X75058924Y-31766537D01*
X75036285Y-31757159D01*
X75012252Y-31752379D01*
X74987748Y-31752379D01*
X74963714Y-31757159D01*
X74941076Y-31766537D01*
X74920701Y-31780151D01*
X74907715Y-31793137D01*
X74892129Y-31812128D01*
X74861671Y-31837125D01*
X74826920Y-31855700D01*
X74789214Y-31867138D01*
X74750001Y-31871000D01*
X74749999Y-31871000D01*
X74710786Y-31867138D01*
X74673080Y-31855700D01*
X74638329Y-31837125D01*
X74607871Y-31812128D01*
X74592285Y-31793137D01*
X74579298Y-31780150D01*
X74558924Y-31766537D01*
X74536285Y-31757159D01*
X74512252Y-31752379D01*
X74487748Y-31752379D01*
X74463714Y-31757159D01*
X74441076Y-31766537D01*
X74420701Y-31780151D01*
X74407715Y-31793137D01*
X74392129Y-31812128D01*
X74361671Y-31837125D01*
X74326920Y-31855700D01*
X74289214Y-31867138D01*
X74250001Y-31871000D01*
X74249999Y-31871000D01*
X74210786Y-31867138D01*
X74173080Y-31855700D01*
X74138329Y-31837125D01*
X74107871Y-31812128D01*
X74092285Y-31793137D01*
X74079298Y-31780150D01*
X74058924Y-31766537D01*
X74036285Y-31757159D01*
X74012252Y-31752379D01*
X73987748Y-31752379D01*
X73963714Y-31757159D01*
X73941076Y-31766537D01*
X73920701Y-31780151D01*
X73907715Y-31793137D01*
X73892129Y-31812128D01*
X73861671Y-31837125D01*
X73826920Y-31855700D01*
X73789214Y-31867138D01*
X73750001Y-31871000D01*
X73749999Y-31871000D01*
X73710786Y-31867138D01*
X73673080Y-31855700D01*
X73638329Y-31837125D01*
X73607871Y-31812128D01*
X73592285Y-31793137D01*
X73579298Y-31780150D01*
X73558924Y-31766537D01*
X73536285Y-31757159D01*
X73512252Y-31752379D01*
X73487748Y-31752379D01*
X73463714Y-31757159D01*
X73441076Y-31766537D01*
X73420701Y-31780151D01*
X73407715Y-31793137D01*
X73392129Y-31812128D01*
X73361671Y-31837125D01*
X73326920Y-31855700D01*
X73289214Y-31867138D01*
X73250001Y-31871000D01*
X73249999Y-31871000D01*
X73210786Y-31867138D01*
X73173080Y-31855700D01*
X73138329Y-31837125D01*
X73107871Y-31812128D01*
X73088092Y-31788028D01*
X73075106Y-31775042D01*
X73054732Y-31761429D01*
X73032093Y-31752051D01*
X73008060Y-31747271D01*
X72983556Y-31747271D01*
X72959523Y-31752051D01*
X72936884Y-31761429D01*
X72916509Y-31775043D01*
X72899182Y-31792370D01*
X72885569Y-31812744D01*
X72881454Y-31820442D01*
X72867476Y-31837476D01*
X72850445Y-31851452D01*
X72831009Y-31861840D01*
X72809928Y-31868236D01*
X72781860Y-31871000D01*
X72318140Y-31871000D01*
X72290072Y-31868236D01*
X72268991Y-31861840D01*
X72249556Y-31851452D01*
X72229297Y-31834827D01*
X72208923Y-31821214D01*
X72186284Y-31811837D01*
X72162250Y-31807057D01*
X72137746Y-31807057D01*
X72113713Y-31811838D01*
X72091074Y-31821216D01*
X72070703Y-31834827D01*
X72050444Y-31851452D01*
X72031009Y-31861840D01*
X72009928Y-31868236D01*
X71981860Y-31871000D01*
X71518140Y-31871000D01*
X71490072Y-31868236D01*
X71468991Y-31861840D01*
X71449555Y-31851452D01*
X71432524Y-31837476D01*
X71418548Y-31820445D01*
X71408160Y-31801009D01*
X71401764Y-31779928D01*
X71399000Y-31751860D01*
X71399000Y-30438140D01*
X71401764Y-30410072D01*
X71408160Y-30388991D01*
X71418548Y-30369555D01*
X71432524Y-30352524D01*
X71449555Y-30338548D01*
X71468991Y-30328160D01*
X71490072Y-30321764D01*
X71518140Y-30319000D01*
X71981860Y-30319000D01*
X72009928Y-30321764D01*
G37*
G36*
X68809468Y-29753565D02*
G01*
X68848138Y-29765296D01*
X68883777Y-29784346D01*
X68915017Y-29809983D01*
X68940654Y-29841223D01*
X68959704Y-29876862D01*
X68971435Y-29915532D01*
X68976000Y-29961888D01*
X68976000Y-31038112D01*
X68971435Y-31084468D01*
X68959704Y-31123138D01*
X68940654Y-31158777D01*
X68915017Y-31190017D01*
X68883777Y-31215654D01*
X68848138Y-31234704D01*
X68809468Y-31246435D01*
X68763112Y-31251000D01*
X68111888Y-31251000D01*
X68065532Y-31246435D01*
X68026862Y-31234704D01*
X67991223Y-31215654D01*
X67959983Y-31190017D01*
X67934346Y-31158777D01*
X67915296Y-31123138D01*
X67903565Y-31084468D01*
X67899000Y-31038112D01*
X67899000Y-29961888D01*
X67903565Y-29915532D01*
X67915296Y-29876862D01*
X67934346Y-29841223D01*
X67959983Y-29809983D01*
X67991223Y-29784346D01*
X68026862Y-29765296D01*
X68065532Y-29753565D01*
X68111888Y-29749000D01*
X68763112Y-29749000D01*
X68809468Y-29753565D01*
G37*
G36*
X81934468Y-29753565D02*
G01*
X81973138Y-29765296D01*
X82008777Y-29784346D01*
X82040017Y-29809983D01*
X82065654Y-29841223D01*
X82084704Y-29876862D01*
X82096435Y-29915532D01*
X82101000Y-29961888D01*
X82101000Y-31038112D01*
X82096435Y-31084468D01*
X82084704Y-31123138D01*
X82065654Y-31158777D01*
X82040017Y-31190017D01*
X82008777Y-31215654D01*
X81973138Y-31234704D01*
X81934468Y-31246435D01*
X81888112Y-31251000D01*
X81236888Y-31251000D01*
X81190532Y-31246435D01*
X81151862Y-31234704D01*
X81116223Y-31215654D01*
X81084983Y-31190017D01*
X81059346Y-31158777D01*
X81040296Y-31123138D01*
X81028565Y-31084468D01*
X81024000Y-31038112D01*
X81024000Y-29961888D01*
X81028565Y-29915532D01*
X81040296Y-29876862D01*
X81059346Y-29841223D01*
X81084983Y-29809983D01*
X81116223Y-29784346D01*
X81151862Y-29765296D01*
X81190532Y-29753565D01*
X81236888Y-29749000D01*
X81888112Y-29749000D01*
X81934468Y-29753565D01*
G37*
G36*
X83809468Y-29753565D02*
G01*
X83848138Y-29765296D01*
X83883777Y-29784346D01*
X83915017Y-29809983D01*
X83940654Y-29841223D01*
X83959704Y-29876862D01*
X83971435Y-29915532D01*
X83976000Y-29961888D01*
X83976000Y-31038112D01*
X83971435Y-31084468D01*
X83959704Y-31123138D01*
X83940654Y-31158777D01*
X83915017Y-31190017D01*
X83883777Y-31215654D01*
X83848138Y-31234704D01*
X83809468Y-31246435D01*
X83763112Y-31251000D01*
X83111888Y-31251000D01*
X83065532Y-31246435D01*
X83026862Y-31234704D01*
X82991223Y-31215654D01*
X82959983Y-31190017D01*
X82934346Y-31158777D01*
X82915296Y-31123138D01*
X82903565Y-31084468D01*
X82899000Y-31038112D01*
X82899000Y-29961888D01*
X82903565Y-29915532D01*
X82915296Y-29876862D01*
X82934346Y-29841223D01*
X82959983Y-29809983D01*
X82991223Y-29784346D01*
X83026862Y-29765296D01*
X83065532Y-29753565D01*
X83111888Y-29749000D01*
X83763112Y-29749000D01*
X83809468Y-29753565D01*
G37*
G36*
X66934468Y-29753565D02*
G01*
X66973138Y-29765296D01*
X67008777Y-29784346D01*
X67040017Y-29809983D01*
X67065654Y-29841223D01*
X67084704Y-29876862D01*
X67096435Y-29915532D01*
X67101000Y-29961888D01*
X67101000Y-31038112D01*
X67096435Y-31084468D01*
X67084704Y-31123138D01*
X67065654Y-31158777D01*
X67040017Y-31190017D01*
X67008777Y-31215654D01*
X66973138Y-31234704D01*
X66934468Y-31246435D01*
X66888112Y-31251000D01*
X66236888Y-31251000D01*
X66190532Y-31246435D01*
X66151862Y-31234704D01*
X66116223Y-31215654D01*
X66084983Y-31190017D01*
X66059346Y-31158777D01*
X66040296Y-31123138D01*
X66028565Y-31084468D01*
X66024000Y-31038112D01*
X66024000Y-29961888D01*
X66028565Y-29915532D01*
X66040296Y-29876862D01*
X66059346Y-29841223D01*
X66084983Y-29809983D01*
X66116223Y-29784346D01*
X66151862Y-29765296D01*
X66190532Y-29753565D01*
X66236888Y-29749000D01*
X66888112Y-29749000D01*
X66934468Y-29753565D01*
G37*
G36*
X70768410Y-29185525D02*
G01*
X70853426Y-29211314D01*
X70931775Y-29253193D01*
X71000449Y-29309551D01*
X71056807Y-29378225D01*
X71098686Y-29456574D01*
X71124475Y-29541590D01*
X71131000Y-29607842D01*
X71131000Y-30752158D01*
X71124475Y-30818410D01*
X71098686Y-30903426D01*
X71056807Y-30981775D01*
X71000449Y-31050448D01*
X70931774Y-31106807D01*
X70853425Y-31148686D01*
X70768409Y-31174475D01*
X70680000Y-31183182D01*
X70591590Y-31174475D01*
X70506574Y-31148686D01*
X70428225Y-31106807D01*
X70359552Y-31050449D01*
X70303193Y-30981774D01*
X70261314Y-30903425D01*
X70235525Y-30818409D01*
X70229000Y-30752157D01*
X70229001Y-29607842D01*
X70235526Y-29541590D01*
X70261315Y-29456574D01*
X70303194Y-29378225D01*
X70359552Y-29309551D01*
X70428226Y-29253193D01*
X70506575Y-29211314D01*
X70591591Y-29185525D01*
X70680000Y-29176818D01*
X70768410Y-29185525D01*
G37*
G36*
X79408410Y-29185525D02*
G01*
X79493426Y-29211314D01*
X79571775Y-29253193D01*
X79640449Y-29309551D01*
X79696807Y-29378225D01*
X79738686Y-29456574D01*
X79764475Y-29541590D01*
X79771000Y-29607842D01*
X79771000Y-30752158D01*
X79764475Y-30818410D01*
X79738686Y-30903426D01*
X79696807Y-30981775D01*
X79640449Y-31050448D01*
X79571774Y-31106807D01*
X79493425Y-31148686D01*
X79408409Y-31174475D01*
X79320000Y-31183182D01*
X79231590Y-31174475D01*
X79146574Y-31148686D01*
X79068225Y-31106807D01*
X78999552Y-31050449D01*
X78943193Y-30981774D01*
X78901314Y-30903425D01*
X78875525Y-30818409D01*
X78869000Y-30752157D01*
X78869001Y-29607842D01*
X78875526Y-29541590D01*
X78901315Y-29456574D01*
X78943194Y-29378225D01*
X78999552Y-29309551D01*
X79068226Y-29253193D01*
X79146575Y-29211314D01*
X79231591Y-29185525D01*
X79320000Y-29176818D01*
X79408410Y-29185525D01*
G37*
G36*
X94645209Y-29450956D02*
G01*
X94645211Y-29450957D01*
X94645212Y-29450957D01*
X94673420Y-29462641D01*
X94698807Y-29479604D01*
X94711612Y-29492409D01*
X94730554Y-29507954D01*
X94752165Y-29519505D01*
X94775614Y-29526618D01*
X94800000Y-29529020D01*
X94824386Y-29526618D01*
X94847835Y-29519505D01*
X94869446Y-29507954D01*
X94888388Y-29492409D01*
X94901193Y-29479604D01*
X94926580Y-29462641D01*
X94954788Y-29450957D01*
X94954789Y-29450957D01*
X94954791Y-29450956D01*
X94984732Y-29445000D01*
X95015268Y-29445000D01*
X95045209Y-29450956D01*
X95045211Y-29450957D01*
X95045212Y-29450957D01*
X95073420Y-29462641D01*
X95098807Y-29479604D01*
X95111612Y-29492409D01*
X95130554Y-29507954D01*
X95152165Y-29519505D01*
X95175614Y-29526618D01*
X95200000Y-29529020D01*
X95224386Y-29526618D01*
X95247835Y-29519505D01*
X95269446Y-29507954D01*
X95288388Y-29492409D01*
X95301193Y-29479604D01*
X95326580Y-29462641D01*
X95354788Y-29450957D01*
X95354789Y-29450957D01*
X95354791Y-29450956D01*
X95384732Y-29445000D01*
X95415268Y-29445000D01*
X95445209Y-29450956D01*
X95445211Y-29450957D01*
X95445212Y-29450957D01*
X95473420Y-29462641D01*
X95498807Y-29479604D01*
X95520396Y-29501193D01*
X95537359Y-29526580D01*
X95549043Y-29554788D01*
X95555000Y-29584734D01*
X95555000Y-29615266D01*
X95549043Y-29645212D01*
X95537359Y-29673420D01*
X95520396Y-29698807D01*
X95507591Y-29711612D01*
X95492046Y-29730554D01*
X95480495Y-29752165D01*
X95473382Y-29775614D01*
X95470980Y-29800000D01*
X95473382Y-29824386D01*
X95480495Y-29847835D01*
X95492046Y-29869446D01*
X95507591Y-29888388D01*
X95520396Y-29901193D01*
X95537359Y-29926580D01*
X95543770Y-29942058D01*
X95549044Y-29954791D01*
X95555000Y-29984732D01*
X95555000Y-30015268D01*
X95554407Y-30018250D01*
X95549043Y-30045212D01*
X95537359Y-30073420D01*
X95520396Y-30098807D01*
X95507591Y-30111612D01*
X95492046Y-30130554D01*
X95480495Y-30152165D01*
X95473382Y-30175614D01*
X95470980Y-30200000D01*
X95473382Y-30224386D01*
X95480495Y-30247835D01*
X95492046Y-30269446D01*
X95507591Y-30288388D01*
X95520396Y-30301193D01*
X95537359Y-30326580D01*
X95548459Y-30353378D01*
X95549044Y-30354791D01*
X95555000Y-30384732D01*
X95555000Y-30415268D01*
X95552354Y-30428571D01*
X95549043Y-30445212D01*
X95537359Y-30473420D01*
X95520396Y-30498807D01*
X95498807Y-30520396D01*
X95473420Y-30537359D01*
X95445212Y-30549043D01*
X95445211Y-30549043D01*
X95445209Y-30549044D01*
X95415268Y-30555000D01*
X95384732Y-30555000D01*
X95354791Y-30549044D01*
X95354789Y-30549043D01*
X95354788Y-30549043D01*
X95326580Y-30537359D01*
X95301193Y-30520396D01*
X95288388Y-30507591D01*
X95269446Y-30492046D01*
X95247835Y-30480495D01*
X95224386Y-30473382D01*
X95200000Y-30470980D01*
X95175614Y-30473382D01*
X95152165Y-30480495D01*
X95130554Y-30492046D01*
X95111612Y-30507591D01*
X95098807Y-30520396D01*
X95073420Y-30537359D01*
X95045212Y-30549043D01*
X95045211Y-30549043D01*
X95045209Y-30549044D01*
X95015268Y-30555000D01*
X94984732Y-30555000D01*
X94954791Y-30549044D01*
X94954789Y-30549043D01*
X94954788Y-30549043D01*
X94926580Y-30537359D01*
X94901193Y-30520396D01*
X94888388Y-30507591D01*
X94869446Y-30492046D01*
X94847835Y-30480495D01*
X94824386Y-30473382D01*
X94800000Y-30470980D01*
X94775614Y-30473382D01*
X94752165Y-30480495D01*
X94730554Y-30492046D01*
X94711612Y-30507591D01*
X94698807Y-30520396D01*
X94673420Y-30537359D01*
X94645212Y-30549043D01*
X94645211Y-30549043D01*
X94645209Y-30549044D01*
X94615268Y-30555000D01*
X94584732Y-30555000D01*
X94554791Y-30549044D01*
X94554789Y-30549043D01*
X94554788Y-30549043D01*
X94526580Y-30537359D01*
X94501193Y-30520396D01*
X94479604Y-30498807D01*
X94462641Y-30473420D01*
X94450957Y-30445212D01*
X94447647Y-30428571D01*
X94445000Y-30415268D01*
X94445000Y-30384732D01*
X94450956Y-30354791D01*
X94451541Y-30353378D01*
X94462641Y-30326580D01*
X94479604Y-30301193D01*
X94492409Y-30288388D01*
X94507954Y-30269446D01*
X94519505Y-30247835D01*
X94526618Y-30224386D01*
X94529020Y-30200000D01*
X94670980Y-30200000D01*
X94673382Y-30224386D01*
X94680495Y-30247835D01*
X94692046Y-30269446D01*
X94707591Y-30288388D01*
X94711612Y-30292409D01*
X94730554Y-30307954D01*
X94752165Y-30319505D01*
X94775614Y-30326618D01*
X94800000Y-30329020D01*
X94824386Y-30326618D01*
X94847835Y-30319505D01*
X94869446Y-30307954D01*
X94888388Y-30292409D01*
X94892409Y-30288388D01*
X94907954Y-30269446D01*
X94919505Y-30247835D01*
X94926618Y-30224386D01*
X94929020Y-30200000D01*
X95070980Y-30200000D01*
X95073382Y-30224386D01*
X95080495Y-30247835D01*
X95092046Y-30269446D01*
X95107591Y-30288388D01*
X95111612Y-30292409D01*
X95130554Y-30307954D01*
X95152165Y-30319505D01*
X95175614Y-30326618D01*
X95200000Y-30329020D01*
X95224386Y-30326618D01*
X95247835Y-30319505D01*
X95269446Y-30307954D01*
X95288388Y-30292409D01*
X95292409Y-30288388D01*
X95307954Y-30269446D01*
X95319505Y-30247835D01*
X95326618Y-30224386D01*
X95329020Y-30200000D01*
X95326618Y-30175614D01*
X95319505Y-30152165D01*
X95307954Y-30130554D01*
X95292409Y-30111612D01*
X95288388Y-30107591D01*
X95269446Y-30092046D01*
X95247835Y-30080495D01*
X95224386Y-30073382D01*
X95200000Y-30070980D01*
X95175614Y-30073382D01*
X95152165Y-30080495D01*
X95130554Y-30092046D01*
X95111612Y-30107591D01*
X95107591Y-30111612D01*
X95092046Y-30130554D01*
X95080495Y-30152165D01*
X95073382Y-30175614D01*
X95070980Y-30200000D01*
X94929020Y-30200000D01*
X94926618Y-30175614D01*
X94919505Y-30152165D01*
X94907954Y-30130554D01*
X94892409Y-30111612D01*
X94888388Y-30107591D01*
X94869446Y-30092046D01*
X94847835Y-30080495D01*
X94824386Y-30073382D01*
X94800000Y-30070980D01*
X94775614Y-30073382D01*
X94752165Y-30080495D01*
X94730554Y-30092046D01*
X94711612Y-30107591D01*
X94707591Y-30111612D01*
X94692046Y-30130554D01*
X94680495Y-30152165D01*
X94673382Y-30175614D01*
X94670980Y-30200000D01*
X94529020Y-30200000D01*
X94526618Y-30175614D01*
X94519505Y-30152165D01*
X94507954Y-30130554D01*
X94492409Y-30111612D01*
X94479604Y-30098807D01*
X94462641Y-30073420D01*
X94450957Y-30045212D01*
X94445594Y-30018250D01*
X94445000Y-30015268D01*
X94445000Y-29984732D01*
X94450956Y-29954791D01*
X94456230Y-29942058D01*
X94462641Y-29926580D01*
X94479604Y-29901193D01*
X94492409Y-29888388D01*
X94507954Y-29869446D01*
X94519505Y-29847835D01*
X94526618Y-29824386D01*
X94529020Y-29800000D01*
X94670980Y-29800000D01*
X94673382Y-29824386D01*
X94680495Y-29847835D01*
X94692046Y-29869446D01*
X94707591Y-29888388D01*
X94711612Y-29892409D01*
X94730554Y-29907954D01*
X94752165Y-29919505D01*
X94775614Y-29926618D01*
X94800000Y-29929020D01*
X94824386Y-29926618D01*
X94847835Y-29919505D01*
X94869446Y-29907954D01*
X94888388Y-29892409D01*
X94892409Y-29888388D01*
X94907954Y-29869446D01*
X94919505Y-29847835D01*
X94926618Y-29824386D01*
X94929020Y-29800000D01*
X95070980Y-29800000D01*
X95073382Y-29824386D01*
X95080495Y-29847835D01*
X95092046Y-29869446D01*
X95107591Y-29888388D01*
X95111612Y-29892409D01*
X95130554Y-29907954D01*
X95152165Y-29919505D01*
X95175614Y-29926618D01*
X95200000Y-29929020D01*
X95224386Y-29926618D01*
X95247835Y-29919505D01*
X95269446Y-29907954D01*
X95288388Y-29892409D01*
X95292409Y-29888388D01*
X95307954Y-29869446D01*
X95319505Y-29847835D01*
X95326618Y-29824386D01*
X95329020Y-29800000D01*
X95326618Y-29775614D01*
X95319505Y-29752165D01*
X95307954Y-29730554D01*
X95292409Y-29711612D01*
X95288388Y-29707591D01*
X95269446Y-29692046D01*
X95247835Y-29680495D01*
X95224386Y-29673382D01*
X95200000Y-29670980D01*
X95175614Y-29673382D01*
X95152165Y-29680495D01*
X95130554Y-29692046D01*
X95111612Y-29707591D01*
X95107591Y-29711612D01*
X95092046Y-29730554D01*
X95080495Y-29752165D01*
X95073382Y-29775614D01*
X95070980Y-29800000D01*
X94929020Y-29800000D01*
X94926618Y-29775614D01*
X94919505Y-29752165D01*
X94907954Y-29730554D01*
X94892409Y-29711612D01*
X94888388Y-29707591D01*
X94869446Y-29692046D01*
X94847835Y-29680495D01*
X94824386Y-29673382D01*
X94800000Y-29670980D01*
X94775614Y-29673382D01*
X94752165Y-29680495D01*
X94730554Y-29692046D01*
X94711612Y-29707591D01*
X94707591Y-29711612D01*
X94692046Y-29730554D01*
X94680495Y-29752165D01*
X94673382Y-29775614D01*
X94670980Y-29800000D01*
X94529020Y-29800000D01*
X94526618Y-29775614D01*
X94519505Y-29752165D01*
X94507954Y-29730554D01*
X94492409Y-29711612D01*
X94479604Y-29698807D01*
X94462641Y-29673420D01*
X94450957Y-29645212D01*
X94445000Y-29615266D01*
X94445000Y-29584734D01*
X94450957Y-29554788D01*
X94462641Y-29526580D01*
X94479604Y-29501193D01*
X94501193Y-29479604D01*
X94526580Y-29462641D01*
X94554788Y-29450957D01*
X94554789Y-29450957D01*
X94554791Y-29450956D01*
X94584732Y-29445000D01*
X94615268Y-29445000D01*
X94645209Y-29450956D01*
G37*
G36*
X77999672Y-29288449D02*
G01*
X77999674Y-29288450D01*
X77999675Y-29288450D01*
X78068103Y-29316793D01*
X78129686Y-29357942D01*
X78182058Y-29410314D01*
X78223207Y-29471897D01*
X78246867Y-29529020D01*
X78251551Y-29540328D01*
X78266000Y-29612966D01*
X78266000Y-29687034D01*
X78252645Y-29754174D01*
X78251550Y-29759675D01*
X78223207Y-29828103D01*
X78182058Y-29889686D01*
X78129686Y-29942058D01*
X78068103Y-29983207D01*
X77999675Y-30011550D01*
X77999674Y-30011550D01*
X77999672Y-30011551D01*
X77927034Y-30026000D01*
X77852966Y-30026000D01*
X77780328Y-30011551D01*
X77780326Y-30011550D01*
X77780325Y-30011550D01*
X77711897Y-29983207D01*
X77650314Y-29942058D01*
X77597942Y-29889686D01*
X77556793Y-29828103D01*
X77528450Y-29759675D01*
X77527356Y-29754174D01*
X77514000Y-29687034D01*
X77514000Y-29612966D01*
X77528449Y-29540328D01*
X77533133Y-29529020D01*
X77556793Y-29471897D01*
X77597942Y-29410314D01*
X77650314Y-29357942D01*
X77711897Y-29316793D01*
X77780325Y-29288450D01*
X77780326Y-29288450D01*
X77780328Y-29288449D01*
X77852966Y-29274000D01*
X77927034Y-29274000D01*
X77999672Y-29288449D01*
G37*
G36*
X72219672Y-29288449D02*
G01*
X72219674Y-29288450D01*
X72219675Y-29288450D01*
X72288103Y-29316793D01*
X72349686Y-29357942D01*
X72402058Y-29410314D01*
X72443207Y-29471897D01*
X72466867Y-29529020D01*
X72471551Y-29540328D01*
X72486000Y-29612966D01*
X72486000Y-29687034D01*
X72472645Y-29754174D01*
X72471550Y-29759675D01*
X72443207Y-29828103D01*
X72402058Y-29889686D01*
X72349686Y-29942058D01*
X72288103Y-29983207D01*
X72219675Y-30011550D01*
X72219674Y-30011550D01*
X72219672Y-30011551D01*
X72147034Y-30026000D01*
X72072966Y-30026000D01*
X72000328Y-30011551D01*
X72000326Y-30011550D01*
X72000325Y-30011550D01*
X71931897Y-29983207D01*
X71870314Y-29942058D01*
X71817942Y-29889686D01*
X71776793Y-29828103D01*
X71748450Y-29759675D01*
X71747356Y-29754174D01*
X71734000Y-29687034D01*
X71734000Y-29612966D01*
X71748449Y-29540328D01*
X71753133Y-29529020D01*
X71776793Y-29471897D01*
X71817942Y-29410314D01*
X71870314Y-29357942D01*
X71931897Y-29316793D01*
X72000325Y-29288450D01*
X72000326Y-29288450D01*
X72000328Y-29288449D01*
X72072966Y-29274000D01*
X72147034Y-29274000D01*
X72219672Y-29288449D01*
G37*
G36*
X79408410Y-25205525D02*
G01*
X79493426Y-25231314D01*
X79571775Y-25273193D01*
X79640449Y-25329551D01*
X79696807Y-25398225D01*
X79738686Y-25476574D01*
X79764475Y-25561590D01*
X79771000Y-25627842D01*
X79771000Y-26872158D01*
X79764475Y-26938410D01*
X79738686Y-27023426D01*
X79696807Y-27101775D01*
X79640449Y-27170448D01*
X79571774Y-27226807D01*
X79493425Y-27268686D01*
X79408409Y-27294475D01*
X79320000Y-27303182D01*
X79231590Y-27294475D01*
X79146574Y-27268686D01*
X79068225Y-27226807D01*
X78999552Y-27170449D01*
X78943193Y-27101774D01*
X78901314Y-27023425D01*
X78875525Y-26938409D01*
X78869000Y-26872157D01*
X78869001Y-25627842D01*
X78875526Y-25561590D01*
X78901315Y-25476574D01*
X78943194Y-25398225D01*
X78999552Y-25329551D01*
X79068226Y-25273193D01*
X79146575Y-25231314D01*
X79231591Y-25205525D01*
X79320000Y-25196818D01*
X79408410Y-25205525D01*
G37*
G36*
X70768410Y-25205525D02*
G01*
X70853426Y-25231314D01*
X70931775Y-25273193D01*
X71000449Y-25329551D01*
X71056807Y-25398225D01*
X71098686Y-25476574D01*
X71124475Y-25561590D01*
X71131000Y-25627842D01*
X71131000Y-26872158D01*
X71124475Y-26938410D01*
X71098686Y-27023426D01*
X71056807Y-27101775D01*
X71000449Y-27170448D01*
X70931774Y-27226807D01*
X70853425Y-27268686D01*
X70768409Y-27294475D01*
X70680000Y-27303182D01*
X70591590Y-27294475D01*
X70506574Y-27268686D01*
X70428225Y-27226807D01*
X70359552Y-27170449D01*
X70303193Y-27101774D01*
X70261314Y-27023425D01*
X70235525Y-26938409D01*
X70229000Y-26872157D01*
X70229001Y-25627842D01*
X70235526Y-25561590D01*
X70261315Y-25476574D01*
X70303194Y-25398225D01*
X70359552Y-25329551D01*
X70428226Y-25273193D01*
X70506575Y-25231314D01*
X70591591Y-25205525D01*
X70680000Y-25196818D01*
X70768410Y-25205525D01*
G37*
M02*
