#VRML V2.0 utf8
# 3D model generated by easyeda2kicad.py (https://github.com/uPesy/easyeda2kicad.py)

Shape{
    appearance Appearance {
        material  Material 	{
            diffuseColor 0.10196078431372549 0.10196078431372549 0.10196078431372549
            specularColor 0.03137254901960784 0.03137254901960784 0.03137254901960784
            ambientIntensity 0.102
            transparency 0.0
            shininess 0.5
        }
    }
    geometry IndexedFaceSet {
        ccw TRUE
        solid FALSE
        coord DEF co Coordinate {
            point [
                -0.6858 -0.3321 0.5906, -0.6672 -0.3848 0.5906, -0.906 -0.3848 0.5906, 0.6682 0.0826 0.5906, 0.6521 0.1181 0.5906, 1.5748 0.1181 0.5906, -1.2925 -0.23 0.5906, -1.3039 -0.2108 0.5906, -1.2708 -0.23 0.5906, -1.1046 -0.2108 0.5906, -1.1046 -0.2589 0.5906, -1.105 -0.2527 0.5906, -1.125 -0.2761 0.5906, -1.2728 -0.2335 0.5906, -1.1281 -0.2522 0.5906, -1.1376 -0.23 0.5906, -1.1112 -0.23 0.5906, -1.1272 -0.2955 0.5906, -1.1325 -0.3101 0.5906, -1.1418 -0.3241 0.5906, -1.155 -0.3359 0.5906, -1.1702 -0.3439 0.5906, -1.1916 -0.3491 0.5906, -1.2063 -0.35 0.5906, -1.2276 -0.348 0.5906, -1.2446 -0.3427 0.5906, -1.2834 -0.2805 0.5906, -1.2679 -0.3253 0.5906, -1.2814 -0.2988 0.5906, -1.2761 -0.3133 0.5906, -1.2582 -0.3345 0.5906, -1.2805 -0.2544 0.5906, -1.1046 -0.29 0.5906, -1.1034 -0.2763 0.5906, -0.906 -0.2108 0.5906, -1.3039 -0.2957 0.5906, -1.3025 -0.3084 0.5906, -1.3039 -0.3848 0.5906, -1.2959 -0.3276 0.5906, -1.2856 -0.3436 0.5906, -1.1392 -0.3545 0.5906, -1.1226 -0.3374 0.5906, -1.1046 -0.3848 0.5906, -1.1118 -0.319 0.5906, -1.2079 -0.3764 0.5906, -1.18 -0.3736 0.5906, -1.1576 -0.366 0.5906, -1.27 -0.3584 0.5906, -1.2512 -0.3688 0.5906, -1.2303 -0.3746 0.5906, -1.305 -0.2788 0.5906, -1.5748 -0.2108 0.5906, -1.3039 -0.2709 0.5906, -1.3011 -0.251 0.5906, -1.5748 -0.3848 0.5906, -1.3051 -0.2841 0.5906, -0.906 -0.0667 0.5906, -0.7015 -0.0667 0.5906, -0.7061 -0.0934 0.5906, -0.7087 -0.1535 0.5906, -0.7062 -0.2108 0.5906, -0.6858 0.0251 0.5906, -0.906 0.1181 0.5906, -0.6529 0.1181 0.5906, -0.5116 0.3368 0.5906, -0.5871 0.2433 0.5906, -0.906 0.9292 0.5906, 1.5748 0.9292 0.5906, 0.6187 0.1921 0.5906, 0.5514 0.2917 0.5906, 0.4682 0.3785 0.5906, 0.3716 0.4499 0.5906, 0.2642 0.504 0.5906, 0.1493 0.5392 0.5906, 0.0301 0.5545 0.5906, -0.09 0.5494 0.5906, -0.2075 0.5241 0.5906, -0.6458 0.1384 0.5906, -0.319 0.4793 0.5906, -0.4214 0.4163 0.5906, 1.5748 -0.2108 0.5906, 0.7087 -0.1535 0.5906, 1.5748 -0.0667 0.5906, 0.7013 -0.0667 0.5906, 0.6985 -0.0337 0.5906, 1.5748 -0.3848 0.5906, 0.6985 -0.2733 0.5906, 0.7038 -0.2108 0.5906, 1.5748 -0.6781 0.5906, 0.4753 -0.6781 0.5906, 0.5514 -0.5987 0.5906, 0.6187 -0.4991 0.5906, 0.6682 -0.3896 0.5906, 0.6694 -0.3848 0.5906, -0.1901 -1.0868 0.5906, -0.1969 -1.1378 0.5906, -0.906 -1.2362 0.5906, -0.1901 -1.1887 0.5906, -0.1705 -1.2362 0.5906, 0.1705 -1.2362 0.5906, 0.1901 -1.1887 0.5906, 1.5748 -1.2362 0.5906, 0.1969 -1.1378 0.5906, 0.1901 -1.0868 0.5906, 0.1705 -1.0393 0.5906, 0.1392 -0.9986 0.5906, 0.0984 -0.9673 0.5906, 0.1493 -0.8463 0.5906, 0.0301 -0.8615 0.5906, -0.5116 -0.6439 0.5906, -0.4727 -0.6781 0.5906, -0.906 -0.6781 0.5906, -0.4214 -0.7233 0.5906, 0.2642 -0.8111 0.5906, 0.3716 -0.757 0.5906, 0.4682 -0.6855 0.5906, -0.1705 -1.0393 0.5906, -0.1392 -0.9986 0.5906, -0.319 -0.7863 0.5906, -0.0984 -0.9673 0.5906, -0.2075 -0.8311 0.5906, -0.0509 -0.9476 0.5906, -0.09 -0.8564 0.5906, 0.0 -0.9409 0.5906, 0.0509 -0.9476 0.5906, -0.6458 -0.4454 0.5906, -0.5871 -0.5503 0.5906, -0.7061 -0.2136 0.5906, -1.1053 -0.2974 0.5906, -1.3027 0.2741 0.5906, -1.3039 0.1181 0.5906, -1.3027 0.303 0.5906, -1.3039 0.9292 0.5906, -1.1058 0.2261 0.5906, -1.1046 0.9292 0.5906, -1.1046 0.1181 0.5906, -1.2474 0.2542 0.5906, -1.2474 0.1729 0.5906, -1.3027 0.1541 0.5906, -1.3027 0.1253 0.5906, -1.1058 0.1997 0.5906, -1.5748 0.9292 0.5906, -1.5748 0.1181 0.5906, -1.5748 -0.0667 0.5906, -1.3039 -0.0667 0.5906, -1.1524 0.0986 0.5906, -1.1716 0.1068 0.5906, -1.1046 -0.0667 0.5906, -1.1058 0.008 0.5906, -1.1088 0.0365 0.5906, -1.1169 0.0595 0.5906, -1.1296 0.079 0.5906, -1.1367 0.0867 0.5906, -1.2487 0.1011 0.5906, -1.2663 0.0898 0.5906, -1.2818 0.0736 0.5906, -1.2938 0.053 0.5906, -1.3005 0.0303 0.5906, -1.3027 0.006 0.5906, -1.3027 -0.0475 0.5906, -1.1058 -0.0475 0.5906, -1.1921 0.1105 0.5906, -1.2018 0.1109 0.5906, -1.2281 0.1081 0.5906, -1.1058 -0.0907 0.5906, -1.3027 -0.1916 0.5906, -1.1058 -0.1916 0.5906, -1.1274 -0.0907 0.5906, -1.281 -0.0859 0.5906, -1.3027 -0.0859 0.5906, -1.2138 -0.1652 0.5906, -1.281 -0.1652 0.5906, -1.2138 -0.0955 0.5906, -1.1922 -0.0955 0.5906, -1.1922 -0.1652 0.5906, -1.1274 -0.1652 0.5906, -1.281 -0.3932 0.5906, -1.3027 -0.3932 0.5906, -1.3027 -0.494 0.5906, -1.1058 -0.494 0.5906, -1.1046 -0.6781 0.5906, -1.3039 -0.6781 0.5906, -1.5748 -0.6781 0.5906, -1.1058 -0.4676 0.5906, -1.281 -0.4676 0.5906, -1.1046 -1.2362 0.5906, -1.3039 -1.2362 0.5906, -1.5748 -1.2362 0.5906, -1.5748 -1.2362 0.1969, -0.1705 -1.2362 0.1969, -0.4214 0.4163 5.9055, -0.3474 0.4642 1.7351, -0.319 0.4793 5.9055, -0.319 0.4793 1.7351, -0.2075 0.5241 5.9055, -0.2075 0.5241 1.7351, -0.09 0.5494 5.9055, -0.09 0.5494 1.7351, 0.0301 0.5545 5.9055, 0.0301 0.5545 1.7351, 0.1493 0.5392 5.9055, 0.1493 0.5392 1.7351, 0.2642 0.504 5.9055, 0.2642 0.504 1.7351, 0.3716 0.4499 5.9055, -0.3474 0.4642 1.1369, -0.319 0.4793 1.1369, -0.2075 0.5241 1.1369, -0.09 0.5494 1.1369, 0.0301 0.5545 1.1369, 0.1493 0.5392 1.1369, 0.2642 0.504 1.1369, 0.3474 0.4642 1.1369, 0.3474 0.4642 1.7351, 0.3474 -0.7712 1.1369, 0.2642 -0.8111 1.1369, 0.1493 -0.8463 1.1369, 0.0301 -0.8615 1.1369, -0.09 -0.8564 1.1369, -0.2075 -0.8311 1.1369, -0.319 -0.7863 1.1369, -0.3474 -0.7712 1.1369, -0.3474 -0.7712 1.7351, -0.4214 -0.7233 5.9055, -0.319 -0.7863 1.7351, -0.319 -0.7863 5.9055, -0.2075 -0.8311 1.7351, -0.2075 -0.8311 5.9055, -0.09 -0.8564 1.7351, -0.09 -0.8564 5.9055, 0.0301 -0.8615 1.7351, 0.0301 -0.8615 5.9055, 0.1493 -0.8463 1.7351, 0.1493 -0.8463 5.9055, 0.2642 -0.8111 1.7351, 0.2642 -0.8111 5.9055, 0.3474 -0.7712 1.7351, 0.3716 -0.757 5.9055, 0.7087 -0.1535 5.9055, 0.6985 -0.0337 5.9055, 0.6187 0.1921 5.9055, 0.6682 0.0826 5.9055, 0.4682 0.3785 5.9055, 0.5514 0.2917 5.9055, -0.5116 0.3368 5.9055, -0.5871 0.2433 5.9055, -0.6458 0.1384 5.9055, -0.6858 0.0251 5.9055, -0.7061 -0.0934 5.9055, -0.7061 -0.2136 5.9055, -0.6858 -0.3321 5.9055, -0.6458 -0.4454 5.9055, -0.5871 -0.5503 5.9055, -0.5116 -0.6439 5.9055, 0.4682 -0.6855 5.9055, 0.5514 -0.5987 5.9055, 0.6985 -0.2733 5.9055, 0.6682 -0.3896 5.9055, 0.6187 -0.4991 5.9055, 1.9685 0.0827 0.1969, 1.9685 -0.3897 0.1969, 1.5748 0.0827 0.1969, 1.5748 -0.3897 0.1969, -1.5748 0.6418 0.1969, -1.9685 0.6418 0.1969, -1.5748 0.9292 0.1969, -1.9685 1.0473 0.1969, 1.5748 0.9292 0.1969, 1.9685 1.0473 0.1969, 1.5748 0.6418 0.1969, 1.9685 0.6418 0.1969, -1.9685 -0.3897 0.1969, -1.9685 0.0827 0.1969, -1.5748 -0.3897 0.1969, -1.5748 0.0827 0.1969, 1.9685 0.0827 0.0, 1.9685 0.6418 0.0, 1.9685 1.0473 4.7244, 1.9685 -1.3543 4.7244, 1.9685 -1.3543 0.1969, 1.9685 -0.9488 0.1969, 1.9685 -0.9488 0.0, 1.9685 -0.3897 0.0, -0.9449 1.0473 1.3078, -0.3474 1.0473 1.7351, -0.9449 1.0473 0.9608, -0.3474 1.0473 1.1369, 0.3474 1.0473 1.1369, 1.5748 1.0473 0.9608, 1.5748 1.0473 1.3078, 0.9449 1.0473 0.9608, 0.9449 1.0473 1.3078, 0.3474 1.0473 1.7351, -1.9685 1.0473 4.7244, -1.5748 1.0473 1.3078, -1.5748 1.0473 0.9608, -1.9685 -0.9488 0.1969, -1.9685 -1.3543 0.1969, -1.9685 -1.3543 4.7244, -1.9685 0.6418 0.0, -1.9685 0.0827 0.0, -1.9685 -0.3897 0.0, -1.9685 -0.9488 0.0, -0.9449 -1.3543 0.9608, 0.3474 -1.3543 1.7351, -0.3474 -1.3543 1.7351, -0.3474 -1.3543 1.1369, -0.9449 -1.3543 1.3078, -1.5748 -1.3543 1.3078, -1.5748 -1.3543 0.9608, 0.3474 -1.3543 1.1369, 0.9449 -1.3543 0.9608, 0.9449 -1.3543 1.3078, 1.5748 -1.3543 1.3078, 1.5748 -1.3543 0.9608, 1.5748 -0.9488 0.0, 1.5748 -0.3897 0.0, -1.5748 -0.3897 0.0, -1.5748 -0.9488 0.0, -1.5748 0.0827 0.0, -1.5748 0.6418 0.0, 1.5748 0.0827 0.0, 1.5748 0.6418 0.0, 1.1574 -0.3888 4.7244, 1.1158 -0.5409 4.7244, 0.3499 0.9746 4.7244, 0.4972 0.9179 4.7244, 1.1158 0.2339 4.7244, 1.1574 0.0817 4.7244, 0.6355 0.842 4.7244, 0.7626 0.7484 4.7244, 0.876 0.6388 4.7244, 1.1785 -0.0746 4.7244, 1.1811 -0.1535 4.7244, 1.1785 -0.2324 4.7244, 1.0542 -0.6862 4.7244, 0.9738 -0.822 4.7244, 0.876 -0.9458 4.7244, 0.7626 -1.0555 4.7244, 0.6355 -1.1491 4.7244, 0.4972 -1.2249 4.7244, -0.1182 -1.3287 4.7244, 0.0395 -1.334 4.7244, -0.2738 -1.3024 4.7244, -0.4245 -1.2557 4.7244, -0.5676 -1.1893 4.7244, -0.5676 0.8823 4.7244, -0.4245 0.9487 4.7244, -0.2738 0.9954 4.7244, 0.9738 0.5149 4.7244, 1.0542 0.3792 4.7244, -0.7006 -1.1044 4.7244, -0.8211 -1.0025 4.7244, -0.9269 -0.8855 4.7244, -1.0162 -0.7554 4.7244, -1.0874 -0.6146 4.7244, -1.1391 -0.4656 4.7244, -1.1391 0.1585 4.7244, -1.0874 0.3076 4.7244, -1.0162 0.4484 4.7244, -0.9269 0.5785 4.7244, -0.8211 0.6955 4.7244, -0.7006 0.7974 4.7244, 0.3499 -1.2816 4.7244, 0.1965 -1.3182 4.7244, -0.1182 1.0217 4.7244, 0.0395 1.0269 4.7244, 0.1965 1.0111 4.7244, -1.1706 -0.3109 4.7244, -1.1811 -0.1535 4.7244, -1.1706 0.0039 4.7244, 1.1785 -0.0746 5.9055, 1.1811 -0.1535 5.9055, 1.1785 -0.2324 5.9055, 1.1574 -0.3888 5.9055, 1.1158 -0.5409 5.9055, 1.0542 -0.6862 5.9055, 0.9738 -0.822 5.9055, 0.876 -0.9458 5.9055, 0.7626 -1.0555 5.9055, 0.6355 -1.1491 5.9055, 0.4972 -1.2249 5.9055, 0.3499 -1.2816 5.9055, 0.1965 -1.3182 5.9055, 0.0395 -1.334 5.9055, -0.1182 -1.3287 5.9055, -0.2738 -1.3024 5.9055, -0.4245 -1.2557 5.9055, -0.5676 -1.1893 5.9055, -0.7006 -1.1044 5.9055, -0.8211 -1.0025 5.9055, -0.9269 -0.8855 5.9055, -1.0162 -0.7554 5.9055, -1.0874 -0.6146 5.9055, -1.1391 -0.4656 5.9055, -1.1706 -0.3109 5.9055, -1.1811 -0.1535 5.9055, -1.1706 0.0039 5.9055, -1.1391 0.1585 5.9055, -1.0874 0.3076 5.9055, -1.0162 0.4484 5.9055, -0.9269 0.5785 5.9055, -0.8211 0.6955 5.9055, -0.7006 0.7974 5.9055, -0.5676 0.8823 5.9055, -0.4245 0.9487 5.9055, -0.2738 0.9954 5.9055, -0.1182 1.0217 5.9055, 0.0395 1.0269 5.9055, 0.1965 1.0111 5.9055, 0.3499 0.9746 5.9055, 0.4972 0.9179 5.9055, 0.6355 0.842 5.9055, 0.7626 0.7484 5.9055, 0.876 0.6388 5.9055, 0.9738 0.5149 5.9055, 1.0542 0.3792 5.9055, 1.1158 0.2339 5.9055, 1.1574 0.0817 5.9055, 1.5748 -0.9488 0.1969, 1.5748 -1.2362 0.1969, -1.5748 -0.9488 0.1969, 0.1705 -1.2362 0.1969, 0.1392 -1.277 0.1969, 0.0984 -1.3082 0.1969, -0.0984 -1.3082 0.1969, -0.1392 -1.277 0.1969, -0.0509 -1.3279 0.1969, 0.0 -1.3346 0.1969, 0.0509 -1.3279 0.1969, -0.1901 -1.1887 -0.0394, -0.1705 -1.2362 -0.0394, -0.1392 -1.277 -0.0394, -0.0984 -1.3082 -0.0394, -0.0509 -1.3279 -0.0394, 0.0 -1.3346 -0.0394, 0.0509 -1.3279 -0.0394, 0.0984 -1.3082 -0.0394, 0.1392 -1.277 -0.0394, 0.1705 -1.2362 -0.0394, 0.1901 -1.1887 -0.0394, 0.1969 -1.1378 -0.0394, 0.1901 -1.0868 -0.0394, 0.1705 -1.0393 -0.0394, 0.1392 -0.9986 -0.0394, 0.0984 -0.9673 -0.0394, 0.0509 -0.9476 -0.0394, 0.0 -0.9409 -0.0394, -0.0509 -0.9476 -0.0394, -0.0984 -0.9673 -0.0394, -0.1392 -0.9986 -0.0394, -0.1705 -1.0393 -0.0394, -0.1901 -1.0868 -0.0394, -0.1969 -1.1378 -0.0394, 0.0 -1.1378 -0.0394, -1.1058 0.2261 0.5945, -1.3027 0.303 0.5945, -1.3027 0.2741 0.5945, -1.2474 0.2542 0.5945, -1.2474 0.1729 0.5945, -1.3027 0.1541 0.5945, -1.3027 0.1253 0.5945, -1.1058 0.1997 0.5945
            ]
        }
        coordIndex [
            0,1,2,-1,3,4,5,-1,6,7,8,-1,8,7,9,-1,9,10,11,-1,12,13,14,-1,14,13,8,-1,14,8,15,-1,15,8,9,-1,15,9,16,-1,16,9,11,-1,12,17,13,-1,13,17,18,-1,13,18,19,-1,19,20,13,-1,13,20,21,-1,13,21,22,-1,22,23,13,-1,13,23,24,-1,13,24,25,-1,26,27,28,-1,28,27,29,-1,25,30,13,-1,13,30,27,-1,13,27,31,-1,31,27,26,-1,32,33,34,-1,35,36,37,-1,37,36,38,-1,37,38,39,-1,40,41,42,-1,42,41,43,-1,44,45,42,-1,42,45,46,-1,42,46,40,-1,39,47,37,-1,37,47,48,-1,37,48,49,-1,50,51,52,-1,52,51,7,-1,52,7,53,-1,53,7,6,-1,37,54,35,-1,35,54,51,-1,35,51,55,-1,55,51,50,-1,56,57,58,-1,56,58,34,-1,34,58,59,-1,34,59,60,-1,57,56,61,-1,61,56,62,-1,61,62,63,-1,64,65,66,-1,5,4,67,-1,67,4,68,-1,67,68,69,-1,69,70,67,-1,67,70,71,-1,67,71,72,-1,72,73,67,-1,67,73,74,-1,67,74,66,-1,66,74,75,-1,66,75,76,-1,66,65,62,-1,62,65,77,-1,62,77,63,-1,76,78,66,-1,66,78,79,-1,66,79,64,-1,80,81,82,-1,82,81,83,-1,82,83,5,-1,5,83,84,-1,5,84,3,-1,85,86,80,-1,80,86,87,-1,80,87,81,-1,88,89,90,-1,90,91,88,-1,88,91,92,-1,88,92,85,-1,85,92,93,-1,85,93,86,-1,94,95,96,-1,96,95,97,-1,96,97,98,-1,99,100,101,-1,101,100,102,-1,101,102,88,-1,102,103,88,-1,88,103,104,-1,88,104,105,-1,105,106,107,-1,107,106,108,-1,109,110,111,-1,111,110,112,-1,107,113,105,-1,105,113,114,-1,105,114,88,-1,88,114,115,-1,88,115,89,-1,94,111,116,-1,116,111,112,-1,116,112,117,-1,117,112,118,-1,117,118,119,-1,119,118,120,-1,119,120,121,-1,121,120,122,-1,121,122,123,-1,123,122,108,-1,123,108,124,-1,124,108,106,-1,1,125,111,-1,111,125,126,-1,111,126,109,-1,0,2,127,-1,60,127,34,-1,34,127,2,-1,34,2,32,-1,32,2,42,-1,32,42,128,-1,128,42,43,-1,129,130,131,-1,131,130,132,-1,131,132,133,-1,133,132,134,-1,133,134,135,-1,136,137,129,-1,129,137,138,-1,129,138,130,-1,130,138,139,-1,130,139,135,-1,135,139,140,-1,135,140,133,-1,141,132,142,-1,142,132,130,-1,142,130,143,-1,143,130,144,-1,143,144,51,-1,135,145,146,-1,147,148,135,-1,135,148,149,-1,135,149,150,-1,150,151,135,-1,135,151,152,-1,135,152,145,-1,153,154,130,-1,130,154,155,-1,130,155,156,-1,156,157,130,-1,130,157,158,-1,130,158,144,-1,144,158,159,-1,144,159,147,-1,147,159,160,-1,147,160,148,-1,146,161,135,-1,135,161,162,-1,135,162,130,-1,130,162,163,-1,130,163,153,-1,164,147,9,-1,51,144,7,-1,7,144,165,-1,7,165,9,-1,9,165,166,-1,9,166,164,-1,164,167,147,-1,147,167,168,-1,147,168,144,-1,144,168,169,-1,144,169,165,-1,170,171,172,-1,172,171,168,-1,172,168,173,-1,173,168,167,-1,173,167,174,-1,174,167,175,-1,134,66,135,-1,135,66,62,-1,135,62,147,-1,147,62,56,-1,147,56,9,-1,9,56,34,-1,9,34,10,-1,10,34,33,-1,176,177,37,-1,37,177,178,-1,179,180,178,-1,178,180,181,-1,178,181,37,-1,37,181,182,-1,37,182,54,-1,49,44,37,-1,37,44,42,-1,37,42,176,-1,176,42,183,-1,176,183,184,-1,1,111,2,-1,2,111,180,-1,2,180,42,-1,42,180,179,-1,42,179,183,-1,94,96,111,-1,111,96,185,-1,111,185,180,-1,180,185,186,-1,180,186,181,-1,181,186,187,-1,181,187,182,-1,188,187,186,-1,98,189,96,-1,96,189,188,-1,96,188,185,-1,185,188,186,-1,190,191,192,-1,192,191,193,-1,192,193,194,-1,194,193,195,-1,194,195,196,-1,196,195,197,-1,196,197,198,-1,198,197,199,-1,198,199,200,-1,200,199,201,-1,200,201,202,-1,202,201,203,-1,202,203,204,-1,205,79,206,-1,206,79,78,-1,206,78,207,-1,207,78,76,-1,207,76,208,-1,208,76,75,-1,208,75,209,-1,209,75,74,-1,209,74,210,-1,210,74,73,-1,210,73,211,-1,211,73,72,-1,211,72,212,-1,212,72,71,-1,212,71,213,-1,214,114,215,-1,215,114,113,-1,215,113,216,-1,216,113,107,-1,216,107,217,-1,217,107,108,-1,217,108,218,-1,218,108,122,-1,218,122,219,-1,219,122,120,-1,219,120,220,-1,220,120,118,-1,220,118,221,-1,221,118,112,-1,222,223,224,-1,224,223,225,-1,224,225,226,-1,226,225,227,-1,226,227,228,-1,228,227,229,-1,228,229,230,-1,230,229,231,-1,230,231,232,-1,232,231,233,-1,232,233,234,-1,234,233,235,-1,234,235,236,-1,236,235,237,-1,238,239,83,-1,240,4,241,-1,241,4,3,-1,241,3,239,-1,239,3,84,-1,239,84,83,-1,203,213,204,-1,204,213,71,-1,204,71,242,-1,242,71,70,-1,242,70,243,-1,243,70,69,-1,243,69,240,-1,240,69,68,-1,240,68,4,-1,205,191,79,-1,79,191,190,-1,79,190,64,-1,64,190,244,-1,64,244,65,-1,65,244,245,-1,65,245,77,-1,77,245,246,-1,77,246,63,-1,63,246,247,-1,248,57,247,-1,247,57,61,-1,247,61,63,-1,60,59,248,-1,248,59,58,-1,248,58,57,-1,60,248,127,-1,127,248,249,-1,127,249,0,-1,0,249,250,-1,0,250,1,-1,1,250,251,-1,1,251,125,-1,125,251,126,-1,126,251,252,-1,126,252,109,-1,109,252,253,-1,109,253,110,-1,110,253,223,-1,110,223,112,-1,112,223,222,-1,112,222,221,-1,214,236,114,-1,114,236,237,-1,114,237,115,-1,115,237,254,-1,115,254,89,-1,89,254,255,-1,256,93,257,-1,257,93,92,-1,257,92,258,-1,258,92,91,-1,258,91,255,-1,255,91,90,-1,255,90,89,-1,83,81,238,-1,238,81,87,-1,238,87,256,-1,256,87,86,-1,256,86,93,-1,259,260,261,-1,261,260,262,-1,263,264,265,-1,265,264,266,-1,265,266,267,-1,267,266,268,-1,267,268,269,-1,269,268,270,-1,271,272,273,-1,273,272,274,-1,259,275,276,-1,268,277,270,-1,270,277,278,-1,278,279,280,-1,281,282,280,-1,280,282,260,-1,280,260,278,-1,278,260,259,-1,278,259,270,-1,270,259,276,-1,283,284,285,-1,285,284,286,-1,287,268,286,-1,286,268,266,-1,286,266,285,-1,268,288,289,-1,288,268,290,-1,290,268,287,-1,290,287,291,-1,291,287,292,-1,291,292,289,-1,289,292,277,-1,289,277,268,-1,292,284,277,-1,277,284,283,-1,277,283,293,-1,293,283,294,-1,293,294,266,-1,266,294,295,-1,266,295,285,-1,296,297,298,-1,299,300,264,-1,264,300,272,-1,271,301,302,-1,302,296,271,-1,271,296,298,-1,271,298,272,-1,272,298,293,-1,272,293,264,-1,264,293,266,-1,297,279,303,-1,304,278,305,-1,305,278,298,-1,306,305,307,-1,307,305,298,-1,307,298,308,-1,308,298,297,-1,308,297,309,-1,309,297,303,-1,307,303,306,-1,306,303,279,-1,306,279,310,-1,310,279,311,-1,310,311,304,-1,304,311,312,-1,304,312,278,-1,278,312,313,-1,278,313,279,-1,279,313,314,-1,279,314,311,-1,281,315,282,-1,282,315,316,-1,301,317,302,-1,302,317,318,-1,319,300,320,-1,320,300,299,-1,275,321,276,-1,276,321,322,-1,323,324,278,-1,325,326,277,-1,327,328,277,-1,326,329,277,-1,277,329,330,-1,277,330,331,-1,328,332,277,-1,277,332,333,-1,277,333,278,-1,278,333,334,-1,278,334,323,-1,324,335,278,-1,278,335,336,-1,278,336,337,-1,337,338,278,-1,278,338,339,-1,278,339,340,-1,341,298,342,-1,342,298,278,-1,341,343,298,-1,298,343,344,-1,298,344,345,-1,346,347,293,-1,293,347,348,-1,331,349,277,-1,277,349,350,-1,277,350,327,-1,345,351,298,-1,298,351,352,-1,298,352,353,-1,353,354,298,-1,298,354,355,-1,298,355,356,-1,357,358,293,-1,293,358,359,-1,293,359,360,-1,360,361,293,-1,293,361,362,-1,293,362,346,-1,340,363,278,-1,278,363,364,-1,278,364,342,-1,348,365,293,-1,293,365,366,-1,293,366,277,-1,277,366,367,-1,277,367,325,-1,356,368,298,-1,298,368,369,-1,298,369,293,-1,293,369,370,-1,293,370,357,-1,371,372,333,-1,333,372,334,-1,372,373,334,-1,334,373,374,-1,334,374,323,-1,323,374,375,-1,323,375,324,-1,324,375,376,-1,324,376,335,-1,335,376,377,-1,335,377,336,-1,336,377,378,-1,336,378,337,-1,337,378,379,-1,337,379,338,-1,338,379,380,-1,338,380,339,-1,339,380,381,-1,339,381,340,-1,340,381,382,-1,340,382,363,-1,363,382,383,-1,363,383,364,-1,364,383,384,-1,364,384,342,-1,342,384,385,-1,342,385,341,-1,341,385,386,-1,341,386,343,-1,343,386,387,-1,343,387,344,-1,344,387,388,-1,344,388,345,-1,345,388,389,-1,345,389,351,-1,351,389,390,-1,351,390,352,-1,352,390,391,-1,352,391,353,-1,353,391,392,-1,353,392,354,-1,354,392,393,-1,354,393,355,-1,355,393,394,-1,355,394,356,-1,356,394,395,-1,356,395,368,-1,368,395,396,-1,368,396,369,-1,369,396,397,-1,369,397,370,-1,370,397,398,-1,370,398,357,-1,357,398,399,-1,357,399,358,-1,358,399,400,-1,358,400,359,-1,359,400,401,-1,359,401,360,-1,360,401,402,-1,360,402,361,-1,361,402,403,-1,361,403,362,-1,362,403,404,-1,362,404,346,-1,346,404,405,-1,346,405,347,-1,347,405,406,-1,347,406,348,-1,348,406,407,-1,348,407,365,-1,365,407,408,-1,365,408,366,-1,366,408,409,-1,366,409,367,-1,367,409,410,-1,367,410,325,-1,325,410,411,-1,325,411,326,-1,326,411,412,-1,326,412,329,-1,329,412,413,-1,329,413,330,-1,330,413,414,-1,330,414,331,-1,331,414,415,-1,331,415,349,-1,349,415,416,-1,349,416,350,-1,350,416,417,-1,350,417,327,-1,327,417,418,-1,327,418,328,-1,328,418,371,-1,328,371,332,-1,332,371,333,-1,373,238,256,-1,233,382,235,-1,235,382,381,-1,235,381,237,-1,237,381,380,-1,237,380,254,-1,254,380,379,-1,254,379,255,-1,379,378,255,-1,255,378,377,-1,255,377,258,-1,258,377,376,-1,258,376,257,-1,257,376,375,-1,257,375,256,-1,256,375,374,-1,256,374,373,-1,225,387,227,-1,227,387,386,-1,227,386,229,-1,229,386,385,-1,229,385,231,-1,231,385,384,-1,231,384,233,-1,233,384,383,-1,233,383,382,-1,252,391,253,-1,253,391,390,-1,253,390,223,-1,223,390,389,-1,223,389,225,-1,225,389,388,-1,225,388,387,-1,248,396,249,-1,249,396,395,-1,249,395,250,-1,250,395,394,-1,250,394,251,-1,251,394,393,-1,251,393,252,-1,252,393,392,-1,252,392,391,-1,244,401,245,-1,245,401,400,-1,245,400,246,-1,246,400,399,-1,246,399,247,-1,247,399,398,-1,247,398,248,-1,248,398,397,-1,248,397,396,-1,240,415,243,-1,243,415,414,-1,243,414,242,-1,242,414,413,-1,242,413,204,-1,204,413,412,-1,204,412,202,-1,194,405,192,-1,192,405,404,-1,192,404,190,-1,190,404,403,-1,190,403,244,-1,244,403,402,-1,244,402,401,-1,412,411,202,-1,202,411,410,-1,202,410,200,-1,200,410,409,-1,200,409,198,-1,198,409,408,-1,198,408,196,-1,196,408,407,-1,196,407,194,-1,194,407,406,-1,194,406,405,-1,373,372,238,-1,238,372,371,-1,238,371,239,-1,239,371,418,-1,239,418,241,-1,241,418,417,-1,241,417,240,-1,240,417,416,-1,240,416,415,-1,419,280,420,-1,420,280,279,-1,296,421,297,-1,297,421,188,-1,422,420,423,-1,423,420,279,-1,423,279,424,-1,425,297,426,-1,426,297,188,-1,426,188,189,-1,425,427,297,-1,297,427,428,-1,297,428,279,-1,279,428,429,-1,279,429,424,-1,262,260,316,-1,316,260,282,-1,5,67,267,-1,420,101,419,-1,419,101,88,-1,321,261,322,-1,322,261,269,-1,316,315,262,-1,262,315,419,-1,262,419,85,-1,85,419,88,-1,267,269,5,-1,5,269,261,-1,5,261,82,-1,82,261,262,-1,82,262,80,-1,80,262,85,-1,280,419,281,-1,281,419,315,-1,421,296,318,-1,318,296,302,-1,187,188,182,-1,182,188,421,-1,318,317,421,-1,421,317,273,-1,319,320,274,-1,274,320,263,-1,265,141,263,-1,263,141,142,-1,263,142,274,-1,274,142,143,-1,274,143,273,-1,273,143,51,-1,273,51,421,-1,421,51,54,-1,421,54,182,-1,271,273,301,-1,301,273,317,-1,264,263,299,-1,299,263,320,-1,274,272,319,-1,319,272,300,-1,269,270,322,-1,322,270,276,-1,259,261,275,-1,275,261,321,-1,99,101,422,-1,422,101,420,-1,267,67,265,-1,265,67,66,-1,66,134,265,-1,265,134,132,-1,265,132,141,-1,100,99,422,-1,430,431,189,-1,189,431,432,-1,189,432,426,-1,426,432,433,-1,426,433,425,-1,425,433,434,-1,425,434,427,-1,427,434,435,-1,427,435,428,-1,428,435,436,-1,428,436,429,-1,429,436,437,-1,429,437,424,-1,424,437,438,-1,424,438,423,-1,423,438,439,-1,423,439,422,-1,422,439,440,-1,422,440,100,-1,100,440,441,-1,100,441,102,-1,102,441,442,-1,102,442,103,-1,103,442,443,-1,103,443,104,-1,104,443,444,-1,104,444,105,-1,105,444,445,-1,105,445,106,-1,106,445,446,-1,106,446,124,-1,124,446,447,-1,124,447,123,-1,123,447,448,-1,123,448,121,-1,121,448,449,-1,121,449,119,-1,119,449,450,-1,119,450,117,-1,117,450,451,-1,117,451,116,-1,116,451,452,-1,116,452,94,-1,94,452,453,-1,94,453,95,-1,95,453,430,-1,95,430,97,-1,97,430,189,-1,97,189,98,-1,431,430,454,-1,454,430,453,-1,454,453,452,-1,434,433,454,-1,454,433,432,-1,454,432,431,-1,437,436,454,-1,454,436,435,-1,454,435,434,-1,440,439,454,-1,454,439,438,-1,454,438,437,-1,443,442,454,-1,454,442,441,-1,454,441,440,-1,446,445,454,-1,454,445,444,-1,454,444,443,-1,449,448,454,-1,454,448,447,-1,454,447,446,-1,452,451,454,-1,454,451,450,-1,454,450,449,-1,310,214,215,-1,215,216,310,-1,310,216,217,-1,310,217,306,-1,306,217,218,-1,218,219,306,-1,306,219,220,-1,306,220,221,-1,304,236,310,-1,310,236,214,-1,230,304,228,-1,228,304,305,-1,230,232,304,-1,304,232,234,-1,304,234,236,-1,222,224,305,-1,305,224,226,-1,305,226,228,-1,306,221,305,-1,305,221,222,-1,289,288,313,-1,313,288,314,-1,288,290,314,-1,314,290,311,-1,290,291,311,-1,311,291,312,-1,291,289,312,-1,312,289,313,-1,283,285,307,-1,307,285,303,-1,285,295,303,-1,303,295,309,-1,295,294,309,-1,309,294,308,-1,294,283,308,-1,308,283,307,-1,284,191,286,-1,286,191,205,-1,197,284,199,-1,199,284,292,-1,197,195,284,-1,284,195,193,-1,284,193,191,-1,213,203,292,-1,292,203,201,-1,292,201,199,-1,287,212,292,-1,292,212,213,-1,286,205,206,-1,206,207,286,-1,286,207,208,-1,286,208,287,-1,287,208,209,-1,209,210,287,-1,287,210,211,-1,287,211,212,-1,455,456,133,-1,133,456,131,-1,456,457,131,-1,131,457,129,-1,457,458,129,-1,129,458,136,-1,458,459,136,-1,136,459,137,-1,459,460,137,-1,137,460,138,-1,460,461,138,-1,138,461,139,-1,461,462,139,-1,139,462,140,-1,462,455,140,-1,140,455,133,-1,
        ]
    }
}
Shape{
    appearance Appearance {
        material  Material 	{
            diffuseColor 1.0 1.0 1.0
            specularColor 0.8784313725490196 0.8784313725490196 0.8784313725490196
            ambientIntensity 1.0
            transparency 0.0
            shininess 0.5
        }
    }
    geometry IndexedFaceSet {
        ccw TRUE
        solid FALSE
        coord DEF co Coordinate {
            point [
                -1.2258 0.1795 0.5945, -1.1436 0.2089 0.5945, -1.1058 0.1997 0.5945, -1.3027 0.1253 0.5945, -1.3027 0.1541 0.5945, -1.2474 0.1729 0.5945, -1.1368 0.2108 0.5945, -1.1298 0.2121 0.5945, -1.1058 0.2261 0.5945, -1.1298 0.2127 0.5945, -1.1368 0.214 0.5945, -1.2258 0.2454 0.5945, -1.2474 0.2542 0.5945, -1.1436 0.2157 0.5945, -1.3027 0.303 0.5945, -1.3027 0.2741 0.5945
            ]
        }
        coordIndex [
            0,1,2,-1,3,4,5,-1,1,6,2,-1,2,6,7,-1,2,7,8,-1,8,7,9,-1,8,9,10,-1,2,3,0,-1,0,3,5,-1,0,5,11,-1,11,5,12,-1,10,13,8,-1,8,13,11,-1,8,11,14,-1,14,11,12,-1,14,12,15,-1,
        ]
    }
}
Shape{
    appearance Appearance {
        material  Material 	{
            diffuseColor 0.10196078431372549 0.10196078431372549 0.10196078431372549
            specularColor 0.03137254901960784 0.03137254901960784 0.03137254901960784
            ambientIntensity 0.102
            transparency 0.0
            shininess 0.5
        }
    }
    geometry IndexedFaceSet {
        ccw TRUE
        solid FALSE
        coord DEF co Coordinate {
            point [
                -1.2258 0.1795 0.5945, -1.2258 0.2454 0.5945, -1.2258 0.1795 0.5906, -1.2258 0.2454 0.5906, -1.1436 0.2089 0.5945, -1.1436 0.2089 0.5906, -1.1368 0.2108 0.5906, -1.1368 0.2108 0.5945, -1.1298 0.2121 0.5906, -1.1298 0.2121 0.5945, -1.1298 0.2127 0.5945, -1.1298 0.2127 0.5906, -1.1368 0.214 0.5906, -1.1368 0.214 0.5945, -1.1436 0.2157 0.5906, -1.1436 0.2157 0.5945, -1.3027 0.006 0.5945, -1.3027 -0.0475 0.5945, -1.3027 0.006 0.5906, -1.3027 -0.0475 0.5906, -1.1058 -0.0475 0.5945, -1.1058 -0.0475 0.5906, -1.1058 0.008 0.5945, -1.1058 0.008 0.5906, -1.2018 0.1109 0.5945, -1.2018 0.1109 0.5906, -1.1921 0.1105 0.5906, -1.1921 0.1105 0.5945, -1.1716 0.1068 0.5906, -1.1716 0.1068 0.5945, -1.1524 0.0986 0.5906, -1.1524 0.0986 0.5945, -1.1367 0.0867 0.5906, -1.1367 0.0867 0.5945, -1.1296 0.079 0.5906, -1.1296 0.079 0.5945, -1.1169 0.0595 0.5906, -1.1169 0.0595 0.5945, -1.1088 0.0365 0.5906, -1.1088 0.0365 0.5945, -1.3005 0.0303 0.5906, -1.3005 0.0303 0.5945, -1.2938 0.053 0.5906, -1.2938 0.053 0.5945, -1.2818 0.0736 0.5906, -1.2818 0.0736 0.5945, -1.2663 0.0898 0.5906, -1.2663 0.0898 0.5945, -1.2487 0.1011 0.5906, -1.2487 0.1011 0.5945, -1.2281 0.1081 0.5906, -1.2281 0.1081 0.5945
            ]
        }
        coordIndex [
            0,1,2,-1,2,1,3,-1,4,0,5,-1,5,0,2,-1,4,5,6,-1,4,6,7,-1,7,6,8,-1,7,8,9,-1,10,9,11,-1,11,9,8,-1,10,11,12,-1,10,12,13,-1,13,12,14,-1,13,14,15,-1,1,15,3,-1,3,15,14,-1,16,17,18,-1,18,17,19,-1,17,20,19,-1,19,20,21,-1,20,22,21,-1,21,22,23,-1,24,25,26,-1,24,26,27,-1,27,26,28,-1,27,28,29,-1,29,28,30,-1,29,30,31,-1,31,30,32,-1,31,32,33,-1,33,32,34,-1,33,34,35,-1,35,34,36,-1,35,36,37,-1,37,36,38,-1,37,38,39,-1,39,38,23,-1,39,23,22,-1,16,18,40,-1,16,40,41,-1,41,40,42,-1,41,42,43,-1,43,42,44,-1,43,44,45,-1,45,44,46,-1,45,46,47,-1,47,46,48,-1,47,48,49,-1,49,48,50,-1,49,50,51,-1,51,50,25,-1,51,25,24,-1,
        ]
    }
}
Shape{
    appearance Appearance {
        material  Material 	{
            diffuseColor 1.0 1.0 1.0
            specularColor 0.8784313725490196 0.8784313725490196 0.8784313725490196
            ambientIntensity 1.0
            transparency 0.0
            shininess 0.5
        }
    }
    geometry IndexedFaceSet {
        ccw TRUE
        solid FALSE
        coord DEF co Coordinate {
            point [
                -1.2281 0.1081 0.5945, -1.2018 0.1109 0.5945, -1.2023 0.0845 0.5945, -1.1921 0.1105 0.5945, -1.1827 0.0828 0.5945, -1.1716 0.1068 0.5945, -1.1672 0.0782 0.5945, -1.1524 0.0986 0.5945, -1.1551 0.0715 0.5945, -1.1367 0.0867 0.5945, -1.1449 0.0619 0.5945, -1.1296 0.079 0.5945, -1.1356 0.0476 0.5945, -1.1169 0.0595 0.5945, -1.1299 0.0313 0.5945, -1.1088 0.0365 0.5945, -1.1274 0.0079 0.5945, -1.1058 0.008 0.5945, -1.1274 -0.0211 0.5945, -1.1058 -0.0475 0.5945, -1.281 -0.0211 0.5945, -1.3027 -0.0475 0.5945, -1.281 0.0068 0.5945, -1.3027 0.006 0.5945, -1.2791 0.0276 0.5945, -1.3005 0.0303 0.5945, -1.2739 0.0442 0.5945, -1.2938 0.053 0.5945, -1.2661 0.0574 0.5945, -1.2818 0.0736 0.5945, -1.2553 0.0684 0.5945, -1.2663 0.0898 0.5945, -1.2417 0.0768 0.5945, -1.2487 0.1011 0.5945, -1.2262 0.082 0.5945
            ]
        }
        coordIndex [
            0,1,2,-1,2,1,3,-1,2,3,4,-1,4,3,5,-1,4,5,6,-1,6,5,7,-1,6,7,8,-1,8,7,9,-1,8,9,10,-1,10,9,11,-1,10,11,12,-1,12,11,13,-1,12,13,14,-1,14,13,15,-1,14,15,16,-1,16,15,17,-1,16,17,18,-1,18,17,19,-1,18,19,20,-1,20,19,21,-1,20,21,22,-1,22,21,23,-1,22,23,24,-1,24,23,25,-1,24,25,26,-1,26,25,27,-1,26,27,28,-1,28,27,29,-1,28,29,30,-1,30,29,31,-1,30,31,32,-1,32,31,33,-1,32,33,34,-1,34,33,0,-1,34,0,2,-1,
        ]
    }
}
Shape{
    appearance Appearance {
        material  Material 	{
            diffuseColor 0.10196078431372549 0.10196078431372549 0.10196078431372549
            specularColor 0.03137254901960784 0.03137254901960784 0.03137254901960784
            ambientIntensity 0.102
            transparency 0.0
            shininess 0.5
        }
    }
    geometry IndexedFaceSet {
        ccw TRUE
        solid FALSE
        coord DEF co Coordinate {
            point [
                -1.1274 0.0079 0.5945, -1.1274 -0.0211 0.5945, -1.1274 0.0079 0.5906, -1.1274 -0.0211 0.5906, -1.1299 0.0313 0.5906, -1.1299 0.0313 0.5945, -1.1356 0.0476 0.5906, -1.1356 0.0476 0.5945, -1.1449 0.0619 0.5906, -1.1449 0.0619 0.5945, -1.1551 0.0715 0.5906, -1.1551 0.0715 0.5945, -1.1672 0.0782 0.5906, -1.1672 0.0782 0.5945, -1.1827 0.0828 0.5906, -1.1827 0.0828 0.5945, -1.2023 0.0845 0.5906, -1.2023 0.0845 0.5945, -1.2262 0.082 0.5906, -1.2262 0.082 0.5945, -1.2417 0.0768 0.5906, -1.2417 0.0768 0.5945, -1.2553 0.0684 0.5906, -1.2553 0.0684 0.5945, -1.2661 0.0574 0.5906, -1.2661 0.0574 0.5945, -1.2739 0.0442 0.5906, -1.2739 0.0442 0.5945, -1.2791 0.0276 0.5906, -1.2791 0.0276 0.5945, -1.281 0.0068 0.5906, -1.281 0.0068 0.5945, -1.281 -0.0211 0.5945, -1.281 -0.0211 0.5906, -1.281 -0.0859 0.5945, -1.3027 -0.0859 0.5945, -1.281 -0.0859 0.5906, -1.3027 -0.0859 0.5906, -1.3027 -0.1916 0.5945, -1.3027 -0.1916 0.5906, -1.1058 -0.1916 0.5945, -1.1058 -0.1916 0.5906, -1.1058 -0.0907 0.5945, -1.1058 -0.0907 0.5906, -1.1274 -0.0907 0.5945, -1.1274 -0.0907 0.5906, -1.1274 -0.1652 0.5945, -1.1274 -0.1652 0.5906, -1.1922 -0.1652 0.5945, -1.1922 -0.1652 0.5906, -1.1922 -0.0955 0.5945, -1.1922 -0.0955 0.5906, -1.2138 -0.0955 0.5945, -1.2138 -0.0955 0.5906, -1.2138 -0.1652 0.5945, -1.2138 -0.1652 0.5906, -1.281 -0.1652 0.5945, -1.281 -0.1652 0.5906
            ]
        }
        coordIndex [
            0,1,2,-1,2,1,3,-1,0,2,4,-1,0,4,5,-1,5,4,6,-1,5,6,7,-1,7,6,8,-1,7,8,9,-1,9,8,10,-1,9,10,11,-1,11,10,12,-1,11,12,13,-1,13,12,14,-1,13,14,15,-1,15,14,16,-1,15,16,17,-1,17,16,18,-1,17,18,19,-1,19,18,20,-1,19,20,21,-1,21,20,22,-1,21,22,23,-1,23,22,24,-1,23,24,25,-1,25,24,26,-1,25,26,27,-1,27,26,28,-1,27,28,29,-1,29,28,30,-1,29,30,31,-1,32,31,33,-1,33,31,30,-1,1,32,3,-1,3,32,33,-1,34,35,36,-1,36,35,37,-1,35,38,37,-1,37,38,39,-1,38,40,39,-1,39,40,41,-1,40,42,41,-1,41,42,43,-1,42,44,43,-1,43,44,45,-1,44,46,45,-1,45,46,47,-1,46,48,47,-1,47,48,49,-1,48,50,49,-1,49,50,51,-1,50,52,51,-1,51,52,53,-1,52,54,53,-1,53,54,55,-1,54,56,55,-1,55,56,57,-1,56,34,57,-1,57,34,36,-1,
        ]
    }
}
Shape{
    appearance Appearance {
        material  Material 	{
            diffuseColor 1.0 1.0 1.0
            specularColor 0.8784313725490196 0.8784313725490196 0.8784313725490196
            ambientIntensity 1.0
            transparency 0.0
            shininess 0.5
        }
    }
    geometry IndexedFaceSet {
        ccw TRUE
        solid FALSE
        coord DEF co Coordinate {
            point [
                -1.3027 -0.1916 0.5945, -1.3027 -0.0859 0.5945, -1.281 -0.0859 0.5945, -1.281 -0.1652 0.5945, -1.2138 -0.1652 0.5945, -1.1058 -0.1916 0.5945, -1.1274 -0.0907 0.5945, -1.1058 -0.0907 0.5945, -1.1274 -0.1652 0.5945, -1.1922 -0.1652 0.5945, -1.1922 -0.0955 0.5945, -1.2138 -0.0955 0.5945
            ]
        }
        coordIndex [
            0,1,2,-1,2,3,0,-1,0,3,4,-1,0,4,5,-1,6,7,8,-1,8,7,5,-1,8,5,9,-1,9,5,4,-1,9,4,10,-1,10,4,11,-1,
        ]
    }
}
Shape{
    appearance Appearance {
        material  Material 	{
            diffuseColor 0.10196078431372549 0.10196078431372549 0.10196078431372549
            specularColor 0.03137254901960784 0.03137254901960784 0.03137254901960784
            ambientIntensity 0.102
            transparency 0.0
            shininess 0.5
        }
    }
    geometry IndexedFaceSet {
        ccw TRUE
        solid FALSE
        coord DEF co Coordinate {
            point [
                -1.2708 -0.23 0.5945, -1.2925 -0.23 0.5945, -1.2708 -0.23 0.5906, -1.2925 -0.23 0.5906, -1.3011 -0.251 0.5945, -1.3051 -0.2841 0.5945, -1.3051 -0.2841 0.5906, -1.305 -0.2788 0.5906, -1.305 -0.2788 0.5945, -1.3039 -0.2709 0.5906, -1.3011 -0.251 0.5906, -1.2079 -0.3764 0.5945, -1.2079 -0.3764 0.5906, -1.2303 -0.3746 0.5906, -1.2303 -0.3746 0.5945, -1.2512 -0.3688 0.5906, -1.2512 -0.3688 0.5945, -1.27 -0.3584 0.5906, -1.27 -0.3584 0.5945, -1.2856 -0.3436 0.5906, -1.2856 -0.3436 0.5945, -1.2959 -0.3276 0.5906, -1.2959 -0.3276 0.5945, -1.3025 -0.3084 0.5906, -1.3025 -0.3084 0.5945, -1.3039 -0.2957 0.5906, -1.1034 -0.2763 0.5945, -1.1034 -0.2763 0.5906, -1.1053 -0.2974 0.5945, -1.1046 -0.29 0.5906, -1.1053 -0.2974 0.5906, -1.1118 -0.319 0.5906, -1.1118 -0.319 0.5945, -1.1226 -0.3374 0.5906, -1.1226 -0.3374 0.5945, -1.1392 -0.3545 0.5906, -1.1392 -0.3545 0.5945, -1.1576 -0.366 0.5906, -1.1576 -0.366 0.5945, -1.18 -0.3736 0.5906, -1.18 -0.3736 0.5945, -1.1046 -0.2589 0.5906, -1.105 -0.2527 0.5945, -1.105 -0.2527 0.5906, -1.1112 -0.23 0.5945, -1.1112 -0.23 0.5906, -1.1376 -0.23 0.5945, -1.1376 -0.23 0.5906, -1.125 -0.2761 0.5945, -1.125 -0.2761 0.5906, -1.1281 -0.2522 0.5906, -1.1281 -0.2522 0.5945, -1.2063 -0.35 0.5945, -1.2063 -0.35 0.5906, -1.1916 -0.3491 0.5906, -1.1916 -0.3491 0.5945, -1.1702 -0.3439 0.5906, -1.1702 -0.3439 0.5945, -1.155 -0.3359 0.5906, -1.155 -0.3359 0.5945, -1.1418 -0.3241 0.5906, -1.1418 -0.3241 0.5945, -1.1325 -0.3101 0.5906, -1.1325 -0.3101 0.5945, -1.1272 -0.2955 0.5906, -1.1272 -0.2955 0.5945, -1.2834 -0.2805 0.5945, -1.2834 -0.2805 0.5906, -1.2814 -0.2988 0.5906, -1.2814 -0.2988 0.5945, -1.2761 -0.3133 0.5906, -1.2761 -0.3133 0.5945, -1.2679 -0.3253 0.5906, -1.2679 -0.3253 0.5945, -1.2582 -0.3345 0.5906, -1.2582 -0.3345 0.5945, -1.2446 -0.3427 0.5906, -1.2446 -0.3427 0.5945, -1.2276 -0.348 0.5906, -1.2276 -0.348 0.5945, -1.2728 -0.2335 0.5906, -1.2728 -0.2335 0.5945, -1.2805 -0.2544 0.5906, -1.2805 -0.2544 0.5945
            ]
        }
        coordIndex [
            0,1,2,-1,2,1,3,-1,3,1,4,-1,5,6,7,-1,5,7,8,-1,8,7,9,-1,8,9,4,-1,4,9,10,-1,4,10,3,-1,11,12,13,-1,11,13,14,-1,14,13,15,-1,14,15,16,-1,16,15,17,-1,16,17,18,-1,18,17,19,-1,18,19,20,-1,20,19,21,-1,20,21,22,-1,22,21,23,-1,22,23,24,-1,24,23,5,-1,5,23,25,-1,5,25,6,-1,26,27,28,-1,28,27,29,-1,29,30,28,-1,28,30,31,-1,28,31,32,-1,32,31,33,-1,32,33,34,-1,34,33,35,-1,34,35,36,-1,36,35,37,-1,36,37,38,-1,38,37,39,-1,38,39,40,-1,40,39,12,-1,40,12,11,-1,27,26,41,-1,41,26,42,-1,41,42,43,-1,43,42,44,-1,43,44,45,-1,44,46,45,-1,45,46,47,-1,48,49,50,-1,48,50,51,-1,51,50,47,-1,51,47,46,-1,52,53,54,-1,52,54,55,-1,55,54,56,-1,55,56,57,-1,57,56,58,-1,57,58,59,-1,59,58,60,-1,59,60,61,-1,61,60,62,-1,61,62,63,-1,63,62,64,-1,63,64,65,-1,65,64,49,-1,65,49,48,-1,66,67,68,-1,66,68,69,-1,69,68,70,-1,69,70,71,-1,71,70,72,-1,71,72,73,-1,73,72,74,-1,73,74,75,-1,75,74,76,-1,75,76,77,-1,77,76,78,-1,77,78,79,-1,79,78,53,-1,79,53,52,-1,0,2,80,-1,0,80,81,-1,81,80,82,-1,81,82,83,-1,83,82,67,-1,83,67,66,-1,
        ]
    }
}
Shape{
    appearance Appearance {
        material  Material 	{
            diffuseColor 1.0 1.0 1.0
            specularColor 0.8784313725490196 0.8784313725490196 0.8784313725490196
            ambientIntensity 1.0
            transparency 0.0
            shininess 0.5
        }
    }
    geometry IndexedFaceSet {
        ccw TRUE
        solid FALSE
        coord DEF co Coordinate {
            point [
                -1.2814 -0.2988 0.5945, -1.3051 -0.2841 0.5945, -1.2834 -0.2805 0.5945, -1.305 -0.2788 0.5945, -1.2805 -0.2544 0.5945, -1.3011 -0.251 0.5945, -1.2728 -0.2335 0.5945, -1.2925 -0.23 0.5945, -1.2708 -0.23 0.5945, -1.1376 -0.23 0.5945, -1.1112 -0.23 0.5945, -1.1281 -0.2522 0.5945, -1.105 -0.2527 0.5945, -1.125 -0.2761 0.5945, -1.1034 -0.2763 0.5945, -1.1272 -0.2955 0.5945, -1.1053 -0.2974 0.5945, -1.1325 -0.3101 0.5945, -1.1118 -0.319 0.5945, -1.1418 -0.3241 0.5945, -1.1226 -0.3374 0.5945, -1.155 -0.3359 0.5945, -1.1392 -0.3545 0.5945, -1.1702 -0.3439 0.5945, -1.1576 -0.366 0.5945, -1.1916 -0.3491 0.5945, -1.18 -0.3736 0.5945, -1.2063 -0.35 0.5945, -1.2079 -0.3764 0.5945, -1.2276 -0.348 0.5945, -1.2303 -0.3746 0.5945, -1.2446 -0.3427 0.5945, -1.2512 -0.3688 0.5945, -1.2582 -0.3345 0.5945, -1.27 -0.3584 0.5945, -1.2679 -0.3253 0.5945, -1.2856 -0.3436 0.5945, -1.2761 -0.3133 0.5945, -1.2959 -0.3276 0.5945, -1.3025 -0.3084 0.5945
            ]
        }
        coordIndex [
            0,1,2,-1,2,1,3,-1,2,3,4,-1,4,3,5,-1,4,5,6,-1,6,5,7,-1,6,7,8,-1,9,10,11,-1,11,10,12,-1,11,12,13,-1,13,12,14,-1,13,14,15,-1,15,14,16,-1,15,16,17,-1,17,16,18,-1,17,18,19,-1,19,18,20,-1,19,20,21,-1,21,20,22,-1,21,22,23,-1,23,22,24,-1,23,24,25,-1,25,24,26,-1,25,26,27,-1,27,26,28,-1,27,28,29,-1,29,28,30,-1,29,30,31,-1,31,30,32,-1,31,32,33,-1,33,32,34,-1,33,34,35,-1,35,34,36,-1,35,36,37,-1,37,36,38,-1,37,38,0,-1,0,38,39,-1,0,39,1,-1,
        ]
    }
}
Shape{
    appearance Appearance {
        material  Material 	{
            diffuseColor 0.10196078431372549 0.10196078431372549 0.10196078431372549
            specularColor 0.03137254901960784 0.03137254901960784 0.03137254901960784
            ambientIntensity 0.102
            transparency 0.0
            shininess 0.5
        }
    }
    geometry IndexedFaceSet {
        ccw TRUE
        solid FALSE
        coord DEF co Coordinate {
            point [
                -1.281 -0.3932 0.5945, -1.3027 -0.3932 0.5945, -1.281 -0.3932 0.5906, -1.3027 -0.3932 0.5906, -1.3027 -0.494 0.5945, -1.3027 -0.494 0.5906, -1.1058 -0.494 0.5945, -1.1058 -0.494 0.5906, -1.1058 -0.4676 0.5945, -1.1058 -0.4676 0.5906, -1.281 -0.4676 0.5945, -1.281 -0.4676 0.5906
            ]
        }
        coordIndex [
            0,1,2,-1,2,1,3,-1,1,4,3,-1,3,4,5,-1,4,6,5,-1,5,6,7,-1,6,8,7,-1,7,8,9,-1,8,10,9,-1,9,10,11,-1,10,0,11,-1,11,0,2,-1,
        ]
    }
}
Shape{
    appearance Appearance {
        material  Material 	{
            diffuseColor 1.0 1.0 1.0
            specularColor 0.8784313725490196 0.8784313725490196 0.8784313725490196
            ambientIntensity 1.0
            transparency 0.0
            shininess 0.5
        }
    }
    geometry IndexedFaceSet {
        ccw TRUE
        solid FALSE
        coord DEF co Coordinate {
            point [
                -1.1058 -0.4676 0.5945, -1.1058 -0.494 0.5945, -1.281 -0.4676 0.5945, -1.3027 -0.494 0.5945, -1.281 -0.3932 0.5945, -1.3027 -0.3932 0.5945
            ]
        }
        coordIndex [
            0,1,2,-1,2,1,3,-1,2,3,4,-1,4,3,5,-1,
        ]
    }
}
Shape{
    appearance Appearance {
        material  Material 	{
            diffuseColor 0.10196078431372549 0.10196078431372549 0.10196078431372549
            specularColor 0.03137254901960784 0.03137254901960784 0.03137254901960784
            ambientIntensity 0.102
            transparency 0.0
            shininess 0.5
        }
    }
    geometry IndexedFaceSet {
        ccw TRUE
        solid FALSE
        coord DEF co Coordinate {
            point [
                -1.2258 0.1795 0.5906, -1.2258 0.2454 0.5906, -1.1436 0.2089 0.5906, -1.1436 0.2157 0.5906, -1.1368 0.2108 0.5906, -1.1368 0.214 0.5906, -1.1298 0.2121 0.5906, -1.1298 0.2127 0.5906, -1.1274 0.0079 0.5906, -1.1274 -0.0211 0.5906, -1.281 -0.0211 0.5906, -1.2262 0.082 0.5906, -1.2023 0.0845 0.5906, -1.2417 0.0768 0.5906, -1.1827 0.0828 0.5906, -1.1672 0.0782 0.5906, -1.1299 0.0313 0.5906, -1.281 0.0068 0.5906, -1.2791 0.0276 0.5906, -1.2739 0.0442 0.5906, -1.1551 0.0715 0.5906, -1.1449 0.0619 0.5906, -1.1356 0.0476 0.5906, -1.2661 0.0574 0.5906, -1.2553 0.0684 0.5906
            ]
        }
        coordIndex [
            0,1,2,-1,2,1,3,-1,2,3,4,-1,4,3,5,-1,4,5,6,-1,6,5,7,-1,8,9,10,-1,11,12,8,-1,11,8,13,-1,12,14,8,-1,8,14,15,-1,8,15,16,-1,10,17,8,-1,8,17,18,-1,8,18,19,-1,20,21,15,-1,15,21,22,-1,15,22,16,-1,19,23,8,-1,8,23,24,-1,8,24,13,-1,
        ]
    }
}
Shape{
    appearance Appearance {
        material  Material 	{
            diffuseColor 1.0 1.0 1.0
            specularColor 0.8784313725490196 0.8784313725490196 0.8784313725490196
            ambientIntensity 1.0
            transparency 0.0
            shininess 0.5
        }
    }
    geometry IndexedFaceSet {
        ccw TRUE
        solid FALSE
        coord DEF co Coordinate {
            point [
                -1.5748 0.3386 1.9685, -1.5748 0.7323 1.9685, -1.5748 0.3386 -1.1811, -1.5748 0.7323 -1.1811, -1.4961 0.3386 1.9685, -1.4961 0.3386 -1.1811, -1.4961 0.7323 1.9685, -1.4961 0.7323 -1.1811, -1.0236 -1.0393 1.9685, -1.0236 -0.6456 1.9685, -1.0236 -1.0393 -1.1811, -1.0236 -0.6456 -1.1811, -0.9449 -1.0393 1.9685, -0.9449 -1.0393 -1.1811, -0.9449 -0.6456 1.9685, -0.9449 -0.6456 -1.1811, 0.1969 0.8701 1.9685, 0.1969 0.7914 1.9685, 0.1969 0.8701 -1.1811, 0.1969 0.7914 -1.1811, -0.1969 0.8701 1.9685, -0.1969 0.8701 -1.1811, -0.1969 0.7914 1.9685, -0.1969 0.7914 -1.1811, 0.9449 -1.0393 1.9685, 0.9449 -0.6456 1.9685, 0.9449 -1.0393 -1.1811, 0.9449 -0.6456 -1.1811, 1.0236 -1.0393 1.9685, 1.0236 -1.0393 -1.1811, 1.0236 -0.6456 1.9685, 1.0236 -0.6456 -1.1811, 1.4961 0.3386 1.9685, 1.4961 0.7323 1.9685, 1.4961 0.3386 -1.1811, 1.4961 0.7323 -1.1811, 1.5748 0.3386 1.9685, 1.5748 0.3386 -1.1811, 1.5748 0.7323 1.9685, 1.5748 0.7323 -1.1811
            ]
        }
        coordIndex [
            0,1,2,-1,2,1,3,-1,4,0,5,-1,5,0,2,-1,6,4,7,-1,7,4,5,-1,1,6,3,-1,3,6,7,-1,4,6,0,-1,0,6,1,-1,7,5,3,-1,3,5,2,-1,8,9,10,-1,10,9,11,-1,12,8,13,-1,13,8,10,-1,14,12,15,-1,15,12,13,-1,9,14,11,-1,11,14,15,-1,12,14,8,-1,8,14,9,-1,15,13,11,-1,11,13,10,-1,16,17,18,-1,18,17,19,-1,20,16,21,-1,21,16,18,-1,22,20,23,-1,23,20,21,-1,17,22,19,-1,19,22,23,-1,20,22,16,-1,16,22,17,-1,23,21,19,-1,19,21,18,-1,24,25,26,-1,26,25,27,-1,28,24,29,-1,29,24,26,-1,30,28,31,-1,31,28,29,-1,25,30,27,-1,27,30,31,-1,28,30,24,-1,24,30,25,-1,31,29,27,-1,27,29,26,-1,32,33,34,-1,34,33,35,-1,36,32,37,-1,37,32,34,-1,38,36,39,-1,39,36,37,-1,33,38,35,-1,35,38,39,-1,36,38,32,-1,32,38,33,-1,39,37,35,-1,35,37,34,-1,
        ]
    }
}