%TF.GenerationSoftware,KiCad,Pcbnew,6.0.9-8da3e8f707~117~ubuntu22.04.1*%
%TF.CreationDate,2022-12-19T13:03:23+01:00*%
%TF.ProjectId,grid_service_tool,67726964-5f73-4657-9276-6963655f746f,rev?*%
%TF.SameCoordinates,Original*%
%TF.FileFunction,Profile,NP*%
%FSLAX46Y46*%
G04 Gerber Fmt 4.6, Leading zero omitted, Abs format (unit mm)*
G04 Created by KiCad (PCBNEW 6.0.9-8da3e8f707~117~ubuntu22.04.1) date 2022-12-19 13:03:23*
%MOMM*%
%LPD*%
G01*
G04 APERTURE LIST*
%TA.AperFunction,Profile*%
%ADD10C,0.100000*%
%TD*%
%TA.AperFunction,Profile*%
%ADD11C,0.050000*%
%TD*%
G04 APERTURE END LIST*
D10*
X101500000Y-102500000D02*
X102500000Y-102500000D01*
X101500000Y-104000000D02*
X102500000Y-104000000D01*
X101000000Y-103500000D02*
X101000000Y-103000000D01*
X101000000Y-103500000D02*
G75*
G03*
X101500000Y-104000000I500000J0D01*
G01*
X101500000Y-102500000D02*
G75*
G03*
X101000000Y-103000000I0J-500000D01*
G01*
X98500000Y-104000000D02*
G75*
G03*
X99000000Y-103500000I0J500000D01*
G01*
X99000000Y-103000000D02*
G75*
G03*
X98500000Y-102500000I-500000J0D01*
G01*
X116000000Y-70000000D02*
X108000000Y-78000000D01*
X92000000Y-78000000D02*
X84000000Y-70000000D01*
X108000000Y-44000000D02*
X116000000Y-52000000D01*
X92000000Y-44000000D02*
X84000000Y-52000000D01*
X108000000Y-44000000D02*
X92000000Y-44000000D01*
X84000000Y-70000000D02*
X84000000Y-52000000D01*
X116000000Y-70000000D02*
X116000000Y-52000000D01*
X108000000Y-78000000D02*
X102500000Y-102500000D01*
X92000000Y-78000000D02*
X97500000Y-102500000D01*
X112500000Y-60000000D02*
G75*
G03*
X112500000Y-60000000I-12500000J0D01*
G01*
X98500000Y-102500000D02*
X97500000Y-102500000D01*
X98500000Y-106000000D02*
X101500000Y-106000000D01*
X101500000Y-106000000D02*
G75*
G03*
X102500000Y-105000000I1J999999D01*
G01*
X97500000Y-105000000D02*
G75*
G03*
X98500000Y-106000000I1000000J0D01*
G01*
X102500000Y-105000000D02*
X102500000Y-104000000D01*
X97500000Y-104000000D02*
X97500000Y-105000000D01*
X98500000Y-104000000D02*
X97500000Y-104000000D01*
X99000000Y-103000000D02*
X99000000Y-103500000D01*
D11*
X98585786Y-88585786D02*
X98585786Y-90171572D01*
X101414222Y-88585786D02*
X101414222Y-90171572D01*
X101414222Y-88585786D02*
X101414222Y-87000000D01*
X101414222Y-87000000D02*
G75*
G03*
X98585786Y-87000000I-1414218J0D01*
G01*
X98585786Y-90171572D02*
G75*
G03*
X101414222Y-90171572I1414218J0D01*
G01*
X98585786Y-88585786D02*
X98585786Y-87000000D01*
M02*
